<svg width="270" height="30" viewBox="0 0 270 30" fill="none" xmlns="http://www.w3.org/2000/svg">
<path fill-rule="evenodd" clip-rule="evenodd" d="M3.78831 14.4393C3.78831 15.32 3.07574 16.0345 2.1955 16.0345C1.31603 16.0345 0.602686 15.32 0.602686 14.4393C0.602686 13.5585 1.31603 12.8448 2.1955 12.8448C3.07574 12.8448 3.78831 13.5585 3.78831 14.4393ZM29.1011 14.4393C29.1011 15.32 28.3878 16.0345 27.5087 16.0345C26.6288 16.0345 25.9155 15.32 25.9155 14.4393C25.9155 13.5585 26.6288 12.8448 27.5087 12.8448C28.3878 12.8448 29.1011 13.5585 29.1011 14.4393ZM16.4447 20.7326C16.4447 21.6132 15.7315 22.3276 14.8521 22.3276C13.9723 22.3276 13.2591 21.6132 13.2591 20.7326C13.2591 19.8519 13.9723 19.1379 14.8521 19.1379C15.7315 19.1379 16.4447 19.8519 16.4447 20.7326ZM10.0735 17.6293C10.0735 18.5097 9.36059 19.2241 8.48046 19.2241C7.60071 19.2241 6.88784 18.5097 6.88784 17.6293C6.88784 16.7482 7.60071 16.0345 8.48046 16.0345C9.36059 16.0345 10.0735 16.7482 10.0735 17.6293ZM22.7299 17.6293C22.7299 18.5097 22.0166 19.2241 21.1372 19.2241C20.2571 19.2241 19.5442 18.5097 19.5442 17.6293C19.5442 16.7482 20.2571 16.0345 21.1372 16.0345C22.0166 16.0345 22.7299 16.7482 22.7299 17.6293ZM3.27172 19.2676C3.27172 19.8617 2.7903 20.3448 2.19608 20.3448C1.60108 20.3448 1.11927 19.8617 1.11927 19.2676C1.11927 18.672 1.60108 18.1897 2.19608 18.1897C2.7903 18.1897 3.27172 18.672 3.27172 19.2676ZM28.5845 19.2676C28.5845 19.8617 28.1024 20.3448 27.5083 20.3448C26.9138 20.3448 26.4321 19.8617 26.4321 19.2676C26.4321 18.672 26.9138 18.1897 27.5083 18.1897C28.1024 18.1897 28.5845 18.672 28.5845 19.2676ZM15.9281 25.6458C15.9281 26.241 15.4458 26.7241 14.8523 26.7241C14.2584 26.7241 13.7757 26.241 13.7757 25.6458C13.7757 25.0509 14.2584 24.569 14.8523 24.569C15.4458 24.569 15.9281 25.0509 15.9281 25.6458ZM9.55688 22.4573C9.55688 23.0524 9.07515 23.5345 8.48104 23.5345C7.88654 23.5345 7.40443 23.0524 7.40443 22.4573C7.40443 21.8618 7.88654 21.3793 8.48104 21.3793C9.07515 21.3793 9.55688 21.8618 9.55688 22.4573ZM22.2133 22.4573C22.2133 23.0524 21.7309 23.5345 21.1376 23.5345C20.5429 23.5345 20.0608 23.0524 20.0608 22.4573C20.0608 21.8618 20.5429 21.3793 21.1376 21.3793C21.7309 21.3793 22.2133 21.8618 22.2133 22.4573ZM2.75514 23.0598C2.75514 23.3698 2.50474 23.6207 2.1957 23.6207C1.88626 23.6207 1.63586 23.3698 1.63586 23.0598C1.63586 22.7505 1.88626 22.5 2.1957 22.5C2.50474 22.5 2.75514 22.7505 2.75514 23.0598ZM28.0679 23.0598C28.0679 23.3698 27.817 23.6207 27.5085 23.6207C27.1989 23.6207 26.9487 23.3698 26.9487 23.0598C26.9487 22.7505 27.1989 22.5 27.5085 22.5C27.817 22.5 28.0679 22.7505 28.0679 23.0598ZM15.4115 29.4393C15.4115 29.7488 15.1606 30 14.8521 30C14.5428 30 14.2923 29.7488 14.2923 29.4393C14.2923 29.1297 14.5428 28.8793 14.8521 28.8793C15.1606 28.8793 15.4115 29.1297 15.4115 29.4393ZM9.04029 26.25C9.04029 26.5591 8.78949 26.8103 8.48045 26.8103C8.17181 26.8103 7.92101 26.5591 7.92101 26.25C7.92101 25.9401 8.17181 25.6897 8.48045 25.6897C8.78949 25.6897 9.04029 25.9401 9.04029 26.25ZM21.6967 26.25C21.6967 26.5591 21.4457 26.8103 21.1373 26.8103C20.8272 26.8103 20.5774 26.5591 20.5774 26.25C20.5774 25.9401 20.8272 25.6897 21.1373 25.6897C21.4457 25.6897 21.6967 25.9401 21.6967 26.25ZM16.9613 2.15521C16.9613 3.34573 15.9975 4.31034 14.8094 4.31034C13.6203 4.31034 12.6564 3.34573 12.6564 2.15521C12.6564 0.964997 13.6203 0 14.8094 0C15.9975 0 16.9613 0.964997 16.9613 2.15521ZM16.9613 8.53448C16.9613 9.72485 15.9975 10.6897 14.8094 10.6897C13.6203 10.6897 12.6564 9.72485 12.6564 8.53448C12.6564 7.3445 13.6203 6.37931 14.8094 6.37931C15.9975 6.37931 16.9613 7.3445 16.9613 8.53448ZM16.9613 14.828C16.9613 16.0178 15.9975 16.9828 14.8094 16.9828C13.6203 16.9828 12.6564 16.0178 12.6564 14.828C12.6564 13.6374 13.6203 12.6724 14.8094 12.6724C15.9975 12.6724 16.9613 13.6374 16.9613 14.828ZM29.6177 8.53448C29.6177 9.72485 28.654 10.6897 27.4655 10.6897C26.2765 10.6897 25.3128 9.72485 25.3128 8.53448C25.3128 7.3445 26.2765 6.37931 27.4655 6.37931C28.654 6.37931 29.6177 7.3445 29.6177 8.53448ZM4.3049 8.53448C4.3049 9.72485 3.34144 10.6897 2.15264 10.6897C0.963847 10.6897 0 9.72485 0 8.53448C0 7.3445 0.963847 6.37931 2.15264 6.37931C3.34144 6.37931 4.3049 7.3445 4.3049 8.53448ZM10.6762 5.34483C10.6762 6.53502 9.7126 7.5 8.5237 7.5C7.3348 7.5 6.37125 6.53502 6.37125 5.34483C6.37125 4.15386 7.3348 3.18966 8.5237 3.18966C9.7126 3.18966 10.6762 4.15386 10.6762 5.34483ZM10.6762 11.6377C10.6762 12.828 9.7126 13.7931 8.5237 13.7931C7.3348 13.7931 6.37125 12.828 6.37125 11.6377C6.37125 10.4478 7.3348 9.48276 8.5237 9.48276C9.7126 9.48276 10.6762 10.4478 10.6762 11.6377ZM23.3326 5.34483C23.3326 6.53502 22.3687 7.5 21.1799 7.5C19.9911 7.5 19.0277 6.53502 19.0277 5.34483C19.0277 4.15386 19.9911 3.18966 21.1799 3.18966C22.3687 3.18966 23.3326 4.15386 23.3326 5.34483ZM23.3326 11.6377C23.3326 12.828 22.3687 13.7931 21.1799 13.7931C19.9911 13.7931 19.0277 12.828 19.0277 11.6377C19.0277 10.4478 19.9911 9.48276 21.1799 9.48276C22.3687 9.48276 23.3326 10.4478 23.3326 11.6377Z" fill="white"/>
<path d="M60.1313 21.19C56.6807 21.19 53.9502 18.55 53.9502 14.62C53.9502 10.69 56.6807 8.05 60.1313 8.05C63.612 8.05 66.3425 10.69 66.3425 14.62C66.3425 18.55 63.612 21.19 60.1313 21.19ZM60.1313 6.88C56.0206 6.88 52.75 10.12 52.75 14.62C52.75 19.09 56.0206 22.39 60.1313 22.39C64.3021 22.39 67.5427 19.09 67.5427 14.62C67.5427 10.12 64.3021 6.88 60.1313 6.88Z" fill="white"/>
<path d="M78.4159 21.19C74.9653 21.19 72.2348 18.55 72.2348 14.62C72.2348 10.69 74.9653 8.05 78.4159 8.05C80.3663 8.05 82.0166 8.86 83.1268 10.27L84.0269 9.46C82.6767 7.81 80.6963 6.88 78.4159 6.88C74.3052 6.88 71.0346 10.12 71.0346 14.62C71.0346 19.09 74.3052 22.39 78.4159 22.39C80.7263 22.39 82.7067 21.4 84.0569 19.72L83.1868 18.91C82.0166 20.35 80.3663 21.19 78.4159 21.19Z" fill="white"/>
<path d="M94.3465 8.05C97.497 8.05 99.5974 10.15 99.8074 13.84H88.6154C88.9455 10.12 91.2259 8.05 94.3465 8.05ZM101.008 14.35V13.81C101.008 12.88 100.888 12.04 100.648 11.29C99.7474 8.56 97.377 6.88 94.3164 6.88C90.3557 6.88 87.3852 9.97 87.3852 14.62C87.3852 19.3 90.5358 22.39 94.4665 22.39C96.9869 22.39 99.0573 21.28 100.408 19.72L99.5674 18.88C98.3672 20.23 96.5669 21.19 94.6465 21.19C91.4659 21.19 88.7354 19 88.5854 15.01H100.978C100.978 14.86 101.008 14.68 101.008 14.56V14.35Z" fill="white"/>
<path d="M110.737 13.63C112.267 13.63 113.857 13.81 115.448 14.14V15.94C115.448 19.3 113.017 21.04 110.587 21.22C110.437 21.25 110.257 21.25 110.077 21.25C109.446 21.25 108.846 21.16 108.306 20.95C106.866 20.44 105.786 19.24 105.786 17.44C105.786 14.62 108.246 13.63 110.737 13.63ZM110.737 6.85C108.726 6.85 106.836 7.51 105.036 8.44L105.696 9.61C107.226 8.68 108.966 7.99 110.767 7.99C114.037 7.99 115.448 9.73 115.448 12.46V12.97C113.737 12.7 112.267 12.52 110.587 12.52C106.776 12.52 104.586 14.32 104.586 17.44C104.586 20.41 106.746 22.39 109.957 22.39C112.507 22.39 114.457 21.16 115.508 19.24H115.568L115.628 22H116.648V12.55C116.648 8.98 114.787 6.85 110.737 6.85Z" fill="white"/>
<path d="M128.593 6.88C126.042 6.88 123.972 8.14 122.801 10.18H122.741L122.651 7.24H121.631V22H122.831V14.11C122.831 10.99 124.752 8.02 128.352 8.02C131.503 8.02 133.003 9.91 133.003 14.26V22H134.204V13.21C134.204 9.1 131.983 6.88 128.593 6.88Z" fill="white"/>
<path d="M150.401 20.56C148.48 20.56 146.59 19.6 146.59 17.44C146.59 14.95 148.9 14.26 150.971 14.26C152.381 14.26 153.761 14.44 155.171 14.71V15.97C155.171 18.73 153.131 20.56 150.401 20.56ZM150.941 6.85C148.87 6.85 146.89 7.51 145.06 8.44L146.05 10.21C147.52 9.28 149.2 8.71 150.971 8.71C153.491 8.71 155.171 9.79 155.171 12.43V12.91C153.701 12.7 152.201 12.52 150.731 12.52C147.49 12.52 144.61 13.87 144.61 17.44C144.61 20.62 147.01 22.39 150.011 22.39C152.171 22.39 154.151 21.52 155.352 19.69H155.412L155.532 22H157.152V12.73C157.152 8.74 154.871 6.85 150.941 6.85Z" fill="white"/>
<path d="M168.491 20.47C165.34 20.47 162.97 18.1 162.97 14.62C162.97 11.14 165.34 8.77 168.491 8.77C170.291 8.77 171.701 9.52 172.752 10.75L174.192 9.4C172.902 7.87 170.891 6.88 168.491 6.88C164.29 6.88 160.989 10.12 160.989 14.62C160.989 19.12 164.26 22.36 168.491 22.36C170.861 22.36 172.782 21.46 174.192 19.78L172.782 18.46C171.731 19.75 170.291 20.47 168.491 20.47Z" fill="white"/>
<path d="M183.073 20.56C181.152 20.56 179.262 19.6 179.262 17.44C179.262 14.95 181.572 14.26 183.643 14.26C185.053 14.26 186.433 14.44 187.843 14.71V15.97C187.843 18.73 185.803 20.56 183.073 20.56ZM183.613 6.85C181.542 6.85 179.562 7.51 177.732 8.44L178.722 10.21C180.192 9.28 181.872 8.71 183.643 8.71C186.163 8.71 187.843 9.79 187.843 12.43V12.91C186.373 12.7 184.873 12.52 183.403 12.52C180.162 12.52 177.282 13.87 177.282 17.44C177.282 20.62 179.682 22.39 182.682 22.39C184.843 22.39 186.823 21.52 188.023 19.69H188.083L188.203 22H189.824V12.73C189.824 8.74 187.543 6.85 183.613 6.85Z" fill="white"/>
<path d="M201.163 20.47C198.012 20.47 195.642 18.1 195.642 14.62C195.642 11.14 198.012 8.77 201.163 8.77C204.343 8.77 206.714 11.14 206.714 14.62C206.714 18.1 204.343 20.47 201.163 20.47ZM206.684 0.25V9.52H206.624C205.304 7.84 203.293 6.88 201.013 6.88C196.872 6.88 193.661 10.12 193.661 14.62C193.661 19.09 196.872 22.39 201.013 22.39C203.443 22.39 205.544 21.25 206.864 19.42H206.924L207.044 22H208.664V0.25H206.684Z" fill="white"/>
<path d="M219.907 8.74C222.908 8.74 224.438 10.81 224.678 13.6H214.836C215.166 10.75 216.876 8.74 219.907 8.74ZM226.688 14.02C226.688 9.88 224.108 6.88 219.877 6.88C215.436 6.88 212.796 10.42 212.796 14.62C212.796 18.85 215.616 22.39 220.057 22.39C222.337 22.39 224.528 21.49 226.058 19.78L224.648 18.43C223.598 19.66 221.767 20.5 220.177 20.5C217.147 20.5 215.136 18.31 214.806 15.4H226.628C226.658 14.95 226.688 14.47 226.688 14.02Z" fill="white"/>
<path d="M247.009 6.88C244.939 6.88 243.048 7.84 241.878 9.73H241.818C240.948 7.81 239.328 6.88 237.407 6.88C235.517 6.88 233.837 7.66 232.667 9.13H232.607L232.517 7.24H230.896V22H232.877V14.11V14.05C232.877 11.05 234.227 8.74 236.897 8.74C239.178 8.74 240.498 10.24 240.498 13.81V22H242.478V14.05C242.478 11.05 243.829 8.74 246.529 8.74C248.81 8.74 250.13 10.24 250.13 13.81V22H252.11V13.18C252.11 9.01 249.8 6.88 247.009 6.88Z" fill="white"/>
<path d="M259.859 28C261.689 28 262.859 27.16 263.969 24.16L270 7.24H267.84L263.549 19.57H263.489L257.368 7.24H255.058L262.649 22.12L262.199 23.47C261.509 25.36 260.969 26.14 259.889 26.14C259.288 26.14 258.748 26.05 258.058 25.84L257.728 27.64C258.358 27.85 259.048 28 259.859 28Z" fill="white"/>
</svg>
