<svg width="700" height="720" viewBox="0 0 700 720" fill="none" xmlns="http://www.w3.org/2000/svg">
<g id="mantaray-full" clip-path="url(#clip0)">
<g id="Group 325">
<path id="Fill 1" fill-rule="evenodd" clip-rule="evenodd" d="M21.8306 19.4534L52.2957 21.404L50.0211 33.593L21.8306 19.4534Z" fill="#9A57A3"/>
<path id="Fill 2" fill-rule="evenodd" clip-rule="evenodd" d="M207.591 253.406L223.711 289.734L333.663 250.065L207.591 253.406Z" fill="#512E69"/>
<path id="Fill 3" fill-rule="evenodd" clip-rule="evenodd" d="M245.872 171.199L290.838 132.132L288.305 164.537L245.872 171.199Z" fill="#9A57A3"/>
<path id="Fill 4" fill-rule="evenodd" clip-rule="evenodd" d="M258.373 180.818L303.026 123.245L340.15 135.846L258.373 180.818Z" fill="#814598"/>
<path id="Fill 5" fill-rule="evenodd" clip-rule="evenodd" d="M228.439 187.925L303.026 165.54L268.285 230.733L228.439 187.925Z" fill="#814598"/>
<path id="Fill 6" fill-rule="evenodd" clip-rule="evenodd" d="M275.477 189.884L326.191 138.549L290.838 207.376L275.477 189.884Z" fill="#643E84"/>
<path id="Fill 7" fill-rule="evenodd" clip-rule="evenodd" d="M194.58 220.07L214.438 259.746L239.383 251.159L194.58 220.07Z" fill="#8863AA"/>
<path id="Fill 8" fill-rule="evenodd" clip-rule="evenodd" d="M234.844 177.577L194.579 214.201L258.374 235.994L234.844 177.577Z" fill="#8863AA"/>
<path id="Fill 9" fill-rule="evenodd" clip-rule="evenodd" d="M214.438 240.01L212.038 211.574L263.653 231.698L214.438 240.01Z" fill="#7F509C"/>
<path id="Fill 10" fill-rule="evenodd" clip-rule="evenodd" d="M230.418 248.323L240.338 254.592L277.086 228.994L230.418 248.323Z" fill="#512E69"/>
<path id="Fill 11" fill-rule="evenodd" clip-rule="evenodd" d="M216.969 197.574L300.531 126.841L307.116 134.179L216.969 197.574Z" fill="#8863AA"/>
<path id="Fill 12" fill-rule="evenodd" clip-rule="evenodd" d="M187.341 208.511L292.756 126.319L228.441 102.022L187.341 208.511Z" fill="#512E69"/>
<path id="Fill 13" fill-rule="evenodd" clip-rule="evenodd" d="M185.006 205.508L125.112 130.694L149.229 72.9843L185.006 205.508Z" fill="#7C4F9D"/>
<path id="Fill 14" fill-rule="evenodd" clip-rule="evenodd" d="M195.077 198.136L212.317 95.331L151.042 90.7533L195.077 198.136Z" fill="#643E84"/>
<path id="Fill 15" fill-rule="evenodd" clip-rule="evenodd" d="M129.522 124.923L175.943 186.971L204.615 190.175L129.522 124.923Z" fill="#643E84"/>
<path id="Fill 16" fill-rule="evenodd" clip-rule="evenodd" d="M152.857 120.997L214.857 103.107L178.126 139.335L152.857 120.997Z" fill="#814598"/>
<path id="Fill 17" fill-rule="evenodd" clip-rule="evenodd" d="M121.064 115.209L181.679 82.02L121.064 58.0315V115.209Z" fill="#512E69"/>
<path id="Fill 18" fill-rule="evenodd" clip-rule="evenodd" d="M113.877 113.902L100.495 82.8129H129.522L113.877 113.902Z" fill="#8863AA"/>
<path id="Fill 19" fill-rule="evenodd" clip-rule="evenodd" d="M115.384 64.473L106.979 78.7615L137.22 88.3202L115.384 64.473Z" fill="#5C3C73"/>
<path id="Fill 20" fill-rule="evenodd" clip-rule="evenodd" d="M82.7611 30.1155L70.5732 52.5724L117.822 60.4724L82.7611 30.1155Z" fill="#8863AA"/>
<path id="Fill 21" fill-rule="evenodd" clip-rule="evenodd" d="M75.7773 58.0316L86.1829 39.5642L94.7579 80.1905L75.7773 58.0316Z" fill="#9A57A3"/>
<path id="Fill 22" fill-rule="evenodd" clip-rule="evenodd" d="M94.7576 52.5709L89.7598 72.9826H113.876L94.7576 52.5709Z" fill="#9A57A3"/>
<path id="Fill 23" fill-rule="evenodd" clip-rule="evenodd" d="M232.102 113.902L251.888 134.815L185.657 145.573L232.102 113.902Z" fill="#643E84"/>
<path id="Fill 24" fill-rule="evenodd" clip-rule="evenodd" d="M82.7608 35.0548L60.7527 51.5452L21.8306 11.8065L82.7608 35.0548Z" fill="#8863AA"/>
<path id="Fill 25" fill-rule="evenodd" clip-rule="evenodd" d="M416.045 135.049L400.289 162.154L457.341 184.629L416.045 135.049Z" fill="#3A214E"/>
<path id="Fill 26" fill-rule="evenodd" clip-rule="evenodd" d="M436.273 195.537C435.581 194.249 445.002 159.513 445.002 159.513L414.051 176.078L436.273 195.537Z" fill="#4A0F35"/>
<path id="Fill 27" fill-rule="evenodd" clip-rule="evenodd" d="M457.342 237.823L341.738 280.814L474.616 281.744L457.342 237.823Z" fill="#3A214E"/>
<path id="Fill 28" fill-rule="evenodd" clip-rule="evenodd" d="M267.477 307.869L303.022 286.401L314.666 314.754L267.477 307.869Z" fill="#3A214E"/>
<path id="Fill 29" fill-rule="evenodd" clip-rule="evenodd" d="M410.754 270.997L378.01 307.911L302.314 289.455L410.754 270.997Z" fill="#512E69"/>
<path id="Fill 30" fill-rule="evenodd" clip-rule="evenodd" d="M383.898 317.805L403.326 340.354L483.718 298.026L383.898 315.406" fill="#643E84"/>
<path id="Fill 31" fill-rule="evenodd" clip-rule="evenodd" d="M410.755 340.2L465.066 315.079L488.599 342.759L410.755 340.2Z" fill="#3A214E"/>
<path id="Fill 32" fill-rule="evenodd" clip-rule="evenodd" d="M486.906 300.294L492.84 317.586L453.892 329.867L486.906 300.294Z" fill="#572D6A"/>
<path id="Fill 33" fill-rule="evenodd" clip-rule="evenodd" d="M488.599 311.832L491.072 329.867L479.475 314.61L488.599 311.832Z" fill="#3A214E"/>
<path id="Fill 34" fill-rule="evenodd" clip-rule="evenodd" d="M304.812 297.142L349.032 320.327L386.759 304.84L304.812 297.142Z" fill="#3A214E"/>
<path id="Fill 35" fill-rule="evenodd" clip-rule="evenodd" d="M478.174 345.263L491.073 336.91L492.84 354.127L478.174 345.263Z" fill="#9A57A3"/>
<path id="Fill 36" fill-rule="evenodd" clip-rule="evenodd" d="M488.6 346.751L493.677 352.764L496.044 346.751H488.6Z" fill="#8863AA"/>
<path id="Fill 37" fill-rule="evenodd" clip-rule="evenodd" d="M486.905 336.91L496.82 331.692L494.76 345.263L486.905 336.91Z" fill="#8863AA"/>
<path id="Fill 38" fill-rule="evenodd" clip-rule="evenodd" d="M460.317 178.152L467.962 206.481L499.735 181.388L460.317 178.152Z" fill="#512E69"/>
<path id="Fill 39" fill-rule="evenodd" clip-rule="evenodd" d="M471.37 213.585L464.719 175.53L483.718 176.149L471.37 213.585Z" fill="#8863AA"/>
<path id="Fill 40" fill-rule="evenodd" clip-rule="evenodd" d="M489.48 171.199L500.181 178.893L497.037 158.957L489.48 171.199Z" fill="#3A214E"/>
<path id="Fill 41" fill-rule="evenodd" clip-rule="evenodd" d="M491.398 158.768L488.554 184.977L499.732 154.864L491.398 158.768Z" fill="#9A57A3"/>
<path id="Fill 42" fill-rule="evenodd" clip-rule="evenodd" d="M411.525 144.276L405.03 154.549L431.884 180.818L411.525 144.276Z" fill="#561C55"/>
<path id="Fill 43" fill-rule="evenodd" clip-rule="evenodd" d="M422.715 111.717L353.808 142.845L390.098 176.149L422.715 111.717Z" fill="#643E84"/>
<path id="Fill 44" fill-rule="evenodd" clip-rule="evenodd" d="M343.048 131.436L381.099 119.183L408.825 128.542L343.048 131.436Z" fill="#8863AA"/>
<path id="Fill 45" fill-rule="evenodd" clip-rule="evenodd" d="M367.46 128.253L346.719 141.495L383.66 153.565L367.46 128.253Z" fill="#8863AA"/>
<path id="Fill 46" fill-rule="evenodd" clip-rule="evenodd" d="M410.469 187.846L396.504 162.849L388.871 175.142L410.469 187.846Z" fill="#643E84"/>
<path id="Fill 47" fill-rule="evenodd" clip-rule="evenodd" d="M476.459 135.846L456.439 119.911L469.45 138.55L476.459 135.846Z" fill="#643E84"/>
<path id="Fill 48" fill-rule="evenodd" clip-rule="evenodd" d="M445.218 119.97L466.448 128.543L462.132 133.835L445.218 119.97Z" fill="#512E69"/>
<path id="Fill 49" fill-rule="evenodd" clip-rule="evenodd" d="M413.974 115.799L413.342 132.335L432.089 113.437L413.974 115.799Z" fill="#9A57A3"/>
<path id="Fill 50" fill-rule="evenodd" clip-rule="evenodd" d="M460.481 121.399L442.557 121.633L423.424 109.632L460.481 121.399Z" fill="#512E69"/>
<path id="Fill 51" fill-rule="evenodd" clip-rule="evenodd" d="M435.463 112.693L437.405 119.911L448.146 116.301L435.463 112.693Z" fill="#8863AA"/>
<path id="Fill 52" fill-rule="evenodd" clip-rule="evenodd" d="M399.241 167.746L434.491 203.865L341.145 251.161L399.241 167.746Z" fill="#512E69"/>
<path id="Fill 53" fill-rule="evenodd" clip-rule="evenodd" d="M303.024 216.828L336.123 245.49L288.745 262.989L303.024 216.828Z" fill="#512E69"/>
<path id="Fill 54" fill-rule="evenodd" clip-rule="evenodd" d="M259.106 251.975L296.307 214.994L299.243 245.49L259.106 251.975Z" fill="#9A57A3"/>
<path id="Fill 55" fill-rule="evenodd" clip-rule="evenodd" d="M460.317 258.258L483.718 294.783L405.038 300.292L460.317 258.258Z" fill="#512E69"/>
<path id="Fill 56" fill-rule="evenodd" clip-rule="evenodd" d="M364.539 321.523L436.547 278.569L393.185 335.884L364.539 321.523Z" fill="#3A214E"/>
<path id="Fill 57" fill-rule="evenodd" clip-rule="evenodd" d="M356.537 241.793L283.933 294.536L388.871 259.746L356.537 241.793Z" fill="#3A214E"/>
<path id="Fill 58" fill-rule="evenodd" clip-rule="evenodd" d="M350.6 248.31L423.853 215.467L406.214 259.136L350.6 248.31Z" fill="#561C55"/>
<path id="Fill 59" fill-rule="evenodd" clip-rule="evenodd" d="M459.594 213.585L457.341 233.624L367.782 249.198L459.594 213.585Z" fill="#3A214E"/>
<path id="Fill 60" fill-rule="evenodd" clip-rule="evenodd" d="M437.125 205.626L457.341 216.476L413.342 250.773L437.125 205.626Z" fill="#512E69"/>
<path id="Fill 61" fill-rule="evenodd" clip-rule="evenodd" d="M345.785 247.404L364.539 243.24L356.587 258.26L345.785 247.404Z" fill="#9A57A3"/>
<path id="Fill 62" fill-rule="evenodd" clip-rule="evenodd" d="M370.44 237.676L378.011 245.23L392.119 226.101L370.44 237.676Z" fill="#9A57A3"/>
<path id="Fill 63" fill-rule="evenodd" clip-rule="evenodd" d="M398.599 224.289L401.643 237.473L407.712 220.07L398.599 224.289Z" fill="#9A57A3"/>
<path id="Fill 64" fill-rule="evenodd" clip-rule="evenodd" d="M418.588 227.811L409.485 218.613L420.571 214.995L418.588 227.811Z" fill="#9A57A3"/>
<path id="Fill 65" fill-rule="evenodd" clip-rule="evenodd" d="M393.636 145.575L418.931 193.319L383.899 160.694L393.636 145.575Z" fill="#8863AA"/>
<path id="Fill 66" fill-rule="evenodd" clip-rule="evenodd" d="M212.456 317.27L237.844 307.227L238.329 269.474L212.456 317.27Z" fill="#512E69"/>
<path id="Fill 67" fill-rule="evenodd" clip-rule="evenodd" d="M229.15 291.542L241.798 312.504L333.664 237.823L229.15 291.542Z" fill="#643E84"/>
<path id="Fill 68" fill-rule="evenodd" clip-rule="evenodd" d="M223.586 306.246V316.218L195.885 331.768L223.586 306.246Z" fill="#9A57A3"/>
<path id="Fill 69" fill-rule="evenodd" clip-rule="evenodd" d="M345.02 248.322L298.283 204.226L304.812 176.149L345.02 248.322Z" fill="#561C55"/>
<path id="Fill 70" fill-rule="evenodd" clip-rule="evenodd" d="M337.9 237.823L400.289 184.977L343.046 139.336L337.9 237.823Z" fill="#643E84"/>
<path id="Fill 71" fill-rule="evenodd" clip-rule="evenodd" d="M343.279 226.624L355.408 205.044L307.116 184.977L343.279 226.624Z" fill="#643E84"/>
<path id="Fill 72" fill-rule="evenodd" clip-rule="evenodd" d="M329.638 152.216L356.536 154.864L358.921 195.01L329.638 152.216Z" fill="#883685"/>
<path id="Fill 73" fill-rule="evenodd" clip-rule="evenodd" d="M317.317 173.427L337.902 158.911L355.16 216.828L317.317 173.427Z" fill="#6D2367"/>
<path id="Fill 74" fill-rule="evenodd" clip-rule="evenodd" d="M338.729 138.226L321.652 155.266L336.124 168.294L338.729 138.226Z" fill="#D4388B"/>
<path id="Fill 75" fill-rule="evenodd" clip-rule="evenodd" d="M312.116 176.149L319.994 162.113L323.149 184.629L312.116 176.149Z" fill="#D4388B"/>
<path id="Fill 76" fill-rule="evenodd" clip-rule="evenodd" d="M304.812 191.168L313.291 178.678L314.3 199.996L304.812 191.168Z" fill="#B93692"/>
<path id="Fill 77" fill-rule="evenodd" clip-rule="evenodd" d="M300.835 196.215L301.052 213.585L305.814 199.996L300.835 196.215Z" fill="#B93692"/>
<path id="Stroke 78" fill-rule="evenodd" clip-rule="evenodd" d="M16.2314 11.3907L21.8301 9.64185L82.7619 28.5406L121.277 54.7884L169.252 72.2859L229.829 97.4832L297.412 119.181L337.679 131.082L359.74 124.782L381.099 117.432L400.708 121.631L425.219 108.684L455.683 117.432L481.945 139.131L475.643 138.781L471.442 139.83L444.829 122.682L428.022 118.483L415.415 132.481L437.241 147.879L458.136 175.528L487.548 173.427L491.4 154.53L500.155 154.879L503.306 182.877L479.144 202.476L461.285 233.623L466.189 257.771L488.599 298.717L495.602 329.865L497.355 351.912L492.451 355.062L476.343 345.263L405.961 342.113L350.285 323.216L264.145 310.616L242.786 312.366L225.626 316.216L216.171 308.867L222.124 294.518L219.675 282.619L207.768 257.771L186.759 216.474L150.692 171.328L117.076 126.881L94.3148 84.5354L65.6025 50.5878L18.6799 20.4901L16.2314 11.3907Z" stroke="white" stroke-width="0.436"/>
<path id="Stroke 79" fill-rule="evenodd" clip-rule="evenodd" d="M415.646 132.481L400.007 157.797L415.062 184.979L343.279 248.322L437.125 205.626L465.487 212.275L458.134 175.53L437.239 147.881L415.646 132.481Z" stroke="white" stroke-width="0.436"/>
<path id="Stroke 80" d="M343.28 248.322L294.258 277.719" stroke="white" stroke-width="0.436"/>
<path id="Stroke 81" d="M268.345 288.218L231.578 306.068" stroke="white" stroke-width="0.436"/>
<path id="Stroke 82" d="M231.579 306.068L183.608 344.214" stroke="white" stroke-width="0.436"/>
<path id="Stroke 83" d="M216.171 308.867L183.606 344.214" stroke="white" stroke-width="0.436"/>
<path id="Stroke 84" d="M183.606 344.214L225.624 316.218" stroke="white" stroke-width="0.436"/>
<path id="Stroke 85" d="M465.487 212.274L461.284 233.623" stroke="white" stroke-width="0.436"/>
<path id="Stroke 86" d="M465.487 212.274L479.144 202.476" stroke="white" stroke-width="0.436"/>
<path id="Stroke 87" d="M400.007 157.797L337.678 131.083" stroke="white" stroke-width="0.436"/>
<path id="Stroke 88" d="M415.414 132.481L338.729 131.082" stroke="white" stroke-width="0.436"/>
<path id="Stroke 89" d="M415.062 184.977L437.356 205.044" stroke="white" stroke-width="0.436"/>
<path id="Stroke 90" d="M241.033 312.017L279.202 292.418" stroke="white" stroke-width="0.436"/>
<path id="Stroke 91" d="M279.202 292.418L306.865 282.268" stroke="white" stroke-width="0.436"/>
<path id="Stroke 92" d="M287.254 253.221L251.889 274.22" stroke="white" stroke-width="0.436"/>
<path id="Stroke 93" d="M251.888 274.219L219.675 282.619" stroke="white" stroke-width="0.436"/>
<path id="Stroke 94" d="M466.187 257.771L332.073 281.218L408.177 290.668L447.394 322.865L471.672 333.597L484.745 338.732L497.352 351.912" stroke="white" stroke-width="0.436"/>
<path id="Stroke 95" d="M16.2314 11.3908L71.5537 40.5544L106.104 69.9522L136.451 103.551L185.006 139.947L237.3 171.679L285.506 226.274L297.412 119.181" stroke="white" stroke-width="0.436"/>
<path id="Stroke 96" d="M343.048 248.788L355.304 260.57L367.674 237.355L378.064 250.304L393.236 225.574L402.342 239.572L408.412 218.807L419.381 232.107L424.285 211.574L465.487 212.274" stroke="white" stroke-width="0.436"/>
<path id="Stroke 97" d="M298.286 204.225L302.314 214.2L305.291 191.1L310.193 202.65L313.52 176.927L320.522 189.001L323.205 158.611L337.68 174.009V131.082" stroke="white" stroke-width="0.436"/>
<path id="Stroke 98" d="M301.964 215.075L343.28 248.322" stroke="white" stroke-width="0.436"/>
<path id="Stroke 99" d="M310.189 202.651L355.185 237.473" stroke="white" stroke-width="0.436"/>
<path id="Stroke 100" d="M320.521 189.001L368.142 226.624" stroke="white" stroke-width="0.436"/>
<path id="Stroke 101" d="M337.679 174.011L383.9 212.626" stroke="white" stroke-width="0.436"/>
<path id="Stroke 102" d="M424.816 212.179L461.284 233.623" stroke="white" stroke-width="0.436"/>
<path id="Stroke 103" d="M337.679 131.082L406.31 193.142" stroke="white" stroke-width="0.436"/>
<path id="Stroke 104" d="M301.963 215.075L287.254 253.221" stroke="white" stroke-width="0.436"/>
<path id="Stroke 105" d="M376.611 265.958L306.865 282.27" stroke="white" stroke-width="0.436"/>
<path id="Stroke 106" d="M294.257 277.719L268.346 288.218" stroke="white" stroke-width="0.218"/>
<path id="Stroke 107" d="M399.657 121.633L393.354 132.132" stroke="white" stroke-width="0.218"/>
<path id="Stroke 108" d="M393.353 132.132L381.097 117.432" stroke="white" stroke-width="0.218"/>
<path id="Stroke 109" d="M425.218 108.684L428.02 118.483" stroke="white" stroke-width="0.218"/>
<path id="Stroke 110" d="M427.318 118.716L455.101 117.083" stroke="white" stroke-width="0.218"/>
<path id="Stroke 111" d="M455.099 117.083L471.44 139.014" stroke="white" stroke-width="0.218"/>
<path id="Stroke 112" d="M487.548 173.427L503.304 182.878" stroke="white" stroke-width="0.218"/>
<path id="Stroke 113" d="M487.548 173.427L465.369 211.574" stroke="white" stroke-width="0.218"/>
<path id="Stroke 114" d="M338.728 131.082L285.503 226.274" stroke="white" stroke-width="0.218"/>
<path id="Stroke 115" d="M285.504 226.274L238.581 259.171" stroke="white" stroke-width="0.218"/>
<path id="Stroke 116" d="M238.581 259.171L212.317 267.921" stroke="white" stroke-width="0.218"/>
<path id="Stroke 117" d="M265.895 310.267L283.402 294.518" stroke="white" stroke-width="0.218"/>
<path id="Stroke 118" d="M283.403 294.518L356.588 274.919" stroke="white" stroke-width="0.218"/>
<path id="Stroke 119" d="M356.587 274.919L461.285 233.623" stroke="white" stroke-width="0.218"/>
<path id="Stroke 120" d="M285.503 226.274L288.304 272.12" stroke="white" stroke-width="0.218"/>
<path id="Stroke 121" d="M288.305 272.12L306.865 282.268" stroke="white" stroke-width="0.218"/>
<path id="Stroke 122" d="M306.865 282.268L332.075 281.218" stroke="white" stroke-width="0.218"/>
<path id="Stroke 123" d="M288.305 272.12L259.942 283.319" stroke="white" stroke-width="0.218"/>
<path id="Stroke 124" d="M259.942 283.319L222.124 294.518" stroke="white" stroke-width="0.218"/>
<path id="Stroke 125" d="M259.942 283.319L279.201 292.418" stroke="white" stroke-width="0.218"/>
<path id="Stroke 126" d="M287.254 253.221L400.007 157.795" stroke="white" stroke-width="0.218"/>
<path id="Stroke 127" d="M305.813 282.269L465.487 212.274" stroke="white" stroke-width="0.218"/>
<path id="Stroke 128" d="M279.202 292.418L283.403 294.518" stroke="white" stroke-width="0.218"/>
<path id="Stroke 129" d="M259.942 283.319L238.581 259.171" stroke="white" stroke-width="0.218"/>
<path id="Stroke 130" d="M82.7614 28.5405L65.6021 50.5878" stroke="white" stroke-width="0.218"/>
<path id="Stroke 131" d="M119.645 54.5558L94.3154 84.5356" stroke="white" stroke-width="0.218"/>
<path id="Stroke 132" d="M117.076 126.881L165.863 70.4193" stroke="white" stroke-width="0.218"/>
<path id="Stroke 133" d="M227.493 96.5522L152.325 173.547" stroke="white" stroke-width="0.218"/>
<path id="Stroke 134" d="M21.8306 9.64185L65.6014 50.5878" stroke="white" stroke-width="0.218"/>
<path id="Stroke 135" d="M65.6021 50.588L119.645 54.5558" stroke="white" stroke-width="0.218"/>
<path id="Stroke 136" d="M119.645 54.5558L117.077 126.881" stroke="white" stroke-width="0.218"/>
<path id="Stroke 137" d="M117.076 126.881L227.492 96.5522" stroke="white" stroke-width="0.218"/>
<path id="Stroke 138" d="M297.41 119.183L187.339 217.407" stroke="white" stroke-width="0.218"/>
<path id="Stroke 139" d="M227.493 96.5522L187.341 217.407" stroke="white" stroke-width="0.218"/>
<path id="Stroke 140" d="M186.759 216.474L285.506 226.272" stroke="white" stroke-width="0.218"/>
<path id="Stroke 141" d="M476.341 345.263L495.599 329.865" stroke="white" stroke-width="0.218"/>
<path id="Stroke 142" d="M493.15 320.998L456.264 344.329" stroke="white" stroke-width="0.218"/>
<path id="Stroke 143" d="M488.599 298.717L434.321 330.798" stroke="white" stroke-width="0.218"/>
<path id="Stroke 144" d="M434.322 330.798L405.959 342.113" stroke="white" stroke-width="0.218"/>
<path id="Stroke 145" d="M466.187 257.771L367.559 316.331" stroke="white" stroke-width="0.218"/>
<path id="Stroke 146" d="M367.558 316.331L350.284 323.216" stroke="white" stroke-width="0.218"/>
<path id="Stroke 147" d="M332.073 281.219L350.284 323.216" stroke="white" stroke-width="0.218"/>
<path id="Stroke 148" d="M367.559 316.331L405.959 342.113" stroke="white" stroke-width="0.218"/>
<path id="Stroke 149" d="M367.559 316.331L488.599 298.717" stroke="white" stroke-width="0.218"/>
<path id="Stroke 150" d="M488.6 298.717L456.266 344.328" stroke="white" stroke-width="0.218"/>
<path id="Stroke 151" d="M456.264 344.329L495.6 329.867" stroke="white" stroke-width="0.218"/>
<path id="Stroke 152" d="M495.6 329.865L491.751 354.127" stroke="white" stroke-width="0.218"/>
<path id="Stroke 153" d="M355.303 260.57L378.011 266.656" stroke="white" stroke-width="0.218"/>
<path id="Stroke 154" d="M378.589 251.033L399.139 257.79" stroke="white" stroke-width="0.218"/>
<path id="Stroke 155" d="M402.227 240.01L422.715 248.81" stroke="white" stroke-width="0.218"/>
<path id="Stroke 156" d="M419.469 232.661L442.557 240.992" stroke="white" stroke-width="0.218"/>
<path id="Stroke 157" d="M458.136 175.528L427.786 196.876" stroke="white" stroke-width="0.218"/>
<path id="Stroke 158" d="M436.773 147.879L407.712 172.144" stroke="white" stroke-width="0.218"/>
<path id="Stroke 159" d="M237.597 172.515L238.583 259.171" stroke="white" stroke-width="0.218"/>
<path id="Stroke 160" d="M238.581 259.171L186.757 216.474" stroke="white" stroke-width="0.218"/>
<path id="Stroke 161" d="M283.403 294.518L350.285 323.216" stroke="white" stroke-width="0.218"/>
<path id="Stroke 162" d="M408.825 291.506L283.403 294.518" stroke="white" stroke-width="0.218"/>
<path id="Stroke 163" d="M152.857 172.515L237.3 171.679" stroke="white" stroke-width="0.218"/>
<path id="Stroke 164" d="M136.449 103.551L152.325 173.545" stroke="white" stroke-width="0.218"/>
<path id="Stroke 165" d="M94.3145 84.5355L136.45 103.551" stroke="white" stroke-width="0.218"/>
<path id="Stroke 166" d="M238.647 258.258L222.188 295.354" stroke="white" stroke-width="0.218"/>
<path id="Stroke 167" d="M243.898 311.803L283.401 294.518" stroke="white" stroke-width="0.218"/>
<path id="Stroke 168" d="M222.124 294.518L231.579 306.068" stroke="white" stroke-width="0.218"/>
<path id="Stroke 169" d="M231.579 306.068L241.8 312.503" stroke="white" stroke-width="0.218"/>
<path id="Stroke 170" d="M337.393 131.918L237.597 172.515" stroke="white" stroke-width="0.218"/>
<path id="Stroke 171" d="M185.006 139.948L297.411 119.183" stroke="white" stroke-width="0.218"/>
<path id="Stroke 172" d="M238.581 259.171L287.254 253.221" stroke="white" stroke-width="0.218"/>
<path id="Stroke 173" d="M117.076 126.881L185.005 139.947" stroke="white" stroke-width="0.218"/>
<path id="Stroke 174" d="M185.006 139.948L187.341 217.407" stroke="white" stroke-width="0.218"/>
<path id="Stroke 175" d="M306.865 282.268L343.28 248.322" stroke="white" stroke-width="0.218"/>
<path id="Stroke 176" d="M343.279 248.322L287.254 253.221" stroke="white" stroke-width="0.218"/>
<path id="Stroke 177" d="M212.317 267.921L259.942 283.319" stroke="white" stroke-width="0.218"/>
<path id="Stroke 178" d="M278.562 292.439L265.895 310.267" stroke="white" stroke-width="0.218"/>
<path id="Stroke 179" d="M252.42 274.238L287.67 272.139" stroke="white" stroke-width="0.218"/>
<path id="Stroke 180" d="M306.865 282.268L283.933 294.537" stroke="white" stroke-width="0.218"/>
<path id="Stroke 181" d="M295.838 276.339L317.317 227.811" stroke="white" stroke-width="0.218"/>
<path id="Stroke 182" d="M296.307 276.572L355.302 260.569" stroke="white" stroke-width="0.218"/>
<path id="Fill 183" fill-rule="evenodd" clip-rule="evenodd" d="M409.159 343.182C408.376 344.798 406.433 345.462 404.821 344.683C403.211 343.901 402.54 341.963 403.326 340.352C404.104 338.74 406.048 338.071 407.658 338.85C409.268 339.633 409.941 341.575 409.159 343.182Z" fill="#D5D4D5"/>
<path id="Fill 184" fill-rule="evenodd" clip-rule="evenodd" d="M490.746 300.837C489.963 302.449 488.019 303.116 486.409 302.337C484.799 301.555 484.127 299.617 484.912 298.006C485.693 296.394 487.634 295.724 489.241 296.503C490.853 297.286 491.528 299.229 490.746 300.837Z" fill="#D5D4D5"/>
<path id="Fill 185" fill-rule="evenodd" clip-rule="evenodd" d="M467.984 258.84C467.201 260.454 465.261 261.121 463.647 260.342C462.037 259.56 461.365 257.622 462.151 256.011C462.932 254.398 464.874 253.727 466.482 254.506C468.092 255.291 468.766 257.233 467.984 258.84Z" fill="#D5D4D5"/>
<path id="Fill 186" fill-rule="evenodd" clip-rule="evenodd" d="M353.481 324.985C352.7 326.597 350.756 327.265 349.145 326.486C347.533 325.703 346.862 323.765 347.648 322.155C348.429 320.541 350.37 319.872 351.98 320.651C353.59 321.436 354.265 323.377 353.481 324.985Z" fill="#D5D4D5"/>
<path id="Fill 187" fill-rule="evenodd" clip-rule="evenodd" d="M464.484 235.392C463.7 237.006 461.757 237.671 460.147 236.892C458.534 236.11 457.865 234.172 458.647 232.561C459.43 230.948 461.371 230.279 462.981 231.059C464.589 231.841 465.265 233.784 464.484 235.392Z" fill="#D5D4D5"/>
<path id="Fill 188" fill-rule="evenodd" clip-rule="evenodd" d="M269.093 312.036C268.31 313.649 266.368 314.315 264.756 313.536C263.145 312.754 262.474 310.816 263.259 309.205C264.04 307.593 265.983 306.924 267.59 307.703C269.201 308.487 269.875 310.428 269.093 312.036Z" fill="#D5D4D5"/>
<path id="Fill 189" fill-rule="evenodd" clip-rule="evenodd" d="M215.518 269.69C216.3 268.082 215.626 266.14 214.015 265.356C212.408 264.577 210.465 265.246 209.684 266.86C208.9 268.47 209.57 270.408 211.183 271.19C212.793 271.969 214.737 271.302 215.518 269.69Z" fill="white"/>
<path id="Fill 190" fill-rule="evenodd" clip-rule="evenodd" d="M467.636 214.044C466.852 215.657 464.91 216.325 463.3 215.545C461.688 214.763 461.018 212.825 461.803 211.214C462.583 209.6 464.525 208.931 466.134 209.71C467.745 210.494 468.417 212.437 467.636 214.044Z" fill="#D5D4D5"/>
<path id="Fill 191" fill-rule="evenodd" clip-rule="evenodd" d="M339.824 132.851C339.042 134.464 337.098 135.132 335.488 134.353C333.878 133.571 333.207 131.631 333.993 130.022C334.772 128.408 336.713 127.738 338.322 128.518C339.933 129.302 340.609 131.243 339.824 132.851Z" fill="white"/>
<path id="Fill 192" fill-rule="evenodd" clip-rule="evenodd" d="M396.553 133.2C395.769 134.814 393.829 135.481 392.217 134.7C390.607 133.92 389.933 131.98 390.719 130.371C391.5 128.757 393.442 128.088 395.051 128.867C396.661 129.651 397.334 131.592 396.553 133.2Z" fill="white"/>
<path id="Fill 193" fill-rule="evenodd" clip-rule="evenodd" d="M440.321 206.694C439.54 208.308 437.598 208.975 435.986 208.196C434.374 207.414 433.704 205.474 434.491 203.865C435.269 202.251 437.211 201.581 438.819 202.361C440.431 203.145 441.105 205.086 440.321 206.694Z" fill="white"/>
<path id="Fill 194" fill-rule="evenodd" clip-rule="evenodd" d="M418.261 186.046C417.479 187.66 415.536 188.327 413.926 187.547C412.315 186.765 411.642 184.826 412.428 183.217C413.206 181.603 415.15 180.935 416.76 181.712C418.371 182.497 419.044 184.438 418.261 186.046Z" fill="white"/>
<path id="Fill 195" fill-rule="evenodd" clip-rule="evenodd" d="M186.805 345.283C186.021 346.895 184.08 347.563 182.469 346.784C180.857 346.002 180.188 344.062 180.972 342.453C181.752 340.839 183.694 340.17 185.302 340.949C186.914 341.733 187.588 343.674 186.805 345.283Z" fill="#EEE8F3"/>
<path id="Fill 196" fill-rule="evenodd" clip-rule="evenodd" d="M219.37 309.936C218.588 311.55 216.645 312.216 215.034 311.437C213.424 310.655 212.75 308.716 213.537 307.106C214.318 305.494 216.26 304.823 217.867 305.604C219.479 306.386 220.153 308.329 219.37 309.936Z" fill="white"/>
<path id="Fill 197" fill-rule="evenodd" clip-rule="evenodd" d="M228.823 318.685C228.041 320.299 226.099 320.964 224.486 320.187C222.877 319.405 222.206 317.465 222.992 315.854C223.77 314.242 225.714 313.572 227.322 314.351C228.932 315.136 229.608 317.077 228.823 318.685Z" fill="#D5D4D5"/>
<path id="Fill 198" fill-rule="evenodd" clip-rule="evenodd" d="M245.543 313.96C244.762 315.574 242.82 316.241 241.208 315.462C239.596 314.68 238.927 312.742 239.713 311.131C240.491 309.517 242.433 308.847 244.042 309.627C245.653 310.411 246.327 312.352 245.543 313.96Z" fill="#D5D4D5"/>
<path id="Fill 199" fill-rule="evenodd" clip-rule="evenodd" d="M225.409 296.2C224.63 297.812 222.686 298.48 221.076 297.701C219.463 296.92 218.793 294.98 219.579 293.37C220.357 291.757 222.299 291.087 223.909 291.866C225.519 292.651 226.193 294.592 225.409 296.2Z" fill="white"/>
<path id="Fill 200" fill-rule="evenodd" clip-rule="evenodd" d="M234.602 307.661C233.82 309.275 231.877 309.942 230.266 309.163C228.654 308.381 227.985 306.442 228.768 304.832C229.55 303.219 231.492 302.548 233.101 303.329C234.711 304.112 235.385 306.054 234.602 307.661Z" fill="white"/>
<path id="Fill 201" fill-rule="evenodd" clip-rule="evenodd" d="M273.005 289.231C272.218 290.843 270.279 291.512 268.669 290.732C267.056 289.95 266.386 288.012 267.169 286.401C267.951 284.787 269.894 284.118 271.501 284.897C273.112 285.681 273.783 287.624 273.005 289.231Z" fill="white"/>
<path id="Fill 202" fill-rule="evenodd" clip-rule="evenodd" d="M254.807 296.943C254.022 298.557 252.082 299.223 250.469 298.444C248.859 297.662 248.187 295.724 248.971 294.113C249.754 292.501 251.696 291.83 253.304 292.609C254.914 293.394 255.587 295.336 254.807 296.943Z" fill="white"/>
<path id="Fill 203" fill-rule="evenodd" clip-rule="evenodd" d="M286.321 283.397C285.534 285.009 283.596 285.676 281.984 284.897C280.373 284.115 279.702 282.177 280.483 280.566C281.267 278.954 283.209 278.284 284.818 279.063C286.429 279.848 287.1 281.789 286.321 283.397Z" fill="white"/>
<path id="Fill 204" fill-rule="evenodd" clip-rule="evenodd" d="M315.036 268.073C314.25 269.687 312.311 270.354 310.698 269.575C309.086 268.793 308.419 266.855 309.199 265.244C309.982 263.63 311.926 262.962 313.533 263.741C315.144 264.524 315.815 266.465 315.036 268.073Z" fill="white"/>
<path id="Fill 205" fill-rule="evenodd" clip-rule="evenodd" d="M329.312 259.25C328.527 260.862 326.588 261.529 324.978 260.75C323.366 259.968 322.695 258.029 323.476 256.42C324.26 254.806 326.203 254.137 327.811 254.916C329.423 255.701 330.092 257.642 329.312 259.25Z" fill="white"/>
<path id="Fill 206" fill-rule="evenodd" clip-rule="evenodd" d="M254.807 275.655C254.022 277.27 252.082 277.936 250.469 277.157C248.859 276.375 248.187 274.435 248.971 272.826C249.754 271.212 251.696 270.543 253.304 271.322C254.914 272.106 255.587 274.047 254.807 275.655Z" fill="white"/>
<path id="Fill 207" fill-rule="evenodd" clip-rule="evenodd" d="M290.586 254.908C289.801 256.522 287.861 257.189 286.25 256.41C284.638 255.628 283.968 253.688 284.752 252.079C285.533 250.465 287.476 249.797 289.085 250.574C290.696 251.359 291.367 253.3 290.586 254.908Z" fill="white"/>
<path id="Fill 208" fill-rule="evenodd" clip-rule="evenodd" d="M241.01 261.163C240.223 262.777 238.285 263.443 236.672 262.664C235.062 261.882 234.388 259.943 235.174 258.333C235.955 256.72 237.897 256.05 239.507 256.831C241.117 257.614 241.79 259.556 241.01 261.163Z" fill="white"/>
<path id="Fill 209" fill-rule="evenodd" clip-rule="evenodd" d="M288.42 295.933C287.635 297.547 285.695 298.214 284.084 297.435C282.472 296.652 281.803 294.714 282.584 293.103C283.368 291.491 285.31 290.82 286.917 291.599C288.529 292.384 289.201 294.326 288.42 295.933Z" fill="#D5D4D5"/>
<path id="Fill 210" fill-rule="evenodd" clip-rule="evenodd" d="M298.918 278.732C298.133 280.344 296.192 281.012 294.582 280.233C292.969 279.45 292.299 277.512 293.082 275.902C293.866 274.289 295.807 273.619 297.415 274.398C299.025 275.182 299.698 277.124 298.918 278.732Z" fill="white"/>
<path id="Fill 211" fill-rule="evenodd" clip-rule="evenodd" d="M287.712 227.167C286.926 228.781 284.987 229.448 283.374 228.668C281.766 227.887 281.093 225.948 281.877 224.339C282.658 222.725 284.601 222.056 286.211 222.833C287.821 223.619 288.493 225.56 287.712 227.167Z" fill="white"/>
<path id="Fill 212" fill-rule="evenodd" clip-rule="evenodd" d="M265.27 245.577C264.485 247.191 262.544 247.857 260.934 247.078C259.322 246.296 258.652 244.356 259.434 242.747C260.217 241.135 262.159 240.464 263.769 241.243C265.378 242.029 266.05 243.97 265.27 245.577Z" fill="white"/>
<path id="Fill 213" fill-rule="evenodd" clip-rule="evenodd" d="M234.498 275.655C233.712 277.27 231.773 277.936 230.16 277.157C228.55 276.375 227.879 274.435 228.662 272.826C229.444 271.212 231.387 270.543 232.995 271.322C234.605 272.106 235.277 274.047 234.498 275.655Z" fill="white"/>
<path id="Fill 214" fill-rule="evenodd" clip-rule="evenodd" d="M335.8 282.231C335.015 283.843 333.075 284.512 331.465 283.732C329.854 282.95 329.183 281.011 329.965 279.401C330.748 277.787 332.689 277.118 334.299 277.897C335.91 278.682 336.581 280.624 335.8 282.231Z" fill="#D5D4D5"/>
<path id="Fill 215" fill-rule="evenodd" clip-rule="evenodd" d="M309.189 283.397C308.402 285.009 306.462 285.676 304.852 284.897C303.239 284.115 302.57 282.177 303.352 280.566C304.133 278.954 306.076 278.284 307.684 279.063C309.297 279.848 309.967 281.789 309.189 283.397Z" fill="#D5D4D5"/>
<path id="Fill 216" fill-rule="evenodd" clip-rule="evenodd" d="M347.94 249.333C347.154 250.946 345.213 251.614 343.602 250.835C341.992 250.053 341.323 248.114 342.104 246.504C342.886 244.89 344.83 244.221 346.438 245C348.047 245.784 348.719 247.725 347.94 249.333Z" fill="white"/>
<path id="Fill 217" fill-rule="evenodd" clip-rule="evenodd" d="M358.327 261.933C357.543 263.545 355.602 264.212 353.991 263.433C352.379 262.651 351.707 260.713 352.493 259.102C353.272 257.49 355.216 256.82 356.824 257.6C358.436 258.384 359.108 260.325 358.327 261.933Z" fill="white"/>
<path id="Fill 218" fill-rule="evenodd" clip-rule="evenodd" d="M381.088 251.666C380.303 253.28 378.363 253.946 376.751 253.167C375.14 252.385 374.47 250.447 375.253 248.836C376.035 247.224 377.978 246.553 379.585 247.332C381.196 248.118 381.868 250.059 381.088 251.666Z" fill="white"/>
<path id="Fill 219" fill-rule="evenodd" clip-rule="evenodd" d="M405.834 241.867C405.047 243.479 403.109 244.147 401.496 243.368C399.886 242.586 399.213 240.647 399.997 239.037C400.78 237.423 402.722 236.754 404.331 237.533C405.941 238.317 406.615 240.258 405.834 241.867Z" fill="white"/>
<path id="Fill 220" fill-rule="evenodd" clip-rule="evenodd" d="M422.875 234.167C422.091 235.78 420.15 236.447 418.539 235.668C416.929 234.886 416.256 232.948 417.04 231.337C417.823 229.723 419.765 229.054 421.374 229.833C422.984 230.617 423.654 232.558 422.875 234.167Z" fill="white"/>
<path id="Fill 221" fill-rule="evenodd" clip-rule="evenodd" d="M444.935 242.334C444.15 243.948 442.209 244.615 440.599 243.836C438.989 243.054 438.316 241.116 439.099 239.505C439.883 237.892 441.824 237.223 443.432 238.002C445.044 238.785 445.715 240.727 444.935 242.334Z" fill="#D5D4D5"/>
<path id="Fill 222" fill-rule="evenodd" clip-rule="evenodd" d="M425.092 250.149C424.308 251.763 422.367 252.43 420.754 251.651C419.147 250.869 418.475 248.929 419.257 247.32C420.038 245.706 421.982 245.037 423.591 245.816C425.202 246.6 425.873 248.541 425.092 250.149Z" fill="#D5D4D5"/>
<path id="Fill 223" fill-rule="evenodd" clip-rule="evenodd" d="M401.515 259.25C400.73 260.862 398.789 261.529 397.179 260.75C395.567 259.968 394.898 258.029 395.681 256.42C396.463 254.806 398.404 254.137 400.012 254.916C401.625 255.701 402.295 257.642 401.515 259.25Z" fill="#D5D4D5"/>
<path id="Fill 224" fill-rule="evenodd" clip-rule="evenodd" d="M379.455 267.648C378.673 269.262 376.731 269.928 375.121 269.15C373.509 268.368 372.838 266.428 373.621 264.819C374.403 263.205 376.346 262.535 377.954 263.316C379.564 264.099 380.236 266.04 379.455 267.648Z" fill="#D5D4D5"/>
<path id="Fill 225" fill-rule="evenodd" clip-rule="evenodd" d="M408.634 194.388C407.85 196.001 405.91 196.668 404.3 195.889C402.688 195.107 402.019 193.169 402.8 191.56C403.582 189.946 405.525 189.275 407.133 190.054C408.745 190.84 409.415 192.781 408.634 194.388Z" fill="white"/>
<path id="Fill 226" fill-rule="evenodd" clip-rule="evenodd" d="M385.991 213.518C385.206 215.132 383.266 215.799 381.655 215.019C380.045 214.237 379.374 212.299 380.155 210.689C380.937 209.076 382.88 208.407 384.488 209.186C386.1 209.969 386.771 211.911 385.991 213.518Z" fill="white"/>
<path id="Fill 227" fill-rule="evenodd" clip-rule="evenodd" d="M370.115 227.518C369.33 229.132 367.391 229.799 365.779 229.019C364.169 228.237 363.497 226.298 364.281 224.688C365.062 223.075 367.005 222.407 368.614 223.186C370.224 223.968 370.895 225.911 370.115 227.518Z" fill="white"/>
<path id="Fill 228" fill-rule="evenodd" clip-rule="evenodd" d="M357.276 238.717C356.489 240.331 354.551 240.997 352.94 240.219C351.328 239.437 350.658 237.497 351.44 235.887C352.224 234.274 354.165 233.604 355.773 234.383C357.385 235.168 358.056 237.109 357.276 238.717Z" fill="white"/>
<path id="Fill 229" fill-rule="evenodd" clip-rule="evenodd" d="M411.203 220.168C411.984 218.56 411.31 216.619 409.7 215.835C408.09 215.056 406.147 215.725 405.368 217.339C404.584 218.948 405.255 220.886 406.865 221.67C408.476 222.449 410.417 221.781 411.203 220.168Z" fill="white"/>
<path id="Fill 230" fill-rule="evenodd" clip-rule="evenodd" d="M428.01 213.169C427.227 214.783 425.285 215.45 423.673 214.67C422.062 213.888 421.391 211.95 422.176 210.339C422.956 208.725 424.9 208.056 426.508 208.835C428.118 209.62 428.79 211.56 428.01 213.169Z" fill="white"/>
<path id="Fill 231" fill-rule="evenodd" clip-rule="evenodd" d="M396.262 227.867C395.476 229.479 393.537 230.148 391.925 229.368C390.315 228.586 389.643 226.647 390.427 225.037C391.21 223.425 393.152 222.754 394.76 223.533C396.37 224.318 397.041 226.26 396.262 227.867Z" fill="white"/>
<path id="Fill 232" fill-rule="evenodd" clip-rule="evenodd" d="M370.7 238.717C369.916 240.331 367.975 240.997 366.365 240.219C364.752 239.437 364.083 237.497 364.865 235.887C365.646 234.274 367.59 233.604 369.197 234.383C370.808 235.168 371.481 237.109 370.7 238.717Z" fill="white"/>
<path id="Fill 233" fill-rule="evenodd" clip-rule="evenodd" d="M305.102 216.786C304.32 218.399 302.378 219.067 300.766 218.287C299.156 217.505 298.485 215.567 299.269 213.956C300.05 212.344 301.992 211.673 303.599 212.452C305.211 213.237 305.883 215.179 305.102 216.786Z" fill="white"/>
<path id="Fill 234" fill-rule="evenodd" clip-rule="evenodd" d="M313.974 204.655C313.19 206.268 311.249 206.934 309.637 206.155C308.027 205.373 307.355 203.435 308.139 201.824C308.922 200.212 310.862 199.542 312.472 200.321C314.082 201.106 314.756 203.045 313.974 204.655Z" fill="white"/>
<path id="Fill 235" fill-rule="evenodd" clip-rule="evenodd" d="M324.479 190.656C323.697 192.27 321.754 192.936 320.144 192.157C318.531 191.375 317.862 189.437 318.644 187.826C319.425 186.214 321.368 185.545 322.976 186.322C324.588 187.107 325.262 189.049 324.479 190.656Z" fill="white"/>
<path id="Fill 236" fill-rule="evenodd" clip-rule="evenodd" d="M340.818 174.323C340.036 175.936 338.094 176.602 336.482 175.823C334.87 175.041 334.201 173.103 334.985 171.492C335.766 169.88 337.709 169.21 339.315 169.99C340.929 170.774 341.601 172.715 340.818 174.323Z" fill="white"/>
<path id="Fill 237" fill-rule="evenodd" clip-rule="evenodd" d="M326.814 160.326C326.03 161.94 324.087 162.607 322.476 161.826C320.864 161.044 320.195 159.106 320.98 157.496C321.76 155.883 323.702 155.214 325.311 155.993C326.922 156.777 327.596 158.718 326.814 160.326Z" fill="white"/>
<path id="Fill 238" fill-rule="evenodd" clip-rule="evenodd" d="M315.84 178.992C315.056 180.606 313.116 181.273 311.503 180.492C309.893 179.71 309.222 177.774 310.007 176.163C310.786 174.549 312.73 173.879 314.338 174.658C315.948 175.443 316.622 177.384 315.84 178.992Z" fill="white"/>
<path id="Fill 239" fill-rule="evenodd" clip-rule="evenodd" d="M307.729 192.584C306.947 194.197 305.005 194.865 303.393 194.084C301.783 193.302 301.111 191.364 301.898 189.753C302.677 188.141 304.618 187.471 306.226 188.25C307.838 189.035 308.512 190.976 307.729 192.584Z" fill="white"/>
<path id="Fill 240" fill-rule="evenodd" clip-rule="evenodd" d="M300.726 205.708C299.943 207.322 298.001 207.989 296.391 207.209C294.78 206.427 294.107 204.489 294.893 202.878C295.672 201.266 297.615 200.597 299.225 201.374C300.835 202.159 301.507 204.101 300.726 205.708Z" fill="white"/>
<path id="Fill 241" fill-rule="evenodd" clip-rule="evenodd" d="M403.207 158.866C402.424 160.48 400.48 161.145 398.87 160.366C397.26 159.584 396.588 157.646 397.373 156.035C398.153 154.423 400.094 153.753 401.704 154.532C403.315 155.317 403.991 157.258 403.207 158.866Z" fill="white"/>
<path id="Fill 242" fill-rule="evenodd" clip-rule="evenodd" d="M418.96 134.018C418.179 135.631 416.237 136.299 414.626 135.518C413.014 134.736 412.345 132.798 413.129 131.187C413.91 129.575 415.851 128.906 417.459 129.684C419.071 130.469 419.745 132.41 418.96 134.018Z" fill="white"/>
<path id="Fill 243" fill-rule="evenodd" clip-rule="evenodd" d="M493.897 155.366C493.115 156.979 491.172 157.646 489.562 156.869C487.951 156.085 487.279 154.147 488.066 152.536C488.845 150.924 490.786 150.253 492.394 151.032C494.008 151.818 494.681 153.759 493.897 155.366Z" fill="white"/>
<path id="Fill 244" fill-rule="evenodd" clip-rule="evenodd" d="M502.649 155.717C501.868 157.331 499.926 157.997 498.314 157.218C496.703 156.436 496.032 154.496 496.819 152.887C497.598 151.275 499.541 150.604 501.148 151.383C502.759 152.169 503.433 154.11 502.649 155.717Z" fill="#D5D4D5"/>
<path id="Fill 245" fill-rule="evenodd" clip-rule="evenodd" d="M483.392 139.969C482.608 141.582 480.667 142.248 479.055 141.469C477.444 140.687 476.774 138.749 477.559 137.138C478.338 135.524 480.282 134.855 481.889 135.634C483.5 136.42 484.174 138.361 483.392 139.969Z" fill="white"/>
<path id="Fill 246" fill-rule="evenodd" clip-rule="evenodd" d="M474.287 141.018C473.505 142.631 471.562 143.299 469.952 142.518C468.342 141.736 467.669 139.798 468.454 138.187C469.235 136.575 471.177 135.905 472.786 136.684C474.396 137.469 475.071 139.41 474.287 141.018Z" fill="white"/>
<path id="Fill 247" fill-rule="evenodd" clip-rule="evenodd" d="M299.558 121.421C298.774 123.033 296.832 123.7 295.22 122.921C293.61 122.139 292.939 120.201 293.723 118.59C294.504 116.976 296.447 116.308 298.055 117.086C299.665 117.872 300.341 119.813 299.558 121.421Z" fill="white"/>
<path id="Fill 248" fill-rule="evenodd" clip-rule="evenodd" d="M229.874 98.321C229.09 99.9349 227.149 100.601 225.537 99.8216C223.927 99.041 223.257 97.1014 224.041 95.4907C224.822 93.8784 226.762 93.2096 228.372 93.9886C229.983 94.7722 230.656 96.7134 229.874 98.321Z" fill="white"/>
<path id="Fill 249" fill-rule="evenodd" clip-rule="evenodd" d="M189.14 218.243C188.356 219.857 186.414 220.523 184.804 219.744C183.192 218.962 182.521 217.024 183.305 215.413C184.086 213.801 186.029 213.13 187.639 213.911C189.247 214.695 189.921 216.636 189.14 218.243Z" fill="white"/>
<path id="Fill 250" fill-rule="evenodd" clip-rule="evenodd" d="M155.292 173.911C154.507 175.525 152.566 176.192 150.954 175.412C149.343 174.631 148.672 172.692 149.456 171.081C150.237 169.469 152.179 168.8 153.789 169.577C155.398 170.363 156.07 172.304 155.292 173.911Z" fill="white"/>
<path id="Fill 251" fill-rule="evenodd" clip-rule="evenodd" d="M120.04 127.249C119.255 128.861 117.316 129.528 115.704 128.749C114.092 127.966 113.422 126.029 114.206 124.418C114.987 122.805 116.929 122.136 118.539 122.915C120.149 123.698 120.821 125.64 120.04 127.249Z" fill="white"/>
<path id="Fill 252" fill-rule="evenodd" clip-rule="evenodd" d="M68.9164 52.0061C68.1323 53.6184 66.1915 54.2856 64.5799 53.5066C62.9683 52.7246 62.2976 50.7849 63.0817 49.1757C63.8626 47.5619 65.8049 46.8931 67.415 47.6721C69.0235 48.4557 69.6973 50.3969 68.9164 52.0061Z" fill="white"/>
<path id="Fill 253" fill-rule="evenodd" clip-rule="evenodd" d="M120.741 56.2036C119.957 57.8175 118.015 58.4847 116.404 57.7057C114.793 56.9221 114.124 54.9855 114.906 53.3748C115.689 51.761 117.628 51.0922 119.236 51.8712C120.85 52.6548 121.522 54.596 120.741 56.2036Z" fill="white"/>
<path id="Fill 254" fill-rule="evenodd" clip-rule="evenodd" d="M180.246 349.341C180.205 350.725 179.049 351.813 177.661 351.771C176.277 351.731 175.187 350.573 175.231 349.191C175.271 347.805 176.432 346.717 177.813 346.758C179.198 346.798 180.291 347.954 180.246 349.341Z" fill="#E4DAEA"/>
<path id="Fill 255" fill-rule="evenodd" clip-rule="evenodd" d="M173.122 356.65C173.082 358.037 171.925 359.125 170.539 359.086C169.156 359.041 168.067 357.887 168.106 356.499C168.149 355.117 169.305 354.029 170.694 354.071C172.076 354.111 173.166 355.264 173.122 356.65Z" fill="#D3CADB"/>
<path id="Fill 256" fill-rule="evenodd" clip-rule="evenodd" d="M166.629 363.985C166.589 365.369 165.432 366.457 164.047 366.412C162.659 366.375 161.571 365.219 161.613 363.832C161.65 362.449 162.813 361.361 164.197 361.403C165.58 361.445 166.671 362.601 166.629 363.985Z" fill="#B9B0C2"/>
<path id="Fill 257" fill-rule="evenodd" clip-rule="evenodd" d="M160.111 371.944C160.074 373.328 158.913 374.416 157.533 374.374C156.141 374.334 155.053 373.178 155.098 371.79C155.138 370.405 156.294 369.318 157.682 369.36C159.063 369.401 160.153 370.555 160.111 371.944Z" fill="#B3A9BB"/>
<path id="Fill 258" fill-rule="evenodd" clip-rule="evenodd" d="M154.248 379.293C154.204 380.677 153.044 381.768 151.658 381.722C150.275 381.683 149.188 380.525 149.23 379.143C149.269 377.758 150.43 376.671 151.813 376.711C153.198 376.753 154.286 377.909 154.248 379.293Z" fill="#ABA0B3"/>
<path id="Fill 259" fill-rule="evenodd" clip-rule="evenodd" d="M148.356 387.269C148.316 388.655 147.156 389.741 145.774 389.699C144.388 389.662 143.3 388.501 143.342 387.118C143.383 385.737 144.537 384.643 145.927 384.688C147.308 384.732 148.398 385.885 148.356 387.269Z" fill="#A699AD"/>
<path id="Fill 260" fill-rule="evenodd" clip-rule="evenodd" d="M142.478 394.933C142.443 396.147 141.43 397.1 140.219 397.064C139.008 397.028 138.05 396.012 138.091 394.801C138.126 393.589 139.139 392.638 140.351 392.674C141.559 392.713 142.514 393.721 142.478 394.933Z" fill="#A192A9"/>
<path id="Fill 261" fill-rule="evenodd" clip-rule="evenodd" d="M137.219 402.929C137.181 404.144 136.174 405.092 134.962 405.057C133.749 405.018 132.794 404.012 132.83 402.796C132.867 401.587 133.88 400.633 135.094 400.672C136.303 400.706 137.256 401.719 137.219 402.929Z" fill="#998AA3"/>
<path id="Fill 262" fill-rule="evenodd" clip-rule="evenodd" d="M131.939 411.554C131.905 412.764 130.891 413.714 129.682 413.681C128.466 413.642 127.515 412.634 127.552 411.423C127.588 410.207 128.597 409.257 129.809 409.291C131.023 409.33 131.977 410.342 131.939 411.554Z" fill="#94859E"/>
<path id="Fill 263" fill-rule="evenodd" clip-rule="evenodd" d="M127.307 419.564C127.271 420.778 126.257 421.732 125.043 421.695C123.837 421.659 122.88 420.646 122.914 419.434C122.953 418.223 123.966 417.272 125.178 417.308C126.389 417.344 127.342 418.355 127.307 419.564Z" fill="#8F7F99"/>
<path id="Fill 264" fill-rule="evenodd" clip-rule="evenodd" d="M122.656 428.207C122.62 429.418 121.608 430.37 120.397 430.335C119.184 430.299 118.231 429.287 118.267 428.077C118.304 426.865 119.318 425.915 120.53 425.948C121.737 425.988 122.69 426.998 122.656 428.207Z" fill="#887995"/>
<path id="Fill 265" fill-rule="evenodd" clip-rule="evenodd" d="M117.373 436.83C117.34 438.042 116.325 438.997 115.116 438.958C113.903 438.922 112.95 437.914 112.985 436.705C113.021 435.485 114.035 434.537 115.246 434.573C116.459 434.608 117.409 435.62 117.373 436.83Z" fill="#857390"/>
<path id="Fill 266" fill-rule="evenodd" clip-rule="evenodd" d="M112.724 445.47C112.687 446.685 111.675 447.638 110.462 447.601C109.25 447.565 108.296 446.553 108.335 445.338C108.369 444.131 109.383 443.177 110.596 443.214C111.805 443.25 112.758 444.258 112.724 445.47Z" fill="#7F6C8C"/>
<path id="Fill 267" fill-rule="evenodd" clip-rule="evenodd" d="M107.436 454.408C107.403 455.444 106.537 456.26 105.497 456.232C104.459 456.203 103.641 455.336 103.672 454.296C103.705 453.256 104.57 452.445 105.61 452.476C106.649 452.505 107.467 453.37 107.436 454.408Z" fill="#796786"/>
<path id="Fill 268" fill-rule="evenodd" clip-rule="evenodd" d="M102.136 463.658C102.104 464.696 101.237 465.512 100.199 465.482C99.1615 465.451 98.3433 464.585 98.3744 463.546C98.4054 462.506 99.2718 461.688 100.309 461.721C101.349 461.755 102.167 462.619 102.136 463.658Z" fill="#766382"/>
<path id="Fill 269" fill-rule="evenodd" clip-rule="evenodd" d="M96.84 472.907C96.8074 473.945 95.9395 474.763 94.8993 474.731C93.8622 474.704 93.0455 473.835 93.0796 472.797C93.1076 471.756 93.9739 470.941 95.0126 470.968C96.0513 471.005 96.8711 471.869 96.84 472.907Z" fill="#705D7C"/>
<path id="Fill 270" fill-rule="evenodd" clip-rule="evenodd" d="M91.5401 482.157C91.5091 483.195 90.6396 484.009 89.604 483.981C88.5654 483.951 87.7471 483.082 87.7798 482.043C87.8108 481.003 88.6771 480.188 89.7158 480.221C90.7545 480.249 91.5727 481.121 91.5401 482.157Z" fill="#6C5779"/>
<path id="Fill 271" fill-rule="evenodd" clip-rule="evenodd" d="M85.5967 492.013C85.5688 493.055 84.6993 493.869 83.6637 493.837C82.6204 493.807 81.8053 492.938 81.8363 491.898C81.8658 490.865 82.7337 490.044 83.7724 490.075C84.8126 490.108 85.6309 490.977 85.5967 492.013Z" fill="#665375"/>
<path id="Fill 272" fill-rule="evenodd" clip-rule="evenodd" d="M79.6529 501.868C79.6203 502.906 78.754 503.721 77.7138 503.694C76.6766 503.665 75.8599 502.796 75.8894 501.756C75.9221 500.718 76.7915 499.903 77.8255 499.934C78.8704 499.964 79.684 500.831 79.6529 501.868Z" fill="#634E71"/>
<path id="Fill 273" fill-rule="evenodd" clip-rule="evenodd" d="M72.4449 512.003C72.4217 512.866 71.6966 513.547 70.8333 513.523C69.9654 513.496 69.2854 512.776 69.3102 511.904C69.3382 511.046 70.0617 510.363 70.9249 510.39C71.7928 510.414 72.4744 511.139 72.4449 512.003Z" fill="#5E486E"/>
<path id="Fill 274" fill-rule="evenodd" clip-rule="evenodd" d="M65.8567 522.467C65.8303 523.336 65.1084 524.011 64.2405 523.986C63.3757 523.962 62.6941 523.241 62.7236 522.376C62.7453 521.51 63.4704 520.828 64.3352 520.855C65.2 520.881 65.8831 521.603 65.8567 522.467Z" fill="#553E66"/>
<path id="Fill 275" fill-rule="evenodd" clip-rule="evenodd" d="M58.6402 532.917C58.6154 533.781 57.8903 534.458 57.0255 534.435C56.1576 534.408 55.4807 533.687 55.5055 532.821C55.5319 531.954 56.2523 531.275 57.1202 531.297C57.9866 531.325 58.6682 532.05 58.6402 532.917Z" fill="#553E66"/>
<path id="Fill 276" fill-rule="evenodd" clip-rule="evenodd" d="M50.7781 543.965C50.7502 544.835 50.0298 545.513 49.165 545.487C48.2955 545.461 47.6155 544.739 47.645 543.878C47.6698 543.01 48.3933 542.329 49.2597 542.357C50.1214 542.382 50.8045 543.104 50.7781 543.965Z" fill="#513964"/>
<path id="Fill 277" fill-rule="evenodd" clip-rule="evenodd" d="M42.2873 555.003C42.2609 555.869 41.5405 556.552 40.6741 556.526C39.8078 556.499 39.1262 555.774 39.1541 554.913C39.1759 554.044 39.9025 553.365 40.7689 553.392C41.6321 553.416 42.3152 554.139 42.2873 555.003Z" fill="#4B345E"/>
<path id="Fill 278" fill-rule="evenodd" clip-rule="evenodd" d="M33.1519 566.648C33.127 567.509 32.4051 568.192 31.5372 568.164C30.6724 568.141 29.9939 567.419 30.0172 566.552C30.0436 565.687 30.7655 565.008 31.6303 565.034C32.4982 565.059 33.1814 565.78 33.1519 566.648Z" fill="#492F5B"/>
<path id="Fill 279" fill-rule="evenodd" clip-rule="evenodd" d="M22.7732 577.94C22.753 578.632 22.1724 579.175 21.4846 579.157C20.7905 579.135 20.244 578.553 20.2642 577.862C20.2859 577.169 20.8651 576.627 21.5575 576.647C22.2484 576.672 22.7919 577.245 22.7732 577.94Z" fill="#432857"/>
<path id="Fill 280" fill-rule="evenodd" clip-rule="evenodd" d="M12.3665 590.17C12.3463 590.863 11.7656 591.402 11.0732 591.383C10.3854 591.368 9.83729 590.787 9.86058 590.095C9.87766 589.408 10.4583 588.866 11.1477 588.882C11.8401 588.903 12.3867 589.482 12.3665 590.17Z" fill="#3E2554"/>
<path id="Fill 281" fill-rule="evenodd" clip-rule="evenodd" d="M0.703799 602.367C0.682063 603.055 0.104494 603.602 -0.586414 603.581C-1.27888 603.562 -1.82384 602.985 -1.80366 602.291C-1.78347 601.601 -1.2059 601.054 -0.513442 601.076C0.180572 601.093 0.727088 601.672 0.703799 602.367Z" fill="#3C1D50"/>
<path id="Fill 282" fill-rule="evenodd" clip-rule="evenodd" d="M201.213 320.474C201.167 321.625 200.193 322.518 199.04 322.47C197.886 322.423 196.993 321.449 197.043 320.297C197.091 319.147 198.066 318.25 199.217 318.298C200.369 318.347 201.266 319.321 201.213 320.474Z" fill="white"/>
<path id="Fill 283" fill-rule="evenodd" clip-rule="evenodd" d="M195.439 327.904C195.423 329.032 194.5 329.933 193.371 329.921C192.247 329.902 191.342 328.979 191.356 327.852C191.374 326.727 192.298 325.824 193.427 325.838C194.552 325.852 195.454 326.776 195.439 327.904Z" fill="white"/>
<path id="Fill 284" fill-rule="evenodd" clip-rule="evenodd" d="M207.516 313.238C207.497 314.563 206.412 315.623 205.088 315.609C203.765 315.586 202.703 314.501 202.717 313.178C202.737 311.854 203.824 310.794 205.15 310.811C206.474 310.827 207.533 311.913 207.516 313.238Z" fill="white"/>
<path id="Fill 285" fill-rule="evenodd" clip-rule="evenodd" d="M212.238 305.54C212.22 306.865 211.133 307.923 209.805 307.91C208.486 307.888 207.422 306.802 207.438 305.478C207.459 304.156 208.546 303.096 209.872 303.112C211.195 303.127 212.254 304.213 212.238 305.54Z" fill="white"/>
<path id="Fill 286" fill-rule="evenodd" clip-rule="evenodd" d="M217.258 297.958C217.24 299.282 216.151 300.343 214.827 300.326C213.504 300.306 212.442 299.218 212.456 297.895C212.479 296.571 213.566 295.511 214.892 295.528C216.213 295.545 217.274 296.63 217.258 297.958Z" fill="white"/>
<path id="Fill 287" fill-rule="evenodd" clip-rule="evenodd" d="M219.656 289.765C219.637 291.089 218.553 292.148 217.227 292.133C215.905 292.114 214.843 291.025 214.857 289.701C214.878 288.379 215.964 287.318 217.293 287.336C218.612 287.352 219.673 288.438 219.656 289.765Z" fill="white"/>
<path id="Fill 288" fill-rule="evenodd" clip-rule="evenodd" d="M189.656 335.256C189.642 336.181 188.884 336.921 187.957 336.904C187.032 336.896 186.293 336.136 186.304 335.212C186.315 334.288 187.077 333.547 188.001 333.561C188.926 333.572 189.667 334.333 189.656 335.256Z" fill="white"/>
<path id="Fill 289" fill-rule="evenodd" clip-rule="evenodd" d="M213.199 331.29C212.671 332.315 211.414 332.717 210.386 332.187C209.361 331.657 208.957 330.402 209.487 329.379C210.015 328.354 211.277 327.95 212.299 328.478C213.326 329.005 213.732 330.264 213.199 331.29Z" fill="#D5D4D5"/>
<path id="Fill 290" fill-rule="evenodd" clip-rule="evenodd" d="M205.076 336.42C204.588 337.435 203.368 337.864 202.349 337.38C201.338 336.892 200.907 335.673 201.391 334.655C201.88 333.641 203.099 333.212 204.118 333.7C205.131 334.184 205.561 335.4 205.076 336.42Z" fill="#EDE3F1"/>
<path id="Fill 291" fill-rule="evenodd" clip-rule="evenodd" d="M222.308 326.445C221.735 327.64 220.302 328.146 219.106 327.575C217.916 327.001 217.409 325.57 217.979 324.372C218.555 323.18 219.987 322.674 221.181 323.249C222.373 323.818 222.881 325.247 222.308 326.445Z" fill="#D5D4D5"/>
<path id="Fill 292" fill-rule="evenodd" clip-rule="evenodd" d="M231.868 323.612C231.296 324.806 229.864 325.312 228.665 324.741C227.478 324.166 226.97 322.736 227.537 321.543C228.114 320.35 229.546 319.841 230.741 320.415C231.935 320.985 232.438 322.414 231.868 323.612Z" fill="#D5D4D5"/>
<path id="Fill 293" fill-rule="evenodd" clip-rule="evenodd" d="M240.37 319.813C239.798 321.008 238.365 321.514 237.168 320.943C235.979 320.368 235.471 318.939 236.04 317.743C236.616 316.551 238.047 316.042 239.244 316.616C240.437 317.186 240.941 318.617 240.37 319.813Z" fill="#D5D4D5"/>
<path id="Fill 294" fill-rule="evenodd" clip-rule="evenodd" d="M249.728 317.415C249.154 318.61 247.721 319.116 246.525 318.545C245.336 317.969 244.828 316.54 245.398 315.345C245.972 314.154 247.404 313.645 248.601 314.219C249.792 314.788 250.3 316.218 249.728 317.415Z" fill="#D5D4D5"/>
<path id="Fill 295" fill-rule="evenodd" clip-rule="evenodd" d="M195.723 341.26C195.321 342.094 194.321 342.448 193.489 342.046C192.651 341.648 192.3 340.647 192.699 339.812C193.096 338.98 194.099 338.626 194.934 339.028C195.767 339.427 196.119 340.428 195.723 341.26Z" fill="#EDE3F1"/>
<path id="Fill 296" fill-rule="evenodd" clip-rule="evenodd" d="M410.605 291.691C410.245 292.429 409.356 292.735 408.617 292.378C407.878 292.02 407.569 291.131 407.929 290.392C408.287 289.652 409.179 289.345 409.918 289.701C410.655 290.061 410.963 290.951 410.605 291.691Z" fill="white"/>
<path id="Fill 297" fill-rule="evenodd" clip-rule="evenodd" d="M369.34 316.747C368.98 317.487 368.087 317.793 367.351 317.436C366.609 317.077 366.305 316.187 366.66 315.448C367.02 314.708 367.911 314.4 368.65 314.757C369.388 315.117 369.695 316.008 369.34 316.747Z" fill="white"/>
<path id="Fill 298" fill-rule="evenodd" clip-rule="evenodd" d="M448.528 323.632C448.168 324.372 447.277 324.678 446.539 324.319C445.8 323.961 445.491 323.072 445.85 322.333C446.208 321.593 447.101 321.286 447.839 321.642C448.579 322.002 448.887 322.893 448.528 323.632Z" fill="white"/>
<path id="Fill 299" fill-rule="evenodd" clip-rule="evenodd" d="M489.33 174.427C488.969 175.165 488.08 175.472 487.341 175.114C486.598 174.756 486.291 173.866 486.65 173.126C487.011 172.388 487.903 172.08 488.642 172.437C489.378 172.797 489.685 173.688 489.33 174.427Z" fill="white"/>
<path id="Fill 300" fill-rule="evenodd" clip-rule="evenodd" d="M460.167 175.944C459.809 176.684 458.916 176.99 458.179 176.633C457.438 176.273 457.131 175.386 457.488 174.646C457.849 173.905 458.741 173.598 459.478 173.957C460.217 174.315 460.524 175.206 460.167 175.944Z" fill="white"/>
<path id="Fill 301" fill-rule="evenodd" clip-rule="evenodd" d="M429.354 119.132C428.995 119.872 428.104 120.177 427.365 119.821C426.623 119.461 426.317 118.571 426.675 117.833C427.034 117.094 427.927 116.785 428.664 117.142C429.403 117.504 429.711 118.393 429.354 119.132Z" fill="white"/>
<path id="Fill 302" fill-rule="evenodd" clip-rule="evenodd" d="M402.068 122.047C401.71 122.787 400.817 123.093 400.079 122.736C399.339 122.378 399.031 121.487 399.39 120.749C399.749 120.01 400.64 119.701 401.379 120.06C402.118 120.42 402.425 121.309 402.068 122.047Z" fill="white"/>
<path id="Fill 303" fill-rule="evenodd" clip-rule="evenodd" d="M439.139 148.295C438.778 149.035 437.887 149.341 437.147 148.984C436.408 148.626 436.1 147.735 436.46 146.996C436.819 146.256 437.709 145.949 438.449 146.307C439.188 146.667 439.494 147.557 439.139 148.295Z" fill="white"/>
<path id="Fill 304" fill-rule="evenodd" clip-rule="evenodd" d="M239.87 173.322C239.51 174.062 238.619 174.368 237.881 174.009C237.14 173.651 236.833 172.761 237.192 172.023C237.55 171.283 238.442 170.975 239.179 171.332C239.918 171.692 240.226 172.583 239.87 173.322Z" fill="white"/>
<path id="Fill 305" fill-rule="evenodd" clip-rule="evenodd" d="M296.039 149.783C295.68 150.524 294.787 150.829 294.05 150.471C293.309 150.112 293.002 149.223 293.361 148.485C293.721 147.744 294.612 147.437 295.35 147.796C296.089 148.154 296.394 149.045 296.039 149.783Z" fill="white"/>
<path id="Fill 306" fill-rule="evenodd" clip-rule="evenodd" d="M239.623 221.791C239.264 222.531 238.373 222.837 237.636 222.478C236.895 222.12 236.586 221.23 236.946 220.492C237.305 219.752 238.198 219.444 238.935 219.801C239.674 220.161 239.98 221.052 239.623 221.791Z" fill="white"/>
<path id="Fill 307" fill-rule="evenodd" clip-rule="evenodd" d="M187.515 172.329C187.153 173.069 186.262 173.375 185.524 173.016C184.784 172.658 184.478 171.769 184.837 171.03C185.195 170.29 186.086 169.982 186.824 170.339C187.563 170.699 187.87 171.59 187.515 172.329Z" fill="white"/>
<path id="Fill 308" fill-rule="evenodd" clip-rule="evenodd" d="M145.727 132.568C145.368 133.308 144.477 133.614 143.738 133.256C142.997 132.897 142.69 132.008 143.049 131.269C143.41 130.529 144.3 130.222 145.039 130.579C145.777 130.939 146.084 131.83 145.727 132.568Z" fill="white"/>
<path id="Fill 309" fill-rule="evenodd" clip-rule="evenodd" d="M107.475 70.7451C107.115 71.4853 106.224 71.7894 105.486 71.4325C104.746 71.074 104.44 70.1849 104.797 69.4463C105.156 68.7061 106.047 68.3988 106.786 68.7557C107.525 69.1157 107.832 70.0064 107.475 70.7451Z" fill="white"/>
<path id="Fill 310" fill-rule="evenodd" clip-rule="evenodd" d="M84.0985 29.1907C83.7399 29.9309 82.8487 30.2366 82.1096 29.8797C81.3706 29.5212 81.0632 28.6305 81.4203 27.8934C81.7805 27.1533 82.6717 26.8445 83.4107 27.2014C84.1498 27.5629 84.4572 28.4521 84.0985 29.1907Z" fill="white"/>
<path id="Fill 311" fill-rule="evenodd" clip-rule="evenodd" d="M74.0308 41.7024C73.6721 42.4426 72.7809 42.7483 72.0419 42.3898C71.3028 42.0314 70.9939 41.1422 71.3541 40.4036C71.7127 39.6634 72.6039 39.3562 73.3445 39.7131C74.082 40.0731 74.3879 40.9638 74.0308 41.7024Z" fill="white"/>
<path id="Fill 312" fill-rule="evenodd" clip-rule="evenodd" d="M167.205 72.5575C166.844 73.2976 165.952 73.6033 165.215 73.2449C164.474 72.8864 164.167 71.9973 164.527 71.2586C164.886 70.5185 165.777 70.2112 166.515 70.5681C167.255 70.9281 167.561 71.8188 167.205 72.5575Z" fill="white"/>
<path id="Fill 313" fill-rule="evenodd" clip-rule="evenodd" d="M186.788 140.363C186.428 141.103 185.537 141.408 184.8 141.052C184.059 140.693 183.752 139.802 184.11 139.064C184.469 138.324 185.362 138.016 186.099 138.373C186.837 138.735 187.144 139.624 186.788 140.363Z" fill="white"/>
<path id="Fill 314" fill-rule="evenodd" clip-rule="evenodd" d="M138.232 103.966C137.872 104.707 136.982 105.012 136.243 104.654C135.502 104.295 135.194 103.406 135.552 102.668C135.913 101.927 136.805 101.62 137.542 101.977C138.28 102.339 138.587 103.228 138.232 103.966Z" fill="white"/>
<path id="Fill 315" fill-rule="evenodd" clip-rule="evenodd" d="M96.096 84.9514C95.7358 85.6916 94.8462 85.9973 94.1072 85.6404C93.3666 85.2804 93.0592 84.3913 93.4178 83.6526C93.778 82.9124 94.6676 82.6052 95.4082 82.9621C96.1457 83.3237 96.4531 84.2128 96.096 84.9514Z" fill="white"/>
<path id="Fill 316" fill-rule="evenodd" clip-rule="evenodd" d="M19.3488 12.4566C18.9902 13.1968 18.0974 13.5025 17.36 13.1441C16.6178 12.7872 16.3119 11.8965 16.669 11.1578C17.0308 10.4192 17.922 10.1104 18.6595 10.4688C19.3985 10.8273 19.7059 11.718 19.3488 12.4566Z" fill="white"/>
<path id="Fill 317" fill-rule="evenodd" clip-rule="evenodd" d="M486.755 339.047C486.395 339.787 485.506 340.093 484.767 339.734C484.028 339.377 483.719 338.487 484.077 337.748C484.436 337.009 485.329 336.701 486.066 337.058C486.807 337.419 487.113 338.308 486.755 339.047Z" fill="white"/>
<path id="Fill 318" fill-rule="evenodd" clip-rule="evenodd" d="M478.503 345.915C478.143 346.654 477.253 346.961 476.514 346.602C475.775 346.244 475.467 345.355 475.825 344.616C476.185 343.876 477.076 343.569 477.813 343.926C478.552 344.286 478.861 345.176 478.503 345.915Z" fill="white"/>
<path id="Fill 319" fill-rule="evenodd" clip-rule="evenodd" d="M498.871 351.926C498.513 352.667 497.62 352.972 496.882 352.615C496.14 352.257 495.834 351.366 496.193 350.629C496.552 349.889 497.443 349.58 498.18 349.939C498.919 350.299 499.227 351.189 498.871 351.926Z" fill="white"/>
<path id="Fill 320" fill-rule="evenodd" clip-rule="evenodd" d="M109.608 167.422C109.608 170.698 106.949 173.354 103.672 173.354C100.394 173.354 97.7363 170.698 97.7363 167.422C97.7363 164.146 100.394 161.49 103.672 161.49C106.949 161.49 109.608 164.146 109.608 167.422Z" fill="#301A49"/>
<path id="Fill 322" fill-rule="evenodd" clip-rule="evenodd" d="M48.4814 373.873C48.4814 377.149 45.8249 379.805 42.5474 379.805C39.2683 379.805 36.6118 377.149 36.6118 373.873C36.6118 370.597 39.2683 367.941 42.5474 367.941C45.8249 367.941 48.4814 370.597 48.4814 373.873Z" fill="#301A49"/>
<path id="Fill 323" fill-rule="evenodd" clip-rule="evenodd" d="M274.221 351.121C274.221 354.397 271.564 357.053 268.287 357.053C265.008 357.053 262.35 354.397 262.35 351.121C262.35 347.844 265.008 345.189 268.287 345.189C271.564 345.189 274.221 347.844 274.221 351.121Z" fill="#301A49"/>
<path id="Fill 324" fill-rule="evenodd" clip-rule="evenodd" d="M438.958 422.295C438.958 428.364 434.035 433.283 427.966 433.283C421.895 433.283 416.972 428.364 416.972 422.295C416.972 416.228 421.895 411.309 427.966 411.309C434.035 411.309 438.958 416.228 438.958 422.295Z" fill="#282928"/>
</g>
</g>
<defs>
<clipPath id="clip0">
<rect width="700" height="719.284" fill="white"/>
</clipPath>
</defs>
</svg>
