<svg width="1440" height="565" viewBox="0 0 1440 565" fill="none" xmlns="http://www.w3.org/2000/svg">
<g clip-path="url(#clip0)">
<g clip-path="url(#clip1)">
<path d="M2097.43 -137.765C2072.61 -140.884 2002.17 -138.438 1905.37 -104.263C1771.76 -29.1425 1743.05 -8.93769 1645.5 10.2147C1539.76 42.5543 1435.5 15.7202 1324.43 45.1142C1147.88 123.843 1142.62 236.374 1018.08 252.348C893.539 268.323 783.518 177.41 653.447 209.759C564.479 231.886 480.967 460.249 378.09 476.456C296.554 489.301 249.259 468.634 190.069 449.841L-37.2495 369.398" stroke="#E2E2E2" stroke-width="2"/>
<path d="M1991.98 -127.64C1971.93 -124.482 1910.7 -111.592 1874.91 -95.1381C1774.26 -33.8622 1683.51 0.981501 1588.24 31.1311C1508.09 56.492 1335.4 28.9192 1267.17 66.0306C1097.36 158.403 1085.36 257.291 960.82 273.265C836.279 289.239 726.259 198.326 596.188 230.675C507.219 252.802 423.707 481.165 320.83 497.373C239.294 510.218 192 489.551 132.81 470.758L-16.1056 410.947" stroke="#8B98A9" stroke-width="2"/>
<path d="M2012.83 -132.547C1955.02 -118.573 1919.39 -117.826 1830.47 -75.1608C1691.23 -8.34543 1623.52 25.1292 1528.04 47.104C1446.12 65.9567 1275.2 44.8921 1206.97 82.0035C1037.15 174.376 1025.16 273.263 900.619 289.238C776.078 305.212 666.057 214.299 535.986 246.648C447.018 268.775 363.506 497.138 260.628 513.345C179.093 526.19 131.798 505.524 72.6081 486.731L-7.23718 460.378" stroke="#E000CF" stroke-width="2"/>
<path d="M-1.31038 504.864C57.8798 523.657 109.117 545.325 190.652 532.48C293.53 516.273 377.042 287.91 466.01 265.783C596.081 233.434 706.102 324.347 830.643 308.372C955.183 292.398 967.179 193.51 1137 101.138C1205.22 64.0267 1376.15 85.0914 1458.06 66.2386C1553.54 44.2638 1621.26 10.7892 1760.5 -56.0262C1849.41 -98.6915 1933.03 -114.027 1990.84 -128.001" stroke="#FF4092" stroke-width="2"/>
</g>
</g>
<defs>
<clipPath id="clip0">
<rect width="1440" height="565" fill="white"/>
</clipPath>
<clipPath id="clip1">
<rect width="2189.74" height="376.03" fill="white" transform="translate(-59 193.766) rotate(-8.95272)"/>
</clipPath>
</defs>
</svg>
