<svg width="20" height="20" viewBox="0 0 20 20" fill="none" xmlns="http://www.w3.org/2000/svg">
<g clip-path="url(#clip0)">
<path d="M5.38672 11.6241C5.38672 11.6241 14.5076 2.47829 15.0976 1.88913C15.9809 1.00579 19.5167 0.416626 19.5167 0.416626C19.5167 0.416626 18.9276 3.95163 18.0426 4.83579C16.8651 6.01413 8.32005 14.5583 8.32005 14.5583L5.38672 11.6241Z" stroke="white" stroke-miterlimit="10" stroke-linecap="round" stroke-linejoin="round"/>
<path d="M6.5625 10.4382L9.5 13.3799" stroke="white" stroke-miterlimit="10" stroke-linecap="round" stroke-linejoin="round"/>
<path d="M12.7398 10.14C12.7398 10.7292 12.7398 13.085 12.4448 13.9692C12.2582 14.5292 11.6698 15.3333 11.2657 15.7375C10.1048 16.8983 8.31982 18.6833 8.31982 18.6833L8.86566 14.0125" stroke="white" stroke-miterlimit="10" stroke-linecap="round" stroke-linejoin="round"/>
<path d="M9.79333 7.19328C9.205 7.19328 6.8225 7.16828 5.93917 7.46244C5.38 7.64994 4.59917 8.26244 4.19583 8.66578C3.03417 9.82744 1.25 11.6124 1.25 11.6124L5.95083 11.0383" stroke="white" stroke-miterlimit="10" stroke-linecap="round" stroke-linejoin="round"/>
<path d="M6.55262 14.5583C7.14262 15.1474 6.89679 15.9824 6.25762 16.6216C5.44429 17.4349 1.54346 18.4016 1.54346 18.4016C1.54346 18.4016 2.49846 14.4891 3.31179 13.6749C3.95929 13.0283 4.78596 12.7908 5.37512 13.3799" stroke="white" stroke-miterlimit="10" stroke-linecap="round" stroke-linejoin="round"/>
</g>
<defs>
<clipPath id="clip0">
<rect width="20" height="20" fill="white"/>
</clipPath>
</defs>
</svg>
