<svg width="1000" height="1000" viewBox="0 0 1000 1000" fill="none" xmlns="http://www.w3.org/2000/svg">
<g clip-path="url(#clip0)">
<path d="M1004.33 -2.64014H-4.98633V1000.87H1004.33V-2.64014Z" fill="black"/>
<path d="M500.82 385.733L524.92 414.113L436.233 472.44L500.82 385.733Z" fill="#572D6A"/>
<path d="M623.987 296.993L630.84 333.586L524.9 340.24L623.987 296.993Z" fill="#643E81"/>
<path d="M461.807 250.473L494.227 267.68L405.54 326.007L461.807 250.473Z" fill="#643E81"/>
<path d="M395.32 244.087L437.106 256.387L329.793 336.547L395.32 244.087Z" fill="#572D6A"/>
<path d="M266.3 482.807L336.313 486.22L273.08 540.147L266.3 482.807Z" fill="#572D6A"/>
<path d="M624.966 341.187L686.453 374.84L579.826 428.986L624.966 341.187Z" fill="#572D6A"/>
<path d="M829.574 298.827L889.12 349.627L742.587 365.1L829.574 298.827Z" fill="#6E2467"/>
<path d="M532.586 491.973L549.926 508.466L480.253 532.2L532.586 491.973Z" fill="#39214F"/>
<path d="M341 330.593L425.927 306.727L444.873 255.02L341 330.593Z" fill="#39214F"/>
<path d="M338.934 406.953L402.654 376.947L413.04 413.507L338.934 406.953Z" fill="#643E81"/>
<path d="M365.38 374.78L455.96 332.327L409.28 403.947L365.38 374.78Z" fill="#872269"/>
<path d="M721.32 281.493L760.754 246.787L825.927 285.493L721.32 281.493Z" fill="#7D4F9A"/>
<path d="M715.033 361.527L811.8 302.7L801.146 353.854L715.033 361.527Z" fill="#572D6A"/>
<path d="M679.653 330.833L772.16 276.273L796.707 320.713L679.653 330.833Z" fill="#6E2467"/>
<path d="M744.026 319.753L823.853 277.92L832.266 308.667L744.026 319.753Z" fill="#572D6A"/>
<path d="M249.18 472.673L235.26 562.273L272.42 477.687L250.333 470.733" fill="#D3398B"/>
<path d="M755.854 247.287L696.707 246.967L731.234 273.34L755.854 247.287Z" fill="#D3398B"/>
<path d="M492.901 239.253L441.174 257.113L480.98 259.833L492.901 239.253Z" fill="#6E2467"/>
<path d="M383.813 262.947C385.107 262.947 428.92 253.273 428.92 253.273L391.907 288.207L383.813 262.947Z" fill="#39214F"/>
<path d="M497.733 446.64L524.013 473.753L464.687 479.893L497.733 446.64Z" fill="#572D6A"/>
<path d="M468.613 482.267L400.6 499.7L428.513 460.934L468.613 482.267Z" fill="#572D6A"/>
<path d="M496.326 264.546L559.1 298.673L549.84 248.126L496.326 264.546Z" fill="#8663AA"/>
<path d="M191.1 676.713L215.453 733.473L247.273 691.627L191.1 676.713Z" fill="#9857A2"/>
<path d="M572.32 445.253C570.886 449.047 563.333 497.12 563.333 497.12L492.34 504.453L572.32 445.253Z" fill="#8663AA"/>
<path d="M491.373 502.167L516.627 520.247L468.033 536.587L491.373 502.167Z" fill="#D3398B"/>
<path d="M606.02 420.487L618.306 440.567L508.873 488.767L606.02 420.487Z" fill="#9857A2"/>
<path d="M570.034 498.8L565.561 441.14L631.201 429.473L570.034 498.8Z" fill="#873582"/>
<path d="M479.594 292.187C482.667 288 493.067 265.807 493.067 265.807L531.554 282.567L479.594 292.187Z" fill="#D3398B"/>
<path d="M666.939 417.133L704.54 410.06L679.713 451.913L666.939 417.133Z" fill="#39214F"/>
<path d="M716.4 397.553L714.066 448.987L737.273 447.433L716.4 397.553Z" fill="#6E2467"/>
<path d="M697.667 396.273L697.987 447.107L723.727 416L697.667 396.273Z" fill="#39214F"/>
<path d="M733.101 391.3L714.561 414.44L734.887 433.706L733.101 391.3Z" fill="#572D6A"/>
<path d="M679.653 448.92L697.513 431.86L707.88 464.673L679.653 448.92Z" fill="#572D6A"/>
<path d="M701.473 448.613L736.946 446.333L690.953 471.087L701.473 448.613Z" fill="#572D6A"/>
<path d="M678.033 477.26L681.44 455.66L695.427 465.653L678.033 477.26Z" fill="#D3398B"/>
<path d="M284.826 518.774L332.706 548.894L410.766 486.72L284.826 518.774Z" fill="#39214F"/>
<path d="M287.667 561.907L301.134 598.28L327.594 550.053L287.667 561.907Z" fill="#39214F"/>
<path d="M287.054 589.52L251.36 665.493L301.227 599.293L287.054 589.52Z" fill="#39214F"/>
<path d="M492.627 425.687L524.32 431.173L505.807 461.313L492.627 425.687Z" fill="#39214F"/>
<path d="M625.2 258.107L643.634 230.66L722.6 263.267L625.2 258.107Z" fill="#8663AA"/>
<path d="M360.787 497.086L439.214 475.7L446.22 420.526L360.787 497.086Z" fill="#572D6A"/>
<path d="M417.826 404.506L436.56 421.26L442.439 350.373L417.826 404.506Z" fill="#873582"/>
<path d="M280.753 629.507L335.266 653.807L297.06 710.873L280.753 629.507Z" fill="#39214F"/>
<path d="M329.767 416.067L365.353 408.02L415.86 454.74L329.767 416.067Z" fill="#804696"/>
<path d="M212.387 657.493L233.44 672.026L205.627 698.267L212.387 657.493Z" fill="#8663AA"/>
<path d="M185.373 680.394L210.1 699.787L144.653 750.467L185.373 680.394Z" fill="#8663AA"/>
<path d="M556.986 369.094L614.426 328.18L694.466 338.72L556.986 369.094Z" fill="#6E2467"/>
<path d="M356.646 376.707L374.7 321.127L484.06 316.787L356.646 376.707Z" fill="#6E2467"/>
<path d="M276.72 495.64L294.766 440.06L404.126 435.72L276.72 495.64Z" fill="#6E2467"/>
<path d="M379.633 409L454.493 411.867L405.233 456.353L379.633 409Z" fill="#39214F"/>
<path d="M638.54 343.16L707.193 323.093L710.913 379.62L638.54 343.16Z" fill="#491135"/>
<path d="M568.054 296.667L649.707 309.626L643.314 347.993L568.054 296.667Z" fill="#491135"/>
<path d="M515.974 348.506L534.14 364.22L601.9 342.28L515.974 348.506Z" fill="#872269"/>
<path d="M721.654 332.687L733.921 385.326L609.254 433.346L721.654 332.687Z" fill="#39214F"/>
<path d="M869.674 318.58L894.094 340.253L874.354 353.733L869.674 318.58Z" fill="#491135"/>
<path d="M704.633 364.107L716.906 390.267L805.859 362.894L704.633 364.107Z" fill="#61174C"/>
<path d="M229.493 640.533L260.027 651.173L229.493 728.14V640.533Z" fill="#572D6A"/>
<path d="M242.066 708.953L277.24 637.98L290.346 727.18L242.066 708.953Z" fill="#39214F"/>
<path d="M455.214 338.087L426.014 389.027L567.54 363.66L455.214 338.087Z" fill="#572D6A"/>
<path d="M620 346.027L545.934 357.007L572.934 425.76L620 346.027Z" fill="#39214F"/>
<path d="M554.113 362.167L435.313 391.106L450.1 444.866L554.113 362.167Z" fill="#643E81"/>
<path d="M699.026 342.407L764.08 306.14L771.753 349.887L699.026 342.407Z" fill="#39214F"/>
<path d="M621.02 318.747L686.066 282.48L693.746 326.227L621.02 318.747Z" fill="#39214F"/>
<path d="M290.28 442.88L305.747 393.273L354.78 391.6L290.28 442.88Z" fill="#9857A2"/>
<path d="M475.713 288.773L491.186 239.167L540.213 237.5L475.713 288.773Z" fill="#9857A2"/>
<path d="M318.413 375.1L336.866 325.386L382.913 323.82L318.413 375.1Z" fill="#9857A2"/>
<path d="M589.787 401.807L520.167 480.5L575.18 444.82L589.787 401.807Z" fill="#7D4F9A"/>
<path d="M389.013 284.42L332.133 258.267L351.939 315.527L389.013 284.42Z" fill="#9857A2"/>
<path d="M247.026 469.007L293.373 478.347L297.106 397.38L247.026 469.007Z" fill="#8663AA"/>
<path d="M561.167 248.76L611.28 244.673L553.427 303.9L561.167 248.76Z" fill="#804696"/>
<path d="M593.44 258.793L574.253 292.687L700.4 266.553L593.44 258.793Z" fill="#9857A2"/>
<path d="M655.14 304.834L683.92 256.874L767.333 297.987L655.14 304.834Z" fill="#9857A2"/>
<path d="M252.953 567.767L292.667 587.52L240.887 656.967L252.953 567.767Z" fill="#572D6A"/>
<path d="M838.18 310.907L803.333 323.86L875.806 326.413L838.18 310.907Z" fill="#8663AA"/>
<path d="M585.413 291.533L649.793 266.8L676.38 302.053L585.413 291.533Z" fill="#804696"/>
<path d="M228.087 643.64L223.547 671.013L186.434 691.147L228.087 643.64Z" fill="#D3398B"/>
<path d="M747.06 246.327L667.086 228.967L652.106 240.573L747.06 246.327Z" fill="#8663AA"/>
<path d="M407.647 456.034L354.207 429.2L278.7 547.947L407.647 456.034Z" fill="#572D6A"/>
<path d="M249.193 520.22L306.153 508.24L270.653 596.02L249.193 520.22Z" fill="#643E81"/>
<path d="M335.207 359.393L360.174 392.987L382.3 356.467L335.207 359.393Z" fill="#9857A2"/>
<path d="M598.174 397.287L619.747 432.7L662.287 406.92L598.174 397.287Z" fill="#572D6A"/>
<path d="M467.526 358.087L448.84 293.86L624.706 301.273L467.526 358.087Z" fill="#873582"/>
<path d="M347.147 344.693L331.587 336.167L264.66 432.72L347.147 344.693Z" fill="#D3398B"/>
<path d="M587.994 396.606L524.92 385.167L517.854 480.846L587.994 396.606Z" fill="#39214F"/>
<path d="M754.826 282.587V316.647L810.033 312.46L754.826 282.587Z" fill="#804696"/>
<path d="M370.167 237.48L307.934 241.687L346.454 316.34L370.167 237.48Z" fill="#D3398B"/>
<path d="M593.594 223.333L608.16 257.68L647.687 232.36L593.594 223.333Z" fill="#9857A2"/>
<path d="M618.594 260.813L603.041 227.06L511.061 237.693L618.594 260.813Z" fill="#8663AA"/>
<path d="M242.68 540.52L264.674 534.833L226.474 677.44L242.68 540.52Z" fill="#9857A2"/>
<path d="M137.627 782.913L161.073 786.966L115.767 823.366L137.627 782.913Z" fill="#D3398B"/>
<path d="M142.474 760.433L176.307 728.133L244.467 748.44L142.474 760.433Z" fill="#643E81"/>
<path d="M217.48 713.066L287.034 727.953L224.174 746.506L217.48 713.066Z" fill="#572D6A"/>
<path d="M141.253 763.52L235.886 747.747L129.526 793.787L141.253 763.52Z" fill="#491135"/>
<path d="M332.386 660.36L299.14 722.22L360.68 699.84L332.386 660.36Z" fill="#491135"/>
<path d="M260.26 305.713C261.023 306.991 261.391 308.467 261.315 309.953C261.24 311.439 260.726 312.87 259.837 314.064C258.949 315.259 257.726 316.163 256.324 316.662C254.922 317.162 253.404 317.234 251.96 316.871C250.517 316.508 249.214 315.724 248.216 314.621C247.217 313.517 246.569 312.142 246.352 310.669C246.135 309.197 246.359 307.693 246.997 306.348C247.635 305.003 248.656 303.877 249.934 303.113C250.782 302.605 251.723 302.27 252.701 302.126C253.68 301.982 254.677 302.032 255.636 302.273C256.595 302.515 257.497 302.943 258.29 303.533C259.084 304.123 259.753 304.864 260.26 305.713Z" fill="#311A49"/>
<path d="M687.7 172C688.465 173.278 688.833 174.754 688.759 176.241C688.684 177.728 688.17 179.16 687.282 180.355C686.393 181.55 685.17 182.455 683.768 182.955C682.365 183.454 680.846 183.527 679.402 183.163C677.958 182.799 676.654 182.015 675.656 180.91C674.658 179.805 674.01 178.428 673.794 176.955C673.579 175.481 673.805 173.977 674.444 172.632C675.084 171.287 676.108 170.163 677.387 169.4C679.1 168.379 681.148 168.079 683.081 168.566C685.015 169.054 686.676 170.289 687.7 172Z" fill="#292A29"/>
<path d="M114.213 646.213C114.978 647.491 115.346 648.967 115.271 650.454C115.197 651.942 114.683 653.373 113.795 654.568C112.906 655.764 111.683 656.668 110.28 657.168C108.878 657.668 107.358 657.74 105.914 657.376C104.47 657.012 103.167 656.228 102.169 655.123C101.171 654.018 100.523 652.642 100.307 651.168C100.091 649.695 100.317 648.19 100.957 646.846C101.596 645.501 102.621 644.376 103.9 643.613C105.612 642.592 107.66 642.292 109.594 642.78C111.528 643.267 113.189 644.502 114.213 646.213Z" fill="#311A49"/>
<path d="M274.08 814.12C274.844 815.398 275.212 816.874 275.137 818.36C275.062 819.847 274.548 821.279 273.659 822.473C272.771 823.668 271.548 824.572 270.146 825.072C268.743 825.572 267.224 825.644 265.781 825.28C264.337 824.917 263.034 824.133 262.035 823.029C261.037 821.924 260.389 820.548 260.173 819.075C259.956 817.602 260.182 816.098 260.82 814.754C261.459 813.409 262.482 812.283 263.76 811.52C264.608 811.012 265.548 810.677 266.526 810.533C267.504 810.389 268.5 810.439 269.459 810.681C270.417 810.922 271.319 811.35 272.112 811.94C272.905 812.53 273.574 813.271 274.08 814.12Z" fill="#311A49"/>
<path d="M615.14 599.227C616.55 601.592 617.227 604.322 617.086 607.073C616.945 609.823 615.992 612.47 614.348 614.679C612.703 616.888 610.441 618.56 607.847 619.485C605.253 620.409 602.443 620.544 599.772 619.872C597.102 619.2 594.69 617.753 592.842 615.711C590.993 613.67 589.792 611.126 589.388 608.402C588.984 605.678 589.397 602.895 590.574 600.405C591.75 597.916 593.639 595.83 596 594.413C597.572 593.471 599.315 592.849 601.128 592.581C602.942 592.313 604.79 592.405 606.567 592.852C608.345 593.299 610.017 594.092 611.488 595.186C612.959 596.28 614.2 597.653 615.14 599.227Z" fill="#292A29"/>
<path d="M421.813 578.487C422.577 579.764 422.945 581.24 422.87 582.727C422.795 584.214 422.281 585.645 421.393 586.84C420.504 588.034 419.282 588.939 417.879 589.438C416.477 589.938 414.958 590.011 413.514 589.647C412.07 589.283 410.767 588.5 409.769 587.395C408.771 586.291 408.122 584.915 407.906 583.442C407.69 581.969 407.915 580.465 408.554 579.12C409.192 577.775 410.215 576.65 411.493 575.887C413.207 574.863 415.256 574.562 417.192 575.05C419.127 575.537 420.789 576.774 421.813 578.487Z" fill="#311A49"/>
<path d="M319.439 238.973L382.839 240.253L359.393 315.56L319.439 238.973Z" fill="#6E2467"/>
<path d="M467.413 320.967L395.847 326.02L480.58 283.673L467.413 320.967Z" fill="#8663AA"/>
<path d="M567.227 426.48L465.834 534.706L499.874 528.786L556.567 505.773L637.147 429.926L652.06 423.5L812.767 358.7L884.387 353.16L896.107 344.42L886.514 324.6L840.474 310.533L823.854 277.92L768.86 248.506L684.454 230.6L587.9 223.566L495.827 237.633L438.914 257.46L374.334 235.08L300.794 240.193L328.934 276.64L337.887 327.153L282.254 391.74L246.447 463.993L233.014 569.5L231.1 641.113L164.6 699.306L113.44 828.473L172.274 780.513L298.88 724.88L366.66 707.62L329.574 641.753L286.087 628.966L336.607 540.726L362.82 514.506L442.68 488.773L519.96 476.94" stroke="white" stroke-width="1.4" stroke-miterlimit="10"/>
<path d="M663.373 418.934L691.273 451.634" stroke="white" stroke-width="1.4" stroke-miterlimit="10"/>
<path d="M679.98 438.733L676.146 480.14L738.647 449.767L733.213 391.42" stroke="white" stroke-width="1.4" stroke-miterlimit="10"/>
<path d="M885.667 351.453L864.347 332.7L801.687 318.207L679.02 304.447L574.9 288.787L438.487 296.46L327.654 367.227L283.747 420.087L255.614 476.78L238.987 587.193L232.32 639.893L264.88 691.1L286.087 628.967" stroke="white" stroke-width="1.4" stroke-miterlimit="10"/>
<path d="M769.82 249.146L714.72 270.46L673.974 303.687" stroke="white" stroke-width="1.4" stroke-miterlimit="10"/>
<path d="M660.547 322.72L431.847 337.86L347.014 397.533L306.94 439.74L273.693 482.793L232.16 640.373" stroke="white" stroke-width="1.4" stroke-miterlimit="10"/>
<path d="M673.927 303.953L662.174 320.34" stroke="white" stroke-width="1.4" stroke-miterlimit="10"/>
<path d="M337.887 327.153L438.913 257.46" stroke="white" stroke-width="0.7" stroke-miterlimit="10"/>
<path d="M567.227 426.48L590.14 426.587L643.853 407.407" stroke="white" stroke-width="0.7" stroke-miterlimit="10"/>
<path d="M814.26 358.167L714.927 374.853L643.854 407.407L635.86 431.38" stroke="white" stroke-width="0.7" stroke-miterlimit="10"/>
<path d="M864.347 332.7L798.594 330.354H719.627" stroke="white" stroke-width="0.7" stroke-miterlimit="10"/>
<path d="M555.213 506.32L519.96 476.94" stroke="white" stroke-width="0.7" stroke-miterlimit="10"/>
<path d="M465.833 534.707L637.146 429.927" stroke="white" stroke-width="0.7" stroke-miterlimit="10"/>
<path d="M824.813 278.88L789.32 290.493L800.513 318.527L840.473 310.533L789.32 290.493L714.72 270.46L616.673 257.247L538.666 247.013L473.44 256.82L421.433 277.28L335.753 330.14" stroke="white" stroke-width="0.7" stroke-miterlimit="10"/>
<path d="M812.767 358.7L798.594 330.353L799.874 317.247" stroke="white" stroke-width="0.7" stroke-miterlimit="10"/>
<path d="M589.82 223.566L536.96 247.013L515.22 291.773L509.32 332.686L518.527 390.8L567.227 426.48L555.214 506.32" stroke="white" stroke-width="0.7" stroke-miterlimit="10"/>
<path d="M497.314 237.633L470.887 257.673L438.487 296.46L432.094 337.813L518.527 390.8L442.68 488.773L373.267 486.587L314.014 432.873L326.374 367.653L337.46 328.86" stroke="white" stroke-width="0.7" stroke-miterlimit="10"/>
<path d="M364.313 514.293L326.373 505.347L273.939 482.753L281.613 423.5L282.893 390.247" stroke="white" stroke-width="0.7" stroke-miterlimit="10"/>
<path d="M336.606 540.726L293.973 544.986L263.386 522.233L255.613 476.78L246.446 463.993" stroke="white" stroke-width="0.7" stroke-miterlimit="10"/>
<path d="M677.633 479.767L691.273 451.633L738.646 449.767L713.439 398.773" stroke="white" stroke-width="0.7" stroke-miterlimit="10"/>
<path d="M162.68 702.5L172.273 780.514L232.593 641.333" stroke="white" stroke-width="0.7" stroke-miterlimit="10"/>
<path d="M366.66 707.62L264.986 691.633" stroke="white" stroke-width="0.7" stroke-miterlimit="10"/>
<path d="M329.573 641.753L264.986 691.633" stroke="white" stroke-width="0.7" stroke-miterlimit="10"/>
<path d="M162.68 702.5L264.986 691.633" stroke="white" stroke-width="0.7" stroke-miterlimit="10"/>
<path d="M255.34 743.806L163.42 701.76" stroke="white" stroke-width="0.7" stroke-miterlimit="10"/>
<path d="M567.227 426.48L373.267 486.587" stroke="white" stroke-width="0.7" stroke-miterlimit="10"/>
<path d="M364.313 514.294L373.267 486.587" stroke="white" stroke-width="0.7" stroke-miterlimit="10"/>
<path d="M232.16 640.373L294.4 545.36L285.874 630.673" stroke="white" stroke-width="0.7" stroke-miterlimit="10"/>
<path d="M336.607 540.727L326.374 505.347L314.014 432.874L518.527 390.8L660.8 322.68" stroke="white" stroke-width="0.7" stroke-miterlimit="10"/>
<path d="M789.32 290.493L738.547 311.573" stroke="white" stroke-width="0.7" stroke-miterlimit="10"/>
<path d="M643.854 407.406L651.047 379.953" stroke="white" stroke-width="0.7" stroke-miterlimit="10"/>
<path d="M438.486 296.46L536.96 247.013" stroke="white" stroke-width="0.7" stroke-miterlimit="10"/>
<path d="M438.913 257.46L420.38 277.933" stroke="white" stroke-width="0.7" stroke-miterlimit="10"/>
<path d="M470.946 257.626L326.439 367.613" stroke="white" stroke-width="0.7" stroke-miterlimit="10"/>
<path d="M738.546 311.573L719.687 330.313" stroke="white" stroke-width="0.7" stroke-miterlimit="10"/>
<path d="M651.113 379.914L661.607 323.027" stroke="white" stroke-width="0.7" stroke-miterlimit="10"/>
<path d="M691.193 451.26L733.133 391.047" stroke="white" stroke-width="0.7" stroke-miterlimit="10"/>
<path d="M374.547 235.507L337.887 327.154" stroke="white" stroke-width="0.7" stroke-miterlimit="10"/>
<path d="M360.061 270.947L438.001 258.467" stroke="white" stroke-width="0.7" stroke-miterlimit="10"/>
<path d="M360.06 270.947L300.8 241.047" stroke="white" stroke-width="0.7" stroke-miterlimit="10"/>
<path d="M886.513 324.76L864.347 332.86" stroke="white" stroke-width="0.7" stroke-miterlimit="10"/>
<path d="M590.18 426.547L636.8 430.44" stroke="white" stroke-width="0.7" stroke-miterlimit="10"/>
<path d="M738.547 311.573L661.153 322.16L577.1 289.047L536.96 247.013" stroke="white" stroke-width="0.7" stroke-miterlimit="10"/>
<path d="M662.174 322.74L719.627 330.354L714.927 374.854" stroke="white" stroke-width="0.7" stroke-miterlimit="10"/>
<path d="M326.373 367.653L347.26 397.493" stroke="white" stroke-width="0.7" stroke-miterlimit="10"/>
<path d="M264.713 691.693L255.033 744.54" stroke="white" stroke-width="0.7" stroke-miterlimit="10"/>
<path d="M294.4 545.36L326.374 505.347L373.267 486.587L518.527 390.8L716.107 374.793" stroke="white" stroke-width="0.7" stroke-miterlimit="10"/>
<path d="M811.207 358.687L864.347 332.7" stroke="white" stroke-width="0.7" stroke-miterlimit="10"/>
<path d="M789.32 290.494L768.16 249.587" stroke="white" stroke-width="0.7" stroke-miterlimit="10"/>
<path d="M538.667 247.013L768.16 249.587" stroke="white" stroke-width="0.7" stroke-miterlimit="10"/>
<path d="M657.76 322.84C657.793 323.577 658.043 324.289 658.479 324.884C658.916 325.479 659.519 325.932 660.212 326.184C660.906 326.437 661.658 326.479 662.375 326.304C663.092 326.128 663.742 325.745 664.241 325.201C664.74 324.657 665.066 323.978 665.179 323.248C665.292 322.519 665.187 321.773 664.876 321.103C664.565 320.434 664.062 319.872 663.432 319.488C662.801 319.104 662.071 318.916 661.334 318.947C660.843 318.967 660.362 319.084 659.917 319.291C659.472 319.498 659.072 319.791 658.74 320.152C658.408 320.514 658.15 320.937 657.982 321.399C657.814 321.86 657.739 322.35 657.76 322.84Z" fill="white"/>
<path d="M835.58 309.2C835.614 309.936 835.864 310.645 836.3 311.238C836.736 311.831 837.338 312.282 838.03 312.533C838.722 312.784 839.473 312.825 840.188 312.65C840.903 312.475 841.551 312.093 842.048 311.55C842.546 311.008 842.872 310.33 842.985 309.603C843.098 308.875 842.993 308.131 842.684 307.463C842.374 306.795 841.873 306.234 841.245 305.85C840.617 305.466 839.889 305.277 839.153 305.307C838.663 305.326 838.181 305.443 837.735 305.649C837.29 305.856 836.889 306.149 836.557 306.51C836.225 306.872 835.968 307.296 835.8 307.758C835.633 308.219 835.558 308.709 835.58 309.2Z" fill="white"/>
<path d="M764.6 249.093C764.633 249.831 764.883 250.542 765.319 251.137C765.755 251.733 766.358 252.185 767.052 252.438C767.745 252.691 768.498 252.732 769.215 252.557C769.932 252.382 770.581 251.998 771.081 251.455C771.58 250.911 771.906 250.231 772.019 249.502C772.132 248.772 772.027 248.026 771.716 247.357C771.405 246.687 770.902 246.125 770.271 245.741C769.641 245.357 768.911 245.169 768.174 245.2C767.683 245.221 767.202 245.338 766.757 245.545C766.311 245.751 765.911 246.044 765.58 246.406C765.248 246.767 764.99 247.191 764.822 247.652C764.654 248.113 764.579 248.603 764.6 249.093Z" fill="white"/>
<path d="M492.84 237.9C492.871 238.637 493.12 239.349 493.555 239.946C493.991 240.542 494.594 240.995 495.287 241.249C495.98 241.503 496.734 241.545 497.451 241.371C498.169 241.197 498.818 240.813 499.318 240.27C499.818 239.726 500.145 239.047 500.259 238.317C500.372 237.588 500.267 236.841 499.956 236.171C499.645 235.501 499.142 234.939 498.512 234.555C497.881 234.171 497.151 233.982 496.413 234.013C495.425 234.058 494.495 234.492 493.825 235.22C493.156 235.948 492.802 236.911 492.84 237.9Z" fill="white"/>
<path d="M582.787 224.26C582.818 224.998 583.067 225.71 583.503 226.306C583.938 226.902 584.541 227.356 585.234 227.61C585.928 227.863 586.681 227.906 587.398 227.731C588.116 227.557 588.766 227.174 589.265 226.63C589.765 226.087 590.092 225.407 590.206 224.677C590.319 223.948 590.214 223.201 589.903 222.531C589.592 221.862 589.09 221.299 588.459 220.915C587.828 220.531 587.098 220.342 586.36 220.373C585.372 220.418 584.442 220.852 583.773 221.58C583.103 222.309 582.749 223.272 582.787 224.26Z" fill="white"/>
<path d="M370.92 235.333C370.952 236.07 371.202 236.782 371.638 237.377C372.074 237.972 372.677 238.425 373.37 238.677C374.063 238.93 374.816 238.972 375.533 238.798C376.25 238.623 376.899 238.24 377.398 237.697C377.898 237.154 378.225 236.475 378.339 235.746C378.453 235.017 378.348 234.271 378.038 233.601C377.728 232.932 377.226 232.369 376.597 231.985C375.967 231.6 375.238 231.41 374.5 231.44C373.509 231.482 372.575 231.915 371.904 232.645C371.233 233.375 370.879 234.342 370.92 235.333Z" fill="white"/>
<path d="M252.234 743.833C252.267 744.569 252.518 745.278 252.954 745.871C253.39 746.464 253.992 746.915 254.684 747.166C255.376 747.418 256.127 747.459 256.842 747.284C257.557 747.109 258.204 746.726 258.702 746.184C259.2 745.641 259.526 744.963 259.639 744.236C259.752 743.509 259.647 742.764 259.337 742.096C259.028 741.428 258.527 740.867 257.899 740.483C257.271 740.099 256.543 739.91 255.807 739.94C254.817 739.983 253.885 740.418 253.215 741.148C252.545 741.877 252.192 742.843 252.234 743.833Z" fill="#BBBBBC"/>
<path d="M435.933 296.734C435.965 297.471 436.215 298.182 436.652 298.777C437.088 299.373 437.691 299.825 438.385 300.078C439.078 300.331 439.831 300.372 440.548 300.197C441.265 300.022 441.914 299.638 442.413 299.095C442.912 298.551 443.239 297.871 443.352 297.142C443.465 296.413 443.359 295.666 443.048 294.997C442.737 294.327 442.235 293.765 441.604 293.381C440.974 292.998 440.244 292.809 439.506 292.84C438.516 292.883 437.584 293.318 436.914 294.048C436.244 294.778 435.891 295.744 435.933 296.734Z" fill="#BBBBBC"/>
<path d="M434 257.727C434.033 258.464 434.283 259.175 434.719 259.771C435.156 260.366 435.759 260.818 436.452 261.071C437.146 261.324 437.898 261.365 438.615 261.19C439.332 261.015 439.982 260.632 440.481 260.088C440.98 259.544 441.306 258.865 441.419 258.135C441.532 257.406 441.427 256.659 441.116 255.99C440.805 255.321 440.302 254.758 439.672 254.375C439.041 253.991 438.311 253.802 437.574 253.833C436.584 253.877 435.652 254.311 434.982 255.041C434.312 255.771 433.959 256.737 434 257.727Z" fill="white"/>
<path d="M298.773 240.46C298.804 241.198 299.053 241.91 299.488 242.506C299.924 243.102 300.527 243.556 301.22 243.809C301.914 244.063 302.667 244.105 303.384 243.931C304.102 243.757 304.751 243.373 305.251 242.83C305.751 242.286 306.078 241.607 306.192 240.877C306.305 240.148 306.2 239.401 305.889 238.731C305.578 238.061 305.076 237.499 304.445 237.115C303.814 236.731 303.084 236.542 302.346 236.573C301.357 236.615 300.425 237.048 299.755 237.776C299.084 238.505 298.731 239.471 298.773 240.46Z" fill="white"/>
<path d="M333.941 327.107C333.973 327.844 334.223 328.555 334.659 329.151C335.096 329.746 335.699 330.198 336.392 330.451C337.086 330.704 337.839 330.745 338.556 330.57C339.273 330.395 339.922 330.011 340.421 329.468C340.92 328.924 341.247 328.244 341.36 327.515C341.473 326.786 341.367 326.039 341.056 325.37C340.745 324.7 340.242 324.138 339.612 323.755C338.981 323.371 338.251 323.182 337.514 323.213C336.525 323.258 335.593 323.693 334.924 324.423C334.254 325.152 333.901 326.117 333.941 327.107Z" fill="white"/>
<path d="M278.313 392.327C278.345 393.064 278.596 393.775 279.032 394.371C279.468 394.966 280.071 395.419 280.765 395.671C281.458 395.924 282.211 395.965 282.928 395.79C283.645 395.615 284.294 395.232 284.793 394.688C285.292 394.144 285.619 393.465 285.732 392.735C285.845 392.006 285.74 391.259 285.428 390.59C285.117 389.921 284.615 389.359 283.984 388.975C283.354 388.591 282.624 388.403 281.886 388.433C281.396 388.454 280.915 388.571 280.469 388.778C280.024 388.985 279.624 389.277 279.292 389.639C278.961 390.001 278.703 390.424 278.535 390.885C278.367 391.347 278.292 391.836 278.313 392.327Z" fill="white"/>
<path d="M159.7 701.813C159.733 702.549 159.984 703.258 160.42 703.851C160.856 704.444 161.458 704.895 162.15 705.146C162.842 705.398 163.593 705.439 164.308 705.264C165.023 705.089 165.67 704.706 166.168 704.164C166.666 703.621 166.992 702.944 167.105 702.216C167.218 701.489 167.113 700.744 166.804 700.076C166.494 699.408 165.993 698.847 165.365 698.463C164.737 698.079 164.009 697.89 163.273 697.92C162.783 697.941 162.301 698.058 161.856 698.264C161.411 698.471 161.011 698.764 160.679 699.126C160.347 699.487 160.09 699.911 159.922 700.372C159.754 700.833 159.678 701.323 159.7 701.813Z" fill="white"/>
<path d="M228.434 640.427C228.466 641.164 228.716 641.876 229.153 642.471C229.59 643.067 230.193 643.519 230.887 643.772C231.581 644.024 232.334 644.065 233.051 643.889C233.769 643.714 234.418 643.329 234.916 642.785C235.415 642.241 235.741 641.56 235.853 640.831C235.966 640.101 235.859 639.354 235.547 638.685C235.235 638.016 234.731 637.454 234.1 637.071C233.469 636.688 232.738 636.501 232 636.533C231.011 636.577 230.078 637.011 229.408 637.741C228.738 638.471 228.386 639.437 228.427 640.427" fill="white"/>
<path d="M110.14 828.1C110.172 828.838 110.422 829.549 110.859 830.144C111.295 830.739 111.898 831.192 112.592 831.445C113.285 831.697 114.038 831.739 114.755 831.564C115.472 831.389 116.121 831.005 116.62 830.461C117.119 829.918 117.446 829.238 117.559 828.509C117.672 827.779 117.566 827.033 117.255 826.363C116.944 825.694 116.442 825.132 115.811 824.748C115.181 824.364 114.451 824.176 113.713 824.207C112.724 824.25 111.791 824.684 111.121 825.414C110.451 826.144 110.098 827.11 110.14 828.1Z" fill="white"/>
<path d="M361.76 707.247C361.796 707.983 362.049 708.692 362.488 709.285C362.926 709.877 363.531 710.326 364.224 710.576C364.918 710.826 365.67 710.864 366.386 710.687C367.101 710.51 367.748 710.125 368.245 709.581C368.743 709.036 369.067 708.357 369.179 707.628C369.29 706.9 369.184 706.154 368.872 705.486C368.561 704.818 368.058 704.257 367.429 703.874C366.799 703.491 366.07 703.303 365.333 703.333C364.842 703.353 364.36 703.47 363.915 703.676C363.469 703.883 363.069 704.175 362.737 704.537C362.405 704.899 362.148 705.323 361.98 705.784C361.812 706.246 361.737 706.736 361.76 707.227" fill="#BBBBBC"/>
<path d="M360.48 514.14C360.512 514.877 360.762 515.588 361.199 516.184C361.635 516.779 362.238 517.232 362.932 517.484C363.625 517.737 364.378 517.778 365.095 517.603C365.812 517.428 366.461 517.045 366.96 516.501C367.459 515.957 367.786 515.278 367.899 514.548C368.012 513.819 367.906 513.072 367.595 512.403C367.284 511.734 366.782 511.172 366.151 510.788C365.521 510.404 364.791 510.216 364.053 510.246C363.063 510.29 362.131 510.724 361.461 511.454C360.791 512.184 360.438 513.15 360.48 514.14Z" fill="#BBBBBC"/>
<path d="M463.107 534.6C463.139 535.337 463.39 536.048 463.826 536.644C464.262 537.239 464.865 537.692 465.559 537.944C466.252 538.197 467.005 538.238 467.722 538.063C468.439 537.888 469.088 537.505 469.587 536.961C470.086 536.417 470.413 535.738 470.526 535.008C470.639 534.279 470.533 533.532 470.222 532.863C469.911 532.194 469.409 531.632 468.778 531.248C468.148 530.864 467.418 530.675 466.68 530.706C466.19 530.727 465.708 530.844 465.263 531.051C464.818 531.258 464.418 531.55 464.086 531.912C463.754 532.274 463.497 532.697 463.329 533.158C463.161 533.62 463.086 534.109 463.107 534.6Z" fill="white"/>
<path d="M553.106 505.827C553.139 506.565 553.389 507.277 553.826 507.872C554.264 508.467 554.867 508.92 555.562 509.172C556.256 509.424 557.009 509.465 557.727 509.289C558.444 509.112 559.093 508.727 559.591 508.182C560.09 507.637 560.415 506.956 560.527 506.226C560.638 505.496 560.531 504.749 560.217 504.08C559.904 503.411 559.4 502.85 558.768 502.468C558.136 502.086 557.404 501.9 556.666 501.934C555.677 501.977 554.744 502.411 554.074 503.141C553.405 503.871 553.052 504.837 553.093 505.827" fill="#BBBBBC"/>
<path d="M562.22 427.28C562.251 428.018 562.5 428.73 562.935 429.326C563.371 429.922 563.973 430.376 564.667 430.63C565.36 430.883 566.113 430.926 566.831 430.751C567.548 430.577 568.198 430.194 568.698 429.65C569.198 429.107 569.525 428.427 569.639 427.697C569.752 426.968 569.647 426.221 569.336 425.551C569.025 424.882 568.522 424.319 567.892 423.935C567.261 423.551 566.531 423.362 565.793 423.393C564.805 423.438 563.875 423.872 563.205 424.6C562.536 425.329 562.182 426.292 562.22 427.28Z" fill="#BBBBBC"/>
<path d="M633.334 430.8C633.367 431.536 633.618 432.245 634.054 432.838C634.49 433.431 635.092 433.882 635.784 434.133C636.476 434.385 637.227 434.425 637.942 434.25C638.657 434.076 639.304 433.693 639.802 433.15C640.3 432.608 640.626 431.93 640.739 431.203C640.852 430.475 640.747 429.731 640.437 429.063C640.128 428.395 639.627 427.834 638.999 427.45C638.37 427.066 637.643 426.877 636.907 426.907C636.417 426.927 635.935 427.044 635.49 427.251C635.045 427.458 634.645 427.751 634.313 428.112C633.981 428.474 633.724 428.898 633.556 429.359C633.388 429.82 633.312 430.31 633.334 430.8Z" fill="#BBBBBC"/>
<path d="M807.593 359.04C807.627 359.775 807.877 360.484 808.314 361.078C808.75 361.671 809.352 362.121 810.044 362.373C810.735 362.624 811.486 362.665 812.202 362.49C812.917 362.315 813.564 361.933 814.062 361.39C814.56 360.848 814.886 360.17 814.999 359.443C815.112 358.715 815.007 357.97 814.697 357.303C814.387 356.635 813.887 356.073 813.259 355.69C812.63 355.306 811.902 355.117 811.167 355.147C810.676 355.167 810.195 355.284 809.75 355.491C809.305 355.698 808.905 355.991 808.573 356.352C808.241 356.714 807.983 357.137 807.815 357.599C807.647 358.06 807.572 358.55 807.593 359.04Z" fill="#BBBBBC"/>
<path d="M892.314 344.973C892.346 345.711 892.596 346.422 893.033 347.017C893.469 347.612 894.072 348.065 894.766 348.318C895.459 348.57 896.212 348.612 896.929 348.437C897.646 348.262 898.295 347.878 898.794 347.334C899.293 346.791 899.62 346.111 899.733 345.382C899.846 344.652 899.74 343.906 899.429 343.236C899.118 342.567 898.616 342.005 897.985 341.621C897.355 341.237 896.625 341.049 895.887 341.08C894.897 341.123 893.965 341.558 893.295 342.287C892.625 343.017 892.272 343.983 892.314 344.973Z" fill="white"/>
<path d="M880.166 352.667C880.199 353.404 880.449 354.115 880.885 354.711C881.322 355.306 881.925 355.758 882.618 356.011C883.312 356.264 884.064 356.305 884.781 356.13C885.498 355.955 886.148 355.572 886.647 355.028C887.146 354.484 887.472 353.805 887.585 353.075C887.698 352.346 887.593 351.599 887.282 350.93C886.971 350.261 886.468 349.698 885.838 349.315C885.207 348.931 884.477 348.742 883.74 348.773C882.75 348.817 881.818 349.251 881.148 349.981C880.478 350.711 880.125 351.677 880.166 352.667Z" fill="#BBBBBC"/>
<path d="M861.62 333.14C861.651 333.878 861.9 334.59 862.336 335.186C862.771 335.782 863.374 336.236 864.067 336.489C864.761 336.743 865.514 336.785 866.231 336.611C866.949 336.437 867.599 336.054 868.098 335.51C868.598 334.967 868.925 334.287 869.039 333.557C869.153 332.828 869.047 332.081 868.736 331.411C868.425 330.741 867.923 330.179 867.292 329.795C866.661 329.411 865.931 329.222 865.193 329.253C864.205 329.298 863.275 329.732 862.606 330.46C861.936 331.188 861.582 332.152 861.62 333.14Z" fill="#BBBBBC"/>
<path d="M796.187 318.967C796.219 319.704 796.47 320.416 796.906 321.011C797.342 321.606 797.945 322.059 798.639 322.311C799.332 322.564 800.085 322.605 800.802 322.43C801.519 322.255 802.168 321.872 802.667 321.328C803.167 320.784 803.493 320.105 803.606 319.375C803.719 318.646 803.614 317.899 803.303 317.23C802.991 316.561 802.489 315.999 801.858 315.615C801.228 315.231 800.498 315.043 799.761 315.074C799.27 315.094 798.789 315.211 798.343 315.418C797.898 315.625 797.498 315.918 797.166 316.279C796.835 316.641 796.577 317.064 796.409 317.526C796.241 317.987 796.166 318.477 796.187 318.967Z" fill="#BBBBBC"/>
<path d="M711.46 271.333C711.491 272.071 711.74 272.783 712.175 273.379C712.611 273.975 713.214 274.429 713.907 274.683C714.601 274.936 715.354 274.979 716.071 274.804C716.789 274.63 717.439 274.247 717.938 273.703C718.438 273.16 718.765 272.48 718.879 271.751C718.992 271.021 718.887 270.274 718.576 269.604C718.265 268.935 717.763 268.372 717.132 267.988C716.501 267.604 715.771 267.416 715.033 267.447C714.045 267.492 713.115 267.926 712.446 268.654C711.776 269.382 711.422 270.345 711.46 271.333Z" fill="white"/>
<path d="M672.667 479.333C672.7 480.069 672.951 480.778 673.387 481.371C673.823 481.964 674.425 482.415 675.117 482.666C675.809 482.918 676.56 482.959 677.275 482.784C677.99 482.609 678.637 482.226 679.135 481.684C679.633 481.141 679.959 480.464 680.072 479.736C680.185 479.009 680.08 478.264 679.77 477.596C679.461 476.928 678.96 476.367 678.332 475.983C677.703 475.6 676.976 475.41 676.24 475.44C675.75 475.461 675.268 475.578 674.823 475.785C674.378 475.991 673.978 476.284 673.646 476.646C673.314 477.007 673.057 477.431 672.889 477.892C672.721 478.353 672.645 478.843 672.667 479.333Z" fill="#89898A"/>
<path d="M790.667 291.68C790.486 291.993 790.217 292.245 789.893 292.405C789.569 292.565 789.204 292.625 788.846 292.578C788.488 292.531 788.151 292.378 787.88 292.14C787.608 291.902 787.413 291.588 787.32 291.239C787.226 290.89 787.239 290.521 787.355 290.179C787.472 289.836 787.687 289.537 787.974 289.317C788.261 289.097 788.607 288.967 788.967 288.944C789.328 288.921 789.687 289.005 790 289.186C790.417 289.43 790.722 289.829 790.846 290.296C790.971 290.763 790.907 291.26 790.667 291.68Z" fill="white"/>
<path d="M717.153 375.767C716.972 376.08 716.703 376.332 716.379 376.492C716.055 376.652 715.691 376.712 715.332 376.665C714.974 376.618 714.638 376.465 714.366 376.227C714.094 375.989 713.899 375.675 713.806 375.326C713.713 374.977 713.725 374.608 713.842 374.266C713.958 373.923 714.173 373.623 714.46 373.404C714.747 373.184 715.093 373.054 715.453 373.031C715.814 373.008 716.174 373.092 716.486 373.273C716.694 373.393 716.877 373.552 717.023 373.742C717.169 373.933 717.276 374.15 717.338 374.381C717.4 374.613 717.416 374.855 717.384 375.093C717.352 375.33 717.274 375.559 717.153 375.767Z" fill="white"/>
<path d="M520.207 391.753C520.025 392.065 519.756 392.317 519.431 392.476C519.107 392.635 518.743 392.694 518.385 392.646C518.028 392.598 517.692 392.445 517.421 392.207C517.15 391.968 516.955 391.655 516.862 391.306C516.769 390.957 516.782 390.589 516.898 390.247C517.015 389.905 517.23 389.605 517.516 389.386C517.803 389.166 518.148 389.036 518.508 389.013C518.868 388.989 519.227 389.073 519.54 389.253C519.748 389.373 519.931 389.533 520.077 389.724C520.223 389.915 520.33 390.133 520.392 390.365C520.454 390.597 520.47 390.839 520.438 391.077C520.406 391.316 520.328 391.545 520.207 391.753Z" fill="white"/>
<path d="M538.747 248.2C538.566 248.513 538.297 248.765 537.973 248.925C537.649 249.085 537.284 249.145 536.926 249.098C536.568 249.051 536.231 248.899 535.96 248.66C535.688 248.422 535.493 248.108 535.4 247.759C535.307 247.41 535.319 247.041 535.435 246.699C535.552 246.356 535.767 246.057 536.054 245.837C536.341 245.617 536.687 245.487 537.047 245.464C537.408 245.441 537.767 245.525 538.08 245.707C538.288 245.826 538.47 245.985 538.617 246.176C538.763 246.366 538.87 246.583 538.932 246.815C538.994 247.046 539.009 247.288 538.978 247.526C538.946 247.763 538.867 247.993 538.747 248.2Z" fill="white"/>
<path d="M473.334 259.073C473.152 259.386 472.883 259.637 472.558 259.796C472.234 259.955 471.87 260.014 471.512 259.966C471.155 259.918 470.819 259.766 470.548 259.527C470.277 259.289 470.082 258.975 469.989 258.626C469.896 258.278 469.909 257.909 470.025 257.567C470.141 257.225 470.357 256.926 470.643 256.706C470.93 256.486 471.275 256.357 471.635 256.333C471.995 256.309 472.354 256.393 472.667 256.573C473.086 256.817 473.392 257.217 473.517 257.686C473.642 258.154 473.576 258.653 473.334 259.073Z" fill="white"/>
<path d="M328.214 369.053C328.032 369.366 327.762 369.617 327.438 369.776C327.114 369.935 326.75 369.994 326.392 369.946C326.034 369.898 325.699 369.746 325.428 369.507C325.157 369.269 324.962 368.955 324.869 368.606C324.776 368.258 324.789 367.889 324.905 367.547C325.021 367.205 325.236 366.906 325.523 366.686C325.809 366.466 326.155 366.337 326.515 366.313C326.875 366.289 327.234 366.373 327.547 366.553C327.755 366.674 327.938 366.834 328.084 367.024C328.23 367.215 328.337 367.433 328.399 367.665C328.461 367.897 328.477 368.14 328.445 368.378C328.413 368.616 328.334 368.846 328.214 369.053Z" fill="white"/>
<path d="M374.733 487.506C374.553 487.82 374.283 488.072 373.959 488.232C373.635 488.392 373.271 488.452 372.912 488.405C372.554 488.358 372.218 488.205 371.946 487.967C371.674 487.728 371.48 487.415 371.386 487.066C371.293 486.716 371.305 486.347 371.422 486.005C371.538 485.663 371.753 485.363 372.04 485.143C372.327 484.924 372.673 484.794 373.034 484.771C373.394 484.748 373.754 484.832 374.066 485.013C374.274 485.133 374.457 485.292 374.603 485.482C374.749 485.672 374.856 485.889 374.918 486.121C374.98 486.353 374.996 486.595 374.964 486.832C374.932 487.07 374.854 487.299 374.733 487.506Z" fill="white"/>
<path d="M247.913 465.333C247.732 465.646 247.463 465.899 247.139 466.059C246.815 466.218 246.45 466.279 246.092 466.231C245.734 466.184 245.397 466.032 245.126 465.793C244.854 465.555 244.659 465.241 244.566 464.892C244.473 464.543 244.485 464.174 244.601 463.832C244.718 463.49 244.933 463.19 245.22 462.97C245.507 462.75 245.853 462.621 246.213 462.598C246.574 462.574 246.933 462.659 247.246 462.84C247.454 462.959 247.636 463.119 247.783 463.309C247.929 463.499 248.036 463.716 248.098 463.948C248.16 464.18 248.175 464.421 248.144 464.659C248.112 464.897 248.033 465.126 247.913 465.333Z" fill="white"/>
<path d="M315.693 433.58C315.512 433.891 315.243 434.141 314.921 434.299C314.598 434.457 314.235 434.516 313.879 434.469C313.522 434.421 313.188 434.269 312.918 434.032C312.648 433.794 312.454 433.482 312.362 433.135C312.269 432.788 312.281 432.42 312.396 432.08C312.512 431.739 312.726 431.441 313.011 431.222C313.296 431.003 313.639 430.873 313.998 430.849C314.357 430.825 314.715 430.907 315.026 431.087C315.444 431.33 315.748 431.729 315.873 432.196C315.998 432.663 315.933 433.16 315.693 433.58Z" fill="white"/>
<path d="M295.874 546.12C295.693 546.431 295.424 546.681 295.101 546.839C294.778 546.997 294.416 547.056 294.059 547.009C293.703 546.961 293.369 546.809 293.099 546.572C292.829 546.334 292.635 546.022 292.542 545.675C292.449 545.328 292.461 544.961 292.577 544.62C292.692 544.28 292.906 543.981 293.191 543.762C293.476 543.543 293.82 543.413 294.179 543.389C294.537 543.365 294.895 543.448 295.207 543.627C295.624 543.87 295.929 544.269 296.053 544.736C296.178 545.203 296.114 545.7 295.874 546.12Z" fill="white"/>
<path d="M331.254 642.667C331.073 642.978 330.804 643.228 330.481 643.386C330.158 643.544 329.796 643.603 329.439 643.556C329.083 643.508 328.749 643.356 328.479 643.118C328.209 642.881 328.015 642.569 327.922 642.222C327.829 641.874 327.841 641.507 327.957 641.167C328.072 640.826 328.286 640.528 328.571 640.309C328.856 640.09 329.2 639.96 329.559 639.936C329.917 639.912 330.275 639.994 330.587 640.173C331.004 640.417 331.308 640.816 331.433 641.283C331.558 641.75 331.494 642.247 331.254 642.667Z" fill="white"/>
<path d="M266.46 692.127C266.278 692.439 266.009 692.69 265.684 692.849C265.36 693.008 264.996 693.067 264.638 693.02C264.281 692.972 263.945 692.819 263.674 692.58C263.403 692.342 263.208 692.028 263.115 691.68C263.022 691.331 263.035 690.962 263.151 690.62C263.267 690.279 263.482 689.979 263.769 689.759C264.055 689.54 264.401 689.41 264.761 689.386C265.121 689.363 265.48 689.446 265.793 689.627C266.001 689.747 266.184 689.907 266.33 690.098C266.476 690.288 266.583 690.506 266.645 690.738C266.707 690.971 266.723 691.213 266.691 691.451C266.659 691.689 266.581 691.919 266.46 692.127Z" fill="white"/>
<path d="M661.153 322.153L738.547 311.573" stroke="white" stroke-width="1.4" stroke-miterlimit="10"/>
</g>
<defs>
<clipPath id="clip0">
<rect width="1000" height="1000" fill="white"/>
</clipPath>
</defs>
</svg>
