<svg height="1000" viewBox="0 0 1000 1000" width="1000" xmlns="http://www.w3.org/2000/svg"><g fill="none" fill-rule="evenodd" transform="translate(56 14)"><path d="m364.943 603.134 26.883-50.782 31.862-15.433z" fill="#561c55"/><path d="m500.857 388.558 13.938 46.799-60.24 55.759z" fill="#6d2367"/><path d="m520.77 426.395 53.27-162.299-3.486 84.634z" fill="#6d2367"/><path d="m565.577 340.267 72.19-131.929-51.281 15.431z" fill="#6d2367"/><g fill="#883685"><path d="m620.34 187.427 6.471 26.883-14.437 12.446 7.219 25.888 44.06-53.268-22.903-11.949z"/><path d="m562.593 242.189 49.783 2.489-83.64 73.682z"/><path d="m543.174 293.967-32.694 126.903 55.095-100.019z"/><path d="m510.482 352.216 44.641-28.378-34.35 71.194z"/></g><path d="m462.024 467.219 2.988 23.899-26.387 8.959z" fill="#933583"/><path d="m397.801 545.381 50.285-30.866v-23.399z" fill="#933583"/><path d="m631.306 251.054 38.833-41.323 33.854 20.663z" fill="#b12788"/><path d="m622.841 267.983 67.707-37.589-31.363 98.326z" fill="#b93692"/><path d="m591.974 333.699 67.211-20.909-67.211 104.549z" fill="#a3327c"/><path d="m579.528 425.303 24.892-49.787-31.366 18.92z" fill="#be3c8e"/><path d="m559.615 431.776 37.837-77.665-29.374 30.37z" fill="#be3c8e"/><path d="m521.279 461.148 78.525-55.989-90.474 107.767z" fill="#a3327c"/><path d="m502.362 483.45 23.399-5.374-23.399 20.909z" fill="#c33c8d"/><path d="m470 529.355 49.787-35.349-42.319 83.64z" fill="#892269"/><path d="m441.625 577.646 38.832-26.883-43.811 109.525z" fill="#60164c"/><path d="m416.73 647.097 32.111-56.009-18.669 12.446z" fill="#821b54"/><path d="m419.221 695.885 12.553-96.084 14.082-10.206z" fill="#5d0c3c"/><path d="m407.52 673.481 29.126-52.274-19.916 77.665z" fill="#4a0f35"/><path d="m415.486 668.502-13.69 55.511 14.934 17.924z" fill="#4a0f35"/><path d="m604.42 302.333 47.795-26.886-42.319 62.732z" fill="#d4388b"/><path d="m631.306 333.699 28.378-54.142 4.979 12.818z" fill="#d4388b"/><path d="m820.846 92.026 56.091 72.811-98.242 49.786z" fill="#814598"/><path d="m875.276 168.507-81.314 50.948-14.271-6.97z" fill="#9a57a3"/><path d="m593.246 154.569-14.438 37.089-46.051-74.427z" fill="#512e69"/><path d="m602.952 79.143 46.052 61.234-58.746 12.945z" fill="#643e84"/><path d="m689.081 106.277 27.382-22.403 14.937 62.232-44.807 39.329z" fill="#7c4f9d"/><path d="m633.819 137.64 197.648-44.804-166.781-66.216z" fill="#7c4f9d"/><path d="m548.937 73.171 202.376-44.559-96.086-13.941z" fill="#8863aa"/><path d="m705.261 56.243 53.022-23.149 45.553 57.251z" fill="#8863aa"/><path d="m766.247 90.345 51.778 52.274-78.661 25.888z" fill="#7c4f9d"/><path d="m664.686 185.435-4.48-77.665 52.773-31.86z" fill="#643e84"/><path d="m743.347 83.874 14.936 40.325-56.257 84.636z" fill="#643e84"/><path d="m602.952 94.331 32.114-27.135 6.719 50.035-38.833-21.905" fill="#844698"/><path d="m551.175 79.143 92.103-5.972 6.846-16.931z" fill="#7f509c"/><path d="m530.018 97.067 74.181-23.896-74.181 49.535z" fill="#7f509c"/><path d="m606.936 114.244-44.557-20.661 18.917 49.786z" fill="#844698"/><path d="m712.979 203.523 64.388-65.883 39.165 19.75-41.489 30.206z" fill="#7c4f9d"/><path d="m799.855 217.258 73.183-45.014-2.985 74.676z" fill="#814598"/><path d="m763.429 266.336 32.192 43.397-44.805-9.958z" fill="#3a214e"/><path d="m764.755 275.214 94.839-19.25-35.761 50.119z" fill="#3a214e"/><path d="m752.309 266.336 58.497-50.283 48.791 35.098z" fill="#7c4f9d"/><path d="m718.288 210.826 83.641-40.243-39.496 93.347z" fill="#572d6a"/><path d="m793.632 276.542 37.837-10.206-46.133-17.34z" fill="#5c3c73"/><path d="m473.467074 140.503654c0 5.018603-4.067527 9.086129-9.08613 9.086129s-9.08613-4.067526-9.08613-9.086129 4.067527-9.08613 9.08613-9.08613 9.08613 4.067527 9.08613 9.08613" fill="#301a49"/><path d="m187.824383 407.895119c0 5.016119-4.07001 9.086129-9.08613 9.086129-5.018603 0-9.08613-4.07001-9.08613-9.086129 0-5.018603 4.067527-9.08613 9.08613-9.08613 5.01612 0 9.08613 4.067527 9.08613 9.08613" fill="#282928"/><path d="m273.390943 542.920619c0 5.018603-4.067527 9.08613-9.08613 9.08613s-9.08613-4.067527-9.08613-9.08613c0-5.016119 4.067527-9.086129 9.08613-9.086129s9.08613 4.07001 9.08613 9.086129m345.570919-34.849616c0 5.018603-4.067526 9.08613-9.086129 9.08613s-9.08613-4.067527-9.08613-9.08613 4.067527-9.08613 9.08613-9.08613 9.086129 4.067527 9.086129 9.08613" fill="#301a49"/><path d="m871.151008 617.089661c0 9.292238-7.534113 16.826351-16.828834 16.826351-9.29472 0-16.828833-7.534113-16.828833-16.826351 0-9.29472 7.534113-16.828833 16.828833-16.828833 9.294721 0 16.828834 7.534113 16.828834 16.828833" fill="#282928"/><path d="m364.076 511.299 6.896 1.214 12.391-7.933-3.685-8.18-15.068 12.096z" fill="#643673"/><path d="m409.544 499.079 34.524 4.428-.819-5.183-19.712-5.5z" fill="#743c94"/><path d="m379.609 504.495 11.551-7.365 6.087.844.752 13.281z" fill="#503576"/><path d="m376.83 502.789 10.916 10.226-14-6.248z" fill="#996ead"/><path d="m393.413 506.452 19.039 4.077-17.189 2.186z" fill="#9b6ead"/><path d="m404.322 491.446-14.895 9.635 30.541 6.747z" fill="#996ead"/><path d="m355.981 495.62-9.447 7.646 7.788 3.35 18.905-.39z" fill="#743c94"/><path d="m346.842 494.942-12.637 6.712 15.769 5.215z" fill="#503576"/><path d="m419.357544 738.109759.171343-44.531721m.002483 0 16.421585-38.872445m0 0 74.300653-141.290684m0 0 37.270763-41.238961m.002483 0 46.555551-35.055724m-.002483 0 43.230509-56.639938m0 0 47.007499-72.865348m-136.791076 164.56101 19.515686-23.573279m0 0 51.603952-67.41218m0 0 50.921066-78.986504m0 0 39.403855-80.858857m-24.651 86.26981 13.920974-28.142418m0 0 6.158404 1.720877m.002483 0 6.89344 7.280823m-.002483-.002483 17.705413 6.50109m.002483 0 15.396011 10.186199m0 0 47.28562 7.60116m0 0 33.528539-4.991288m-109.547585-103.448778-5.517732 17.151653m0 0 14.181713-3.37719m0 0-4.425112 13.809229m.002483 0 16.384336 1.544568m-.002483 0-8.246799 10.571099m0 0 13.230637-1.825172m0 0-4.849744 10.767275m.136578-1.922018 13.789363 1.221748m0-.002483-7.21626 11.912042m0 .002484 4.536857 14.720573m0 0-14.228894 1.328527m0-.002484-2.483228 9.699487m-.881546-1.827655-7.665723-1.956783m0 0-9.302171 3.113967m111.323094 18.058031 42.311715-55.058122m0 0 12.259694-88.464984m0 0-50.354889-85.346049m0 0-83.088795-58.9418904m-.002484 0-96.657151-13.6751344m0 0-83.503494 39.4808356m0 0-38.912177 53.4316084m0 0 3.220746 32.0634348m0 0 58.234171 78.159589m0 0 15.919972-.956043m111.807323-3.680143-18.199575 6.953037m.002483 0 3.724841-14.457351m0 0-13.203321 5.659276m0 0-1.41544-16.165812m0 0-13.992987 6.220485m0-.002483-1.335977-15.18742m.002484 0-14.618761 4.380413m-.002484 0-2.987322-17.315546m.002483 0-10.710161 11.648821m.990808-2.756383-2.647121-11.330967m0 0-8.082905 8.701229m.757384-2.746449-4.248802-13.801779m0 0-10.407207 12.550232m0 0-12.299427-.00745m0 0-4.288534-11.907076m0 0-8.450423 11.070229m.002483 0-15.624468.057114m-.002483 0-.260739 12.098285m0 0-4.571622 8.547269m30.05947 21.472469-42.862992 22.972339m0 0-21.385556 18.812932m0 0 12.77124-.052148m0 0-22.825828 14.601378m0 0-1.231681 10.484187m0 0 10.888953-4.065043m0 0-17.211251 17.727762m0 0 2.860678 5.748672m0 0-10.5562 15.681582m-.002483 0-1.633964 26.37436m0 0-13.734732 22.758781m0 0 3.752157 8.713646m.002483 0-15.669166 22.800996m0 0 .583558 21.748107m0-.002483-26.702146 52.214827m0 .002483-17.809708 9.878279m0-.002483-8.433041-4.857193m0 0-10.784658 12.584997m0 0-10.384858.720136m0 0-2.006447 8.887472m0 0-13.87131-5.140281m0 0-9.438748 12.545266m0 .002483-46.513336-4.93914m0-.002483-17.757561-8.69378m0 0 14.107216 20.04958m0 0 48.134884 8.798075m-.002483 0 41.40037-7.134313m33.35968-42.696615-33.35968 42.696615m0 0-10.399757 13.595671m0 0-34.427467 33.647734m0 0-33.272767 54.062348m0 0-20.876494 25.030935m0 .002483 20.521393-5.224711m0-.002483 18.636623-27.504229m0 0 24.847175-20.11911m-2.932692.831881-8.45539-2.748933m0 0 28.49752-12.719092m0 .002484-8.018342-4.77773m0 0 24.889391-14.134532m0 0-9.197875-4.832361m0-.002483 24.698181-14.767755m0 0-5.771021-4.412695m0 0 21.199314-11.104994m.002484-.002483-2.736517-6.89344m0 .002483 49.768847-56.481011m0-.002484 54.288322-65.465329m0 .002483 17.407426-22.721532m.002483 0-6.828876-5.55498m-.002483 0 12.542782-12.843254m-1.410473-.434564-.881546-12.381373m0 0 18.88743-17.077156m74.04488-120.702244-53.814025 61.661024m0 0-17.039908 26.853623m0 0 12.51795 2.726584m0 0-18.162326 18.611791m0 0 2.453429 10.849222m-39.381507 68.450168 3.650345 12.242313m-.002484 0-15.525139 13.436744m0-.002483 3.719875 9.612574m0 0-16.488631 10.573583m.111745-1.5694-1.047922 9.446198m0 0-12.719092 9.888212m.002484 0-.054631 10.888953m-.002484 0-14.492116 6.540822m0 0 1.946851 8.842773m0 0-14.367955 8.582035m0 0 1.621547 13.575805m0 0-31.127258 33.409344m0 0-3.940882 21.186898m0 0-24.911739 26.424025m0-.002483-15.703932 46.538168m0 .002484-6.252767 11.114926m-1.534634-.106778 6.277599 12.078419m0 0-14.660976 33.627868m0 0-2.222488 40.15379m17.946285 20.985757-17.946285-20.983274" stroke="#fff" stroke-width=".436"/><path d="m670.483869 302.370362-52.021135-49.202672m68.604129-68.26641 9.970158 26.548186m18.56461-6.2478-14.41017-8.383377m0-.002483-13.297684-11.050363m0 0-31.266318-4.045178m-77.081868 148.745334-54.717921-10.690295m-123.416411 397.351181 18.117628-23.548447m.069531-.730069-15.89514-16.605343m0 0 32.319207-22.269585m0 0-19.197833-9.741702m1.288795.09188 58.889743-68.951781m0 0-56.714435 46.130919m15.289232-48.517301 40.650436 2.326784m0-.002483-15.738697-28.745843m3.940883-21.186898 45.991858-12.632178m0 0-14.934131-20.044614m25.291673-37.543918-10.357542 57.588532m10.357542-57.588532 46.262531-6.553237m-4.258736-55.721144 4.258736 55.721144m70.267891-68.122383-69.932656 67.094326m51.603953-65.98929-56.197924 11.293719m36.063915-80.277782 20.134009 68.986546m65.338685-73.972867-65.338685 73.970384m51.502141-79.21496-71.63615 10.228414m14.569096-30.258128 57.067054 20.029714m39.662111-80.898589-25.825567 86.143165m30.359941-101.953875-96.21762 47.50911m54.116979-60.642901-69.632185 15.95722m0 0 15.515206 44.683198m0 0-60.297733 3.235646m0 0 44.514338 23.608044m.268189-71.526888-44.782527 47.918844m0 0-33.339814 63.371968m.002483 0 77.854152-39.76144m-77.854152 39.76144-9.493379 51.914356m0-.002483 64.2113-41.224061m-64.2113 41.224061 43.801652 8.949552m0 .002483-68.010638 31.176923m0 0-30.153832 51.680933m0 0 43.146079-12.520434m.002483-.002483-12.99473-39.160499m0 .002483 24.208986-40.126475m5.502833 72.577293-14.546748 17.429775m-.327786-1.278862-50.796903 45.043265m0 .002483 5.264442-41.127215m49.992338 48.408039-49.930257 33.82156m-5.26196-41.966547-38.090228 16.215476m0 0 .211075 21.512201m25.738654-67.928691-15.083125 32.376321m0 0-16.525879-15.040909m0 0-25.467983 23.918448m-48.400589-9.831098 50.106567-7.099548m29.632355 43.605477-35.092973 11.81768m.002483.002483-1.825172 25.669124m-31.350748 48.514818.355101-19.806224m0 0 31.743099-29.734167m485.557909-326.541946-33.071625 18.025749m0 0-21.248979 12.527883m0 0-35.316463 2.105777m0 0-29.696919-6.064042m-3.009672 26.314763 68.023054-22.354015m0-.002483-22.354015 29.652221m0 0 43.602994-42.180104m0 0-8.793109 37.144118m54.124428-143.634851-45.331319 106.490733m0 0-20.874012-45.818033m-.799599 1.02309-34.891831 59.431086m0-.002483-27.186376-32.609745m0 0 24.899323-5.256993m0 0 37.978483-22.584955m0 0 21.415355-23.007103m0 0 44.789976-37.665597m-104.183814 83.257655 2.287053 37.866738m35.69143-60.451693-.374967 58.345916m21.790322-81.353019-.541343 68.825136m-97.382254-36.826265 24.757779-16.285007m0 0 31.283701-28.383292m0 0 41.882117 12.669428m-84.293161 50.849051 11.127343-35.135187m0 0-3.076719-52.768587m-42.366346 40.80688 45.443065 11.96419m0-.002483 51.750463 7.293239m-98.114805-18.795549 43.287623-41.263793m0-.002484 39.22258-38.547142m.002483 0-4.864643 62.932437m4.864643-62.932437 37.017474 75.601865m0 0-5.564913-123.011646m0 0-31.452561 47.409781m-143.552904 38.557075 70.916014-29.831013m0 .002483 73.203066-9.585258m-109.865439 60.774512 35.892572-50.866434m-.002483 0-9.103512 70.762054m30.873968-186.1650904-31.104909 46.4810543m0 0 9.334453 68.9219821m-9.334453-68.9219821 82.743627 59.8706171m.566176-.856713-52.204894-105.4949584m-31.104909 46.4810543 114.196188 12.4633193m-179.74843-72.619508-5.535114 43.7172219m-.826915.2532892 71.914271 16.1856776m31.104909-46.4810543-102.192265 30.0420875m0 0 6.051625 49.0884433m0 0 65.035731-32.6494765m0 0-60.809277 98.4301761m31.241486-50.282876-51.030327 23.960663m0 0 15.562387-39.4584866m-15.562387 39.4584866-4.151956 16.034201m23.940797 10.285528-19.788841-26.322212m0 .002483-26.344562-46.5381685m0 0-33.012027-23.2430104m-.002484 0-8.9868-22.3068335m68.345873 92.0880124-31.144641 16.669907m-.002483 0-3.76209-22.450861m0 0 8.562169-40.7572145m.002483 0-40.921107 46.6399805m0 0 11.974123 28.703628m0 0 20.382332-34.588877m-29.391481 52.103081-2.964974-46.217832m0 0 1.033022-45.1798427m0 0 6.873574-24.7031482m0 0-47.941192 29.4610123m47.941192-29.4610123-44.789976 62.4929059m0 0 37.916402-37.7897577m81.278523-87.1861211-74.404949 62.4829729m0 0 68.869835-18.765751m-.826915.2532892-35.028409 41.7554722" stroke="#fff" stroke-width=".218"/><path d="m386.012764 515.65478 1.705978-16.930645" fill="#fff"/><path d="m386.012764 515.65478 1.705978-16.930645" stroke="#231f20" stroke-width=".473"/><path d="m341.657353 494.199694-4.042695 11.621505" fill="#fff"/><path d="m341.657353 494.199694-4.042695 11.621505" stroke="#231f20" stroke-width=".473"/><path d="m778.926418 286.194617c-.586042 1.018123-1.882286 1.363292-2.897927.77725-1.013156-.581075-1.360808-1.879803-.774767-2.895443.581076-1.01564 1.882287-1.360809 2.892961-.779734 1.01564.588525 1.363292 1.88477.779733 2.897927m-2.26967-38.097678c-.586042 1.018123-1.882287 1.363292-2.897927.77725-1.013156-.583558-1.363292-1.879803-.774767-2.895443.581076-1.01564 1.879804-1.360809 2.892961-.779733 1.013156.588525 1.363291 1.884769.779733 2.897926m-13.774464-29.873228c-.588524 1.018123-1.879803 1.360809-2.897926.77725-1.01564-.583558-1.360809-1.879803-.774767-2.895443.583558-1.01564 1.879803-1.363292 2.895443-.779733 1.010674.586041 1.358326 1.884769.77725 2.897926m-3.074235-52.768586c-.586042 1.01564-1.879804 1.360808-2.897927.77725-1.013157-.583559-1.360809-1.879803-.774767-2.895444.586042-1.01564 1.882287-1.360808 2.895443-.779733 1.010674.586042 1.358326 1.88477.777251 2.897927m-33.44411-29.44363c-.586041 1.018123-1.882286 1.363292-2.897926.77725-1.01564-.583558-1.358326-1.879803-.774767-2.89296.586041-1.01564 1.879803-1.363292 2.895443-.779733 1.010674.586041 1.358326 1.882286.77725 2.895443m-40.484059-19.761525c-.586042 1.01564-1.882287 1.360808-2.897927.77725-1.013157-.583559-1.360809-1.879803-.772284-2.895443.581076-1.015641 1.879804-1.360809 2.892961-.779734 1.01564.588525 1.363291 1.88477.77725 2.897927m-34.631092-16.5656117c-.586042 1.0156397-1.882287 1.3608087-2.895444.7772507-1.01564-.5835589-1.363292-1.8773205-.77725-2.8929606.583559-1.0156401 1.879803-1.3632919 2.895443-.7822167 1.013157.5860417 1.360809 1.8847698.777251 2.8979266m-41.949164-7.0796819c-.586042 1.0156401-1.882287 1.3608088-2.897927.7772503s-1.358325-1.8798033-.774767-2.8979266c.583559-1.0131569 1.879803-1.3608088 2.895444-.7772503 1.013156.5860417 1.360808 1.8822865.77725 2.8979266m-39.84587 1.4601379c-.586042 1.0181233-1.882287 1.3632919-2.897927.7797334-1.013157-.5860417-1.360809-1.8822865-.774767-2.8954434.583559-1.01564 1.879803-1.3632919 2.89296-.7822166 1.013157.5885249 1.363292 1.8847697.779734 2.8979266m7.496864-24.7031482c-.583559 1.0181233-1.882287 1.3632919-2.897927.7772502-1.013157-.5835585-1.360809-1.8798033-.774767-2.8954434.583559-1.0156401 1.879803-1.3608087 2.89296-.7797334 1.01564.5885249 1.363292 1.8847697.779734 2.8979266m68.249027-18.5124618c-.583558 1.0181233-1.882286 1.363292-2.897926.7797335-1.013157-.5835585-1.360809-1.8798033-.774767-2.8954434.583558-1.0156401 1.879803-1.3608087 2.89296-.7822167 1.01564.5885249 1.363292 1.8847697.779733 2.8979266m71.355545 16.3917854c-.583558 1.0156401-1.882286 1.363292-2.897926.7772502-1.013157-.5835584-1.363292-1.8798032-.774767-2.8929601.581075-1.0156401 1.879803-1.363292 2.89296-.7822167 1.01564.5885249 1.363292 1.8847697.779733 2.8979266m82.475439 59.6645093c-.586042 1.01564-1.88477 1.360809-2.897927.777251-1.013157-.586042-1.360809-1.879804-.774767-2.897927.583559-1.013157 1.879803-1.360809 2.89296-.77725 1.01564.586041 1.363292 1.884769.779734 2.897926m-230.607415 12.341641c-.586042 1.015641-1.879803 1.363292-2.897926.777251-1.01564-.583559-1.360809-1.879804-.774767-2.895444.583558-1.01564 1.882286-1.360808 2.895443-.779733 1.013157.586042 1.358325 1.882286.77725 2.897926m32.272026-4.718132c-.586042 1.01564-1.879803 1.360809-2.897926.77725-1.013157-.583558-1.360809-1.87732-.772284-2.895443.581075-1.01564 1.882286-1.360809 2.89296-.779734 1.01564.588525 1.360809 1.88477.77725 2.897927m34.596327 4.586521c-.586042 1.015641-1.879803 1.360809-2.895443.777251-1.01564-.583559-1.360809-1.879804-.777251-2.895444.586042-1.01564 1.882287-1.360808 2.895444-.779733 1.01564.586042 1.360809 1.88477.77725 2.897926" fill="#fff"/><path d="m750.272455 307.485811c-1.49987 2.607388-4.827395 3.491418-7.429817 1.996514-2.602423-1.499869-3.491418-4.822428-1.986582-7.42485 1.497386-2.604906 4.824911-3.496384 7.419884-2.001481 2.602422 1.507319 3.496384 4.834844 1.996515 7.429817" fill="#bcbcbc"/><path d="m608.321232 178.305827c-1.499869 2.604906-4.827394 3.491418-7.429817 1.994032-2.599939-1.499869-3.491418-4.822428-1.986582-7.422367 1.494903-2.607389 4.822428-3.498868 7.422367-2.001482 2.59994 1.504836 3.491418 4.834845 1.994032 7.429817m-33.935788 10.260697c-1.49987 2.607389-4.827395 3.493901-7.429817 1.996515-2.59994-1.49987-3.491418-4.822428-1.986582-7.424851 1.494903-2.607389 4.824911-3.493901 7.419884-1.998998 2.602422 1.502353 3.496384 4.832361 1.996515 7.427334" fill="#fff"/><path d="m584.797617 200.699574c-1.25403 2.175307-4.027795 2.915309-6.200619 1.666246-2.170341-1.251547-2.912826-4.022829-1.66128-6.195653 1.251547-2.175308 4.027796-2.920276 6.198137-1.673696 2.172824 1.258997 2.912826 4.035245 1.663762 6.203103m7.144246 9.483446c-1.25403 2.172824-4.030279 2.915309-6.200619 1.666246-2.172825-1.251547-2.91531-4.025312-1.66128-6.195653 1.251547-2.177791 4.030279-2.920276 6.195653-1.671212 2.172824 1.256513 2.917793 4.032761 1.666246 6.200619" fill="#8a8a8b"/><path d="m607.787338 210.269933c-1.251547 2.172824-4.027795 2.912826-6.200619 1.663763-2.167858-1.251547-2.912826-4.025312-1.661279-6.195653 1.251546-2.177791 4.030278-2.917793 6.198136-1.671212 2.172824 1.256513 2.915309 4.032761 1.663762 6.203102" fill="#bcbcbc"/><path d="m582.885532 180.59288c-1.25403 2.172824-4.027795 2.912826-6.20062 1.666246-2.17034-1.251547-2.912826-4.025312-1.663762-6.198136 1.25403-2.175308 4.030278-2.917793 6.200619-1.671212 2.170341 1.256513 2.912826 4.035244 1.663763 6.203102m-.347652-12.445937c-1.256513 2.175308-4.030278 2.91531-6.200619 1.666246-2.172825-1.251547-2.91531-4.025312-1.663763-6.195653 1.251547-2.17779 4.032762-2.920275 6.198136-1.671212 2.170341 1.25403 2.915309 4.032762 1.666246 6.200619" fill="#d8d9d9"/><path d="m599.180471 168.728019c-1.25403 2.172824-4.027795 2.912826-6.200619 1.666245-2.167858-1.251546-2.912826-4.025312-1.661279-6.195653 1.251546-2.17779 4.030278-2.917792 6.198136-1.671212 2.172824 1.256513 2.915309 4.032762 1.663762 6.20062m7.688073-11.303652c-1.25403 2.172824-4.027795 2.912826-6.200619 1.666245-2.167858-1.251546-2.91531-4.027795-1.663763-6.198136 1.25403-2.175307 4.032762-2.917792 6.200619-1.671212 2.172825 1.258996 2.912826 4.035245 1.663763 6.203103m5.0782 10.01734c-1.256513 2.172824-4.032761 2.912826-6.203102 1.666245-2.172824-1.251546-2.912826-4.027795-1.661279-6.198136 1.249063-2.17779 4.027795-2.917792 6.195652-1.671212 2.170341 1.256513 2.91531 4.032762 1.668729 6.203103m11.328485.807049c-1.256513 2.172824-4.030279 2.910342-6.203103 1.663762-2.170341-1.251547-2.910343-4.025312-1.658796-6.195653 1.251547-2.175307 4.027795-2.917792 6.195653-1.671212 2.172824 1.256513 2.917792 4.032762 1.666246 6.203103m10.414656-12.699226c-1.25403 2.172824-4.030278 2.912826-6.200619 1.666245-2.172824-1.251546-2.912826-4.025312-1.661279-6.198136 1.249063-2.175307 4.027795-2.917792 6.195653-1.668729 2.172824 1.25403 2.915309 4.030279 1.666245 6.20062m13.171039 7.464582c-1.256513 2.172824-4.032761 2.915309-6.203102 1.666246-2.170341-1.251547-2.912826-4.025312-1.661279-6.195653 1.251546-2.177791 4.030278-2.920276 6.198136-1.671212 2.170341 1.256513 2.915309 4.032761 1.666245 6.200619m11.390565 3.704975c-1.254029 2.175308-4.030278 2.912826-6.200619 1.666246-2.172824-1.251547-2.912826-4.025312-1.661279-6.195653 1.251547-2.17779 4.030278-2.920275 6.195653-1.671212 2.172824 1.256513 2.915309 4.032762 1.666245 6.200619m-10.47922 10.014857c-1.256513 2.172825-4.030278 2.912826-6.203103 1.666246-2.172824-1.251547-2.912826-4.027795-1.661279-6.198136 1.249064-2.175307 4.030279-2.917792 6.195653-1.668729 2.172824 1.25403 2.915309 4.030278 1.668729 6.200619m-9.945327-5.825652c-1.251546 2.172825-4.027795 2.912826-6.200619 1.663763-2.170341-1.249064-2.912826-4.022829-1.661279-6.195653 1.249063-2.175307 4.027795-2.917792 6.198136-1.671212 2.170341 1.256513 2.912826 4.032761 1.663762 6.203102m22.299384 13.049361c-1.251546 2.175308-4.027795 2.91531-6.200619 1.666246-2.170341-1.251547-2.912826-4.025312-1.658796-6.198136 1.249063-2.175307 4.025312-2.917792 6.195653-1.671212 2.170341 1.258996 2.912826 4.035245 1.663762 6.203102m15.872791-5.217261c-1.256513 2.172824-4.032761 2.912826-6.203102 1.663763-2.170341-1.249064-2.910343-4.025312-1.658796-6.195653 1.249063-2.177791 4.030278-2.917793 6.195652-1.671212 2.170341 1.256513 2.912826 4.032761 1.666246 6.203102m-.340202 15.994469c-1.251547 2.172824-4.027795 2.912826-6.200619 1.666246-2.170341-1.251547-2.91531-4.027795-1.66128-6.198136 1.251547-2.175308 4.030279-2.917793 6.198136-1.668729 2.172825 1.25403 2.91531 4.030278 1.663763 6.200619m15.259434-6.461358c-1.25403 2.172824-4.027796 2.912826-6.20062 1.666246-2.170341-1.251547-2.915309-4.025312-1.661279-6.198136 1.249063-2.175308 4.030278-2.917793 6.198136-1.671213 2.170341 1.256514 2.912826 4.032762 1.663763 6.203103m.258255 16.416618c-1.251546 2.172824-4.027795 2.912826-6.200619 1.663762-2.167858-1.249063-2.912826-4.022829-1.658796-6.195653 1.249063-2.172824 4.027795-2.917792 6.195653-1.671212 2.175307 1.256513 2.915309 4.035245 1.663762 6.203103m10.203582 9.056331c-1.254029 2.172824-4.027795 2.912826-6.200619 1.666245-2.172824-1.251546-2.912826-4.027795-1.661279-6.198136 1.251547-2.175307 4.030278-2.917792 6.195653-1.671212 2.172824 1.256513 2.917792 4.035245 1.666245 6.203103m2.726584-13.47896c-1.256513 2.172824-4.030278 2.91531-6.203102 1.666246-2.170341-1.251547-2.912826-4.025312-1.661279-6.195653 1.251546-2.17779 4.030278-2.920275 6.195652-1.671212 2.175308 1.256513 2.917793 4.032762 1.668729 6.200619m14.541781 7.13928c-1.251546 2.175307-4.027795 2.915309-6.200619 1.666245-2.167858-1.251546-2.912826-4.025312-1.663763-6.198136 1.25403-2.175307 4.032762-2.917792 6.20062-1.668729 2.172824 1.256514 2.915309 4.032762 1.663762 6.20062m-4.566655 16.235342c-1.25403 2.172824-4.027796 2.912826-6.20062 1.663762-2.170341-1.249063-2.912826-4.022828-1.661279-6.195653 1.251547-2.172824 4.030278-2.917792 6.198136-1.671212 2.170341 1.256513 2.915309 4.032762 1.663763 6.203103m13.213254-2.336717c-1.25403 2.172824-4.030279 2.910342-6.20062 1.663762-2.170341-1.251547-2.912826-4.025312-1.661279-6.198136s4.030279-2.915309 6.195653-1.668729c2.172824 1.256513 2.917792 4.032762 1.666246 6.203103" fill="#fff"/><path d="m721.769968 235.017779c-1.251546 2.172825-4.027795 2.912826-6.200619 1.663763-2.170341-1.249064-2.912826-4.022829-1.658796-6.195653 1.24658-2.175307 4.027795-2.920276 6.195653-1.668729 2.170341 1.25403 2.912826 4.030278 1.663762 6.200619m8.269148 11.673653c-1.25403 2.175308-4.027795 2.912826-6.200619 1.663763-2.170341-1.249064-2.915309-4.022829-1.661279-6.195653 1.249063-2.175307 4.027795-2.917792 6.198136-1.671212 2.170341 1.256513 2.910342 4.032761 1.663762 6.203102m9.821165 8.505055c-1.251546 2.172824-4.027795 2.912826-6.200619 1.663762-2.170341-1.251546-2.912826-4.022828-1.661279-6.195652 1.249063-2.175308 4.030278-2.917793 6.198136-1.671213 2.172824 1.256514 2.912826 4.032762 1.663762 6.203103m13.943323-.017383c-1.251546 2.175308-4.025312 2.912826-6.198136 1.666246-2.167857-1.251547-2.915309-4.025312-1.663762-6.198136 1.251546-2.175307 4.030278-2.917793 6.198136-1.668729 2.172824 1.256513 2.915309 4.032762 1.663762 6.200619m-7.300689 11.090095c-1.25403 2.175307-4.025312 2.915309-6.200619 1.663762-2.167858-1.249063-2.912826-4.022828-1.661279-6.193169 1.249063-2.177791 4.030278-2.920276 6.200619-1.671213 2.170341 1.256514 2.910343 4.032762 1.661279 6.20062m5.453168 14.916748c-1.251547 2.175307-4.027795 2.912826-6.203103 1.666246-2.167857-1.251547-2.912825-4.027795-1.661279-6.198136 1.251547-2.177791 4.030279-2.917793 6.198136-1.671213 2.172824 1.256514 2.917793 4.035245 1.666246 6.203103" fill="#d8d9d9"/><path d="m736.947455 281.732257c-1.256513 2.175307-4.030278 2.912826-6.203102 1.666246-2.172824-1.251547-2.912826-4.025312-1.661279-6.195653 1.251546-2.177791 4.030278-2.920276 6.195652-1.671212 2.170341 1.256513 2.91531 4.032761 1.668729 6.200619m-1.097586 9.550493c-1.25403 2.172825-4.030279 2.91531-6.20062 1.666246-2.172824-1.251547-2.912825-4.025312-1.661279-6.198136 1.251547-2.175307 4.030279-2.917792 6.195653-1.668729 2.172824 1.25403 2.917793 4.032762 1.666246 6.200619" fill="#bcbcbc"/><path d="m732.010799 298.426996c-1.251547 2.172824-4.027795 2.912826-6.200619 1.663763-2.167858-1.249064-2.912826-4.025312-1.66128-6.195653 1.251547-2.175308 4.030279-2.917793 6.198136-1.671212 2.172825 1.256513 2.912826 4.032761 1.663763 6.203102m-5.676658-9.94036c-1.25403 2.172824-4.027796 2.912826-6.20062 1.666246-2.170341-1.251547-2.912826-4.027795-1.661279-6.198136 1.251547-2.175308 4.027795-2.917793 6.195653-1.671212 2.175307 1.256513 2.917792 4.032761 1.666246 6.203102m-11.112444 2.304435c-1.25403 2.175308-4.030278 2.912826-6.203102 1.663763-2.165375-1.249064-2.910343-4.022829-1.658796-6.195653 1.251546-2.175307 4.030278-2.917792 6.198136-1.668729 2.172824 1.25403 2.912826 4.030278 1.663762 6.200619" fill="#bcbcbc"/><path d="m707.747182 282.775213c-1.256513 2.172824-4.030278 2.915309-6.203103 1.666245-2.17034-1.251546-2.912825-4.025312-1.658796-6.198136 1.249064-2.175307 4.027796-2.917792 6.195653-1.668729 2.172824 1.256513 2.917793 4.032762 1.666246 6.20062" fill="#8a8a8b"/><path d="m700.600453 281.459102c-1.256513 2.172824-4.032762 2.912826-6.203103 1.666246-2.17034-1.251547-2.912826-4.025312-1.661279-6.198136 1.251547-2.175308 4.030279-2.917793 6.195653-1.671213 2.170341 1.256514 2.917792 4.035245 1.668729 6.203103" fill="#8a8a8b"/><path d="m673.533272 304.004325c-1.256513 2.172825-4.030278 2.912826-6.203102 1.666246-2.170341-1.251547-2.910343-4.025312-1.658796-6.198136 1.249063-2.175307 4.030278-2.917792 6.195652-1.668729 2.172825 1.256513 2.917793 4.030278 1.666246 6.200619" fill="#fff"/><path d="m688.268745 309.60152c-1.25403 2.175308-4.027795 2.912826-6.203103 1.666246-2.170341-1.251547-2.912826-4.025312-1.661279-6.198136 1.251547-2.175307 4.030278-2.917792 6.198136-1.668729 2.172824 1.25403 2.912826 4.030278 1.666246 6.200619m-47.027365 73.145953c-1.25403 2.172824-4.030278 2.912826-6.200619 1.666245-2.172824-1.251546-2.912826-4.025312-1.661279-6.198136 1.249063-2.175307 4.030278-2.917792 6.195653-1.668729 2.170341 1.25403 2.915309 4.032762 1.666245 6.20062" fill="#d8d9d9"/><path d="m621.571735 383.758146c-1.256514 2.172824-4.027796 2.912826-6.20062 1.666246-2.172824-1.251547-2.912826-4.027795-1.661279-6.198136 1.249063-2.175307 4.027795-2.917793 6.195653-1.668729 2.170341 1.25403 2.915309 4.030278 1.666246 6.200619" fill="#fff"/><path d="m599.024028 439.459425c-1.25403 2.172824-4.030278 2.912826-6.203103 1.666245-2.167857-1.251546-2.912826-4.025312-1.661279-6.198136 1.251547-2.175307 4.030279-2.917792 6.198136-1.671212 2.172824 1.258996 2.915309 4.032762 1.666246 6.203103" fill="#d8d9d9"/><path d="m569.967782 450.800325c-1.25403 2.175307-4.027795 2.912826-6.20062 1.666246-2.17034-1.251547-2.915309-4.025312-1.661279-6.198136 1.249064-2.175308 4.027795-2.917793 6.198136-1.671212 2.172824 1.258996 2.915309 4.035244 1.663763 6.203102" fill="#fff"/><path d="m551.390756 475.374345c-1.25403 2.172825-4.030278 2.912826-6.203102 1.666246-2.172825-1.251547-2.910343-4.025312-1.658796-6.198136 1.249063-2.175307 4.030278-2.917792 6.195652-1.668729 2.170341 1.25403 2.91531 4.030279 1.666246 6.200619m-37.084521 40.320167c-1.25403 2.172824-4.030278 2.912826-6.203102 1.666246-2.167858-1.251547-2.912826-4.027795-1.658797-6.198136 1.251547-2.175308 4.027796-2.917793 6.195653-1.668729 2.172825 1.25403 2.91531 4.032761 1.666246 6.200619" fill="#d8d9d9"/><g fill="#fff"><path d="m480.161856 577.579027c-1.256514 2.175307-4.030279 2.912826-6.20062 1.666246-2.175307-1.251547-2.915309-4.025312-1.663762-6.198136 1.249063-2.175308 4.030278-2.917793 6.195653-1.671212 2.170341 1.258996 2.915309 4.032761 1.668729 6.203102m-40.769631-.69282c-1.25403 2.175307-4.030279 2.912826-6.203103 1.666245-2.167857-1.251546-2.912826-4.027795-1.658796-6.198136 1.249064-2.175307 4.027795-2.917792 6.198136-1.668729 2.172824 1.25403 2.912826 4.030279 1.663763 6.20062m-15.130306 46.299778c-1.25403 2.175308-4.027795 2.912826-6.203103 1.666246-2.165374-1.251547-2.910342-4.027795-1.658796-6.198136 1.251547-2.175308 4.027796-2.917793 6.198137-1.671212 2.172824 1.256513 2.912825 4.032761 1.663762 6.203102m-8.423108 11.879761c-1.25403 2.172824-4.025312 2.912826-6.200619 1.666246-2.167858-1.251547-2.912826-4.027795-1.66128-6.198136 1.251547-2.175308 4.030279-2.917793 6.198136-1.671212 2.172825 1.256513 2.912826 4.035244 1.663763 6.203102m-62.820692-4.467326c-1.256513 2.175307-4.032762 2.915309-6.203102 1.666245-2.172825-1.251546-2.912826-4.027795-1.658796-6.198136 1.24658-2.175307 4.027795-2.917792 6.193169-1.668729 2.170341 1.25403 2.917793 4.032762 1.668729 6.20062m-22.488109 7.228675c-1.25403 2.175308-4.027795 2.915309-6.203103 1.666246-2.170341-1.251547-2.910342-4.027795-1.658796-6.195653 1.249064-2.177791 4.030279-2.920276 6.195653-1.671212 2.170341 1.25403 2.912826 4.032761 1.666246 6.200619m23.888649-26.955435c-1.254029 2.172824-4.027795 2.912826-6.200619 1.663762-2.172824-1.25403-2.912826-4.025312-1.661279-6.195653 1.251547-2.17779 4.030278-2.917792 6.198136-1.671212 2.170341 1.25403 2.912826 4.032762 1.663762 6.203103m17.236083-7.777469c-1.25403 2.175307-4.030278 2.912826-6.200619 1.666245-2.172824-1.251546-2.912826-4.027795-1.661279-6.198136 1.251546-2.175307 4.027795-2.917792 6.195653-1.668729 2.17034 1.256514 2.917792 4.032762 1.666245 6.20062m12.788622-22.083343c-1.256513 2.175307-4.030278 2.915309-6.203102 1.668729-2.170341-1.25403-2.912826-4.030279-1.661279-6.198137 1.25403-2.17779 4.032761-2.920275 6.198136-1.671212 2.172824 1.256513 2.915309 4.032762 1.666245 6.20062m20.265621-17.506755c-1.251547 2.172824-4.030279 2.912826-6.200619 1.663763-2.170341-1.251547-2.912826-4.025312-1.66128-6.195653 1.25403-2.177791 4.030279-2.917793 6.195653-1.671213 2.172824 1.256514 2.917793 4.032762 1.666246 6.203103m-18.090313-6.391828c-1.256513 2.172824-4.030279 2.912826-6.203103 1.663763-2.172824-1.249064-2.910343-4.022829-1.658796-6.195653 1.249064-2.175308 4.030279-2.917793 6.195653-1.668729 2.170341 1.25403 2.912826 4.030278 1.666246 6.200619m34.663374-12.512984c-1.251547 2.172824-4.027795 2.912826-6.203103 1.66128-2.165374-1.249064-2.910342-4.022829-1.658796-6.19317 1.251547-2.177791 4.030279-2.917793 6.198136-1.671212 2.172825 1.251546 2.912826 4.032761 1.663763 6.203102m18.095279-19.247497c-1.256513 2.177791-4.030278 2.915309-6.203102 1.668729-2.170341-1.25403-2.912826-4.027795-1.658796-6.198136 1.249063-2.175307 4.030278-2.920276 6.195653-1.671212 2.170341 1.256513 2.915309 4.032761 1.666245 6.200619m-17.241049-2.19269c-1.251547 2.175308-4.027795 2.915309-6.200619 1.666246-2.170341-1.251547-2.910343-4.027795-1.658796-6.198136 1.251547-2.175308 4.027795-2.917793 6.195653-1.671212 2.172824 1.258996 2.915309 4.035244 1.663762 6.203102m8.85519-14.040169c-1.25403 2.175308-4.030279 2.912826-6.203103 1.666246-2.172824-1.251547-2.910342-4.025312-1.658796-6.198136 1.251547-2.172824 4.030279-2.915309 6.195653-1.668729 2.170341 1.258996 2.915309 4.032762 1.666246 6.200619m-41.472384 7.171562c-1.25403 2.172824-4.027796 2.912826-6.20062 1.663762-2.172824-1.251547-2.912826-4.025312-1.661279-6.198136 1.249064-2.175307 4.030278-2.915309 6.198136-1.668729 2.167858 1.25403 2.912826 4.032762 1.663763 6.203103m25.199793-22.341599c-1.25403 2.177791-4.030278 2.915309-6.203102 1.666246-2.167858-1.251547-2.912826-4.022829-1.661279-6.198136 1.254029-2.175308 4.030278-2.917793 6.200619-1.671213 2.172824 1.258997 2.915309 4.035245 1.663762 6.203103m13.789363-9.140761c-1.251547 2.172824-4.027795 2.912826-6.200619 1.663763-2.170341-1.249064-2.912826-4.025312-1.658796-6.195653 1.249063-2.175308 4.027795-2.917793 6.195653-1.671212 2.172824 1.256513 2.912826 4.032761 1.663762 6.203102m18.800516-7.037467c-1.25403 2.175307-4.027795 2.912826-6.200619 1.666246-2.170341-1.251547-2.912826-4.022829-1.661279-6.198136 1.251547-2.175308 4.030278-2.917793 6.198136-1.668729 2.172824 1.256513 2.912826 4.032761 1.663762 6.200619m11.425331 28.832756c-1.25403 2.172824-4.030279 2.912826-6.203103 1.666245-2.170341-1.251546-2.910343-4.025311-1.658796-6.198136 1.249063-2.175307 4.030278-2.917792 6.195653-1.671212 2.170341 1.256513 2.915309 4.032762 1.666246 6.203103"/><path d="m460.410263 515.761559c-1.251546 2.172824-4.027795 2.915309-6.200619 1.663763-2.167858-1.249064-2.915309-4.020346-1.661279-6.195653 1.251546-2.175308 4.027795-2.917793 6.198136-1.668729 2.172824 1.256513 2.915309 4.032761 1.663762 6.200619m4.390347-49.125691c-1.251547 2.172824-4.030279 2.912825-6.203103 1.663762-2.170341-1.249063-2.910343-4.025312-1.661279-6.195653 1.251547-2.175307 4.030278-2.917792 6.198136-1.668729 2.172824 1.25403 2.912826 4.030279 1.666246 6.20062m25.738654-53.019393c-1.25403 2.172824-4.027795 2.915309-6.203103 1.666246-2.170341-1.251547-2.910343-4.025312-1.658796-6.198136 1.249064-2.175308 4.027795-2.917793 6.198136-1.668729 2.167858 1.256513 2.910343 4.032761 1.663763 6.200619m1.472554-20.717568c-1.25403 2.175307-4.030279 2.915309-6.203103 1.666246-2.170341-1.251547-2.912826-4.022829-1.658796-6.195653 1.24658-2.175307 4.027795-2.917792 6.195653-1.671212 2.170341 1.256513 2.912826 4.032761 1.666246 6.200619m14.926681-21.839987c-1.25403 2.172824-4.030279 2.912826-6.203103 1.666246-2.170341-1.251547-2.910343-4.027795-1.658796-6.198136 1.249064-2.175307 4.030279-2.917792 6.195653-1.671212 2.170341 1.256513 2.915309 4.032761 1.666246 6.203102m-3.779473-10.86412c-1.25403 2.172824-4.027795 2.912826-6.200619 1.666245-2.172824-1.251546-2.912826-4.025312-1.661279-6.195653 1.249063-2.175307 4.027795-2.920275 6.195653-1.671212 2.170341 1.25403 2.912826 4.032762 1.666245 6.20062m13.446678-21.698443c-1.25403 2.175307-4.030279 2.912826-6.200619 1.666246-2.175308-1.251547-2.912826-4.025312-1.66128-6.198137 1.249064-2.175307 4.030279-2.917792 6.195653-1.668729 2.170341 1.25403 2.915309 4.032762 1.666246 6.20062m.767317-13.131308c-1.251547 2.172824-4.027795 2.912826-6.203102 1.666246-2.167858-1.251547-2.912826-4.027795-1.658796-6.200619 1.249063-2.175308 4.030278-2.91531 6.198136-1.668729 2.172824 1.256513 2.915309 4.032761 1.663762 6.203102m1.221748-14.87205c-1.256513 2.175308-4.030278 2.912826-6.200619 1.666246-2.172824-1.251547-2.912826-4.022829-1.661279-6.195653 1.249063-2.177791 4.027795-2.920276 6.195652-1.671212 2.170341 1.256513 2.91531 4.032761 1.666246 6.200619m9.08613-14.074934c-1.251547 2.175307-4.027795 2.912826-6.203103 1.666246-2.167857-1.251547-2.912826-4.025312-1.658796-6.198136 1.251547-2.172824 4.030279-2.917793 6.195653-1.671212 2.172824 1.256513 2.917793 4.035244 1.666246 6.203102m45.629307 60.774512c-1.256513 2.172825-4.030278 2.912826-6.200619 1.666246-2.172824-1.251547-2.912826-4.025312-1.661279-6.198136 1.251546-2.175307 4.027795-2.917792 6.195652-1.671212 2.172825 1.256513 2.917793 4.032761 1.666246 6.203102m7.881765 7.648341c-1.25403 2.172825-4.027796 2.912826-6.20062 1.666246-2.170341-1.251547-2.912826-4.027795-1.661279-6.198136 1.249063-2.175307 4.030278-2.917792 6.198136-1.671212 2.170341 1.256513 2.912826 4.032762 1.663763 6.203102m3.128866-19.16555c-1.256513 2.172824-4.030278 2.912826-6.200619 1.666246-2.175307-1.251547-2.912826-4.025312-1.661279-6.198137 1.24658-2.172824 4.027795-2.917792 6.193169-1.668729 2.172825 1.25403 2.91531 4.032762 1.668729 6.20062m-.762351-14.139498c-1.251546 2.175307-4.027795 2.915309-6.200619 1.666246-2.172824-1.251547-2.912826-4.025312-1.658796-6.195653 1.24658-2.177791 4.027795-2.920276 6.195653-1.671212 2.170341 1.256513 2.912826 4.032761 1.663762 6.200619m19.759042-16.630175c-1.254029 2.172824-4.030278 2.915309-6.203102 1.666245-2.167858-1.251546-2.910343-4.025312-1.658796-6.195653 1.251547-2.17779 4.027795-2.920275 6.195653-1.671212 2.172824 1.256513 2.917792 4.032762 1.666245 6.20062m-3.300209-11.576807c-1.256513 2.172824-4.030278 2.912825-6.203103 1.666245-2.17034-1.251546-2.910342-4.025312-1.658796-6.198136 1.246581-2.175307 4.027796-2.917792 6.195653-1.668729 2.170341 1.25403 2.915309 4.030279 1.666246 6.20062m18.082863-17.551453c-1.251546 2.172824-4.027795 2.912826-6.200619 1.666246-2.167858-1.251547-2.912826-4.025312-1.661279-6.198137 1.251547-2.175307 4.030278-2.917792 6.198136-1.668729 2.172824 1.25403 2.915309 4.030279 1.663762 6.20062m-11.966673-4.509542c-1.25403 2.172825-4.032762 2.912826-6.203103 1.666246-2.170341-1.251547-2.912826-4.025312-1.661279-6.198136 1.251546-2.175307 4.027795-2.917792 6.198136-1.668729 2.172824 1.25403 2.915309 4.032762 1.666246 6.200619m-64.151702-7.34787c-1.25403 2.175307-4.027795 2.915309-6.20062 1.666246-2.172824-1.251547-2.912826-4.022829-1.661279-6.195653 1.249064-2.177791 4.030279-2.920276 6.198136-1.671212 2.170341 1.256513 2.912826 4.032761 1.663763 6.200619m-9.274855-7.407468c-1.25403 2.172824-4.030279 2.912826-6.203103 1.663763-2.167858-1.249064-2.912826-4.022829-1.658796-6.195653 1.249064-2.175308 4.027795-2.917793 6.195653-1.671212 2.172824 1.256513 2.915309 4.035244 1.666246 6.203102m23.533548-13.555939c-1.251547 2.172824-4.027796 2.912826-6.203103 1.666245-2.167858-1.251546-2.910343-4.025312-1.658796-6.198136 1.251547-2.175307 4.027795-2.917792 6.198136-1.668729 2.170341 1.25403 2.915309 4.030279 1.663763 6.20062m-13.454128-2.334234c-.995774 1.720876-3.190947 2.306918-4.909341 1.318594-1.713427-.990808-2.301952-3.183498-1.30866-4.901892.985841-1.720877 3.183497-2.309401 4.896924-1.321077 1.718394.993291 2.306919 3.190948 1.321077 4.904375m-12.180231 26.329662c-.993291 1.718393-3.185981 2.301952-4.904374 1.316111-1.718394-.990808-2.304436-3.183498-1.316111-4.901892.990808-1.720876 3.188464-2.309401 4.901891-1.321077 1.718394.993291 2.306919 3.190948 1.318594 4.906858"/><path d="m525.182772 289.224155c-.993291 1.718393-3.188464 2.304435-4.906858 1.318594-1.71591-.993291-2.301952-3.185981-1.308661-4.901892.985842-1.720876 3.183498-2.309401 4.896925-1.32356 1.718394.993291 2.304435 3.190947 1.318594 4.906858m-181.424609 201.181167c-.774767 1.340943-2.488194 1.80034-3.829137 1.028056-1.338459-.772283-1.80034-2.48571-1.025573-3.82417.772284-1.34591 2.485711-1.805307 3.824171-1.033023 1.343426.774767 1.802823 2.488194 1.030539 3.829137m-9.605124 15.621985c-.774767 1.343426-2.485711 1.797857-3.829137 1.030539-1.33846-.77725-1.795373-2.488194-1.02309-3.829137.769801-1.343426 2.488194-1.802823 3.821688-1.030539 1.343426.77725 1.805306 2.488194 1.030539 3.829137m85.711084 213.664353c-.79215 1.368258-2.537859 1.835105-3.9086 1.047922-1.365775-.787184-1.835106-2.535376-1.042956-3.903634.7847-1.370742 2.537859-1.837589 3.901151-1.050406 1.368258.789667 1.837588 2.537859 1.050405 3.906118m17.891655-247.565376c-.990808 1.718393-3.185981 2.301952-4.906858 1.31611-1.713427-.990807-2.301952-3.183497-1.311144-4.899408.988324-1.72336 3.185981-2.311885 4.899408-1.32356 1.718393.990808 2.306918 3.190947 1.318594 4.906858m-21.159583 12.512984c-.993291 1.718393-3.185981 2.301952-4.906857 1.318593-1.715911-.993291-2.301952-3.185981-1.311145-4.904374.988325-1.720877 3.185982-2.306918 4.901892-1.318594 1.71591.988325 2.304435 3.188464 1.31611 4.904375m-16.396751 3.712425c-.993291 1.718393-3.185981 2.304435-4.901892 1.316111-1.718393-.988325-2.304435-3.183498-1.313627-4.901892.988324-1.720876 3.185981-2.309401 4.899408-1.321077 1.718393.993291 2.304435 3.188464 1.316111 4.906858m-9.818682 11.360766c-.988325 1.71591-3.183498 2.304435-4.901892 1.316111-1.718393-.990808-2.306918-3.183498-1.31611-4.901891.993291-1.720877 3.188464-2.306919 4.904374-1.321078 1.718394.993291 2.304435 3.188465 1.313628 4.906858"/><path d="m344.731589 496.466881c-.990808 1.71591-3.183498 2.304435-4.901892 1.31611-1.718393-.990807-2.304435-3.183497-1.31611-4.901891.993291-1.720877 3.190947-2.306918 4.904374-1.321077 1.718394.993291 2.304435 3.190947 1.313628 4.906858m-17.357761-9.140761c-.990808 1.71591-3.188465 2.304435-4.904375 1.318594-1.71591-.993291-2.304435-3.188464-1.313627-4.904375.990808-1.720876 3.185981-2.309401 4.899408-1.321077 1.718393.990808 2.306918 3.190948 1.318594 4.906858m13.704933 20.551192c-.993291 1.720876-3.185981 2.304435-4.904375 1.31611-1.718393-.988324-2.304435-3.181014-1.313627-4.899408.990808-1.720877 3.185981-2.309402 4.899408-1.321077 1.718393.990808 2.306918 3.188464 1.318594 4.904375m103.292335 21.420321c-.993291 1.720877-3.190947 2.309401-4.906858 1.321077-1.718393-.990808-2.304435-3.183498-1.311144-4.901891.988325-1.72336 3.183498-2.309402 4.899408-1.323561 1.718394.993291 2.304435 3.190948 1.318594 4.904375m-15.723797 20.305352c-.990808 1.718393-3.183498 2.304435-4.901891 1.316111-1.718394-.990808-2.306919-3.183498-1.316111-4.901892.993291-1.718393 3.188464-2.306918 4.904375-1.321077 1.71591.993291 2.304435 3.190948 1.313627 4.906858m-15.857892 18.216958c-.990807 1.720876-3.183497 2.306918-4.901891 1.321077-1.720877-.990808-2.306918-3.185981-1.31611-4.904375.993291-1.72336 3.188464-2.309401 4.901891-1.318594 1.718393.990808 2.306918 3.188465 1.31611 4.901892m-18.827831 15.602119c-.990808 1.718393-3.185981 2.304435-4.904375 1.318593-1.718393-.993291-2.304435-3.183497-1.313627-4.901891.990808-1.72336 3.188464-2.309401 4.901891-1.321077 1.718394.990808 2.306919 3.190948 1.316111 4.904375m170.97767-350.393348c-1.25403 2.172824-4.030279 2.912826-6.203103 1.666246-2.170341-1.251547-2.910342-4.027795-1.658796-6.198136 1.249064-2.175308 4.030279-2.917793 6.195653-1.668729 2.172824 1.256513 2.917793 4.030278 1.666246 6.200619m57.737525 22.428512c-1.25403 2.172824-4.030279 2.912826-6.200619 1.663762-2.172825-1.251546-2.912826-4.022828-1.66128-6.195653 1.251547-2.175307 4.027795-2.917792 6.195653-1.671212 2.172824 1.256513 2.917793 4.032762 1.666246 6.203103m-200.699421 391.813584c-1.25403 2.175307-4.030279 2.915309-6.203103 1.666245-2.170341-1.251546-2.910343-4.027795-1.656313-6.198136 1.246581-2.172824 4.027795-2.917792 6.19317-1.668729 2.170341 1.25403 2.915309 4.032762 1.666246 6.20062m17.817158 10.978349c-1.256514 2.172824-4.030279 2.912826-6.20062 1.666246-2.172824-1.251547-2.912826-4.027795-1.661279-6.198136 1.249064-2.175308 4.030278-2.917793 6.195653-1.671213 2.170341 1.258997 2.915309 4.035245 1.666246 6.203103m-32.977263 21.636362c-1.256513 2.172824-4.030278 2.912826-6.200619 1.666246-2.172824-1.251547-2.912826-4.027795-1.663763-6.198136 1.251547-2.175308 4.030279-2.917793 6.198136-1.668729 2.167858 1.25403 2.912826 4.030278 1.666246 6.200619m16.543262 17.655748c-1.256513 2.175308-4.030278 2.912826-6.203102 1.666246-2.172824-1.251547-2.912826-4.027795-1.658796-6.200619 1.249063-2.172824 4.027795-2.91531 6.193169-1.668729 2.172825 1.256513 2.91531 4.035245 1.668729 6.203102m-18.020782 21.852403c-1.251547 2.175308-4.027795 2.912826-6.20062 1.666246-2.167857-1.251547-2.912826-4.025312-1.661279-6.195653 1.251547-2.177791 4.030278-2.920276 6.198136-1.671212 2.172824 1.256513 2.915309 4.032762 1.663763 6.200619m17.345344 19.409652c-1.254029 2.177791-4.030278 2.915309-6.200619 1.668729-2.170341-1.251547-2.912826-4.025312-1.658796-6.198136 1.249064-2.172824 4.027795-2.917792 6.19317-1.671212 2.172824 1.258996 2.917792 4.032761 1.666245 6.200619m40.747282-188.601881c-1.25403 2.172824-4.032761 2.912826-6.200619 1.666245-2.175307-1.251546-2.915309-4.027795-1.661279-6.200619 1.249063-2.172824 4.030278-2.915309 6.195652-1.668729 2.170341 1.258997 2.91531 4.035245 1.666246 6.203103m6.093841-21.738175c-1.25403 2.175308-4.030279 2.912826-6.203103 1.666246-2.167858-1.251547-2.912826-4.025312-1.661279-6.195653 1.251547-2.17779 4.030278-2.920275 6.198136-1.671212 2.172824 1.256513 2.915309 4.032762 1.666246 6.200619m29.932825-34.062433c-1.25403 2.172824-4.030278 2.910343-6.200619 1.663763-2.175307-1.251547-2.915309-4.025312-1.661279-6.198136 1.249063-2.172824 4.027795-2.915309 6.195653-1.668729 2.17034 1.25403 2.915309 4.032761 1.666245 6.203102m-1.678662-12.798555c-1.251546 2.172824-4.030278 2.915309-6.203102 1.666246-2.167858-1.251547-2.912826-4.027795-1.658796-6.198136 1.249063-2.175307 4.027795-2.915309 6.198136-1.668729 2.170341 1.256513 2.915309 4.032762 1.663762 6.200619m15.736214-6.80156c-1.25403 2.175307-4.027795 2.912826-6.203103 1.666246-2.170341-1.251547-2.915309-4.025312-1.661279-6.198137 1.249063-2.175307 4.030278-2.917792 6.200619-1.671212 2.170341 1.256513 2.910343 4.032762 1.663763 6.203103m-3.297727-10.836805c-1.254029 2.172824-4.030278 2.912826-6.200619 1.666245-2.172824-1.251546-2.912826-4.025312-1.661279-6.198136 1.251547-2.175307 4.030278-2.917792 6.19317-1.668729 2.172824 1.25403 2.917792 4.030279 1.668728 6.20062m-2.038729-12.552716c-1.25403 2.175307-4.030279 2.912826-6.203103 1.668729-2.167858-1.25403-2.912826-4.025312-1.661279-6.200619 1.251546-2.175308 4.030278-2.917793 6.200619-1.668729 2.170341 1.25403 2.910343 4.032761 1.663763 6.200619m16.555678 5.728806c-1.25403 2.172824-4.030278 2.912826-6.200619 1.663763-2.172824-1.249064-2.91531-4.022829-1.66128-6.195653 1.249064-2.175308 4.030279-2.917793 6.195653-1.668729 2.170341 1.25403 2.912826 4.030278 1.666246 6.200619m.032282-10.605865c-1.25403 2.172824-4.030278 2.915309-6.203103 1.663763-2.170341-1.251547-2.912826-4.025312-1.661279-6.198137 1.249064-2.175307 4.030279-2.917792 6.198136-1.668728 2.172824 1.254029 2.912826 4.032761 1.666246 6.203102m12.090835-8.244316c-1.256513 2.172825-4.030278 2.91531-6.203102 1.666246-2.170341-1.251547-2.910343-4.025312-1.66128-6.198136 1.25403-2.175307 4.030279-2.917792 6.195653-1.668729 2.172824 1.256513 2.917793 4.032762 1.668729 6.200619m.794633-11.152175c-1.256513 2.172824-4.030278 2.912826-6.203103 1.666246-2.17034-1.251547-2.912826-4.027795-1.658796-6.200619 1.251547-2.172824 4.027796-2.91531 6.195653-1.668729 2.170341 1.256513 2.915309 4.032761 1.666246 6.203102m17.104472-8.954518c-1.251547 2.172824-4.027795 2.912826-6.20062 1.666245-2.170341-1.251546-2.912826-4.027795-1.661279-6.198136 1.249064-2.175307 4.030279-2.917792 6.198136-1.668729 2.170341 1.256513 2.912826 4.030279 1.663763 6.20062m-4.606387-9.672172c-1.25403 2.172824-4.027796 2.912826-6.20062 1.663763-2.172824-1.249064-2.915309-4.022829-1.663762-6.195653 1.251546-2.175308 4.030278-2.917793 6.200619-1.671213 2.170341 1.256514 2.910343 4.032762 1.663763 6.203103m17.464539-13.297684c-1.251546 2.172824-4.027795 2.912826-6.203102 1.663763-2.167858-1.251547-2.912826-4.025312-1.658796-6.198136 1.24658-2.175308 4.030278-2.91531 6.198136-1.668729 2.170341 1.256513 2.910342 4.032761 1.663762 6.203102m-4.638669-11.070228c-1.25403 2.172824-4.027795 2.912826-6.200619 1.666245-2.172824-1.251546-2.915309-4.025312-1.66128-6.195653 1.249064-2.175307 4.030279-2.920275 6.198137-1.671212 2.170341 1.25403 2.910342 4.032762 1.663762 6.20062"/></g><path d="m746.267009 243.954916c-1.256514 2.172824-4.030279 2.912826-6.20062 1.663762-2.172824-1.251547-2.915309-4.025312-1.661279-6.195653 1.249063-2.175307 4.027795-2.917792 6.195653-1.671212 2.170341 1.256513 2.915309 4.032762 1.666246 6.203103m-6.905856-9.413916c-1.256514 2.172824-4.032762 2.912826-6.203103 1.666245-2.175307-1.251546-2.912826-4.025312-1.661279-6.198136 1.251547-2.175307 4.027795-2.917792 6.195653-1.668729 2.170341 1.256514 2.915309 4.030279 1.668729 6.20062m-205.827287-99.080782c-1.499869 2.604906-4.827394 3.491418-7.429817 1.994032-2.599939-1.497386-3.491418-4.822428-1.986582-7.422367 1.497387-2.607389 4.822428-3.498868 7.419884-2.001482 2.602423 1.504836 3.496385 4.832361 1.996515 7.429817" fill="#d8d9d9"/><path d="m530.531644 101.015368c-1.502352 2.604906-4.827394 3.491418-7.429817 1.996515-2.602422-1.499869-3.488935-4.8249109-1.989065-7.4273334 1.497386-2.6049058 4.824911-3.4939013 7.422367-1.9989983 2.59994 1.504836 3.493901 4.8323609 1.996515 7.4298167" fill="#fff"/><path d="m884.498356 166.788618c-1.502352 2.604906-4.827394 3.491418-7.427333 1.996515-2.604906-1.49987-3.493902-4.822428-1.994032-7.424851 1.502352-2.604905 4.829877-3.496384 7.42485-2.001481 2.602423 1.504836 3.493902 4.832361 1.996515 7.429817" fill="#d8d9d9"/><path d="m832.196617 81.154514c-1.504836 2.6049057-4.827395 3.491418-7.429817 1.996515-2.602423-1.5023527-3.491418-4.8249113-1.991549-7.4273338 1.502353-2.6024225 4.829878-3.4939012 7.424851-1.9989982 2.602422 1.5048359 3.491418 4.8323609 1.996515 7.429817m-82.152619-58.9443736c-1.502353 2.6049057-4.827395 3.491418-7.427334 1.996515-2.602422-1.5023527-3.491418-4.8249113-1.994032-7.4273338 1.502353-2.6024225 4.829878-3.4939012 7.427334-1.9989982 2.599939 1.5048359 3.491418 4.8323609 1.994032 7.429817m-96.436144-13.6726512c-1.504836 2.6049058-4.827395 3.491418-7.427334 1.996515-2.604906-1.49986948-3.493901-4.82491124-1.991548-7.42733377 1.499869-2.60242252 4.827394-3.49390123 7.422367-1.99899822 2.602422 1.5023527 3.493901 4.83484414 1.996515 7.42981699m-81.519396 40.1736561c-1.504836 2.607389-4.827394 3.491418-7.429817 1.996515-2.599939-1.4998694-3.491418-4.8249112-1.989065-7.4248505 1.499869-2.6049058 4.827394-3.4963845 7.422367-2.0014814 2.602423 1.5048359 3.493901 4.8323609 1.996515 7.4298169m224.950622 143.4212937c-1.504836 2.604905-4.827394 3.491418-7.429817 1.996515-2.599939-1.502353-3.491418-4.824912-1.989065-7.424851 1.497386-2.604906 4.827394-3.493901 7.42485-2.001481 2.59994 1.504836 3.491418 4.832361 1.994032 7.429817m-55.770809-72.10548c-1.502352 2.607389-4.827394 3.491418-7.427333 1.996515-2.602423-1.49987-3.493902-4.822428-1.991549-7.424851 1.49987-2.607389 4.827395-3.496384 7.424851-2.001481 2.599939 1.504836 3.491418 4.832361 1.994031 7.429817m-77.697708-35.0110261c-1.504836 2.607389-4.827394 3.491418-7.427334 1.996515-2.604906-1.4998695-3.493901-4.822428-1.994032-7.4248506 1.49987-2.6049057 4.829878-3.4963844 7.427334-1.9989982 2.59994 1.5023527 3.491418 4.8298777 1.994032 7.4273338" fill="#fff"/><path d="m871.766848 256.197228c-1.502352 2.604905-4.827394 3.491418-7.4323 1.996515-2.599939-1.49987-3.488935-4.824912-1.984099-7.424851 1.494903-2.604906 4.819945-3.496384 7.417401-2.001481 2.602423 1.504836 3.498868 4.834844 1.998998 7.429817m-41.335806 52.795902c-1.49987 2.607389-4.829878 3.491418-7.429817 1.996515-2.602423-1.49987-3.491418-4.822428-1.986582-7.424851 1.494903-2.604906 4.822428-3.496384 7.419884-2.001481 2.602422 1.507319 3.496384 4.834844 1.996515 7.429817" fill="#d8d9d9"/><path d="m835.928908 271.051895c-.586042 1.01564-1.88477 1.360809-2.897927.77725-1.010674-.583558-1.363292-1.879803-.774767-2.895443.581075-1.01564 1.879803-1.363292 2.89296-.779733 1.013157.586041 1.363292 1.882286.779734 2.897926m-21.027972 12.738958c-.588525 1.01564-1.879803 1.360808-2.897926.77725-1.01564-.583559-1.360809-1.879803-.774767-2.895443.586041-1.015641 1.882286-1.360809 2.895443-.779734 1.013157.588525 1.358326 1.88477.77725 2.897927m.062081-57.290544c-.583559 1.01564-1.882287 1.360808-2.897927.774767-1.010673-.583559-1.360808-1.879804-.774767-2.89296.581076-1.018124 1.882287-1.363292 2.892961-.779734 1.01564.586042 1.365775 1.882287.779733 2.897927m21.561865-25.112881c-.583558 1.01564-1.879803 1.360809-2.897926.77725-1.010674-.583558-1.358326-1.879803-.772284-2.897926.583558-1.013157 1.882286-1.358326 2.89296-.777251 1.01564.588525 1.360809 1.88477.77725 2.897927" fill="#fff"/><path d="m796.751026 316.127443c-1.504836 2.604905-4.827395 3.491418-7.429817 1.996515-2.602423-1.49987-3.491418-4.824912-1.991549-7.424851 1.49987-2.604906 4.827395-3.496384 7.424851-2.001481 2.599939 1.504836 3.491418 4.83236 1.996515 7.429817" fill="#d8d9d9"/><path d="m708.479734 298.983239c0 2.061079-1.671212 3.732291-3.734774 3.732291-2.061079 0-3.734774-1.671212-3.734774-3.732291 0-2.063562 1.673695-3.734774 3.734774-3.734774 2.063562 0 3.734774 1.671212 3.734774 3.734774" fill="#603a7e"/><path d="m702.750928 334.639904c0 1.959267-1.586782 3.546049-3.543566 3.546049-1.961749 0-3.548532-1.586782-3.548532-3.546049 0-1.959266 1.586783-3.546049 3.548532-3.546049 1.956784 0 3.543566 1.586783 3.543566 3.546049" fill="#674684"/><path d="m700.118707 351.565584c0 1.959266-1.586783 3.548532-3.548532 3.548532-1.956784 0-3.546049-1.589266-3.546049-3.548532 0-1.959267 1.589265-3.546049 3.546049-3.546049 1.961749 0 3.548532 1.586782 3.548532 3.546049" fill="#6b4b87"/><path d="m699.41347 369.325627c0 1.959267-1.589265 3.546049-3.548532 3.546049-1.956783 0-3.546049-1.586782-3.546049-3.546049 0-1.961749 1.589266-3.548532 3.546049-3.548532 1.959267 0 3.548532 1.586783 3.548532 3.548532" fill="#70518a"/><path d="m698.79018 404.796051c0 1.658796-1.345909 3.007188-3.007189 3.007188-1.661279 0-3.007188-1.348392-3.007188-3.007188 0-1.66128 1.345909-3.009672 3.007188-3.009672 1.66128 0 3.007189 1.348392 3.007189 3.009672" fill="#7b5d90"/><path d="m700.160922 423.713278c0 1.66128-1.34591 3.007189-3.007189 3.007189s-3.007189-1.345909-3.007189-3.007189c0-1.661279 1.34591-3.007188 3.007189-3.007188s3.007189 1.345909 3.007189 3.007188" fill="#7d6194"/><path d="m701.799852 442.506345c0 1.661279-1.345909 3.007189-3.007189 3.007189-1.663762 0-3.007188-1.34591-3.007188-3.007189 0-1.658796 1.343426-3.007189 3.007188-3.007189 1.66128 0 3.007189 1.348393 3.007189 3.007189" fill="#816697"/><path d="m702.296497 459.496588c0 1.559467-1.263962 2.82343-2.820946 2.82343-1.559467 0-2.820947-1.263963-2.820947-2.82343 0-1.556984 1.26148-2.818463 2.820947-2.818463 1.556984 0 2.820946 1.261479 2.820946 2.818463" fill="#866c9a"/><path d="m704.568651 315.680462c0 1.959266-1.589266 3.548532-3.548533 3.548532-1.959266 0-3.546049-1.589266-3.546049-3.548532 0-1.959267 1.586783-3.546049 3.546049-3.546049 1.959267 0 3.548533 1.586782 3.548533 3.546049" fill="#674684"/><path d="m699.569914 387.723861c0 1.810273-1.467588 3.27786-3.277861 3.27786s-3.27786-1.467587-3.27786-3.27786 1.467587-3.277861 3.27786-3.277861 3.277861 1.467588 3.277861 3.277861" fill="#75578c"/><path d="m701.715422 476.566295c0 1.373225-1.112486 2.488194-2.488194 2.488194s-2.490677-1.114969-2.490677-2.488194c0-1.375708 1.114969-2.490678 2.490677-2.490678s2.488194 1.11497 2.488194 2.490678m1.537118 18.919711c0 1.375708-1.114969 2.488194-2.488194 2.488194-1.375708 0-2.490677-1.112486-2.490677-2.488194s1.114969-2.490677 2.490677-2.490677c1.373225 0 2.488194 1.114969 2.488194 2.490677" fill="#8a729e"/><path d="m704.206099 514.403234c0 1.375708-1.114969 2.488194-2.490677 2.488194-1.373225 0-2.488194-1.112486-2.488194-2.488194 0-1.373225 1.114969-2.488194 2.488194-2.488194 1.375708 0 2.490677 1.114969 2.490677 2.488194" fill="#8d7b9d"/><path d="m704.206099 533.695429c0 1.373225-1.114969 2.488194-2.490677 2.488194-1.373225 0-2.488194-1.114969-2.488194-2.488194 0-1.375708 1.114969-2.488194 2.488194-2.488194 1.375708 0 2.490677 1.112486 2.490677 2.488194m-.417182 19.664679c0 1.373225-1.114969 2.490678-2.488194 2.490678-1.375708 0-2.490677-1.117453-2.490677-2.490678s1.114969-2.488194 2.490677-2.488194c1.373225 0 2.488194 1.114969 2.488194 2.488194" fill="#9782a9"/><path d="m703.292272 571.947067c0 1.097586-.891479 1.991548-1.991549 1.991548s-1.991548-.893962-1.991548-1.991548c0-1.10007.891478-1.991549 1.991548-1.991549s1.991549.891479 1.991549 1.991549m-1.991549 19.749109c0 1.10007-.888995 1.991549-1.991548 1.991549-1.10007 0-1.991549-.891479-1.991549-1.991549s.891479-1.991549 1.991549-1.991549c1.102553 0 1.991548.891479 1.991548 1.991549" fill="#a38faf"/><path d="m699.309175 612.853275c0 1.10007-.888996 1.991549-1.989066 1.991549-1.102553 0-1.994031-.891479-1.994031-1.991549 0-1.097586.891478-1.991548 1.994031-1.991548 1.10007 0 1.989066.893962 1.989066 1.991548m-3.983097 20.081862c0 1.097586-.891479 1.991548-1.991549 1.991548s-1.991548-.893962-1.991548-1.991548c0-1.10007.891478-1.991549 1.991548-1.991549s1.991549.891479 1.991549 1.991549" fill="#ae9cb9"/><path d="m688.251362 652.848139c0 .859197-.695304 1.5545-1.552017 1.5545-.86168 0-1.556984-.695303-1.556984-1.5545s.695304-1.554501 1.556984-1.554501c.856713 0 1.552017.695304 1.552017 1.554501m-8.130087 20.20354c0 .859196-.695304 1.5545-1.554501 1.5545-.861679 0-1.556983-.695304-1.556983-1.5545 0-.859197.695304-1.554501 1.556983-1.554501.859197 0 1.554501.695304 1.554501 1.554501" fill="#bcacc7"/><path d="m671.452327 694.792336c0 .859197-.695303 1.554501-1.556983 1.554501-.859197 0-1.554501-.695304-1.554501-1.554501 0-.859196.695304-1.556983 1.554501-1.556983.86168 0 1.556983.697787 1.556983 1.556983m-11.162108 21.946766c0 .859197-.697787 1.5545-1.5545 1.5545-.86168 0-1.556984-.695303-1.556984-1.5545s.695304-1.556984 1.556984-1.556984c.856713 0 1.5545.697787 1.5545 1.556984" fill="#c7bcd2"/><path d="m646.225218 738.769304c0 .856713-.695304 1.5545-1.5545 1.5545-.86168 0-1.556984-.697787-1.556984-1.5545 0-.86168.695304-1.556984 1.556984-1.556984.859196 0 1.5545.695304 1.5545 1.556984" fill="#d7cddf"/><path d="m630.702562 761.182668c0 .578592-.46933 1.050405-1.050405 1.050405-.578592 0-1.050405-.471813-1.050405-1.050405 0-.581075.471813-1.050405 1.050405-1.050405.581075 0 1.050405.46933 1.050405 1.050405m-18.502528 22.734694c0 .581075-.46933 1.050405-1.050406 1.050405-.581075 0-1.050405-.46933-1.050405-1.050405 0-.581076.46933-1.050406 1.050405-1.050406.581076 0 1.050406.46933 1.050406 1.050406" fill="#ddd7e4"/><path d="m591.787903 808.145717c0 .581075-.46933 1.050405-1.052889 1.050405-.581075 0-1.047922-.46933-1.047922-1.050405 0-.578592.466847-1.050406 1.047922-1.050406.583559 0 1.052889.471814 1.052889 1.050406m-23.647777 23.648769c0 .578592-.46933 1.050406-1.050405 1.050406s-1.050405-.471814-1.050405-1.050406c0-.581075.46933-1.052888 1.050405-1.052888s1.050405.471813 1.050405 1.052888" fill="#ece8ee"/><path d="m400.040517 817.197081c0 2.520476-2.041213 4.564173-4.561689 4.564173s-4.566656-2.043697-4.566656-4.564173 2.04618-4.564172 4.566656-4.564172 4.561689 2.043696 4.561689 4.564172" fill="#221435"/><path d="m420.286272 799.441011c0 2.520476-2.043697 4.561689-4.561689 4.561689-2.520477 0-4.566656-2.041213-4.566656-4.561689s2.046179-4.564173 4.566656-4.564173c2.517992 0 4.561689 2.043697 4.561689 4.564173" fill="#291a37"/><path d="m440.36565 784.837646c0 2.520476-2.043696 4.564172-4.564172 4.564172s-4.564173-2.043696-4.564173-4.564172 2.043697-4.564173 4.564173-4.564173 4.564172 2.043697 4.564172 4.564173" fill="#2e213d"/><path d="m460.613888 767.909731c0 2.520476-2.043696 4.564173-4.564172 4.564173s-4.564173-2.043697-4.564173-4.564173 2.043697-4.564172 4.564173-4.564172 4.564172 2.043696 4.564172 4.564172" fill="#322641"/><path d="m477.869836 749.490391c0 2.336717-1.894702 4.233903-4.231419 4.233903-2.339201 0-4.23142-1.897186-4.23142-4.233903s1.892219-4.233903 4.23142-4.233903c2.336717 0 4.231419 1.897186 4.231419 4.233903" fill="#392c46"/><path d="m494.134977 733.225747c0 2.336717-1.894702 4.233903-4.23142 4.233903-2.3392 0-4.233903-1.897186-4.233903-4.233903 0-2.336718 1.894703-4.23142 4.233903-4.23142 2.336718 0 4.23142 1.894702 4.23142 4.23142" fill="#3e314b"/><path d="m511.060657 714.807151c0 2.334234-1.894703 4.23142-4.233903 4.23142-2.336718 0-4.228937-1.897186-4.228937-4.23142 0-2.336717 1.892219-4.233903 4.228937-4.233903 2.3392 0 4.233903 1.897186 4.233903 4.233903" fill="#45374f"/><path d="m526.493916 695.721063c0 2.336718-1.894703 4.233904-4.23142 4.233904s-4.233903-1.897186-4.233903-4.233904c0-2.336717 1.897186-4.231419 4.233903-4.231419s4.23142 1.894702 4.23142 4.231419" fill="#4a3f56"/><path d="m541.929659 676.803836c0 2.063562-1.673695 3.734774-3.734774 3.734774s-3.734775-1.671212-3.734775-3.734774c0-2.061079 1.673696-3.732291 3.734775-3.732291s3.734774 1.671212 3.734774 3.732291" fill="#4f445b"/><path d="m554.209219 657.553855c0 2.063562-1.671212 3.734775-3.732291 3.734775s-3.734774-1.671213-3.734774-3.734775c0-2.061079 1.673695-3.732291 3.734774-3.732291s3.732291 1.671212 3.732291 3.732291" fill="#564a61"/><path d="m568.646705 638.803004c0 2.061079-1.673696 3.732291-3.732291 3.732291-2.063563 0-3.734775-1.671212-3.734775-3.732291 0-2.063563 1.671212-3.734775 3.734775-3.734775 2.058595 0 3.732291 1.671212 3.732291 3.734775" fill="#5b5066"/><path d="m582.418685 620.049669c0 2.061079-1.671212 3.732291-3.732291 3.732291-2.063562 0-3.734774-1.671212-3.734774-3.732291 0-2.063562 1.671212-3.732291 3.734774-3.732291 2.061079 0 3.732291 1.668729 3.732291 3.732291" fill="#62576d"/><path d="m594.700729 600.799688c0 2.061079-1.673696 3.732291-3.734775 3.732291s-3.734774-1.671212-3.734774-3.732291c0-2.063562 1.673695-3.734774 3.734774-3.734774s3.734775 1.671212 3.734775 3.734774" fill="#685d70"/><path d="m604.325719 580.387557c0 1.696045-1.375708 3.06927-3.069269 3.06927-1.696045 0-3.071753-1.373225-3.071753-3.06927 0-1.696044 1.375708-3.069269 3.071753-3.069269 1.693561 0 3.069269 1.373225 3.069269 3.069269" fill="#6f6377"/><path d="m615.942258 561.30147c0 1.696045-1.373225 3.069269-3.06927 3.069269-1.696044 0-3.071752-1.373224-3.071752-3.069269 0-1.693561 1.375708-3.069269 3.071752-3.069269 1.696045 0 3.06927 1.375708 3.06927 3.069269" fill="#766c7f"/><path d="m626.731882 541.222092c0 1.696044-1.375709 3.069269-3.071753 3.069269s-3.069269-1.373225-3.069269-3.069269c0-1.696045 1.373225-3.06927 3.069269-3.06927s3.071753 1.373225 3.071753 3.06927" fill="#7d7385"/><path d="m637.019893 522.302381c0 1.698527-1.375708 3.071752-3.069269 3.071752-1.696044 0-3.071752-1.373225-3.071752-3.071752 0-1.693562 1.375708-3.06927 3.071752-3.06927 1.693561 0 3.069269 1.375708 3.069269 3.06927" fill="#867b8a"/><path d="m646.808777 503.551529c0 1.693561-1.373225 3.069269-3.06927 3.069269-1.696044 0-3.069269-1.375708-3.069269-3.069269 0-1.698528 1.373225-3.071753 3.069269-3.071753 1.696045 0 3.06927 1.373225 3.06927 3.071753" fill="#8e8492"/><path d="m654.444702 482.973022c0 1.696044-1.375709 3.069269-3.071753 3.069269-1.693561 0-3.069269-1.373225-3.069269-3.069269 0-1.696045 1.375708-3.071753 3.069269-3.071753 1.696044 0 3.071753 1.375708 3.071753 3.071753" fill="#958d9b"/><path d="m663.071434 464.721299c0 1.693561-1.375708 3.069269-3.069269 3.069269s-3.069269-1.375708-3.069269-3.069269c0-1.696044 1.375708-3.071753 3.069269-3.071753s3.069269 1.375709 3.069269 3.071753" fill="#9c96a2"/><path d="m672.033403 446.630986c0 1.693561-1.375708 3.069269-3.06927 3.069269-1.693561 0-3.069269-1.375708-3.069269-3.069269 0-1.696045 1.375708-3.069269 3.069269-3.069269 1.693562 0 3.06927 1.373224 3.06927 3.069269" fill="#a69eaa"/><path d="m680.165973 427.048253c0 1.696045-1.375708 3.071753-3.069269 3.071753-1.696045 0-3.071753-1.375708-3.071753-3.071753 0-1.693561 1.375708-3.069269 3.071753-3.069269 1.693561 0 3.069269 1.375708 3.069269 3.069269" fill="#b1a8b4"/><path d="m687.260554 407.798273c0 1.487453-1.206848 2.694302-2.696785 2.694302-1.487453 0-2.694302-1.206849-2.694302-2.694302 0-1.489937 1.206849-2.696785 2.694302-2.696785 1.489937 0 2.696785 1.206848 2.696785 2.696785" fill="#b8b2bc"/><path d="m695.393125 391.369239c0 1.489936-1.206849 2.694302-2.696785 2.694302-1.489937 0-2.696786-1.204366-2.696786-2.694302 0-1.489937 1.206849-2.696785 2.696786-2.696785 1.489936 0 2.696785 1.206848 2.696785 2.696785" fill="#c1bcc3"/><path d="m702.529921 373.445302c0 1.489937-1.206849 2.696785-2.696785 2.696785-1.489937 0-2.696786-1.206848-2.696786-2.696785 0-1.489936 1.206849-2.696785 2.696786-2.696785 1.489936 0 2.696785 1.206849 2.696785 2.696785m5.39357-16.925679c0 1.489936-1.209332 2.696785-2.696785 2.696785-1.489937 0-2.696785-1.206849-2.696785-2.696785 0-1.487454 1.206848-2.696785 2.696785-2.696785 1.487453 0 2.696785 1.209331 2.696785 2.696785" fill="#d6d3d8"/><path d="m714.630689 340.393543c0 1.489936-1.206849 2.696785-2.694302 2.696785-1.49242 0-2.699268-1.206849-2.699268-2.696785 0-1.489937 1.206848-2.696785 2.699268-2.696785 1.487453 0 2.694302 1.206848 2.694302 2.696785" fill="#e2e1e5"/><path d="m721.27084 323.800616c0 1.214298-.985842 2.197656-2.20014 2.197656s-2.20014-.983358-2.20014-2.197656.985842-2.197657 2.20014-2.197657 2.20014.983359 2.20014 2.197657" fill="#efeff2"/><path d="m727.118841 307.681985c0 1.144768-.928728 2.073496-2.071012 2.073496-1.147251 0-2.075979-.928728-2.075979-2.073496 0-1.147251.928728-2.073495 2.075979-2.073495 1.142284 0 2.071012.926244 2.071012 2.073495m23.955696 11.581774c0 1.581816-1.281345 2.860678-2.863161 2.860678s-2.863162-1.278862-2.863162-2.860678 1.281346-2.863161 2.863162-2.863161 2.863161 1.281345 2.863161 2.863161" fill="#fff"/><path d="m753.937699 332.042448c0 1.581816-1.283829 2.863162-2.863162 2.863162-1.581816 0-2.863161-1.281346-2.863161-2.863162 0-1.579332 1.281345-2.863161 2.863161-2.863161 1.579333 0 2.863162 1.283829 2.863162 2.863161" fill="#f4f2f4"/><path d="m755.179312 345.06946c0 1.579333-1.281345 2.860678-2.860678 2.860678-1.584299 0-2.863161-1.281345-2.863161-2.860678 0-1.581816 1.278862-2.863161 2.863161-2.863161 1.579333 0 2.860678 1.281345 2.860678 2.863161" fill="#e7e6ea"/><path d="m756.09314 358.262849c0 1.489936-1.209332 2.696785-2.696785 2.696785-1.489937 0-2.696785-1.206849-2.696785-2.696785 0-1.489937 1.206848-2.696786 2.696785-2.696786 1.487453 0 2.696785 1.206849 2.696785 2.696786" fill="#dfdce0"/><path d="m756.09314 373.363356c0 1.489936-1.209332 2.696785-2.696785 2.696785-1.489937 0-2.696785-1.206849-2.696785-2.696785 0-1.489937 1.206848-2.694302 2.696785-2.694302 1.487453 0 2.696785 1.204365 2.696785 2.694302" fill="#d4d2d6"/><path d="m755.348172 389.129368c0 1.489936-1.206849 2.696785-2.696785 2.696785-1.489937 0-2.696785-1.206849-2.696785-2.696785 0-1.489937 1.206848-2.696786 2.696785-2.696786 1.489936 0 2.696785 1.206849 2.696785 2.696786" fill="#ccc8ce"/><path d="m753.853269 405.225649c0 1.489936-1.206849 2.694302-2.694302 2.694302-1.49242 0-2.699268-1.204366-2.699268-2.694302 0-1.489937 1.206848-2.696785 2.699268-2.696785 1.487453 0 2.694302 1.206848 2.694302 2.696785" fill="#c4bfc6"/><path d="m750.784 421.324413c0 1.718394-1.393091 3.111485-3.109001 3.111485-1.720877 0-3.111485-1.393091-3.111485-3.111485 0-1.718393 1.390608-3.111484 3.111485-3.111484 1.71591 0 3.109001 1.393091 3.109001 3.111484" fill="#bdb8c1"/><path d="m746.634526 438.498416c0 1.718393-1.39309 3.111484-3.109001 3.111484-1.720876 0-3.113967-1.393091-3.113967-3.111484 0-1.718394 1.393091-3.111485 3.113967-3.111485 1.715911 0 3.109001 1.393091 3.109001 3.111485" fill="#b7b0ba"/><path d="m740.992633 456.918998c0 1.718393-1.393091 3.111484-3.113967 3.111484-1.715911 0-3.109001-1.393091-3.109001-3.111484 0-1.71591 1.39309-3.111484 3.109001-3.111484 1.720876 0 3.113967 1.395574 3.113967 3.111484" fill="#b1a8b4"/><path d="m734.769665 473.598838c0 1.718393-1.393091 3.111484-3.109001 3.111484-1.720877 0-3.113968-1.393091-3.113968-3.111484 0-1.715911 1.393091-3.111484 3.113968-3.111484 1.71591 0 3.109001 1.395573 3.109001 3.111484" fill="#a79fab"/><path d="m727.632869 492.682442c0 1.718393-1.393091 3.111484-3.109001 3.111484-1.718394 0-3.111484-1.393091-3.111484-3.111484 0-1.718394 1.39309-3.111484 3.111484-3.111484 1.71591 0 3.109001 1.39309 3.109001 3.111484" fill="#a097a4"/><path d="m718.921706 511.768529c0 1.718394-1.39309 3.109001-3.111484 3.109001-1.71591 0-3.111484-1.390607-3.111484-3.109001 0-1.720877 1.395574-3.111484 3.111484-3.111484 1.718394 0 3.111484 1.390607 3.111484 3.111484" fill="#9992a0"/><path d="m709.793362 529.771929c0 1.718394-1.393091 3.111484-3.111485 3.111484-1.718393 0-3.109001-1.39309-3.109001-3.111484 0-1.718393 1.390608-3.109001 3.109001-3.109001 1.718394 0 3.111485 1.390608 3.111485 3.109001" fill="#948c9b"/><path d="m702.326296 549.478824c0 1.969199-1.596715 3.568398-3.568398 3.568398-1.969199 0-3.568398-1.599199-3.568398-3.568398 0-1.971683 1.599199-3.568399 3.568398-3.568399 1.971683 0 3.568398 1.596716 3.568398 3.568399" fill="#8e8594"/><path d="m691.457209 569.724578c0 1.9692-1.599199 3.568398-3.568398 3.568398-1.9692 0-3.568398-1.599198-3.568398-3.568398 0-1.971683 1.599198-3.565915 3.568398-3.565915 1.969199 0 3.568398 1.594232 3.568398 3.565915" fill="#887e8e"/><path d="m679.589864 588.810666c0 1.969199-1.596715 3.568398-3.568398 3.568398-1.969199 0-3.568398-1.599199-3.568398-3.568398 0-1.971683 1.599199-3.568399 3.568398-3.568399 1.971683 0 3.568398 1.596716 3.568398 3.568399" fill="#837787"/><path d="m667.891379 608.808097c0 1.9692-1.596715 3.565915-3.568398 3.565915-1.9692 0-3.565915-1.596715-3.565915-3.565915 0-1.971682 1.596715-3.568398 3.565915-3.568398 1.971683 0 3.568398 1.596716 3.568398 3.568398" fill="#7c7283"/><path d="m653.702217 627.891702c0 1.969199-1.596716 3.568398-3.568399 3.568398-1.969199 0-3.568398-1.599199-3.568398-3.568398 0-1.971683 1.599199-3.568399 3.568398-3.568399 1.971683 0 3.568399 1.596716 3.568399 3.568399" fill="#766c7f"/><path d="m640.426882 648.467725c0 1.9692-1.599199 3.568398-3.568398 3.568398-1.9692 0-3.568398-1.599198-3.568398-3.568398 0-1.969199 1.599198-3.568398 3.568398-3.568398 1.969199 0 3.568398 1.599199 3.568398 3.568398" fill="#72677a"/><path d="m626.818794 668.298781c0 1.9692-1.599198 3.568398-3.568398 3.568398-1.969199 0-3.568398-1.599198-3.568398-3.568398 0-1.969199 1.599199-3.568398 3.568398-3.568398 1.9692 0 3.568398 1.599199 3.568398 3.568398" fill="#6b6074"/><path d="m611.88218 688.626482c0 1.971683-1.596715 3.568398-3.565914 3.568398-1.971683 0-3.568398-1.596715-3.568398-3.568398 0-1.966716 1.596715-3.565915 3.568398-3.565915 1.969199 0 3.565914 1.599199 3.565914 3.565915" fill="#675a70"/><path d="m595.867846 708.956667c0 1.969199-1.596716 3.568398-3.568398 3.568398-1.9692 0-3.568398-1.599199-3.568398-3.568398 0-1.9692 1.599198-3.568398 3.568398-3.568398 1.971682 0 3.568398 1.599198 3.568398 3.568398" fill="#62566b"/><path d="m580.350156 729.203911c0 2.105777-1.705977 3.816721-3.814237 3.816721s-3.816721-1.710944-3.816721-3.816721c0-2.10826 1.708461-3.816721 3.816721-3.816721s3.814237 1.708461 3.814237 3.816721" fill="#5d5166"/><path d="m563.094208 748.952027c0 2.10826-1.705978 3.816721-3.816721 3.816721-2.10826 0-3.814238-1.708461-3.814238-3.816721s1.705978-3.819204 3.814238-3.819204c2.110743 0 3.816721 1.710944 3.816721 3.819204" fill="#584b62"/><path d="m546.583227 769.860555c0 2.10826-1.70846 3.819204-3.819204 3.819204-2.10826 0-3.814237-1.710944-3.814237-3.819204 0-2.105777 1.705977-3.816721 3.814237-3.816721 2.110744 0 3.819204 1.710944 3.819204 3.816721" fill="#53475e"/><path d="m529.488689 788.861964c0 2.108261-1.705978 3.816721-3.816721 3.816721-2.105777 0-3.816721-1.70846-3.816721-3.816721 0-2.10826 1.710944-3.81672 3.816721-3.81672 2.110743 0 3.816721 1.70846 3.816721 3.81672" fill="#4e425a"/><path d="m511.482805 807.699481c0 2.10826-1.705977 3.81672-3.816721 3.81672-2.10826 0-3.814237-1.70846-3.814237-3.81672 0-2.110744 1.705977-3.819204 3.814237-3.819204 2.110744 0 3.816721 1.70846 3.816721 3.819204" fill="#4a3f56"/><path d="m492.483631 827.695174c0 2.10826-1.708461 3.816721-3.816721 3.816721s-3.819204-1.708461-3.819204-3.816721 1.710944-3.816721 3.819204-3.816721 3.816721 1.708461 3.816721 3.816721" fill="#453850"/><path d="m474.723587 845.784494c0 2.105777-1.705977 3.816721-3.816721 3.816721-2.10826 0-3.816721-1.710944-3.816721-3.816721 0-2.10826 1.708461-3.816721 3.816721-3.816721 2.110744 0 3.816721 1.708461 3.816721 3.816721" fill="#41354d"/><path d="m456.221058 864.245056c0 2.406248-1.949333 4.355582-4.355581 4.355582s-4.355581-1.949334-4.355581-4.355582c0-2.403764 1.949333-4.355581 4.355581-4.355581s4.355581 1.951817 4.355581 4.355581" fill="#3d2f4a"/><path d="m436.474432 882.583196c0 2.403764-1.949333 4.355581-4.355581 4.355581-2.406247 0-4.355581-1.951817-4.355581-4.355581 0-2.406248 1.949334-4.355582 4.355581-4.355582 2.406248 0 4.355581 1.949334 4.355581 4.355582" fill="#382b46"/><path d="m417.140022 899.759681c0 2.403764-1.949333 4.353098-4.355581 4.353098s-4.355581-1.949334-4.355581-4.353098c0-2.406248 1.949333-4.358065 4.355581-4.358065s4.355581 1.951817 4.355581 4.358065" fill="#322641"/><path d="m397.808095 917.515752c0 2.403764-1.949333 4.355581-4.355581 4.355581-2.408731 0-4.358064-1.951817-4.358064-4.355581 0-2.406248 1.949333-4.355582 4.358064-4.355582 2.406248 0 4.355581 1.949334 4.355581 4.355582" fill="#2f223e"/><path d="m378.890867 935.438943c0 2.403765-1.949333 4.355582-4.355581 4.355582-2.406247 0-4.355581-1.951817-4.355581-4.355582 0-2.406247 1.949334-4.355581 4.355581-4.355581 2.406248 0 4.355581 1.949334 4.355581 4.355581" fill="#2b1d3a"/><path d="m357.316586 951.202969c0 2.406247-1.949334 4.355581-4.355581 4.355581-2.406248 0-4.355581-1.949334-4.355581-4.355581 0-2.406248 1.949333-4.355581 4.355581-4.355581 2.406247 0 4.355581 1.949333 4.355581 4.355581" fill="#261837"/><path d="m336.157004 966.305959c0 2.403764-1.949334 4.353098-4.355582 4.353098-2.406247 0-4.358064-1.949334-4.358064-4.353098 0-2.406247 1.951817-4.358064 4.358064-4.358064 2.406248 0 4.355582 1.951817 4.355582 4.358064m-250.3860743-247.850947c0 1.651347-1.3384597 2.987323-2.9873228 2.987323s-2.9873228-1.335976-2.9873228-2.987323c0-1.651346 1.3384597-2.987323 2.9873228-2.987323s2.9873228 1.335977 2.9873228 2.987323" fill="#221435"/><path d="m93.4873111 705.698672c0 1.651346-1.3384596 2.987323-2.9873228 2.987323-1.6488631 0-2.9873228-1.335977-2.9873228-2.987323 0-1.648863 1.3384597-2.987323 2.9873228-2.987323 1.6488632 0 2.9873228 1.33846 2.9873228 2.987323" fill="#261837"/><path d="m100.893289 692.413404c0 1.529669-1.2416137 2.768799-2.7687986 2.768799-1.5296682 0-2.771282-1.23913-2.771282-2.768799 0-1.529668 1.2416138-2.768798 2.771282-2.768798 1.5271849 0 2.7687986 1.23913 2.7687986 2.768798" fill="#2b1f3c"/><path d="m108.671503 677.725113c0 1.529668-1.239131 2.768799-2.768799 2.768799s-2.768799-1.239131-2.768799-2.768799 1.239131-2.768799 2.768799-2.768799 2.768799 1.239131 2.768799 2.768799" fill="#2f223f"/><path d="m116.512791 662.478096c0 1.532151-1.241614 2.771282-2.768799 2.771282-1.529668 0-2.768799-1.239131-2.768799-2.771282 0-1.529669 1.239131-2.768799 2.768799-2.768799 1.527185 0 2.768799 1.23913 2.768799 2.768799" fill="#352844"/><path d="m127.963947 647.012554c0 1.889736-1.534635 3.424371-3.421888 3.424371-1.89222 0-3.424371-1.534635-3.424371-3.424371s1.532151-3.421888 3.424371-3.421888c1.887253 0 3.421888 1.532152 3.421888 3.421888" fill="#392d47"/><path d="m137.919951 630.086875c0 1.892219-1.532151 3.424371-3.421888 3.424371-1.892219 0-3.424371-1.532152-3.424371-3.424371 0-1.889736 1.532152-3.421888 3.424371-3.421888 1.889737 0 3.421888 1.532152 3.421888 3.421888" fill="#3f324b"/><path d="m148.623904 613.344954c0 1.889736-1.532152 3.421888-3.421888 3.421888-1.89222 0-3.424371-1.532152-3.424371-3.421888s1.532151-3.421887 3.424371-3.421887c1.889736 0 3.421888 1.532151 3.421888 3.421887" fill="#433850"/><path d="m160.571953 593.931081c0 1.892219-1.532151 3.424371-3.421888 3.424371-1.892219 0-3.42437-1.532152-3.42437-3.424371 0-1.889736 1.532151-3.421888 3.42437-3.421888 1.889737 0 3.421888 1.532152 3.421888 3.421888" fill="#483d54"/><path d="m171.711464 575.324256c0 1.889737-1.532152 3.421888-3.421888 3.421888s-3.421887-1.532151-3.421887-3.421888c0-1.889736 1.532151-3.421887 3.421887-3.421887s3.421888 1.532151 3.421888 3.421887" fill="#4d4259"/><path d="m183.847494 556.156223c0 1.889736-1.532152 3.421887-3.421888 3.421887-1.892219 0-3.424371-1.532151-3.424371-3.421887 0-1.889737 1.532152-3.421888 3.424371-3.421888 1.889736 0 3.421888 1.532151 3.421888 3.421888" fill="#52465d"/><path d="m197.040882 537.797721c0 1.889736-1.532151 3.421888-3.421888 3.421888-1.889736 0-3.42437-1.532152-3.42437-3.421888s1.534634-3.421888 3.42437-3.421888c1.889737 0 3.421888 1.532152 3.421888 3.421888" fill="#584b62"/><path d="m210.668338 517.010623c0 1.889736-1.532151 3.424371-3.421887 3.424371s-3.421888-1.534635-3.421888-3.424371c0-1.889737 1.532152-3.421888 3.421888-3.421888s3.421887 1.532151 3.421887 3.421888" fill="#5d5166"/><path d="m222.991107 497.782991c0 1.889737-1.532151 3.421888-3.421888 3.421888-1.892219 0-3.42437-1.532151-3.42437-3.421888 0-1.892219 1.532151-3.421887 3.42437-3.421887 1.889737 0 3.421888 1.529668 3.421888 3.421887" fill="#62576d"/><path d="m237.552009 477.807908c0 1.889737-1.532152 3.421888-3.421888 3.421888s-3.424371-1.532151-3.424371-3.421888c0-1.889736 1.534635-3.421887 3.424371-3.421887s3.421888 1.532151 3.421888 3.421887" fill="#685d70"/><path d="m252.487133 458.016585c0 1.892219-1.532152 3.421887-3.421888 3.421887-1.891474 0-3.423626-1.529668-3.423626-3.421887 0-1.889737 1.532152-3.421888 3.423626-3.421888 1.889736 0 3.421888 1.532151 3.421888 3.421888" fill="#6d6276"/><path d="m267.04878 438.16318c0 1.892219-1.532152 3.424371-3.421888 3.424371s-3.421888-1.532152-3.421888-3.424371c0-1.889736 1.532152-3.421888 3.421888-3.421888s3.421888 1.532152 3.421888 3.421888" fill="#73697d"/><path d="m280.989619 417.880177c0 1.889736-1.532151 3.421887-3.421887 3.421887-1.89222 0-3.424371-1.532151-3.424371-3.421887s1.532151-3.421888 3.424371-3.421888c1.889736 0 3.421887 1.532152 3.421887 3.421888" fill="#796f81"/><path d="m297.418653 399.33295c0 1.889736-1.532151 3.421887-3.421888 3.421887-1.892219 0-3.421887-1.532151-3.421887-3.421887s1.529668-3.421888 3.421887-3.421888c1.889737 0 3.421888 1.532152 3.421888 3.421888" fill="#817687"/><path d="m313.100235 379.419948c0 1.889736-1.534634 3.421887-3.421887 3.421887-1.89222 0-3.424371-1.532151-3.424371-3.421887 0-1.889737 1.532151-3.421888 3.424371-3.421888 1.887253 0 3.421887 1.532151 3.421887 3.421888" fill="#877c8b"/><path d="m329.280946 361.247688c0 1.889736-1.532151 3.421888-3.421887 3.421888-1.89222 0-3.421888-1.532152-3.421888-3.421888s1.529668-3.421888 3.421888-3.421888c1.889736 0 3.421887 1.532152 3.421887 3.421888" fill="#8d8392"/><path d="m347.577367 343.385832c0 2.130609-1.728326 3.858936-3.858935 3.858936-2.13061 0-3.858936-1.728327-3.858936-3.858936 0-2.128126 1.728326-3.858936 3.858936-3.858936 2.130609 0 3.858935 1.73081 3.858935 3.858936" fill="#948d9a"/><path d="m364.753853 325.963507c0 2.130609-1.728327 3.858936-3.858936 3.858936s-3.856452-1.728327-3.856452-3.858936 1.725843-3.858936 3.856452-3.858936 3.858936 1.728327 3.858936 3.858936" fill="#9992a0"/><path d="m380.435435 307.667086c0 2.130609-1.728326 3.858936-3.858936 3.858936-2.130609 0-3.856452-1.728327-3.856452-3.858936s1.725843-3.858936 3.856452-3.858936c2.13061 0 3.858936 1.728327 3.858936 3.858936" fill="#a098a5"/><path d="m398.483533 292.854633c0 2.13061-1.728326 3.858936-3.858935 3.858936-2.13061 0-3.856453-1.728326-3.856453-3.858936 0-2.130609 1.725843-3.858935 3.856453-3.858935 2.130609 0 3.858935 1.728326 3.858935 3.858935" fill="#a8a1ad"/><path d="m415.908341 277.793858c0 2.130609-1.725843 3.861419-3.858935 3.861419-2.13061 0-3.858936-1.73081-3.858936-3.861419s1.728326-3.856452 3.858936-3.856452c2.133092 0 3.858935 1.725843 3.858935 3.856452" fill="#b2abb5"/><path d="m433.578989 261.988114c0 2.13061-1.725843 3.858936-3.856452 3.858936-2.133093 0-3.858936-1.728326-3.858936-3.858936 0-2.130609 1.725843-3.858935 3.858936-3.858935 2.130609 0 3.856452 1.728326 3.856452 3.858935" fill="#bab3bd"/><path d="m451.254603 249.542178c0 2.130609-1.725843 3.858935-3.858936 3.858935-2.130609 0-3.856452-1.728326-3.856452-3.858935 0-2.13061 1.725843-3.858936 3.856452-3.858936 2.133093 0 3.858936 1.728326 3.858936 3.858936" fill="#c1bcc3"/><path d="m468.55525 237.843692c0 2.13061-1.728327 3.858936-3.858936 3.858936-2.133092 0-3.858936-1.728326-3.858936-3.858936 0-2.130609 1.725844-3.858935 3.858936-3.858935 2.130609 0 3.858936 1.728326 3.858936 3.858935" fill="#c7c3ca"/><path d="m487.224155 226.766014c0 2.130609-1.728327 3.858936-3.856453 3.858936-2.133092 0-3.858935-1.728327-3.858935-3.858936s1.725843-3.856452 3.858935-3.856452c2.128126 0 3.856453 1.725843 3.856453 3.856452" fill="#d2ced5"/><path d="m505.272253 216.932433c0 2.130609-1.728326 3.858935-3.858936 3.858935-2.130609 0-3.856452-1.728326-3.856452-3.858935 0-2.13061 1.725843-3.856453 3.856452-3.856453 2.13061 0 3.858936 1.725843 3.858936 3.856453" fill="#dbd7dc"/><path d="m524.437804 207.59798c0 2.336717-1.894703 4.23142-4.23142 4.23142s-4.23142-1.894703-4.23142-4.23142 1.894703-4.23142 4.23142-4.23142 4.23142 1.894703 4.23142 4.23142" fill="#e6e4e8"/><path d="m543.481676 200.503399c0 2.336717-1.894702 4.23142-4.23142 4.23142-2.336717 0-4.231419-1.894703-4.231419-4.23142s1.894702-4.233903 4.231419-4.233903c2.336718 0 4.23142 1.897186 4.23142 4.233903" fill="#f1f0f2"/><path d="m561.15729 194.779559c0 2.336718-1.897186 4.23142-4.233903 4.23142s-4.23142-1.894702-4.23142-4.23142c0-2.336717 1.894703-4.231419 4.23142-4.231419s4.233903 1.894702 4.233903 4.231419" fill="#fff"/><path d="m257.853388 570.963709c0 1.375708-1.114969 2.488194-2.488194 2.488194-1.375708 0-2.488194-1.112486-2.488194-2.488194s1.112486-2.490678 2.488194-2.490678c1.373225 0 2.488194 1.11497 2.488194 2.490678" fill="#221435"/><path d="m280.381229 543.831964c0 1.375708-1.11497 2.488194-2.488195 2.488194-1.375708 0-2.490677-1.112486-2.490677-2.488194s1.114969-2.488194 2.490677-2.488194c1.373225 0 2.488195 1.112486 2.488195 2.488194" fill="#271a37"/><path d="m300.917521 519.312575c0 1.373224-1.114969 2.488194-2.488194 2.488194-1.375708 0-2.490678-1.11497-2.490678-2.488194 0-1.375708 1.11497-2.490678 2.490678-2.490678 1.373225 0 2.488194 1.11497 2.488194 2.490678" fill="#2e213d"/><path d="m319.834749 495.292314c0 1.373225-1.112486 2.488194-2.488194 2.488194s-2.488194-1.114969-2.488194-2.488194c0-1.375708 1.112486-2.490677 2.488194-2.490677s2.488194 1.114969 2.488194 2.490677" fill="#342742"/><path d="m337.882847 474.256893c0 1.375708-1.112486 2.490677-2.488194 2.490677s-2.488194-1.114969-2.488194-2.490677c0-1.373225 1.112486-2.488194 2.488194-2.488194s2.488194 1.114969 2.488194 2.488194" fill="#3b2e48"/><path d="m352.198654 454.341408c0 1.375708-1.114969 2.490677-2.490677 2.490677s-2.488194-1.114969-2.488194-2.490677c0-1.373225 1.112486-2.488194 2.488194-2.488194s2.490677 1.114969 2.490677 2.488194" fill="#41344d"/><path d="m366.137011 435.548341c0 1.375708-1.11497 2.490677-2.488195 2.490677-1.375708 0-2.490677-1.114969-2.490677-2.490677 0-1.373225 1.114969-2.488194 2.490677-2.488194 1.373225 0 2.488195 1.114969 2.488195 2.488194" fill="#473b52"/><path d="m378.955431 417.378565c0 1.373225-1.114969 2.488194-2.488194 2.488194-1.375708 0-2.490677-1.114969-2.490677-2.488194 0-1.375708 1.114969-2.488194 2.490677-2.488194 1.373225 0 2.488194 1.112486 2.488194 2.488194" fill="#4d4259"/><path d="m390.780561 400.512483c0 1.375708-1.114969 2.490677-2.488194 2.490677-1.375708 0-2.488194-1.114969-2.488194-2.490677 0-1.373225 1.112486-2.488194 2.488194-2.488194 1.373225 0 2.488194 1.114969 2.488194 2.488194" fill="#53475e"/><path d="m401.85824 385.575869c0 1.375708-1.11497 2.490677-2.488194 2.490677-1.375709 0-2.488195-1.114969-2.488195-2.490677 0-1.373225 1.112486-2.488194 2.488195-2.488194 1.373224 0 2.488194 1.114969 2.488194 2.488194" fill="#5a4f66"/><path d="m411.813499 370.890061c0 1.375708-1.114969 2.488194-2.488194 2.488194-1.378191 0-2.490677-1.112486-2.490677-2.488194s1.112486-2.488194 2.490677-2.488194c1.373225 0 2.488194 1.112486 2.488194 2.488194" fill="#61566a"/><path d="m421.480704 355.789554c0 1.375708-1.112486 2.490677-2.488194 2.490677s-2.490677-1.114969-2.490677-2.490677c0-1.373225 1.114969-2.488194 2.490677-2.488194s2.488194 1.114969 2.488194 2.488194" fill="#675c72"/><path d="m430.609049 342.63838c0 1.375709-1.114969 2.490678-2.488194 2.490678-1.375708 0-2.490678-1.114969-2.490678-2.490678 0-1.375708 1.11497-2.488194 2.490678-2.488194 1.373225 0 2.488194 1.112486 2.488194 2.488194" fill="#6f6576"/><path d="m440.482362 329.941638c0 1.375708-1.114969 2.488194-2.490678 2.488194-1.373224 0-2.488194-1.112486-2.488194-2.488194s1.11497-2.488194 2.488194-2.488194c1.375709 0 2.490678 1.112486 2.490678 2.488194" fill="#766c7f"/><path d="m449.3599 316.835162c0 1.370742-1.114969 2.488194-2.488194 2.488194-1.375708 0-2.490677-1.117452-2.490677-2.488194 0-1.375708 1.114969-2.490677 2.490677-2.490677 1.373225 0 2.488194 1.114969 2.488194 2.490677" fill="#807585"/><path d="m458.239922 305.007549c0 1.375708-1.112486 2.490678-2.488194 2.490678s-2.490677-1.11497-2.490677-2.490678c0-1.373225 1.114969-2.488194 2.490677-2.488194s2.488194 1.114969 2.488194 2.488194" fill="#877c8c"/><path d="m468.237397 292.271075c0 1.10007-.891479 1.994032-1.991549 1.994032-1.097587 0-1.991548-.893962-1.991548-1.994032 0-1.097587.893961-1.991549 1.991548-1.991549 1.10007 0 1.991549.893962 1.991549 1.991549" fill="#8e8695"/><path d="m478.691785 280.448428c0 1.10007-.891479 1.991549-1.991549 1.991549s-1.991548-.891479-1.991548-1.991549c0-1.100069.891478-1.991548 1.991548-1.991548s1.991549.891479 1.991549 1.991548" fill="#98909e"/><path d="m491.512689 269.537126c0 1.10007-.891479 1.991549-1.991549 1.991549-1.100069 0-1.991548-.891479-1.991548-1.991549s.891479-1.991548 1.991548-1.991548c1.10007 0 1.991549.891478 1.991549 1.991548" fill="#a097a4"/><path d="m504.706077 256.800652c0 1.097587-.891479 1.989065-1.991548 1.989065-1.10007 0-1.991549-.891478-1.991549-1.989065 0-1.102553.891479-1.991549 1.991549-1.991549 1.100069 0 1.991548.888996 1.991548 1.991549" fill="#a8a2ad"/><path d="m518.562487 244.769414c0 1.10007-.891479 1.991549-1.991548 1.991549-1.10007 0-1.991549-.891479-1.991549-1.991549s.891479-1.991548 1.991549-1.991548c1.100069 0 1.991548.891478 1.991548 1.991548" fill="#b4adb8"/><path d="m534.452661 231.615758c0 1.100069-.891479 1.991548-1.991549 1.991548s-1.991548-.891479-1.991548-1.991548c0-1.10007.891478-1.991549 1.991548-1.991549s1.991549.891479 1.991549 1.991549" fill="#beb9c1"/><path d="m553.412103 219.420627c0 1.10007-.891478 1.991548-1.991548 1.991548s-1.991549-.891478-1.991549-1.991548.891479-1.991549 1.991549-1.991549 1.991548.891479 1.991548 1.991549" fill="#c7c3ca"/><path d="m572.413761 205.852271c0 1.10007-.891479 1.991549-1.991549 1.991549-1.100069 0-1.991548-.891479-1.991548-1.991549s.891479-1.989065 1.991548-1.989065c1.10007 0 1.991549.888995 1.991549 1.989065" fill="#d3d1d8"/><path d="m594.276097 191.913915c0 1.10007-.891479 1.991548-1.991549 1.991548s-1.991548-.891478-1.991548-1.991548.891478-1.991549 1.991548-1.991549 1.991549.891479 1.991549 1.991549" fill="#e0dee2"/><path d="m475.242582 307.103393c0 1.102554-.891479 1.994032-1.991549 1.994032s-1.991548-.891478-1.991548-1.994032c0-1.097586.891478-1.991548 1.991548-1.991548s1.991549.893962 1.991549 1.991548" fill="#8e8695"/><path d="m3.15369905 622.555245c0 .871613-.70523663 1.57685-1.5743663 1.57685-.87161288 0-1.57933275-.705237-1.57933275-1.57685 0-.871612.70771987-1.576849 1.57933275-1.576849.86912967 0 1.5743663.705237 1.5743663 1.576849" fill="#37184c"/><path d="m21.7622617 605.257082c0 .86913-.7052366 1.574366-1.5768495 1.574366s-1.5768495-.705236-1.5768495-1.574366c0-.871613.7052366-1.579333 1.5768495-1.579333s1.5768495.70772 1.5768495 1.579333" fill="#3c1d50"/><path d="m39.6226279 586.958178c0 .871613-.7052366 1.576849-1.5768495 1.576849-.8691296 0-1.5768495-.705236-1.5768495-1.576849s.7077199-1.57685 1.5768495-1.57685c.8716129 0 1.5768495.705237 1.5768495 1.57685" fill="#3e2554"/><path d="m57.6707261 569.347128c0 .869129-.7077198 1.576849-1.5768495 1.576849-.8716129 0-1.5793327-.70772-1.5793327-1.576849 0-.871613.7077198-1.57685 1.5793327-1.57685.8691297 0 1.5768495.705237 1.5768495 1.57685" fill="#432857"/><path d="m73.4128992 552.232723c0 .871613-.7052366 1.576849-1.5768495 1.576849-.8691297 0-1.5743663-.705236-1.5743663-1.576849s.7052366-1.57685 1.5743663-1.57685c.8716129 0 1.5768495.705237 1.5768495 1.57685" fill="#492f5b"/><path d="m89.967336 534.497511c0 1.008191-.8169819 1.825173-1.8251723 1.825173s-1.8251723-.816982-1.8251723-1.825173c0-1.00819.8169819-1.825172 1.8251723-1.825172s1.8251723.816982 1.8251723 1.825172" fill="#4b345e"/><path d="m105.152769 516.576058c0 1.00819-.816981 1.825172-1.825172 1.825172-1.00819 0-1.827655-.816982-1.827655-1.825172 0-1.008191.819465-1.825172 1.827655-1.825172 1.008191 0 1.825172.816981 1.825172 1.825172" fill="#513964"/><path d="m120.025565 499.585815c0 1.00819-.816982 1.825172-1.825173 1.825172-1.00819 0-1.827655-.816982-1.827655-1.825172 0-1.008191.819465-1.825173 1.827655-1.825173 1.008191 0 1.825173.816982 1.825173 1.825173" fill="#553e66"/><path d="m134.961185 481.537716c0 1.008191-.819465 1.825173-1.825172 1.825173-1.00819 0-1.827656-.816982-1.827656-1.825173 0-1.00819.819466-1.825172 1.827656-1.825172 1.005707 0 1.825172.816982 1.825172 1.825172" fill="#594469"/><path d="m147.593364 463.67586c0 1.008191-.816982 1.825172-1.825172 1.825172-1.008191 0-1.827656-.816981-1.827656-1.825172 0-1.005707.819465-1.822689 1.827656-1.822689 1.00819 0 1.825172.816982 1.825172 1.822689" fill="#5e486e"/><path d="m160.786752 446.626019c0 1.005708-.816982 1.825173-1.822689 1.825173-1.010673 0-1.827655-.819465-1.827655-1.825173 0-1.00819.816982-1.825172 1.827655-1.825172 1.005707 0 1.822689.816982 1.822689 1.825172" fill="#634e71"/><path d="m175.223989 429.886582c0 1.008191-.816982 1.825173-1.825172 1.825173s-1.825172-.816982-1.825172-1.825173c0-1.00819.816982-1.825172 1.825172-1.825172s1.825172.816982 1.825172 1.825172" fill="#665375"/><path d="m187.733497 411.776403c0 1.008191-.819465 1.825173-1.825173 1.825173-1.00819 0-1.825172-.816982-1.825172-1.825173 0-1.00819.816982-1.825172 1.825172-1.825172 1.005708 0 1.825173.816982 1.825173 1.825172" fill="#6c5779"/><path d="m200.738905 396.469788c0 1.281346-1.040473 2.321818-2.324301 2.321818-1.281346 0-2.321818-1.040472-2.321818-2.321818 0-1.286312 1.040472-2.326784 2.321818-2.326784 1.283828 0 2.324301 1.040472 2.324301 2.326784" fill="#705d7c"/><path d="m214.804154 379.541626c0 1.283829-1.040472 2.321818-2.321818 2.321818-1.286312 0-2.326784-1.037989-2.326784-2.321818s1.040472-2.324301 2.326784-2.324301c1.281346 0 2.321818 1.040472 2.321818 2.324301" fill="#766382"/><path d="m227.996301 363.514875c0 1.368258-1.110003 2.478261-2.478261 2.478261-1.370742 0-2.478262-1.110003-2.478262-2.478261 0-1.368259 1.10752-2.480744 2.478262-2.480744 1.368258 0 2.478261 1.112485 2.478261 2.480744" fill="#796786"/><path d="m240.941118 347.709131c0 1.368259-1.110003 2.480745-2.478261 2.480745-1.370742 0-2.480745-1.112486-2.480745-2.480745 0-1.368258 1.110003-2.478261 2.480745-2.478261 1.368258 0 2.478261 1.110003 2.478261 2.478261" fill="#7f6c8c"/><path d="m253.698948 332.648356c0 1.370741-1.110003 2.480744-2.478261 2.480744-1.368259 0-2.480745-1.110003-2.480745-2.480744 0-1.368259 1.112486-2.478261 2.480745-2.478261 1.368258 0 2.478261 1.110002 2.478261 2.478261" fill="#857390"/><path d="m267.88811 317.900467c0 1.368258-1.110002 2.478261-2.480744 2.478261-1.368258 0-2.478261-1.110003-2.478261-2.478261 0-1.370742 1.110003-2.478261 2.478261-2.478261 1.370742 0 2.480744 1.107519 2.480744 2.478261" fill="#887995"/><path d="m281.826467 302.904256c0 1.368258-1.110003 2.478261-2.478261 2.478261-1.370742 0-2.480745-1.110003-2.480745-2.478261 0-1.368259 1.110003-2.480745 2.480745-2.480745 1.368258 0 2.478261 1.112486 2.478261 2.480745" fill="#8f7f99"/><path d="m296.328516 289.708384c0 1.370742-1.110003 2.480744-2.478261 2.480744-1.370742 0-2.480744-1.110002-2.480744-2.480744 0-1.368258 1.110002-2.478261 2.480744-2.478261 1.368258 0 2.478261 1.110003 2.478261 2.478261" fill="#94859e"/><path d="m311.635131 277.359293c0 1.658796-1.345909 3.004706-3.007188 3.004706-1.66128 0-3.007189-1.34591-3.007189-3.004706 0-1.663762 1.345909-3.007188 3.007189-3.007188 1.661279 0 3.007188 1.343426 3.007188 3.007188" fill="#998aa3"/><path d="m328.126246 264.476308c0 1.658796-1.34591 3.007189-3.004706 3.007189-1.663762 0-3.009672-1.348393-3.009672-3.007189 0-1.663762 1.34591-3.007188 3.009672-3.007188 1.658796 0 3.004706 1.343426 3.004706 3.007188" fill="#a192a9"/><path d="m343.745747 252.278694c0 1.66128-1.345909 3.007189-3.007188 3.007189-1.66128 0-3.007189-1.345909-3.007189-3.007189 0-1.661279 1.345909-3.007188 3.007189-3.007188 1.661279 0 3.007188 1.345909 3.007188 3.007188" fill="#a699ad"/><path d="m361.108475 241.449339c0 1.661279-1.34591 3.007189-3.007189 3.007189s-3.007189-1.34591-3.007189-3.007189 1.34591-3.007189 3.007189-3.007189 3.007189 1.34591 3.007189 3.007189" fill="#aba0b3"/><path d="m378.533283 231.804483c0 1.661279-1.34591 3.007189-3.007189 3.007189s-3.007189-1.34591-3.007189-3.007189 1.34591-3.009672 3.007189-3.009672 3.007189 1.348393 3.007189 3.009672" fill="#b3a9bb"/><path d="m397.949639 221.84674c0 1.661279-1.345909 3.007189-3.007188 3.007189-1.66128 0-3.009672-1.34591-3.009672-3.007189 0-1.658796 1.348392-3.007188 3.009672-3.007188 1.661279 0 3.007188 1.348392 3.007188 3.007188" fill="#b9b0c2"/><path d="m416.432302 212.636449c0 1.658796-1.345909 3.007189-3.007188 3.007189-1.66128 0-3.007189-1.348393-3.007189-3.007189 0-1.661279 1.345909-3.007189 3.007189-3.007189 1.661279 0 3.007188 1.34591 3.007188 3.007189" fill="#c0b8c6"/><path d="m436.345305 204.794416c0 1.66128-1.34591 3.007189-3.007189 3.007189s-3.007189-1.345909-3.007189-3.007189c0-1.661279 1.34591-3.007188 3.007189-3.007188s3.007189 1.345909 3.007189 3.007188" fill="#c7c0cd"/><path d="m460.559257 198.166682c0 1.919535-1.554501 3.476518-3.474036 3.476518-1.919534 0-3.476518-1.556983-3.476518-3.476518 0-1.917052 1.556984-3.474036 3.476518-3.474036 1.919535 0 3.474036 1.556984 3.474036 3.474036" fill="#cdc7d2"/><path d="m482.277565 192.380761c0 1.917052-1.5545 3.474036-3.474035 3.474036s-3.474035-1.556984-3.474035-3.474036c0-1.919534 1.5545-3.474035 3.474035-3.474035s3.474035 1.554501 3.474035 3.474035" fill="#d6d3dc"/><path d="m506.98568 187.40189c0 1.917052-1.5545 3.474036-3.474035 3.474036s-3.474036-1.556984-3.474036-3.474036c0-1.919535 1.554501-3.474035 3.474036-3.474035s3.474035 1.5545 3.474035 3.474035" fill="#dfdce3"/><path d="m532.063796 184.35497c0 1.917052-1.556984 3.474035-3.474036 3.474035-1.919535 0-3.474035-1.556983-3.474035-3.474035 0-1.919535 1.5545-3.474036 3.474035-3.474036 1.917052 0 3.474036 1.554501 3.474036 3.474036" fill="#eae7eb"/><path d="m559.113594 181.283217c0 1.917052-1.554501 3.474036-3.474035 3.474036-1.919535 0-3.476519-1.556984-3.476519-3.474036 0-1.919535 1.556984-3.474035 3.476519-3.474035 1.919534 0 3.474035 1.5545 3.474035 3.474035" fill="#f4f3f5"/></g></svg>