<svg height="1000" viewBox="0 0 1000 1000" width="1000" xmlns="http://www.w3.org/2000/svg"><g fill="none" fill-rule="evenodd" transform="translate(60.107)"><path d="m69.106 17.008 51.207 3.282-3.823 20.509z" fill="#9a57a3"/><path d="m381.338 410.655 27.096 61.126 184.811-66.747z" fill="#512e69"/><path d="m445.682 272.334 75.581-65.733-4.259 54.524z" fill="#9a57a3"/><path d="m466.695 288.52 75.054-96.872 62.399 21.201z" fill="#814598"/><path d="m416.381 300.478 125.368-37.666-58.394 109.695z" fill="#814598"/><path d="m495.443 303.773 85.242-86.376-59.422 115.809z" fill="#643e84"/><path d="m359.47 354.564 33.377 66.76 41.929-14.449z" fill="#8863aa"/><path d="m427.146 283.065-67.679 61.624 107.228 36.669z" fill="#8863aa"/><path d="m392.847 388.115-4.035-47.846 86.756 33.862z" fill="#7f509c"/><path d="m419.706 402.102 16.673 10.548 61.768-43.07z" fill="#512e69"/><path d="m397.101 316.713 140.454-119.016 11.068 12.347z" fill="#8863aa"/><path d="m347.301 335.115 177.185-138.295-108.103-40.883z" fill="#512e69"/><path d="m343.376 330.063-100.671-125.883 40.537-97.102z" fill="#7c4f9d"/><path d="m360.305 317.658 28.977-172.979-102.992-7.702z" fill="#643e84"/><path d="m250.118 194.47 78.025 104.402 48.193 5.392z" fill="#643e84"/><path d="m289.34 187.864 104.212-30.102-61.74 60.959z" fill="#814598"/><path d="m235.902 178.125 101.884-55.843-101.884-40.363z" fill="#512e69"/><path d="m223.82 175.927-22.492-52.311h48.79z" fill="#8863aa"/><path d="m226.353 92.757-14.126 24.042 50.829 16.084z" fill="#5c3c73"/><path d="m171.52 34.948-20.486 37.786 79.417 13.292z" fill="#8863aa"/><path d="m159.782 81.919 17.49-31.073 14.413 68.358z" fill="#9a57a3"/><path d="m191.684 72.731-8.401 34.345h40.536z" fill="#9a57a3"/><path d="m422.537 175.927 33.257 35.188-111.322 18.102z" fill="#643e84"/><path d="m171.52 43.258-36.992 27.747-65.421-66.864z" fill="#8863aa"/><path d="m731.713 211.509-26.482 45.606 95.894 37.817z" fill="#3a214e"/><path d="m765.714498 313.284595c-1.163906-2.167102 14.67148-60.613577 14.67148-60.613577l-52.02347 27.872063z" fill="#4a0f35"/><path d="m801.125 384.436-194.31 72.337 223.345 1.564z" fill="#3a214e"/><path d="m481.995 502.295 59.746-36.123 19.572 47.708z" fill="#3a214e"/><path d="m722.822 440.253-55.037 62.113-127.232-31.055z" fill="#512e69"/><path d="m677.68 519.013 32.655 37.94 135.125-71.219-167.78 29.243" fill="#643e84"/><path d="m722.822 556.695 91.289-42.269 39.554 46.574z" fill="#3a214e"/><path d="m850.818 489.548 9.974 29.097-65.466 20.663z" fill="#572d6a"/><path d="m853.665 508.963 4.157 30.345-19.494-25.671z" fill="#3a214e"/><path d="m544.75 484.245 74.325 39.011 63.412-26.058z" fill="#3a214e"/><path d="m836.141 565.214 21.681-14.055 2.97 28.969z" fill="#9a57a3"/><path d="m853.665 567.718 8.534 10.118 3.979-10.118z" fill="#8863aa"/><path d="m850.818 551.159 16.665-8.78-3.463 22.835z" fill="#8863aa"/><path d="m806.128 284.034 12.85 47.666 53.404-42.222z" fill="#512e69"/><path d="m824.706 343.653-11.18-64.032 31.934 1.042z" fill="#8863aa"/><path d="m855.145 272.334 17.986 12.945-5.285-33.543z" fill="#3a214e"/><path d="m858.37 251.418-4.781 44.099 18.79-50.668z" fill="#9a57a3"/><path d="m724.117 227.034-10.917 17.285 45.137 44.201z" fill="#561c55"/><path d="m742.924 172.251-115.821 52.376 60.998 56.036z" fill="#643e84"/><path d="m609.018 205.428 63.957-20.616 46.603 15.747z" fill="#8863aa"/><path d="m650.049 200.073-34.862 22.282 62.092 20.308z" fill="#8863aa"/><path d="m722.342 300.345-23.474-42.06-12.829 20.684z" fill="#643e84"/><path d="m833.258 212.849-33.649-26.812 21.869 31.362z" fill="#643e84"/><path d="m780.749 186.136 35.684 14.425-7.255 8.904z" fill="#512e69"/><path d="m728.232 179.117-1.062 27.826 31.511-31.799z" fill="#9a57a3"/><path d="m806.404 188.54-30.128.395-32.159-20.193z" fill="#512e69"/><path d="m764.352 173.893 3.265 12.144 18.054-6.074z" fill="#8863aa"/><path d="m703.469 266.525 59.25 60.773-156.901 79.579z" fill="#512e69"/><path d="m541.746 349.11 55.633 48.227-79.634 29.444z" fill="#512e69"/><path d="m467.927 408.248 62.527-62.225 4.935 51.314z" fill="#9a57a3"/><path d="m806.128 418.82 39.332 61.457-132.247 9.269z" fill="#512e69"/><path d="m645.141 525.269 121.033-72.274-72.885 96.438z" fill="#3a214e"/><path d="m631.69 391.115-122.035 88.747 176.384-58.538z" fill="#3a214e"/><path d="m621.711 402.081 123.126-55.261-29.648 73.478z" fill="#561c55"/><path d="m804.912 343.653-3.787 33.718-150.533 26.203z" fill="#3a214e"/><path d="m767.145 330.261 33.98 18.256-73.955 57.708z" fill="#512e69"/><path d="m613.619 400.556 31.522-7.005-13.367 25.271z" fill="#9a57a3"/><path d="m655.06 384.188 12.725 12.71 23.714-32.185z" fill="#9a57a3"/><path d="m702.389 361.663 5.117 22.183 10.201-29.282z" fill="#9a57a3"/><path d="m735.988 367.59-15.3-15.478 18.632-6.086z" fill="#9a57a3"/><path d="m694.048 229.219 42.517 80.335-58.882-54.896z" fill="#8863aa"/><path d="m389.514 518.112 42.674-16.898.814-63.522z" fill="#512e69"/><path d="m417.576 474.822 21.258 35.272 154.411-125.658z" fill="#643e84"/><path d="m408.223 499.564v16.778l-46.561 26.165z" fill="#9a57a3"/><path d="m612.332 402.102-78.556-74.196 10.974-47.243z" fill="#561c55"/><path d="m600.367 384.436 104.864-88.919-96.216-76.796z" fill="#643e84"/><path d="m609.407 365.593 20.386-36.311-81.17-33.765z" fill="#643e84"/><path d="m586.478 240.394 45.212 4.455 4.009 67.55z" fill="#883685"/><path d="m565.768 276.084 34.599-24.426 29.009 97.452z" fill="#6d2367"/><path d="m601.758 216.854-28.704 28.671 24.325 21.921z" fill="#d4388b"/><path d="m557.028 280.663 13.242-23.616 5.302 37.885z" fill="#d4388b"/><path d="m544.75 305.935 14.251-21.016 1.696 35.87z" fill="#b93692"/><path d="m538.064 314.426.365 29.227 8.004-22.864z" fill="#b93692"/><g stroke="#fff"><path d="m59.695 3.441 9.41-2.942 102.416 31.799 64.738 44.164 80.637 29.441 101.821 42.397 113.595 36.509 67.682 20.024 37.08-10.601 35.901-12.365 32.96 7.065 41.199-21.786 51.204 14.721 44.142 36.509-10.592-.587-7.062 1.765-44.732-28.854-28.25-7.066-21.19 23.554 36.686 25.909 35.121 46.522 49.437-3.535 6.475-31.797 14.716.588 5.295 47.109-40.612 32.977-30.019 52.407 8.244 40.632 37.668 68.896 11.77 52.409 2.946 37.097-8.241 5.3-27.076-16.488-118.3-5.3-93.583-31.797-144.786-21.201-35.901 2.946-28.842 6.477-15.893-12.365 10.006-24.144-4.116-20.021-20.013-41.809-35.314-69.486-60.622-75.963-56.503-74.786-38.257-71.251-48.261-57.12-78.869-50.642z" stroke-width=".436"/><path d="m731.043 207.188-26.287 42.595 25.305 45.737-120.654 106.582 157.738-71.841 47.673 11.188-12.36-61.828-35.12-46.522z" stroke-width=".436"/><path d="m609.406609 402.101828-82.397243 49.462141m-43.55514 17.665796-61.799238 30.033943m.00261 0-80.630507 64.185378m54.732292-59.475196-54.734902 59.475196m0 0 70.62509-47.107049m403.168193-174.895562-7.064335 35.921671m7.064335-35.921671 22.954525-16.485639m-133.016719-75.177546-104.764596-44.947781m130.662811 2.352481-128.896074-2.355092m128.303682 90.684073 37.472034 33.765013m-329.985641 179.992167 64.155756-32.976501m0 0 46.496221-17.078329m-32.962551-48.874673-59.442719 35.331592m0 0-54.145119 14.133159" stroke-width=".436"/><path d="m815.995 418-225.422 39.452 127.917 15.9 65.917 54.175 40.808 18.058 21.973 8.64 21.19 22.177" stroke-width=".436"/><path d="m59.695 3.441 92.987 49.071 58.073 49.465 51.009 56.532 81.612 61.24 87.898 53.392 81.025 91.862 20.013-180.194" stroke-width=".436"/><path d="m609.018 402.885 20.6 19.825 20.792-39.062 17.463 21.788 25.502-41.611 15.305 23.554 10.204-34.94 18.437 22.378 8.242-34.548 69.255 1.177" stroke-width=".436"/><path d="m533.779 327.903 6.769 16.784 5.006-38.867 8.238 19.433 5.593-43.282 11.769 20.316 4.51-51.133 24.33 25.909v-72.23" stroke-width=".436"/><path d="m539.961083 346.159269 69.445526 55.942559m-55.616965-76.845953 75.630408 58.590078m-58.265764-81.558747 80.043334 63.305483m-51.204038-88.527415 77.689426 64.97389m68.774845-.751958 61.295574 36.08094m-207.759845-172.535248 115.357184 104.422977m-175.389685 36.903394-24.723871 64.185379m150.193468 21.430809-117.230917 27.446475" stroke-width=".436"/><path d="m527.009366 451.563969-43.552531 17.665796m220.711562-280.295039-10.595199 17.665796m0 0-20.600615-24.733681m74.158563-14.720627 4.710427 16.488251m-1.179564.391645 46.697164-2.746737m-.002609 0 27.466617 36.900784m27.07517 57.903394 26.482777 15.900783m-26.482777-15.900783-37.27892 64.185379m-212.86172-135.436032-89.46158 160.169713m0 0-78.86899 55.35248m0 0-44.144922 14.723238m90.053971 71.250653 29.426469-26.498695m.002609 0 123.011303-32.976501m-.00261 0 175.979468-69.48564m-295.457298-12.365535 4.707818 77.140992m0 0 31.195814 17.075718m0 0 42.372967-1.767624m-73.568781-15.308094-47.673176 18.843342m0 0-63.565973 18.843342m63.565973-18.843342 32.37016 15.310705m13.536279-65.953002 189.518358-160.563969m-158.322543 209.438642 268.384737-117.772846m-313.114222 134.851175 7.061726 3.532637m-39.434495-18.843342-35.903632-40.631854m-261.907313-388.0574409-28.841905 37.0966058m90.836606 6.6762402-42.57391 50.4438639m38.256758 71.250653 82.003968-95.002611m103.587641 43.971279-126.343831 129.550914m-219.338884-275.78590048 73.571391 68.89556138m.001043 0 90.836868 6.6762402m-.001044 0-4.316369 121.6945169m-.000783 0 185.591609-51.031332m117.520589 38.078329-185.011483 165.271541m67.490894-203.34987-67.488285 203.34987m-.97862-1.569191 165.97666 16.48564m320.763121 200.214099 32.370159-25.908616m-4.118036-14.91906-62.00018 39.255875m54.351282-76.746737-91.230925 53.979113m0 0-47.673176 19.039164m101.233733-141.913838-165.778327 98.532637m0 0-29.03502 11.584856m-30.608642-70.663185 30.608642 70.663185m29.03502-11.584856 64.544594 43.381201m-64.544594-43.381201 203.448695-29.637076m0 0-54.348673 76.744126m-.002609.002611 66.118216-24.334204m0-.002611-6.469335 40.822454m-229.34691-157.417754 38.168813 10.240209m.970791-26.287207 34.541392 11.368147m5.190604-29.916449 34.437006 14.806788m-5.456788-27.172324 38.808177 14.018277m26.185277-110.148825-51.013533 35.91906m15.107292-82.441253-48.84752 40.827676m-285.934667.624021 1.657131 145.806788m-.00261 0-87.10767-71.840731m162.445797 131.315927 112.416104 48.287206m98.397037-53.355091-210.813141 5.067885m-219.425002-205.281984 141.93391-1.407311m-169.512743-114.631854 26.683722 117.772846m-97.505841-149.767624 70.822119 31.994778m171.775314 260.310705-27.664952 62.417755m36.493414 27.67624 66.39745-29.083551m-102.997859 0 15.892798 19.433421m0 0 17.179358 10.827676m160.676451-303.851175-167.740787 68.308094m-88.39684-54.796345 188.933795-34.939948m-98.882434 235.543081 81.810071-10.010443m-286.039835-212.579635 114.178403 21.984334m0 .002611 3.924921 130.331593m200.899062 109.13577 61.206846-57.117493m0 0-94.169397 8.24282m-125.954993 24.733681 80.048554 25.908616m31.297591 15.344648-21.292174 29.997389m-22.649195-60.62141 59.249605-3.532637m32.263163 17.044386-38.544602 20.642298m20.010833-30.618799 36.101966-81.652742m-35.31385 82.044387 99.161666-26.926893" stroke-width=".218"/></g><path d="m720.139485 561.712794c-1.315266 2.718015-4.582554 3.835509-7.291376 2.524804-2.706212-1.315927-3.833583-4.577024-2.513097-7.287206 1.307437-2.712794 4.574725-3.83812 7.280937-2.527415 2.706212 1.318537 3.838802 4.584856 2.523536 7.289817m137.132145-71.250653c-1.315266 2.712794-4.582554 3.835509-7.288766 2.524804-2.706212-1.315927-3.836193-4.577023-2.515707-7.287206 1.312656-2.712794 4.574725-3.840731 7.275717-2.530026 2.708822 1.318538 3.844022 4.587467 2.528756 7.292428m-38.257541-70.663185c-1.315266 2.715404-4.577334 3.83812-7.288766 2.527415-2.706212-1.315927-3.836192-4.577024-2.515707-7.287207 1.312656-2.715404 4.577335-3.843342 7.280937-2.532637 2.706212 1.321149 3.838802 4.587468 2.523536 7.292429m-192.459438 111.295039c-1.312656 2.712794-4.579944 3.835509-7.288766 2.524804-2.708822-1.315927-3.836193-4.577024-2.515707-7.287206 1.312656-2.715405 4.574725-3.840731 7.280937-2.530026 2.706212 1.321148 3.841412 4.587467 2.523536 7.292428m186.577276-150.749347c-1.317875 2.715404-4.582554 3.835509-7.288766 2.524804-2.711431-1.315927-3.836192-4.577024-2.520926-7.287207 1.315266-2.715404 4.577334-3.840731 7.283546-2.527415 2.703603 1.315927 3.838803 4.584857 2.526146 7.289818m-328.419848 128.960835c-1.315266 2.715405-4.579944 3.835509-7.288766 2.524804-2.708822-1.315927-3.836193-4.577023-2.515707-7.287206 1.312656-2.712794 4.577334-3.83812 7.278327-2.527415 2.708822 1.318538 3.841412 4.584856 2.526146 7.289817" fill="#d5d4d5"/><path d="m394.660718 438.05483c1.315266-2.704961.182676-5.97389-2.526146-7.292428-2.700993-1.310705-5.965671-.185379-7.278327 2.530026-1.317876 2.710183-.193115 5.97128 2.518317 7.287206 2.706212 1.310705 5.9735.18799 7.286156-2.524804" fill="#fff"/><path d="m818.429527 344.425587c-1.317876 2.712794-4.582554 3.838121-7.288766 2.524805-2.708822-1.315927-3.836193-4.577024-2.515708-7.287207 1.310047-2.715404 4.574725-3.840731 7.278328-2.530026 2.708822 1.318538 3.838802 4.587468 2.526146 7.292428" fill="#d5d4d5"/><path d="m603.600127 207.809399c-1.315266 2.715405-4.582554 3.838121-7.288766 2.527416-2.706212-1.315927-3.833583-4.579635-2.513098-7.287207 1.310047-2.715404 4.572115-3.843342 7.275718-2.530026 2.708822 1.318538 3.844022 4.584857 2.526146 7.289817m95.35157.587468c-1.317876 2.715405-4.579944 3.83812-7.288766 2.524804-2.706212-1.313316-3.838802-4.577023-2.518317-7.284595 1.312656-2.715405 4.577335-3.840731 7.280937-2.530026 2.706212 1.318537 3.838802 4.584856 2.526146 7.289817m73.566171 123.660574c-1.312656 2.715405-4.577334 3.83812-7.286156 2.527415-2.708822-1.315926-3.836193-4.579634-2.513098-7.287206 1.307437-2.715405 4.572116-3.843342 7.275718-2.530026 2.708822 1.318538 3.841412 4.584856 2.523536 7.289817m-37.077976-34.741514c-1.315266 2.715405-4.579945 3.83812-7.286157 2.524804-2.708822-1.315927-3.838802-4.577023-2.518317-7.284595 1.307437-2.715405 4.574725-3.840731 7.280937-2.532637 2.708822 1.321149 3.838803 4.587467 2.523537 7.292428" fill="#fff"/><path d="m346.40037 565.248042c-1.317875 2.712794-4.579944 3.835509-7.288766 2.524804-2.708822-1.315927-3.833583-4.579635-2.515707-7.287206 1.310047-2.715405 4.574725-3.840731 7.278327-2.530026 2.708822 1.318537 3.841412 4.584856 2.526146 7.292428" fill="#eee8f3"/><path d="m401.135272 505.772846c-1.315266 2.715405-4.579944 3.835509-7.288766 2.524804-2.706212-1.315927-3.838803-4.577023-2.515708-7.287206 1.312657-2.712794 4.577335-3.840731 7.278328-2.527415 2.708822 1.315927 3.841412 4.584856 2.526146 7.289817" fill="#fff"/><path d="m417.02546 520.493473c-1.315266 2.715404-4.579944 3.835509-7.291375 2.527415-2.703603-1.315927-3.830974-4.579635-2.510488-7.289818 1.307437-2.712793 4.574725-3.840731 7.278327-2.530026 2.706212 1.321149 3.841412 4.587468 2.523536 7.292429m28.103374-7.950392c-1.312656 2.715405-4.577335 3.83812-7.286157 2.527415-2.708821-1.315927-3.833583-4.577023-2.513097-7.287206 1.307437-2.715405 4.572115-3.843342 7.275718-2.530026 2.708821 1.318538 3.841412 4.584856 2.523536 7.289817" fill="#d5d4d5"/><path d="m411.286829 482.660574c-1.310046 2.712794-4.577334 3.83551-7.283546 2.524805-2.711432-1.313316-3.836193-4.577024-2.515708-7.287207 1.307437-2.712793 4.572116-3.840731 7.278328-2.530026 2.706212 1.321149 3.838802 4.587468 2.520926 7.292428m15.451767 19.284596c-1.315266 2.715404-4.579944 3.83812-7.288766 2.527415-2.708822-1.315927-3.833583-4.579635-2.518317-7.287206 1.315266-2.715405 4.579944-3.843342 7.283547-2.530027 2.706212 1.318538 3.838802 4.584857 2.523536 7.289818m64.549814-31.010444c-1.323095 2.712794-4.582554 3.83812-7.288767 2.524804-2.711431-1.315927-3.836192-4.577023-2.520926-7.287206 1.315266-2.715405 4.579944-3.840731 7.280937-2.530026 2.708822 1.318538 3.836193 4.587467 2.528756 7.292428m-30.587765 12.976501c-1.320486 2.715405-4.579945 3.835509-7.291376 2.524804-2.706212-1.315927-3.836193-4.577023-2.518317-7.287206 1.315266-2.712794 4.579944-3.840731 7.283547-2.530026 2.706212 1.321149 3.836192 4.587467 2.526146 7.292428m52.968165-22.793734c-1.323095 2.712794-4.579944 3.83551-7.288766 2.524805-2.708822-1.315927-3.836193-4.577024-2.523537-7.287207 1.317876-2.712793 4.582554-3.840731 7.286157-2.530026 2.708822 1.321149 3.836193 4.587468 2.526146 7.292428m48.265567-25.783289c-1.320485 2.715404-4.579944 3.83812-7.291376 2.527415-2.708822-1.315927-3.830973-4.577024-2.518317-7.287206 1.315266-2.715405 4.582554-3.840732 7.283547-2.530027 2.708822 1.318538 3.836193 4.584857 2.526146 7.289818m23.995777-14.845953c-1.320486 2.712793-4.579945 3.835509-7.286157 2.524804-2.708822-1.315927-3.836192-4.579635-2.523536-7.287206 1.317876-2.715405 4.582554-3.840732 7.286156-2.530027 2.708822 1.321149 3.833583 4.587468 2.523537 7.292429m-125.229509 27.603133c-1.320486 2.718015-4.579945 3.83812-7.291376 2.527415-2.706212-1.315927-3.836193-4.579635-2.518317-7.287206 1.315266-2.715405 4.579944-3.840731 7.283547-2.530026 2.706212 1.318537 3.836192 4.584856 2.526146 7.289817m60.139496-34.908616c-1.320485 2.715404-4.579944 3.83812-7.288766 2.527415-2.708821-1.315927-3.836192-4.579635-2.518317-7.287206 1.312657-2.715405 4.579945-3.840732 7.283547-2.532638 2.708822 1.321149 3.836193 4.587468 2.523536 7.292429m-83.331499 10.524804c-1.323095 2.715405-4.579945 3.835509-7.291376 2.524804-2.706212-1.315927-3.838802-4.577024-2.518317-7.287206 1.312656-2.712794 4.577335-3.840731 7.283547-2.527415 2.706212 1.318537 3.836192 4.584856 2.526146 7.289817" fill="#fff"/><path d="m517.199673 482.211488c-1.320485 2.715405-4.579944 3.83812-7.288766 2.527415-2.708822-1.318537-3.833583-4.579634-2.520927-7.289817 1.317876-2.712794 4.582554-3.840731 7.283547-2.530026 2.708822 1.321149 3.838802 4.587467 2.526146 7.292428" fill="#d5d4d5"/><path d="m534.84355 453.26893c-1.320486 2.712793-4.582554 3.835509-7.288767 2.524804-2.711431-1.315927-3.836192-4.577024-2.520926-7.287207 1.317876-2.712793 4.579944-3.840731 7.283547-2.530026 2.706212 1.318538 3.836192 4.587468 2.526146 7.292429m-18.836489-86.762403c-1.320486 2.715405-4.579945 3.838121-7.291376 2.524805-2.703603-1.313316-3.833583-4.577024-2.515707-7.284596 1.312656-2.715404 4.577334-3.840731 7.283546-2.532637 2.706212 1.321149 3.836193 4.587468 2.523537 7.292428m-37.719952 30.976502c-1.320485 2.715404-4.582554 3.835509-7.288766 2.524804-2.708822-1.315927-3.836193-4.579635-2.520927-7.287206 1.315266-2.712794 4.579945-3.840731 7.286157-2.530026 2.703602 1.321148 3.833583 4.587467 2.523536 7.292428m-51.72336 50.608355c-1.320485 2.718015-4.579944 3.83812-7.291376 2.527415-2.706212-1.315927-3.833583-4.579635-2.518317-7.287206 1.315266-2.715405 4.579945-3.840731 7.283547-2.530026 2.706212 1.318537 3.836193 4.584856 2.526146 7.289817" fill="#fff"/><path d="m596.835901 459.156658c-1.320485 2.712794-4.579944 3.83812-7.286156 2.524804-2.708822-1.315927-3.836193-4.577023-2.520927-7.287206 1.315266-2.715405 4.577335-3.840731 7.283547-2.530026 2.708822 1.321149 3.836193 4.587467 2.523536 7.292428m-44.729484 1.960835c-1.323095 2.712794-4.582554 3.83551-7.288766 2.524805-2.711432-1.315927-3.836193-4.577024-2.520927-7.287207 1.312656-2.712793 4.577335-3.840731 7.280937-2.530026 2.711431 1.321149 3.836193 4.587468 2.528756 7.292428" fill="#d5d4d5"/><path d="m617.240793 403.801567c-1.320485 2.715404-4.582554 3.83812-7.291376 2.527415-2.706212-1.315927-3.830973-4.577024-2.518317-7.287207 1.315266-2.715404 4.582554-3.840731 7.286157-2.530026 2.703602 1.318538 3.833583 4.584857 2.523536 7.289818m17.458591 21.201044c-1.317876 2.712794-4.579944 3.835509-7.288766 2.524804-2.708822-1.315927-3.838802-4.577023-2.518317-7.287206 1.310047-2.712794 4.577335-3.840731 7.280937-2.527415 2.708822 1.318538 3.838803 4.584856 2.526146 7.289817m38.257541-17.274151c-1.317876 2.715404-4.579945 3.835509-7.288766 2.524804-2.708822-1.315927-3.833583-4.577024-2.518317-7.287207 1.315266-2.712793 4.579944-3.840731 7.280937-2.530026 2.708822 1.321149 3.838802 4.587468 2.526146 7.292429m41.592679-16.488251c-1.323095 2.712794-4.579944 3.835509-7.291375 2.524804-2.706213-1.315927-3.836193-4.577023-2.518317-7.287206 1.315266-2.715405 4.579944-3.840731 7.283546-2.530026 2.706213 1.318538 3.838803 4.584856 2.526146 7.292428m28.643572-12.955614c-1.317875 2.712794-4.579944 3.835509-7.288766 2.524804-2.706212-1.315926-3.836192-4.577023-2.518317-7.287206 1.315266-2.715404 4.579945-3.840731 7.283547-2.530026 2.706212 1.318538 3.833583 4.584856 2.523536 7.292428" fill="#fff"/><path d="m780.273763 392.02611c-1.320486 2.715404-4.582554 3.83812-7.288766 2.527415-2.706213-1.315927-3.836193-4.577024-2.520927-7.287206 1.317876-2.715405 4.579944-3.840732 7.283547-2.530027 2.708821 1.318538 3.836192 4.584857 2.526146 7.289818m-33.353999 13.148825c-1.317876 2.715404-4.579945 3.83812-7.291376 2.527415-2.700993-1.315927-3.830974-4.579635-2.515708-7.287206 1.312657-2.715405 4.579945-3.840731 7.283547-2.530027 2.708822 1.318538 3.836193 4.584857 2.523537 7.289818m-39.62761 15.313316c-1.320485 2.712793-4.582554 3.835509-7.288766 2.524804-2.708822-1.315927-3.833583-4.579635-2.518317-7.287206 1.315266-2.715405 4.577335-3.840732 7.280937-2.530027 2.711432 1.321149 3.836193 4.587468 2.526146 7.292429m-37.080586 14.130548c-1.315266 2.715405-4.579944 3.835509-7.286157 2.527415-2.708821-1.315927-3.836192-4.579634-2.520926-7.287206 1.315266-2.715405 4.579944-3.843342 7.283547-2.530026 2.706212 1.318538 3.836192 4.584856 2.523536 7.289817" fill="#d5d4d5"/><path d="m719.257422 311.35248c-1.317876 2.712794-4.579945 3.83551-7.286157 2.524805-2.708821-1.315927-3.833583-4.577024-2.520926-7.284596 1.315266-2.715404 4.579944-3.843342 7.283546-2.532637 2.708822 1.321149 3.836193 4.587468 2.523537 7.292428m-38.059207 32.18799c-1.320485 2.715405-4.579944 3.83812-7.288766 2.524804-2.706212-1.315927-3.833583-4.577023-2.520927-7.284595 1.315266-2.715405 4.579945-3.840731 7.283547-2.530026 2.708822 1.318538 3.836193 4.584856 2.526146 7.289817m-26.683721 23.556136c-1.320486 2.715404-4.579945 3.83812-7.288766 2.524804-2.706213-1.315927-3.836193-4.577024-2.518317-7.287206 1.312656-2.712794 4.579944-3.83812 7.283546-2.527415 2.706213 1.315926 3.833583 4.584856 2.523537 7.289817m-21.579237 18.843342c-1.323095 2.715404-4.579944 3.835509-7.288766 2.527415-2.708821-1.315927-3.836192-4.579635-2.520926-7.289817 1.317875-2.712794 4.579944-3.840731 7.283547-2.530026 2.708821 1.321148 3.836192 4.587467 2.526145 7.292428m90.638534-31.211488c1.312656-2.704961.180066-5.97128-2.526146-7.289818-2.706212-1.310705-5.97089-.185378-7.280937 2.530026-1.317876 2.707572-.190505 5.968669 2.515707 7.287207 2.708822 1.310705 5.970891.187989 7.291376-2.527415m28.249514-11.775457c-1.315266 2.715404-4.579944 3.83812-7.288766 2.524804-2.708822-1.315927-3.836193-4.577024-2.515707-7.287206 1.310046-2.715405 4.577334-3.840732 7.280937-2.530027 2.706212 1.321149 3.836192 4.584857 2.523536 7.292429m-53.362223 24.73107c-1.320485 2.712794-4.579944 3.83812-7.288766 2.524804-2.706212-1.315927-3.836193-4.577023-2.518317-7.287206 1.315266-2.712794 4.579944-3.840731 7.283547-2.530026 2.706212 1.321149 3.833583 4.587467 2.523536 7.292428m-42.965358 18.255875c-1.317876 2.715404-4.579944 3.835509-7.286157 2.527415-2.711431-1.315927-3.836192-4.579635-2.520926-7.289817 1.312656-2.712794 4.579944-3.840731 7.280937-2.530026 2.708822 1.321148 3.838802 4.587467 2.526146 7.292428m-110.257919-36.900784c-1.315266 2.712794-4.579944 3.838121-7.288766 2.524805-2.706212-1.315927-3.833583-4.577024-2.515707-7.287207 1.312656-2.712793 4.577334-3.840731 7.278327-2.530026 2.708822 1.321149 3.838802 4.587468 2.526146 7.292428m14.911568-20.412532c-1.317876 2.715405-4.579944 3.835509-7.288766 2.524804-2.706212-1.315927-3.836193-4.577023-2.518317-7.287206 1.315266-2.712794 4.577335-3.840731 7.283547-2.530026 2.706212 1.321148 3.838802 4.584856 2.523536 7.292428m17.656925-23.553525c-1.315266 2.715405-4.579944 3.835509-7.286156 2.524804-2.711432-1.315927-3.836193-4.577023-2.520927-7.287206 1.312656-2.712794 4.577335-3.83812 7.280937-2.530026 2.708822 1.321149 3.841412 4.587467 2.526146 7.292428m27.464008-27.483029c-1.315266 2.715405-4.579944 3.835509-7.288766 2.524805-2.708822-1.315927-3.833583-4.577024-2.515707-7.287207 1.312656-2.712793 4.577334-3.840731 7.278327-2.527415 2.711431 1.318538 3.841412 4.584856 2.526146 7.289817m-23.539087-23.550914c-1.317876 2.715405-4.582554 3.838121-7.291376 2.524805-2.708822-1.315927-3.833583-4.577024-2.513097-7.287207 1.310046-2.712793 4.574725-3.83812 7.278327-2.527415 2.708822 1.318538 3.841412 4.584857 2.526146 7.289817m-18.445041 31.407311c-1.317876 2.715405-4.577334 3.83812-7.288766 2.524804-2.706212-1.315927-3.833583-4.574412-2.515707-7.284595 1.310047-2.715405 4.577334-3.843342 7.280937-2.532637 2.706212 1.321149 3.838802 4.587467 2.523536 7.292428m-13.632837 22.869452c-1.315266 2.715405-4.579944 3.83812-7.288766 2.524804-2.706212-1.315927-3.836193-4.577023-2.513098-7.287206 1.310047-2.712794 4.572116-3.840731 7.275718-2.530026 2.708822 1.321149 3.841412 4.587467 2.526146 7.292428m-11.772153 22.083551c-1.315266 2.715405-4.579944 3.83812-7.286157 2.524804-2.708821-1.315927-3.838802-4.577024-2.518317-7.287206 1.310047-2.712794 4.574725-3.83812 7.280938-2.530026 2.706212 1.321148 3.836192 4.587467 2.523536 7.292428m172.25288-78.817233c-1.315266 2.715405-4.582554 3.83551-7.288766 2.524805-2.706212-1.315927-3.836193-4.577024-2.515707-7.287207 1.310047-2.712793 4.572115-3.840731 7.278327-2.530026 2.708822 1.321149 3.844022 4.587468 2.526146 7.292428m26.480168-41.809399c-1.312656 2.715405-4.577334 3.83812-7.286156 2.524804-2.708822-1.315927-3.833583-4.577023-2.515707-7.287206 1.312656-2.712794 4.574725-3.83812 7.278327-2.530026 2.708822 1.321149 3.841412 4.587467 2.523536 7.292428m125.954993 35.921671c-1.315266 2.712794-4.579944 3.835509-7.286156 2.527415-2.708822-1.318538-3.838802-4.579634-2.515707-7.289817 1.310046-2.712794 4.572115-3.840731 7.275718-2.530026 2.711431 1.321149 3.844021 4.587467 2.526145 7.292428" fill="#fff"/><path d="m877.279854 246.284595c-1.312656 2.715405-4.577335 3.835509-7.286156 2.524804-2.708822-1.315926-3.836193-4.579634-2.513098-7.287206 1.310047-2.712794 4.574725-3.840731 7.275718-2.530026 2.708822 1.321149 3.841412 4.587467 2.523536 7.292428" fill="#d5d4d5"/><path d="m844.912305 219.785901c-1.317876 2.715404-4.579945 3.835509-7.288767 2.524804-2.708821-1.315927-3.833583-4.577024-2.515707-7.287206 1.310047-2.715405 4.577335-3.840731 7.278328-2.530026 2.708821 1.321148 3.841412 4.587467 2.526146 7.292428m-15.303017 1.765013c-1.315266 2.715405-4.579944 3.83812-7.286156 2.524804-2.706212-1.315927-3.838803-4.577023-2.518317-7.287206 1.312656-2.712794 4.577335-3.840731 7.280937-2.530026 2.706212 1.321148 3.841412 4.587467 2.523536 7.292428m-293.690561-32.973891c-1.317875 2.712794-4.582554 3.83551-7.291375 2.524805-2.706212-1.315927-3.833583-4.577024-2.515708-7.287207 1.312657-2.715404 4.577335-3.840731 7.280937-2.530026 2.706213 1.321149 3.841412 4.587468 2.526146 7.292428m-117.12653-38.86684c-1.317876 2.715404-4.579945 3.835509-7.288766 2.524804-2.706212-1.313316-3.833583-4.577024-2.515708-7.287206 1.312657-2.712794 4.574725-3.83812 7.280938-2.527415 2.706212 1.318537 3.838802 4.584856 2.523536 7.289817m-68.466906 201.780679c-1.317876 2.715404-4.582554 3.835509-7.288766 2.524804-2.708822-1.315927-3.836193-4.577024-2.518317-7.287206 1.312657-2.712794 4.577335-3.840732 7.283547-2.527416 2.703602 1.318538 3.836193 4.584857 2.523536 7.289818m-56.893086-74.59269c-1.320485 2.715405-4.582554 3.83812-7.291376 2.524805-2.708821-1.313316-3.836192-4.577024-2.518317-7.287207 1.312657-2.712793 4.577335-3.83812 7.283547-2.530026 2.703603 1.321149 3.833583 4.587467 2.526146 7.292428m-59.252475-78.51436c-1.320485 2.712794-4.579944 3.835509-7.288766 2.524804-2.708822-1.318538-3.836193-4.577023-2.518317-7.287206 1.312656-2.715405 4.577334-3.840731 7.283547-2.530026 2.706212 1.318538 3.836192 4.584856 2.523536 7.292428m-85.930194-126.6031331c-1.317876 2.7127937-4.579945 3.8355091-7.288766 2.5248041-2.708822-1.3159269-3.836193-4.5796344-2.518317-7.2872062 1.312656-2.7154047 4.577334-3.8407311 7.283546-2.5300261 2.703603 1.3185378 3.836193 4.5848563 2.523537 7.2924282m87.10767 7.0626631c-1.317876 2.7154047-4.582554 3.8381201-7.288766 2.5274152-2.708822-1.3185379-3.833583-4.5770235-2.518317-7.2872063 1.315266-2.7154047 4.574725-3.8407311 7.278328-2.5300261 2.711431 1.3185379 3.841412 4.5848564 2.528755 7.2898172" fill="#fff"/><path d="m335.374578 572.075718c-.067851 2.328982-2.012044 4.159269-4.345075 4.088773-2.325203-.067885-4.15718-2.015666-4.08411-4.342037.067851-2.331592 2.019873-4.16188 4.339856-4.093994 2.327812.067885 4.165009 2.013054 4.089329 4.347258" fill="#e4daea"/><path d="m323.401482 584.373368c-.067851 2.334204-2.012044 4.164491-4.342466 4.099217-2.325202-.075718-4.154571-2.018277-4.089329-4.352481.07307-2.32637 2.014653-4.156658 4.350295-4.086161 2.322592.067885 4.15457 2.007832 4.0815 4.339425" fill="#d3cadb"/><path d="m312.487905 596.715405c-.067851 2.328981-2.012044 4.159269-4.339856 4.083551-2.333032-.062664-4.1624-2.007833-4.091939-4.342037.062632-2.326371 2.017263-4.156658 4.342466-4.086162 2.325202.070496 4.15979 2.015666 4.089329 4.344648" fill="#b9b0c2"/><path d="m301.532574 610.10705c-.062632 2.328981-2.014654 4.159269-4.334637 4.088772-2.338251-.067885-4.167619-2.013054-4.091939-4.347258.067851-2.331593 2.009434-4.159269 4.342466-4.088773 2.322593.067885 4.15457 2.010444 4.08411 4.347259" fill="#b3a9bb"/><path d="m291.675907 622.472585c-.07307 2.328982-2.022482 4.164491-4.352904 4.086162-2.325203-.065274-4.151961-2.013055-4.0815-4.339426.065241-2.328982 2.017263-4.159269 4.342465-4.091384 2.327813.070496 4.157181 2.015666 4.091939 4.344648" fill="#aba0b3"/><path d="m281.774877 635.89295c-.067851 2.331593-2.017264 4.159269-4.339856 4.088773-2.330422-.062663-4.15979-2.015666-4.08933-4.342036.070461-2.32376 2.009435-4.164491 4.345076-4.088773 2.322593.073107 4.15457 2.013055 4.08411 4.342036" fill="#a699ad"/><path d="m271.894723 648.788512c-.060022 2.041775-1.761517 3.644908-3.797048 3.584856-2.03553-.060052-3.645687-1.770235-3.577836-3.806788.060022-2.039165 1.761517-3.639687 3.799657-3.579635 2.030312.065274 3.635249 1.762402 3.575227 3.801567" fill="#a192a9"/><path d="m263.053213 662.24282c-.062632 2.044386-1.756298 3.639687-3.793656 3.579634-2.03814-.065274-3.643078-1.75718-3.583056-3.804177.062632-2.033943 1.764127-3.639687 3.804877-3.574413 2.032138.057441 3.634466 1.762402 3.571835 3.798956" fill="#998aa3"/><path d="m254.180125 676.754569c-.057412 2.036554-1.761517 3.634465-3.794438 3.579635-2.04336-.065274-3.643078-1.762402-3.580447-3.798956.060022-2.046997 1.756298-3.644909 3.794438-3.587467 2.040751.065274 3.643079 1.767624 3.580447 3.806788" fill="#94859e"/><path d="m246.394481 690.232376c-.060023 2.041775-1.764127 3.64752-3.804877 3.584856-2.027702-.060052-3.63525-1.765013-3.577837-3.804177.065241-2.036554 1.766736-3.637076 3.804877-3.577024 2.035531.060053 3.637859 1.762402 3.577837 3.796345" fill="#8f7f99"/><path d="m238.575694 704.775457c-.060023 2.036553-1.761518 3.639687-3.797048 3.579634-2.038141-.060052-3.640469-1.762402-3.580447-3.798955.062632-2.039165 1.766737-3.637076 3.804877-3.582246 2.027702.067885 3.63003 1.767624 3.572618 3.801567" fill="#887995"/><path d="m229.696865 719.284595c-.054803 2.039165-1.761517 3.644909-3.794438 3.579635-2.038141-.060052-3.640469-1.75718-3.580447-3.791123.060022-2.052219 1.764127-3.64752 3.799658-3.587467 2.03814.060052 3.635249 1.762402 3.575227 3.798955" fill="#857390"/><path d="m221.883297 733.822454c-.062632 2.044387-1.764127 3.64752-3.802267 3.584857-2.038141-.060053-3.640469-1.762402-3.575227-3.806789.057412-2.031331 1.761517-3.637076 3.799657-3.574412 2.032921.060052 3.635249 1.75718 3.577837 3.796344" fill="#7f6c8c"/><path d="m212.99403 748.860313c-.054803 1.744126-1.510991 3.117494-3.259459 3.070496-1.74325-.049608-3.118538-1.509138-3.066345-3.258485.054803-1.749347 1.508381-3.114883 3.256849-3.062663 1.74586.049608 3.121148 1.503916 3.068955 3.250652" fill="#796786"/><path d="m204.087017 764.424021c-.054803 1.746736-1.510991 3.120104-3.25685 3.070496-1.743249-.052219-3.118537-1.509138-3.066344-3.258486.052193-1.749347 1.50838-3.125326 3.25163-3.070496 1.748468.057442 3.123757 1.51175 3.071564 3.258486" fill="#766382"/><path d="m195.185223 779.987728c-.054803 1.746737-1.5136 3.122716-3.262069 3.067886-1.743249-.044387-3.115928-1.506528-3.058515-3.253264.046973-1.751958 1.503161-3.122716 3.24902-3.078329 1.745859.062663 3.123757 1.516971 3.071564 3.263707" fill="#705d7c"/><path d="m186.2756 795.551697c-.052193 1.746736-1.5136 3.114883-3.25424 3.067885-1.745859-.049608-3.121147-1.511749-3.066344-3.261096.052193-1.749348 1.50838-3.120105 3.254239-3.065275 1.74586.046998 3.121148 1.514361 3.066345 3.258486" fill="#6c5779"/><path d="m176.28558 812.135248c-.046974 1.751958-1.50838 3.122715-3.24902 3.067885-1.753688-.049608-3.123757-1.511749-3.071564-3.261096.049583-1.738904 1.50838-3.120105 3.25424-3.067886 1.748468.054831 3.123757 1.516972 3.066344 3.261097" fill="#665375"/><path d="m166.29556 828.716449c-.054803 1.746736-1.51099 3.117494-3.259459 3.073107-1.743249-.049608-3.115928-1.511749-3.066344-3.261096.054803-1.746737 1.516209-3.117494 3.254239-3.065275 1.756298.049609 3.123757 1.509139 3.071564 3.253264" fill="#634e71"/><path d="m154.179976 845.770757c-.039144 1.451697-1.257853 2.597911-2.708821 2.556136-1.458797-.044386-2.601826-1.255875-2.560072-2.723238.046974-1.443864 1.263073-2.592689 2.714041-2.548303 1.458797.041776 2.604436 1.261097 2.554852 2.715405" fill="#5e486e"/><path d="m143.106689 863.376762c-.044364 1.462141-1.257854 2.597912-2.716651 2.556136-1.453578-.041775-2.599216-1.253264-2.549633-2.710183.036535-1.456919 1.255244-2.603133 2.708822-2.558746 1.453578.044386 2.601826 1.258485 2.557462 2.712793m-12.13072 17.58329c-.041754 1.454308-1.260463 2.59269-2.714041 2.553525-1.458797-.044386-2.596607-1.258486-2.554852-2.715405.044364-1.45953 1.255244-2.600522 2.714041-2.563968 1.456187.046997 2.601826 1.266318 2.554852 2.725848" fill="#553e66"/><path d="m117.761982 899.549086c-.046974 1.464752-1.257854 2.605744-2.711432 2.561358-1.461407-.044387-2.604435-1.258486-2.554852-2.707572.041754-1.45953 1.257854-2.605744 2.714041-2.558747 1.448359.041776 2.596607 1.255875 2.552243 2.704961" fill="#513964"/><path d="m103.490562 918.121671c-.044364 1.456919-1.255244 2.605744-2.711432 2.561358-1.456187-.044387-2.6018255-1.263708-2.5548517-2.712794.0365352-1.462141 1.2578537-2.605744 2.7140407-2.558747 1.450969.039165 2.599217 1.255875 2.552243 2.710183" fill="#4b345e"/><path d="m88.1358745 937.715405c-.0417545 1.449086-1.255244 2.597911-2.7140411 2.550914-1.4535778-.039165-2.593997-1.253264-2.5548521-2.712794.0443641-1.454308 1.2578536-2.597911 2.7114314-2.553525 1.4587971.041775 2.6070452 1.255875 2.5574618 2.715405" fill="#492f5b"/><path d="m70.6913754 956.715144c-.0339255 1.16449-1.0099364 2.078329-2.1660135 2.046997-1.1665158-.036554-2.0851143-1.015666-2.0511888-2.177546.0365352-1.167102 1.0099365-2.078329 2.1738425-2.044386 1.1612965.041775 2.0746757 1.005222 2.0433598 2.174935" fill="#432857"/><path d="m53.1985977 977.29295c-.0339255 1.167102-1.0099364 2.073107-2.1738425 2.041776-1.1560771-.02611-2.0772853-1.002611-2.0381404-2.167102.0287062-1.156658 1.0047171-2.067885 2.1634039-2.041775 1.163906.036553 2.0825046 1.010443 2.048579 2.167101" fill="#3e2554"/><path d="m33.5956531 997.816188c-.0365351 1.156658-1.0073267 2.078329-2.1686232 2.041775-1.163906-.031331-2.0798949-1.002611-2.0459694-2.169712.0339255-1.16188 1.0047171-2.08094 2.1686232-2.044387 1.1665157.028721 2.0851143 1.002611 2.0459694 2.172324" fill="#3c1d50"/><path d="m370.617968 523.503916c-.07829 1.937337-1.714544 3.438643-3.653517 3.357703-1.938974-.078329-3.439525-1.718016-3.356016-3.655353.080899-1.934726 1.719762-3.443864 3.653516-3.362924 1.936364.08094 3.444745 1.720627 3.356017 3.660574m-9.705307 12.501306c-.026096 1.898172-1.578841 3.415144-3.47606 3.394256-1.88939-.031332-3.410819-1.584857-3.387332-3.480418.031316-1.89295 1.58406-3.412533 3.481279-3.389034 1.892.023499 3.40821 1.577024 3.382113 3.475196m20.300505-24.67624c-.031315 2.229765-1.855464 4.013055-4.0815 3.989556-2.223426-.039165-4.00843-1.86423-3.984943-4.091384.033926-2.227154 1.860684-4.010444 4.089329-3.981723 2.226036.026109 4.005821 1.853786 3.977114 4.083551m7.935961-12.953003c-.031316 2.229765-1.858074 4.010444-4.089329 3.986945-2.218207-.036553-4.005821-1.864229-3.979724-4.091384.036535-2.224543 1.863294-4.007832 4.091939-3.981723 2.223426.02611 4.00321 1.853786 3.977114 4.086162m8.437014-12.75718c-.031316 2.227154-1.860684 4.013055-4.086719 3.984334-2.223426-.033942-4.00843-1.86423-3.984943-4.091384.039144-2.227154 1.865903-4.010444 4.094548-3.981723 2.220816.028721 4.003211 1.853786 3.977114 4.088773m4.029307-13.785901c-.031316 2.227154-1.852855 4.010444-4.0815 3.984334-2.223426-.031331-4.00843-1.864229-3.984943-4.091383.036535-2.224544 1.860684-4.010444 4.094549-3.979113 2.218206.02611 4.000601 1.853786 3.971894 4.086162m-50.423751 76.543081c-.023487 1.556136-1.296999 2.801567-2.854963 2.772846-1.555354-.013055-2.79755-1.292428-2.779282-2.845953.018267-1.556136 1.299608-2.801567 2.852353-2.778068 1.555354.018277 2.800159 1.29765 2.781892 2.851175" fill="#fff"/><path d="m390.764503 541.70235c-.887282 1.725848-3.001103 2.402089-4.728694 1.509138-1.722373-.890339-2.400883-3.002611-1.510991-4.723237.887283-1.725849 3.008933-2.4047 4.726085-1.516972 1.727592.887729 2.408712 3.005222 1.5136 4.731071" fill="#d5d4d5"/><path d="m377.110789 550.334204c-.819432 1.707571-2.87062 2.430809-4.582554 1.616188-1.698885-.822455-2.424369-2.872063-1.610157-4.584857.822041-1.707572 2.87062-2.428198 4.582554-1.608355 1.704105.814622 2.426979 2.861619 1.610157 4.577024" fill="#ede3f1"/><path d="m406.075349 533.550914c-.962963 2.010444-3.371675 2.861619-5.381109 1.900783-2.001605-.966057-2.852353-3.373368-1.894609-5.389034.968182-2.005222 3.374283-2.856397 5.381108-1.890339 2.004215.958224 2.857572 3.362924 1.89461 5.37859m16.067645-4.767624c-.962963 2.010444-3.369065 2.861619-5.383718 1.900783-1.996386-.968668-2.849743-3.373368-1.897219-5.381201.970791-2.007833 3.376893-2.86423 5.386327-1.898172 2.006825.958224 2.852353 3.362924 1.89461 5.37859m14.29047-6.391645c-.960353 2.010444-3.369065 2.861619-5.381109 1.900783-1.998995-.966057-2.852352-3.370757-1.897219-5.383812.968182-2.005222 3.374284-2.861619 5.386328-1.895561 2.004215.958224 2.852353 3.365535 1.892 5.37859m15.72839-4.033943c-.965572 2.010444-3.374284 2.861619-5.383718 1.900784-1.998996-.968669-2.852353-3.373369-1.89461-5.383812.965573-2.005222 3.371674-2.861619 5.383718-1.895562 2.001606.958225 2.854963 3.362925 1.89461 5.37859" fill="#d5d4d5"/><path d="m361.390228 558.477807c-.675901 1.4047-2.356518 2-3.755293 1.32376-1.409214-.671019-1.998996-2.355092-1.328315-3.759792.668072-1.399477 2.353909-1.994778 3.757903-1.318537 1.398775.671018 1.991167 2.355091 1.325705 3.754569" fill="#ede3f1"/><path d="m722.571683 475.073107c-.605439 1.24282-2.100772 1.75718-3.342967 1.156658-1.242196-.603133-1.761517-2.099217-1.156078-3.342037.602831-1.24543 2.100773-1.762402 3.342968-1.161879 1.239586.605744 1.756298 2.101827 1.156077 3.347258m-69.362017 42.159269c-.60544 1.245431-2.105991 1.759791-3.342968 1.159269-1.247415-.603133-1.758907-2.101828-1.161296-3.344648.60544-1.24543 2.103382-1.762402 3.345577-1.16188 1.239587.605745 1.756298 2.104439 1.158687 3.347259m133.102838 11.584856c-.60544 1.245431-2.103382 1.759791-3.342968 1.156658-1.242196-.603133-1.761517-2.099216-1.158687-3.342036.602831-1.245431 2.103382-1.762402 3.342968-1.16188 1.244806.605744 1.761517 2.104439 1.158687 3.347258m68.579121-251.052219c-.60544 1.24282-2.100772 1.759791-3.342968 1.156658-1.247415-.603133-1.764127-2.099217-1.161297-3.344648.60805-1.242819 2.105992-1.759791 3.348188-1.159268 1.236976.605744 1.753688 2.104438 1.156077 3.347258m-49.014538 2.553525c-.602831 1.245431-2.103382 1.759791-3.342968 1.159269-1.244806-.605744-1.761517-2.099217-1.161297-3.344648.60805-1.245431 2.105992-1.762402 3.345578-1.159269 1.242196.603133 1.758907 2.101828 1.158687 3.344648m-51.793821-95.592689c-.60283 1.24543-2.100772 1.759791-3.342968 1.159268-1.247415-.605744-1.761517-2.101827-1.158686-3.344647.60283-1.24282 2.103381-1.762402 3.342967-1.16188 1.242196.608355 1.758908 2.104439 1.158687 3.347259m-45.862075 4.906005c-.60283 1.245431-2.103382 1.759791-3.342968 1.159269-1.244805-.603133-1.761517-2.101828-1.158686-3.344648.60283-1.24282 2.100772-1.762402 3.342967-1.159269 1.242196.605744 1.758908 2.101828 1.158687 3.344648m62.30812 44.164491c-.60544 1.24543-2.103382 1.759791-3.348187 1.159269-1.242196-.603134-1.758907-2.101828-1.153467-3.344648.60283-1.245431 2.098162-1.762402 3.342968-1.159269 1.242195.605744 1.756297 2.101828 1.158686 3.344648m-334.936156 42.10966c-.60544 1.245431-2.103382 1.759791-3.342968 1.156658-1.244805-.603133-1.761517-2.099217-1.158687-3.342036.602831-1.245431 2.100772-1.762402 3.340359-1.16188 1.242195.605744 1.758907 2.104438 1.161296 3.347258m94.409485-39.605744c-.602831 1.245431-2.103382 1.759791-3.342968 1.156658-1.244806-.603133-1.761517-2.099217-1.158687-3.342036.60544-1.245431 2.103382-1.762403 3.342968-1.159269 1.242196.603133 1.756298 2.101827 1.158687 3.344647m-94.82442 121.159269c-.60283 1.245431-2.100772 1.759791-3.340358 1.156658-1.244806-.603133-1.764127-2.099217-1.158687-3.342037.60283-1.24543 2.103382-1.762402 3.342968-1.161879 1.242195.605744 1.756297 2.104438 1.156077 3.347258m-87.585237-83.224543c-.60805 1.245431-2.105992 1.759791-3.345578 1.156658-1.244805-.603133-1.758907-2.099217-1.156077-3.342037.60283-1.24543 2.100772-1.762402 3.340358-1.16188 1.242196.605745 1.758908 2.104439 1.161297 3.347259m-70.238862-66.900783c-.60283 1.24543-2.100772 1.759791-3.342968 1.156658-1.244805-.603134-1.761517-2.099217-1.158686-3.342037.608049-1.245431 2.103381-1.762402 3.345577-1.16188 1.239586.605744 1.756298 2.104439 1.156077 3.347259m-64.293806-104.023499c-.60544 1.245431-2.103382 1.75718-3.342968 1.156658-1.244805-.603133-1.758907-2.099217-1.158687-3.342037.60283-1.2454304 2.100772-1.7624017 3.342968-1.1618795 1.242196.6057445 1.758907 2.1044385 1.158687 3.3472585m-39.29253-69.9190601c-.60283 1.2454308-2.100772 1.7597911-3.342968 1.1592689-1.242196-.6031331-1.758907-2.1018276-1.158687-3.3420365.60544-1.2454308 2.103382-1.7650131 3.345578-1.1644909 1.242196.6083551 1.758907 2.1044387 1.156077 3.3472585m-16.922046 21.0522193c-.60283 1.2454308-2.100772 1.7597912-3.342968 1.156658s-1.761517-2.0992167-1.156077-3.3420366c.60283-1.2454308 2.100772-1.762402 3.345577-1.1618799 1.239587.6057442 1.753689 2.1044387 1.153468 3.3472585m156.610348 51.9164488c-.60805 1.245431-2.105992 1.759791-3.345578 1.156658-1.244805-.603133-1.761517-2.099216-1.156077-3.342036.602831-1.245431 2.100772-1.762402 3.340359-1.16188 1.244805.605744 1.758907 2.104438 1.161296 3.347258m32.915577 114.088773c-.60544 1.245431-2.103382 1.759791-3.342968 1.159269-1.244805-.603133-1.761517-2.101828-1.158687-3.344647.602831-1.245431 2.103382-1.762403 3.342968-1.16188 1.239586.608355 1.756298 2.104438 1.158687 3.347258m-81.614347-61.240209c-.60544 1.245431-2.100772 1.759791-3.342968 1.156658-1.245588-.603133-1.7623-2.099216-1.162079-3.342036.60805-1.245431 2.106774-1.762402 3.34636-1.16188 1.239586.608355 1.756298 2.104438 1.158687 3.347258m-70.823424-31.994778c-.60544 1.245431-2.100772 1.759791-3.342968 1.159269-1.244805-.605744-1.761517-2.101828-1.158686-3.344647.605439-1.245431 2.100772-1.762402 3.345577-1.16188 1.239586.608355 1.756298 2.104438 1.156077 3.347258m-128.9994163-121.97911205c-.6028302 1.2454308-2.1033818 1.75979112-3.3429679 1.15665796-1.247415-.60052219-1.761517-2.09921671-1.1612964-3.34203655.6080496-1.24281985 2.1059915-1.76240209 3.3455776-1.15926893 1.2421957.60313315 1.7589074 2.10182767 1.1586867 3.34464752m785.6303403 549.51958205c-.60544 1.245431-2.100772 1.759791-3.342968 1.156658-1.242196-.600522-1.761517-2.099217-1.158687-3.342036.602831-1.24282 2.103382-1.762402 3.342968-1.16188 1.244806.608355 1.758908 2.104438 1.158687 3.347258m-13.870316 11.556136c-.60544 1.24282-2.100772 1.759791-3.342968 1.156658-1.242195-.603133-1.758907-2.099217-1.158686-3.342037.60544-1.24543 2.103381-1.762402 3.342968-1.16188 1.242195.605745 1.761517 2.104439 1.158686 3.347259m34.236063 10.114882c-.602831 1.245431-2.103382 1.759792-3.342968 1.159269-1.247415-.603133-1.761517-2.101827-1.158687-3.342036.60283-1.245431 2.100772-1.765013 3.340358-1.16188 1.242196.605744 1.758908 2.104439 1.161297 3.344647" fill="#fff"/><path d="m216.643632 265.979112c0 5.51175-4.467729 9.981724-9.976711 9.981724-5.508981 0-9.97671-4.469974-9.97671-9.981724 0-5.511749 4.467729-9.981723 9.97671-9.981723 5.508982 0 9.976711 4.469974 9.976711 9.981723" fill="#301a49"/><path d="m19.9534213 465.02611c0 5.511749-4.4677292 9.981723-9.97410102 9.981723-5.51159112 0-9.97932028-4.469974-9.97932028-9.981723 0-5.514361 4.46772916-9.981724 9.97932028-9.981724 5.50637182 0 9.97410102 4.467363 9.97410102 9.981724" fill="#282928"/><path d="m113.900997 613.35248c0 5.51175-4.465119 9.981724-9.974101 9.981724-5.5115909 0-9.9767104-4.469974-9.9767104-9.981724 0-5.511749 4.4651195-9.981723 9.9767104-9.981723 5.508982 0 9.974101 4.469974 9.974101 9.981723m379.430772-38.281984c0 5.511749-4.465119 9.981723-9.974101 9.981723-5.511591 0-9.97932-4.469974-9.97932-9.981723 0-5.51436 4.467729-9.981723 9.97932-9.981723 5.508982 0 9.974101 4.467363 9.974101 9.981723" fill="#301a49"/><path d="m770.226591 694.827676c0 10.211488-8.275215 18.488251-18.476356 18.488251-10.203751 0-18.478967-8.276763-18.478967-18.488251 0-10.208877 8.275216-18.485639 18.478967-18.485639 10.201141 0 18.476356 8.276762 18.476356 18.485639" fill="#282928"/></g></svg>