<svg width="1000" height="1000" viewBox="0 0 1000 1000" fill="none" xmlns="http://www.w3.org/2000/svg">
<g clip-path="url(#clip0)">
<path d="M1006.61 -2.63989H-2.70703V1000.87H1006.61V-2.63989Z" fill="black"/>
<path d="M619.386 475.94L608.64 534.713L639.533 516.413L619.386 475.94Z" fill="#3A214F"/>
<path d="M625.801 514.173L639.534 520.673L617.561 594.24L625.801 514.173Z" fill="#4A1035"/>
<path d="M609.773 583.84L625.8 577.453L620.067 519.233L609.773 583.84Z" fill="#3A214F"/>
<path d="M373.527 491.627L323.86 510.82L361.887 520.673L373.527 491.627Z" fill="#3A214F"/>
<path d="M341.513 508.087L302.1 519.127L317.986 533.8L341.513 508.087Z" fill="#8763AA"/>
<path d="M320.606 519.233L322.573 544.34L356.246 525.633L320.606 519.233Z" fill="#3A214F"/>
<path d="M304.52 532.2L323.86 527.38L317.446 552.667L304.52 532.2Z" fill="#804697"/>
<path d="M261.74 371.42L287.447 398.72L312.527 395.233L261.74 371.42Z" fill="#3A214F"/>
<path d="M289.86 391.44L399.367 382.06L404.64 350.673L289.86 391.44Z" fill="#4A1035"/>
<path d="M291.66 364.2L299.7 403.38L388.094 396.8L291.66 364.2Z" fill="#3A214F"/>
<path d="M257.5 354.027L261.74 383.887L325.813 366.08L257.5 354.027Z" fill="#643E82"/>
<path d="M312.527 350.673L291.66 377.733L382.947 372.613L312.527 350.673Z" fill="#3A214F"/>
<path d="M332.64 360.507L391.14 364.2L386.893 303.22L332.64 360.507Z" fill="#512E69"/>
<path d="M358.467 355.72L257.5 354.027L269.653 300.913L358.467 355.72Z" fill="#804697"/>
<path d="M318.32 340.733L400.034 310.033L368.167 284.28L318.32 340.733Z" fill="#643E82"/>
<path d="M256.2 318.347L294.254 325.447L299.607 291.86L256.2 318.347Z" fill="#8763AA"/>
<path d="M399.367 237.133L405.7 280.9L363.787 310.753L399.367 237.133Z" fill="#804697"/>
<path d="M298.34 299.813L344.653 338.047L377.967 269.727L298.34 299.813Z" fill="#8763AA"/>
<path d="M264.993 303.627L314.72 266.053L318.32 320.913L264.993 303.627Z" fill="#D3388B"/>
<path d="M306.4 281.927L397.387 283.08L348.9 244.167L306.4 281.927Z" fill="#9957A2"/>
<path d="M350.913 251.313L407.04 237.7L378.98 287.42L350.913 251.313Z" fill="#D3388B"/>
<path d="M400.22 289.007L391.14 338.067L413.12 357.593L400.22 289.007Z" fill="#8763AA"/>
<path d="M455.674 466.6L412.054 508.393L446.06 524.407L455.674 466.6Z" fill="#3A214F"/>
<path d="M430.1 537.6L428.433 505.813L363.146 555.947L430.1 537.6Z" fill="#4A1035"/>
<path d="M433.86 540.433L291.733 621.833L292.687 564.3L433.86 540.433Z" fill="#3A214F"/>
<path d="M357.16 572.387L345.827 598.093L316.627 587.453L357.16 572.387Z" fill="#512E69"/>
<path d="M303.387 620.14L294.253 560.62L210.08 610.067L303.387 620.14Z" fill="#4A1035"/>
<path d="M332.86 579.367L321.66 599.353H263.82L332.86 579.367Z" fill="#512E69"/>
<path d="M257.2 602.233L216.373 581.72L186.026 601.093L257.2 602.233Z" fill="#3A214F"/>
<path d="M206.867 593.06L156.38 570.353L164.113 538.747L206.867 593.06Z" fill="#643E82"/>
<path d="M168.653 558.607L142.647 560.253L136.267 513.6L168.653 558.607Z" fill="#804697"/>
<path d="M420.227 355.72L444.3 448.9L407.04 442.52L420.227 355.72Z" fill="#804697"/>
<path d="M425.88 428.307L431.98 498.787L393.88 474.787L425.88 428.307Z" fill="#8763AA"/>
<path d="M143.667 477.273L165.967 469.5L159.254 552.133L143.667 477.273Z" fill="#643E82"/>
<path d="M414.733 471.693L370.293 522.587L404.64 540.433L414.733 471.693Z" fill="#643E82"/>
<path d="M396.62 413.493L420.227 419.707L400.22 495.833L396.62 413.493Z" fill="#D3388B"/>
<path d="M156.38 514.88L189.24 575.393L215.567 561.42L156.38 514.88Z" fill="#4A1035"/>
<path d="M193.48 562L191.873 593.88L261.74 565.5L193.48 562Z" fill="#6E2467"/>
<path d="M384.746 520.673L391.133 542.3L302.1 552.133L384.746 520.673Z" fill="#804697"/>
<path d="M388.093 486.8L400.22 504.987L332.64 541.547L388.093 486.8Z" fill="#9957A2"/>
<path d="M357.16 537.527L373.527 567.893L309.507 579.593L357.16 537.527Z" fill="#873583"/>
<path d="M332.64 537.527L341.514 562.713L299.7 570.353L332.64 537.527Z" fill="#643E82"/>
<path d="M332.641 577.753L264.587 560.253L213.367 590.547L332.641 577.753Z" fill="#643E82"/>
<path d="M269.653 566.533L308.18 548.427L323.86 561.273L269.653 566.533Z" fill="#9957A2"/>
<path d="M140.507 489.94L156.38 490.813L143.667 536.927L140.507 489.94Z" fill="#8763AA"/>
<path d="M197.72 460.987L156.38 457.72L148.446 484.467L197.72 460.987Z" fill="#8763AA"/>
<path d="M418.706 237.133L382.946 290.907L421.586 283.08L418.706 237.133Z" fill="#804697"/>
<path d="M404.64 279.393L395.373 295.873L418.706 317.767L404.64 279.393Z" fill="#9957A2"/>
<path d="M425.674 319.287L405.7 368.307L455.674 393.267L425.674 319.287Z" fill="#873583"/>
<path d="M405.061 362.233L430.101 372.613L399.367 436.127L405.061 362.233Z" fill="#8763AA"/>
<path d="M399.367 317.767L430.527 291.86L438.067 357.593L399.367 317.767Z" fill="#8763AA"/>
<path d="M411.167 262.56L482.907 302.133L427.74 338.42L411.167 262.56Z" fill="#9957A2"/>
<path d="M418.707 328.313L452.78 308.653V407.62L418.707 328.313Z" fill="#8763AA"/>
<path d="M460.514 305.46L484.987 308.653L455.174 417.213L460.514 305.46Z" fill="#643E82"/>
<path d="M444.3 350.673L462.466 354.027L458.226 389.28L444.3 350.673Z" fill="#9957A2"/>
<path d="M479.746 340.56L517.346 409.267L460.02 432.907L479.746 340.56Z" fill="#3A214F"/>
<path d="M462.467 441.38L482.907 450.973L473.213 504.933L462.467 441.38Z" fill="#8763AA"/>
<path d="M460.02 481.873L484.986 486.587L473.213 520.673L460.02 481.873Z" fill="#8763AA"/>
<path d="M468.506 497.107L464.26 569.373L487.073 560.2L468.506 497.107Z" fill="#8763AA"/>
<path d="M442.813 395.233L425.413 473.193L456.313 500.907L442.813 395.233Z" fill="#3A214F"/>
<path d="M435.42 399.867L473.213 402.733L462.467 497.107L435.42 399.867Z" fill="#9957A2"/>
<path d="M496.226 406.127L510.006 489.5L473.213 497.947L496.226 406.127Z" fill="#4A1035"/>
<path d="M492.439 483.493L512.633 555.947L510.006 450.993L492.439 483.493Z" fill="#4A1035"/>
<path d="M502.54 494.127L468.507 523.44L497.6 566.533L502.54 494.127Z" fill="#643E82"/>
<path d="M490.493 539.153L510.006 537.14L482.906 634.487L490.493 539.153Z" fill="#3A214F"/>
<path d="M512.634 555.947L491.607 615.387L465.82 574.813L512.634 555.947Z" fill="#512E69"/>
<path d="M488.686 624.047L430.1 701.687L464.26 589.36L488.686 624.047Z" fill="#512E69"/>
<path d="M440.867 679.087L388.674 713.773L404.64 724.247L440.867 679.087Z" fill="#3A214F"/>
<path d="M373.526 718.013H397.64L379.633 740.14L373.526 718.013Z" fill="#512E69"/>
<path d="M379.634 727.627L332.86 738.62V757.433L379.634 727.627Z" fill="#643E82"/>
<path d="M461.587 572.387L477.607 581.72L445.561 641.713L461.587 572.387Z" fill="#9957A2"/>
<path d="M444.3 637.467L459.394 644.147L427.74 683.327L444.3 637.467Z" fill="#8763AA"/>
<path d="M435.42 648.58L452.78 662.907L384.427 708.02L435.42 648.58Z" fill="#9957A2"/>
<path d="M379.633 710.267L385.58 726.14L347.493 740.14L379.633 710.267Z" fill="#8763AA"/>
<path d="M338.42 740.14L330.487 752.993H269.653L338.42 740.14Z" fill="#8763AA"/>
<path d="M317.986 749.533L308.18 757.433L280.72 755.1L317.986 749.533Z" fill="#873583"/>
<path d="M282.26 748.694V757.434L250.514 738.313L282.26 748.694Z" fill="#9957A2"/>
<path d="M262.113 744.267L234.033 720.607L229.913 726.14L262.113 744.267Z" fill="#9957A2"/>
<path d="M233.267 725.207L222.28 706.8L240.34 724.513L233.267 725.207Z" fill="#D3388B"/>
<path d="M472.507 622.14L492.44 627.267L452.78 676.16L472.507 622.14Z" fill="#3A214F"/>
<path d="M186.026 630.373L242.886 667.5L250.513 652.807L186.026 630.373Z" fill="#9957A2"/>
<path d="M240.34 654.607L266.386 641.713L256.2 668.187L240.34 654.607Z" fill="#643E82"/>
<path d="M280.72 620.14H303.386L288.96 656.893L280.72 620.14Z" fill="#4A1035"/>
<path d="M289.94 629.193L257.2 651.767L266.387 663.18L289.94 629.193Z" fill="#D3388B"/>
<path d="M431.98 223.22L458.434 211.173L468.507 253.6L431.98 223.22Z" fill="#8763AA"/>
<path d="M458.227 231.7L473.947 227.46L485.52 251.313L458.227 231.7Z" fill="#9957A2"/>
<path d="M440.867 268.453L470.894 234.527L479.747 257.713L440.867 268.453Z" fill="#643E82"/>
<path d="M412.934 257.367L440.827 286.5L464.26 256.327L412.934 257.367Z" fill="#8763AA"/>
<path d="M430.1 230.287L455.173 227.673L469.086 246.6L430.1 230.287Z" fill="#3A214F"/>
<path d="M462.467 251.493L448.92 269.727L432.894 250.84L462.467 251.493Z" fill="#4A1035"/>
<path d="M456.314 237.133L448.92 259.353L425.674 237.7L456.314 237.133Z" fill="#512E69"/>
<path d="M444.3 222.847L435.42 250.893L407.04 237.7L444.3 222.847Z" fill="#643E82"/>
<path d="M443.194 241.06L435.934 264.213L418.707 243.367L443.194 241.06Z" fill="#3A214F"/>
<path d="M454.313 216.213L479.747 211.173L506.3 240.533L454.313 216.213Z" fill="#643E82"/>
<path d="M470.894 219.32L482.907 256.327L502.54 242.36L470.894 219.32Z" fill="#512E69"/>
<path d="M454.313 277.107L491.607 244.167L492.447 350.673L454.313 277.107Z" fill="#8763AA"/>
<path d="M482.26 304.313L521.46 310.753L487.726 378.133L482.26 304.313Z" fill="#9957A2"/>
<path d="M496.687 354.027L502.54 398.72L528.047 375.667L496.687 354.027Z" fill="#9957A2"/>
<path d="M523.861 386.093L531.401 321.96L502.061 334.447L523.861 386.093Z" fill="#8763AA"/>
<path d="M508.747 406.127L557.954 454.967L565.434 382.06L508.747 406.127Z" fill="#8763AA"/>
<path d="M521.46 370.527L590.72 399.867L539.653 312.64L521.46 370.527Z" fill="#643E82"/>
<path d="M481.253 264.02L511.673 236.873L500.926 309.707L481.253 264.02Z" fill="#643E82"/>
<path d="M502.54 253.6L514.253 341.22L571.313 293.487L502.54 253.6Z" fill="#512E69"/>
<path d="M514.253 246.6L518.493 289.007L532.386 252.633L514.253 246.6Z" fill="#512E69"/>
<path d="M546.406 284.513L595.426 330.88L564.293 364.933L546.406 284.513Z" fill="#3A214F"/>
<path d="M514.253 344.8L527.413 393.267L611.326 372.107L514.253 344.8Z" fill="#6E2467"/>
<path d="M575.153 386.733L600.793 378.133L615.16 460.02L575.153 386.733Z" fill="#3A214F"/>
<path d="M546.653 406.127L588.487 399.18L609.773 479.247L546.653 406.127Z" fill="#804697"/>
<path d="M573.807 471.693L616.173 468.507L608.64 607.553L573.807 471.693Z" fill="#873583"/>
<path d="M575.16 418.513L563.653 481.873L608.64 499.627L575.16 418.513Z" fill="#8763AA"/>
<path d="M553.613 432.907L561.193 537.527L609.773 530.327L553.613 432.907Z" fill="#9957A2"/>
<path d="M573.807 512.167L561.193 593.06L608.64 554.607L573.807 512.167Z" fill="#643E82"/>
<path d="M573.807 572.387L605.033 569.373L590.72 646.74L573.807 572.387Z" fill="#4A1035"/>
<path d="M590.72 590.547L616.173 589.36L609.773 620.14L590.72 590.547Z" fill="#3A214F"/>
<path d="M589.633 611.793L608.639 599.353L639.026 676.16L589.633 611.793Z" fill="#512E69"/>
<path d="M609.773 621.833L579.026 629.193L650.04 710.267L609.773 621.833Z" fill="#643E82"/>
<path d="M699.573 738.2L625.8 651.767L638.906 706.8L699.573 738.2Z" fill="#3A214F"/>
<path d="M669.933 734.287L630.42 708.02L662.427 710.267L669.933 734.287Z" fill="#9957A2"/>
<path d="M623.447 701.687L638.907 689.313L579.4 634.487L623.447 701.687Z" fill="#D3388B"/>
<path d="M568.494 572.367L565.434 615.387L595.16 641.713L568.494 572.367Z" fill="#9957A2"/>
<path d="M513.76 419.653L549.253 454.967L523.24 467.453L513.76 419.653Z" fill="#4A1035"/>
<path d="M528.047 469.5L549.474 441.38L559.414 475.94L528.047 469.5Z" fill="#3A214F"/>
<path d="M549.253 468.507L561.193 495.5L530.413 471.693L549.253 468.507Z" fill="#804697"/>
<path d="M568.494 627.267L584.92 645.52L523.24 708.02L568.494 627.267Z" fill="#3A214F"/>
<path d="M514.253 678.3L531.953 699.193L518.493 703.78L514.253 678.3Z" fill="#D3388B"/>
<path d="M583.754 334.68L595.194 412.56L645.894 385.567L583.754 334.68Z" fill="#512E69"/>
<path d="M614.64 394.753L643.266 389.28L669.933 441.38L614.64 394.753Z" fill="#643E82"/>
<path d="M628.546 402.307L603.446 417.213L639.026 432.907L628.546 402.307Z" fill="#3A214F"/>
<path d="M614.047 449.66L617.787 415.327L705.42 483.993L614.047 449.66Z" fill="#3A214F"/>
<path d="M642.287 428.307L659.734 403.38L754.807 510.773L642.287 428.307Z" fill="#512E69"/>
<path d="M662.687 484.28L667.36 444.247L712.946 492.76L662.687 484.28Z" fill="#643E82"/>
<path d="M732.48 469.5L708.054 471.347L720.267 503.467L732.48 469.5Z" fill="#804697"/>
<path d="M732.48 483.44L737.92 546.32L760.041 498.787L732.48 483.44Z" fill="#512E69"/>
<path d="M742.16 519.127L769.567 514.173L785.54 627.267L742.16 519.127Z" fill="#3A214F"/>
<path d="M701.18 503.467L720.266 486.8L742.16 510.64L701.18 503.467Z" fill="#9957A2"/>
<path d="M708.054 499.627L746.4 583.84L765.32 564.247L708.054 499.627Z" fill="#8763AA"/>
<path d="M751.406 569.373L785.54 581.5L762.426 616.033L751.406 569.373Z" fill="#9957A2"/>
<path d="M763.847 607.047L782.827 608.06L812.147 676.7L763.847 607.047Z" fill="#804697"/>
<path d="M765.32 624.047L798.074 648.014L794.38 693.214L765.32 624.047Z" fill="#8763AA"/>
<path d="M798.073 665.013L808.787 708.02L829.72 699.96L798.073 665.013Z" fill="#9957A2"/>
<path d="M897.607 684.1L893.267 710.267L836.867 701.687L897.607 684.1Z" fill="#512E69"/>
<path d="M817.946 697.187L829.086 718.013L884.786 697.46L817.946 697.187Z" fill="#804697"/>
<path d="M889.52 640.64V695.647L904.513 692.9L889.52 640.64Z" fill="#512E69"/>
<path d="M676.507 722.707L668.033 736.787L708.44 734.287L676.507 722.707Z" fill="#D3388B"/>
<path d="M713.36 715.76L701.227 736.787L714.393 733.74L713.36 715.76Z" fill="#9957A2"/>
<path d="M553.613 520.94L581.693 548.92L556.953 585.82L553.613 520.94Z" fill="#D3388B"/>
<path d="M402.106 350.673L409.3 340.56" stroke="#00FF00" stroke-width="1.1" stroke-miterlimit="10"/>
<path d="M540.22 483.993L553.086 479.747" stroke="white" stroke-width="0.69" stroke-miterlimit="10"/>
<path d="M540.18 280.9L551.166 271.367" stroke="white" stroke-width="0.69" stroke-miterlimit="10"/>
<path d="M576.813 377.793L602.453 395.233" stroke="white" stroke-width="0.69" stroke-miterlimit="10"/>
<path d="M540.18 280.9L602.453 395.233" stroke="white" stroke-width="0.69" stroke-miterlimit="10"/>
<path d="M402.107 249.027L376.146 237.7" stroke="white" stroke-width="0.69" stroke-miterlimit="10"/>
<path d="M409.3 340.56L440.86 371.307L458.433 471.693" stroke="white" stroke-width="0.69" stroke-miterlimit="10"/>
<path d="M458.227 471.94L407.347 540.433L325.814 587.307L257.2 597.767L186.027 581.5L141.174 522.4L160.494 463.987L214.361 466.56" stroke="white" stroke-width="0.69" stroke-miterlimit="10"/>
<path d="M402.106 350.673L334.22 377.733L280.733 368.98L249.526 361.96" stroke="white" stroke-width="0.69" stroke-miterlimit="10"/>
<path d="M347.994 408.08L332.64 377.733L323.86 333.127L334.22 287.42L354.54 253.067L377.967 237.3" stroke="white" stroke-width="0.69" stroke-miterlimit="10"/>
<path d="M406.12 356.253L402.106 350.673L391.14 317.767V279.373L402.106 249.027L422.946 227.46" stroke="white" stroke-width="0.69" stroke-miterlimit="10"/>
<path d="M391.14 317.767L363.787 328.353L323.86 333.127H279.253L245.5 330.32" stroke="white" stroke-width="0.69" stroke-miterlimit="10"/>
<path d="M402.106 249.027H386.606L353.833 253.593L311.253 270.007L279.253 283.08" stroke="white" stroke-width="0.69" stroke-miterlimit="10"/>
<path d="M245.5 330.32L334.22 287.42" stroke="white" stroke-width="0.69" stroke-miterlimit="10"/>
<path d="M363.787 328.353L402.107 350.673" stroke="white" stroke-width="0.69" stroke-miterlimit="10"/>
<path d="M332.64 377.727L245.5 330.32" stroke="white" stroke-width="0.69" stroke-miterlimit="10"/>
<path d="M264.993 386.38L334.22 377.727" stroke="white" stroke-width="0.69" stroke-miterlimit="10"/>
<path d="M334.22 377.727H402.106" stroke="white" stroke-width="0.69" stroke-miterlimit="10"/>
<path d="M333.554 286.5L402.107 249.027" stroke="white" stroke-width="0.69" stroke-miterlimit="10"/>
<path d="M279.253 283.08L333.553 286.5" stroke="white" stroke-width="0.69" stroke-miterlimit="10"/>
<path d="M333.554 286.5L391.14 317.767" stroke="white" stroke-width="0.69" stroke-miterlimit="10"/>
<path d="M400.033 386.38L334.22 377.727" stroke="white" stroke-width="0.69" stroke-miterlimit="10"/>
<path d="M160.493 463.987L167.74 469.5" stroke="white" stroke-width="0.69" stroke-miterlimit="10"/>
<path d="M197.72 557.253L191.873 559.08L186.026 581.5" stroke="white" stroke-width="0.69" stroke-miterlimit="10"/>
<path d="M252.566 561.42L246.713 569.373L257.2 597.767" stroke="white" stroke-width="0.69" stroke-miterlimit="10"/>
<path d="M314.72 545.553L312.526 557.253L325.813 587.307" stroke="white" stroke-width="0.69" stroke-miterlimit="10"/>
<path d="M368.833 508.987L375.413 522.4L407.346 540.433" stroke="white" stroke-width="0.69" stroke-miterlimit="10"/>
<path d="M393.333 461.46L412.433 467.853L458.433 471.693" stroke="white" stroke-width="0.69" stroke-miterlimit="10"/>
<path d="M409.301 340.56L412.434 467.853L375.414 522.4L312.527 557.253L246.714 569.373L191.874 559.08L161.161 519.96L141.174 522.4" stroke="white" stroke-width="0.69" stroke-miterlimit="10"/>
<path d="M450.733 327.273L473.213 432.907L482.907 550.367L460.987 627.267L413.987 689.06L358.473 735.187L313.747 751.033H273.287L234.033 719.433" stroke="white" stroke-width="0.69" stroke-miterlimit="10"/>
<path d="M464.26 555.06L482.906 550.367L516.726 561.42" stroke="white" stroke-width="0.69" stroke-miterlimit="10"/>
<path d="M448.54 627.413L460.987 627.267L486.013 641.713" stroke="white" stroke-width="0.69" stroke-miterlimit="10"/>
<path d="M409.3 679.087L413.986 689.06L435.42 699.54" stroke="white" stroke-width="0.69" stroke-miterlimit="10"/>
<path d="M358.474 726.14V735.187L370.294 742.44" stroke="white" stroke-width="0.69" stroke-miterlimit="10"/>
<path d="M314.72 745.813L313.747 751.034L314.354 760.174" stroke="white" stroke-width="0.69" stroke-miterlimit="10"/>
<path d="M274.5 747.813L273.287 751.034L273.407 757.433" stroke="white" stroke-width="0.69" stroke-miterlimit="10"/>
<path d="M440.86 371.307L450.734 327.273L482.907 345.92L511.674 428.307" stroke="white" stroke-width="0.69" stroke-miterlimit="10"/>
<path d="M450.733 327.273L396.62 279.393" stroke="white" stroke-width="0.69" stroke-miterlimit="10"/>
<path d="M396.62 279.393L409.3 340.56" stroke="white" stroke-width="0.69" stroke-miterlimit="10"/>
<path d="M396.62 279.393L402.107 249.027" stroke="white" stroke-width="0.69" stroke-miterlimit="10"/>
<path d="M391.14 317.767L409.3 340.56" stroke="white" stroke-width="0.69" stroke-miterlimit="10"/>
<path d="M391.14 317.767L396.62 279.393" stroke="white" stroke-width="0.69" stroke-miterlimit="10"/>
<path d="M458.434 471.693L473.214 432.9" stroke="white" stroke-width="0.69" stroke-miterlimit="10"/>
<path d="M473.213 432.9L511.673 428.307" stroke="white" stroke-width="0.69" stroke-miterlimit="10"/>
<path d="M482.906 345.92L487.073 300.913" stroke="white" stroke-width="0.69" stroke-miterlimit="10"/>
<path d="M487.073 300.913L506.3 280.9" stroke="white" stroke-width="0.69" stroke-miterlimit="10"/>
<path d="M506.3 280.9H540.18" stroke="white" stroke-width="0.69" stroke-miterlimit="10"/>
<path d="M496.227 234.527L540.18 280.9" stroke="white" stroke-width="0.69" stroke-miterlimit="10"/>
<path d="M445.561 277.107L487.074 300.913" stroke="white" stroke-width="0.69" stroke-miterlimit="10"/>
<path d="M530.413 419.653L576.813 377.793" stroke="white" stroke-width="0.69" stroke-miterlimit="10"/>
<path d="M506.3 280.9L576.813 377.793" stroke="white" stroke-width="0.69" stroke-miterlimit="10"/>
<path d="M487.073 300.913L530.413 419.653" stroke="white" stroke-width="0.69" stroke-miterlimit="10"/>
<path d="M484.987 244.167L453.187 211.173" stroke="white" stroke-width="0.69" stroke-miterlimit="10"/>
<path d="M453.187 211.173L448.92 227.673" stroke="white" stroke-width="0.69" stroke-miterlimit="10"/>
<path d="M445.561 266.053V277.107" stroke="white" stroke-width="0.69" stroke-miterlimit="10"/>
<path d="M461.434 249.027L484.987 244.167" stroke="white" stroke-width="0.69" stroke-miterlimit="10"/>
<path d="M402.106 249.027L420.227 253.6" stroke="white" stroke-width="0.69" stroke-miterlimit="10"/>
<path d="M559.413 579.593L606.113 674.973L685.32 738.62L698.413 733.74" stroke="white" stroke-width="0.69" stroke-miterlimit="10"/>
<path d="M606.113 674.973L639.533 669.94" stroke="white" stroke-width="0.69" stroke-miterlimit="10"/>
<path d="M559.413 579.593H609.773" stroke="white" stroke-width="0.69" stroke-miterlimit="10"/>
<path d="M555.746 486.8L617.559 471.693" stroke="white" stroke-width="0.69" stroke-miterlimit="10"/>
<path d="M576.813 377.793L617.56 471.693" stroke="white" stroke-width="0.69" stroke-miterlimit="10"/>
<path d="M617.56 471.693L559.413 579.593" stroke="white" stroke-width="0.69" stroke-miterlimit="10"/>
<path d="M559.413 579.593L639.533 669.94" stroke="white" stroke-width="0.69" stroke-miterlimit="10"/>
<path d="M639.533 669.94L685.32 738.62" stroke="white" stroke-width="0.69" stroke-miterlimit="10"/>
<path d="M450.734 327.273L445.561 277.107L473.947 259.1L484.987 244.167L496.227 234.527" stroke="white" stroke-width="0.69" stroke-miterlimit="10"/>
<path d="M448.92 227.673L461.433 249.027" stroke="white" stroke-width="0.69" stroke-miterlimit="10"/>
<path d="M461.434 249.027L445.561 266.053" stroke="white" stroke-width="0.69" stroke-miterlimit="10"/>
<path d="M445.56 266.053L420.227 253.6" stroke="white" stroke-width="0.69" stroke-miterlimit="10"/>
<path d="M420.227 253.6L440.827 246.6" stroke="white" stroke-width="0.69" stroke-miterlimit="10"/>
<path d="M440.826 246.6L460.513 249.027" stroke="white" stroke-width="0.69" stroke-miterlimit="10"/>
<path d="M440.826 246.6L448.919 227.673" stroke="white" stroke-width="0.69" stroke-miterlimit="10"/>
<path d="M440.826 246.6L445.56 266.053" stroke="white" stroke-width="0.69" stroke-miterlimit="10"/>
<path d="M448.92 227.673L422.946 227.46" stroke="white" stroke-width="0.69" stroke-miterlimit="10"/>
<path d="M422.947 227.46L420.227 253.6" stroke="white" stroke-width="0.69" stroke-miterlimit="10"/>
<path d="M511.674 430.46L543.16 452.3" stroke="white" stroke-width="0.69" stroke-miterlimit="10"/>
<path d="M602.453 395.233L625.8 371.42" stroke="white" stroke-width="0.69" stroke-miterlimit="10"/>
<path d="M886.046 631.053L900.966 699.54L815.506 704.28L777.246 650.073L759.953 575.353L732.48 516.413L689.133 479.247L608.64 428.307" stroke="white" stroke-width="0.69" stroke-miterlimit="10"/>
<path d="M893.267 692.9L900.967 699.54" stroke="white" stroke-width="0.69" stroke-miterlimit="10"/>
<path d="M777.247 650.073L793.834 645.953" stroke="white" stroke-width="0.69" stroke-miterlimit="10"/>
<path d="M759.953 575.353L779.18 569.373" stroke="white" stroke-width="0.69" stroke-miterlimit="10"/>
<path d="M732.48 516.413L759.034 505.147" stroke="white" stroke-width="0.69" stroke-miterlimit="10"/>
<path d="M689.133 479.247L716.453 454.967" stroke="white" stroke-width="0.69" stroke-miterlimit="10"/>
<path d="M473.946 259.1L506.3 280.9" stroke="white" stroke-width="0.69" stroke-miterlimit="10"/>
<path d="M314.72 510.78L336.893 530.573" stroke="white" stroke-width="0.69" stroke-miterlimit="10"/>
<path d="M551.167 271.367L625.8 371.42" stroke="white" stroke-width="1.37" stroke-miterlimit="10"/>
<path d="M422.947 227.46L376.147 237.7L343.24 249.027L302.84 264.933L276.22 285.407L257.5 305.46L245.5 330.32L249.527 361.96L264.993 386.38L293.76 398.573L347.993 408.08L400.033 386.38" stroke="white" stroke-width="1.37" stroke-miterlimit="10"/>
<path d="M215.093 466.893L167.74 469.5L161.16 519.96L197.72 557.253L252.567 561.42L314.72 545.553L368.833 508.987L393.333 461.46L400.033 386.38L409.3 340.56" stroke="white" stroke-width="1.37" stroke-miterlimit="10"/>
<path d="M458.433 471.693L453.66 512.28L439.033 517.767L427.7 545.187L405.76 558.347L388.58 579.553H369.2L340.68 605.513L321.3 602.953L303.387 620.14L280.72 615.387L252.2 617.947L236.113 607.707L213.807 612.46L196.26 597.767L178.347 596.007L168.473 581.387L152.387 576.993L150.187 558.347L138.487 545.92V531.66L130.08 515.567L135.933 502.04L135.567 483.027L148 471.693L154.58 454.147L167.74 456.707L187.12 454.147L216 467.307" stroke="white" stroke-width="1.37" stroke-miterlimit="10"/>
<path d="M458.433 471.693L464.26 555.06L448.54 627.413L409.3 679.087L358.473 726.14L314.72 745.813L274.5 747.813L234.033 719.433L214.653 692.22L232.02 725.4L273.407 757.433L314.353 760.173L370.293 742.44L434.827 700.213L486.013 641.713L516.727 561.42L512.527 461.46L511.673 428.307" stroke="white" stroke-width="1.37" stroke-miterlimit="10"/>
<path d="M496.227 234.527L523.087 243.367" stroke="white" stroke-width="1.37" stroke-miterlimit="10"/>
<path d="M551.167 271.367L523.087 243.367" stroke="white" stroke-width="1.37" stroke-miterlimit="10"/>
<path d="M496.227 234.527L476.267 211.173" stroke="white" stroke-width="1.37" stroke-miterlimit="10"/>
<path d="M476.267 211.173H453.187" stroke="white" stroke-width="1.37" stroke-miterlimit="10"/>
<path d="M453.186 211.173L422.946 227.46" stroke="white" stroke-width="1.37" stroke-miterlimit="10"/>
<path d="M511.674 428.307L530.414 419.653" stroke="white" stroke-width="1.37" stroke-miterlimit="10"/>
<path d="M698.413 733.253L708.673 729.92L713.246 703.82L716.453 729.007L703.173 742.44L691.726 739.993L669.753 742.44L657.393 723.507L638.62 720.307L618.473 695.58L601.533 689.313L591 658.033L575.893 641.713L570.86 613.627L561.24 605.333L559.413 579.593" stroke="white" stroke-width="1.37" stroke-miterlimit="10"/>
<path d="M559.413 579.593L555.746 486.8L530.413 419.653" stroke="white" stroke-width="1.37" stroke-miterlimit="10"/>
<path d="M698.867 733.74L639.534 669.94L609.774 579.593L617.56 471.693L601.747 394.753" stroke="white" stroke-width="1.37" stroke-miterlimit="10"/>
<path d="M512.633 463.987L556.093 495.5" stroke="white" stroke-width="1.37" stroke-miterlimit="10"/>
<path d="M512.633 463.987L531.953 444.527" stroke="white" stroke-width="1.37" stroke-miterlimit="10"/>
<path d="M531.953 444.527L540.22 483.993" stroke="white" stroke-width="1.37" stroke-miterlimit="10"/>
<path d="M611.326 441.38L628.913 468.507L650.306 464.26L668.38 491.38L696.306 495.5L701.173 519.14L725.153 522.513L726.813 551.687L745.753 561.42L742.553 586.153L759.033 605.333L758.186 624.767L768.193 637.467L769.566 652.813L785.54 672.46L795.66 696.22L815.506 707.027L829.086 718.013L854.726 707.94L874.413 715.76L900.966 702.447L908.753 696.22L902.799 679.087L900.966 659.107L885.706 628.287L893.639 692.88L823.44 695.647L793.833 645.953L779.18 569.373L759.033 505.147L716.453 454.967L674.173 414.4L625.8 371.42" stroke="white" stroke-width="1.37" stroke-miterlimit="10"/>
<path d="M616.174 462.86L643.267 514.96L634.787 557.253L617.561 603.227" stroke="white" stroke-width="1.37" stroke-miterlimit="10"/>
<path d="M614.64 512.167L634.786 557.253" stroke="white" stroke-width="1.37" stroke-miterlimit="10"/>
<path d="M583.02 649.413L523.24 711.52L550.154 662.747L570.86 613.627" stroke="white" stroke-width="1.37" stroke-miterlimit="10"/>
<path d="M634.786 557.253L611.326 558.047" stroke="white" stroke-width="1.37" stroke-miterlimit="10"/>
<path d="M544.793 672.46L553.713 679.86" stroke="white" stroke-width="1.37" stroke-miterlimit="10"/>
<path d="M557.96 645.953L575.153 657.586" stroke="white" stroke-width="1.37" stroke-miterlimit="10"/>
<path d="M557.96 645.953L579.027 643.44" stroke="white" stroke-width="1.37" stroke-miterlimit="10"/>
<path d="M557.96 645.953L553.713 679.86" stroke="white" stroke-width="1.37" stroke-miterlimit="10"/>
<path d="M380.266 486.8L314.72 510.78" stroke="white" stroke-width="1.37" stroke-miterlimit="10"/>
<path d="M314.72 510.78L295.86 550.367" stroke="white" stroke-width="1.37" stroke-miterlimit="10"/>
<path d="M280.72 615.387L276.8 641.713" stroke="white" stroke-width="1.37" stroke-miterlimit="10"/>
<path d="M276.8 641.713L244.106 651.767" stroke="white" stroke-width="1.37" stroke-miterlimit="10"/>
<path d="M244.107 651.767L182.627 627.267" stroke="white" stroke-width="1.37" stroke-miterlimit="10"/>
<path d="M182.627 627.267L244.107 661.02" stroke="white" stroke-width="1.37" stroke-miterlimit="10"/>
<path d="M243.44 660.653L285.734 648.567" stroke="white" stroke-width="1.37" stroke-miterlimit="10"/>
<path d="M285.227 648.567L292.687 617.893" stroke="white" stroke-width="1.37" stroke-miterlimit="10"/>
<path d="M182.627 627.267L194.734 641.713L207.094 644.147L216.707 657.58L234.034 661.02L246.714 669.253L268.674 658.493L288.96 656.893L292.687 640.18L302.1 628.547L296.86 618.773" stroke="white" stroke-width="1.37" stroke-miterlimit="10"/>
<path d="M520.873 714.807L506.653 658.56" stroke="white" stroke-width="1.37" stroke-miterlimit="10"/>
<path d="M506.653 658.56L528.047 701.687" stroke="white" stroke-width="1.37" stroke-miterlimit="10"/>
<path d="M823.44 695.647L815.5 704.28" stroke="#00FF00" stroke-width="1.37" stroke-miterlimit="10"/>
<path d="M151.78 473.427C151.437 474.192 150.876 474.838 150.166 475.284C149.456 475.73 148.631 475.956 147.793 475.932C146.955 475.909 146.143 475.638 145.459 475.154C144.775 474.669 144.25 473.993 143.95 473.21C143.651 472.427 143.59 471.573 143.775 470.756C143.96 469.939 144.384 469.195 144.992 468.618C145.6 468.041 146.366 467.657 147.192 467.515C148.018 467.373 148.867 467.479 149.633 467.82C150.661 468.279 151.464 469.128 151.867 470.179C152.27 471.23 152.238 472.399 151.78 473.427Z" fill="white"/>
<path d="M140.14 485.173C139.798 485.938 139.236 486.585 138.526 487.031C137.817 487.477 136.991 487.702 136.153 487.679C135.315 487.656 134.503 487.385 133.819 486.9C133.135 486.416 132.61 485.739 132.311 484.957C132.011 484.174 131.95 483.32 132.135 482.503C132.321 481.685 132.744 480.941 133.352 480.364C133.961 479.788 134.726 479.404 135.552 479.262C136.378 479.12 137.228 479.226 137.993 479.567C139.02 480.027 139.822 480.876 140.225 481.927C140.627 482.977 140.597 484.145 140.14 485.173Z" fill="white"/>
<path d="M132.966 516.613C132.624 517.378 132.062 518.025 131.353 518.471C130.643 518.916 129.817 519.142 128.979 519.119C128.141 519.096 127.329 518.825 126.645 518.34C125.961 517.856 125.436 517.179 125.137 516.397C124.837 515.614 124.776 514.76 124.962 513.943C125.147 513.125 125.57 512.381 126.179 511.804C126.787 511.228 127.552 510.844 128.378 510.702C129.204 510.56 130.054 510.666 130.82 511.007C131.848 511.466 132.651 512.314 133.054 513.366C133.456 514.417 133.425 515.585 132.966 516.613Z" fill="white"/>
<path d="M142.273 548.053C141.93 548.818 141.369 549.465 140.659 549.911C139.95 550.357 139.124 550.582 138.286 550.559C137.448 550.536 136.636 550.265 135.952 549.781C135.268 549.296 134.743 548.62 134.443 547.837C134.144 547.054 134.083 546.2 134.268 545.383C134.454 544.565 134.877 543.821 135.485 543.244C136.093 542.668 136.859 542.284 137.685 542.142C138.511 542 139.36 542.106 140.126 542.447C140.636 542.673 141.096 542.998 141.479 543.403C141.863 543.808 142.163 544.284 142.363 544.805C142.562 545.326 142.657 545.881 142.641 546.438C142.626 546.995 142.501 547.544 142.273 548.053Z" fill="white"/>
<path d="M156 577.96C155.658 578.726 155.096 579.373 154.386 579.819C153.677 580.266 152.85 580.492 152.012 580.469C151.173 580.446 150.361 580.175 149.677 579.69C148.992 579.205 148.467 578.527 148.168 577.744C147.869 576.961 147.808 576.106 147.995 575.288C148.181 574.471 148.606 573.727 149.215 573.15C149.824 572.574 150.591 572.191 151.418 572.051C152.244 571.91 153.094 572.018 153.86 572.36C154.369 572.587 154.828 572.911 155.211 573.316C155.594 573.72 155.893 574.196 156.092 574.716C156.291 575.236 156.385 575.79 156.369 576.347C156.353 576.904 156.228 577.452 156 577.96Z" fill="white"/>
<path d="M182.26 598.107C181.918 598.873 181.357 599.52 180.648 599.967C179.938 600.414 179.112 600.641 178.274 600.618C177.436 600.596 176.623 600.325 175.939 599.841C175.254 599.357 174.729 598.68 174.428 597.897C174.128 597.114 174.067 596.26 174.252 595.442C174.438 594.624 174.862 593.88 175.47 593.303C176.078 592.726 176.844 592.342 177.671 592.201C178.497 592.059 179.347 592.165 180.113 592.507C180.622 592.733 181.081 593.058 181.464 593.462C181.847 593.866 182.147 594.342 182.347 594.862C182.546 595.382 182.641 595.936 182.626 596.493C182.611 597.05 182.487 597.598 182.26 598.107Z" fill="white"/>
<path d="M217.82 613.52C217.479 614.286 216.918 614.933 216.208 615.38C215.499 615.827 214.673 616.054 213.835 616.032C212.996 616.009 212.184 615.739 211.499 615.254C210.815 614.77 210.289 614.094 209.989 613.311C209.689 612.528 209.628 611.673 209.813 610.856C209.998 610.038 210.422 609.293 211.031 608.716C211.639 608.139 212.405 607.756 213.231 607.614C214.058 607.472 214.908 607.579 215.674 607.92C216.7 608.379 217.502 609.227 217.905 610.276C218.307 611.326 218.277 612.493 217.82 613.52Z" fill="white"/>
<path d="M197.333 643.44C196.991 644.206 196.431 644.853 195.721 645.3C195.012 645.747 194.186 645.974 193.347 645.951C192.509 645.929 191.696 645.659 191.012 645.174C190.327 644.69 189.802 644.014 189.502 643.231C189.201 642.448 189.14 641.593 189.326 640.775C189.511 639.958 189.935 639.213 190.543 638.636C191.152 638.059 191.918 637.676 192.744 637.534C193.57 637.392 194.42 637.499 195.186 637.84C196.211 638.301 197.012 639.148 197.415 640.197C197.817 641.247 197.788 642.412 197.333 643.44Z" fill="white"/>
<path d="M220.247 657.74C219.906 658.506 219.345 659.153 218.635 659.6C217.926 660.047 217.1 660.274 216.261 660.251C215.423 660.229 214.61 659.959 213.926 659.474C213.241 658.99 212.716 658.314 212.416 657.531C212.116 656.748 212.054 655.893 212.24 655.075C212.425 654.258 212.849 653.513 213.457 652.936C214.066 652.359 214.832 651.976 215.658 651.834C216.485 651.692 217.334 651.799 218.1 652.14C218.609 652.367 219.068 652.691 219.451 653.095C219.835 653.5 220.135 653.975 220.334 654.495C220.533 655.015 220.628 655.57 220.613 656.126C220.598 656.683 220.474 657.231 220.247 657.74Z" fill="white"/>
<path d="M250.587 670.98C250.245 671.746 249.684 672.393 248.975 672.84C248.266 673.287 247.44 673.514 246.601 673.491C245.763 673.469 244.95 673.199 244.266 672.714C243.581 672.23 243.056 671.554 242.756 670.771C242.455 669.988 242.394 669.133 242.58 668.315C242.765 667.498 243.189 666.753 243.797 666.176C244.406 665.599 245.171 665.216 245.998 665.074C246.824 664.932 247.674 665.039 248.44 665.38C248.949 665.607 249.408 665.931 249.791 666.335C250.175 666.74 250.474 667.215 250.674 667.735C250.873 668.255 250.968 668.81 250.953 669.366C250.938 669.923 250.814 670.471 250.587 670.98Z" fill="white"/>
<path d="M292.32 657.74C291.979 658.506 291.418 659.153 290.708 659.6C289.999 660.047 289.173 660.274 288.335 660.251C287.496 660.229 286.684 659.959 285.999 659.474C285.315 658.99 284.789 658.314 284.489 657.531C284.189 656.748 284.128 655.893 284.313 655.075C284.498 654.258 284.922 653.513 285.531 652.936C286.139 652.359 286.905 651.976 287.731 651.834C288.558 651.692 289.408 651.799 290.174 652.14C290.682 652.367 291.141 652.691 291.525 653.095C291.908 653.5 292.208 653.975 292.407 654.495C292.606 655.015 292.701 655.57 292.686 656.126C292.672 656.683 292.547 657.231 292.32 657.74Z" fill="white"/>
<path d="M304.92 630.28C304.577 631.045 304.015 631.691 303.305 632.136C302.595 632.582 301.769 632.807 300.931 632.783C300.093 632.759 299.281 632.487 298.597 632.002C297.914 631.517 297.389 630.84 297.09 630.057C296.791 629.273 296.731 628.419 296.918 627.602C297.104 626.785 297.529 626.041 298.137 625.465C298.746 624.889 299.512 624.506 300.339 624.365C301.165 624.224 302.015 624.331 302.78 624.673C303.289 624.9 303.748 625.226 304.131 625.631C304.515 626.036 304.814 626.512 305.013 627.033C305.212 627.553 305.306 628.108 305.29 628.665C305.274 629.223 305.148 629.771 304.92 630.28Z" fill="white"/>
<path d="M255.827 619.626C255.483 620.391 254.921 621.037 254.211 621.483C253.501 621.929 252.675 622.154 251.837 622.13C250.999 622.106 250.187 621.834 249.503 621.349C248.82 620.864 248.295 620.187 247.997 619.403C247.698 618.62 247.638 617.766 247.824 616.949C248.01 616.131 248.435 615.388 249.044 614.811C249.653 614.235 250.419 613.853 251.245 613.712C252.071 613.571 252.921 613.678 253.687 614.02C254.195 614.247 254.655 614.572 255.038 614.977C255.421 615.382 255.72 615.859 255.919 616.379C256.118 616.9 256.212 617.455 256.196 618.012C256.18 618.569 256.055 619.118 255.827 619.626Z" fill="white"/>
<path d="M307.814 621.866C307.472 622.632 306.911 623.28 306.202 623.727C305.492 624.174 304.666 624.4 303.828 624.378C302.99 624.356 302.177 624.085 301.492 623.601C300.808 623.116 300.282 622.44 299.982 621.657C299.682 620.874 299.621 620.02 299.806 619.202C299.992 618.384 300.415 617.64 301.024 617.063C301.632 616.486 302.398 616.102 303.225 615.96C304.051 615.819 304.901 615.925 305.667 616.266C306.176 616.492 306.636 616.817 307.02 617.221C307.403 617.625 307.703 618.101 307.903 618.621C308.102 619.141 308.197 619.696 308.182 620.253C308.166 620.81 308.041 621.358 307.814 621.866Z" fill="#BBBBBC"/>
<path d="M344.286 607.067C343.943 607.831 343.381 608.478 342.671 608.923C341.961 609.369 341.135 609.594 340.297 609.57C339.459 609.546 338.647 609.274 337.963 608.789C337.28 608.304 336.755 607.627 336.456 606.844C336.158 606.06 336.097 605.206 336.284 604.389C336.47 603.571 336.895 602.828 337.504 602.252C338.113 601.676 338.879 601.293 339.705 601.152C340.531 601.011 341.381 601.118 342.146 601.46C343.173 601.92 343.975 602.769 344.376 603.821C344.778 604.872 344.745 606.039 344.286 607.067Z" fill="#BBBBBC"/>
<path d="M565.067 607.067C564.724 607.832 564.163 608.478 563.453 608.924C562.744 609.37 561.918 609.596 561.08 609.572C560.242 609.549 559.43 609.278 558.746 608.794C558.062 608.309 557.537 607.633 557.237 606.85C556.938 606.067 556.877 605.213 557.062 604.396C557.248 603.579 557.671 602.834 558.279 602.258C558.887 601.681 559.653 601.297 560.479 601.155C561.305 601.013 562.154 601.119 562.92 601.46C563.947 601.92 564.749 602.769 565.152 603.82C565.554 604.871 565.523 606.038 565.067 607.067Z" fill="white"/>
<path d="M638.534 558.513C638.191 559.278 637.63 559.925 636.92 560.371C636.21 560.817 635.384 561.042 634.547 561.019C633.709 560.996 632.897 560.725 632.213 560.241C631.529 559.756 631.004 559.08 630.704 558.297C630.404 557.514 630.343 556.66 630.529 555.843C630.714 555.025 631.138 554.281 631.746 553.704C632.354 553.128 633.12 552.744 633.946 552.602C634.772 552.46 635.621 552.566 636.387 552.907C637.415 553.366 638.218 554.214 638.621 555.266C639.023 556.317 638.992 557.485 638.534 558.513Z" fill="#BBBBBC"/>
<path d="M579.027 643.44C578.685 644.206 578.124 644.853 577.414 645.299C576.704 645.746 575.877 645.972 575.039 645.949C574.201 645.926 573.388 645.655 572.704 645.17C572.02 644.685 571.495 644.007 571.195 643.224C570.896 642.441 570.836 641.586 571.022 640.768C571.208 639.951 571.633 639.207 572.242 638.63C572.852 638.054 573.618 637.671 574.445 637.531C575.272 637.39 576.122 637.498 576.887 637.84C577.912 638.3 578.713 639.148 579.114 640.198C579.515 641.248 579.484 642.413 579.027 643.44Z" fill="white"/>
<path d="M563.28 647.68C562.938 648.446 562.376 649.093 561.667 649.539C560.957 649.986 560.13 650.212 559.292 650.189C558.454 650.166 557.641 649.895 556.957 649.409C556.273 648.924 555.748 648.247 555.448 647.464C555.149 646.681 555.089 645.826 555.275 645.008C555.461 644.191 555.886 643.447 556.495 642.87C557.105 642.294 557.871 641.911 558.698 641.771C559.525 641.63 560.375 641.738 561.14 642.08C561.649 642.307 562.108 642.631 562.491 643.036C562.874 643.44 563.173 643.916 563.372 644.436C563.571 644.956 563.665 645.51 563.649 646.067C563.634 646.624 563.508 647.172 563.28 647.68Z" fill="#BBBBBC"/>
<path d="M579.027 659.334C578.684 660.099 578.123 660.745 577.413 661.191C576.704 661.637 575.878 661.862 575.04 661.839C574.202 661.816 573.39 661.545 572.706 661.061C572.022 660.576 571.497 659.9 571.197 659.117C570.898 658.334 570.837 657.48 571.022 656.663C571.207 655.845 571.631 655.101 572.239 654.525C572.847 653.948 573.613 653.564 574.439 653.422C575.265 653.28 576.114 653.386 576.88 653.727C577.908 654.186 578.712 655.034 579.114 656.086C579.517 657.137 579.485 658.305 579.027 659.334Z" fill="#BBBBBC"/>
<path d="M548.667 674.187C548.325 674.952 547.763 675.599 547.053 676.046C546.343 676.493 545.517 676.719 544.679 676.695C543.84 676.672 543.028 676.401 542.344 675.916C541.659 675.431 541.134 674.754 540.835 673.971C540.536 673.187 540.475 672.333 540.662 671.515C540.848 670.697 541.273 669.953 541.882 669.377C542.491 668.8 543.258 668.418 544.085 668.277C544.911 668.136 545.761 668.244 546.527 668.587C547.036 668.813 547.495 669.138 547.878 669.542C548.261 669.946 548.56 670.422 548.759 670.943C548.958 671.463 549.052 672.017 549.036 672.574C549.02 673.13 548.895 673.679 548.667 674.187Z" fill="#BBBBBC"/>
<path d="M557.587 681.587C557.245 682.353 556.684 683 555.975 683.447C555.266 683.894 554.44 684.121 553.601 684.098C552.763 684.076 551.95 683.805 551.266 683.321C550.581 682.837 550.056 682.16 549.756 681.377C549.455 680.594 549.394 679.74 549.58 678.922C549.765 678.104 550.189 677.36 550.797 676.783C551.406 676.206 552.172 675.822 552.998 675.681C553.824 675.539 554.674 675.645 555.44 675.987C556.466 676.446 557.269 677.293 557.671 678.343C558.074 679.393 558.043 680.559 557.587 681.587Z" fill="#BBBBBC"/>
<path d="M534.2 705.507C533.859 706.272 533.298 706.92 532.588 707.367C531.879 707.814 531.053 708.04 530.215 708.018C529.376 707.996 528.564 707.725 527.879 707.241C527.194 706.757 526.669 706.08 526.369 705.297C526.069 704.514 526.007 703.66 526.193 702.842C526.378 702.024 526.802 701.28 527.41 700.703C528.019 700.126 528.785 699.742 529.611 699.601C530.438 699.459 531.288 699.565 532.053 699.907C532.562 700.133 533.021 700.458 533.404 700.862C533.788 701.266 534.088 701.742 534.287 702.262C534.486 702.782 534.581 703.336 534.566 703.893C534.551 704.45 534.427 704.998 534.2 705.507Z" fill="#BBBBBC"/>
<path d="M604.666 690.373C604.323 691.138 603.761 691.784 603.051 692.23C602.341 692.675 601.515 692.9 600.677 692.877C599.839 692.853 599.027 692.581 598.343 692.096C597.66 691.61 597.135 690.933 596.836 690.15C596.537 689.367 596.477 688.513 596.664 687.695C596.85 686.878 597.275 686.134 597.884 685.558C598.492 684.982 599.259 684.599 600.085 684.459C600.911 684.318 601.761 684.425 602.526 684.767C603.035 684.994 603.494 685.319 603.878 685.724C604.261 686.129 604.56 686.606 604.759 687.126C604.958 687.647 605.052 688.202 605.036 688.759C605.02 689.316 604.894 689.865 604.666 690.373Z" fill="white"/>
<path d="M632.78 468.833C632.438 469.599 631.877 470.246 631.167 470.693C630.457 471.139 629.63 471.365 628.792 471.342C627.954 471.319 627.141 471.048 626.457 470.563C625.773 470.078 625.248 469.401 624.948 468.617C624.649 467.834 624.589 466.979 624.775 466.162C624.961 465.344 625.386 464.6 625.995 464.023C626.605 463.447 627.371 463.064 628.198 462.924C629.025 462.783 629.875 462.891 630.64 463.233C631.149 463.46 631.608 463.785 631.991 464.189C632.374 464.593 632.673 465.069 632.872 465.589C633.071 466.109 633.165 466.664 633.149 467.22C633.134 467.777 633.008 468.325 632.78 468.833Z" fill="#BBBBBC"/>
<path d="M673.807 493.333C673.465 494.098 672.903 494.745 672.193 495.191C671.484 495.637 670.658 495.862 669.82 495.839C668.982 495.816 668.17 495.545 667.486 495.061C666.802 494.576 666.277 493.9 665.978 493.117C665.678 492.334 665.617 491.48 665.802 490.663C665.988 489.845 666.411 489.101 667.019 488.525C667.628 487.948 668.393 487.564 669.219 487.422C670.045 487.28 670.895 487.386 671.66 487.727C672.688 488.186 673.492 489.034 673.894 490.086C674.297 491.137 674.266 492.305 673.807 493.333Z" fill="#BBBBBC"/>
<path d="M705.053 520.933C704.711 521.698 704.149 522.345 703.439 522.791C702.73 523.237 701.904 523.462 701.066 523.439C700.228 523.416 699.416 523.145 698.732 522.66C698.048 522.176 697.523 521.5 697.224 520.717C696.924 519.934 696.863 519.08 697.048 518.263C697.234 517.445 697.657 516.701 698.265 516.124C698.874 515.548 699.639 515.164 700.465 515.022C701.291 514.88 702.141 514.986 702.907 515.327C703.934 515.786 704.738 516.634 705.14 517.686C705.543 518.737 705.512 519.905 705.053 520.933Z" fill="#BBBBBC"/>
<path d="M730.46 552.98C730.117 553.745 729.555 554.391 728.845 554.836C728.135 555.282 727.309 555.507 726.471 555.483C725.633 555.459 724.821 555.188 724.137 554.702C723.454 554.217 722.929 553.54 722.63 552.757C722.331 551.974 722.271 551.119 722.458 550.302C722.644 549.485 723.069 548.741 723.678 548.165C724.286 547.589 725.052 547.206 725.879 547.065C726.705 546.924 727.555 547.032 728.32 547.373C729.347 547.834 730.149 548.683 730.55 549.734C730.951 550.785 730.919 551.953 730.46 552.98Z" fill="white"/>
<path d="M746 587.547C745.658 588.312 745.096 588.959 744.386 589.406C743.676 589.853 742.85 590.079 742.012 590.056C741.173 590.032 740.361 589.761 739.677 589.276C738.992 588.791 738.467 588.114 738.168 587.331C737.869 586.547 737.808 585.693 737.995 584.875C738.181 584.057 738.606 583.313 739.215 582.737C739.824 582.161 740.591 581.778 741.418 581.637C742.244 581.497 743.094 581.604 743.86 581.947C744.885 582.407 745.686 583.255 746.087 584.305C746.488 585.354 746.457 586.52 746 587.547Z" fill="white"/>
<path d="M762.06 625.78C761.718 626.545 761.156 627.191 760.446 627.637C759.737 628.083 758.911 628.309 758.073 628.286C757.235 628.263 756.423 627.992 755.739 627.507C755.055 627.023 754.53 626.346 754.23 625.563C753.931 624.781 753.87 623.927 754.055 623.109C754.241 622.292 754.664 621.548 755.272 620.971C755.88 620.394 756.646 620.011 757.472 619.869C758.298 619.727 759.148 619.833 759.913 620.173C760.941 620.632 761.745 621.481 762.147 622.532C762.55 623.584 762.518 624.752 762.06 625.78Z" fill="white"/>
<path d="M773.433 654.54C773.09 655.305 772.528 655.951 771.818 656.396C771.108 656.842 770.281 657.067 769.443 657.043C768.605 657.019 767.793 656.748 767.11 656.262C766.426 655.777 765.902 655.1 765.603 654.317C765.304 653.534 765.244 652.679 765.43 651.862C765.617 651.045 766.041 650.301 766.65 649.725C767.259 649.149 768.025 648.766 768.851 648.625C769.678 648.484 770.527 648.592 771.293 648.933C772.32 649.394 773.122 650.243 773.523 651.294C773.924 652.345 773.892 653.513 773.433 654.54Z" fill="white"/>
<path d="M797.701 694.947C797.358 695.712 796.795 696.358 796.085 696.803C795.375 697.249 794.549 697.474 793.711 697.45C792.873 697.426 792.061 697.154 791.377 696.669C790.694 696.184 790.169 695.507 789.871 694.724C789.572 693.94 789.512 693.086 789.698 692.269C789.884 691.452 790.309 690.708 790.918 690.132C791.527 689.556 792.293 689.173 793.119 689.032C793.945 688.891 794.795 688.998 795.561 689.34C796.07 689.567 796.529 689.893 796.912 690.298C797.295 690.703 797.594 691.179 797.793 691.7C797.992 692.22 798.086 692.775 798.07 693.332C798.054 693.89 797.929 694.438 797.701 694.947Z" fill="white"/>
<path d="M833.593 719.747C833.251 720.512 832.689 721.158 831.98 721.604C831.27 722.05 830.444 722.276 829.606 722.253C828.768 722.229 827.956 721.958 827.272 721.474C826.588 720.989 826.063 720.313 825.764 719.53C825.464 718.747 825.403 717.893 825.588 717.076C825.774 716.259 826.197 715.515 826.806 714.938C827.414 714.361 828.179 713.977 829.005 713.835C829.831 713.693 830.681 713.799 831.447 714.14C831.956 714.367 832.416 714.692 832.8 715.096C833.183 715.501 833.484 715.977 833.683 716.498C833.882 717.019 833.977 717.574 833.962 718.131C833.946 718.689 833.821 719.238 833.593 719.747Z" fill="white"/>
<path d="M877.774 717.493C877.431 718.258 876.869 718.904 876.158 719.35C875.448 719.795 874.622 720.021 873.784 719.997C872.946 719.973 872.134 719.701 871.451 719.216C870.767 718.731 870.243 718.053 869.944 717.27C869.645 716.487 869.585 715.633 869.771 714.816C869.958 713.998 870.382 713.255 870.991 712.678C871.6 712.102 872.366 711.72 873.192 711.579C874.019 711.438 874.868 711.545 875.634 711.887C876.143 712.114 876.602 712.439 876.985 712.844C877.368 713.249 877.667 713.726 877.866 714.246C878.065 714.767 878.159 715.322 878.143 715.879C878.127 716.436 878.002 716.985 877.774 717.493Z" fill="white"/>
<path d="M912.62 697.947C912.277 698.712 911.715 699.358 911.005 699.803C910.295 700.249 909.469 700.474 908.631 700.45C907.793 700.426 906.981 700.154 906.297 699.669C905.614 699.184 905.089 698.507 904.79 697.724C904.492 696.94 904.431 696.086 904.618 695.269C904.804 694.452 905.229 693.708 905.838 693.132C906.447 692.556 907.213 692.173 908.039 692.032C908.865 691.891 909.715 691.998 910.48 692.34C911.507 692.8 912.309 693.65 912.71 694.701C913.112 695.752 913.079 696.919 912.62 697.947Z" fill="white"/>
<path d="M904.84 660.853C904.498 661.619 903.937 662.266 903.228 662.713C902.518 663.16 901.692 663.387 900.854 663.365C900.016 663.342 899.203 663.072 898.519 662.588C897.834 662.103 897.309 661.427 897.008 660.644C896.708 659.861 896.647 659.007 896.832 658.189C897.018 657.371 897.442 656.627 898.05 656.05C898.659 655.473 899.424 655.089 900.251 654.947C901.077 654.806 901.927 654.912 902.693 655.253C903.203 655.479 903.662 655.804 904.046 656.208C904.43 656.612 904.73 657.087 904.929 657.608C905.129 658.128 905.223 658.682 905.208 659.239C905.193 659.796 905.068 660.345 904.84 660.853Z" fill="white"/>
<path d="M642.9 721.733C642.557 722.498 641.996 723.145 641.286 723.591C640.577 724.037 639.751 724.262 638.913 724.239C638.075 724.216 637.263 723.945 636.579 723.46C635.895 722.976 635.37 722.3 635.07 721.517C634.771 720.734 634.71 719.88 634.895 719.063C635.081 718.245 635.504 717.501 636.112 716.924C636.72 716.348 637.486 715.964 638.312 715.822C639.138 715.68 639.987 715.786 640.753 716.127C641.78 716.587 642.582 717.436 642.985 718.487C643.387 719.538 643.356 720.705 642.9 721.733Z" fill="white"/>
<path d="M673.807 744.167C673.465 744.933 672.904 745.58 672.195 746.027C671.485 746.474 670.659 746.701 669.821 746.678C668.983 746.656 668.17 746.385 667.485 745.901C666.801 745.417 666.275 744.74 665.975 743.957C665.675 743.174 665.614 742.32 665.799 741.502C665.985 740.684 666.408 739.94 667.017 739.363C667.625 738.786 668.391 738.402 669.218 738.261C670.044 738.119 670.894 738.225 671.66 738.567C672.169 738.793 672.628 739.118 673.011 739.522C673.394 739.926 673.694 740.402 673.893 740.922C674.093 741.442 674.188 741.996 674.173 742.553C674.158 743.11 674.034 743.658 673.807 744.167Z" fill="white"/>
<path d="M707.687 744.167C707.345 744.933 706.784 745.58 706.075 746.027C705.365 746.474 704.539 746.701 703.701 746.678C702.863 746.656 702.05 746.385 701.365 745.901C700.681 745.417 700.155 744.74 699.855 743.957C699.555 743.174 699.494 742.32 699.679 741.502C699.865 740.684 700.288 739.94 700.897 739.363C701.505 738.786 702.271 738.402 703.098 738.261C703.924 738.119 704.774 738.225 705.54 738.567C706.049 738.793 706.508 739.118 706.891 739.522C707.274 739.926 707.574 740.402 707.773 740.922C707.973 741.442 708.068 741.996 708.053 742.553C708.038 743.11 707.913 743.658 707.687 744.167Z" fill="white"/>
<path d="M392.54 581.333C392.197 582.098 391.635 582.744 390.925 583.19C390.215 583.636 389.389 583.861 388.551 583.837C387.713 583.813 386.901 583.541 386.217 583.056C385.534 582.571 385.009 581.894 384.71 581.11C384.411 580.327 384.351 579.473 384.538 578.656C384.724 577.838 385.149 577.095 385.758 576.518C386.367 575.942 387.133 575.56 387.959 575.419C388.785 575.278 389.635 575.385 390.4 575.727C390.909 575.954 391.369 576.279 391.752 576.684C392.135 577.089 392.434 577.566 392.633 578.086C392.832 578.607 392.926 579.162 392.91 579.719C392.894 580.276 392.769 580.825 392.54 581.333Z" fill="#BBBBBC"/>
<path d="M431.614 546.407C431.271 547.172 430.71 547.818 430 548.264C429.29 548.71 428.465 548.936 427.627 548.913C426.789 548.889 425.977 548.618 425.293 548.134C424.609 547.649 424.084 546.973 423.784 546.19C423.485 545.407 423.424 544.553 423.609 543.736C423.794 542.919 424.218 542.175 424.826 541.598C425.434 541.021 426.2 540.637 427.026 540.495C427.852 540.353 428.701 540.459 429.467 540.8C430.495 541.259 431.298 542.108 431.701 543.159C432.104 544.21 432.072 545.379 431.614 546.407Z" fill="#BBBBBC"/>
<path d="M468.133 556.34C467.789 557.105 467.227 557.751 466.516 558.196C465.806 558.641 464.979 558.865 464.141 558.841C463.303 558.816 462.491 558.544 461.808 558.058C461.125 557.572 460.601 556.894 460.303 556.11C460.004 555.327 459.945 554.472 460.133 553.655C460.32 552.838 460.745 552.095 461.355 551.519C461.965 550.944 462.732 550.562 463.558 550.422C464.385 550.282 465.235 550.391 466 550.733C466.509 550.961 466.968 551.286 467.351 551.691C467.734 552.096 468.033 552.572 468.232 553.093C468.431 553.614 468.525 554.169 468.509 554.726C468.493 555.283 468.368 555.832 468.14 556.34" fill="white"/>
<path d="M452.413 629C452.071 629.765 451.509 630.411 450.8 630.857C450.09 631.303 449.264 631.529 448.426 631.506C447.589 631.483 446.776 631.212 446.093 630.727C445.409 630.243 444.884 629.566 444.584 628.783C444.284 628.001 444.223 627.147 444.409 626.329C444.594 625.512 445.018 624.768 445.626 624.191C446.234 623.614 446.999 623.231 447.825 623.089C448.651 622.947 449.501 623.053 450.267 623.393C451.295 623.852 452.098 624.701 452.501 625.752C452.903 626.804 452.872 627.972 452.413 629Z" fill="white"/>
<path d="M413.167 680.813C412.825 681.579 412.263 682.226 411.553 682.673C410.843 683.119 410.017 683.345 409.179 683.322C408.34 683.299 407.528 683.028 406.844 682.543C406.159 682.058 405.634 681.381 405.335 680.597C405.036 679.814 404.975 678.959 405.162 678.142C405.348 677.324 405.773 676.58 406.382 676.003C406.991 675.427 407.758 675.044 408.585 674.904C409.411 674.763 410.261 674.871 411.027 675.213C411.536 675.44 411.995 675.765 412.378 676.169C412.761 676.573 413.06 677.049 413.259 677.569C413.458 678.089 413.552 678.644 413.536 679.2C413.52 679.757 413.395 680.305 413.167 680.813Z" fill="white"/>
<path d="M362.34 727.867C361.998 728.632 361.437 729.28 360.728 729.727C360.018 730.174 359.192 730.4 358.354 730.378C357.516 730.356 356.703 730.085 356.019 729.601C355.334 729.117 354.809 728.44 354.508 727.657C354.208 726.874 354.147 726.02 354.332 725.202C354.518 724.384 354.942 723.64 355.55 723.063C356.159 722.486 356.924 722.102 357.751 721.96C358.577 721.819 359.427 721.925 360.193 722.266C360.702 722.492 361.162 722.817 361.546 723.221C361.93 723.625 362.23 724.101 362.429 724.621C362.629 725.141 362.723 725.696 362.708 726.253C362.693 726.81 362.568 727.358 362.34 727.867Z" fill="white"/>
<path d="M317.62 747.547C317.277 748.312 316.716 748.958 316.006 749.404C315.296 749.85 314.47 750.076 313.633 750.052C312.795 750.029 311.983 749.758 311.299 749.274C310.615 748.789 310.09 748.113 309.79 747.33C309.49 746.547 309.429 745.693 309.615 744.876C309.8 744.059 310.224 743.314 310.832 742.738C311.44 742.161 312.205 741.777 313.032 741.635C313.858 741.493 314.707 741.599 315.473 741.94C316.501 742.399 317.304 743.248 317.707 744.299C318.109 745.35 318.078 746.518 317.62 747.547Z" fill="white"/>
<path d="M277.767 749.547C277.425 750.312 276.863 750.958 276.153 751.404C275.444 751.85 274.618 752.076 273.78 752.052C272.942 752.029 272.13 751.758 271.446 751.274C270.762 750.789 270.237 750.113 269.938 749.33C269.638 748.547 269.577 747.693 269.762 746.876C269.948 746.059 270.371 745.314 270.979 744.738C271.588 744.161 272.353 743.777 273.179 743.635C274.005 743.493 274.855 743.599 275.62 743.94C276.13 744.167 276.59 744.491 276.974 744.896C277.357 745.301 277.658 745.777 277.857 746.298C278.056 746.819 278.151 747.374 278.136 747.931C278.12 748.489 277.995 749.038 277.767 749.547Z" fill="white"/>
<path d="M457.86 513.9C457.517 514.665 456.956 515.311 456.246 515.757C455.537 516.203 454.711 516.429 453.873 516.406C453.035 516.382 452.223 516.111 451.539 515.627C450.855 515.142 450.33 514.466 450.03 513.683C449.731 512.901 449.67 512.047 449.855 511.229C450.041 510.412 450.464 509.668 451.072 509.091C451.68 508.514 452.446 508.131 453.272 507.989C454.098 507.847 454.947 507.953 455.713 508.293C456.741 508.752 457.545 509.601 457.947 510.652C458.35 511.704 458.318 512.872 457.86 513.9Z" fill="#BBBBBC"/>
<path d="M535.827 447.333C535.486 448.099 534.925 448.746 534.215 449.193C533.506 449.641 532.68 449.867 531.842 449.845C531.003 449.822 530.191 449.552 529.506 449.068C528.821 448.583 528.296 447.907 527.996 447.124C527.696 446.341 527.634 445.487 527.82 444.669C528.005 443.851 528.429 443.107 529.037 442.53C529.646 441.953 530.412 441.569 531.238 441.427C532.065 441.285 532.915 441.392 533.68 441.733C534.189 441.96 534.648 442.285 535.031 442.689C535.415 443.093 535.715 443.569 535.914 444.089C536.113 444.609 536.208 445.163 536.193 445.72C536.178 446.276 536.054 446.825 535.827 447.333Z" fill="#BBBBBC"/>
<path d="M518.12 466C517.777 466.765 517.215 467.411 516.505 467.856C515.795 468.302 514.969 468.527 514.131 468.503C513.293 468.479 512.481 468.208 511.797 467.722C511.114 467.237 510.589 466.56 510.29 465.777C509.992 464.994 509.931 464.139 510.118 463.322C510.304 462.505 510.729 461.761 511.338 461.185C511.947 460.609 512.713 460.226 513.539 460.085C514.365 459.944 515.215 460.052 515.98 460.393C516.489 460.621 516.949 460.946 517.332 461.351C517.715 461.756 518.014 462.232 518.213 462.753C518.412 463.274 518.506 463.829 518.49 464.386C518.474 464.943 518.349 465.491 518.12 466Z" fill="#BBBBBC"/>
<path d="M544.093 485.22C543.75 485.985 543.188 486.631 542.478 487.076C541.768 487.522 540.942 487.747 540.104 487.723C539.266 487.699 538.454 487.428 537.77 486.942C537.086 486.457 536.562 485.78 536.263 484.997C535.964 484.214 535.904 483.359 536.091 482.542C536.277 481.725 536.701 480.981 537.31 480.405C537.919 479.829 538.685 479.446 539.512 479.305C540.338 479.164 541.188 479.272 541.953 479.613C542.98 480.074 543.782 480.923 544.183 481.974C544.584 483.025 544.552 484.193 544.093 485.22Z" fill="#BBBBBC"/>
<path d="M352.766 409.333C352.424 410.099 351.863 410.746 351.153 411.193C350.443 411.639 349.617 411.865 348.778 411.842C347.94 411.819 347.127 411.548 346.443 411.063C345.759 410.578 345.234 409.901 344.935 409.117C344.635 408.334 344.575 407.479 344.761 406.662C344.948 405.844 345.372 405.1 345.982 404.523C346.591 403.947 347.357 403.564 348.184 403.424C349.011 403.283 349.861 403.391 350.626 403.733C351.135 403.96 351.594 404.285 351.977 404.689C352.36 405.093 352.66 405.569 352.858 406.089C353.057 406.609 353.151 407.164 353.136 407.72C353.12 408.277 352.994 408.825 352.766 409.333Z" fill="white"/>
<path d="M252.04 363.56C251.698 364.326 251.136 364.973 250.426 365.419C249.717 365.866 248.89 366.092 248.052 366.069C247.213 366.046 246.401 365.774 245.717 365.289C245.032 364.804 244.507 364.127 244.208 363.344C243.909 362.56 243.848 361.706 244.035 360.888C244.221 360.07 244.646 359.326 245.255 358.75C245.864 358.174 246.631 357.791 247.458 357.65C248.284 357.51 249.134 357.617 249.9 357.96C250.409 358.186 250.868 358.511 251.251 358.915C251.634 359.32 251.933 359.796 252.132 360.316C252.331 360.836 252.425 361.39 252.409 361.947C252.393 362.504 252.268 363.052 252.04 363.56Z" fill="white"/>
<path d="M261.374 307.193C261.031 307.958 260.469 308.605 259.76 309.051C259.05 309.497 258.224 309.722 257.386 309.699C256.549 309.676 255.736 309.405 255.053 308.92C254.369 308.436 253.844 307.76 253.544 306.977C253.244 306.194 253.183 305.34 253.369 304.523C253.554 303.705 253.978 302.961 254.586 302.384C255.194 301.808 255.959 301.424 256.785 301.282C257.611 301.14 258.461 301.246 259.227 301.587C260.255 302.046 261.058 302.894 261.461 303.946C261.863 304.997 261.832 306.165 261.374 307.193Z" fill="white"/>
<path d="M307.72 265.94C307.377 266.706 306.816 267.353 306.106 267.799C305.396 268.246 304.57 268.472 303.732 268.449C302.893 268.426 302.08 268.154 301.396 267.669C300.712 267.184 300.187 266.507 299.888 265.724C299.588 264.941 299.528 264.086 299.714 263.268C299.901 262.451 300.325 261.707 300.935 261.13C301.544 260.554 302.311 260.171 303.137 260.031C303.964 259.89 304.814 259.998 305.58 260.34C306.088 260.567 306.547 260.891 306.93 261.296C307.313 261.7 307.613 262.176 307.812 262.696C308.01 263.216 308.105 263.77 308.089 264.327C308.073 264.884 307.948 265.432 307.72 265.94Z" fill="white"/>
<path d="M426.82 229.193C426.477 229.958 425.916 230.605 425.206 231.051C424.497 231.497 423.671 231.722 422.833 231.699C421.995 231.676 421.183 231.405 420.499 230.92C419.815 230.436 419.29 229.76 418.99 228.977C418.691 228.194 418.63 227.34 418.815 226.523C419 225.705 419.424 224.961 420.032 224.384C420.64 223.808 421.406 223.424 422.232 223.282C423.058 223.14 423.907 223.246 424.673 223.587C425.701 224.046 426.505 224.894 426.907 225.946C427.31 226.997 427.278 228.165 426.82 229.193Z" fill="white"/>
<path d="M412.747 342.287C412.405 343.052 411.843 343.699 411.133 344.146C410.424 344.593 409.597 344.819 408.759 344.796C407.92 344.772 407.108 344.501 406.424 344.016C405.739 343.531 405.214 342.854 404.915 342.071C404.616 341.287 404.555 340.433 404.742 339.615C404.928 338.797 405.353 338.053 405.962 337.477C406.571 336.901 407.338 336.518 408.165 336.377C408.991 336.237 409.841 336.344 410.607 336.687C411.633 337.146 412.435 337.993 412.836 339.044C413.238 340.094 413.206 341.26 412.747 342.287Z" fill="white"/>
<path d="M444.7 248.327C444.359 249.092 443.798 249.74 443.088 250.187C442.379 250.634 441.553 250.861 440.715 250.838C439.876 250.816 439.064 250.545 438.379 250.061C437.694 249.577 437.169 248.9 436.869 248.117C436.569 247.334 436.507 246.48 436.693 245.662C436.878 244.844 437.302 244.1 437.91 243.523C438.519 242.946 439.285 242.562 440.111 242.421C440.938 242.279 441.788 242.385 442.554 242.727C443.063 242.953 443.523 243.277 443.906 243.681C444.29 244.085 444.59 244.561 444.79 245.081C444.989 245.601 445.084 246.156 445.068 246.713C445.053 247.27 444.928 247.818 444.7 248.327Z" fill="white"/>
<path d="M500.56 236.253C500.218 237.019 499.657 237.667 498.948 238.114C498.238 238.561 497.412 238.787 496.574 238.765C495.736 238.742 494.923 238.472 494.238 237.988C493.554 237.503 493.028 236.827 492.728 236.044C492.428 235.261 492.367 234.407 492.552 233.589C492.738 232.771 493.161 232.027 493.77 231.45C494.378 230.873 495.144 230.489 495.971 230.347C496.797 230.206 497.647 230.312 498.413 230.653C498.922 230.88 499.381 231.205 499.764 231.609C500.147 232.013 500.447 232.489 500.646 233.009C500.846 233.529 500.941 234.083 500.926 234.64C500.911 235.196 500.786 235.745 500.56 236.253Z" fill="white"/>
<path d="M555.04 273.333C554.698 274.099 554.136 274.746 553.426 275.193C552.717 275.639 551.89 275.865 551.052 275.842C550.213 275.819 549.401 275.548 548.717 275.063C548.032 274.578 547.507 273.901 547.208 273.117C546.909 272.334 546.848 271.479 547.035 270.662C547.221 269.844 547.646 269.1 548.255 268.523C548.864 267.947 549.631 267.564 550.458 267.424C551.284 267.283 552.134 267.391 552.9 267.733C553.409 267.96 553.868 268.285 554.251 268.689C554.634 269.093 554.933 269.569 555.132 270.089C555.331 270.609 555.425 271.164 555.409 271.72C555.393 272.277 555.268 272.825 555.04 273.333Z" fill="white"/>
<path d="M628.54 373.153C628.197 373.918 627.635 374.564 626.925 375.01C626.215 375.455 625.389 375.68 624.551 375.657C623.713 375.633 622.901 375.361 622.217 374.876C621.534 374.39 621.009 373.713 620.71 372.93C620.411 372.147 620.351 371.293 620.538 370.475C620.724 369.658 621.149 368.914 621.758 368.338C622.367 367.762 623.133 367.379 623.959 367.239C624.785 367.098 625.635 367.205 626.4 367.547C626.909 367.774 627.368 368.099 627.752 368.504C628.135 368.909 628.434 369.386 628.633 369.906C628.832 370.427 628.926 370.982 628.91 371.539C628.894 372.096 628.768 372.645 628.54 373.153Z" fill="white"/>
<path d="M462.1 473.427C461.758 474.192 461.196 474.838 460.486 475.284C459.777 475.73 458.951 475.956 458.113 475.932C457.275 475.909 456.463 475.638 455.779 475.154C455.095 474.669 454.57 473.993 454.271 473.21C453.971 472.427 453.91 471.573 454.095 470.756C454.281 469.939 454.704 469.195 455.312 468.618C455.921 468.041 456.686 467.657 457.512 467.515C458.338 467.373 459.188 467.479 459.953 467.82C460.463 468.047 460.923 468.372 461.307 468.776C461.69 469.181 461.991 469.657 462.19 470.178C462.389 470.699 462.484 471.254 462.469 471.811C462.453 472.369 462.328 472.918 462.1 473.427Z" fill="white"/>
<path d="M395.006 464.593C394.664 465.358 394.102 466.004 393.393 466.45C392.683 466.896 391.857 467.122 391.019 467.099C390.181 467.076 389.369 466.805 388.685 466.32C388.001 465.836 387.476 465.159 387.177 464.377C386.877 463.594 386.816 462.74 387.002 461.923C387.187 461.105 387.611 460.361 388.219 459.784C388.827 459.207 389.592 458.824 390.418 458.682C391.244 458.54 392.094 458.646 392.86 458.987C393.887 459.446 394.691 460.294 395.094 461.346C395.496 462.397 395.465 463.565 395.006 464.593Z" fill="white"/>
<path d="M653.38 343.147C653 344.628 652.189 345.964 651.049 346.984C649.91 348.005 648.493 348.664 646.979 348.88C645.465 349.095 643.921 348.857 642.542 348.195C641.163 347.533 640.012 346.476 639.233 345.16C638.454 343.843 638.084 342.326 638.168 340.798C638.252 339.271 638.787 337.803 639.706 336.58C640.624 335.357 641.885 334.434 643.328 333.927C644.771 333.42 646.332 333.353 647.813 333.733C649.799 334.245 651.5 335.524 652.544 337.289C653.587 339.053 653.888 341.16 653.38 343.147Z" fill="#311A49"/>
<path d="M216.32 383.693C215.942 385.178 215.132 386.516 213.993 387.54C212.853 388.564 211.436 389.226 209.92 389.444C208.404 389.662 206.858 389.425 205.476 388.764C204.095 388.102 202.941 387.046 202.16 385.728C201.379 384.411 201.007 382.891 201.091 381.362C201.174 379.832 201.709 378.362 202.628 377.137C203.548 375.912 204.81 374.988 206.255 374.48C207.7 373.973 209.263 373.905 210.746 374.287C212.731 374.799 214.431 376.076 215.476 377.839C216.52 379.602 216.824 381.707 216.32 383.693Z" fill="#292A29"/>
<path d="M102.234 450C101.852 451.481 101.04 452.815 99.9006 453.835C98.7608 454.854 97.3443 455.513 95.8302 455.728C94.3162 455.942 92.7725 455.703 91.3943 455.04C90.0161 454.378 88.8653 453.322 88.0873 452.005C87.3093 450.689 86.9391 449.171 87.0235 447.644C87.1079 446.117 87.643 444.65 88.5613 443.427C89.4796 442.204 90.7397 441.281 92.1825 440.774C93.6253 440.268 95.186 440.2 96.6672 440.58C98.6541 441.092 100.357 442.371 101.4 444.138C102.444 445.904 102.744 448.013 102.234 450Z" fill="#311A49"/>
<path d="M483.754 746.187C483.373 747.666 482.562 748.999 481.423 750.018C480.284 751.036 478.869 751.694 477.357 751.909C475.844 752.124 474.302 751.885 472.925 751.223C471.548 750.562 470.398 749.507 469.621 748.192C468.843 746.877 468.473 745.361 468.557 743.836C468.64 742.31 469.174 740.844 470.091 739.622C471.008 738.4 472.266 737.477 473.707 736.97C475.148 736.463 476.707 736.395 478.187 736.773C480.174 737.284 481.876 738.562 482.92 740.327C483.964 742.093 484.264 744.2 483.754 746.187Z" fill="#311A49"/>
<path d="M795.713 778.06C795.009 780.803 793.507 783.276 791.397 785.165C789.288 787.054 786.665 788.276 783.862 788.675C781.058 789.074 778.199 788.633 775.646 787.407C773.093 786.182 770.961 784.227 769.519 781.789C768.077 779.352 767.39 776.542 767.545 773.714C767.7 770.886 768.69 768.168 770.39 765.903C772.09 763.638 774.423 761.927 777.095 760.988C779.767 760.049 782.657 759.923 785.4 760.627C789.079 761.572 792.232 763.939 794.166 767.208C796.1 770.477 796.656 774.381 795.713 778.06Z" fill="#292A29"/>
</g>
<defs>
<clipPath id="clip0">
<rect width="1000" height="1000" fill="white"/>
</clipPath>
</defs>
</svg>
