<svg width="1000" height="1000" viewBox="0 0 1000 1000" fill="none" xmlns="http://www.w3.org/2000/svg">
<g clip-path="url(#clip0)">
<path d="M1002.68 -1.72668H-1.5332V1002.49H1002.68V-1.72668Z" fill="black"/>
<path d="M569.554 524.233L629.4 540.553L594.42 650.153L569.554 524.233Z" fill="#643E82"/>
<path d="M517.473 171.86L481.613 243.033L588.467 228.867L517.473 171.86Z" fill="#643E82"/>
<path d="M466.174 207.1L526.801 222.127L500.894 252.18L466.174 207.1Z" fill="#804697"/>
<path d="M529.133 283.273L529.906 387.427L599.866 287.16L529.133 283.273Z" fill="#804697"/>
<path d="M616.573 473.32L533.793 469.82L552.84 554.933L616.573 473.32Z" fill="#3A214F"/>
<path d="M498.3 579.673L549.6 562.06L554.78 693.16L498.3 579.673Z" fill="#9957A2"/>
<path d="M473.946 494.693L562.033 483.293L564.106 612.32L473.946 494.693Z" fill="#9957A2"/>
<path d="M534.96 754.307L573.047 792.007L519.807 835.533L534.96 754.307Z" fill="#512E69"/>
<path d="M590.533 491.587L600.64 536.28L636.393 539L590.533 491.587Z" fill="#3A214F"/>
<path d="M627.46 404.527L672.153 446.5L633.287 539L627.46 404.527Z" fill="#4A1035"/>
<path d="M514.7 619.02L566.034 553.42L593.047 643.42L514.7 619.02Z" fill="#8763AA"/>
<path d="M518.247 836.02L476.514 832.053L461.561 864.653L518.247 836.02Z" fill="#643E82"/>
<path d="M517.087 637.907L570.654 693.033L533.26 795.607L517.087 637.907Z" fill="#643E82"/>
<path d="M499.233 264.827L579.14 217.46L596.4 311.307L499.233 264.827Z" fill="#3A214F"/>
<path d="M442.094 203.74L479.28 234.66L498.434 179.82L442.094 203.74Z" fill="#643E82"/>
<path d="M337.22 251.64L477.12 253.593L472.513 220.453L337.22 251.64Z" fill="#643E82"/>
<path d="M455.514 434.333L503.14 544.693L557.047 485.873L455.514 434.333Z" fill="#643E82"/>
<path d="M496.406 378.273L518.12 478.527L591.533 428.06L496.406 378.273Z" fill="#4A1035"/>
<path d="M331.02 243.627L352.153 261.193L368.306 233.167L331.02 243.627Z" fill="#D3388B"/>
<path d="M371.68 231.687L373.066 242.487L436.013 214.06L371.68 231.687Z" fill="#8763AA"/>
<path d="M424.2 217.98L418.5 186.373L467.047 182.32L424.2 217.98Z" fill="#D3388B"/>
<path d="M449.973 204.573L445.446 170.827L485.54 166.96L449.973 204.573Z" fill="#8763AA"/>
<path d="M428.1 246.787L438.18 263.033L470.173 207.793L428.1 246.787Z" fill="#8763AA"/>
<path d="M547.007 192.073L472.394 252.7L569.86 240.633L547.007 192.073Z" fill="#8763AA"/>
<path d="M496.86 284.3L522.427 279.347L500.827 344.3L496.86 284.3Z" fill="#8763AA"/>
<path d="M483.44 364.633L457.72 458.327L508.866 445.813L483.44 364.633Z" fill="#8763AA"/>
<path d="M549.14 399.96L573.44 418.013L559.113 448.993L549.14 399.96Z" fill="#8763AA"/>
<path d="M476.5 450.353L466.813 472.32L511.667 493.173L476.5 450.353Z" fill="#8763AA"/>
<path d="M488.066 533.593L519.293 516.667L512.993 609.353L488.066 533.593Z" fill="#8763AA"/>
<path d="M518.267 666.633L547.607 663.153L529.3 778.02L518.267 666.633Z" fill="#8763AA"/>
<path d="M510.293 800.453L523.96 783.587L531.16 802.433L510.293 800.453Z" fill="#8763AA"/>
<path d="M447.653 823.78L440.887 843.527L386.813 820.013L447.653 823.78Z" fill="#8763AA"/>
<path d="M354.946 246.367L363.406 259.12L414.106 244.567L354.946 246.367Z" fill="#9957A2"/>
<path d="M409.427 216.373L415.227 239.78L456.147 209.473L409.427 216.373Z" fill="#9957A2"/>
<path d="M461.066 161.147L492.6 148.027L484.306 213.833L461.066 161.147Z" fill="#9957A2"/>
<path d="M433.16 178.807L431.64 192.993L453.833 180.807L433.16 178.807Z" fill="#9957A2"/>
<path d="M505.413 292.36L537.92 289.367L501.854 383.753L505.413 292.36Z" fill="#9957A2"/>
<path d="M466.307 393.273L480.913 410.66L525.313 384.2L466.307 393.273Z" fill="#9957A2"/>
<path d="M651.166 396.753L671.76 443.78L644.833 455.933L651.166 396.753Z" fill="#9957A2"/>
<path d="M649.667 432.073L655.054 497.413L668.687 452.18L649.667 432.073Z" fill="#8763AA"/>
<path d="M493.107 322.633L483.247 356.847L525.427 362.847L493.107 322.633Z" fill="#8763AA"/>
<path d="M356.24 237.793L375.714 250.053L397.094 236.373L356.24 237.793Z" fill="#8763AA"/>
<path d="M517.473 708.854L556.606 718.52L516.326 755.793L517.473 708.854Z" fill="#9957A2"/>
<path d="M514.64 758.68L541.154 775.367L496.82 802.473L514.64 758.68Z" fill="#9957A2"/>
<path d="M425.88 828.907L472.373 812.533L467.167 845.013L425.88 828.907Z" fill="#9957A2"/>
<path d="M403.44 839.56L404.833 829.287L369.913 810.253L403.44 839.56Z" fill="#9957A2"/>
<path d="M507.493 782.76L520.013 808.533L456.493 835.067L507.493 782.76Z" fill="#8763AA"/>
<path d="M474 168.8L498.26 152.52L554.507 229.3L474 168.8Z" fill="#3A214F"/>
<path d="M587.946 224.713L562.606 300.367L606.6 262.547L587.946 224.713Z" fill="#512E69"/>
<path d="M557.453 286.793L594.14 303.707L584.393 333.487L557.453 286.793Z" fill="#4A1035"/>
<path d="M553.694 322.26L540.554 399.967L600.48 372.593L553.694 322.26Z" fill="#643E82"/>
<path d="M579.96 336.233L560.354 360.673L611.793 419.167L579.96 336.233Z" fill="#3A214F"/>
<path d="M555.333 399.387L580.02 387.747L581.9 492.953L555.333 399.387Z" fill="#3A214F"/>
<path d="M586.047 555.013L612.64 547.1L626.714 606.693L586.047 555.013Z" fill="#3A214F"/>
<path d="M621.453 625.907L583.453 687.947L619.14 694.033L621.453 625.907Z" fill="#3A214F"/>
<path d="M597.333 703.067L565.633 731.74L595.766 745.36L597.333 703.067Z" fill="#3A214F"/>
<path d="M535.38 801.653L562.341 806.2L529.787 829.907L535.38 801.653Z" fill="#4A1035"/>
<path d="M521.546 829.467L506.62 819.913L483.793 860.267L521.546 829.467Z" fill="#3A214F"/>
<path d="M452.46 842.073L461.56 864.653L409.1 837.48L452.46 842.073Z" fill="#3A214F"/>
<path d="M559.04 566.867L579.173 632.927L628.547 609.647L559.04 566.867Z" fill="#643E82"/>
<path d="M580.106 651.573L628.513 643.213L602.053 703.413L580.106 651.573Z" fill="#4A1035"/>
<path d="M614.44 583.627L584.427 613.707L619.247 661.24L614.44 583.627Z" fill="#3A214F"/>
<path d="M548.413 442.953L597.273 464.993L534.113 491.107L548.413 442.953Z" fill="#512E69"/>
<path d="M562.66 470.527L587.707 462.753L583.394 568.527L562.66 470.527Z" fill="#4A1035"/>
<path d="M575.693 696.533L591.593 754.78L546.113 769.507L575.693 696.533Z" fill="#512E69"/>
<path d="M608.653 533.1L609.753 481.487L644.84 519.233L608.653 533.1Z" fill="#512E69"/>
<path d="M645.333 394.033L587.939 422.613L593.619 497.02L645.333 394.033Z" fill="#804697"/>
<path d="M495.8 337.74L468.9 384.707L519.34 373.04L495.8 337.74Z" fill="#D3388B"/>
<path d="M507.493 782.76L511.293 805.693L481.453 803.76L507.493 782.76Z" fill="#D3388B"/>
<path d="M441.533 825.127L457.68 836.647L457.993 823.087L441.533 825.127Z" fill="#D3388B"/>
<path d="M565.674 800.04L543.934 741.933L574.407 682.927L565.674 800.04Z" fill="#3A214F"/>
<path d="M587.766 641.5L550.793 680.807L593.953 700.253L587.766 641.5Z" fill="#643E82"/>
<path d="M581.06 746.713L558.6 799.52L590.306 770.84L581.06 746.713Z" fill="#4A1035"/>
<path d="M606.86 433.287L637.953 450.387L605.307 536.667L606.86 433.287Z" fill="#8763AA"/>
<path d="M647.213 468.667L596.906 507.253L651.58 503.393L647.213 468.667Z" fill="#512E69"/>
<path d="M356.833 771.927L386.813 820.013L369.786 831.52L356.833 771.927Z" fill="#D3388B"/>
<path d="M491.047 192.073L512.294 209.173L525.247 241.82L491.047 192.073Z" fill="#804697"/>
<path d="M521.36 650.927L538.46 673.467L577.32 661.033L521.36 650.927Z" fill="#D3388B"/>
<path d="M451.406 434.067L507.366 416.187L503.48 394.427L451.406 434.067Z" fill="#D3388B"/>
<path d="M626.681 401.033L651.167 396.753L655.441 422.793L626.681 401.033Z" fill="#D3388B"/>
<path d="M416.76 208.433L342.34 239.48L322.847 239.713L338.76 268.427L424.62 254.28L427.1 269.927L497.953 259.5L487.827 327.56L447.553 432.74L516.407 646.527L511.84 774.96L457.493 820.553L384.587 817.113L362.4 779.607L367.873 765.573L379.887 766.033L374.713 755.06L355.347 765.167L347.207 784.127L372.093 845.327L478.573 871.427L576.867 797.333L635.66 638.927L623.88 550.507L634.48 552.653L678.84 452.3L652.547 387.073L610.807 402.88L607.48 361.04L594.553 339.333L613.253 242.9L474.64 133.373L504.613 131.133L415.073 187.253L416.76 208.433Z" stroke="white" stroke-width="1.36" stroke-miterlimit="10"/>
<path d="M497.953 259.5L613.253 242.9" stroke="white" stroke-width="1.36" stroke-miterlimit="10"/>
<path d="M416.76 208.433L463.753 261.087" stroke="white" stroke-width="1.36" stroke-miterlimit="10"/>
<path d="M463.753 261.087L613.253 242.9" stroke="white" stroke-width="1.36" stroke-miterlimit="10"/>
<path d="M487.826 327.56L563.253 345.293" stroke="white" stroke-width="1.36" stroke-miterlimit="10"/>
<path d="M563.253 345.293L581.193 247.64" stroke="white" stroke-width="1.36" stroke-miterlimit="10"/>
<path d="M581.193 247.64L484.873 142.84" stroke="white" stroke-width="1.36" stroke-miterlimit="10"/>
<path d="M563.253 345.293L545.993 386.687" stroke="white" stroke-width="1.36" stroke-miterlimit="10"/>
<path d="M545.993 386.687L581.493 416.2" stroke="white" stroke-width="1.36" stroke-miterlimit="10"/>
<path d="M581.493 416.2L592.713 538.107" stroke="white" stroke-width="1.36" stroke-miterlimit="10"/>
<path d="M592.606 537.253L623.88 550.507" stroke="white" stroke-width="1.36" stroke-miterlimit="10"/>
<path d="M581.493 416.2L610.807 402.88" stroke="white" stroke-width="1.36" stroke-miterlimit="10"/>
<path d="M598.693 539.82L604.74 656.347" stroke="white" stroke-width="1.36" stroke-miterlimit="10"/>
<path d="M604.74 656.347L635.66 638.927" stroke="white" stroke-width="1.36" stroke-miterlimit="10"/>
<path d="M604.74 656.347L559.533 788.52" stroke="white" stroke-width="1.36" stroke-miterlimit="10"/>
<path d="M559.533 788.52L467.106 857.133" stroke="white" stroke-width="1.36" stroke-miterlimit="10"/>
<path d="M467.106 857.133L373.946 837.22" stroke="white" stroke-width="1.36" stroke-miterlimit="10"/>
<path d="M373.946 837.22L376.613 832.287" stroke="white" stroke-width="1.36" stroke-miterlimit="10"/>
<path d="M376.613 832.287L354.633 780.06" stroke="white" stroke-width="1.36" stroke-miterlimit="10"/>
<path d="M354.633 780.06L374.713 755.06" stroke="white" stroke-width="1.36" stroke-miterlimit="10"/>
<path d="M354.633 780.06L362.399 779.607" stroke="white" stroke-width="1.36" stroke-miterlimit="10"/>
<path d="M384.587 817.113L376.613 832.287" stroke="white" stroke-width="1.36" stroke-miterlimit="10"/>
<path d="M594.953 340.853L593.939 358.12" stroke="white" stroke-width="1.36" stroke-miterlimit="10"/>
<path d="M467.507 858.66L527.934 836.7" stroke="white" stroke-width="1.36" stroke-miterlimit="10"/>
<path d="M527.934 836.7L559.934 790.047" stroke="white" stroke-width="1.36" stroke-miterlimit="10"/>
<path d="M467.506 858.66L421.1 859.027" stroke="white" stroke-width="1.36" stroke-miterlimit="10"/>
<path d="M421.1 859.027L375.014 837.513" stroke="white" stroke-width="1.36" stroke-miterlimit="10"/>
<path d="M605.14 657.867L608.406 714.553" stroke="white" stroke-width="1.36" stroke-miterlimit="10"/>
<path d="M608.407 714.553L559.934 790.047" stroke="white" stroke-width="1.36" stroke-miterlimit="10"/>
<path d="M604.174 655.88L628.247 578.207" stroke="white" stroke-width="1.36" stroke-miterlimit="10"/>
<path d="M628.247 578.207L599.094 541.34" stroke="white" stroke-width="1.36" stroke-miterlimit="10"/>
<path d="M593.94 358.12L583.307 417.9" stroke="white" stroke-width="1.36" stroke-miterlimit="10"/>
<path d="M580.3 249.58L594.953 340.853" stroke="white" stroke-width="1.36" stroke-miterlimit="10"/>
<path d="M437.1 195.813C436.79 196.726 436.216 197.527 435.452 198.113C434.687 198.7 433.765 199.047 432.803 199.11C431.842 199.173 430.883 198.95 430.048 198.468C429.213 197.986 428.54 197.267 428.114 196.402C427.687 195.538 427.527 194.566 427.653 193.61C427.779 192.655 428.186 191.758 428.822 191.033C429.457 190.309 430.294 189.789 431.225 189.54C432.156 189.29 433.14 189.323 434.053 189.633C435.276 190.049 436.284 190.934 436.856 192.092C437.427 193.251 437.515 194.59 437.1 195.813Z" fill="white"/>
<path d="M347.073 241.047C346.762 241.957 346.188 242.755 345.424 243.34C344.66 243.925 343.739 244.27 342.779 244.331C341.819 244.393 340.862 244.168 340.029 243.686C339.196 243.204 338.525 242.486 338.1 241.623C337.676 240.759 337.516 239.789 337.643 238.835C337.769 237.881 338.175 236.986 338.81 236.263C339.445 235.54 340.28 235.022 341.21 234.773C342.14 234.525 343.122 234.557 344.033 234.867C344.639 235.072 345.198 235.396 345.678 235.818C346.159 236.24 346.552 236.752 346.834 237.326C347.117 237.9 347.283 238.524 347.324 239.163C347.365 239.801 347.28 240.441 347.073 241.047Z" fill="white"/>
<path d="M344 269.433C343.69 270.344 343.117 271.142 342.353 271.727C341.589 272.312 340.669 272.657 339.709 272.72C338.749 272.782 337.792 272.558 336.959 272.077C336.126 271.596 335.454 270.878 335.029 270.015C334.604 269.152 334.443 268.183 334.569 267.229C334.694 266.275 335.1 265.38 335.734 264.656C336.368 263.932 337.202 263.413 338.131 263.163C339.06 262.914 340.042 262.945 340.954 263.253C342.177 263.669 343.185 264.554 343.757 265.713C344.328 266.871 344.416 268.21 344 269.433Z" fill="white"/>
<path d="M546.4 187.573C546.089 188.484 545.516 189.282 544.751 189.867C543.987 190.451 543.067 190.796 542.106 190.858C541.146 190.919 540.189 190.695 539.356 190.213C538.523 189.731 537.852 189.013 537.427 188.149C537.003 187.286 536.844 186.316 536.97 185.362C537.096 184.408 537.503 183.513 538.138 182.79C538.772 182.067 539.608 181.548 540.537 181.3C541.467 181.051 542.449 181.084 543.36 181.393C543.966 181.599 544.525 181.922 545.006 182.344C545.486 182.766 545.879 183.279 546.161 183.853C546.444 184.427 546.61 185.051 546.651 185.689C546.692 186.328 546.607 186.968 546.4 187.573Z" fill="white"/>
<path d="M478.5 134C478.189 134.911 477.615 135.709 476.851 136.293C476.087 136.878 475.166 137.223 474.206 137.285C473.246 137.346 472.289 137.122 471.456 136.64C470.623 136.158 469.952 135.439 469.527 134.576C469.102 133.713 468.943 132.743 469.07 131.789C469.196 130.835 469.602 129.94 470.237 129.217C470.872 128.494 471.707 127.975 472.637 127.727C473.566 127.478 474.549 127.51 475.46 127.82C476.065 128.026 476.625 128.349 477.105 128.771C477.586 129.193 477.979 129.706 478.261 130.28C478.543 130.854 478.71 131.478 478.751 132.116C478.792 132.754 478.706 133.395 478.5 134Z" fill="white"/>
<path d="M510 131.6C509.69 132.513 509.117 133.313 508.352 133.9C507.587 134.487 506.666 134.834 505.704 134.897C504.742 134.96 503.783 134.736 502.948 134.254C502.113 133.772 501.44 133.053 501.014 132.189C500.588 131.324 500.428 130.353 500.554 129.397C500.68 128.441 501.086 127.544 501.722 126.82C502.358 126.095 503.194 125.575 504.125 125.326C505.056 125.077 506.041 125.11 506.953 125.42C508.176 125.837 509.183 126.722 509.754 127.88C510.325 129.039 510.413 130.376 510 131.6Z" fill="white"/>
<path d="M326.427 240.087C326.116 240.997 325.542 241.795 324.778 242.38C324.013 242.965 323.093 243.31 322.133 243.371C321.172 243.433 320.215 243.209 319.383 242.726C318.55 242.244 317.879 241.526 317.454 240.663C317.029 239.799 316.87 238.829 316.996 237.875C317.123 236.922 317.529 236.026 318.164 235.303C318.799 234.58 319.634 234.062 320.563 233.813C321.493 233.565 322.475 233.597 323.387 233.907C323.992 234.113 324.551 234.436 325.032 234.858C325.513 235.28 325.905 235.793 326.188 236.366C326.47 236.94 326.636 237.564 326.677 238.203C326.718 238.841 326.633 239.481 326.427 240.087Z" fill="white"/>
<path d="M466.307 261.56C465.996 262.47 465.422 263.267 464.657 263.851C463.893 264.435 462.973 264.779 462.013 264.841C461.054 264.902 460.097 264.678 459.265 264.196C458.432 263.714 457.762 262.997 457.337 262.134C456.912 261.271 456.752 260.302 456.878 259.348C457.003 258.395 457.408 257.5 458.042 256.777C458.676 256.053 459.51 255.534 460.439 255.284C461.367 255.034 462.349 255.065 463.26 255.373C464.484 255.79 465.492 256.676 466.064 257.836C466.635 258.996 466.722 260.335 466.307 261.56Z" fill="white"/>
<path d="M583.74 248.4C583.429 249.311 582.855 250.109 582.091 250.693C581.327 251.278 580.406 251.623 579.446 251.685C578.486 251.746 577.529 251.522 576.696 251.04C575.863 250.558 575.192 249.839 574.767 248.976C574.343 248.113 574.183 247.143 574.31 246.189C574.436 245.235 574.842 244.34 575.477 243.617C576.112 242.894 576.947 242.375 577.877 242.126C578.807 241.878 579.789 241.91 580.7 242.22C581.922 242.637 582.929 243.522 583.499 244.681C584.069 245.84 584.155 247.177 583.74 248.4Z" fill="white"/>
<path d="M617.233 244.8C616.922 245.711 616.348 246.509 615.584 247.093C614.82 247.678 613.899 248.023 612.939 248.085C611.979 248.146 611.022 247.922 610.189 247.44C609.356 246.958 608.685 246.24 608.261 245.376C607.836 244.513 607.677 243.543 607.803 242.589C607.929 241.635 608.336 240.74 608.971 240.017C609.605 239.294 610.44 238.775 611.37 238.527C612.3 238.278 613.282 238.31 614.193 238.62C615.415 239.037 616.422 239.922 616.992 241.081C617.562 242.24 617.649 243.577 617.233 244.8Z" fill="white"/>
<path d="M598.534 341.227C598.223 342.137 597.65 342.936 596.886 343.521C596.122 344.105 595.202 344.451 594.242 344.513C593.282 344.575 592.325 344.352 591.492 343.87C590.659 343.389 589.988 342.672 589.562 341.809C589.137 340.946 588.977 339.976 589.102 339.022C589.228 338.068 589.633 337.173 590.267 336.449C590.901 335.726 591.735 335.206 592.664 334.957C593.593 334.707 594.576 334.738 595.487 335.047C596.093 335.252 596.653 335.575 597.134 335.996C597.616 336.418 598.009 336.931 598.292 337.505C598.575 338.079 598.742 338.703 598.784 339.342C598.825 339.98 598.74 340.621 598.534 341.227Z" fill="white"/>
<path d="M568.607 346.847C568.296 347.757 567.723 348.555 566.959 349.14C566.196 349.725 565.275 350.071 564.315 350.133C563.355 350.195 562.398 349.972 561.565 349.49C560.732 349.009 560.061 348.291 559.635 347.428C559.21 346.566 559.05 345.596 559.175 344.642C559.301 343.688 559.706 342.793 560.34 342.069C560.974 341.346 561.808 340.826 562.738 340.577C563.667 340.327 564.649 340.358 565.56 340.667C566.784 341.082 567.792 341.967 568.363 343.126C568.934 344.285 569.022 345.623 568.607 346.847Z" fill="white"/>
<path d="M592.087 295.553C591.776 296.465 591.202 297.265 590.437 297.851C589.672 298.437 588.75 298.782 587.788 298.845C586.827 298.907 585.868 298.683 585.034 298.2C584.2 297.718 583.528 296.999 583.102 296.134C582.676 295.27 582.516 294.299 582.643 293.343C582.769 292.388 583.175 291.492 583.811 290.767C584.446 290.043 585.282 289.523 586.213 289.274C587.144 289.025 588.128 289.057 589.04 289.367C590.264 289.784 591.272 290.67 591.843 291.83C592.415 292.99 592.502 294.329 592.087 295.553Z" fill="white"/>
<path d="M655.334 390.113C655.023 391.024 654.449 391.822 653.685 392.407C652.921 392.991 652 393.336 651.04 393.398C650.08 393.46 649.123 393.235 648.29 392.753C647.457 392.271 646.786 391.553 646.361 390.689C645.936 389.826 645.777 388.856 645.903 387.902C646.03 386.948 646.436 386.053 647.071 385.33C647.706 384.607 648.541 384.088 649.471 383.84C650.4 383.591 651.383 383.624 652.294 383.933C652.899 384.139 653.459 384.462 653.939 384.884C654.42 385.306 654.813 385.819 655.095 386.393C655.377 386.967 655.544 387.591 655.585 388.229C655.626 388.868 655.54 389.508 655.334 390.113Z" fill="white"/>
<path d="M611.773 362.433C611.462 363.345 610.888 364.145 610.123 364.731C609.358 365.316 608.437 365.662 607.475 365.725C606.513 365.787 605.555 365.562 604.721 365.08C603.887 364.598 603.214 363.879 602.788 363.014C602.363 362.15 602.203 361.179 602.329 360.223C602.455 359.268 602.862 358.372 603.497 357.647C604.133 356.923 604.969 356.403 605.9 356.154C606.83 355.905 607.814 355.937 608.727 356.247C609.95 356.664 610.959 357.55 611.53 358.71C612.101 359.87 612.189 361.209 611.773 362.433Z" fill="white"/>
<path d="M596.6 358.753C596.288 359.663 595.714 360.46 594.949 361.044C594.185 361.627 593.264 361.971 592.304 362.032C591.344 362.093 590.388 361.868 589.556 361.385C588.723 360.903 588.053 360.185 587.629 359.322C587.205 358.458 587.046 357.489 587.172 356.535C587.299 355.582 587.705 354.687 588.34 353.964C588.974 353.241 589.809 352.723 590.738 352.474C591.667 352.225 592.649 352.258 593.56 352.567C594.166 352.773 594.725 353.097 595.206 353.52C595.687 353.942 596.08 354.456 596.362 355.03C596.644 355.605 596.811 356.229 596.851 356.868C596.892 357.507 596.807 358.148 596.6 358.753Z" fill="white"/>
<path d="M616.12 402.62C615.808 403.53 615.233 404.327 614.469 404.911C613.704 405.494 612.784 405.838 611.824 405.899C610.864 405.96 609.907 405.735 609.075 405.252C608.243 404.77 607.572 404.051 607.148 403.188C606.724 402.325 606.565 401.355 606.692 400.402C606.818 399.448 607.225 398.554 607.859 397.831C608.494 397.108 609.329 396.59 610.258 396.341C611.187 396.092 612.169 396.124 613.08 396.433C613.686 396.64 614.245 396.964 614.726 397.386C615.206 397.809 615.599 398.322 615.881 398.897C616.164 399.471 616.33 400.096 616.371 400.735C616.412 401.374 616.326 402.014 616.12 402.62Z" fill="white"/>
<path d="M550.933 388C550.623 388.911 550.049 389.709 549.284 390.293C548.52 390.878 547.6 391.223 546.639 391.285C545.679 391.346 544.722 391.122 543.889 390.64C543.057 390.158 542.385 389.439 541.961 388.576C541.536 387.713 541.377 386.743 541.503 385.789C541.629 384.835 542.036 383.94 542.671 383.217C543.306 382.494 544.141 381.975 545.07 381.727C546 381.478 546.982 381.51 547.893 381.82C549.116 382.237 550.122 383.122 550.692 384.281C551.262 385.44 551.349 386.777 550.933 388Z" fill="white"/>
<path d="M591.62 397.547C591.309 398.459 590.735 399.258 589.97 399.844C589.205 400.43 588.283 400.776 587.322 400.838C586.36 400.9 585.402 400.676 584.567 400.194C583.733 399.711 583.061 398.992 582.635 398.128C582.209 397.263 582.05 396.292 582.176 395.337C582.302 394.382 582.708 393.485 583.344 392.761C583.979 392.036 584.815 391.517 585.746 391.268C586.677 391.018 587.661 391.05 588.573 391.36C589.797 391.777 590.805 392.663 591.377 393.823C591.948 394.983 592.035 396.322 591.62 397.547Z" fill="white"/>
<path d="M587.927 418.18C587.617 419.093 587.043 419.893 586.279 420.48C585.514 421.067 584.592 421.414 583.631 421.477C582.669 421.54 581.71 421.316 580.875 420.834C580.04 420.352 579.367 419.634 578.941 418.769C578.515 417.904 578.354 416.933 578.48 415.977C578.606 415.021 579.013 414.125 579.649 413.4C580.284 412.675 581.121 412.156 582.052 411.906C582.983 411.657 583.967 411.69 584.88 412C586.102 412.417 587.109 413.302 587.68 414.46C588.251 415.619 588.34 416.956 587.927 418.18Z" fill="white"/>
<path d="M599.033 539.233C598.721 540.143 598.146 540.94 597.382 541.524C596.617 542.108 595.697 542.451 594.737 542.512C593.777 542.573 592.82 542.348 591.988 541.866C591.156 541.383 590.486 540.665 590.061 539.802C589.637 538.938 589.478 537.969 589.605 537.015C589.731 536.062 590.138 535.167 590.772 534.444C591.407 533.721 592.242 533.203 593.171 532.954C594.1 532.705 595.082 532.738 595.993 533.047C596.599 533.253 597.158 533.577 597.639 534C598.12 534.422 598.512 534.936 598.795 535.51C599.077 536.085 599.243 536.709 599.284 537.348C599.325 537.987 599.24 538.628 599.033 539.233Z" fill="white"/>
<path d="M628.667 551.727C628.356 552.639 627.782 553.438 627.017 554.024C626.252 554.61 625.33 554.956 624.369 555.018C623.407 555.08 622.449 554.856 621.614 554.374C620.78 553.891 620.108 553.172 619.682 552.308C619.256 551.443 619.096 550.472 619.223 549.517C619.349 548.562 619.755 547.665 620.391 546.941C621.026 546.216 621.862 545.697 622.793 545.447C623.724 545.198 624.708 545.23 625.62 545.54C626.844 545.957 627.852 546.843 628.424 548.003C628.995 549.163 629.082 550.502 628.667 551.727Z" fill="white"/>
<path d="M639.28 553.873C638.968 554.783 638.393 555.58 637.629 556.164C636.864 556.748 635.944 557.092 634.984 557.152C634.024 557.213 633.067 556.988 632.235 556.506C631.403 556.023 630.733 555.305 630.308 554.442C629.884 553.578 629.725 552.609 629.852 551.655C629.978 550.702 630.385 549.807 631.019 549.084C631.654 548.361 632.489 547.843 633.418 547.594C634.347 547.345 635.329 547.378 636.24 547.687C636.846 547.893 637.406 548.216 637.887 548.638C638.369 549.061 638.762 549.574 639.044 550.149C639.326 550.724 639.493 551.349 639.533 551.988C639.574 552.627 639.488 553.268 639.28 553.873Z" fill="white"/>
<path d="M682.793 454.113C682.483 455.026 681.91 455.827 681.145 456.414C680.38 457 679.459 457.347 678.497 457.41C677.535 457.473 676.576 457.25 675.741 456.768C674.906 456.286 674.233 455.567 673.807 454.702C673.381 453.838 673.221 452.866 673.347 451.91C673.473 450.955 673.879 450.058 674.515 449.333C675.151 448.609 675.987 448.089 676.918 447.84C677.849 447.591 678.834 447.623 679.746 447.933C680.97 448.349 681.978 449.234 682.549 450.393C683.12 451.551 683.208 452.89 682.793 454.113Z" fill="white"/>
<path d="M631.773 578.24C631.462 579.152 630.888 579.952 630.123 580.538C629.358 581.123 628.437 581.469 627.475 581.531C626.513 581.594 625.555 581.369 624.721 580.887C623.887 580.405 623.214 579.686 622.788 578.821C622.363 577.957 622.203 576.986 622.329 576.03C622.455 575.075 622.862 574.178 623.497 573.454C624.133 572.73 624.969 572.21 625.9 571.961C626.83 571.712 627.814 571.744 628.727 572.053C629.95 572.471 630.959 573.357 631.53 574.516C632.101 575.676 632.189 577.016 631.773 578.24Z" fill="white"/>
<path d="M605.16 581.727C604.849 582.637 604.275 583.436 603.511 584.02C602.747 584.605 601.826 584.95 600.866 585.011C599.906 585.073 598.949 584.849 598.116 584.367C597.283 583.884 596.612 583.166 596.187 582.303C595.763 581.439 595.603 580.469 595.73 579.516C595.856 578.562 596.262 577.667 596.897 576.944C597.532 576.221 598.367 575.702 599.297 575.453C600.226 575.205 601.209 575.237 602.12 575.547C602.726 575.753 603.285 576.076 603.765 576.498C604.246 576.92 604.639 577.433 604.921 578.007C605.203 578.581 605.37 579.205 605.411 579.843C605.452 580.481 605.367 581.121 605.16 581.727Z" fill="white"/>
<path d="M609.867 658.313C609.555 659.223 608.98 660.02 608.216 660.604C607.451 661.188 606.531 661.532 605.571 661.592C604.611 661.653 603.654 661.428 602.822 660.946C601.99 660.463 601.319 659.745 600.895 658.882C600.471 658.018 600.312 657.049 600.439 656.095C600.565 655.142 600.972 654.247 601.606 653.524C602.241 652.801 603.076 652.283 604.005 652.034C604.934 651.785 605.916 651.818 606.827 652.127C607.433 652.333 607.992 652.657 608.473 653.08C608.954 653.503 609.346 654.016 609.629 654.59C609.911 655.165 610.077 655.789 610.118 656.428C610.159 657.067 610.074 657.708 609.867 658.313Z" fill="white"/>
<path d="M640.18 639.913C639.869 640.823 639.295 641.621 638.53 642.204C637.766 642.788 636.846 643.133 635.886 643.194C634.927 643.256 633.97 643.031 633.138 642.549C632.306 642.068 631.635 641.35 631.21 640.487C630.785 639.625 630.625 638.655 630.751 637.702C630.876 636.748 631.282 635.853 631.915 635.13C632.549 634.407 633.383 633.887 634.312 633.638C635.24 633.388 636.222 633.419 637.133 633.727C637.74 633.932 638.301 634.255 638.783 634.677C639.265 635.099 639.659 635.613 639.942 636.187C640.225 636.762 640.391 637.387 640.432 638.027C640.473 638.666 640.388 639.307 640.18 639.913Z" fill="white"/>
<path d="M622.167 609.567C621.856 610.479 621.282 611.278 620.517 611.864C619.752 612.45 618.83 612.796 617.868 612.858C616.907 612.92 615.948 612.696 615.114 612.214C614.28 611.731 613.608 611.012 613.182 610.148C612.756 609.283 612.596 608.312 612.723 607.357C612.849 606.402 613.255 605.505 613.891 604.781C614.526 604.056 615.362 603.537 616.293 603.288C617.224 603.038 618.208 603.07 619.12 603.38C620.344 603.797 621.352 604.683 621.923 605.843C622.495 607.003 622.582 608.342 622.167 609.567Z" fill="white"/>
<path d="M612.667 714.253C612.357 715.166 611.784 715.967 611.019 716.554C610.254 717.141 609.333 717.487 608.371 717.551C607.409 717.614 606.45 717.39 605.615 716.908C604.78 716.426 604.107 715.707 603.681 714.842C603.255 713.978 603.095 713.006 603.221 712.051C603.347 711.095 603.753 710.198 604.389 709.473C605.025 708.749 605.861 708.229 606.792 707.98C607.723 707.731 608.708 707.763 609.62 708.073C610.843 708.491 611.85 709.375 612.421 710.534C612.992 711.692 613.08 713.03 612.667 714.253Z" fill="white"/>
<path d="M591.527 709.18C591.215 710.09 590.641 710.887 589.877 711.471C589.113 712.055 588.193 712.399 587.233 712.461C586.273 712.522 585.317 712.298 584.485 711.816C583.652 711.334 582.981 710.617 582.556 709.754C582.131 708.891 581.972 707.922 582.097 706.968C582.223 706.015 582.628 705.12 583.262 704.397C583.896 703.673 584.73 703.154 585.658 702.904C586.587 702.655 587.569 702.686 588.48 702.993C589.087 703.199 589.647 703.523 590.128 703.945C590.609 704.367 591.003 704.881 591.286 705.455C591.569 706.03 591.736 706.655 591.777 707.294C591.818 707.933 591.733 708.574 591.527 709.18Z" fill="white"/>
<path d="M564.313 790.907C564.002 791.817 563.429 792.616 562.664 793.2C561.9 793.785 560.98 794.13 560.019 794.191C559.059 794.253 558.102 794.029 557.269 793.546C556.436 793.064 555.765 792.346 555.341 791.483C554.916 790.619 554.757 789.649 554.883 788.696C555.009 787.742 555.416 786.847 556.051 786.123C556.686 785.4 557.521 784.882 558.45 784.633C559.38 784.385 560.362 784.417 561.273 784.727C561.879 784.933 562.438 785.256 562.919 785.678C563.399 786.1 563.792 786.613 564.074 787.187C564.357 787.761 564.523 788.385 564.564 789.023C564.605 789.661 564.52 790.301 564.313 790.907Z" fill="white"/>
<path d="M581.88 799.44C581.569 800.351 580.995 801.149 580.231 801.733C579.466 802.318 578.546 802.663 577.586 802.725C576.625 802.786 575.668 802.562 574.836 802.08C574.003 801.598 573.332 800.879 572.907 800.016C572.482 799.153 572.323 798.183 572.449 797.229C572.576 796.275 572.982 795.38 573.617 794.657C574.252 793.934 575.087 793.415 576.017 793.166C576.946 792.918 577.929 792.95 578.84 793.26C580.062 793.677 581.068 794.562 581.638 795.721C582.208 796.88 582.295 798.217 581.88 799.44Z" fill="white"/>
<path d="M532.827 836.087C532.516 836.997 531.942 837.795 531.178 838.38C530.414 838.965 529.493 839.31 528.533 839.371C527.573 839.433 526.616 839.209 525.783 838.726C524.95 838.244 524.279 837.526 523.854 836.663C523.43 835.799 523.27 834.829 523.397 833.875C523.523 832.922 523.929 832.026 524.564 831.303C525.199 830.58 526.034 830.062 526.964 829.813C527.893 829.565 528.876 829.597 529.787 829.907C530.393 830.112 530.952 830.436 531.432 830.858C531.913 831.28 532.306 831.793 532.588 832.367C532.87 832.94 533.037 833.565 533.078 834.203C533.119 834.841 533.034 835.481 532.827 836.087Z" fill="white"/>
<path d="M521.026 822.347C520.715 823.259 520.141 824.058 519.376 824.644C518.611 825.23 517.69 825.576 516.728 825.638C515.766 825.7 514.808 825.476 513.974 824.993C513.14 824.511 512.467 823.792 512.041 822.928C511.616 822.063 511.456 821.092 511.582 820.137C511.708 819.181 512.115 818.285 512.75 817.561C513.386 816.836 514.222 816.317 515.153 816.067C516.083 815.818 517.067 815.85 517.98 816.16C519.203 816.577 520.212 817.463 520.783 818.623C521.354 819.783 521.442 821.122 521.026 822.347Z" fill="white"/>
<path d="M472 857.693C471.689 858.603 471.115 859.4 470.351 859.984C469.587 860.568 468.666 860.913 467.707 860.974C466.747 861.036 465.791 860.811 464.958 860.33C464.126 859.848 463.455 859.13 463.03 858.267C462.605 857.405 462.445 856.435 462.571 855.482C462.697 854.528 463.102 853.634 463.736 852.91C464.369 852.187 465.203 851.668 466.132 851.418C467.061 851.168 468.043 851.199 468.954 851.507C470.178 851.924 471.186 852.81 471.757 853.97C472.328 855.13 472.416 856.469 472 857.693Z" fill="white"/>
<path d="M482.62 871.54C482.309 872.451 481.735 873.249 480.971 873.833C480.207 874.418 479.286 874.763 478.326 874.824C477.366 874.886 476.409 874.662 475.576 874.18C474.743 873.697 474.072 872.979 473.647 872.116C473.222 871.252 473.063 870.282 473.19 869.329C473.316 868.375 473.722 867.48 474.357 866.757C474.992 866.034 475.827 865.515 476.757 865.266C477.686 865.018 478.669 865.05 479.58 865.36C480.186 865.566 480.745 865.889 481.225 866.311C481.706 866.733 482.099 867.246 482.381 867.82C482.663 868.394 482.83 869.018 482.871 869.656C482.912 870.294 482.827 870.935 482.62 871.54Z" fill="white"/>
<path d="M425.22 858.487C424.909 859.397 424.335 860.194 423.57 860.778C422.806 861.362 421.886 861.706 420.926 861.767C419.967 861.829 419.01 861.604 418.178 861.123C417.346 860.641 416.675 859.923 416.25 859.061C415.825 858.198 415.665 857.229 415.791 856.275C415.916 855.322 416.322 854.427 416.955 853.703C417.589 852.98 418.423 852.461 419.352 852.211C420.28 851.961 421.262 851.992 422.173 852.3C422.78 852.506 423.34 852.829 423.821 853.252C424.303 853.674 424.696 854.187 424.979 854.762C425.262 855.336 425.429 855.961 425.47 856.6C425.512 857.239 425.427 857.88 425.22 858.487Z" fill="white"/>
<path d="M379.627 838.093C379.315 839.003 378.74 839.8 377.976 840.384C377.211 840.967 376.291 841.311 375.331 841.372C374.371 841.433 373.414 841.208 372.582 840.725C371.75 840.243 371.079 839.525 370.655 838.661C370.231 837.798 370.072 836.828 370.199 835.875C370.325 834.921 370.731 834.027 371.366 833.304C372.001 832.581 372.835 832.063 373.765 831.814C374.694 831.565 375.676 831.597 376.587 831.906C377.193 832.113 377.752 832.437 378.233 832.86C378.713 833.282 379.106 833.796 379.388 834.37C379.671 834.945 379.837 835.569 379.878 836.208C379.919 836.847 379.833 837.487 379.627 838.093Z" fill="white"/>
<path d="M359.653 782.167C359.342 783.077 358.769 783.876 358.005 784.46C357.241 785.045 356.321 785.391 355.361 785.453C354.401 785.515 353.444 785.292 352.611 784.81C351.778 784.329 351.107 783.611 350.681 782.749C350.256 781.886 350.096 780.916 350.221 779.962C350.347 779.008 350.752 778.113 351.386 777.389C352.02 776.666 352.854 776.146 353.783 775.897C354.713 775.647 355.695 775.678 356.606 775.987C357.829 776.402 358.838 777.287 359.409 778.446C359.98 779.605 360.068 780.943 359.653 782.167Z" fill="white"/>
<path d="M385.426 767.5C385.116 768.411 384.543 769.209 383.779 769.794C383.015 770.379 382.095 770.724 381.135 770.786C380.175 770.849 379.218 770.625 378.385 770.144C377.552 769.662 376.88 768.945 376.455 768.082C376.029 767.219 375.869 766.249 375.995 765.295C376.12 764.342 376.525 763.446 377.159 762.723C377.793 761.999 378.628 761.48 379.557 761.23C380.486 760.98 381.468 761.012 382.38 761.32C383.603 761.736 384.611 762.62 385.182 763.779C385.754 764.938 385.841 766.276 385.426 767.5Z" fill="white"/>
<path d="M372.161 767.553C371.849 768.463 371.275 769.26 370.511 769.844C369.747 770.428 368.827 770.773 367.867 770.834C366.907 770.895 365.951 770.671 365.118 770.189C364.286 769.708 363.615 768.99 363.19 768.127C362.765 767.265 362.606 766.295 362.731 765.342C362.857 764.388 363.262 763.493 363.896 762.77C364.53 762.047 365.363 761.527 366.292 761.278C367.221 761.028 368.203 761.059 369.114 761.367C369.72 761.572 370.28 761.896 370.762 762.318C371.243 762.741 371.637 763.254 371.92 763.828C372.203 764.403 372.369 765.028 372.411 765.667C372.452 766.306 372.367 766.947 372.161 767.553Z" fill="white"/>
<path d="M360.387 766.88C360.076 767.791 359.502 768.589 358.738 769.173C357.973 769.758 357.053 770.103 356.093 770.164C355.132 770.226 354.175 770.002 353.342 769.52C352.51 769.038 351.839 768.319 351.414 767.456C350.989 766.593 350.83 765.623 350.956 764.669C351.083 763.715 351.489 762.82 352.124 762.097C352.759 761.374 353.594 760.855 354.523 760.606C355.453 760.358 356.435 760.39 357.347 760.7C358.569 761.117 359.575 762.002 360.145 763.161C360.715 764.32 360.802 765.657 360.387 766.88Z" fill="white"/>
<path d="M376.174 847.193C375.862 848.103 375.287 848.9 374.522 849.484C373.758 850.067 372.837 850.411 371.877 850.472C370.917 850.533 369.961 850.308 369.129 849.825C368.297 849.343 367.626 848.625 367.202 847.761C366.778 846.898 366.619 845.929 366.745 844.975C366.872 844.021 367.278 843.127 367.913 842.404C368.548 841.681 369.382 841.163 370.311 840.914C371.241 840.665 372.223 840.698 373.134 841.007C373.739 841.213 374.299 841.537 374.779 841.96C375.26 842.382 375.653 842.896 375.935 843.47C376.217 844.045 376.384 844.669 376.425 845.308C376.466 845.947 376.38 846.587 376.174 847.193Z" fill="white"/>
<path d="M427.426 848.52C427.116 849.431 426.543 850.229 425.779 850.814C425.015 851.399 424.095 851.744 423.135 851.806C422.175 851.869 421.218 851.645 420.385 851.164C419.552 850.682 418.88 849.965 418.455 849.102C418.029 848.239 417.869 847.269 417.995 846.315C418.12 845.362 418.525 844.466 419.159 843.743C419.793 843.019 420.628 842.5 421.557 842.25C422.486 842 423.468 842.032 424.38 842.34C425.602 842.757 426.609 843.642 427.18 844.8C427.751 845.959 427.84 847.296 427.426 848.52Z" fill="white"/>
<path d="M484.873 142.84L463.753 261.087L427.267 268.867" stroke="white" stroke-width="0.68" stroke-miterlimit="10"/>
<path d="M415.073 187.253L581.193 247.64" stroke="white" stroke-width="0.68" stroke-miterlimit="10"/>
<path d="M416.76 208.433L484.873 142.84" stroke="white" stroke-width="0.68" stroke-miterlimit="10"/>
<path d="M431.38 193.427L463.753 261.087" stroke="white" stroke-width="0.68" stroke-miterlimit="10"/>
<path d="M342.34 239.48L338.76 268.427" stroke="white" stroke-width="0.68" stroke-miterlimit="10"/>
<path d="M342.34 239.48L463.646 259.927" stroke="white" stroke-width="0.68" stroke-miterlimit="10"/>
<path d="M581.493 416.2L678.84 452.3" stroke="white" stroke-width="0.68" stroke-miterlimit="10"/>
<path d="M634.48 552.653L581.493 416.2" stroke="white" stroke-width="0.68" stroke-miterlimit="10"/>
<path d="M561.854 345.987L607.474 361.04" stroke="white" stroke-width="0.68" stroke-miterlimit="10"/>
<path d="M593.54 356.6L545.993 386.687" stroke="white" stroke-width="0.68" stroke-miterlimit="10"/>
<path d="M545.994 386.687L447.554 432.74" stroke="white" stroke-width="0.68" stroke-miterlimit="10"/>
<path d="M581.194 247.64L447.554 432.74" stroke="white" stroke-width="0.68" stroke-miterlimit="10"/>
<path d="M497.953 259.5L518.273 336.073" stroke="white" stroke-width="0.68" stroke-miterlimit="10"/>
<path d="M518.273 336.073L546.48 388.12" stroke="white" stroke-width="0.68" stroke-miterlimit="10"/>
<path d="M515.287 647.02L536.367 680.987" stroke="white" stroke-width="0.68" stroke-miterlimit="10"/>
<path d="M536.367 680.987L604.741 656.347" stroke="white" stroke-width="0.68" stroke-miterlimit="10"/>
<path d="M511.346 773.833L511.22 789.453" stroke="white" stroke-width="0.68" stroke-miterlimit="10"/>
<path d="M511.22 789.453L559.533 788.52" stroke="white" stroke-width="0.68" stroke-miterlimit="10"/>
<path d="M457.493 820.553L448.08 832.733" stroke="white" stroke-width="0.68" stroke-miterlimit="10"/>
<path d="M448.08 832.733L467.107 857.133" stroke="white" stroke-width="0.68" stroke-miterlimit="10"/>
<path d="M467.106 857.133L478.573 871.427" stroke="white" stroke-width="0.68" stroke-miterlimit="10"/>
<path d="M559.533 788.52L576.013 797.933" stroke="white" stroke-width="0.68" stroke-miterlimit="10"/>
<path d="M373.947 837.22L372.094 845.327" stroke="white" stroke-width="0.68" stroke-miterlimit="10"/>
<path d="M354.634 780.06L347.207 784.127" stroke="white" stroke-width="0.68" stroke-miterlimit="10"/>
<path d="M374.613 835.987L448.08 832.733" stroke="white" stroke-width="0.68" stroke-miterlimit="10"/>
<path d="M448.08 832.733L511.22 789.453" stroke="white" stroke-width="0.68" stroke-miterlimit="10"/>
<path d="M536.366 680.987L511.22 789.453" stroke="white" stroke-width="0.68" stroke-miterlimit="10"/>
<path d="M447.554 432.74L604.74 656.347" stroke="white" stroke-width="0.68" stroke-miterlimit="10"/>
<path d="M545.994 386.687L536.367 680.987" stroke="white" stroke-width="0.68" stroke-miterlimit="10"/>
<path d="M416.76 208.433L338.76 268.427" stroke="white" stroke-width="0.68" stroke-miterlimit="10"/>
<path d="M424.62 254.28L431.38 193.427" stroke="white" stroke-width="0.68" stroke-miterlimit="10"/>
<path d="M516.047 820.626L527.534 835.18" stroke="white" stroke-width="0.68" stroke-miterlimit="10"/>
<path d="M419.533 857.613L422.513 847.58" stroke="white" stroke-width="0.68" stroke-miterlimit="10"/>
<path d="M373.947 837.22L347.207 784.127" stroke="white" stroke-width="0.68" stroke-miterlimit="10"/>
<path d="M608.007 713.027L586.854 707.947" stroke="white" stroke-width="0.68" stroke-miterlimit="10"/>
<path d="M586.854 707.947L536.367 680.987" stroke="white" stroke-width="0.68" stroke-miterlimit="10"/>
<path d="M627.846 576.68L600.026 579.767" stroke="white" stroke-width="0.68" stroke-miterlimit="10"/>
<path d="M635.66 638.927L600.026 579.767" stroke="white" stroke-width="0.68" stroke-miterlimit="10"/>
<path d="M592.713 538.107L678.84 452.3" stroke="white" stroke-width="0.68" stroke-miterlimit="10"/>
<path d="M582.906 416.38L663.833 413.613" stroke="white" stroke-width="0.68" stroke-miterlimit="10"/>
<path d="M619.8 511.853L653.06 511.393" stroke="white" stroke-width="0.68" stroke-miterlimit="10"/>
<path d="M611.18 401.287L548.02 387.847" stroke="white" stroke-width="0.68" stroke-miterlimit="10"/>
<path d="M563.253 345.293L594.553 339.333" stroke="white" stroke-width="0.68" stroke-miterlimit="10"/>
<path d="M561.854 345.987L611.847 244.593" stroke="white" stroke-width="0.68" stroke-miterlimit="10"/>
<path d="M586.854 707.947L539.967 562.867" stroke="white" stroke-width="0.68" stroke-miterlimit="10"/>
<path d="M511.22 789.453L586.853 707.947" stroke="white" stroke-width="0.68" stroke-miterlimit="10"/>
<path d="M467.106 857.133L511.22 789.453" stroke="white" stroke-width="0.68" stroke-miterlimit="10"/>
<path d="M432.526 193.193L540.82 185.3" stroke="white" stroke-width="0.68" stroke-miterlimit="10"/>
<path d="M540.82 185.3L580.02 246.48" stroke="white" stroke-width="0.68" stroke-miterlimit="10"/>
<path d="M526.373 186.633L612.006 243.54" stroke="white" stroke-width="0.68" stroke-miterlimit="10"/>
<path d="M540.18 565.187L508.96 404.147" stroke="white" stroke-width="0.68" stroke-miterlimit="10"/>
<path d="M518.147 334.72L508.96 404.147" stroke="white" stroke-width="0.68" stroke-miterlimit="10"/>
<path d="M523.593 186.107L518.273 336.073" stroke="white" stroke-width="0.68" stroke-miterlimit="10"/>
<path d="M448.693 432.367L547.153 386.253" stroke="white" stroke-width="1.36" stroke-miterlimit="10"/>
<path d="M425.954 338.973C425.948 340.61 425.458 342.208 424.545 343.566C423.632 344.924 422.337 345.982 420.824 346.604C419.31 347.227 417.646 347.387 416.042 347.064C414.437 346.742 412.965 345.951 411.809 344.792C410.654 343.633 409.868 342.158 409.551 340.552C409.233 338.947 409.399 337.283 410.026 335.772C410.654 334.261 411.715 332.969 413.076 332.06C414.437 331.152 416.037 330.667 417.674 330.667C418.763 330.667 419.842 330.882 420.848 331.3C421.855 331.717 422.769 332.33 423.538 333.101C424.307 333.873 424.916 334.789 425.331 335.797C425.745 336.804 425.957 337.884 425.954 338.973Z" fill="#311A49"/>
<path d="M301.433 618.22C301.433 619.858 300.947 621.458 300.038 622.82C299.128 624.182 297.835 625.243 296.322 625.87C294.809 626.496 293.144 626.66 291.538 626.341C289.932 626.021 288.456 625.233 287.298 624.075C286.14 622.917 285.352 621.441 285.032 619.835C284.713 618.229 284.877 616.564 285.503 615.051C286.13 613.538 287.191 612.245 288.553 611.335C289.915 610.426 291.515 609.94 293.153 609.94C295.349 609.94 297.455 610.812 299.008 612.365C300.561 613.918 301.433 616.024 301.433 618.22Z" fill="#292A29"/>
<path d="M460.827 722.753C460.827 724.391 460.341 725.992 459.431 727.354C458.521 728.715 457.228 729.776 455.715 730.403C454.202 731.03 452.537 731.194 450.931 730.874C449.325 730.555 447.85 729.766 446.692 728.608C445.534 727.45 444.745 725.975 444.426 724.369C444.106 722.763 444.27 721.098 444.897 719.585C445.524 718.072 446.585 716.779 447.946 715.869C449.308 714.959 450.909 714.473 452.547 714.473C453.634 714.473 454.711 714.686 455.716 715.102C456.721 715.518 457.634 716.128 458.403 716.897C459.172 717.666 459.782 718.579 460.198 719.584C460.614 720.589 460.828 721.666 460.827 722.753Z" fill="#311A49"/>
<path d="M756.033 258.987C756.033 260.623 755.548 262.223 754.639 263.583C753.729 264.944 752.437 266.004 750.926 266.63C749.414 267.256 747.75 267.42 746.146 267.101C744.541 266.782 743.066 265.994 741.909 264.837C740.752 263.68 739.965 262.206 739.645 260.601C739.326 258.996 739.49 257.332 740.116 255.821C740.742 254.309 741.803 253.017 743.163 252.108C744.524 251.199 746.123 250.713 747.76 250.713C749.953 250.715 752.057 251.587 753.608 253.139C755.159 254.69 756.031 256.793 756.033 258.987Z" fill="#311A49"/>
<path d="M724.153 596.28C724.153 599.313 723.254 602.277 721.569 604.799C719.884 607.32 717.489 609.286 714.687 610.446C711.886 611.607 708.803 611.911 705.828 611.319C702.854 610.727 700.122 609.267 697.977 607.122C695.833 604.978 694.373 602.246 693.781 599.272C693.189 596.297 693.493 593.214 694.653 590.412C695.814 587.611 697.779 585.216 700.301 583.531C702.822 581.846 705.787 580.947 708.82 580.947C712.886 580.947 716.786 582.562 719.662 585.438C722.537 588.313 724.153 592.213 724.153 596.28Z" fill="#292A29"/>
</g>
<defs>
<clipPath id="clip0">
<rect width="1000" height="1000" fill="white"/>
</clipPath>
</defs>
</svg>
