<svg height="1000" viewBox="0 0 1000 1000" width="1000" xmlns="http://www.w3.org/2000/svg"><g fill="none" fill-rule="evenodd" transform="translate(1.09 93.243)"><path d="m688.197 538.225 30.173-12.975 14.627 53.889z" fill="#512e69"/><path d="m331.7 101.745 153.738 61.526-72.23 71.184z" fill="#512e69"/><path d="m138.156 101.745-41.575-65.327 91.537 26.941z" fill="#3a214e"/><path d="m162.069 72.114 26.051 47.207 44.141-47.207z" fill="#9a57a3"/><path d="m147.916 110.589-5.57-30.148 32.598 2.157z" fill="#8863aa"/><path d="m191.044 101.745-28.976-13.404-5.806 33.633z" fill="#643e84"/><path d="m223.835 75.901 101.541 19.815-56.741 77.267z" fill="#643e84"/><path d="m204.673 91.882 54.957 21.151-27.37 90.433z" fill="#512e69"/><path d="m314.181 98.72 115.33 91.877-132.808 63.602z" fill="#643e84"/><path d="m328.965 184.354 77.497 173.548 36.746-120.157z" fill="#814598"/><path d="m197.162 105.157 36.675 22.126-15.202 60.307z" fill="#8863aa"/><path d="m207.856 179.479-41.997-48.213 25.184-24.684z" fill="#8863aa"/><path d="m221.111 194.249 50.675-37.183 8.109 104.536z" fill="#8863aa"/><path d="m429.511 203.469 71.943-29.946 145.83 115.401z" fill="#3a214e"/><path d="m543.8 420.196 62.573-131.296-152.897-85.431z" fill="#643e84"/><path d="m380.997 347.341 14.86-88.781-64.157-32.27z" fill="#9a57a3"/><path d="m362.859 331.436-59.708-55.935 20.868-70.629z" fill="#814598"/><path d="m265.669 190.597 48.307-3.007-6.241 45.107z" fill="#814598"/><path d="m91.376 29.104 39.843-12.028 34.641 30.746z" fill="#512e69"/><path d="m19.76 30.597h67.229l52.868 59.325z" fill="#9a57a3"/><path d="m265.669 129.801 33.147 33.47 4.338-48.002z" fill="#8863aa"/><path d="m468.584 392.981 40.673 8.23v-99.136z" fill="#814598"/><path d="m463.678 385.049-80.3-31.719 85.203-66.514z" fill="#643e84"/><path d="m420.778 203.469 58.495 53.553-47.738 65.249z" fill="#8863aa"/><path d="m413.208 253.402 72.657 53.431-4.808 82.793z" fill="#8863aa"/><path d="m551.068 309.558 57.037-47.626 120.422 106.741z" fill="#3a214e"/><path d="m531.816 400.765 119.806 81.657 10.805-160.148-130.611 82.371" fill="#643e84"/><path d="m491.719 360.876 44.189 53.756 15.16-38.724-54.741-13.775z" fill="#d4388b"/><path d="m539.586 336.559 46.452-21.58v60.929z" fill="#d4388b"/><path d="m598.519 322.271 14 50.566-64.497 49.86z" fill="#883685"/><path d="m626.03 373.212 124.335 111.876-15.606-111.4z" fill="#512e69"/><path d="m599.008 431.037 19.335-44.658 102.995 171.098-122.822-122.849" fill="#9a57a3"/><path d="m605.835 462.886 39.141-19.985-41.211 103.467z" fill="#8863aa"/><path d="m768.784 458.728-123.808-44.715 110.21 76.444 16.036-29.545" fill="#8863aa"/><path d="m616.114 493.626 41.591-9.62-45.929 82.651z" fill="#643e84"/><path d="m534.935 566.656 36.181 15.881 66.357-59.077z" fill="#8863aa"/><path d="m510.819 579.498 44.367-7.459-11.381 35.301z" fill="#3a214e"/><path d="m450.022 574.698 26.14 30.08-62.954-11.82z" fill="#643e84"/><path d="m438.3 592.298-60.632-34.823-17.171 13.848z" fill="#643e84"/><path d="m377.668 566.656-10.938-13.656-37.765 2.46z" fill="#643e84"/><path d="m310.827 529.003 42.489 18.258-5.708 12.487z" fill="#643e84"/><path d="m323.303 532.12-47.541-20.926 29.587 31.785z" fill="#814598"/><path d="m278.859 523.46-22.269-40.165-2.708 11.921z" fill="#9a57a3"/><path d="m239.735 482.422 14.146.873-14.146-23.908z" fill="#814598"/><path d="m243.408 471.929-22.935-16.657v-29.75z" fill="#9a57a3"/><path d="m194.074 402.387 8.683-3.985 15.181 36.12z" fill="#8863aa"/><path d="m208.099 417.016 7.333 1.057 9.459 23.881z" fill="#643e84"/><path d="m169.327 331.436 9.011 24.557 5.321-4.35z" fill="#8863aa"/><path d="m187.201 381.188 6.873-3.845 1.673 27.299z" fill="#643e84"/><path d="m191.476 383.651 16.622 21.78h-6.238z" fill="#8863aa"/><path d="m395.862 587.22 7.533-20.563 34.902 5.383z" fill="#8863aa"/><path d="m657.703 469.842 20.708-25.343 33.289 80.751z" fill="#3a214e"/><path d="m678.411 527.04 13.713-29.972 9.092 85.814z" fill="#8863aa"/><path d="m728.527 603.859-38.513 20.164-19.179 46.069z" fill="#512e69"/><path d="m699.416 554.421 34.522 27.393-37.73 68.837z" fill="#9a57a3"/><path d="m673.989 636.976-73.1 26.874h82.168z" fill="#3a214e"/><path d="m618.351 672.942 21.257-11.496-59.338-26.087z" fill="#512e69"/><path d="m540.368 617.422 72.148 55.519-90.47-34.122z" fill="#643e84"/><path d="m571.116 649.216-6.524-22.345 32.527 11.171z" fill="#512e69"/><path d="m443.108 543.622 107.96 84.053-34.011 7.383z" fill="#643e84"/><path d="m521.027027 603.859319c-1.943243-1.265292-68.702703-80.396302-68.702703-80.396302l7.718919 50.394292z" fill="#643e84"/><path d="m468.584 561.497-93.819-106.233 11.94-10.763z" fill="#643e84"/><path d="m521.027 640.16 5.4-23.697-50.265-49.806z" fill="#8863aa"/><path d="m479.278 594.801 7.395-14.676-48.373-32.865z" fill="#9a57a3"/><path d="m458.695 565.085-32.717-59.482-8.894 17.633z" fill="#8863aa"/><path d="m413.208 517.431-40.878-55.186 50.946 27.658z" fill="#9a57a3"/><path d="m370.435 458.728 7.233-17.677-38.709-34.733z" fill="#643e84"/><path d="m363.778 438.494-3.283 17.511-57.338-53.656z" fill="#9a57a3"/><path d="m343.9 433.744-10.43-29.102-36.762-31.654z" fill="#643e84"/><path d="m322.732 398.405-7.748 13.123-48.35-32.868z" fill="#8863aa"/><path d="m294.681 374.759-80.349-23.119 6.778 19.088z" fill="#643e84"/><path d="m219.538 357.807-28.062 15.181-4.276-12.161z" fill="#9a57a3"/><path d="m206.004 368.673-8.763-12.68 14.452-4.353z" fill="#9a57a3"/><path d="m188.124 372.988-2.824-12.161-38.059 2.598z" fill="#9a57a3"/><path d="m180.639 365.131 1.752 10.774h-33.587z" fill="#8863aa"/><path d="m147.241 370.517 10.989-10.36 4.773 18.503z" fill="#d4388b"/><path d="m273.435 502.999-12.48-21.474 12.148-58.266z" fill="#3a214e"/><path d="m262.829 447.762v-50.785l7.427 66.152z" fill="#8863aa"/><path d="m266.635 389.623 9.127 2.004-6.673 40.895z" fill="#643e84"/><path d="m294.681 346.522-6.003 20.134-7.821-1.26 6.613-9.024z" fill="#643e84"/><path d="m305.908 331.436-18.138 26.371 15.003-12.366z" fill="#9a57a3"/><path d="m441.741 642.565 40.518-26.1-78.864-15.381z" fill="#3a214e"/><path d="m421.67 613.583v17.401l-97.646-38.026z" fill="#3a214e"/><path d="m354.257 624.464h26.746l-73.517-75.244z" fill="#3a214e"/><path d="m333.468 579.139-7.29 20.672-58.982-70.808z" fill="#643e84"/><path d="m769.032 357.918 19.346 29.818 71.476-107.998z" fill="#3a214e"/><path d="m796.2 324.766 49.932-103.018 7.9 82.398z" fill="#3a214e"/><path d="m834.486 287.4-21.278-127.522 24.973-9.462z" fill="#3a214e"/><path d="m809.608 155.826 32 7.597-63.927-111.768z" fill="#3a214e"/><path d="m758.238 51.655 17.157-6.905 32.289 88.111z" fill="#512e69"/><path d="m761.657 44.75-1.806 15.086-102.792-44.206z" fill="#3a214e"/><path d="m616.043 50.382 48.649-40.554 6.586 16.897z" fill="#8863aa"/><path d="m774.173 357.234 13.535 15.248 18.37-65.168z" fill="#512e69"/><path d="m798.476 324.766 33.473-7.427-9.308-35.995z" fill="#643e84"/><path d="m837.962 271.04-21.384 2.214 10.69-85.326z" fill="#643e84"/><path d="m785.47 111.213 23.073 29.416-2.1-33.09z" fill="#643e84"/><path d="m783.943 107.539-1.9-32.149-19.411-9.311z" fill="#643e84"/><path d="m794.611 405.261 23.808 30.672 60.065-49.551z" fill="#643e84"/><path d="m848.481 429.153 94.927-40.019-78.9 2.317z" fill="#3a214e"/><path d="m943.408 324.766-35.811 70.397 42.579-21.548z" fill="#3a214e"/><path d="m959.824 347.636-14.727-144.286 12.506-10.896z" fill="#512e69"/><path d="m948.576 281.346 25.602 24.495-6.583-50.42z" fill="#3a214e"/><path d="m952.054 203.35-53.578-57.482 3.716-11.482z" fill="#643e84"/><path d="m880.111 397.477 67.524-90.752 24.13 8.251z" fill="#643e84"/><path d="m844.005 354.211 8.646 36.396 18.846-7.729z" fill="#3a214e"/><path d="m911.43 460.912 14.511-1.211 24.235 41.033z" fill="#3a214e"/><path d="m928.886 484.639 38.709 38.821-7.771 45.34z" fill="#3a214e"/><path d="m963.478 559.614-4.17 64.849 30.949-16.032z" fill="#643e84"/><path d="m945.097 621.826-9.77 23.357-81.805-39.146z" fill="#4a0f35"/><path d="m915.549 627.783 3.3-17.958-31.817-23.559z" fill="#883685"/><path d="m895.943 619.247-.2-.446-15.629-34.747-73.941-20.394z" fill="#883685"/><path d="m841.714 596.588 19.24-25.557-28.87-31.592z" fill="#9a57a3"/><path d="m821.549 562.545 13.924-12.256-34.505-47.346z" fill="#4a0f35"/><path d="m818.219 539.441-13.857 20.309-38.451-43.765z" fill="#d4388b"/><path d="m798.127 507.804-45.254-9.184 34.835 32.375z" fill="#6d2367"/><path d="m790.124 379.247 18.417-3.028 52.413-104.606z" fill="#6d2367"/><path d="m849.262 307.314-21.711-135.451 20.93 29.051z" fill="#4a0f35"/><path d="m827.841 191.435 13.767-23.495-55.686-94.445z" fill="#6d2367"/><path d="m761.297 495.216 36.354 7.186 8.425-66.471z" fill="#4a0f35"/><path d="m780.414 488.976-47.276-149.351 46.494 45.426z" fill="#883685"/><path d="m768.124 410.776 16.381-7.408 14.59 56.879z" fill="#6d2367"/><path d="m746.286 363.477 9.271-16.252-23.992-37.664z" fill="#883685"/><path d="m731.894595 329.767966c-.648649-4.293339-43.786487-75.568727-43.786487-75.568727l-24.937838-9.608646z" fill="#883685"/><path d="m716.159 304.146 3.041-13.367 16.554 22.416z" fill="#4a0f35"/><path d="m670.838 252.22 9.624-7.629-37.676-43.68z" fill="#883685"/><path d="m609.741 173.523 30.045 41.85 10.484-5.781z" fill="#9a57a3"/><g stroke="#fff"><path d="m724.078378 395.162993-55.921621-42.952323m-.002703.002703-31.613513-42.433228m0-.002704-24.018919-11.260554m0 0-68.718919-50.560294m.002702 0-2.924324-6.499489m0 0-82.5-57.103041m-.002703 0-164.205405-76.982718m0 0-159.188378-53.8614077m-.001081 0-58.2243248-25.9195518m-4.565946 3.0064193 73.5945948 45.3071711m.001351-.0027036 40.154054 30.6806167m.001081 0-46.083783-9.8627854m-20.084865-9.6708289 20.086486 9.6681253m355.948649 66.554877-37.445946 20.506916m-.002703 0-45.148648 55.702568m0-.002703-26.294595 70.932029m.002703.002703 2.702702 52.290608m-143.771892-125.488265-2.808108-39.23215m0 .002704 18.691892-50.00335m0 0 33.488108-40.116231m0 0 30.156757-14.550853m-182.563784-45.4937205-9.305405 5.0314265m-.001081 0-8.102703 10.5062458m14.452973 33.3598988 32.818919 27.7444914m-.001081-.002703 9.92973-4.974651m-.000541 0 3.335135-12.904352m.001081 0 75.791892 41.400448m237.769189 145.754559 8.164865.646164m25.037838 75.365957-46.891892-19.057778m.002703 0-13.708108 7.810742m-.002703 0-85.189189-48.089191m.002703 0-143.876487-112.427103m-.000811 0-70.364865-73.522092m316.48 269.964015-12.997297 13.566737m136.35946-109.47746 49.91081-3.801282m-97.043243 68.528515-17.362162-31.808024m149.932432 8.186545-29.802702 12.588029m-.002703.002703-35.732432 34.906367m.002702 0-23.975675 38.40214m0 0-7.55946 30.496771m-8.605405-135.415938-26.894595 42.638704m105.448649 72.689378 9.72973 5.120646m-9.72973-5.120646 21.891892 45.591051m-.002703.002703 28.616216 53.91548m0 0 8.540541 48.613691m0 .001082-27.054054 51.303788m.002702-.001082-63.224324 12.112193m0 .001352-6.683784-2.754983m44.278379-10.345922 25.627027.98682m.002702.00054 8.186487 13.447779m-12.2-53.925483 4.797297-7.65934m.002703 0 26.267567-3.165932m-.002702.00027 7.716216 10.746867m-46.8-32.256824 6.424324-17.276096m0 .000811 24.118919-9.829531m0 0 8.783784 7.997291m-67.235135-35.633638 11.094594-13.780323m.002703.002704 18.740541-12.501514m-.602703-1.251773 12.089189 9.632978m-51.321621 8.71375-24.640541-27.958077m0 0-7.759459 56.378472m7.759459-56.378472-19.805405-45.139547m0 0-9.432433-28.044593m-33.627027-34.233167 34.189189 35.914815m-34.189189-35.914815-9.559459 42.1872m47.224324 118.028993 17.440541 3.576882m0 .002704 11.086486 16.066499m-114.518919 31.998088 14.489189.50828m0 .001081.270271 8.329836m0 .000271-5.394595 13.261229m94.067568-70.165284-88.940541 48.574759m108.054054 71.856395 6.197297 15.837774m0 .001081-20.324324 19.265957m85.537838-33.77166-65.213514 14.504892m0 .000811-102.602702-30.845537m2.691892-16.000531-2.691892 15.99999m0 0-16.527027 16.751595m-96.997298-101.955194 17.240541-14.650886m0 0 13.121622-.421764m-13.121622.421764 96.283784 99.855566m-156.497298-191.686535-9.037837 4.558294m0 0-14.802703 14.050684m14.802703-14.050684 69.251351 87.272675m-144.981081-158.945494.835135 9.987151m0 0-12.135135 12.490699m12.135135-12.490699 74.894595 61.682964m-159.728919-78.677884 9.797297-8.84893m0 0-12.305405-8.957075m12.305405 8.957075 75.037027 25.846554m-157.163243-22.826617 16.464865 5.296381m-.000541 0-13.27027 13.731658m13.27027-13.731658 20.318919-7.24839m-.001081 0 45.343243-1.070632m-45.343243 1.070632-6.25946 22.31293m6.25946-22.31293 35.545946 7.781002m493.762162 97.827585 13.340541-31.624178m37.629729 20.555581-4.902702 44.647489m4.902702-44.647489 6.113514-2.776612m0 0-4.751352-11.098338m-38.994594-6.680631 37.332432 23.280824m-37.332432-23.280824-.95946-37.693793m.95946 37.693793-55.227027 1.768164m90.337838 65.165219 21.316216-24.738072m-.002703 0-.627027-19.506578m0 0-34.908108-88.948916m0 0-11.216216-25.203094m-.002703 0-85.921622-121.248998m0 0-39.045945-40.646139m-3.262163 3.20919 3.262163-3.20919m0 0 5.351351-6.383234m30.702703 50.227749 2.991891-3.201079m9.845946-7.686376-9.845946 7.689079m82.775676 126.156058 3.145946-4.90706m0 0 15.662162-13.545108m18.413514 122.787354 12.051351 4.909764m0 0 26.954054-18.192622m-26.327027 37.6992 29.702703-20.47988m-106.951351 35.328131 15.159459-15.956733m-7.240541 32.305489 12.245946-9.184178m-521.621351-104.156747-8.683784 3.609325m.000271 0-6.872973-19.176737m6.872973 19.176737 66.1 114.014126m.00027 0 12.926216-4.16627m-12.926216 4.16627 126.255946 64.884313m0 0 10.610811-13.920911m-10.610811 13.920911 88.391892 19.898603m-208.640811-100.101596-.15946-100.715046m8.467838 2.160188-8.467297-2.160188m.00054 0-3.129729-1.854679m519.15054-4.834063 56.137838-90.517012m.002703-.002704-17.056757-139.67413m0 0-49.562162-96.7109925m0-.0027036-16.321622-17.7789687m0 0-88.313513-27.4984626m0 0-19.737838 5.4315614m167.537838 269.877499 23.454054 6.358901m-23.454054-6.358901 3.689189 38.226405m-5.210811-159.291557 7.918919-12.252781m-65.883784-114.4926648-1.545946 11.1145591m0 .0027036 17.867568 6.6644096m-123.035135-39.8945349 10.889189 6.9861397m0 0 7.510811-12.3690361m151.991892 395.3549498-24.335136-.145996m24.335136.145996 11.745946-1.297735m-.002703-.002704 98.891892-36.471759m0 0 38.037838-74.411581m-15.540541-106.346674 15.540541 106.346674m-71.035136-164.414906 55.494595 58.068232m-9.827027 8.459609 9.82973-8.459609m-4.451352 113.384183 19.98919-7.040212m-68.937838 77.418 30.902702-3.003716m-93.524324 53.34772-3.427027 5.34775m5.575676-134.615668 24.156757-4.33119m-41.213514-135.34294 20.824324-5.391007m-70.386486-91.3226891 6.118919-18.5035374m162.335135 573.0940785 12.024324 3.852651m0-.000541 6.154054 16.873258m.002703.000541-61.424324-24.39201m0-.001082-61.918919-53.901961m0-.001352-40.375676-51.85911m49.524324 43.030187-28.551351 30.402144m-9.281081-58.416456-23.505405 22.541385m116.316216 52.9657.527027 16.327128m0 0-21.024325 16.805667m-113.197297-128.987283-10.102703 10.154776m29.316217-6.961807 15.629729-9.292323m0 0-29.318918-6.867181m.002702 0 36.432433-7.518752m0 0-25.786487-5.193643m-.627027-19.506578 30.332433-.973302m-30.332433.973302 13.751351-44.709673m0 0-25.032432 15.956733m0 0 10.85946-42.125017m0 0-22.762163 11.003711m0 .002704 7.28919-40.797543m0 0-19.013514 11.720169m0 0 4.445946-38.748202m-.002703 0-34.74054-13.380188m.002702 0-4.297297-33.124685m0 0-30.875676-16.505566m31.678379 16.135171-14.632433 7.924294m18.127027 25.570786 16.264865-9.29773m-50.275675-39.713393 12.975675-7.759374m-32.321621-18.52787 12.235135-6.742814m0 0 7.110811 33.030058m-32.835136-45.312579 25.724325 12.282521m175.305405 374.444654 17.6-20.609653m40.789189 56.213552 19.278379-18.454872m-172.297298-113.13491 50.986487 10.192627m0 0 9.281081 58.415645m-.002703.001082 51.964865 6.767147m0-.000271 11.07027 43.455196m0 .00054 48.997298-5.696515m0-.001082 7.935135 26.66575m-435.913514-356.951729-112.583783 16.675894m71.456756-126.058727 41.127027 109.382833m-41.127027-109.382833 114.343244 38.231812m-185.8 87.826915 89.243243 97.581557m216.562162 73.530202-70.048649-78.799547m0-.002703 40.213514 105.081383m-275.97027-197.390892-125.184595-162.430453m-.000811 0 196.642162 36.371726m-132.997297-91.03881 132.997297 91.03881m-196.642162-36.371726-128.224324-95.129378m-.001081 0 191.87027 40.462294m266.902703 227.28746 20.237838-22.085826m-79.813514 71.23213 32.681081-6.504897m0 0 46.035135-2.225074m-103.751351-66.635986 40.356757 37.053036m63.394594 29.580246 56.72973-8.805672m-112.324324 53.22065-1.283784 26.349427m-292.80973-283.79841 237.769189 145.754559m48.521622 37.6992 64.494595-32.919209m-79.813514 71.23213 21.837838 62.03173m0 0 44.467568-34.30346m13.508108-98.9604-1.097298 62.499455m0 0-12.41081 36.458241m-50.986487-66.038487-15.318919 38.312921m138.12973 66.181778-2.681081-83.720125m234.327027 106.519706 27.075675-2.590063m2.8 57.933051 27.464865-9.478872m-6.064865 49.311494 31.22973-6.810405m-22.048648 57.785433 30.87027 7.094285m-41.767568 7.371675 10.894595-14.467041m.002703.001081 22.048648-57.784351m0 0-49.378378-32.195993m0-.002704-6.054054-58.757653m0 0-51.070271-35.609306m-632.634054-183.315874 141.066487 73.194954m212.094595 87.0672-12.891892 45.442352m46.302702-55.799899 38.413514 48.813759" stroke-width=".241"/><path d="m403.394595 598.534009-32.95946 2.549509m0 .000811-62.948649-54.453499" stroke-width=".482"/><path d="m119.776 87.048-113.23-59.452 65.649 2.998 8.102-5.337 62.752 21.783 181.435 45.91 171.316 68.991 76.922 60.642 21.394 22.078 68.316 50.055 32.4 42.928 43.287 27.485" stroke-width=".482"/><path d="m89.8243243 27.3632819 45.1594597-15.2619036m-.00027.0027036 47.624324 44.9475904" stroke-width=".482"/><path d="m119.776 87.048 125.048 150.327 143.252 125.374 90.305 46.378 22.419 9.749 8.392-4.528 8.832-2.612 18.549 9.879 38.313 21.662 11.238-.36 14.765 13.102 2.162 67.441-85.989 51.646-15.603-2.604-42.832-41.696-71.922-90.028-84.767-67.114-86.506-24.817-33.04 10.028-36.781 1.952-3.606 8.268 5.379 10.69 28.748 1.403 41.806-14.532 72.7 29.486 72.227 63.245 66.813 87.874 95.165 101.31 98.454 34.474 68.184-14.603 19.538-19.639 26.584-54.002-7.476-51.363-49.008-101.246 79.027 57.601 34.335 6.272 13.841-27.988 3.064-25.322-3.6-15.399-43.81-84.334-13.606-25.174-91.738-115.39-43.537-39.343-12.576-5.023 3.959 14.618 39.317 40.636 85.767 122.957 32.47 93.234-13.729-4.99-26.225-39.384" stroke-width=".482"/><path d="m501.459 572.501 44.436 43.964 87.032 28.252 44.276-10.346 21.616-39.492-8.016-32.335-28.511-54.565-9.2-8.624-.546 7.386-11.116 3.853.581 30.24-9.997 2.649-14.96 29.383-23.065-5.661-15.43 26.874-19.562-5.189-13.102 27.575" stroke-width=".482"/><path d="m719.049 469.842 5.981 27.204 4.221 18.874-6.105 13.083" stroke-width=".482"/><path d="m496.332 618.214-24.213-5.204-22.708-2.75-23.538-12.45-22.478.725-21.263-13.959-21.183-3.488-10.541-14.218-20.208-1.295-11.211-14.77-.078-2.325-20.003-3.233-10.208-15.966-21.821-3.182-8.146-12.028-13.087-9.014-.497-15.514-13.386-6.161-.489-15.5-12.249-6.986-2.411-14.664-8.978-7.854-.603-18.804-13.459-2.52-3.617-19.041-6.297-19.439 10.984-3.815 8.113 18.152 70.343 113.457 123.941 55.127 52.37 8.406" stroke-width=".482"/><path d="m176.353 357.902-5.589-17.084-2.214-14.473 13.152 10.825 6.421 18.804" stroke-width=".482"/><path d="m277.035135 508.120005-2.543243-111.45921" stroke-width=".482"/><path d="m289.762 368.673 17.097-27.182 1.473-17.122-31.94 41.968" stroke-width=".482"/><path d="m262.892162 392.648631-4.824324 15.394381c3.42973 12.358222-.432433 23.275417-.432433 23.275417l3.683784 13.482925-3.537838 12.120304 2.978379 14.058795-2.508108 11.441696m.48081 31.651215 5.283784 30.809579" stroke-width=".482"/><path d="m265.674 545.47 13.65 2.071 6.181 17.536 15.695 6.283 6.027 19.79 12.532 2.125 9.063 19.926 14.975 3.899 14.279 15.386 25.448-4.52 15.995 10.938 23.27-5.461 20.66 13.824 28.827-4.421 19.854-.635 14.443-13.096" stroke-width=".482"/><path d="m572.351 223.162-29.265 14.391-43.945 56.76-27.403 64.765 4.054 49.487" stroke-width=".482"/><path d="m593.746 245.234-19.876-15.008-29.819 17.385-36.748 47.348-21.86 56.314 3.352 43.73 16.791 15.757 12.068 1.16" stroke-width=".482"/><path d="m766.651 358.172 48.079-67.236-1.519-121.062-60-116.575-93.792-25.3-55.211 31.432 59.238-52.883 10.727 8.849 11.703-2.739 10.1 10.128 9.692-3.012 10.397 9.779 15.003-4.864 9.164 12.515 11.998-4.093 10.062 9.119 13.47-.102 9.016 18.59 11.198 12.777 7.278 16.957 10.178 12.815 8.99 17.574 9.527 13.51 10.002 17.876 5.449 22.754 3.068 22.137 7.61 48.284 6.43 42.833-14.484 31.565-20.219 31.324-22.275 30.372-22.673 11.723" stroke-width=".482"/><path d="m899.67 376.186-71.194 24.79-38.465 1.746" stroke-width=".482"/><path d="m899.67 376.186 47.968-69.461-5.411-105.811-45.665-54.356-1.805-13.697 9.438.968 53.789 54.215 6.678 19.112-.376 15.984 7.055 10.09-2.249 13.364 7.2 15.01-2.354 8.609 9.578 20.59-3.73 9.779 1.546 20.175-12.743 8.949.725 22.442-13.13 10.98-.849 22.494-19.849 18.385-4.656 8.908-19.852-9.693-19.927 22.887-17.024-9.112-20.054 22.654-17.938-13.091-10.157 17.582-16.267-2.188" stroke-width=".482"/><path d="m719.37 470.54 35.816 40.349 60.268 68.609 63.032 50.223 56.933 20.969 58.392-38.716-8.822-64.878-48.832-80.103-37.389-49.755" stroke-width=".482"/><path d="m799.094595 496.735084 44.91081 52.35982m0 .000541 54.978379 47.491691m0 .001082 41.037838 18.906376m-1.027027-.475025 24.483783-10.387287m-.537837.248732-7.264865-47.405175m0-.000271-40.12973-74.693838m.002703 0-41.491892-64.756973m-20.535135-25.427494-4.25946-9.722198" stroke-width=".482"/><path d="m849.262 382.875-11.081-21.859 2.714-14.713 22.462 20.012 11.481 18.52" stroke-width=".482"/><path d="m776.416216 43.4741205-4.497297 16.3622747m0 0 24.054054 13.6586602m0 0-4.27027 24.6299277m0 0 22.235135 6.1290939m0 0-7.494595 24.71374m-.002702-.002704 25.508108 5.382897m-1.075676-.2244-9.743243 23.494409m-.002703 0 26.727027 20.642097m0 0-20.989189 26.35213m.975676-1.230145 26.197297 21.023306m.002703 0-21.351352 27.879673m-.002703 0 29.318919 19.295696m0-.002704-23.821621 25.714077m0 0 12.97027 20.047302m-5.021622 7.437643-28.886486 6.269682m0 0 12.556757 20.074337m-2.251352 3.090232-31.351351 10.773903m0 0 9.875676 17.265282" stroke-width=".482"/></g><path d="m497.8 644.659024c-1.405405 3.152414-5.094595 4.558294-8.240541 3.155118-3.145945-1.40588-4.554054-5.09361-3.145945-8.240617 1.4-3.152415 5.094594-4.558294 8.235135-3.157822 3.14054 1.411287 4.556756 5.107128 3.151351 8.243321m-50.364865 5.209324c-1.405405 3.155118-5.094594 4.552887-8.245946 3.155118-3.145946-1.408583-4.548648-5.09361-3.145946-8.24332 1.405406-3.147008 5.094595-4.558294 8.235135-3.160526 3.145946 1.411287 4.562163 5.107128 3.156757 8.248728m-41.510811-8.506923c-1.405405 3.152415-5.094594 4.55559-8.245946 3.160525-3.14054-1.411286-4.548648-5.096313-3.14054-8.24332 1.4-3.152415 5.094594-4.560998 8.235135-3.163229 3.140541 1.411287 4.556757 5.104424 3.151351 8.246024m-41.929729-4.897598c-1.405406 3.152415-5.1 4.555591-8.245946 3.152415-3.145946-1.40588-4.554054-5.090906-3.140541-8.237913 1.394595-3.152415 5.089189-4.560998 8.22973-3.163229 3.145946 1.41399 4.562162 5.107127 3.156757 8.248727m-29.332433-21.642163c-1.405405 3.149711-5.094594 4.558294-8.24054 3.157822-3.140541-1.40588-4.554054-5.09361-3.140541-8.240617 1.4-3.152415 5.094595-4.558294 8.22973-3.157822 3.145946 1.408583 4.559459 5.099017 3.151351 8.240617m-21.227027-21.14578c-1.408108 3.149711-5.1 4.552887-8.245946 3.149711s-4.548648-5.093609-3.14054-8.240617c1.4-3.147007 5.094594-4.558294 8.229729-3.157821 3.145946 1.411286 4.562163 5.104424 3.156757 8.248727m-22.64054-26.048784c-1.405406 3.152414-5.1 4.560997-8.245946 3.152414-3.140541-1.400472-4.548649-5.088202-3.140541-8.235209 1.4-3.155118 5.089189-4.555591 8.22973-3.160526 3.145946 1.408583 4.562162 5.101721 3.156757 8.243321m-21.087568-20.208437c-1.405405 3.157822-5.1 4.558294-8.240541 3.157822-3.145945-1.40588-4.554054-5.090906-3.145945-8.243321 1.405405-3.151333 5.094594-4.554509 8.235135-3.15674 3.145946 1.411287 4.557838 5.106046 3.151351 8.242239m185.336216 63.545484c-1.405405 3.147007-5.1 4.55559-8.245946 3.152414-3.145946-1.405879-4.548648-5.096313-3.14054-8.24332 1.4-3.147007 5.094594-4.55559 8.229729-3.157822 3.145946 1.413991 4.562163 5.107128 3.156757 8.248728" fill="#fff"/><path d="m564.048649 592.374364c-1.405406 3.152415-5.094595 4.560998-8.240541 3.157822-3.145946-1.405879-4.554054-5.09361-3.145946-8.24332 1.4-3.152415 5.094595-4.555591 8.235135-3.157822 3.145946 1.408583 4.556757 5.10172 3.151352 8.24332m19.002702 3.128623c-1.405405 3.149711-5.1 4.558294-8.245946 3.155118-3.14054-1.405879-4.548648-5.09361-3.14054-8.24332 1.394594-3.149711 5.089189-4.555591 8.22973-3.155118 3.145946 1.411286 4.562162 5.10172 3.156756 8.24332m38.756757-20.065956c-1.405405 3.152414-5.1 4.560997-8.245946 3.157822-3.145946-1.40588-4.548648-5.096314-3.14054-8.240617 1.4-3.152415 5.094594-4.558294 8.235135-3.157822 3.14054 1.405879 4.556757 5.10172 3.151351 8.240617m25.237838-32.427422c-1.405405 3.152414-5.094595 4.558294-8.240541 3.157821-3.145946-1.408583-4.554054-5.095772-3.145946-8.242779 1.4-3.152415 5.094595-4.558294 8.235136-3.157822 3.145946 1.405879 4.556756 5.10172 3.151351 8.24278m11.548649-34.862568c-1.405406 3.149711-5.1 4.558294-8.240541 3.155118-3.145946-1.405879-4.554054-5.09361-3.145946-8.240617 1.4-3.152414 5.089189-4.558294 8.235135-3.157822 3.140541 1.411287 4.556757 5.101721 3.151352 8.243321" fill="#bcbcbc"/><path d="m522.759459 414.045036c-1.405405 3.149711-5.1 4.558294-8.245945 3.149711-3.145946-1.400472-4.548649-5.088202-3.145946-8.23521 1.4-3.152414 5.094594-4.558294 8.235135-3.157821 3.14054 1.405879 4.562162 5.10172 3.156756 8.24332m48.324325-48.027007c-1.405406 3.152414-5.1 4.558294-8.245946 3.152414-3.145946-1.400472-4.548649-5.088202-3.145946-8.235209 1.4-3.155118 5.094594-4.558294 8.235135-3.160526 3.145946 1.40588 4.562162 5.101721 3.156757 8.243321m-90.564865 41.957393c-1.405405 3.155118-5.1 4.558294-8.240541 3.160525-3.145946-1.408583-4.554054-5.096313-3.145946-8.24332 1.4-3.152415 5.08919-4.558294 8.235136-3.157822 3.14054 1.408583 4.556756 5.104424 3.151351 8.240617m-85.2-43.198352c-1.405405 3.149711-5.1 4.558294-8.245946 3.155118-3.140541-1.40588-4.548649-5.09361-3.140541-8.243321 1.4-3.14971 5.094595-4.55559 8.235136-3.155118 3.14054 1.411287 4.556756 5.104424 3.151351 8.243321m-145.18-125.02054c-1.405405 3.152415-5.094595 4.558294-8.240541 3.160525-3.145946-1.405879-4.554054-5.096313-3.145946-8.24332 1.4-3.152415 5.094595-4.55559 8.235136-3.160525 3.145946 1.416694 4.559459 5.107127 3.151351 8.24332m-237.895946-209.6193396c-1.4054054 3.1524144-5.10000003 4.5582939-8.24594597 3.1524144-3.14054054-1.4004723-4.54864865-5.0882024-3.14054054-8.2352096 1.4054054-3.1551181 5.09459459-4.5555904 8.23513513-3.1605253 3.14054058 1.4058795 4.55945948 5.1017205 3.15135138 8.2433205m128.436486-15.4890073c-1.405405 3.1524145-5.1 4.558294-8.245945 3.1578217-3.140541-1.4085831-4.548649-5.0963132-3.140541-8.24332046 1.4-3.15241446 5.089189-4.55829398 8.22973-3.15782169 3.145946 1.41128675 4.562162 5.10712775 3.156756 8.24332045m363.361082 151.2023419c-1.405406 3.152415-5.1 4.558294-8.245946 3.152415-3.140541-1.403176-4.548649-5.090906-3.140541-8.237913 1.394595-3.152415 5.089189-4.555591 8.22973-3.157822 3.145946 1.405879 4.562162 5.10172 3.156757 8.24332m93.94054 81.278762c-1.405405 3.152414-5.1 4.560997-8.245946 3.157821-3.145946-1.403175-4.548649-5.093609-3.145946-8.240616 1.405406-3.155119 5.094595-4.555591 8.235135-3.157822 3.145946 1.411287 4.562162 5.104424 3.156757 8.240617m-50.132432-6.234535c-1.405406 3.152414-5.1 4.560997-8.245946 3.152414-3.140541-1.400472-4.548649-5.090906-3.140541-8.237913 1.4-3.152414 5.094595-4.55559 8.235135-3.157822 3.140541 1.408583 4.55946 5.101721 3.151352 8.243321m57.986486 215.651103c-1.405405 3.152415-5.1 4.558294-8.245946 3.157822-3.14054-1.405879-4.548648-5.096313-3.14054-8.24332 1.394594-3.152415 5.089189-4.555591 8.229729-3.157822 3.145946 1.41399 4.562163 5.107128 3.156757 8.24332m95.75946-113.962756c-1.405406 3.149711-5.1 4.558294-8.245946 3.149711-3.145946-1.400473-4.548649-5.088203-3.145946-8.23521 1.405405-3.152414 5.094594-4.558294 8.235135-3.157822 3.145946 1.40588 4.562162 5.101721 3.156757 8.243321m-292.502703 258.50123c-1.405406 3.147007-5.1 4.552886-8.245946 3.152414-3.145946-1.405879-4.554054-5.09361-3.140541-8.240617 1.4-3.147007 5.08919-4.55559 8.22973-3.160525 3.145946 1.41399 4.562162 5.107128 3.156757 8.248728m-22.391892-13.650009c-1.405405 3.147007-5.1 4.552887-8.245946 3.152414-3.145946-1.405879-4.554054-5.096313-3.14054-8.24332 1.4-3.147007 5.089189-4.55559 8.229729-3.157822 3.145946 1.411287 4.562162 5.107128 3.156757 8.248728m46.013514 13.650009c-1.405406 3.147007-5.1 4.552886-8.245946 3.152414-3.140541-1.405879-4.548649-5.09361-3.140541-8.240617 1.4-3.147007 5.094595-4.55559 8.235135-3.160525 3.145946 1.41399 4.556757 5.107128 3.151352 8.248728m46.018918 15.044262c-1.405405 3.152415-5.1 4.550183-8.245946 3.157822-3.14054-1.408583-4.548648-5.096313-3.14054-8.24332 1.4-3.152415 5.094595-4.560998 8.235135-3.163229 3.145946 1.416694 4.556757 5.107127 3.151351 8.248727m-122.902702-45.12711c-1.405406 3.152414-5.1 4.552887-8.245946 3.157822-3.140541-1.40588-4.548649-5.096314-3.140541-8.243321 1.4-3.152414 5.094595-4.560997 8.235135-3.163229 3.145946 1.419398 4.556757 5.107128 3.151352 8.248728m-33.070271-19.234324c-1.405405 3.147007-5.1 4.550183-8.245945 3.152414-3.140541-1.405879-4.548649-5.096313-3.140541-8.24332 1.4-3.147008 5.094595-4.558294 8.235135-3.157822 3.145946 1.411287 4.556757 5.107128 3.151351 8.248728m-29.967567-19.744497c-1.405406 3.147007-5.1 4.552887-8.245946 3.152415-3.140541-1.40588-4.548649-5.09361-3.140541-8.240617 1.4-3.149711 5.094595-4.555591 8.235136-3.160525 3.145945 1.41399 4.556756 5.107127 3.151351 8.248727m-29.725406-15.407899c-1.405405 3.149711-5.1 4.552887-8.245945 3.155119-3.140541-1.40588-4.548649-5.096314-3.140541-8.243321 1.4-3.149711 5.094595-4.560998 8.235135-3.160525 3.145946 1.416694 4.556757 5.104424 3.151351 8.248727m103.125406 66.053898c-1.408108 3.155118-5.1 4.558294-8.245946 3.160525-3.140541-1.408583-4.548649-5.096313-3.140541-8.24332 1.4-3.152415 5.094595-4.555591 8.22973-3.163229 3.145946 1.411286 4.562162 5.104424 3.156757 8.246024m-30.232433-14.671705c-1.408108 3.152415-5.1 4.552887-8.245945 3.157822-3.145946-1.40588-4.548649-5.09361-3.140541-8.240617 1.4-3.155118 5.094595-4.563701 8.22973-3.165932 3.145946 1.416693 4.562162 5.107127 3.156756 8.248727m-33.345945-20.984914c-1.4 3.155118-5.094595 4.558293-8.240541 3.157821-3.151351-1.411287-4.548649-5.093609-3.145946-8.240617 1.405405-3.152955 5.094595-4.564242 8.22973-3.163769 3.145946 1.408583 4.564865 5.104965 3.156757 8.246565m-29.724325-18.593298c-1.405405 3.152415-5.093784 4.558294-8.23973 3.157822-3.145945-1.408583-4.554054-5.096313-3.145945-8.243321 1.4-3.152414 5.089189-4.55559 8.229729-3.157821 3.150541 1.411286 4.561352 5.10172 3.155946 8.24332m-21.219459-20.925976c-1.408108 3.152415-5.1 4.558294-8.245946 3.157822-3.140541-1.408583-4.548649-5.096313-3.140541-8.243321 1.4-3.152414 5.094595-4.55559 8.22973-3.157821 3.145946 1.411287 4.562162 5.10172 3.156757 8.24332m-14.843784-21.658655c-1.405405 3.155118-5.1 4.558294-8.245946 3.160525-3.145946-1.408583-4.548649-5.096313-3.140541-8.24332 1.4-3.147008 5.094595-4.558294 8.22973-3.157822 3.145946 1.408583 4.562162 5.104424 3.156757 8.240617m-13.202162-22.315634c-1.405406 3.152415-5.094595 4.55559-8.240541 3.152415-3.14054-1.40588-4.554054-5.088203-3.14054-8.23521 1.394594-3.160525 5.089189-4.563701 8.229729-3.165933 3.145946 1.413991 4.556757 5.107128 3.151352 8.248728m-9.834325-22.95639c-1.4 3.152414-5.094594 4.558294-8.235135 3.157821-3.145946-1.405879-4.559459-5.093609-3.145946-8.240616 1.4-3.152415 5.094595-4.558294 8.235136-3.165933 3.145945 1.416694 4.554054 5.112535 3.145945 8.248728m-13.365675-20.998974c-1.405406 3.155118-5.094595 4.555591-8.240541 3.155118-3.145946-1.408583-4.554054-5.096313-3.14054-8.24332 1.394594-3.147007 5.089189-4.555591 8.229729-3.160525 3.145946 1.41399 4.55946 5.107127 3.151352 8.248727m62.141081 38.983417c-1.4 3.155118-5.094595 4.560998-8.240541 3.155118-3.145946-1.400472-4.554054-5.090906-3.145946-8.237913 1.405406-3.152415 5.094595-4.55559 8.235136-3.157822 3.145945 1.40588 4.556756 5.099017 3.151351 8.240617m-.27973-25.403161c-1.405405 3.149711-5.094594 4.558294-8.24054 3.155118-3.145946-1.40588-4.554054-5.09361-3.140541-8.243321 1.394595-3.149711 5.089189-4.55559 8.22973-3.160525 3.14054 1.416694 4.556757 5.104424 3.151351 8.248728m.781351-25.957403c-1.405405 3.152415-5.1 4.558294-8.24054 3.157822-3.151351-1.40588-4.554054-5.09361-3.145946-8.240617 1.4-3.152414 5.089189-4.558294 8.22973-3.157822 3.145946 1.408584 4.562162 5.104424 3.156756 8.240617m534.338919-306.519585c-1.408108 3.155118-5.1 4.560997-8.24054 3.160525-3.145946-1.405879-4.554054-5.0963132-3.145946-8.2433205 1.4-3.1524144 5.089189-4.5555903 8.22973-3.1578216 3.145946 1.4112867 4.562162 5.1044241 3.156756 8.2406171m3.483784-24.5974846c-1.4 3.1497108-5.089189 4.5528867-8.235135 3.1497108-3.145946-1.4004723-4.554054-5.090906-3.145946-8.2406168 1.4-3.1470073 5.094595-4.558294 8.22973-3.1578217 3.145946 1.4112867 4.559459 5.1044241 3.151351 8.2487277m-23.275675-13.6856964c-1.405406 3.1524145-5.094595 4.5528867-8.240541 3.1524145-3.151351-1.4031759-4.554054-5.0963133-3.145946-8.2433205 1.4-3.1470073 5.094595-4.5555904 8.22973-3.1578217 3.145946 1.4112867 4.562162 5.1071277 3.156757 8.2487277m2.445945-16.3000916c-1.405405 3.1524145-5.1 4.558294-8.245945 3.1578217-3.140541-1.4058795-4.548649-5.0936096-3.140541-8.2406168 1.4-3.1551181 5.089189-4.5555904 8.22973-3.1605253 3.145946 1.4139903 4.562162 5.1017204 3.156756 8.2433204m-22.367567-9.2301397c-1.405406 3.1497108-5.094595 4.5528867-8.240541 3.1497108s-4.554054-5.090906-3.14054-8.2406168c1.4-3.1443037 5.089189-4.5555904 8.22973-3.1578217 3.145945 1.4112867 4.559459 5.1044241 3.151351 8.2487277m-21.140541-9.6897542c-1.405405 3.1524144-5.1 4.5582939-8.24054 3.1578216-3.145946-1.4085831-4.554054-5.0963132-3.145946-8.2433204 1.4-3.1524145 5.089189-4.5555904 8.22973-3.163229 3.14054 1.4112868 4.562162 5.1071278 3.156756 8.2487278m-26.297297-4.1365302c-1.405405 3.1524145-5.094595 4.5609976-8.235135 3.1578217-3.145946-1.4058795-4.554054-5.0963132-3.145946-8.2433205 1.394595-3.1497108 5.089189-4.5555903 8.22973-3.155118 3.145946 1.4112867 4.556756 5.0990168 3.151351 8.2406168m-19.583784-8.3785012c-1.4 3.1524145-5.094594 4.558294-8.24054 3.1578217-3.145946-1.4085831-4.548649-5.0963132-3.145946-8.24332046 1.4-3.15241446 5.094594-4.55829398 8.235135-3.15782169 3.14054 1.41128675 4.556757 5.10172045 3.151351 8.24332045" fill="#fff"/><path d="m824.664865 415.064299c-1.405406 3.152414-5.1 4.558294-8.245946 3.152414-3.145946-1.400472-4.554054-5.088202-3.140541-8.235209 1.394595-3.152415 5.08919-4.558294 8.22973-3.165933 3.145946 1.411287 4.562162 5.107128 3.156757 8.248728m6.878378 30.661691c-1.405405 3.149711-5.1 4.552887-8.245946 3.149711s-4.548648-5.088202-3.14054-8.240617c1.4-3.152414 5.094594-4.55559 8.229729-3.157821 3.145946 1.411286 4.562163 5.104424 3.156757 8.248727m28.872973-2.673874c-1.405405 3.147007-5.1 4.55559-8.245946 3.152414-3.145946-1.405879-4.554054-5.096313-3.145946-8.24332 1.405406-3.147008 5.094595-4.555591 8.235135-3.157822 3.145946 1.41399 4.556757 5.107128 3.156757 8.248728" fill="#bcbcbc"/><path d="m532.121622 651.352092c-1.405406 3.155118-5.1 4.552886-8.240541 3.155118-3.145946-1.403176-4.554054-5.09361-3.145946-8.237914 1.4-3.152414 5.089189-4.563701 8.22973-3.163229 3.151351 1.408584 4.562162 5.104425 3.156757 8.246025m-96.910811-101.543974c-1.405406 3.147007-5.1 4.552886-8.245946 3.152414-3.140541-1.405879-4.548649-5.096313-3.140541-8.24332 1.4-3.148089 5.094595-4.556672 8.22973-3.158904 3.145946 1.412369 4.562162 5.10821 3.156757 8.24981m-66.648649-87.871255c-1.405405 3.147007-5.1 4.552886-8.24054 3.155118-3.145946-1.408583-4.554054-5.096314-3.145946-8.243321 1.4-3.147007 5.089189-4.55559 8.229729-3.160525 3.145946 1.41399 4.562163 5.107128 3.156757 8.248728m-69.532432-63.248357c-1.405406 3.155118-5.1 4.558294-8.245946 3.155118-3.145946-1.400472-4.554054-5.090906-3.145946-8.237913 1.405405-3.152415 5.094594-4.560998 8.235135-3.163229 3.145946 1.41399 4.556757 5.104424 3.156757 8.246024m-71.747838-26.476496c-1.405406 3.147007-5.1 4.55559-8.245946 3.152414-3.140541-1.405879-4.554054-5.096313-3.140541-8.24332 1.4-3.144304 5.094595-4.555591 8.22973-3.155118 3.145946 1.411286 4.562162 5.104424 3.156757 8.246024m403.891081 312.914174c-1.405405 3.147007-5.1 4.550183-8.245946 3.152415-3.140541-1.40588-4.548649-5.096314-3.140541-8.243321 1.4-3.147007 5.094595-4.55559 8.22973-3.157822 3.145946 1.413991 4.562162 5.107128 3.156757 8.248728m67.102703-12.485832c-1.405406 3.147007-5.1 4.55559-8.245946 3.152414-3.145946-1.405879-4.554054-5.096313-3.145946-8.24332 1.405405-3.147007 5.094594-4.555591 8.235135-3.157822 3.145946 1.41399 4.556757 5.107128 3.156757 8.248728m18.432432-21.28826c-1.4 3.155118-5.094594 4.552886-8.24054 3.155118-3.145946-1.403176-4.554054-5.09361-3.145946-8.237914 1.4-3.152414 5.094594-4.563701 8.235135-3.163229 3.145946 1.408584 4.556757 5.104425 3.151351 8.246025m25.354054-54.003618c-1.405405 3.152415-5.1 4.555591-8.245946 3.152415-3.14054-1.400473-4.548648-5.090906-3.14054-8.237914 1.4-3.152414 5.094594-4.560997 8.229729-3.160525 3.145946 1.411287 4.562163 5.104424 3.156757 8.246024" fill="#fff"/><path d="m896.702703 427.344116c-1.405406 3.147007-5.1 4.552886-8.245946 3.152414-3.145946-1.405879-4.548649-5.096313-3.140541-8.24332 1.4-3.152415 5.089189-4.555591 8.22973-3.157822 3.145946 1.41399 4.562162 5.10172 3.156757 8.248728m39.8-12.52855c-1.405406 3.152415-5.094595 4.552887-8.240541 3.152415-3.145946-1.403176-4.554054-5.09361-3.145946-8.240617 1.4-3.147007 5.094595-4.555591 8.235135-3.160525 3.145946 1.41399 4.556757 5.107127 3.151352 8.248727" fill="#bcbcbc"/><path d="m962.105405 386.906154c-1.405405 3.152415-5.1 4.560998-8.24054 3.160526-3.145946-1.40588-4.554054-5.096314-3.145946-8.243321 1.4-3.152414 5.089189-4.55559 8.22973-3.160525 3.145946 1.41399 4.562162 5.107127 3.156756 8.24332m12.948649-30.55625c-1.405405 3.152414-5.094595 4.558294-8.24054 3.152414-3.145946-1.400472-4.548649-5.088202-3.145946-8.23521 1.405405-3.155118 5.094594-4.563701 8.235135-3.160525 3.145946 1.40588 4.556756 5.101721 3.151351 8.243321m11.05946-33.335567c-1.405406 3.152415-5.094595 4.558294-8.240541 3.157822-3.145946-1.408583-4.554054-5.096313-3.145946-8.24332 1.4-3.152415 5.094595-4.555591 8.235135-3.157822 3.140541 1.41399 4.556757 5.107128 3.151352 8.24332m3.097297-29.615392c-1.405406 3.147007-5.1 4.552886-8.245946 3.152414-3.140541-1.405879-4.548649-5.09361-3.140541-8.240617 1.4-3.147007 5.094595-4.55559 8.235135-3.160525 3.140541 1.41399 4.55946 5.107128 3.151352 8.248728m-7.178379-29.188222c-1.408108 3.152414-5.1 4.552887-8.24054 3.152414-3.145946-1.405879-4.554054-5.096313-3.145946-8.240617 1.4-3.155118 5.089189-4.558293 8.22973-3.160525 3.145946 1.411287 4.562162 5.107128 3.156756 8.248728m-4.57027-27.438983c-1.405405 3.152414-5.094594 4.560997-8.24054 3.157821-3.145946-1.405879-4.554054-5.096313-3.145946-8.24332 1.405405-3.152414 5.094594-4.560998 8.235135-3.160525 3.145946 1.416694 4.556757 5.107127 3.151351 8.246024m-7.132432-27.898598c-1.408108 3.152415-5.1 4.555591-8.245946 3.152415-3.140541-1.400473-4.548649-5.088203-3.140541-8.237914 1.4-3.14971 5.089189-4.560997 8.22973-3.160525 3.145946 1.411287 4.562162 5.107128 3.156757 8.246024m-301.954054-199.75385043c-1.4 3.14971083-5.094595 4.55559033-8.240541 3.15511803-3.145946-1.4085831-4.554054-5.09901683-3.14054-8.2352096 1.4-3.15511807 5.089189-4.56640482 8.229729-3.16593253 3.145946 1.41128675 4.55946 5.10712771 3.151352 8.2460241m151.235135 97.08138843c-1.405406 3.152414-5.094595 4.55559-8.240541 3.152414-3.145946-1.40588-4.548648-5.09361-3.14054-8.237913 1.4-3.1524147 5.089189-4.5609979 8.229729-3.1605256 3.140541 1.4112868 4.556757 5.1044246 3.151352 8.2460246m-5.378379 26.99559c-1.4 3.152414-5.094594 4.55559-8.24054 3.160525-3.145946-1.411287-4.548649-5.096313-3.140541-8.24332 1.4-3.152415 5.08919-4.560998 8.22973-3.165933 3.145946 1.413991 4.55946 5.107128 3.151351 8.248728m22.345946 3.739099c-1.405405 3.147007-5.1 4.552886-8.245946 3.152414-3.145946-1.405879-4.554054-5.096313-3.145946-8.24332 1.405406-3.152415 5.094595-4.555591 8.235136-3.157822 3.145946 1.405879 4.556756 5.10172 3.156756 8.248728m-7.283783 23.145643c-1.405406 3.152415-5.1 4.552887-8.245946 3.157822-3.145946-1.411287-4.554054-5.096314-3.140541-8.243321 1.394595-3.152414 5.089189-4.560997 8.22973-3.163229 3.145946 1.413991 4.562162 5.107128 3.156757 8.248728m24.248648 20.569099c-1.405405 3.152414-5.1 4.558294-8.245946 3.152414-3.14054-1.400472-4.548648-5.090906-3.14054-8.237913 1.4-3.152414 5.089189-4.55559 8.229729-3.157822 3.145946 1.413991 4.562163 5.101721 3.156757 8.243321m6.186487 46.299397c-1.408108 3.147008-5.1 4.555591-8.245946 3.155119-3.145946-1.40588-4.554054-5.096314-3.140541-8.243321 1.4-3.147007 5.089189-4.55559 8.22973-3.160525 3.145946 1.416694 4.562162 5.107127 3.156757 8.248727m6.735135 47.207812c-1.4 3.155119-5.094595 4.558294-8.240541 3.155119-3.145946-1.40588-4.548648-5.090906-3.145946-8.240617 1.405406-3.152415 5.094595-4.558294 8.235136-3.157822 3.145945 1.411287 4.556756 5.107128 3.151351 8.24332m-26.113514-19.387619c-1.405405 3.152415-5.094594 4.552887-8.24054 3.152415-3.151352-1.40588-4.548649-5.088203-3.145946-8.237914 1.405405-3.152414 5.094594-4.563701 8.235135-3.163229 3.145946 1.411287 4.556757 5.107128 3.151351 8.248728m3.3 43.295682c-1.405405 3.152415-5.1 4.55559-8.24054 3.157822-3.145946-1.40588-4.554054-5.09361-3.145946-8.243321 1.405405-3.152414 5.094594-4.560997 8.235135-3.160525 3.145946 1.416694 4.559459 5.104424 3.151351 8.246024m-19.483783 35.490347c-1.4 3.144304-5.094595 4.552887-8.240541 3.149711s-4.548649-5.090906-3.140541-8.237913c1.4-3.149711 5.08919-4.560998 8.22973-3.160526 3.145946 1.411287 4.55946 5.104425 3.151352 8.248728m-46.327027 156.374357c-1.405406 3.147007-5.094595 4.55559-8.240541 3.152414-3.145946-1.405879-4.554054-5.096313-3.145946-8.24332 1.405405-3.147008 5.094595-4.555591 8.235135-3.157822 3.145946 1.41399 4.556757 5.107128 3.151352 8.248728m28.056756 9.313952c-1.408108 3.152414-5.1 4.55559-8.245946 3.157821-3.145946-1.405879-4.554054-5.096313-3.145946-8.24332 1.4-3.152415 5.094595-4.560998 8.235136-3.160526 3.145945 1.416694 4.556756 5.104425 3.156756 8.246025m7-17.835745c-1.405405 3.155118-5.094594 4.55559-8.24054 3.160525-3.140541-1.405879-4.554054-5.096313-3.140541-8.24332 1.394595-3.152415 5.083784-4.560998 8.22973-3.160526 3.14054 1.416694 4.556757 5.101721 3.151351 8.243321m1.194595-24.194646c-1.405406 3.149711-5.094595 4.555591-8.240541 3.152415-3.145946-1.40588-4.554054-5.096314-3.145946-8.240617 1.4-3.147007 5.094595-4.558294 8.235136-3.157822 3.145945 1.411287 4.559459 5.107128 3.151351 8.246024m-.808108-17.692453c-1.405406 3.155118-5.1 4.552887-8.240541 3.155118-3.145946-1.405879-4.554054-5.090906-3.145946-8.237913 1.4-3.152414 5.089189-4.560998 8.22973-3.163229 3.151351 1.411287 4.562162 5.104424 3.156757 8.246024m-12.97027-25.211205c-1.408109 3.152415-5.1 4.552887-8.245946 3.152415-3.145946-1.40588-4.554054-5.09361-3.145946-8.23521 1.4-3.155118 5.094594-4.560997 8.235135-3.165932 3.145946 1.41399 4.556757 5.107127 3.156757 8.248727m-14.205406-27.09292c-1.405405 3.147007-5.1 4.552887-8.245946 3.155118-3.145946-1.408583-4.548648-5.096313-3.145946-8.243321 1.405406-3.152414 5.094595-4.55559 8.235135-3.160525 3.145946 1.408583 4.562163 5.101721 3.156757 8.248728m-15.42973-28.452839c1.405406-3.133489-.01081-6.82933-3.156756-8.240617-3.135136-1.400472-6.82973.005408-8.22973 3.157822-1.408108 3.144304-.005406 6.834737 3.14054 8.240617 3.145946 1.400472 6.840541-.002704 8.245946-3.157822m-15.667567-28.336583c-1.4 3.152415-5.094595 4.558294-8.240541 3.152415-3.145946-1.397769-4.554054-5.088203-3.145946-8.23521 1.4-3.152414 5.094595-4.55559 8.235135-3.160525 3.140541 1.408583 4.55946 5.10172 3.151352 8.24332m-3.389189 38.710352c-1.405406 3.152414-5.094595 4.558294-8.245946 3.157822-3.140541-1.408583-4.548649-5.090906-3.140541-8.237914 1.4-3.152414 5.094595-4.560997 8.235135-3.163228 3.145946 1.41399 4.556757 5.107127 3.151352 8.24332m-11.15946-25.197687c-1.405405 3.152415-5.094594 4.552887-8.24054 3.157822-3.145946-1.408583-4.548649-5.096313-3.145946-8.243321 1.405405-3.152414 5.094594-4.560997 8.235135-3.163228 3.145946 1.416694 4.556757 5.107127 3.151351 8.248727m-17.018919-26.987479c-1.408108 3.152414-5.1 4.558294-8.245946 3.157821-3.145946-1.408583-4.548648-5.096313-3.14054-8.24332 1.4-3.152415 5.089189-4.560998 8.229729-3.157822 3.151352 1.40588 4.562163 5.101721 3.156757 8.243321m-7.256757-31.726916c-1.408108 3.152415-5.1 4.558294-8.245945 3.157822-3.145946-1.408583-4.548649-5.096313-3.140541-8.243321 1.4-3.152414 5.089189-4.55559 8.22973-3.157821 3.145946 1.411286 4.562162 5.10172 3.156756 8.24332m-28.891891-17.879002c-1.405406 3.149711-5.094595 4.552886-8.245946 3.149711-3.140541-1.403176-4.548649-5.090907-3.140541-8.237914 1.4-3.155118 5.089189-4.558294 8.22973-3.160525 3.151351 1.411287 4.562162 5.10172 3.156757 8.248728m-32.75946-43.190241c-1.405405 3.152414-5.1 4.558294-8.245946 3.157821-3.14054-1.405879-4.548648-5.093609-3.14054-8.235209 1.394594-3.160526 5.089189-4.560998 8.229729-3.165933 3.145946 1.413991 4.562163 5.107128 3.156757 8.243321m26.327027 10.803643c-1.405405 3.155118-5.094594 4.552887-8.24054 3.160525-3.145946-1.405879-4.548649-5.096313-3.145946-8.24332 1.4-3.152415 5.094594-4.560998 8.235135-3.163229 3.145946 1.419398 4.556757 5.104424 3.151351 8.246024m82.554054 162.957658c-1.405405 3.152414-5.094594 4.558294-8.24054 3.152414-3.145946-1.403176-4.548649-5.090906-3.145946-8.237913 1.405405-3.152414 5.094594-4.558294 8.235135-3.157822 3.145946 1.40588 4.559459 5.101721 3.151351 8.243321m12.489189 31.402482c-1.408108 3.147007-5.1 4.55559-8.24054 3.152414-3.151351-1.405879-4.554054-5.096313-3.145946-8.240617 1.394595-3.14971 5.089189-4.558294 8.22973-3.157821 3.145946 1.411286 4.556756 5.104424 3.156756 8.246024m12.424325 27.225397c-1.405406 3.152415-5.1 4.558294-8.240541 3.157822-3.151351-1.405879-4.554054-5.096313-3.151351-8.237913 1.405405-3.152415 5.094594-4.560998 8.235135-3.163229 3.145946 1.41399 4.562162 5.107128 3.156757 8.24332m.67027 20.99627c-1.4 3.152415-5.094595 4.558294-8.240541 3.157822-3.145945-1.408583-4.548648-5.096313-3.145945-8.237913 1.4-3.157822 5.094594-4.560998 8.235135-3.163229 3.145946 1.411287 4.556756 5.107128 3.151351 8.24332" fill="#fff"/><path d="m762.486486 513.381239c-1.405405 3.14971-5.094594 4.552886-8.24054 3.155118-3.145946-1.40588-4.554054-5.096314-3.140541-8.243321 1.4-3.152414 5.08919-4.55559 8.22973-3.157822 3.145946 1.413991 4.55946 5.099017 3.151351 8.246025" fill="#8a8a8b"/><path d="m810.056757 523.687417c-1.405406 3.147007-5.094595 4.552887-8.240541 3.152414-3.151351-1.405879-4.548648-5.096313-3.145946-8.24332 1.4-3.147007 5.094595-4.558294 8.235135-3.157822 3.145946 1.411287 4.556757 5.107128 3.151352 8.248728m31.113513 38.466486c-1.405405 3.155118-5.1 4.558294-8.24054 3.160525-3.145946-1.408583-4.554054-5.096313-3.145946-8.243321 1.4-3.152414 5.094594-4.55559 8.22973-3.157821 3.145945 1.408583 4.562162 5.104424 3.156756 8.240617" fill="#bcbcbc"/><path d="m871.559459 588.865343c-1.408108 3.149711-5.1 4.552887-8.245945 3.149711-3.145946-1.400472-4.554055-5.088202-3.145946-8.240617 1.405405-3.147007 5.094594-4.558294 8.235135-3.157822 3.145946 1.411287 4.556756 5.107128 3.156756 8.248728m31.397298 26.830129c-1.405406 3.147008-5.094595 4.552887-8.235135 3.152415-3.151352-1.40588-4.554054-5.096314-3.145946-8.243321 1.4-3.147007 5.094594-4.55559 8.229729-3.155118 3.145946 1.408583 4.55946 5.104424 3.151352 8.246024m27.824324 13.011145c-1.408108 3.152414-5.1 4.558294-8.245946 3.157822-3.145946-1.408584-4.554054-5.096314-3.14054-8.243321 1.394594-3.152414 5.089189-4.55559 8.229729-3.157822 3.145946 1.411287 4.562162 5.107128 3.156757 8.243321" fill="#fff"/><path d="m963.878378 638.306611c-1.4 3.152415-5.089189 4.558294-8.235135 3.157822-3.151351-1.408583-4.554054-5.096313-3.151351-8.237913 1.4-3.152415 5.094594-4.560998 8.235135-3.163229 3.145946 1.411286 4.556757 5.107127 3.151351 8.24332m34.164865-25.663249c-1.405405 3.152414-5.1 4.558294-8.24054 3.152414-3.145946-1.403176-4.554054-5.090906-3.145946-8.237913 1.4-3.152414 5.094594-4.558294 8.235135-3.157822 3.145946 1.40588 4.556757 5.101721 3.151351 8.243321m-57.021621 37.718666c-1.405406 3.147007-5.094595 4.552887-8.240541 3.152414-3.145946-1.405879-4.554054-5.093609-3.145946-8.240616 1.4-3.147008 5.094595-4.555591 8.235135-3.160526 3.145946 1.413991 4.556757 5.107128 3.151352 8.248728" fill="#bcbcbc"/><path d="m913.783784 641.406305c-1.405406 3.152415-5.1 4.552887-8.245946 3.152415-3.140541-1.40588-4.548649-5.09361-3.140541-8.243321 1.4-3.152414 5.094595-4.558294 8.235135-3.157822 3.140541 1.411287 4.556757 5.107128 3.151352 8.248728" fill="#fff"/><path d="m884.148649 631.362918c-1.405406 3.152415-5.1 4.560998-8.245946 3.152415-3.140541-1.40588-4.548649-5.096314-3.140541-8.243321 1.394595-3.147007 5.089189-4.55559 8.22973-3.155118 3.145946 1.411287 4.562162 5.104424 3.156757 8.246024m-28.683784-23.392754c-1.408108 3.149711-5.1 4.558294-8.245946 3.155118-3.145946-1.403175-4.554054-5.093609-3.140541-8.240616 1.394595-3.147008 5.08919-4.555591 8.22973-3.157822 3.145946 1.405879 4.562162 5.099017 3.156757 8.24332" fill="#bcbcbc"/><path d="m820.832432 580.820468c-1.408108 3.160525-5.1 4.560998-8.245946 3.160525-3.145945-1.405879-4.554054-5.090906-3.145945-8.24332 1.4-3.152415 5.094594-4.555591 8.235135-3.157822 3.145946 1.411287 4.556756 5.104424 3.156756 8.240617m-31.54054-36.554219c-1.405406 3.152414-5.094595 4.558294-8.240541 3.157821-3.14054-1.408583-4.554054-5.096313-3.14054-8.242239 1.4-3.152414 5.089189-4.560997 8.22973-3.157821 3.145945 1.405879 4.559459 5.10172 3.151351 8.242239" fill="#8a8a8b"/><path d="m801.937838 368.783827c-1.405406 3.147007-5.094595 4.55559-8.245946 3.152414-3.145946-1.40588-4.548649-5.096313-3.140541-8.243321 1.4-3.147007 5.08919-4.55559 8.22973-3.155118 3.145946 1.411287 4.562162 5.099017 3.156757 8.246025m32.635135-162.887364c-1.4 3.147007-5.094595 4.552886-8.235135 3.152414-3.151352-1.405879-4.554054-5.096313-3.145946-8.237913 1.4-3.152415 5.089189-4.563701 8.22973-3.163229 3.145946 1.411287 4.559459 5.107128 3.151351 8.248728" fill="#fff"/><path d="m274.489189 396.977118 4.232433-5.350453m-15.82946 1.354511 2.856757-6.599523" stroke="#fff" stroke-width=".482"/><path d="m506.113514 92.761012c-1.562163 6.1047615-7.786487 9.781677-13.88919 8.216284-6.1-1.5653924-9.786486-7.7864093-8.218919-13.8911707 1.567568-6.1101687 7.791892-9.7870843 13.88919-8.2216916 6.102702 1.5653928 9.786486 7.7837061 8.218919 13.8965783" fill="#301a49"/><path d="m65.7532432 285.996448c-1.5675675 6.110169-7.7864864 9.789788-13.8891891 8.224395-6.1054055-1.568096-9.7918919-7.791816-8.2243244-13.901985 1.5675676-6.104762 7.7918919-9.784381 13.8945946-8.216285 6.1081081 1.565393 9.7864865 7.783707 8.2189189 13.893875" fill="#282928"/><path d="m127.709459 477.04466c-1.562162 6.107465-7.775675 9.787085-13.889189 8.218988-6.1-1.565393-9.781081-7.783706-8.213513-13.891171 1.567567-6.104761 7.781081-9.789788 13.883784-8.224395 6.113513 1.568096 9.786486 7.791817 8.218918 13.896578m269.463514 264.017955c-1.562162 6.104762-7.781081 9.787085-13.889189 8.218988-6.105406-1.565392-9.781081-7.789113-8.213514-13.893874 1.567568-6.107465 7.781081-9.789788 13.883784-8.221692 6.108108 1.565393 9.786487 7.783706 8.218919 13.896578" fill="#301a49"/><path d="m838.954054 796.230409c-2.902703 11.314627-14.421622 18.130439-25.72973 15.22946-11.305405-2.898274-18.127027-14.423783-15.221621-25.741113 2.897297-11.306516 14.421621-18.122328 25.727027-15.221349 11.308108 2.903682 18.121621 14.421079 15.224324 25.733002" fill="#282928"/></g></svg>