<svg width="1000" height="1000" viewBox="0 0 1000 1000" fill="none" xmlns="http://www.w3.org/2000/svg">
<g clip-path="url(#clip0)">
<path d="M1001.72 -1.72665H-1.78711V1001.78H1001.72V-1.72665Z" fill="black"/>
<path d="M504.433 236.793L411.526 288.073L343.526 260.3L504.433 236.793Z" fill="#512E69"/>
<path d="M274.8 268.46L403.453 283.453L242.5 299.607L274.8 268.46Z" fill="#643E82"/>
<path d="M310.64 470.42L349.526 502.433L408.786 395.927L310.64 470.42Z" fill="#6E2467"/>
<path d="M334.227 273.073L383.84 288.073L405.4 224.693L334.227 273.073Z" fill="#8763AA"/>
<path d="M346.986 495.227L385.866 527.24L436.913 365.953L346.986 495.227Z" fill="#6E2467"/>
<path d="M386.913 341.147L501.14 394.993L525.366 358.84L386.913 341.147Z" fill="#8763AA"/>
<path d="M352.3 459.987L326.807 409.493L388.647 404.22L352.3 459.987Z" fill="#804697"/>
<path d="M388.646 481.333L383.606 418.36L457.026 432.493L388.646 481.333Z" fill="#804697"/>
<path d="M379.993 563.06L443.833 509.22L495.373 506.14L379.993 563.06Z" fill="#804697"/>
<path d="M296.033 236.573L388.447 235.5L301.92 288.453L296.033 236.573Z" fill="#9957A2"/>
<path d="M501.087 292.34L520.56 234.807L418.453 286.34L501.087 292.34Z" fill="#9957A2"/>
<path d="M619.786 299.8L556.52 364.993L655 298.06L619.786 299.8Z" fill="#804697"/>
<path d="M215.693 587.627L182.307 652.867L261.533 607.1L215.693 587.627Z" fill="#512E69"/>
<path d="M268.327 702.42C268.328 703.764 267.931 705.078 267.185 706.196C266.44 707.314 265.379 708.186 264.138 708.701C262.897 709.216 261.531 709.352 260.212 709.09C258.894 708.829 257.683 708.183 256.732 707.233C255.782 706.283 255.134 705.072 254.871 703.754C254.609 702.436 254.743 701.07 255.257 699.829C255.771 698.587 256.641 697.525 257.759 696.779C258.876 696.032 260.19 695.633 261.534 695.633C262.425 695.632 263.309 695.807 264.133 696.148C264.957 696.489 265.706 696.988 266.337 697.619C266.968 698.249 267.468 698.997 267.81 699.821C268.151 700.645 268.327 701.528 268.327 702.42Z" fill="#311A49"/>
<path d="M164.613 785.333C164.614 786.677 164.217 787.992 163.471 789.11C162.725 790.228 161.664 791.1 160.422 791.615C159.181 792.13 157.814 792.265 156.496 792.003C155.178 791.741 153.967 791.094 153.016 790.144C152.066 789.193 151.418 787.982 151.157 786.664C150.895 785.345 151.03 783.979 151.545 782.737C152.06 781.496 152.932 780.435 154.05 779.689C155.168 778.943 156.482 778.545 157.826 778.547C159.626 778.547 161.353 779.262 162.625 780.534C163.898 781.807 164.613 783.533 164.613 785.333Z" fill="#292A29"/>
<path d="M194.346 498.06C194.348 499.404 193.95 500.718 193.204 501.837C192.458 502.955 191.397 503.827 190.156 504.342C188.914 504.857 187.548 504.992 186.229 504.73C184.911 504.468 183.7 503.821 182.749 502.87C181.799 501.92 181.152 500.709 180.89 499.39C180.628 498.072 180.763 496.706 181.278 495.464C181.793 494.222 182.665 493.161 183.783 492.415C184.901 491.669 186.216 491.272 187.56 491.273C189.359 491.275 191.084 491.991 192.357 493.263C193.629 494.535 194.345 496.261 194.346 498.06Z" fill="#311A49"/>
<path d="M767.913 592.807C767.909 594.148 767.508 595.459 766.759 596.572C766.011 597.686 764.949 598.553 763.708 599.063C762.467 599.573 761.103 599.705 759.788 599.44C758.472 599.175 757.265 598.527 756.318 597.576C755.371 596.626 754.727 595.416 754.468 594.099C754.209 592.783 754.345 591.419 754.86 590.18C755.376 588.941 756.246 587.883 757.363 587.139C758.479 586.395 759.791 585.999 761.133 586C762.025 586.001 762.909 586.178 763.733 586.52C764.557 586.863 765.305 587.365 765.935 587.997C766.565 588.629 767.063 589.38 767.403 590.205C767.742 591.03 767.916 591.914 767.913 592.807Z" fill="#311A49"/>
<path d="M605.234 226.92C605.234 228.262 604.835 229.574 604.09 230.69C603.344 231.807 602.284 232.676 601.044 233.19C599.804 233.704 598.439 233.838 597.123 233.576C595.806 233.314 594.597 232.668 593.648 231.719C592.699 230.77 592.052 229.561 591.791 228.244C591.529 226.928 591.663 225.563 592.177 224.323C592.69 223.083 593.56 222.023 594.676 221.277C595.792 220.531 597.105 220.133 598.447 220.133C600.247 220.133 601.973 220.848 603.246 222.121C604.519 223.394 605.234 225.12 605.234 226.92Z" fill="#311A49"/>
<path d="M157.286 379.573C157.286 382.06 156.549 384.491 155.167 386.559C153.786 388.626 151.822 390.238 149.525 391.19C147.227 392.141 144.699 392.39 142.26 391.905C139.821 391.42 137.581 390.222 135.822 388.464C134.064 386.706 132.866 384.465 132.381 382.026C131.896 379.587 132.145 377.059 133.097 374.762C134.048 372.464 135.66 370.501 137.728 369.119C139.795 367.737 142.226 367 144.713 367C148.048 367 151.246 368.325 153.604 370.683C155.962 373.041 157.286 376.239 157.286 379.573Z" fill="#292A29"/>
<path d="M472.087 688.253C472.087 689.595 471.689 690.907 470.944 692.023C470.198 693.139 469.139 694.009 467.899 694.523C466.659 695.037 465.295 695.171 463.979 694.91C462.662 694.649 461.453 694.003 460.504 693.055C459.554 692.106 458.908 690.898 458.645 689.581C458.382 688.265 458.516 686.901 459.028 685.661C459.541 684.421 460.41 683.36 461.525 682.614C462.64 681.867 463.952 681.468 465.294 681.467C467.094 681.467 468.821 682.181 470.095 683.454C471.369 684.727 472.085 686.453 472.087 688.253Z" fill="#311A49"/>
<path d="M725.574 418.447L667.9 405.567L657.054 426.82L725.574 418.447Z" fill="#3A214F"/>
<path d="M450.18 504.047L474.22 509.6L506.14 464.22L450.18 504.047Z" fill="#643E82"/>
<path d="M406.333 423.64L385.953 524.6L452.486 497.487L406.333 423.64Z" fill="#643E82"/>
<path d="M443.833 332.493L423.453 433.447L489.986 406.333L443.833 332.493Z" fill="#512E69"/>
<path d="M416.913 507.293L316.533 579.98L373.053 587.933L416.913 507.293Z" fill="#643E82"/>
<path d="M554.986 363.067L488.066 397.3L511.126 443.707L554.986 363.067Z" fill="#643E82"/>
<path d="M517.486 437.873L485.373 394.8L440.953 440.373L517.486 437.873Z" fill="#572D6A"/>
<path d="M379.22 483.067L306.146 557.673L381.146 529.213L379.22 483.067Z" fill="#3A214F"/>
<path d="M503.253 229.227L393.066 276.533L403.826 234.5L503.253 229.227Z" fill="#804697"/>
<path d="M838.054 455.373L749.48 464.68L794.207 418.453L838.054 455.373Z" fill="#804697"/>
<path d="M645.213 371.567L557.373 371.22L647.393 350.007L645.213 371.567Z" fill="#9957A2"/>
<path d="M581.906 440.76L482.76 501.987L536.526 444.987L581.906 440.76Z" fill="#6E2467"/>
<path d="M334.8 673.633L310.807 672.267L327.493 643.827L334.8 673.633Z" fill="#9957A2"/>
<path d="M367.54 642L327.3 667.387L341.226 637.493L367.54 642Z" fill="#9957A2"/>
<path d="M798.82 538.06L817.96 568.947L841.807 474.6L798.82 538.06Z" fill="#8763AA"/>
<path d="M815.746 568.447L862.253 516.207L830.699 612.58L815.746 568.447Z" fill="#8763AA"/>
<path d="M581.94 529.527L459.767 565.153L497.253 523.68L581.94 529.527Z" fill="#3A214F"/>
<path d="M629.02 540.173L557.486 579.98L639.926 496.493L629.02 540.173Z" fill="#3A214F"/>
<path d="M680.747 436.14L615.174 501.527L633.027 437.34L680.747 436.14Z" fill="#3A214F"/>
<path d="M551.713 582.867L414.993 649.787L450.18 578.253L551.713 582.867Z" fill="#3A214F"/>
<path d="M543.753 359.773L476.826 319.793L509.6 299.607L543.753 359.773Z" fill="#512E69"/>
<path d="M583.459 338.987L551.826 365.947L559.119 306.88L583.459 338.987Z" fill="#3A214F"/>
<path d="M576.133 286.913L551.14 326.147L565.466 272.84L576.133 286.913Z" fill="#3A214F"/>
<path d="M456.613 593.82L454.26 557.853L368.106 591.72L456.613 593.82Z" fill="#4A1035"/>
<path d="M650.16 439.367L645.153 393.6L507.293 494.027L650.16 439.367Z" fill="#4A1035"/>
<path d="M469.034 585.653L414.347 611.573L399.7 596.427L469.034 585.653Z" fill="#512E69"/>
<path d="M442.394 638.253L388.674 673.3L400.22 648.427L442.394 638.253Z" fill="#6E2467"/>
<path d="M462.007 613.44L411.174 640.127L424.047 609.587L462.007 613.44Z" fill="#6E2467"/>
<path d="M390.76 619.213L312.847 664.66L332.893 636.413L390.76 619.213Z" fill="#D3388B"/>
<path d="M396.24 644.307L330.906 668.68L383.26 622.1L396.24 644.307Z" fill="#8763AA"/>
<path d="M298.84 279.993L210.38 303.84L294.607 243.84L298.84 279.993Z" fill="#9957A2"/>
<path d="M485.733 318.44L459.986 294.993L497.826 296.087L485.733 318.44Z" fill="#8763AA"/>
<path d="M614.2 277.673L566.52 308.84L579.393 278.3L614.2 277.673Z" fill="#804697"/>
<path d="M568.587 264.42L558.973 287.693L522.007 240.62L568.587 264.42Z" fill="#3A214F"/>
<path d="M728.827 420.18L684.98 415.28L743.214 389.16L728.827 420.18Z" fill="#512E69"/>
<path d="M606.52 532.68L513.066 518.547L589.793 484.22L606.52 532.68Z" fill="#512E69"/>
<path d="M676.333 501.067L626.713 502.967L671.713 444.987L676.333 501.067Z" fill="#512E69"/>
<path d="M627.867 485.947L560.367 484.793L624.98 446.14L627.867 485.947Z" fill="#512E69"/>
<path d="M711.52 408.26L660.747 406.627L716.707 378.067L711.52 408.26Z" fill="#4A1035"/>
<path d="M678.826 385.373L661.133 418.067L659.213 352.68L678.826 385.373Z" fill="#4A1035"/>
<path d="M571.42 267.62L519.22 235.38L527.293 217.307L571.42 267.62Z" fill="#4A1035"/>
<path d="M763.44 260.38L746.706 304.227L696.26 321.227L763.44 260.38Z" fill="#4A1035"/>
<path d="M590.313 429.16L632.393 417.813L641.667 384.747L590.313 429.16Z" fill="#3A214F"/>
<path d="M674.594 368.84L704.794 369.067L700.554 331.913L674.594 368.84Z" fill="#3A214F"/>
<path d="M643.153 377.493L659.02 428.547L657.58 351.24L643.153 377.493Z" fill="#3A214F"/>
<path d="M830.36 607.1L857.474 593.253L859.78 519.407L830.36 607.1Z" fill="#3A214F"/>
<path d="M743.554 395.533L757.094 376.333L813.054 386.147L743.554 395.533Z" fill="#D3388B"/>
<path d="M439.606 545.367L471.913 598.447L536.526 578.447L439.606 545.367Z" fill="#4A1035"/>
<path d="M630.54 490.6L619.213 538.447L673.246 505.18L630.54 490.6Z" fill="#4A1035"/>
<path d="M412.98 551.92L436.547 568.527L541.334 486.527L412.98 551.92Z" fill="#3A214F"/>
<path d="M760.827 228.967L737.48 248.84L765.314 262.293L760.827 228.967Z" fill="#6E2467"/>
<path d="M340.706 575.247L313.453 598.447L384.993 589.213L340.706 575.247Z" fill="#6E2467"/>
<path d="M402.34 553.807L350.38 586.907L438.12 568.033L402.34 553.807Z" fill="#6E2467"/>
<path d="M398.833 645.367L312.687 677.673L386.787 675.027L398.833 645.367Z" fill="#512E69"/>
<path d="M833.053 484.793L856.126 503.833L818.053 565.367L833.053 484.793Z" fill="#804697"/>
<path d="M330.76 373.833L369.22 392.3L290.486 421.333L330.76 373.833Z" fill="#804697"/>
<path d="M354.707 637.96L411.767 611.187L410.354 642.953L354.707 637.96Z" fill="#804697"/>
<path d="M484.38 320.453L500.18 352.873L373.84 335.567L484.38 320.453Z" fill="#4A1035"/>
<path d="M324.326 415.9L359.22 440.373L277.3 496.527L324.326 415.9Z" fill="#873583"/>
<path d="M839.473 472.373L785.44 418.973L741.193 448.96L839.473 472.373Z" fill="#512E69"/>
<path d="M845.36 485.947L807.28 468.067L774.4 503.253L845.36 485.947Z" fill="#643E82"/>
<path d="M712.813 210.94L758.367 226.74L750.014 246.853L712.813 210.94Z" fill="#8763AA"/>
<path d="M684.98 255.767L738.667 242.073L723.9 260.833L684.98 255.767Z" fill="#6E2467"/>
<path d="M386.387 529.4L445.373 505.373L398.833 549.987L386.387 529.4Z" fill="#873583"/>
<path d="M651.72 255.987L671.133 238.073L673.06 274.613L651.72 255.987Z" fill="#8763AA"/>
<path d="M646.474 278.527L607.047 275.407L599.474 300.913L646.474 278.527Z" fill="#D3388B"/>
<path d="M464.026 221.727L390.9 219.64L384.22 237.687L464.026 221.727Z" fill="#8763AA"/>
<path d="M700.873 443.653L658.826 460.753L684.306 485.74L700.873 443.653Z" fill="#3A214F"/>
<path d="M779.014 507.867L838.254 478.68L799.234 533.453L779.014 507.867Z" fill="#9957A2"/>
<path d="M672.32 372.673L713.827 368.84L684.98 397.107L672.32 372.673Z" fill="#6E2467"/>
<path d="M518.253 240.767L556.086 282.66L512.486 310.953L518.253 240.767Z" fill="#512E69"/>
<path d="M508.067 265.187L534.6 310.187L493.174 311.76L508.067 265.187Z" fill="#643E82"/>
<path d="M601.521 332.3L646.907 346.527L560.367 366.913L601.521 332.3Z" fill="#3A214F"/>
<path d="M616.52 391.527L587.853 433.62L516.906 434.987L616.52 391.527Z" fill="#643E82"/>
<path d="M326.147 465.373L323.147 530.34L271.533 495.753L326.147 465.373Z" fill="#643E82"/>
<path d="M519.986 336.147L525.986 375.253L440.373 355.373L519.986 336.147Z" fill="#3A214F"/>
<path d="M425.373 336.913L355.76 414.607L345.76 356.147L425.373 336.913Z" fill="#8763AA"/>
<path d="M378.646 461.14L368.26 529.793L304.033 510.227L378.646 461.14Z" fill="#512E69"/>
<path d="M731.9 249.993L762.26 263.473L645.753 296.727L731.9 249.993Z" fill="#643E82"/>
<path d="M715.587 377.293L757.094 373.453L729.4 394.8L715.587 377.293Z" fill="#6E2467"/>
<path d="M516.526 334.607L553.513 337.553L529.6 392.3L516.526 334.607Z" fill="#4A1035"/>
<path d="M593.253 316.627L653.346 254.293L661.326 280.287L593.253 316.627Z" fill="#9957A2"/>
<path d="M419.986 324.607L473.353 293.14L481.333 319.127L419.986 324.607Z" fill="#9957A2"/>
<path d="M350.38 409.22L410.373 352.3L404.793 418.047L350.38 409.22Z" fill="#9957A2"/>
<path d="M327.687 380.76L375.76 331.533L391.913 361.147L327.687 380.76Z" fill="#9957A2"/>
<path d="M327.687 229.227L379.607 217.687L408.833 233.84L327.687 229.227Z" fill="#9957A2"/>
<path d="M402.007 225.72L525.753 216.533L520.24 233.093L402.007 225.72Z" fill="#9957A2"/>
<path d="M496.526 539.213L533.58 598.513L588.826 563.833L496.526 539.213Z" fill="#6E2467"/>
<path d="M683.44 306.147L665.88 366.98L709.593 320.76L683.44 306.147Z" fill="#3A214F"/>
<path d="M754.219 241.307L716.133 291.533L768.44 252.687L754.219 241.307Z" fill="#512E69"/>
<path d="M586.906 291.247L558.64 354.993L610.946 316.147L586.906 291.247Z" fill="#3A214F"/>
<path d="M516.2 284.553L544.6 355.76L562.767 287.973L516.2 284.553Z" fill="#3A214F"/>
<path d="M420.18 337.107L390.76 400.567L508.48 370.287L420.18 337.107Z" fill="#6E2467"/>
<path d="M509.514 517.24L608.494 473.087L554.614 470.22L509.514 517.24Z" fill="#3A214F"/>
<path d="M858.82 509.6L821.9 552.673L832.667 578.827L858.82 509.6Z" fill="#9957A2"/>
<path d="M713.441 213.073L675.367 252.3L739.647 236.847L713.441 213.073Z" fill="#9957A2"/>
<path d="M678.654 246.1L650.014 292.667L709.4 263.607L678.654 246.1Z" fill="#9957A2"/>
<path d="M660.367 295.38L671.134 323.84L718.441 274.227L660.367 295.38Z" fill="#3A214F"/>
<path d="M858.054 499.793L833.82 464.027L852.86 526.907L858.054 499.793Z" fill="#9957A2"/>
<path d="M549.6 373.067L616.52 413.833L645.213 371.567L549.6 373.067Z" fill="#512E69"/>
<path d="M528.453 429.84L508.833 468.833L590.22 428.873L528.453 429.84Z" fill="#512E69"/>
<path d="M545.753 371.913L527.68 436.527L626.753 375.793L545.753 371.913Z" fill="#6E2467"/>
<path d="M432.5 433.113L440.207 503.927L520.167 446.34L432.5 433.113Z" fill="#873583"/>
<path d="M758.713 396.387L816.513 461.527L816.053 391.587L758.713 396.387Z" fill="#6E2467"/>
<path d="M608.333 327.16L664.213 355.373L672.673 294.227L608.333 327.16Z" fill="#6E2467"/>
<path d="M664.213 324.227L735.36 294.607L724.98 273.453L664.213 324.227Z" fill="#6E2467"/>
<path d="M752.474 466.333L773.247 500.373L811.32 462.293L752.474 466.333Z" fill="#512E69"/>
<path d="M819.587 394.22L860.267 498.693L799.974 408.067L819.587 394.22Z" fill="#512E69"/>
<path d="M722.674 417.68L751.9 454.6L799.861 383.833L722.674 417.68Z" fill="#4A1035"/>
<path d="M594.98 536.907L527.446 537.193L555.16 562.407L594.98 536.907Z" fill="#4A1035"/>
<path d="M330.76 520.56L273.073 533.833L297.367 563.447L330.76 520.56Z" fill="#512E69"/>
<path d="M267.48 573.18L217.787 583.187L258.714 611.907L267.48 573.18Z" fill="#3A214F"/>
<path d="M660.687 243.533L708.54 213.667L693.513 248.433L660.687 243.533Z" fill="#D3388B"/>
<path d="M384.026 327.88L464.7 292.207L439.22 318.84L384.026 327.88Z" fill="#D3388B"/>
<path d="M184.807 600.753L247.687 515.367L214.227 587.48L184.807 600.753Z" fill="#D3388B"/>
<path d="M274.227 449.6L327.88 393.067L318.073 457.68L274.227 449.6Z" fill="#D3388B"/>
<path d="M313.453 598.827L323.073 575.753L343.646 572.293L313.453 598.827Z" fill="#D3388B"/>
<path d="M241.28 256.8L311.147 231.533L308.26 244.227L241.28 256.8Z" fill="#D3388B"/>
<path d="M299.033 237.3L333.58 222.927L348.067 230.573L299.033 237.3Z" fill="#D3388B"/>
<path d="M281.147 542.487L247.58 506.793L309.42 501.527L281.147 542.487Z" fill="#804697"/>
<path d="M268.46 539.6L214.227 587.48L304.593 557.307L268.46 539.6Z" fill="#6E2467"/>
<path d="M266.533 483.067L308.073 489.6L273.073 517.293L266.533 483.067Z" fill="#8763AA"/>
<path d="M210.767 586.907L260.093 503.52L266.147 543.06L210.767 586.907Z" fill="#9957A2"/>
<path d="M254.227 508.833L287.687 427.68L298.453 468.833L254.227 508.833Z" fill="#9957A2"/>
<path d="M181.54 647.287L187.693 601.133L221.153 586.907L181.54 647.287Z" fill="#8763AA"/>
<path d="M197.693 307.3L232.193 259.06L294.92 250.62L197.693 307.3Z" fill="#D3388B"/>
<path d="M697.76 331.287L671.98 371.067L705.354 373.54L755.954 373.367" stroke="white" stroke-width="0.66" stroke-miterlimit="10"/>
<path d="M757.233 243.253L724.16 280.347L691.966 299.107L652.586 352.287L645.553 377.933L578.273 442.873L478.446 509.273L405.566 554.733L344.766 582.267L313.986 600.3" stroke="white" stroke-width="0.66" stroke-miterlimit="10"/>
<path d="M758.127 290.867L723.58 280.653L686.887 249.727" stroke="white" stroke-width="0.66" stroke-miterlimit="10"/>
<path d="M747.36 237.9L686.886 249.727L639.2 297.613L596.986 327.9" stroke="white" stroke-width="0.66" stroke-miterlimit="10"/>
<path d="M547.927 368.113L596.987 327.9L652.587 352.287L671.84 371.293L654.053 429.533" stroke="white" stroke-width="0.66" stroke-miterlimit="10"/>
<path d="M639.2 297.607L691.967 299.107" stroke="white" stroke-width="0.66" stroke-miterlimit="10"/>
<path d="M698.24 331.46L691.967 299.107" stroke="white" stroke-width="0.66" stroke-miterlimit="10"/>
<path d="M321.313 570.573L356.367 591.667" stroke="white" stroke-width="0.66" stroke-miterlimit="10"/>
<path d="M232.193 259.06L330.253 231.793H517.147L563.76 281.487L547.927 368.113" stroke="white" stroke-width="0.66" stroke-miterlimit="10"/>
<path d="M757.233 243.253L740.633 214.94" stroke="white" stroke-width="0.66" stroke-miterlimit="10"/>
<path d="M514.507 454.16L578.273 442.873L559.653 477.027" stroke="white" stroke-width="0.66" stroke-miterlimit="10"/>
<path d="M671.84 371.293L706.14 366.14" stroke="white" stroke-width="0.66" stroke-miterlimit="10"/>
<path d="M637.246 271.613L639.199 297.607" stroke="white" stroke-width="0.66" stroke-miterlimit="10"/>
<path d="M686.886 249.727L637.246 271.613" stroke="white" stroke-width="0.66" stroke-miterlimit="10"/>
<path d="M596.986 327.9L637.246 271.613" stroke="white" stroke-width="0.66" stroke-miterlimit="10"/>
<path d="M757.5 373.6L747.36 388.3" stroke="white" stroke-width="0.66" stroke-miterlimit="10"/>
<path d="M804.367 400.64L819.981 384.387" stroke="white" stroke-width="0.66" stroke-miterlimit="10"/>
<path d="M527.7 215.087L517.147 231.793L368.514 290.28" stroke="white" stroke-width="0.66" stroke-miterlimit="10"/>
<path d="M330.253 231.793L334.213 221.24" stroke="white" stroke-width="0.66" stroke-miterlimit="10"/>
<path d="M563.733 281.18L569.473 264.773" stroke="white" stroke-width="0.66" stroke-miterlimit="10"/>
<path d="M527.7 215.087L563.573 281.287" stroke="white" stroke-width="0.66" stroke-miterlimit="10"/>
<path d="M330.253 231.793L527.7 215.087" stroke="white" stroke-width="0.66" stroke-miterlimit="10"/>
<path d="M757.5 373.6L804.367 400.64" stroke="white" stroke-width="0.66" stroke-miterlimit="10"/>
<path d="M654.054 429.533L679.914 401.307" stroke="white" stroke-width="0.66" stroke-miterlimit="10"/>
<path d="M747.36 388.3L678.934 402.38" stroke="white" stroke-width="0.66" stroke-miterlimit="10"/>
<path d="M672.007 371.267L678.934 402.38" stroke="white" stroke-width="0.66" stroke-miterlimit="10"/>
<path d="M596.987 327.9L556.62 336.54" stroke="white" stroke-width="0.66" stroke-miterlimit="10"/>
<path d="M504.574 294.713L476.687 300.393L435.354 301.713" stroke="white" stroke-width="0.66" stroke-miterlimit="10"/>
<path d="M189.1 306.993L330.253 231.793L472 290.867" stroke="white" stroke-width="0.66" stroke-miterlimit="10"/>
<path d="M563.76 281.487L505.113 294.78" stroke="white" stroke-width="0.66" stroke-miterlimit="10"/>
<path d="M865.127 507.22L804.367 400.64L747.36 388.307" stroke="white" stroke-width="0.66" stroke-miterlimit="10"/>
<path d="M728.587 423.967L747.36 388.3" stroke="white" stroke-width="0.66" stroke-miterlimit="10"/>
<path d="M517.147 231.793L505.113 294.78" stroke="white" stroke-width="0.66" stroke-miterlimit="10"/>
<path d="M798.873 537.413L804.366 400.64" stroke="white" stroke-width="0.66" stroke-miterlimit="10"/>
<path d="M865.087 507.68L728.587 423.967" stroke="white" stroke-width="0.66" stroke-miterlimit="10"/>
<path d="M829.073 619.793L865.127 507.22" stroke="white" stroke-width="0.66" stroke-miterlimit="10"/>
<path d="M330.254 231.793L275.86 297.373" stroke="white" stroke-width="0.66" stroke-miterlimit="10"/>
<path d="M798.873 537.413L865.126 507.22" stroke="white" stroke-width="0.66" stroke-miterlimit="10"/>
<path d="M707.993 210.247L681.026 237.807L663.14 240.587" stroke="white" stroke-width="0.66" stroke-miterlimit="10"/>
<path d="M681.026 237.807L686.886 249.727" stroke="white" stroke-width="0.66" stroke-miterlimit="10"/>
<path d="M747.36 237.9L681.026 237.807" stroke="white" stroke-width="0.66" stroke-miterlimit="10"/>
<path d="M637.246 271.613L681.026 237.807" stroke="white" stroke-width="0.66" stroke-miterlimit="10"/>
<path d="M448.12 565.253L543.533 593.407" stroke="white" stroke-width="0.66" stroke-miterlimit="10"/>
<path d="M351.334 501.813L278.894 438.173" stroke="white" stroke-width="0.66" stroke-miterlimit="10"/>
<path d="M505.114 294.78L485.78 318.133" stroke="white" stroke-width="0.66" stroke-miterlimit="10"/>
<path d="M476.693 300.393L485.78 318.133" stroke="white" stroke-width="0.66" stroke-miterlimit="10"/>
<path d="M435.354 301.713L486.807 319.3" stroke="white" stroke-width="0.66" stroke-miterlimit="10"/>
<path d="M602.746 559.107L654.053 429.533" stroke="white" stroke-width="0.66" stroke-miterlimit="10"/>
<path d="M311.566 390.713L407.493 413.82" stroke="white" stroke-width="0.66" stroke-miterlimit="10"/>
<path d="M380.913 527.56L311.566 390.713" stroke="white" stroke-width="0.66" stroke-miterlimit="10"/>
<path d="M447.514 565.073L602.747 559.107" stroke="white" stroke-width="0.66" stroke-miterlimit="10"/>
<path d="M478.446 509.273L514.506 454.16" stroke="white" stroke-width="0.66" stroke-miterlimit="10"/>
<path d="M559.653 477.027L478.446 509.273" stroke="white" stroke-width="0.66" stroke-miterlimit="10"/>
<path d="M307.354 673.933L404.134 647.353L447.667 616.567L457.74 585.807L403.694 609.973" stroke="white" stroke-width="0.66" stroke-miterlimit="10"/>
<path d="M447.667 616.567L475.814 622.433" stroke="white" stroke-width="0.66" stroke-miterlimit="10"/>
<path d="M403.693 609.973L447.667 616.567" stroke="white" stroke-width="0.66" stroke-miterlimit="10"/>
<path d="M351.814 501.653L268.694 529.94L212.407 594.58L184.9 655.733" stroke="white" stroke-width="0.66" stroke-miterlimit="10"/>
<path d="M257.7 498.72L268.694 529.94" stroke="white" stroke-width="0.66" stroke-miterlimit="10"/>
<path d="M267.48 573.18L184.52 655.64" stroke="white" stroke-width="0.66" stroke-miterlimit="10"/>
<path d="M268.693 529.94L382.22 527.073" stroke="white" stroke-width="0.66" stroke-miterlimit="10"/>
<path d="M404.133 647.353L447.513 565.073" stroke="white" stroke-width="0.66" stroke-miterlimit="10"/>
<path d="M376.474 330.987L547.927 368.113" stroke="white" stroke-width="0.66" stroke-miterlimit="10"/>
<path d="M654.054 429.533L675.78 499.48" stroke="white" stroke-width="0.66" stroke-miterlimit="10"/>
<path d="M212.406 594.58L267.233 606.713" stroke="white" stroke-width="0.66" stroke-miterlimit="10"/>
<path d="M355.273 660.807L376.847 681.673" stroke="white" stroke-width="0.66" stroke-miterlimit="10"/>
<path d="M404.133 647.353L376.847 681.673" stroke="white" stroke-width="0.66" stroke-miterlimit="10"/>
<path d="M212.406 594.58L266.933 573.473" stroke="white" stroke-width="0.66" stroke-miterlimit="10"/>
<path d="M257.7 498.72L212.406 594.58" stroke="white" stroke-width="0.66" stroke-miterlimit="10"/>
<path d="M329.026 528.453L212.406 594.58" stroke="white" stroke-width="0.66" stroke-miterlimit="10"/>
<path d="M354.26 661.533L422.5 612.52" stroke="white" stroke-width="0.66" stroke-miterlimit="10"/>
<path d="M404.133 647.353L329.467 638.54" stroke="white" stroke-width="0.66" stroke-miterlimit="10"/>
<path d="M615.86 275.967L556.707 336.7" stroke="white" stroke-width="0.66" stroke-miterlimit="10"/>
<path d="M593.36 274.96L556.62 336.54" stroke="white" stroke-width="0.66" stroke-miterlimit="10"/>
<path d="M380.913 527.56L405.566 554.733L447.6 564.687" stroke="white" stroke-width="0.66" stroke-miterlimit="10"/>
<path d="M376.474 330.987L407.494 413.82" stroke="white" stroke-width="0.66" stroke-miterlimit="10"/>
<path d="M514.507 454.16L407.493 413.82" stroke="white" stroke-width="0.66" stroke-miterlimit="10"/>
<path d="M620.1 515.493L562.826 478.013" stroke="white" stroke-width="0.66" stroke-miterlimit="10"/>
<path d="M407.493 413.82L455.993 497.513" stroke="white" stroke-width="0.66" stroke-miterlimit="10"/>
<path d="M405.326 554.467L455.993 497.513" stroke="white" stroke-width="0.66" stroke-miterlimit="10"/>
<path d="M405.566 554.733L494.94 520.793L620.1 515.493" stroke="white" stroke-width="0.66" stroke-miterlimit="10"/>
<path d="M569.133 282.42L563.58 309.04L548.847 367.247" stroke="white" stroke-width="0.66" stroke-miterlimit="10"/>
<path d="M547.926 368.113L407.493 413.82" stroke="white" stroke-width="0.66" stroke-miterlimit="10"/>
<path d="M351.333 501.813L407.493 413.82" stroke="white" stroke-width="0.66" stroke-miterlimit="10"/>
<path d="M471.167 290.64L505.147 294.467L548.574 367.927" stroke="white" stroke-width="0.66" stroke-miterlimit="10"/>
<path d="M450.36 564.967L675.78 499.48" stroke="white" stroke-width="0.66" stroke-miterlimit="10"/>
<path d="M615.507 275.887L637.247 271.613L663.14 240.587L707.86 210.34L707.993 210.247L740.633 214.94L765.607 231.56L768.407 248.36L747.36 237.9L707.993 210.247" stroke="white" stroke-width="1.31" stroke-miterlimit="10"/>
<path d="M757.1 373.54L819.98 384.387L865.127 507.22L858.387 580.513L829.073 619.793L798.873 537.413L765.747 496.373L728.587 423.967L706.527 429.533L697.147 458.847L676.333 501.067L602.753 559.107L543.533 593.413L475.813 622.433L410.287 660.987L376.427 681.213L306.947 674.613L328.06 639L403.693 609.973L396.66 594.14L359.287 592.853L338.053 598.427L313.987 600.3L315.913 582.513L323.693 571.46L300.187 562.513L266.933 573.473L266.493 607.333L184.04 657.467L180.573 612.08L200.533 572.593L257.7 498.72L278.893 438.173L311.567 390.72L375.987 330.293L435.353 301.713L469.507 290.653L368.513 290.28L270.893 297.753L189.1 306.993L232.193 259.06L334.213 221.24L527.7 215.087L569.473 264.773L569.5 281.9" stroke="white" stroke-width="1.31" stroke-miterlimit="10"/>
<path d="M768.633 249.087L758.126 290.867L697.76 331.287" stroke="white" stroke-width="1.31" stroke-miterlimit="10"/>
<path d="M697.76 331.287L706.153 366.327" stroke="white" stroke-width="1.31" stroke-miterlimit="10"/>
<path d="M757.5 373.6L705.68 365.773" stroke="white" stroke-width="1.31" stroke-miterlimit="10"/>
<path d="M568.873 282.5L592.78 274.887L616.14 275.913" stroke="white" stroke-width="1.31" stroke-miterlimit="10"/>
<path d="M654.054 429.533L559.654 477.027L495.16 521L447.514 565.073L359.287 592.853" stroke="white" stroke-width="1.31" stroke-miterlimit="10"/>
<path d="M654.053 429.533L645.553 377.933L548.106 367.92" stroke="white" stroke-width="1.31" stroke-miterlimit="10"/>
<path d="M547.133 367.48L485.733 318.44L375.986 330.293" stroke="white" stroke-width="1.31" stroke-miterlimit="10"/>
<path d="M396.66 594.14L457.74 585.807" stroke="white" stroke-width="1.31" stroke-miterlimit="10"/>
<path d="M257.88 499.24L351.96 501.747L323.693 571.46" stroke="white" stroke-width="1.31" stroke-miterlimit="10"/>
<path d="M448.22 565.393L457.533 585.48L457.813 586L475.986 622.933" stroke="white" stroke-width="1.31" stroke-miterlimit="10"/>
<path d="M547.927 368.113L652.587 352.287L654.053 429.533L697.147 458.847" stroke="white" stroke-width="1.31" stroke-miterlimit="10"/>
<path d="M706.527 429.533H654.054" stroke="white" stroke-width="1.31" stroke-miterlimit="10"/>
<path d="M548.133 368.487L514.713 454.527L456.2 497.88L382.427 527.44L323.76 572.26L316.12 582.887L343.42 583.553L338.26 598.8" stroke="white" stroke-width="1.31" stroke-miterlimit="10"/>
<path d="M351.96 501.747L380.807 528.047" stroke="white" stroke-width="1.31" stroke-miterlimit="10"/>
<path d="M684.98 238.433C684.95 239.09 684.726 239.723 684.336 240.253C683.946 240.783 683.408 241.185 682.791 241.41C682.173 241.635 681.502 241.672 680.863 241.517C680.224 241.361 679.645 241.021 679.2 240.537C678.754 240.053 678.461 239.449 678.358 238.799C678.256 238.15 678.347 237.484 678.622 236.887C678.896 236.289 679.341 235.786 679.901 235.441C680.461 235.096 681.11 234.924 681.767 234.947C682.208 234.962 682.641 235.065 683.042 235.249C683.443 235.433 683.803 235.695 684.102 236.019C684.401 236.343 684.632 236.724 684.783 237.138C684.934 237.553 685.001 237.993 684.98 238.433Z" fill="white"/>
<path d="M709.62 211.333C709.589 211.99 709.365 212.623 708.975 213.153C708.586 213.683 708.048 214.085 707.43 214.31C706.812 214.535 706.142 214.572 705.503 214.417C704.864 214.261 704.285 213.921 703.839 213.437C703.394 212.953 703.101 212.349 702.998 211.699C702.895 211.05 702.987 210.384 703.261 209.787C703.536 209.189 703.981 208.686 704.541 208.341C705.1 207.996 705.75 207.824 706.407 207.847C706.847 207.862 707.281 207.965 707.682 208.149C708.082 208.333 708.443 208.595 708.742 208.919C709.04 209.243 709.272 209.624 709.423 210.038C709.574 210.453 709.641 210.893 709.62 211.333Z" fill="white"/>
<path d="M640.667 272.507C640.636 273.164 640.412 273.797 640.022 274.326C639.633 274.856 639.095 275.259 638.477 275.484C637.859 275.709 637.188 275.746 636.549 275.59C635.91 275.435 635.332 275.094 634.886 274.61C634.44 274.127 634.148 273.522 634.045 272.873C633.942 272.223 634.034 271.558 634.308 270.96C634.583 270.362 635.028 269.859 635.587 269.514C636.147 269.169 636.796 268.997 637.454 269.02C637.894 269.035 638.328 269.138 638.728 269.322C639.129 269.506 639.489 269.768 639.788 270.092C640.087 270.417 640.319 270.797 640.47 271.211C640.62 271.626 640.687 272.066 640.667 272.507Z" fill="white"/>
<path d="M572 265.88C571.969 266.537 571.745 267.17 571.355 267.7C570.966 268.229 570.428 268.632 569.81 268.857C569.192 269.082 568.521 269.119 567.882 268.964C567.244 268.808 566.665 268.467 566.219 267.984C565.773 267.5 565.481 266.895 565.378 266.246C565.275 265.596 565.367 264.931 565.641 264.333C565.916 263.736 566.361 263.233 566.92 262.888C567.48 262.542 568.129 262.37 568.787 262.393C569.227 262.409 569.661 262.511 570.061 262.696C570.462 262.88 570.823 263.141 571.121 263.466C571.42 263.79 571.652 264.17 571.803 264.585C571.953 264.999 572.021 265.439 572 265.88Z" fill="#BBBBBC"/>
<path d="M530.34 215.613C530.311 216.271 530.088 216.904 529.699 217.435C529.31 217.966 528.773 218.369 528.155 218.595C527.537 218.821 526.866 218.859 526.226 218.704C525.587 218.55 525.007 218.209 524.561 217.726C524.115 217.243 523.821 216.638 523.718 215.988C523.615 215.338 523.706 214.673 523.98 214.075C524.255 213.477 524.7 212.973 525.26 212.628C525.82 212.282 526.469 212.11 527.127 212.133C527.567 212.149 528 212.251 528.4 212.435C528.8 212.619 529.16 212.88 529.459 213.203C529.758 213.527 529.99 213.906 530.141 214.32C530.292 214.734 530.36 215.173 530.34 215.613Z" fill="white"/>
<path d="M236.52 258.573C236.49 259.231 236.267 259.864 235.878 260.395C235.489 260.926 234.952 261.329 234.334 261.555C233.716 261.781 233.045 261.819 232.406 261.664C231.766 261.51 231.187 261.169 230.741 260.686C230.294 260.203 230.001 259.598 229.898 258.948C229.794 258.298 229.886 257.633 230.16 257.035C230.434 256.437 230.88 255.933 231.439 255.588C231.999 255.242 232.649 255.07 233.306 255.093C233.747 255.109 234.179 255.211 234.58 255.395C234.98 255.579 235.34 255.84 235.639 256.163C235.938 256.487 236.169 256.866 236.32 257.28C236.472 257.694 236.539 258.133 236.52 258.573Z" fill="white"/>
<path d="M193.56 306.573C193.529 307.23 193.305 307.863 192.915 308.393C192.525 308.923 191.988 309.325 191.37 309.55C190.752 309.775 190.081 309.812 189.442 309.657C188.803 309.501 188.224 309.161 187.779 308.677C187.333 308.193 187.04 307.589 186.938 306.939C186.835 306.29 186.926 305.624 187.201 305.027C187.475 304.429 187.92 303.926 188.48 303.581C189.04 303.236 189.689 303.064 190.346 303.087C190.787 303.102 191.22 303.205 191.621 303.389C192.022 303.573 192.382 303.835 192.681 304.159C192.98 304.483 193.211 304.864 193.362 305.278C193.513 305.693 193.58 306.133 193.56 306.573Z" fill="white"/>
<path d="M472.793 290.927C472.762 291.584 472.538 292.217 472.148 292.746C471.759 293.276 471.221 293.679 470.603 293.904C469.985 294.129 469.314 294.166 468.675 294.01C468.036 293.855 467.458 293.514 467.012 293.03C466.566 292.547 466.274 291.942 466.171 291.293C466.068 290.643 466.16 289.978 466.434 289.38C466.709 288.783 467.154 288.279 467.713 287.934C468.273 287.589 468.922 287.417 469.58 287.44C470.02 287.455 470.454 287.558 470.854 287.742C471.255 287.926 471.615 288.188 471.914 288.512C472.213 288.837 472.445 289.217 472.596 289.631C472.746 290.046 472.814 290.486 472.793 290.927Z" fill="white"/>
<path d="M380 330.173C379.969 330.83 379.745 331.463 379.355 331.993C378.966 332.523 378.428 332.925 377.81 333.15C377.192 333.375 376.521 333.412 375.882 333.257C375.244 333.101 374.665 332.761 374.219 332.277C373.773 331.793 373.481 331.189 373.378 330.539C373.275 329.89 373.367 329.224 373.641 328.627C373.916 328.029 374.361 327.526 374.92 327.181C375.48 326.836 376.129 326.664 376.787 326.687C377.227 326.702 377.661 326.805 378.061 326.989C378.462 327.173 378.822 327.435 379.121 327.759C379.42 328.083 379.652 328.464 379.803 328.878C379.953 329.293 380.021 329.733 380 330.173Z" fill="white"/>
<path d="M315.807 391.693C315.778 392.351 315.554 392.984 315.165 393.515C314.777 394.046 314.239 394.449 313.621 394.675C313.003 394.901 312.333 394.939 311.693 394.785C311.054 394.63 310.474 394.289 310.028 393.806C309.582 393.323 309.288 392.718 309.185 392.068C309.082 391.419 309.173 390.753 309.447 390.155C309.721 389.557 310.167 389.053 310.727 388.708C311.286 388.362 311.936 388.19 312.594 388.213C313.034 388.229 313.466 388.331 313.867 388.515C314.267 388.699 314.627 388.96 314.926 389.283C315.225 389.607 315.456 389.986 315.608 390.4C315.759 390.814 315.827 391.253 315.807 391.693Z" fill="white"/>
<path d="M282.526 439.333C282.496 439.99 282.271 440.623 281.882 441.153C281.492 441.683 280.954 442.085 280.336 442.31C279.719 442.535 279.048 442.572 278.409 442.417C277.77 442.261 277.191 441.921 276.745 441.437C276.3 440.953 276.007 440.349 275.904 439.699C275.801 439.05 275.893 438.384 276.167 437.787C276.442 437.189 276.887 436.686 277.447 436.341C278.006 435.996 278.656 435.824 279.313 435.847C279.754 435.862 280.187 435.965 280.588 436.149C280.989 436.333 281.349 436.595 281.648 436.919C281.947 437.243 282.178 437.624 282.329 438.038C282.48 438.453 282.547 438.893 282.526 439.333Z" fill="white"/>
<path d="M261.333 499.233C261.304 499.891 261.081 500.524 260.692 501.055C260.303 501.586 259.766 501.989 259.148 502.215C258.53 502.441 257.859 502.479 257.219 502.325C256.58 502.17 256.001 501.829 255.554 501.346C255.108 500.863 254.815 500.258 254.711 499.608C254.608 498.959 254.699 498.293 254.974 497.695C255.248 497.097 255.693 496.593 256.253 496.248C256.813 495.902 257.462 495.73 258.12 495.753C258.56 495.769 258.993 495.871 259.393 496.055C259.794 496.239 260.153 496.5 260.452 496.823C260.751 497.147 260.983 497.526 261.134 497.94C261.285 498.354 261.353 498.793 261.333 499.233Z" fill="white"/>
<path d="M183.907 612.273C183.877 612.93 183.652 613.563 183.263 614.093C182.873 614.623 182.335 615.025 181.717 615.25C181.099 615.475 180.429 615.512 179.79 615.357C179.151 615.201 178.572 614.86 178.126 614.377C177.681 613.893 177.388 613.289 177.285 612.639C177.182 611.99 177.274 611.324 177.548 610.727C177.823 610.129 178.268 609.626 178.828 609.281C179.387 608.936 180.037 608.764 180.694 608.787C181.135 608.802 181.568 608.905 181.969 609.089C182.369 609.273 182.73 609.535 183.029 609.859C183.327 610.183 183.559 610.564 183.71 610.978C183.861 611.393 183.928 611.833 183.907 612.273Z" fill="white"/>
<path d="M187.587 656.893C187.558 657.551 187.335 658.184 186.946 658.715C186.557 659.246 186.02 659.649 185.402 659.875C184.784 660.101 184.113 660.139 183.473 659.984C182.834 659.83 182.254 659.489 181.808 659.006C181.362 658.523 181.069 657.918 180.965 657.268C180.862 656.618 180.953 655.953 181.227 655.355C181.502 654.757 181.947 654.253 182.507 653.908C183.067 653.562 183.716 653.39 184.374 653.413C184.814 653.429 185.247 653.531 185.647 653.715C186.047 653.899 186.407 654.16 186.706 654.483C187.005 654.807 187.237 655.186 187.388 655.6C187.539 656.014 187.607 656.453 187.587 656.893Z" fill="white"/>
<path d="M317.434 599.333C317.403 599.99 317.179 600.623 316.789 601.153C316.399 601.683 315.862 602.086 315.244 602.31C314.626 602.535 313.955 602.572 313.316 602.417C312.677 602.262 312.098 601.921 311.653 601.437C311.207 600.953 310.914 600.349 310.812 599.699C310.709 599.05 310.8 598.384 311.075 597.787C311.349 597.189 311.794 596.686 312.354 596.341C312.914 595.996 313.563 595.824 314.22 595.847C314.661 595.862 315.094 595.965 315.495 596.149C315.896 596.333 316.256 596.595 316.555 596.919C316.854 597.243 317.085 597.624 317.236 598.038C317.387 598.453 317.454 598.893 317.434 599.333Z" fill="white"/>
<path d="M326.453 571.72C326.422 572.377 326.198 573.01 325.809 573.54C325.419 574.07 324.881 574.472 324.263 574.697C323.645 574.922 322.975 574.959 322.336 574.804C321.697 574.648 321.118 574.307 320.672 573.824C320.227 573.34 319.934 572.735 319.831 572.086C319.728 571.436 319.82 570.771 320.094 570.173C320.369 569.576 320.814 569.073 321.374 568.728C321.933 568.382 322.583 568.21 323.24 568.233C323.68 568.249 324.114 568.351 324.515 568.536C324.915 568.72 325.276 568.981 325.575 569.306C325.873 569.63 326.105 570.01 326.256 570.425C326.407 570.839 326.474 571.279 326.453 571.72Z" fill="white"/>
<path d="M332.547 639.607C332.516 640.264 332.292 640.897 331.902 641.427C331.512 641.957 330.974 642.359 330.355 642.584C329.737 642.809 329.066 642.845 328.427 642.689C327.788 642.533 327.209 642.192 326.764 641.708C326.318 641.223 326.026 640.618 325.924 639.968C325.822 639.318 325.915 638.653 326.19 638.055C326.466 637.458 326.912 636.955 327.472 636.611C328.033 636.266 328.683 636.096 329.34 636.12C329.78 636.136 330.213 636.24 330.613 636.424C331.013 636.608 331.372 636.87 331.671 637.195C331.969 637.519 332.2 637.899 332.35 638.313C332.501 638.727 332.567 639.167 332.547 639.607Z" fill="white"/>
<path d="M311.153 673.887C311.123 674.544 310.898 675.177 310.509 675.706C310.119 676.236 309.581 676.639 308.963 676.864C308.345 677.088 307.675 677.126 307.036 676.97C306.397 676.815 305.818 676.474 305.372 675.99C304.927 675.507 304.634 674.902 304.531 674.253C304.428 673.603 304.52 672.938 304.794 672.34C305.069 671.742 305.514 671.239 306.074 670.894C306.633 670.549 307.283 670.377 307.94 670.4C308.381 670.415 308.814 670.518 309.215 670.702C309.616 670.886 309.976 671.148 310.275 671.472C310.574 671.797 310.805 672.177 310.956 672.591C311.107 673.006 311.174 673.446 311.153 673.887Z" fill="white"/>
<path d="M407.413 609.713C407.382 610.37 407.158 611.003 406.768 611.533C406.379 612.063 405.841 612.465 405.223 612.69C404.605 612.915 403.935 612.952 403.296 612.797C402.657 612.641 402.078 612.301 401.632 611.817C401.187 611.333 400.894 610.729 400.791 610.079C400.688 609.43 400.78 608.764 401.054 608.167C401.329 607.569 401.774 607.066 402.333 606.721C402.893 606.376 403.542 606.204 404.2 606.227C404.64 606.242 405.074 606.345 405.475 606.529C405.875 606.713 406.236 606.975 406.534 607.299C406.833 607.623 407.065 608.004 407.216 608.418C407.367 608.833 407.434 609.273 407.413 609.713Z" fill="#89898A"/>
<path d="M605.767 559.853C605.737 560.511 605.514 561.144 605.125 561.675C604.736 562.206 604.199 562.609 603.581 562.835C602.963 563.061 602.292 563.099 601.653 562.944C601.014 562.79 600.434 562.449 599.988 561.966C599.542 561.483 599.248 560.878 599.145 560.228C599.042 559.578 599.133 558.913 599.407 558.315C599.681 557.717 600.127 557.213 600.687 556.868C601.246 556.522 601.896 556.35 602.554 556.373C602.994 556.389 603.426 556.491 603.827 556.675C604.227 556.859 604.587 557.12 604.886 557.443C605.185 557.767 605.416 558.146 605.567 558.56C605.719 558.974 605.786 559.413 605.767 559.853Z" fill="#89898A"/>
<path d="M678.667 500.987C678.636 501.644 678.412 502.277 678.022 502.806C677.633 503.336 677.095 503.739 676.477 503.964C675.859 504.189 675.188 504.226 674.549 504.07C673.911 503.915 673.332 503.574 672.886 503.09C672.44 502.607 672.148 502.002 672.045 501.353C671.942 500.703 672.034 500.038 672.308 499.44C672.583 498.842 673.028 498.339 673.587 497.994C674.147 497.649 674.796 497.477 675.454 497.5C675.894 497.515 676.328 497.618 676.728 497.802C677.129 497.986 677.49 498.248 677.788 498.572C678.087 498.897 678.319 499.277 678.47 499.691C678.62 500.106 678.688 500.546 678.667 500.987Z" fill="#BBBBBC"/>
<path d="M709.72 430.187C709.689 430.844 709.465 431.477 709.075 432.006C708.685 432.536 708.148 432.939 707.53 433.164C706.912 433.389 706.241 433.426 705.602 433.27C704.963 433.115 704.384 432.774 703.939 432.29C703.493 431.807 703.201 431.202 703.098 430.553C702.995 429.903 703.086 429.238 703.361 428.64C703.635 428.043 704.08 427.539 704.64 427.194C705.2 426.849 705.849 426.677 706.506 426.7C706.947 426.715 707.38 426.818 707.781 427.002C708.182 427.186 708.542 427.448 708.841 427.772C709.14 428.097 709.372 428.477 709.522 428.891C709.673 429.306 709.74 429.746 709.72 430.187Z" fill="#89898A"/>
<path d="M709.567 364.813C709.537 365.471 709.314 366.104 708.925 366.635C708.536 367.166 707.999 367.569 707.381 367.795C706.763 368.021 706.092 368.059 705.453 367.905C704.813 367.75 704.234 367.409 703.788 366.926C703.341 366.443 703.048 365.838 702.945 365.188C702.841 364.539 702.933 363.873 703.207 363.275C703.481 362.677 703.926 362.173 704.486 361.828C705.046 361.482 705.696 361.31 706.353 361.333C706.794 361.349 707.226 361.451 707.627 361.635C708.027 361.819 708.387 362.08 708.686 362.403C708.985 362.727 709.216 363.106 709.367 363.52C709.519 363.934 709.586 364.373 709.567 364.813Z" fill="#BBBBBC"/>
<path d="M823.06 385.333C823.03 385.991 822.807 386.624 822.418 387.155C822.029 387.686 821.492 388.089 820.874 388.315C820.256 388.541 819.585 388.579 818.946 388.425C818.306 388.27 817.727 387.929 817.281 387.446C816.834 386.963 816.541 386.358 816.438 385.708C816.335 385.058 816.426 384.393 816.7 383.795C816.974 383.197 817.42 382.693 817.979 382.348C818.539 382.002 819.189 381.83 819.846 381.853C820.287 381.869 820.719 381.971 821.12 382.155C821.52 382.339 821.88 382.6 822.179 382.923C822.478 383.247 822.709 383.627 822.86 384.04C823.012 384.454 823.079 384.893 823.06 385.333Z" fill="white"/>
<path d="M832.5 618.613C832.469 619.27 832.245 619.903 831.855 620.433C831.466 620.963 830.928 621.366 830.31 621.59C829.692 621.815 829.021 621.852 828.382 621.697C827.743 621.541 827.165 621.201 826.719 620.717C826.273 620.233 825.981 619.629 825.878 618.979C825.775 618.33 825.867 617.664 826.141 617.067C826.416 616.469 826.861 615.966 827.42 615.621C827.98 615.276 828.629 615.104 829.287 615.127C829.727 615.142 830.161 615.245 830.561 615.429C830.962 615.613 831.322 615.875 831.621 616.199C831.92 616.523 832.152 616.904 832.303 617.318C832.453 617.733 832.52 618.173 832.5 618.613Z" fill="white"/>
<path d="M802.44 536.94C802.41 537.597 802.185 538.231 801.795 538.76C801.405 539.29 800.867 539.693 800.249 539.917C799.631 540.142 798.96 540.179 798.32 540.023C797.681 539.867 797.103 539.525 796.657 539.041C796.212 538.557 795.92 537.951 795.818 537.302C795.716 536.652 795.808 535.986 796.084 535.389C796.359 534.791 796.805 534.289 797.366 533.944C797.926 533.6 798.576 533.429 799.234 533.453C799.674 533.47 800.107 533.573 800.507 533.757C800.907 533.942 801.266 534.204 801.564 534.528C801.862 534.852 802.093 535.232 802.244 535.646C802.394 536.06 802.461 536.5 802.44 536.94Z" fill="white"/>
<path d="M867.854 506.887C867.823 507.544 867.599 508.177 867.209 508.706C866.819 509.236 866.282 509.639 865.664 509.864C865.046 510.089 864.375 510.126 863.736 509.97C863.097 509.815 862.518 509.474 862.073 508.99C861.627 508.507 861.334 507.902 861.231 507.253C861.129 506.603 861.22 505.938 861.495 505.34C861.769 504.742 862.214 504.239 862.774 503.894C863.334 503.549 863.983 503.377 864.64 503.4C865.081 503.415 865.514 503.518 865.915 503.702C866.316 503.886 866.676 504.148 866.975 504.472C867.274 504.797 867.505 505.177 867.656 505.591C867.807 506.006 867.874 506.446 867.854 506.887Z" fill="#89898A"/>
<path d="M771.92 248C771.891 248.657 771.668 249.291 771.279 249.822C770.89 250.352 770.353 250.756 769.735 250.982C769.117 251.208 768.446 251.246 767.806 251.091C767.167 250.936 766.588 250.596 766.141 250.113C765.695 249.629 765.402 249.025 765.298 248.375C765.195 247.725 765.286 247.059 765.56 246.461C765.835 245.863 766.28 245.36 766.84 245.014C767.4 244.669 768.049 244.497 768.707 244.52C769.147 244.535 769.58 244.638 769.98 244.822C770.38 245.005 770.74 245.266 771.039 245.59C771.338 245.914 771.57 246.293 771.721 246.707C771.872 247.12 771.94 247.56 771.92 248Z" fill="#BBBBBC"/>
<path d="M550.8 367.333C550.769 367.99 550.545 368.624 550.155 369.154C549.765 369.684 549.227 370.086 548.608 370.311C547.99 370.535 547.319 370.572 546.68 370.416C546.041 370.26 545.462 369.918 545.017 369.434C544.571 368.95 544.279 368.345 544.177 367.695C544.075 367.045 544.168 366.379 544.443 365.782C544.719 365.184 545.165 364.682 545.725 364.338C546.286 363.993 546.936 363.822 547.593 363.847C548.033 363.863 548.466 363.966 548.866 364.151C549.266 364.335 549.625 364.597 549.924 364.921C550.222 365.245 550.453 365.626 550.603 366.04C550.753 366.454 550.82 366.893 550.8 367.333Z" fill="#89898A"/>
<path d="M648.033 378.667C648.002 379.324 647.778 379.957 647.388 380.487C646.998 381.017 646.46 381.419 645.842 381.644C645.223 381.869 644.552 381.905 643.913 381.749C643.274 381.593 642.695 381.252 642.25 380.767C641.805 380.283 641.513 379.678 641.41 379.028C641.308 378.378 641.401 377.713 641.676 377.115C641.952 376.518 642.398 376.015 642.959 375.671C643.519 375.327 644.169 375.156 644.826 375.18C645.267 375.196 645.699 375.3 646.099 375.484C646.499 375.668 646.859 375.93 647.157 376.255C647.455 376.579 647.686 376.959 647.836 377.373C647.987 377.787 648.054 378.227 648.033 378.667Z" fill="#BBBBBC"/>
<path d="M657.934 429.22C657.903 429.877 657.678 430.511 657.288 431.04C656.898 431.57 656.36 431.973 655.742 432.197C655.124 432.422 654.453 432.459 653.814 432.303C653.174 432.147 652.596 431.805 652.15 431.321C651.705 430.837 651.413 430.231 651.311 429.582C651.209 428.932 651.301 428.266 651.577 427.669C651.852 427.071 652.298 426.569 652.859 426.224C653.42 425.88 654.069 425.709 654.727 425.733C655.167 425.75 655.6 425.853 656 426.037C656.4 426.222 656.759 426.484 657.057 426.808C657.356 427.132 657.586 427.512 657.737 427.926C657.887 428.34 657.954 428.78 657.934 429.22Z" fill="#89898A"/>
<path d="M478.666 622.313C478.637 622.971 478.414 623.604 478.025 624.135C477.636 624.666 477.099 625.069 476.481 625.295C475.863 625.521 475.192 625.559 474.552 625.404C473.913 625.25 473.334 624.909 472.887 624.426C472.441 623.943 472.148 623.338 472.044 622.688C471.941 622.039 472.032 621.373 472.307 620.775C472.581 620.177 473.026 619.673 473.586 619.328C474.146 618.982 474.795 618.81 475.453 618.833C475.893 618.849 476.326 618.951 476.726 619.135C477.126 619.319 477.486 619.58 477.785 619.903C478.084 620.227 478.316 620.607 478.467 621.02C478.618 621.434 478.686 621.873 478.666 622.313Z" fill="#BBBBBC"/>
<path d="M360.96 592.453C360.929 593.11 360.705 593.743 360.315 594.273C359.926 594.803 359.388 595.205 358.77 595.43C358.152 595.655 357.481 595.692 356.842 595.537C356.203 595.381 355.625 595.041 355.179 594.557C354.733 594.073 354.441 593.469 354.338 592.819C354.235 592.17 354.327 591.504 354.601 590.907C354.876 590.309 355.321 589.806 355.88 589.461C356.44 589.116 357.089 588.944 357.747 588.967C358.187 588.982 358.621 589.085 359.021 589.269C359.422 589.453 359.782 589.715 360.081 590.039C360.38 590.363 360.612 590.744 360.763 591.158C360.913 591.573 360.98 592.013 360.96 592.453Z" fill="#BBBBBC"/>
<path d="M346.113 583.44C346.083 584.097 345.858 584.73 345.469 585.26C345.079 585.789 344.541 586.192 343.923 586.417C343.305 586.642 342.635 586.679 341.996 586.523C341.357 586.368 340.778 586.027 340.332 585.544C339.887 585.06 339.594 584.455 339.491 583.806C339.388 583.156 339.48 582.491 339.754 581.893C340.029 581.296 340.474 580.793 341.034 580.448C341.593 580.102 342.243 579.93 342.9 579.953C343.341 579.969 343.774 580.071 344.175 580.255C344.575 580.44 344.936 580.701 345.235 581.026C345.534 581.35 345.765 581.73 345.916 582.145C346.067 582.559 346.134 582.999 346.113 583.44Z" fill="#89898A"/>
<path d="M483.333 508.127C483.302 508.784 483.078 509.417 482.688 509.946C482.299 510.476 481.761 510.879 481.143 511.104C480.525 511.329 479.854 511.366 479.216 511.21C478.577 511.055 477.998 510.714 477.552 510.23C477.106 509.747 476.814 509.142 476.711 508.493C476.608 507.843 476.7 507.178 476.974 506.58C477.249 505.983 477.694 505.479 478.253 505.134C478.813 504.789 479.462 504.617 480.12 504.64C480.56 504.655 480.994 504.758 481.395 504.942C481.795 505.126 482.156 505.388 482.454 505.712C482.753 506.037 482.985 506.417 483.136 506.832C483.286 507.246 483.354 507.686 483.333 508.127Z" fill="white"/>
<path d="M409.047 554.093C409.016 554.75 408.792 555.383 408.402 555.913C408.013 556.443 407.475 556.845 406.857 557.07C406.239 557.295 405.568 557.332 404.929 557.177C404.29 557.021 403.712 556.68 403.266 556.197C402.82 555.713 402.528 555.109 402.425 554.459C402.322 553.81 402.414 553.144 402.688 552.547C402.962 551.949 403.408 551.446 403.967 551.101C404.527 550.756 405.176 550.584 405.833 550.607C406.274 550.622 406.708 550.725 407.108 550.909C407.509 551.093 407.869 551.355 408.168 551.679C408.467 552.003 408.699 552.384 408.849 552.798C409 553.212 409.067 553.653 409.047 554.093Z" fill="white"/>
<path d="M581.767 443.6C581.736 444.257 581.512 444.89 581.122 445.42C580.732 445.95 580.195 446.352 579.577 446.577C578.959 446.802 578.288 446.839 577.649 446.684C577.01 446.528 576.431 446.187 575.986 445.704C575.54 445.22 575.247 444.615 575.145 443.966C575.042 443.316 575.133 442.651 575.408 442.053C575.682 441.456 576.127 440.953 576.687 440.608C577.247 440.262 577.896 440.09 578.553 440.113C578.994 440.129 579.427 440.231 579.828 440.416C580.229 440.6 580.589 440.861 580.888 441.186C581.187 441.51 581.418 441.89 581.569 442.305C581.72 442.719 581.787 443.159 581.767 443.6Z" fill="white"/>
<path d="M564.2 477.68C564.171 478.337 563.948 478.971 563.559 479.502C563.17 480.032 562.633 480.436 562.015 480.662C561.397 480.888 560.726 480.926 560.087 480.771C559.447 480.617 558.868 480.276 558.421 479.793C557.975 479.309 557.682 478.705 557.578 478.055C557.475 477.405 557.566 476.739 557.841 476.141C558.115 475.543 558.56 475.04 559.12 474.695C559.68 474.349 560.33 474.177 560.987 474.2C561.427 474.215 561.86 474.318 562.26 474.502C562.661 474.685 563.021 474.946 563.319 475.27C563.618 475.594 563.85 475.973 564.001 476.387C564.152 476.8 564.22 477.24 564.2 477.68Z" fill="#BBBBBC"/>
<path d="M516.82 454C516.79 454.657 516.565 455.29 516.176 455.82C515.786 456.35 515.248 456.752 514.63 456.977C514.012 457.202 513.342 457.239 512.703 457.084C512.064 456.928 511.485 456.587 511.039 456.104C510.594 455.62 510.301 455.015 510.198 454.366C510.095 453.716 510.187 453.051 510.461 452.453C510.736 451.856 511.181 451.353 511.741 451.008C512.3 450.662 512.95 450.49 513.607 450.513C514.048 450.529 514.481 450.631 514.882 450.815C515.283 451 515.643 451.261 515.942 451.586C516.241 451.91 516.472 452.29 516.623 452.705C516.774 453.119 516.841 453.559 516.82 454Z" fill="white"/>
<path d="M451.286 565.533C451.257 566.191 451.034 566.824 450.645 567.355C450.256 567.886 449.719 568.29 449.101 568.515C448.483 568.741 447.812 568.779 447.173 568.625C446.533 568.47 445.954 568.129 445.507 567.646C445.061 567.163 444.768 566.558 444.664 565.908C444.561 565.258 444.652 564.593 444.927 563.995C445.201 563.397 445.646 562.893 446.206 562.548C446.766 562.202 447.416 562.03 448.073 562.053C448.513 562.069 448.946 562.171 449.346 562.355C449.747 562.539 450.107 562.8 450.405 563.123C450.704 563.447 450.936 563.826 451.087 564.24C451.238 564.654 451.306 565.093 451.286 565.533Z" fill="#BBBBBC"/>
<path d="M383.8 527.62C383.769 528.277 383.545 528.91 383.155 529.44C382.766 529.97 382.228 530.372 381.61 530.597C380.992 530.822 380.321 530.859 379.682 530.704C379.043 530.548 378.465 530.207 378.019 529.724C377.573 529.24 377.281 528.635 377.178 527.986C377.075 527.336 377.166 526.671 377.441 526.073C377.715 525.476 378.16 524.973 378.72 524.628C379.28 524.282 379.929 524.11 380.586 524.133C381.027 524.149 381.461 524.251 381.861 524.435C382.262 524.62 382.622 524.881 382.921 525.206C383.22 525.53 383.452 525.91 383.602 526.325C383.753 526.739 383.82 527.179 383.8 527.62Z" fill="white"/>
<path d="M300.187 562.513L352.007 501.313" stroke="white" stroke-width="1.2" stroke-linejoin="round"/>
</g>
<defs>
<clipPath id="clip0">
<rect width="1000" height="1000" fill="white"/>
</clipPath>
</defs>
</svg>
