<svg width="1000" height="1000" viewBox="0 0 1000 1000" fill="none" xmlns="http://www.w3.org/2000/svg">
<g clip-path="url(#clip0)">
<path d="M1003.33 -1.72668H-2.01953V1001.78H1003.33V-1.72668Z" fill="black"/>
<path d="M737.333 385.607L772.76 399.1L722.26 494.633L737.333 385.607Z" fill="#643E81"/>
<path d="M369.96 577.053L426.353 620.78L310.46 658.047L369.96 577.053Z" fill="#572D6A"/>
<path d="M781.2 712.687L788.147 742.06L705.82 742.287L781.2 712.687Z" fill="#39214F"/>
<path d="M478.953 647.56L530.753 625.86L515.593 677.947L478.953 647.56Z" fill="#8663AA"/>
<path d="M462.326 673.513L551.919 679.74L598.346 633.56L462.326 673.513Z" fill="#643E81"/>
<path d="M166.087 708.493L230.954 677.947L241.534 715.173L166.087 708.493Z" fill="#572D6A"/>
<path d="M94.6201 721.66L163.3 686.007L200.46 721.913L94.6201 721.66Z" fill="#643E81"/>
<path d="M193.12 694.08L264.107 677.98L295.413 727.633L193.12 694.08Z" fill="#643E81"/>
<path d="M373.633 576.113L469.566 550.16L479.073 631.3L373.633 576.113Z" fill="#7D4F9A"/>
<path d="M270.333 723.6L333.3 650L353.366 719.987L270.333 723.6Z" fill="#643E81"/>
<path d="M175.813 665.953L93.0596 706.853L185.246 688.24L178.1 665.78" fill="#D3398B"/>
<path d="M411.033 577.053L356.84 584.6L391.06 606.993L411.033 577.053Z" fill="#D3398B"/>
<path d="M336.106 706.407C337.44 706.407 382.033 696.56 382.033 696.56L379.046 723.6L336.106 706.407Z" fill="#39214F"/>
<path d="M541.207 692.227L576.293 707.92L522.54 736.153L541.207 692.227Z" fill="#39214F"/>
<path d="M606.566 613.027L676.06 596.287L647.073 635.333L606.566 613.027Z" fill="#39214F"/>
<path d="M520.74 652.053L584.647 686.8L575.22 635.333L520.74 652.053Z" fill="#8663AA"/>
<path d="M622.287 660.247L647.074 718.033L679.467 675.427L622.287 660.247Z" fill="#8663AA"/>
<path d="M796.94 715.173C792.94 716.18 748.387 737.84 748.387 737.84L700.98 682.787L796.94 715.173Z" fill="#8663AA"/>
<path d="M770 709.087L795.714 727.487L746.247 744.12L770 709.087Z" fill="#D3398B"/>
<path d="M753.067 721.913V745.873L631.273 726.6L753.067 721.913Z" fill="#9857A2"/>
<path d="M579.24 695.933L635.3 677.947L662.287 740.227L579.24 695.933Z" fill="#873582"/>
<path d="M456.833 671.513C460 667.213 470.553 644.667 470.553 644.667L509.733 661.727L456.833 671.513Z" fill="#D3398B"/>
<path d="M445.007 767.033L483.28 759.833L458.007 802.433L445.007 767.033Z" fill="#61174C"/>
<path d="M452.04 775.7L450.514 800.073L474.14 798.493L452.04 775.7Z" fill="#873582"/>
<path d="M464.973 768.067L462.326 806.207L483.28 783.78L464.973 768.067Z" fill="#643E81"/>
<path d="M483.28 762.927L478.953 792.807L506.74 799.22L483.28 762.927Z" fill="#572D6A"/>
<path d="M468.526 808.04L492.4 787.88L502.953 821.287L468.526 808.04Z" fill="#9857A2"/>
<path d="M492.854 800.053L512.394 803.147L504.854 817.107L492.854 800.053Z" fill="#572D6A"/>
<path d="M506.74 825.633L510.214 803.647L518.834 813.613L506.74 825.633Z" fill="#8663AA"/>
<path d="M625.68 585.313L683.013 590.733L725.446 498.427L625.68 585.313Z" fill="#39214F"/>
<path d="M723.627 466.987L737.334 504.013L761.674 455.567L723.627 466.987Z" fill="#39214F"/>
<path d="M778.986 389.647L742.646 466.987L793.413 399.593L778.986 389.647Z" fill="#39214F"/>
<path d="M700.98 498.427L733.24 504.013L714.394 534.7L700.98 498.427Z" fill="#643E81"/>
<path d="M565.113 628.993L606.567 622.993L617.62 706.407L565.113 628.993Z" fill="#8663AA"/>
<path d="M740.507 385.607L789.813 389.64L796.94 333.473L740.507 385.607Z" fill="#643E81"/>
<path d="M757.62 414.38L776.693 431.433L782.68 359.267L757.62 414.38Z" fill="#873582"/>
<path d="M774.62 297.58L801.52 305.647L800.973 360.74L774.62 297.58Z" fill="#39214F"/>
<path d="M639.333 704.753L675.566 696.56L726.98 744.12L639.333 704.753Z" fill="#804696"/>
<path d="M668.32 662.573L692.96 675.333L668.32 704.753V662.573Z" fill="#8663AA"/>
<path d="M621.193 633.56L648.119 655.44L574.133 695.84L621.193 633.56Z" fill="#9857A2"/>
<path d="M174.587 729.913L237.6 719.3L228.367 752.667L174.587 729.913Z" fill="#39214F"/>
<path d="M105.406 733.32L168.373 710.76L197.166 749.073L105.406 733.32Z" fill="#6E2467"/>
<path d="M302.993 723.6L379.2 726.52L329.053 771.807L302.993 723.6Z" fill="#39214F"/>
<path d="M227.42 729.913L297.307 709.487L301.1 767.033L227.42 729.913Z" fill="#491135"/>
<path d="M250.413 715.833L268.906 731.827L337.886 709.487L250.413 715.833Z" fill="#872269"/>
<path d="M524.007 683.933L527.867 738.827L394.82 767.033L524.007 683.933Z" fill="#39214F"/>
<path d="M337.887 749.073L350.38 775.7L440.94 747.833L337.887 749.073Z" fill="#61174C"/>
<path d="M430.66 671.673L466.787 681.98L450.514 744.033L430.66 671.673Z" fill="#572D6A"/>
<path d="M359.073 707.853L351.333 733.98L389.413 755.8L359.073 707.853Z" fill="#572D6A"/>
<path d="M440.94 664.7L365.54 675.873L393.027 745.873L440.94 664.7Z" fill="#39214F"/>
<path d="M370.367 738.26L436.594 701.34L444.407 745.873L370.367 738.26Z" fill="#39214F"/>
<path d="M661.526 681.98L714.393 683.933L729.12 731.653L661.526 681.98Z" fill="#9857A2"/>
<path d="M533.6 625.86L639.333 642.007L578.453 614.627L533.6 625.86Z" fill="#B73691"/>
<path d="M518.12 639.22L561.393 686.007L565.113 624.447L518.12 639.22Z" fill="#9857A2"/>
<path d="M157.413 667.42L193.88 702.807L244.266 637.46L157.413 667.42Z" fill="#8663AA"/>
<path d="M227.42 637.72L278.44 633.56L219.54 693.853L227.42 637.72Z" fill="#804696"/>
<path d="M237.6 667.42L253.593 694.08L311.846 680.58L237.6 667.42Z" fill="#9857A2"/>
<path d="M438.446 597.067L457.093 646.847L351.333 655.727L438.446 597.067Z" fill="#9857A2"/>
<path d="M391.06 675.427L318.2 680.573L404.467 637.46L391.06 675.427Z" fill="#8663AA"/>
<path d="M434.42 605.747L474.847 625.86L422.127 696.56L434.42 605.747Z" fill="#643E81"/>
<path d="M262.96 628.32L250.94 667.42L324.167 675.873L262.96 628.32Z" fill="#8663AA"/>
<path d="M272.934 628.32L333.3 596.287L365.54 639.027L272.934 628.32Z" fill="#8663AA"/>
<path d="M370.367 715.173L391.061 695.933L433.494 702.807L370.367 715.173Z" fill="#D3398B"/>
<path d="M382.027 698.9L373.633 678.993L349.427 691.133L382.027 698.9Z" fill="#8663AA"/>
<path d="M467.6 579.76L490.386 636.213L627.96 596.273L467.6 579.76Z" fill="#643E81"/>
<path d="M683.16 441.04L741.147 428.84L705.007 518.213L683.16 441.04Z" fill="#8663AA"/>
<path d="M493.42 562.873L518.833 597.067L541.36 559.893L493.42 562.873Z" fill="#9857A2"/>
<path d="M466.453 693.453L488.42 729.5L531.72 703.253L466.453 693.453Z" fill="#572D6A"/>
<path d="M631.273 452.387L687.753 490.433L545.387 599.26L631.273 452.387Z" fill="#9857A2"/>
<path d="M611.127 477.36L567.894 512.707L594.387 587.293L611.127 477.36Z" fill="#8663AA"/>
<path d="M692.173 516.567L627.96 504.913L620.767 602.32L692.173 516.567Z" fill="#572D6A"/>
<path d="M652.84 451.693V486.367L709.04 482.107L652.84 451.693Z" fill="#804696"/>
<path d="M582.34 518.213L522.32 529.52L541.62 605.72L582.34 518.213Z" fill="#D3398B"/>
<path d="M452.467 550.16L479.073 577.053L571.927 536.94L452.467 550.16Z" fill="#8663AA"/>
<path d="M778.647 287.747L801.52 284.353L747.514 424.607L778.647 287.747Z" fill="#9857A2"/>
<path d="M911.44 180.253L909.74 205.853L876.493 219.12L911.44 180.253Z" fill="#D3398B"/>
<path d="M762.42 186.427L800.973 214.38L793.413 291.78L762.42 186.427Z" fill="#643E81"/>
<path d="M790.727 231.913L863.073 228.96L805.8 263.187L790.727 231.913Z" fill="#572D6A"/>
<path d="M893.973 217.28L887.24 241.393L809.58 252.767L893.973 217.28Z" fill="#491135"/>
<path d="M814.247 239.1L789.813 295.807L846.487 263.187L814.247 239.1Z" fill="#572D6A"/>
<path d="M470.554 637.267L492.4 678.993" stroke="white" stroke-width="1.42" stroke-miterlimit="10"/>
<path d="M807.254 714.42L784.121 750.44L651.88 740.973L545.387 681.98L492.4 678.993L448.674 675.427L470.554 637.267L571.927 609.753L635.3 631.3L657.614 653.18L724.547 687.113L806.347 714.507L781.201 745.227L651.027 734.693L600.994 702.2L544.62 668.693L470.554 637.267" stroke="white" stroke-width="1.42" stroke-miterlimit="10"/>
<path d="M440.939 764.42L450.119 803.647L510.213 829.973L520.739 813.927L489.006 767.033L489.693 755.633" stroke="white" stroke-width="1.42" stroke-miterlimit="10"/>
<path d="M588.514 705.867L555.014 726.873L489.693 755.633L440.94 764.42L389.06 773.313L370.474 781.493L181.574 749.907L120.027 744.033L84.2002 727.467L94.2002 698.34L198.02 647.56L258.834 625.86L332.187 592.293L390.9 565.813L446.88 547.507L561.394 512.707L633.36 443.92L705.153 431.373L752.42 359.267L779.187 275.627L790.547 207.453L805.8 293.167L800.973 389.64L722.26 545.373L646.22 642.007" stroke="white" stroke-width="1.42" stroke-miterlimit="10"/>
<path d="M805.553 291.78L889.547 246.393L915.153 198.793L840.827 229.193L822.94 225.98L790.72 203.173L757.62 179.313L778.647 277.3L805.553 291.78Z" stroke="white" stroke-width="1.42" stroke-miterlimit="10"/>
<path d="M884 211.133L913.767 174.053L915.153 198.793" stroke="white" stroke-width="1.42" stroke-miterlimit="10"/>
<path d="M84.2002 727.467L111.954 715.013L252.54 709.087L390.78 694.08L448.674 675.427" stroke="white" stroke-width="1.42" stroke-miterlimit="10"/>
<path d="M544.62 668.693L545.387 681.98" stroke="white" stroke-width="0.71" stroke-miterlimit="10"/>
<path d="M651.026 734.693L651.88 740.973" stroke="white" stroke-width="0.71" stroke-miterlimit="10"/>
<path d="M790.72 203.173L765.767 217.28" stroke="white" stroke-width="0.71" stroke-miterlimit="10"/>
<path d="M822.94 225.98L805.554 291.78" stroke="white" stroke-width="0.71" stroke-miterlimit="10"/>
<path d="M840.826 229.193L889.546 246.393" stroke="white" stroke-width="0.71" stroke-miterlimit="10"/>
<path d="M752.42 359.267L722.26 545.373" stroke="white" stroke-width="0.71" stroke-miterlimit="10"/>
<path d="M752.42 359.267L800.973 389.64" stroke="white" stroke-width="0.71" stroke-miterlimit="10"/>
<path d="M705.16 431.373L723.627 536.94" stroke="white" stroke-width="0.71" stroke-miterlimit="10"/>
<path d="M633.36 443.92L723.627 536.94" stroke="white" stroke-width="0.71" stroke-miterlimit="10"/>
<path d="M561.394 512.707L635.3 631.3" stroke="white" stroke-width="0.71" stroke-miterlimit="10"/>
<path d="M561.394 512.707L705.16 431.373" stroke="white" stroke-width="0.71" stroke-miterlimit="10"/>
<path d="M705.16 431.373L800.973 389.64" stroke="white" stroke-width="0.71" stroke-miterlimit="10"/>
<path d="M800.973 389.64L778.646 277.3" stroke="white" stroke-width="0.71" stroke-miterlimit="10"/>
<path d="M805.553 291.78L752.42 359.267" stroke="white" stroke-width="0.71" stroke-miterlimit="10"/>
<path d="M450.12 803.647L489.007 767.033" stroke="white" stroke-width="0.71" stroke-miterlimit="10"/>
<path d="M490.387 821.287L507.787 794.787" stroke="white" stroke-width="0.71" stroke-miterlimit="10"/>
<path d="M510.214 829.973L507.787 794.787" stroke="white" stroke-width="0.71" stroke-miterlimit="10"/>
<path d="M507.787 794.787L450.12 803.647" stroke="white" stroke-width="0.71" stroke-miterlimit="10"/>
<path d="M489.007 767.033L490.387 821.287" stroke="white" stroke-width="0.71" stroke-miterlimit="10"/>
<path d="M489.006 767.033L440.939 764.42" stroke="white" stroke-width="0.71" stroke-miterlimit="10"/>
<path d="M544.62 668.693L571.927 609.753" stroke="white" stroke-width="0.71" stroke-miterlimit="10"/>
<path d="M544.62 668.693L635.3 631.3" stroke="white" stroke-width="0.71" stroke-miterlimit="10"/>
<path d="M646.22 642.007L544.62 668.693" stroke="white" stroke-width="0.71" stroke-miterlimit="10"/>
<path d="M651.026 734.693L724.546 687.113" stroke="white" stroke-width="0.71" stroke-miterlimit="10"/>
<path d="M657.62 653.18L586.946 693.853" stroke="white" stroke-width="0.71" stroke-miterlimit="10"/>
<path d="M733.693 741.387L758.807 698.587" stroke="white" stroke-width="0.71" stroke-miterlimit="10"/>
<path d="M781.2 745.227L758.807 698.587" stroke="white" stroke-width="0.71" stroke-miterlimit="10"/>
<path d="M758.806 698.587L652.84 733.98" stroke="white" stroke-width="0.71" stroke-miterlimit="10"/>
<path d="M652.84 733.98L657.62 653.18" stroke="white" stroke-width="0.71" stroke-miterlimit="10"/>
<path d="M635.3 631.3L586.946 693.853" stroke="white" stroke-width="0.71" stroke-miterlimit="10"/>
<path d="M586.946 693.853L724.546 687.113" stroke="white" stroke-width="0.71" stroke-miterlimit="10"/>
<path d="M724.547 687.113L733.694 741.387" stroke="white" stroke-width="0.71" stroke-miterlimit="10"/>
<path d="M470.554 637.267L390.78 694.08" stroke="white" stroke-width="0.71" stroke-miterlimit="10"/>
<path d="M94.2002 698.34L111.954 715.013" stroke="white" stroke-width="0.71" stroke-miterlimit="10"/>
<path d="M571.927 609.753L561.394 512.707" stroke="white" stroke-width="0.71" stroke-miterlimit="10"/>
<path d="M390.78 694.08L400.874 680.58L561.394 512.707" stroke="white" stroke-width="0.71" stroke-miterlimit="10"/>
<path d="M111.953 715.013L275.82 682.78" stroke="white" stroke-width="0.71" stroke-miterlimit="10"/>
<path d="M275.82 682.78L396.394 652.053" stroke="white" stroke-width="0.71" stroke-miterlimit="10"/>
<path d="M396.394 652.053L470.554 637.267" stroke="white" stroke-width="0.71" stroke-miterlimit="10"/>
<path d="M275.82 682.78L374.634 691.133L390.78 694.08" stroke="white" stroke-width="0.71" stroke-miterlimit="10"/>
<path d="M275.82 682.78L252.54 709.087" stroke="white" stroke-width="0.71" stroke-miterlimit="10"/>
<path d="M448.673 675.427L432.253 742.513" stroke="white" stroke-width="0.71" stroke-miterlimit="10"/>
<path d="M432.253 742.513L440.94 764.42" stroke="white" stroke-width="0.71" stroke-miterlimit="10"/>
<path d="M635.3 631.3L723.626 536.94" stroke="white" stroke-width="0.71" stroke-miterlimit="10"/>
<path d="M84.2002 727.467L252.54 709.087" stroke="white" stroke-width="0.71" stroke-miterlimit="10"/>
<path d="M111.953 715.013L250.106 660.247" stroke="white" stroke-width="0.71" stroke-miterlimit="10"/>
<path d="M250.106 660.247L476.093 603.393" stroke="white" stroke-width="0.71" stroke-miterlimit="10"/>
<path d="M476.094 603.393L571.927 609.753" stroke="white" stroke-width="0.71" stroke-miterlimit="10"/>
<path d="M198.02 647.56L250.106 660.247" stroke="white" stroke-width="0.71" stroke-miterlimit="10"/>
<path d="M250.106 660.247L258.833 625.86" stroke="white" stroke-width="0.71" stroke-miterlimit="10"/>
<path d="M390.9 565.813L476.094 603.393" stroke="white" stroke-width="0.71" stroke-miterlimit="10"/>
<path d="M390.9 565.813L250.106 660.247" stroke="white" stroke-width="0.71" stroke-miterlimit="10"/>
<path d="M258.833 625.86L476.093 603.393" stroke="white" stroke-width="0.71" stroke-miterlimit="10"/>
<path d="M250.106 660.247L275.82 682.78" stroke="white" stroke-width="0.71" stroke-miterlimit="10"/>
<path d="M476.094 603.393L567.314 567.233" stroke="white" stroke-width="0.71" stroke-miterlimit="10"/>
<path d="M567.313 567.233L597.374 569.533" stroke="white" stroke-width="0.71" stroke-miterlimit="10"/>
<path d="M597.373 569.533L705.16 431.373" stroke="white" stroke-width="0.71" stroke-miterlimit="10"/>
<path d="M181.573 749.9L389.06 773.313" stroke="white" stroke-width="0.71" stroke-miterlimit="10"/>
<path d="M389.061 773.313L575.22 698.5" stroke="white" stroke-width="0.71" stroke-miterlimit="10"/>
<path d="M120.026 744.033L376.673 742.06" stroke="white" stroke-width="0.71" stroke-miterlimit="10"/>
<path d="M376.674 742.06L432.254 742.513" stroke="white" stroke-width="0.71" stroke-miterlimit="10"/>
<path d="M432.253 742.513L545.386 681.98" stroke="white" stroke-width="0.71" stroke-miterlimit="10"/>
<path d="M84.2002 727.467L432.254 742.513" stroke="white" stroke-width="0.71" stroke-miterlimit="10"/>
<path d="M432.253 742.513L492.4 678.993" stroke="white" stroke-width="0.71" stroke-miterlimit="10"/>
<path d="M493.42 678.593L440.313 708.593" stroke="white" stroke-width="0.71" stroke-miterlimit="10"/>
<path d="M440.314 708.593L362.634 719.3L84.2002 727.467" stroke="white" stroke-width="0.71" stroke-miterlimit="10"/>
<path d="M571.927 609.753L597.373 569.533" stroke="white" stroke-width="0.71" stroke-miterlimit="10"/>
<path d="M597.373 569.533L723.626 536.94" stroke="white" stroke-width="0.71" stroke-miterlimit="10"/>
<path d="M586.946 693.853L588.513 705.867" stroke="white" stroke-width="0.71" stroke-miterlimit="10"/>
<path d="M733.693 741.387L734.147 746.867" stroke="white" stroke-width="0.71" stroke-miterlimit="10"/>
<path d="M781.2 745.227L784.12 750.44" stroke="white" stroke-width="0.71" stroke-miterlimit="10"/>
<path d="M555.014 726.873L575.22 698.5" stroke="white" stroke-width="0.71" stroke-miterlimit="10"/>
<path d="M440.314 708.593L390.78 694.08" stroke="white" stroke-width="0.71" stroke-miterlimit="10"/>
<path d="M390.779 694.08L379.199 706.407L362.633 719.3" stroke="white" stroke-width="0.71" stroke-miterlimit="10"/>
<path d="M252.54 709.087L362.627 719.3" stroke="white" stroke-width="0.71" stroke-miterlimit="10"/>
<path d="M252.54 709.087L396.393 652.053" stroke="white" stroke-width="0.71" stroke-miterlimit="10"/>
<path d="M374.633 691.133L379.199 706.407" stroke="white" stroke-width="0.71" stroke-miterlimit="10"/>
<path d="M396.394 652.053L400.874 680.58" stroke="white" stroke-width="0.71" stroke-miterlimit="10"/>
<path d="M379.2 706.407L448.674 675.427" stroke="white" stroke-width="0.71" stroke-miterlimit="10"/>
<path d="M400.873 680.58L448.673 675.427" stroke="white" stroke-width="0.71" stroke-miterlimit="10"/>
<path d="M400.873 680.58L312.807 685.907" stroke="white" stroke-width="0.71" stroke-miterlimit="10"/>
<path d="M374.633 691.133L396.393 652.053" stroke="white" stroke-width="0.71" stroke-miterlimit="10"/>
<path d="M120.026 744.033L436.846 754.107" stroke="white" stroke-width="0.71" stroke-miterlimit="10"/>
<path d="M811.5 715.14C811.46 715.927 811.188 716.685 810.719 717.319C810.25 717.952 809.604 718.433 808.863 718.7C808.121 718.968 807.317 719.01 806.552 718.823C805.786 718.635 805.093 718.225 804.56 717.644C804.026 717.064 803.676 716.339 803.554 715.56C803.431 714.782 803.541 713.984 803.87 713.268C804.199 712.552 804.732 711.949 805.403 711.534C806.074 711.12 806.852 710.913 807.64 710.94C808.708 710.987 809.714 711.455 810.438 712.242C811.161 713.03 811.543 714.072 811.5 715.14Z" fill="white"/>
<path d="M726.98 687.913C726.941 688.701 726.671 689.46 726.202 690.094C725.734 690.728 725.088 691.21 724.347 691.479C723.605 691.747 722.801 691.791 722.035 691.603C721.269 691.416 720.575 691.007 720.041 690.427C719.507 689.847 719.157 689.121 719.034 688.343C718.91 687.564 719.02 686.766 719.349 686.049C719.678 685.332 720.211 684.729 720.882 684.315C721.553 683.9 722.332 683.693 723.12 683.72C724.185 683.77 725.188 684.239 725.911 685.024C726.634 685.809 727.018 686.847 726.98 687.913Z" fill="white"/>
<path d="M788.146 750.613C788.106 751.401 787.835 752.158 787.366 752.792C786.896 753.425 786.251 753.906 785.509 754.174C784.768 754.441 783.964 754.484 783.198 754.296C782.433 754.108 781.74 753.698 781.206 753.118C780.673 752.537 780.323 751.812 780.2 751.034C780.077 750.255 780.188 749.457 780.517 748.741C780.846 748.025 781.379 747.422 782.05 747.008C782.72 746.594 783.498 746.387 784.286 746.413C784.817 746.431 785.339 746.555 785.821 746.776C786.304 746.998 786.737 747.313 787.097 747.704C787.456 748.095 787.734 748.554 787.914 749.053C788.094 749.553 788.173 750.083 788.146 750.613Z" fill="white"/>
<path d="M655.134 739.173C655.095 739.961 654.825 740.72 654.356 741.354C653.888 741.988 653.242 742.47 652.501 742.739C651.76 743.007 650.955 743.051 650.189 742.863C649.423 742.676 648.73 742.267 648.196 741.687C647.662 741.107 647.311 740.382 647.188 739.603C647.065 738.824 647.174 738.026 647.503 737.309C647.832 736.593 648.366 735.989 649.037 735.575C649.707 735.16 650.486 734.953 651.274 734.98C652.341 735.025 653.348 735.492 654.071 736.278C654.795 737.064 655.177 738.106 655.134 739.173Z" fill="white"/>
<path d="M549.413 682.153C549.373 682.941 549.101 683.698 548.632 684.332C548.163 684.965 547.517 685.446 546.776 685.713C546.034 685.981 545.23 686.024 544.465 685.836C543.699 685.648 543.006 685.238 542.473 684.658C541.939 684.077 541.589 683.352 541.467 682.574C541.344 681.795 541.454 680.998 541.783 680.281C542.112 679.565 542.646 678.962 543.316 678.548C543.987 678.134 544.765 677.927 545.553 677.953C546.084 677.971 546.605 678.095 547.088 678.316C547.57 678.538 548.004 678.853 548.363 679.244C548.722 679.635 549 680.094 549.18 680.593C549.361 681.093 549.44 681.623 549.413 682.153Z" fill="white"/>
<path d="M592.56 706.08C592.521 706.868 592.251 707.626 591.782 708.261C591.314 708.895 590.668 709.377 589.927 709.645C589.185 709.914 588.381 709.957 587.615 709.77C586.849 709.583 586.156 709.174 585.622 708.593C585.087 708.013 584.737 707.288 584.614 706.509C584.49 705.73 584.6 704.932 584.929 704.216C585.258 703.499 585.791 702.896 586.462 702.481C587.133 702.067 587.912 701.86 588.7 701.887C589.23 701.905 589.751 702.028 590.233 702.249C590.715 702.47 591.148 702.785 591.507 703.175C591.867 703.566 592.145 704.023 592.325 704.522C592.506 705.021 592.586 705.55 592.56 706.08Z" fill="white"/>
<path d="M494.134 680.073C494.095 680.861 493.825 681.62 493.356 682.254C492.888 682.888 492.242 683.37 491.501 683.639C490.76 683.907 489.955 683.951 489.189 683.763C488.423 683.576 487.73 683.167 487.196 682.587C486.662 682.007 486.311 681.281 486.188 680.503C486.065 679.724 486.174 678.926 486.503 678.209C486.832 677.492 487.366 676.889 488.037 676.475C488.707 676.06 489.486 675.853 490.274 675.88C490.804 675.898 491.325 676.021 491.807 676.242C492.289 676.464 492.722 676.778 493.082 677.169C493.441 677.559 493.719 678.017 493.9 678.515C494.08 679.014 494.16 679.544 494.134 680.073Z" fill="white"/>
<path d="M452.46 675.873C452.421 676.661 452.151 677.42 451.683 678.054C451.214 678.688 450.569 679.17 449.827 679.439C449.086 679.707 448.282 679.751 447.516 679.563C446.75 679.376 446.056 678.967 445.522 678.387C444.988 677.807 444.637 677.082 444.514 676.303C444.391 675.524 444.501 674.726 444.829 674.009C445.158 673.293 445.692 672.689 446.363 672.275C447.034 671.86 447.812 671.653 448.6 671.68C449.13 671.698 449.651 671.821 450.133 672.042C450.615 672.264 451.049 672.579 451.408 672.969C451.767 673.359 452.045 673.817 452.226 674.315C452.406 674.814 452.486 675.344 452.46 675.873Z" fill="white"/>
<path d="M474.84 637.267C474.8 638.054 474.528 638.812 474.058 639.446C473.589 640.079 472.943 640.56 472.201 640.827C471.459 641.095 470.655 641.137 469.889 640.948C469.123 640.76 468.43 640.349 467.897 639.768C467.364 639.187 467.015 638.462 466.893 637.683C466.771 636.904 466.882 636.106 467.212 635.39C467.542 634.674 468.077 634.071 468.748 633.658C469.42 633.244 470.198 633.039 470.986 633.067C471.516 633.085 472.037 633.209 472.519 633.431C473.001 633.653 473.434 633.969 473.792 634.36C474.151 634.751 474.428 635.209 474.608 635.708C474.788 636.207 474.866 636.737 474.84 637.267Z" fill="white"/>
<path d="M575.954 609.92C575.914 610.708 575.642 611.466 575.173 612.099C574.703 612.733 574.057 613.213 573.315 613.481C572.573 613.748 571.769 613.79 571.003 613.602C570.238 613.413 569.545 613.003 569.012 612.422C568.478 611.841 568.129 611.115 568.007 610.336C567.885 609.557 567.996 608.759 568.326 608.043C568.656 607.327 569.191 606.724 569.862 606.311C570.534 605.898 571.313 605.692 572.101 605.72C573.168 605.767 574.174 606.235 574.896 607.023C575.619 607.81 575.999 608.852 575.954 609.92Z" fill="white"/>
<path d="M494.047 756C494.008 756.788 493.738 757.546 493.269 758.181C492.801 758.815 492.156 759.297 491.414 759.565C490.673 759.834 489.869 759.877 489.102 759.69C488.336 759.503 487.643 759.094 487.109 758.513C486.575 757.933 486.224 757.208 486.101 756.429C485.978 755.65 486.087 754.852 486.416 754.136C486.745 753.419 487.279 752.816 487.95 752.401C488.62 751.987 489.399 751.78 490.187 751.807C491.254 751.853 492.259 752.321 492.982 753.107C493.706 753.892 494.089 754.933 494.047 756Z" fill="white"/>
<path d="M116.306 715.333C116.273 716.13 116.004 716.899 115.533 717.543C115.063 718.187 114.412 718.677 113.663 718.951C112.914 719.225 112.101 719.271 111.326 719.083C110.551 718.895 109.849 718.482 109.309 717.895C108.769 717.308 108.415 716.575 108.292 715.787C108.168 714.999 108.281 714.192 108.616 713.469C108.951 712.745 109.493 712.137 110.174 711.721C110.854 711.306 111.643 711.101 112.44 711.133C112.971 711.15 113.493 711.273 113.977 711.494C114.46 711.716 114.894 712.031 115.254 712.422C115.614 712.813 115.893 713.272 116.073 713.772C116.254 714.272 116.333 714.802 116.306 715.333Z" fill="white"/>
<path d="M88.5603 727.8C88.5205 728.587 88.2489 729.345 87.7797 729.979C87.3105 730.612 86.6647 731.093 85.9232 731.36C85.1818 731.628 84.3778 731.67 83.6122 731.482C82.8467 731.295 82.1537 730.885 81.6203 730.304C81.0869 729.724 80.7369 728.999 80.6142 728.22C80.4915 727.442 80.6016 726.644 80.9306 725.928C81.2597 725.212 81.7931 724.609 82.4637 724.194C83.1344 723.78 83.9125 723.573 84.7003 723.6C85.7685 723.647 86.7747 724.115 87.4982 724.902C88.2218 725.69 88.6037 726.732 88.5603 727.8Z" fill="white"/>
<path d="M395.08 565.92C395.042 566.708 394.771 567.467 394.302 568.101C393.833 568.736 393.187 569.217 392.446 569.486C391.704 569.754 390.899 569.797 390.133 569.609C389.367 569.422 388.673 569.011 388.14 568.431C387.606 567.85 387.256 567.124 387.133 566.345C387.011 565.566 387.122 564.767 387.452 564.051C387.782 563.334 388.316 562.732 388.988 562.318C389.66 561.904 390.439 561.699 391.227 561.727C391.756 561.745 392.277 561.869 392.758 562.091C393.239 562.312 393.672 562.627 394.03 563.018C394.389 563.408 394.666 563.865 394.846 564.363C395.027 564.862 395.106 565.391 395.08 565.92Z" fill="white"/>
<path d="M564.447 513.26C564.407 514.047 564.136 514.805 563.666 515.439C563.197 516.072 562.551 516.553 561.81 516.82C561.068 517.088 560.264 517.13 559.499 516.943C558.733 516.755 558.04 516.345 557.507 515.765C556.974 515.184 556.624 514.459 556.501 513.68C556.378 512.902 556.488 512.104 556.817 511.388C557.146 510.672 557.68 510.069 558.35 509.654C559.021 509.24 559.799 509.033 560.587 509.06C561.116 509.082 561.636 509.209 562.116 509.432C562.597 509.655 563.029 509.971 563.387 510.361C563.745 510.751 564.024 511.207 564.205 511.705C564.387 512.202 564.469 512.731 564.447 513.26Z" fill="white"/>
<path d="M709.033 431.6C708.993 432.387 708.721 433.145 708.252 433.779C707.783 434.412 707.137 434.893 706.396 435.16C705.654 435.428 704.85 435.47 704.085 435.282C703.319 435.095 702.626 434.685 702.093 434.104C701.56 433.524 701.21 432.799 701.087 432.02C700.964 431.242 701.074 430.444 701.403 429.728C701.732 429.012 702.266 428.409 702.936 427.994C703.607 427.58 704.385 427.373 705.173 427.4C706.241 427.447 707.247 427.915 707.971 428.702C708.694 429.49 709.076 430.532 709.033 431.6Z" fill="white"/>
<path d="M756.447 359.44C756.413 360.237 756.144 361.006 755.673 361.65C755.202 362.294 754.551 362.784 753.802 363.058C753.053 363.332 752.239 363.377 751.464 363.189C750.689 363 749.987 362.586 749.447 361.999C748.908 361.412 748.554 360.678 748.432 359.889C748.309 359.101 748.423 358.294 748.759 357.571C749.095 356.847 749.638 356.24 750.32 355.825C751.001 355.41 751.79 355.206 752.587 355.24C753.655 355.287 754.661 355.755 755.385 356.542C756.108 357.33 756.49 358.372 756.447 359.44Z" fill="white"/>
<path d="M782.667 277.473C782.627 278.26 782.355 279.018 781.886 279.652C781.417 280.285 780.771 280.766 780.03 281.033C779.288 281.301 778.484 281.344 777.719 281.156C776.953 280.968 776.26 280.558 775.727 279.978C775.193 279.397 774.843 278.672 774.721 277.894C774.598 277.115 774.708 276.317 775.037 275.601C775.366 274.885 775.899 274.282 776.57 273.868C777.241 273.453 778.019 273.247 778.807 273.273C779.336 273.296 779.856 273.422 780.336 273.645C780.816 273.868 781.248 274.184 781.607 274.574C781.965 274.964 782.243 275.421 782.425 275.918C782.607 276.416 782.689 276.944 782.667 277.473Z" fill="white"/>
<path d="M809.58 291.947C809.542 292.734 809.271 293.493 808.803 294.127C808.334 294.762 807.689 295.243 806.947 295.512C806.206 295.78 805.402 295.824 804.636 295.637C803.87 295.45 803.176 295.04 802.642 294.46C802.108 293.88 801.757 293.155 801.634 292.376C801.511 291.597 801.621 290.799 801.95 290.082C802.279 289.366 802.812 288.762 803.483 288.348C804.154 287.933 804.932 287.727 805.72 287.753C806.788 287.798 807.794 288.265 808.518 289.051C809.241 289.838 809.624 290.879 809.58 291.947Z" fill="white"/>
<path d="M805 389.813C804.96 390.601 804.688 391.359 804.219 391.992C803.75 392.625 803.104 393.106 802.363 393.374C801.621 393.641 800.817 393.684 800.052 393.496C799.286 393.308 798.593 392.898 798.06 392.318C797.526 391.737 797.176 391.012 797.054 390.234C796.931 389.455 797.041 388.658 797.37 387.941C797.699 387.225 798.232 386.622 798.903 386.208C799.574 385.794 800.352 385.587 801.14 385.613C801.67 385.631 802.192 385.755 802.675 385.976C803.157 386.198 803.591 386.513 803.95 386.904C804.309 387.295 804.587 387.754 804.767 388.253C804.948 388.753 805.027 389.283 805 389.813Z" fill="white"/>
<path d="M729.473 541.693C729.432 542.48 729.159 543.237 728.689 543.87C728.219 544.502 727.573 544.982 726.832 545.248C726.09 545.515 725.286 545.557 724.521 545.368C723.756 545.18 723.064 544.769 722.531 544.189C721.999 543.608 721.649 542.883 721.527 542.105C721.405 541.326 721.515 540.529 721.844 539.813C722.173 539.097 722.707 538.495 723.377 538.081C724.048 537.667 724.826 537.46 725.613 537.487C726.683 537.533 727.69 538.003 728.413 538.791C729.137 539.58 729.518 540.624 729.473 541.693Z" fill="white"/>
<path d="M762.42 180.42C762.382 181.208 762.111 181.966 761.643 182.601C761.174 183.235 760.529 183.717 759.787 183.985C759.046 184.254 758.242 184.297 757.476 184.11C756.71 183.923 756.016 183.514 755.482 182.933C754.948 182.353 754.597 181.628 754.474 180.849C754.351 180.07 754.461 179.273 754.789 178.556C755.118 177.839 755.652 177.236 756.323 176.821C756.994 176.407 757.772 176.2 758.56 176.227C759.628 176.272 760.634 176.739 761.358 177.525C762.081 178.311 762.463 179.352 762.42 180.42Z" fill="white"/>
<path d="M794.753 203.333C794.712 204.12 794.44 204.877 793.97 205.51C793.5 206.142 792.853 206.622 792.112 206.889C791.37 207.155 790.567 207.197 789.802 207.008C789.037 206.82 788.344 206.409 787.812 205.829C787.279 205.248 786.929 204.523 786.807 203.745C786.685 202.966 786.795 202.169 787.125 201.453C787.454 200.737 787.987 200.135 788.658 199.721C789.328 199.307 790.106 199.1 790.893 199.127C791.963 199.173 792.97 199.643 793.694 200.431C794.417 201.22 794.798 202.264 794.753 203.333Z" fill="white"/>
<path d="M917.8 174.227C917.76 175.014 917.488 175.772 917.019 176.405C916.55 177.039 915.904 177.519 915.162 177.787C914.421 178.054 913.617 178.097 912.851 177.909C912.086 177.721 911.393 177.311 910.86 176.731C910.326 176.151 909.976 175.426 909.853 174.647C909.731 173.868 909.841 173.071 910.17 172.355C910.499 171.638 911.032 171.035 911.703 170.621C912.374 170.207 913.152 170 913.94 170.027C915.008 170.073 916.014 170.542 916.737 171.329C917.461 172.116 917.843 173.158 917.8 174.227Z" fill="white"/>
<path d="M919.493 199.767C919.455 200.555 919.184 201.313 918.715 201.948C918.247 202.582 917.601 203.064 916.859 203.332C916.117 203.601 915.312 203.644 914.546 203.456C913.78 203.268 913.087 202.858 912.553 202.277C912.019 201.696 911.669 200.971 911.547 200.192C911.424 199.412 911.535 198.614 911.865 197.898C912.195 197.181 912.729 196.578 913.401 196.165C914.073 195.751 914.852 195.545 915.64 195.573C916.169 195.592 916.69 195.716 917.171 195.938C917.653 196.159 918.085 196.474 918.443 196.864C918.802 197.254 919.079 197.712 919.26 198.21C919.44 198.708 919.519 199.237 919.493 199.767Z" fill="white"/>
<path d="M394.806 694.253C394.766 695.041 394.495 695.799 394.025 696.433C393.556 697.066 392.909 697.547 392.168 697.814C391.426 698.081 390.621 698.123 389.856 697.935C389.09 697.747 388.397 697.336 387.864 696.755C387.331 696.174 386.982 695.448 386.86 694.669C386.738 693.89 386.849 693.092 387.179 692.376C387.509 691.66 388.043 691.058 388.715 690.644C389.386 690.231 390.165 690.025 390.953 690.053C391.483 690.072 392.004 690.196 392.486 690.418C392.968 690.64 393.4 690.956 393.759 691.347C394.118 691.738 394.395 692.196 394.575 692.695C394.754 693.194 394.833 693.724 394.806 694.253Z" fill="white"/>
<path d="M639.333 631.467C639.301 632.264 639.032 633.034 638.562 633.679C638.092 634.324 637.442 634.815 636.692 635.09C635.943 635.364 635.129 635.411 634.354 635.223C633.578 635.035 632.876 634.622 632.335 634.035C631.795 633.448 631.441 632.713 631.318 631.925C631.195 631.136 631.308 630.329 631.644 629.605C631.98 628.882 632.523 628.274 633.205 627.858C633.886 627.443 634.676 627.24 635.473 627.273C636.54 627.32 637.545 627.788 638.268 628.573C638.992 629.359 639.374 630.399 639.333 631.467Z" fill="white"/>
<path d="M256.906 709.453C256.868 710.044 256.655 710.609 256.295 711.078C255.934 711.547 255.443 711.899 254.883 712.088C254.322 712.278 253.718 712.297 253.147 712.142C252.576 711.988 252.064 711.668 251.675 711.222C251.286 710.776 251.039 710.225 250.964 709.638C250.889 709.051 250.989 708.455 251.253 707.926C251.518 707.397 251.933 706.958 252.447 706.665C252.96 706.371 253.55 706.238 254.14 706.28C254.927 706.335 255.661 706.7 256.179 707.294C256.698 707.889 256.96 708.666 256.906 709.453Z" fill="white"/>
<path d="M188.5 711.68C188.46 712.27 188.246 712.835 187.885 713.303C187.524 713.771 187.032 714.122 186.472 714.31C185.911 714.498 185.308 714.516 184.737 714.361C184.166 714.206 183.655 713.886 183.267 713.439C182.879 712.993 182.632 712.442 182.557 711.856C182.482 711.269 182.584 710.674 182.848 710.145C183.112 709.616 183.527 709.177 184.041 708.884C184.554 708.591 185.143 708.458 185.733 708.5C186.124 708.527 186.505 708.631 186.855 708.805C187.206 708.98 187.518 709.221 187.775 709.517C188.032 709.812 188.228 710.155 188.353 710.526C188.477 710.897 188.527 711.29 188.5 711.68Z" fill="white"/>
<path d="M324.166 702C324.128 702.59 323.915 703.155 323.555 703.624C323.195 704.093 322.704 704.445 322.144 704.635C321.584 704.825 320.981 704.844 320.41 704.69C319.839 704.536 319.326 704.217 318.937 703.772C318.548 703.326 318.3 702.776 318.224 702.189C318.148 701.603 318.248 701.007 318.511 700.478C318.774 699.948 319.188 699.509 319.701 699.215C320.214 698.921 320.803 698.786 321.393 698.827C322.18 698.883 322.913 699.248 323.433 699.843C323.952 700.437 324.216 701.212 324.166 702Z" fill="white"/>
<path d="M253.387 661.227C253.347 661.815 253.134 662.378 252.774 662.845C252.414 663.312 251.924 663.662 251.365 663.85C250.806 664.038 250.204 664.057 249.635 663.903C249.066 663.748 248.555 663.429 248.167 662.984C247.78 662.54 247.533 661.991 247.458 661.406C247.383 660.821 247.483 660.227 247.745 659.699C248.008 659.171 248.421 658.733 248.933 658.44C249.445 658.147 250.032 658.012 250.62 658.053C251.408 658.108 252.141 658.473 252.66 659.068C253.178 659.663 253.44 660.439 253.387 661.227Z" fill="white"/>
<path d="M479.066 603.6C479.027 604.19 478.813 604.754 478.452 605.222C478.091 605.69 477.6 606.041 477.04 606.23C476.48 606.419 475.877 606.437 475.306 606.282C474.736 606.128 474.224 605.808 473.835 605.363C473.447 604.917 473.199 604.367 473.124 603.78C473.049 603.194 473.149 602.599 473.412 602.07C473.675 601.541 474.089 601.101 474.602 600.808C475.115 600.514 475.703 600.379 476.293 600.42C477.082 600.475 477.817 600.84 478.337 601.436C478.857 602.033 479.119 602.811 479.066 603.6Z" fill="white"/>
<path d="M600.347 569.74C600.306 570.329 600.091 570.893 599.729 571.361C599.367 571.828 598.875 572.177 598.315 572.365C597.754 572.552 597.151 572.569 596.581 572.413C596.011 572.258 595.5 571.937 595.112 571.49C594.725 571.044 594.479 570.493 594.404 569.907C594.33 569.32 594.432 568.725 594.696 568.197C594.96 567.668 595.375 567.23 595.889 566.937C596.402 566.645 596.991 566.511 597.58 566.553C598.369 566.61 599.104 566.977 599.623 567.574C600.142 568.172 600.402 568.951 600.347 569.74Z" fill="white"/>
<path d="M825.913 226.187C825.873 226.776 825.659 227.341 825.299 227.809C824.938 228.277 824.447 228.628 823.887 228.816C823.327 229.005 822.723 229.024 822.153 228.869C821.582 228.715 821.071 228.395 820.682 227.949C820.294 227.504 820.046 226.953 819.971 226.367C819.895 225.781 819.996 225.186 820.259 224.656C820.522 224.127 820.936 223.688 821.449 223.394C821.962 223.101 822.55 222.966 823.14 223.007C823.531 223.032 823.913 223.135 824.265 223.308C824.617 223.482 824.93 223.724 825.188 224.019C825.446 224.315 825.643 224.659 825.767 225.031C825.891 225.403 825.941 225.795 825.913 226.187Z" fill="white"/>
<path d="M649.2 642.207C649.161 642.797 648.949 643.362 648.589 643.831C648.229 644.3 647.737 644.652 647.177 644.842C646.617 645.031 646.014 645.051 645.443 644.897C644.872 644.743 644.359 644.423 643.97 643.978C643.581 643.533 643.333 642.982 643.257 642.396C643.181 641.81 643.281 641.214 643.544 640.684C643.807 640.155 644.221 639.715 644.734 639.421C645.248 639.127 645.836 638.992 646.426 639.033C647.214 639.088 647.948 639.453 648.468 640.047C648.988 640.642 649.251 641.419 649.2 642.207Z" fill="white"/>
<path d="M298.386 560.1C298.347 560.69 298.133 561.255 297.772 561.723C297.411 562.191 296.919 562.542 296.358 562.73C295.798 562.918 295.194 562.936 294.624 562.781C294.053 562.626 293.541 562.305 293.153 561.859C292.765 561.413 292.518 560.862 292.444 560.276C292.369 559.689 292.47 559.094 292.735 558.565C292.999 558.036 293.414 557.597 293.927 557.304C294.441 557.012 295.03 556.878 295.62 556.92C296.011 556.946 296.392 557.049 296.743 557.224C297.094 557.398 297.407 557.64 297.664 557.935C297.921 558.231 298.117 558.574 298.241 558.945C298.365 559.317 298.415 559.709 298.386 560.1Z" fill="#98909F"/>
<path d="M303.42 582.56C303.379 583.149 303.165 583.713 302.803 584.18C302.442 584.647 301.95 584.997 301.39 585.185C300.83 585.372 300.227 585.39 299.657 585.235C299.087 585.08 298.576 584.759 298.188 584.314C297.8 583.868 297.553 583.317 297.478 582.732C297.403 582.146 297.504 581.551 297.767 581.022C298.03 580.493 298.444 580.054 298.957 579.761C299.47 579.467 300.058 579.333 300.647 579.373C301.039 579.399 301.422 579.501 301.774 579.676C302.126 579.85 302.44 580.092 302.698 580.389C302.956 580.685 303.152 581.029 303.276 581.402C303.4 581.775 303.449 582.168 303.42 582.56Z" fill="white"/>
<path d="M324.167 429.853C324.127 430.443 323.913 431.008 323.553 431.476C323.192 431.944 322.701 432.294 322.141 432.483C321.581 432.672 320.977 432.69 320.407 432.536C319.836 432.381 319.324 432.061 318.936 431.616C318.548 431.17 318.3 430.62 318.225 430.034C318.149 429.448 318.249 428.852 318.513 428.323C318.776 427.794 319.19 427.355 319.703 427.061C320.215 426.767 320.804 426.632 321.393 426.673C322.182 426.73 322.916 427.096 323.436 427.692C323.955 428.287 324.218 429.064 324.167 429.853Z" fill="#685D70"/>
<path d="M443.914 456.853C443.874 457.443 443.66 458.008 443.299 458.476C442.938 458.944 442.446 459.295 441.886 459.483C441.325 459.672 440.722 459.69 440.151 459.535C439.58 459.38 439.069 459.059 438.681 458.613C438.293 458.167 438.046 457.616 437.971 457.029C437.897 456.443 437.998 455.847 438.262 455.318C438.526 454.789 438.941 454.351 439.455 454.058C439.968 453.765 440.557 453.631 441.147 453.673C441.538 453.7 441.919 453.804 442.269 453.979C442.62 454.153 442.932 454.395 443.189 454.69C443.446 454.986 443.642 455.329 443.767 455.7C443.891 456.071 443.941 456.463 443.914 456.853Z" fill="#685D70"/>
<path d="M269.42 613.233C269.382 613.823 269.169 614.389 268.809 614.858C268.449 615.327 267.958 615.678 267.398 615.868C266.838 616.058 266.234 616.077 265.663 615.923C265.092 615.77 264.58 615.45 264.191 615.005C263.802 614.56 263.554 614.009 263.478 613.423C263.402 612.836 263.502 612.24 263.765 611.711C264.028 611.181 264.442 610.742 264.955 610.448C265.468 610.154 266.057 610.019 266.647 610.06C267.435 610.115 268.169 610.479 268.689 611.074C269.208 611.669 269.471 612.445 269.42 613.233Z" fill="white"/>
<path d="M269.42 512.907C269.381 513.497 269.168 514.063 268.807 514.533C268.446 515.002 267.953 515.353 267.392 515.542C266.831 515.731 266.227 515.749 265.655 515.593C265.084 515.438 264.572 515.116 264.184 514.669C263.796 514.221 263.55 513.669 263.476 513.081C263.403 512.494 263.506 511.898 263.772 511.369C264.038 510.84 264.455 510.402 264.971 510.111C265.486 509.82 266.076 509.688 266.667 509.733C267.454 509.79 268.187 510.155 268.707 510.749C269.226 511.343 269.49 512.119 269.44 512.907" fill="white"/>
<path d="M385 464.207C384.96 464.795 384.747 465.359 384.386 465.826C384.026 466.293 383.535 466.643 382.976 466.83C382.417 467.018 381.815 467.036 381.245 466.881C380.676 466.727 380.166 466.406 379.778 465.961C379.391 465.516 379.145 464.966 379.071 464.381C378.996 463.796 379.097 463.202 379.361 462.674C379.625 462.146 380.039 461.709 380.551 461.417C381.064 461.124 381.652 460.991 382.24 461.033C382.63 461.06 383.01 461.164 383.36 461.338C383.709 461.512 384.021 461.754 384.277 462.048C384.534 462.343 384.73 462.685 384.853 463.056C384.977 463.426 385.027 463.817 385 464.207Z" fill="#674783"/>
<path d="M377.433 417.567C377.394 418.157 377.18 418.721 376.819 419.19C376.458 419.658 375.966 420.008 375.405 420.197C374.845 420.385 374.241 420.403 373.671 420.248C373.1 420.093 372.588 419.772 372.2 419.326C371.812 418.88 371.565 418.329 371.491 417.742C371.416 417.156 371.517 416.56 371.781 416.031C372.046 415.502 372.461 415.064 372.974 414.771C373.488 414.478 374.077 414.344 374.667 414.387C375.057 414.414 375.439 414.517 375.789 414.692C376.139 414.866 376.452 415.108 376.709 415.403C376.966 415.699 377.162 416.042 377.286 416.413C377.411 416.784 377.461 417.176 377.433 417.567Z" fill="white"/>
<path d="M353.334 498.667C353.294 499.257 353.08 499.821 352.719 500.29C352.358 500.758 351.866 501.108 351.306 501.297C350.745 501.485 350.142 501.503 349.571 501.348C349 501.193 348.489 500.872 348.101 500.426C347.713 499.98 347.466 499.429 347.391 498.842C347.316 498.256 347.418 497.66 347.682 497.131C347.946 496.602 348.361 496.164 348.875 495.871C349.388 495.578 349.977 495.444 350.567 495.487C350.958 495.514 351.339 495.617 351.689 495.792C352.04 495.966 352.352 496.208 352.609 496.504C352.866 496.799 353.062 497.142 353.187 497.513C353.311 497.884 353.361 498.276 353.334 498.667Z" fill="white"/>
<path d="M256.567 608.933C256.526 609.522 256.311 610.084 255.95 610.55C255.589 611.017 255.098 611.365 254.539 611.552C253.98 611.739 253.378 611.756 252.809 611.6C252.24 611.445 251.73 611.124 251.344 610.679C250.957 610.234 250.712 609.684 250.638 609.099C250.564 608.514 250.665 607.92 250.929 607.393C251.193 606.865 251.607 606.428 252.119 606.136C252.632 605.845 253.219 605.711 253.807 605.753C254.198 605.779 254.58 605.881 254.931 606.055C255.282 606.229 255.594 606.471 255.851 606.767C256.108 607.063 256.303 607.407 256.426 607.778C256.549 608.15 256.597 608.543 256.567 608.933Z" fill="white"/>
<path d="M276.293 596.487C276.255 597.077 276.042 597.642 275.682 598.111C275.322 598.58 274.831 598.932 274.271 599.122C273.711 599.311 273.107 599.33 272.536 599.177C271.966 599.023 271.453 598.703 271.064 598.258C270.675 597.813 270.427 597.262 270.351 596.676C270.275 596.09 270.375 595.494 270.638 594.964C270.901 594.435 271.315 593.995 271.828 593.701C272.341 593.407 272.93 593.272 273.52 593.313C273.911 593.339 274.293 593.441 274.644 593.614C274.995 593.788 275.308 594.029 275.566 594.324C275.824 594.619 276.02 594.962 276.145 595.333C276.27 595.704 276.32 596.096 276.293 596.487Z" fill="white"/>
<path d="M331.594 553.333C331.554 553.923 331.34 554.488 330.979 554.956C330.618 555.424 330.126 555.775 329.565 555.963C329.005 556.152 328.401 556.17 327.831 556.015C327.26 555.86 326.748 555.539 326.36 555.093C325.972 554.647 325.725 554.096 325.651 553.509C325.576 552.922 325.677 552.327 325.942 551.798C326.206 551.269 326.621 550.831 327.134 550.538C327.648 550.245 328.237 550.111 328.827 550.153C329.217 550.18 329.599 550.284 329.949 550.459C330.299 550.633 330.612 550.875 330.869 551.17C331.126 551.466 331.322 551.809 331.446 552.18C331.571 552.551 331.621 552.943 331.594 553.333Z" fill="#685D70"/>
<path d="M262.613 574.28C262.573 574.87 262.36 575.434 261.999 575.902C261.638 576.37 261.147 576.721 260.587 576.91C260.027 577.098 259.423 577.117 258.853 576.962C258.282 576.808 257.771 576.488 257.382 576.042C256.994 575.597 256.746 575.047 256.671 574.46C256.596 573.874 256.696 573.279 256.959 572.75C257.222 572.221 257.636 571.781 258.149 571.488C258.662 571.194 259.25 571.059 259.84 571.1C260.629 571.155 261.364 571.52 261.884 572.116C262.404 572.713 262.666 573.491 262.613 574.28Z" fill="#98909F"/>
<path d="M310.447 508.093C310.408 508.683 310.195 509.249 309.836 509.718C309.476 510.187 308.984 510.539 308.424 510.728C307.864 510.918 307.261 510.937 306.69 510.784C306.119 510.63 305.606 510.31 305.217 509.865C304.828 509.42 304.58 508.869 304.504 508.283C304.428 507.696 304.528 507.101 304.791 506.571C305.054 506.041 305.468 505.602 305.982 505.308C306.495 505.014 307.083 504.879 307.673 504.92C308.064 504.946 308.445 505.049 308.796 505.223C309.147 505.397 309.46 505.638 309.717 505.932C309.975 506.227 310.172 506.569 310.297 506.94C310.422 507.311 310.473 507.703 310.447 508.093Z" fill="#674783"/>
<path d="M545.48 301.78C545.448 302.577 545.18 303.347 544.71 303.992C544.24 304.637 543.589 305.128 542.84 305.403C542.091 305.678 541.277 305.724 540.501 305.536C539.726 305.349 539.023 304.935 538.483 304.348C537.942 303.761 537.588 303.027 537.465 302.238C537.342 301.45 537.456 300.642 537.792 299.919C538.128 299.195 538.671 298.587 539.352 298.172C540.034 297.757 540.823 297.553 541.62 297.587C542.687 297.633 543.692 298.101 544.416 298.887C545.139 299.672 545.522 300.713 545.48 301.78Z" fill="#685D70"/>
<path d="M408.2 360.913C408.16 361.701 407.889 362.459 407.419 363.092C406.95 363.725 406.304 364.206 405.563 364.474C404.821 364.741 404.017 364.784 403.252 364.596C402.486 364.408 401.793 363.998 401.26 363.418C400.727 362.837 400.377 362.112 400.254 361.334C400.131 360.555 400.241 359.758 400.57 359.041C400.899 358.325 401.433 357.722 402.103 357.308C402.774 356.894 403.552 356.687 404.34 356.713C404.871 356.731 405.392 356.855 405.875 357.076C406.357 357.298 406.791 357.613 407.15 358.004C407.509 358.395 407.787 358.854 407.968 359.353C408.148 359.853 408.227 360.383 408.2 360.913Z" fill="#CAC6CC"/>
<path d="M308.5 455.9C308.46 456.687 308.188 457.445 307.719 458.079C307.25 458.712 306.604 459.193 305.863 459.46C305.121 459.728 304.317 459.77 303.552 459.583C302.786 459.395 302.093 458.985 301.56 458.404C301.026 457.824 300.676 457.099 300.554 456.32C300.431 455.542 300.541 454.744 300.87 454.028C301.199 453.312 301.733 452.709 302.403 452.294C303.074 451.88 303.852 451.673 304.64 451.7C305.17 451.718 305.692 451.841 306.175 452.063C306.657 452.285 307.091 452.6 307.45 452.991C307.809 453.382 308.087 453.841 308.267 454.34C308.448 454.839 308.527 455.37 308.5 455.9Z" fill="white"/>
<path d="M415.054 490.6C415.015 491.388 414.744 492.147 414.276 492.781C413.807 493.416 413.161 493.897 412.419 494.166C411.677 494.434 410.873 494.477 410.107 494.289C409.341 494.101 408.647 493.691 408.113 493.111C407.58 492.53 407.229 491.804 407.107 491.025C406.985 490.246 407.095 489.447 407.425 488.731C407.755 488.014 408.29 487.411 408.961 486.998C409.633 486.584 410.412 486.379 411.2 486.407C411.73 486.425 412.25 486.549 412.732 486.771C413.213 486.992 413.645 487.307 414.004 487.698C414.362 488.088 414.64 488.545 414.82 489.043C415 489.542 415.08 490.071 415.054 490.6Z" fill="#CAC6CC"/>
<path d="M276.96 555.953C276.919 556.74 276.647 557.497 276.177 558.13C275.707 558.762 275.06 559.242 274.319 559.509C273.577 559.775 272.774 559.817 272.009 559.628C271.244 559.44 270.551 559.029 270.019 558.449C269.486 557.868 269.136 557.143 269.014 556.365C268.892 555.586 269.002 554.789 269.332 554.073C269.661 553.357 270.194 552.755 270.865 552.341C271.535 551.927 272.313 551.72 273.1 551.747C274.17 551.793 275.177 552.263 275.901 553.051C276.624 553.84 277.006 554.884 276.96 555.953Z" fill="#674783"/>
<path d="M489.653 395.727C489.615 396.515 489.344 397.273 488.875 397.908C488.407 398.542 487.761 399.024 487.019 399.292C486.277 399.561 485.473 399.604 484.706 399.416C483.94 399.228 483.247 398.818 482.713 398.237C482.179 397.656 481.829 396.931 481.707 396.151C481.584 395.372 481.695 394.574 482.025 393.858C482.355 393.141 482.889 392.538 483.561 392.125C484.233 391.711 485.012 391.505 485.8 391.533C486.33 391.552 486.85 391.676 487.331 391.897C487.813 392.119 488.245 392.434 488.604 392.824C488.962 393.214 489.239 393.672 489.42 394.17C489.6 394.668 489.679 395.197 489.653 395.727Z" fill="#674783"/>
<path d="M639.294 446.513C638.941 447.303 638.362 447.97 637.63 448.43C636.898 448.891 636.046 449.124 635.181 449.1C634.317 449.076 633.479 448.797 632.773 448.297C632.068 447.798 631.526 447.1 631.217 446.292C630.908 445.485 630.845 444.604 631.036 443.761C631.228 442.917 631.665 442.15 632.292 441.555C632.92 440.96 633.709 440.564 634.562 440.418C635.414 440.272 636.29 440.382 637.08 440.733C638.14 441.207 638.968 442.082 639.383 443.165C639.798 444.249 639.766 445.453 639.294 446.513Z" fill="white"/>
<path d="M265.02 627.64C264.667 628.429 264.088 629.096 263.356 629.557C262.624 630.017 261.772 630.25 260.908 630.227C260.044 630.203 259.206 629.924 258.5 629.424C257.794 628.924 257.253 628.227 256.943 627.419C256.634 626.611 256.571 625.73 256.763 624.887C256.954 624.044 257.391 623.276 258.019 622.681C258.646 622.086 259.436 621.691 260.288 621.545C261.14 621.398 262.017 621.508 262.807 621.86C263.866 622.334 264.694 623.208 265.109 624.292C265.524 625.376 265.492 626.58 265.02 627.64Z" fill="white"/>
<path d="M98.2604 700.533C97.9075 701.323 97.3285 701.99 96.5965 702.45C95.8646 702.911 95.0126 703.144 94.1483 703.12C93.2839 703.096 92.4459 702.817 91.7403 702.317C91.0346 701.818 90.493 701.12 90.1837 700.312C89.8745 699.505 89.8116 698.624 90.003 697.781C90.1944 696.937 90.6314 696.17 91.2589 695.575C91.8864 694.98 92.6762 694.584 93.5284 694.438C94.3807 694.292 95.2571 694.402 96.047 694.753C97.1064 695.227 97.9344 696.102 98.3494 697.185C98.7644 698.269 98.7324 699.473 98.2604 700.533Z" fill="white"/>
<path d="M519.853 461.027C519.847 462.54 519.392 464.018 518.546 465.273C517.7 466.529 516.502 467.505 515.101 468.08C513.701 468.654 512.162 468.801 510.678 468.502C509.195 468.203 507.833 467.471 506.765 466.398C505.697 465.325 504.971 463.961 504.678 462.476C504.385 460.991 504.539 459.452 505.119 458.054C505.7 456.657 506.682 455.462 507.941 454.622C509.2 453.782 510.68 453.333 512.193 453.333C513.202 453.332 514.201 453.531 515.133 453.918C516.065 454.305 516.911 454.872 517.623 455.587C518.335 456.302 518.899 457.15 519.281 458.084C519.664 459.018 519.858 460.018 519.853 461.027Z" fill="#311A49"/>
<path d="M899.453 452.387C899.453 453.902 899.003 455.383 898.162 456.642C897.32 457.902 896.124 458.884 894.724 459.464C893.324 460.043 891.784 460.195 890.298 459.899C888.812 459.604 887.448 458.874 886.376 457.803C885.305 456.732 884.576 455.367 884.28 453.881C883.984 452.395 884.136 450.855 884.716 449.455C885.296 448.056 886.277 446.859 887.537 446.018C888.797 445.176 890.278 444.727 891.793 444.727C892.799 444.726 893.795 444.923 894.725 445.308C895.655 445.693 896.5 446.257 897.211 446.968C897.923 447.68 898.487 448.525 898.872 449.454C899.256 450.384 899.454 451.38 899.453 452.387Z" fill="#292A29"/>
<path d="M173.747 571.093C173.747 572.608 173.297 574.089 172.456 575.349C171.614 576.609 170.418 577.59 169.018 578.17C167.618 578.75 166.078 578.902 164.592 578.606C163.106 578.311 161.742 577.581 160.67 576.51C159.599 575.439 158.87 574.074 158.574 572.588C158.278 571.102 158.43 569.562 159.01 568.162C159.59 566.762 160.571 565.566 161.831 564.724C163.091 563.883 164.572 563.433 166.087 563.433C168.118 563.435 170.065 564.243 171.501 565.679C172.937 567.115 173.745 569.062 173.747 571.093Z" fill="#311A49"/>
<path d="M738.226 612C738.226 613.515 737.777 614.997 736.935 616.256C736.093 617.516 734.896 618.498 733.496 619.078C732.096 619.657 730.555 619.808 729.069 619.512C727.583 619.216 726.218 618.486 725.147 617.414C724.076 616.342 723.347 614.977 723.053 613.49C722.758 612.004 722.91 610.464 723.491 609.064C724.072 607.665 725.055 606.469 726.315 605.628C727.576 604.787 729.058 604.339 730.573 604.34C731.579 604.34 732.574 604.538 733.503 604.923C734.432 605.308 735.276 605.873 735.987 606.584C736.698 607.295 737.261 608.14 737.646 609.069C738.03 609.999 738.227 610.994 738.226 612Z" fill="#311A49"/>
<path d="M620.753 803.647C620.753 806.452 619.921 809.195 618.362 811.528C616.804 813.861 614.588 815.68 611.996 816.753C609.403 817.827 606.551 818.108 603.799 817.561C601.047 817.013 598.519 815.662 596.535 813.678C594.551 811.694 593.2 809.166 592.652 806.414C592.105 803.662 592.386 800.81 593.46 798.218C594.534 795.625 596.352 793.41 598.685 791.851C601.018 790.292 603.761 789.46 606.567 789.46C610.329 789.46 613.938 790.955 616.598 793.615C619.259 796.276 620.753 799.884 620.753 803.647Z" fill="#292A29"/>
<path d="M555.447 775.7C555.447 777.215 554.998 778.695 554.156 779.955C553.315 781.214 552.119 782.196 550.72 782.776C549.321 783.356 547.781 783.508 546.295 783.213C544.809 782.918 543.444 782.189 542.373 781.119C541.301 780.048 540.571 778.684 540.275 777.198C539.979 775.713 540.129 774.173 540.708 772.773C541.287 771.373 542.268 770.177 543.526 769.334C544.785 768.492 546.266 768.041 547.78 768.04C549.812 768.04 551.762 768.847 553.199 770.283C554.637 771.719 555.445 773.668 555.447 775.7Z" fill="#311A49"/>
</g>
<defs>
<clipPath id="clip0">
<rect width="1000" height="1000" fill="white"/>
</clipPath>
</defs>
</svg>
