<svg width="270" height="370" viewBox="0 0 270 370" fill="none" xmlns="http://www.w3.org/2000/svg">
<g clip-path="url(#clip0)">
<path fill-rule="evenodd" clip-rule="evenodd" d="M135.234 120.117C133.185 120.117 125.515 128.105 125.515 130.528C125.515 145.107 125.515 159.699 125.515 174.277C125.515 179.137 120.656 183.996 120.656 186.433C120.656 189.673 120.656 192.912 120.656 196.152C120.656 197.703 124.823 201.275 128.977 205.636C131.33 208.1 133.67 213.541 135.248 213.541C136.827 213.541 139.166 208.1 141.52 205.636C145.673 201.288 149.841 197.716 149.841 196.152C149.841 192.912 149.841 189.673 149.841 186.433C149.841 183.996 144.981 179.137 144.981 174.277C144.981 159.699 144.981 145.107 144.981 130.528C144.953 128.105 137.283 120.117 135.234 120.117Z" fill="url(#paint0_linear)"/>
<path fill-rule="evenodd" clip-rule="evenodd" d="M135.234 120.117C133.185 120.117 125.515 128.105 125.515 130.528C125.515 145.107 125.515 159.699 125.515 174.277C125.515 179.137 120.656 183.996 120.656 186.433C120.656 189.673 120.656 192.912 120.656 196.152C120.656 197.703 124.823 201.275 128.977 205.636C131.33 208.1 133.67 213.541 135.248 213.541C136.827 213.541 139.166 208.1 141.52 205.636C145.673 201.288 149.841 197.716 149.841 196.152C149.841 192.912 149.841 189.673 149.841 186.433C149.841 183.996 144.981 179.137 144.981 174.277C144.981 159.699 144.981 145.107 144.981 130.528C144.953 128.105 137.283 120.117 135.234 120.117ZM128.368 123.592C130.818 120.975 133.767 118.649 135.234 118.649C136.702 118.649 139.651 120.975 142.101 123.592C144.414 126.07 146.421 128.964 146.421 130.542V174.291C146.421 176.756 147.972 179.4 149.259 181.601C150.353 183.456 151.281 185.049 151.281 186.447V196.166C151.281 197.896 148.872 200.292 145.826 203.337C144.787 204.362 143.68 205.469 142.558 206.646C141.7 207.546 140.759 209.028 139.872 210.412C138.35 212.807 136.951 215.009 135.221 215.009C133.49 215.009 132.092 212.807 130.569 210.412C129.683 209.028 128.755 207.546 127.883 206.646C126.762 205.469 125.654 204.362 124.616 203.337C121.57 200.292 119.161 197.896 119.161 196.166V186.447C119.161 185.049 120.088 183.47 121.182 181.601C122.47 179.4 124.02 176.742 124.02 174.291V130.542C124.048 128.964 126.042 126.07 128.368 123.592Z" fill="black"/>
<path fill-rule="evenodd" clip-rule="evenodd" d="M127.191 182.861C124.892 188.15 123.439 187.762 133.144 202.756C134.155 204.307 134.708 213.001 135.234 213.001C135.761 213.001 136.314 204.307 137.325 202.756C147.044 187.734 145.576 188.191 143.264 182.875C140.177 194.117 130.278 194.117 127.191 182.861Z" fill="url(#paint1_linear)"/>
<path fill-rule="evenodd" clip-rule="evenodd" d="M135.234 120.643C131.247 120.643 130.195 135.443 130.029 137.229C131.538 133.643 133.476 132.522 135.234 132.522C136.979 132.522 139.18 133.643 140.44 137.229C139.582 127.538 138.003 120.643 135.234 120.643Z" fill="url(#paint2_linear)"/>
<path fill-rule="evenodd" clip-rule="evenodd" d="M132.77 121.474C129.752 123.855 125.516 128.728 125.516 130.542C125.516 145.12 125.516 159.713 125.516 174.291C125.516 179.151 120.656 184.01 120.656 186.447C120.656 189.687 120.656 192.926 120.656 196.166C120.656 197.716 124.823 201.288 128.977 205.65C130.652 207.408 132.313 210.661 133.712 212.406C129.946 203.905 124.699 201.233 123.868 192.525C123.73 190.988 123.646 189.16 123.646 186.918C123.646 185.755 125.114 176.673 125.114 182.03C125.114 184.453 126.886 177.116 126.886 174.471C126.886 166.178 126.886 157.885 126.886 149.578C126.886 148.789 126.249 147.114 126.249 146.325C126.249 127.856 127.828 136.578 127.828 132.439C127.814 130.044 129.157 125.073 132.77 121.474Z" fill="url(#paint3_linear)"/>
<path fill-rule="evenodd" clip-rule="evenodd" d="M137.699 121.474C140.717 123.855 144.953 128.728 144.953 130.542C144.953 145.12 144.953 159.713 144.953 174.291C144.953 179.151 149.813 184.01 149.813 186.447C149.813 189.687 149.813 192.926 149.813 196.166C149.813 197.716 145.646 201.288 141.492 205.65C139.817 207.408 138.156 210.661 136.757 212.406C140.523 203.905 145.77 201.233 146.601 192.525C146.739 190.988 146.822 189.16 146.822 186.918C146.822 185.755 145.355 176.673 145.355 182.03C145.355 184.453 143.583 177.116 143.583 174.471C143.583 166.178 143.583 157.885 143.583 149.578C143.583 148.789 144.22 147.114 144.22 146.325C144.22 127.856 142.641 136.578 142.641 132.439C142.641 130.044 141.298 125.073 137.699 121.474Z" fill="url(#paint4_linear)"/>
<path fill-rule="evenodd" clip-rule="evenodd" d="M135.235 199.239C132.715 199.239 132.507 194.989 131.275 192.469C129.517 188.87 126.748 189.423 126.277 187.679C125.308 184.052 126.388 181.518 127.938 181.574C130.278 181.67 129.863 188.219 135.235 188.219C140.606 188.219 140.191 181.67 142.531 181.574C144.081 181.504 145.161 184.052 144.192 187.679C143.721 189.423 140.952 188.87 139.194 192.469C137.962 194.989 137.754 199.239 135.235 199.239Z" fill="url(#paint5_linear)"/>
<path fill-rule="evenodd" clip-rule="evenodd" d="M135.235 188.883C129.655 188.883 129.683 182.113 127.911 182.044C125.931 181.961 126.277 187.236 126.942 188.108C128.049 189.548 130.112 189.16 131.718 192.552C132.563 194.338 133.227 199.253 135.235 199.253C137.242 199.253 137.907 194.338 138.751 192.552C140.357 189.16 142.42 189.548 143.528 188.108C144.192 187.25 144.538 181.961 142.558 182.044C140.786 182.113 140.8 188.883 135.235 188.883Z" fill="url(#paint6_radial)"/>
<path fill-rule="evenodd" clip-rule="evenodd" d="M135.234 188.884C134.127 188.884 133.241 188.621 132.521 188.191C132.064 190.697 133.241 196.166 135.234 196.166C137.228 196.166 138.419 190.697 137.948 188.191C137.228 188.621 136.342 188.884 135.234 188.884Z" fill="url(#paint7_linear)"/>
<path fill-rule="evenodd" clip-rule="evenodd" d="M135.235 188.884C134.681 188.884 133.462 188.759 132.812 188.357C132.396 190.739 133.462 195.778 135.235 195.778C137.007 195.778 138.073 190.739 137.657 188.357C137.007 188.759 135.788 188.884 135.235 188.884Z" fill="#000008"/>
<path fill-rule="evenodd" clip-rule="evenodd" d="M135.234 188.067C134.736 188.067 133.642 188.011 133.061 187.845C132.687 188.828 133.642 190.877 135.234 190.877C136.827 190.877 137.782 188.814 137.408 187.845C136.827 188.025 135.733 188.067 135.234 188.067Z" fill="url(#paint8_linear)"/>
<path fill-rule="evenodd" clip-rule="evenodd" d="M135.235 188.039C134.805 188.039 133.878 187.997 133.393 187.859C133.075 188.676 133.892 190.42 135.235 190.42C136.578 190.42 137.394 188.69 137.076 187.859C136.591 187.997 135.664 188.039 135.235 188.039Z" fill="url(#paint9_linear)"/>
<path fill-rule="evenodd" clip-rule="evenodd" d="M135.234 173.17C131.303 173.17 132.216 172.561 131.123 172.491C130.43 172.893 132.216 174.319 135.234 174.319C138.253 174.319 140.052 172.893 139.346 172.491C138.253 172.561 139.166 173.17 135.234 173.17Z" fill="url(#paint10_linear)"/>
<path opacity="0.5" fill-rule="evenodd" clip-rule="evenodd" d="M133.296 135.36C132.964 132.231 133.808 121.017 135.234 121.017C136.647 121.017 137.491 132.231 137.173 135.36C135.871 135.36 134.584 135.36 133.296 135.36Z" fill="url(#paint11_linear)"/>
<path opacity="0.5" fill-rule="evenodd" clip-rule="evenodd" d="M126.028 153.953C125.709 160.82 127.108 170.082 126.983 178.362C126.886 184.882 128.534 172.865 127.938 157.747C127.8 153.995 126.166 150.783 126.028 153.953Z" fill="url(#paint12_linear)"/>
<path opacity="0.5" fill-rule="evenodd" clip-rule="evenodd" d="M124.602 199.849C125.446 201.828 129.018 204.348 130.375 206.716C131.441 208.585 130.804 205.359 127.232 201.108C126.346 200.042 124.214 198.935 124.602 199.849Z" fill="url(#paint13_linear)"/>
<path opacity="0.5" fill-rule="evenodd" clip-rule="evenodd" d="M145.867 199.849C145.023 201.828 141.451 204.348 140.094 206.716C139.028 208.585 139.665 205.359 143.237 201.108C144.123 200.042 146.255 198.935 145.867 199.849Z" fill="url(#paint14_linear)"/>
<path opacity="0.5" fill-rule="evenodd" clip-rule="evenodd" d="M144.441 153.953C144.76 160.82 143.361 170.082 143.486 178.362C143.583 184.882 141.935 172.865 142.531 157.747C142.669 153.995 144.303 150.783 144.441 153.953Z" fill="url(#paint15_linear)"/>
<path fill-rule="evenodd" clip-rule="evenodd" d="M127.883 183.886C128.589 183.886 129.157 184.689 129.157 185.672C129.157 186.655 128.589 187.458 127.883 187.458C127.177 187.458 126.609 186.655 126.609 185.672C126.609 184.689 127.191 183.886 127.883 183.886Z" fill="url(#paint16_linear)"/>
<path fill-rule="evenodd" clip-rule="evenodd" d="M127.883 184.301C128.437 184.301 128.893 185.007 128.893 185.879C128.893 186.752 128.45 187.458 127.883 187.458C127.329 187.458 126.872 186.752 126.872 185.879C126.886 185.007 127.329 184.301 127.883 184.301Z" fill="url(#paint17_linear)"/>
<path fill-rule="evenodd" clip-rule="evenodd" d="M142.572 183.886C141.866 183.886 141.299 184.689 141.299 185.672C141.299 186.655 141.866 187.458 142.572 187.458C143.278 187.458 143.846 186.655 143.846 185.672C143.846 184.689 143.278 183.886 142.572 183.886Z" fill="url(#paint18_linear)"/>
<path fill-rule="evenodd" clip-rule="evenodd" d="M142.572 184.301C142.019 184.301 141.562 185.007 141.562 185.879C141.562 186.752 142.005 187.458 142.572 187.458C143.126 187.458 143.583 186.752 143.583 185.879C143.583 185.007 143.14 184.301 142.572 184.301Z" fill="url(#paint19_linear)"/>
<path fill-rule="evenodd" clip-rule="evenodd" d="M132.078 173.931C132.106 173.834 132.202 173.779 132.299 173.807C132.396 173.834 132.452 173.931 132.424 174.028L132.106 175.177C132.078 175.274 131.981 175.33 131.884 175.302C131.787 175.274 131.732 175.177 131.759 175.08L132.078 173.931ZM138.377 173.917C138.35 173.82 138.253 173.765 138.156 173.793C138.059 173.82 138.003 173.917 138.031 174.014L138.35 175.163C138.377 175.26 138.474 175.316 138.571 175.288C138.668 175.26 138.723 175.163 138.696 175.066L138.377 173.917ZM139.277 180.978C139.277 180.881 139.194 180.798 139.097 180.798C139 180.798 138.917 180.881 138.917 180.978C138.917 181.518 138.876 182.501 138.682 183.263C138.599 183.567 138.502 183.83 138.363 184.01C138.253 184.162 138.1 184.259 137.934 184.259C137.879 184.259 137.837 184.246 137.782 184.232C137.685 184.204 137.588 184.259 137.56 184.356C137.533 184.453 137.588 184.55 137.685 184.578C137.768 184.605 137.851 184.605 137.934 184.619C138.239 184.619 138.474 184.467 138.654 184.218C138.82 183.996 138.945 183.692 139.042 183.346C139.236 182.543 139.277 181.532 139.277 180.978ZM131.178 180.978C131.178 180.881 131.261 180.798 131.358 180.798C131.455 180.798 131.538 180.881 131.538 180.978C131.538 181.518 131.579 182.501 131.773 183.263C131.856 183.567 131.953 183.83 132.092 184.01C132.202 184.162 132.355 184.259 132.521 184.259C132.576 184.259 132.618 184.246 132.673 184.232C132.77 184.204 132.867 184.259 132.895 184.356C132.922 184.453 132.867 184.55 132.77 184.578C132.687 184.605 132.604 184.619 132.521 184.619C132.216 184.619 131.981 184.467 131.801 184.218C131.635 183.996 131.51 183.692 131.413 183.346C131.22 182.556 131.178 181.546 131.178 180.978Z" fill="#00045D"/>
<path fill-rule="evenodd" clip-rule="evenodd" d="M135.234 181.933C136.605 181.933 137.727 183.055 137.727 184.426C137.727 185.796 136.605 186.918 135.234 186.918C133.864 186.918 132.742 185.796 132.742 184.426C132.742 183.041 133.85 181.933 135.234 181.933Z" fill="url(#paint20_linear)"/>
<path d="M135.234 186.585C136.427 186.585 137.394 185.618 137.394 184.426C137.394 183.233 136.427 182.266 135.234 182.266C134.042 182.266 133.075 183.233 133.075 184.426C133.075 185.618 134.042 186.585 135.234 186.585Z" fill="url(#paint21_linear)"/>
<path fill-rule="evenodd" clip-rule="evenodd" d="M135.234 186.322C134.182 186.322 133.338 185.464 133.338 184.426C133.338 183.373 134.196 182.529 135.234 182.529C136.287 182.529 137.131 183.387 137.131 184.426C137.131 185.478 136.287 186.322 135.234 186.322Z" fill="url(#paint22_linear)"/>
<path fill-rule="evenodd" clip-rule="evenodd" d="M134.985 183.013V185.838C134.21 185.838 133.573 185.201 133.573 184.426C133.573 183.636 134.21 183.013 134.985 183.013Z" fill="url(#paint23_linear)"/>
<path fill-rule="evenodd" clip-rule="evenodd" d="M134.778 183.373V185.478C134.238 185.478 133.795 185.007 133.795 184.426C133.795 183.844 134.224 183.373 134.778 183.373Z" fill="url(#paint24_linear)"/>
<path opacity="0.5" fill-rule="evenodd" clip-rule="evenodd" d="M134.985 183.013C134.653 183.526 134.321 184.412 134.598 185.782C134.238 185.685 133.933 185.436 133.753 185.118C134.265 185.381 134.473 183.484 133.891 183.526C134.155 183.207 134.542 183.013 134.985 183.013Z" fill="url(#paint25_linear)"/>
<path fill-rule="evenodd" clip-rule="evenodd" d="M135.484 183.013L135.456 185.838C136.231 185.838 136.882 185.215 136.882 184.439C136.896 183.65 136.273 183.013 135.484 183.013Z" fill="url(#paint26_linear)"/>
<path fill-rule="evenodd" clip-rule="evenodd" d="M135.705 183.373L135.691 185.478C136.231 185.478 136.674 185.021 136.674 184.439C136.674 183.858 136.245 183.373 135.705 183.373Z" fill="url(#paint27_linear)"/>
<path opacity="0.5" fill-rule="evenodd" clip-rule="evenodd" d="M135.484 183.013C135.816 183.526 136.134 184.412 135.844 185.796C136.204 185.699 136.508 185.464 136.688 185.146C136.162 185.409 135.982 183.498 136.564 183.553C136.328 183.221 135.927 183.013 135.484 183.013Z" fill="url(#paint28_linear)"/>
<path fill-rule="evenodd" clip-rule="evenodd" d="M130.416 174.707L132.909 175.399C133.518 175.565 134.002 176.133 134.002 176.645V180.784C134.002 181.297 133.504 181.587 132.909 181.421L130.416 180.729C129.807 180.563 129.323 179.995 129.323 179.483V175.343C129.323 174.817 129.807 174.527 130.416 174.707Z" fill="url(#paint29_linear)"/>
<path fill-rule="evenodd" clip-rule="evenodd" d="M130.596 175.62L132.729 176.216C133.241 176.354 133.67 176.839 133.67 177.282V180.826C133.67 181.269 133.241 181.504 132.729 181.366L130.596 180.771C130.084 180.632 129.655 180.148 129.655 179.704V176.16C129.655 175.717 130.084 175.468 130.596 175.62Z" fill="url(#paint30_linear)"/>
<path fill-rule="evenodd" clip-rule="evenodd" d="M129.669 176.16L133.684 177.351L133.698 178.099L129.669 176.949V176.16ZM129.669 178.445L133.684 179.635L133.698 180.383L129.669 179.234V178.445ZM129.669 177.309V178.099L133.698 179.248L133.684 178.5L129.669 177.309Z" fill="#000008"/>
<path fill-rule="evenodd" clip-rule="evenodd" d="M140.052 174.707L137.56 175.399C136.951 175.565 136.467 176.133 136.467 176.645V180.784C136.467 181.297 136.965 181.587 137.56 181.421L140.052 180.729C140.662 180.563 141.146 179.995 141.146 179.483V175.343C141.146 174.817 140.648 174.527 140.052 174.707Z" fill="url(#paint31_linear)"/>
<path fill-rule="evenodd" clip-rule="evenodd" d="M139.858 175.62L137.726 176.216C137.214 176.354 136.785 176.839 136.785 177.282V180.826C136.785 181.269 137.214 181.504 137.726 181.366L139.858 180.771C140.371 180.632 140.8 180.148 140.8 179.704V176.16C140.814 175.717 140.385 175.468 139.858 175.62Z" fill="url(#paint32_linear)"/>
<path fill-rule="evenodd" clip-rule="evenodd" d="M140.8 176.16L136.785 177.351L136.771 178.099L140.8 176.949V176.16ZM140.8 178.445L136.785 179.635L136.771 180.383L140.8 179.234V178.445ZM140.8 177.309V178.099L136.771 179.248L136.785 178.5L140.8 177.309Z" fill="#000008"/>
<path fill-rule="evenodd" clip-rule="evenodd" d="M135.234 174.554C133.656 174.554 132.161 174.264 130.68 173.696C130.555 173.654 130.5 173.516 130.541 173.391C130.984 172.187 129.406 171.688 129.074 172.671C129.032 172.796 128.894 172.865 128.769 172.824C127.661 172.367 126.637 171.481 125.377 171.481V170.982C126.485 170.982 127.758 171.744 128.741 172.256C129.434 171.052 131.427 171.785 131.081 173.322C132.438 173.821 133.795 174.07 135.248 174.07V174.554H135.234ZM135.234 200.333V199.849C133.213 199.849 133.365 202.382 132.202 202.991C131.981 202.216 131.69 201.441 131.372 200.707L131.704 200.582C132.05 200.458 131.856 199.945 131.51 200.07L131.136 200.209C130.666 199.198 130.167 198.298 129.766 197.578C129.129 196.457 127.301 193.3 126.554 191.957C125.765 190.531 125.585 186.308 125.543 182.21H125.889C126.249 182.21 126.249 181.657 125.889 181.657H125.543C125.529 178.652 125.571 175.786 125.515 174.222L125.031 175.565C125.086 177.199 125.045 179.386 125.045 181.657H124.699C124.339 181.657 124.339 182.21 124.699 182.21H125.045C125.031 185.658 125.114 189.202 125.751 191.237C125.557 191.209 125.363 191.237 125.183 191.334C124.796 191.556 124.228 192.206 124.186 192.677C124.159 192.926 124.2 193.189 124.339 193.397C124.602 193.84 125.266 195.058 125.959 196.304C125.432 196.692 124.906 197.357 124.366 198.035C123.896 198.63 123.411 199.253 122.927 199.669L123.245 200.029C123.771 199.572 124.269 198.949 124.74 198.326C125.239 197.689 125.723 197.066 126.18 196.72C126.969 198.118 127.758 199.461 128.021 199.71C128.16 199.835 128.326 199.918 128.492 199.945C129.032 200.015 129.683 199.378 129.918 198.824C130.153 199.253 130.417 199.779 130.666 200.333L130.375 200.444C130.029 200.568 130.223 201.081 130.569 200.956L130.887 200.832C131.967 203.365 132.853 206.688 131.04 208.502L131.386 208.848C132.756 207.477 132.812 205.47 132.313 203.434C133.781 202.839 133.573 200.333 135.234 200.333ZM127.121 137.727L127.44 137.852C127.689 136.412 128.049 135.374 128.603 135.208V132.009C128.603 131.428 128.769 130.487 129.129 130.016C129.697 129.268 130.278 128.521 130.846 127.759C130.943 127.621 131.067 127.538 131.192 127.482C131.538 127.344 131.856 127.524 132.009 127.842C132.092 128.022 132.147 128.299 132.147 128.631V130.14C133.227 129.864 133.919 128.742 135.234 128.742V129.227C134.099 129.227 133.241 130.417 132.147 130.639V132.397C132.147 132.979 131.981 133.92 131.621 134.391C131.289 134.82 129.918 136.772 129.558 136.91C128.797 137.215 128.603 136.232 128.603 135.692C128.257 135.9 128.021 136.758 127.855 137.99L128.243 138.143C128.589 138.267 128.381 138.793 128.049 138.655L127.786 138.558C127.62 139.998 127.551 141.812 127.509 143.597H127.883C128.243 143.597 128.243 144.151 127.883 144.151H127.509C127.468 146.699 127.509 149.094 127.509 150.105C127.648 150.326 127.772 150.561 127.911 150.797C128.492 151.835 129.06 152.804 129.42 152.804V153.289C128.769 153.289 128.146 152.195 127.481 151.032C126.817 149.855 126.111 148.623 125.529 148.623V148.139C126.055 148.139 126.554 148.651 127.025 149.343C127.011 148.319 126.983 146.339 127.011 144.165H126.692C126.332 144.165 126.332 143.611 126.692 143.611H127.025C127.066 141.812 127.163 139.942 127.371 138.42L126.941 138.253C126.582 138.115 126.775 137.603 127.121 137.727ZM129.503 130.32C129.267 130.625 129.074 131.386 129.074 132.009C129.074 133.269 129.074 134.515 129.074 135.761C129.074 136.398 129.267 136.661 129.503 136.357C130.07 135.609 130.652 134.861 131.219 134.1C131.455 133.795 131.649 133.034 131.649 132.397C131.649 131.151 131.649 129.891 131.649 128.645C131.649 128.008 131.455 127.745 131.219 128.05C130.652 128.811 130.084 129.559 129.503 130.32ZM124.837 192.331L125.322 191.819C125.515 191.611 125.792 191.652 125.931 191.916L129.461 198.021C129.6 198.27 129.572 198.644 129.378 198.838L128.88 199.35C128.686 199.544 128.409 199.502 128.271 199.253L124.74 193.148C124.616 192.899 124.643 192.539 124.837 192.331Z" fill="#00045D"/>
<path fill-rule="evenodd" clip-rule="evenodd" d="M135.235 174.554C136.813 174.554 138.308 174.264 139.789 173.696C139.914 173.654 139.969 173.516 139.928 173.391C139.485 172.187 141.063 171.688 141.395 172.671C141.437 172.796 141.575 172.865 141.7 172.824C142.808 172.367 143.832 171.481 145.092 171.481V170.982C143.984 170.982 142.711 171.744 141.728 172.256C141.035 171.052 139.042 171.785 139.388 173.322C138.031 173.821 136.674 174.07 135.221 174.07V174.554H135.235ZM135.235 200.333V199.849C137.256 199.849 137.104 202.382 138.267 202.991C138.488 202.216 138.779 201.441 139.097 200.707L138.765 200.582C138.419 200.458 138.613 199.945 138.959 200.07L139.333 200.209C139.803 199.198 140.302 198.298 140.703 197.578C141.34 196.457 143.168 193.3 143.915 191.957C144.704 190.531 144.884 186.308 144.926 182.21H144.58C144.22 182.21 144.22 181.657 144.58 181.657H144.926C144.94 178.652 144.898 175.786 144.954 174.222L145.438 175.565C145.383 177.199 145.424 179.386 145.424 181.657H145.77C146.13 181.657 146.13 182.21 145.77 182.21H145.424C145.438 185.658 145.355 189.202 144.718 191.237C144.912 191.209 145.106 191.237 145.286 191.334C145.673 191.556 146.241 192.206 146.283 192.677C146.31 192.926 146.269 193.189 146.13 193.397C145.867 193.84 145.203 195.058 144.511 196.304C145.037 196.692 145.563 197.357 146.103 198.035C146.573 198.63 147.058 199.253 147.542 199.669L147.224 200.029C146.698 199.572 146.2 198.949 145.729 198.326C145.23 197.689 144.746 197.066 144.289 196.72C143.5 198.118 142.711 199.461 142.448 199.71C142.309 199.835 142.143 199.918 141.977 199.945C141.437 200.015 140.786 199.378 140.551 198.824C140.316 199.253 140.053 199.779 139.803 200.333L140.094 200.444C140.44 200.568 140.246 201.081 139.9 200.956L139.582 200.832C138.502 203.365 137.616 206.688 139.429 208.502L139.083 208.848C137.713 207.477 137.657 205.47 138.156 203.434C136.688 202.839 136.896 200.333 135.235 200.333ZM143.348 137.727L143.029 137.852C142.78 136.412 142.42 135.374 141.866 135.208V132.009C141.866 131.428 141.7 130.487 141.34 130.016C140.772 129.268 140.191 128.521 139.623 127.759C139.526 127.621 139.402 127.538 139.277 127.482C138.931 127.344 138.613 127.524 138.46 127.842C138.377 128.022 138.322 128.299 138.322 128.631V130.14C137.242 129.864 136.55 128.742 135.235 128.742V129.227C136.37 129.227 137.228 130.417 138.322 130.639V132.397C138.322 132.979 138.488 133.92 138.848 134.391C139.18 134.82 140.551 136.772 140.911 136.91C141.672 137.215 141.866 136.232 141.866 135.692C142.212 135.9 142.448 136.758 142.614 137.99L142.226 138.143C141.88 138.267 142.088 138.793 142.42 138.655L142.683 138.558C142.849 139.998 142.918 141.812 142.96 143.597H142.586C142.226 143.597 142.226 144.151 142.586 144.151H142.96C143.001 146.699 142.96 149.094 142.96 150.105C142.821 150.326 142.697 150.561 142.558 150.797C141.977 151.835 141.409 152.804 141.049 152.804V153.289C141.7 153.289 142.323 152.195 142.988 151.032C143.652 149.855 144.358 148.623 144.94 148.623V148.139C144.414 148.139 143.915 148.651 143.444 149.343C143.458 148.319 143.5 146.339 143.458 144.165H143.777C144.137 144.165 144.137 143.611 143.777 143.611H143.444C143.403 141.812 143.306 139.942 143.098 138.42L143.528 138.253C143.887 138.115 143.68 137.603 143.348 137.727ZM140.952 130.32C141.188 130.625 141.382 131.386 141.382 132.009C141.382 133.269 141.382 134.515 141.382 135.761C141.382 136.398 141.188 136.661 140.952 136.357C140.385 135.609 139.803 134.861 139.236 134.1C139 133.795 138.806 133.034 138.806 132.397C138.806 131.151 138.806 129.891 138.806 128.645C138.806 128.008 139 127.745 139.236 128.05C139.803 128.811 140.385 129.559 140.952 130.32ZM145.618 192.331L145.12 191.819C144.926 191.611 144.649 191.652 144.511 191.916L140.98 198.021C140.842 198.27 140.869 198.644 141.063 198.838L141.562 199.35C141.755 199.544 142.032 199.502 142.171 199.253L145.701 193.148C145.853 192.899 145.812 192.539 145.618 192.331Z" fill="#00045D"/>
<path opacity="0.5" fill-rule="evenodd" clip-rule="evenodd" d="M135.234 120.117C133.185 120.117 125.516 128.105 125.516 130.528C125.516 131.885 125.516 137.506 125.516 138.849C125.516 132.66 131.69 127.856 135.234 127.856C138.779 127.856 144.953 132.66 144.953 138.849C144.953 137.492 144.953 131.871 144.953 130.528C144.953 128.105 137.284 120.117 135.234 120.117Z" fill="url(#paint33_linear)"/>
<path opacity="0.5" fill-rule="evenodd" clip-rule="evenodd" d="M134.362 120.394C130.735 122.637 125.502 128.867 125.502 130.542C125.502 145.12 125.502 159.713 125.502 174.291C125.502 179.151 120.642 184.01 120.642 186.447C120.642 189.686 120.642 192.926 120.642 196.166C120.642 197.716 124.809 201.288 128.963 205.649C131.316 208.114 133.656 213.555 135.234 213.555C132.659 208.28 128.229 198.782 127.814 196.097C127.232 192.317 125.612 188.593 125.612 185.062C125.612 177.683 129.184 184.273 129.184 174.97C129.184 159.062 129.087 151.683 129.087 135.775C129.087 127.911 132.742 122.457 134.362 120.394Z" fill="url(#paint34_linear)"/>
<path opacity="0.5" fill-rule="evenodd" clip-rule="evenodd" d="M136.107 120.394C139.734 122.637 144.967 128.867 144.967 130.542C144.967 145.12 144.967 159.713 144.967 174.291C144.967 179.151 149.827 184.01 149.827 186.447C149.827 189.686 149.827 192.926 149.827 196.166C149.827 197.716 145.659 201.288 141.506 205.649C139.152 208.114 136.813 213.555 135.234 213.555C137.809 208.28 142.24 198.782 142.655 196.097C143.237 192.317 144.856 188.593 144.856 185.062C144.856 177.683 141.285 184.273 141.285 174.97C141.285 159.062 141.381 151.683 141.381 135.775C141.381 127.911 137.713 122.457 136.107 120.394Z" fill="url(#paint35_linear)"/>
<path fill-rule="evenodd" clip-rule="evenodd" d="M135.235 133.629C132.978 133.629 129.849 139.264 129.849 141.964V161.873C129.849 163.382 133.449 163.243 135.235 163.243C137.034 163.243 140.62 163.395 140.62 161.873V141.964C140.62 139.264 137.477 133.629 135.235 133.629ZM135.235 133.186C138.031 133.186 141.063 139.486 141.063 141.964V161.873C141.063 163.935 136.661 163.672 135.235 163.672C133.809 163.672 129.406 163.935 129.406 161.873V141.964C129.406 139.486 132.438 133.186 135.235 133.186Z" fill="#00045D"/>
<path fill-rule="evenodd" clip-rule="evenodd" d="M135.234 133.629C132.978 133.629 129.849 139.264 129.849 141.964C129.849 149.052 129.849 154.784 129.849 161.873C129.849 163.382 133.448 163.243 135.234 163.243C137.034 163.243 140.62 163.396 140.62 161.873C140.62 154.784 140.62 149.052 140.62 141.964C140.62 139.264 137.477 133.629 135.234 133.629Z" fill="url(#paint36_linear)"/>
<path fill-rule="evenodd" clip-rule="evenodd" d="M135.234 134.086C133.158 134.086 130.25 139.541 130.25 142.158C130.25 149.025 130.25 154.576 130.25 161.443C130.25 162.911 133.573 162.759 135.234 162.759C136.896 162.759 140.219 162.911 140.219 161.443C140.219 154.576 140.219 149.025 140.219 142.158C140.219 139.555 137.311 134.086 135.234 134.086Z" fill="url(#paint37_radial)"/>
<path fill-rule="evenodd" clip-rule="evenodd" d="M135.234 134.086C133.158 134.086 130.25 139.541 130.25 142.158C130.25 145.467 140.219 145.66 140.219 142.158C140.219 139.555 137.311 134.086 135.234 134.086Z" fill="url(#paint38_linear)"/>
<path opacity="0.5" fill-rule="evenodd" clip-rule="evenodd" d="M135.234 136.772C134.03 136.772 132.341 141.202 132.341 143.334C132.341 148.914 132.341 153.427 132.341 159.007C132.341 160.197 134.265 160.087 135.234 160.087C136.204 160.087 138.128 160.211 138.128 159.007C138.128 153.427 138.128 148.914 138.128 143.334C138.128 141.216 136.439 136.772 135.234 136.772Z" fill="url(#paint39_linear)"/>
<path opacity="0.5" fill-rule="evenodd" clip-rule="evenodd" d="M130.25 156.667C130.25 157.456 130.25 160.668 130.25 161.443C130.25 162.911 133.573 162.759 135.234 162.759C136.896 162.759 140.219 162.911 140.219 161.443C140.219 160.654 140.219 157.442 140.219 156.667C140.219 163.742 130.25 163.576 130.25 156.667Z" fill="url(#paint40_linear)"/>
<path opacity="0.5" fill-rule="evenodd" clip-rule="evenodd" d="M135.235 134.1C133.393 134.1 130.901 138.392 130.361 141.189C133.462 136.329 137.007 136.329 140.122 141.189C139.568 138.378 137.076 134.1 135.235 134.1Z" fill="url(#paint41_linear)"/>
<path opacity="0.5" fill-rule="evenodd" clip-rule="evenodd" d="M133.753 134.82C131.995 136.398 130.25 140.136 130.25 142.171C132.798 137.769 139.859 157.83 140.219 161.457C140.219 158.73 140.219 156.21 140.219 153.732C140.219 156.667 130.583 139.707 133.753 134.82Z" fill="url(#paint42_linear)"/>
<path fill-rule="evenodd" clip-rule="evenodd" d="M135.234 164.572C136.827 164.572 138.973 164.6 140.357 163.783C140.717 163.575 141.174 163.839 141.118 164.254C140.842 166.137 140.329 167.992 139.942 169.861C139.512 171.91 137.048 172.547 135.234 172.547C133.421 172.547 130.984 171.91 130.527 169.875C130.126 168.047 129.627 166.095 129.35 164.254C129.295 163.866 129.71 163.562 130.07 163.755C131.483 164.572 133.642 164.572 135.234 164.572Z" fill="#00045D"/>
<path fill-rule="evenodd" clip-rule="evenodd" d="M129.987 165.085C130.278 166.635 130.693 168.241 130.998 169.75C131.358 171.495 133.559 172.048 135.234 172.048C136.896 172.048 139.111 171.495 139.471 169.75C139.789 168.241 140.191 166.635 140.482 165.085C140.551 164.711 140.191 164.406 139.845 164.545C138.405 165.057 136.605 165.057 135.248 165.057C133.891 165.057 132.078 165.057 130.652 164.545C130.278 164.42 129.918 164.725 129.987 165.085Z" fill="url(#paint43_radial)"/>
<path opacity="0.5" fill-rule="evenodd" clip-rule="evenodd" d="M131.773 166.677C131.773 166.026 133.919 166.829 135.221 166.829C136.536 166.829 138.668 166.012 138.668 166.677C138.668 167.535 136.937 168.601 135.221 168.601C133.518 168.601 131.773 167.535 131.773 166.677Z" fill="url(#paint44_linear)"/>
<path opacity="0.5" fill-rule="evenodd" clip-rule="evenodd" d="M129.987 165.084C130.098 165.652 130.209 166.234 130.347 166.815C131.441 165.708 138.405 166.22 138.405 171.259C138.931 170.913 139.332 170.415 139.457 169.764C139.775 168.255 140.177 166.649 140.468 165.098C139.609 169.792 130.624 164.835 130.624 164.558C130.278 164.42 129.918 164.725 129.987 165.084Z" fill="url(#paint45_linear)"/>
</g>
<defs>
<linearGradient id="paint0_linear" x1="135.232" y1="213.543" x2="135.234" y2="121.127" gradientUnits="userSpaceOnUse">
<stop stop-color="#3654A5"/>
<stop offset="1" stop-color="#5781C1"/>
</linearGradient>
<linearGradient id="paint1_linear" x1="135.235" y1="179.102" x2="135.235" y2="212.032" gradientUnits="userSpaceOnUse">
<stop stop-color="#3654A5"/>
<stop offset="1" stop-color="#5F94CE"/>
</linearGradient>
<linearGradient id="paint2_linear" x1="135.233" y1="132.341" x2="135.235" y2="120.897" gradientUnits="userSpaceOnUse">
<stop stop-color="#5781C1"/>
<stop offset="1" stop-color="#6FA1D6"/>
</linearGradient>
<linearGradient id="paint3_linear" x1="127.173" y1="205.025" x2="127.175" y2="124.351" gradientUnits="userSpaceOnUse">
<stop stop-color="#3654A5"/>
<stop offset="0.42" stop-color="#313092"/>
<stop offset="1" stop-color="#416DB5"/>
</linearGradient>
<linearGradient id="paint4_linear" x1="143.292" y1="205.025" x2="143.289" y2="124.351" gradientUnits="userSpaceOnUse">
<stop stop-color="#3654A5"/>
<stop offset="0.42" stop-color="#313092"/>
<stop offset="1" stop-color="#416DB5"/>
</linearGradient>
<linearGradient id="paint5_linear" x1="135.233" y1="188.292" x2="135.235" y2="199.113" gradientUnits="userSpaceOnUse">
<stop stop-color="#25409A"/>
<stop offset="1" stop-color="#AADDDD"/>
</linearGradient>
<radialGradient id="paint6_radial" cx="0" cy="0" r="1" gradientUnits="userSpaceOnUse" gradientTransform="translate(135.232 199.24) scale(11.7999)">
<stop stop-color="#5781C1"/>
<stop offset="1" stop-color="#2B2477"/>
</radialGradient>
<linearGradient id="paint7_linear" x1="135.232" y1="189.069" x2="135.234" y2="196.16" gradientUnits="userSpaceOnUse">
<stop/>
<stop offset="1" stop-color="#6FA1D6"/>
</linearGradient>
<linearGradient id="paint8_linear" x1="135.232" y1="189.007" x2="135.233" y2="190.869" gradientUnits="userSpaceOnUse">
<stop stop-color="#25409A"/>
<stop offset="1" stop-color="#AADDDD"/>
</linearGradient>
<linearGradient id="paint9_linear" x1="135.232" y1="188.052" x2="135.233" y2="190.409" gradientUnits="userSpaceOnUse">
<stop stop-color="#4361AD"/>
<stop offset="1" stop-color="#5F94CE"/>
</linearGradient>
<linearGradient id="paint10_linear" x1="135.232" y1="172.631" x2="135.232" y2="174.314" gradientUnits="userSpaceOnUse">
<stop stop-color="#4361AD"/>
<stop offset="1" stop-color="#5F94CE"/>
</linearGradient>
<linearGradient id="paint11_linear" x1="135.232" y1="135.01" x2="135.235" y2="121.019" gradientUnits="userSpaceOnUse">
<stop stop-color="#6FA1D6"/>
<stop offset="1" stop-color="white"/>
</linearGradient>
<linearGradient id="paint12_linear" x1="130.592" y1="164.472" x2="122.199" y2="168.723" gradientUnits="userSpaceOnUse">
<stop stop-color="#6FA1D6"/>
<stop offset="1" stop-color="white"/>
</linearGradient>
<linearGradient id="paint13_linear" x1="128.144" y1="201.826" x2="127.213" y2="205.118" gradientUnits="userSpaceOnUse">
<stop stop-color="#6FA1D6"/>
<stop offset="1" stop-color="white"/>
</linearGradient>
<linearGradient id="paint14_linear" x1="142.32" y1="201.826" x2="143.251" y2="205.118" gradientUnits="userSpaceOnUse">
<stop stop-color="#6FA1D6"/>
<stop offset="1" stop-color="white"/>
</linearGradient>
<linearGradient id="paint15_linear" x1="139.873" y1="164.472" x2="148.266" y2="168.723" gradientUnits="userSpaceOnUse">
<stop stop-color="#6FA1D6"/>
<stop offset="1" stop-color="white"/>
</linearGradient>
<linearGradient id="paint16_linear" x1="127.884" y1="183.884" x2="127.886" y2="187.456" gradientUnits="userSpaceOnUse">
<stop stop-color="#2B2477"/>
<stop offset="1" stop-color="#6FA1D6"/>
</linearGradient>
<linearGradient id="paint17_linear" x1="127.885" y1="184.574" x2="127.885" y2="187.447" gradientUnits="userSpaceOnUse">
<stop/>
<stop offset="1" stop-color="#3654A5"/>
</linearGradient>
<linearGradient id="paint18_linear" x1="142.58" y1="183.884" x2="142.578" y2="187.456" gradientUnits="userSpaceOnUse">
<stop stop-color="#2B2477"/>
<stop offset="1" stop-color="#6FA1D6"/>
</linearGradient>
<linearGradient id="paint19_linear" x1="142.579" y1="184.574" x2="142.579" y2="187.447" gradientUnits="userSpaceOnUse">
<stop/>
<stop offset="1" stop-color="#3654A5"/>
</linearGradient>
<linearGradient id="paint20_linear" x1="135.232" y1="186.37" x2="135.233" y2="182.223" gradientUnits="userSpaceOnUse">
<stop stop-color="#3654A5"/>
<stop offset="1"/>
</linearGradient>
<linearGradient id="paint21_linear" x1="135.231" y1="182.256" x2="135.233" y2="186.587" gradientUnits="userSpaceOnUse">
<stop stop-color="#2B2477"/>
<stop offset="1" stop-color="#6FA1D6"/>
</linearGradient>
<linearGradient id="paint22_linear" x1="135.232" y1="185.91" x2="135.233" y2="182.742" gradientUnits="userSpaceOnUse">
<stop stop-color="#3654A5"/>
<stop offset="1"/>
</linearGradient>
<linearGradient id="paint23_linear" x1="134.28" y1="185.395" x2="134.282" y2="183.441" gradientUnits="userSpaceOnUse">
<stop stop-color="#3D0000"/>
<stop offset="1" stop-color="#794503"/>
</linearGradient>
<linearGradient id="paint24_linear" x1="134.28" y1="185.162" x2="134.282" y2="183.871" gradientUnits="userSpaceOnUse">
<stop stop-color="#EF4423"/>
<stop offset="1" stop-color="#E4E526"/>
</linearGradient>
<linearGradient id="paint25_linear" x1="134.765" y1="185.378" x2="134.339" y2="183.949" gradientUnits="userSpaceOnUse">
<stop stop-color="#EF4423"/>
<stop offset="1" stop-color="white"/>
</linearGradient>
<linearGradient id="paint26_linear" x1="136.175" y1="185.406" x2="136.19" y2="183.458" gradientUnits="userSpaceOnUse">
<stop stop-color="#3D0000"/>
<stop offset="1" stop-color="#794503"/>
</linearGradient>
<linearGradient id="paint27_linear" x1="136.177" y1="185.172" x2="136.186" y2="183.884" gradientUnits="userSpaceOnUse">
<stop stop-color="#EF4423"/>
<stop offset="1" stop-color="#E4E526"/>
</linearGradient>
<linearGradient id="paint28_linear" x1="135.69" y1="185.385" x2="136.128" y2="183.961" gradientUnits="userSpaceOnUse">
<stop stop-color="#EF4423"/>
<stop offset="1" stop-color="white"/>
</linearGradient>
<linearGradient id="paint29_linear" x1="131.667" y1="175.355" x2="131.668" y2="181.018" gradientUnits="userSpaceOnUse">
<stop stop-color="#2B2477"/>
<stop offset="1" stop-color="#3654A5"/>
</linearGradient>
<linearGradient id="paint30_linear" x1="131.667" y1="180.771" x2="131.669" y2="175.917" gradientUnits="userSpaceOnUse">
<stop stop-color="#3654A5"/>
<stop offset="1"/>
</linearGradient>
<linearGradient id="paint31_linear" x1="138.798" y1="175.355" x2="138.796" y2="181.018" gradientUnits="userSpaceOnUse">
<stop stop-color="#2B2477"/>
<stop offset="1" stop-color="#3654A5"/>
</linearGradient>
<linearGradient id="paint32_linear" x1="138.797" y1="180.771" x2="138.795" y2="175.917" gradientUnits="userSpaceOnUse">
<stop stop-color="#3654A5"/>
<stop offset="1"/>
</linearGradient>
<linearGradient id="paint33_linear" x1="135.231" y1="120.065" x2="135.232" y2="136.082" gradientUnits="userSpaceOnUse">
<stop stop-color="#140C4F"/>
<stop offset="1" stop-color="white"/>
</linearGradient>
<linearGradient id="paint34_linear" x1="123.723" y1="166.969" x2="135.221" y2="166.968" gradientUnits="userSpaceOnUse">
<stop stop-color="#140C4F"/>
<stop offset="1" stop-color="white"/>
</linearGradient>
<linearGradient id="paint35_linear" x1="146.741" y1="166.969" x2="135.243" y2="166.968" gradientUnits="userSpaceOnUse">
<stop stop-color="#140C4F"/>
<stop offset="1" stop-color="white"/>
</linearGradient>
<linearGradient id="paint36_linear" x1="135.231" y1="134.095" x2="135.233" y2="163.237" gradientUnits="userSpaceOnUse">
<stop stop-color="#5F94CE"/>
<stop offset="1" stop-color="#2B2477"/>
</linearGradient>
<radialGradient id="paint37_radial" cx="0" cy="0" r="1" gradientUnits="userSpaceOnUse" gradientTransform="translate(135.324 143.524) rotate(-90.0059) scale(15.572 6.66947)">
<stop stop-color="#3654A5"/>
<stop offset="1"/>
</radialGradient>
<linearGradient id="paint38_linear" x1="135.232" y1="145.117" x2="135.234" y2="134.094" gradientUnits="userSpaceOnUse">
<stop/>
<stop offset="1" stop-color="#3654A5"/>
</linearGradient>
<linearGradient id="paint39_linear" x1="135.231" y1="159.701" x2="135.233" y2="136.978" gradientUnits="userSpaceOnUse">
<stop/>
<stop offset="1" stop-color="#AADDDD"/>
</linearGradient>
<linearGradient id="paint40_linear" x1="135.23" y1="162.77" x2="135.233" y2="158.351" gradientUnits="userSpaceOnUse">
<stop stop-color="#2B2477"/>
<stop offset="1" stop-color="white"/>
</linearGradient>
<linearGradient id="paint41_linear" x1="135.229" y1="134.096" x2="135.231" y2="138.541" gradientUnits="userSpaceOnUse">
<stop stop-color="#AADDDD"/>
<stop offset="1" stop-color="#3654A5"/>
</linearGradient>
<linearGradient id="paint42_linear" x1="140.814" y1="156.642" x2="133.109" y2="140.785" gradientUnits="userSpaceOnUse">
<stop stop-color="#3654A5"/>
<stop offset="1" stop-color="white"/>
</linearGradient>
<radialGradient id="paint43_radial" cx="0" cy="0" r="1" gradientUnits="userSpaceOnUse" gradientTransform="translate(135.231 166.168) rotate(-90.015) scale(5.08636 3.67336)">
<stop stop-color="#3654A5"/>
<stop offset="1"/>
</radialGradient>
<linearGradient id="paint44_linear" x1="135.232" y1="166.416" x2="135.232" y2="168.576" gradientUnits="userSpaceOnUse">
<stop/>
<stop offset="1" stop-color="#AADDDD"/>
</linearGradient>
<linearGradient id="paint45_linear" x1="138.57" y1="167.803" x2="130.538" y2="164.412" gradientUnits="userSpaceOnUse">
<stop stop-color="#3654A5"/>
<stop offset="1" stop-color="white"/>
</linearGradient>
<clipPath id="clip0">
<rect x="61.7052" y="118.649" width="147.059" height="117.32" fill="white"/>
</clipPath>
</defs>
</svg>
