<svg width="270" height="370" viewBox="0 0 270 370" fill="none" xmlns="http://www.w3.org/2000/svg">
<g clip-path="url(#clip0)">
<path fill-rule="evenodd" clip-rule="evenodd" d="M135.276 123.786C133.227 123.786 125.557 131.774 125.557 134.197C125.557 148.775 125.557 159.699 125.557 174.277C125.557 179.137 120.698 183.996 120.698 186.433C120.698 189.673 120.698 192.912 120.698 196.152C120.698 197.703 124.865 201.275 129.018 205.622C131.372 208.086 127.537 200.513 135.29 200.513C143.043 200.513 139.208 208.072 141.562 205.622C145.715 201.275 149.882 197.703 149.882 196.152C149.882 192.912 149.882 189.673 149.882 186.433C149.882 183.996 145.023 179.137 145.023 174.277C145.023 159.699 145.023 148.775 145.023 134.197C144.995 131.774 137.325 123.786 135.276 123.786Z" fill="url(#paint0_linear)"/>
<path fill-rule="evenodd" clip-rule="evenodd" d="M135.276 123.786C133.227 123.786 125.557 131.774 125.557 134.197C125.557 148.775 125.557 159.699 125.557 174.277C125.557 179.137 120.698 183.996 120.698 186.433C120.698 189.673 120.698 192.912 120.698 196.152C120.698 197.703 124.865 201.275 129.018 205.622C131.372 208.086 127.537 200.513 135.29 200.513C143.043 200.513 139.208 208.072 141.562 205.622C145.715 201.275 149.882 197.703 149.882 196.152C149.882 192.912 149.882 189.673 149.882 186.433C149.882 183.996 145.023 179.137 145.023 174.277C145.023 159.699 145.023 148.775 145.023 134.197C144.995 131.774 137.325 123.786 135.276 123.786ZM128.409 127.261C130.86 124.644 133.809 122.318 135.276 122.318C136.744 122.318 139.693 124.644 142.143 127.261C144.455 129.739 146.463 132.632 146.463 134.211V174.291C146.463 176.756 148.013 179.4 149.301 181.601C150.395 183.456 151.322 185.049 151.322 186.447V196.166C151.322 197.896 148.913 200.292 145.867 203.337C144.829 204.362 143.721 205.469 142.6 206.66C141.437 207.892 140.579 207.962 139.748 207.159C139.222 206.66 139.167 206.079 139.111 205.317C139.014 204.182 138.848 202.022 135.276 202.022C131.704 202.022 131.524 204.196 131.441 205.317C131.386 206.092 131.33 206.66 130.804 207.159C129.974 207.962 129.115 207.878 127.952 206.66C126.831 205.483 125.723 204.376 124.685 203.351C121.639 200.305 119.23 197.91 119.23 196.18V186.461C119.23 185.062 120.158 183.484 121.251 181.615C122.539 179.414 124.09 176.756 124.09 174.305V134.211C124.076 132.632 126.083 129.739 128.409 127.261Z" fill="black"/>
<path fill-rule="evenodd" clip-rule="evenodd" d="M126.014 196.595C123.397 186.378 135.276 192.829 135.276 185.035C135.276 192.829 147.155 186.391 144.538 196.595C144.054 198.492 140.842 201.136 139.734 199.71C138.419 197.993 136.841 197.121 135.276 197.121C133.712 197.121 132.147 197.979 130.818 199.71C129.711 201.136 126.499 198.492 126.014 196.595Z" fill="url(#paint1_linear)"/>
<path fill-rule="evenodd" clip-rule="evenodd" d="M135.276 124.312C131.289 124.312 130.237 139.112 130.07 140.898C131.58 137.312 133.518 136.191 135.276 136.191C137.034 136.191 139.222 137.312 140.482 140.898C139.623 131.206 138.045 124.312 135.276 124.312Z" fill="url(#paint2_linear)"/>
<path fill-rule="evenodd" clip-rule="evenodd" d="M132.812 125.142C129.794 127.524 125.557 132.397 125.557 134.211C125.557 148.789 125.557 159.713 125.557 174.291C125.557 179.151 120.698 184.01 120.698 186.447C120.698 189.687 120.698 192.926 120.698 196.166C120.698 197.716 124.865 201.288 129.018 205.636C127.066 202.811 123.342 195.986 123.688 186.904C123.688 183.152 126.028 186.391 126.028 182.197C126.028 177.392 129.697 177.088 129.697 174.734C129.697 167.397 126.928 167.397 126.928 153.261C126.928 152.472 126.291 150.797 126.291 150.008C126.291 131.539 127.869 140.261 127.869 136.121C127.855 133.712 129.198 128.742 132.812 125.142Z" fill="url(#paint3_linear)"/>
<path fill-rule="evenodd" clip-rule="evenodd" d="M137.74 125.142C140.759 127.524 144.995 132.397 144.995 134.211C144.995 148.789 144.995 159.713 144.995 174.291C144.995 179.151 149.855 184.01 149.855 186.447C149.855 189.687 149.855 192.926 149.855 196.166C149.855 197.716 145.687 201.288 141.534 205.636C143.486 202.811 147.21 195.986 146.864 186.904C146.864 183.152 144.524 186.391 144.524 182.197C144.524 177.392 140.856 177.088 140.856 174.734C140.856 167.397 143.624 167.397 143.624 153.261C143.624 152.472 144.261 150.797 144.261 150.008C144.261 131.539 142.683 140.261 142.683 136.121C142.683 133.712 141.34 128.742 137.74 125.142Z" fill="url(#paint4_linear)"/>
<path opacity="0.5" fill-rule="evenodd" clip-rule="evenodd" d="M133.338 139.029C133.005 135.9 133.85 124.686 135.276 124.686C136.688 124.686 137.533 135.9 137.214 139.029C135.913 139.029 134.625 139.029 133.338 139.029Z" fill="url(#paint5_linear)"/>
<path opacity="0.5" fill-rule="evenodd" clip-rule="evenodd" d="M125.862 135.526C125.862 142.448 126.236 151.724 126.111 160.003C125.848 176.852 127.883 153.538 129.129 139.056C127.537 145.674 125.82 140.302 125.862 135.526Z" fill="url(#paint6_linear)"/>
<path opacity="0.5" fill-rule="evenodd" clip-rule="evenodd" d="M122.802 198.007C123.647 199.987 127.218 202.507 128.575 204.874C129.641 206.743 129.004 203.517 125.432 199.267C124.546 198.201 122.414 197.093 122.802 198.007Z" fill="url(#paint7_linear)"/>
<path opacity="0.5" fill-rule="evenodd" clip-rule="evenodd" d="M147.75 198.007C146.906 199.987 143.334 202.507 141.977 204.874C140.911 206.743 141.548 203.517 145.12 199.267C145.992 198.201 148.124 197.093 147.75 198.007Z" fill="url(#paint8_linear)"/>
<path fill-rule="evenodd" clip-rule="evenodd" d="M129.115 192.732C130.486 192.732 131.607 193.854 131.607 195.224C131.607 196.595 130.486 197.716 129.115 197.716C127.745 197.716 126.623 196.595 126.623 195.224C126.623 193.84 127.731 192.732 129.115 192.732Z" fill="url(#paint9_linear)"/>
<path d="M129.115 197.384C130.308 197.384 131.275 196.417 131.275 195.224C131.275 194.032 130.308 193.065 129.115 193.065C127.922 193.065 126.955 194.032 126.955 195.224C126.955 196.417 127.922 197.384 129.115 197.384Z" fill="url(#paint10_linear)"/>
<path fill-rule="evenodd" clip-rule="evenodd" d="M129.115 197.121C128.063 197.121 127.219 196.263 127.219 195.224C127.219 194.172 128.077 193.328 129.115 193.328C130.167 193.328 131.012 194.186 131.012 195.224C131.012 196.277 130.167 197.121 129.115 197.121Z" fill="url(#paint11_linear)"/>
<path fill-rule="evenodd" clip-rule="evenodd" d="M129.115 196.803C128.243 196.803 127.537 196.097 127.537 195.224C127.537 194.352 128.243 193.646 129.115 193.646C129.987 193.646 130.693 194.352 130.693 195.224C130.693 196.097 129.987 196.803 129.115 196.803Z" fill="url(#paint12_linear)"/>
<path fill-rule="evenodd" clip-rule="evenodd" d="M129.115 196.512C128.409 196.512 127.828 195.93 127.828 195.224C127.828 194.518 128.409 193.937 129.115 193.937C129.821 193.937 130.403 194.518 130.403 195.224C130.403 195.93 129.821 196.512 129.115 196.512Z" fill="url(#paint13_radial)"/>
<path opacity="0.5" fill-rule="evenodd" clip-rule="evenodd" d="M129.115 196.803C129.655 196.387 131.801 194.075 127.537 195.224C127.537 194.352 128.243 193.646 129.115 193.646C128.478 194.74 130.693 194.352 130.693 195.224C130.693 196.097 129.987 196.803 129.115 196.803Z" fill="url(#paint14_linear)"/>
<path fill-rule="evenodd" clip-rule="evenodd" d="M141.437 192.732C142.808 192.732 143.929 193.854 143.929 195.224C143.929 196.595 142.808 197.716 141.437 197.716C140.066 197.716 138.945 196.595 138.945 195.224C138.945 193.84 140.066 192.732 141.437 192.732Z" fill="url(#paint15_linear)"/>
<path d="M141.437 197.384C142.63 197.384 143.597 196.417 143.597 195.224C143.597 194.032 142.63 193.065 141.437 193.065C140.244 193.065 139.277 194.032 139.277 195.224C139.277 196.417 140.244 197.384 141.437 197.384Z" fill="url(#paint16_linear)"/>
<path fill-rule="evenodd" clip-rule="evenodd" d="M141.437 197.121C140.385 197.121 139.54 196.263 139.54 195.224C139.54 194.172 140.399 193.328 141.437 193.328C142.489 193.328 143.334 194.186 143.334 195.224C143.334 196.277 142.489 197.121 141.437 197.121Z" fill="url(#paint17_linear)"/>
<path fill-rule="evenodd" clip-rule="evenodd" d="M141.437 196.803C140.565 196.803 139.859 196.097 139.859 195.224C139.859 194.352 140.565 193.646 141.437 193.646C142.309 193.646 143.015 194.352 143.015 195.224C143.015 196.097 142.309 196.803 141.437 196.803Z" fill="url(#paint18_linear)"/>
<path fill-rule="evenodd" clip-rule="evenodd" d="M141.437 196.512C140.731 196.512 140.149 195.93 140.149 195.224C140.149 194.518 140.731 193.937 141.437 193.937C142.143 193.937 142.725 194.518 142.725 195.224C142.725 195.93 142.143 196.512 141.437 196.512Z" fill="url(#paint19_radial)"/>
<path opacity="0.5" fill-rule="evenodd" clip-rule="evenodd" d="M141.437 196.803C141.977 196.387 144.123 194.075 139.859 195.224C139.859 194.352 140.565 193.646 141.437 193.646C140.8 194.74 143.015 194.352 143.015 195.224C143.015 196.097 142.309 196.803 141.437 196.803Z" fill="url(#paint20_linear)"/>
<path opacity="0.5" fill-rule="evenodd" clip-rule="evenodd" d="M135.276 123.786C133.227 123.786 125.557 131.774 125.557 134.197C125.557 135.554 125.557 141.175 125.557 142.518C125.557 136.329 131.732 131.525 135.276 131.525C138.82 131.525 144.995 136.329 144.995 142.518C144.995 141.161 144.995 135.54 144.995 134.197C144.995 131.774 137.325 123.786 135.276 123.786Z" fill="url(#paint21_linear)"/>
<path fill-rule="evenodd" clip-rule="evenodd" d="M135.276 133.629C133.02 133.629 129.891 139.264 129.891 141.964V161.873C129.891 163.382 133.49 163.243 135.276 163.243C137.076 163.243 140.662 163.395 140.662 161.873V141.964C140.662 139.264 137.519 133.629 135.276 133.629ZM135.276 133.186C138.073 133.186 141.105 139.472 141.105 141.964V161.873C141.105 163.935 136.702 163.672 135.276 163.672C133.85 163.672 129.448 163.935 129.448 161.873V141.964C129.448 139.486 132.48 133.186 135.276 133.186Z" fill="#00045D"/>
<path fill-rule="evenodd" clip-rule="evenodd" d="M135.276 133.629C133.02 133.629 129.891 139.264 129.891 141.964C129.891 149.052 129.891 154.784 129.891 161.873C129.891 163.382 133.49 163.243 135.276 163.243C137.076 163.243 140.662 163.396 140.662 161.873C140.662 154.784 140.662 149.052 140.662 141.964C140.662 139.264 137.519 133.629 135.276 133.629Z" fill="url(#paint22_linear)"/>
<path fill-rule="evenodd" clip-rule="evenodd" d="M135.276 134.086C133.2 134.086 130.292 139.541 130.292 142.158C130.292 149.025 130.292 154.576 130.292 161.443C130.292 162.911 133.615 162.759 135.276 162.759C136.938 162.759 140.26 162.911 140.26 161.443C140.26 154.576 140.26 149.025 140.26 142.158C140.26 139.541 137.353 134.086 135.276 134.086Z" fill="url(#paint23_radial)"/>
<path fill-rule="evenodd" clip-rule="evenodd" d="M135.276 134.086C133.2 134.086 130.292 139.541 130.292 142.158C130.292 145.467 140.26 145.66 140.26 142.158C140.26 139.541 137.353 134.086 135.276 134.086Z" fill="url(#paint24_linear)"/>
<path opacity="0.5" fill-rule="evenodd" clip-rule="evenodd" d="M135.276 136.772C134.072 136.772 132.383 141.202 132.383 143.334C132.383 148.914 132.383 153.427 132.383 159.007C132.383 160.197 134.307 160.087 135.276 160.087C136.245 160.087 138.17 160.211 138.17 159.007C138.17 153.427 138.17 148.914 138.17 143.334C138.17 141.216 136.481 136.772 135.276 136.772Z" fill="url(#paint25_linear)"/>
<path opacity="0.5" fill-rule="evenodd" clip-rule="evenodd" d="M130.292 156.667C130.292 157.456 130.292 160.668 130.292 161.443C130.292 162.911 133.615 162.759 135.276 162.759C136.938 162.759 140.26 162.911 140.26 161.443C140.26 160.654 140.26 157.442 140.26 156.667C140.26 163.742 130.292 163.576 130.292 156.667Z" fill="url(#paint26_linear)"/>
<path opacity="0.5" fill-rule="evenodd" clip-rule="evenodd" d="M135.276 134.086C133.435 134.086 130.943 138.378 130.403 141.175C133.504 136.315 137.048 136.315 140.163 141.175C139.61 138.378 137.118 134.086 135.276 134.086Z" fill="url(#paint27_linear)"/>
<path opacity="0.5" fill-rule="evenodd" clip-rule="evenodd" d="M133.795 134.82C132.037 136.398 130.292 140.136 130.292 142.171C132.84 137.769 139.9 157.83 140.26 161.457C140.26 158.73 140.26 156.21 140.26 153.732C140.26 156.667 130.624 139.707 133.795 134.82Z" fill="url(#paint28_linear)"/>
<path fill-rule="evenodd" clip-rule="evenodd" d="M135.276 164.572C136.868 164.572 139.014 164.6 140.399 163.783C140.759 163.575 141.216 163.839 141.16 164.254C140.883 166.137 140.371 167.992 139.983 169.861C139.554 171.91 137.09 172.547 135.276 172.547C133.463 172.547 131.026 171.91 130.569 169.875C130.168 168.047 129.669 166.095 129.392 164.254C129.337 163.866 129.752 163.562 130.112 163.755C131.524 164.572 133.684 164.572 135.276 164.572Z" fill="#00045D"/>
<path fill-rule="evenodd" clip-rule="evenodd" d="M130.029 165.085C130.32 166.635 130.735 168.241 131.04 169.75C131.4 171.495 133.601 172.049 135.276 172.049C136.951 172.049 139.153 171.495 139.513 169.75C139.831 168.241 140.233 166.635 140.523 165.085C140.593 164.711 140.233 164.406 139.887 164.545C138.447 165.057 136.647 165.057 135.29 165.057C133.933 165.057 132.12 165.057 130.694 164.545C130.32 164.42 129.96 164.725 130.029 165.085Z" fill="url(#paint29_radial)"/>
<path opacity="0.5" fill-rule="evenodd" clip-rule="evenodd" d="M130.029 165.084C130.32 166.635 130.735 168.241 131.04 169.75C131.275 170.858 132.258 171.495 133.366 171.799C131.441 171.287 130.375 164.904 132.272 164.904C131.718 164.821 131.164 164.711 130.666 164.531C130.32 164.42 129.96 164.724 130.029 165.084Z" fill="url(#paint30_linear)"/>
<path opacity="0.5" fill-rule="evenodd" clip-rule="evenodd" d="M140.523 165.084C140.233 166.635 139.817 168.241 139.513 169.75C139.277 170.858 138.294 171.495 137.187 171.799C139.111 171.287 140.177 164.904 138.28 164.904C138.834 164.821 139.388 164.711 139.886 164.531C140.233 164.42 140.579 164.724 140.523 165.084Z" fill="url(#paint31_linear)"/>
<path opacity="0.5" fill-rule="evenodd" clip-rule="evenodd" d="M130.029 165.084C130.14 165.652 130.251 166.234 130.389 166.815C131.483 165.708 138.447 166.22 138.447 171.259C138.973 170.913 139.374 170.415 139.499 169.764C139.817 168.255 140.219 166.649 140.51 165.098C139.651 169.792 130.666 164.835 130.666 164.558C130.32 164.42 129.96 164.725 130.029 165.084Z" fill="url(#paint32_linear)"/>
<path fill-rule="evenodd" clip-rule="evenodd" d="M135.096 184.979C135.096 184.869 135.082 184.689 135.276 184.689C135.47 184.689 135.456 184.869 135.456 184.979C135.456 190.891 147.183 186.793 144.704 196.72C144.677 196.83 144.386 197.509 143.998 197.813C144.289 196.803 144.317 196.72 144.344 196.623C146.712 187.111 135.262 191.431 135.262 185.049C135.262 191.431 123.813 187.111 126.18 196.623C126.208 196.734 126.249 196.803 126.526 197.813C126.139 197.523 125.848 196.83 125.82 196.72C123.37 186.793 135.096 190.891 135.096 184.979Z" fill="#00045D"/>
<path fill-rule="evenodd" clip-rule="evenodd" d="M128.866 131.622C129.074 131.414 129.268 131.4 129.461 131.594C129.641 131.774 129.572 132.134 129.448 132.729C129.268 133.657 128.935 135.318 128.935 137.312C128.935 138.461 128.825 139.499 128.645 140.261C128.423 141.175 128.063 141.728 127.606 141.728C127.149 141.728 126.789 141.161 126.568 140.261C126.388 139.499 126.277 138.461 126.277 137.312C126.277 136.232 126.526 135.235 126.942 134.335C127.426 133.283 128.118 132.369 128.866 131.622Z" fill="#00045D"/>
<path fill-rule="evenodd" clip-rule="evenodd" d="M129.129 131.885C129.503 131.511 128.575 133.92 128.575 137.312C128.575 139.555 128.146 141.368 127.62 141.368C127.094 141.368 126.665 139.555 126.665 137.312C126.651 135.069 127.8 133.2 129.129 131.885Z" fill="url(#paint33_linear)"/>
<path fill-rule="evenodd" clip-rule="evenodd" d="M126.679 137.492C126.582 137.506 126.485 137.436 126.471 137.34C126.457 137.243 126.526 137.146 126.623 137.132L128.548 136.841C128.645 136.827 128.742 136.897 128.755 136.993C128.769 137.09 128.7 137.187 128.603 137.201L126.679 137.492ZM126.942 135.678C126.845 135.706 126.748 135.637 126.72 135.54C126.693 135.443 126.762 135.346 126.859 135.318L128.645 134.931C128.742 134.903 128.838 134.972 128.866 135.069C128.894 135.166 128.825 135.263 128.728 135.291L126.942 135.678Z" fill="#00045D"/>
<path fill-rule="evenodd" clip-rule="evenodd" d="M141.672 131.622C141.465 131.414 141.271 131.4 141.077 131.594C140.897 131.774 140.966 132.134 141.091 132.729C141.271 133.657 141.603 135.318 141.603 137.312C141.603 138.461 141.714 139.499 141.894 140.261C142.115 141.175 142.475 141.728 142.932 141.728C143.389 141.728 143.749 141.161 143.971 140.261C144.151 139.499 144.261 138.461 144.261 137.312C144.261 136.232 144.012 135.235 143.597 134.335C143.112 133.283 142.42 132.369 141.672 131.622Z" fill="#00045D"/>
<path fill-rule="evenodd" clip-rule="evenodd" d="M141.423 131.885C141.049 131.511 141.977 133.92 141.977 137.312C141.977 139.555 142.406 141.368 142.932 141.368C143.458 141.368 143.887 139.555 143.887 137.312C143.901 135.069 142.738 133.2 141.423 131.885Z" fill="url(#paint34_linear)"/>
<path fill-rule="evenodd" clip-rule="evenodd" d="M143.874 137.492C143.971 137.506 144.067 137.436 144.081 137.34C144.095 137.243 144.026 137.146 143.929 137.132L142.005 136.841C141.908 136.827 141.811 136.897 141.797 136.993C141.783 137.09 141.852 137.187 141.949 137.201L143.874 137.492ZM143.611 135.678C143.708 135.706 143.804 135.637 143.832 135.54C143.86 135.443 143.791 135.346 143.694 135.318L141.908 134.931C141.811 134.903 141.714 134.972 141.686 135.069C141.659 135.166 141.728 135.263 141.825 135.291L143.611 135.678Z" fill="#00045D"/>
<path d="M135.276 184.758C138.166 184.758 140.509 182.415 140.509 179.524C140.509 176.634 138.166 174.291 135.276 174.291C132.386 174.291 130.043 176.634 130.043 179.524C130.043 182.415 132.386 184.758 135.276 184.758Z" fill="#00045D"/>
<path d="M135.276 184.439C137.99 184.439 140.191 182.239 140.191 179.524C140.191 176.81 137.99 174.61 135.276 174.61C132.562 174.61 130.361 176.81 130.361 179.524C130.361 182.239 132.562 184.439 135.276 184.439Z" fill="url(#paint35_radial)"/>
<path d="M135.276 183.332C137.379 183.332 139.083 181.627 139.083 179.524C139.083 177.422 137.379 175.717 135.276 175.717C133.173 175.717 131.469 177.422 131.469 179.524C131.469 181.627 133.173 183.332 135.276 183.332Z" fill="url(#paint36_linear)"/>
<path fill-rule="evenodd" clip-rule="evenodd" d="M135.276 127.344V127.718C132.673 127.718 131.593 131.22 129.406 131.802C129.309 131.829 129.212 131.774 129.184 131.677C129.157 131.58 129.212 131.483 129.309 131.456C131.4 130.874 132.438 127.344 135.276 127.344ZM125.557 152.763C125.46 152.763 125.377 152.68 125.377 152.583C125.377 152.486 125.46 152.403 125.557 152.403H125.751C126.969 152.389 127.315 152.389 127.315 156.584C127.315 159.339 127.592 159.768 128.201 159.768C128.34 159.768 128.506 159.754 128.672 159.727C128.908 159.699 129.157 159.671 129.447 159.671C129.544 159.671 129.627 159.754 129.627 159.851C129.627 159.948 129.544 160.031 129.447 160.031C129.171 160.031 128.935 160.059 128.714 160.086C128.52 160.114 128.354 160.128 128.201 160.128C127.343 160.128 126.942 159.643 126.942 156.57C126.942 152.749 126.665 152.749 125.737 152.763H125.557ZM120.975 185.229L120.85 185.575L123.024 185.948C123.425 186.059 123.757 186.475 123.757 186.876V195.903C123.757 196.304 123.425 196.553 123.024 196.443L120.698 196.014L120.725 196.415L123.024 196.817C123.633 196.983 124.131 196.609 124.131 196.014V186.987C124.131 186.378 123.633 185.755 123.024 185.588L120.975 185.229ZM125.322 176.188C125.156 176.022 125.239 175.606 125.405 175.773C126.665 177.032 126.997 176.825 127.606 176.133C128.492 175.108 130.043 173.336 135.276 173.336V173.71C130.209 173.71 128.728 175.413 127.883 176.382C127.094 177.268 126.859 177.725 125.322 176.188Z" fill="#00045D"/>
<path fill-rule="evenodd" clip-rule="evenodd" d="M135.276 127.344V127.718C137.879 127.718 138.959 131.22 141.146 131.802C141.243 131.829 141.34 131.774 141.368 131.677C141.395 131.58 141.34 131.483 141.243 131.456C139.153 130.874 138.114 127.344 135.276 127.344ZM144.995 152.763C145.092 152.763 145.175 152.68 145.175 152.583C145.175 152.486 145.092 152.403 144.995 152.403H144.801C143.583 152.389 143.237 152.389 143.237 156.584C143.237 159.339 142.96 159.768 142.351 159.768C142.212 159.768 142.046 159.754 141.88 159.727C141.645 159.699 141.395 159.671 141.105 159.671C141.008 159.671 140.925 159.754 140.925 159.851C140.925 159.948 141.008 160.031 141.105 160.031C141.382 160.031 141.617 160.059 141.839 160.086C142.032 160.114 142.198 160.128 142.351 160.128C143.209 160.128 143.611 159.643 143.611 156.57C143.611 152.749 143.888 152.749 144.815 152.763H144.995ZM149.578 185.229L149.702 185.575L147.529 185.948C147.127 186.059 146.795 186.475 146.795 186.876V195.903C146.795 196.304 147.127 196.553 147.529 196.443L149.855 196.014L149.827 196.415L147.529 196.817C146.92 196.983 146.421 196.609 146.421 196.014V186.987C146.421 186.378 146.92 185.755 147.529 185.588L149.578 185.229ZM145.23 176.188C145.397 176.022 145.314 175.606 145.147 175.773C143.888 177.032 143.555 176.825 142.946 176.133C142.06 175.108 140.509 173.336 135.276 173.336V173.71C140.343 173.71 141.825 175.413 142.669 176.382C143.445 177.268 143.694 177.725 145.23 176.188Z" fill="#00045D"/>
<path opacity="0.5" fill-rule="evenodd" clip-rule="evenodd" d="M135.276 123.786C133.227 123.786 125.557 131.774 125.557 134.197C125.557 148.775 125.557 159.699 125.557 174.277C125.557 179.137 120.698 183.996 120.698 186.433C120.698 189.673 120.698 192.912 120.698 196.152C120.698 197.703 124.865 201.275 129.018 205.622C120.587 192.58 129.24 186.295 129.24 174.263C129.24 159.685 129.24 148.762 129.24 134.183C129.226 130.223 129.932 129.13 135.276 123.786Z" fill="url(#paint37_linear)"/>
<path opacity="0.5" fill-rule="evenodd" clip-rule="evenodd" d="M135.415 123.786C137.464 123.786 145.134 131.774 145.134 134.197C145.134 148.775 145.134 159.699 145.134 174.277C145.134 179.137 149.993 183.996 149.993 186.433C149.993 189.673 149.993 192.912 149.993 196.152C149.993 197.703 145.826 201.275 141.672 205.622C150.104 192.58 141.451 186.295 141.451 174.263C141.451 159.685 141.451 148.762 141.451 134.183C141.465 130.223 140.759 129.13 135.415 123.786Z" fill="url(#paint38_linear)"/>
</g>
<defs>
<linearGradient id="paint0_linear" x1="135.273" y1="200.899" x2="135.273" y2="124.676" gradientUnits="userSpaceOnUse">
<stop stop-color="#3654A5"/>
<stop offset="1" stop-color="#5781C1"/>
</linearGradient>
<linearGradient id="paint1_linear" x1="135.269" y1="185.077" x2="135.27" y2="199.59" gradientUnits="userSpaceOnUse">
<stop stop-color="#3654A5"/>
<stop offset="1" stop-color="#5F94CE"/>
</linearGradient>
<linearGradient id="paint2_linear" x1="135.274" y1="136.01" x2="135.276" y2="124.566" gradientUnits="userSpaceOnUse">
<stop stop-color="#5781C1"/>
<stop offset="1" stop-color="#6FA1D6"/>
</linearGradient>
<linearGradient id="paint3_linear" x1="126.747" y1="199.115" x2="126.749" y2="127.689" gradientUnits="userSpaceOnUse">
<stop stop-color="#3654A5"/>
<stop offset="0.42" stop-color="#313092"/>
<stop offset="1" stop-color="#416DB5"/>
</linearGradient>
<linearGradient id="paint4_linear" x1="143.799" y1="199.115" x2="143.797" y2="127.689" gradientUnits="userSpaceOnUse">
<stop stop-color="#3654A5"/>
<stop offset="0.42" stop-color="#313092"/>
<stop offset="1" stop-color="#416DB5"/>
</linearGradient>
<linearGradient id="paint5_linear" x1="135.273" y1="138.68" x2="135.276" y2="124.688" gradientUnits="userSpaceOnUse">
<stop stop-color="#6FA1D6"/>
<stop offset="1" stop-color="white"/>
</linearGradient>
<linearGradient id="paint6_linear" x1="127.491" y1="165.243" x2="127.492" y2="141.763" gradientUnits="userSpaceOnUse">
<stop stop-color="#6FA1D6"/>
<stop offset="1" stop-color="white"/>
</linearGradient>
<linearGradient id="paint7_linear" x1="126.349" y1="199.988" x2="125.419" y2="203.28" gradientUnits="userSpaceOnUse">
<stop stop-color="#6FA1D6"/>
<stop offset="1" stop-color="white"/>
</linearGradient>
<linearGradient id="paint8_linear" x1="144.197" y1="199.988" x2="145.127" y2="203.28" gradientUnits="userSpaceOnUse">
<stop stop-color="#6FA1D6"/>
<stop offset="1" stop-color="white"/>
</linearGradient>
<linearGradient id="paint9_linear" x1="129.11" y1="197.17" x2="129.111" y2="193.023" gradientUnits="userSpaceOnUse">
<stop stop-color="#3654A5"/>
<stop offset="1"/>
</linearGradient>
<linearGradient id="paint10_linear" x1="129.11" y1="193.057" x2="129.112" y2="197.387" gradientUnits="userSpaceOnUse">
<stop stop-color="#2B2477"/>
<stop offset="1" stop-color="#6FA1D6"/>
</linearGradient>
<linearGradient id="paint11_linear" x1="129.111" y1="196.71" x2="129.111" y2="193.542" gradientUnits="userSpaceOnUse">
<stop stop-color="#3654A5"/>
<stop offset="1"/>
</linearGradient>
<linearGradient id="paint12_linear" x1="129.11" y1="196.312" x2="129.111" y2="194.125" gradientUnits="userSpaceOnUse">
<stop stop-color="#3D0000"/>
<stop offset="1" stop-color="#794503"/>
</linearGradient>
<radialGradient id="paint13_radial" cx="0" cy="0" r="1" gradientUnits="userSpaceOnUse" gradientTransform="translate(129.111 194.694) scale(1.72115)">
<stop stop-color="#E4E526"/>
<stop offset="1" stop-color="#EF4423"/>
</radialGradient>
<linearGradient id="paint14_linear" x1="129.11" y1="196.776" x2="129.111" y2="194.106" gradientUnits="userSpaceOnUse">
<stop stop-color="#EF4423"/>
<stop offset="1" stop-color="white"/>
</linearGradient>
<linearGradient id="paint15_linear" x1="141.435" y1="197.17" x2="141.436" y2="193.023" gradientUnits="userSpaceOnUse">
<stop stop-color="#3654A5"/>
<stop offset="1"/>
</linearGradient>
<linearGradient id="paint16_linear" x1="141.434" y1="193.057" x2="141.436" y2="197.387" gradientUnits="userSpaceOnUse">
<stop stop-color="#2B2477"/>
<stop offset="1" stop-color="#6FA1D6"/>
</linearGradient>
<linearGradient id="paint17_linear" x1="141.435" y1="196.71" x2="141.436" y2="193.542" gradientUnits="userSpaceOnUse">
<stop stop-color="#3654A5"/>
<stop offset="1"/>
</linearGradient>
<linearGradient id="paint18_linear" x1="141.435" y1="196.312" x2="141.436" y2="194.125" gradientUnits="userSpaceOnUse">
<stop stop-color="#3D0000"/>
<stop offset="1" stop-color="#794503"/>
</linearGradient>
<radialGradient id="paint19_radial" cx="0" cy="0" r="1" gradientUnits="userSpaceOnUse" gradientTransform="translate(141.435 194.694) scale(1.72113)">
<stop stop-color="#E4E526"/>
<stop offset="1" stop-color="#EF4423"/>
</radialGradient>
<linearGradient id="paint20_linear" x1="141.434" y1="196.776" x2="141.436" y2="194.106" gradientUnits="userSpaceOnUse">
<stop stop-color="#EF4423"/>
<stop offset="1" stop-color="white"/>
</linearGradient>
<linearGradient id="paint21_linear" x1="135.272" y1="123.734" x2="135.273" y2="139.751" gradientUnits="userSpaceOnUse">
<stop stop-color="#140C4F"/>
<stop offset="1" stop-color="white"/>
</linearGradient>
<linearGradient id="paint22_linear" x1="135.272" y1="134.092" x2="135.274" y2="163.235" gradientUnits="userSpaceOnUse">
<stop stop-color="#5F94CE"/>
<stop offset="1" stop-color="#2B2477"/>
</linearGradient>
<radialGradient id="paint23_radial" cx="0" cy="0" r="1" gradientUnits="userSpaceOnUse" gradientTransform="translate(135.365 143.522) rotate(-90.0059) scale(15.5721 6.66953)">
<stop stop-color="#3654A5"/>
<stop offset="1"/>
</radialGradient>
<linearGradient id="paint24_linear" x1="135.273" y1="145.115" x2="135.275" y2="134.092" gradientUnits="userSpaceOnUse">
<stop/>
<stop offset="1" stop-color="#3654A5"/>
</linearGradient>
<linearGradient id="paint25_linear" x1="135.272" y1="159.698" x2="135.275" y2="136.976" gradientUnits="userSpaceOnUse">
<stop/>
<stop offset="1" stop-color="#AADDDD"/>
</linearGradient>
<linearGradient id="paint26_linear" x1="135.271" y1="162.768" x2="135.274" y2="158.349" gradientUnits="userSpaceOnUse">
<stop stop-color="#2B2477"/>
<stop offset="1" stop-color="white"/>
</linearGradient>
<linearGradient id="paint27_linear" x1="135.27" y1="134.094" x2="135.272" y2="138.539" gradientUnits="userSpaceOnUse">
<stop stop-color="#AADDDD"/>
<stop offset="1" stop-color="#3654A5"/>
</linearGradient>
<linearGradient id="paint28_linear" x1="140.855" y1="156.64" x2="133.15" y2="140.783" gradientUnits="userSpaceOnUse">
<stop stop-color="#3654A5"/>
<stop offset="1" stop-color="white"/>
</linearGradient>
<radialGradient id="paint29_radial" cx="0" cy="0" r="1" gradientUnits="userSpaceOnUse" gradientTransform="translate(135.272 166.194) rotate(-89.9881) scale(6.21448 3.31667)">
<stop stop-color="#ADB2C0"/>
<stop offset="1" stop-color="#383E4C"/>
</radialGradient>
<linearGradient id="paint30_linear" x1="130.418" y1="168.165" x2="132.103" y2="168.163" gradientUnits="userSpaceOnUse">
<stop stop-color="#020000"/>
<stop offset="1" stop-color="#ADB2C0"/>
</linearGradient>
<linearGradient id="paint31_linear" x1="140.129" y1="168.165" x2="138.444" y2="168.163" gradientUnits="userSpaceOnUse">
<stop stop-color="#020000"/>
<stop offset="1" stop-color="#ADB2C0"/>
</linearGradient>
<linearGradient id="paint32_linear" x1="138.61" y1="167.801" x2="130.579" y2="164.409" gradientUnits="userSpaceOnUse">
<stop stop-color="#5F626B"/>
<stop offset="1" stop-color="white"/>
</linearGradient>
<linearGradient id="paint33_linear" x1="127.93" y1="140.817" x2="127.932" y2="135.109" gradientUnits="userSpaceOnUse">
<stop stop-color="#1B135A"/>
<stop offset="1" stop-color="#25409A"/>
</linearGradient>
<linearGradient id="paint34_linear" x1="142.616" y1="140.817" x2="142.614" y2="135.109" gradientUnits="userSpaceOnUse">
<stop stop-color="#1B135A"/>
<stop offset="1" stop-color="#25409A"/>
</linearGradient>
<radialGradient id="paint35_radial" cx="0" cy="0" r="1" gradientUnits="userSpaceOnUse" gradientTransform="translate(135.362 175.715) scale(8.71547)">
<stop stop-color="#4361AD"/>
<stop offset="1" stop-color="#140C4F"/>
</radialGradient>
<linearGradient id="paint36_linear" x1="135.272" y1="183.9" x2="135.274" y2="175.717" gradientUnits="userSpaceOnUse">
<stop stop-color="#4361AD"/>
<stop offset="1" stop-color="#6FA1D6"/>
</linearGradient>
<linearGradient id="paint37_linear" x1="124.035" y1="164.712" x2="129.853" y2="164.711" gradientUnits="userSpaceOnUse">
<stop stop-color="#140C4F"/>
<stop offset="1" stop-color="white"/>
</linearGradient>
<linearGradient id="paint38_linear" x1="146.654" y1="164.712" x2="140.836" y2="164.711" gradientUnits="userSpaceOnUse">
<stop stop-color="#140C4F"/>
<stop offset="1" stop-color="white"/>
</linearGradient>
<clipPath id="clip0">
<rect x="56.3059" y="107.158" width="157.941" height="159.048" fill="white"/>
</clipPath>
</defs>
</svg>
