<svg width="270" height="370" viewBox="0 0 270 370" fill="none" xmlns="http://www.w3.org/2000/svg">
<g clip-path="url(#clip0)">
<path fill-rule="evenodd" clip-rule="evenodd" d="M135.29 109.069C133.241 109.069 125.571 124.395 125.571 126.831C125.571 141.41 125.571 159.671 125.571 174.25C125.571 179.109 120.711 183.969 120.711 186.405C120.711 189.645 120.711 192.885 120.711 196.124C120.711 197.675 124.879 201.247 129.032 205.608C131.386 208.072 127.551 200.499 135.304 200.499C143.057 200.499 139.222 208.058 141.575 205.608C145.729 201.261 149.896 197.689 149.896 196.124C149.896 192.885 149.896 189.645 149.896 186.405C149.896 183.969 145.036 179.109 145.036 174.25C145.036 159.671 145.036 141.41 145.036 126.831C145.009 124.395 137.339 109.069 135.29 109.069Z" fill="url(#paint0_linear)"/>
<path fill-rule="evenodd" clip-rule="evenodd" d="M135.29 109.069C133.241 109.069 125.571 124.395 125.571 126.831C125.571 141.41 125.571 159.671 125.571 174.25C125.571 179.109 120.711 183.969 120.711 186.405C120.711 189.645 120.711 192.885 120.711 196.124C120.711 197.675 124.879 201.247 129.032 205.608C131.386 208.072 127.551 200.499 135.304 200.499C143.057 200.499 139.222 208.058 141.575 205.608C145.729 201.261 149.896 197.689 149.896 196.124C149.896 192.885 149.896 189.645 149.896 186.405C149.896 183.969 145.037 179.109 145.037 174.25C145.037 159.671 145.037 141.41 145.037 126.831C145.009 124.395 137.339 109.069 135.29 109.069ZM129.046 115.077C131.261 111.048 133.739 107.601 135.276 107.601C136.813 107.601 139.305 111.035 141.506 115.077C144.04 119.701 146.463 125.281 146.463 126.831V174.25C146.463 176.714 148.013 179.358 149.301 181.56C150.394 183.415 151.322 185.007 151.322 186.405V196.124C151.322 197.855 148.913 200.25 145.867 203.296C144.829 204.32 143.721 205.428 142.6 206.619C141.437 207.851 140.579 207.92 139.748 207.117C139.222 206.619 139.166 206.037 139.111 205.276C139.014 204.14 138.848 201.981 135.276 201.981C131.704 201.981 131.524 204.154 131.441 205.276C131.386 206.051 131.33 206.619 130.804 207.117C129.973 207.92 129.115 207.837 127.952 206.619C126.831 205.442 125.723 204.334 124.685 203.31C121.639 200.264 119.23 197.869 119.23 196.138V186.419C119.23 185.021 120.158 183.442 121.251 181.573C122.539 179.372 124.089 176.714 124.089 174.263V126.831C124.103 125.281 126.526 119.688 129.046 115.077Z" fill="black"/>
<path fill-rule="evenodd" clip-rule="evenodd" d="M135.29 116.946C131.303 116.946 130.25 135.415 130.084 137.215C131.593 133.629 133.532 132.508 135.29 132.508C137.034 132.508 139.236 133.629 140.495 137.215C139.637 127.496 138.059 116.946 135.29 116.946Z" fill="url(#paint1_linear)"/>
<path fill-rule="evenodd" clip-rule="evenodd" d="M132.825 111.741C129.6 116.434 125.571 125.018 125.571 126.831C125.571 141.41 125.571 159.671 125.571 174.249C125.571 179.109 120.711 183.968 120.711 186.405C120.711 189.645 120.711 192.884 120.711 196.124C120.711 197.675 124.879 201.247 129.032 205.608C129.032 200.305 123.148 203.974 123.148 188.219C123.148 181.103 126.914 185.588 126.914 175.052C126.914 167.715 126.941 158.093 126.941 153.219C126.941 152.43 126.305 150.755 126.305 149.966C126.305 131.497 127.883 132.881 127.883 128.742C127.869 126.333 130.472 116.919 132.825 111.741Z" fill="url(#paint2_linear)"/>
<path fill-rule="evenodd" clip-rule="evenodd" d="M137.754 111.741C140.98 116.434 145.009 125.018 145.009 126.831C145.009 141.41 145.009 159.671 145.009 174.249C145.009 179.109 149.868 183.968 149.868 186.405C149.868 189.645 149.868 192.884 149.868 196.124C149.868 197.675 145.701 201.247 141.548 205.608C141.548 200.305 147.432 203.974 147.432 188.219C147.432 181.103 143.666 185.588 143.666 175.052C143.666 167.715 143.638 158.093 143.638 153.219C143.638 152.43 144.275 150.755 144.275 149.966C144.275 131.497 142.697 132.881 142.697 128.742C142.697 126.333 140.108 116.919 137.754 111.741Z" fill="url(#paint3_linear)"/>
<path opacity="0.5" fill-rule="evenodd" clip-rule="evenodd" d="M133.352 135.332C133.019 132.203 133.864 113.637 135.29 113.637C136.702 113.637 137.547 132.203 137.228 135.332C135.927 135.332 134.639 135.332 133.352 135.332Z" fill="url(#paint4_linear)"/>
<path opacity="0.5" fill-rule="evenodd" clip-rule="evenodd" d="M127.398 182.446C130.029 185.09 129.281 190.379 135.29 190.379C141.298 190.379 140.551 185.09 143.181 182.446C140.551 184.287 141.201 187.956 135.29 187.956C129.378 187.956 130.029 184.287 127.398 182.446Z" fill="url(#paint5_linear)"/>
<path fill-rule="evenodd" clip-rule="evenodd" d="M135.29 109.069C133.269 109.069 125.571 124.312 125.571 126.831C126.36 126.831 127.952 124.99 129.738 123.121C129.794 121.487 131.012 119.757 131.012 121.847C132.493 120.435 134.016 119.258 135.29 119.258C136.564 119.258 138.087 120.421 139.568 121.847C139.568 119.757 140.786 121.487 140.842 123.121C142.641 124.99 144.22 126.831 145.009 126.831C145.009 124.312 137.297 109.069 135.29 109.069Z" fill="url(#paint6_radial)"/>
<path fill-rule="evenodd" clip-rule="evenodd" d="M135.29 114.565C133.102 114.565 130.472 121.612 127.412 121.612C127.994 120.324 128.672 118.94 129.392 117.555C130.583 117.555 132.978 112.737 135.29 112.737C137.602 112.737 139.997 117.555 141.188 117.555C141.908 118.926 142.586 120.324 143.168 121.612C140.108 121.598 137.477 114.565 135.29 114.565Z" fill="url(#paint7_linear)"/>
<path opacity="0.5" fill-rule="evenodd" clip-rule="evenodd" d="M135.29 109.069C133.269 109.069 125.571 124.312 125.571 126.831C126.152 126.831 127.191 125.807 128.423 124.505C128.672 121.224 131.483 115.659 135.29 109.069Z" fill="url(#paint8_linear)"/>
<path opacity="0.5" fill-rule="evenodd" clip-rule="evenodd" d="M135.29 109.069C137.311 109.069 145.009 124.312 145.009 126.831C144.427 126.831 143.389 125.807 142.157 124.505C141.908 121.224 139.097 115.659 135.29 109.069Z" fill="url(#paint9_linear)"/>
<path opacity="0.5" fill-rule="evenodd" clip-rule="evenodd" d="M135.29 111.907C134.03 111.907 133.684 112.322 132.064 113.887C132.715 112.308 133.67 110.758 135.29 110.758C136.91 110.758 137.851 112.308 138.516 113.887C136.896 112.308 136.55 111.907 135.29 111.907Z" fill="url(#paint10_linear)"/>
<path fill-rule="evenodd" clip-rule="evenodd" d="M125.571 126.831C126.36 126.831 127.952 124.99 129.738 123.121C129.794 121.487 131.012 119.757 131.012 121.847C132.493 120.435 134.016 119.258 135.29 119.258C136.564 119.258 138.087 120.421 139.568 121.847C139.568 119.757 140.786 121.487 140.842 123.121C142.641 124.99 144.22 126.831 145.009 126.831V127.164C143.971 127.164 141.492 124.298 140.606 123.343C140.551 123.287 140.523 123.204 140.509 123.121C140.482 122.415 140.232 121.695 139.969 121.335C139.873 121.211 139.9 121.764 139.9 121.834C139.9 122.124 139.554 122.277 139.346 122.069C138.419 121.169 136.661 119.577 135.304 119.577C133.933 119.577 132.161 121.211 131.261 122.055C131.053 122.263 130.693 122.124 130.693 121.82C130.693 121.778 130.707 121.224 130.638 121.307C130.375 121.654 130.098 122.387 130.084 123.107C130.084 123.19 130.057 123.273 129.987 123.343C129.087 124.298 126.623 127.136 125.585 127.164V126.831H125.571Z" fill="#00045D"/>
<path fill-rule="evenodd" clip-rule="evenodd" d="M135.29 133.601C133.033 133.601 129.904 139.236 129.904 141.936V161.845C129.904 163.824 140.689 163.824 140.689 161.845V141.936C140.676 139.222 137.533 133.601 135.29 133.601ZM135.29 133.158C138.087 133.158 141.119 139.458 141.119 141.936V161.845C141.119 164.434 129.461 164.447 129.461 161.845V141.936C129.461 139.444 132.493 133.158 135.29 133.158Z" fill="#00045D"/>
<path fill-rule="evenodd" clip-rule="evenodd" d="M135.29 133.602C133.033 133.602 129.904 139.236 129.904 141.936C129.904 149.025 129.904 154.756 129.904 161.845C129.904 163.825 140.689 163.825 140.689 161.845C140.689 154.756 140.689 149.025 140.689 141.936C140.675 139.223 137.533 133.602 135.29 133.602Z" fill="url(#paint11_radial)"/>
<path opacity="0.5" fill-rule="evenodd" clip-rule="evenodd" d="M132.576 135.54C131.053 137.423 129.904 140.192 129.904 141.922C129.904 149.011 129.904 154.742 129.904 161.831C129.904 162.482 131.04 162.911 132.576 163.132C130.001 161.651 129.89 141.936 132.576 135.54Z" fill="url(#paint12_linear)"/>
<path opacity="0.5" fill-rule="evenodd" clip-rule="evenodd" d="M138.004 135.54C139.526 137.423 140.676 140.192 140.676 141.922C140.676 149.011 140.676 154.742 140.676 161.831C140.676 162.482 139.54 162.911 138.004 163.132C140.579 161.651 140.676 141.936 138.004 135.54Z" fill="url(#paint13_linear)"/>
<path opacity="0.5" fill-rule="evenodd" clip-rule="evenodd" d="M129.891 148.595C129.891 150.451 129.891 152.292 129.891 154.147C131.815 157.47 140.676 150.381 140.676 161.042C140.676 157.484 140.676 153.939 140.676 150.381C139.817 155.822 131.344 153.995 129.891 148.595Z" fill="url(#paint14_linear)"/>
<path fill-rule="evenodd" clip-rule="evenodd" d="M135.29 134.058C133.213 134.058 130.306 139.513 130.306 142.13C130.306 148.997 130.306 143.528 130.306 150.395C131.967 148.388 130.306 144.373 135.29 144.373C140.274 144.373 138.613 148.388 140.274 150.395C140.274 143.528 140.274 148.997 140.274 142.13C140.274 139.513 137.367 134.058 135.29 134.058Z" fill="url(#paint15_radial)"/>
<path fill-rule="evenodd" clip-rule="evenodd" d="M135.29 134.058C133.033 134.058 130.707 139.402 130.389 141.299C132.023 141.299 130.818 138.544 135.29 138.544C139.762 138.544 138.557 141.299 140.191 141.299C139.72 138.503 137.173 134.058 135.29 134.058Z" fill="url(#paint16_linear)"/>
<path opacity="0.5" fill-rule="evenodd" clip-rule="evenodd" d="M135.29 136.744C134.085 136.744 132.396 141.175 132.396 143.307C133.365 142.767 132.618 141.701 135.29 141.701C137.962 141.701 137.214 142.781 138.183 143.307C138.183 141.175 136.494 136.744 135.29 136.744Z" fill="url(#paint17_linear)"/>
<path opacity="0.5" fill-rule="evenodd" clip-rule="evenodd" d="M131.012 139.153C130.569 140.247 130.292 141.327 130.292 142.13C130.292 142.767 130.292 143.417 130.292 144.054C131.123 140.953 138.363 139.582 140.26 146.657C140.26 145.148 140.26 143.639 140.26 142.13C140.26 140.884 139.609 139.001 138.696 137.367C139.859 141.645 131.012 142.379 131.012 139.153Z" fill="url(#paint18_linear)"/>
<path opacity="0.5" fill-rule="evenodd" clip-rule="evenodd" d="M135.29 134.058C133.449 134.058 130.956 138.35 130.417 141.147C133.518 136.287 137.062 136.287 140.177 141.147C139.623 138.35 137.131 134.058 135.29 134.058Z" fill="url(#paint19_linear)"/>
<path fill-rule="evenodd" clip-rule="evenodd" d="M135.29 164.544C136.882 164.544 139.028 164.572 140.412 163.755C140.772 163.548 141.229 163.811 141.174 164.226C140.897 166.109 140.385 167.964 139.997 169.833C139.568 171.882 137.104 172.519 135.29 172.519C133.476 172.519 131.04 171.882 130.583 169.847C130.181 168.02 129.683 166.067 129.406 164.226C129.35 163.838 129.766 163.534 130.126 163.728C131.538 164.544 133.698 164.544 135.29 164.544Z" fill="#00045D"/>
<path fill-rule="evenodd" clip-rule="evenodd" d="M130.043 165.057C130.333 166.607 130.749 168.213 131.053 169.722C131.413 171.467 133.615 172.021 135.29 172.021C136.951 172.021 139.166 171.467 139.526 169.722C139.845 168.213 140.246 166.607 140.537 165.057C140.606 164.683 140.246 164.378 139.9 164.517C138.46 165.029 136.66 165.029 135.304 165.029C133.947 165.029 132.133 165.029 130.707 164.517C130.333 164.378 129.973 164.683 130.043 165.057Z" fill="url(#paint20_radial)"/>
<path opacity="0.5" fill-rule="evenodd" clip-rule="evenodd" d="M130.043 165.057C130.333 166.607 130.749 168.213 131.053 169.722C131.289 170.83 132.272 171.467 133.379 171.771C131.455 171.259 130.389 164.877 132.286 164.877C131.732 164.794 131.178 164.683 130.68 164.503C130.333 164.378 129.973 164.683 130.043 165.057Z" fill="url(#paint21_linear)"/>
<path opacity="0.5" fill-rule="evenodd" clip-rule="evenodd" d="M140.537 165.057C140.246 166.607 139.831 168.213 139.526 169.722C139.291 170.83 138.308 171.467 137.2 171.771C139.125 171.259 140.191 164.877 138.294 164.877C138.848 164.794 139.402 164.683 139.9 164.503C140.246 164.378 140.592 164.683 140.537 165.057Z" fill="url(#paint22_linear)"/>
<path opacity="0.5" fill-rule="evenodd" clip-rule="evenodd" d="M130.043 165.057C130.153 165.624 130.264 166.206 130.403 166.787C131.496 165.68 138.46 166.192 138.46 171.231C138.986 170.871 139.388 170.387 139.512 169.736C139.831 168.227 140.232 166.621 140.523 165.071C139.665 169.764 130.68 164.807 130.68 164.531C130.333 164.378 129.973 164.683 130.043 165.057Z" fill="url(#paint23_linear)"/>
<path fill-rule="evenodd" clip-rule="evenodd" d="M132.133 183.553C132.133 182.722 133.532 182.902 133.532 184.135C133.532 188.496 132.258 187.54 131.22 190.379C130.846 191.403 129.724 190.295 130.126 189.34C131.081 186.71 132.133 187.153 132.133 183.553Z" fill="#00045D"/>
<path fill-rule="evenodd" clip-rule="evenodd" d="M132.452 183.553C132.452 183.276 133.185 183.387 133.185 184.135C133.185 188.357 131.87 187.568 130.901 190.24C130.721 190.739 130.223 190.005 130.403 189.506C131.344 186.904 132.452 187.416 132.452 183.553Z" fill="url(#paint24_linear)"/>
<path fill-rule="evenodd" clip-rule="evenodd" d="M132.562 183.692C132.562 183.498 133.075 183.581 133.075 184.093C133.102 188.122 131.926 187.014 130.873 190.046C130.749 190.406 130.361 189.866 130.513 189.534C131.773 186.737 132.632 187.014 132.562 183.692Z" fill="url(#paint25_radial)"/>
<path fill-rule="evenodd" clip-rule="evenodd" d="M138.585 183.553C138.585 182.722 137.187 182.902 137.187 184.135C137.187 188.496 138.46 187.54 139.499 190.379C139.873 191.403 140.994 190.295 140.592 189.34C139.637 186.71 138.585 187.153 138.585 183.553Z" fill="#00045D"/>
<path fill-rule="evenodd" clip-rule="evenodd" d="M138.253 183.553C138.253 183.276 137.519 183.387 137.519 184.135C137.519 188.357 138.834 187.568 139.803 190.24C139.983 190.739 140.482 190.005 140.302 189.506C139.374 186.904 138.253 187.416 138.253 183.553Z" fill="url(#paint26_linear)"/>
<path fill-rule="evenodd" clip-rule="evenodd" d="M138.156 183.692C138.156 183.498 137.644 183.581 137.644 184.093C137.616 188.122 138.793 187.014 139.845 190.046C139.969 190.406 140.357 189.866 140.191 189.534C138.931 186.737 138.087 187.014 138.156 183.692Z" fill="url(#paint27_radial)"/>
<path fill-rule="evenodd" clip-rule="evenodd" d="M135.29 174.25C138.183 174.25 140.523 176.603 140.523 179.483C140.523 182.376 138.17 184.716 135.29 184.716C132.41 184.716 130.057 182.362 130.057 179.483C130.043 176.603 132.396 174.25 135.29 174.25Z" fill="#00045D"/>
<path fill-rule="evenodd" clip-rule="evenodd" d="M135.29 174.582C138.003 174.582 140.205 176.783 140.205 179.497C140.205 182.21 138.003 184.412 135.29 184.412C132.576 184.412 130.375 182.21 130.375 179.497C130.375 176.783 132.576 174.582 135.29 174.582Z" fill="url(#paint28_radial)"/>
<path fill-rule="evenodd" clip-rule="evenodd" d="M135.29 175.689C137.394 175.689 139.097 177.392 139.097 179.497C139.097 181.601 137.394 183.304 135.29 183.304C133.186 183.304 131.483 181.601 131.483 179.497C131.483 177.392 133.186 175.689 135.29 175.689Z" fill="url(#paint29_linear)"/>
<path d="M135.29 200.375C136.674 200.375 137.796 199.253 137.796 197.869C137.796 196.485 136.674 195.363 135.29 195.363C133.906 195.363 132.784 196.485 132.784 197.869C132.784 199.253 133.906 200.375 135.29 200.375Z" fill="#00045D"/>
<path d="M135.29 200.042C136.491 200.042 137.464 199.069 137.464 197.869C137.464 196.668 136.491 195.695 135.29 195.695C134.09 195.695 133.116 196.668 133.116 197.869C133.116 199.069 134.09 200.042 135.29 200.042Z" fill="url(#paint30_radial)"/>
<path d="M135.29 199.558C136.223 199.558 136.979 198.801 136.979 197.869C136.979 196.936 136.223 196.18 135.29 196.18C134.357 196.18 133.601 196.936 133.601 197.869C133.601 198.801 134.357 199.558 135.29 199.558Z" fill="url(#paint31_linear)"/>
<path fill-rule="evenodd" clip-rule="evenodd" d="M124.823 186.142H128.229C128.409 186.142 128.561 186.294 128.561 186.474C128.561 187.07 129.212 188.703 130.873 189.88C131.912 190.628 133.365 191.182 135.29 191.182C137.228 191.182 138.668 190.628 139.706 189.88C141.368 188.69 142.018 187.07 142.018 186.474C142.018 186.294 142.171 186.142 142.351 186.142H145.743C145.923 186.142 146.075 186.294 146.075 186.474C146.075 188.8 145.12 192.469 143.652 195.266C142.461 197.55 140.911 199.253 139.236 199.267H139.222C139.042 199.267 138.889 199.115 138.889 198.935C138.889 198.173 138.765 196.706 137.906 195.695C137.38 195.072 136.55 194.615 135.29 194.615C134.016 194.615 133.199 195.072 132.673 195.695C131.829 196.706 131.69 198.159 131.69 198.935V198.948C131.69 199.128 131.538 199.281 131.358 199.281C129.669 199.281 128.118 197.564 126.928 195.28C125.474 192.483 124.505 188.814 124.505 186.502V186.488C124.491 186.294 124.643 186.142 124.823 186.142Z" fill="#00045D"/>
<path fill-rule="evenodd" clip-rule="evenodd" d="M128.229 186.474H124.823C124.823 190.559 127.855 198.935 131.344 198.935C131.344 197.619 131.718 194.283 135.276 194.283C138.834 194.283 139.208 197.619 139.208 198.935C142.697 198.935 145.729 190.559 145.729 186.474H142.323C142.323 187.541 140.509 191.528 135.262 191.528C130.015 191.528 128.229 187.541 128.229 186.474Z" fill="url(#paint32_linear)"/>
<path fill-rule="evenodd" clip-rule="evenodd" d="M128.229 186.474C128.229 191.735 131.358 194.283 135.29 194.283C139.222 194.283 142.351 191.735 142.351 186.474C142.351 187.541 140.537 191.528 135.29 191.528C130.043 191.528 128.229 187.541 128.229 186.474Z" fill="url(#paint33_linear)"/>
<path opacity="0.5" fill-rule="evenodd" clip-rule="evenodd" d="M126.374 156.833C126.374 153.399 126.374 113.084 128.603 132.203C128.838 134.224 128.464 184.19 128.368 179.247C127.924 154.244 126.36 160.266 126.374 156.833Z" fill="url(#paint34_linear)"/>
<path opacity="0.5" fill-rule="evenodd" clip-rule="evenodd" d="M124.117 199.572C121.334 197.149 122.193 194.02 122.193 189.105C122.193 182.03 122.663 193.217 122.857 193.868C125.239 201.939 131.662 206.148 124.117 199.572Z" fill="url(#paint35_linear)"/>
<path opacity="0.5" fill-rule="evenodd" clip-rule="evenodd" d="M146.49 199.572C149.273 197.149 148.415 194.02 148.415 189.105C148.415 182.03 147.944 193.217 147.75 193.868C145.383 201.939 138.959 206.148 146.49 199.572Z" fill="url(#paint36_linear)"/>
<path opacity="0.5" fill-rule="evenodd" clip-rule="evenodd" d="M144.261 156.874C144.261 153.441 144.261 113.125 142.032 132.245C141.797 134.266 142.171 184.231 142.268 179.289C142.697 154.299 144.261 160.308 144.261 156.874Z" fill="url(#paint37_linear)"/>
<path fill-rule="evenodd" clip-rule="evenodd" d="M127.758 125.668C127.758 125.433 128.132 125.073 128.132 125.308V130.14C136.148 130.085 131.967 126.416 135.29 126.416V126.79C132.535 126.79 136.19 130.473 128.132 130.514V136.55L129.641 141.894C129.669 141.991 129.614 142.088 129.517 142.116C129.42 142.144 129.323 142.088 129.295 141.991L128.132 137.893V171.328C128.132 175.122 127.911 177.614 127.551 179.317H130.043C130.14 179.317 130.223 179.4 130.223 179.497C130.223 179.594 130.14 179.677 130.043 179.677H127.468C126.941 181.975 126.166 182.681 125.46 183.304C124.643 184.038 123.937 184.675 123.937 188.136C123.937 196.996 125.82 198.561 127.468 199.918C128.824 201.039 130.029 202.036 130.029 206.425C130.029 206.522 129.946 206.605 129.849 206.605C129.752 206.605 129.669 206.522 129.669 206.425C129.669 202.216 128.534 201.261 127.246 200.208C125.529 198.796 123.591 197.176 123.591 188.136C123.591 184.522 124.353 183.83 125.239 183.041C125.903 182.446 126.651 181.767 127.149 179.497C127.149 179.469 127.149 179.441 127.163 179.414C127.523 177.752 127.772 175.246 127.772 171.314V130.32V125.668H127.758Z" fill="#00045D"/>
<path fill-rule="evenodd" clip-rule="evenodd" d="M142.821 125.668C142.821 125.433 142.448 125.073 142.448 125.308V130.14C134.432 130.085 138.613 126.416 135.29 126.416V126.79C138.045 126.79 134.39 130.473 142.448 130.514V136.55L140.939 141.894C140.911 141.991 140.966 142.088 141.063 142.116C141.16 142.144 141.257 142.088 141.285 141.991L142.448 137.893V171.328C142.448 175.122 142.669 177.614 143.029 179.317H140.537C140.44 179.317 140.357 179.4 140.357 179.497C140.357 179.594 140.44 179.677 140.537 179.677H143.112C143.638 181.975 144.414 182.681 145.12 183.304C145.937 184.038 146.643 184.675 146.643 188.136C146.643 196.996 144.76 198.561 143.112 199.918C141.755 201.039 140.551 202.036 140.551 206.425C140.551 206.522 140.634 206.605 140.731 206.605C140.828 206.605 140.911 206.522 140.911 206.425C140.911 202.216 142.046 201.261 143.334 200.208C145.05 198.796 146.989 197.176 146.989 188.136C146.989 184.522 146.227 183.83 145.341 183.041C144.677 182.446 143.929 181.767 143.431 179.497C143.431 179.469 143.431 179.441 143.417 179.414C143.057 177.752 142.808 175.246 142.808 171.314V130.32V125.668H142.821Z" fill="#00045D"/>
<path opacity="0.5" fill-rule="evenodd" clip-rule="evenodd" d="M135.29 109.069C133.241 109.069 125.571 124.395 125.571 126.831C125.571 141.41 125.571 159.671 125.571 174.25C125.571 179.109 120.711 183.969 120.711 186.405C120.711 189.645 120.711 192.884 120.711 196.124C120.711 197.675 124.879 201.247 129.032 205.608C130.666 207.311 129.309 204.196 130.929 202.119C129.406 203.503 127.578 199.322 126.872 196.692C120.711 173.696 130.901 189.839 130.901 174.25C130.901 166.856 129.461 175.731 129.461 149.052C129.461 140.219 130.929 116.6 135.29 109.069Z" fill="url(#paint38_linear)"/>
<path opacity="0.5" fill-rule="evenodd" clip-rule="evenodd" d="M135.29 109.069C137.339 109.069 145.009 124.395 145.009 126.831C145.009 141.41 145.009 159.671 145.009 174.25C145.009 179.109 149.868 183.969 149.868 186.405C149.868 189.645 149.868 192.884 149.868 196.124C149.868 197.675 145.701 201.247 141.548 205.608C139.914 207.311 141.271 204.196 139.651 202.119C141.174 203.503 143.001 199.322 143.707 196.692C149.868 173.696 139.679 189.839 139.679 174.25C139.679 166.856 141.118 175.731 141.118 149.052C141.118 140.219 139.637 116.6 135.29 109.069Z" fill="url(#paint39_linear)"/>
</g>
<defs>
<linearGradient id="paint0_linear" x1="135.287" y1="199.934" x2="135.286" y2="110.115" gradientUnits="userSpaceOnUse">
<stop stop-color="#3654A5"/>
<stop offset="1" stop-color="#5781C1"/>
</linearGradient>
<linearGradient id="paint1_linear" x1="135.289" y1="131.221" x2="135.292" y2="117.245" gradientUnits="userSpaceOnUse">
<stop stop-color="#5781C1"/>
<stop offset="1" stop-color="#6FA1D6"/>
</linearGradient>
<linearGradient id="paint2_linear" x1="126.76" y1="198" x2="126.763" y2="114.715" gradientUnits="userSpaceOnUse">
<stop stop-color="#3654A5"/>
<stop offset="0.42" stop-color="#313092"/>
<stop offset="1" stop-color="#416DB5"/>
</linearGradient>
<linearGradient id="paint3_linear" x1="143.814" y1="198" x2="143.811" y2="114.715" gradientUnits="userSpaceOnUse">
<stop stop-color="#3654A5"/>
<stop offset="0.42" stop-color="#313092"/>
<stop offset="1" stop-color="#416DB5"/>
</linearGradient>
<linearGradient id="paint4_linear" x1="135.287" y1="134.796" x2="135.294" y2="113.642" gradientUnits="userSpaceOnUse">
<stop stop-color="#6FA1D6"/>
<stop offset="1" stop-color="white"/>
</linearGradient>
<linearGradient id="paint5_linear" x1="135.285" y1="185.341" x2="135.279" y2="191.51" gradientUnits="userSpaceOnUse">
<stop stop-color="#6FA1D6"/>
<stop offset="1" stop-color="white"/>
</linearGradient>
<radialGradient id="paint6_radial" cx="0" cy="0" r="1" gradientUnits="userSpaceOnUse" gradientTransform="translate(135.285 118.768) rotate(0.093109) scale(8.39385 7.79705)">
<stop stop-color="#ADB2C0"/>
<stop offset="1" stop-color="#383E4C"/>
</radialGradient>
<linearGradient id="paint7_linear" x1="135.289" y1="119.252" x2="135.292" y2="114.563" gradientUnits="userSpaceOnUse">
<stop stop-color="#CC721C"/>
<stop offset="1" stop-color="#F5841F"/>
</linearGradient>
<linearGradient id="paint8_linear" x1="127.132" y1="124.445" x2="135.133" y2="108.989" gradientUnits="userSpaceOnUse">
<stop stop-color="#020000"/>
<stop offset="1" stop-color="#ADB2C0"/>
</linearGradient>
<linearGradient id="paint9_linear" x1="143.442" y1="124.445" x2="135.441" y2="108.989" gradientUnits="userSpaceOnUse">
<stop stop-color="#020000"/>
<stop offset="1" stop-color="#ADB2C0"/>
</linearGradient>
<linearGradient id="paint10_linear" x1="135.289" y1="112.144" x2="135.29" y2="110.749" gradientUnits="userSpaceOnUse">
<stop stop-color="#ADB2C0"/>
<stop offset="1" stop-color="white"/>
</linearGradient>
<radialGradient id="paint11_radial" cx="0" cy="0" r="1" gradientUnits="userSpaceOnUse" gradientTransform="translate(135.286 149.83) rotate(-90.0056) scale(13.0505 4.6538)">
<stop stop-color="#ADB2C0"/>
<stop offset="1" stop-color="#383E4C"/>
</radialGradient>
<linearGradient id="paint12_linear" x1="129.822" y1="149.345" x2="132.3" y2="149.343" gradientUnits="userSpaceOnUse">
<stop stop-color="#020000"/>
<stop offset="1" stop-color="#ADB2C0"/>
</linearGradient>
<linearGradient id="paint13_linear" x1="140.752" y1="149.345" x2="138.274" y2="149.343" gradientUnits="userSpaceOnUse">
<stop stop-color="#020000"/>
<stop offset="1" stop-color="#ADB2C0"/>
</linearGradient>
<linearGradient id="paint14_linear" x1="140.314" y1="155.623" x2="129.789" y2="152.979" gradientUnits="userSpaceOnUse">
<stop stop-color="#5F626B"/>
<stop offset="1" stop-color="white"/>
</linearGradient>
<radialGradient id="paint15_radial" cx="0" cy="0" r="1" gradientUnits="userSpaceOnUse" gradientTransform="translate(135.379 139.432) rotate(-90.0195) scale(8.87267 6.6687)">
<stop stop-color="#3654A5"/>
<stop offset="1"/>
</radialGradient>
<linearGradient id="paint16_linear" x1="135.286" y1="145.084" x2="135.289" y2="134.06" gradientUnits="userSpaceOnUse">
<stop/>
<stop offset="1" stop-color="#3654A5"/>
</linearGradient>
<linearGradient id="paint17_linear" x1="135.287" y1="143.198" x2="135.286" y2="136.28" gradientUnits="userSpaceOnUse">
<stop/>
<stop offset="1" stop-color="#AADDDD"/>
</linearGradient>
<linearGradient id="paint18_linear" x1="140.986" y1="144.269" x2="132.492" y2="139.614" gradientUnits="userSpaceOnUse">
<stop stop-color="#3654A5"/>
<stop offset="1" stop-color="white"/>
</linearGradient>
<linearGradient id="paint19_linear" x1="135.283" y1="134.061" x2="135.286" y2="138.507" gradientUnits="userSpaceOnUse">
<stop stop-color="#AADDDD"/>
<stop offset="1" stop-color="#3654A5"/>
</linearGradient>
<radialGradient id="paint20_radial" cx="0" cy="0" r="1" gradientUnits="userSpaceOnUse" gradientTransform="translate(135.286 166.162) rotate(-89.9881) scale(6.21502 3.31696)">
<stop stop-color="#ADB2C0"/>
<stop offset="1" stop-color="#383E4C"/>
</radialGradient>
<linearGradient id="paint21_linear" x1="130.431" y1="168.133" x2="132.117" y2="168.131" gradientUnits="userSpaceOnUse">
<stop stop-color="#020000"/>
<stop offset="1" stop-color="#ADB2C0"/>
</linearGradient>
<linearGradient id="paint22_linear" x1="140.143" y1="168.133" x2="138.458" y2="168.131" gradientUnits="userSpaceOnUse">
<stop stop-color="#020000"/>
<stop offset="1" stop-color="#ADB2C0"/>
</linearGradient>
<linearGradient id="paint23_linear" x1="138.624" y1="167.769" x2="130.592" y2="164.377" gradientUnits="userSpaceOnUse">
<stop stop-color="#5F626B"/>
<stop offset="1" stop-color="white"/>
</linearGradient>
<linearGradient id="paint24_linear" x1="131.779" y1="189.318" x2="131.785" y2="184.486" gradientUnits="userSpaceOnUse">
<stop stop-color="#3D0000"/>
<stop offset="1" stop-color="#794503"/>
</linearGradient>
<radialGradient id="paint25_radial" cx="0" cy="0" r="1" gradientUnits="userSpaceOnUse" gradientTransform="translate(131.778 185.535) rotate(-90) scale(4.39442 1.73404)">
<stop stop-color="#E4E526"/>
<stop offset="1" stop-color="#EF4423"/>
</radialGradient>
<linearGradient id="paint26_linear" x1="138.938" y1="189.318" x2="138.933" y2="184.486" gradientUnits="userSpaceOnUse">
<stop stop-color="#3D0000"/>
<stop offset="1" stop-color="#794503"/>
</linearGradient>
<radialGradient id="paint27_radial" cx="0" cy="0" r="1" gradientUnits="userSpaceOnUse" gradientTransform="translate(138.939 185.535) rotate(-90) scale(4.39431 1.734)">
<stop stop-color="#E4E526"/>
<stop offset="1" stop-color="#EF4423"/>
</radialGradient>
<radialGradient id="paint28_radial" cx="0" cy="0" r="1" gradientUnits="userSpaceOnUse" gradientTransform="translate(135.376 175.683) scale(8.71559)">
<stop stop-color="#4361AD"/>
<stop offset="1" stop-color="#140C4F"/>
</radialGradient>
<linearGradient id="paint29_linear" x1="135.286" y1="183.868" x2="135.288" y2="175.685" gradientUnits="userSpaceOnUse">
<stop stop-color="#4361AD"/>
<stop offset="1" stop-color="#6FA1D6"/>
</linearGradient>
<radialGradient id="paint30_radial" cx="0" cy="0" r="1" gradientUnits="userSpaceOnUse" gradientTransform="translate(135.327 196.184) scale(3.86459)">
<stop stop-color="#4361AD"/>
<stop offset="1" stop-color="#140C4F"/>
</radialGradient>
<linearGradient id="paint31_linear" x1="135.287" y1="199.813" x2="135.288" y2="196.185" gradientUnits="userSpaceOnUse">
<stop stop-color="#4361AD"/>
<stop offset="1" stop-color="#6FA1D6"/>
</linearGradient>
<linearGradient id="paint32_linear" x1="135.285" y1="199.168" x2="135.286" y2="190.85" gradientUnits="userSpaceOnUse">
<stop stop-color="#25409A"/>
<stop offset="1" stop-color="#4E72B8"/>
</linearGradient>
<linearGradient id="paint33_linear" x1="135.287" y1="187.979" x2="135.286" y2="194.284" gradientUnits="userSpaceOnUse">
<stop stop-color="#2F50A3"/>
<stop offset="1" stop-color="#2B2477"/>
</linearGradient>
<linearGradient id="paint34_linear" x1="127.522" y1="178.488" x2="127.528" y2="137.87" gradientUnits="userSpaceOnUse">
<stop stop-color="#6FA1D6"/>
<stop offset="1" stop-color="white"/>
</linearGradient>
<linearGradient id="paint35_linear" x1="124.876" y1="202.476" x2="124.876" y2="190.065" gradientUnits="userSpaceOnUse">
<stop stop-color="#6FA1D6"/>
<stop offset="1" stop-color="white"/>
</linearGradient>
<linearGradient id="paint36_linear" x1="145.737" y1="202.476" x2="145.737" y2="190.065" gradientUnits="userSpaceOnUse">
<stop stop-color="#6FA1D6"/>
<stop offset="1" stop-color="white"/>
</linearGradient>
<linearGradient id="paint37_linear" x1="143.103" y1="178.535" x2="143.097" y2="137.917" gradientUnits="userSpaceOnUse">
<stop stop-color="#6FA1D6"/>
<stop offset="1" stop-color="white"/>
</linearGradient>
<linearGradient id="paint38_linear" x1="124.823" y1="157.581" x2="135.287" y2="157.581" gradientUnits="userSpaceOnUse">
<stop stop-color="#140C4F"/>
<stop offset="1" stop-color="white"/>
</linearGradient>
<linearGradient id="paint39_linear" x1="145.751" y1="157.581" x2="135.287" y2="157.581" gradientUnits="userSpaceOnUse">
<stop stop-color="#140C4F"/>
<stop offset="1" stop-color="white"/>
</linearGradient>
<clipPath id="clip0">
<rect x="79.8418" y="26.0281" width="110.896" height="232.66" fill="white"/>
</clipPath>
</defs>
</svg>
