<svg width="270" height="370" viewBox="0 0 270 370" fill="none" xmlns="http://www.w3.org/2000/svg">
<g clip-path="url(#clip0)">
<path fill-rule="evenodd" clip-rule="evenodd" d="M129.157 202.936C128.506 205.359 124.546 202.908 124.546 207.574C124.546 215.41 124.546 223.232 124.546 231.068C124.546 231.691 124.823 232.231 125.349 232.577C126.554 233.408 127.758 234.225 128.963 235.056C129.6 235.499 130.264 235.706 131.039 235.706C133.85 235.706 136.66 235.706 139.457 235.706C140.232 235.706 140.897 235.499 141.534 235.056C142.738 234.225 143.943 233.408 145.147 232.577C145.659 232.231 145.95 231.691 145.95 231.068C145.95 223.232 145.95 215.41 145.95 207.574C145.95 202.922 141.991 205.373 141.34 202.936C140.897 201.316 139.471 200.222 137.796 200.222C136.107 200.222 134.404 200.222 132.715 200.222C131.012 200.236 129.586 201.316 129.157 202.936Z" fill="#1D41B3"/>
<path fill-rule="evenodd" clip-rule="evenodd" d="M129.157 202.936C128.506 205.359 124.546 202.908 124.546 207.574C124.546 215.41 124.546 223.232 124.546 231.068C124.546 231.691 124.823 232.231 125.349 232.577C126.554 233.408 127.758 234.225 128.963 235.056C129.6 235.499 130.264 235.706 131.04 235.706C133.85 235.706 136.66 235.706 139.457 235.706C140.232 235.706 140.897 235.499 141.534 235.056C142.738 234.225 143.943 233.408 145.147 232.577C145.66 232.231 145.95 231.691 145.95 231.068C145.95 223.232 145.95 215.41 145.95 207.574C145.95 202.922 141.991 205.372 141.34 202.936C140.897 201.316 139.471 200.222 137.796 200.222C136.107 200.222 134.404 200.222 132.715 200.222C131.012 200.236 129.586 201.316 129.157 202.936ZM126.872 202.867C127.288 202.784 127.675 202.7 127.731 202.576V202.562C128.035 201.441 128.686 200.485 129.572 199.821C130.444 199.156 131.524 198.769 132.701 198.769H137.782C138.945 198.769 140.039 199.156 140.911 199.821C141.783 200.485 142.434 201.441 142.752 202.562C142.78 202.687 143.195 202.77 143.611 202.867C145.438 203.24 147.418 203.656 147.418 207.574V231.068C147.418 231.622 147.293 232.134 147.044 232.605C146.795 233.076 146.435 233.477 145.978 233.782L142.364 236.26C141.921 236.565 141.465 236.786 140.98 236.938C140.482 237.091 139.983 237.16 139.457 237.16H131.04C130.513 237.16 130.015 237.091 129.517 236.938C129.032 236.786 128.575 236.565 128.132 236.26L124.519 233.782C124.062 233.463 123.702 233.062 123.453 232.605C123.203 232.134 123.079 231.608 123.079 231.068V207.574C123.065 203.642 125.045 203.24 126.872 202.867Z" fill="black"/>
<path fill-rule="evenodd" clip-rule="evenodd" d="M135.234 235.706H139.291V223.163H135.234H131.192V235.706H135.234Z" fill="url(#paint0_linear)"/>
<path fill-rule="evenodd" clip-rule="evenodd" d="M135.234 235.706H137.99V224.312H135.234H132.479V235.706H135.234Z" fill="url(#paint1_linear)"/>
<path fill-rule="evenodd" clip-rule="evenodd" d="M132.161 200.305C132.133 200.208 132.189 200.112 132.286 200.07C132.382 200.042 132.479 200.098 132.521 200.195C132.853 201.247 132.825 202.631 132.798 204.016C132.742 206.66 132.701 209.304 135.248 209.304C137.796 209.304 137.74 206.66 137.699 204.016C137.671 202.631 137.643 201.247 137.976 200.195C138.003 200.098 138.114 200.042 138.211 200.07C138.308 200.098 138.363 200.208 138.336 200.305C138.017 201.302 138.045 202.659 138.073 204.016C138.128 206.84 138.183 209.678 135.262 209.678C132.341 209.678 132.396 206.854 132.452 204.016C132.452 202.659 132.479 201.302 132.161 200.305Z" fill="#00045D"/>
<path fill-rule="evenodd" clip-rule="evenodd" d="M124.353 246.685C122.857 246.685 121.5 245.813 121.5 242.13C121.5 239.984 121.5 239.666 121.5 237.52H127.205C127.205 239.666 127.205 239.984 127.205 242.13C127.205 245.813 125.848 246.685 124.353 246.685Z" fill="url(#paint2_linear)"/>
<path fill-rule="evenodd" clip-rule="evenodd" d="M124.353 248.153C123.19 248.153 122.068 247.793 121.21 246.685C120.49 245.771 120.033 244.332 120.033 242.13V237.52C120.033 236.703 120.698 236.052 121.5 236.052H127.205C128.021 236.052 128.672 236.717 128.672 237.52V242.144C128.672 244.345 128.215 245.771 127.495 246.699C126.637 247.793 125.515 248.153 124.353 248.153ZM124.353 246.685C122.857 246.685 121.5 245.813 121.5 242.13C121.5 239.984 121.5 239.666 121.5 237.52H127.205C127.205 239.666 127.205 239.984 127.205 242.13C127.205 245.813 125.848 246.685 124.353 246.685Z" fill="black"/>
<path fill-rule="evenodd" clip-rule="evenodd" d="M126.388 242.476C126.388 242.684 126.263 242.85 126.125 242.85C125.972 242.85 125.862 242.684 125.862 242.476V237.52C125.862 237.312 125.986 237.146 126.125 237.146C126.277 237.146 126.388 237.312 126.388 237.52V242.476ZM122.857 242.476C122.857 242.684 122.733 242.85 122.594 242.85C122.442 242.85 122.331 242.684 122.331 242.476V237.52C122.331 237.312 122.456 237.146 122.594 237.146C122.747 237.146 122.857 237.312 122.857 237.52V242.476ZM124.629 243.404C124.629 243.612 124.505 243.778 124.366 243.778C124.214 243.778 124.103 243.612 124.103 243.404V238.448C124.103 238.24 124.228 238.074 124.366 238.074C124.519 238.074 124.629 238.24 124.629 238.448V243.404Z" fill="url(#paint3_linear)"/>
<path opacity="0.5" fill-rule="evenodd" clip-rule="evenodd" d="M125.848 237.52H127.204C127.204 239.666 127.204 239.984 127.204 242.13C127.204 245.065 126.332 246.214 125.211 246.561C125.585 245.896 125.848 244.567 125.848 242.13V237.52V237.52Z" fill="url(#paint4_linear)"/>
<path opacity="0.5" fill-rule="evenodd" clip-rule="evenodd" d="M123.494 246.574C122.373 246.228 121.5 245.079 121.5 242.144C121.5 239.998 121.5 239.68 121.5 237.534H122.857V242.144C122.857 244.581 123.106 245.91 123.494 246.574Z" fill="url(#paint5_linear)"/>
<path fill-rule="evenodd" clip-rule="evenodd" d="M124.353 205.345C120.102 205.345 116.226 207.948 116.226 218.802C116.226 224.963 116.226 231.138 116.226 237.298C116.226 237.645 116.461 237.935 116.793 238.018C121.722 239.154 126.762 239.181 131.912 238.018C132.244 237.935 132.479 237.645 132.479 237.298C132.479 231.138 132.479 224.963 132.479 218.802C132.479 207.948 128.603 205.345 124.353 205.345Z" fill="url(#paint6_linear)"/>
<path fill-rule="evenodd" clip-rule="evenodd" d="M124.353 205.345C120.102 205.345 116.226 207.948 116.226 218.802C116.226 224.963 116.226 231.138 116.226 237.298C116.226 237.645 116.461 237.935 116.793 238.018C121.722 239.154 126.762 239.181 131.912 238.018C132.244 237.935 132.479 237.645 132.479 237.298C132.479 231.138 132.479 224.963 132.479 218.802C132.479 207.948 128.603 205.345 124.353 205.345ZM117.527 207.131C119.369 204.68 121.819 203.877 124.353 203.877C126.9 203.877 129.337 204.666 131.178 207.131C132.867 209.374 133.947 213.029 133.947 218.802V237.298C133.947 237.811 133.767 238.295 133.462 238.669C133.158 239.043 132.729 239.32 132.23 239.431C129.544 240.04 126.9 240.33 124.27 240.33C121.625 240.33 119.036 240.026 116.461 239.431C115.963 239.32 115.534 239.043 115.229 238.655C114.924 238.268 114.744 237.797 114.744 237.285V218.802C114.758 213.029 115.838 209.374 117.527 207.131Z" fill="black"/>
<path fill-rule="evenodd" clip-rule="evenodd" d="M116.226 232.813C116.226 238.96 116.226 232.01 116.226 237.298C116.226 237.645 116.461 237.935 116.793 238.018C121.722 239.154 126.762 239.181 131.912 238.018C132.244 237.935 132.479 237.645 132.479 237.298C132.479 232.01 132.479 238.96 132.479 232.813C126.983 233.768 121.556 233.754 116.226 232.813Z" fill="url(#paint7_linear)"/>
<path fill-rule="evenodd" clip-rule="evenodd" d="M116.226 228.479C116.226 229.033 116.226 229.573 116.226 230.127C121.653 230.556 127.08 230.556 132.493 230.127C132.493 229.573 132.493 229.033 132.493 228.479C127.038 228.95 121.625 228.95 116.226 228.479Z" fill="url(#paint8_linear)"/>
<path fill-rule="evenodd" clip-rule="evenodd" d="M123.619 215.202H125.086C125.889 215.202 126.554 215.867 126.554 216.67V229.462C126.554 230.265 125.889 230.93 125.086 230.93H123.619C122.816 230.93 122.151 230.265 122.151 229.462V216.67C122.151 215.867 122.816 215.202 123.619 215.202Z" fill="url(#paint9_linear)"/>
<path fill-rule="evenodd" clip-rule="evenodd" d="M125.031 216.213H123.688C123.134 216.213 122.677 216.67 122.677 217.224V228.922C122.677 229.476 123.134 229.933 123.688 229.933H125.031C125.585 229.933 126.042 229.476 126.042 228.922V217.224C126.028 216.656 125.585 216.213 125.031 216.213Z" fill="url(#paint10_linear)"/>
<path opacity="0.5" fill-rule="evenodd" clip-rule="evenodd" d="M125.031 216.213H123.688C123.134 216.213 122.677 216.67 122.677 217.224V221.958C122.677 222.512 123.134 219.3 123.688 219.3H125.031C125.585 219.3 126.042 222.512 126.042 221.958V217.224C126.028 216.656 125.585 216.213 125.031 216.213Z" fill="url(#paint11_linear)"/>
<path fill-rule="evenodd" clip-rule="evenodd" d="M124.353 210.883C122.11 210.883 119.673 210.26 118.469 208.183C118.344 207.975 118.663 207.795 118.787 208.003C119.922 209.955 122.248 210.509 124.353 210.509C126.457 210.509 128.783 209.955 129.918 208.003C130.043 207.795 130.361 207.975 130.237 208.183C129.032 210.26 126.596 210.883 124.353 210.883Z" fill="#00045D"/>
<path fill-rule="evenodd" clip-rule="evenodd" d="M116.226 233.187V232.425C118.912 232.882 121.653 233.145 124.353 233.145C127.052 233.145 129.794 232.882 132.479 232.425V233.187C129.752 233.657 127.08 233.879 124.353 233.879C121.625 233.879 118.953 233.644 116.226 233.187Z" fill="url(#paint12_linear)"/>
<path fill-rule="evenodd" clip-rule="evenodd" d="M131.621 216.324V223.038C131.621 223.481 130.597 223.717 130.597 223.121V216.241C130.597 215.645 131.621 215.881 131.621 216.324Z" fill="url(#paint13_linear)"/>
<path fill-rule="evenodd" clip-rule="evenodd" d="M131.261 216.656V222.706C131.261 223.108 130.652 223.329 130.652 222.789V216.573C130.652 216.033 131.261 216.254 131.261 216.656Z" fill="url(#paint14_linear)"/>
<path fill-rule="evenodd" clip-rule="evenodd" d="M130.112 216.324V223.038C130.112 223.481 128.755 223.717 128.755 223.121V216.241C128.755 215.645 130.112 215.881 130.112 216.324Z" fill="url(#paint15_linear)"/>
<path fill-rule="evenodd" clip-rule="evenodd" d="M129.78 216.684V222.734C129.78 223.135 128.963 223.357 128.963 222.817V216.601C128.963 216.061 129.78 216.282 129.78 216.684Z" fill="url(#paint16_linear)"/>
<path fill-rule="evenodd" clip-rule="evenodd" d="M116.226 218.982V218.608H117.527C118.635 218.608 119.548 219.522 119.548 220.629V232.868L119.175 232.827V220.629C119.175 219.716 118.441 218.982 117.527 218.982H116.226Z" fill="#00045D"/>
<path fill-rule="evenodd" clip-rule="evenodd" d="M126.554 223.246C126.554 223.122 126.554 222.997 126.554 222.872C128.534 222.872 130.5 225.627 132.479 225.627C132.479 225.752 132.479 225.877 132.479 226.001C130.514 226.001 128.534 223.246 126.554 223.246Z" fill="#00045D"/>
<path d="M124.546 230.93H124.173V233.145H124.546V230.93Z" fill="#00045D"/>
<path fill-rule="evenodd" clip-rule="evenodd" d="M132.313 215.175L132.355 215.548C129.558 215.548 127.108 215.064 124.546 215.036V215.216H124.173V214.856C124.173 214.759 124.256 214.676 124.353 214.676C126.928 214.648 129.503 215.175 132.313 215.175Z" fill="#00045D"/>
<path opacity="0.5" fill-rule="evenodd" clip-rule="evenodd" d="M124.353 205.345C123.023 205.345 121.722 205.594 120.573 206.286C119.493 206.937 118.524 207.962 117.79 209.526C119.036 208.377 120.601 207.546 124.865 207.546C131.053 207.546 130.68 225.004 130.68 238.281C131.095 238.198 131.496 238.115 131.912 238.018C132.244 237.949 132.479 237.645 132.479 237.298C132.479 231.138 132.479 224.963 132.479 218.802C132.479 207.948 128.603 205.345 124.353 205.345Z" fill="url(#paint17_linear)"/>
<path fill-rule="evenodd" clip-rule="evenodd" d="M146.117 246.685C147.612 246.685 148.969 245.813 148.969 242.13C148.969 239.984 148.969 239.666 148.969 237.52H143.265C143.265 239.666 143.265 239.984 143.265 242.13C143.265 245.813 144.635 246.685 146.117 246.685Z" fill="url(#paint18_linear)"/>
<path fill-rule="evenodd" clip-rule="evenodd" d="M146.117 246.685C147.612 246.685 148.969 245.813 148.969 242.13C148.969 239.984 148.969 239.666 148.969 237.52H143.264C143.264 239.666 143.264 239.984 143.264 242.13C143.264 245.813 144.635 246.685 146.117 246.685ZM149.273 246.699C148.415 247.807 147.293 248.167 146.13 248.167C144.967 248.167 143.846 247.807 142.988 246.699C142.268 245.785 141.811 244.345 141.811 242.144V237.534C141.811 236.717 142.475 236.066 143.278 236.066H148.982C149.799 236.066 150.45 236.731 150.45 237.534V242.144C150.45 244.345 149.979 245.771 149.273 246.699Z" fill="black"/>
<path fill-rule="evenodd" clip-rule="evenodd" d="M144.081 242.476C144.081 242.684 144.206 242.85 144.344 242.85C144.497 242.85 144.607 242.684 144.607 242.476V237.52C144.607 237.312 144.483 237.146 144.344 237.146C144.192 237.146 144.081 237.312 144.081 237.52V242.476ZM147.626 242.476C147.626 242.684 147.75 242.85 147.889 242.85C148.041 242.85 148.152 242.684 148.152 242.476V237.52C148.152 237.312 148.027 237.146 147.889 237.146C147.736 237.146 147.626 237.312 147.626 237.52V242.476ZM145.853 243.404C145.853 243.612 145.978 243.778 146.116 243.778C146.269 243.778 146.38 243.612 146.38 243.404V238.448C146.38 238.24 146.255 238.074 146.116 238.074C145.964 238.074 145.853 238.24 145.853 238.448V243.404Z" fill="url(#paint19_linear)"/>
<path opacity="0.5" fill-rule="evenodd" clip-rule="evenodd" d="M144.621 237.52H143.265C143.265 239.666 143.265 239.984 143.265 242.13C143.265 245.065 144.137 246.214 145.258 246.561C144.884 245.896 144.621 244.567 144.621 242.13V237.52Z" fill="url(#paint20_linear)"/>
<path opacity="0.5" fill-rule="evenodd" clip-rule="evenodd" d="M146.989 246.574C148.11 246.228 148.982 245.079 148.982 242.144C148.982 239.998 148.982 239.68 148.982 237.534H147.626V242.144C147.626 244.581 147.363 245.91 146.989 246.574Z" fill="url(#paint21_linear)"/>
<path fill-rule="evenodd" clip-rule="evenodd" d="M146.117 205.345C150.367 205.345 154.243 207.948 154.243 218.802C154.243 224.963 154.243 231.138 154.243 237.298C154.243 237.645 154.008 237.935 153.676 238.018C148.747 239.154 143.708 239.181 138.557 238.018C138.225 237.935 137.99 237.645 137.99 237.298C137.99 231.138 137.99 224.963 137.99 218.802C137.99 207.948 141.88 205.345 146.117 205.345Z" fill="url(#paint22_linear)"/>
<path fill-rule="evenodd" clip-rule="evenodd" d="M146.117 203.877C148.664 203.877 151.114 204.666 152.942 207.131C154.631 209.374 155.711 213.029 155.711 218.802V237.298C155.711 237.811 155.531 238.295 155.226 238.669C154.922 239.043 154.493 239.334 153.994 239.444C151.433 240.04 148.83 240.344 146.186 240.344C143.555 240.344 140.897 240.054 138.225 239.444C137.727 239.334 137.297 239.057 136.993 238.683C136.688 238.295 136.508 237.825 136.508 237.312V218.802C136.508 213.029 137.602 209.374 139.277 207.131C141.132 204.666 143.583 203.877 146.117 203.877ZM146.117 205.345C150.367 205.345 154.243 207.948 154.243 218.802C154.243 224.963 154.243 231.138 154.243 237.298C154.243 237.645 154.008 237.935 153.676 238.018C148.747 239.154 143.708 239.181 138.557 238.018C138.225 237.935 137.99 237.645 137.99 237.298C137.99 231.138 137.99 224.963 137.99 218.802C137.99 207.948 141.88 205.345 146.117 205.345Z" fill="black"/>
<path fill-rule="evenodd" clip-rule="evenodd" d="M154.257 232.813C154.257 238.96 154.257 232.01 154.257 237.298C154.257 237.645 154.022 237.935 153.69 238.018C148.761 239.154 143.721 239.181 138.571 238.018C138.239 237.935 138.004 237.645 138.004 237.298C138.004 232.01 138.004 238.96 138.004 232.813C143.5 233.768 148.913 233.754 154.257 232.813Z" fill="url(#paint23_linear)"/>
<path fill-rule="evenodd" clip-rule="evenodd" d="M154.257 228.479C154.257 229.033 154.257 229.573 154.257 230.127C148.83 230.556 143.403 230.556 137.99 230.127C137.99 229.573 137.99 229.033 137.99 228.479C143.431 228.95 148.858 228.95 154.257 228.479Z" fill="url(#paint24_linear)"/>
<path fill-rule="evenodd" clip-rule="evenodd" d="M146.864 215.202H145.397C144.594 215.202 143.929 215.867 143.929 216.67V229.462C143.929 230.265 144.594 230.93 145.397 230.93H146.864C147.667 230.93 148.332 230.265 148.332 229.462V216.67C148.332 215.867 147.667 215.202 146.864 215.202Z" fill="url(#paint25_linear)"/>
<path fill-rule="evenodd" clip-rule="evenodd" d="M145.452 216.213H146.795C147.349 216.213 147.806 216.67 147.806 217.224V228.922C147.806 229.476 147.349 229.933 146.795 229.933H145.452C144.898 229.933 144.441 229.476 144.441 228.922V217.224C144.441 216.656 144.898 216.213 145.452 216.213Z" fill="url(#paint26_linear)"/>
<path opacity="0.5" fill-rule="evenodd" clip-rule="evenodd" d="M145.452 216.213H146.795C147.349 216.213 147.806 216.67 147.806 217.224V221.958C147.806 222.512 147.349 219.3 146.795 219.3H145.452C144.898 219.3 144.441 222.512 144.441 221.958V217.224C144.441 216.656 144.898 216.213 145.452 216.213Z" fill="url(#paint27_linear)"/>
<path fill-rule="evenodd" clip-rule="evenodd" d="M146.116 210.883C148.359 210.883 150.796 210.26 152 208.183C152.125 207.975 151.807 207.795 151.682 208.003C150.547 209.955 148.221 210.509 146.116 210.509C144.012 210.509 141.686 209.955 140.551 208.003C140.426 207.795 140.108 207.975 140.232 208.183C141.437 210.26 143.874 210.883 146.116 210.883Z" fill="#00045D"/>
<path fill-rule="evenodd" clip-rule="evenodd" d="M154.257 233.187V232.425C151.571 232.882 148.83 233.145 146.13 233.145C143.431 233.145 140.689 232.882 138.004 232.425V233.187C140.731 233.657 143.403 233.879 146.13 233.879C148.858 233.865 151.53 233.644 154.257 233.187Z" fill="url(#paint28_linear)"/>
<path fill-rule="evenodd" clip-rule="evenodd" d="M138.862 216.324V223.038C138.862 223.481 139.886 223.717 139.886 223.121V216.241C139.886 215.645 138.862 215.881 138.862 216.324Z" fill="url(#paint29_linear)"/>
<path fill-rule="evenodd" clip-rule="evenodd" d="M139.222 216.656V222.706C139.222 223.108 139.831 223.329 139.831 222.789V216.573C139.831 216.033 139.222 216.254 139.222 216.656Z" fill="url(#paint30_linear)"/>
<path fill-rule="evenodd" clip-rule="evenodd" d="M140.357 216.324V223.038C140.357 223.481 141.714 223.717 141.714 223.121V216.241C141.714 215.645 140.357 215.881 140.357 216.324Z" fill="url(#paint31_linear)"/>
<path fill-rule="evenodd" clip-rule="evenodd" d="M140.703 216.684V222.734C140.703 223.135 141.52 223.357 141.52 222.817V216.601C141.52 216.061 140.703 216.282 140.703 216.684Z" fill="url(#paint32_linear)"/>
<path fill-rule="evenodd" clip-rule="evenodd" d="M154.257 218.982V218.608H152.942C151.834 218.608 150.921 219.522 150.921 220.629V232.868L151.294 232.827V220.629C151.294 219.716 152.028 218.982 152.942 218.982H154.257Z" fill="#00045D"/>
<path fill-rule="evenodd" clip-rule="evenodd" d="M143.915 223.246C143.915 223.122 143.915 222.997 143.915 222.872C141.935 222.872 139.97 225.627 137.99 225.627C137.99 225.752 137.99 225.877 137.99 226.001C139.97 226.001 141.949 223.246 143.915 223.246Z" fill="#00045D"/>
<path d="M146.31 230.93H145.937V233.145H146.31V230.93Z" fill="#00045D"/>
<path fill-rule="evenodd" clip-rule="evenodd" d="M138.156 215.175L138.114 215.548C140.911 215.548 143.361 215.064 145.923 215.036V215.216H146.296V214.856C146.296 214.759 146.213 214.676 146.117 214.676C143.541 214.648 140.98 215.175 138.156 215.175Z" fill="#00045D"/>
<path opacity="0.5" fill-rule="evenodd" clip-rule="evenodd" d="M146.117 205.345C147.446 205.345 148.747 205.594 149.896 206.286C150.976 206.937 151.945 207.962 152.679 209.526C151.433 208.377 149.869 207.546 145.604 207.546C139.416 207.546 139.79 225.004 139.79 238.281C139.374 238.198 138.973 238.115 138.557 238.018C138.225 237.949 137.99 237.645 137.99 237.298C137.99 231.138 137.99 224.963 137.99 218.802C137.99 207.948 141.88 205.345 146.117 205.345Z" fill="url(#paint33_linear)"/>
</g>
<defs>
<linearGradient id="paint0_linear" x1="131.171" y1="229.435" x2="139.291" y2="229.434" gradientUnits="userSpaceOnUse">
<stop stop-color="#383E4C"/>
<stop offset="0.5" stop-color="#ADB2C0"/>
<stop offset="1" stop-color="#383E4C"/>
</linearGradient>
<linearGradient id="paint1_linear" x1="135.237" y1="235.518" x2="135.239" y2="224.31" gradientUnits="userSpaceOnUse">
<stop stop-color="#ADB2C0"/>
<stop offset="1" stop-color="#5F626B"/>
</linearGradient>
<linearGradient id="paint2_linear" x1="121.603" y1="242.108" x2="127.208" y2="242.107" gradientUnits="userSpaceOnUse">
<stop stop-color="#383E4C"/>
<stop offset="0.49" stop-color="#ADB2C0"/>
<stop offset="1" stop-color="#383E4C"/>
</linearGradient>
<linearGradient id="paint3_linear" x1="124.353" y1="238.299" x2="124.355" y2="243.766" gradientUnits="userSpaceOnUse">
<stop stop-color="#020000"/>
<stop offset="1" stop-color="#5F626B"/>
</linearGradient>
<linearGradient id="paint4_linear" x1="127.273" y1="242.049" x2="125.857" y2="242.048" gradientUnits="userSpaceOnUse">
<stop stop-color="#383E4C"/>
<stop offset="1" stop-color="white"/>
</linearGradient>
<linearGradient id="paint5_linear" x1="121.605" y1="242.049" x2="122.848" y2="242.048" gradientUnits="userSpaceOnUse">
<stop stop-color="#383E4C"/>
<stop offset="1" stop-color="white"/>
</linearGradient>
<linearGradient id="paint6_linear" x1="116.174" y1="222.113" x2="132.483" y2="222.111" gradientUnits="userSpaceOnUse">
<stop stop-color="#3654A5"/>
<stop offset="0.5" stop-color="#6FA1D6"/>
<stop offset="1" stop-color="#3654A5"/>
</linearGradient>
<linearGradient id="paint7_linear" x1="116.193" y1="235.843" x2="132.484" y2="235.841" gradientUnits="userSpaceOnUse">
<stop stop-color="#383E4C"/>
<stop offset="0.5" stop-color="#ADB2C0"/>
<stop offset="1" stop-color="#383E4C"/>
</linearGradient>
<linearGradient id="paint8_linear" x1="132.455" y1="229.464" x2="116.221" y2="229.462" gradientUnits="userSpaceOnUse">
<stop stop-color="#C2691B"/>
<stop offset="0.5" stop-color="#F5841F"/>
<stop offset="1" stop-color="#C2691B"/>
</linearGradient>
<linearGradient id="paint9_linear" x1="122.148" y1="223.063" x2="126.558" y2="223.061" gradientUnits="userSpaceOnUse">
<stop stop-color="#5F626B"/>
<stop offset="0.5" stop-color="#ADB2C0"/>
<stop offset="1" stop-color="#5F626B"/>
</linearGradient>
<linearGradient id="paint10_linear" x1="122.733" y1="223.062" x2="126.034" y2="223.062" gradientUnits="userSpaceOnUse">
<stop stop-color="#5F626B"/>
<stop offset="0.49"/>
<stop offset="1" stop-color="#5F626B"/>
</linearGradient>
<linearGradient id="paint11_linear" x1="124.352" y1="216.269" x2="124.354" y2="222.112" gradientUnits="userSpaceOnUse">
<stop stop-color="#020000"/>
<stop offset="1" stop-color="white"/>
</linearGradient>
<linearGradient id="paint12_linear" x1="116.192" y1="233.144" x2="132.472" y2="233.142" gradientUnits="userSpaceOnUse">
<stop stop-color="#ADB2C0"/>
<stop offset="0.5" stop-color="white"/>
<stop offset="1" stop-color="#ADB2C0"/>
</linearGradient>
<linearGradient id="paint13_linear" x1="131.567" y1="219.681" x2="130.645" y2="219.679" gradientUnits="userSpaceOnUse">
<stop stop-color="#6FA1D6"/>
<stop offset="1" stop-color="#25409A"/>
</linearGradient>
<linearGradient id="paint14_linear" x1="130.649" y1="219.681" x2="131.259" y2="219.679" gradientUnits="userSpaceOnUse">
<stop stop-color="#2B2477"/>
<stop offset="1" stop-color="#25409A"/>
</linearGradient>
<linearGradient id="paint15_linear" x1="130.051" y1="219.682" x2="128.826" y2="219.679" gradientUnits="userSpaceOnUse">
<stop stop-color="#6FA1D6"/>
<stop offset="1" stop-color="#25409A"/>
</linearGradient>
<linearGradient id="paint16_linear" x1="128.968" y1="219.709" x2="129.779" y2="219.706" gradientUnits="userSpaceOnUse">
<stop stop-color="#2B2477"/>
<stop offset="1" stop-color="#25409A"/>
</linearGradient>
<linearGradient id="paint17_linear" x1="132.693" y1="221.808" x2="116.221" y2="221.807" gradientUnits="userSpaceOnUse">
<stop stop-color="#140C4F"/>
<stop offset="1" stop-color="white"/>
</linearGradient>
<linearGradient id="paint18_linear" x1="148.873" y1="242.108" x2="143.268" y2="242.107" gradientUnits="userSpaceOnUse">
<stop stop-color="#383E4C"/>
<stop offset="0.49" stop-color="#ADB2C0"/>
<stop offset="1" stop-color="#383E4C"/>
</linearGradient>
<linearGradient id="paint19_linear" x1="146.124" y1="238.299" x2="146.121" y2="243.766" gradientUnits="userSpaceOnUse">
<stop stop-color="#020000"/>
<stop offset="1" stop-color="#5F626B"/>
</linearGradient>
<linearGradient id="paint20_linear" x1="143.203" y1="242.049" x2="144.619" y2="242.048" gradientUnits="userSpaceOnUse">
<stop stop-color="#383E4C"/>
<stop offset="1" stop-color="white"/>
</linearGradient>
<linearGradient id="paint21_linear" x1="148.871" y1="242.049" x2="147.628" y2="242.048" gradientUnits="userSpaceOnUse">
<stop stop-color="#383E4C"/>
<stop offset="1" stop-color="white"/>
</linearGradient>
<linearGradient id="paint22_linear" x1="154.302" y1="222.113" x2="137.994" y2="222.111" gradientUnits="userSpaceOnUse">
<stop stop-color="#3654A5"/>
<stop offset="0.5" stop-color="#6FA1D6"/>
<stop offset="1" stop-color="#3654A5"/>
</linearGradient>
<linearGradient id="paint23_linear" x1="154.283" y1="235.843" x2="137.992" y2="235.841" gradientUnits="userSpaceOnUse">
<stop stop-color="#383E4C"/>
<stop offset="0.5" stop-color="#ADB2C0"/>
<stop offset="1" stop-color="#383E4C"/>
</linearGradient>
<linearGradient id="paint24_linear" x1="138.022" y1="229.464" x2="154.255" y2="229.462" gradientUnits="userSpaceOnUse">
<stop stop-color="#C2691B"/>
<stop offset="0.5" stop-color="#F5841F"/>
<stop offset="1" stop-color="#C2691B"/>
</linearGradient>
<linearGradient id="paint25_linear" x1="148.329" y1="223.063" x2="143.919" y2="223.061" gradientUnits="userSpaceOnUse">
<stop stop-color="#5F626B"/>
<stop offset="0.5" stop-color="#ADB2C0"/>
<stop offset="1" stop-color="#5F626B"/>
</linearGradient>
<linearGradient id="paint26_linear" x1="147.743" y1="223.062" x2="144.443" y2="223.062" gradientUnits="userSpaceOnUse">
<stop stop-color="#5F626B"/>
<stop offset="0.49"/>
<stop offset="1" stop-color="#5F626B"/>
</linearGradient>
<linearGradient id="paint27_linear" x1="146.125" y1="216.269" x2="146.123" y2="222.112" gradientUnits="userSpaceOnUse">
<stop stop-color="#020000"/>
<stop offset="1" stop-color="white"/>
</linearGradient>
<linearGradient id="paint28_linear" x1="154.284" y1="233.144" x2="138.004" y2="233.142" gradientUnits="userSpaceOnUse">
<stop stop-color="#ADB2C0"/>
<stop offset="0.5" stop-color="white"/>
<stop offset="1" stop-color="#ADB2C0"/>
</linearGradient>
<linearGradient id="paint29_linear" x1="138.909" y1="219.681" x2="139.831" y2="219.679" gradientUnits="userSpaceOnUse">
<stop stop-color="#6FA1D6"/>
<stop offset="1" stop-color="#25409A"/>
</linearGradient>
<linearGradient id="paint30_linear" x1="139.827" y1="219.681" x2="139.217" y2="219.679" gradientUnits="userSpaceOnUse">
<stop stop-color="#2B2477"/>
<stop offset="1" stop-color="#25409A"/>
</linearGradient>
<linearGradient id="paint31_linear" x1="140.425" y1="219.682" x2="141.65" y2="219.679" gradientUnits="userSpaceOnUse">
<stop stop-color="#6FA1D6"/>
<stop offset="1" stop-color="#25409A"/>
</linearGradient>
<linearGradient id="paint32_linear" x1="141.509" y1="219.709" x2="140.697" y2="219.706" gradientUnits="userSpaceOnUse">
<stop stop-color="#2B2477"/>
<stop offset="1" stop-color="#25409A"/>
</linearGradient>
<linearGradient id="paint33_linear" x1="137.784" y1="221.808" x2="154.255" y2="221.807" gradientUnits="userSpaceOnUse">
<stop stop-color="#140C4F"/>
<stop offset="1" stop-color="white"/>
</linearGradient>
<clipPath id="clip0">
<rect x="64.8895" y="118.372" width="140.704" height="129.78" fill="white"/>
</clipPath>
</defs>
</svg>
