<svg width="270" height="370" viewBox="0 0 270 370" fill="none" xmlns="http://www.w3.org/2000/svg">
<path fill-rule="evenodd" clip-rule="evenodd" d="M135.234 187.624C126.748 187.624 118.967 190.226 118.967 201.081C118.967 207.435 118.967 213.804 118.967 220.159C118.967 225.17 126.748 229.268 135.234 229.268C143.721 229.268 151.502 225.184 151.502 220.159C151.502 213.804 151.502 207.435 151.502 201.081C151.488 190.212 143.721 187.624 135.234 187.624Z" fill="url(#paint0_radial)"/>
<path fill-rule="evenodd" clip-rule="evenodd" d="M135.234 187.624C126.748 187.624 118.967 190.226 118.967 201.081C118.967 207.435 118.967 213.804 118.967 220.159C118.967 225.171 126.748 229.269 135.234 229.269C143.721 229.269 151.502 225.184 151.502 220.159C151.502 213.804 151.502 207.435 151.502 201.081C151.488 190.213 143.721 187.624 135.234 187.624ZM123.106 189.064C126.402 186.862 130.735 186.156 135.234 186.156C139.734 186.156 144.067 186.862 147.362 189.064C150.768 191.334 152.97 195.086 152.97 201.081V220.159C152.97 223.205 150.782 225.904 147.39 227.801C144.164 229.601 139.789 230.722 135.234 230.722C130.68 230.722 126.305 229.601 123.079 227.801C119.687 225.904 117.499 223.205 117.499 220.159V201.067C117.499 195.086 119.701 191.334 123.106 189.064Z" fill="black"/>
<path fill-rule="evenodd" clip-rule="evenodd" d="M135.234 229.158C126.748 229.158 118.967 225.074 118.967 220.048C129.807 220.048 140.648 220.048 151.488 220.048C151.488 225.06 143.721 229.158 135.234 229.158Z" fill="#464854"/>
<path fill-rule="evenodd" clip-rule="evenodd" d="M124.519 227.178L124.809 227.206C125.031 225.53 125.945 223.855 126.969 222.443C127.814 222.831 128.686 223.163 129.586 223.426C128.88 225.046 128.368 226.638 128.091 228.369L128.381 228.41C128.658 226.693 129.17 225.115 129.863 223.509C130.707 223.745 131.566 223.924 132.452 224.049C131.898 225.794 131.718 227.316 131.538 229.116L131.829 229.144C132.009 227.344 132.189 225.821 132.742 224.091C133.504 224.188 134.293 224.243 135.082 224.243V229.338H135.373V224.243C136.176 224.243 136.951 224.188 137.713 224.091C138.266 225.821 138.446 227.358 138.626 229.144L138.917 229.116C138.737 227.316 138.557 225.794 138.003 224.035C138.889 223.911 139.748 223.731 140.579 223.481C141.285 225.101 141.714 226.68 141.977 228.41L142.268 228.369C141.991 226.624 141.562 225.032 140.855 223.398C141.742 223.121 142.6 222.789 143.444 222.388C144.483 223.8 145.3 225.517 145.521 227.206L145.812 227.178C145.48 224.631 144.51 224.021 143.597 222.014C141.049 223.315 138.322 223.994 135.221 223.994C132.036 223.994 129.42 223.343 126.872 222.014C125.82 223.814 124.796 225.018 124.519 227.178Z" fill="#211E09"/>
<path fill-rule="evenodd" clip-rule="evenodd" d="M135.234 227.676C128.187 227.676 121.736 224.284 121.736 220.117C121.708 226.403 148.705 226.43 148.719 220.117C148.719 224.284 142.268 227.676 135.234 227.676Z" fill="#211E09"/>
<path fill-rule="evenodd" clip-rule="evenodd" d="M135.234 227.344C128.284 227.344 121.916 224.035 121.916 219.965C130.79 219.965 139.665 219.965 148.539 219.965C148.539 224.021 142.184 227.344 135.234 227.344Z" fill="url(#paint1_linear)"/>
<path fill-rule="evenodd" clip-rule="evenodd" d="M127.911 220.879C128.769 221.045 129.627 221.211 130.486 221.377C129.835 224.963 129.018 226.237 128.312 226.098C127.606 225.946 127.371 223.911 127.911 220.879Z" fill="url(#paint2_linear)"/>
<path fill-rule="evenodd" clip-rule="evenodd" d="M128.104 221.322C128.811 221.46 129.53 221.599 130.237 221.737C129.697 224.714 129.018 225.752 128.437 225.641C127.855 225.53 127.661 223.828 128.104 221.322Z" fill="url(#paint3_linear)"/>
<path fill-rule="evenodd" clip-rule="evenodd" d="M142.558 220.879C141.7 221.045 140.842 221.211 139.983 221.377C140.62 224.977 141.451 226.237 142.157 226.098C142.863 225.96 143.098 223.911 142.558 220.879Z" fill="url(#paint4_linear)"/>
<path fill-rule="evenodd" clip-rule="evenodd" d="M142.365 221.335C141.659 221.474 140.939 221.612 140.233 221.751C140.759 224.727 141.451 225.766 142.032 225.655C142.614 225.544 142.808 223.841 142.365 221.335Z" fill="url(#paint5_linear)"/>
<path fill-rule="evenodd" clip-rule="evenodd" d="M135.234 228.549C133.739 228.549 130.223 224.755 130.223 223.343C130.223 221.543 130.223 220.38 130.223 218.58C130.223 218.054 133.573 217.944 135.234 217.944C136.91 217.944 140.246 218.041 140.246 218.58C140.246 220.38 140.246 221.543 140.246 223.343C140.246 224.755 136.73 228.549 135.234 228.549Z" fill="url(#paint6_radial)"/>
<path opacity="0.2" fill-rule="evenodd" clip-rule="evenodd" d="M130.209 220.754C130.209 220.09 130.209 219.397 130.209 218.594C131.607 220.186 137.353 222.139 140.246 223.357C140.246 224.105 139.249 225.531 138.086 226.707C137.159 222.402 134.016 220.865 130.209 220.754Z" fill="url(#paint7_linear)"/>
<path opacity="0.2" fill-rule="evenodd" clip-rule="evenodd" d="M134.293 226.721C135.207 227.953 133.711 227.136 133.172 226.652C132.147 225.738 131.109 224.118 130.721 222.803C130.347 221.502 132.327 224.34 132.355 224.381C133.005 225.226 133.587 225.918 134.293 226.721Z" fill="url(#paint8_linear)"/>
<path opacity="0.2" fill-rule="evenodd" clip-rule="evenodd" d="M133.891 225.544C133.698 225.406 134.528 225.198 134.584 225.184C136.674 224.852 139.305 226.458 137.062 225.877C135.927 225.586 136.01 225.558 134.833 225.572C134.611 225.586 134.085 225.614 133.891 225.544Z" fill="url(#paint9_linear)"/>
<path fill-rule="evenodd" clip-rule="evenodd" d="M135.234 224.907C134.058 224.907 132.729 225.351 131.842 226.126L131.621 225.877C132.562 225.046 133.975 224.575 135.221 224.575C136.467 224.575 137.879 225.046 138.82 225.877L138.599 226.126C137.726 225.351 136.411 224.907 135.234 224.907Z" fill="#120801"/>
<path fill-rule="evenodd" clip-rule="evenodd" d="M119.119 221.197C118.911 222.928 122.179 225.78 122.594 225.461C126.803 222.152 130.818 220.976 135.234 220.976C139.651 220.976 143.666 222.152 147.875 225.461C148.29 225.794 151.557 222.928 151.35 221.197C150.187 211.367 120.268 211.326 119.119 221.197Z" fill="url(#paint10_radial)"/>
<path fill-rule="evenodd" clip-rule="evenodd" d="M151.336 221.197C151.447 222.942 148.276 225.78 147.861 225.461C147.626 225.281 147.39 225.101 147.155 224.935C149.273 222.817 150.131 220.477 149.038 217.417C150.644 218.747 151.447 220.2 151.336 221.197Z" fill="#565762"/>
<path fill-rule="evenodd" clip-rule="evenodd" d="M119.133 221.197C119.022 222.942 122.193 225.78 122.608 225.461C122.843 225.281 123.079 225.101 123.314 224.935C121.196 222.817 120.338 220.477 121.431 217.417C119.825 218.747 119.022 220.2 119.133 221.197Z" fill="#565762"/>
<path opacity="0.5" fill-rule="evenodd" clip-rule="evenodd" d="M120.49 222.374C120.005 222.872 126.208 218.234 135.235 218.234C144.261 218.234 150.45 222.872 149.979 222.374C148.152 220.491 143.057 216.531 135.235 216.531C127.412 216.531 122.317 220.491 120.49 222.374Z" fill="url(#paint11_linear)"/>
<path fill-rule="evenodd" clip-rule="evenodd" d="M122.11 225.447C122.47 225.171 122.83 224.894 123.203 224.631C121.736 223.108 120.739 221.446 119.798 219.55L120.088 219.411C121.016 221.294 122.013 222.942 123.466 224.451C124.2 223.966 124.948 223.523 125.709 223.122C124.546 221.405 123.591 219.079 123.342 217.044L123.66 217.002C123.896 219.01 124.865 221.28 126 222.969C126.941 222.499 127.911 222.111 128.907 221.792C128.118 219.854 127.592 217.75 127.288 215.687L127.606 215.645C127.911 217.694 128.437 219.785 129.212 221.709C130.153 221.432 131.109 221.211 132.092 221.073C131.483 218.982 131.275 216.615 131.067 214.469L131.386 214.441C131.579 216.587 131.787 218.954 132.41 221.031C133.269 220.92 134.141 220.851 135.013 220.851V214.469H135.345V220.823C136.231 220.823 137.104 220.893 137.948 221.003C138.571 218.927 138.765 216.559 138.973 214.413L139.291 214.441C139.097 216.601 138.889 218.968 138.266 221.045C139.249 221.197 140.205 221.419 141.146 221.709C141.935 219.785 142.461 217.681 142.766 215.632L143.084 215.673C142.78 217.75 142.24 219.854 141.451 221.806C142.434 222.139 143.389 222.54 144.33 223.025C145.493 221.336 146.463 219.023 146.712 216.988L147.03 217.03C146.781 219.093 145.798 221.446 144.621 223.177C145.369 223.578 146.103 224.021 146.822 224.52C148.332 222.983 149.342 221.322 150.298 219.397L150.588 219.536C149.633 221.474 148.608 223.163 147.099 224.714C147.446 224.963 147.792 225.226 148.138 225.489L147.889 225.669C144.081 222.692 140.011 221.114 135.165 221.114C130.195 221.114 126.249 222.637 122.359 225.697L122.11 225.447Z" fill="#211E09"/>
<path opacity="0.5" fill-rule="evenodd" clip-rule="evenodd" d="M135.234 187.624C131.829 187.624 128.547 188.039 125.82 189.243C130.444 187.956 136.134 209.623 126.042 215.078C128.88 214.178 132.272 213.61 135.221 213.61C138.183 213.61 141.562 214.178 144.4 215.078C134.307 209.637 140.011 187.97 144.621 189.243C141.921 188.039 138.64 187.624 135.234 187.624Z" fill="url(#paint12_linear)"/>
<path fill-rule="evenodd" clip-rule="evenodd" d="M127.121 188.731C122.373 190.323 118.967 193.895 118.967 201.067C118.967 207.339 118.967 213.596 118.967 219.868C119.964 217.944 122.11 216.545 124.588 215.576C120.656 215.576 121.141 204.999 121.141 199.987C121.141 194.366 124.671 189.811 127.121 188.731Z" fill="url(#paint13_linear)"/>
<path fill-rule="evenodd" clip-rule="evenodd" d="M143.348 188.731C148.096 190.323 151.502 193.895 151.502 201.067C151.502 207.339 151.502 213.596 151.502 219.868C150.505 217.944 148.359 216.545 145.881 215.576C149.813 215.576 149.328 204.999 149.328 199.987C149.328 194.366 145.798 189.811 143.348 188.731Z" fill="url(#paint14_linear)"/>
<path fill-rule="evenodd" clip-rule="evenodd" d="M119.922 199.544C121.057 199.544 121.057 203.254 119.922 203.254C118.787 203.254 118.787 199.544 119.922 199.544ZM132.825 213.873V208.543C132.825 208.363 132.673 208.238 132.493 208.252L130.915 208.432C130.735 208.446 130.583 208.612 130.583 208.792V214.122L130.25 214.164V208.834C130.25 208.474 130.541 208.142 130.901 208.1L132.479 207.92C132.839 207.879 133.13 208.142 133.13 208.502V213.832L132.825 213.873ZM130.956 213.998C131.981 213.887 132.396 213.832 132.452 213.832V211.077C132.452 210.564 130.956 210.744 130.956 211.243V213.998ZM118.828 207.214L118.787 207.712C121.487 205.013 122.04 205.899 124.892 205.899C125.834 205.899 126.263 205.262 126.263 201.925C126.263 198.533 132.978 199.156 135.234 199.156V198.824C132.715 198.824 125.931 198.187 125.931 201.925C125.931 204.985 125.598 205.566 124.892 205.566C121.93 205.566 121.348 204.694 118.828 207.214ZM119.922 211.201C121.057 211.201 121.057 214.912 119.922 214.912C118.787 214.898 118.787 211.201 119.922 211.201ZM119.922 211.52C119.244 211.52 119.244 214.566 119.922 214.566C120.601 214.579 120.601 211.52 119.922 211.52ZM119.922 199.876C119.244 199.876 119.244 202.922 119.922 202.922C120.601 202.922 120.601 199.876 119.922 199.876Z" fill="#00045D"/>
<path fill-rule="evenodd" clip-rule="evenodd" d="M150.547 199.544C149.411 199.544 149.411 203.254 150.547 203.254C151.682 203.254 151.682 199.544 150.547 199.544ZM137.643 213.873V208.543C137.643 208.363 137.796 208.238 137.976 208.252L139.554 208.432C139.734 208.446 139.886 208.612 139.886 208.792V214.122L140.218 214.164V208.834C140.218 208.474 139.928 208.142 139.568 208.1L137.989 207.92C137.63 207.879 137.339 208.142 137.339 208.502V213.832L137.643 213.873ZM139.512 213.998C138.488 213.887 138.073 213.832 138.017 213.832V211.077C138.017 210.564 139.512 210.744 139.512 211.243V213.998ZM151.64 207.214L151.682 207.712C148.982 205.013 148.428 205.899 145.576 205.899C144.635 205.899 144.206 205.262 144.206 201.925C144.206 198.533 137.491 199.156 135.234 199.156V198.824C137.754 198.824 144.538 198.187 144.538 201.925C144.538 204.985 144.87 205.566 145.576 205.566C148.539 205.566 149.107 204.694 151.64 207.214ZM150.547 211.201C149.411 211.201 149.411 214.912 150.547 214.912C151.682 214.898 151.682 211.201 150.547 211.201ZM150.547 211.52C151.225 211.52 151.225 214.566 150.547 214.566C149.868 214.579 149.868 211.52 150.547 211.52ZM150.547 199.876C151.225 199.876 151.225 202.922 150.547 202.922C149.868 202.922 149.868 199.876 150.547 199.876Z" fill="#00045D"/>
<path fill-rule="evenodd" clip-rule="evenodd" d="M123.453 214.607C123.508 215.244 122.968 216.13 122.331 216.047C121.584 215.936 121.182 215.507 120.961 214.981C120.753 214.496 120.725 213.942 120.725 213.527C120.725 207.048 121.279 204.639 121.791 202.437C122.387 199.862 122.65 197.62 122.539 194.989C122.539 193.618 124.809 193.715 124.809 195.1C124.809 199.142 124.394 201.219 123.951 203.407C123.494 205.663 123.01 208.045 122.968 212.904C122.954 213.679 123.065 213.804 123.176 213.915C123.286 214.053 123.411 214.192 123.453 214.607Z" fill="#211E09"/>
<path fill-rule="evenodd" clip-rule="evenodd" d="M123.162 214.635C123.231 215.382 122.58 215.784 122.373 215.756C121.141 215.576 121.03 214.316 121.03 213.527C121.03 202.105 122.76 203.407 122.885 196.097C122.885 195.861 122.843 195.169 122.843 194.989C122.843 194.006 124.519 194.103 124.519 195.1C124.532 203.337 122.774 203.337 122.677 212.904C122.65 214.399 123.079 213.846 123.162 214.635Z" fill="#ADB1C2"/>
<path fill-rule="evenodd" clip-rule="evenodd" d="M123.162 214.635C123.231 215.382 122.567 215.825 122.373 215.756C122.788 215.576 122.968 215.161 122.844 214.69C122.151 214.081 122.207 210.038 122.608 206.757C123.079 202.977 123.799 201.579 123.951 196.664C123.965 196.152 124.726 195.114 124.006 194.366C124.311 194.421 124.505 194.726 124.505 195.086C124.519 203.323 122.76 203.324 122.664 212.89C122.65 214.399 123.079 213.845 123.162 214.635Z" fill="url(#paint15_linear)"/>
<path fill-rule="evenodd" clip-rule="evenodd" d="M122.802 197.813C122.913 197.384 123.813 197.287 124.463 197.44L124.449 197.8C124.006 197.73 122.871 197.675 122.788 198.201L122.802 197.813ZM121.03 211.99C121.265 211.589 122.262 211.603 122.691 211.603L122.677 211.935C122.207 211.921 121.279 211.976 121.016 212.42L121.03 211.99ZM121.334 206.605C121.847 206.342 122.567 206.356 123.051 206.84L123.01 207.186C122.65 206.826 121.736 206.66 121.293 206.979L121.334 206.605ZM122.304 201.482C122.843 201.219 123.522 201.344 123.979 201.704L123.923 202.022C123.563 201.745 122.622 201.621 122.22 201.842L122.304 201.482Z" fill="#161616"/>
<path fill-rule="evenodd" clip-rule="evenodd" d="M128.728 211.049C129.157 210.98 129.517 211.34 129.517 211.852C129.517 212.364 129.171 212.849 128.728 212.932C128.298 213.001 127.938 212.641 127.938 212.129C127.938 211.603 128.284 211.118 128.728 211.049Z" fill="#161616"/>
<path fill-rule="evenodd" clip-rule="evenodd" d="M127.288 201.247C127.565 200.901 128.063 200.928 128.409 201.316C128.755 201.704 128.824 202.299 128.548 202.645C128.271 202.991 127.772 202.964 127.426 202.576C127.066 202.188 127.011 201.593 127.288 201.247Z" fill="#161616"/>
<path fill-rule="evenodd" clip-rule="evenodd" d="M129.157 210.966C130.32 211.81 129.06 213.596 127.869 212.766C126.692 211.949 125.779 210.814 125.183 209.568C124.629 208.418 124.325 207.159 124.339 205.954C124.339 204.736 124.657 203.587 125.308 202.631C125.765 201.967 126.402 201.413 127.205 201.025C128.575 200.402 129.461 202.41 128.174 203.033C127.731 203.254 127.371 203.559 127.121 203.919C126.706 204.5 126.526 205.262 126.54 206.065C126.554 206.882 126.775 207.754 127.163 208.571C127.661 209.637 128.229 210.26 129.157 210.966Z" fill="#211E09"/>
<path fill-rule="evenodd" clip-rule="evenodd" d="M128.963 211.201C129.835 211.81 128.907 213.153 128.035 212.544C124.103 209.803 123.176 203.324 127.329 201.316C128.298 200.845 129.004 202.327 128.035 202.784C125.1 204.196 125.986 209.125 128.963 211.201Z" fill="#ADB1C2"/>
<path fill-rule="evenodd" clip-rule="evenodd" d="M128.963 211.201C129.503 211.575 129.364 212.226 128.977 212.53C129.157 211.921 129.087 211.616 128.755 211.381C125.031 209.291 125.308 203.808 127.841 202.396C128.146 202.244 128.603 201.925 128.132 201.358C128.589 201.676 128.714 202.465 128.049 202.784C125.1 204.196 125.986 209.124 128.963 211.201Z" fill="url(#paint16_linear)"/>
<path fill-rule="evenodd" clip-rule="evenodd" d="M127.108 211.783C127.551 211.741 128.16 211.035 128.243 210.62L128.547 210.897C128.395 211.409 127.911 211.921 127.357 212.018L127.108 211.783ZM125.515 202.839C126 202.825 126.665 203.254 126.983 203.601L126.789 203.864C126.526 203.587 125.695 203.13 125.322 203.144L125.515 202.839ZM124.851 207.823C125.197 207.491 125.931 207.352 126.388 207.311L126.471 207.657C126.097 207.685 125.225 207.934 124.934 208.197L124.851 207.823Z" fill="#161616"/>
<path fill-rule="evenodd" clip-rule="evenodd" d="M131.552 208.682C131.829 208.64 132.05 208.861 132.05 209.194C132.05 209.526 131.829 209.831 131.552 209.872C131.275 209.914 131.053 209.692 131.053 209.36C131.053 209.028 131.275 208.723 131.552 208.682Z" fill="#161616"/>
<path fill-rule="evenodd" clip-rule="evenodd" d="M130.638 202.493C130.804 202.271 131.122 202.299 131.344 202.535C131.566 202.784 131.607 203.158 131.427 203.365C131.261 203.587 130.942 203.559 130.721 203.324C130.513 203.088 130.472 202.714 130.638 202.493Z" fill="#161616"/>
<path fill-rule="evenodd" clip-rule="evenodd" d="M131.815 208.64C132.549 209.166 131.746 210.301 130.998 209.775C130.264 209.263 129.683 208.543 129.295 207.754C128.949 207.02 128.755 206.231 128.755 205.483C128.755 204.722 128.949 203.988 129.364 203.393C129.655 202.977 130.057 202.631 130.569 202.382C131.427 201.995 131.995 203.254 131.178 203.642C130.901 203.78 130.68 203.974 130.513 204.21C130.25 204.583 130.14 205.054 130.153 205.566C130.167 206.079 130.306 206.632 130.541 207.145C130.873 207.795 131.247 208.183 131.815 208.64Z" fill="#211E09"/>
<path fill-rule="evenodd" clip-rule="evenodd" d="M131.704 208.778C132.258 209.166 131.676 210.011 131.109 209.623C128.631 207.892 128.049 203.808 130.666 202.534C131.275 202.244 131.718 203.171 131.109 203.462C129.267 204.362 129.821 207.463 131.704 208.778Z" fill="#ADB1C2"/>
<path fill-rule="evenodd" clip-rule="evenodd" d="M131.704 208.778C132.036 209.014 131.953 209.415 131.704 209.609C131.815 209.235 131.773 209.028 131.566 208.889C129.212 207.574 129.392 204.113 130.984 203.213C131.178 203.116 131.455 202.908 131.164 202.562C131.455 202.756 131.524 203.254 131.109 203.462C129.267 204.362 129.821 207.463 131.704 208.778Z" fill="url(#paint17_linear)"/>
<path fill-rule="evenodd" clip-rule="evenodd" d="M130.527 209.152C130.804 209.124 131.192 208.681 131.247 208.418L131.441 208.598C131.344 208.931 131.039 209.249 130.693 209.304L130.527 209.152ZM129.53 203.504C129.835 203.49 130.25 203.767 130.458 203.988L130.333 204.154C130.167 203.988 129.641 203.684 129.406 203.697L129.53 203.504ZM129.101 206.646C129.323 206.439 129.78 206.342 130.07 206.328L130.126 206.549C129.89 206.563 129.337 206.716 129.157 206.896L129.101 206.646Z" fill="#161616"/>
<path fill-rule="evenodd" clip-rule="evenodd" d="M135.235 214.302C130.984 214.302 119.119 216.227 119.23 222.028C118.884 221.183 118.967 220.062 118.953 219.771C120.947 214.842 130.956 213.319 135.221 213.319C139.485 213.319 149.495 214.842 151.488 219.771C151.474 220.062 151.571 221.183 151.211 222.028C151.35 216.227 139.485 214.302 135.235 214.302Z" fill="#36251D"/>
<path opacity="0.5" fill-rule="evenodd" clip-rule="evenodd" d="M135.234 187.624C126.748 187.624 118.967 190.226 118.967 201.081C118.967 207.435 118.967 207.38 118.967 213.735C118.967 218.746 121.21 208.155 135.234 208.155C149.259 208.155 151.502 218.746 151.502 213.735C151.502 207.38 151.502 207.435 151.502 201.081C151.488 190.213 143.721 187.624 135.234 187.624Z" fill="url(#paint18_linear)"/>
<defs>
<radialGradient id="paint0_radial" cx="0" cy="0" r="1" gradientUnits="userSpaceOnUse" gradientTransform="translate(135.235 210.342) rotate(-90.0065) scale(22.3773 16.5592)">
<stop stop-color="#5781C1"/>
<stop offset="1" stop-color="#3654A5"/>
</radialGradient>
<linearGradient id="paint1_linear" x1="135.232" y1="221.888" x2="135.233" y2="227.199" gradientUnits="userSpaceOnUse">
<stop stop-color="#020000"/>
<stop offset="1" stop-color="#5F626B"/>
</linearGradient>
<linearGradient id="paint2_linear" x1="128.346" y1="225.976" x2="129.085" y2="221.774" gradientUnits="userSpaceOnUse">
<stop stop-color="#020000"/>
<stop offset="1"/>
</linearGradient>
<linearGradient id="paint3_linear" x1="129.026" y1="222.357" x2="128.455" y2="225.544" gradientUnits="userSpaceOnUse">
<stop/>
<stop offset="1" stop-color="#5F626B"/>
</linearGradient>
<linearGradient id="paint4_linear" x1="142.124" y1="225.987" x2="141.391" y2="221.78" gradientUnits="userSpaceOnUse">
<stop stop-color="#020000"/>
<stop offset="1"/>
</linearGradient>
<linearGradient id="paint5_linear" x1="141.449" y1="222.364" x2="142.015" y2="225.555" gradientUnits="userSpaceOnUse">
<stop/>
<stop offset="1" stop-color="#5F626B"/>
</linearGradient>
<radialGradient id="paint6_radial" cx="0" cy="0" r="1" gradientUnits="userSpaceOnUse" gradientTransform="translate(135.204 225.273) rotate(-90.0209) scale(4.9323 3.24792)">
<stop stop-color="#5F626B"/>
<stop offset="1"/>
</radialGradient>
<linearGradient id="paint7_linear" x1="133.26" y1="220.334" x2="137.244" y2="223.799" gradientUnits="userSpaceOnUse">
<stop stop-color="#020000"/>
<stop offset="1" stop-color="white"/>
</linearGradient>
<linearGradient id="paint8_linear" x1="131.124" y1="222.847" x2="133.673" y2="226.831" gradientUnits="userSpaceOnUse">
<stop/>
<stop offset="1" stop-color="white"/>
</linearGradient>
<linearGradient id="paint9_linear" x1="137.468" y1="225.476" x2="134.495" y2="225.756" gradientUnits="userSpaceOnUse">
<stop/>
<stop offset="1" stop-color="white"/>
</linearGradient>
<radialGradient id="paint10_radial" cx="0" cy="0" r="1" gradientUnits="userSpaceOnUse" gradientTransform="translate(135.232 218.78) scale(16.5245 5.73068)">
<stop stop-color="#ADB2C0"/>
<stop offset="1" stop-color="#828591"/>
</radialGradient>
<linearGradient id="paint11_linear" x1="135.229" y1="216.842" x2="135.231" y2="219.734" gradientUnits="userSpaceOnUse">
<stop stop-color="#ADB2C0"/>
<stop offset="1" stop-color="white"/>
</linearGradient>
<linearGradient id="paint12_linear" x1="135.232" y1="187.617" x2="135.234" y2="213.599" gradientUnits="userSpaceOnUse">
<stop stop-color="#4361AD"/>
<stop offset="1" stop-color="#6FA1D6"/>
</linearGradient>
<linearGradient id="paint13_linear" x1="123.045" y1="194.172" x2="123.046" y2="215.572" gradientUnits="userSpaceOnUse">
<stop stop-color="#313092"/>
<stop offset="1" stop-color="#3654A5"/>
</linearGradient>
<linearGradient id="paint14_linear" x1="147.42" y1="194.172" x2="147.418" y2="215.572" gradientUnits="userSpaceOnUse">
<stop stop-color="#313092"/>
<stop offset="1" stop-color="#3654A5"/>
</linearGradient>
<linearGradient id="paint15_linear" x1="122.567" y1="214.964" x2="123.97" y2="195.886" gradientUnits="userSpaceOnUse">
<stop stop-color="#6B717F"/>
<stop offset="1" stop-color="#3C424D"/>
</linearGradient>
<linearGradient id="paint16_linear" x1="127.548" y1="212.065" x2="127.797" y2="202.13" gradientUnits="userSpaceOnUse">
<stop stop-color="#6B717F"/>
<stop offset="1" stop-color="#3C424D"/>
</linearGradient>
<linearGradient id="paint17_linear" x1="130.807" y1="209.326" x2="130.964" y2="203.056" gradientUnits="userSpaceOnUse">
<stop stop-color="#6B717F"/>
<stop offset="1" stop-color="#3C424D"/>
</linearGradient>
<linearGradient id="paint18_linear" x1="135.232" y1="197.523" x2="135.233" y2="217.571" gradientUnits="userSpaceOnUse">
<stop stop-color="#140C4F"/>
<stop offset="1" stop-color="white"/>
</linearGradient>
</defs>
</svg>
