<svg width="270" height="370" viewBox="0 0 270 370" fill="none" xmlns="http://www.w3.org/2000/svg">
<g clip-path="url(#clip0)">
<path fill-rule="evenodd" clip-rule="evenodd" d="M135.193 226.25C131.178 226.25 127.925 220.906 127.925 214.316C127.925 209.54 127.925 204.763 127.925 200.001C132.77 200.001 137.602 200.001 142.448 200.001C142.448 204.777 142.448 209.553 142.448 214.316C142.448 220.906 139.194 226.25 135.193 226.25Z" fill="url(#paint0_radial)"/>
<path fill-rule="evenodd" clip-rule="evenodd" d="M135.193 227.718C132.646 227.718 130.389 226.112 128.811 223.523C127.357 221.141 126.471 217.888 126.471 214.316V200.001C126.471 199.184 127.135 198.533 127.938 198.533H142.462C143.278 198.533 143.929 199.198 143.929 200.001V214.316C143.929 217.874 143.029 221.141 141.589 223.523C139.997 226.112 137.741 227.718 135.193 227.718ZM135.193 226.25C131.178 226.25 127.925 220.906 127.925 214.316C127.925 209.54 127.925 204.763 127.925 200.001C132.77 200.001 137.602 200.001 142.448 200.001C142.448 204.777 142.448 209.553 142.448 214.316C142.448 220.906 139.194 226.25 135.193 226.25Z" fill="black"/>
<path opacity="0.5" fill-rule="evenodd" clip-rule="evenodd" d="M135.193 214.579C131.137 214.579 129.766 225.627 129.766 217.833C129.766 212.184 129.766 206.549 129.766 200.901C133.379 200.901 137.007 200.901 140.62 200.901C140.62 206.549 140.62 212.184 140.62 217.833C140.62 225.627 139.236 214.579 135.193 214.579Z" fill="url(#paint1_linear)"/>
<path opacity="0.5" fill-rule="evenodd" clip-rule="evenodd" d="M135.193 209.512C131.137 209.512 129.766 216.462 129.766 211.561C129.766 208.003 129.766 204.459 129.766 200.901C133.379 200.901 137.007 200.901 140.62 200.901C140.62 204.459 140.62 208.003 140.62 211.561C140.62 216.462 139.236 209.512 135.193 209.512Z" fill="url(#paint2_linear)"/>
<path fill-rule="evenodd" clip-rule="evenodd" d="M135.193 219.439C133.767 219.439 130.181 219.882 129.074 220.768C128.88 220.92 128.755 220.56 128.949 220.408C129.738 219.785 131.524 219.411 133.103 219.217C133.103 212.599 129.877 207.546 129.877 200.001C129.877 199.904 129.96 199.821 130.057 199.821C130.154 199.821 130.237 199.904 130.237 200.001C130.237 207.477 133.449 212.627 133.462 219.175C134.141 219.106 134.75 219.079 135.193 219.079C135.636 219.079 136.245 219.106 136.924 219.175C137.034 212.641 140.316 207.532 140.413 200.07C140.413 199.973 140.496 199.89 140.593 199.89C140.689 199.89 140.773 199.973 140.773 200.07C140.662 207.56 137.381 212.696 137.284 219.203C138.862 219.397 140.648 219.771 141.437 220.394C141.728 220.629 141.492 220.906 141.312 220.754C140.205 219.882 136.605 219.439 135.193 219.439Z" fill="#00045D"/>
<path fill-rule="evenodd" clip-rule="evenodd" d="M125.709 187.707C126.069 187.457 128.991 187.582 129.628 187.582C130.071 187.582 130.417 187.97 130.361 188.413C129.904 191.611 129.461 194.795 129.005 197.993C128.894 198.796 130.472 202.105 130.472 203.005C130.472 212.406 130.472 221.82 130.472 231.22C130.472 231.83 129.766 232.176 129.281 231.802C128.562 231.234 127.828 230.667 127.108 230.099C126.623 229.725 125.917 230.058 125.917 230.681C125.917 231.719 125.917 232.757 125.917 233.796C125.917 234.405 125.211 234.751 124.727 234.377C122.982 233.006 121.238 231.65 119.507 230.279C119.327 230.141 119.23 229.933 119.23 229.698C119.23 227.898 119.23 226.084 119.23 224.284C119.23 224.049 119.133 223.855 118.953 223.703C118.51 223.357 118.067 223.011 117.624 222.664C117.444 222.526 117.347 222.318 117.347 222.083C117.347 214.025 117.347 205.968 117.347 197.91C117.347 197.522 119.909 192.248 120.282 191.431C120.476 191.029 124.976 188.205 125.709 187.707Z" fill="url(#paint3_radial)"/>
<path fill-rule="evenodd" clip-rule="evenodd" d="M124.907 186.488C125.585 186.045 127.855 186.087 129.101 186.114C129.198 186.114 129.268 186.114 129.641 186.114C129.724 186.114 129.835 186.128 129.946 186.142C130.486 186.225 130.971 186.488 131.303 186.876L131.33 186.904C131.649 187.291 131.843 187.776 131.843 188.316C131.843 188.413 131.829 188.51 131.815 188.634L131.801 188.69L130.458 198.201C130.444 198.256 130.791 199.198 131.137 200.125C131.538 201.233 131.94 202.327 131.94 203.005V231.22C131.94 231.747 131.76 232.203 131.469 232.577C131.261 232.84 130.998 233.048 130.694 233.2C130.389 233.339 130.071 233.422 129.738 233.422C129.281 233.422 128.797 233.27 128.382 232.951L127.385 232.176V233.796C127.385 234.322 127.205 234.779 126.914 235.152C126.706 235.415 126.443 235.623 126.139 235.775C125.834 235.914 125.516 235.997 125.183 235.997C124.727 235.997 124.242 235.845 123.827 235.526L118.607 231.442C118.33 231.22 118.123 230.971 117.984 230.681C117.956 230.625 117.929 230.556 117.915 230.501C117.818 230.251 117.763 229.988 117.763 229.725V224.658L116.724 223.841C116.447 223.62 116.24 223.371 116.101 223.08C116.074 223.024 116.046 222.955 116.032 222.9C115.935 222.651 115.88 222.388 115.88 222.111V197.924C115.88 197.287 117.68 193.521 118.566 191.666L118.967 190.822C119.106 190.531 119.313 190.323 119.576 190.171C120.67 189.229 122.913 187.79 124.187 186.973C124.533 186.737 124.81 186.557 124.907 186.488ZM125.71 187.707C126.069 187.457 128.991 187.582 129.628 187.582C130.071 187.582 130.417 187.97 130.361 188.413C129.904 191.611 129.461 194.795 129.005 197.993C128.894 198.796 130.472 202.105 130.472 203.005C130.472 212.406 130.472 221.82 130.472 231.22C130.472 231.83 129.766 232.176 129.281 231.802C128.562 231.234 127.828 230.667 127.108 230.099C126.623 229.725 125.917 230.058 125.917 230.681C125.917 231.719 125.917 232.757 125.917 233.796C125.917 234.405 125.211 234.751 124.727 234.377C122.982 233.006 121.238 231.65 119.507 230.279C119.327 230.141 119.23 229.933 119.23 229.698C119.23 227.898 119.23 226.084 119.23 224.284C119.23 224.049 119.133 223.855 118.953 223.703C118.51 223.357 118.067 223.011 117.624 222.664C117.444 222.526 117.347 222.318 117.347 222.083C117.347 214.025 117.347 205.968 117.347 197.91C117.347 197.522 119.909 192.248 120.282 191.431C120.476 191.029 124.976 188.205 125.71 187.707Z" fill="black"/>
<path fill-rule="evenodd" clip-rule="evenodd" d="M130.486 222C130.486 224.52 130.486 228.701 130.486 231.234C130.486 231.844 129.78 232.19 129.295 231.816C125.405 228.77 121.515 225.724 117.624 222.678C117.444 222.54 117.347 222.332 117.347 222.097C117.347 219.106 117.347 214.648 117.347 211.658C121.722 215.105 126.097 218.553 130.486 222Z" fill="url(#paint4_linear)"/>
<path opacity="0.5" fill-rule="evenodd" clip-rule="evenodd" d="M130.486 228.867C130.486 231.387 130.486 228.701 130.486 231.221C130.486 231.83 129.78 232.176 129.295 231.802C125.405 228.756 121.515 225.71 117.624 222.664C117.444 222.526 117.347 222.318 117.347 222.083C117.347 219.093 117.347 221.515 117.347 218.525C118.289 223.191 128.589 231.262 130.486 228.867Z" fill="url(#paint5_linear)"/>
<path fill-rule="evenodd" clip-rule="evenodd" d="M127.108 230.099C126.623 229.725 125.917 230.058 125.917 230.681C125.917 231.719 125.917 232.757 125.917 233.796C125.917 234.405 125.211 234.751 124.726 234.377C122.982 233.007 121.238 231.65 119.507 230.279C119.327 230.141 119.23 229.933 119.23 229.698C119.23 227.898 119.23 226.084 119.23 224.284C119.23 224.049 119.133 223.855 118.953 223.703C121.667 225.849 124.394 227.967 127.108 230.099Z" fill="url(#paint6_linear)"/>
<path opacity="0.5" fill-rule="evenodd" clip-rule="evenodd" d="M124.325 233.934C123.688 233.588 122.664 232.605 121.999 232.107C121.501 231.719 120.075 230.778 119.77 230.39C119.341 229.822 119.452 228.964 119.576 228.299C119.812 227.109 119.742 229.379 120.199 229.878C120.601 230.335 121.916 231.47 122.539 231.885C124.782 233.38 124.519 232.937 124.768 231.539C124.851 231.082 125.087 231.857 125.183 232.397C125.266 232.91 125.308 234.294 124.422 233.976L124.325 233.934Z" fill="url(#paint7_linear)"/>
<path fill-rule="evenodd" clip-rule="evenodd" d="M124.782 228.272C125.557 228.881 126.346 229.49 127.122 230.099C126.734 229.711 125.931 230.044 125.931 230.681C125.931 231.719 125.931 232.757 125.931 233.796C125.931 234.197 125.626 234.488 125.28 234.529C125.419 232.439 125.419 229.241 124.782 228.272Z" fill="url(#paint8_linear)"/>
<path fill-rule="evenodd" clip-rule="evenodd" d="M120.822 225.184C120.199 224.7 119.576 224.201 118.953 223.717C119.133 223.855 119.23 224.063 119.23 224.298C119.23 226.098 119.23 227.912 119.23 229.711C119.23 229.947 119.327 230.141 119.507 230.293C119.465 226.236 119.77 224.672 120.822 225.184Z" fill="url(#paint9_linear)"/>
<path fill-rule="evenodd" clip-rule="evenodd" d="M119.23 224.395C119.036 224.243 118.829 223.62 119.023 223.772L127.399 230.32C127.592 230.473 126.582 230.141 126.388 230.002L119.23 224.395Z" fill="#00045D"/>
<path fill-rule="evenodd" clip-rule="evenodd" d="M121.265 227.621V229.822C121.265 230.237 120.642 229.919 120.642 229.518V227.316C120.656 226.901 121.265 227.205 121.265 227.621ZM124.283 229.974V232.176C124.283 232.591 123.66 232.273 123.66 231.871V229.67C123.66 229.254 124.283 229.559 124.283 229.974ZM122.678 228.715V230.916C122.678 231.331 122.054 231.013 122.054 230.611V228.41C122.054 227.995 122.678 228.299 122.678 228.715Z" fill="#211E09"/>
<path fill-rule="evenodd" clip-rule="evenodd" d="M117.347 211.658C117.153 211.506 117.153 211.049 117.347 211.187L125.128 217.307C125.363 217.5 125.723 217.32 125.723 217.016V210.357C125.723 210.232 125.668 210.135 125.571 210.066L120.185 206.079C120.13 206.051 120.089 205.982 120.089 205.926V191.832C120.089 191.251 120.476 191.14 120.476 191.251L120.462 205.829L125.709 209.734V202.077C125.709 201.911 128.7 198.104 129.06 197.647C129.074 197.619 129.226 198.035 129.018 198.298L126.083 202.133V217.722C126.083 217.957 126.18 218.151 126.36 218.303L130.472 221.543C130.666 221.695 130.666 222.152 130.472 222L117.347 211.658Z" fill="#00045D"/>
<path fill-rule="evenodd" clip-rule="evenodd" d="M119.715 217.39L120.725 218.123C120.933 218.262 121.085 218.553 121.085 218.76V225.406L119.341 224.035V217.5C119.355 217.279 119.507 217.237 119.715 217.39Z" fill="url(#paint10_linear)"/>
<path fill-rule="evenodd" clip-rule="evenodd" d="M119.867 217.971L120.573 218.594C120.712 218.719 120.836 218.968 120.836 219.134V225.198L119.604 224.229V218.054C119.604 217.888 119.729 217.847 119.867 217.971Z" fill="url(#paint11_linear)"/>
<path fill-rule="evenodd" clip-rule="evenodd" d="M124.657 221.252L125.668 221.986C125.876 222.125 126.028 222.415 126.028 222.623V229.268L124.283 227.884V221.349C124.283 221.155 124.45 221.114 124.657 221.252Z" fill="url(#paint12_linear)"/>
<path fill-rule="evenodd" clip-rule="evenodd" d="M124.796 221.834L125.502 222.457C125.64 222.581 125.765 222.831 125.765 222.997V229.061L124.533 228.092V221.931C124.546 221.751 124.657 221.709 124.796 221.834Z" fill="url(#paint13_linear)"/>
<path opacity="0.5" fill-rule="evenodd" clip-rule="evenodd" d="M125.71 187.707C126.069 187.457 128.991 187.582 129.628 187.582C130.071 187.582 130.417 187.97 130.361 188.413C129.904 191.611 129.461 194.795 129.005 197.993C128.894 198.796 130.472 202.105 130.472 203.005C130.472 212.406 130.472 221.82 130.472 231.22C130.472 231.83 129.766 232.176 129.281 231.802C128.562 231.234 127.828 230.667 127.108 230.099C126.623 229.725 125.917 230.058 125.917 230.681C125.917 231.719 125.917 232.757 125.917 233.796C125.917 234.405 125.211 234.751 124.727 234.377C124.727 232.245 124.242 231.013 124.27 227.898C124.976 228.299 128.022 227.469 127.745 226.139C125.903 216.96 126.457 190.614 120.269 191.458C120.476 191.029 124.976 188.205 125.71 187.707Z" fill="url(#paint14_linear)"/>
<path fill-rule="evenodd" clip-rule="evenodd" d="M144.829 187.817C144.469 187.568 141.548 187.693 140.911 187.693C140.468 187.693 140.122 188.08 140.177 188.523C140.634 191.721 141.077 194.906 141.534 198.104C141.645 198.907 140.067 202.216 140.067 203.116C140.067 212.516 140.067 221.931 140.067 231.331C140.067 231.94 140.773 232.286 141.257 231.913C141.977 231.345 142.711 230.777 143.431 230.21C143.915 229.836 144.621 230.168 144.621 230.791C144.621 231.83 144.621 232.868 144.621 233.906C144.621 234.515 145.328 234.862 145.812 234.488C147.557 233.117 149.301 231.76 151.032 230.39C151.212 230.251 151.308 230.044 151.308 229.808C151.308 228.008 151.308 226.195 151.308 224.395C151.308 224.16 151.405 223.966 151.585 223.814C152.028 223.467 152.471 223.121 152.914 222.775C153.094 222.637 153.191 222.429 153.191 222.194C153.191 214.136 153.191 206.078 153.191 198.021C153.191 197.633 150.63 192.358 150.256 191.541C150.062 191.126 145.563 188.302 144.829 187.817Z" fill="url(#paint15_radial)"/>
<path fill-rule="evenodd" clip-rule="evenodd" d="M144.829 187.817C144.469 187.568 141.548 187.693 140.911 187.693C140.468 187.693 140.122 188.08 140.177 188.523C140.634 191.721 141.077 194.906 141.534 198.104C141.645 198.907 140.066 202.216 140.066 203.116C140.066 212.516 140.066 221.931 140.066 231.331C140.066 231.94 140.773 232.286 141.257 231.913C141.977 231.345 142.711 230.777 143.431 230.21C143.915 229.836 144.621 230.168 144.621 230.791C144.621 231.83 144.621 232.868 144.621 233.906C144.621 234.515 145.327 234.862 145.812 234.488C147.556 233.117 149.301 231.76 151.032 230.39C151.211 230.251 151.308 230.044 151.308 229.808C151.308 228.008 151.308 226.195 151.308 224.395C151.308 224.16 151.405 223.966 151.585 223.814C152.028 223.467 152.471 223.121 152.914 222.775C153.094 222.637 153.191 222.429 153.191 222.194C153.191 214.136 153.191 206.078 153.191 198.021C153.191 197.633 150.63 192.358 150.256 191.542C150.062 191.126 145.563 188.302 144.829 187.817ZM141.451 186.225C142.683 186.197 144.968 186.156 145.646 186.599C145.743 186.668 146.02 186.848 146.38 187.07C147.653 187.886 149.896 189.326 150.99 190.268C151.239 190.406 151.461 190.628 151.599 190.918L152.001 191.763C152.887 193.618 154.687 197.384 154.687 198.021V222.194C154.687 222.457 154.631 222.72 154.534 222.969C154.52 223.024 154.493 223.094 154.465 223.149C154.327 223.44 154.119 223.703 153.842 223.91L152.804 224.727V229.794C152.804 230.057 152.748 230.321 152.651 230.584C152.638 230.639 152.61 230.708 152.582 230.764C152.444 231.054 152.236 231.317 151.959 231.525L146.712 235.637C146.297 235.969 145.826 236.108 145.355 236.108C145.023 236.108 144.691 236.025 144.4 235.886H144.386C144.081 235.734 143.818 235.526 143.611 235.263C143.32 234.889 143.14 234.432 143.14 233.906V232.286L142.143 233.062C141.728 233.394 141.257 233.533 140.786 233.533C140.454 233.533 140.122 233.449 139.831 233.311C139.527 233.159 139.263 232.951 139.056 232.688C138.765 232.314 138.585 231.857 138.585 231.331V203.116C138.585 202.437 138.987 201.344 139.388 200.236C139.72 199.308 140.066 198.367 140.066 198.312L138.724 188.8L138.71 188.745C138.696 188.62 138.682 188.523 138.682 188.426C138.682 187.9 138.876 187.402 139.194 187.014L139.222 186.987C139.554 186.599 140.039 186.322 140.579 186.253C140.689 186.239 140.8 186.225 140.883 186.225C141.285 186.225 141.354 186.225 141.451 186.225Z" fill="black"/>
<path fill-rule="evenodd" clip-rule="evenodd" d="M140.067 222.097C140.067 224.616 140.067 228.798 140.067 231.331C140.067 231.94 140.773 232.286 141.257 231.913C145.148 228.867 149.038 225.821 152.928 222.775C153.108 222.637 153.205 222.429 153.205 222.194C153.205 219.203 153.205 214.745 153.205 211.755C148.83 215.216 144.441 218.663 140.067 222.097Z" fill="url(#paint16_linear)"/>
<path opacity="0.5" fill-rule="evenodd" clip-rule="evenodd" d="M140.067 228.978C140.067 231.497 140.067 228.811 140.067 231.331C140.067 231.94 140.773 232.287 141.257 231.913C145.148 228.867 149.038 225.821 152.928 222.775C153.108 222.637 153.205 222.429 153.205 222.194C153.205 219.203 153.205 221.626 153.205 218.636C152.264 223.301 141.949 231.359 140.067 228.978Z" fill="url(#paint17_linear)"/>
<path fill-rule="evenodd" clip-rule="evenodd" d="M143.431 230.21C143.915 229.836 144.621 230.168 144.621 230.791C144.621 231.83 144.621 232.868 144.621 233.906C144.621 234.515 145.328 234.862 145.812 234.488C147.557 233.117 149.301 231.76 151.032 230.39C151.212 230.251 151.308 230.044 151.308 229.808C151.308 228.008 151.308 226.195 151.308 224.395C151.308 224.16 151.405 223.966 151.585 223.813C148.872 225.946 146.158 228.078 143.431 230.21Z" fill="url(#paint18_linear)"/>
<path opacity="0.5" fill-rule="evenodd" clip-rule="evenodd" d="M146.227 234.045C146.864 233.699 147.889 232.716 148.553 232.217C149.052 231.83 150.478 230.888 150.769 230.501C151.198 229.933 151.087 229.075 150.962 228.41C150.727 227.219 150.796 229.49 150.339 229.988C149.938 230.445 148.623 231.58 148 231.996C145.757 233.491 146.02 233.048 145.771 231.65C145.688 231.193 145.452 231.968 145.355 232.508C145.272 233.02 145.231 234.405 146.117 234.086L146.227 234.045Z" fill="url(#paint19_linear)"/>
<path fill-rule="evenodd" clip-rule="evenodd" d="M145.771 228.382C144.995 228.991 144.206 229.601 143.431 230.21C143.818 229.822 144.621 230.154 144.621 230.791C144.621 231.83 144.621 232.868 144.621 233.906C144.621 234.308 144.926 234.599 145.272 234.64C145.12 232.55 145.134 229.338 145.771 228.382Z" fill="url(#paint20_linear)"/>
<path fill-rule="evenodd" clip-rule="evenodd" d="M149.716 225.281C150.339 224.796 150.962 224.298 151.585 223.813C151.405 223.952 151.308 224.16 151.308 224.395C151.308 226.195 151.308 228.008 151.308 229.808C151.308 230.044 151.211 230.237 151.031 230.39C151.087 226.347 150.768 224.783 149.716 225.281Z" fill="url(#paint21_linear)"/>
<path fill-rule="evenodd" clip-rule="evenodd" d="M151.308 224.492C151.502 224.34 151.71 223.717 151.516 223.869L143.14 230.417C142.946 230.57 143.957 230.237 144.151 230.099L151.308 224.492Z" fill="#00045D"/>
<path fill-rule="evenodd" clip-rule="evenodd" d="M149.273 227.718V229.919C149.273 230.334 149.896 230.016 149.896 229.614V227.413C149.896 226.998 149.273 227.316 149.273 227.718ZM146.269 230.071V232.273C146.269 232.688 146.892 232.37 146.892 231.968V229.767C146.892 229.351 146.269 229.67 146.269 230.071ZM147.875 228.811V231.013C147.875 231.428 148.498 231.11 148.498 230.708V228.507C148.498 228.092 147.875 228.41 147.875 228.811Z" fill="#211E09"/>
<path fill-rule="evenodd" clip-rule="evenodd" d="M153.205 211.769C153.399 211.616 153.399 211.159 153.205 211.298L145.424 217.417C145.189 217.611 144.829 217.431 144.829 217.127V210.467C144.829 210.343 144.884 210.246 144.981 210.176L150.353 206.189C150.409 206.162 150.45 206.092 150.45 206.037V191.943C150.45 191.362 150.062 191.251 150.062 191.362L150.076 205.94L144.829 209.844V202.188C144.829 202.022 141.839 198.215 141.479 197.758C141.465 197.73 141.313 198.145 141.52 198.408L144.455 202.257V217.846C144.455 218.082 144.358 218.276 144.178 218.428L140.067 221.64C139.873 221.792 139.873 222.249 140.067 222.097L153.205 211.769Z" fill="#00045D"/>
<path fill-rule="evenodd" clip-rule="evenodd" d="M150.824 217.486L149.813 218.22C149.605 218.373 149.453 218.649 149.453 218.857V225.503L151.198 224.132V217.597C151.198 217.39 151.031 217.334 150.824 217.486Z" fill="url(#paint22_linear)"/>
<path fill-rule="evenodd" clip-rule="evenodd" d="M150.685 218.068L149.979 218.691C149.841 218.816 149.716 219.065 149.716 219.231V225.295L150.948 224.326V218.165C150.935 217.985 150.824 217.943 150.685 218.068Z" fill="url(#paint23_linear)"/>
<path fill-rule="evenodd" clip-rule="evenodd" d="M145.895 221.363L144.884 222.097C144.677 222.249 144.524 222.526 144.524 222.734V229.379L146.269 228.009V221.474C146.255 221.252 146.103 221.211 145.895 221.363Z" fill="url(#paint24_linear)"/>
<path fill-rule="evenodd" clip-rule="evenodd" d="M145.743 221.945L145.037 222.568C144.898 222.692 144.774 222.941 144.774 223.108V229.172L146.006 228.202V222.041C146.006 221.861 145.881 221.82 145.743 221.945Z" fill="url(#paint25_linear)"/>
<path opacity="0.5" fill-rule="evenodd" clip-rule="evenodd" d="M144.829 187.817C144.469 187.568 141.548 187.693 140.911 187.693C140.468 187.693 140.122 188.08 140.177 188.523C140.634 191.721 141.077 194.906 141.534 198.104C141.645 198.907 140.067 202.216 140.067 203.116C140.067 212.516 140.067 221.931 140.067 231.331C140.067 231.94 140.773 232.286 141.257 231.913C141.977 231.345 142.711 230.777 143.431 230.21C143.915 229.836 144.621 230.168 144.621 230.791C144.621 231.83 144.621 232.868 144.621 233.906C144.621 234.515 145.328 234.862 145.812 234.488C145.812 232.356 146.297 231.124 146.269 228.008C145.563 228.41 142.517 227.579 142.794 226.25C144.635 217.071 144.081 190.725 150.27 191.569C150.062 191.126 145.563 188.302 144.829 187.817Z" fill="url(#paint26_linear)"/>
</g>
<defs>
<radialGradient id="paint0_radial" cx="0" cy="0" r="1" gradientUnits="userSpaceOnUse" gradientTransform="translate(135.189 211.658) rotate(-90.0047) scale(14.5953 6.37814)">
<stop stop-color="#5781C1"/>
<stop offset="1" stop-color="#3654A5"/>
</radialGradient>
<linearGradient id="paint1_linear" x1="135.187" y1="199.84" x2="135.188" y2="220.603" gradientUnits="userSpaceOnUse">
<stop stop-color="#140C4F"/>
<stop offset="1" stop-color="white"/>
</linearGradient>
<linearGradient id="paint2_linear" x1="135.187" y1="200.233" x2="135.188" y2="213.303" gradientUnits="userSpaceOnUse">
<stop stop-color="#140C4F"/>
<stop offset="1" stop-color="white"/>
</linearGradient>
<radialGradient id="paint3_radial" cx="0" cy="0" r="1" gradientUnits="userSpaceOnUse" gradientTransform="translate(123.912 213.198) rotate(-90.0011) scale(25.2458 6.69013)">
<stop stop-color="#5781C1"/>
<stop offset="1" stop-color="#3654A5"/>
</radialGradient>
<linearGradient id="paint4_linear" x1="123.91" y1="216.946" x2="123.912" y2="230.915" gradientUnits="userSpaceOnUse">
<stop stop-color="#CC721C"/>
<stop offset="1" stop-color="#F5841F"/>
</linearGradient>
<linearGradient id="paint5_linear" x1="123.91" y1="231.968" x2="123.912" y2="215.297" gradientUnits="userSpaceOnUse">
<stop stop-color="#C2691B"/>
<stop offset="1" stop-color="white"/>
</linearGradient>
<linearGradient id="paint6_linear" x1="123.033" y1="226.696" x2="123.035" y2="232.346" gradientUnits="userSpaceOnUse">
<stop stop-color="#828591"/>
<stop offset="1" stop-color="#ADB2C0"/>
</linearGradient>
<linearGradient id="paint7_linear" x1="122.599" y1="230.31" x2="122.252" y2="231.179" gradientUnits="userSpaceOnUse">
<stop stop-color="#ADB2C0"/>
<stop offset="1" stop-color="white"/>
</linearGradient>
<linearGradient id="paint8_linear" x1="125.945" y1="229.493" x2="125.946" y2="233.972" gradientUnits="userSpaceOnUse">
<stop stop-color="#494E5A"/>
<stop offset="1" stop-color="#828591"/>
</linearGradient>
<linearGradient id="paint9_linear" x1="119.888" y1="224.995" x2="119.89" y2="229.699" gradientUnits="userSpaceOnUse">
<stop stop-color="#494E5A"/>
<stop offset="1" stop-color="#828591"/>
</linearGradient>
<linearGradient id="paint10_linear" x1="120.221" y1="224.606" x2="120.222" y2="217.944" gradientUnits="userSpaceOnUse">
<stop stop-color="#25409A"/>
<stop offset="1" stop-color="#ADB2C0"/>
</linearGradient>
<linearGradient id="paint11_linear" x1="119.318" y1="222.61" x2="121.091" y2="220.585" gradientUnits="userSpaceOnUse">
<stop stop-color="#25409A"/>
<stop offset="1" stop-color="#1B135A"/>
</linearGradient>
<linearGradient id="paint12_linear" x1="125.157" y1="228.477" x2="125.159" y2="221.815" gradientUnits="userSpaceOnUse">
<stop stop-color="#25409A"/>
<stop offset="1" stop-color="#ADB2C0"/>
</linearGradient>
<linearGradient id="paint13_linear" x1="124.254" y1="226.48" x2="126.028" y2="224.455" gradientUnits="userSpaceOnUse">
<stop stop-color="#25409A"/>
<stop offset="1" stop-color="#1B135A"/>
</linearGradient>
<linearGradient id="paint14_linear" x1="131.221" y1="211.047" x2="120.285" y2="211.046" gradientUnits="userSpaceOnUse">
<stop stop-color="#140C4F"/>
<stop offset="1" stop-color="white"/>
</linearGradient>
<radialGradient id="paint15_radial" cx="0" cy="0" r="1" gradientUnits="userSpaceOnUse" gradientTransform="translate(146.635 213.301) rotate(-89.9989) scale(25.2451 6.68995)">
<stop stop-color="#5781C1"/>
<stop offset="1" stop-color="#3654A5"/>
</radialGradient>
<linearGradient id="paint16_linear" x1="146.636" y1="217.049" x2="146.635" y2="231.018" gradientUnits="userSpaceOnUse">
<stop stop-color="#CC721C"/>
<stop offset="1" stop-color="#F5841F"/>
</linearGradient>
<linearGradient id="paint17_linear" x1="146.637" y1="232.071" x2="146.635" y2="215.4" gradientUnits="userSpaceOnUse">
<stop stop-color="#C2691B"/>
<stop offset="1" stop-color="white"/>
</linearGradient>
<linearGradient id="paint18_linear" x1="147.514" y1="226.799" x2="147.512" y2="232.45" gradientUnits="userSpaceOnUse">
<stop stop-color="#828591"/>
<stop offset="1" stop-color="#ADB2C0"/>
</linearGradient>
<linearGradient id="paint19_linear" x1="147.948" y1="230.412" x2="148.294" y2="231.282" gradientUnits="userSpaceOnUse">
<stop stop-color="#ADB2C0"/>
<stop offset="1" stop-color="white"/>
</linearGradient>
<linearGradient id="paint20_linear" x1="144.601" y1="229.597" x2="144.6" y2="234.075" gradientUnits="userSpaceOnUse">
<stop stop-color="#494E5A"/>
<stop offset="1" stop-color="#828591"/>
</linearGradient>
<linearGradient id="paint21_linear" x1="150.658" y1="225.098" x2="150.656" y2="229.802" gradientUnits="userSpaceOnUse">
<stop stop-color="#494E5A"/>
<stop offset="1" stop-color="#828591"/>
</linearGradient>
<linearGradient id="paint22_linear" x1="150.326" y1="224.71" x2="150.324" y2="218.047" gradientUnits="userSpaceOnUse">
<stop stop-color="#25409A"/>
<stop offset="1" stop-color="#ADB2C0"/>
</linearGradient>
<linearGradient id="paint23_linear" x1="151.228" y1="222.713" x2="149.455" y2="220.687" gradientUnits="userSpaceOnUse">
<stop stop-color="#25409A"/>
<stop offset="1" stop-color="#1B135A"/>
</linearGradient>
<linearGradient id="paint24_linear" x1="145.389" y1="228.58" x2="145.388" y2="221.918" gradientUnits="userSpaceOnUse">
<stop stop-color="#25409A"/>
<stop offset="1" stop-color="#ADB2C0"/>
</linearGradient>
<linearGradient id="paint25_linear" x1="146.292" y1="226.583" x2="144.518" y2="224.558" gradientUnits="userSpaceOnUse">
<stop stop-color="#25409A"/>
<stop offset="1" stop-color="#1B135A"/>
</linearGradient>
<linearGradient id="paint26_linear" x1="139.325" y1="211.15" x2="150.262" y2="211.149" gradientUnits="userSpaceOnUse">
<stop stop-color="#140C4F"/>
<stop offset="1" stop-color="white"/>
</linearGradient>
<clipPath id="clip0">
<rect x="56.3059" y="107.158" width="157.941" height="159.048" fill="white"/>
</clipPath>
</defs>
</svg>
