<svg width="270" height="370" viewBox="0 0 270 370" fill="none" xmlns="http://www.w3.org/2000/svg">
<g clip-path="url(#clip0)">
<path fill-rule="evenodd" clip-rule="evenodd" d="M135.29 179.192C131.524 179.192 127.745 179.192 123.979 179.192C123.079 179.192 122.331 179.815 122.179 180.701C121.653 183.539 121.141 186.391 120.615 189.23C120.615 195.529 120.615 199.987 120.615 206.286C120.615 206.868 120.864 207.38 121.321 207.726C121.695 208.017 122.068 208.321 122.456 208.612C122.456 225.987 123.965 225.489 129.6 228.742C129.6 221.405 129.96 219.909 135.29 219.909C140.62 219.909 140.98 221.391 140.98 228.742C146.629 225.489 148.124 225.987 148.124 208.612C148.498 208.321 148.872 208.017 149.259 207.726C149.716 207.366 149.965 206.868 149.965 206.286C149.965 199.987 149.965 195.529 149.965 189.23C149.439 186.391 148.927 183.539 148.401 180.701C148.235 179.815 147.487 179.192 146.601 179.192C142.822 179.192 139.056 179.192 135.29 179.192Z" fill="url(#paint0_linear)"/>
<path fill-rule="evenodd" clip-rule="evenodd" d="M135.29 179.192C131.524 179.192 127.745 179.192 123.979 179.192C123.079 179.192 122.331 179.815 122.179 180.701C121.653 183.539 121.141 186.391 120.615 189.23C120.615 195.529 120.615 199.987 120.615 206.286C120.615 206.868 120.864 207.38 121.321 207.726C121.694 208.017 122.068 208.321 122.456 208.612C122.456 225.987 123.965 225.489 129.6 228.742C129.6 221.405 129.96 219.909 135.29 219.909C140.62 219.909 140.98 221.391 140.98 228.742C146.629 225.489 148.124 225.987 148.124 208.612C148.498 208.321 148.872 208.017 149.259 207.726C149.716 207.366 149.965 206.868 149.965 206.286C149.965 199.987 149.965 195.529 149.965 189.23C149.439 186.391 148.927 183.539 148.401 180.701C148.235 179.815 147.487 179.192 146.601 179.192C142.822 179.192 139.056 179.192 135.29 179.192ZM123.979 177.725H135.29H146.601C147.39 177.725 148.138 178.015 148.719 178.486C149.301 178.971 149.702 179.649 149.855 180.424L151.391 188.842C151.419 188.967 151.447 189.091 151.447 189.23V206.286C151.447 206.799 151.336 207.297 151.114 207.74C150.907 208.183 150.588 208.571 150.173 208.889L149.605 209.332C149.564 225.544 148.083 226.458 142.932 229.338L142.863 229.379C142.489 229.587 142.102 229.808 141.811 229.975C141.575 230.127 141.299 230.224 140.994 230.224C140.177 230.224 139.526 229.573 139.526 228.756C139.526 225.337 139.457 223.301 138.89 222.332C138.46 221.612 137.394 221.405 135.304 221.405C133.213 221.405 132.147 221.612 131.718 222.332C131.15 223.301 131.081 225.337 131.081 228.756C131.081 229.005 131.012 229.255 130.887 229.49C130.486 230.196 129.586 230.431 128.88 230.03C128.589 229.864 128.146 229.615 127.745 229.393C122.539 226.486 121.044 225.641 121.002 209.346L120.435 208.903C120.019 208.584 119.701 208.197 119.493 207.754C119.272 207.311 119.161 206.826 119.161 206.3V189.243C119.161 189.16 119.175 189.063 119.189 188.98L120.753 180.452C120.891 179.663 121.307 178.984 121.888 178.514C122.442 178.015 123.176 177.725 123.979 177.725Z" fill="black"/>
<path fill-rule="evenodd" clip-rule="evenodd" d="M122.442 208.848C122.442 226.223 123.951 225.503 129.586 228.77C129.586 225.89 129.641 223.924 130.029 222.581C126.858 221.737 127.205 215.604 127.205 211.201L122.442 208.848Z" fill="url(#paint1_linear)"/>
<path fill-rule="evenodd" clip-rule="evenodd" d="M148.124 208.848C148.124 226.223 146.615 225.503 140.98 228.77C140.98 225.89 140.925 223.924 140.537 222.581C143.708 221.737 143.362 215.604 143.362 211.201L148.124 208.848Z" fill="url(#paint2_linear)"/>
<path fill-rule="evenodd" clip-rule="evenodd" d="M125.668 210.647C125.654 213.845 125.294 224.326 129.724 224.326C129.794 223.744 129.863 223.163 130.029 222.554C126.859 221.709 127.205 215.576 127.205 211.173L125.668 210.647Z" fill="url(#paint3_linear)"/>
<path fill-rule="evenodd" clip-rule="evenodd" d="M144.898 210.647C144.912 213.845 145.272 224.326 140.842 224.326C140.773 223.744 140.703 223.163 140.537 222.554C143.708 221.709 143.362 215.576 143.362 211.173L144.898 210.647Z" fill="url(#paint4_linear)"/>
<path opacity="0.5" fill-rule="evenodd" clip-rule="evenodd" d="M127.399 179.192H123.979C123.079 179.192 122.331 179.815 122.179 180.701C121.653 183.539 121.141 186.391 120.615 189.23C120.615 195.529 120.615 199.987 120.615 206.286C120.615 206.868 120.864 207.38 121.321 207.726C121.695 208.017 122.068 208.321 122.456 208.612C122.456 225.987 123.965 225.489 129.6 228.742C124.2 224.146 123.384 216.877 123.384 207.255C122.096 207.255 121.819 205.705 121.819 199.087C121.819 190.476 122.996 190.199 124.616 189.271C123.121 189.271 122.013 186.419 122.442 183.789C123.037 180.134 125.626 179.192 127.399 179.192Z" fill="url(#paint5_linear)"/>
<path opacity="0.5" fill-rule="evenodd" clip-rule="evenodd" d="M143.181 179.192H146.601C147.501 179.192 148.249 179.815 148.401 180.701C148.927 183.539 149.439 186.391 149.965 189.23C149.965 195.529 149.965 199.987 149.965 206.286C149.965 206.868 149.716 207.38 149.259 207.726C148.885 208.017 148.512 208.321 148.124 208.612C148.124 225.987 146.615 225.489 140.98 228.742C146.38 224.146 147.196 216.877 147.196 207.255C148.484 207.255 148.761 205.705 148.761 199.087C148.761 190.476 147.584 190.199 145.964 189.271C147.459 189.271 148.567 186.419 148.138 183.789C147.542 180.134 144.954 179.192 143.181 179.192Z" fill="url(#paint6_linear)"/>
<path opacity="0.5" fill-rule="evenodd" clip-rule="evenodd" d="M131.538 179.192C130.527 179.192 129.517 179.192 128.506 179.192C129.987 181.767 132.106 217.777 130.14 222.291C130.417 221.432 130.86 220.809 131.552 220.56C131.538 206.771 131.538 192.981 131.538 179.192Z" fill="url(#paint7_linear)"/>
<path opacity="0.5" fill-rule="evenodd" clip-rule="evenodd" d="M139.042 179.192C140.053 179.192 141.063 179.192 142.074 179.192C140.593 181.767 138.474 217.777 140.44 222.291C140.163 221.432 139.72 220.809 139.028 220.56C139.042 206.771 139.042 192.981 139.042 179.192Z" fill="url(#paint8_linear)"/>
<path fill-rule="evenodd" clip-rule="evenodd" d="M135.29 179.192C134.044 179.192 132.784 179.192 131.538 179.192C131.538 192.981 131.538 206.771 131.538 220.546C132.826 220.006 134.072 219.923 135.29 219.923C136.508 219.923 137.754 220.006 139.042 220.546C139.042 206.757 139.042 192.968 139.042 179.192C137.796 179.192 136.536 179.192 135.29 179.192Z" fill="url(#paint9_radial)"/>
<path fill-rule="evenodd" clip-rule="evenodd" d="M135.29 217.916C134.044 217.916 131.538 216.573 131.538 209.692C131.538 223.481 131.538 206.771 131.538 220.546C132.826 220.006 134.072 219.923 135.29 219.923V217.916Z" fill="url(#paint10_linear)"/>
<path fill-rule="evenodd" clip-rule="evenodd" d="M135.29 217.916C136.536 217.916 139.042 216.573 139.042 209.692C139.042 223.481 139.042 206.771 139.042 220.546C137.754 220.006 136.508 219.923 135.29 219.923V217.916Z" fill="url(#paint11_linear)"/>
<path fill-rule="evenodd" clip-rule="evenodd" d="M131.538 195.017C129.212 195.017 126.526 195.058 124.2 195.058C124.2 196.761 124.2 198.616 124.2 200.319C124.2 204.805 123.563 206.688 122.442 208.778C125.349 210.232 128.617 211.949 131.524 213.402C131.538 207.435 131.538 200.97 131.538 195.017Z" fill="url(#paint12_linear)"/>
<path fill-rule="evenodd" clip-rule="evenodd" d="M139.042 195.017C141.368 195.017 144.054 195.058 146.38 195.058C146.38 196.761 146.38 198.616 146.38 200.319C146.38 204.805 147.017 206.688 148.138 208.778C145.231 210.232 141.963 211.949 139.056 213.402C139.042 207.435 139.042 200.97 139.042 195.017Z" fill="url(#paint13_linear)"/>
<path fill-rule="evenodd" clip-rule="evenodd" d="M130.126 195.197H130.5V212.724H130.126V195.197ZM125.239 195.197H125.613V210.19L125.239 210.01V195.197ZM126.872 195.197H127.246V211.09H126.872V195.197ZM128.492 195.197H128.866V211.949H128.492V195.197Z" fill="url(#paint14_linear)"/>
<path fill-rule="evenodd" clip-rule="evenodd" d="M140.44 195.197H140.066V212.724H140.44V195.197ZM145.341 195.197H144.967V210.19L145.341 210.01V195.197ZM143.708 195.197H143.334V211.09H143.708V195.197ZM142.074 195.197H141.7V211.949H142.074V195.197Z" fill="url(#paint15_linear)"/>
<path fill-rule="evenodd" clip-rule="evenodd" d="M128.049 179.192C128.049 178.957 128.409 178.957 128.409 179.192C128.409 180.632 127.689 189.465 126.014 189.465C124.214 189.465 122.401 189.437 120.601 189.41C120.365 189.41 120.365 189.05 120.601 189.05C122.401 189.063 124.2 189.091 126 189.105C127.302 189.036 128.049 180.494 128.049 179.192ZM127.398 211.506L131.455 213.527C131.58 213.582 131.718 213.499 131.718 213.361V179.192C131.718 178.957 131.344 178.957 131.344 179.192V194.837H124.186C124.09 194.837 124.007 194.92 124.007 195.017V200.305C124.007 203.06 123.882 206.175 122.29 208.529C122.234 208.598 122.234 208.944 122.359 209L127.025 211.326C127.025 215.285 127.163 217.833 127.606 219.508C128.049 221.238 128.797 222.083 130.001 222.637C130.098 222.678 130.195 222.637 130.25 222.54C130.292 222.443 130.25 222.332 130.154 222.291C129.06 221.792 128.381 221.017 127.966 219.411C127.551 217.791 127.398 215.341 127.398 211.506ZM122.608 208.709C124.228 206.286 124.38 203.13 124.38 200.305V195.21H131.344V213.07L122.608 208.709Z" fill="#00045D"/>
<path fill-rule="evenodd" clip-rule="evenodd" d="M142.517 179.192C142.517 178.957 142.157 178.957 142.157 179.192C142.157 180.632 142.877 189.465 144.552 189.465C146.352 189.465 148.166 189.437 149.965 189.41C150.201 189.41 150.201 189.05 149.965 189.05C148.166 189.063 146.366 189.091 144.566 189.105C143.278 189.036 142.531 180.494 142.517 179.192ZM143.181 211.506L139.125 213.527C139 213.582 138.862 213.499 138.862 213.361V179.192C138.862 178.957 139.236 178.957 139.236 179.192V194.837H146.393C146.49 194.837 146.573 194.92 146.573 195.017V200.305C146.573 203.06 146.698 206.175 148.29 208.529C148.346 208.598 148.346 208.944 148.221 209L143.555 211.326C143.555 215.285 143.417 217.833 142.974 219.508C142.531 221.238 141.783 222.083 140.579 222.637C140.482 222.678 140.385 222.637 140.329 222.54C140.288 222.443 140.329 222.332 140.426 222.291C141.52 221.792 142.199 221.017 142.614 219.411C143.029 217.791 143.168 215.341 143.181 211.506ZM147.972 208.709C146.352 206.286 146.2 203.13 146.2 200.305V195.21H139.222V213.07L147.972 208.709Z" fill="#00045D"/>
<path fill-rule="evenodd" clip-rule="evenodd" d="M120.615 193.895C120.615 193.397 120.615 192.912 120.615 192.414C121.293 192.58 121.985 192.746 122.664 192.912C123.051 193.009 123.287 193.397 123.19 193.771C123.093 194.158 122.705 194.394 122.331 194.297C121.75 194.172 121.182 194.034 120.615 193.895Z" fill="url(#paint16_linear)"/>
<path fill-rule="evenodd" clip-rule="evenodd" d="M120.615 193.646C120.615 193.314 120.615 192.968 120.615 192.635C121.085 192.746 121.874 192.954 122.345 193.064C122.608 193.134 122.774 193.397 122.705 193.66C122.636 193.923 122.373 194.089 122.11 194.02C121.722 193.923 121.002 193.743 120.615 193.646Z" fill="#00045D"/>
<path fill-rule="evenodd" clip-rule="evenodd" d="M120.615 196.761C120.615 196.263 120.615 195.778 120.615 195.28C121.293 195.446 121.985 195.612 122.664 195.778C123.051 195.875 123.287 196.263 123.19 196.636C123.093 197.024 122.705 197.259 122.331 197.163C121.75 197.038 121.182 196.899 120.615 196.761Z" fill="url(#paint17_linear)"/>
<path fill-rule="evenodd" clip-rule="evenodd" d="M120.615 196.512C120.615 196.179 120.615 195.833 120.615 195.501C121.085 195.612 121.874 195.82 122.345 195.93C122.608 195.999 122.774 196.263 122.705 196.526C122.636 196.789 122.373 196.955 122.11 196.886C121.722 196.789 121.002 196.609 120.615 196.512Z" fill="#00045D"/>
<path fill-rule="evenodd" clip-rule="evenodd" d="M120.615 199.641C120.615 199.142 120.615 198.658 120.615 198.159C121.293 198.326 121.985 198.492 122.664 198.658C123.051 198.755 123.287 199.142 123.19 199.516C123.093 199.904 122.705 200.139 122.331 200.042C121.75 199.918 121.182 199.779 120.615 199.641Z" fill="url(#paint18_linear)"/>
<path fill-rule="evenodd" clip-rule="evenodd" d="M120.615 199.392C120.615 199.059 120.615 198.713 120.615 198.381C121.085 198.492 121.874 198.699 122.345 198.81C122.608 198.879 122.774 199.142 122.705 199.405C122.636 199.669 122.373 199.835 122.11 199.765C121.722 199.669 121.002 199.489 120.615 199.392Z" fill="#00045D"/>
<path fill-rule="evenodd" clip-rule="evenodd" d="M149.965 193.895C149.965 193.397 149.965 192.912 149.965 192.414C149.287 192.58 148.595 192.746 147.916 192.912C147.529 193.009 147.293 193.397 147.39 193.771C147.487 194.158 147.875 194.394 148.249 194.297C148.816 194.172 149.398 194.034 149.965 193.895Z" fill="url(#paint19_linear)"/>
<path fill-rule="evenodd" clip-rule="evenodd" d="M149.965 193.646C149.965 193.314 149.965 192.968 149.965 192.635C149.495 192.746 148.705 192.954 148.235 193.064C147.972 193.134 147.806 193.397 147.875 193.66C147.944 193.923 148.207 194.089 148.47 194.02C148.858 193.923 149.578 193.743 149.965 193.646Z" fill="#00045D"/>
<path fill-rule="evenodd" clip-rule="evenodd" d="M149.965 196.761C149.965 196.263 149.965 195.778 149.965 195.28C149.287 195.446 148.595 195.612 147.916 195.778C147.529 195.875 147.293 196.263 147.39 196.636C147.487 197.024 147.875 197.259 148.249 197.163C148.816 197.038 149.398 196.899 149.965 196.761Z" fill="url(#paint20_linear)"/>
<path fill-rule="evenodd" clip-rule="evenodd" d="M149.965 196.512C149.965 196.179 149.965 195.833 149.965 195.501C149.495 195.612 148.705 195.82 148.235 195.93C147.972 195.999 147.806 196.263 147.875 196.526C147.944 196.789 148.207 196.955 148.47 196.886C148.858 196.789 149.578 196.609 149.965 196.512Z" fill="#00045D"/>
<path fill-rule="evenodd" clip-rule="evenodd" d="M149.965 199.641C149.965 199.142 149.965 198.658 149.965 198.159C149.287 198.326 148.595 198.492 147.916 198.658C147.529 198.755 147.293 199.142 147.39 199.516C147.487 199.904 147.875 200.139 148.249 200.042C148.816 199.918 149.398 199.779 149.965 199.641Z" fill="url(#paint21_linear)"/>
<path fill-rule="evenodd" clip-rule="evenodd" d="M149.965 199.392C149.965 199.059 149.965 198.713 149.965 198.381C149.495 198.492 148.705 198.699 148.235 198.81C147.972 198.879 147.806 199.142 147.875 199.405C147.944 199.669 148.207 199.835 148.47 199.765C148.858 199.669 149.578 199.489 149.965 199.392Z" fill="#00045D"/>
<path fill-rule="evenodd" clip-rule="evenodd" d="M122.539 214.662L122.511 214.288L124.685 214.15L124.699 214.51L122.539 214.662Z" fill="url(#paint22_linear)"/>
<path fill-rule="evenodd" clip-rule="evenodd" d="M123.051 221.003L122.982 220.629L125.17 219.937L125.28 220.283L123.051 221.003Z" fill="url(#paint23_linear)"/>
<path fill-rule="evenodd" clip-rule="evenodd" d="M126.125 226.735L125.834 226.527L127.136 224.755L127.44 224.963L126.125 226.735Z" fill="url(#paint24_linear)"/>
<path fill-rule="evenodd" clip-rule="evenodd" d="M148.041 214.662L148.069 214.288L145.895 214.15L145.867 214.51L148.041 214.662Z" fill="url(#paint25_linear)"/>
<path fill-rule="evenodd" clip-rule="evenodd" d="M147.529 221.003L147.584 220.629L145.397 219.937L145.286 220.283L147.529 221.003Z" fill="url(#paint26_linear)"/>
<path fill-rule="evenodd" clip-rule="evenodd" d="M144.441 226.735L144.746 226.527L143.431 224.755L143.14 224.963L144.441 226.735Z" fill="url(#paint27_linear)"/>
<path fill-rule="evenodd" clip-rule="evenodd" d="M124.297 209.969L124.671 210.163C124.671 213.596 124.616 225.89 129.628 225.89V226.264C124.2 226.236 124.297 213.679 124.297 209.969Z" fill="#6A6B73"/>
<path fill-rule="evenodd" clip-rule="evenodd" d="M146.269 209.969L145.895 210.163C145.895 213.596 145.95 225.89 140.939 225.89V226.264C146.38 226.236 146.269 213.679 146.269 209.969Z" fill="#6A6B73"/>
<path opacity="0.5" fill-rule="evenodd" clip-rule="evenodd" d="M135.29 179.192C131.524 179.192 127.745 179.192 123.979 179.192C123.079 179.192 122.331 179.815 122.179 180.701C121.653 183.539 121.141 186.391 120.615 189.23C120.615 195.529 120.615 199.987 120.615 206.286C120.615 206.868 120.864 207.38 121.321 207.726C121.695 208.017 122.068 208.321 122.456 208.612C122.456 226.555 124.02 212.572 135.29 212.572C146.56 212.572 148.124 226.555 148.124 208.612C148.498 208.321 148.872 208.017 149.259 207.726C149.716 207.366 149.965 206.868 149.965 206.286C149.965 199.987 149.965 195.529 149.965 189.23C149.439 186.391 148.927 183.539 148.401 180.701C148.235 179.815 147.487 179.192 146.601 179.192C142.822 179.192 139.056 179.192 135.29 179.192Z" fill="url(#paint28_linear)"/>
</g>
<defs>
<linearGradient id="paint0_linear" x1="135.287" y1="178.274" x2="135.288" y2="228.938" gradientUnits="userSpaceOnUse">
<stop stop-color="#3654A5"/>
<stop offset="1" stop-color="#5781C1"/>
</linearGradient>
<linearGradient id="paint1_linear" x1="126.232" y1="204.745" x2="126.249" y2="222.06" gradientUnits="userSpaceOnUse">
<stop stop-color="#828591"/>
<stop offset="1" stop-color="#ADB2C0"/>
</linearGradient>
<linearGradient id="paint2_linear" x1="144.343" y1="204.745" x2="144.325" y2="222.06" gradientUnits="userSpaceOnUse">
<stop stop-color="#828591"/>
<stop offset="1" stop-color="#ADB2C0"/>
</linearGradient>
<linearGradient id="paint3_linear" x1="125.778" y1="212.029" x2="128.824" y2="223.346" gradientUnits="userSpaceOnUse">
<stop stop-color="#828591"/>
<stop offset="1" stop-color="#5F626B"/>
</linearGradient>
<linearGradient id="paint4_linear" x1="144.797" y1="212.029" x2="141.75" y2="223.346" gradientUnits="userSpaceOnUse">
<stop stop-color="#828591"/>
<stop offset="1" stop-color="#5F626B"/>
</linearGradient>
<linearGradient id="paint5_linear" x1="125.102" y1="181.343" x2="125.104" y2="228.546" gradientUnits="userSpaceOnUse">
<stop stop-color="#140C4F"/>
<stop offset="1" stop-color="white"/>
</linearGradient>
<linearGradient id="paint6_linear" x1="145.472" y1="181.343" x2="145.471" y2="228.546" gradientUnits="userSpaceOnUse">
<stop stop-color="#140C4F"/>
<stop offset="1" stop-color="white"/>
</linearGradient>
<linearGradient id="paint7_linear" x1="130.017" y1="179.356" x2="130.019" y2="222.291" gradientUnits="userSpaceOnUse">
<stop stop-color="#5781C1"/>
<stop offset="1" stop-color="#AADDDD"/>
</linearGradient>
<linearGradient id="paint8_linear" x1="140.558" y1="179.356" x2="140.556" y2="222.291" gradientUnits="userSpaceOnUse">
<stop stop-color="#5781C1"/>
<stop offset="1" stop-color="#AADDDD"/>
</linearGradient>
<radialGradient id="paint9_radial" cx="0" cy="0" r="1" gradientUnits="userSpaceOnUse" gradientTransform="translate(135.208 196.633) rotate(-89.9993) scale(23.296 3.83219)">
<stop stop-color="#5781C1"/>
<stop offset="1" stop-color="#140C4F"/>
</radialGradient>
<linearGradient id="paint10_linear" x1="131.561" y1="215.125" x2="135.282" y2="215.123" gradientUnits="userSpaceOnUse">
<stop stop-color="#140C4F"/>
<stop offset="1" stop-color="#5781C1"/>
</linearGradient>
<linearGradient id="paint11_linear" x1="139.014" y1="215.125" x2="135.293" y2="215.123" gradientUnits="userSpaceOnUse">
<stop stop-color="#140C4F"/>
<stop offset="1" stop-color="#5781C1"/>
</linearGradient>
<linearGradient id="paint12_linear" x1="126.99" y1="195.475" x2="126.992" y2="211.673" gradientUnits="userSpaceOnUse">
<stop stop-color="#2B2477"/>
<stop offset="1" stop-color="#3654A5"/>
</linearGradient>
<linearGradient id="paint13_linear" x1="143.584" y1="195.475" x2="143.583" y2="211.673" gradientUnits="userSpaceOnUse">
<stop stop-color="#2B2477"/>
<stop offset="1" stop-color="#3654A5"/>
</linearGradient>
<linearGradient id="paint14_linear" x1="127.866" y1="195.37" x2="127.868" y2="212.118" gradientUnits="userSpaceOnUse">
<stop stop-color="#3654A5"/>
<stop offset="1" stop-color="#6FA1D6"/>
</linearGradient>
<linearGradient id="paint15_linear" x1="142.708" y1="195.37" x2="142.706" y2="212.118" gradientUnits="userSpaceOnUse">
<stop stop-color="#3654A5"/>
<stop offset="1" stop-color="#6FA1D6"/>
</linearGradient>
<linearGradient id="paint16_linear" x1="122.793" y1="193.717" x2="120.608" y2="193.125" gradientUnits="userSpaceOnUse">
<stop stop-color="#2B2477"/>
<stop offset="1" stop-color="#3654A5"/>
</linearGradient>
<linearGradient id="paint17_linear" x1="122.793" y1="196.59" x2="120.608" y2="195.998" gradientUnits="userSpaceOnUse">
<stop stop-color="#2B2477"/>
<stop offset="1" stop-color="#3654A5"/>
</linearGradient>
<linearGradient id="paint18_linear" x1="122.793" y1="199.463" x2="120.608" y2="198.871" gradientUnits="userSpaceOnUse">
<stop stop-color="#2B2477"/>
<stop offset="1" stop-color="#3654A5"/>
</linearGradient>
<linearGradient id="paint19_linear" x1="147.781" y1="193.717" x2="149.966" y2="193.125" gradientUnits="userSpaceOnUse">
<stop stop-color="#2B2477"/>
<stop offset="1" stop-color="#3654A5"/>
</linearGradient>
<linearGradient id="paint20_linear" x1="147.781" y1="196.59" x2="149.966" y2="195.998" gradientUnits="userSpaceOnUse">
<stop stop-color="#2B2477"/>
<stop offset="1" stop-color="#3654A5"/>
</linearGradient>
<linearGradient id="paint21_linear" x1="147.781" y1="199.463" x2="149.966" y2="198.871" gradientUnits="userSpaceOnUse">
<stop stop-color="#2B2477"/>
<stop offset="1" stop-color="#3654A5"/>
</linearGradient>
<linearGradient id="paint22_linear" x1="124.564" y1="214.335" x2="122.545" y2="214.481" gradientUnits="userSpaceOnUse">
<stop stop-color="#020000"/>
<stop offset="1" stop-color="#5F626B"/>
</linearGradient>
<linearGradient id="paint23_linear" x1="125.154" y1="220.434" x2="123.007" y2="220.511" gradientUnits="userSpaceOnUse">
<stop stop-color="#020000"/>
<stop offset="1" stop-color="#5F626B"/>
</linearGradient>
<linearGradient id="paint24_linear" x1="127.349" y1="225.734" x2="125.843" y2="225.755" gradientUnits="userSpaceOnUse">
<stop stop-color="#020000"/>
<stop offset="1" stop-color="#5F626B"/>
</linearGradient>
<linearGradient id="paint25_linear" x1="146.01" y1="214.335" x2="148.03" y2="214.481" gradientUnits="userSpaceOnUse">
<stop stop-color="#020000"/>
<stop offset="1" stop-color="#5F626B"/>
</linearGradient>
<linearGradient id="paint26_linear" x1="145.42" y1="220.434" x2="147.567" y2="220.511" gradientUnits="userSpaceOnUse">
<stop stop-color="#020000"/>
<stop offset="1" stop-color="#5F626B"/>
</linearGradient>
<linearGradient id="paint27_linear" x1="143.225" y1="225.734" x2="144.731" y2="225.755" gradientUnits="userSpaceOnUse">
<stop stop-color="#020000"/>
<stop offset="1" stop-color="#5F626B"/>
</linearGradient>
<linearGradient id="paint28_linear" x1="135.287" y1="178.479" x2="135.288" y2="221.178" gradientUnits="userSpaceOnUse">
<stop stop-color="#140C4F"/>
<stop offset="1" stop-color="white"/>
</linearGradient>
<clipPath id="clip0">
<rect x="79.8418" y="26.0281" width="110.896" height="232.66" fill="white"/>
</clipPath>
</defs>
</svg>
