<svg width="270" height="370" viewBox="0 0 270 370" fill="none" xmlns="http://www.w3.org/2000/svg">
<g clip-path="url(#clip0)">
<path fill-rule="evenodd" clip-rule="evenodd" d="M122.359 120.56C122.359 119.951 122.359 119.341 122.359 118.718C133.019 118.718 132.507 130.348 132.507 138.807C132.507 147.875 133.822 154.327 125.156 156.791C125.017 156.196 124.865 155.615 124.726 155.019C132.119 152.915 130.79 146.422 130.79 138.807C130.79 131.469 131.621 120.56 122.359 120.56Z" fill="url(#paint0_linear)"/>
<path fill-rule="evenodd" clip-rule="evenodd" d="M120.891 120.56V118.732C120.891 117.915 121.556 117.265 122.359 117.265H122.4C134.016 117.292 133.988 128.756 133.975 137.699V138.807C133.975 140.178 133.988 141.091 134.002 141.95C134.155 150.007 134.252 155.725 125.557 158.19C124.782 158.411 123.965 157.954 123.743 157.179C123.73 157.137 123.716 157.096 123.716 157.041L123.3 155.351C123.107 154.576 123.563 153.801 124.325 153.593C129.627 152.084 129.517 147.502 129.378 141.853C129.35 140.759 129.323 139.624 129.323 138.793L129.337 137.118C129.392 130.542 129.461 122.027 122.359 122.027C121.556 122.027 120.891 121.377 120.891 120.56ZM122.359 120.56C122.359 119.951 122.359 119.341 122.359 118.718C133.019 118.718 132.507 130.348 132.507 138.807C132.507 147.875 133.822 154.327 125.156 156.791C125.017 156.196 124.865 155.615 124.726 155.019C132.119 152.915 130.79 146.422 130.79 138.807C130.79 131.469 131.621 120.56 122.359 120.56Z" fill="black"/>
<path fill-rule="evenodd" clip-rule="evenodd" d="M122.359 120.56C122.359 119.951 122.359 120.629 122.359 120.02C131.649 119.272 131.372 130.362 131.372 138.807C131.372 147.875 132.729 153.358 124.934 155.864C124.796 155.268 124.879 155.615 124.726 155.019C132.119 152.915 130.79 146.422 130.79 138.807C130.79 131.469 131.621 120.56 122.359 120.56Z" fill="#464854"/>
<path fill-rule="evenodd" clip-rule="evenodd" d="M122.359 119.466C122.137 119.466 122.137 119.84 122.359 119.84C122.927 119.84 123.494 119.867 124.048 119.923C124.325 119.923 124.269 119.563 124.089 119.563C123.508 119.494 122.94 119.466 122.359 119.466ZM126.138 155.158C125.931 155.227 126.055 155.573 126.277 155.49C127.163 155.088 128.603 154.438 129.364 153.815C129.572 153.579 129.281 153.399 129.17 153.51C128.243 154.175 127.149 154.701 126.138 155.158ZM130.347 152.292C130.223 152.43 130.444 152.707 130.624 152.513C130.943 152.07 131.233 151.309 131.372 150.783C131.441 150.575 131.123 150.437 131.04 150.686C130.873 151.267 130.666 151.793 130.347 152.292ZM131.344 148.914C131.344 149.218 131.69 149.149 131.69 148.955C131.842 147.751 131.884 146.491 131.912 145.272C131.912 145.023 131.566 145.037 131.566 145.259C131.538 146.477 131.496 147.723 131.344 148.914ZM131.607 143.431C131.607 143.68 131.953 143.667 131.953 143.431C131.953 142.822 131.953 142.199 131.967 141.59C131.967 141.341 131.621 141.354 131.621 141.59C131.607 142.213 131.607 142.822 131.607 143.431ZM131.621 139.762C131.621 139.956 131.87 140.012 131.953 139.845C131.967 139.818 131.967 139.79 131.967 139.762C131.967 138.544 131.981 137.312 131.953 136.08C131.953 135.844 131.607 135.844 131.607 136.093C131.635 137.312 131.621 138.544 131.621 139.762ZM131.538 134.266C131.538 134.501 131.884 134.487 131.884 134.252C131.856 133.643 131.815 133.02 131.773 132.411C131.773 132.175 131.427 132.203 131.427 132.438C131.483 133.048 131.51 133.657 131.538 134.266ZM131.247 130.625C131.247 130.819 131.593 130.86 131.593 130.583C131.483 129.406 131.233 128.091 130.97 126.956C130.887 126.693 130.569 126.845 130.638 127.053C130.901 128.147 131.136 129.476 131.247 130.625ZM130.126 125.295C130.195 125.516 130.513 125.391 130.444 125.17C130.237 124.588 130.001 124.021 129.724 123.481C129.627 123.273 129.323 123.439 129.42 123.647C129.697 124.201 129.918 124.713 130.126 125.295ZM128.478 122.18C128.658 122.373 128.88 122.083 128.741 121.93C127.897 120.906 127.025 120.338 125.82 119.909C125.612 119.84 125.502 120.186 125.723 120.255C126.748 120.574 127.758 121.321 128.478 122.18Z" fill="#B8BBC8"/>
<path fill-rule="evenodd" clip-rule="evenodd" d="M121.501 114.136V141.673C121.501 144.096 118.067 144.096 118.067 141.673V114.136C118.067 112.917 118.926 108.639 119.784 108.639C120.642 108.639 121.501 112.931 121.501 114.136Z" fill="url(#paint1_linear)"/>
<path fill-rule="evenodd" clip-rule="evenodd" d="M122.968 114.136V141.673C122.968 143.224 122.137 144.234 121.071 144.705C120.67 144.885 120.227 144.968 119.784 144.968C119.355 144.968 118.912 144.885 118.496 144.705C117.43 144.248 116.6 143.237 116.6 141.673V114.136C116.6 113.319 116.918 111.339 117.389 109.872C117.859 108.349 118.649 107.172 119.784 107.172C120.933 107.172 121.708 108.349 122.179 109.872C122.65 111.339 122.968 113.333 122.968 114.136ZM121.501 114.136V141.673C121.501 144.096 118.067 144.096 118.067 141.673V114.136C118.067 112.917 118.926 108.639 119.784 108.639C120.642 108.639 121.501 112.931 121.501 114.136Z" fill="black"/>
<path fill-rule="evenodd" clip-rule="evenodd" d="M121.501 114.136C121.501 123.315 121.501 132.494 121.501 141.673C121.501 144.096 118.067 144.096 118.067 141.673C119.369 142.462 119.784 138.267 119.784 108.639C120.642 108.639 121.501 112.931 121.501 114.136Z" fill="url(#paint2_linear)"/>
<path fill-rule="evenodd" clip-rule="evenodd" d="M119.632 108.695C119.632 108.515 119.95 108.515 119.95 108.695L119.964 143.487C119.964 143.583 119.881 143.667 119.798 143.667C119.701 143.667 119.632 143.583 119.632 143.487V108.695Z" fill="url(#paint3_linear)"/>
<path opacity="0.5" fill-rule="evenodd" clip-rule="evenodd" d="M118.067 122.456C118.067 121.127 119.341 118.788 119.784 118.788C120.227 118.788 121.501 121.072 121.501 122.456C121.501 123.952 121.501 125.461 121.501 126.956C121.501 125.516 120.172 123.287 119.784 123.287C119.41 123.287 118.067 125.516 118.067 126.956C118.067 125.461 118.067 123.952 118.067 122.456Z" fill="url(#paint4_linear)"/>
<path fill-rule="evenodd" clip-rule="evenodd" d="M114.329 145.051V155.324C114.329 156.293 115.021 157.082 115.921 157.151C117.001 157.235 117.846 158.024 117.846 158.979V161.153C117.846 162.011 115.797 164.503 114.744 165.804C114.467 166.151 114.329 166.538 114.329 166.995V193.272C114.329 194.574 115.838 195.46 117.236 194.975L123.605 192.774C124.422 192.483 124.934 191.832 124.934 191.071V139.569C124.934 137.935 122.65 137.118 121.321 138.267L114.952 143.75C114.537 144.11 114.329 144.539 114.329 145.051Z" fill="url(#paint5_linear)"/>
<path fill-rule="evenodd" clip-rule="evenodd" d="M114.744 165.804C114.467 166.15 114.329 166.538 114.329 166.995V193.272C114.329 194.574 115.838 195.46 117.236 194.975L123.605 192.774C124.422 192.483 124.934 191.832 124.934 191.071V139.569C124.934 137.935 122.65 137.118 121.321 138.267L114.952 143.75C114.537 144.11 114.329 144.539 114.329 145.051V155.324C114.329 156.293 115.021 157.082 115.921 157.151C117.001 157.234 117.846 158.024 117.846 158.979V161.152C117.846 162.011 115.797 164.489 114.744 165.804ZM112.862 155.324V145.051C112.862 144.58 112.958 144.137 113.166 143.708C113.36 143.307 113.637 142.947 113.997 142.628L120.351 137.146C121.071 136.523 121.944 136.246 122.788 136.246C123.314 136.246 123.84 136.357 124.325 136.564C124.823 136.772 125.266 137.09 125.626 137.506C126.111 138.06 126.402 138.752 126.402 139.555V191.057C126.402 191.777 126.166 192.442 125.723 192.995C125.322 193.508 124.754 193.909 124.076 194.144L117.707 196.346C117.278 196.498 116.849 196.567 116.433 196.567C115.741 196.567 115.063 196.373 114.495 196.027C114.454 196.014 114.426 195.986 114.384 195.972C113.761 195.57 113.277 194.989 113.028 194.269C112.917 193.937 112.848 193.605 112.848 193.258V166.995C112.848 166.621 112.917 166.247 113.041 165.874C113.166 165.514 113.346 165.181 113.595 164.877L113.803 164.614C114.772 163.409 116.364 161.429 116.364 161.139V158.965C116.364 158.91 116.323 158.854 116.267 158.785C116.157 158.674 115.99 158.605 115.797 158.591C114.952 158.522 114.204 158.121 113.678 157.511C113.166 156.944 112.862 156.168 112.862 155.324Z" fill="black"/>
<path opacity="0.5" fill-rule="evenodd" clip-rule="evenodd" d="M114.329 145.051C114.329 148.471 114.329 151.904 114.329 155.324C114.329 156.293 115.021 157.082 115.921 157.151C117.001 157.235 117.846 158.024 117.846 158.979C117.846 159.699 117.846 160.419 117.846 161.153C117.846 162.011 115.797 164.503 114.744 165.804C114.467 166.151 114.329 166.538 114.329 166.995C114.329 175.759 114.329 184.509 114.329 193.272C114.329 194.574 116.115 195.557 117.236 194.975C116.087 194.56 115.617 194.297 115.561 192.843C115.533 192.165 115.644 178.805 115.644 166.151C116.489 164.835 116.489 164.337 118.455 162.523C118.455 160.294 118.413 156.21 118.316 154.272C116.447 154.812 115.797 156.916 115.367 155.476C114.855 153.773 115.077 149.62 114.952 143.75C114.744 143.833 114.329 144.539 114.329 145.051Z" fill="url(#paint6_linear)"/>
<path opacity="0.5" fill-rule="evenodd" clip-rule="evenodd" d="M119.784 149.938C119.784 153.718 116.046 154.327 115.201 155.241C114.287 156.21 120.767 152.458 120.767 151.558C120.767 146.74 120.601 139.389 120.061 141.521C119.452 143.985 119.784 147.294 119.784 149.938Z" fill="url(#paint7_linear)"/>
<path opacity="0.5" fill-rule="evenodd" clip-rule="evenodd" d="M120.282 160.986C121.514 160.253 121.141 161.568 121.127 163.091C121.113 164.752 121.708 186.682 120.255 187.416C118.801 188.15 119.009 168.49 119.009 163.935C119.009 162.758 113.401 167.549 114.744 166.095C114.994 165.832 119.216 161.775 120.282 160.986Z" fill="url(#paint8_linear)"/>
<path fill-rule="evenodd" clip-rule="evenodd" d="M115.921 157.151C117.001 157.234 117.846 158.024 117.846 158.979C117.846 159.699 117.846 160.419 117.846 161.153C117.846 160.073 124.283 154.978 124.934 155.933C124.934 154.23 124.934 152.541 124.934 150.838C124.934 149.744 115.437 155.878 115.921 157.151Z" fill="url(#paint9_linear)"/>
<path fill-rule="evenodd" clip-rule="evenodd" d="M114.564 166.469C114.509 166.552 114.357 166.787 114.329 166.94C114.26 166.884 114.232 166.33 114.301 166.247C115.146 165.057 117.929 162.26 119.244 161.623C119.535 161.485 119.964 161.402 119.964 161.872V191.943C119.964 192.483 121.251 193.272 121.667 193.452C121.736 193.48 121.514 193.771 121.154 193.632C120.587 193.397 119.618 192.691 119.618 191.957V162.08C119.618 161.969 119.521 161.886 119.368 161.969C118.122 162.565 115.381 165.32 114.564 166.469ZM116.004 157.179C116.004 157.401 115.658 157.401 115.658 157.138C115.658 155.836 123.383 150.16 124.934 150.617C125.128 150.672 125.225 150.797 125.225 151.018C125.225 151.115 125.142 151.198 125.045 151.198C125.045 151.087 125.017 151.018 124.837 150.963C123.591 150.589 116.004 155.988 116.004 157.179ZM117.984 161.153C117.984 160.128 123.73 155.684 124.865 156.03C124.865 156.03 125.059 156.058 125.059 156.238C125.156 156.238 125.239 156.155 125.239 156.058C125.239 155.85 125.142 155.739 124.962 155.684C123.536 155.255 117.638 160.003 117.638 161.166C117.638 161.263 117.693 161.346 117.79 161.346C117.887 161.346 117.984 161.249 117.984 161.153Z" fill="#00045D"/>
<path fill-rule="evenodd" clip-rule="evenodd" d="M116.087 142.614C116.087 142.421 116.433 142.351 116.433 142.462V154.645C116.433 155.005 116.558 155.435 116.876 155.615C116.959 155.656 116.987 155.767 116.946 155.864C116.904 155.947 116.793 155.988 116.71 155.933C116.281 155.684 116.087 155.144 116.087 154.645V142.614ZM121.888 137.907C121.888 137.603 122.234 137.603 122.234 137.796V150.132C122.234 150.575 122.373 151.101 122.705 151.392C122.774 151.461 122.788 151.572 122.719 151.655C122.664 151.738 122.553 151.738 122.484 151.683C122.082 151.323 121.888 150.7 121.888 150.146V137.907Z" fill="#00045D"/>
<path fill-rule="evenodd" clip-rule="evenodd" d="M120.199 141.022C121.667 140.275 121.805 142.241 120.338 142.988C118.87 143.75 118.732 141.784 120.199 141.022Z" fill="#00045D"/>
<path fill-rule="evenodd" clip-rule="evenodd" d="M120.268 141.202C120.753 140.953 121.154 141.105 121.154 141.548C121.154 141.991 120.753 142.559 120.268 142.808C119.784 143.058 119.382 142.905 119.382 142.462C119.382 142.019 119.784 141.465 120.268 141.202Z" fill="url(#paint10_linear)"/>
<path fill-rule="evenodd" clip-rule="evenodd" d="M120.199 143.501C121.667 142.753 121.805 144.719 120.338 145.467C118.87 146.228 118.732 144.262 120.199 143.501Z" fill="#00045D"/>
<path fill-rule="evenodd" clip-rule="evenodd" d="M120.268 143.68C120.753 143.431 121.154 143.584 121.154 144.027C121.154 144.47 120.753 145.037 120.268 145.286C119.784 145.536 119.382 145.383 119.382 144.94C119.382 144.497 119.784 143.93 120.268 143.68Z" fill="url(#paint11_linear)"/>
<path fill-rule="evenodd" clip-rule="evenodd" d="M120.199 145.979C121.667 145.231 121.805 147.197 120.338 147.945C118.87 148.692 118.732 146.726 120.199 145.979Z" fill="#00045D"/>
<path fill-rule="evenodd" clip-rule="evenodd" d="M120.268 146.159C120.753 145.91 121.154 146.062 121.154 146.505C121.154 146.948 120.753 147.516 120.268 147.765C119.784 148.014 119.382 147.862 119.382 147.419C119.382 146.976 119.784 146.408 120.268 146.159Z" fill="url(#paint12_linear)"/>
<path fill-rule="evenodd" clip-rule="evenodd" d="M117.901 143.307C119.369 142.559 119.521 144.525 118.039 145.273C116.572 146.02 116.42 144.054 117.901 143.307Z" fill="#00045D"/>
<path fill-rule="evenodd" clip-rule="evenodd" d="M117.97 143.487C118.455 143.237 118.856 143.39 118.856 143.833C118.856 144.276 118.455 144.843 117.97 145.093C117.486 145.342 117.084 145.19 117.084 144.746C117.084 144.303 117.472 143.736 117.97 143.487Z" fill="url(#paint13_linear)"/>
<path fill-rule="evenodd" clip-rule="evenodd" d="M117.901 145.785C119.369 145.037 119.521 147.003 118.039 147.751C116.572 148.498 116.42 146.532 117.901 145.785Z" fill="#00045D"/>
<path fill-rule="evenodd" clip-rule="evenodd" d="M117.97 145.965C118.455 145.716 118.856 145.868 118.856 146.311C118.856 146.754 118.455 147.322 117.97 147.571C117.486 147.82 117.084 147.668 117.084 147.225C117.084 146.782 117.472 146.214 117.97 145.965Z" fill="url(#paint14_linear)"/>
<path fill-rule="evenodd" clip-rule="evenodd" d="M117.901 148.263C119.369 147.516 119.521 149.481 118.039 150.229C116.572 150.977 116.42 149.011 117.901 148.263Z" fill="#00045D"/>
<path fill-rule="evenodd" clip-rule="evenodd" d="M117.97 148.443C118.455 148.194 118.856 148.346 118.856 148.789C118.856 149.232 118.455 149.8 117.97 150.049C117.486 150.298 117.084 150.146 117.084 149.703C117.07 149.26 117.472 148.692 117.97 148.443Z" fill="url(#paint15_linear)"/>
<path fill-rule="evenodd" clip-rule="evenodd" d="M115.437 174.623L117.859 172.99C118.302 172.713 118.704 173.087 118.704 173.599V187.928C118.704 188.316 118.51 188.773 118.206 188.98L115.783 190.614C115.34 190.891 114.938 190.517 114.938 190.005V175.676C114.924 175.302 115.132 174.831 115.437 174.623ZM115.617 174.928C115.423 175.053 115.27 175.385 115.27 175.676V190.005C115.27 190.282 115.423 190.42 115.617 190.282L118.012 188.662C118.206 188.537 118.358 188.205 118.358 187.914V173.599C118.358 173.322 118.206 173.184 118.012 173.322L115.617 174.928Z" fill="#00045D"/>
<path fill-rule="evenodd" clip-rule="evenodd" d="M111.726 173.017C111.934 172.547 112.543 171.605 113.138 171.951L115.215 173.585L117.624 174.471C118.219 174.803 117.915 175.925 117.707 176.382C117.499 176.852 116.89 177.794 116.295 177.448L114.218 175.814L111.809 174.928C111.214 174.596 111.519 173.474 111.726 173.017Z" fill="#00045D"/>
<path fill-rule="evenodd" clip-rule="evenodd" d="M111.948 173.142C112.086 172.837 112.612 171.938 113.041 172.173L115.104 173.834L117.527 174.679C117.818 174.845 117.804 175.537 117.499 176.243C117.361 176.548 116.835 177.448 116.406 177.212L114.343 175.551L111.92 174.707C111.615 174.54 111.629 173.834 111.948 173.142Z" fill="url(#paint16_linear)"/>
<path opacity="0.5" fill-rule="evenodd" clip-rule="evenodd" d="M111.948 173.142C111.726 173.931 111.768 174.706 112.765 174.596L114.841 175.246L116.876 177.102C116.696 177.24 116.53 177.282 116.406 177.212L114.343 175.551L111.92 174.706C111.615 174.54 111.629 173.834 111.948 173.142Z" fill="url(#paint17_linear)"/>
<path opacity="0.5" fill-rule="evenodd" clip-rule="evenodd" d="M111.948 173.142C112.363 172.464 112.945 172.034 113.471 172.99L115.187 174.457L117.735 175.177C117.721 174.942 117.652 174.762 117.527 174.679L115.104 173.834L113.041 172.173C112.751 172.007 112.252 172.45 111.948 173.142Z" fill="url(#paint18_linear)"/>
<path fill-rule="evenodd" clip-rule="evenodd" d="M111.726 173.017C111.92 172.588 112.529 171.605 113.138 171.951C113.734 172.284 113.429 173.405 113.221 173.862C113.028 174.291 112.418 175.274 111.809 174.928C111.214 174.596 111.519 173.474 111.726 173.017ZM111.948 173.142C111.643 173.834 111.629 174.54 111.92 174.706C112.211 174.872 112.695 174.443 113.014 173.737C113.318 173.045 113.332 172.339 113.041 172.173C112.751 172.007 112.252 172.45 111.948 173.142Z" fill="#00045D"/>
<path fill-rule="evenodd" clip-rule="evenodd" d="M114.454 175.8C114.398 175.828 114.315 175.814 114.287 175.745C114.246 175.676 114.274 175.606 114.329 175.565C114.786 175.288 115.229 174.388 115.118 173.807C115.104 173.737 115.146 173.668 115.215 173.654C115.284 173.64 115.353 173.696 115.353 173.765C115.478 174.471 114.994 175.482 114.454 175.8Z" fill="#00045D"/>
<path fill-rule="evenodd" clip-rule="evenodd" d="M117.029 176.755C117.167 176.866 117.029 177.074 116.89 176.963L116.364 176.548C116.226 176.437 116.364 176.229 116.503 176.34L117.029 176.755ZM117.652 175.163C117.804 175.219 117.749 175.468 117.583 175.413L116.973 175.191C116.821 175.136 116.876 174.886 117.043 174.942L117.652 175.163Z" fill="url(#paint19_linear)"/>
<path fill-rule="evenodd" clip-rule="evenodd" d="M111.726 176.686C111.934 176.216 112.543 175.274 113.138 175.62L115.215 177.254L117.624 178.14C118.219 178.472 117.915 179.594 117.707 180.051C117.499 180.521 116.89 181.463 116.295 181.117L114.218 179.483L111.809 178.597C111.214 178.265 111.519 177.157 111.726 176.686Z" fill="#00045D"/>
<path fill-rule="evenodd" clip-rule="evenodd" d="M111.948 176.811C112.086 176.506 112.612 175.606 113.041 175.842L115.104 177.503L117.527 178.348C117.818 178.514 117.804 179.206 117.499 179.912C117.361 180.217 116.835 181.117 116.406 180.881L114.343 179.22L111.92 178.375C111.615 178.209 111.629 177.517 111.948 176.811Z" fill="url(#paint20_linear)"/>
<path opacity="0.5" fill-rule="evenodd" clip-rule="evenodd" d="M111.948 176.811C111.726 177.6 111.768 178.375 112.765 178.265L114.841 178.915L116.876 180.77C116.696 180.909 116.53 180.95 116.406 180.881L114.343 179.22L111.92 178.375C111.615 178.209 111.629 177.517 111.948 176.811Z" fill="url(#paint21_linear)"/>
<path opacity="0.5" fill-rule="evenodd" clip-rule="evenodd" d="M111.948 176.811C112.363 176.133 112.945 175.703 113.471 176.659L115.187 178.126L117.735 178.846C117.721 178.611 117.652 178.431 117.527 178.348L115.104 177.503L113.041 175.842C112.751 175.69 112.252 176.119 111.948 176.811Z" fill="url(#paint22_linear)"/>
<path fill-rule="evenodd" clip-rule="evenodd" d="M111.726 176.686C111.92 176.257 112.529 175.274 113.138 175.62C113.734 175.952 113.429 177.074 113.221 177.531C113.028 177.96 112.418 178.943 111.809 178.597C111.214 178.265 111.519 177.157 111.726 176.686ZM111.948 176.811C111.643 177.503 111.629 178.209 111.92 178.375C112.211 178.541 112.695 178.112 113.014 177.406C113.318 176.714 113.332 176.008 113.041 175.842C112.751 175.689 112.252 176.119 111.948 176.811Z" fill="#00045D"/>
<path fill-rule="evenodd" clip-rule="evenodd" d="M114.454 179.483C114.398 179.511 114.315 179.497 114.287 179.428C114.246 179.358 114.274 179.289 114.329 179.248C114.786 178.971 115.229 178.071 115.118 177.489C115.104 177.42 115.146 177.351 115.215 177.337C115.284 177.323 115.353 177.379 115.353 177.448C115.478 178.14 114.994 179.151 114.454 179.483Z" fill="#00045D"/>
<path fill-rule="evenodd" clip-rule="evenodd" d="M117.029 180.424C117.167 180.535 117.029 180.743 116.89 180.632L116.364 180.217C116.226 180.106 116.364 179.898 116.503 180.009L117.029 180.424ZM117.652 178.832C117.804 178.888 117.749 179.137 117.583 179.081L116.973 178.86C116.821 178.805 116.876 178.555 117.043 178.611L117.652 178.832Z" fill="url(#paint23_linear)"/>
<path fill-rule="evenodd" clip-rule="evenodd" d="M111.726 180.355C111.934 179.884 112.543 178.943 113.138 179.289L115.215 180.923L117.624 181.809C118.219 182.141 117.915 183.263 117.707 183.719C117.499 184.19 116.89 185.132 116.295 184.785L114.218 183.152L111.809 182.266C111.214 181.933 111.519 180.826 111.726 180.355Z" fill="#00045D"/>
<path fill-rule="evenodd" clip-rule="evenodd" d="M111.948 180.48C112.086 180.175 112.612 179.275 113.041 179.511L115.104 181.172L117.527 182.017C117.818 182.183 117.804 182.875 117.499 183.581C117.361 183.886 116.835 184.786 116.406 184.55L114.343 182.889L111.92 182.044C111.615 181.878 111.629 181.186 111.948 180.48Z" fill="url(#paint24_linear)"/>
<path opacity="0.5" fill-rule="evenodd" clip-rule="evenodd" d="M111.948 180.48C111.726 181.269 111.768 182.044 112.765 181.933L114.841 182.584L116.876 184.439C116.696 184.578 116.53 184.619 116.406 184.55L114.343 182.889L111.92 182.044C111.615 181.878 111.629 181.186 111.948 180.48Z" fill="url(#paint25_linear)"/>
<path opacity="0.5" fill-rule="evenodd" clip-rule="evenodd" d="M111.948 180.48C112.363 179.801 112.945 179.372 113.471 180.327L115.187 181.795L117.735 182.515C117.721 182.28 117.652 182.1 117.527 182.017L115.104 181.172L113.041 179.511C112.751 179.358 112.252 179.788 111.948 180.48Z" fill="url(#paint26_linear)"/>
<path fill-rule="evenodd" clip-rule="evenodd" d="M111.726 180.355C111.92 179.926 112.529 178.943 113.138 179.289C113.734 179.621 113.429 180.743 113.221 181.2C113.028 181.629 112.418 182.612 111.809 182.266C111.214 181.933 111.519 180.826 111.726 180.355ZM111.948 180.48C111.643 181.172 111.629 181.878 111.92 182.044C112.211 182.21 112.695 181.781 113.014 181.075C113.318 180.383 113.332 179.677 113.041 179.511C112.751 179.358 112.252 179.787 111.948 180.48Z" fill="#00045D"/>
<path fill-rule="evenodd" clip-rule="evenodd" d="M114.454 183.152C114.398 183.18 114.315 183.166 114.287 183.096C114.246 183.027 114.274 182.958 114.329 182.916C114.786 182.64 115.229 181.74 115.118 181.158C115.104 181.089 115.146 181.02 115.215 181.006C115.284 180.992 115.353 181.047 115.353 181.117C115.478 181.809 114.994 182.82 114.454 183.152Z" fill="#00045D"/>
<path fill-rule="evenodd" clip-rule="evenodd" d="M117.029 184.107C117.167 184.218 117.029 184.426 116.89 184.315L116.364 183.899C116.226 183.789 116.364 183.581 116.503 183.692L117.029 184.107ZM117.652 182.515C117.804 182.57 117.749 182.82 117.583 182.764L116.973 182.543C116.821 182.487 116.876 182.238 117.043 182.293L117.652 182.515Z" fill="url(#paint27_linear)"/>
<path fill-rule="evenodd" clip-rule="evenodd" d="M111.726 184.024C111.934 183.553 112.543 182.612 113.138 182.958L115.215 184.592L117.624 185.478C118.219 185.81 117.915 186.931 117.707 187.388C117.499 187.859 116.89 188.8 116.295 188.454L114.218 186.821L111.809 185.935C111.214 185.616 111.519 184.495 111.726 184.024Z" fill="#00045D"/>
<path fill-rule="evenodd" clip-rule="evenodd" d="M111.948 184.162C112.086 183.858 112.612 182.958 113.041 183.193L115.104 184.855L117.527 185.699C117.818 185.865 117.804 186.558 117.499 187.264C117.361 187.568 116.835 188.468 116.406 188.233L114.343 186.571L111.92 185.727C111.615 185.547 111.629 184.855 111.948 184.162Z" fill="url(#paint28_linear)"/>
<path opacity="0.5" fill-rule="evenodd" clip-rule="evenodd" d="M111.948 184.162C111.726 184.952 111.768 185.727 112.765 185.616L114.841 186.267L116.876 188.122C116.696 188.261 116.53 188.302 116.406 188.233L114.343 186.571L111.92 185.727C111.615 185.547 111.629 184.855 111.948 184.162Z" fill="url(#paint29_linear)"/>
<path opacity="0.5" fill-rule="evenodd" clip-rule="evenodd" d="M111.948 184.162C112.363 183.484 112.945 183.055 113.471 184.01L115.187 185.478L117.735 186.198C117.721 185.962 117.652 185.782 117.527 185.699L115.104 184.855L113.041 183.193C112.751 183.027 112.252 183.456 111.948 184.162Z" fill="url(#paint30_linear)"/>
<path fill-rule="evenodd" clip-rule="evenodd" d="M111.726 184.024C111.92 183.595 112.529 182.612 113.138 182.958C113.734 183.29 113.429 184.412 113.221 184.868C113.028 185.298 112.418 186.281 111.809 185.934C111.214 185.616 111.519 184.495 111.726 184.024ZM111.948 184.162C111.643 184.855 111.629 185.561 111.92 185.727C112.211 185.893 112.695 185.464 113.014 184.758C113.318 184.065 113.332 183.359 113.041 183.193C112.751 183.027 112.252 183.456 111.948 184.162Z" fill="#00045D"/>
<path fill-rule="evenodd" clip-rule="evenodd" d="M114.454 186.821C114.398 186.848 114.315 186.834 114.287 186.765C114.246 186.696 114.274 186.627 114.329 186.585C114.786 186.308 115.229 185.408 115.118 184.827C115.104 184.758 115.146 184.688 115.215 184.675C115.284 184.661 115.353 184.716 115.353 184.785C115.478 185.491 114.994 186.488 114.454 186.821Z" fill="#00045D"/>
<path fill-rule="evenodd" clip-rule="evenodd" d="M117.029 187.776C117.167 187.887 117.029 188.094 116.89 187.984L116.364 187.568C116.226 187.457 116.364 187.25 116.503 187.361L117.029 187.776ZM117.652 186.184C117.804 186.239 117.749 186.488 117.583 186.433L116.973 186.211C116.821 186.156 116.876 185.907 117.043 185.962L117.652 186.184Z" fill="url(#paint31_linear)"/>
<path fill-rule="evenodd" clip-rule="evenodd" d="M118.109 163.866C118.316 163.728 118.51 163.658 118.676 163.645H118.69C118.773 163.645 118.87 163.658 118.939 163.686C119.036 163.728 119.119 163.797 119.175 163.894C119.216 163.977 119.244 164.06 119.258 164.171V164.184C119.258 164.392 119.175 164.628 119.022 164.849C118.884 165.043 118.69 165.237 118.482 165.375C118.275 165.514 118.081 165.583 117.915 165.597H117.901C117.804 165.597 117.721 165.583 117.652 165.555C117.555 165.514 117.472 165.444 117.416 165.347C117.375 165.264 117.347 165.181 117.333 165.071V165.057C117.333 164.849 117.416 164.614 117.569 164.392C117.707 164.198 117.901 164.004 118.109 163.866Z" fill="#00045D"/>
<path fill-rule="evenodd" clip-rule="evenodd" d="M118.275 164.143C118.635 163.908 118.925 163.922 118.939 164.185C118.953 164.448 118.676 164.849 118.316 165.098C117.956 165.334 117.666 165.32 117.652 165.057C117.638 164.78 117.915 164.378 118.275 164.143Z" fill="url(#paint32_linear)"/>
<path fill-rule="evenodd" clip-rule="evenodd" d="M118.109 167.535C118.316 167.397 118.51 167.327 118.676 167.313H118.69C118.773 167.313 118.87 167.327 118.939 167.355C119.036 167.397 119.119 167.466 119.175 167.563C119.216 167.646 119.244 167.729 119.258 167.84V167.853C119.258 168.061 119.175 168.296 119.022 168.518C118.884 168.712 118.69 168.906 118.482 169.044C118.275 169.183 118.081 169.252 117.915 169.266H117.901C117.804 169.266 117.721 169.252 117.652 169.224C117.555 169.183 117.472 169.113 117.416 169.016C117.375 168.933 117.347 168.85 117.333 168.739V168.726C117.333 168.518 117.416 168.283 117.569 168.061C117.707 167.867 117.901 167.673 118.109 167.535Z" fill="#00045D"/>
<path fill-rule="evenodd" clip-rule="evenodd" d="M118.275 167.812C118.635 167.577 118.925 167.59 118.939 167.854C118.953 168.117 118.676 168.518 118.316 168.767C117.956 169.003 117.666 168.989 117.652 168.726C117.638 168.463 117.915 168.047 118.275 167.812Z" fill="url(#paint33_linear)"/>
<path opacity="0.5" fill-rule="evenodd" clip-rule="evenodd" d="M117.984 194.712C118.745 194.449 122.83 193.037 123.591 192.774C124.408 192.483 124.92 191.832 124.92 191.071C124.92 173.904 124.92 156.736 124.92 139.569C124.92 137.935 122.636 137.118 121.307 138.267C121.307 142.947 121.307 147.612 121.307 152.292C121.307 153.081 120.019 153.427 118.496 154.895C118.496 156.819 118.496 158.647 118.496 160.114C120.393 158.342 121.307 157.124 121.307 161.803C121.307 167.438 121.307 183.415 121.307 189.05C121.321 193.992 119.991 193.078 117.984 194.712Z" fill="url(#paint34_linear)"/>
<path fill-rule="evenodd" clip-rule="evenodd" d="M148.179 120.546C148.179 119.937 148.179 119.328 148.179 118.705C137.519 118.705 138.031 130.334 138.031 138.793C138.031 147.862 136.716 154.313 145.383 156.778C145.521 156.182 145.673 155.601 145.812 155.005C138.419 152.901 139.748 146.408 139.748 138.793C139.748 131.442 138.931 120.546 148.179 120.546Z" fill="url(#paint35_linear)"/>
<path fill-rule="evenodd" clip-rule="evenodd" d="M149.661 118.705V120.546C149.661 121.363 148.996 122.013 148.193 122.013C141.091 122.013 141.16 130.542 141.215 137.104L141.229 138.779C141.229 139.61 141.202 140.745 141.174 141.839C141.035 147.474 140.925 152.07 146.227 153.579C146.989 153.787 147.432 154.576 147.252 155.338L146.836 157.027C146.823 157.068 146.823 157.11 146.809 157.165C146.587 157.941 145.77 158.397 144.995 158.176C136.301 155.698 136.397 149.994 136.55 141.936C136.564 141.078 136.577 140.164 136.577 138.793V137.686C136.55 128.728 136.522 117.279 148.152 117.237H148.193C148.996 117.237 149.661 117.902 149.661 118.705ZM148.179 120.546C148.179 119.937 148.179 119.328 148.179 118.705C137.519 118.705 138.031 130.334 138.031 138.793C138.031 147.862 136.716 154.313 145.383 156.778C145.521 156.182 145.673 155.601 145.812 155.005C138.419 152.901 139.748 146.408 139.748 138.793C139.748 131.442 138.931 120.546 148.179 120.546Z" fill="black"/>
<path fill-rule="evenodd" clip-rule="evenodd" d="M148.179 120.546C148.179 119.937 148.179 120.615 148.179 120.006C138.89 119.258 139.166 130.348 139.166 138.793C139.166 147.862 137.81 153.344 145.604 155.85C145.743 155.255 145.66 155.601 145.812 155.005C138.419 152.901 139.748 146.408 139.748 138.793C139.748 131.442 138.931 120.546 148.179 120.546Z" fill="#464854"/>
<path fill-rule="evenodd" clip-rule="evenodd" d="M148.179 119.438C148.401 119.438 148.401 119.812 148.179 119.812C147.612 119.812 147.044 119.84 146.49 119.895C146.213 119.895 146.269 119.535 146.449 119.535C147.044 119.466 147.598 119.452 148.179 119.438ZM144.414 155.13C144.621 155.199 144.497 155.545 144.275 155.462C143.389 155.061 141.949 154.41 141.188 153.787C140.98 153.552 141.271 153.372 141.382 153.483C142.309 154.161 143.403 154.673 144.414 155.13ZM140.205 152.278C140.329 152.416 140.108 152.693 139.928 152.5C139.609 152.057 139.319 151.295 139.18 150.769C139.111 150.561 139.429 150.423 139.513 150.672C139.679 151.254 139.872 151.78 140.205 152.278ZM139.194 148.9C139.194 149.205 138.848 149.135 138.848 148.941C138.696 147.737 138.654 146.477 138.626 145.259C138.626 145.01 138.973 145.023 138.973 145.245C139.014 146.449 139.042 147.695 139.194 148.9ZM138.945 143.417C138.945 143.667 138.599 143.653 138.599 143.417C138.599 142.808 138.599 142.185 138.585 141.576C138.585 141.327 138.931 141.341 138.931 141.576C138.931 142.185 138.931 142.808 138.945 143.417ZM138.917 139.749C138.917 139.942 138.668 139.998 138.585 139.832C138.571 139.804 138.571 139.776 138.571 139.749C138.571 138.53 138.557 137.298 138.585 136.066C138.585 135.831 138.931 135.831 138.931 136.08C138.917 137.298 138.917 138.53 138.917 139.749ZM139 134.252C139 134.488 138.654 134.474 138.654 134.238C138.682 133.629 138.723 133.006 138.765 132.397C138.765 132.162 139.111 132.189 139.111 132.425C139.069 133.02 139.028 133.643 139 134.252ZM139.291 130.597C139.291 130.791 138.945 130.833 138.945 130.556C139.056 129.379 139.305 128.064 139.568 126.928C139.651 126.665 139.969 126.818 139.9 127.025C139.651 128.133 139.402 129.462 139.291 130.597ZM140.426 125.281C140.357 125.502 140.039 125.378 140.108 125.156C140.316 124.575 140.551 124.007 140.828 123.467C140.925 123.259 141.229 123.426 141.132 123.633C140.855 124.173 140.62 124.699 140.426 125.281ZM142.074 122.166C141.894 122.36 141.672 122.069 141.811 121.917C142.655 120.892 143.528 120.324 144.732 119.895C144.94 119.826 145.05 120.172 144.829 120.241C143.791 120.56 142.794 121.294 142.074 122.166Z" fill="#B8BBC8"/>
<path fill-rule="evenodd" clip-rule="evenodd" d="M149.038 114.122V141.659C149.038 144.082 152.471 144.082 152.471 141.659V114.122C152.471 112.904 151.613 108.626 150.754 108.626C149.896 108.626 149.038 112.904 149.038 114.122Z" fill="url(#paint36_linear)"/>
<path fill-rule="evenodd" clip-rule="evenodd" d="M149.038 114.122V141.659C149.038 144.082 152.471 144.082 152.471 141.659V114.122C152.471 112.904 151.613 108.626 150.754 108.626C149.896 108.626 149.038 112.904 149.038 114.122ZM147.57 141.659V114.122C147.57 113.305 147.889 111.325 148.359 109.858C148.83 108.335 149.619 107.158 150.754 107.158C151.904 107.158 152.679 108.335 153.15 109.858C153.606 111.325 153.939 113.305 153.939 114.122V141.659C153.939 143.21 153.108 144.22 152.042 144.691C151.641 144.871 151.198 144.954 150.768 144.954C150.339 144.954 149.896 144.871 149.481 144.691C148.415 144.22 147.57 143.21 147.57 141.659Z" fill="black"/>
<path fill-rule="evenodd" clip-rule="evenodd" d="M149.038 114.122C149.038 123.301 149.038 132.48 149.038 141.659C149.038 144.082 152.471 144.082 152.471 141.659C151.17 142.448 150.754 138.253 150.754 108.626C149.896 108.626 149.038 112.904 149.038 114.122Z" fill="url(#paint37_linear)"/>
<path fill-rule="evenodd" clip-rule="evenodd" d="M150.921 108.681C150.921 108.501 150.602 108.501 150.602 108.681L150.588 143.473C150.588 143.57 150.671 143.653 150.755 143.653C150.851 143.653 150.921 143.57 150.921 143.473V108.681Z" fill="url(#paint38_linear)"/>
<path opacity="0.5" fill-rule="evenodd" clip-rule="evenodd" d="M152.471 122.443C152.471 121.114 151.198 118.774 150.754 118.774C150.311 118.774 149.038 121.058 149.038 122.443C149.038 123.938 149.038 125.447 149.038 126.942C149.038 125.502 150.367 123.273 150.754 123.273C151.128 123.273 152.471 125.502 152.471 126.942C152.471 125.433 152.471 123.938 152.471 122.443Z" fill="url(#paint39_linear)"/>
<path fill-rule="evenodd" clip-rule="evenodd" d="M156.223 145.023V155.296C156.223 156.265 155.531 157.054 154.631 157.124C153.551 157.207 152.707 157.996 152.707 158.951V161.125C152.707 161.983 154.756 164.475 155.808 165.777C156.085 166.123 156.223 166.51 156.223 166.967V193.245C156.223 194.546 154.714 195.432 153.316 194.947L146.947 192.746C146.13 192.455 145.618 191.805 145.618 191.043V139.541C145.618 137.907 147.902 137.09 149.232 138.24L155.6 143.722C156.015 144.082 156.223 144.525 156.223 145.023Z" fill="url(#paint40_linear)"/>
<path fill-rule="evenodd" clip-rule="evenodd" d="M157.691 145.023V155.296C157.691 156.141 157.386 156.916 156.874 157.497C156.348 158.107 155.6 158.522 154.756 158.577C154.562 158.591 154.396 158.66 154.285 158.771C154.229 158.827 154.188 158.896 154.188 158.951V161.125C154.188 161.416 155.78 163.395 156.749 164.6L156.957 164.863C157.206 165.167 157.386 165.5 157.511 165.86C157.635 166.22 157.705 166.593 157.705 166.981V193.258C157.705 193.605 157.649 193.937 157.525 194.269C157.275 194.975 156.791 195.57 156.168 195.972C156.14 196 156.099 196.013 156.057 196.027C155.489 196.373 154.811 196.567 154.119 196.567C153.717 196.567 153.274 196.498 152.845 196.346L146.476 194.144C145.798 193.909 145.23 193.508 144.829 192.995C144.4 192.442 144.151 191.777 144.151 191.057V139.555C144.151 138.752 144.441 138.06 144.926 137.506C145.272 137.104 145.729 136.786 146.227 136.564C146.712 136.357 147.238 136.246 147.764 136.246C148.609 136.246 149.481 136.523 150.201 137.146L156.555 142.628C156.915 142.933 157.192 143.293 157.386 143.708C157.58 144.11 157.691 144.567 157.691 145.023ZM156.223 145.023V155.296C156.223 156.265 155.531 157.054 154.631 157.124C153.551 157.207 152.707 157.996 152.707 158.951V161.125C152.707 161.983 154.756 164.475 155.808 165.777C156.085 166.123 156.223 166.51 156.223 166.967V193.245C156.223 194.546 154.714 195.432 153.316 194.947L146.947 192.746C146.13 192.455 145.618 191.805 145.618 191.043V139.541C145.618 137.907 147.902 137.09 149.232 138.239L155.6 143.722C156.015 144.082 156.223 144.525 156.223 145.023Z" fill="black"/>
<path opacity="0.5" fill-rule="evenodd" clip-rule="evenodd" d="M156.223 145.023C156.223 148.443 156.223 151.877 156.223 155.296C156.223 156.265 155.531 157.055 154.631 157.124C153.551 157.207 152.707 157.996 152.707 158.951C152.707 159.671 152.707 160.391 152.707 161.125C152.707 161.983 154.756 164.475 155.808 165.777C156.085 166.123 156.223 166.51 156.223 166.967C156.223 175.731 156.223 184.481 156.223 193.245C156.223 194.546 154.437 195.529 153.316 194.947C154.465 194.532 154.936 194.269 154.991 192.815C155.019 192.137 154.908 178.777 154.908 166.123C154.063 164.808 154.063 164.309 152.097 162.495C152.097 160.266 152.139 156.182 152.236 154.244C154.105 154.784 154.756 156.888 155.185 155.449C155.697 153.746 155.476 149.592 155.6 143.722C155.808 143.819 156.223 144.525 156.223 145.023Z" fill="url(#paint41_linear)"/>
<path opacity="0.5" fill-rule="evenodd" clip-rule="evenodd" d="M150.754 149.924C150.754 153.704 154.492 154.313 155.337 155.227C156.251 156.196 149.771 152.444 149.771 151.544C149.771 146.726 149.938 139.375 150.477 141.507C151.087 143.957 150.754 147.28 150.754 149.924Z" fill="url(#paint42_linear)"/>
<path opacity="0.5" fill-rule="evenodd" clip-rule="evenodd" d="M150.27 160.959C149.038 160.225 149.411 161.54 149.425 163.063C149.439 164.724 148.844 186.654 150.298 187.388C151.751 188.122 151.544 168.463 151.544 163.908C151.544 162.731 157.151 167.521 155.808 166.067C155.559 165.818 151.336 161.748 150.27 160.959Z" fill="url(#paint43_linear)"/>
<path fill-rule="evenodd" clip-rule="evenodd" d="M154.631 157.138C153.551 157.221 152.707 158.01 152.707 158.965C152.707 159.685 152.707 160.405 152.707 161.139C152.707 160.059 146.269 154.964 145.618 155.919C145.618 154.216 145.618 152.527 145.618 150.824C145.618 149.717 155.116 155.864 154.631 157.138Z" fill="url(#paint44_linear)"/>
<path fill-rule="evenodd" clip-rule="evenodd" d="M155.974 166.441C156.029 166.524 156.182 166.76 156.209 166.912C156.278 166.857 156.306 166.303 156.237 166.22C155.392 165.029 152.61 162.232 151.294 161.596C151.004 161.457 150.574 161.374 150.574 161.845V191.915C150.574 192.455 149.287 193.245 148.872 193.425C148.802 193.452 149.024 193.743 149.384 193.604C149.951 193.369 150.921 192.663 150.921 191.929V162.052C150.921 161.942 151.017 161.859 151.17 161.942C152.43 162.551 155.171 165.306 155.974 166.441ZM154.534 157.151C154.534 157.373 154.88 157.373 154.88 157.11C154.88 155.808 147.155 150.132 145.604 150.589C145.41 150.644 145.313 150.769 145.313 150.99C145.313 151.087 145.397 151.17 145.493 151.17C145.493 151.06 145.521 150.99 145.701 150.935C146.961 150.575 154.534 155.961 154.534 157.151ZM152.568 161.125C152.568 160.1 146.809 155.656 145.687 156.002C145.687 156.002 145.493 156.03 145.493 156.21C145.397 156.21 145.313 156.127 145.313 156.03C145.313 155.822 145.41 155.712 145.59 155.656C147.016 155.227 152.914 159.976 152.914 161.139C152.914 161.236 152.859 161.319 152.762 161.319C152.665 161.305 152.568 161.236 152.568 161.125Z" fill="#00045D"/>
<path fill-rule="evenodd" clip-rule="evenodd" d="M154.451 142.601C154.451 142.407 154.105 142.338 154.105 142.448V154.632C154.105 154.992 153.98 155.421 153.662 155.601C153.579 155.642 153.551 155.753 153.593 155.85C153.634 155.933 153.745 155.975 153.828 155.919C154.257 155.67 154.451 155.13 154.451 154.632V142.601ZM148.664 137.893C148.664 137.589 148.318 137.589 148.318 137.783V150.118C148.318 150.561 148.179 151.087 147.847 151.378C147.778 151.447 147.764 151.558 147.833 151.641C147.889 151.724 147.999 151.724 148.069 151.669C148.47 151.309 148.664 150.686 148.664 150.132V137.893Z" fill="#00045D"/>
<path fill-rule="evenodd" clip-rule="evenodd" d="M150.339 141.008C148.872 140.261 148.733 142.227 150.201 142.974C151.668 143.722 151.82 141.756 150.339 141.008Z" fill="#00045D"/>
<path fill-rule="evenodd" clip-rule="evenodd" d="M150.27 141.188C149.785 140.939 149.384 141.091 149.384 141.535C149.384 141.978 149.785 142.545 150.27 142.794C150.754 143.044 151.156 142.891 151.156 142.448C151.17 142.005 150.768 141.438 150.27 141.188Z" fill="url(#paint45_linear)"/>
<path fill-rule="evenodd" clip-rule="evenodd" d="M150.339 143.487C148.872 142.739 148.733 144.705 150.201 145.453C151.668 146.2 151.82 144.234 150.339 143.487Z" fill="#00045D"/>
<path fill-rule="evenodd" clip-rule="evenodd" d="M150.27 143.667C149.785 143.418 149.384 143.57 149.384 144.013C149.384 144.456 149.785 145.024 150.27 145.273C150.754 145.522 151.156 145.37 151.156 144.927C151.17 144.484 150.768 143.916 150.27 143.667Z" fill="url(#paint46_linear)"/>
<path fill-rule="evenodd" clip-rule="evenodd" d="M150.339 145.951C148.872 145.204 148.733 147.169 150.201 147.917C151.668 148.679 151.82 146.713 150.339 145.951Z" fill="#00045D"/>
<path fill-rule="evenodd" clip-rule="evenodd" d="M150.27 146.145C149.785 145.896 149.384 146.048 149.384 146.491C149.384 146.934 149.785 147.502 150.27 147.751C150.754 148 151.156 147.848 151.156 147.405C151.17 146.962 150.768 146.394 150.27 146.145Z" fill="url(#paint47_linear)"/>
<path fill-rule="evenodd" clip-rule="evenodd" d="M152.651 143.279C151.184 142.531 151.031 144.497 152.513 145.245C153.98 146.006 154.119 144.04 152.651 143.279Z" fill="#00045D"/>
<path fill-rule="evenodd" clip-rule="evenodd" d="M152.582 143.473C152.097 143.224 151.696 143.376 151.696 143.819C151.696 144.262 152.097 144.83 152.582 145.079C153.066 145.328 153.468 145.176 153.468 144.733C153.468 144.29 153.066 143.722 152.582 143.473Z" fill="url(#paint48_linear)"/>
<path fill-rule="evenodd" clip-rule="evenodd" d="M152.651 145.757C151.184 145.01 151.031 146.975 152.513 147.723C153.98 148.485 154.119 146.519 152.651 145.757Z" fill="#00045D"/>
<path fill-rule="evenodd" clip-rule="evenodd" d="M152.582 145.951C152.097 145.702 151.696 145.854 151.696 146.297C151.696 146.74 152.097 147.308 152.582 147.557C153.066 147.806 153.468 147.654 153.468 147.211C153.468 146.754 153.066 146.2 152.582 145.951Z" fill="url(#paint49_linear)"/>
<path fill-rule="evenodd" clip-rule="evenodd" d="M152.651 148.235C151.184 147.488 151.031 149.454 152.513 150.201C153.98 150.963 154.119 148.997 152.651 148.235Z" fill="#00045D"/>
<path fill-rule="evenodd" clip-rule="evenodd" d="M152.582 148.415C152.097 148.166 151.696 148.319 151.696 148.762C151.696 149.205 152.097 149.772 152.582 150.021C153.066 150.271 153.468 150.118 153.468 149.675C153.468 149.232 153.066 148.678 152.582 148.415Z" fill="url(#paint50_linear)"/>
<path fill-rule="evenodd" clip-rule="evenodd" d="M155.116 174.61L152.693 172.976C152.25 172.699 151.848 173.073 151.848 173.585V187.914C151.848 188.302 152.042 188.759 152.347 188.967L154.769 190.6C155.212 190.877 155.614 190.503 155.614 189.991V175.662C155.614 175.274 155.42 174.817 155.116 174.61ZM154.936 174.914C155.129 175.039 155.282 175.371 155.282 175.662V189.977C155.282 190.254 155.129 190.393 154.936 190.254L152.527 188.648C152.333 188.523 152.18 188.191 152.18 187.9V173.571C152.18 173.294 152.333 173.156 152.527 173.294L154.936 174.914Z" fill="#00045D"/>
<path fill-rule="evenodd" clip-rule="evenodd" d="M158.826 173.004C158.618 172.533 158.009 171.591 157.414 171.938L155.337 173.571L152.928 174.457C152.333 174.79 152.637 175.911 152.845 176.368C153.053 176.839 153.662 177.78 154.257 177.434L156.334 175.8L158.743 174.914C159.338 174.582 159.034 173.46 158.826 173.004Z" fill="#00045D"/>
<path fill-rule="evenodd" clip-rule="evenodd" d="M158.605 173.128C158.466 172.824 157.94 171.924 157.511 172.159L155.448 173.82L153.025 174.665C152.734 174.831 152.748 175.523 153.053 176.229C153.191 176.534 153.717 177.434 154.147 177.199L156.209 175.537L158.632 174.693C158.923 174.513 158.909 173.82 158.605 173.128Z" fill="url(#paint51_linear)"/>
<path opacity="0.5" fill-rule="evenodd" clip-rule="evenodd" d="M158.605 173.128C158.826 173.917 158.784 174.693 157.788 174.582L155.711 175.233L153.676 177.088C153.856 177.226 154.022 177.268 154.147 177.199L156.209 175.537L158.632 174.693C158.923 174.513 158.909 173.82 158.605 173.128Z" fill="url(#paint52_linear)"/>
<path opacity="0.5" fill-rule="evenodd" clip-rule="evenodd" d="M158.604 173.128C158.189 172.45 157.608 172.021 157.082 172.976L155.365 174.443L152.817 175.163C152.831 174.928 152.9 174.748 153.025 174.665L155.448 173.82L157.511 172.159C157.801 171.993 158.286 172.422 158.604 173.128Z" fill="url(#paint53_linear)"/>
<path fill-rule="evenodd" clip-rule="evenodd" d="M158.826 173.004C158.632 172.574 158.023 171.591 157.414 171.938C156.818 172.27 157.123 173.391 157.331 173.848C157.525 174.277 158.134 175.26 158.743 174.914C159.338 174.582 159.034 173.46 158.826 173.004ZM158.604 173.128C158.909 173.82 158.923 174.527 158.632 174.693C158.341 174.859 157.857 174.43 157.538 173.724C157.234 173.031 157.22 172.325 157.511 172.159C157.801 171.993 158.286 172.422 158.604 173.128Z" fill="#00045D"/>
<path fill-rule="evenodd" clip-rule="evenodd" d="M156.099 175.786C156.154 175.814 156.237 175.8 156.265 175.731C156.306 175.662 156.279 175.593 156.223 175.551C155.766 175.274 155.323 174.374 155.434 173.793C155.448 173.724 155.406 173.654 155.337 173.64C155.268 173.627 155.199 173.682 155.185 173.751C155.074 174.457 155.545 175.468 156.099 175.786Z" fill="#00045D"/>
<path fill-rule="evenodd" clip-rule="evenodd" d="M153.523 176.742C153.385 176.852 153.523 177.06 153.662 176.949L154.188 176.534C154.326 176.423 154.188 176.216 154.05 176.326L153.523 176.742ZM152.9 175.15C152.748 175.205 152.804 175.454 152.97 175.399L153.579 175.177C153.731 175.122 153.676 174.873 153.51 174.928L152.9 175.15Z" fill="url(#paint54_linear)"/>
<path fill-rule="evenodd" clip-rule="evenodd" d="M158.826 176.672C158.618 176.202 158.009 175.26 157.414 175.606L155.337 177.24L152.928 178.126C152.333 178.458 152.637 179.58 152.845 180.037C153.053 180.507 153.662 181.449 154.257 181.103L156.334 179.469L158.743 178.583C159.338 178.251 159.034 177.129 158.826 176.672Z" fill="#00045D"/>
<path fill-rule="evenodd" clip-rule="evenodd" d="M158.605 176.797C158.466 176.492 157.94 175.592 157.511 175.828L155.448 177.489L153.025 178.334C152.734 178.5 152.748 179.192 153.053 179.898C153.191 180.203 153.717 181.103 154.147 180.867L156.209 179.206L158.632 178.361C158.923 178.195 158.909 177.489 158.605 176.797Z" fill="url(#paint55_linear)"/>
<path opacity="0.5" fill-rule="evenodd" clip-rule="evenodd" d="M158.605 176.797C158.826 177.586 158.784 178.362 157.788 178.251L155.711 178.902L153.676 180.757C153.856 180.895 154.022 180.937 154.147 180.867L156.209 179.206L158.632 178.362C158.923 178.195 158.909 177.489 158.605 176.797Z" fill="url(#paint56_linear)"/>
<path opacity="0.5" fill-rule="evenodd" clip-rule="evenodd" d="M158.604 176.797C158.189 176.119 157.608 175.689 157.082 176.645L155.365 178.112L152.817 178.832C152.831 178.597 152.9 178.417 153.025 178.334L155.448 177.489L157.511 175.828C157.801 175.662 158.286 176.091 158.604 176.797Z" fill="url(#paint57_linear)"/>
<path fill-rule="evenodd" clip-rule="evenodd" d="M158.826 176.672C158.632 176.243 158.023 175.26 157.414 175.606C156.818 175.939 157.123 177.06 157.331 177.517C157.525 177.946 158.134 178.929 158.743 178.583C159.338 178.251 159.034 177.129 158.826 176.672ZM158.604 176.797C158.909 177.489 158.923 178.195 158.632 178.361C158.341 178.528 157.857 178.098 157.538 177.392C157.234 176.7 157.22 175.994 157.511 175.828C157.801 175.662 158.286 176.091 158.604 176.797Z" fill="#00045D"/>
<path fill-rule="evenodd" clip-rule="evenodd" d="M156.099 179.455C156.154 179.483 156.237 179.469 156.265 179.4C156.306 179.331 156.279 179.261 156.223 179.22C155.766 178.943 155.323 178.043 155.434 177.462C155.448 177.392 155.406 177.323 155.337 177.309C155.268 177.295 155.199 177.351 155.185 177.42C155.074 178.126 155.545 179.137 156.099 179.455Z" fill="#00045D"/>
<path fill-rule="evenodd" clip-rule="evenodd" d="M153.523 180.41C153.385 180.521 153.523 180.729 153.662 180.618L154.188 180.203C154.326 180.092 154.188 179.884 154.05 179.995L153.523 180.41ZM152.9 178.818C152.748 178.874 152.804 179.123 152.97 179.068L153.579 178.846C153.731 178.791 153.676 178.541 153.51 178.597L152.9 178.818Z" fill="url(#paint58_linear)"/>
<path fill-rule="evenodd" clip-rule="evenodd" d="M158.826 180.341C158.618 179.871 158.009 178.929 157.414 179.275L155.337 180.909L152.928 181.795C152.333 182.127 152.637 183.249 152.845 183.706C153.053 184.176 153.662 185.118 154.257 184.772L156.334 183.138L158.743 182.252C159.338 181.92 159.034 180.798 158.826 180.341Z" fill="#00045D"/>
<path fill-rule="evenodd" clip-rule="evenodd" d="M158.605 180.466C158.466 180.161 157.94 179.261 157.511 179.497L155.448 181.158L153.025 182.003C152.734 182.169 152.748 182.861 153.053 183.567C153.191 183.872 153.717 184.772 154.147 184.536L156.209 182.875L158.632 182.03C158.923 181.864 158.909 181.158 158.605 180.466Z" fill="url(#paint59_linear)"/>
<path opacity="0.5" fill-rule="evenodd" clip-rule="evenodd" d="M158.605 180.466C158.826 181.255 158.784 182.03 157.788 181.92L155.711 182.57L153.676 184.426C153.856 184.564 154.022 184.606 154.147 184.536L156.209 182.875L158.632 182.03C158.923 181.864 158.909 181.158 158.605 180.466Z" fill="url(#paint60_linear)"/>
<path opacity="0.5" fill-rule="evenodd" clip-rule="evenodd" d="M158.604 180.466C158.189 179.788 157.608 179.358 157.082 180.314L155.365 181.781L152.817 182.501C152.831 182.266 152.9 182.086 153.025 182.003L155.448 181.158L157.511 179.497C157.801 179.331 158.286 179.774 158.604 180.466Z" fill="url(#paint61_linear)"/>
<path fill-rule="evenodd" clip-rule="evenodd" d="M158.826 180.341C158.632 179.912 158.023 178.929 157.414 179.275C156.818 179.608 157.123 180.729 157.331 181.186C157.525 181.615 158.134 182.598 158.743 182.252C159.338 181.92 159.034 180.798 158.826 180.341ZM158.604 180.466C158.909 181.158 158.923 181.864 158.632 182.03C158.341 182.197 157.857 181.767 157.538 181.061C157.234 180.369 157.22 179.663 157.511 179.497C157.801 179.331 158.286 179.774 158.604 180.466Z" fill="#00045D"/>
<path fill-rule="evenodd" clip-rule="evenodd" d="M156.099 183.124C156.154 183.152 156.237 183.138 156.265 183.069C156.306 183 156.279 182.93 156.223 182.889C155.766 182.612 155.323 181.712 155.434 181.13C155.448 181.061 155.406 180.992 155.337 180.978C155.268 180.964 155.199 181.02 155.185 181.089C155.074 181.795 155.545 182.806 156.099 183.124Z" fill="#00045D"/>
<path fill-rule="evenodd" clip-rule="evenodd" d="M153.523 184.079C153.385 184.19 153.523 184.398 153.662 184.287L154.188 183.872C154.326 183.761 154.188 183.553 154.05 183.664L153.523 184.079ZM152.9 182.487C152.748 182.543 152.804 182.792 152.97 182.737L153.579 182.515C153.731 182.46 153.676 182.21 153.51 182.266L152.9 182.487Z" fill="url(#paint62_linear)"/>
<path fill-rule="evenodd" clip-rule="evenodd" d="M158.826 184.01C158.618 183.539 158.009 182.598 157.414 182.944L155.337 184.578L152.928 185.464C152.333 185.796 152.637 186.918 152.845 187.374C153.053 187.845 153.662 188.787 154.257 188.44L156.334 186.807L158.743 185.921C159.338 185.588 159.034 184.481 158.826 184.01Z" fill="#00045D"/>
<path fill-rule="evenodd" clip-rule="evenodd" d="M158.605 184.135C158.466 183.83 157.94 182.93 157.511 183.166L155.448 184.827L153.025 185.672C152.734 185.838 152.748 186.53 153.053 187.236C153.191 187.541 153.717 188.44 154.147 188.205L156.209 186.544L158.632 185.699C158.923 185.533 158.909 184.841 158.605 184.135Z" fill="url(#paint63_linear)"/>
<path opacity="0.5" fill-rule="evenodd" clip-rule="evenodd" d="M158.605 184.135C158.826 184.924 158.784 185.699 157.788 185.588L155.711 186.239L153.676 188.094C153.856 188.233 154.022 188.274 154.147 188.205L156.209 186.544L158.632 185.699C158.923 185.533 158.909 184.841 158.605 184.135Z" fill="url(#paint64_linear)"/>
<path opacity="0.5" fill-rule="evenodd" clip-rule="evenodd" d="M158.604 184.135C158.189 183.456 157.608 183.027 157.082 183.983L155.365 185.45L152.817 186.17C152.831 185.935 152.9 185.755 153.025 185.672L155.448 184.827L157.511 183.166C157.801 183.013 158.286 183.443 158.604 184.135Z" fill="url(#paint65_linear)"/>
<path fill-rule="evenodd" clip-rule="evenodd" d="M158.826 184.01C158.632 183.581 158.023 182.598 157.414 182.944C156.818 183.276 157.123 184.398 157.331 184.855C157.525 185.284 158.134 186.267 158.743 185.921C159.338 185.589 159.034 184.481 158.826 184.01ZM158.604 184.135C158.909 184.827 158.923 185.533 158.632 185.699C158.341 185.865 157.857 185.436 157.538 184.73C157.234 184.038 157.22 183.332 157.511 183.166C157.801 183.013 158.286 183.443 158.604 184.135Z" fill="#00045D"/>
<path fill-rule="evenodd" clip-rule="evenodd" d="M156.099 186.807C156.154 186.834 156.237 186.821 156.265 186.751C156.306 186.682 156.279 186.613 156.223 186.571C155.766 186.294 155.323 185.395 155.434 184.813C155.448 184.744 155.406 184.675 155.337 184.661C155.268 184.647 155.199 184.702 155.185 184.772C155.074 185.464 155.545 186.474 156.099 186.807Z" fill="#00045D"/>
<path fill-rule="evenodd" clip-rule="evenodd" d="M153.523 187.748C153.385 187.859 153.523 188.067 153.662 187.956L154.188 187.541C154.326 187.43 154.188 187.222 154.05 187.333L153.523 187.748ZM152.9 186.156C152.748 186.212 152.804 186.461 152.97 186.405L153.579 186.184C153.731 186.128 153.676 185.879 153.51 185.935L152.9 186.156Z" fill="url(#paint66_linear)"/>
<path fill-rule="evenodd" clip-rule="evenodd" d="M152.43 163.838C152.222 163.7 152.028 163.631 151.862 163.617H151.848C151.765 163.617 151.668 163.631 151.599 163.658C151.502 163.7 151.419 163.769 151.364 163.866C151.322 163.949 151.294 164.032 151.281 164.143V164.157C151.281 164.364 151.364 164.6 151.516 164.821C151.654 165.015 151.848 165.209 152.056 165.347C152.264 165.486 152.457 165.555 152.624 165.569H152.637C152.734 165.569 152.817 165.555 152.887 165.527C152.984 165.486 153.067 165.417 153.122 165.32C153.164 165.237 153.191 165.154 153.205 165.043V165.029C153.205 164.821 153.122 164.586 152.97 164.364C152.831 164.171 152.651 163.977 152.43 163.838Z" fill="#00045D"/>
<path fill-rule="evenodd" clip-rule="evenodd" d="M152.277 164.115C151.918 163.88 151.627 163.894 151.613 164.157C151.599 164.42 151.876 164.821 152.236 165.071C152.596 165.306 152.887 165.292 152.9 165.029C152.914 164.766 152.637 164.365 152.277 164.115Z" fill="url(#paint67_linear)"/>
<path fill-rule="evenodd" clip-rule="evenodd" d="M152.43 167.507C152.222 167.369 152.028 167.299 151.862 167.286H151.848C151.765 167.286 151.668 167.299 151.599 167.327C151.502 167.369 151.419 167.438 151.364 167.535C151.322 167.618 151.294 167.701 151.281 167.812V167.826C151.281 168.033 151.364 168.269 151.516 168.49C151.654 168.684 151.848 168.878 152.056 169.016C152.264 169.155 152.457 169.224 152.624 169.238H152.637C152.734 169.238 152.817 169.224 152.887 169.196C152.984 169.155 153.067 169.085 153.122 168.989C153.164 168.905 153.191 168.822 153.205 168.712V168.698C153.205 168.49 153.122 168.255 152.97 168.033C152.831 167.839 152.651 167.646 152.43 167.507Z" fill="#00045D"/>
<path fill-rule="evenodd" clip-rule="evenodd" d="M152.277 167.798C151.918 167.563 151.627 167.576 151.613 167.839C151.599 168.103 151.876 168.504 152.236 168.753C152.596 168.989 152.887 168.975 152.9 168.712C152.914 168.435 152.637 168.033 152.277 167.798Z" fill="url(#paint68_linear)"/>
<path opacity="0.5" fill-rule="evenodd" clip-rule="evenodd" d="M152.554 194.698C151.793 194.435 147.709 193.023 146.947 192.76C146.13 192.469 145.618 191.819 145.618 191.057C145.618 173.89 145.618 156.722 145.618 139.555C145.618 137.921 147.902 137.104 149.232 138.253C149.232 142.933 149.232 147.599 149.232 152.278C149.232 153.067 150.519 153.413 152.042 154.881C152.042 156.805 152.042 158.633 152.042 160.1C150.145 158.328 149.232 157.11 149.232 161.789C149.232 167.424 149.232 183.401 149.232 189.036C149.232 193.978 150.547 193.065 152.554 194.698Z" fill="url(#paint69_linear)"/>
</g>
<defs>
<linearGradient id="paint0_linear" x1="127.469" y1="153.933" x2="127.472" y2="120.503" gradientUnits="userSpaceOnUse">
<stop stop-color="#383E4C"/>
<stop offset="1" stop-color="#ADB2C0"/>
</linearGradient>
<linearGradient id="paint1_linear" x1="119.785" y1="140.877" x2="119.793" y2="110.27" gradientUnits="userSpaceOnUse">
<stop stop-color="#383E4C"/>
<stop offset="1" stop-color="#ADB2C0"/>
</linearGradient>
<linearGradient id="paint2_linear" x1="119.788" y1="138.87" x2="119.788" y2="110.758" gradientUnits="userSpaceOnUse">
<stop stop-color="#383E4C"/>
<stop offset="1" stop-color="#828591"/>
</linearGradient>
<linearGradient id="paint3_linear" x1="119.789" y1="143.512" x2="119.791" y2="108.702" gradientUnits="userSpaceOnUse">
<stop stop-color="#5F626B"/>
<stop offset="1" stop-color="white"/>
</linearGradient>
<linearGradient id="paint4_linear" x1="121.503" y1="122.871" x2="118.073" y2="122.87" gradientUnits="userSpaceOnUse">
<stop stop-color="#ADB2C0"/>
<stop offset="1" stop-color="white"/>
</linearGradient>
<linearGradient id="paint5_linear" x1="124.832" y1="190.293" x2="117.612" y2="157.149" gradientUnits="userSpaceOnUse">
<stop stop-color="#3654A5"/>
<stop offset="1" stop-color="#5781C1"/>
</linearGradient>
<linearGradient id="paint6_linear" x1="116.39" y1="194.074" x2="116.392" y2="145.403" gradientUnits="userSpaceOnUse">
<stop stop-color="#5781C1"/>
<stop offset="1" stop-color="#AADDDD"/>
</linearGradient>
<linearGradient id="paint7_linear" x1="113.177" y1="150.756" x2="118.518" y2="147.875" gradientUnits="userSpaceOnUse">
<stop stop-color="#86ACD6"/>
<stop offset="1" stop-color="#FBFDFF"/>
</linearGradient>
<linearGradient id="paint8_linear" x1="121.267" y1="173.662" x2="125.589" y2="171.381" gradientUnits="userSpaceOnUse">
<stop stop-color="#86ACD6"/>
<stop offset="1" stop-color="#FBFDFF"/>
</linearGradient>
<linearGradient id="paint9_linear" x1="120.662" y1="154.939" x2="121.527" y2="156.168" gradientUnits="userSpaceOnUse">
<stop stop-color="#25409A"/>
<stop offset="1" stop-color="#4E72B8"/>
</linearGradient>
<linearGradient id="paint10_linear" x1="119.614" y1="142.48" x2="120.855" y2="141.589" gradientUnits="userSpaceOnUse">
<stop/>
<stop offset="1" stop-color="#3856A6"/>
</linearGradient>
<linearGradient id="paint11_linear" x1="119.614" y1="144.956" x2="120.855" y2="144.065" gradientUnits="userSpaceOnUse">
<stop/>
<stop offset="1" stop-color="#3856A6"/>
</linearGradient>
<linearGradient id="paint12_linear" x1="119.614" y1="147.432" x2="120.855" y2="146.542" gradientUnits="userSpaceOnUse">
<stop/>
<stop offset="1" stop-color="#3856A6"/>
</linearGradient>
<linearGradient id="paint13_linear" x1="117.309" y1="144.761" x2="118.55" y2="143.87" gradientUnits="userSpaceOnUse">
<stop/>
<stop offset="1" stop-color="#3856A6"/>
</linearGradient>
<linearGradient id="paint14_linear" x1="117.309" y1="147.237" x2="118.55" y2="146.346" gradientUnits="userSpaceOnUse">
<stop/>
<stop offset="1" stop-color="#3856A6"/>
</linearGradient>
<linearGradient id="paint15_linear" x1="117.309" y1="149.713" x2="118.55" y2="148.822" gradientUnits="userSpaceOnUse">
<stop/>
<stop offset="1" stop-color="#3856A6"/>
</linearGradient>
<linearGradient id="paint16_linear" x1="117.131" y1="175.771" x2="112.308" y2="173.621" gradientUnits="userSpaceOnUse">
<stop stop-color="#383E4C"/>
<stop offset="0.52" stop-color="#ADB2C0"/>
<stop offset="1" stop-color="#383E4C"/>
</linearGradient>
<linearGradient id="paint17_linear" x1="114.398" y1="175.139" x2="114.246" y2="175.41" gradientUnits="userSpaceOnUse">
<stop stop-color="#ADB2C0"/>
<stop offset="1" stop-color="white"/>
</linearGradient>
<linearGradient id="paint18_linear" x1="114.793" y1="174.225" x2="114.962" y2="173.923" gradientUnits="userSpaceOnUse">
<stop stop-color="#ADB2C0"/>
<stop offset="1" stop-color="white"/>
</linearGradient>
<linearGradient id="paint19_linear" x1="117.196" y1="176.036" x2="116.799" y2="175.859" gradientUnits="userSpaceOnUse">
<stop stop-color="#710017"/>
<stop offset="1" stop-color="#000504"/>
</linearGradient>
<linearGradient id="paint20_linear" x1="117.131" y1="179.442" x2="112.308" y2="177.293" gradientUnits="userSpaceOnUse">
<stop stop-color="#383E4C"/>
<stop offset="0.52" stop-color="#ADB2C0"/>
<stop offset="1" stop-color="#383E4C"/>
</linearGradient>
<linearGradient id="paint21_linear" x1="114.398" y1="178.811" x2="114.246" y2="179.081" gradientUnits="userSpaceOnUse">
<stop stop-color="#ADB2C0"/>
<stop offset="1" stop-color="white"/>
</linearGradient>
<linearGradient id="paint22_linear" x1="114.793" y1="177.896" x2="114.962" y2="177.595" gradientUnits="userSpaceOnUse">
<stop stop-color="#ADB2C0"/>
<stop offset="1" stop-color="white"/>
</linearGradient>
<linearGradient id="paint23_linear" x1="117.196" y1="179.708" x2="116.799" y2="179.53" gradientUnits="userSpaceOnUse">
<stop stop-color="#710017"/>
<stop offset="1" stop-color="#000504"/>
</linearGradient>
<linearGradient id="paint24_linear" x1="117.131" y1="183.114" x2="112.308" y2="180.964" gradientUnits="userSpaceOnUse">
<stop stop-color="#383E4C"/>
<stop offset="0.52" stop-color="#ADB2C0"/>
<stop offset="1" stop-color="#383E4C"/>
</linearGradient>
<linearGradient id="paint25_linear" x1="114.398" y1="182.482" x2="114.246" y2="182.753" gradientUnits="userSpaceOnUse">
<stop stop-color="#ADB2C0"/>
<stop offset="1" stop-color="white"/>
</linearGradient>
<linearGradient id="paint26_linear" x1="114.793" y1="181.567" x2="114.962" y2="181.266" gradientUnits="userSpaceOnUse">
<stop stop-color="#ADB2C0"/>
<stop offset="1" stop-color="white"/>
</linearGradient>
<linearGradient id="paint27_linear" x1="117.196" y1="183.379" x2="116.799" y2="183.202" gradientUnits="userSpaceOnUse">
<stop stop-color="#710017"/>
<stop offset="1" stop-color="#000504"/>
</linearGradient>
<linearGradient id="paint28_linear" x1="117.131" y1="186.785" x2="112.308" y2="184.635" gradientUnits="userSpaceOnUse">
<stop stop-color="#383E4C"/>
<stop offset="0.52" stop-color="#ADB2C0"/>
<stop offset="1" stop-color="#383E4C"/>
</linearGradient>
<linearGradient id="paint29_linear" x1="114.398" y1="186.154" x2="114.246" y2="186.424" gradientUnits="userSpaceOnUse">
<stop stop-color="#ADB2C0"/>
<stop offset="1" stop-color="white"/>
</linearGradient>
<linearGradient id="paint30_linear" x1="114.793" y1="185.239" x2="114.962" y2="184.937" gradientUnits="userSpaceOnUse">
<stop stop-color="#ADB2C0"/>
<stop offset="1" stop-color="white"/>
</linearGradient>
<linearGradient id="paint31_linear" x1="117.196" y1="187.05" x2="116.799" y2="186.873" gradientUnits="userSpaceOnUse">
<stop stop-color="#710017"/>
<stop offset="1" stop-color="#000504"/>
</linearGradient>
<linearGradient id="paint32_linear" x1="117.86" y1="164.951" x2="118.694" y2="164.311" gradientUnits="userSpaceOnUse">
<stop stop-color="#EF4423"/>
<stop offset="1" stop-color="#E4E526"/>
</linearGradient>
<linearGradient id="paint33_linear" x1="117.859" y1="168.623" x2="118.694" y2="167.983" gradientUnits="userSpaceOnUse">
<stop stop-color="#EF4423"/>
<stop offset="1" stop-color="#E4E526"/>
</linearGradient>
<linearGradient id="paint34_linear" x1="124.911" y1="166.222" x2="112.768" y2="166.221" gradientUnits="userSpaceOnUse">
<stop stop-color="#140C4F"/>
<stop offset="1" stop-color="#5781C1"/>
</linearGradient>
<linearGradient id="paint35_linear" x1="143.077" y1="153.913" x2="143.074" y2="120.484" gradientUnits="userSpaceOnUse">
<stop stop-color="#383E4C"/>
<stop offset="1" stop-color="#ADB2C0"/>
</linearGradient>
<linearGradient id="paint36_linear" x1="150.761" y1="140.857" x2="150.753" y2="110.251" gradientUnits="userSpaceOnUse">
<stop stop-color="#383E4C"/>
<stop offset="1" stop-color="#ADB2C0"/>
</linearGradient>
<linearGradient id="paint37_linear" x1="150.758" y1="138.85" x2="150.758" y2="110.739" gradientUnits="userSpaceOnUse">
<stop stop-color="#383E4C"/>
<stop offset="1" stop-color="#828591"/>
</linearGradient>
<linearGradient id="paint38_linear" x1="150.758" y1="143.493" x2="150.756" y2="108.682" gradientUnits="userSpaceOnUse">
<stop stop-color="#5F626B"/>
<stop offset="1" stop-color="white"/>
</linearGradient>
<linearGradient id="paint39_linear" x1="149.044" y1="122.852" x2="152.473" y2="122.85" gradientUnits="userSpaceOnUse">
<stop stop-color="#ADB2C0"/>
<stop offset="1" stop-color="white"/>
</linearGradient>
<linearGradient id="paint40_linear" x1="145.715" y1="190.274" x2="152.934" y2="157.13" gradientUnits="userSpaceOnUse">
<stop stop-color="#3654A5"/>
<stop offset="1" stop-color="#5781C1"/>
</linearGradient>
<linearGradient id="paint41_linear" x1="154.156" y1="194.055" x2="154.154" y2="145.384" gradientUnits="userSpaceOnUse">
<stop stop-color="#5781C1"/>
<stop offset="1" stop-color="#AADDDD"/>
</linearGradient>
<linearGradient id="paint42_linear" x1="157.369" y1="150.736" x2="152.028" y2="147.855" gradientUnits="userSpaceOnUse">
<stop stop-color="#86ACD6"/>
<stop offset="1" stop-color="#FBFDFF"/>
</linearGradient>
<linearGradient id="paint43_linear" x1="149.279" y1="173.643" x2="144.957" y2="171.362" gradientUnits="userSpaceOnUse">
<stop stop-color="#86ACD6"/>
<stop offset="1" stop-color="#FBFDFF"/>
</linearGradient>
<linearGradient id="paint44_linear" x1="149.884" y1="154.919" x2="149.019" y2="156.148" gradientUnits="userSpaceOnUse">
<stop stop-color="#25409A"/>
<stop offset="1" stop-color="#4E72B8"/>
</linearGradient>
<linearGradient id="paint45_linear" x1="150.932" y1="142.461" x2="149.691" y2="141.57" gradientUnits="userSpaceOnUse">
<stop/>
<stop offset="1" stop-color="#3856A6"/>
</linearGradient>
<linearGradient id="paint46_linear" x1="150.932" y1="144.937" x2="149.691" y2="144.046" gradientUnits="userSpaceOnUse">
<stop/>
<stop offset="1" stop-color="#3856A6"/>
</linearGradient>
<linearGradient id="paint47_linear" x1="150.932" y1="147.413" x2="149.691" y2="146.522" gradientUnits="userSpaceOnUse">
<stop/>
<stop offset="1" stop-color="#3856A6"/>
</linearGradient>
<linearGradient id="paint48_linear" x1="153.237" y1="144.741" x2="151.996" y2="143.851" gradientUnits="userSpaceOnUse">
<stop/>
<stop offset="1" stop-color="#3856A6"/>
</linearGradient>
<linearGradient id="paint49_linear" x1="153.237" y1="147.218" x2="151.996" y2="146.327" gradientUnits="userSpaceOnUse">
<stop/>
<stop offset="1" stop-color="#3856A6"/>
</linearGradient>
<linearGradient id="paint50_linear" x1="153.237" y1="149.694" x2="151.996" y2="148.803" gradientUnits="userSpaceOnUse">
<stop/>
<stop offset="1" stop-color="#3856A6"/>
</linearGradient>
<linearGradient id="paint51_linear" x1="153.415" y1="175.752" x2="158.239" y2="173.602" gradientUnits="userSpaceOnUse">
<stop stop-color="#383E4C"/>
<stop offset="0.52" stop-color="#ADB2C0"/>
<stop offset="1" stop-color="#383E4C"/>
</linearGradient>
<linearGradient id="paint52_linear" x1="156.148" y1="175.12" x2="156.3" y2="175.391" gradientUnits="userSpaceOnUse">
<stop stop-color="#ADB2C0"/>
<stop offset="1" stop-color="white"/>
</linearGradient>
<linearGradient id="paint53_linear" x1="155.754" y1="174.206" x2="155.585" y2="173.904" gradientUnits="userSpaceOnUse">
<stop stop-color="#ADB2C0"/>
<stop offset="1" stop-color="white"/>
</linearGradient>
<linearGradient id="paint54_linear" x1="153.35" y1="176.017" x2="153.747" y2="175.84" gradientUnits="userSpaceOnUse">
<stop stop-color="#710017"/>
<stop offset="1" stop-color="#000504"/>
</linearGradient>
<linearGradient id="paint55_linear" x1="153.415" y1="179.423" x2="158.239" y2="177.273" gradientUnits="userSpaceOnUse">
<stop stop-color="#383E4C"/>
<stop offset="0.52" stop-color="#ADB2C0"/>
<stop offset="1" stop-color="#383E4C"/>
</linearGradient>
<linearGradient id="paint56_linear" x1="156.148" y1="178.792" x2="156.3" y2="179.062" gradientUnits="userSpaceOnUse">
<stop stop-color="#ADB2C0"/>
<stop offset="1" stop-color="white"/>
</linearGradient>
<linearGradient id="paint57_linear" x1="155.754" y1="177.877" x2="155.585" y2="177.575" gradientUnits="userSpaceOnUse">
<stop stop-color="#ADB2C0"/>
<stop offset="1" stop-color="white"/>
</linearGradient>
<linearGradient id="paint58_linear" x1="153.35" y1="179.688" x2="153.747" y2="179.511" gradientUnits="userSpaceOnUse">
<stop stop-color="#710017"/>
<stop offset="1" stop-color="#000504"/>
</linearGradient>
<linearGradient id="paint59_linear" x1="153.415" y1="183.095" x2="158.239" y2="180.945" gradientUnits="userSpaceOnUse">
<stop stop-color="#383E4C"/>
<stop offset="0.52" stop-color="#ADB2C0"/>
<stop offset="1" stop-color="#383E4C"/>
</linearGradient>
<linearGradient id="paint60_linear" x1="156.148" y1="182.463" x2="156.3" y2="182.733" gradientUnits="userSpaceOnUse">
<stop stop-color="#ADB2C0"/>
<stop offset="1" stop-color="white"/>
</linearGradient>
<linearGradient id="paint61_linear" x1="155.754" y1="181.548" x2="155.585" y2="181.247" gradientUnits="userSpaceOnUse">
<stop stop-color="#ADB2C0"/>
<stop offset="1" stop-color="white"/>
</linearGradient>
<linearGradient id="paint62_linear" x1="153.35" y1="183.36" x2="153.747" y2="183.183" gradientUnits="userSpaceOnUse">
<stop stop-color="#710017"/>
<stop offset="1" stop-color="#000504"/>
</linearGradient>
<linearGradient id="paint63_linear" x1="153.415" y1="186.766" x2="158.239" y2="184.616" gradientUnits="userSpaceOnUse">
<stop stop-color="#383E4C"/>
<stop offset="0.52" stop-color="#ADB2C0"/>
<stop offset="1" stop-color="#383E4C"/>
</linearGradient>
<linearGradient id="paint64_linear" x1="156.148" y1="186.134" x2="156.3" y2="186.405" gradientUnits="userSpaceOnUse">
<stop stop-color="#ADB2C0"/>
<stop offset="1" stop-color="white"/>
</linearGradient>
<linearGradient id="paint65_linear" x1="155.754" y1="185.22" x2="155.585" y2="184.918" gradientUnits="userSpaceOnUse">
<stop stop-color="#ADB2C0"/>
<stop offset="1" stop-color="white"/>
</linearGradient>
<linearGradient id="paint66_linear" x1="153.35" y1="187.031" x2="153.747" y2="186.854" gradientUnits="userSpaceOnUse">
<stop stop-color="#710017"/>
<stop offset="1" stop-color="#000504"/>
</linearGradient>
<linearGradient id="paint67_linear" x1="152.687" y1="164.931" x2="151.852" y2="164.292" gradientUnits="userSpaceOnUse">
<stop stop-color="#EF4423"/>
<stop offset="1" stop-color="#E4E526"/>
</linearGradient>
<linearGradient id="paint68_linear" x1="152.687" y1="168.603" x2="151.852" y2="167.963" gradientUnits="userSpaceOnUse">
<stop stop-color="#EF4423"/>
<stop offset="1" stop-color="#E4E526"/>
</linearGradient>
<linearGradient id="paint69_linear" x1="145.635" y1="166.202" x2="157.779" y2="166.201" gradientUnits="userSpaceOnUse">
<stop stop-color="#140C4F"/>
<stop offset="1" stop-color="#5781C1"/>
</linearGradient>
<clipPath id="clip0">
<rect x="56.3059" y="107.158" width="157.941" height="159.048" fill="white"/>
</clipPath>
</defs>
</svg>
