<svg width="270" height="370" viewBox="0 0 270 370" fill="none" xmlns="http://www.w3.org/2000/svg">
<g clip-path="url(#clip0)">
<path fill-rule="evenodd" clip-rule="evenodd" d="M122.816 144.497H119.202L119.009 108.833L122.816 98.3805V144.497Z" fill="url(#paint0_linear)"/>
<path fill-rule="evenodd" clip-rule="evenodd" d="M122.816 145.965H119.189C118.372 145.965 117.721 145.3 117.721 144.497C117.721 144.456 117.721 144.414 117.721 144.373L117.527 108.833C117.527 108.653 117.555 108.487 117.61 108.335L121.445 97.8821C121.722 97.1206 122.567 96.733 123.314 97.0099C123.91 97.2314 124.284 97.7852 124.284 98.3805V144.511C124.284 145.314 123.633 145.965 122.816 145.965ZM122.816 144.497H119.189L118.995 108.833L122.802 98.3667V144.497H122.816Z" fill="black"/>
<path fill-rule="evenodd" clip-rule="evenodd" d="M122.816 144.497H120.989L120.892 108.833L122.816 98.3805V144.497Z" fill="#B8BBC8"/>
<path d="M122.816 120.671H119.064V121.404H122.816V120.671Z" fill="url(#paint1_linear)"/>
<path d="M122.816 120.864H119.064V121.224H122.816V120.864Z" fill="#B8BBC8"/>
<path d="M122.816 122.512H119.064V123.246H122.816V122.512Z" fill="url(#paint2_linear)"/>
<path d="M122.816 122.692H119.064V123.052H122.816V122.692Z" fill="#B8BBC8"/>
<path d="M122.816 124.339H119.064V125.073H122.816V124.339Z" fill="url(#paint3_linear)"/>
<path d="M122.816 124.533H119.064V124.893H122.816V124.533Z" fill="#B8BBC8"/>
<path d="M122.816 126.181H119.064V126.914H122.816V126.181Z" fill="url(#paint4_linear)"/>
<path d="M122.816 126.361H119.064V126.721H122.816V126.361Z" fill="#B8BBC8"/>
<path d="M122.816 128.022H119.064V128.756H122.816V128.022Z" fill="url(#paint5_linear)"/>
<path d="M122.816 128.202H119.064V128.562H122.816V128.202Z" fill="#B8BBC8"/>
<path fill-rule="evenodd" clip-rule="evenodd" d="M118.039 167.41C118.039 168.269 115.077 168.116 114.024 169.418C113.748 169.764 113.609 170.152 113.609 170.608V196.886C113.609 198.187 115.118 199.073 116.517 198.589L122.885 196.387C123.702 196.097 124.214 195.446 124.214 194.684V143.182C124.214 141.548 121.93 140.732 120.601 141.881L118.676 143.528C118.261 143.888 118.039 144.373 118.039 144.913V167.41Z" fill="url(#paint6_linear)"/>
<path fill-rule="evenodd" clip-rule="evenodd" d="M118.039 167.41C118.039 168.269 115.077 168.116 114.025 169.418C113.748 169.764 113.609 170.152 113.609 170.608V196.886C113.609 198.187 115.118 199.073 116.517 198.589L122.885 196.387C123.702 196.096 124.214 195.446 124.214 194.684V143.182C124.214 141.548 121.93 140.731 120.601 141.881L118.676 143.528C118.261 143.888 118.039 144.373 118.039 144.913V167.41ZM116.17 166.801C116.392 166.746 116.572 166.76 116.572 166.053V144.926C116.572 144.442 116.669 143.985 116.877 143.556C117.07 143.127 117.361 142.753 117.721 142.434L119.645 140.787C120.365 140.164 121.238 139.887 122.082 139.887C122.608 139.887 123.134 139.998 123.619 140.205C124.103 140.413 124.533 140.718 124.879 141.105L124.92 141.147C125.391 141.701 125.682 142.393 125.682 143.196V194.698C125.682 195.418 125.446 196.083 125.003 196.636C124.602 197.149 124.034 197.55 123.356 197.786L116.987 199.987C116.558 200.139 116.129 200.208 115.714 200.208C115.021 200.208 114.343 200.015 113.775 199.668C113.734 199.655 113.706 199.627 113.665 199.613C113.042 199.212 112.557 198.63 112.308 197.91C112.197 197.578 112.128 197.246 112.128 196.899V170.608C112.128 170.221 112.183 169.847 112.308 169.487C112.432 169.127 112.612 168.795 112.862 168.49C113.734 167.438 115.063 167.092 116.17 166.801Z" fill="black"/>
<path fill-rule="evenodd" clip-rule="evenodd" d="M118.039 167.41C118.039 168.269 115.077 168.116 114.024 169.418C113.748 169.764 113.609 170.151 113.609 170.608V196.886C113.609 198.187 115.118 199.073 116.517 198.588L118.039 198.062V167.41Z" fill="url(#paint7_linear)"/>
<path opacity="0.5" fill-rule="evenodd" clip-rule="evenodd" d="M115.741 168.435C115.077 168.642 114.412 168.933 114.024 169.418C113.748 169.764 113.609 170.152 113.609 170.608V196.886C113.609 198.187 115.118 199.073 116.517 198.589L116.863 198.464C115.949 198.284 115.215 197.564 115.215 196.637V169.778C115.229 169.279 115.395 168.809 115.741 168.435Z" fill="url(#paint8_linear)"/>
<path opacity="0.5" fill-rule="evenodd" clip-rule="evenodd" d="M117.278 198.339C118.04 198.076 122.124 196.664 122.885 196.401C123.702 196.11 124.214 195.46 124.214 194.698C124.214 177.531 124.214 160.363 124.214 143.196C124.214 141.562 121.93 140.745 120.601 141.894C120.601 162.911 120.601 168.532 120.601 192.677C120.601 197.619 119.507 197.439 117.278 198.339Z" fill="url(#paint9_linear)"/>
<path opacity="0.5" fill-rule="evenodd" clip-rule="evenodd" d="M122.885 196.387C123.702 196.097 124.214 195.446 124.214 194.684C124.214 177.517 124.214 160.349 124.214 143.182C124.214 142.351 123.633 141.742 122.885 141.479V196.387Z" fill="url(#paint10_linear)"/>
<path opacity="0.5" fill-rule="evenodd" clip-rule="evenodd" d="M122.359 189.285C122.359 195.252 121.321 194.726 117.043 197.19C119.452 196.54 123.356 195.294 123.356 193.12C123.356 181.615 123.19 164.046 122.65 169.155C122.027 175.066 122.359 182.986 122.359 189.285Z" fill="url(#paint11_linear)"/>
<path opacity="0.5" fill-rule="evenodd" clip-rule="evenodd" d="M122.193 144.65C121.321 144.65 121.196 165.638 122.193 165.638C123.176 165.638 123.065 144.65 122.193 144.65Z" fill="url(#paint12_linear)"/>
<path fill-rule="evenodd" clip-rule="evenodd" d="M113.609 196.886C113.609 198.187 115.118 199.073 116.517 198.589L122.885 196.387C123.702 196.096 124.214 195.446 124.214 194.684L123.397 194.2C122.913 193.909 122.387 193.867 121.861 194.047L113.609 196.886Z" fill="url(#paint13_linear)"/>
<path fill-rule="evenodd" clip-rule="evenodd" d="M120.601 141.881C119.964 142.434 119.327 142.988 118.676 143.528C118.261 143.874 118.04 144.331 118.04 144.913C118.04 148.069 118.04 151.226 118.04 154.396C118.898 152.486 119.742 150.575 120.601 148.665C120.601 146.408 120.601 144.151 120.601 141.881Z" fill="#8C8E98"/>
<path fill-rule="evenodd" clip-rule="evenodd" d="M117.86 167.41C117.86 167.313 117.943 167.23 118.039 167.23C118.136 167.23 118.219 167.313 118.219 167.41V177.863C118.219 179.621 117.084 181.117 115.395 181.573C114.952 181.629 114.135 181.449 113.609 181.449C113.512 181.449 113.429 181.366 113.429 181.269C113.429 181.172 113.512 181.089 113.609 181.089C114.177 181.089 114.744 181.227 115.326 181.227C116.849 180.798 117.86 179.455 117.86 177.877V167.41ZM120.421 149.537L118.219 154.493C118.178 154.59 118.067 154.632 117.984 154.59C117.887 154.549 117.846 154.438 117.887 154.355L120.435 148.651V141.894C120.435 141.798 120.518 141.714 120.615 141.714C120.712 141.714 120.795 141.798 120.795 141.894V149.647C120.795 150.755 120.587 151.738 120.13 152.749L118.164 157.096C118.123 157.193 118.012 157.234 117.915 157.193C117.818 157.151 117.776 157.041 117.818 156.944L119.784 152.596C120.227 151.627 120.421 150.7 120.421 149.647V149.537Z" fill="#00045D"/>
<path fill-rule="evenodd" clip-rule="evenodd" d="M118.912 143.334L120.075 142.338V147.072C120.075 147.626 119.853 148.097 119.438 148.457L118.912 148.914V143.334Z" fill="url(#paint14_linear)"/>
<path fill-rule="evenodd" clip-rule="evenodd" d="M118.912 143.334L119.507 143.736L120.075 143.251V147.072C120.075 147.626 119.853 148.097 119.438 148.457V143.874L118.912 143.334Z" fill="#120801"/>
<path opacity="0.5" fill-rule="evenodd" clip-rule="evenodd" d="M113.609 184.467C113.609 188.607 113.609 192.746 113.609 196.899C113.609 198.201 115.118 199.087 116.517 198.602C118.635 197.869 120.753 197.135 122.885 196.401C123.702 196.11 124.214 195.46 124.214 194.698C124.214 177.531 124.214 160.363 124.214 143.196C124.214 141.562 121.93 140.745 120.601 141.894C120.199 142.241 119.812 142.573 119.41 142.919C122.816 142.476 119.41 160.779 119.41 169.708C119.41 175.302 121.044 176.659 121.044 187.513C121.058 189.562 115.229 196.65 113.609 184.467Z" fill="url(#paint15_linear)"/>
<path fill-rule="evenodd" clip-rule="evenodd" d="M119.992 166.178H120.601C120.85 166.178 121.058 166.469 121.058 166.815V178.818C121.058 179.164 120.85 179.455 120.601 179.455H119.992C119.742 179.455 119.535 179.164 119.535 178.818V166.829C119.535 166.469 119.742 166.178 119.992 166.178Z" fill="#00045D"/>
<path fill-rule="evenodd" clip-rule="evenodd" d="M119.784 166.483H120.393C120.531 166.483 120.628 166.635 120.628 166.815V178.818C120.628 178.998 120.518 179.151 120.393 179.151H119.784C119.645 179.151 119.549 178.998 119.549 178.818V166.829C119.535 166.635 119.645 166.483 119.784 166.483Z" fill="url(#paint16_linear)"/>
<path fill-rule="evenodd" clip-rule="evenodd" d="M119.729 167.036H120.199C120.296 167.036 120.393 167.161 120.393 167.3V178.334C120.393 178.472 120.31 178.597 120.199 178.597H119.729C119.632 178.597 119.535 178.472 119.535 178.334V167.3C119.535 167.161 119.618 167.036 119.729 167.036Z" fill="url(#paint17_linear)"/>
<path fill-rule="evenodd" clip-rule="evenodd" d="M119.646 167.41H119.909C119.964 167.41 120.006 167.48 120.006 167.549V178.085C120.006 178.168 119.964 178.223 119.909 178.223H119.646C119.59 178.223 119.549 178.154 119.549 178.085V167.549C119.535 167.48 119.59 167.41 119.646 167.41Z" fill="url(#paint18_linear)"/>
<path opacity="0.5" fill-rule="evenodd" clip-rule="evenodd" d="M120.393 168.296C120.393 170.747 120.393 170.705 120.393 173.17C120.116 173.571 119.549 173.031 119.549 176.866C119.549 174.416 119.549 174.014 119.549 171.564C120.005 174.485 120.102 168.698 120.393 168.296Z" fill="url(#paint19_linear)"/>
<path fill-rule="evenodd" clip-rule="evenodd" d="M119.992 180.867H120.601C120.85 180.867 121.058 181.158 121.058 181.504V193.508C121.058 193.854 120.85 194.144 120.601 194.144H119.992C119.742 194.144 119.535 193.854 119.535 193.508V181.504C119.535 181.158 119.742 180.867 119.992 180.867Z" fill="#00045D"/>
<path fill-rule="evenodd" clip-rule="evenodd" d="M119.784 181.172H120.393C120.531 181.172 120.628 181.324 120.628 181.504V193.508C120.628 193.688 120.518 193.84 120.393 193.84H119.784C119.645 193.84 119.549 193.688 119.549 193.508V181.504C119.535 181.324 119.645 181.172 119.784 181.172Z" fill="url(#paint20_linear)"/>
<path fill-rule="evenodd" clip-rule="evenodd" d="M119.729 181.726H120.199C120.296 181.726 120.393 181.85 120.393 181.989V193.023C120.393 193.161 120.31 193.286 120.199 193.286H119.729C119.632 193.286 119.535 193.161 119.535 193.023V181.989C119.535 181.85 119.618 181.726 119.729 181.726Z" fill="url(#paint21_linear)"/>
<path fill-rule="evenodd" clip-rule="evenodd" d="M119.646 182.099H119.909C119.964 182.099 120.006 182.169 120.006 182.238V192.774C120.006 192.857 119.964 192.912 119.909 192.912H119.646C119.59 192.912 119.549 192.843 119.549 192.774V182.238C119.535 182.155 119.59 182.099 119.646 182.099Z" fill="url(#paint22_linear)"/>
<path opacity="0.5" fill-rule="evenodd" clip-rule="evenodd" d="M120.393 182.986C120.393 185.436 120.393 185.395 120.393 187.859C120.116 188.26 119.549 187.72 119.549 191.555C119.549 189.105 119.549 188.703 119.549 186.253C120.005 189.174 120.102 183.387 120.393 182.986Z" fill="url(#paint23_linear)"/>
<path fill-rule="evenodd" clip-rule="evenodd" d="M147.653 144.497H151.281L151.46 108.833L147.653 98.3805V144.497Z" fill="url(#paint24_linear)"/>
<path fill-rule="evenodd" clip-rule="evenodd" d="M147.653 144.497H151.281L151.474 108.833L147.667 98.3667V144.497H147.653ZM151.281 145.965H147.653C146.836 145.965 146.186 145.3 146.186 144.497V98.3805C146.186 97.7852 146.559 97.2176 147.155 97.0099C147.916 96.733 148.761 97.1206 149.024 97.8821L152.831 108.349C152.887 108.501 152.914 108.681 152.914 108.847L152.72 144.387C152.72 144.428 152.72 144.47 152.72 144.511C152.748 145.314 152.084 145.965 151.281 145.965Z" fill="black"/>
<path fill-rule="evenodd" clip-rule="evenodd" d="M147.653 144.497H149.481L149.578 108.833L147.653 98.3805V144.497Z" fill="#B8BBC8"/>
<path d="M151.405 120.671H147.653V121.404H151.405V120.671Z" fill="url(#paint25_linear)"/>
<path d="M151.405 120.864H147.653V121.224H151.405V120.864Z" fill="#B8BBC8"/>
<path d="M151.405 122.512H147.653V123.246H151.405V122.512Z" fill="url(#paint26_linear)"/>
<path d="M151.405 122.692H147.653V123.052H151.405V122.692Z" fill="#B8BBC8"/>
<path d="M151.405 124.339H147.653V125.073H151.405V124.339Z" fill="url(#paint27_linear)"/>
<path d="M151.405 124.533H147.653V124.893H151.405V124.533Z" fill="#B8BBC8"/>
<path d="M151.405 126.181H147.653V126.914H151.405V126.181Z" fill="url(#paint28_linear)"/>
<path d="M151.405 126.361H147.653V126.721H151.405V126.361Z" fill="#B8BBC8"/>
<path d="M151.405 128.022H147.653V128.756H151.405V128.022Z" fill="url(#paint29_linear)"/>
<path d="M151.405 128.202H147.653V128.562H151.405V128.202Z" fill="#B8BBC8"/>
<path fill-rule="evenodd" clip-rule="evenodd" d="M152.43 167.41C152.43 168.269 155.393 168.116 156.445 169.418C156.722 169.764 156.86 170.152 156.86 170.608V196.886C156.86 198.187 155.351 199.073 153.953 198.589L147.584 196.387C146.767 196.097 146.255 195.446 146.255 194.684V143.182C146.255 141.548 148.539 140.732 149.868 141.881L151.793 143.528C152.208 143.888 152.43 144.373 152.43 144.913V167.41Z" fill="url(#paint30_linear)"/>
<path fill-rule="evenodd" clip-rule="evenodd" d="M153.897 166.04C153.897 166.76 154.077 166.732 154.299 166.787C155.406 167.078 156.735 167.424 157.58 168.49C157.815 168.795 158.009 169.127 158.134 169.487C158.258 169.847 158.314 170.207 158.314 170.608V196.886C158.314 197.232 158.245 197.564 158.134 197.896C157.885 198.602 157.4 199.198 156.777 199.599C156.749 199.627 156.708 199.641 156.666 199.655C156.099 200.001 155.42 200.195 154.728 200.195C154.326 200.195 153.883 200.125 153.454 199.973L147.086 197.772C146.407 197.536 145.84 197.135 145.438 196.623C145.009 196.069 144.76 195.404 144.76 194.684V143.182C144.76 142.379 145.051 141.687 145.521 141.133L145.563 141.092C145.909 140.704 146.338 140.399 146.823 140.192C147.307 139.984 147.833 139.873 148.359 139.873C149.204 139.873 150.076 140.15 150.796 140.773L152.72 142.421C153.094 142.739 153.371 143.113 153.565 143.542C153.759 143.971 153.87 144.428 153.87 144.913V167.396V166.04H153.897ZM152.43 167.41C152.43 168.269 155.393 168.116 156.445 169.418C156.722 169.764 156.86 170.152 156.86 170.608V196.886C156.86 198.187 155.351 199.073 153.953 198.589L147.584 196.387C146.767 196.097 146.255 195.446 146.255 194.684V143.182C146.255 141.548 148.539 140.732 149.868 141.881L151.793 143.528C152.208 143.888 152.43 144.373 152.43 144.913V167.41Z" fill="black"/>
<path fill-rule="evenodd" clip-rule="evenodd" d="M152.43 167.41C152.43 168.269 155.393 168.116 156.445 169.418C156.722 169.764 156.86 170.152 156.86 170.608V196.886C156.86 198.187 155.351 199.073 153.953 198.589L152.43 198.062V167.41Z" fill="url(#paint31_linear)"/>
<path opacity="0.5" fill-rule="evenodd" clip-rule="evenodd" d="M154.728 168.435C155.393 168.642 156.057 168.933 156.445 169.418C156.722 169.764 156.86 170.152 156.86 170.608V196.886C156.86 198.187 155.351 199.073 153.953 198.589L153.607 198.464C154.52 198.284 155.254 197.564 155.254 196.637V169.778C155.254 169.279 155.074 168.809 154.728 168.435Z" fill="url(#paint32_linear)"/>
<path opacity="0.5" fill-rule="evenodd" clip-rule="evenodd" d="M153.191 198.339C152.43 198.076 148.346 196.664 147.584 196.401C146.767 196.11 146.255 195.46 146.255 194.698C146.255 177.531 146.255 160.363 146.255 143.196C146.255 141.562 148.539 140.745 149.868 141.895C149.868 162.911 149.868 168.532 149.868 192.677C149.868 197.62 150.962 197.44 153.191 198.339Z" fill="url(#paint33_linear)"/>
<path opacity="0.5" fill-rule="evenodd" clip-rule="evenodd" d="M147.584 196.387C146.767 196.097 146.255 195.446 146.255 194.684C146.255 177.517 146.255 160.349 146.255 143.182C146.255 142.351 146.836 141.742 147.584 141.479V196.387Z" fill="url(#paint34_linear)"/>
<path opacity="0.5" fill-rule="evenodd" clip-rule="evenodd" d="M148.11 189.285C148.11 195.252 149.148 194.726 153.426 197.19C151.017 196.54 147.113 195.294 147.113 193.12C147.113 181.615 147.279 164.046 147.819 169.155C148.442 175.066 148.11 182.986 148.11 189.285Z" fill="url(#paint35_linear)"/>
<path opacity="0.5" fill-rule="evenodd" clip-rule="evenodd" d="M148.29 144.65C149.162 144.65 149.287 165.638 148.29 165.638C147.293 165.638 147.404 144.65 148.29 144.65Z" fill="url(#paint36_linear)"/>
<path fill-rule="evenodd" clip-rule="evenodd" d="M156.86 196.886C156.86 198.187 155.351 199.073 153.953 198.589L147.584 196.387C146.767 196.097 146.255 195.446 146.255 194.684L147.072 194.2C147.556 193.909 148.083 193.868 148.609 194.048L156.86 196.886Z" fill="url(#paint37_linear)"/>
<path fill-rule="evenodd" clip-rule="evenodd" d="M149.868 141.881C150.505 142.434 151.142 142.988 151.793 143.528C152.208 143.874 152.43 144.331 152.43 144.913C152.43 148.069 152.43 151.226 152.43 154.396C151.571 152.486 150.727 150.575 149.868 148.665C149.868 146.408 149.868 144.151 149.868 141.881Z" fill="#8C8E98"/>
<path fill-rule="evenodd" clip-rule="evenodd" d="M152.61 167.41C152.61 167.313 152.527 167.23 152.43 167.23C152.333 167.23 152.25 167.313 152.25 167.41V177.863C152.25 179.621 153.385 181.117 155.074 181.573C155.517 181.629 156.334 181.449 156.86 181.449C156.957 181.449 157.04 181.366 157.04 181.269C157.04 181.172 156.957 181.089 156.86 181.089C156.292 181.089 155.725 181.227 155.143 181.227C153.62 180.798 152.61 179.455 152.61 177.877V167.41ZM150.048 149.537L152.25 154.493C152.291 154.59 152.402 154.632 152.485 154.59C152.582 154.549 152.624 154.438 152.582 154.355L150.035 148.651V141.894C150.035 141.798 149.952 141.714 149.855 141.714C149.758 141.714 149.675 141.798 149.675 141.894V149.647C149.675 150.755 149.882 151.738 150.339 152.749L152.305 157.096C152.347 157.193 152.457 157.234 152.554 157.193C152.651 157.151 152.693 157.041 152.651 156.944L150.685 152.596C150.242 151.627 150.048 150.7 150.048 149.647V149.537Z" fill="#00045D"/>
<path fill-rule="evenodd" clip-rule="evenodd" d="M151.557 143.334L150.395 142.338V147.072C150.395 147.626 150.616 148.097 151.031 148.457L151.557 148.914V143.334Z" fill="url(#paint38_linear)"/>
<path fill-rule="evenodd" clip-rule="evenodd" d="M151.557 143.334L150.962 143.736L150.395 143.251V147.072C150.395 147.626 150.616 148.097 151.031 148.457V143.874L151.557 143.334Z" fill="#120801"/>
<path opacity="0.5" fill-rule="evenodd" clip-rule="evenodd" d="M156.86 184.467C156.86 188.607 156.86 192.746 156.86 196.9C156.86 198.201 155.351 199.087 153.953 198.603C151.834 197.869 149.716 197.135 147.584 196.401C146.767 196.11 146.255 195.46 146.255 194.698C146.255 177.531 146.255 160.363 146.255 143.196C146.255 141.562 148.539 140.745 149.868 141.895C150.27 142.241 150.658 142.573 151.059 142.919C147.653 142.476 151.059 160.779 151.059 169.709C151.059 175.302 149.425 176.659 149.425 187.513C149.412 189.562 155.254 196.65 156.86 184.467Z" fill="url(#paint39_linear)"/>
<path fill-rule="evenodd" clip-rule="evenodd" d="M150.478 166.178H149.868C149.619 166.178 149.412 166.469 149.412 166.815V178.818C149.412 179.164 149.619 179.455 149.868 179.455H150.478C150.727 179.455 150.935 179.164 150.935 178.818V166.829C150.935 166.469 150.727 166.178 150.478 166.178Z" fill="#00045D"/>
<path fill-rule="evenodd" clip-rule="evenodd" d="M150.699 166.483H150.09C149.952 166.483 149.855 166.635 149.855 166.815V178.818C149.855 178.998 149.965 179.151 150.09 179.151H150.699C150.838 179.151 150.934 178.998 150.934 178.818V166.829C150.934 166.635 150.824 166.483 150.699 166.483Z" fill="url(#paint40_linear)"/>
<path fill-rule="evenodd" clip-rule="evenodd" d="M150.741 167.036H150.27C150.173 167.036 150.076 167.161 150.076 167.3V178.334C150.076 178.472 150.159 178.597 150.27 178.597H150.741C150.838 178.597 150.935 178.472 150.935 178.334V167.3C150.935 167.161 150.851 167.036 150.741 167.036Z" fill="url(#paint41_linear)"/>
<path fill-rule="evenodd" clip-rule="evenodd" d="M150.824 167.41H150.561C150.505 167.41 150.464 167.48 150.464 167.549V178.085C150.464 178.168 150.505 178.223 150.561 178.223H150.824C150.879 178.223 150.921 178.154 150.921 178.085V167.549C150.934 167.48 150.893 167.41 150.824 167.41Z" fill="url(#paint42_linear)"/>
<path opacity="0.5" fill-rule="evenodd" clip-rule="evenodd" d="M150.09 168.296C150.09 170.747 150.09 170.705 150.09 173.17C150.367 173.571 150.934 173.031 150.934 176.866C150.934 174.416 150.934 174.014 150.934 171.564C150.464 174.485 150.367 168.698 150.09 168.296Z" fill="url(#paint43_linear)"/>
<path fill-rule="evenodd" clip-rule="evenodd" d="M150.478 180.867H149.868C149.619 180.867 149.412 181.158 149.412 181.504V193.508C149.412 193.854 149.619 194.144 149.868 194.144H150.478C150.727 194.144 150.935 193.854 150.935 193.508V181.504C150.935 181.158 150.727 180.867 150.478 180.867Z" fill="#00045D"/>
<path fill-rule="evenodd" clip-rule="evenodd" d="M150.699 181.172H150.09C149.952 181.172 149.855 181.324 149.855 181.504V193.508C149.855 193.688 149.965 193.84 150.09 193.84H150.699C150.838 193.84 150.934 193.688 150.934 193.508V181.504C150.934 181.324 150.824 181.172 150.699 181.172Z" fill="url(#paint44_linear)"/>
<path fill-rule="evenodd" clip-rule="evenodd" d="M150.741 181.726H150.27C150.173 181.726 150.076 181.85 150.076 181.989V193.023C150.076 193.161 150.159 193.286 150.27 193.286H150.741C150.838 193.286 150.935 193.161 150.935 193.023V181.989C150.935 181.85 150.851 181.726 150.741 181.726Z" fill="url(#paint45_linear)"/>
<path fill-rule="evenodd" clip-rule="evenodd" d="M150.824 182.099H150.561C150.505 182.099 150.464 182.169 150.464 182.238V192.774C150.464 192.857 150.505 192.912 150.561 192.912H150.824C150.879 192.912 150.921 192.843 150.921 192.774V182.238C150.934 182.155 150.893 182.099 150.824 182.099Z" fill="url(#paint46_linear)"/>
<path opacity="0.5" fill-rule="evenodd" clip-rule="evenodd" d="M150.09 182.986C150.09 185.436 150.09 185.395 150.09 187.859C150.367 188.26 150.934 187.72 150.934 191.555C150.934 189.105 150.934 188.703 150.934 186.253C150.464 189.174 150.367 183.387 150.09 182.986Z" fill="url(#paint47_linear)"/>
</g>
<defs>
<linearGradient id="paint0_linear" x1="120.909" y1="141.034" x2="120.92" y2="100.527" gradientUnits="userSpaceOnUse">
<stop stop-color="#383E4C"/>
<stop offset="1" stop-color="#ADB2C0"/>
</linearGradient>
<linearGradient id="paint1_linear" x1="119.09" y1="121.044" x2="122.819" y2="121.042" gradientUnits="userSpaceOnUse">
<stop stop-color="#383E4C"/>
<stop offset="0.52" stop-color="#828591"/>
<stop offset="1" stop-color="#383E4C"/>
</linearGradient>
<linearGradient id="paint2_linear" x1="119.09" y1="122.879" x2="122.819" y2="122.877" gradientUnits="userSpaceOnUse">
<stop stop-color="#383E4C"/>
<stop offset="0.52" stop-color="#828591"/>
<stop offset="1" stop-color="#383E4C"/>
</linearGradient>
<linearGradient id="paint3_linear" x1="119.09" y1="124.714" x2="122.819" y2="124.713" gradientUnits="userSpaceOnUse">
<stop stop-color="#383E4C"/>
<stop offset="0.52" stop-color="#828591"/>
<stop offset="1" stop-color="#383E4C"/>
</linearGradient>
<linearGradient id="paint4_linear" x1="119.09" y1="126.55" x2="122.819" y2="126.548" gradientUnits="userSpaceOnUse">
<stop stop-color="#383E4C"/>
<stop offset="0.52" stop-color="#828591"/>
<stop offset="1" stop-color="#383E4C"/>
</linearGradient>
<linearGradient id="paint5_linear" x1="119.09" y1="128.385" x2="122.819" y2="128.383" gradientUnits="userSpaceOnUse">
<stop stop-color="#383E4C"/>
<stop offset="0.52" stop-color="#828591"/>
<stop offset="1" stop-color="#383E4C"/>
</linearGradient>
<linearGradient id="paint6_linear" x1="124.12" y1="193.911" x2="116.9" y2="160.767" gradientUnits="userSpaceOnUse">
<stop stop-color="#3654A5"/>
<stop offset="1" stop-color="#5781C1"/>
</linearGradient>
<linearGradient id="paint7_linear" x1="117.989" y1="183.069" x2="113.617" y2="183.067" gradientUnits="userSpaceOnUse">
<stop stop-color="#5F94CE"/>
<stop offset="1" stop-color="#25409A"/>
</linearGradient>
<linearGradient id="paint8_linear" x1="115.241" y1="198.075" x2="115.241" y2="168.419" gradientUnits="userSpaceOnUse">
<stop stop-color="#5781C1"/>
<stop offset="1" stop-color="#AADDDD"/>
</linearGradient>
<linearGradient id="paint9_linear" x1="124.199" y1="169.839" x2="112.056" y2="169.838" gradientUnits="userSpaceOnUse">
<stop stop-color="#140C4F"/>
<stop offset="1" stop-color="#5781C1"/>
</linearGradient>
<linearGradient id="paint10_linear" x1="124.199" y1="168.935" x2="112.045" y2="168.934" gradientUnits="userSpaceOnUse">
<stop stop-color="#140C4F"/>
<stop offset="1" stop-color="#5781C1"/>
</linearGradient>
<linearGradient id="paint11_linear" x1="120.197" y1="194.264" x2="120.198" y2="168.334" gradientUnits="userSpaceOnUse">
<stop stop-color="#3654A5"/>
<stop offset="1" stop-color="#FBFDFF"/>
</linearGradient>
<linearGradient id="paint12_linear" x1="122.188" y1="163.516" x2="122.192" y2="144.708" gradientUnits="userSpaceOnUse">
<stop stop-color="#3654A5"/>
<stop offset="1" stop-color="#FBFDFF"/>
</linearGradient>
<linearGradient id="paint13_linear" x1="119.21" y1="196.804" x2="118.937" y2="195.975" gradientUnits="userSpaceOnUse">
<stop stop-color="#25409A"/>
<stop offset="1" stop-color="#5F94CE"/>
</linearGradient>
<linearGradient id="paint14_linear" x1="118.946" y1="145.629" x2="120.08" y2="145.627" gradientUnits="userSpaceOnUse">
<stop stop-color="#383E4C"/>
<stop offset="1"/>
</linearGradient>
<linearGradient id="paint15_linear" x1="123.727" y1="170.037" x2="114.977" y2="170.037" gradientUnits="userSpaceOnUse">
<stop stop-color="#140C4F"/>
<stop offset="1" stop-color="#ADB2C0"/>
</linearGradient>
<linearGradient id="paint16_linear" x1="120.08" y1="178.02" x2="120.082" y2="168.486" gradientUnits="userSpaceOnUse">
<stop stop-color="#313092"/>
<stop offset="1" stop-color="#5F94CE"/>
</linearGradient>
<linearGradient id="paint17_linear" x1="119.963" y1="178.02" x2="119.965" y2="168.47" gradientUnits="userSpaceOnUse">
<stop stop-color="#3D0000"/>
<stop offset="1" stop-color="#794503"/>
</linearGradient>
<linearGradient id="paint18_linear" x1="119.771" y1="178.021" x2="119.774" y2="167.41" gradientUnits="userSpaceOnUse">
<stop stop-color="#EF4423"/>
<stop offset="1" stop-color="#E4E526"/>
</linearGradient>
<linearGradient id="paint19_linear" x1="119.787" y1="175.502" x2="120.144" y2="169.158" gradientUnits="userSpaceOnUse">
<stop stop-color="#EF4423"/>
<stop offset="1" stop-color="white"/>
</linearGradient>
<linearGradient id="paint20_linear" x1="120.08" y1="192.706" x2="120.082" y2="183.172" gradientUnits="userSpaceOnUse">
<stop stop-color="#313092"/>
<stop offset="1" stop-color="#5F94CE"/>
</linearGradient>
<linearGradient id="paint21_linear" x1="119.963" y1="192.706" x2="119.965" y2="183.155" gradientUnits="userSpaceOnUse">
<stop stop-color="#3D0000"/>
<stop offset="1" stop-color="#794503"/>
</linearGradient>
<linearGradient id="paint22_linear" x1="119.771" y1="192.706" x2="119.774" y2="182.095" gradientUnits="userSpaceOnUse">
<stop stop-color="#EF4423"/>
<stop offset="1" stop-color="#E4E526"/>
</linearGradient>
<linearGradient id="paint23_linear" x1="119.787" y1="190.187" x2="120.145" y2="183.843" gradientUnits="userSpaceOnUse">
<stop stop-color="#EF4423"/>
<stop offset="1" stop-color="white"/>
</linearGradient>
<linearGradient id="paint24_linear" x1="149.564" y1="141.034" x2="149.552" y2="100.527" gradientUnits="userSpaceOnUse">
<stop stop-color="#383E4C"/>
<stop offset="1" stop-color="#ADB2C0"/>
</linearGradient>
<linearGradient id="paint25_linear" x1="151.383" y1="121.044" x2="147.654" y2="121.042" gradientUnits="userSpaceOnUse">
<stop stop-color="#383E4C"/>
<stop offset="0.52" stop-color="#828591"/>
<stop offset="1" stop-color="#383E4C"/>
</linearGradient>
<linearGradient id="paint26_linear" x1="151.383" y1="122.879" x2="147.654" y2="122.877" gradientUnits="userSpaceOnUse">
<stop stop-color="#383E4C"/>
<stop offset="0.52" stop-color="#828591"/>
<stop offset="1" stop-color="#383E4C"/>
</linearGradient>
<linearGradient id="paint27_linear" x1="151.383" y1="124.714" x2="147.654" y2="124.713" gradientUnits="userSpaceOnUse">
<stop stop-color="#383E4C"/>
<stop offset="0.52" stop-color="#828591"/>
<stop offset="1" stop-color="#383E4C"/>
</linearGradient>
<linearGradient id="paint28_linear" x1="151.383" y1="126.55" x2="147.654" y2="126.548" gradientUnits="userSpaceOnUse">
<stop stop-color="#383E4C"/>
<stop offset="0.52" stop-color="#828591"/>
<stop offset="1" stop-color="#383E4C"/>
</linearGradient>
<linearGradient id="paint29_linear" x1="151.383" y1="128.385" x2="147.654" y2="128.383" gradientUnits="userSpaceOnUse">
<stop stop-color="#383E4C"/>
<stop offset="0.52" stop-color="#828591"/>
<stop offset="1" stop-color="#383E4C"/>
</linearGradient>
<linearGradient id="paint30_linear" x1="146.353" y1="193.911" x2="153.572" y2="160.767" gradientUnits="userSpaceOnUse">
<stop stop-color="#3654A5"/>
<stop offset="1" stop-color="#5781C1"/>
</linearGradient>
<linearGradient id="paint31_linear" x1="152.484" y1="183.069" x2="156.856" y2="183.067" gradientUnits="userSpaceOnUse">
<stop stop-color="#5F94CE"/>
<stop offset="1" stop-color="#25409A"/>
</linearGradient>
<linearGradient id="paint32_linear" x1="155.232" y1="198.075" x2="155.232" y2="168.419" gradientUnits="userSpaceOnUse">
<stop stop-color="#5781C1"/>
<stop offset="1" stop-color="#AADDDD"/>
</linearGradient>
<linearGradient id="paint33_linear" x1="146.274" y1="169.84" x2="158.417" y2="169.838" gradientUnits="userSpaceOnUse">
<stop stop-color="#140C4F"/>
<stop offset="1" stop-color="#5781C1"/>
</linearGradient>
<linearGradient id="paint34_linear" x1="146.274" y1="168.935" x2="158.427" y2="168.934" gradientUnits="userSpaceOnUse">
<stop stop-color="#140C4F"/>
<stop offset="1" stop-color="#5781C1"/>
</linearGradient>
<linearGradient id="paint35_linear" x1="150.276" y1="194.264" x2="150.275" y2="168.334" gradientUnits="userSpaceOnUse">
<stop stop-color="#3654A5"/>
<stop offset="1" stop-color="#FBFDFF"/>
</linearGradient>
<linearGradient id="paint36_linear" x1="148.285" y1="163.516" x2="148.281" y2="144.708" gradientUnits="userSpaceOnUse">
<stop stop-color="#3654A5"/>
<stop offset="1" stop-color="#FBFDFF"/>
</linearGradient>
<linearGradient id="paint37_linear" x1="151.262" y1="196.804" x2="151.536" y2="195.975" gradientUnits="userSpaceOnUse">
<stop stop-color="#25409A"/>
<stop offset="1" stop-color="#5F94CE"/>
</linearGradient>
<linearGradient id="paint38_linear" x1="151.527" y1="145.629" x2="150.393" y2="145.627" gradientUnits="userSpaceOnUse">
<stop stop-color="#383E4C"/>
<stop offset="1"/>
</linearGradient>
<linearGradient id="paint39_linear" x1="146.746" y1="170.037" x2="155.496" y2="170.037" gradientUnits="userSpaceOnUse">
<stop stop-color="#140C4F"/>
<stop offset="1" stop-color="#ADB2C0"/>
</linearGradient>
<linearGradient id="paint40_linear" x1="150.393" y1="178.02" x2="150.391" y2="168.486" gradientUnits="userSpaceOnUse">
<stop stop-color="#313092"/>
<stop offset="1" stop-color="#5F94CE"/>
</linearGradient>
<linearGradient id="paint41_linear" x1="150.51" y1="178.02" x2="150.508" y2="168.47" gradientUnits="userSpaceOnUse">
<stop stop-color="#3D0000"/>
<stop offset="1" stop-color="#794503"/>
</linearGradient>
<linearGradient id="paint42_linear" x1="150.702" y1="178.021" x2="150.699" y2="167.41" gradientUnits="userSpaceOnUse">
<stop stop-color="#EF4423"/>
<stop offset="1" stop-color="#E4E526"/>
</linearGradient>
<linearGradient id="paint43_linear" x1="150.686" y1="175.502" x2="150.328" y2="169.158" gradientUnits="userSpaceOnUse">
<stop stop-color="#EF4423"/>
<stop offset="1" stop-color="white"/>
</linearGradient>
<linearGradient id="paint44_linear" x1="150.393" y1="192.706" x2="150.391" y2="183.172" gradientUnits="userSpaceOnUse">
<stop stop-color="#313092"/>
<stop offset="1" stop-color="#5F94CE"/>
</linearGradient>
<linearGradient id="paint45_linear" x1="150.51" y1="192.706" x2="150.508" y2="183.155" gradientUnits="userSpaceOnUse">
<stop stop-color="#3D0000"/>
<stop offset="1" stop-color="#794503"/>
</linearGradient>
<linearGradient id="paint46_linear" x1="150.702" y1="192.706" x2="150.699" y2="182.095" gradientUnits="userSpaceOnUse">
<stop stop-color="#EF4423"/>
<stop offset="1" stop-color="#E4E526"/>
</linearGradient>
<linearGradient id="paint47_linear" x1="150.686" y1="190.187" x2="150.328" y2="183.843" gradientUnits="userSpaceOnUse">
<stop stop-color="#EF4423"/>
<stop offset="1" stop-color="white"/>
</linearGradient>
<clipPath id="clip0">
<rect x="69.0431" y="96.913" width="132.383" height="147.488" fill="white"/>
</clipPath>
</defs>
</svg>
