<svg width="270" height="370" viewBox="0 0 270 370" fill="none" xmlns="http://www.w3.org/2000/svg">
<g clip-path="url(#clip0)">
<path fill-rule="evenodd" clip-rule="evenodd" d="M112.031 121.723C112.031 124.865 112.031 139.139 112.031 142.587C112.031 144.262 110.563 147.335 110.563 145.66C110.563 147.335 109.096 144.248 109.096 142.587C109.096 139.139 109.096 124.865 109.096 121.723C109.096 119.217 112.031 119.217 112.031 121.723Z" fill="url(#paint0_linear)"/>
<path fill-rule="evenodd" clip-rule="evenodd" d="M113.498 121.723V142.587C113.498 143.791 112.903 145.549 112.405 146.422C112.225 146.726 112.031 146.989 111.837 147.169C111.796 147.197 111.768 147.225 111.726 147.252C111.339 147.571 110.951 147.723 110.563 147.682C110.148 147.723 109.719 147.543 109.29 147.169C109.082 146.989 108.888 146.726 108.722 146.422C108.224 145.549 107.628 143.791 107.628 142.587V121.723C107.628 120.2 108.362 119.175 109.29 118.691C109.691 118.483 110.134 118.372 110.563 118.372C110.993 118.372 111.436 118.483 111.837 118.691C112.765 119.175 113.498 120.186 113.498 121.723ZM112.031 121.723C112.031 124.865 112.031 139.139 112.031 142.587C112.031 144.262 110.563 147.335 110.563 145.66C110.563 147.335 109.096 144.248 109.096 142.587C109.096 139.139 109.096 124.865 109.096 121.723C109.096 119.217 112.031 119.217 112.031 121.723ZM111.159 145.66L111.283 145.549L111.159 145.66ZM111.823 145.37C111.768 145.48 111.56 145.536 111.297 145.549L111.173 145.66H112.017C111.962 145.619 111.879 145.494 111.823 145.37Z" fill="black"/>
<path fill-rule="evenodd" clip-rule="evenodd" d="M111.228 121.723C111.228 124.865 111.228 139.139 111.228 142.587C111.228 144.262 110.563 147.335 110.563 145.66C110.563 147.335 109.899 144.248 109.899 142.587C109.899 139.139 109.899 124.865 109.899 121.723C109.885 119.217 111.228 119.217 111.228 121.723Z" fill="url(#paint1_linear)"/>
<path fill-rule="evenodd" clip-rule="evenodd" d="M109.096 124.478C110.217 124.478 110.203 125.544 110.203 126.638V142.365H109.885V126.624C109.885 125.751 109.968 124.838 109.082 124.838V124.478H109.096Z" fill="#120801"/>
<path fill-rule="evenodd" clip-rule="evenodd" d="M117.444 137.893C116.046 139.236 114.648 140.579 113.249 141.922C112.806 142.338 109.622 142.767 109.179 143.182C108.805 143.542 108.611 143.985 108.611 144.511C108.611 147.322 108.611 146.463 108.611 149.274C108.611 149.758 111.366 153.898 111.366 154.383C111.366 165.569 111.366 176.797 111.366 187.887C111.366 189.423 113.138 190.282 114.343 189.327L115.187 188.648C115.644 189.687 117.029 190.116 118.012 189.327L123.522 184.924C123.979 184.564 124.214 184.066 124.214 183.484C124.214 167.646 124.214 155.213 124.214 139.236C124.214 137.617 122.276 136.786 121.113 137.907L120.435 138.558C119.992 137.409 118.441 136.952 117.444 137.893Z" fill="url(#paint2_linear)"/>
<path fill-rule="evenodd" clip-rule="evenodd" d="M117.444 137.893C116.046 139.236 114.648 140.579 113.249 141.922C112.806 142.338 109.622 142.767 109.179 143.182C108.805 143.542 108.611 143.985 108.611 144.511C108.611 147.322 108.611 146.463 108.611 149.274C108.611 149.758 111.366 153.898 111.366 154.382C111.366 165.569 111.366 176.797 111.366 187.887C111.366 189.423 113.138 190.282 114.343 189.326L115.187 188.648C115.644 189.686 117.029 190.116 118.012 189.326L123.522 184.924C123.979 184.564 124.214 184.065 124.214 183.484C124.214 167.646 124.214 155.213 124.214 139.236C124.214 137.616 122.276 136.786 121.113 137.907L120.435 138.558C119.992 137.409 118.441 136.952 117.444 137.893ZM112.239 140.87L116.433 136.841C116.78 136.509 117.153 136.274 117.555 136.121C118.178 135.886 118.856 135.858 119.479 136.01C119.867 136.107 120.227 136.26 120.559 136.481C121.127 136.094 121.764 135.914 122.387 135.914C122.83 135.914 123.273 136.01 123.688 136.19C124.103 136.37 124.477 136.62 124.782 136.952C125.336 137.533 125.696 138.309 125.696 139.236V183.484C125.696 183.982 125.585 184.467 125.377 184.91C125.169 185.353 124.851 185.741 124.463 186.059L119.022 190.379C118.995 190.406 118.967 190.434 118.939 190.462C118.718 190.642 118.469 190.794 118.219 190.905C117.513 191.223 116.752 191.265 116.06 191.085C115.7 190.988 115.354 190.836 115.049 190.628C114.468 191.016 113.845 191.196 113.222 191.196C112.723 191.196 112.225 191.085 111.782 190.863C111.339 190.656 110.937 190.337 110.633 189.949C110.19 189.396 109.913 188.69 109.913 187.887V154.369C109.913 154.202 109.331 153.538 108.736 152.555C107.947 151.226 107.144 149.883 107.144 149.26V144.497C107.144 144.04 107.227 143.611 107.407 143.196C107.573 142.794 107.836 142.434 108.168 142.116C108.68 141.631 109.788 141.368 110.896 141.119C111.602 140.967 112.169 140.939 112.239 140.87Z" fill="black"/>
<path opacity="0.5" fill-rule="evenodd" clip-rule="evenodd" d="M109.179 143.182C108.805 143.542 108.611 143.985 108.611 144.511C108.611 147.322 108.611 146.463 108.611 149.274C108.611 149.564 109.594 151.157 110.397 152.5C108.653 149.412 109.179 145.951 109.179 143.182Z" fill="url(#paint3_linear)"/>
<path opacity="0.5" fill-rule="evenodd" clip-rule="evenodd" d="M113.249 141.922C112.806 142.338 109.622 142.767 109.179 143.182C110.48 142.905 112.488 142.255 112.488 147.045C112.488 155.172 111.353 153.912 110.079 151.96C110.743 153.067 111.38 154.147 111.38 154.369C113.18 154.369 113.249 144.968 113.249 141.922Z" fill="url(#paint4_linear)"/>
<path opacity="0.5" fill-rule="evenodd" clip-rule="evenodd" d="M118.026 189.313L123.536 184.91C123.993 184.55 124.228 184.052 124.228 183.47C124.228 167.632 124.228 155.199 124.228 139.222C124.228 137.603 122.29 136.772 121.127 137.893L120.448 138.544V183.65C118.704 185.311 116.96 186.959 115.215 188.62C115.797 189.839 117.112 190.046 118.026 189.313Z" fill="url(#paint5_linear)"/>
<path opacity="0.5" fill-rule="evenodd" clip-rule="evenodd" d="M114.357 189.313C115.367 188.468 118.829 185.505 119.867 184.675C120.324 184.315 120.559 183.816 120.559 183.235C120.559 167.396 120.559 155.199 120.559 139.222C120.559 137.603 118.621 136.772 117.458 137.893C117.236 138.115 117.001 138.336 116.78 138.544C118.095 138.046 119.632 135.484 119.632 159.837C119.632 175.814 119.507 181.49 118.718 184.19C118.635 184.453 113.803 189.825 111.879 189.105C112.432 189.769 113.623 189.922 114.357 189.313Z" fill="url(#paint6_linear)"/>
<path opacity="0.5" fill-rule="evenodd" clip-rule="evenodd" d="M118.026 189.313C119.036 188.468 122.581 185.644 123.619 184.813C124.076 184.453 124.228 183.802 124.228 183.235C124.228 167.396 124.228 155.199 124.228 139.222C124.228 137.603 122.29 136.772 121.127 137.893C120.905 138.115 120.67 138.336 120.448 138.544C121.75 138.046 123.3 135.484 123.3 159.837C123.3 175.814 123.3 174.416 123.3 183.83C123.3 184.107 117.472 189.825 115.534 189.105C116.101 189.769 117.292 189.922 118.026 189.313Z" fill="url(#paint7_linear)"/>
<path fill-rule="evenodd" clip-rule="evenodd" d="M115.977 148.332V150.118C115.977 150.561 116.364 150.644 116.752 150.506C117.14 150.367 117.527 150.021 117.527 149.578V147.792C117.527 147.349 117.14 147.266 116.752 147.405C116.364 147.543 115.977 147.903 115.977 148.332Z" fill="#00045D"/>
<path fill-rule="evenodd" clip-rule="evenodd" d="M116.032 148.374V149.938C116.032 150.326 116.295 150.423 116.544 150.326C116.807 150.229 117.057 149.952 117.057 149.564V148C117.057 147.612 116.794 147.515 116.544 147.612C116.295 147.709 116.032 147.986 116.032 148.374Z" fill="url(#paint8_linear)"/>
<path fill-rule="evenodd" clip-rule="evenodd" d="M116.046 148.36V149.717C116.046 150.049 116.212 150.146 116.392 150.091C116.558 150.035 116.738 149.8 116.738 149.468V148.111C116.738 147.778 116.572 147.682 116.392 147.737C116.212 147.806 116.046 148.028 116.046 148.36Z" fill="url(#paint9_linear)"/>
<path opacity="0.5" fill-rule="evenodd" clip-rule="evenodd" d="M116.032 148.374C116.323 148.028 116.544 148.637 116.544 150.34C116.807 150.243 117.057 149.966 117.057 149.578C116.752 149.938 116.544 149.232 116.544 147.612C116.295 147.709 116.032 147.986 116.032 148.374Z" fill="url(#paint10_linear)"/>
<path opacity="0.5" fill-rule="evenodd" clip-rule="evenodd" d="M121.113 137.893C122.705 142.13 123.287 183.844 118.829 188.62L123.356 185.035C123.743 184.73 124.214 184.204 124.214 183.47C124.214 167.203 124.214 155.49 124.214 139.222C124.228 137.603 122.29 136.786 121.113 137.893Z" fill="url(#paint11_linear)"/>
<path fill-rule="evenodd" clip-rule="evenodd" d="M115.16 139.915C115.16 139.818 115.243 139.735 115.34 139.735C115.437 139.735 115.52 139.818 115.52 139.915V150.174C115.52 150.201 115.506 150.229 115.506 150.257L111.546 160.253C111.505 160.35 111.408 160.391 111.311 160.35C111.214 160.308 111.173 160.211 111.214 160.114L115.174 150.146V139.915H115.16Z" fill="#00045D"/>
<path fill-rule="evenodd" clip-rule="evenodd" d="M115.312 160.377C115.312 160.073 115.561 159.823 115.866 159.823C116.17 159.823 116.42 160.073 116.42 160.377V180.646C116.42 180.95 116.17 181.2 115.866 181.2C115.561 181.2 115.312 180.95 115.312 180.646V160.377Z" fill="url(#paint12_linear)"/>
<path fill-rule="evenodd" clip-rule="evenodd" d="M115.866 160.377C115.866 160.28 115.99 160.197 116.143 160.197C116.295 160.197 116.42 160.28 116.42 160.377V180.646C116.42 180.743 116.295 180.826 116.143 180.826C115.99 180.826 115.866 180.743 115.866 180.646V160.377Z" fill="#00045D"/>
<path fill-rule="evenodd" clip-rule="evenodd" d="M113.429 153.787H115.644C116.129 153.787 116.544 154.272 116.807 155.047C117.029 155.725 117.181 156.639 117.181 157.65C117.181 158.66 117.043 159.588 116.807 160.253C116.544 161.028 116.143 161.512 115.644 161.512H113.429C112.945 161.512 112.529 161.028 112.266 160.253C112.045 159.574 111.892 158.66 111.892 157.65C111.892 156.639 112.031 155.712 112.266 155.047C112.543 154.258 112.945 153.787 113.429 153.787Z" fill="#000008"/>
<path fill-rule="evenodd" clip-rule="evenodd" d="M113.332 154.105H115.547C116.212 154.105 116.752 155.684 116.752 157.636C116.752 159.588 116.212 161.166 115.547 161.166H113.332C112.668 161.166 112.128 159.588 112.128 157.636C112.128 155.698 112.668 154.105 113.332 154.105Z" fill="url(#paint13_linear)"/>
<path fill-rule="evenodd" clip-rule="evenodd" d="M113.291 154.105C114.052 154.105 114.675 155.684 114.675 157.636C114.675 159.588 114.052 161.166 113.291 161.166C112.529 161.166 111.906 159.588 111.906 157.636C111.906 155.698 112.529 154.105 113.291 154.105Z" fill="url(#paint14_linear)"/>
<path fill-rule="evenodd" clip-rule="evenodd" d="M113.097 155.296C113.609 155.296 114.011 156.348 114.011 157.65C114.011 158.951 113.595 160.003 113.097 160.003C112.585 160.003 112.183 158.951 112.183 157.65C112.183 156.348 112.598 155.296 113.097 155.296Z" fill="url(#paint15_linear)"/>
<path d="M113.263 159.616C113.684 159.616 114.025 158.736 114.025 157.65C114.025 156.564 113.684 155.684 113.263 155.684C112.843 155.684 112.502 156.564 112.502 157.65C112.502 158.736 112.843 159.616 113.263 159.616Z" fill="#120801"/>
<path fill-rule="evenodd" clip-rule="evenodd" d="M113.429 164.794H115.644C116.129 164.794 116.544 165.278 116.807 166.053C117.029 166.732 117.181 167.646 117.181 168.656C117.181 169.667 117.043 170.595 116.807 171.259C116.544 172.034 116.143 172.519 115.644 172.519H113.429C112.945 172.519 112.529 172.034 112.266 171.259C112.045 170.581 111.892 169.667 111.892 168.656C111.892 167.646 112.031 166.718 112.266 166.053C112.543 165.278 112.945 164.794 113.429 164.794Z" fill="#000008"/>
<path fill-rule="evenodd" clip-rule="evenodd" d="M113.332 165.126H115.547C116.212 165.126 116.752 166.704 116.752 168.656C116.752 170.608 116.212 172.187 115.547 172.187H113.332C112.668 172.187 112.128 170.608 112.128 168.656C112.128 166.704 112.668 165.126 113.332 165.126Z" fill="url(#paint16_linear)"/>
<path fill-rule="evenodd" clip-rule="evenodd" d="M113.291 165.126C114.052 165.126 114.675 166.704 114.675 168.656C114.675 170.608 114.052 172.187 113.291 172.187C112.529 172.187 111.906 170.608 111.906 168.656C111.906 166.704 112.529 165.126 113.291 165.126Z" fill="url(#paint17_linear)"/>
<path fill-rule="evenodd" clip-rule="evenodd" d="M113.097 166.303C113.609 166.303 114.011 167.355 114.011 168.656C114.011 169.958 113.595 171.01 113.097 171.01C112.585 171.01 112.183 169.958 112.183 168.656C112.183 167.355 112.598 166.303 113.097 166.303Z" fill="url(#paint18_linear)"/>
<path fill-rule="evenodd" clip-rule="evenodd" d="M113.263 166.704C113.692 166.704 114.025 167.576 114.025 168.67C114.025 169.75 113.678 170.636 113.263 170.636C112.834 170.636 112.502 169.764 112.502 168.67C112.488 167.576 112.834 166.704 113.263 166.704Z" fill="#120801"/>
<path fill-rule="evenodd" clip-rule="evenodd" d="M113.429 175.814H115.644C116.129 175.814 116.544 176.299 116.807 177.074C117.029 177.752 117.181 178.666 117.181 179.677C117.181 180.687 117.043 181.615 116.807 182.28C116.544 183.055 116.143 183.539 115.644 183.539H113.429C112.945 183.539 112.529 183.055 112.266 182.28C112.045 181.601 111.892 180.687 111.892 179.677C111.892 178.666 112.031 177.739 112.266 177.074C112.543 176.285 112.945 175.814 113.429 175.814Z" fill="#000008"/>
<path fill-rule="evenodd" clip-rule="evenodd" d="M113.332 176.146H115.547C116.212 176.146 116.752 177.725 116.752 179.677C116.752 181.629 116.212 183.207 115.547 183.207H113.332C112.668 183.207 112.128 181.629 112.128 179.677C112.128 177.725 112.668 176.146 113.332 176.146Z" fill="url(#paint19_linear)"/>
<path fill-rule="evenodd" clip-rule="evenodd" d="M113.291 176.146C114.052 176.146 114.675 177.725 114.675 179.677C114.675 181.629 114.052 183.207 113.291 183.207C112.529 183.207 111.906 181.629 111.906 179.677C111.906 177.725 112.529 176.146 113.291 176.146Z" fill="url(#paint20_linear)"/>
<path fill-rule="evenodd" clip-rule="evenodd" d="M113.097 177.323C113.609 177.323 114.011 178.375 114.011 179.677C114.011 180.978 113.595 182.03 113.097 182.03C112.585 182.03 112.183 180.978 112.183 179.677C112.183 178.375 112.598 177.323 113.097 177.323Z" fill="url(#paint21_linear)"/>
<path d="M113.263 181.643C113.684 181.643 114.025 180.763 114.025 179.677C114.025 178.591 113.684 177.711 113.263 177.711C112.843 177.711 112.502 178.591 112.502 179.677C112.502 180.763 112.843 181.643 113.263 181.643Z" fill="#120801"/>
<path fill-rule="evenodd" clip-rule="evenodd" d="M115.326 188.773C115.257 188.842 115.132 188.842 115.063 188.759C114.994 188.69 114.994 188.565 115.077 188.496L119.715 184.259C119.895 184.093 120.033 183.913 120.116 183.706C120.199 183.498 120.255 183.276 120.255 183.041V138.558C120.255 138.461 120.338 138.378 120.435 138.378C120.532 138.378 120.615 138.461 120.615 138.558V183.041C120.615 183.332 120.559 183.609 120.448 183.858C120.338 184.107 120.172 184.329 119.964 184.536L115.326 188.773Z" fill="#00045D"/>
<path fill-rule="evenodd" clip-rule="evenodd" d="M115.949 140.662C115.949 140.358 116.115 140.012 116.323 139.887C116.53 139.762 116.683 139.901 116.683 140.205V146.062C116.683 146.366 116.516 146.712 116.323 146.837C116.115 146.962 115.949 146.823 115.949 146.519V140.662Z" fill="url(#paint22_linear)"/>
<path fill-rule="evenodd" clip-rule="evenodd" d="M116.198 140.51C116.198 140.302 116.309 140.081 116.447 139.998C116.586 139.915 116.696 140.012 116.696 140.219V146.062C116.696 146.269 116.586 146.491 116.447 146.574C116.309 146.657 116.198 146.56 116.198 146.352V140.51Z" fill="#00045D"/>
<path fill-rule="evenodd" clip-rule="evenodd" d="M114.108 142.49C114.108 142.185 114.274 141.839 114.481 141.714C114.689 141.59 114.841 141.728 114.841 142.033V147.889C114.841 148.194 114.675 148.54 114.481 148.665C114.274 148.789 114.108 148.651 114.108 148.346V142.49Z" fill="url(#paint23_linear)"/>
<path fill-rule="evenodd" clip-rule="evenodd" d="M114.357 142.337C114.357 142.13 114.467 141.908 114.606 141.825C114.744 141.742 114.855 141.839 114.855 142.047V147.903C114.855 148.111 114.744 148.332 114.606 148.415C114.467 148.498 114.357 148.401 114.357 148.194V142.337Z" fill="#00045D"/>
<path fill-rule="evenodd" clip-rule="evenodd" d="M116.863 139.735C116.863 139.43 117.029 139.084 117.236 138.959C117.444 138.835 117.596 138.973 117.596 139.278V145.134C117.596 145.439 117.43 145.785 117.236 145.909C117.029 146.034 116.863 145.896 116.863 145.591V139.735Z" fill="url(#paint24_linear)"/>
<path fill-rule="evenodd" clip-rule="evenodd" d="M117.112 139.596C117.112 139.389 117.223 139.167 117.361 139.084C117.499 139.001 117.61 139.098 117.61 139.306V145.162C117.61 145.369 117.499 145.591 117.361 145.674C117.223 145.757 117.112 145.66 117.112 145.453V139.596Z" fill="#00045D"/>
<path fill-rule="evenodd" clip-rule="evenodd" d="M158.438 121.723C158.438 124.865 158.438 139.139 158.438 142.587C158.438 144.262 159.906 147.335 159.906 145.66C159.906 147.335 161.373 144.248 161.373 142.587C161.373 139.139 161.373 124.865 161.373 121.723C161.387 119.217 158.438 119.217 158.438 121.723Z" fill="url(#paint25_linear)"/>
<path fill-rule="evenodd" clip-rule="evenodd" d="M158.438 121.723C158.438 124.865 158.438 139.139 158.438 142.587C158.438 144.262 159.906 147.335 159.906 145.66C159.906 147.335 161.373 144.248 161.373 142.587C161.373 139.139 161.373 124.865 161.373 121.723C161.387 119.217 158.438 119.217 158.438 121.723ZM156.971 142.587V121.723C156.971 120.2 157.705 119.175 158.632 118.691C159.034 118.483 159.477 118.372 159.906 118.372C160.335 118.372 160.778 118.483 161.18 118.691C162.121 119.175 162.841 120.2 162.841 121.723V142.587C162.841 143.791 162.246 145.549 161.747 146.422C161.567 146.726 161.373 146.989 161.18 147.169C160.75 147.557 160.321 147.737 159.906 147.682C159.518 147.723 159.131 147.571 158.743 147.252C158.701 147.225 158.674 147.197 158.632 147.169C158.425 146.989 158.231 146.726 158.065 146.422C157.566 145.536 156.971 143.791 156.971 142.587ZM159.186 145.549L159.311 145.66L159.186 145.549ZM159.186 145.549C158.923 145.536 158.701 145.48 158.66 145.37C158.591 145.494 158.521 145.619 158.48 145.66H159.324L159.186 145.549Z" fill="black"/>
<path fill-rule="evenodd" clip-rule="evenodd" d="M159.241 121.723C159.241 124.865 159.241 139.139 159.241 142.587C159.241 144.262 159.906 147.335 159.906 145.66C159.906 147.335 160.57 144.248 160.57 142.587C160.57 139.139 160.57 124.865 160.57 121.723C160.584 119.217 159.241 119.217 159.241 121.723Z" fill="url(#paint26_linear)"/>
<path fill-rule="evenodd" clip-rule="evenodd" d="M161.387 124.478C160.266 124.478 160.28 125.544 160.28 126.638V142.365H160.584V126.624C160.584 125.751 160.501 124.838 161.387 124.838V124.478Z" fill="#120801"/>
<path fill-rule="evenodd" clip-rule="evenodd" d="M153.025 137.893C154.423 139.236 155.822 140.579 157.22 141.922C157.663 142.337 160.847 142.767 161.29 143.182C161.664 143.542 161.858 143.985 161.858 144.511C161.858 147.322 161.858 146.463 161.858 149.274C161.858 149.758 159.103 153.898 159.103 154.382C159.103 165.569 159.103 176.797 159.103 187.887C159.103 189.423 157.331 190.282 156.126 189.326L155.282 188.648C154.825 189.686 153.44 190.116 152.457 189.326L146.947 184.924C146.49 184.564 146.255 184.065 146.255 183.484C146.255 167.646 146.255 155.213 146.255 139.236C146.255 137.616 148.193 136.786 149.356 137.907L150.035 138.558C150.491 137.409 152.042 136.952 153.025 137.893Z" fill="url(#paint27_linear)"/>
<path fill-rule="evenodd" clip-rule="evenodd" d="M154.05 136.841L158.244 140.87C158.314 140.939 158.881 140.967 159.587 141.133C160.695 141.396 161.803 141.645 162.315 142.13C162.647 142.448 162.896 142.808 163.076 143.21C163.256 143.611 163.339 144.054 163.339 144.511V149.274C163.339 149.897 162.55 151.24 161.747 152.569C161.166 153.552 160.57 154.216 160.57 154.382V187.887C160.57 188.676 160.293 189.382 159.85 189.95C159.532 190.337 159.131 190.656 158.701 190.863C158.258 191.071 157.774 191.196 157.262 191.196C156.638 191.196 156.015 191.016 155.434 190.628C155.129 190.836 154.783 190.988 154.423 191.085C153.731 191.265 152.97 191.223 152.264 190.905C152.001 190.794 151.765 190.642 151.544 190.462C151.516 190.434 151.488 190.406 151.461 190.379L146.047 186.045C145.646 185.727 145.341 185.339 145.12 184.896C144.912 184.453 144.801 183.969 144.801 183.47V139.223C144.801 138.309 145.161 137.52 145.715 136.938C146.033 136.606 146.407 136.357 146.809 136.177C147.224 135.997 147.667 135.9 148.11 135.9C148.733 135.9 149.37 136.08 149.938 136.467C150.27 136.246 150.63 136.094 151.018 135.997C151.641 135.844 152.319 135.872 152.942 136.107C153.33 136.287 153.703 136.523 154.05 136.841ZM153.025 137.893C154.423 139.236 155.822 140.579 157.22 141.922C157.663 142.338 160.847 142.767 161.29 143.182C161.664 143.542 161.858 143.985 161.858 144.511C161.858 147.322 161.858 146.463 161.858 149.274C161.858 149.758 159.103 153.898 159.103 154.382C159.103 165.569 159.103 176.797 159.103 187.887C159.103 189.423 157.331 190.282 156.126 189.327L155.282 188.648C154.825 189.687 153.44 190.116 152.457 189.327L146.947 184.924C146.49 184.564 146.255 184.066 146.255 183.484C146.255 167.646 146.255 155.213 146.255 139.236C146.255 137.617 148.193 136.786 149.356 137.907L150.035 138.558C150.491 137.409 152.042 136.952 153.025 137.893Z" fill="black"/>
<path opacity="0.5" fill-rule="evenodd" clip-rule="evenodd" d="M161.29 143.182C161.664 143.542 161.858 143.985 161.858 144.511C161.858 147.322 161.858 146.463 161.858 149.274C161.858 149.565 160.875 151.157 160.072 152.5C161.816 149.412 161.29 145.951 161.29 143.182Z" fill="url(#paint28_linear)"/>
<path opacity="0.5" fill-rule="evenodd" clip-rule="evenodd" d="M157.22 141.922C157.663 142.338 160.847 142.767 161.29 143.182C159.989 142.905 157.981 142.255 157.981 147.045C157.981 155.172 159.117 153.912 160.39 151.96C159.726 153.067 159.089 154.147 159.089 154.369C157.303 154.369 157.22 144.968 157.22 141.922Z" fill="url(#paint29_linear)"/>
<path opacity="0.5" fill-rule="evenodd" clip-rule="evenodd" d="M152.444 189.313L146.933 184.91C146.476 184.55 146.241 184.052 146.241 183.47C146.241 167.632 146.241 155.199 146.241 139.223C146.241 137.603 148.179 136.772 149.342 137.893L150.021 138.544V183.65C151.765 185.312 153.51 186.959 155.254 188.62C154.686 189.839 153.357 190.046 152.444 189.313Z" fill="url(#paint30_linear)"/>
<path opacity="0.5" fill-rule="evenodd" clip-rule="evenodd" d="M156.126 189.313C155.116 188.468 151.654 185.505 150.616 184.675C150.159 184.315 149.924 183.816 149.924 183.235C149.924 167.397 149.924 155.199 149.924 139.223C149.924 137.603 151.862 136.772 153.025 137.893C153.247 138.115 153.482 138.336 153.703 138.544C152.388 138.046 150.851 135.484 150.851 159.837C150.851 175.814 150.976 181.49 151.765 184.19C151.848 184.453 156.68 189.825 158.604 189.105C158.051 189.77 156.86 189.922 156.126 189.313Z" fill="url(#paint31_linear)"/>
<path opacity="0.5" fill-rule="evenodd" clip-rule="evenodd" d="M152.444 189.313C151.433 188.468 147.889 185.644 146.85 184.813C146.393 184.453 146.241 183.803 146.241 183.235C146.241 167.397 146.241 155.199 146.241 139.223C146.241 137.603 148.179 136.772 149.342 137.893C149.564 138.115 149.799 138.336 150.021 138.544C148.705 138.046 147.169 135.484 147.169 159.837C147.169 175.814 147.169 174.416 147.169 183.83C147.169 184.107 152.997 189.825 154.936 189.105C154.382 189.77 153.191 189.922 152.444 189.313Z" fill="url(#paint32_linear)"/>
<path fill-rule="evenodd" clip-rule="evenodd" d="M154.493 148.332V150.118C154.493 150.561 154.105 150.644 153.717 150.506C153.33 150.368 152.942 150.021 152.942 149.578V147.792C152.942 147.349 153.33 147.266 153.717 147.405C154.105 147.543 154.493 147.903 154.493 148.332Z" fill="#00045D"/>
<path fill-rule="evenodd" clip-rule="evenodd" d="M154.437 148.374V149.938C154.437 150.326 154.174 150.423 153.925 150.326C153.662 150.229 153.413 149.952 153.413 149.565V148C153.413 147.612 153.676 147.516 153.925 147.612C154.188 147.709 154.437 147.986 154.437 148.374Z" fill="url(#paint33_linear)"/>
<path fill-rule="evenodd" clip-rule="evenodd" d="M154.437 148.36V149.717C154.437 150.049 154.271 150.146 154.091 150.091C153.925 150.035 153.745 149.8 153.745 149.468V148.111C153.745 147.779 153.911 147.682 154.091 147.737C154.257 147.806 154.437 148.028 154.437 148.36Z" fill="url(#paint34_linear)"/>
<path opacity="0.5" fill-rule="evenodd" clip-rule="evenodd" d="M154.437 148.374C154.146 148.028 153.925 148.637 153.925 150.34C153.662 150.243 153.413 149.966 153.413 149.578C153.717 149.938 153.925 149.232 153.925 147.612C154.188 147.709 154.437 147.986 154.437 148.374Z" fill="url(#paint35_linear)"/>
<path opacity="0.5" fill-rule="evenodd" clip-rule="evenodd" d="M149.356 137.893C147.764 142.13 147.183 183.844 151.641 188.62L147.113 185.035C146.726 184.73 146.255 184.204 146.255 183.47C146.255 167.203 146.255 155.49 146.255 139.222C146.255 137.603 148.193 136.786 149.356 137.893Z" fill="url(#paint36_linear)"/>
<path fill-rule="evenodd" clip-rule="evenodd" d="M155.309 139.915C155.309 139.818 155.226 139.735 155.129 139.735C155.033 139.735 154.949 139.818 154.949 139.915V150.174C154.949 150.201 154.963 150.229 154.963 150.257L158.937 160.253C158.978 160.35 159.075 160.391 159.172 160.35C159.269 160.308 159.311 160.211 159.269 160.114L155.309 150.146V139.915V139.915Z" fill="#00045D"/>
<path fill-rule="evenodd" clip-rule="evenodd" d="M155.171 160.377C155.171 160.073 154.922 159.823 154.617 159.823C154.313 159.823 154.063 160.073 154.063 160.377V180.646C154.063 180.95 154.313 181.2 154.617 181.2C154.922 181.2 155.171 180.95 155.171 180.646V160.377Z" fill="url(#paint37_linear)"/>
<path fill-rule="evenodd" clip-rule="evenodd" d="M154.617 160.377C154.617 160.28 154.493 160.197 154.34 160.197C154.188 160.197 154.063 160.28 154.063 160.377V180.646C154.063 180.743 154.188 180.826 154.34 180.826C154.493 180.826 154.617 180.743 154.617 180.646V160.377Z" fill="#00045D"/>
<path fill-rule="evenodd" clip-rule="evenodd" d="M157.04 153.787H154.825C154.34 153.787 153.925 154.272 153.662 155.047C153.44 155.725 153.288 156.639 153.288 157.65C153.288 158.66 153.427 159.588 153.662 160.253C153.925 161.028 154.326 161.512 154.825 161.512H157.04C157.525 161.512 157.94 161.028 158.203 160.253C158.424 159.574 158.577 158.66 158.577 157.65C158.577 156.639 158.438 155.712 158.203 155.047C157.94 154.258 157.525 153.787 157.04 153.787Z" fill="#000008"/>
<path fill-rule="evenodd" clip-rule="evenodd" d="M157.151 154.106H154.936C154.271 154.106 153.731 155.684 153.731 157.636C153.731 159.588 154.271 161.166 154.936 161.166H157.151C157.815 161.166 158.355 159.588 158.355 157.636C158.341 155.698 157.802 154.106 157.151 154.106Z" fill="url(#paint38_linear)"/>
<path fill-rule="evenodd" clip-rule="evenodd" d="M157.192 154.106C156.431 154.106 155.808 155.684 155.808 157.636C155.808 159.588 156.431 161.166 157.192 161.166C157.954 161.166 158.577 159.588 158.577 157.636C158.577 155.698 157.954 154.106 157.192 154.106Z" fill="url(#paint39_linear)"/>
<path fill-rule="evenodd" clip-rule="evenodd" d="M157.372 155.296C156.86 155.296 156.458 156.348 156.458 157.65C156.458 158.951 156.874 160.003 157.372 160.003C157.884 160.003 158.286 158.951 158.286 157.65C158.3 156.348 157.884 155.296 157.372 155.296Z" fill="url(#paint40_linear)"/>
<path fill-rule="evenodd" clip-rule="evenodd" d="M157.22 155.684C156.791 155.684 156.458 156.556 156.458 157.65C156.458 158.73 156.805 159.616 157.22 159.616C157.649 159.616 157.981 158.744 157.981 157.65C157.981 156.556 157.649 155.684 157.22 155.684Z" fill="#120801"/>
<path fill-rule="evenodd" clip-rule="evenodd" d="M157.04 164.794H154.825C154.34 164.794 153.925 165.278 153.662 166.054C153.44 166.732 153.288 167.646 153.288 168.656C153.288 169.667 153.427 170.595 153.662 171.259C153.925 172.034 154.326 172.519 154.825 172.519H157.04C157.525 172.519 157.94 172.034 158.203 171.259C158.424 170.581 158.577 169.667 158.577 168.656C158.577 167.646 158.438 166.718 158.203 166.054C157.94 165.278 157.525 164.794 157.04 164.794Z" fill="#000008"/>
<path fill-rule="evenodd" clip-rule="evenodd" d="M157.151 165.126H154.936C154.271 165.126 153.731 166.704 153.731 168.656C153.731 170.608 154.271 172.187 154.936 172.187H157.151C157.815 172.187 158.355 170.608 158.355 168.656C158.341 166.704 157.802 165.126 157.151 165.126Z" fill="url(#paint41_linear)"/>
<path fill-rule="evenodd" clip-rule="evenodd" d="M157.192 165.126C156.431 165.126 155.808 166.704 155.808 168.656C155.808 170.608 156.431 172.187 157.192 172.187C157.954 172.187 158.577 170.608 158.577 168.656C158.577 166.704 157.954 165.126 157.192 165.126Z" fill="url(#paint42_linear)"/>
<path fill-rule="evenodd" clip-rule="evenodd" d="M157.372 166.303C156.86 166.303 156.458 167.355 156.458 168.656C156.458 169.958 156.874 171.01 157.372 171.01C157.884 171.01 158.286 169.958 158.286 168.656C158.3 167.355 157.884 166.303 157.372 166.303Z" fill="url(#paint43_linear)"/>
<path fill-rule="evenodd" clip-rule="evenodd" d="M157.22 166.704C156.791 166.704 156.458 167.576 156.458 168.67C156.458 169.75 156.805 170.636 157.22 170.636C157.649 170.636 157.981 169.764 157.981 168.67C157.981 167.576 157.649 166.704 157.22 166.704Z" fill="#120801"/>
<path fill-rule="evenodd" clip-rule="evenodd" d="M157.04 175.814H154.825C154.34 175.814 153.925 176.299 153.662 177.074C153.44 177.752 153.288 178.666 153.288 179.677C153.288 180.687 153.427 181.615 153.662 182.28C153.925 183.055 154.326 183.539 154.825 183.539H157.04C157.525 183.539 157.94 183.055 158.203 182.28C158.424 181.601 158.577 180.687 158.577 179.677C158.577 178.666 158.438 177.739 158.203 177.074C157.94 176.285 157.525 175.814 157.04 175.814Z" fill="#000008"/>
<path fill-rule="evenodd" clip-rule="evenodd" d="M157.151 176.146H154.936C154.271 176.146 153.731 177.725 153.731 179.677C153.731 181.629 154.271 183.207 154.936 183.207H157.151C157.815 183.207 158.355 181.629 158.355 179.677C158.341 177.725 157.802 176.146 157.151 176.146Z" fill="url(#paint44_linear)"/>
<path fill-rule="evenodd" clip-rule="evenodd" d="M157.192 176.146C156.431 176.146 155.808 177.725 155.808 179.677C155.808 181.629 156.431 183.207 157.192 183.207C157.954 183.207 158.577 181.629 158.577 179.677C158.577 177.725 157.954 176.146 157.192 176.146Z" fill="url(#paint45_linear)"/>
<path fill-rule="evenodd" clip-rule="evenodd" d="M157.372 177.323C156.86 177.323 156.458 178.375 156.458 179.677C156.458 180.978 156.874 182.03 157.372 182.03C157.884 182.03 158.286 180.978 158.286 179.677C158.3 178.375 157.884 177.323 157.372 177.323Z" fill="url(#paint46_linear)"/>
<path fill-rule="evenodd" clip-rule="evenodd" d="M157.22 177.711C156.791 177.711 156.458 178.583 156.458 179.677C156.458 180.757 156.805 181.643 157.22 181.643C157.649 181.643 157.981 180.77 157.981 179.677C157.981 178.597 157.649 177.711 157.22 177.711Z" fill="#120801"/>
<path fill-rule="evenodd" clip-rule="evenodd" d="M155.143 188.773C155.213 188.842 155.337 188.842 155.406 188.759C155.476 188.69 155.476 188.565 155.393 188.496L150.755 184.259C150.575 184.093 150.436 183.913 150.353 183.706C150.27 183.498 150.215 183.276 150.215 183.041V138.558C150.215 138.461 150.132 138.378 150.035 138.378C149.938 138.378 149.855 138.461 149.855 138.558V183.041C149.855 183.332 149.91 183.609 150.021 183.858C150.132 184.107 150.298 184.329 150.505 184.536L155.143 188.773Z" fill="#00045D"/>
<path fill-rule="evenodd" clip-rule="evenodd" d="M154.534 140.662C154.534 140.358 154.368 140.012 154.16 139.887C153.953 139.762 153.8 139.901 153.8 140.206V146.062C153.8 146.366 153.967 146.713 154.16 146.837C154.368 146.962 154.534 146.823 154.534 146.519V140.662Z" fill="url(#paint47_linear)"/>
<path fill-rule="evenodd" clip-rule="evenodd" d="M154.285 140.51C154.285 140.302 154.174 140.081 154.036 139.998C153.897 139.915 153.786 140.012 153.786 140.219V146.062C153.786 146.269 153.897 146.491 154.036 146.574C154.174 146.657 154.285 146.56 154.285 146.353V140.51Z" fill="#00045D"/>
<path fill-rule="evenodd" clip-rule="evenodd" d="M156.362 142.49C156.362 142.185 156.195 141.839 155.988 141.714C155.78 141.59 155.628 141.728 155.628 142.033V147.889C155.628 148.194 155.794 148.54 155.988 148.665C156.195 148.789 156.362 148.651 156.362 148.346V142.49Z" fill="url(#paint48_linear)"/>
<path fill-rule="evenodd" clip-rule="evenodd" d="M156.126 142.337C156.126 142.13 156.015 141.908 155.877 141.825C155.739 141.742 155.628 141.839 155.628 142.047V147.903C155.628 148.111 155.739 148.332 155.877 148.415C156.015 148.498 156.126 148.401 156.126 148.194V142.337Z" fill="#00045D"/>
<path fill-rule="evenodd" clip-rule="evenodd" d="M153.606 139.735C153.606 139.43 153.44 139.084 153.233 138.959C153.025 138.835 152.873 138.973 152.873 139.278V145.134C152.873 145.439 153.039 145.785 153.233 145.91C153.44 146.034 153.606 145.896 153.606 145.591V139.735Z" fill="url(#paint49_linear)"/>
<path fill-rule="evenodd" clip-rule="evenodd" d="M153.371 139.596C153.371 139.389 153.26 139.167 153.122 139.084C152.983 139.001 152.873 139.098 152.873 139.306V145.162C152.873 145.37 152.983 145.591 153.122 145.674C153.26 145.757 153.371 145.66 153.371 145.453V139.596Z" fill="#00045D"/>
</g>
<defs>
<linearGradient id="paint0_linear" x1="109.151" y1="132.994" x2="112.035" y2="132.993" gradientUnits="userSpaceOnUse">
<stop stop-color="#383E4C"/>
<stop offset="1" stop-color="white"/>
</linearGradient>
<linearGradient id="paint1_linear" x1="110.561" y1="140.999" x2="110.564" y2="119.841" gradientUnits="userSpaceOnUse">
<stop stop-color="#5F626B"/>
<stop offset="1" stop-color="#ADB2C0"/>
</linearGradient>
<linearGradient id="paint2_linear" x1="108.588" y1="163.553" x2="119.621" y2="163.55" gradientUnits="userSpaceOnUse">
<stop stop-color="#3654A5"/>
<stop offset="1" stop-color="#5781C1"/>
</linearGradient>
<linearGradient id="paint3_linear" x1="103.474" y1="182.201" x2="109.741" y2="147.129" gradientUnits="userSpaceOnUse">
<stop stop-color="#86ACD6"/>
<stop offset="1" stop-color="#FBFDFF"/>
</linearGradient>
<linearGradient id="paint4_linear" x1="111.217" y1="153.912" x2="111.219" y2="142.459" gradientUnits="userSpaceOnUse">
<stop stop-color="#313092"/>
<stop offset="1" stop-color="#3654A5"/>
</linearGradient>
<linearGradient id="paint5_linear" x1="120.541" y1="163.559" x2="124.222" y2="163.557" gradientUnits="userSpaceOnUse">
<stop stop-color="#313092"/>
<stop offset="1" stop-color="#3654A5"/>
</linearGradient>
<linearGradient id="paint6_linear" x1="116.204" y1="145.294" x2="116.205" y2="184.953" gradientUnits="userSpaceOnUse">
<stop stop-color="#5781C1"/>
<stop offset="1" stop-color="#AADDDD"/>
</linearGradient>
<linearGradient id="paint7_linear" x1="119.876" y1="145.294" x2="119.877" y2="184.952" gradientUnits="userSpaceOnUse">
<stop stop-color="#5781C1"/>
<stop offset="1" stop-color="#AADDDD"/>
</linearGradient>
<linearGradient id="paint8_linear" x1="116.881" y1="149.916" x2="116.271" y2="148.185" gradientUnits="userSpaceOnUse">
<stop stop-color="#3D0000"/>
<stop offset="1" stop-color="#794503"/>
</linearGradient>
<linearGradient id="paint9_linear" x1="116.701" y1="149.812" x2="116.103" y2="148.116" gradientUnits="userSpaceOnUse">
<stop stop-color="#EF4423"/>
<stop offset="1" stop-color="#C9CD2B"/>
</linearGradient>
<linearGradient id="paint10_linear" x1="116.935" y1="149.707" x2="116.182" y2="148.276" gradientUnits="userSpaceOnUse">
<stop stop-color="#EF4423"/>
<stop offset="1" stop-color="white"/>
</linearGradient>
<linearGradient id="paint11_linear" x1="124.206" y1="163.006" x2="114.785" y2="163.005" gradientUnits="userSpaceOnUse">
<stop stop-color="#140C4F"/>
<stop offset="1" stop-color="white"/>
</linearGradient>
<linearGradient id="paint12_linear" x1="115.315" y1="170.514" x2="116.41" y2="170.512" gradientUnits="userSpaceOnUse">
<stop stop-color="#6FA1D6"/>
<stop offset="1" stop-color="#3654A5"/>
</linearGradient>
<linearGradient id="paint13_linear" x1="114.439" y1="161.193" x2="114.44" y2="154.111" gradientUnits="userSpaceOnUse">
<stop stop-color="#383E4C"/>
<stop offset="0.52" stop-color="#ADB2C0"/>
<stop offset="1" stop-color="#383E4C"/>
</linearGradient>
<linearGradient id="paint14_linear" x1="113.285" y1="161.183" x2="113.287" y2="154.111" gradientUnits="userSpaceOnUse">
<stop stop-color="#828591"/>
<stop offset="0.5" stop-color="#ADB2C0"/>
<stop offset="1" stop-color="#828591"/>
</linearGradient>
<linearGradient id="paint15_linear" x1="113.101" y1="160.015" x2="113.103" y2="155.291" gradientUnits="userSpaceOnUse">
<stop stop-color="#383E4C"/>
<stop offset="0.5" stop-color="#828591"/>
<stop offset="1" stop-color="#383E4C"/>
</linearGradient>
<linearGradient id="paint16_linear" x1="114.439" y1="172.207" x2="114.44" y2="165.125" gradientUnits="userSpaceOnUse">
<stop stop-color="#383E4C"/>
<stop offset="0.52" stop-color="#ADB2C0"/>
<stop offset="1" stop-color="#383E4C"/>
</linearGradient>
<linearGradient id="paint17_linear" x1="113.285" y1="172.197" x2="113.287" y2="165.126" gradientUnits="userSpaceOnUse">
<stop stop-color="#828591"/>
<stop offset="0.5" stop-color="#ADB2C0"/>
<stop offset="1" stop-color="#828591"/>
</linearGradient>
<linearGradient id="paint18_linear" x1="113.101" y1="171.029" x2="113.103" y2="166.305" gradientUnits="userSpaceOnUse">
<stop stop-color="#383E4C"/>
<stop offset="0.5" stop-color="#828591"/>
<stop offset="1" stop-color="#383E4C"/>
</linearGradient>
<linearGradient id="paint19_linear" x1="114.439" y1="183.221" x2="114.44" y2="176.139" gradientUnits="userSpaceOnUse">
<stop stop-color="#383E4C"/>
<stop offset="0.52" stop-color="#ADB2C0"/>
<stop offset="1" stop-color="#383E4C"/>
</linearGradient>
<linearGradient id="paint20_linear" x1="113.285" y1="183.212" x2="113.287" y2="176.14" gradientUnits="userSpaceOnUse">
<stop stop-color="#828591"/>
<stop offset="0.5" stop-color="#ADB2C0"/>
<stop offset="1" stop-color="#828591"/>
</linearGradient>
<linearGradient id="paint21_linear" x1="113.101" y1="182.043" x2="113.103" y2="177.319" gradientUnits="userSpaceOnUse">
<stop stop-color="#383E4C"/>
<stop offset="0.5" stop-color="#828591"/>
<stop offset="1" stop-color="#383E4C"/>
</linearGradient>
<linearGradient id="paint22_linear" x1="115.979" y1="143.36" x2="116.68" y2="143.36" gradientUnits="userSpaceOnUse">
<stop stop-color="#25409A"/>
<stop offset="1" stop-color="#2B2477"/>
</linearGradient>
<linearGradient id="paint23_linear" x1="114.143" y1="145.197" x2="114.844" y2="145.196" gradientUnits="userSpaceOnUse">
<stop stop-color="#25409A"/>
<stop offset="1" stop-color="#2B2477"/>
</linearGradient>
<linearGradient id="paint24_linear" x1="116.898" y1="142.442" x2="117.598" y2="142.442" gradientUnits="userSpaceOnUse">
<stop stop-color="#25409A"/>
<stop offset="1" stop-color="#2B2477"/>
</linearGradient>
<linearGradient id="paint25_linear" x1="161.326" y1="132.994" x2="158.442" y2="132.993" gradientUnits="userSpaceOnUse">
<stop stop-color="#383E4C"/>
<stop offset="1" stop-color="white"/>
</linearGradient>
<linearGradient id="paint26_linear" x1="159.915" y1="140.999" x2="159.913" y2="119.841" gradientUnits="userSpaceOnUse">
<stop stop-color="#5F626B"/>
<stop offset="1" stop-color="#ADB2C0"/>
</linearGradient>
<linearGradient id="paint27_linear" x1="161.888" y1="163.553" x2="150.855" y2="163.55" gradientUnits="userSpaceOnUse">
<stop stop-color="#3654A5"/>
<stop offset="1" stop-color="#5781C1"/>
</linearGradient>
<linearGradient id="paint28_linear" x1="167.003" y1="182.201" x2="160.736" y2="147.129" gradientUnits="userSpaceOnUse">
<stop stop-color="#86ACD6"/>
<stop offset="1" stop-color="#FBFDFF"/>
</linearGradient>
<linearGradient id="paint29_linear" x1="159.259" y1="153.912" x2="159.257" y2="142.459" gradientUnits="userSpaceOnUse">
<stop stop-color="#313092"/>
<stop offset="1" stop-color="#3654A5"/>
</linearGradient>
<linearGradient id="paint30_linear" x1="149.935" y1="163.559" x2="146.254" y2="163.558" gradientUnits="userSpaceOnUse">
<stop stop-color="#313092"/>
<stop offset="1" stop-color="#3654A5"/>
</linearGradient>
<linearGradient id="paint31_linear" x1="154.272" y1="145.294" x2="154.271" y2="184.953" gradientUnits="userSpaceOnUse">
<stop stop-color="#5781C1"/>
<stop offset="1" stop-color="#AADDDD"/>
</linearGradient>
<linearGradient id="paint32_linear" x1="150.6" y1="145.294" x2="150.6" y2="184.953" gradientUnits="userSpaceOnUse">
<stop stop-color="#5781C1"/>
<stop offset="1" stop-color="#AADDDD"/>
</linearGradient>
<linearGradient id="paint33_linear" x1="153.596" y1="149.916" x2="154.206" y2="148.185" gradientUnits="userSpaceOnUse">
<stop stop-color="#3D0000"/>
<stop offset="1" stop-color="#794503"/>
</linearGradient>
<linearGradient id="paint34_linear" x1="153.776" y1="149.812" x2="154.373" y2="148.116" gradientUnits="userSpaceOnUse">
<stop stop-color="#EF4423"/>
<stop offset="1" stop-color="#C9CD2B"/>
</linearGradient>
<linearGradient id="paint35_linear" x1="153.542" y1="149.707" x2="154.295" y2="148.277" gradientUnits="userSpaceOnUse">
<stop stop-color="#EF4423"/>
<stop offset="1" stop-color="white"/>
</linearGradient>
<linearGradient id="paint36_linear" x1="146.27" y1="163.006" x2="155.691" y2="163.005" gradientUnits="userSpaceOnUse">
<stop stop-color="#140C4F"/>
<stop offset="1" stop-color="white"/>
</linearGradient>
<linearGradient id="paint37_linear" x1="155.161" y1="170.514" x2="154.066" y2="170.512" gradientUnits="userSpaceOnUse">
<stop stop-color="#6FA1D6"/>
<stop offset="1" stop-color="#3654A5"/>
</linearGradient>
<linearGradient id="paint38_linear" x1="156.038" y1="161.193" x2="156.036" y2="154.111" gradientUnits="userSpaceOnUse">
<stop stop-color="#383E4C"/>
<stop offset="0.52" stop-color="#ADB2C0"/>
<stop offset="1" stop-color="#383E4C"/>
</linearGradient>
<linearGradient id="paint39_linear" x1="157.191" y1="161.183" x2="157.189" y2="154.111" gradientUnits="userSpaceOnUse">
<stop stop-color="#828591"/>
<stop offset="0.5" stop-color="#ADB2C0"/>
<stop offset="1" stop-color="#828591"/>
</linearGradient>
<linearGradient id="paint40_linear" x1="157.375" y1="160.015" x2="157.373" y2="155.291" gradientUnits="userSpaceOnUse">
<stop stop-color="#383E4C"/>
<stop offset="0.5" stop-color="#828591"/>
<stop offset="1" stop-color="#383E4C"/>
</linearGradient>
<linearGradient id="paint41_linear" x1="156.038" y1="172.207" x2="156.036" y2="165.125" gradientUnits="userSpaceOnUse">
<stop stop-color="#383E4C"/>
<stop offset="0.52" stop-color="#ADB2C0"/>
<stop offset="1" stop-color="#383E4C"/>
</linearGradient>
<linearGradient id="paint42_linear" x1="157.191" y1="172.197" x2="157.189" y2="165.126" gradientUnits="userSpaceOnUse">
<stop stop-color="#828591"/>
<stop offset="0.5" stop-color="#ADB2C0"/>
<stop offset="1" stop-color="#828591"/>
</linearGradient>
<linearGradient id="paint43_linear" x1="157.375" y1="171.029" x2="157.373" y2="166.305" gradientUnits="userSpaceOnUse">
<stop stop-color="#383E4C"/>
<stop offset="0.5" stop-color="#828591"/>
<stop offset="1" stop-color="#383E4C"/>
</linearGradient>
<linearGradient id="paint44_linear" x1="156.038" y1="183.221" x2="156.036" y2="176.139" gradientUnits="userSpaceOnUse">
<stop stop-color="#383E4C"/>
<stop offset="0.52" stop-color="#ADB2C0"/>
<stop offset="1" stop-color="#383E4C"/>
</linearGradient>
<linearGradient id="paint45_linear" x1="157.191" y1="183.212" x2="157.189" y2="176.14" gradientUnits="userSpaceOnUse">
<stop stop-color="#828591"/>
<stop offset="0.5" stop-color="#ADB2C0"/>
<stop offset="1" stop-color="#828591"/>
</linearGradient>
<linearGradient id="paint46_linear" x1="157.375" y1="182.043" x2="157.373" y2="177.319" gradientUnits="userSpaceOnUse">
<stop stop-color="#383E4C"/>
<stop offset="0.5" stop-color="#828591"/>
<stop offset="1" stop-color="#383E4C"/>
</linearGradient>
<linearGradient id="paint47_linear" x1="154.497" y1="143.361" x2="153.796" y2="143.36" gradientUnits="userSpaceOnUse">
<stop stop-color="#25409A"/>
<stop offset="1" stop-color="#2B2477"/>
</linearGradient>
<linearGradient id="paint48_linear" x1="156.333" y1="145.197" x2="155.632" y2="145.196" gradientUnits="userSpaceOnUse">
<stop stop-color="#25409A"/>
<stop offset="1" stop-color="#2B2477"/>
</linearGradient>
<linearGradient id="paint49_linear" x1="153.579" y1="142.442" x2="152.878" y2="142.442" gradientUnits="userSpaceOnUse">
<stop stop-color="#25409A"/>
<stop offset="1" stop-color="#2B2477"/>
</linearGradient>
<clipPath id="clip0">
<rect x="64.8895" y="118.372" width="140.704" height="129.78" fill="white"/>
</clipPath>
</defs>
</svg>
