<svg width="270" height="370" viewBox="0 0 270 370" fill="none" xmlns="http://www.w3.org/2000/svg">
<path fill-rule="evenodd" clip-rule="evenodd" d="M116.475 131.096C116.475 130.071 119.341 131.733 119.341 132.743C119.341 135.886 119.341 139.153 119.341 142.587C119.341 144.262 116.475 147.336 116.475 145.66C116.475 141.05 116.475 136.315 116.475 131.096Z" fill="url(#paint0_linear)"/>
<path fill-rule="evenodd" clip-rule="evenodd" d="M115.007 131.096C115.007 130.196 115.464 129.656 116.212 129.407C116.586 129.282 117.001 129.282 117.43 129.379C117.707 129.448 118.012 129.559 118.302 129.697C119.479 130.279 120.822 131.594 120.822 132.743V142.601C120.822 143.971 119.604 145.868 118.579 146.796C118.275 147.073 117.956 147.294 117.666 147.419C117.624 147.433 117.583 147.446 117.555 147.46C116.987 147.696 116.433 147.682 115.907 147.377C115.838 147.336 115.769 147.294 115.714 147.239C115.27 146.906 115.021 146.38 115.021 145.66V131.096H115.007ZM116.475 131.096C116.475 130.071 119.341 131.733 119.341 132.743C119.341 135.886 119.341 139.153 119.341 142.587C119.341 144.262 116.475 147.336 116.475 145.66C116.475 141.05 116.475 136.315 116.475 131.096Z" fill="black"/>
<path fill-rule="evenodd" clip-rule="evenodd" d="M119.009 132.037C119.216 132.286 119.341 132.536 119.341 132.743C119.341 135.886 119.341 139.153 119.341 142.587C119.341 142.933 119.216 143.348 119.023 143.764C119.023 139.859 119.009 135.955 119.009 132.037Z" fill="url(#paint1_linear)"/>
<path opacity="0.5" fill-rule="evenodd" clip-rule="evenodd" d="M116.475 131.096C116.475 130.431 117.707 130.902 118.552 131.594C117.098 131.207 117.25 131.83 117.25 132.19C117.25 133.532 117.25 134.889 117.25 136.274C117.029 135.914 116.696 136.412 116.696 137.16C116.696 138.129 116.738 141.036 116.738 142.033C116.738 143.708 116.475 147.349 116.475 145.674C116.475 141.05 116.475 136.315 116.475 131.096Z" fill="url(#paint2_linear)"/>
<path fill-rule="evenodd" clip-rule="evenodd" d="M116.309 135.568C117.679 135.568 117.666 136.634 117.666 137.727V142.448H117.292V137.727C117.292 136.855 117.403 135.941 116.309 135.941V135.568Z" fill="#00045D"/>
<path fill-rule="evenodd" clip-rule="evenodd" d="M121.999 137.921C120.158 139.679 118.33 141.452 116.489 143.21C116.115 143.57 115.921 144.013 115.921 144.539C115.921 151.517 115.921 158.508 115.921 165.486C115.921 165.846 117.056 165.555 117.056 165.929C117.056 168.117 117.056 170.304 117.056 172.491C117.056 172.851 115.921 173.876 115.921 174.236C115.921 178.846 115.921 183.443 115.921 188.053C115.921 189.064 116.752 189.894 117.762 189.894C119.604 189.894 121.431 189.894 123.273 189.894C124.283 189.894 125.114 189.064 125.114 188.053C125.114 171.785 125.114 155.518 125.114 139.25C125.114 137.617 123.176 136.8 121.999 137.921Z" fill="url(#paint3_linear)"/>
<path fill-rule="evenodd" clip-rule="evenodd" d="M121.999 137.921C120.158 139.68 118.33 141.452 116.489 143.21C116.115 143.57 115.921 144.013 115.921 144.539C115.921 151.517 115.921 158.508 115.921 165.486C115.921 165.846 117.056 165.555 117.056 165.929C117.056 168.117 117.056 170.304 117.056 172.492C117.056 172.851 115.921 173.876 115.921 174.236C115.921 178.846 115.921 183.443 115.921 188.053C115.921 189.064 116.752 189.894 117.762 189.894C119.604 189.894 121.431 189.894 123.273 189.894C124.283 189.894 125.114 189.064 125.114 188.053C125.114 171.785 125.114 155.518 125.114 139.25C125.114 137.617 123.176 136.8 121.999 137.921ZM115.478 142.144L120.988 136.855C121.653 136.218 122.47 135.928 123.259 135.928C123.702 135.928 124.145 136.025 124.56 136.205C124.976 136.384 125.349 136.634 125.654 136.966C126.208 137.547 126.568 138.323 126.568 139.25V188.053C126.568 188.953 126.194 189.784 125.599 190.379C125.003 190.974 124.173 191.348 123.273 191.348H117.762C116.904 191.348 116.129 191.016 115.533 190.476C115.492 190.448 115.464 190.407 115.423 190.379C114.827 189.784 114.454 188.953 114.454 188.039V174.222C114.454 173.516 114.897 172.962 115.354 172.422C115.437 172.325 115.506 172.533 115.547 172.588H115.561C115.575 172.602 115.589 172.575 115.589 172.478V167.078C114.952 166.94 114.454 166.594 114.454 165.486V144.525C114.454 144.068 114.537 143.639 114.717 143.224C114.897 142.836 115.146 142.462 115.478 142.144Z" fill="black"/>
<path fill-rule="evenodd" clip-rule="evenodd" d="M121.999 137.921C123.217 137.921 123.48 148.236 123.467 160.488C124.477 160.419 124.491 161.222 124.491 164.06C124.491 166.746 123.993 167.314 123.439 167.41C123.383 175.468 123.273 183.678 123.273 189.894C124.283 189.894 125.114 189.064 125.114 188.053C125.114 171.785 125.114 155.518 125.114 139.25C125.114 137.617 123.176 136.8 121.999 137.921Z" fill="url(#paint4_linear)"/>
<path opacity="0.5" fill-rule="evenodd" clip-rule="evenodd" d="M118.012 141.756C117.513 142.241 117.001 142.725 116.503 143.21C116.129 143.57 115.935 144.013 115.935 144.539C115.935 151.517 115.935 158.508 115.935 165.486C115.935 165.846 117.07 165.555 117.07 165.929C117.07 168.117 117.07 170.304 117.07 172.491C117.07 172.851 115.935 173.876 115.935 174.236C115.935 178.846 115.935 183.443 115.935 188.053C115.935 189.064 116.766 189.894 117.776 189.894C116.364 188.676 116.96 174.139 117.513 172.228C117.707 171.578 119.285 170.083 119.839 169.28C118.441 169.695 117.569 170.276 117.541 167.66C117.513 165.237 118.261 164.24 119.618 162.731C118.33 163.174 117.943 163.534 117.458 163.105C116.17 161.956 116.96 145.66 118.012 141.756Z" fill="url(#paint5_linear)"/>
<path opacity="0.5" fill-rule="evenodd" clip-rule="evenodd" d="M117.596 161.956C118.732 160.626 120.614 159.436 120.767 157.567C120.85 156.542 120.725 154.562 120.698 153.455C120.67 152.264 120.379 146.56 121.556 146.103C122.636 145.688 122.442 151.503 122.47 152.126C122.511 153.524 122.594 154.632 122.525 156.044C122.47 157.068 122.331 157.968 123.01 158.813C123.48 159.394 123.217 159.602 122.58 160.003C121.805 160.488 120.628 160.973 119.756 161.443C119.535 161.568 117.389 162.897 117.264 162.606C117.195 162.454 117.513 162.066 117.596 161.956Z" fill="url(#paint6_linear)"/>
<path opacity="0.5" fill-rule="evenodd" clip-rule="evenodd" d="M122.733 178.763C122.802 177.379 122.871 176.022 122.927 174.624C122.982 173.322 123.342 170.041 122.871 169.086C122.054 167.41 119.078 170.484 118.316 171.273C118.095 171.495 117.029 172.658 117.098 172.976C117.375 173.045 119.812 170.83 120.462 171.578C121.099 172.311 120.988 177.836 121.251 179.22C121.639 181.297 122.58 181.767 122.719 179.165L122.733 178.763Z" fill="url(#paint7_linear)"/>
<path fill-rule="evenodd" clip-rule="evenodd" d="M115.797 156.695V144.331C115.797 142.85 116.877 142.116 117.97 142.116C119.064 142.116 120.144 142.85 120.144 144.331V156.695C120.144 158.176 119.064 158.91 117.97 158.91C116.89 158.91 115.797 158.162 115.797 156.695Z" fill="#00045D"/>
<path fill-rule="evenodd" clip-rule="evenodd" d="M116.129 144.331V156.695C116.129 157.954 117.043 158.591 117.97 158.591C118.884 158.591 119.812 157.954 119.812 156.695V144.331C119.812 143.071 118.898 142.435 117.97 142.435C117.056 142.435 116.129 143.071 116.129 144.331Z" fill="url(#paint8_linear)"/>
<path fill-rule="evenodd" clip-rule="evenodd" d="M116.129 144.331V156.695C116.129 158.578 118.178 159.062 119.216 158.135C116.6 158.135 116.973 150.52 116.973 142.712C116.489 143.002 116.129 143.542 116.129 144.331Z" fill="url(#paint9_linear)"/>
<path fill-rule="evenodd" clip-rule="evenodd" d="M117.209 142.891V145.051C117.209 145.577 117.597 145.84 117.984 145.84C118.372 145.84 118.759 145.577 118.759 145.051V142.891C118.759 142.365 118.372 142.102 117.984 142.102C117.583 142.102 117.209 142.365 117.209 142.891Z" fill="#00045D"/>
<path fill-rule="evenodd" clip-rule="evenodd" d="M117.458 143.03V144.927C117.458 145.397 117.721 145.619 117.97 145.619C118.233 145.619 118.483 145.383 118.483 144.927V143.03C118.483 142.559 118.219 142.338 117.97 142.338C117.721 142.338 117.458 142.559 117.458 143.03Z" fill="url(#paint10_linear)"/>
<path fill-rule="evenodd" clip-rule="evenodd" d="M117.624 143.154V144.788C117.624 145.19 117.79 145.383 117.97 145.383C118.136 145.383 118.316 145.19 118.316 144.788V143.154C118.316 142.753 118.15 142.559 117.97 142.559C117.804 142.559 117.624 142.753 117.624 143.154Z" fill="url(#paint11_linear)"/>
<path opacity="0.5" fill-rule="evenodd" clip-rule="evenodd" d="M117.458 143.03C117.749 142.739 117.97 143.57 117.97 145.619C118.233 145.619 118.483 145.383 118.483 144.927C118.178 145.231 117.97 144.29 117.97 142.338C117.721 142.338 117.458 142.559 117.458 143.03Z" fill="url(#paint12_linear)"/>
<path fill-rule="evenodd" clip-rule="evenodd" d="M117.209 155.089V156.224C117.209 156.501 117.597 156.639 117.984 156.639C118.372 156.639 118.759 156.501 118.759 156.224V155.089C118.759 154.812 118.372 154.673 117.984 154.673C117.583 154.687 117.209 154.812 117.209 155.089Z" fill="#00045D"/>
<path fill-rule="evenodd" clip-rule="evenodd" d="M117.458 155.158V156.155C117.458 156.404 117.721 156.515 117.97 156.515C118.233 156.515 118.483 156.39 118.483 156.155V155.158C118.483 154.909 118.219 154.798 117.97 154.798C117.721 154.798 117.458 154.923 117.458 155.158Z" fill="url(#paint13_linear)"/>
<path fill-rule="evenodd" clip-rule="evenodd" d="M117.624 155.227V156.085C117.624 156.293 117.79 156.404 117.97 156.404C118.136 156.404 118.316 156.293 118.316 156.085V155.227C118.316 155.019 118.15 154.909 117.97 154.909C117.804 154.923 117.624 155.019 117.624 155.227Z" fill="url(#paint14_linear)"/>
<path opacity="0.5" fill-rule="evenodd" clip-rule="evenodd" d="M117.458 155.158C117.749 155.006 117.97 155.435 117.97 156.515C118.233 156.515 118.483 156.39 118.483 156.155C118.178 156.307 117.97 155.822 117.97 154.798C117.721 154.798 117.458 154.923 117.458 155.158Z" fill="url(#paint15_linear)"/>
<path fill-rule="evenodd" clip-rule="evenodd" d="M115.81 153.566C116.073 152.472 119.825 152.347 120.116 153.566L119.825 153.649C119.618 152.818 116.267 152.929 116.087 153.649L115.81 153.566ZM115.81 148.056C116.073 146.962 119.825 146.837 120.116 148.056L119.825 148.139C119.618 147.308 116.267 147.419 116.087 148.139L115.81 148.056ZM115.81 148.983L116.101 149.066C116.281 148.346 119.632 148.236 119.839 149.066L120.13 148.983C119.825 147.751 116.087 147.876 115.81 148.983ZM115.81 150.811C116.073 149.717 119.825 149.592 120.116 150.811L119.825 150.894C119.618 150.063 116.267 150.174 116.087 150.894L115.81 150.811Z" fill="#00045D"/>
<path fill-rule="evenodd" clip-rule="evenodd" d="M116.987 166.123C117.015 166.358 116.641 166.4 116.627 166.151C116.42 163.949 123.01 159.727 125.156 160.294C125.391 160.35 125.294 160.71 125.059 160.654C123.12 160.142 116.807 164.24 116.987 166.123Z" fill="#00045D"/>
<path fill-rule="evenodd" clip-rule="evenodd" d="M116.987 169.598C117.015 169.833 116.641 169.875 116.627 169.639C116.42 167.438 123.01 163.216 125.156 163.783C125.391 163.839 125.294 164.199 125.059 164.143C123.12 163.617 116.807 167.701 116.987 169.598Z" fill="#00045D"/>
<path fill-rule="evenodd" clip-rule="evenodd" d="M116.973 172.741C116.904 172.976 116.558 172.879 116.613 172.644C117.306 170.124 122.664 166.857 125.1 166.843C125.336 166.843 125.349 167.203 125.1 167.203C122.83 167.23 117.624 170.387 116.973 172.741Z" fill="#00045D"/>
<path fill-rule="evenodd" clip-rule="evenodd" d="M117.264 166.164V169.958C117.264 170.733 117.832 170.332 117.832 169.57V165.777C117.832 164.988 117.264 165.389 117.264 166.164Z" fill="url(#paint16_linear)"/>
<path fill-rule="evenodd" clip-rule="evenodd" d="M117.319 166.524V169.501C117.319 170.11 117.762 169.806 117.762 169.196V166.22C117.762 165.611 117.319 165.915 117.319 166.524Z" fill="#202366"/>
<path fill-rule="evenodd" clip-rule="evenodd" d="M119.313 164.185V167.978C119.313 168.753 120.296 168.352 120.296 167.59V163.783C120.31 163.022 119.313 163.409 119.313 164.185Z" fill="url(#paint17_linear)"/>
<path fill-rule="evenodd" clip-rule="evenodd" d="M119.424 164.545V167.521C119.424 168.13 120.199 167.826 120.199 167.217V164.24C120.199 163.631 119.424 163.935 119.424 164.545Z" fill="#202366"/>
<path fill-rule="evenodd" clip-rule="evenodd" d="M122.691 162.122V165.915C122.691 166.691 123.827 166.649 123.827 165.874V162.08C123.813 161.319 122.691 161.346 122.691 162.122Z" fill="url(#paint18_linear)"/>
<path fill-rule="evenodd" clip-rule="evenodd" d="M122.802 162.523V165.5C122.802 166.109 123.688 166.081 123.688 165.472V162.496C123.688 161.886 122.802 161.914 122.802 162.523Z" fill="#202366"/>
<path opacity="0.5" fill-rule="evenodd" clip-rule="evenodd" d="M121.999 137.921C120.158 139.679 121.944 141.452 120.102 143.21C118.884 144.373 119.535 158.564 119.535 161.513C119.535 161.873 120.67 161.582 120.67 161.956C120.67 164.143 120.67 166.331 120.67 168.518C120.67 168.878 119.535 169.902 119.535 170.262C119.535 174.873 119.535 183.443 119.535 188.053C119.535 190.171 121.819 189.894 123.259 189.894C124.27 189.894 125.1 189.064 125.1 188.053C125.1 171.785 125.1 155.518 125.1 139.25C125.114 137.617 123.176 136.8 121.999 137.921Z" fill="url(#paint19_linear)"/>
<path fill-rule="evenodd" clip-rule="evenodd" d="M153.994 131.096C153.994 130.071 151.128 131.733 151.128 132.743C151.128 135.886 151.128 139.153 151.128 142.587C151.128 144.262 153.994 147.335 153.994 145.66C153.994 141.05 153.994 136.315 153.994 131.096Z" fill="url(#paint20_linear)"/>
<path fill-rule="evenodd" clip-rule="evenodd" d="M154.257 129.407C155.019 129.656 155.462 130.196 155.462 131.096V145.674C155.462 146.394 155.212 146.92 154.769 147.253C154.714 147.308 154.645 147.349 154.576 147.391C154.063 147.696 153.496 147.696 152.928 147.474C152.886 147.46 152.845 147.446 152.817 147.433C152.526 147.294 152.208 147.073 151.903 146.809C150.865 145.882 149.661 143.985 149.661 142.615V132.771C149.661 131.622 151.004 130.293 152.18 129.725C152.471 129.587 152.762 129.476 153.053 129.407C153.468 129.282 153.883 129.282 154.257 129.407ZM153.994 131.096C153.994 130.071 151.128 131.733 151.128 132.743C151.128 135.886 151.128 139.153 151.128 142.587C151.128 144.262 153.994 147.336 153.994 145.66C153.994 141.05 153.994 136.315 153.994 131.096Z" fill="black"/>
<path fill-rule="evenodd" clip-rule="evenodd" d="M151.46 132.037C151.253 132.286 151.128 132.536 151.128 132.743C151.128 135.886 151.128 139.153 151.128 142.587C151.128 142.933 151.253 143.348 151.447 143.764C151.447 139.859 151.447 135.955 151.46 132.037Z" fill="url(#paint21_linear)"/>
<path opacity="0.5" fill-rule="evenodd" clip-rule="evenodd" d="M153.994 131.096C153.994 130.431 152.762 130.902 151.917 131.594C153.371 131.206 153.219 131.829 153.219 132.189C153.219 133.532 153.219 134.889 153.219 136.274C153.44 135.914 153.773 136.412 153.773 137.16C153.773 138.129 153.731 141.036 153.731 142.033C153.731 143.708 153.994 147.349 153.994 145.674C153.994 141.05 153.994 136.315 153.994 131.096Z" fill="url(#paint22_linear)"/>
<path fill-rule="evenodd" clip-rule="evenodd" d="M154.16 135.568C152.79 135.568 152.803 136.634 152.803 137.727V142.448H153.177V137.727C153.177 136.855 153.066 135.941 154.16 135.941V135.568V135.568Z" fill="#00045D"/>
<path fill-rule="evenodd" clip-rule="evenodd" d="M148.456 137.921C150.297 139.679 152.125 141.452 153.966 143.21C154.34 143.57 154.534 144.013 154.534 144.539C154.534 151.517 154.534 158.508 154.534 165.486C154.534 165.846 153.399 165.555 153.399 165.929C153.399 168.117 153.399 170.304 153.399 172.491C153.399 172.851 154.534 173.876 154.534 174.236C154.534 178.846 154.534 183.443 154.534 188.053C154.534 189.064 153.703 189.894 152.693 189.894C150.851 189.894 149.024 189.894 147.182 189.894C146.172 189.894 145.341 189.064 145.341 188.053C145.341 171.785 145.341 155.518 145.341 139.25C145.355 137.617 147.293 136.8 148.456 137.921Z" fill="url(#paint23_linear)"/>
<path fill-rule="evenodd" clip-rule="evenodd" d="M149.481 136.869L154.991 142.158C155.323 142.476 155.572 142.836 155.752 143.238C155.932 143.639 156.015 144.082 156.015 144.539V165.486C156.015 166.594 155.517 166.94 154.88 167.078V172.478C154.88 172.574 154.894 172.602 154.908 172.588H154.922C154.963 172.547 155.046 172.339 155.115 172.422C155.559 172.976 156.015 173.516 156.015 174.222V188.039C156.015 188.953 155.642 189.77 155.046 190.379C155.005 190.42 154.977 190.448 154.936 190.476C154.34 191.016 153.565 191.348 152.706 191.348H147.196C146.296 191.348 145.466 190.974 144.87 190.379C144.275 189.783 143.901 188.953 143.901 188.053V139.236C143.901 138.323 144.261 137.534 144.815 136.952C145.133 136.62 145.507 136.371 145.909 136.191C146.324 136.011 146.767 135.914 147.21 135.914C147.999 135.928 148.816 136.218 149.481 136.869ZM148.456 137.921C150.298 139.679 152.125 141.452 153.966 143.21C154.34 143.57 154.534 144.013 154.534 144.539C154.534 151.517 154.534 158.508 154.534 165.486C154.534 165.846 153.399 165.555 153.399 165.929C153.399 168.117 153.399 170.304 153.399 172.491C153.399 172.851 154.534 173.876 154.534 174.236C154.534 178.846 154.534 183.443 154.534 188.053C154.534 189.064 153.703 189.894 152.693 189.894C150.851 189.894 149.024 189.894 147.182 189.894C146.172 189.894 145.341 189.064 145.341 188.053C145.341 171.785 145.341 155.518 145.341 139.25C145.355 137.617 147.293 136.8 148.456 137.921Z" fill="black"/>
<path fill-rule="evenodd" clip-rule="evenodd" d="M148.456 137.921C147.238 137.921 146.975 148.236 146.989 160.488C145.978 160.419 145.964 161.222 145.964 164.06C145.964 166.746 146.462 167.314 147.016 167.41C147.072 175.468 147.182 183.678 147.182 189.894C146.172 189.894 145.341 189.064 145.341 188.053C145.341 171.785 145.341 155.518 145.341 139.25C145.355 137.617 147.293 136.8 148.456 137.921Z" fill="url(#paint24_linear)"/>
<path opacity="0.5" fill-rule="evenodd" clip-rule="evenodd" d="M152.457 141.756C152.956 142.241 153.468 142.725 153.966 143.21C154.34 143.57 154.534 144.013 154.534 144.539C154.534 151.517 154.534 158.508 154.534 165.486C154.534 165.846 153.399 165.555 153.399 165.929C153.399 168.116 153.399 170.304 153.399 172.491C153.399 172.851 154.534 173.876 154.534 174.236C154.534 178.846 154.534 183.443 154.534 188.053C154.534 189.063 153.703 189.894 152.693 189.894C154.105 188.676 153.51 174.139 152.956 172.228C152.762 171.578 151.184 170.082 150.63 169.279C152.028 169.695 152.9 170.276 152.928 167.66C152.956 165.237 152.208 164.24 150.851 162.731C152.139 163.174 152.527 163.534 153.011 163.105C154.299 161.956 153.496 145.66 152.457 141.756Z" fill="url(#paint25_linear)"/>
<path opacity="0.5" fill-rule="evenodd" clip-rule="evenodd" d="M152.859 161.956C151.724 160.626 149.841 159.436 149.688 157.567C149.605 156.542 149.73 154.562 149.758 153.455C149.785 152.264 150.076 146.56 148.899 146.103C147.819 145.688 148.013 151.503 147.985 152.126C147.944 153.524 147.861 154.632 147.93 156.044C147.985 157.068 148.124 157.968 147.445 158.813C146.975 159.394 147.238 159.602 147.875 160.003C148.65 160.488 149.827 160.973 150.699 161.443C150.921 161.568 153.066 162.897 153.191 162.606C153.274 162.454 152.956 162.066 152.859 161.956Z" fill="url(#paint26_linear)"/>
<path opacity="0.5" fill-rule="evenodd" clip-rule="evenodd" d="M147.736 178.763C147.667 177.379 147.598 176.022 147.542 174.624C147.487 173.322 147.127 170.041 147.598 169.086C148.415 167.41 151.391 170.484 152.153 171.273C152.374 171.495 153.44 172.658 153.371 172.976C153.094 173.045 150.657 170.83 150.007 171.578C149.37 172.311 149.481 177.836 149.218 179.22C148.83 181.297 147.888 181.767 147.75 179.165L147.736 178.763Z" fill="url(#paint27_linear)"/>
<path fill-rule="evenodd" clip-rule="evenodd" d="M154.659 156.695V144.331C154.659 142.85 153.579 142.116 152.485 142.116C151.405 142.116 150.311 142.85 150.311 144.331V156.695C150.311 158.176 151.391 158.91 152.485 158.91C153.579 158.91 154.659 158.162 154.659 156.695Z" fill="#00045D"/>
<path fill-rule="evenodd" clip-rule="evenodd" d="M154.326 144.331V156.695C154.326 157.954 153.412 158.591 152.485 158.591C151.571 158.591 150.644 157.954 150.644 156.695V144.331C150.644 143.071 151.571 142.435 152.485 142.435C153.412 142.435 154.326 143.071 154.326 144.331Z" fill="url(#paint28_linear)"/>
<path fill-rule="evenodd" clip-rule="evenodd" d="M154.326 144.331V156.695C154.326 158.578 152.277 159.062 151.239 158.135C153.855 158.135 153.482 150.52 153.482 142.712C153.966 143.002 154.326 143.542 154.326 144.331Z" fill="url(#paint29_linear)"/>
<path fill-rule="evenodd" clip-rule="evenodd" d="M153.26 142.891V145.051C153.26 145.577 152.873 145.84 152.485 145.84C152.097 145.84 151.71 145.577 151.71 145.051V142.891C151.71 142.365 152.097 142.102 152.485 142.102C152.873 142.102 153.26 142.365 153.26 142.891Z" fill="#00045D"/>
<path fill-rule="evenodd" clip-rule="evenodd" d="M153.011 143.03V144.927C153.011 145.397 152.748 145.619 152.499 145.619C152.236 145.619 151.986 145.383 151.986 144.927V143.03C151.986 142.559 152.25 142.338 152.499 142.338C152.748 142.338 153.011 142.559 153.011 143.03Z" fill="url(#paint30_linear)"/>
<path fill-rule="evenodd" clip-rule="evenodd" d="M152.831 143.154V144.788C152.831 145.19 152.665 145.383 152.485 145.383C152.319 145.383 152.139 145.19 152.139 144.788V143.154C152.139 142.753 152.305 142.559 152.485 142.559C152.665 142.559 152.831 142.753 152.831 143.154Z" fill="url(#paint31_linear)"/>
<path opacity="0.5" fill-rule="evenodd" clip-rule="evenodd" d="M153.011 143.03C152.72 142.739 152.499 143.57 152.499 145.619C152.236 145.619 151.986 145.383 151.986 144.927C152.291 145.231 152.499 144.29 152.499 142.338C152.748 142.338 153.011 142.559 153.011 143.03Z" fill="url(#paint32_linear)"/>
<path fill-rule="evenodd" clip-rule="evenodd" d="M153.26 155.089V156.224C153.26 156.501 152.873 156.639 152.485 156.639C152.097 156.639 151.71 156.501 151.71 156.224V155.089C151.71 154.812 152.097 154.673 152.485 154.673C152.873 154.687 153.26 154.812 153.26 155.089Z" fill="#00045D"/>
<path fill-rule="evenodd" clip-rule="evenodd" d="M153.011 155.158V156.155C153.011 156.404 152.748 156.515 152.499 156.515C152.236 156.515 151.986 156.39 151.986 156.155V155.158C151.986 154.909 152.25 154.798 152.499 154.798C152.748 154.798 153.011 154.923 153.011 155.158Z" fill="url(#paint33_linear)"/>
<path fill-rule="evenodd" clip-rule="evenodd" d="M152.831 155.227V156.085C152.831 156.293 152.665 156.404 152.485 156.404C152.319 156.404 152.139 156.293 152.139 156.085V155.227C152.139 155.019 152.305 154.909 152.485 154.909C152.665 154.923 152.831 155.019 152.831 155.227Z" fill="url(#paint34_linear)"/>
<path opacity="0.5" fill-rule="evenodd" clip-rule="evenodd" d="M153.011 155.158C152.72 155.006 152.499 155.435 152.499 156.515C152.236 156.515 151.986 156.39 151.986 156.155C152.291 156.307 152.499 155.822 152.499 154.798C152.748 154.798 153.011 154.923 153.011 155.158Z" fill="url(#paint35_linear)"/>
<path fill-rule="evenodd" clip-rule="evenodd" d="M154.645 153.566C154.382 152.472 150.63 152.347 150.339 153.566L150.63 153.649C150.837 152.818 154.188 152.929 154.368 153.649L154.645 153.566ZM154.645 148.056C154.382 146.962 150.63 146.837 150.339 148.056L150.63 148.139C150.837 147.308 154.188 147.419 154.368 148.139L154.645 148.056ZM154.645 148.983L154.354 149.066C154.174 148.346 150.823 148.236 150.616 149.066L150.325 148.983C150.63 147.751 154.382 147.876 154.645 148.983ZM154.645 150.811C154.382 149.717 150.63 149.592 150.339 150.811L150.63 150.894C150.837 150.063 154.188 150.174 154.368 150.894L154.645 150.811Z" fill="#00045D"/>
<path fill-rule="evenodd" clip-rule="evenodd" d="M153.482 166.123C153.454 166.358 153.828 166.4 153.842 166.151C154.049 163.949 147.459 159.727 145.313 160.294C145.078 160.35 145.175 160.71 145.41 160.654C147.349 160.142 153.648 164.24 153.482 166.123Z" fill="#00045D"/>
<path fill-rule="evenodd" clip-rule="evenodd" d="M153.482 169.598C153.454 169.833 153.828 169.875 153.842 169.639C154.049 167.438 147.459 163.216 145.313 163.783C145.078 163.839 145.175 164.199 145.41 164.143C147.349 163.617 153.648 167.701 153.482 169.598Z" fill="#00045D"/>
<path fill-rule="evenodd" clip-rule="evenodd" d="M153.482 172.741C153.551 172.976 153.897 172.879 153.842 172.644C153.15 170.124 147.792 166.857 145.355 166.843C145.12 166.843 145.106 167.203 145.355 167.203C147.626 167.23 152.845 170.387 153.482 172.741Z" fill="#00045D"/>
<path fill-rule="evenodd" clip-rule="evenodd" d="M153.205 166.164V169.958C153.205 170.733 152.637 170.332 152.637 169.57V165.777C152.637 164.988 153.205 165.389 153.205 166.164Z" fill="url(#paint36_linear)"/>
<path fill-rule="evenodd" clip-rule="evenodd" d="M153.136 166.524V169.501C153.136 170.11 152.693 169.806 152.693 169.196V166.22C152.693 165.611 153.136 165.915 153.136 166.524Z" fill="#202366"/>
<path fill-rule="evenodd" clip-rule="evenodd" d="M151.142 164.185V167.978C151.142 168.753 150.159 168.352 150.159 167.59V163.783C150.159 163.022 151.142 163.409 151.142 164.185Z" fill="url(#paint37_linear)"/>
<path fill-rule="evenodd" clip-rule="evenodd" d="M151.045 164.545V167.521C151.045 168.13 150.27 167.826 150.27 167.217V164.24C150.27 163.631 151.045 163.935 151.045 164.545Z" fill="#202366"/>
<path fill-rule="evenodd" clip-rule="evenodd" d="M147.778 162.122V165.915C147.778 166.691 146.642 166.649 146.642 165.874V162.08C146.656 161.319 147.778 161.346 147.778 162.122Z" fill="url(#paint38_linear)"/>
<path fill-rule="evenodd" clip-rule="evenodd" d="M147.653 162.523V165.5C147.653 166.109 146.767 166.081 146.767 165.472V162.496C146.767 161.886 147.653 161.914 147.653 162.523Z" fill="#202366"/>
<path opacity="0.5" fill-rule="evenodd" clip-rule="evenodd" d="M148.456 137.921C150.298 139.679 148.512 141.452 150.353 143.21C151.571 144.373 150.921 158.564 150.921 161.513C150.921 161.873 149.785 161.582 149.785 161.956C149.785 164.143 149.785 166.331 149.785 168.518C149.785 168.878 150.921 169.902 150.921 170.262C150.921 174.873 150.921 183.443 150.921 188.053C150.921 190.171 148.636 189.894 147.196 189.894C146.186 189.894 145.355 189.064 145.355 188.053C145.355 171.785 145.355 155.518 145.355 139.25C145.355 137.617 147.293 136.8 148.456 137.921Z" fill="url(#paint39_linear)"/>
<defs>
<linearGradient id="paint0_linear" x1="117.907" y1="145.007" x2="117.909" y2="131.494" gradientUnits="userSpaceOnUse">
<stop stop-color="#383E4C"/>
<stop offset="1" stop-color="#ADB2C0"/>
</linearGradient>
<linearGradient id="paint1_linear" x1="119.175" y1="142.215" x2="119.175" y2="132.753" gradientUnits="userSpaceOnUse">
<stop stop-color="#494E5A"/>
<stop offset="1" stop-color="#606469"/>
</linearGradient>
<linearGradient id="paint2_linear" x1="117.51" y1="143.973" x2="117.51" y2="131.492" gradientUnits="userSpaceOnUse">
<stop stop-color="#AEB5BC"/>
<stop offset="1" stop-color="white"/>
</linearGradient>
<linearGradient id="paint3_linear" x1="125.781" y1="186.494" x2="118.671" y2="155.603" gradientUnits="userSpaceOnUse">
<stop stop-color="#3654A5"/>
<stop offset="1" stop-color="#5781C1"/>
</linearGradient>
<linearGradient id="paint4_linear" x1="123.555" y1="187.61" x2="123.557" y2="144.371" gradientUnits="userSpaceOnUse">
<stop stop-color="#313092"/>
<stop offset="1" stop-color="#3654A5"/>
</linearGradient>
<linearGradient id="paint5_linear" x1="117.883" y1="149.029" x2="117.884" y2="185.513" gradientUnits="userSpaceOnUse">
<stop stop-color="#5781C1"/>
<stop offset="1" stop-color="#AADDDD"/>
</linearGradient>
<linearGradient id="paint6_linear" x1="118.598" y1="147.399" x2="120.337" y2="158.683" gradientUnits="userSpaceOnUse">
<stop stop-color="#86ACD6"/>
<stop offset="1" stop-color="#FBFDFF"/>
</linearGradient>
<linearGradient id="paint7_linear" x1="119.459" y1="180.006" x2="120.476" y2="171.141" gradientUnits="userSpaceOnUse">
<stop stop-color="#86ACD6"/>
<stop offset="1" stop-color="#FBFDFF"/>
</linearGradient>
<linearGradient id="paint8_linear" x1="117.973" y1="158.063" x2="117.974" y2="142.965" gradientUnits="userSpaceOnUse">
<stop stop-color="#5781C1"/>
<stop offset="1" stop-color="#ADB2C0"/>
</linearGradient>
<linearGradient id="paint9_linear" x1="117.678" y1="157.801" x2="117.678" y2="143.204" gradientUnits="userSpaceOnUse">
<stop stop-color="#828591"/>
<stop offset="1" stop-color="#ADB2C0"/>
</linearGradient>
<linearGradient id="paint10_linear" x1="117.973" y1="145.454" x2="117.974" y2="142.737" gradientUnits="userSpaceOnUse">
<stop stop-color="#3D0000"/>
<stop offset="1" stop-color="#794503"/>
</linearGradient>
<linearGradient id="paint11_linear" x1="117.973" y1="145.334" x2="117.974" y2="142.762" gradientUnits="userSpaceOnUse">
<stop stop-color="#EF4423"/>
<stop offset="1" stop-color="#C9CD2B"/>
</linearGradient>
<linearGradient id="paint12_linear" x1="118.229" y1="145.193" x2="117.73" y2="142.816" gradientUnits="userSpaceOnUse">
<stop stop-color="#EF4423"/>
<stop offset="1" stop-color="white"/>
</linearGradient>
<linearGradient id="paint13_linear" x1="117.973" y1="156.435" x2="117.974" y2="155.011" gradientUnits="userSpaceOnUse">
<stop stop-color="#3D0000"/>
<stop offset="1" stop-color="#794503"/>
</linearGradient>
<linearGradient id="paint14_linear" x1="117.973" y1="156.372" x2="117.974" y2="155.024" gradientUnits="userSpaceOnUse">
<stop stop-color="#EF4423"/>
<stop offset="1" stop-color="#C9CD2B"/>
</linearGradient>
<linearGradient id="paint15_linear" x1="118.046" y1="156.319" x2="117.905" y2="155.034" gradientUnits="userSpaceOnUse">
<stop stop-color="#EF4423"/>
<stop offset="1" stop-color="white"/>
</linearGradient>
<linearGradient id="paint16_linear" x1="117.816" y1="167.861" x2="117.266" y2="167.861" gradientUnits="userSpaceOnUse">
<stop stop-color="#5B75B9"/>
<stop offset="1" stop-color="#82ACDB"/>
</linearGradient>
<linearGradient id="paint17_linear" x1="120.279" y1="165.882" x2="119.318" y2="165.881" gradientUnits="userSpaceOnUse">
<stop stop-color="#5B75B9"/>
<stop offset="1" stop-color="#82ACDB"/>
</linearGradient>
<linearGradient id="paint18_linear" x1="123.786" y1="164.002" x2="122.684" y2="164" gradientUnits="userSpaceOnUse">
<stop stop-color="#5B75B9"/>
<stop offset="1" stop-color="#82ACDB"/>
</linearGradient>
<linearGradient id="paint19_linear" x1="125.09" y1="163.646" x2="115.045" y2="163.646" gradientUnits="userSpaceOnUse">
<stop stop-color="#140C4F"/>
<stop offset="1" stop-color="white"/>
</linearGradient>
<linearGradient id="paint20_linear" x1="152.558" y1="145.007" x2="152.556" y2="131.494" gradientUnits="userSpaceOnUse">
<stop stop-color="#383E4C"/>
<stop offset="1" stop-color="#ADB2C0"/>
</linearGradient>
<linearGradient id="paint21_linear" x1="151.289" y1="142.215" x2="151.289" y2="132.753" gradientUnits="userSpaceOnUse">
<stop stop-color="#494E5A"/>
<stop offset="1" stop-color="#606469"/>
</linearGradient>
<linearGradient id="paint22_linear" x1="152.954" y1="143.973" x2="152.954" y2="131.491" gradientUnits="userSpaceOnUse">
<stop stop-color="#AEB5BC"/>
<stop offset="1" stop-color="white"/>
</linearGradient>
<linearGradient id="paint23_linear" x1="144.684" y1="186.494" x2="151.793" y2="155.603" gradientUnits="userSpaceOnUse">
<stop stop-color="#3654A5"/>
<stop offset="1" stop-color="#5781C1"/>
</linearGradient>
<linearGradient id="paint24_linear" x1="146.91" y1="187.61" x2="146.908" y2="144.371" gradientUnits="userSpaceOnUse">
<stop stop-color="#313092"/>
<stop offset="1" stop-color="#3654A5"/>
</linearGradient>
<linearGradient id="paint25_linear" x1="152.582" y1="149.029" x2="152.58" y2="185.512" gradientUnits="userSpaceOnUse">
<stop stop-color="#5781C1"/>
<stop offset="1" stop-color="#AADDDD"/>
</linearGradient>
<linearGradient id="paint26_linear" x1="151.866" y1="147.399" x2="150.127" y2="158.683" gradientUnits="userSpaceOnUse">
<stop stop-color="#86ACD6"/>
<stop offset="1" stop-color="#FBFDFF"/>
</linearGradient>
<linearGradient id="paint27_linear" x1="151.006" y1="180.006" x2="149.989" y2="171.141" gradientUnits="userSpaceOnUse">
<stop stop-color="#86ACD6"/>
<stop offset="1" stop-color="#FBFDFF"/>
</linearGradient>
<linearGradient id="paint28_linear" x1="152.492" y1="158.063" x2="152.49" y2="142.965" gradientUnits="userSpaceOnUse">
<stop stop-color="#5781C1"/>
<stop offset="1" stop-color="#ADB2C0"/>
</linearGradient>
<linearGradient id="paint29_linear" x1="152.787" y1="157.801" x2="152.787" y2="143.204" gradientUnits="userSpaceOnUse">
<stop stop-color="#828591"/>
<stop offset="1" stop-color="#ADB2C0"/>
</linearGradient>
<linearGradient id="paint30_linear" x1="152.491" y1="145.454" x2="152.491" y2="142.737" gradientUnits="userSpaceOnUse">
<stop stop-color="#3D0000"/>
<stop offset="1" stop-color="#794503"/>
</linearGradient>
<linearGradient id="paint31_linear" x1="152.491" y1="145.334" x2="152.491" y2="142.762" gradientUnits="userSpaceOnUse">
<stop stop-color="#EF4423"/>
<stop offset="1" stop-color="#C9CD2B"/>
</linearGradient>
<linearGradient id="paint32_linear" x1="152.235" y1="145.193" x2="152.734" y2="142.816" gradientUnits="userSpaceOnUse">
<stop stop-color="#EF4423"/>
<stop offset="1" stop-color="white"/>
</linearGradient>
<linearGradient id="paint33_linear" x1="152.491" y1="156.435" x2="152.491" y2="155.011" gradientUnits="userSpaceOnUse">
<stop stop-color="#3D0000"/>
<stop offset="1" stop-color="#794503"/>
</linearGradient>
<linearGradient id="paint34_linear" x1="152.491" y1="156.372" x2="152.491" y2="155.024" gradientUnits="userSpaceOnUse">
<stop stop-color="#EF4423"/>
<stop offset="1" stop-color="#C9CD2B"/>
</linearGradient>
<linearGradient id="paint35_linear" x1="152.418" y1="156.319" x2="152.56" y2="155.034" gradientUnits="userSpaceOnUse">
<stop stop-color="#EF4423"/>
<stop offset="1" stop-color="white"/>
</linearGradient>
<linearGradient id="paint36_linear" x1="152.648" y1="167.861" x2="153.199" y2="167.861" gradientUnits="userSpaceOnUse">
<stop stop-color="#5B75B9"/>
<stop offset="1" stop-color="#82ACDB"/>
</linearGradient>
<linearGradient id="paint37_linear" x1="150.185" y1="165.882" x2="151.146" y2="165.881" gradientUnits="userSpaceOnUse">
<stop stop-color="#5B75B9"/>
<stop offset="1" stop-color="#82ACDB"/>
</linearGradient>
<linearGradient id="paint38_linear" x1="146.679" y1="164.002" x2="147.78" y2="164" gradientUnits="userSpaceOnUse">
<stop stop-color="#5B75B9"/>
<stop offset="1" stop-color="#82ACDB"/>
</linearGradient>
<linearGradient id="paint39_linear" x1="145.374" y1="163.646" x2="155.42" y2="163.646" gradientUnits="userSpaceOnUse">
<stop stop-color="#140C4F"/>
<stop offset="1" stop-color="white"/>
</linearGradient>
</defs>
</svg>
