<svg width="270" height="370" viewBox="0 0 270 370" fill="none" xmlns="http://www.w3.org/2000/svg">
<g clip-path="url(#clip0)">
<path fill-rule="evenodd" clip-rule="evenodd" d="M134.238 92.718V96.4423C134.404 96.6361 134.528 96.9545 134.528 97.356C134.528 97.7714 134.418 98.0759 134.238 98.2698V103.78C134.404 103.974 134.528 104.292 134.528 104.694C134.528 105.109 134.418 105.414 134.238 105.607V111.118C134.404 111.311 134.528 111.63 134.528 112.031C134.528 112.447 134.418 112.751 134.238 112.945L131.676 121.252H138.862L136.301 112.945C136.134 112.751 136.01 112.433 136.01 112.031C136.01 111.616 136.121 111.311 136.301 111.118V105.607C136.134 105.414 136.01 105.095 136.01 104.694C136.01 104.278 136.121 103.974 136.301 103.78V98.2698C136.134 98.0759 136.01 97.7575 136.01 97.356C136.01 96.9407 136.121 96.6361 136.301 96.4423V92.718L135.276 89.0492L134.238 92.718Z" fill="url(#paint0_linear)"/>
<path fill-rule="evenodd" clip-rule="evenodd" d="M132.77 96.4423V92.718C132.77 92.5934 132.784 92.455 132.826 92.3304L133.85 88.6615C133.975 88.177 134.362 87.7755 134.875 87.637C135.65 87.4155 136.467 87.8724 136.674 88.6615L137.671 92.2196C137.727 92.3719 137.754 92.5519 137.754 92.718V96.4423C137.754 96.7469 137.657 97.0514 137.477 97.3006V97.356V97.3976C137.657 97.6468 137.768 97.9375 137.768 98.2698V103.78C137.768 104.085 137.671 104.389 137.491 104.638V104.694V104.735C137.671 104.984 137.782 105.275 137.782 105.607V111.118C137.782 111.422 137.685 111.727 137.505 111.976V112.031V112.087C137.602 112.211 137.671 112.364 137.727 112.516L140.26 120.698C140.329 120.864 140.371 121.044 140.371 121.238C140.371 122.055 139.706 122.706 138.903 122.706H131.718C131.58 122.706 131.427 122.678 131.289 122.636C130.513 122.401 130.084 121.584 130.32 120.809L132.853 112.613C132.895 112.419 132.978 112.239 133.102 112.073V112.031V111.99C132.922 111.741 132.812 111.45 132.812 111.118V105.607C132.812 105.303 132.909 104.998 133.102 104.735V104.694V104.652C132.922 104.403 132.812 104.112 132.812 103.78V98.2698C132.812 97.9652 132.909 97.6606 133.102 97.3976V97.356V97.3145C132.881 97.0653 132.77 96.7607 132.77 96.4423ZM134.238 92.718V96.4423C134.404 96.6361 134.528 96.9545 134.528 97.356C134.528 97.7714 134.418 98.0759 134.238 98.2698V103.78C134.404 103.974 134.528 104.292 134.528 104.694C134.528 105.109 134.418 105.414 134.238 105.607V111.118C134.404 111.311 134.528 111.63 134.528 112.031C134.528 112.447 134.418 112.751 134.238 112.945L131.676 121.252H138.862L136.301 112.945C136.134 112.751 136.01 112.433 136.01 112.031C136.01 111.616 136.121 111.311 136.301 111.118V105.607C136.134 105.414 136.01 105.095 136.01 104.694C136.01 104.278 136.121 103.974 136.301 103.78V98.2698C136.134 98.0759 136.01 97.7575 136.01 97.356C136.01 96.9407 136.121 96.6361 136.301 96.4423V92.718L135.276 89.0492L134.238 92.718Z" fill="black"/>
<path fill-rule="evenodd" clip-rule="evenodd" d="M134.238 92.7181C134.238 93.9641 134.238 95.1963 134.238 96.4423C134.404 96.6361 134.528 96.9546 134.528 97.3561C134.528 97.7714 134.418 98.076 134.238 98.2698C134.238 100.111 134.238 101.939 134.238 103.78C134.404 103.974 134.528 104.292 134.528 104.694C134.528 105.109 134.418 105.414 134.238 105.608C134.238 107.449 134.238 109.276 134.238 111.118C134.404 111.312 134.528 111.63 134.528 112.031C134.528 112.447 134.418 112.751 134.238 112.945C133.379 115.714 132.521 118.483 131.676 121.252C132.867 121.252 134.072 121.252 135.262 121.252C135.262 110.509 135.262 99.7789 135.262 89.0354C134.93 90.2676 134.584 91.4859 134.238 92.7181Z" fill="url(#paint1_linear)"/>
<path fill-rule="evenodd" clip-rule="evenodd" d="M132.258 108.113C132.258 108.584 132.258 109.069 132.258 109.539C132.382 109.539 132.507 109.539 132.632 109.539C132.729 109.387 132.825 109.235 132.909 109.096C133.019 109.249 133.116 109.401 133.227 109.539C133.905 109.539 134.584 109.539 135.262 109.539C135.941 109.539 136.619 109.539 137.297 109.539C137.408 109.387 137.505 109.235 137.616 109.096C137.713 109.249 137.81 109.401 137.893 109.539C138.017 109.539 138.142 109.539 138.266 109.539C138.266 109.069 138.266 108.584 138.266 108.113C138.142 108.113 138.017 108.113 137.893 108.113C137.796 108.266 137.699 108.418 137.616 108.556C137.505 108.404 137.408 108.252 137.297 108.113C136.619 108.113 135.941 108.113 135.262 108.113C134.584 108.113 133.905 108.113 133.227 108.113C133.116 108.266 133.019 108.418 132.909 108.556C132.812 108.404 132.715 108.252 132.632 108.113C132.507 108.113 132.382 108.113 132.258 108.113Z" fill="url(#paint2_linear)"/>
<path fill-rule="evenodd" clip-rule="evenodd" d="M130.79 109.539V108.113C130.79 107.297 131.455 106.646 132.258 106.646H132.632C132.729 106.646 132.825 106.66 132.922 106.674C133.019 106.646 133.116 106.646 133.227 106.646H135.262H137.297C137.394 106.646 137.491 106.66 137.588 106.674C137.685 106.646 137.796 106.646 137.893 106.646H138.266C139.083 106.646 139.734 107.31 139.734 108.113V109.539C139.734 110.356 139.069 111.007 138.266 111.007H137.893C137.796 111.007 137.699 110.993 137.602 110.979C137.505 111.007 137.408 111.007 137.297 111.007H135.262H133.227V110.993C133.13 110.993 133.033 110.979 132.95 110.965C132.853 110.993 132.742 111.007 132.632 111.007H132.258C131.441 111.007 130.79 110.342 130.79 109.539ZM132.258 108.113C132.258 108.584 132.258 109.069 132.258 109.539C132.382 109.539 132.507 109.539 132.632 109.539C132.729 109.387 132.825 109.235 132.909 109.096C133.019 109.249 133.116 109.401 133.227 109.539C133.905 109.539 134.584 109.539 135.262 109.539C135.941 109.539 136.619 109.539 137.297 109.539C137.408 109.387 137.505 109.235 137.616 109.096C137.713 109.249 137.81 109.401 137.893 109.539C138.017 109.539 138.142 109.539 138.266 109.539C138.266 109.069 138.266 108.584 138.266 108.113C138.142 108.113 138.017 108.113 137.893 108.113C137.796 108.266 137.699 108.418 137.616 108.556C137.505 108.404 137.408 108.252 137.297 108.113C136.619 108.113 135.941 108.113 135.262 108.113C134.584 108.113 133.905 108.113 133.227 108.113C133.116 108.266 133.019 108.418 132.909 108.556C132.812 108.404 132.715 108.252 132.632 108.113C132.507 108.113 132.382 108.113 132.258 108.113Z" fill="black"/>
<path fill-rule="evenodd" clip-rule="evenodd" d="M132.258 100.762C132.258 101.233 132.258 101.717 132.258 102.188C132.382 102.188 132.507 102.188 132.632 102.188C132.729 102.036 132.825 101.883 132.909 101.745C133.019 101.897 133.116 102.049 133.227 102.188C133.905 102.188 134.584 102.188 135.262 102.188C135.941 102.188 136.619 102.188 137.297 102.188C137.408 102.036 137.505 101.883 137.616 101.745C137.713 101.897 137.81 102.049 137.893 102.188C138.017 102.188 138.142 102.188 138.266 102.188C138.266 101.717 138.266 101.233 138.266 100.762C138.142 100.762 138.017 100.762 137.893 100.762C137.796 100.914 137.699 101.066 137.616 101.205C137.505 101.053 137.408 100.9 137.297 100.762C136.619 100.762 135.941 100.762 135.262 100.762C134.584 100.762 133.905 100.762 133.227 100.762C133.116 100.914 133.019 101.066 132.909 101.205C132.812 101.053 132.715 100.9 132.632 100.762C132.507 100.762 132.382 100.762 132.258 100.762Z" fill="url(#paint3_linear)"/>
<path fill-rule="evenodd" clip-rule="evenodd" d="M130.79 102.188V100.762C130.79 99.945 131.455 99.2943 132.258 99.2943H132.632C132.729 99.2943 132.825 99.3082 132.922 99.322C133.019 99.2943 133.116 99.2943 133.227 99.2943H135.262H137.297C137.394 99.2943 137.491 99.3082 137.588 99.322C137.685 99.2943 137.796 99.2943 137.893 99.2943H138.266C139.083 99.2943 139.734 99.9589 139.734 100.762V102.188C139.734 103.005 139.069 103.655 138.266 103.655H137.893C137.796 103.655 137.699 103.642 137.602 103.628C137.505 103.655 137.408 103.655 137.297 103.655H135.262H133.227V103.642C133.13 103.642 133.033 103.628 132.95 103.614C132.853 103.642 132.742 103.655 132.632 103.655H132.258C131.441 103.655 130.79 103.005 130.79 102.188ZM132.258 100.762C132.258 101.233 132.258 101.717 132.258 102.188C132.382 102.188 132.507 102.188 132.632 102.188C132.729 102.036 132.825 101.883 132.909 101.745C133.019 101.897 133.116 102.049 133.227 102.188C133.905 102.188 134.584 102.188 135.262 102.188C135.941 102.188 136.619 102.188 137.297 102.188C137.408 102.036 137.505 101.883 137.616 101.745C137.713 101.897 137.81 102.049 137.893 102.188C138.017 102.188 138.142 102.188 138.266 102.188C138.266 101.717 138.266 101.233 138.266 100.762C138.142 100.762 138.017 100.762 137.893 100.762C137.796 100.914 137.699 101.066 137.616 101.205C137.505 101.053 137.408 100.9 137.297 100.762C136.619 100.762 135.941 100.762 135.262 100.762C134.584 100.762 133.905 100.762 133.227 100.762C133.116 100.914 133.019 101.066 132.909 101.205C132.812 101.053 132.715 100.9 132.632 100.762C132.507 100.762 132.382 100.762 132.258 100.762Z" fill="black"/>
<path fill-rule="evenodd" clip-rule="evenodd" d="M132.258 93.4241C132.258 93.8948 132.258 94.3794 132.258 94.8501C132.382 94.8501 132.507 94.8501 132.632 94.8501C132.729 94.6978 132.825 94.5455 132.909 94.407C133.019 94.5593 133.116 94.7116 133.227 94.8501C133.905 94.8501 134.584 94.8501 135.262 94.8501C135.941 94.8501 136.619 94.8501 137.297 94.8501C137.408 94.6978 137.505 94.5455 137.616 94.407C137.713 94.5593 137.81 94.7116 137.893 94.8501C138.017 94.8501 138.142 94.8501 138.266 94.8501C138.266 94.3794 138.266 93.8948 138.266 93.4241C138.142 93.4241 138.017 93.4241 137.893 93.4241C137.796 93.5764 137.699 93.7287 137.616 93.8671C137.505 93.7148 137.408 93.5625 137.297 93.4241C136.619 93.4241 135.941 93.4241 135.262 93.4241C134.584 93.4241 133.905 93.4241 133.227 93.4241C133.116 93.5764 133.019 93.7287 132.909 93.8671C132.812 93.7148 132.715 93.5625 132.632 93.4241C132.507 93.4241 132.382 93.4241 132.258 93.4241Z" fill="url(#paint4_linear)"/>
<path fill-rule="evenodd" clip-rule="evenodd" d="M130.79 94.8501V93.4241C130.79 92.6072 131.455 91.9565 132.258 91.9565H132.632C132.729 91.9565 132.825 91.9704 132.922 91.9842C133.019 91.9565 133.116 91.9565 133.227 91.9565H135.262H137.297C137.394 91.9565 137.491 91.9704 137.588 91.9842C137.685 91.9565 137.796 91.9565 137.893 91.9565H138.266C139.083 91.9565 139.734 92.6211 139.734 93.4241V94.8501C139.734 95.6669 139.069 96.3176 138.266 96.3176H137.893C137.796 96.3176 137.699 96.3038 137.602 96.2899C137.505 96.3176 137.408 96.3176 137.297 96.3176H135.262H133.227V96.3038C133.13 96.3038 133.033 96.2899 132.95 96.2761C132.853 96.3038 132.742 96.3176 132.632 96.3176H132.258C131.441 96.3176 130.79 95.6669 130.79 94.8501ZM132.258 93.4241C132.258 93.8948 132.258 94.3794 132.258 94.8501C132.382 94.8501 132.507 94.8501 132.632 94.8501C132.729 94.6978 132.825 94.5455 132.909 94.4071C133.019 94.5594 133.116 94.7116 133.227 94.8501C133.905 94.8501 134.584 94.8501 135.262 94.8501C135.941 94.8501 136.619 94.8501 137.297 94.8501C137.408 94.6978 137.505 94.5455 137.616 94.4071C137.713 94.5594 137.81 94.7116 137.893 94.8501C138.017 94.8501 138.142 94.8501 138.266 94.8501C138.266 94.3794 138.266 93.8948 138.266 93.4241C138.142 93.4241 138.017 93.4241 137.893 93.4241C137.796 93.5764 137.699 93.7287 137.616 93.8671C137.505 93.7148 137.408 93.5625 137.297 93.4241C136.619 93.4241 135.941 93.4241 135.262 93.4241C134.584 93.4241 133.905 93.4241 133.227 93.4241C133.116 93.5764 133.019 93.7287 132.909 93.8671C132.812 93.7148 132.715 93.5625 132.632 93.4241C132.507 93.4241 132.382 93.4241 132.258 93.4241Z" fill="black"/>
<path fill-rule="evenodd" clip-rule="evenodd" d="M144.151 118.594C139.997 118.594 135.29 118.594 135.29 118.594C135.29 118.594 130.583 118.594 126.429 118.594C124.09 118.594 121.584 123.952 121.584 126.624C121.584 129.296 123.757 131.469 126.429 131.469C129.101 131.469 128.644 126.624 131.275 126.624H135.29H139.305C141.935 126.624 141.478 131.469 144.151 131.469C146.823 131.469 148.996 129.296 148.996 126.624C148.996 123.952 146.49 118.594 144.151 118.594Z" fill="url(#paint5_linear)"/>
<path d="M144.15 132.162C142.365 132.162 141.645 130.583 141.077 129.31C140.509 128.064 140.136 127.316 139.305 127.316H131.275C130.458 127.316 130.07 128.077 129.503 129.31C128.935 130.583 128.215 132.162 126.429 132.162C123.37 132.162 120.891 129.683 120.891 126.624C120.891 125.17 121.528 123.08 122.525 121.266C123.217 120.006 124.643 117.902 126.429 117.902H144.15C145.936 117.902 147.362 120.02 148.055 121.266C149.038 123.066 149.688 125.17 149.688 126.624C149.688 129.683 147.196 132.162 144.15 132.162ZM131.275 125.932H139.305C141.063 125.932 141.769 127.496 142.337 128.742C142.904 130.002 143.306 130.777 144.15 130.777C146.435 130.777 148.304 128.908 148.304 126.624C148.304 124.035 145.867 119.286 144.15 119.286H126.429C124.713 119.286 122.276 124.035 122.276 126.624C122.276 128.908 124.145 130.777 126.429 130.777C127.288 130.777 127.675 130.002 128.243 128.742C128.811 127.496 129.517 125.932 131.275 125.932Z" fill="black"/>
<path d="M141.285 125.655H129.295C127.329 125.655 125.737 124.561 125.737 123.218C125.737 121.958 127.426 119.286 129.295 119.286H141.285C143.154 119.286 144.843 121.958 144.843 123.218C144.843 124.561 143.237 125.655 141.285 125.655Z" fill="#00045D"/>
<path fill-rule="evenodd" clip-rule="evenodd" d="M141.105 119.286C138.377 119.286 132.203 119.286 129.475 119.286C127.938 119.286 126.291 121.709 126.291 122.913C126.291 124.118 127.717 125.101 129.475 125.101C131.233 125.101 139.346 125.101 141.105 125.101C142.863 125.101 144.289 124.118 144.289 122.913C144.289 121.709 142.642 119.286 141.105 119.286Z" fill="url(#paint6_linear)"/>
<path fill-rule="evenodd" clip-rule="evenodd" d="M123.993 118.594V55.2681L121.625 80.6039V118.414L123.993 118.594Z" fill="url(#paint7_linear)"/>
<path fill-rule="evenodd" clip-rule="evenodd" d="M125.46 55.2681V118.58V118.691C125.405 119.494 124.699 120.103 123.882 120.047L121.597 119.881C120.808 119.854 120.171 119.217 120.171 118.414V80.6039C120.171 80.5624 120.171 80.5208 120.171 80.4655L122.511 55.2542C122.511 54.4512 123.176 53.8005 123.979 53.8005C124.796 53.8005 125.46 54.4651 125.46 55.2681ZM123.993 118.594V55.2681L121.639 80.6039V118.414L123.993 118.594Z" fill="black"/>
<path opacity="0.5" fill-rule="evenodd" clip-rule="evenodd" d="M123.993 109.332C123.993 103.752 123.993 98.1729 123.993 92.5935C122.816 94.9748 122.123 90.7521 121.639 80.6178C121.639 85.4081 121.639 90.1983 121.639 94.9748C122.483 93.1334 123.688 99.5851 123.993 109.332Z" fill="url(#paint8_linear)"/>
<path fill-rule="evenodd" clip-rule="evenodd" d="M123.259 100.111H125.765C126.083 100.111 126.111 100.72 125.862 100.845L125.529 101.011C125.308 101.122 125.308 101.703 125.529 101.828L125.862 101.994C126.111 102.119 126.069 102.728 125.765 102.728H123.259C123.12 102.728 122.996 102.589 122.996 102.423V100.416C123.01 100.25 123.12 100.111 123.259 100.111Z" fill="url(#paint9_linear)"/>
<path fill-rule="evenodd" clip-rule="evenodd" d="M123.259 98.6437H125.765C126.305 98.6437 126.734 98.879 127.052 99.239C127.274 99.4882 127.412 99.8066 127.468 100.139C127.509 100.402 127.509 100.679 127.454 100.928C127.412 101.094 127.357 101.274 127.274 101.426C127.357 101.579 127.412 101.745 127.454 101.925C127.509 102.174 127.509 102.451 127.468 102.714C127.412 103.046 127.274 103.351 127.052 103.614C127.011 103.669 126.955 103.725 126.9 103.766C126.609 104.043 126.222 104.209 125.765 104.209H123.259C122.733 104.209 122.276 103.974 121.957 103.6L121.902 103.531C121.667 103.226 121.528 102.852 121.528 102.437V100.43C121.528 99.9866 121.694 99.5851 121.957 99.2667C122.276 98.879 122.747 98.6437 123.259 98.6437ZM123.259 100.111H125.765C126.083 100.111 126.111 100.72 125.862 100.845L125.529 101.011C125.308 101.122 125.308 101.703 125.529 101.828L125.862 101.994C126.111 102.119 126.069 102.728 125.765 102.728H123.259C123.12 102.728 122.996 102.589 122.996 102.423V100.416C123.01 100.25 123.12 100.111 123.259 100.111Z" fill="black"/>
<path fill-rule="evenodd" clip-rule="evenodd" d="M123.259 100.111C123.563 100.111 123.882 100.111 124.186 100.111C123.203 100.43 123.203 102.409 124.186 102.728C123.882 102.728 123.563 102.728 123.259 102.728C123.12 102.728 122.996 102.589 122.996 102.423C122.996 101.759 122.996 101.08 122.996 100.416C123.01 100.25 123.12 100.111 123.259 100.111Z" fill="#464854"/>
<path d="M125.363 101.233H123.01V101.606H125.363V101.233Z" fill="url(#paint10_linear)"/>
<path fill-rule="evenodd" clip-rule="evenodd" d="M123.259 92.7734H125.765C126.083 92.7734 126.111 93.3826 125.862 93.5072L125.529 93.6733C125.308 93.7841 125.308 94.3656 125.529 94.4902L125.862 94.6563C126.111 94.7809 126.069 95.3901 125.765 95.3901H123.259C123.12 95.3901 122.996 95.2516 122.996 95.0855V93.078C123.01 92.9119 123.12 92.7734 123.259 92.7734Z" fill="url(#paint11_linear)"/>
<path fill-rule="evenodd" clip-rule="evenodd" d="M123.259 91.3059H125.765C126.305 91.3059 126.734 91.5413 127.052 91.9012C127.274 92.1504 127.412 92.4689 127.468 92.8011C127.509 93.0642 127.509 93.3411 127.454 93.5903C127.412 93.7564 127.357 93.9364 127.274 94.0887C127.357 94.241 127.412 94.4071 127.454 94.5871C127.509 94.8363 127.509 95.1132 127.468 95.3762C127.412 95.7085 127.274 96.0131 127.052 96.2762C127.011 96.3315 126.955 96.3869 126.9 96.4284C126.609 96.7053 126.222 96.8715 125.765 96.8715H123.259C122.733 96.8715 122.276 96.6361 121.957 96.2623L121.902 96.1931C121.667 95.8885 121.528 95.5147 121.528 95.0994V93.0919C121.528 92.6488 121.694 92.2473 121.957 91.9289C122.276 91.5413 122.747 91.3059 123.259 91.3059ZM123.259 92.7734H125.765C126.083 92.7734 126.111 93.3826 125.862 93.5072L125.529 93.6734C125.308 93.7841 125.308 94.3656 125.529 94.4902L125.862 94.6563C126.111 94.7809 126.069 95.3901 125.765 95.3901H123.259C123.12 95.3901 122.996 95.2516 122.996 95.0855V93.078C123.01 92.9119 123.12 92.7734 123.259 92.7734Z" fill="black"/>
<path fill-rule="evenodd" clip-rule="evenodd" d="M123.259 92.7734C123.563 92.7734 123.882 92.7734 124.186 92.7734C123.203 93.0919 123.203 95.0717 124.186 95.3901C123.882 95.3901 123.563 95.3901 123.259 95.3901C123.12 95.3901 122.996 95.2516 122.996 95.0855C122.996 94.421 122.996 93.7426 122.996 93.078C123.01 92.9119 123.12 92.7734 123.259 92.7734Z" fill="#464854"/>
<path d="M125.363 93.8949H123.01V94.2687H125.363V93.8949Z" fill="url(#paint12_linear)"/>
<path fill-rule="evenodd" clip-rule="evenodd" d="M123.259 85.4358H125.765C126.083 85.4358 126.111 86.045 125.862 86.1696L125.529 86.3357C125.308 86.4465 125.308 87.0279 125.529 87.1525L125.862 87.3187C126.111 87.4433 126.069 88.0524 125.765 88.0524H123.259C123.12 88.0524 122.996 87.914 122.996 87.7479V85.7404C123.01 85.5604 123.12 85.4358 123.259 85.4358Z" fill="url(#paint13_linear)"/>
<path fill-rule="evenodd" clip-rule="evenodd" d="M123.259 83.9543H125.765C126.305 83.9543 126.734 84.1897 127.052 84.5497C127.274 84.7989 127.412 85.1173 127.468 85.4496C127.509 85.7126 127.509 85.9895 127.454 86.2387C127.412 86.4049 127.357 86.5848 127.274 86.7371C127.357 86.8894 127.412 87.0556 127.454 87.2355C127.509 87.4848 127.509 87.7616 127.468 88.0247C127.412 88.357 127.274 88.6616 127.052 88.9246C127.011 88.98 126.955 89.0354 126.9 89.0769C126.609 89.3538 126.222 89.5199 125.765 89.5199H123.259C122.733 89.5199 122.276 89.2846 121.957 88.9108L121.902 88.8415C121.667 88.537 121.528 88.1631 121.528 87.7478V85.7403C121.528 85.2973 121.694 84.8958 121.957 84.5774C122.276 84.1897 122.747 83.9543 123.259 83.9543ZM123.259 85.4357H125.765C126.083 85.4357 126.111 86.0449 125.862 86.1695L125.529 86.3356C125.308 86.4464 125.308 87.0279 125.529 87.1525L125.862 87.3186C126.111 87.4432 126.069 88.0524 125.765 88.0524H123.259C123.12 88.0524 122.996 87.9139 122.996 87.7478V85.7403C123.01 85.5603 123.12 85.4357 123.259 85.4357Z" fill="black"/>
<path fill-rule="evenodd" clip-rule="evenodd" d="M123.259 85.4358C123.563 85.4358 123.882 85.4358 124.186 85.4358C123.203 85.7542 123.203 87.734 124.186 88.0524C123.882 88.0524 123.563 88.0524 123.259 88.0524C123.12 88.0524 122.996 87.914 122.996 87.7479C122.996 87.0833 122.996 86.4049 122.996 85.7404C123.01 85.5604 123.12 85.4358 123.259 85.4358Z" fill="#464854"/>
<path d="M125.363 86.5571H123.01V86.9309H125.363V86.5571Z" fill="url(#paint14_linear)"/>
<path fill-rule="evenodd" clip-rule="evenodd" d="M124.145 71.3003H127.592C128.021 71.3003 128.077 71.6464 127.731 71.7156L127.274 71.8125C126.969 71.8818 126.969 72.214 127.274 72.2694L127.731 72.3663C128.063 72.4356 128.021 72.7817 127.592 72.7817H124.145C123.951 72.7817 123.785 72.6986 123.785 72.6155V71.4664C123.785 71.3834 123.951 71.3003 124.145 71.3003Z" fill="url(#paint15_linear)"/>
<path fill-rule="evenodd" clip-rule="evenodd" d="M124.145 69.8328H127.592C128.215 69.8328 128.7 70.0958 129.018 70.4419L129.06 70.4973L129.087 70.525C129.267 70.7604 129.364 71.0096 129.406 71.2726C129.406 71.3141 129.42 71.3557 129.42 71.3972C129.433 71.6049 129.406 71.8264 129.337 72.0341C129.42 72.2833 129.447 72.5325 129.42 72.7817C129.378 73.1001 129.24 73.3909 129.032 73.6262C128.727 73.9723 128.243 74.2354 127.606 74.2354H124.145C123.826 74.2354 123.508 74.1523 123.259 74.0416C122.677 73.7647 122.317 73.2524 122.317 72.6017V71.4526C122.317 70.8019 122.677 70.2896 123.259 70.0127C123.508 69.9158 123.826 69.8328 124.145 69.8328ZM124.145 71.3003H127.592C128.021 71.3003 128.077 71.6464 127.731 71.7156L127.274 71.8126C126.969 71.8818 126.969 72.2141 127.274 72.2694L127.731 72.3663C128.063 72.4356 128.021 72.7817 127.592 72.7817H124.145C123.951 72.7817 123.785 72.6986 123.785 72.6156V71.4664C123.785 71.3834 123.951 71.3003 124.145 71.3003Z" fill="black"/>
<path fill-rule="evenodd" clip-rule="evenodd" d="M124.145 71.3003C124.574 71.3003 125.003 71.3003 125.418 71.3003C124.062 71.4803 124.062 72.6155 125.418 72.7955C124.989 72.7955 124.56 72.7955 124.145 72.7955C123.951 72.7955 123.785 72.7125 123.785 72.6294C123.785 72.2417 123.785 71.8679 123.785 71.4803C123.785 71.3834 123.951 71.3003 124.145 71.3003Z" fill="#464854"/>
<path d="M127.038 71.951H123.785V72.1587H127.038V71.951Z" fill="url(#paint16_linear)"/>
<path fill-rule="evenodd" clip-rule="evenodd" d="M116.004 182.501L122.317 187.873C123.162 188.593 124.339 188.177 124.713 187.028C125.031 186.031 126.346 182.418 126.346 181.615V112.585L120.061 106.078L118.496 135.152L116.835 137.589C116.378 138.267 116.143 139.015 116.143 139.887V152.596L115.354 154.369V181.006C115.354 181.615 115.575 182.141 116.004 182.501Z" fill="url(#paint17_linear)"/>
<path fill-rule="evenodd" clip-rule="evenodd" d="M116.004 182.501L122.317 187.873C123.162 188.593 124.339 188.177 124.713 187.028C125.031 186.031 126.346 182.418 126.346 181.615V112.585L120.061 106.078L118.496 135.152L116.835 137.589C116.378 138.267 116.143 139.015 116.143 139.887V152.596L115.353 154.369V181.006C115.353 181.615 115.575 182.141 116.004 182.501ZM121.376 188.994L115.063 183.622C114.703 183.318 114.426 182.958 114.232 182.543C114.218 182.515 114.204 182.473 114.191 182.446C113.997 182.003 113.9 181.518 113.9 181.02V154.369C113.9 154.175 113.941 153.967 114.024 153.773L114.689 152.278V139.873C114.689 139.306 114.772 138.752 114.924 138.239C115.077 137.713 115.312 137.229 115.63 136.758L117.07 134.654L118.621 105.995C118.635 105.635 118.787 105.289 119.064 105.012C119.645 104.458 120.573 104.472 121.141 105.054L127.343 111.491C127.648 111.755 127.828 112.156 127.828 112.585V181.615C127.828 182.487 126.969 184.979 126.443 186.544C126.291 187.001 126.152 187.388 126.125 187.485C125.986 187.928 125.765 188.316 125.488 188.634C125.1 189.077 124.629 189.396 124.103 189.562C123.563 189.728 122.968 189.742 122.4 189.548C122.054 189.437 121.722 189.257 121.417 189.008L121.376 188.994Z" fill="black"/>
<path opacity="0.5" fill-rule="evenodd" clip-rule="evenodd" d="M117.555 180.217C116.004 180.314 115.104 174.347 116.53 172.741C116.336 165.694 116.863 156.307 116.863 155.462C115.354 155.102 117.762 150.769 119.41 148.941C119.59 136.343 119.355 109.235 121.182 110.716C120.794 109.027 120.407 107.643 120.061 106.078C119.535 115.77 119.009 125.461 118.496 135.152C118.496 138.392 118.496 147.488 118.496 148.9C117.707 150.132 116.932 151.364 116.143 152.596C115.88 153.192 115.617 153.787 115.354 154.369C115.354 163.243 115.354 172.131 115.354 181.006C115.88 180.95 116.904 180.729 117.555 180.217Z" fill="url(#paint18_linear)"/>
<path fill-rule="evenodd" clip-rule="evenodd" d="M118.496 135.152C117.943 135.969 117.389 136.772 116.835 137.589C116.378 138.267 116.143 139.015 116.143 139.887C116.143 144.123 116.143 148.36 116.143 152.596C116.876 151.35 117.763 150.16 118.496 148.9C118.538 144.331 118.441 139.721 118.496 135.152Z" fill="url(#paint19_linear)"/>
<path fill-rule="evenodd" clip-rule="evenodd" d="M118.33 137.575L116.143 139.458V141.064L118.33 139.195V137.575Z" fill="url(#paint20_linear)"/>
<path fill-rule="evenodd" clip-rule="evenodd" d="M118.33 140.33L116.129 142.199V143.805L118.33 141.95V140.33Z" fill="url(#paint21_linear)"/>
<path fill-rule="evenodd" clip-rule="evenodd" d="M118.33 143.085L116.115 144.968V146.588L118.33 144.691V143.085Z" fill="url(#paint22_linear)"/>
<path fill-rule="evenodd" clip-rule="evenodd" d="M118.33 145.84L116.115 147.723V149.329L118.33 147.446V145.84Z" fill="url(#paint23_linear)"/>
<path fill-rule="evenodd" clip-rule="evenodd" d="M116.558 149.911C116.461 149.744 116.281 149.994 116.226 150.187C116.17 150.381 116.129 150.824 116.226 150.99C116.323 151.157 116.503 150.907 116.558 150.714C116.627 150.506 116.669 150.063 116.558 149.911Z" fill="url(#paint24_linear)"/>
<path opacity="0.5" fill-rule="evenodd" clip-rule="evenodd" d="M116.821 137.589C116.364 138.267 116.129 139.015 116.129 139.887C116.129 144.123 116.129 148.36 116.129 152.596C116.364 152.195 116.586 151.793 116.821 151.392C116.143 151.392 116.295 139.928 116.821 137.589Z" fill="url(#paint25_linear)"/>
<path fill-rule="evenodd" clip-rule="evenodd" d="M118.496 135.152C118.233 135.54 117.929 135.983 117.666 136.37C118.482 136.37 118.358 150.229 117.666 150.229C117.929 149.827 118.261 149.301 118.496 148.9C118.538 144.331 118.441 139.721 118.496 135.152Z" fill="url(#paint26_linear)"/>
<path opacity="0.5" fill-rule="evenodd" clip-rule="evenodd" d="M116.004 182.501C118.109 184.287 120.213 186.087 122.317 187.873C123.162 188.593 124.339 188.177 124.713 187.028C125.031 186.031 126.346 182.418 126.346 181.615C124.782 180.161 123.259 178.638 121.653 177.24C121.639 178.265 115.547 181.435 115.354 181.006C115.354 181.615 115.575 182.141 116.004 182.501Z" fill="url(#paint27_linear)"/>
<path opacity="0.5" fill-rule="evenodd" clip-rule="evenodd" d="M126.346 181.615C126.346 158.605 126.346 135.595 126.346 112.585C126.346 112.308 121.639 112.35 121.639 112.627C121.639 134.169 121.639 155.711 121.639 177.254C123.217 178.694 124.782 180.161 126.346 181.615Z" fill="url(#paint28_linear)"/>
<path opacity="0.5" fill-rule="evenodd" clip-rule="evenodd" d="M120.033 149.288C120.047 150.035 116.946 155.019 117.333 154.701C120.199 152.333 120.822 151.932 120.822 151.406C120.822 145.882 120.711 122.277 120.711 125.198C120.725 127.482 119.964 145.328 120.033 149.288Z" fill="url(#paint29_linear)"/>
<path opacity="0.5" fill-rule="evenodd" clip-rule="evenodd" d="M120.448 176.174C120.462 176.465 117.361 179.497 117.749 179.247C120.614 177.337 121.237 176.963 121.237 176.755C121.237 174.554 121.127 165.195 121.127 166.344C121.141 167.258 120.365 174.623 120.448 176.174Z" fill="url(#paint30_linear)"/>
<path fill-rule="evenodd" clip-rule="evenodd" d="M118.649 148.72H121.473V112.557L119.908 106.12C119.853 105.884 120.005 105.164 120.061 105.386L121.791 112.53V177.143L126.346 181.366C126.485 181.49 126.415 181.906 126.332 181.809L121.611 177.42C121.542 177.351 121.487 177.226 121.487 177.06V149.08H118.579L116.267 152.707C116.212 152.79 116.115 152.804 116.046 152.749C115.977 152.693 115.963 152.569 116.018 152.499L118.344 148.858V135.166C118.344 135.069 118.413 134.986 118.496 134.986C118.579 134.986 118.649 135.069 118.649 135.166V148.72Z" fill="#00045D"/>
<path fill-rule="evenodd" clip-rule="evenodd" d="M116.378 155.822L118.953 153.884C119.507 153.469 119.964 153.967 119.964 154.673V169.404C119.964 169.958 119.701 170.678 119.285 170.982L116.71 172.92C116.156 173.336 115.7 172.837 115.7 172.131V157.401C115.7 156.847 115.963 156.141 116.378 155.822Z" fill="#00045D"/>
<path fill-rule="evenodd" clip-rule="evenodd" d="M116.544 156.141L119.119 154.202C119.41 153.981 119.645 154.202 119.645 154.673V169.404C119.645 169.888 119.41 170.456 119.119 170.678L116.544 172.616C116.253 172.837 116.018 172.616 116.018 172.145V157.4C116.018 156.93 116.253 156.348 116.544 156.141Z" fill="url(#paint31_linear)"/>
<path fill-rule="evenodd" clip-rule="evenodd" d="M116.364 156.321C116.157 156.321 116.157 155.947 116.364 155.947H119.645C119.853 155.947 119.853 156.321 119.645 156.321H116.364ZM116.018 157.4C115.81 157.4 115.81 157.027 116.018 157.027H119.742C119.95 157.027 119.95 157.4 119.742 157.4H116.018ZM116.018 172.325C115.81 172.325 115.81 171.951 116.018 171.951H117.43C117.638 171.951 117.638 172.325 117.43 172.325H116.018Z" fill="#00045D"/>
<path fill-rule="evenodd" clip-rule="evenodd" d="M119.645 158.605V158.979H118.399C118.136 158.979 117.929 159.228 117.929 159.533V168.559C117.929 168.864 118.136 169.113 118.399 169.113H119.645V169.487H118.399C117.97 169.487 117.61 169.072 117.61 168.573V159.546C117.61 159.048 117.97 158.633 118.399 158.633H119.645V158.605Z" fill="#00045D"/>
<path fill-rule="evenodd" clip-rule="evenodd" d="M119.645 158.965H118.399C118.136 158.965 117.928 159.214 117.928 159.519V168.545C117.928 168.85 118.136 169.099 118.399 169.099H119.645C119.645 168.255 119.645 162.038 119.645 158.965Z" fill="url(#paint32_radial)"/>
<path opacity="0.5" fill-rule="evenodd" clip-rule="evenodd" d="M119.645 164.323C119.299 164.821 118.787 165.237 117.928 159.519C117.928 162.523 117.928 161.665 117.928 164.669C118.399 162.592 119.424 166.344 119.645 168.546C119.645 165.541 119.645 167.327 119.645 164.323Z" fill="url(#paint33_linear)"/>
<path fill-rule="evenodd" clip-rule="evenodd" d="M115.437 176.368C115.367 176.423 115.27 176.395 115.215 176.312C115.173 176.229 115.187 176.119 115.257 176.063L119.742 172.547C119.991 172.353 120.254 172.519 120.254 172.851V173.959C120.254 174.222 120.102 174.54 119.922 174.693L115.437 178.209C115.367 178.264 115.27 178.237 115.215 178.154C115.173 178.071 115.187 177.96 115.257 177.905L119.742 174.388C119.839 174.305 119.936 174.111 119.936 173.959C119.936 173.64 119.936 173.433 119.936 173.114C119.936 172.948 119.77 172.962 119.687 173.017L115.437 176.368Z" fill="#00045D"/>
<path fill-rule="evenodd" clip-rule="evenodd" d="M122.705 178.666C122.705 178.569 122.76 178.472 122.857 178.472C122.94 178.472 123.023 178.541 123.023 178.638C123.093 179.898 119.216 183.276 118.122 184.356C118.053 184.425 117.956 184.412 117.901 184.328C117.845 184.245 117.859 184.135 117.915 184.065C118.925 183.069 122.76 179.677 122.705 178.666ZM125.197 180.937C125.252 181.947 121.417 185.353 120.407 186.35C120.338 186.419 120.338 186.53 120.393 186.613C120.448 186.696 120.545 186.696 120.614 186.641C121.708 185.561 125.599 182.183 125.515 180.923C125.515 180.826 125.432 180.743 125.349 180.757C125.266 180.757 125.197 180.84 125.197 180.937Z" fill="#00045D"/>
<path fill-rule="evenodd" clip-rule="evenodd" d="M124.145 118.165C124.837 118.165 125.405 118.815 125.405 119.632C125.405 120.435 124.837 121.1 124.145 121.1C123.453 121.1 122.885 120.435 122.885 119.632C122.899 118.815 123.453 118.165 124.145 118.165Z" fill="#00045D"/>
<path fill-rule="evenodd" clip-rule="evenodd" d="M124.145 118.525C124.671 118.525 125.086 119.023 125.086 119.618C125.086 120.228 124.671 120.712 124.145 120.712C123.619 120.712 123.203 120.214 123.203 119.618C123.203 119.023 123.633 118.525 124.145 118.525Z" fill="url(#paint34_linear)"/>
<path fill-rule="evenodd" clip-rule="evenodd" d="M124.145 118.857C124.505 118.857 124.809 119.203 124.809 119.632C124.809 120.061 124.519 120.408 124.145 120.408C123.785 120.408 123.48 120.061 123.48 119.632C123.494 119.203 123.785 118.857 124.145 118.857Z" fill="url(#paint35_radial)"/>
<path fill-rule="evenodd" clip-rule="evenodd" d="M121.473 162.523H123.674V120.864H124.616V163.077L124.145 163.631H121.473V162.523Z" fill="#00045D"/>
<path fill-rule="evenodd" clip-rule="evenodd" d="M122.262 162.897H123.993V120.38H124.311V163.077L124.159 163.257C123.522 163.257 122.899 163.257 122.262 163.257C121.791 163.257 121.791 162.897 122.262 162.897Z" fill="url(#paint36_linear)"/>
<path fill-rule="evenodd" clip-rule="evenodd" d="M146.587 118.566V55.2543L148.941 80.5901V118.4L146.587 118.566Z" fill="url(#paint37_linear)"/>
<path fill-rule="evenodd" clip-rule="evenodd" d="M145.12 118.566V55.2543C145.12 54.4374 145.784 53.7867 146.587 53.7867C147.39 53.7867 148.055 54.4374 148.055 55.2404L150.394 80.4517C150.394 80.4932 150.394 80.5347 150.394 80.5901V118.4C150.394 119.203 149.758 119.84 148.968 119.868L146.684 120.034C145.881 120.089 145.175 119.494 145.106 118.677L145.12 118.566ZM146.587 118.566V55.2543L148.941 80.5901V118.4L146.587 118.566Z" fill="black"/>
<path opacity="0.5" fill-rule="evenodd" clip-rule="evenodd" d="M146.587 109.318C146.587 103.739 146.587 98.1591 146.587 92.5797C147.764 94.961 148.456 90.7383 148.941 80.604C148.941 85.3943 148.941 90.1845 148.941 94.961C148.082 93.1196 146.878 99.5713 146.587 109.318Z" fill="url(#paint38_linear)"/>
<path fill-rule="evenodd" clip-rule="evenodd" d="M147.307 100.097H144.801C144.483 100.097 144.455 100.706 144.704 100.831L145.037 100.997C145.258 101.108 145.258 101.689 145.037 101.814L144.704 101.98C144.455 102.105 144.497 102.714 144.801 102.714H147.307C147.446 102.714 147.57 102.576 147.57 102.409V100.402C147.57 100.236 147.459 100.097 147.307 100.097Z" fill="url(#paint39_linear)"/>
<path fill-rule="evenodd" clip-rule="evenodd" d="M144.815 98.6298H147.321C147.847 98.6298 148.304 98.8651 148.622 99.2389C148.885 99.5435 149.052 99.9589 149.052 100.402V102.409C149.052 102.811 148.913 103.199 148.678 103.503L148.622 103.572C148.304 103.946 147.847 104.181 147.321 104.181H144.815C144.344 104.181 143.957 104.002 143.652 103.711C143.611 103.669 143.569 103.628 143.527 103.586C143.306 103.337 143.168 103.019 143.112 102.686C143.071 102.479 143.071 102.243 143.098 102.036V102.008C143.098 101.966 143.112 101.925 143.126 101.883C143.168 101.717 143.223 101.551 143.306 101.385C143.223 101.233 143.168 101.066 143.126 100.886C143.071 100.637 143.071 100.36 143.112 100.097C143.168 99.765 143.306 99.4604 143.527 99.1974C143.846 98.8513 144.275 98.6298 144.815 98.6298ZM147.307 100.097H144.801C144.483 100.097 144.455 100.706 144.704 100.831L145.037 100.997C145.258 101.108 145.258 101.689 145.037 101.814L144.704 101.98C144.455 102.105 144.497 102.714 144.801 102.714H147.307C147.446 102.714 147.57 102.576 147.57 102.409V100.402C147.57 100.236 147.459 100.097 147.307 100.097Z" fill="black"/>
<path fill-rule="evenodd" clip-rule="evenodd" d="M147.307 100.097C147.003 100.097 146.684 100.097 146.38 100.097C147.363 100.416 147.363 102.396 146.38 102.714C146.684 102.714 147.003 102.714 147.307 102.714C147.446 102.714 147.57 102.576 147.57 102.409C147.57 101.745 147.57 101.066 147.57 100.402C147.57 100.236 147.459 100.097 147.307 100.097Z" fill="#464854"/>
<path d="M147.57 101.219H145.216V101.593H147.57V101.219Z" fill="url(#paint40_linear)"/>
<path fill-rule="evenodd" clip-rule="evenodd" d="M147.307 92.7596H144.801C144.483 92.7596 144.455 93.3688 144.704 93.4934L145.037 93.6596C145.258 93.7703 145.258 94.3518 145.037 94.4764L144.704 94.6425C144.455 94.7671 144.497 95.3763 144.801 95.3763H147.307C147.446 95.3763 147.57 95.2379 147.57 95.0717V93.0642C147.57 92.8981 147.459 92.7596 147.307 92.7596Z" fill="url(#paint41_linear)"/>
<path fill-rule="evenodd" clip-rule="evenodd" d="M144.815 91.2921H147.321C147.847 91.2921 148.304 91.5275 148.622 91.9013C148.885 92.2059 149.052 92.6212 149.052 93.0642V95.0717C149.052 95.4732 148.913 95.8609 148.678 96.1655L148.622 96.2347C148.304 96.6085 147.847 96.8438 147.321 96.8438H144.815C144.344 96.8438 143.957 96.6639 143.652 96.3731C143.611 96.3316 143.569 96.2901 143.527 96.2485C143.306 95.9993 143.168 95.6809 143.112 95.3486C143.071 95.1409 143.071 94.9056 143.098 94.6979V94.6702C143.098 94.6287 143.112 94.5872 143.126 94.5456C143.168 94.3795 143.223 94.2134 143.306 94.0472C143.223 93.8949 143.168 93.7288 143.126 93.5488C143.071 93.2996 143.071 93.0227 143.112 92.7597C143.168 92.4274 143.306 92.1228 143.527 91.8597C143.846 91.5136 144.275 91.2921 144.815 91.2921ZM147.307 92.7597H144.801C144.483 92.7597 144.455 93.3688 144.704 93.4934L145.037 93.6596C145.258 93.7703 145.258 94.3518 145.037 94.4764L144.704 94.6425C144.455 94.7671 144.497 95.3763 144.801 95.3763H147.307C147.446 95.3763 147.57 95.2379 147.57 95.0717V93.0642C147.57 92.8981 147.459 92.7597 147.307 92.7597Z" fill="black"/>
<path fill-rule="evenodd" clip-rule="evenodd" d="M147.307 92.7596C147.003 92.7596 146.684 92.7596 146.38 92.7596C147.363 93.0781 147.363 95.0579 146.38 95.3763C146.684 95.3763 147.003 95.3763 147.307 95.3763C147.446 95.3763 147.57 95.2379 147.57 95.0717C147.57 94.4072 147.57 93.7288 147.57 93.0642C147.57 92.8981 147.459 92.7596 147.307 92.7596Z" fill="#464854"/>
<path d="M147.57 93.8811H145.216V94.2549H147.57V93.8811Z" fill="url(#paint42_linear)"/>
<path fill-rule="evenodd" clip-rule="evenodd" d="M147.307 85.4081H144.801C144.483 85.4081 144.455 86.0172 144.704 86.1419L145.037 86.308C145.258 86.4187 145.258 87.0002 145.037 87.1248L144.704 87.291C144.455 87.4156 144.497 88.0247 144.801 88.0247H147.307C147.446 88.0247 147.57 87.8863 147.57 87.7201V85.7127C147.57 85.5465 147.459 85.4081 147.307 85.4081Z" fill="url(#paint43_linear)"/>
<path fill-rule="evenodd" clip-rule="evenodd" d="M144.815 83.9406H147.321C147.847 83.9406 148.304 84.1759 148.622 84.5497C148.885 84.8543 149.052 85.2696 149.052 85.7127V87.7202C149.052 88.1217 148.913 88.5093 148.678 88.8139L148.622 88.8831C148.304 89.2569 147.847 89.4923 147.321 89.4923H144.815C144.344 89.4923 143.957 89.3123 143.652 89.0216C143.611 88.98 143.569 88.9385 143.527 88.897C143.306 88.6478 143.168 88.3293 143.112 87.9971C143.071 87.7894 143.071 87.554 143.098 87.3464V87.3187C143.098 87.2771 143.112 87.2356 143.126 87.1941C143.168 87.0279 143.223 86.8618 143.306 86.6957C143.223 86.5434 143.168 86.3772 143.126 86.1972C143.071 85.948 143.071 85.6711 143.112 85.4081C143.168 85.0758 143.306 84.7712 143.527 84.5082C143.846 84.1759 144.275 83.9406 144.815 83.9406ZM147.307 85.4081H144.801C144.483 85.4081 144.455 86.0173 144.704 86.1419L145.037 86.308C145.258 86.4188 145.258 87.0002 145.037 87.1248L144.704 87.291C144.455 87.4156 144.497 88.0247 144.801 88.0247H147.307C147.446 88.0247 147.57 87.8863 147.57 87.7202V85.7127C147.57 85.5465 147.459 85.4081 147.307 85.4081Z" fill="black"/>
<path fill-rule="evenodd" clip-rule="evenodd" d="M147.307 85.4081C147.003 85.4081 146.684 85.4081 146.38 85.4081C147.363 85.7265 147.363 87.7063 146.38 88.0247C146.684 88.0247 147.003 88.0247 147.307 88.0247C147.446 88.0247 147.57 87.8863 147.57 87.7201C147.57 87.0556 147.57 86.3772 147.57 85.7127C147.57 85.5465 147.459 85.4081 147.307 85.4081Z" fill="#464854"/>
<path d="M147.57 86.5295H145.216V86.9034H147.57V86.5295Z" fill="url(#paint44_linear)"/>
<path fill-rule="evenodd" clip-rule="evenodd" d="M146.435 71.2864H142.987C142.558 71.2864 142.503 71.6325 142.849 71.7017L143.306 71.7986C143.61 71.8679 143.61 72.2001 143.306 72.2555L142.849 72.3524C142.517 72.4216 142.558 72.7678 142.987 72.7678H146.435C146.629 72.7678 146.795 72.6847 146.795 72.6016V71.4525C146.781 71.3694 146.629 71.2864 146.435 71.2864Z" fill="url(#paint45_linear)"/>
<path fill-rule="evenodd" clip-rule="evenodd" d="M142.987 69.8188H146.435C146.753 69.8188 147.072 69.9019 147.321 70.0127C147.902 70.2896 148.248 70.788 148.248 71.4525V72.6016C148.248 73.2662 147.888 73.7646 147.307 74.0415C147.058 74.1661 146.739 74.2353 146.421 74.2353H142.974C142.351 74.2353 141.852 73.9723 141.548 73.6261C141.326 73.3769 141.202 73.0862 141.146 72.7816C141.105 72.5324 141.132 72.2694 141.229 72.034C141.16 71.8263 141.132 71.6187 141.146 71.3971C141.146 71.3556 141.146 71.3141 141.16 71.2725C141.202 71.0095 141.298 70.7464 141.478 70.5249L141.506 70.4972L141.548 70.4419C141.88 70.0819 142.364 69.8188 142.987 69.8188ZM146.435 71.2864H142.987C142.558 71.2864 142.503 71.6325 142.849 71.7017L143.306 71.7986C143.61 71.8679 143.61 72.2001 143.306 72.2555L142.849 72.3524C142.517 72.4217 142.558 72.7678 142.987 72.7678H146.435C146.629 72.7678 146.795 72.6847 146.795 72.6016V71.4525C146.781 71.3695 146.629 71.2864 146.435 71.2864Z" fill="black"/>
<path fill-rule="evenodd" clip-rule="evenodd" d="M146.435 71.2864C146.006 71.2864 145.576 71.2864 145.161 71.2864C146.518 71.4664 146.518 72.6016 145.161 72.7816C145.59 72.7816 146.02 72.7816 146.435 72.7816C146.629 72.7816 146.795 72.6985 146.795 72.6155C146.795 72.2278 146.795 71.854 146.795 71.4664C146.781 71.3694 146.629 71.2864 146.435 71.2864Z" fill="#464854"/>
<path d="M146.795 71.9232H143.541V72.1309H146.795V71.9232Z" fill="url(#paint46_linear)"/>
<path fill-rule="evenodd" clip-rule="evenodd" d="M154.576 182.473L148.262 187.845C147.418 188.565 146.241 188.15 145.867 187.001C145.549 186.004 144.234 182.39 144.234 181.587V112.571L150.519 106.064L152.083 135.138L153.745 137.575C154.202 138.253 154.437 139.001 154.437 139.873V152.583L155.226 154.355V180.992C155.226 181.601 154.991 182.127 154.576 182.473Z" fill="url(#paint47_linear)"/>
<path fill-rule="evenodd" clip-rule="evenodd" d="M155.517 183.595L149.204 188.967L149.176 188.994C148.872 189.243 148.539 189.423 148.193 189.534C147.625 189.714 147.03 189.714 146.49 189.548C145.964 189.382 145.48 189.063 145.106 188.62C144.829 188.302 144.621 187.914 144.469 187.471L144.455 187.416L144.15 186.53C143.624 184.965 142.766 182.473 142.766 181.615V112.571C142.766 112.142 142.96 111.755 143.251 111.478L149.453 105.04C150.007 104.458 150.934 104.445 151.53 104.998C151.807 105.261 151.959 105.621 151.973 105.981L153.523 134.64L154.963 136.744C155.282 137.215 155.517 137.7 155.669 138.226C155.822 138.752 155.905 139.292 155.905 139.859V152.264L156.569 153.759C156.652 153.953 156.694 154.147 156.694 154.355V180.992C156.694 181.49 156.597 181.975 156.403 182.418C156.195 182.861 155.905 183.263 155.517 183.595ZM154.576 182.473L148.262 187.845C147.418 188.565 146.241 188.15 145.867 187.001C145.549 186.004 144.234 182.39 144.234 181.587V112.571L150.519 106.064L152.083 135.138L153.745 137.575C154.202 138.253 154.437 139.001 154.437 139.873V152.583L155.226 154.355V180.992C155.226 181.601 154.991 182.127 154.576 182.473Z" fill="black"/>
<path opacity="0.5" fill-rule="evenodd" clip-rule="evenodd" d="M153.025 180.189C154.576 180.286 155.476 174.319 154.05 172.713C154.243 165.666 153.717 156.279 153.717 155.435C155.226 155.075 152.817 150.741 151.17 148.914C150.99 136.315 151.225 109.207 149.398 110.689C149.785 108.999 150.173 107.615 150.519 106.051C151.045 115.742 151.571 125.433 152.084 135.124C152.084 138.364 152.084 147.46 152.084 148.872C152.873 150.104 153.648 151.337 154.437 152.569C154.7 153.164 154.963 153.759 155.226 154.341C155.226 163.215 155.226 172.104 155.226 180.978C154.7 180.937 153.662 180.715 153.025 180.189Z" fill="url(#paint48_linear)"/>
<path fill-rule="evenodd" clip-rule="evenodd" d="M152.083 135.138C152.637 135.955 153.191 136.758 153.745 137.575C154.202 138.253 154.437 139.001 154.437 139.873C154.437 144.11 154.437 148.346 154.437 152.583C153.703 151.337 152.817 150.146 152.083 148.886C152.028 144.317 152.139 139.693 152.083 135.138Z" fill="url(#paint49_linear)"/>
<path fill-rule="evenodd" clip-rule="evenodd" d="M152.236 137.561L154.437 139.444V141.05L152.236 139.167V137.561Z" fill="url(#paint50_linear)"/>
<path fill-rule="evenodd" clip-rule="evenodd" d="M152.236 140.316L154.451 142.171V143.791L152.236 141.922V140.316Z" fill="url(#paint51_linear)"/>
<path fill-rule="evenodd" clip-rule="evenodd" d="M152.236 143.071L154.465 144.954V146.56L152.236 144.677V143.071Z" fill="url(#paint52_linear)"/>
<path fill-rule="evenodd" clip-rule="evenodd" d="M152.236 145.826L154.451 147.709V149.315L152.236 147.432V145.826Z" fill="url(#paint53_linear)"/>
<path fill-rule="evenodd" clip-rule="evenodd" d="M154.008 149.897C154.105 149.73 154.285 149.98 154.34 150.174C154.395 150.367 154.437 150.81 154.34 150.977C154.243 151.143 154.063 150.893 154.008 150.7C153.952 150.492 153.911 150.049 154.008 149.897Z" fill="url(#paint54_linear)"/>
<path opacity="0.5" fill-rule="evenodd" clip-rule="evenodd" d="M153.745 137.575C154.202 138.253 154.437 139.001 154.437 139.873C154.437 144.11 154.437 148.346 154.437 152.583C154.202 152.181 153.98 151.78 153.745 151.378C154.437 151.378 154.285 139.915 153.745 137.575Z" fill="url(#paint55_linear)"/>
<path fill-rule="evenodd" clip-rule="evenodd" d="M152.083 135.138C152.347 135.526 152.651 135.969 152.914 136.357C152.097 136.357 152.222 150.215 152.914 150.215C152.651 149.814 152.319 149.288 152.083 148.886C152.028 144.317 152.139 139.693 152.083 135.138Z" fill="url(#paint56_linear)"/>
<path opacity="0.5" fill-rule="evenodd" clip-rule="evenodd" d="M154.576 182.473C152.471 184.259 150.367 186.059 148.262 187.845C147.418 188.565 146.241 188.15 145.867 187.001C145.549 186.004 144.234 182.39 144.234 181.587C145.798 180.134 147.321 178.611 148.927 177.212C148.941 178.237 155.032 181.407 155.226 180.978C155.226 181.601 154.991 182.127 154.576 182.473Z" fill="url(#paint57_linear)"/>
<path opacity="0.5" fill-rule="evenodd" clip-rule="evenodd" d="M144.234 181.601C144.234 158.591 144.234 135.581 144.234 112.571C144.234 112.294 148.941 112.336 148.941 112.613C148.941 134.155 148.941 155.698 148.927 177.24C147.362 178.68 145.798 180.134 144.234 181.601Z" fill="url(#paint58_linear)"/>
<path opacity="0.5" fill-rule="evenodd" clip-rule="evenodd" d="M150.533 149.274C150.519 150.021 153.62 155.005 153.233 154.687C150.367 152.32 149.744 151.918 149.744 151.392C149.744 145.868 149.855 122.263 149.855 125.184C149.855 127.468 150.616 145.3 150.533 149.274Z" fill="url(#paint59_linear)"/>
<path opacity="0.5" fill-rule="evenodd" clip-rule="evenodd" d="M150.118 176.16C150.104 176.451 153.205 179.483 152.817 179.234C149.951 177.323 149.328 176.949 149.328 176.742C149.328 174.54 149.439 165.181 149.439 166.331C149.439 167.244 150.201 174.61 150.118 176.16Z" fill="url(#paint60_linear)"/>
<path fill-rule="evenodd" clip-rule="evenodd" d="M151.931 148.706H149.107V112.544L150.671 106.106C150.727 105.871 150.574 105.151 150.519 105.372L148.789 112.516V177.129L144.234 181.352C144.095 181.477 144.164 181.892 144.247 181.795L148.968 177.406C149.038 177.337 149.093 177.212 149.093 177.046V149.066H152L154.313 152.68C154.368 152.763 154.465 152.776 154.534 152.721C154.603 152.666 154.617 152.541 154.562 152.472L152.236 148.831V135.138C152.236 135.041 152.167 134.958 152.084 134.958C152 134.958 151.931 135.041 151.931 135.138V148.706Z" fill="#00045D"/>
<path fill-rule="evenodd" clip-rule="evenodd" d="M154.202 155.808L151.627 153.87C151.073 153.455 150.616 153.953 150.616 154.659V169.39C150.616 169.944 150.879 170.664 151.294 170.968L153.869 172.907C154.423 173.322 154.88 172.824 154.88 172.118V157.387C154.88 156.833 154.617 156.113 154.202 155.808Z" fill="#00045D"/>
<path fill-rule="evenodd" clip-rule="evenodd" d="M154.036 156.113L151.46 154.175C151.17 153.953 150.934 154.175 150.934 154.645V169.376C150.934 169.861 151.17 170.428 151.46 170.65L154.036 172.588C154.326 172.81 154.562 172.588 154.562 172.118V157.387C154.562 156.902 154.326 156.335 154.036 156.113Z" fill="url(#paint61_linear)"/>
<path fill-rule="evenodd" clip-rule="evenodd" d="M154.202 156.307C154.409 156.307 154.409 155.933 154.202 155.933H150.921C150.713 155.933 150.713 156.307 150.921 156.307H154.202ZM154.562 157.387C154.769 157.387 154.769 157.013 154.562 157.013H150.838C150.63 157.013 150.63 157.387 150.838 157.387H154.562ZM154.562 172.298C154.769 172.298 154.769 171.924 154.562 171.924H153.15C152.942 171.924 152.942 172.298 153.15 172.298H154.562Z" fill="#00045D"/>
<path fill-rule="evenodd" clip-rule="evenodd" d="M150.921 158.577V158.951H152.167C152.43 158.951 152.637 159.2 152.637 159.505V168.532C152.637 168.836 152.43 169.086 152.167 169.086H150.921V169.459H152.167C152.596 169.459 152.956 169.044 152.956 168.546V159.519C152.956 159.02 152.596 158.605 152.167 158.605H150.921V158.577Z" fill="#00045D"/>
<path fill-rule="evenodd" clip-rule="evenodd" d="M150.921 158.951H152.167C152.43 158.951 152.637 159.2 152.637 159.505V168.532C152.637 168.836 152.43 169.085 152.167 169.085H150.921C150.921 168.241 150.921 162.025 150.921 158.951Z" fill="url(#paint62_radial)"/>
<path opacity="0.5" fill-rule="evenodd" clip-rule="evenodd" d="M150.921 164.309C151.267 164.808 151.779 165.223 152.637 159.505C152.637 162.509 152.637 161.651 152.637 164.655C152.167 162.579 151.142 166.33 150.921 168.532C150.921 165.514 150.921 167.313 150.921 164.309Z" fill="url(#paint63_linear)"/>
<path fill-rule="evenodd" clip-rule="evenodd" d="M155.129 176.354C155.199 176.409 155.296 176.382 155.351 176.299C155.392 176.216 155.379 176.105 155.309 176.049L150.824 172.533C150.574 172.339 150.311 172.505 150.311 172.837V173.945C150.311 174.208 150.464 174.526 150.644 174.679L155.129 178.195C155.199 178.251 155.296 178.223 155.351 178.14C155.392 178.057 155.379 177.946 155.309 177.891L150.824 174.374C150.727 174.291 150.63 174.097 150.63 173.945C150.63 173.627 150.63 173.419 150.63 173.101C150.63 172.934 150.796 172.948 150.879 173.004L155.129 176.354Z" fill="#00045D"/>
<path fill-rule="evenodd" clip-rule="evenodd" d="M147.875 178.638C147.875 178.541 147.819 178.445 147.722 178.445C147.639 178.445 147.556 178.514 147.556 178.611C147.487 179.871 151.364 183.249 152.457 184.329C152.527 184.398 152.623 184.384 152.679 184.301C152.734 184.218 152.72 184.107 152.665 184.038C151.64 183.055 147.805 179.663 147.875 178.638ZM145.369 180.923C145.313 181.933 149.148 185.339 150.159 186.336C150.228 186.405 150.228 186.516 150.173 186.599C150.118 186.682 150.021 186.682 149.951 186.627C148.858 185.547 144.967 182.169 145.05 180.909C145.05 180.812 145.133 180.729 145.217 180.743C145.313 180.743 145.383 180.826 145.369 180.923Z" fill="#00045D"/>
<path fill-rule="evenodd" clip-rule="evenodd" d="M146.421 118.151C145.729 118.151 145.161 118.802 145.161 119.618C145.161 120.421 145.729 121.086 146.421 121.086C147.113 121.086 147.681 120.421 147.681 119.618C147.681 118.802 147.113 118.151 146.421 118.151Z" fill="#00045D"/>
<path fill-rule="evenodd" clip-rule="evenodd" d="M146.421 118.511C145.895 118.511 145.48 119.009 145.48 119.605C145.48 120.2 145.895 120.698 146.421 120.698C146.947 120.698 147.362 120.2 147.362 119.605C147.362 119.009 146.947 118.511 146.421 118.511Z" fill="url(#paint64_linear)"/>
<path fill-rule="evenodd" clip-rule="evenodd" d="M146.421 118.843C146.061 118.843 145.756 119.189 145.756 119.618C145.756 120.048 146.047 120.394 146.421 120.394C146.781 120.394 147.085 120.048 147.085 119.618C147.085 119.189 146.795 118.843 146.421 118.843Z" fill="url(#paint65_radial)"/>
<path fill-rule="evenodd" clip-rule="evenodd" d="M149.107 162.509H146.892V120.837H145.95V163.063L146.421 163.617H149.107V162.509Z" fill="#00045D"/>
<path fill-rule="evenodd" clip-rule="evenodd" d="M148.318 162.883H146.587V120.366H146.269V163.063L146.421 163.243C147.058 163.243 147.681 163.243 148.318 163.243C148.788 163.243 148.788 162.883 148.318 162.883Z" fill="url(#paint66_linear)"/>
</g>
<defs>
<linearGradient id="paint0_linear" x1="135.265" y1="118.838" x2="135.268" y2="90.5424" gradientUnits="userSpaceOnUse">
<stop stop-color="#383E4C"/>
<stop offset="1" stop-color="#ADB2C0"/>
</linearGradient>
<linearGradient id="paint1_linear" x1="133.47" y1="116.982" x2="133.47" y2="90.9935" gradientUnits="userSpaceOnUse">
<stop stop-color="#383E4C"/>
<stop offset="1" stop-color="#828591"/>
</linearGradient>
<linearGradient id="paint2_linear" x1="135.264" y1="109.536" x2="135.266" y2="108.109" gradientUnits="userSpaceOnUse">
<stop stop-color="#383E4C"/>
<stop offset="1" stop-color="#ADB2C0"/>
</linearGradient>
<linearGradient id="paint3_linear" x1="135.264" y1="102.193" x2="135.266" y2="100.766" gradientUnits="userSpaceOnUse">
<stop stop-color="#383E4C"/>
<stop offset="1" stop-color="#ADB2C0"/>
</linearGradient>
<linearGradient id="paint4_linear" x1="135.264" y1="94.8506" x2="135.266" y2="93.4237" gradientUnits="userSpaceOnUse">
<stop stop-color="#383E4C"/>
<stop offset="1" stop-color="#ADB2C0"/>
</linearGradient>
<linearGradient id="paint5_linear" x1="135.287" y1="126.589" x2="135.287" y2="118.792" gradientUnits="userSpaceOnUse">
<stop stop-color="#3654A5"/>
<stop offset="1" stop-color="#5781C1"/>
</linearGradient>
<linearGradient id="paint6_linear" x1="135.287" y1="122.897" x2="135.287" y2="119.375" gradientUnits="userSpaceOnUse">
<stop stop-color="#313092"/>
<stop offset="1" stop-color="#5F94CE"/>
</linearGradient>
<linearGradient id="paint7_linear" x1="122.8" y1="113.827" x2="122.835" y2="58.2241" gradientUnits="userSpaceOnUse">
<stop stop-color="#383E4C"/>
<stop offset="1" stop-color="#ADB2C0"/>
</linearGradient>
<linearGradient id="paint8_linear" x1="123.985" y1="94.9697" x2="121.63" y2="94.9697" gradientUnits="userSpaceOnUse">
<stop stop-color="#ADB2C0"/>
<stop offset="1" stop-color="white"/>
</linearGradient>
<linearGradient id="paint9_linear" x1="123.049" y1="101.422" x2="125.369" y2="101.421" gradientUnits="userSpaceOnUse">
<stop stop-color="#383E4C"/>
<stop offset="1" stop-color="#ADB2C0"/>
</linearGradient>
<linearGradient id="paint10_linear" x1="123.012" y1="101.422" x2="125.363" y2="101.42" gradientUnits="userSpaceOnUse">
<stop stop-color="#020000"/>
<stop offset="1" stop-color="#5F626B"/>
</linearGradient>
<linearGradient id="paint11_linear" x1="123.049" y1="94.0791" x2="125.369" y2="94.0779" gradientUnits="userSpaceOnUse">
<stop stop-color="#383E4C"/>
<stop offset="1" stop-color="#ADB2C0"/>
</linearGradient>
<linearGradient id="paint12_linear" x1="123.011" y1="94.079" x2="125.363" y2="94.0777" gradientUnits="userSpaceOnUse">
<stop stop-color="#020000"/>
<stop offset="1" stop-color="#5F626B"/>
</linearGradient>
<linearGradient id="paint13_linear" x1="123.048" y1="86.7365" x2="125.369" y2="86.7352" gradientUnits="userSpaceOnUse">
<stop stop-color="#383E4C"/>
<stop offset="1" stop-color="#ADB2C0"/>
</linearGradient>
<linearGradient id="paint14_linear" x1="123.011" y1="86.7362" x2="125.363" y2="86.735" gradientUnits="userSpaceOnUse">
<stop stop-color="#020000"/>
<stop offset="1" stop-color="#5F626B"/>
</linearGradient>
<linearGradient id="paint15_linear" x1="123.85" y1="72.0528" x2="127.045" y2="72.0486" gradientUnits="userSpaceOnUse">
<stop stop-color="#383E4C"/>
<stop offset="1" stop-color="#ADB2C0"/>
</linearGradient>
<linearGradient id="paint16_linear" x1="123.8" y1="72.0523" x2="127.038" y2="72.048" gradientUnits="userSpaceOnUse">
<stop stop-color="#020000"/>
<stop offset="1" stop-color="#5F626B"/>
</linearGradient>
<linearGradient id="paint17_linear" x1="131.203" y1="181.372" x2="117.003" y2="134.193" gradientUnits="userSpaceOnUse">
<stop stop-color="#3654A5"/>
<stop offset="1" stop-color="#5781C1"/>
</linearGradient>
<linearGradient id="paint18_linear" x1="118.266" y1="179.445" x2="118.269" y2="108.491" gradientUnits="userSpaceOnUse">
<stop stop-color="#5781C1"/>
<stop offset="1" stop-color="#AADDDD"/>
</linearGradient>
<linearGradient id="paint19_linear" x1="117.307" y1="139.962" x2="117.323" y2="149.069" gradientUnits="userSpaceOnUse">
<stop stop-color="#828591"/>
<stop offset="1" stop-color="#ADB2C0"/>
</linearGradient>
<linearGradient id="paint20_linear" x1="117.385" y1="139.59" x2="117.081" y2="139.046" gradientUnits="userSpaceOnUse">
<stop stop-color="#020000"/>
<stop offset="1" stop-color="#5F626B"/>
</linearGradient>
<linearGradient id="paint21_linear" x1="117.38" y1="142.337" x2="117.078" y2="141.793" gradientUnits="userSpaceOnUse">
<stop stop-color="#020000"/>
<stop offset="1" stop-color="#5F626B"/>
</linearGradient>
<linearGradient id="paint22_linear" x1="117.374" y1="145.105" x2="117.07" y2="144.557" gradientUnits="userSpaceOnUse">
<stop stop-color="#020000"/>
<stop offset="1" stop-color="#5F626B"/>
</linearGradient>
<linearGradient id="paint23_linear" x1="117.374" y1="147.855" x2="117.072" y2="147.308" gradientUnits="userSpaceOnUse">
<stop stop-color="#020000"/>
<stop offset="1" stop-color="#5F626B"/>
</linearGradient>
<linearGradient id="paint24_linear" x1="116.247" y1="150.683" x2="116.548" y2="150.207" gradientUnits="userSpaceOnUse">
<stop stop-color="#020000"/>
<stop offset="1" stop-color="#5F626B"/>
</linearGradient>
<linearGradient id="paint25_linear" x1="116.142" y1="145.093" x2="116.801" y2="145.092" gradientUnits="userSpaceOnUse">
<stop stop-color="#ADB2C0"/>
<stop offset="1" stop-color="white"/>
</linearGradient>
<linearGradient id="paint26_linear" x1="118.066" y1="138.094" x2="118.086" y2="148.888" gradientUnits="userSpaceOnUse">
<stop stop-color="#494E5A"/>
<stop offset="1" stop-color="#828591"/>
</linearGradient>
<linearGradient id="paint27_linear" x1="124.478" y1="184.694" x2="119.07" y2="180.081" gradientUnits="userSpaceOnUse">
<stop stop-color="#140C4F"/>
<stop offset="1" stop-color="#5781C1"/>
</linearGradient>
<linearGradient id="paint28_linear" x1="126.325" y1="147.007" x2="122.823" y2="147.006" gradientUnits="userSpaceOnUse">
<stop stop-color="#140C4F"/>
<stop offset="1" stop-color="#5781C1"/>
</linearGradient>
<linearGradient id="paint29_linear" x1="119.069" y1="149.829" x2="119.07" y2="130.29" gradientUnits="userSpaceOnUse">
<stop stop-color="#86ACD6"/>
<stop offset="1" stop-color="#FBFDFF"/>
</linearGradient>
<linearGradient id="paint30_linear" x1="120.435" y1="175.727" x2="118.464" y2="169.893" gradientUnits="userSpaceOnUse">
<stop stop-color="#86ACD6"/>
<stop offset="1" stop-color="#FBFDFF"/>
</linearGradient>
<linearGradient id="paint31_linear" x1="119.64" y1="163.405" x2="116.015" y2="163.404" gradientUnits="userSpaceOnUse">
<stop stop-color="#313092"/>
<stop offset="1" stop-color="#5F94CE"/>
</linearGradient>
<radialGradient id="paint32_radial" cx="0" cy="0" r="1" gradientUnits="userSpaceOnUse" gradientTransform="translate(119.674 163.779) rotate(-90.0256) scale(5.31509 1.74016)">
<stop stop-color="#E4E526"/>
<stop offset="0.48" stop-color="#EF4423"/>
<stop offset="1" stop-color="#3D0000"/>
</radialGradient>
<linearGradient id="paint33_linear" x1="119.632" y1="164.032" x2="117.933" y2="164.03" gradientUnits="userSpaceOnUse">
<stop stop-color="#EF4423"/>
<stop offset="1" stop-color="white"/>
</linearGradient>
<linearGradient id="paint34_linear" x1="124.148" y1="118.571" x2="124.15" y2="120.548" gradientUnits="userSpaceOnUse">
<stop stop-color="#25409A"/>
<stop offset="1" stop-color="#313092"/>
</linearGradient>
<radialGradient id="paint35_radial" cx="0" cy="0" r="1" gradientUnits="userSpaceOnUse" gradientTransform="translate(124.146 119.422) rotate(-90) scale(0.980537 0.838344)">
<stop stop-color="#E4E526"/>
<stop offset="1" stop-color="#EF4423"/>
</radialGradient>
<linearGradient id="paint36_linear" x1="123.106" y1="163.589" x2="123.107" y2="120.912" gradientUnits="userSpaceOnUse">
<stop stop-color="#EF4423"/>
<stop offset="0.48" stop-color="#E4E526"/>
<stop offset="1" stop-color="#EF4423"/>
</linearGradient>
<linearGradient id="paint37_linear" x1="147.774" y1="113.81" x2="147.739" y2="58.2077" gradientUnits="userSpaceOnUse">
<stop stop-color="#383E4C"/>
<stop offset="1" stop-color="#ADB2C0"/>
</linearGradient>
<linearGradient id="paint38_linear" x1="146.589" y1="94.9533" x2="148.943" y2="94.9533" gradientUnits="userSpaceOnUse">
<stop stop-color="#ADB2C0"/>
<stop offset="1" stop-color="white"/>
</linearGradient>
<linearGradient id="paint39_linear" x1="147.525" y1="101.405" x2="145.205" y2="101.404" gradientUnits="userSpaceOnUse">
<stop stop-color="#383E4C"/>
<stop offset="1" stop-color="#ADB2C0"/>
</linearGradient>
<linearGradient id="paint40_linear" x1="147.562" y1="101.405" x2="145.21" y2="101.404" gradientUnits="userSpaceOnUse">
<stop stop-color="#020000"/>
<stop offset="1" stop-color="#5F626B"/>
</linearGradient>
<linearGradient id="paint41_linear" x1="147.525" y1="94.0627" x2="145.205" y2="94.0614" gradientUnits="userSpaceOnUse">
<stop stop-color="#383E4C"/>
<stop offset="1" stop-color="#ADB2C0"/>
</linearGradient>
<linearGradient id="paint42_linear" x1="147.562" y1="94.0625" x2="145.21" y2="94.0613" gradientUnits="userSpaceOnUse">
<stop stop-color="#020000"/>
<stop offset="1" stop-color="#5F626B"/>
</linearGradient>
<linearGradient id="paint43_linear" x1="147.526" y1="86.7199" x2="145.205" y2="86.7187" gradientUnits="userSpaceOnUse">
<stop stop-color="#383E4C"/>
<stop offset="1" stop-color="#ADB2C0"/>
</linearGradient>
<linearGradient id="paint44_linear" x1="147.562" y1="86.7198" x2="145.21" y2="86.7185" gradientUnits="userSpaceOnUse">
<stop stop-color="#020000"/>
<stop offset="1" stop-color="#5F626B"/>
</linearGradient>
<linearGradient id="paint45_linear" x1="146.724" y1="72.0362" x2="143.529" y2="72.032" gradientUnits="userSpaceOnUse">
<stop stop-color="#383E4C"/>
<stop offset="1" stop-color="#ADB2C0"/>
</linearGradient>
<linearGradient id="paint46_linear" x1="146.774" y1="72.0359" x2="143.536" y2="72.0317" gradientUnits="userSpaceOnUse">
<stop stop-color="#020000"/>
<stop offset="1" stop-color="#5F626B"/>
</linearGradient>
<linearGradient id="paint47_linear" x1="139.371" y1="181.356" x2="153.571" y2="134.177" gradientUnits="userSpaceOnUse">
<stop stop-color="#3654A5"/>
<stop offset="1" stop-color="#5781C1"/>
</linearGradient>
<linearGradient id="paint48_linear" x1="152.308" y1="179.428" x2="152.305" y2="108.475" gradientUnits="userSpaceOnUse">
<stop stop-color="#5781C1"/>
<stop offset="1" stop-color="#AADDDD"/>
</linearGradient>
<linearGradient id="paint49_linear" x1="153.267" y1="139.946" x2="153.251" y2="149.052" gradientUnits="userSpaceOnUse">
<stop stop-color="#828591"/>
<stop offset="1" stop-color="#ADB2C0"/>
</linearGradient>
<linearGradient id="paint50_linear" x1="153.189" y1="139.574" x2="153.492" y2="139.029" gradientUnits="userSpaceOnUse">
<stop stop-color="#020000"/>
<stop offset="1" stop-color="#5F626B"/>
</linearGradient>
<linearGradient id="paint51_linear" x1="153.194" y1="142.321" x2="153.495" y2="141.776" gradientUnits="userSpaceOnUse">
<stop stop-color="#020000"/>
<stop offset="1" stop-color="#5F626B"/>
</linearGradient>
<linearGradient id="paint52_linear" x1="153.199" y1="145.089" x2="153.503" y2="144.541" gradientUnits="userSpaceOnUse">
<stop stop-color="#020000"/>
<stop offset="1" stop-color="#5F626B"/>
</linearGradient>
<linearGradient id="paint53_linear" x1="153.199" y1="147.839" x2="153.502" y2="147.292" gradientUnits="userSpaceOnUse">
<stop stop-color="#020000"/>
<stop offset="1" stop-color="#5F626B"/>
</linearGradient>
<linearGradient id="paint54_linear" x1="154.327" y1="150.667" x2="154.025" y2="150.191" gradientUnits="userSpaceOnUse">
<stop stop-color="#020000"/>
<stop offset="1" stop-color="#5F626B"/>
</linearGradient>
<linearGradient id="paint55_linear" x1="154.432" y1="145.077" x2="153.773" y2="145.076" gradientUnits="userSpaceOnUse">
<stop stop-color="#ADB2C0"/>
<stop offset="1" stop-color="white"/>
</linearGradient>
<linearGradient id="paint56_linear" x1="152.508" y1="138.078" x2="152.488" y2="148.872" gradientUnits="userSpaceOnUse">
<stop stop-color="#494E5A"/>
<stop offset="1" stop-color="#828591"/>
</linearGradient>
<linearGradient id="paint57_linear" x1="146.096" y1="184.677" x2="151.504" y2="180.064" gradientUnits="userSpaceOnUse">
<stop stop-color="#140C4F"/>
<stop offset="1" stop-color="#5781C1"/>
</linearGradient>
<linearGradient id="paint58_linear" x1="144.249" y1="146.99" x2="147.751" y2="146.99" gradientUnits="userSpaceOnUse">
<stop stop-color="#140C4F"/>
<stop offset="1" stop-color="#5781C1"/>
</linearGradient>
<linearGradient id="paint59_linear" x1="151.505" y1="149.812" x2="151.504" y2="130.274" gradientUnits="userSpaceOnUse">
<stop stop-color="#86ACD6"/>
<stop offset="1" stop-color="#FBFDFF"/>
</linearGradient>
<linearGradient id="paint60_linear" x1="150.14" y1="175.71" x2="152.11" y2="169.876" gradientUnits="userSpaceOnUse">
<stop stop-color="#86ACD6"/>
<stop offset="1" stop-color="#FBFDFF"/>
</linearGradient>
<linearGradient id="paint61_linear" x1="150.934" y1="163.389" x2="154.558" y2="163.388" gradientUnits="userSpaceOnUse">
<stop stop-color="#313092"/>
<stop offset="1" stop-color="#5F94CE"/>
</linearGradient>
<radialGradient id="paint62_radial" cx="0" cy="0" r="1" gradientUnits="userSpaceOnUse" gradientTransform="translate(150.901 163.763) rotate(-89.9744) scale(5.31537 1.74024)">
<stop stop-color="#E4E526"/>
<stop offset="0.48" stop-color="#EF4423"/>
<stop offset="1" stop-color="#3D0000"/>
</radialGradient>
<linearGradient id="paint63_linear" x1="150.942" y1="164.015" x2="152.641" y2="164.014" gradientUnits="userSpaceOnUse">
<stop stop-color="#EF4423"/>
<stop offset="1" stop-color="white"/>
</linearGradient>
<linearGradient id="paint64_linear" x1="146.426" y1="118.555" x2="146.424" y2="120.531" gradientUnits="userSpaceOnUse">
<stop stop-color="#25409A"/>
<stop offset="1" stop-color="#313092"/>
</linearGradient>
<radialGradient id="paint65_radial" cx="0" cy="0" r="1" gradientUnits="userSpaceOnUse" gradientTransform="translate(146.427 119.406) rotate(-90) scale(0.980454 0.838285)">
<stop stop-color="#E4E526"/>
<stop offset="1" stop-color="#EF4423"/>
</radialGradient>
<linearGradient id="paint66_linear" x1="147.468" y1="163.572" x2="147.467" y2="120.896" gradientUnits="userSpaceOnUse">
<stop stop-color="#EF4423"/>
<stop offset="0.48" stop-color="#E4E526"/>
<stop offset="1" stop-color="#EF4423"/>
</linearGradient>
<clipPath id="clip0">
<rect x="79.8418" y="26.0281" width="110.896" height="232.66" fill="white"/>
</clipPath>
</defs>
</svg>
