<svg width="270" height="370" viewBox="0 0 270 370" fill="none" xmlns="http://www.w3.org/2000/svg">
<g clip-path="url(#clip0)">
<path fill-rule="evenodd" clip-rule="evenodd" d="M119.161 151.503C103.378 166.649 87.5949 181.795 71.8119 196.941C71.092 197.633 69.9428 197.62 69.2368 196.914C67.2154 194.892 65.1941 192.871 63.1589 190.836C63.1589 197.952 63.1589 205.082 63.1589 212.198C63.1589 212.641 63.2974 213.029 63.5881 213.375C69.2645 220.187 74.9546 227.012 80.631 233.824C81.1571 234.46 82.0293 234.668 82.7907 234.322C95.5833 228.632 108.376 222.942 121.168 217.265C121.847 216.961 122.262 216.324 122.262 215.59C122.262 194.671 122.262 173.738 122.262 152.818C122.276 151.212 120.338 150.381 119.161 151.503Z" fill="url(#paint0_linear)"/>
<path fill-rule="evenodd" clip-rule="evenodd" d="M119.161 151.503C103.378 166.649 87.5948 181.795 71.8118 196.941C71.0919 197.633 69.9428 197.62 69.2367 196.914C67.2153 194.892 65.194 192.871 63.1588 190.836C63.1588 197.952 63.1588 205.082 63.1588 212.198C63.1588 212.641 63.2973 213.029 63.588 213.375C69.2644 220.186 74.9545 227.012 80.6309 233.824C81.157 234.46 82.0292 234.668 82.7907 234.322C95.5832 228.632 108.376 222.942 121.168 217.265C121.847 216.961 122.262 216.324 122.262 215.59C122.262 194.671 122.262 173.737 122.262 152.818C122.276 151.212 120.338 150.381 119.161 151.503ZM70.8011 195.889L118.15 150.451C118.815 149.814 119.631 149.523 120.421 149.523C120.864 149.523 121.307 149.62 121.722 149.8C122.137 149.98 122.511 150.229 122.816 150.561C123.37 151.143 123.729 151.918 123.729 152.846V215.618C123.729 216.268 123.536 216.891 123.203 217.418C122.857 217.944 122.373 218.359 121.777 218.636L83.386 235.679C82.7076 235.983 81.9738 236.039 81.2954 235.886C80.617 235.72 79.994 235.346 79.5095 234.779L62.4805 214.33C62.2312 214.026 62.0374 213.693 61.9128 213.347C61.7744 212.987 61.719 212.613 61.719 212.226V190.85C61.719 190.476 61.8574 190.102 62.1482 189.811C62.7158 189.244 63.6573 189.244 64.2249 189.811L70.2889 195.889C70.3581 195.958 70.455 196 70.5381 196C70.635 196 70.7319 195.958 70.8011 195.889Z" fill="black"/>
<path fill-rule="evenodd" clip-rule="evenodd" d="M94.3787 175.371L83.7737 185.561V233.796L94.3787 229.075V175.371Z" fill="url(#paint1_linear)"/>
<path opacity="0.5" fill-rule="evenodd" clip-rule="evenodd" d="M63.1727 212.212C63.1727 212.655 63.3112 213.043 63.6019 213.389C69.2782 220.2 74.9684 227.026 80.6448 233.837C81.1709 234.474 82.0431 234.682 82.8045 234.336C95.5971 228.646 108.39 222.955 121.182 217.279C121.86 216.975 122.276 216.338 122.276 215.604C122.276 213.569 122.276 211.534 122.276 209.498C105.759 219.024 94.4341 224.838 83.3722 229.407C81.7939 230.058 80.8386 229.615 79.8418 228.632C75.1069 223.897 66.8416 216.545 63.1727 212.212Z" fill="url(#paint2_linear)"/>
<path opacity="0.5" fill-rule="evenodd" clip-rule="evenodd" d="M119.161 151.503C103.378 166.649 87.5947 181.795 71.8117 196.941C71.0918 197.633 69.9427 197.62 69.2366 196.914C67.2152 194.892 65.1939 192.871 63.1587 190.836C63.1587 192.206 63.1587 194.477 63.1449 195.681C65.277 191.057 70.1919 201.607 70.4964 204.528C70.7041 202.631 71.5071 202.271 73.0162 200.07C73.1685 199.835 73.3208 196.747 73.5146 196.526C74.7883 195.044 76.1312 193.895 77.7788 192.179C78.0003 191.943 78.2218 193.923 78.4433 193.688C85.2964 186.71 91.4712 180.604 98.7812 174.139C99.0027 173.945 99.2242 172.076 99.4596 171.882C100.789 170.705 102.256 169.404 103.807 168.047C103.987 167.881 104.181 169.39 104.361 169.224C112.031 162.496 121.168 154.715 122.276 155.338C122.276 154.493 122.276 153.649 122.276 152.804C122.276 151.212 120.337 150.381 119.161 151.503Z" fill="url(#paint3_linear)"/>
<path fill-rule="evenodd" clip-rule="evenodd" d="M95.5416 196.595L99.5012 192.871C99.5427 192.829 99.5842 192.802 99.6258 192.788L119.991 183.996C120.241 183.886 120.504 184.066 120.504 184.315L121.265 208.183C121.265 208.335 121.182 208.474 121.057 208.543L96.2892 221.405C96.04 221.543 95.7493 221.349 95.7493 221.073L95.417 196.872C95.417 196.775 95.4585 196.664 95.5416 196.595ZM95.7908 196.858L96.1231 221.086L120.891 208.225L120.13 184.343L99.7365 193.134L95.7908 196.858Z" fill="#00045D"/>
<path fill-rule="evenodd" clip-rule="evenodd" d="M99.7366 193.134L120.116 184.329L120.877 208.211L100.152 217.182L99.7366 193.134Z" fill="url(#paint4_linear)"/>
<path fill-rule="evenodd" clip-rule="evenodd" d="M100.373 216.933L120.878 208.211L96.1232 221.086L100.373 216.933Z" fill="#1D41B3"/>
<path fill-rule="evenodd" clip-rule="evenodd" d="M95.7909 196.858C96.9954 195.695 98.1999 194.518 99.4182 193.355C99.9028 192.885 100.526 193.037 100.526 193.605C100.581 200.998 100.623 208.391 100.678 215.784C100.678 216.268 100.595 216.781 100.152 217.182C98.809 218.47 97.4523 219.785 96.1232 221.073C95.9986 213.015 95.9017 204.93 95.7909 196.858Z" fill="url(#paint5_linear)"/>
<path fill-rule="evenodd" clip-rule="evenodd" d="M95.777 197.509C96.8707 196.415 97.9644 195.321 99.0582 194.228C99.4874 193.798 100.055 193.937 100.069 194.463C100.124 201.399 100.18 208.322 100.235 215.258C100.235 215.701 100.152 216.185 99.7643 216.573C98.5598 217.777 97.3276 218.996 96.1092 220.214C95.9846 212.655 95.8877 205.082 95.777 197.509Z" fill="#3457CB"/>
<path fill-rule="evenodd" clip-rule="evenodd" d="M95.7631 197.993C96.7737 196.955 97.7982 195.917 98.8089 194.878C99.2104 194.463 99.7365 194.601 99.7365 195.1C99.7919 201.69 99.8473 208.294 99.9026 214.884C99.9026 215.313 99.8334 215.77 99.4596 216.13C98.3382 217.279 97.1891 218.428 96.0676 219.577C95.9707 212.392 95.8738 205.179 95.7631 197.993Z" fill="url(#paint6_linear)"/>
<path fill-rule="evenodd" clip-rule="evenodd" d="M120.808 206.979C120.974 206.923 121.044 207.159 120.877 207.228L108.237 211.963C107.78 212.129 107.337 211.824 107.323 211.367L106.7 192.137C106.7 191.846 106.867 191.569 107.143 191.445L120.102 185.159C120.254 185.076 120.365 185.312 120.199 185.395L107.24 191.68C107.06 191.763 106.963 191.929 106.963 192.123L107.587 211.354C107.6 211.644 107.877 211.838 108.168 211.727L120.808 206.979Z" fill="#00045D"/>
<path fill-rule="evenodd" clip-rule="evenodd" d="M95.7078 199.087L99.7366 195.75L99.695 197.398L95.7078 199.087Z" fill="url(#paint7_linear)"/>
<path fill-rule="evenodd" clip-rule="evenodd" d="M95.7216 198.506L99.7365 195.183V195.751L95.7216 199.073V198.506Z" fill="url(#paint8_linear)"/>
<path fill-rule="evenodd" clip-rule="evenodd" d="M95.7493 201.247L99.7642 197.924L99.7227 199.572L95.7493 201.247Z" fill="url(#paint9_linear)"/>
<path fill-rule="evenodd" clip-rule="evenodd" d="M95.7631 200.679L99.7642 197.356V197.924L95.7631 201.233V200.679Z" fill="url(#paint10_linear)"/>
<path fill-rule="evenodd" clip-rule="evenodd" d="M95.777 203.42L99.8058 200.098L99.7643 201.745L95.777 203.42Z" fill="url(#paint11_linear)"/>
<path fill-rule="evenodd" clip-rule="evenodd" d="M95.7908 202.839L99.8057 199.53V200.098L95.7908 203.407V202.839Z" fill="url(#paint12_linear)"/>
<path fill-rule="evenodd" clip-rule="evenodd" d="M95.8185 205.594L99.8335 202.258L99.7919 203.919L95.8185 205.594Z" fill="url(#paint13_linear)"/>
<path fill-rule="evenodd" clip-rule="evenodd" d="M95.8323 205.013L99.8334 201.704V202.258L95.8323 205.58V205.013Z" fill="url(#paint14_linear)"/>
<path fill-rule="evenodd" clip-rule="evenodd" d="M95.8463 207.768L99.8751 204.431L99.8336 206.079L95.8463 207.768Z" fill="url(#paint15_linear)"/>
<path fill-rule="evenodd" clip-rule="evenodd" d="M95.8601 207.186L99.8751 203.864V204.431L95.874 207.754L95.8601 207.186Z" fill="url(#paint16_linear)"/>
<path fill-rule="evenodd" clip-rule="evenodd" d="M95.8877 209.927L99.9027 206.605L99.875 208.252L95.8877 209.927Z" fill="url(#paint17_linear)"/>
<path fill-rule="evenodd" clip-rule="evenodd" d="M95.9015 209.36L99.9026 206.037V206.605L95.9015 209.914V209.36Z" fill="url(#paint18_linear)"/>
<path fill-rule="evenodd" clip-rule="evenodd" d="M95.9154 212.101L99.9442 208.778L99.9027 210.426L95.9154 212.101Z" fill="url(#paint19_linear)"/>
<path fill-rule="evenodd" clip-rule="evenodd" d="M95.9292 211.52L99.9442 208.211V208.778L95.943 212.087L95.9292 211.52Z" fill="url(#paint20_linear)"/>
<path fill-rule="evenodd" clip-rule="evenodd" d="M95.9569 214.275L99.9719 210.938L99.9442 212.6L95.9569 214.275Z" fill="url(#paint21_linear)"/>
<path fill-rule="evenodd" clip-rule="evenodd" d="M95.9707 213.693L99.9718 210.384V210.938L95.9707 214.261V213.693Z" fill="url(#paint22_linear)"/>
<path fill-rule="evenodd" clip-rule="evenodd" d="M95.9985 216.435L99.9443 213.126L99.9027 214.773L95.9985 216.435Z" fill="url(#paint23_linear)"/>
<path fill-rule="evenodd" clip-rule="evenodd" d="M96.0123 215.867L99.9442 212.558V213.126L96.0123 216.435V215.867Z" fill="url(#paint24_linear)"/>
<path fill-rule="evenodd" clip-rule="evenodd" d="M102.146 198.949L102.769 198.893C102.99 198.866 103.184 199.046 103.198 199.267L103.281 202.327C103.281 202.548 103.101 202.756 102.879 202.784L102.256 202.839C102.035 202.867 101.841 202.687 101.827 202.465L101.744 199.406C101.73 199.17 101.924 198.976 102.146 198.949ZM101.993 193.175L102.616 193.12C102.838 193.092 103.032 193.272 103.046 193.494L103.129 196.553C103.129 196.775 102.949 196.983 102.727 197.01L102.104 197.066C101.883 197.093 101.689 196.913 101.675 196.692L101.592 193.632C101.578 193.397 101.758 193.189 101.993 193.175ZM101.993 193.383C101.883 193.397 101.786 193.494 101.786 193.605L101.869 196.664C101.869 196.775 101.966 196.858 102.076 196.844L102.699 196.789C102.81 196.775 102.907 196.678 102.907 196.567L102.824 193.508C102.824 193.397 102.727 193.314 102.616 193.328L101.993 193.383ZM102.27 203.697L102.893 203.642C103.004 203.628 103.101 203.711 103.101 203.822L103.184 206.882C103.184 206.992 103.101 207.103 102.976 207.103L102.353 207.159C102.243 207.172 102.146 207.089 102.146 206.979L102.063 203.919C102.063 203.808 102.159 203.711 102.27 203.697ZM102.27 203.49C102.049 203.517 101.855 203.711 101.869 203.947L101.952 207.006C101.952 207.228 102.146 207.408 102.381 207.38L103.004 207.325C103.225 207.297 103.419 207.103 103.405 206.868L103.322 203.808C103.322 203.587 103.129 203.42 102.893 203.434L102.27 203.49ZM102.146 199.156C102.035 199.17 101.938 199.267 101.938 199.378L102.021 202.438C102.021 202.548 102.118 202.631 102.229 202.617L102.852 202.562C102.962 202.548 103.059 202.451 103.059 202.341L102.976 199.281C102.976 199.17 102.879 199.087 102.769 199.101L102.146 199.156ZM102.422 209.471L103.046 209.415C103.156 209.401 103.253 209.484 103.253 209.595L103.336 212.655C103.336 212.766 103.253 212.876 103.129 212.876L102.506 212.932C102.395 212.946 102.298 212.863 102.298 212.752L102.215 209.692C102.215 209.595 102.312 209.484 102.422 209.471ZM102.422 209.277C102.201 209.304 102.007 209.498 102.021 209.734L102.104 212.793C102.104 213.015 102.298 213.181 102.533 213.167L103.156 213.112C103.378 213.084 103.572 212.89 103.558 212.655L103.475 209.595C103.475 209.374 103.281 209.194 103.046 209.221L102.422 209.277Z" fill="#00045D"/>
<path fill-rule="evenodd" clip-rule="evenodd" d="M70.3443 197.454C70.3443 197.218 70.7181 197.218 70.7181 197.454V212.544L96.2893 189.41V173.461C96.2893 173.225 96.6631 172.865 96.6631 173.114V189.077L122.304 165.888C122.373 165.818 122.497 165.832 122.567 165.901C122.636 165.971 122.622 166.095 122.553 166.164L70.7874 212.973L83.4138 226.43L96.0817 221.114C96.3032 221.017 96.4416 221.363 96.2201 221.446L83.5245 226.777L81.8078 234.502C81.7801 234.599 81.6832 234.668 81.5863 234.64C81.4893 234.613 81.4201 234.516 81.4478 234.419L83.1645 226.707L70.4413 213.14L63.3528 213.029C63.1174 213.029 62.979 212.655 63.2143 212.669L70.3305 212.78V197.454H70.3443Z" fill="#00045D"/>
<path fill-rule="evenodd" clip-rule="evenodd" d="M66.5785 200.029C67.4507 200.029 68.1429 201.372 68.1429 203.019C68.1429 204.667 67.4369 206.009 66.5785 206.009C65.7063 206.009 65.014 204.667 65.014 203.019C65.014 201.372 65.7063 200.029 66.5785 200.029Z" fill="url(#paint25_linear)"/>
<path d="M66.5784 205.4C67.2666 205.4 67.8244 204.334 67.8244 203.019C67.8244 201.704 67.2666 200.638 66.5784 200.638C65.8903 200.638 65.3324 201.704 65.3324 203.019C65.3324 204.334 65.8903 205.4 66.5784 205.4Z" fill="url(#paint26_linear)"/>
<path fill-rule="evenodd" clip-rule="evenodd" d="M66.5785 201.413C67.16 201.413 67.6169 202.299 67.6169 203.393C67.6169 204.486 67.1461 205.373 66.5785 205.373C66.0109 205.373 65.5402 204.486 65.5402 203.393C65.5402 202.313 65.997 201.413 66.5785 201.413Z" fill="url(#paint27_linear)"/>
<path fill-rule="evenodd" clip-rule="evenodd" d="M78.4018 190.033C78.4018 189.936 78.4849 189.853 78.5818 189.853C78.6787 189.853 78.7618 189.936 78.7618 190.033V196.913C78.7618 196.969 78.7341 197.024 78.6926 197.052L73.1962 202.618C73.127 202.687 73.0024 202.687 72.9332 202.618C72.8917 202.576 72.8778 202.534 72.8778 202.493V195.612C72.8778 195.515 72.9609 195.432 73.0578 195.432C73.1547 195.432 73.2378 195.515 73.2378 195.612V202.05L78.3742 196.844V190.033H78.4018Z" fill="#00045D"/>
<path fill-rule="evenodd" clip-rule="evenodd" d="M104.139 165.278C104.139 165.181 104.222 165.098 104.319 165.098C104.416 165.098 104.499 165.181 104.499 165.278V172.159C104.499 172.215 104.471 172.27 104.43 172.298L98.9473 177.877C98.8781 177.946 98.7535 177.946 98.6843 177.877C98.6428 177.836 98.6289 177.794 98.6289 177.752V170.872C98.6289 170.775 98.712 170.692 98.8089 170.692C98.9058 170.692 98.9889 170.775 98.9889 170.872V177.309L104.125 172.104V165.278H104.139Z" fill="#00045D"/>
<path fill-rule="evenodd" clip-rule="evenodd" d="M91.9282 199.073H92.7728C93.1189 199.073 93.4096 199.364 93.4096 199.71V211.713C93.4096 212.06 93.1189 212.35 92.7728 212.35H91.9282C91.5821 212.35 91.2914 212.06 91.2914 211.713V199.71C91.2914 199.364 91.5683 199.073 91.9282 199.073Z" fill="#00045D"/>
<path fill-rule="evenodd" clip-rule="evenodd" d="M91.9282 199.378H92.7728C92.9527 199.378 93.105 199.53 93.105 199.71V211.713C93.105 211.893 92.9527 212.046 92.7728 212.046H91.9282C91.7482 212.046 91.5959 211.893 91.5959 211.713V199.71C91.5959 199.53 91.7482 199.378 91.9282 199.378Z" fill="url(#paint28_linear)"/>
<path fill-rule="evenodd" clip-rule="evenodd" d="M92.0253 199.932H92.6898C92.8283 199.932 92.9529 200.056 92.9529 200.195V211.229C92.9529 211.367 92.8283 211.492 92.6898 211.492H92.0253C91.8868 211.492 91.7622 211.367 91.7622 211.229V200.195C91.7622 200.056 91.873 199.932 92.0253 199.932Z" fill="url(#paint29_linear)"/>
<path fill-rule="evenodd" clip-rule="evenodd" d="M92.1636 200.305H92.5236C92.6066 200.305 92.662 200.375 92.662 200.444V210.98C92.662 211.063 92.5928 211.118 92.5236 211.118H92.1636C92.0805 211.118 92.0251 211.049 92.0251 210.98V200.444C92.0251 200.361 92.0944 200.305 92.1636 200.305Z" fill="url(#paint30_linear)"/>
<path fill-rule="evenodd" clip-rule="evenodd" d="M88.5639 202.438H89.4084C89.7545 202.438 90.0452 202.728 90.0452 203.074V215.078C90.0452 215.424 89.7545 215.715 89.4084 215.715H88.5639C88.2177 215.715 87.927 215.424 87.927 215.078V203.074C87.927 202.728 88.2177 202.438 88.5639 202.438Z" fill="#00045D"/>
<path fill-rule="evenodd" clip-rule="evenodd" d="M88.5638 202.742H89.4084C89.5884 202.742 89.7406 202.894 89.7406 203.074V215.078C89.7406 215.258 89.5884 215.41 89.4084 215.41H88.5638C88.3839 215.41 88.2316 215.258 88.2316 215.078V203.074C88.2316 202.894 88.3839 202.742 88.5638 202.742Z" fill="url(#paint31_linear)"/>
<path fill-rule="evenodd" clip-rule="evenodd" d="M88.6609 203.296H89.3254C89.4639 203.296 89.5885 203.42 89.5885 203.559V214.593C89.5885 214.732 89.4639 214.856 89.3254 214.856H88.6609C88.5224 214.856 88.3978 214.732 88.3978 214.593V203.559C88.3978 203.407 88.5086 203.296 88.6609 203.296Z" fill="url(#paint32_linear)"/>
<path fill-rule="evenodd" clip-rule="evenodd" d="M88.7992 203.656H89.1592C89.2422 203.656 89.2976 203.725 89.2976 203.794V214.33C89.2976 214.413 89.2284 214.469 89.1592 214.469H88.7992C88.7161 214.469 88.6608 214.399 88.6608 214.33V203.794C88.6608 203.725 88.73 203.656 88.7992 203.656Z" fill="url(#paint33_linear)"/>
<path fill-rule="evenodd" clip-rule="evenodd" d="M85.1996 205.802H86.0441C86.3902 205.802 86.681 206.092 86.681 206.439V218.442C86.681 218.788 86.3902 219.079 86.0441 219.079H85.1996C84.8535 219.079 84.5627 218.788 84.5627 218.442V206.439C84.5627 206.079 84.8535 205.802 85.1996 205.802Z" fill="#00045D"/>
<path fill-rule="evenodd" clip-rule="evenodd" d="M85.1996 206.106H86.0441C86.2241 206.106 86.3764 206.259 86.3764 206.439V218.442C86.3764 218.622 86.2241 218.774 86.0441 218.774H85.1996C85.0196 218.774 84.8673 218.622 84.8673 218.442V206.439C84.8673 206.245 85.0196 206.106 85.1996 206.106Z" fill="url(#paint34_linear)"/>
<path fill-rule="evenodd" clip-rule="evenodd" d="M85.2966 206.66H85.9612C86.0996 206.66 86.2242 206.785 86.2242 206.923V217.957C86.2242 218.096 86.0996 218.22 85.9612 218.22H85.2966C85.1582 218.22 85.0336 218.096 85.0336 217.957V206.923C85.0336 206.771 85.1443 206.66 85.2966 206.66Z" fill="url(#paint35_linear)"/>
<path fill-rule="evenodd" clip-rule="evenodd" d="M85.4488 207.02H85.8088C85.8918 207.02 85.9472 207.089 85.9472 207.159V217.694C85.9472 217.777 85.878 217.833 85.8088 217.833H85.4488C85.3657 217.833 85.3104 217.764 85.3104 217.694V207.159C85.2965 207.089 85.3657 207.02 85.4488 207.02Z" fill="url(#paint36_linear)"/>
<path opacity="0.5" fill-rule="evenodd" clip-rule="evenodd" d="M63.1727 212.212C63.1727 212.655 63.3112 213.043 63.6019 213.389C69.2782 220.2 74.9684 227.026 80.6448 233.837C81.1709 234.474 82.0431 234.682 82.8045 234.336C95.5971 228.646 108.39 222.955 121.182 217.279C121.86 216.975 122.276 216.338 122.276 215.604C122.276 213.569 122.276 201.288 122.276 199.253C115.229 199.253 112.875 209.955 106.576 214.289C101.993 217.445 97.6876 220.27 95.777 221.239C95.7355 219.12 95.7078 216.988 95.6663 214.87C83.8429 219.771 77.9589 216.656 63.1727 209.983C63.1727 210.814 63.1727 211.091 63.1727 212.212Z" fill="url(#paint37_linear)"/>
<path fill-rule="evenodd" clip-rule="evenodd" d="M123.48 147.959C122.054 148.831 120.628 149.703 119.188 150.575C118.787 150.824 118.455 151.406 118.455 151.863C118.455 159.713 118.455 167.549 118.455 175.399C118.455 176.922 120.296 177.337 120.296 178.86C120.296 181.92 120.296 184.979 120.296 188.039C120.296 189.562 118.455 192.22 118.455 193.743C118.455 201.634 118.455 209.526 118.455 217.417C118.455 217.874 118.787 218.054 119.188 217.805C120.614 216.933 122.041 216.061 123.48 215.188C123.882 214.939 124.214 214.358 124.214 213.901C124.214 192.04 124.214 170.193 124.214 148.332C124.214 147.889 123.882 147.723 123.48 147.959Z" fill="url(#paint38_linear)"/>
<path fill-rule="evenodd" clip-rule="evenodd" d="M118.469 151.877C118.469 159.727 118.469 167.563 118.469 175.413C118.469 176.936 120.31 177.351 120.31 178.874C120.31 181.934 120.31 184.993 120.31 188.053C120.31 189.576 118.469 192.234 118.469 193.757C118.469 201.648 118.469 209.54 118.469 217.431C118.469 217.888 118.801 218.068 119.202 217.819C120.628 216.947 122.054 216.075 123.494 215.202C123.896 214.953 124.228 214.372 124.228 213.915C124.228 192.054 124.228 170.207 124.228 148.346C124.228 147.889 123.896 147.709 123.494 147.959C122.068 148.831 120.642 149.703 119.202 150.575C118.801 150.838 118.469 151.42 118.469 151.877ZM118.441 149.343L122.733 146.726C123.093 146.505 123.48 146.394 123.84 146.394C124.159 146.394 124.449 146.477 124.726 146.63C124.948 146.754 125.128 146.906 125.294 147.114C125.335 147.156 125.363 147.211 125.405 147.266C125.599 147.571 125.695 147.945 125.695 148.36V213.929C125.695 214.413 125.543 214.939 125.28 215.382C125.031 215.825 124.671 216.213 124.256 216.476L119.964 219.093C119.604 219.314 119.216 219.425 118.856 219.425C118.538 219.425 118.247 219.342 117.97 219.19C117.749 219.065 117.569 218.913 117.416 218.705C117.375 218.65 117.333 218.608 117.306 218.539C117.112 218.234 117.015 217.861 117.015 217.445V193.771C117.015 192.705 117.541 191.514 118.053 190.337C118.455 189.437 118.842 188.537 118.842 188.067V178.888C118.842 178.708 118.593 178.431 118.33 178.168C117.666 177.476 117.001 176.769 117.001 175.427V151.877C117.001 151.392 117.153 150.866 117.416 150.423C117.652 149.994 118.025 149.592 118.441 149.343Z" fill="black"/>
<path fill-rule="evenodd" clip-rule="evenodd" d="M119.978 150.118C119.715 150.271 119.465 150.437 119.202 150.589C118.801 150.838 118.469 151.42 118.469 151.877C118.469 159.727 118.469 167.563 118.469 175.413C118.469 176.936 120.31 177.351 120.31 178.874C120.31 181.934 120.31 184.993 120.31 188.053C120.31 189.576 118.469 192.234 118.469 193.757C118.469 201.648 118.469 209.54 118.469 217.431C118.469 217.888 118.801 218.068 119.202 217.819C119.465 217.653 119.728 217.487 120.005 217.334C118.925 216.711 118.884 194.269 120.033 192.483C120.033 190.919 121.874 190.296 121.874 188.731C121.085 187.901 120.891 178.902 121.819 177.697C121.819 176.133 119.978 175.717 119.978 174.153C118.925 173.848 119.078 151.891 119.978 150.118Z" fill="#5CA4FF"/>
<path fill-rule="evenodd" clip-rule="evenodd" d="M124.214 213.929C124.214 214.386 123.882 214.967 123.48 215.216C122.054 216.089 120.628 216.961 119.188 217.833C118.787 218.082 118.455 217.902 118.455 217.445C118.469 215.618 124.214 212.6 124.214 213.929Z" fill="#1D41B3"/>
<path fill-rule="evenodd" clip-rule="evenodd" d="M124.214 185.159C124.214 186.89 124.214 188.621 124.214 190.351C123.425 190.393 119.964 191.68 118.455 193.785C118.455 192.262 120.296 189.604 120.296 188.081C120.961 190.379 123.55 187.79 124.214 185.159Z" fill="url(#paint39_linear)"/>
<path fill-rule="evenodd" clip-rule="evenodd" d="M124.214 176.645C124.214 175.302 124.214 173.945 124.214 172.602C122.304 172.602 118.787 175.15 118.579 176.063C118.981 177.116 120.296 177.6 120.296 178.888C122.124 177.462 123.328 177.185 124.214 176.645Z" fill="url(#paint40_linear)"/>
<path fill-rule="evenodd" clip-rule="evenodd" d="M124.214 148.36C124.214 147.903 123.882 147.723 123.48 147.972C122.054 148.845 120.628 149.717 119.188 150.589C118.787 150.838 118.455 151.42 118.455 151.877C119.175 150.728 123.203 148.457 124.214 148.36Z" fill="#71AFFF"/>
<path fill-rule="evenodd" clip-rule="evenodd" d="M118.496 155.282C118.33 155.421 118.178 155.047 118.358 154.909L120.033 153.607C120.421 153.303 120.85 153.483 120.85 154.175V162.869C120.85 163.437 120.531 164.088 120.185 164.351L118.51 165.652C118.344 165.791 118.192 165.417 118.372 165.278L120.047 163.977C120.296 163.783 120.559 163.285 120.559 162.855V154.161C120.559 153.815 120.379 153.829 120.185 153.967L118.496 155.282Z" fill="#00045D"/>
<path fill-rule="evenodd" clip-rule="evenodd" d="M118.496 199.322C118.33 199.461 118.178 199.087 118.358 198.949L120.033 197.647C120.421 197.343 120.85 197.523 120.85 198.215V206.909C120.85 207.477 120.531 208.128 120.185 208.391L118.51 209.692C118.344 209.831 118.192 209.457 118.372 209.318L120.047 208.017C120.296 207.823 120.559 207.325 120.559 206.896V198.201C120.559 197.855 120.379 197.869 120.185 198.007L118.496 199.322Z" fill="#00045D"/>
<path opacity="0.5" fill-rule="evenodd" clip-rule="evenodd" d="M123.48 147.959C122.054 148.831 123.66 147.848 122.234 148.72C121.833 148.969 121.5 149.551 121.5 150.008C121.5 157.858 121.5 165.694 121.5 173.544C121.5 175.066 123.342 175.482 123.342 177.005C123.342 180.064 123.342 183.124 123.342 186.184C123.342 187.707 121.5 190.365 121.5 191.888C121.5 199.779 121.5 207.671 121.5 215.562C121.5 216.019 121.833 216.199 122.234 215.95C123.66 215.078 122.054 216.061 123.48 215.188C123.882 214.939 124.214 214.358 124.214 213.901C124.214 192.04 124.214 170.193 124.214 148.332C124.214 147.889 123.882 147.723 123.48 147.959Z" fill="url(#paint41_linear)"/>
<path fill-rule="evenodd" clip-rule="evenodd" d="M151.294 151.503C167.077 166.649 182.86 181.795 198.643 196.941C199.363 197.633 200.512 197.62 201.218 196.913C203.24 194.892 205.261 192.871 207.296 190.836C207.296 197.952 207.296 205.082 207.296 212.198C207.296 212.641 207.158 213.029 206.867 213.375C201.191 220.186 195.5 227.012 189.824 233.823C189.298 234.46 188.426 234.668 187.664 234.322C174.872 228.632 162.079 222.942 149.287 217.265C148.608 216.961 148.193 216.324 148.193 215.59C148.193 194.671 148.193 173.737 148.193 152.818C148.193 151.212 150.131 150.381 151.294 151.503Z" fill="url(#paint42_linear)"/>
<path fill-rule="evenodd" clip-rule="evenodd" d="M152.319 150.451L199.668 195.889C199.737 195.958 199.834 196 199.931 195.986C200.014 195.986 200.111 195.944 200.18 195.875L206.258 189.797C206.825 189.23 207.767 189.23 208.335 189.797C208.625 190.088 208.764 190.462 208.764 190.836V212.198C208.764 212.586 208.694 212.959 208.57 213.319C208.445 213.666 208.251 213.998 208.002 214.302L190.946 234.779C190.475 235.346 189.838 235.734 189.16 235.886C188.481 236.039 187.761 235.983 187.069 235.679L148.691 218.622C148.096 218.359 147.598 217.93 147.265 217.404C146.919 216.878 146.739 216.255 146.739 215.604V152.832C146.739 151.918 147.099 151.129 147.653 150.548C147.972 150.229 148.345 149.966 148.747 149.786C149.162 149.606 149.605 149.509 150.048 149.509C150.837 149.523 151.64 149.814 152.319 150.451ZM151.294 151.503C167.077 166.649 182.86 181.795 198.643 196.941C199.363 197.633 200.512 197.62 201.218 196.913C203.24 194.892 205.261 192.871 207.296 190.836C207.296 197.952 207.296 205.082 207.296 212.198C207.296 212.641 207.158 213.029 206.867 213.375C201.191 220.186 195.5 227.012 189.824 233.823C189.298 234.46 188.426 234.668 187.664 234.322C174.872 228.632 162.079 222.942 149.287 217.265C148.608 216.961 148.193 216.324 148.193 215.59C148.193 194.671 148.193 173.737 148.193 152.818C148.193 151.212 150.131 150.381 151.294 151.503Z" fill="black"/>
<path fill-rule="evenodd" clip-rule="evenodd" d="M176.076 175.371L186.695 185.561V233.796L176.076 229.075V175.371Z" fill="url(#paint43_linear)"/>
<path opacity="0.5" fill-rule="evenodd" clip-rule="evenodd" d="M207.296 212.212C207.296 212.655 207.158 213.043 206.867 213.389C201.191 220.2 195.5 227.026 189.824 233.837C189.298 234.474 188.426 234.682 187.664 234.336C174.872 228.646 162.079 222.955 149.287 217.279C148.608 216.974 148.193 216.338 148.193 215.604C148.193 213.569 148.193 211.533 148.193 209.498C164.696 219.023 176.021 224.838 187.097 229.407C188.675 230.058 189.63 229.615 190.627 228.632C195.362 223.897 203.613 216.545 207.296 212.212Z" fill="url(#paint44_linear)"/>
<path opacity="0.5" fill-rule="evenodd" clip-rule="evenodd" d="M151.294 151.503C167.077 166.649 182.86 181.795 198.643 196.941C199.363 197.633 200.512 197.62 201.218 196.914C203.24 194.892 205.261 192.871 207.296 190.836C207.296 192.206 207.296 194.477 207.31 195.681C205.178 191.057 200.263 201.607 199.958 204.528C199.751 202.631 198.948 202.271 197.439 200.07C197.286 199.835 197.134 196.747 196.94 196.526C195.667 195.044 194.324 193.895 192.676 192.179C192.455 191.943 192.233 193.923 192.012 193.688C185.158 186.71 178.984 180.604 171.674 174.139C171.452 173.945 171.231 172.076 170.995 171.882C169.666 170.705 168.199 169.404 166.648 168.047C166.468 167.881 166.274 169.39 166.094 169.224C158.424 162.496 149.287 154.715 148.179 155.338C148.179 154.493 148.179 153.649 148.179 152.804C148.193 151.212 150.131 150.381 151.294 151.503Z" fill="url(#paint45_linear)"/>
<path fill-rule="evenodd" clip-rule="evenodd" d="M174.927 196.595L170.968 192.871C170.926 192.829 170.885 192.802 170.843 192.788L150.477 183.996C150.228 183.886 149.965 184.066 149.965 184.315L149.204 208.183C149.204 208.335 149.287 208.474 149.411 208.543L174.18 221.405C174.429 221.543 174.72 221.349 174.72 221.073L175.052 196.872C175.052 196.775 174.996 196.664 174.927 196.595ZM174.678 196.858L174.346 221.086L149.578 208.225L150.339 184.343L170.718 193.134L174.678 196.858Z" fill="#00045D"/>
<path fill-rule="evenodd" clip-rule="evenodd" d="M170.718 193.134L150.339 184.329L149.578 208.211L170.317 217.182L170.718 193.134Z" fill="url(#paint46_linear)"/>
<path fill-rule="evenodd" clip-rule="evenodd" d="M170.082 216.933L149.578 208.211L174.346 221.086L170.082 216.933Z" fill="#1D41B3"/>
<path fill-rule="evenodd" clip-rule="evenodd" d="M174.678 196.858C173.473 195.695 172.269 194.518 171.051 193.355C170.566 192.885 169.943 193.037 169.943 193.605C169.888 200.998 169.846 208.391 169.791 215.784C169.791 216.268 169.874 216.781 170.317 217.182C171.66 218.47 173.017 219.785 174.346 221.072C174.456 213.015 174.553 204.93 174.678 196.858Z" fill="url(#paint47_linear)"/>
<path fill-rule="evenodd" clip-rule="evenodd" d="M174.692 197.509C173.598 196.415 172.504 195.321 171.411 194.228C170.982 193.798 170.414 193.937 170.4 194.463C170.345 201.399 170.289 208.322 170.234 215.258C170.234 215.701 170.317 216.185 170.705 216.573C171.909 217.777 173.141 218.996 174.36 220.214C174.484 212.655 174.567 205.082 174.692 197.509Z" fill="#3457CB"/>
<path fill-rule="evenodd" clip-rule="evenodd" d="M174.692 197.993C173.681 196.955 172.657 195.917 171.646 194.878C171.245 194.463 170.719 194.601 170.719 195.1C170.663 201.69 170.608 208.294 170.552 214.884C170.552 215.313 170.622 215.77 170.995 216.13C172.117 217.279 173.266 218.428 174.387 219.577C174.498 212.392 174.581 205.179 174.692 197.993Z" fill="url(#paint48_linear)"/>
<path fill-rule="evenodd" clip-rule="evenodd" d="M149.647 206.979C149.481 206.923 149.411 207.159 149.578 207.228L162.232 211.977C162.689 212.143 163.132 211.838 163.145 211.381L163.768 192.151C163.768 191.86 163.602 191.583 163.325 191.459L150.367 185.173C150.214 185.09 150.104 185.326 150.27 185.409L163.228 191.694C163.408 191.777 163.505 191.943 163.505 192.137L162.882 211.367C162.868 211.658 162.592 211.852 162.301 211.741L149.647 206.979Z" fill="#00045D"/>
<path fill-rule="evenodd" clip-rule="evenodd" d="M174.747 199.087L170.732 195.75L170.774 197.398L174.747 199.087Z" fill="url(#paint49_linear)"/>
<path fill-rule="evenodd" clip-rule="evenodd" d="M174.747 198.506L170.732 195.183V195.751L174.734 199.073L174.747 198.506Z" fill="url(#paint50_linear)"/>
<path fill-rule="evenodd" clip-rule="evenodd" d="M174.72 201.247L170.705 197.924L170.732 199.572L174.72 201.247Z" fill="url(#paint51_linear)"/>
<path fill-rule="evenodd" clip-rule="evenodd" d="M174.706 200.679L170.705 197.356V197.924L174.706 201.233V200.679Z" fill="url(#paint52_linear)"/>
<path fill-rule="evenodd" clip-rule="evenodd" d="M174.678 203.421L170.663 200.098L170.705 201.745L174.678 203.421Z" fill="url(#paint53_linear)"/>
<path fill-rule="evenodd" clip-rule="evenodd" d="M174.664 202.839L170.663 199.53V200.098L174.664 203.407V202.839Z" fill="url(#paint54_linear)"/>
<path fill-rule="evenodd" clip-rule="evenodd" d="M174.65 205.594L170.622 202.257L170.663 203.919L174.65 205.594Z" fill="url(#paint55_linear)"/>
<path fill-rule="evenodd" clip-rule="evenodd" d="M174.637 205.012L170.636 201.704L170.622 202.257L174.637 205.58V205.012Z" fill="url(#paint56_linear)"/>
<path fill-rule="evenodd" clip-rule="evenodd" d="M174.609 207.768L170.594 204.431L170.636 206.079L174.609 207.768Z" fill="url(#paint57_linear)"/>
<path fill-rule="evenodd" clip-rule="evenodd" d="M174.595 207.186L170.594 203.864V204.431L174.595 207.754V207.186Z" fill="url(#paint58_linear)"/>
<path fill-rule="evenodd" clip-rule="evenodd" d="M174.581 209.927L170.552 206.605L170.594 208.252L174.581 209.927Z" fill="url(#paint59_linear)"/>
<path fill-rule="evenodd" clip-rule="evenodd" d="M174.567 209.36L170.552 206.037V206.605L174.567 209.914V209.36Z" fill="url(#paint60_linear)"/>
<path fill-rule="evenodd" clip-rule="evenodd" d="M174.54 212.101L170.525 208.778L170.566 210.426L174.54 212.101Z" fill="url(#paint61_linear)"/>
<path fill-rule="evenodd" clip-rule="evenodd" d="M174.526 211.52L170.525 208.211V208.778L174.526 212.087V211.52Z" fill="url(#paint62_linear)"/>
<path fill-rule="evenodd" clip-rule="evenodd" d="M174.512 214.275L170.483 210.938L170.525 212.599L174.512 214.275Z" fill="url(#paint63_linear)"/>
<path fill-rule="evenodd" clip-rule="evenodd" d="M174.498 213.693L170.483 210.384V210.938L174.498 214.261V213.693Z" fill="url(#paint64_linear)"/>
<path fill-rule="evenodd" clip-rule="evenodd" d="M174.47 216.435L170.525 213.126L170.566 214.773L174.47 216.435Z" fill="url(#paint65_linear)"/>
<path fill-rule="evenodd" clip-rule="evenodd" d="M174.457 215.867L170.525 212.558V213.126L174.457 216.435V215.867Z" fill="url(#paint66_linear)"/>
<path fill-rule="evenodd" clip-rule="evenodd" d="M168.323 198.949L167.7 198.893C167.479 198.866 167.285 199.046 167.271 199.267L167.188 202.327C167.188 202.548 167.368 202.756 167.59 202.784L168.213 202.839C168.434 202.867 168.628 202.687 168.642 202.465L168.725 199.406C168.725 199.17 168.545 198.976 168.323 198.949ZM168.476 193.175L167.853 193.12C167.631 193.092 167.437 193.272 167.423 193.494L167.34 196.553C167.34 196.775 167.52 196.983 167.742 197.01L168.365 197.066C168.586 197.093 168.78 196.913 168.794 196.692L168.877 193.632C168.877 193.397 168.697 193.189 168.476 193.175ZM168.462 193.383C168.573 193.397 168.669 193.494 168.669 193.605L168.586 196.664C168.586 196.775 168.489 196.858 168.379 196.844L167.756 196.789C167.645 196.775 167.548 196.678 167.548 196.567L167.631 193.508C167.631 193.397 167.728 193.314 167.839 193.328L168.462 193.383ZM168.199 203.697L167.576 203.642C167.465 203.628 167.368 203.711 167.368 203.822L167.285 206.882C167.285 206.992 167.368 207.103 167.493 207.103L168.116 207.159C168.226 207.172 168.323 207.089 168.323 206.979L168.406 203.919C168.393 203.808 168.31 203.711 168.199 203.697ZM168.199 203.49C168.42 203.517 168.614 203.711 168.6 203.947L168.517 207.006C168.517 207.228 168.323 207.408 168.088 207.38L167.465 207.325C167.243 207.297 167.05 207.103 167.064 206.868L167.147 203.808C167.147 203.587 167.34 203.42 167.576 203.434L168.199 203.49ZM168.31 199.156C168.42 199.17 168.517 199.267 168.517 199.378L168.434 202.437C168.434 202.548 168.337 202.631 168.226 202.617L167.603 202.562C167.493 202.548 167.396 202.451 167.396 202.341L167.479 199.281C167.479 199.17 167.576 199.087 167.687 199.101L168.31 199.156ZM168.046 209.471L167.423 209.415C167.313 209.401 167.216 209.484 167.216 209.595L167.133 212.655C167.133 212.766 167.216 212.876 167.34 212.876L167.963 212.932C168.074 212.946 168.171 212.863 168.171 212.752L168.254 209.692C168.24 209.595 168.157 209.484 168.046 209.471ZM168.046 209.277C168.268 209.304 168.462 209.498 168.448 209.734L168.365 212.793C168.365 213.015 168.171 213.181 167.936 213.167L167.313 213.112C167.091 213.084 166.897 212.89 166.911 212.655L166.994 209.595C166.994 209.374 167.188 209.194 167.423 209.221L168.046 209.277Z" fill="#00045D"/>
<path fill-rule="evenodd" clip-rule="evenodd" d="M200.125 197.453C200.125 197.218 199.751 197.218 199.751 197.453V212.544L174.18 189.41V173.46C174.18 173.225 173.806 172.865 173.806 173.114V189.077L148.179 165.887C148.11 165.818 147.985 165.832 147.916 165.901C147.847 165.97 147.861 166.095 147.93 166.164L199.668 212.973L187.041 226.43L174.373 221.1C174.152 221.003 174.013 221.349 174.235 221.432L186.944 226.763L188.661 234.488C188.689 234.585 188.786 234.654 188.883 234.626C188.98 234.599 189.049 234.502 189.021 234.405L187.304 226.693L200.028 213.126L207.116 213.015C207.352 213.015 207.49 212.641 207.255 212.655L200.138 212.766V197.453H200.125Z" fill="#00045D"/>
<path fill-rule="evenodd" clip-rule="evenodd" d="M203.89 200.028C203.018 200.028 202.326 201.371 202.326 203.019C202.326 204.666 203.032 206.009 203.89 206.009C204.763 206.009 205.455 204.666 205.455 203.019C205.455 201.371 204.749 200.028 203.89 200.028Z" fill="url(#paint67_linear)"/>
<path d="M203.89 205.4C204.578 205.4 205.136 204.334 205.136 203.019C205.136 201.704 204.578 200.638 203.89 200.638C203.202 200.638 202.644 201.704 202.644 203.019C202.644 204.334 203.202 205.4 203.89 205.4Z" fill="url(#paint68_linear)"/>
<path fill-rule="evenodd" clip-rule="evenodd" d="M203.89 201.413C203.309 201.413 202.852 202.299 202.852 203.393C202.852 204.486 203.323 205.373 203.89 205.373C204.458 205.373 204.929 204.486 204.929 203.393C204.929 202.313 204.458 201.413 203.89 201.413Z" fill="url(#paint69_linear)"/>
<path fill-rule="evenodd" clip-rule="evenodd" d="M192.067 190.033C192.067 189.936 191.984 189.853 191.887 189.853C191.79 189.853 191.707 189.936 191.707 190.033V196.913C191.707 196.969 191.735 197.024 191.776 197.052L197.272 202.618C197.342 202.687 197.466 202.687 197.536 202.618C197.577 202.576 197.591 202.534 197.591 202.493V195.612C197.591 195.515 197.508 195.432 197.411 195.432C197.314 195.432 197.231 195.515 197.231 195.612V202.05L192.095 196.844V190.033H192.067Z" fill="#00045D"/>
<path fill-rule="evenodd" clip-rule="evenodd" d="M166.33 165.278C166.33 165.181 166.247 165.098 166.15 165.098C166.053 165.098 165.97 165.181 165.97 165.278V172.159C165.97 172.214 165.997 172.27 166.039 172.298L171.535 177.863C171.604 177.932 171.729 177.932 171.798 177.863C171.84 177.822 171.854 177.78 171.854 177.738V170.858C171.854 170.761 171.771 170.678 171.674 170.678C171.577 170.678 171.494 170.761 171.494 170.858V177.295L166.33 172.09V165.278Z" fill="#00045D"/>
<path fill-rule="evenodd" clip-rule="evenodd" d="M178.541 199.073H177.696C177.35 199.073 177.059 199.364 177.059 199.71V211.713C177.059 212.06 177.35 212.35 177.696 212.35H178.541C178.887 212.35 179.178 212.06 179.178 211.713V199.71C179.178 199.364 178.887 199.073 178.541 199.073Z" fill="#00045D"/>
<path fill-rule="evenodd" clip-rule="evenodd" d="M178.541 199.378H177.696C177.516 199.378 177.364 199.53 177.364 199.71V211.713C177.364 211.893 177.516 212.046 177.696 212.046H178.541C178.721 212.046 178.873 211.893 178.873 211.713V199.71C178.873 199.53 178.721 199.378 178.541 199.378Z" fill="url(#paint70_linear)"/>
<path fill-rule="evenodd" clip-rule="evenodd" d="M178.444 199.932H177.779C177.641 199.932 177.516 200.056 177.516 200.195V211.229C177.516 211.367 177.641 211.492 177.779 211.492H178.444C178.582 211.492 178.707 211.367 178.707 211.229V200.195C178.707 200.056 178.596 199.932 178.444 199.932Z" fill="url(#paint71_linear)"/>
<path fill-rule="evenodd" clip-rule="evenodd" d="M178.291 200.305H177.932C177.848 200.305 177.793 200.375 177.793 200.444V210.98C177.793 211.063 177.862 211.118 177.932 211.118H178.291C178.375 211.118 178.43 211.049 178.43 210.98V200.444C178.444 200.361 178.375 200.305 178.291 200.305Z" fill="url(#paint72_linear)"/>
<path fill-rule="evenodd" clip-rule="evenodd" d="M181.905 202.438H181.06C180.714 202.438 180.424 202.728 180.424 203.074V215.078C180.424 215.424 180.714 215.715 181.06 215.715H181.905C182.251 215.715 182.542 215.424 182.542 215.078V203.074C182.542 202.728 182.251 202.438 181.905 202.438Z" fill="#00045D"/>
<path fill-rule="evenodd" clip-rule="evenodd" d="M181.905 202.742H181.061C180.881 202.742 180.728 202.894 180.728 203.074V215.078C180.728 215.258 180.881 215.41 181.061 215.41H181.905C182.085 215.41 182.237 215.258 182.237 215.078V203.074C182.237 202.894 182.085 202.742 181.905 202.742Z" fill="url(#paint73_linear)"/>
<path fill-rule="evenodd" clip-rule="evenodd" d="M181.808 203.296H181.144C181.005 203.296 180.88 203.42 180.88 203.559V214.593C180.88 214.732 181.005 214.856 181.144 214.856H181.808C181.947 214.856 182.071 214.732 182.071 214.593V203.559C182.071 203.407 181.947 203.296 181.808 203.296Z" fill="url(#paint74_linear)"/>
<path fill-rule="evenodd" clip-rule="evenodd" d="M181.656 203.656H181.296C181.213 203.656 181.157 203.725 181.157 203.794V214.33C181.157 214.413 181.227 214.469 181.296 214.469H181.656C181.739 214.469 181.794 214.399 181.794 214.33V203.794C181.808 203.725 181.739 203.656 181.656 203.656Z" fill="url(#paint75_linear)"/>
<path fill-rule="evenodd" clip-rule="evenodd" d="M185.255 205.802H184.411C184.065 205.802 183.774 206.092 183.774 206.439V218.442C183.774 218.788 184.065 219.079 184.411 219.079H185.255C185.602 219.079 185.892 218.788 185.892 218.442V206.439C185.906 206.079 185.615 205.802 185.255 205.802Z" fill="#00045D"/>
<path fill-rule="evenodd" clip-rule="evenodd" d="M185.255 206.106H184.411C184.231 206.106 184.079 206.259 184.079 206.439V218.442C184.079 218.622 184.231 218.774 184.411 218.774H185.255C185.435 218.774 185.588 218.622 185.588 218.442V206.439C185.602 206.245 185.449 206.106 185.255 206.106Z" fill="url(#paint76_linear)"/>
<path fill-rule="evenodd" clip-rule="evenodd" d="M185.172 206.66H184.508C184.369 206.66 184.245 206.785 184.245 206.923V217.957C184.245 218.096 184.369 218.22 184.508 218.22H185.172C185.311 218.22 185.435 218.096 185.435 217.957V206.923C185.435 206.771 185.311 206.66 185.172 206.66Z" fill="url(#paint77_linear)"/>
<path fill-rule="evenodd" clip-rule="evenodd" d="M185.02 207.02H184.66C184.577 207.02 184.522 207.089 184.522 207.159V217.694C184.522 217.777 184.591 217.833 184.66 217.833H185.02C185.103 217.833 185.158 217.764 185.158 217.694V207.159C185.158 207.089 185.103 207.02 185.02 207.02Z" fill="url(#paint78_linear)"/>
<path opacity="0.5" fill-rule="evenodd" clip-rule="evenodd" d="M207.296 212.212C207.296 212.655 207.158 213.043 206.867 213.389C201.191 220.2 195.5 227.026 189.824 233.837C189.298 234.474 188.426 234.682 187.664 234.336C174.872 228.645 162.079 222.955 149.287 217.279C148.608 216.974 148.193 216.338 148.193 215.604C148.193 213.569 148.193 201.288 148.193 199.253C155.24 199.253 157.594 209.955 163.893 214.289C168.476 217.445 172.781 220.269 174.692 221.239C174.733 219.12 174.761 216.988 174.803 214.87C186.626 219.771 192.51 216.656 207.296 209.983C207.296 210.814 207.296 211.09 207.296 212.212Z" fill="url(#paint79_linear)"/>
<path fill-rule="evenodd" clip-rule="evenodd" d="M146.975 147.959C148.401 148.831 149.827 149.703 151.267 150.575C151.668 150.824 152.001 151.406 152.001 151.863C152.001 159.713 152.001 167.549 152.001 175.399C152.001 176.922 150.159 177.337 150.159 178.86C150.159 181.92 150.159 184.979 150.159 188.039C150.159 189.562 152.001 192.22 152.001 193.743C152.001 201.634 152.001 209.526 152.001 217.417C152.001 217.874 151.668 218.054 151.267 217.805C149.841 216.933 148.415 216.061 146.975 215.188C146.573 214.939 146.241 214.358 146.241 213.901C146.241 192.04 146.241 170.193 146.241 148.332C146.241 147.889 146.573 147.723 146.975 147.959Z" fill="url(#paint80_linear)"/>
<path fill-rule="evenodd" clip-rule="evenodd" d="M147.75 146.713L152.042 149.329C152.457 149.578 152.817 149.98 153.067 150.423C153.316 150.866 153.482 151.392 153.482 151.877V175.413C153.482 176.756 152.817 177.462 152.153 178.154C151.904 178.417 151.64 178.694 151.64 178.874V188.053C151.64 188.524 152.042 189.423 152.43 190.323C152.956 191.514 153.468 192.705 153.468 193.757V217.431C153.468 217.847 153.357 218.22 153.177 218.525C153.136 218.58 153.108 218.636 153.067 218.691C152.914 218.899 152.72 219.051 152.513 219.176C152.236 219.328 151.931 219.411 151.627 219.411C151.267 219.411 150.879 219.3 150.519 219.079L146.227 216.462C145.812 216.213 145.452 215.812 145.203 215.368C144.953 214.925 144.787 214.399 144.787 213.915V148.36C144.787 147.945 144.898 147.571 145.078 147.266C145.106 147.211 145.147 147.156 145.189 147.114C145.341 146.906 145.535 146.74 145.756 146.629C146.033 146.477 146.338 146.394 146.643 146.394C147.003 146.38 147.376 146.491 147.75 146.713ZM152 151.877C152 159.727 152 167.563 152 175.413C152 176.936 150.159 177.351 150.159 178.874C150.159 181.933 150.159 184.993 150.159 188.053C150.159 189.576 152 192.234 152 193.757C152 201.648 152 209.54 152 217.431C152 217.888 151.668 218.068 151.267 217.819C149.841 216.947 148.415 216.075 146.975 215.202C146.573 214.953 146.241 214.372 146.241 213.915C146.241 192.054 146.241 170.207 146.241 148.346C146.241 147.889 146.573 147.709 146.975 147.959C148.401 148.831 149.827 149.703 151.267 150.575C151.668 150.838 152 151.42 152 151.877Z" fill="black"/>
<path fill-rule="evenodd" clip-rule="evenodd" d="M150.491 150.118C150.755 150.271 151.004 150.437 151.267 150.589C151.668 150.838 152.001 151.42 152.001 151.877C152.001 159.727 152.001 167.563 152.001 175.413C152.001 176.936 150.159 177.351 150.159 178.874C150.159 181.933 150.159 184.993 150.159 188.053C150.159 189.576 152.001 192.234 152.001 193.757C152.001 201.648 152.001 209.54 152.001 217.431C152.001 217.888 151.668 218.068 151.267 217.819C151.004 217.653 150.741 217.487 150.464 217.334C151.544 216.711 151.585 194.269 150.436 192.483C150.436 190.919 148.595 190.296 148.595 188.731C149.384 187.901 149.578 178.901 148.65 177.697C148.65 176.133 150.491 175.717 150.491 174.153C151.53 173.848 151.391 151.89 150.491 150.118Z" fill="#5CA4FF"/>
<path fill-rule="evenodd" clip-rule="evenodd" d="M146.241 213.929C146.241 214.386 146.573 214.967 146.975 215.216C148.401 216.088 149.827 216.961 151.267 217.833C151.668 218.082 152.001 217.902 152.001 217.445C152.001 215.618 146.241 212.6 146.241 213.929Z" fill="#1D41B3"/>
<path fill-rule="evenodd" clip-rule="evenodd" d="M146.241 185.159C146.241 186.89 146.241 188.62 146.241 190.351C147.03 190.393 150.491 191.68 152.001 193.785C152.001 192.262 150.159 189.603 150.159 188.081C149.495 190.379 146.919 187.79 146.241 185.159Z" fill="url(#paint81_linear)"/>
<path fill-rule="evenodd" clip-rule="evenodd" d="M146.241 176.645C146.241 175.302 146.241 173.945 146.241 172.602C148.152 172.602 151.668 175.15 151.876 176.063C151.474 177.116 150.159 177.6 150.159 178.888C148.332 177.462 147.127 177.185 146.241 176.645Z" fill="url(#paint82_linear)"/>
<path fill-rule="evenodd" clip-rule="evenodd" d="M146.241 148.36C146.241 147.903 146.573 147.723 146.975 147.972C148.401 148.845 149.827 149.717 151.267 150.589C151.668 150.838 152.001 151.42 152.001 151.877C151.294 150.727 147.266 148.457 146.241 148.36Z" fill="#71AFFF"/>
<path fill-rule="evenodd" clip-rule="evenodd" d="M151.959 155.282C152.125 155.421 152.277 155.047 152.097 154.909L150.422 153.607C150.035 153.303 149.605 153.483 149.605 154.175V162.869C149.605 163.437 149.924 164.088 150.27 164.351L151.945 165.652C152.111 165.791 152.264 165.417 152.084 165.278L150.408 163.977C150.159 163.783 149.896 163.285 149.896 162.855V154.161C149.896 153.815 150.076 153.829 150.27 153.967L151.959 155.282Z" fill="#00045D"/>
<path fill-rule="evenodd" clip-rule="evenodd" d="M151.959 199.322C152.125 199.461 152.277 199.087 152.097 198.949L150.422 197.647C150.035 197.343 149.605 197.523 149.605 198.215V206.909C149.605 207.477 149.924 208.128 150.27 208.391L151.945 209.692C152.111 209.831 152.264 209.457 152.084 209.318L150.408 208.017C150.159 207.823 149.896 207.325 149.896 206.896V198.201C149.896 197.855 150.076 197.869 150.27 198.007L151.959 199.322Z" fill="#00045D"/>
<path opacity="0.5" fill-rule="evenodd" clip-rule="evenodd" d="M146.975 147.959C148.401 148.831 146.795 147.848 148.221 148.72C148.622 148.969 148.955 149.551 148.955 150.008C148.955 157.858 148.955 165.694 148.955 173.544C148.955 175.066 147.113 175.482 147.113 177.005C147.113 180.064 147.113 183.124 147.113 186.184C147.113 187.707 148.955 190.365 148.955 191.888C148.955 199.779 148.955 207.671 148.955 215.562C148.955 216.019 148.622 216.199 148.221 215.95C146.795 215.078 148.401 216.061 146.975 215.188C146.573 214.939 146.241 214.358 146.241 213.901C146.241 192.04 146.241 170.193 146.241 148.332C146.241 147.889 146.573 147.723 146.975 147.959Z" fill="url(#paint83_linear)"/>
</g>
<defs>
<linearGradient id="paint0_linear" x1="95.3865" y1="229.335" x2="92.5325" y2="179.172" gradientUnits="userSpaceOnUse">
<stop stop-color="#3654A5"/>
<stop offset="1" stop-color="#5781C1"/>
</linearGradient>
<linearGradient id="paint1_linear" x1="89.0742" y1="229.399" x2="89.0759" y2="190.849" gradientUnits="userSpaceOnUse">
<stop stop-color="#CC721C"/>
<stop offset="1" stop-color="#F5841F"/>
</linearGradient>
<linearGradient id="paint2_linear" x1="112.376" y1="210.566" x2="76.1873" y2="222.252" gradientUnits="userSpaceOnUse">
<stop stop-color="#313092"/>
<stop offset="1" stop-color="#3654A5"/>
</linearGradient>
<linearGradient id="paint3_linear" x1="113.131" y1="153.977" x2="69.7103" y2="194.988" gradientUnits="userSpaceOnUse">
<stop stop-color="#5781C1"/>
<stop offset="1" stop-color="#AADDDD"/>
</linearGradient>
<linearGradient id="paint4_linear" x1="118.739" y1="199.179" x2="100.547" y2="202.521" gradientUnits="userSpaceOnUse">
<stop stop-color="#25409A"/>
<stop offset="1" stop-color="#5F94CE"/>
</linearGradient>
<linearGradient id="paint5_linear" x1="99.4099" y1="218.636" x2="97.1023" y2="194.697" gradientUnits="userSpaceOnUse">
<stop stop-color="#2B2477"/>
<stop offset="1" stop-color="#5F94CE"/>
</linearGradient>
<linearGradient id="paint6_linear" x1="99.4189" y1="207.067" x2="96.3688" y2="207.146" gradientUnits="userSpaceOnUse">
<stop/>
<stop offset="1" stop-color="#4361AD"/>
</linearGradient>
<linearGradient id="paint7_linear" x1="99.7031" y1="197.412" x2="97.2536" y2="197.418" gradientUnits="userSpaceOnUse">
<stop stop-color="#2B2477"/>
<stop offset="1" stop-color="#416DB5"/>
</linearGradient>
<linearGradient id="paint8_linear" x1="95.5831" y1="198.194" x2="99.8752" y2="196.061" gradientUnits="userSpaceOnUse">
<stop stop-color="#5F94CE"/>
<stop offset="1" stop-color="#6FA1D6"/>
</linearGradient>
<linearGradient id="paint9_linear" x1="99.7386" y1="199.582" x2="97.289" y2="199.588" gradientUnits="userSpaceOnUse">
<stop stop-color="#2B2477"/>
<stop offset="1" stop-color="#416DB5"/>
</linearGradient>
<linearGradient id="paint10_linear" x1="95.6181" y1="200.364" x2="99.9098" y2="198.231" gradientUnits="userSpaceOnUse">
<stop stop-color="#5F94CE"/>
<stop offset="1" stop-color="#6FA1D6"/>
</linearGradient>
<linearGradient id="paint11_linear" x1="99.7738" y1="201.752" x2="97.324" y2="201.758" gradientUnits="userSpaceOnUse">
<stop stop-color="#2B2477"/>
<stop offset="1" stop-color="#416DB5"/>
</linearGradient>
<linearGradient id="paint12_linear" x1="95.6537" y1="202.534" x2="99.9453" y2="200.401" gradientUnits="userSpaceOnUse">
<stop stop-color="#5F94CE"/>
<stop offset="1" stop-color="#6FA1D6"/>
</linearGradient>
<linearGradient id="paint13_linear" x1="99.8093" y1="203.922" x2="97.3597" y2="203.928" gradientUnits="userSpaceOnUse">
<stop stop-color="#2B2477"/>
<stop offset="1" stop-color="#416DB5"/>
</linearGradient>
<linearGradient id="paint14_linear" x1="95.6888" y1="204.704" x2="99.9805" y2="202.571" gradientUnits="userSpaceOnUse">
<stop stop-color="#5F94CE"/>
<stop offset="1" stop-color="#6FA1D6"/>
</linearGradient>
<linearGradient id="paint15_linear" x1="99.8441" y1="206.092" x2="97.3944" y2="206.098" gradientUnits="userSpaceOnUse">
<stop stop-color="#2B2477"/>
<stop offset="1" stop-color="#416DB5"/>
</linearGradient>
<linearGradient id="paint16_linear" x1="95.7245" y1="206.874" x2="100.016" y2="204.741" gradientUnits="userSpaceOnUse">
<stop stop-color="#5F94CE"/>
<stop offset="1" stop-color="#6FA1D6"/>
</linearGradient>
<linearGradient id="paint17_linear" x1="99.8796" y1="208.262" x2="97.43" y2="208.268" gradientUnits="userSpaceOnUse">
<stop stop-color="#2B2477"/>
<stop offset="1" stop-color="#416DB5"/>
</linearGradient>
<linearGradient id="paint18_linear" x1="95.7594" y1="209.044" x2="100.051" y2="206.911" gradientUnits="userSpaceOnUse">
<stop stop-color="#5F94CE"/>
<stop offset="1" stop-color="#6FA1D6"/>
</linearGradient>
<linearGradient id="paint19_linear" x1="99.9148" y1="210.432" x2="97.465" y2="210.438" gradientUnits="userSpaceOnUse">
<stop stop-color="#2B2477"/>
<stop offset="1" stop-color="#416DB5"/>
</linearGradient>
<linearGradient id="paint20_linear" x1="95.7951" y1="211.214" x2="100.087" y2="209.081" gradientUnits="userSpaceOnUse">
<stop stop-color="#5F94CE"/>
<stop offset="1" stop-color="#6FA1D6"/>
</linearGradient>
<linearGradient id="paint21_linear" x1="99.9502" y1="212.602" x2="97.5006" y2="212.609" gradientUnits="userSpaceOnUse">
<stop stop-color="#2B2477"/>
<stop offset="1" stop-color="#416DB5"/>
</linearGradient>
<linearGradient id="paint22_linear" x1="95.8302" y1="213.384" x2="100.122" y2="211.251" gradientUnits="userSpaceOnUse">
<stop stop-color="#5F94CE"/>
<stop offset="1" stop-color="#6FA1D6"/>
</linearGradient>
<linearGradient id="paint23_linear" x1="99.9143" y1="214.775" x2="97.5079" y2="214.782" gradientUnits="userSpaceOnUse">
<stop stop-color="#2B2477"/>
<stop offset="1" stop-color="#416DB5"/>
</linearGradient>
<linearGradient id="paint24_linear" x1="95.8546" y1="215.527" x2="100.096" y2="213.456" gradientUnits="userSpaceOnUse">
<stop stop-color="#5F94CE"/>
<stop offset="1" stop-color="#6FA1D6"/>
</linearGradient>
<linearGradient id="paint25_linear" x1="66.579" y1="200.352" x2="66.5799" y2="206.26" gradientUnits="userSpaceOnUse">
<stop stop-color="#313092"/>
<stop offset="1" stop-color="#6FA1D6"/>
</linearGradient>
<linearGradient id="paint26_linear" x1="66.5785" y1="205.39" x2="66.5802" y2="200.64" gradientUnits="userSpaceOnUse">
<stop stop-color="#3F54A5"/>
<stop offset="1" stop-color="#6FA1D6"/>
</linearGradient>
<linearGradient id="paint27_linear" x1="66.5786" y1="201.54" x2="66.5803" y2="205.322" gradientUnits="userSpaceOnUse">
<stop stop-color="#2B2477"/>
<stop offset="1" stop-color="#6FA1D6"/>
</linearGradient>
<linearGradient id="paint28_linear" x1="92.3484" y1="210.909" x2="92.35" y2="201.375" gradientUnits="userSpaceOnUse">
<stop stop-color="#313092"/>
<stop offset="1" stop-color="#5F94CE"/>
</linearGradient>
<linearGradient id="paint29_linear" x1="92.3484" y1="210.909" x2="92.35" y2="201.358" gradientUnits="userSpaceOnUse">
<stop stop-color="#3D0000"/>
<stop offset="1" stop-color="#794503"/>
</linearGradient>
<linearGradient id="paint30_linear" x1="92.3484" y1="210.909" x2="92.35" y2="201.073" gradientUnits="userSpaceOnUse">
<stop stop-color="#EF4423"/>
<stop offset="1" stop-color="#C9CD2B"/>
</linearGradient>
<linearGradient id="paint31_linear" x1="88.986" y1="214.272" x2="88.9876" y2="204.738" gradientUnits="userSpaceOnUse">
<stop stop-color="#313092"/>
<stop offset="1" stop-color="#5F94CE"/>
</linearGradient>
<linearGradient id="paint32_linear" x1="88.9861" y1="214.271" x2="88.9877" y2="204.72" gradientUnits="userSpaceOnUse">
<stop stop-color="#3D0000"/>
<stop offset="1" stop-color="#794503"/>
</linearGradient>
<linearGradient id="paint33_linear" x1="88.9862" y1="214.272" x2="88.9878" y2="204.436" gradientUnits="userSpaceOnUse">
<stop stop-color="#EF4423"/>
<stop offset="1" stop-color="#C9CD2B"/>
</linearGradient>
<linearGradient id="paint34_linear" x1="85.6236" y1="217.634" x2="85.6252" y2="208.1" gradientUnits="userSpaceOnUse">
<stop stop-color="#313092"/>
<stop offset="1" stop-color="#5F94CE"/>
</linearGradient>
<linearGradient id="paint35_linear" x1="85.6237" y1="217.633" x2="85.6253" y2="208.082" gradientUnits="userSpaceOnUse">
<stop stop-color="#3D0000"/>
<stop offset="1" stop-color="#794503"/>
</linearGradient>
<linearGradient id="paint36_linear" x1="85.624" y1="217.634" x2="85.6256" y2="207.798" gradientUnits="userSpaceOnUse">
<stop stop-color="#EF4423"/>
<stop offset="1" stop-color="#C9CD2B"/>
</linearGradient>
<linearGradient id="paint37_linear" x1="92.7218" y1="232.185" x2="92.7235" y2="206.433" gradientUnits="userSpaceOnUse">
<stop stop-color="#140C4F"/>
<stop offset="1" stop-color="white"/>
</linearGradient>
<linearGradient id="paint38_linear" x1="135.015" y1="205.255" x2="107.964" y2="161.029" gradientUnits="userSpaceOnUse">
<stop stop-color="#3654A5"/>
<stop offset="1" stop-color="#5781C1"/>
</linearGradient>
<linearGradient id="paint39_linear" x1="121.493" y1="190.594" x2="121.167" y2="188.153" gradientUnits="userSpaceOnUse">
<stop stop-color="#25409A"/>
<stop offset="1" stop-color="#4768B1"/>
</linearGradient>
<linearGradient id="paint40_linear" x1="122.396" y1="176.339" x2="121.703" y2="174.943" gradientUnits="userSpaceOnUse">
<stop stop-color="#25409A"/>
<stop offset="1" stop-color="#4E72B8"/>
</linearGradient>
<linearGradient id="paint41_linear" x1="123.336" y1="181.971" x2="120.428" y2="181.969" gradientUnits="userSpaceOnUse">
<stop stop-color="#140C4F"/>
<stop offset="1" stop-color="white"/>
</linearGradient>
<linearGradient id="paint42_linear" x1="175.078" y1="229.335" x2="177.932" y2="179.172" gradientUnits="userSpaceOnUse">
<stop stop-color="#3654A5"/>
<stop offset="1" stop-color="#5781C1"/>
</linearGradient>
<linearGradient id="paint43_linear" x1="181.39" y1="229.399" x2="181.388" y2="190.849" gradientUnits="userSpaceOnUse">
<stop stop-color="#CC721C"/>
<stop offset="1" stop-color="#F5841F"/>
</linearGradient>
<linearGradient id="paint44_linear" x1="158.088" y1="210.566" x2="194.277" y2="222.252" gradientUnits="userSpaceOnUse">
<stop stop-color="#313092"/>
<stop offset="1" stop-color="#3654A5"/>
</linearGradient>
<linearGradient id="paint45_linear" x1="157.333" y1="153.977" x2="200.754" y2="194.988" gradientUnits="userSpaceOnUse">
<stop stop-color="#5781C1"/>
<stop offset="1" stop-color="#AADDDD"/>
</linearGradient>
<linearGradient id="paint46_linear" x1="151.725" y1="199.179" x2="169.917" y2="202.521" gradientUnits="userSpaceOnUse">
<stop stop-color="#25409A"/>
<stop offset="1" stop-color="#5F94CE"/>
</linearGradient>
<linearGradient id="paint47_linear" x1="171.054" y1="218.635" x2="173.362" y2="194.696" gradientUnits="userSpaceOnUse">
<stop stop-color="#2B2477"/>
<stop offset="1" stop-color="#5F94CE"/>
</linearGradient>
<linearGradient id="paint48_linear" x1="171.045" y1="207.067" x2="174.095" y2="207.146" gradientUnits="userSpaceOnUse">
<stop/>
<stop offset="1" stop-color="#4361AD"/>
</linearGradient>
<linearGradient id="paint49_linear" x1="170.761" y1="197.412" x2="173.211" y2="197.418" gradientUnits="userSpaceOnUse">
<stop stop-color="#2B2477"/>
<stop offset="1" stop-color="#416DB5"/>
</linearGradient>
<linearGradient id="paint50_linear" x1="174.881" y1="198.194" x2="170.589" y2="196.061" gradientUnits="userSpaceOnUse">
<stop stop-color="#5F94CE"/>
<stop offset="1" stop-color="#6FA1D6"/>
</linearGradient>
<linearGradient id="paint51_linear" x1="170.726" y1="199.582" x2="173.175" y2="199.588" gradientUnits="userSpaceOnUse">
<stop stop-color="#2B2477"/>
<stop offset="1" stop-color="#416DB5"/>
</linearGradient>
<linearGradient id="paint52_linear" x1="174.846" y1="200.364" x2="170.554" y2="198.231" gradientUnits="userSpaceOnUse">
<stop stop-color="#5F94CE"/>
<stop offset="1" stop-color="#6FA1D6"/>
</linearGradient>
<linearGradient id="paint53_linear" x1="170.691" y1="201.752" x2="173.14" y2="201.758" gradientUnits="userSpaceOnUse">
<stop stop-color="#2B2477"/>
<stop offset="1" stop-color="#416DB5"/>
</linearGradient>
<linearGradient id="paint54_linear" x1="174.811" y1="202.534" x2="170.519" y2="200.401" gradientUnits="userSpaceOnUse">
<stop stop-color="#5F94CE"/>
<stop offset="1" stop-color="#6FA1D6"/>
</linearGradient>
<linearGradient id="paint55_linear" x1="170.655" y1="203.922" x2="173.105" y2="203.928" gradientUnits="userSpaceOnUse">
<stop stop-color="#2B2477"/>
<stop offset="1" stop-color="#416DB5"/>
</linearGradient>
<linearGradient id="paint56_linear" x1="174.776" y1="204.704" x2="170.484" y2="202.571" gradientUnits="userSpaceOnUse">
<stop stop-color="#5F94CE"/>
<stop offset="1" stop-color="#6FA1D6"/>
</linearGradient>
<linearGradient id="paint57_linear" x1="170.62" y1="206.092" x2="173.07" y2="206.098" gradientUnits="userSpaceOnUse">
<stop stop-color="#2B2477"/>
<stop offset="1" stop-color="#416DB5"/>
</linearGradient>
<linearGradient id="paint58_linear" x1="174.74" y1="206.874" x2="170.448" y2="204.741" gradientUnits="userSpaceOnUse">
<stop stop-color="#5F94CE"/>
<stop offset="1" stop-color="#6FA1D6"/>
</linearGradient>
<linearGradient id="paint59_linear" x1="170.585" y1="208.262" x2="173.034" y2="208.268" gradientUnits="userSpaceOnUse">
<stop stop-color="#2B2477"/>
<stop offset="1" stop-color="#416DB5"/>
</linearGradient>
<linearGradient id="paint60_linear" x1="174.705" y1="209.044" x2="170.413" y2="206.911" gradientUnits="userSpaceOnUse">
<stop stop-color="#5F94CE"/>
<stop offset="1" stop-color="#6FA1D6"/>
</linearGradient>
<linearGradient id="paint61_linear" x1="170.549" y1="210.432" x2="172.999" y2="210.438" gradientUnits="userSpaceOnUse">
<stop stop-color="#2B2477"/>
<stop offset="1" stop-color="#416DB5"/>
</linearGradient>
<linearGradient id="paint62_linear" x1="174.669" y1="211.214" x2="170.378" y2="209.081" gradientUnits="userSpaceOnUse">
<stop stop-color="#5F94CE"/>
<stop offset="1" stop-color="#6FA1D6"/>
</linearGradient>
<linearGradient id="paint63_linear" x1="170.514" y1="212.602" x2="172.964" y2="212.609" gradientUnits="userSpaceOnUse">
<stop stop-color="#2B2477"/>
<stop offset="1" stop-color="#416DB5"/>
</linearGradient>
<linearGradient id="paint64_linear" x1="174.634" y1="213.384" x2="170.342" y2="211.251" gradientUnits="userSpaceOnUse">
<stop stop-color="#5F94CE"/>
<stop offset="1" stop-color="#6FA1D6"/>
</linearGradient>
<linearGradient id="paint65_linear" x1="170.55" y1="214.775" x2="172.956" y2="214.782" gradientUnits="userSpaceOnUse">
<stop stop-color="#2B2477"/>
<stop offset="1" stop-color="#416DB5"/>
</linearGradient>
<linearGradient id="paint66_linear" x1="174.61" y1="215.527" x2="170.368" y2="213.456" gradientUnits="userSpaceOnUse">
<stop stop-color="#5F94CE"/>
<stop offset="1" stop-color="#6FA1D6"/>
</linearGradient>
<linearGradient id="paint67_linear" x1="203.885" y1="200.352" x2="203.884" y2="206.26" gradientUnits="userSpaceOnUse">
<stop stop-color="#313092"/>
<stop offset="1" stop-color="#6FA1D6"/>
</linearGradient>
<linearGradient id="paint68_linear" x1="203.886" y1="205.39" x2="203.884" y2="200.64" gradientUnits="userSpaceOnUse">
<stop stop-color="#3F54A5"/>
<stop offset="1" stop-color="#6FA1D6"/>
</linearGradient>
<linearGradient id="paint69_linear" x1="203.886" y1="201.54" x2="203.884" y2="205.322" gradientUnits="userSpaceOnUse">
<stop stop-color="#2B2477"/>
<stop offset="1" stop-color="#6FA1D6"/>
</linearGradient>
<linearGradient id="paint70_linear" x1="178.116" y1="210.909" x2="178.114" y2="201.375" gradientUnits="userSpaceOnUse">
<stop stop-color="#313092"/>
<stop offset="1" stop-color="#5F94CE"/>
</linearGradient>
<linearGradient id="paint71_linear" x1="178.116" y1="210.909" x2="178.115" y2="201.358" gradientUnits="userSpaceOnUse">
<stop stop-color="#3D0000"/>
<stop offset="1" stop-color="#794503"/>
</linearGradient>
<linearGradient id="paint72_linear" x1="178.116" y1="210.909" x2="178.114" y2="201.073" gradientUnits="userSpaceOnUse">
<stop stop-color="#EF4423"/>
<stop offset="1" stop-color="#C9CD2B"/>
</linearGradient>
<linearGradient id="paint73_linear" x1="181.478" y1="214.272" x2="181.477" y2="204.738" gradientUnits="userSpaceOnUse">
<stop stop-color="#313092"/>
<stop offset="1" stop-color="#5F94CE"/>
</linearGradient>
<linearGradient id="paint74_linear" x1="181.478" y1="214.271" x2="181.477" y2="204.72" gradientUnits="userSpaceOnUse">
<stop stop-color="#3D0000"/>
<stop offset="1" stop-color="#794503"/>
</linearGradient>
<linearGradient id="paint75_linear" x1="181.478" y1="214.272" x2="181.476" y2="204.436" gradientUnits="userSpaceOnUse">
<stop stop-color="#EF4423"/>
<stop offset="1" stop-color="#C9CD2B"/>
</linearGradient>
<linearGradient id="paint76_linear" x1="184.841" y1="217.634" x2="184.839" y2="208.1" gradientUnits="userSpaceOnUse">
<stop stop-color="#313092"/>
<stop offset="1" stop-color="#5F94CE"/>
</linearGradient>
<linearGradient id="paint77_linear" x1="184.841" y1="217.633" x2="184.839" y2="208.082" gradientUnits="userSpaceOnUse">
<stop stop-color="#3D0000"/>
<stop offset="1" stop-color="#794503"/>
</linearGradient>
<linearGradient id="paint78_linear" x1="184.84" y1="217.634" x2="184.839" y2="207.798" gradientUnits="userSpaceOnUse">
<stop stop-color="#EF4423"/>
<stop offset="1" stop-color="#C9CD2B"/>
</linearGradient>
<linearGradient id="paint79_linear" x1="177.743" y1="232.185" x2="177.741" y2="206.433" gradientUnits="userSpaceOnUse">
<stop stop-color="#140C4F"/>
<stop offset="1" stop-color="white"/>
</linearGradient>
<linearGradient id="paint80_linear" x1="135.449" y1="205.255" x2="162.5" y2="161.029" gradientUnits="userSpaceOnUse">
<stop stop-color="#3654A5"/>
<stop offset="1" stop-color="#5781C1"/>
</linearGradient>
<linearGradient id="paint81_linear" x1="148.972" y1="190.593" x2="149.298" y2="188.153" gradientUnits="userSpaceOnUse">
<stop stop-color="#25409A"/>
<stop offset="1" stop-color="#4768B1"/>
</linearGradient>
<linearGradient id="paint82_linear" x1="148.069" y1="176.339" x2="148.762" y2="174.943" gradientUnits="userSpaceOnUse">
<stop stop-color="#25409A"/>
<stop offset="1" stop-color="#4E72B8"/>
</linearGradient>
<linearGradient id="paint83_linear" x1="147.128" y1="181.971" x2="150.036" y2="181.969" gradientUnits="userSpaceOnUse">
<stop stop-color="#140C4F"/>
<stop offset="1" stop-color="white"/>
</linearGradient>
<clipPath id="clip0">
<rect x="61.7052" y="118.649" width="147.059" height="117.32" fill="white"/>
</clipPath>
</defs>
</svg>
