<svg width="270" height="370" viewBox="0 0 270 370" fill="none" xmlns="http://www.w3.org/2000/svg">
<g clip-path="url(#clip0)">
<path fill-rule="evenodd" clip-rule="evenodd" d="M118.289 151.489C102.506 166.635 86.7228 181.781 70.9398 196.927L66.3572 212.599L74.1518 240.178L81.171 228.299C81.6971 227.399 82.3201 226.721 83.1647 226.112L86.1136 223.952L87.0273 221.695C90.6823 219.023 94.3373 216.351 97.9923 213.679L100.734 213.264L120.324 198.935C120.919 198.492 121.418 197.993 121.418 197.259C121.418 176.34 121.418 173.765 121.418 152.846C121.404 151.198 119.465 150.367 118.289 151.489Z" fill="url(#paint0_linear)"/>
<path fill-rule="evenodd" clip-rule="evenodd" d="M118.289 151.489C102.506 166.635 86.7227 181.781 70.9397 196.927L66.3571 212.599L74.1517 240.178L81.171 228.299C81.6971 227.399 82.3201 226.721 83.1646 226.112L86.1136 223.952L87.0273 221.695C90.6823 219.023 94.3373 216.351 97.9923 213.679L100.734 213.264L120.324 198.935C120.919 198.492 121.418 197.993 121.418 197.259C121.418 176.34 121.418 173.765 121.418 152.846C121.404 151.198 119.465 150.367 118.289 151.489ZM69.9291 195.875L117.278 150.437C117.943 149.8 118.759 149.509 119.549 149.509C119.992 149.509 120.435 149.606 120.85 149.786C121.265 149.966 121.639 150.215 121.944 150.547C122.497 151.129 122.857 151.904 122.857 152.832V197.246C122.857 197.966 122.622 198.547 122.262 199.059C121.958 199.475 121.584 199.807 121.168 200.111L101.647 214.372C101.454 214.538 101.204 214.648 100.927 214.69L98.5323 215.05L88.2041 222.609L87.4565 224.478C87.3596 224.727 87.1934 224.949 86.9581 225.115L84.0092 227.275C83.663 227.524 83.3723 227.787 83.1231 228.064C82.8739 228.341 82.6385 228.659 82.4309 229.033L75.4116 240.912C75.2316 241.23 74.927 241.466 74.5394 241.576C73.7641 241.798 72.9472 241.341 72.7257 240.566L64.945 212.987C64.8758 212.738 64.8758 212.461 64.945 212.184L69.5137 196.567C69.583 196.318 69.7214 196.069 69.9291 195.875Z" fill="black"/>
<path fill-rule="evenodd" clip-rule="evenodd" d="M70.9398 196.927L66.3572 212.599L74.1379 240.164L81.1572 228.286L70.9398 196.927Z" fill="url(#paint1_linear)"/>
<path fill-rule="evenodd" clip-rule="evenodd" d="M93.5067 175.357L91.6653 177.115L111.006 192.774V205.705L113.582 203.822V191.542L93.5067 175.357ZM86.3212 182.252L105.081 196.858V210.052L102.506 211.935V198.118L84.3691 184.135L86.3212 182.252Z" fill="url(#paint2_linear)"/>
<path opacity="0.5" fill-rule="evenodd" clip-rule="evenodd" d="M79.7312 223.883C79.6066 226.707 77.3776 234.626 74.1517 240.164C76.4915 236.205 78.8312 232.245 81.171 228.285C81.6971 227.386 82.3201 226.707 83.1646 226.098C84.1476 225.378 85.1306 224.658 86.1136 223.938C86.4182 223.191 86.7227 222.429 87.0273 221.682C90.6823 219.009 94.3373 216.337 97.9923 213.665C98.9061 213.527 99.8198 213.389 100.734 213.25C121.667 197.938 103.641 211.118 120.324 198.921C120.919 198.478 121.418 197.979 121.418 197.246C121.418 194.311 121.418 188.136 121.418 185.201C120.628 194.795 104.749 211.547 97.757 210.537C93.3682 213.873 89.0071 216.974 85.2829 219.716C84.0784 222.997 82.3478 224.713 79.7312 223.883Z" fill="url(#paint3_linear)"/>
<path opacity="0.5" fill-rule="evenodd" clip-rule="evenodd" d="M118.289 151.489C102.506 166.635 86.7228 181.781 70.9398 196.927L66.3572 212.599L67.4094 216.337L70.9398 204.279C86.7228 189.133 102.506 173.986 118.289 158.84C119.452 157.719 121.39 158.55 121.39 160.169V152.832C121.404 151.198 119.466 150.367 118.289 151.489Z" fill="url(#paint4_linear)"/>
<path fill-rule="evenodd" clip-rule="evenodd" d="M76.7546 207.145L77.5576 206.882C77.8899 206.771 78.2498 206.951 78.3606 207.283L82.1679 218.663C82.2786 218.996 82.0987 219.356 81.7664 219.466L80.9634 219.729C80.6311 219.84 80.2712 219.66 80.1604 219.328L76.3531 207.948C76.2424 207.615 76.4223 207.255 76.7546 207.145Z" fill="#00045D"/>
<path fill-rule="evenodd" clip-rule="evenodd" d="M76.8515 207.422L77.6545 207.158C77.8344 207.103 78.0144 207.2 78.0836 207.366L81.8909 218.747C81.9463 218.926 81.8494 219.106 81.6833 219.176L80.8803 219.439C80.7003 219.494 80.5203 219.397 80.4511 219.231L76.6438 207.851C76.5884 207.671 76.6715 207.491 76.8515 207.422Z" fill="url(#paint5_linear)"/>
<path fill-rule="evenodd" clip-rule="evenodd" d="M77.1146 207.934L77.7376 207.726C77.8761 207.685 78.0284 207.754 78.0699 207.892L81.5726 218.359C81.6142 218.497 81.5449 218.65 81.4065 218.691L80.7835 218.899C80.645 218.94 80.4927 218.871 80.4512 218.733L76.9485 208.266C76.907 208.128 76.9762 207.975 77.1146 207.934Z" fill="url(#paint6_linear)"/>
<path fill-rule="evenodd" clip-rule="evenodd" d="M77.3777 208.224L77.7238 208.114C77.793 208.086 77.8761 208.127 77.9038 208.211L81.2542 218.206C81.2819 218.276 81.2404 218.359 81.1573 218.386L80.8112 218.497C80.7419 218.525 80.6589 218.483 80.6312 218.4L77.2808 208.404C77.2531 208.335 77.2946 208.252 77.3777 208.224Z" fill="url(#paint7_linear)"/>
<path fill-rule="evenodd" clip-rule="evenodd" d="M78.5959 205.303L79.3989 205.04C79.7312 204.929 80.0911 205.109 80.2019 205.442L84.0092 216.822C84.12 217.154 83.94 217.514 83.6077 217.625L82.8047 217.888C82.4724 217.999 82.1125 217.819 82.0017 217.487L78.1944 206.106C78.0837 205.774 78.2636 205.414 78.5959 205.303Z" fill="#00045D"/>
<path fill-rule="evenodd" clip-rule="evenodd" d="M78.6929 205.594L79.4959 205.331C79.6759 205.275 79.8558 205.372 79.9251 205.539L83.7324 216.919C83.7877 217.099 83.6908 217.279 83.5247 217.348L82.7217 217.611C82.5417 217.666 82.3479 217.57 82.2925 217.403L78.4852 206.023C78.416 205.843 78.5129 205.649 78.6929 205.594Z" fill="url(#paint8_linear)"/>
<path fill-rule="evenodd" clip-rule="evenodd" d="M78.9559 206.092L79.579 205.885C79.7174 205.843 79.8697 205.912 79.9112 206.051L83.4139 216.517C83.4555 216.656 83.3863 216.808 83.2478 216.85L82.6248 217.057C82.4863 217.099 82.3341 217.03 82.2925 216.891L78.7898 206.424C78.7344 206.286 78.8175 206.134 78.9559 206.092Z" fill="url(#paint9_linear)"/>
<path fill-rule="evenodd" clip-rule="evenodd" d="M79.205 206.397L79.5512 206.286C79.6204 206.258 79.7034 206.3 79.7311 206.383L83.0816 216.379C83.1092 216.448 83.0677 216.531 82.9846 216.559L82.6385 216.67C82.5693 216.697 82.4862 216.656 82.4585 216.573L79.1081 206.577C79.0943 206.494 79.1358 206.411 79.205 206.397Z" fill="url(#paint10_linear)"/>
<path fill-rule="evenodd" clip-rule="evenodd" d="M69.2646 202.687C69.14 202.299 69.4307 202.008 69.4446 202.064L74.1933 216.628C74.2071 216.67 74.2071 216.711 74.1933 216.753L72.6288 222.097C72.6012 222.194 72.5042 222.249 72.4073 222.221C72.3519 222.208 72.2966 222.152 72.2827 222.097L67.6863 208.031C67.6309 207.878 67.8663 207.408 67.8801 207.421L72.4489 221.432L73.8333 216.697L69.2646 202.687Z" fill="#00045D"/>
<path fill-rule="evenodd" clip-rule="evenodd" d="M84.5768 214.815L94.2127 207.449L97.9785 213.665L87.0135 221.682L84.5768 214.815Z" fill="url(#paint11_linear)"/>
<path fill-rule="evenodd" clip-rule="evenodd" d="M84.5768 214.814L86.0997 223.938L87.0135 221.681L84.5768 214.814Z" fill="#1D41B3"/>
<path fill-rule="evenodd" clip-rule="evenodd" d="M94.2128 207.449L100.72 213.236L97.9785 213.665L94.2128 207.449Z" fill="#1D41B3"/>
<path fill-rule="evenodd" clip-rule="evenodd" d="M86.2797 223.91C86.2936 224.007 86.2243 224.104 86.1274 224.118C86.0305 224.132 85.9336 224.063 85.9198 223.966L84.3968 214.856C84.383 214.787 84.4107 214.718 84.4661 214.676L94.0881 207.311C94.1574 207.255 94.2543 207.269 94.3235 207.324L100.831 213.112C100.9 213.181 100.914 213.292 100.844 213.375C100.775 213.444 100.664 213.458 100.581 213.388L94.1851 207.698L84.7568 214.911L86.2797 223.91Z" fill="#00045D"/>
<path fill-rule="evenodd" clip-rule="evenodd" d="M70.7737 196.983C70.746 196.886 70.8014 196.789 70.8844 196.747C70.9814 196.72 71.0783 196.775 71.1198 196.858L74.664 207.726L121.279 165.874C121.348 165.804 121.473 165.818 121.542 165.887C121.611 165.957 121.598 166.081 121.528 166.15L74.7056 208.197C74.6917 208.211 74.664 208.238 74.6364 208.238C74.5394 208.266 74.4425 208.211 74.401 208.128L70.7737 196.983Z" fill="#00045D"/>
<path fill-rule="evenodd" clip-rule="evenodd" d="M80.9495 191.417L84.9783 187.665C85.1306 187.527 85.366 187.54 85.4906 187.679L87.9965 190.365C88.1349 190.517 88.1211 190.752 87.9826 190.877L83.9538 194.629C83.8015 194.767 83.5662 194.754 83.4416 194.615L80.9357 191.929C80.7972 191.791 80.7972 191.555 80.9495 191.417Z" fill="#00045D"/>
<path fill-rule="evenodd" clip-rule="evenodd" d="M80.9357 191.943L84.9645 188.191L87.4704 190.877L83.4277 194.629L80.9357 191.943Z" fill="url(#paint12_linear)"/>
<path fill-rule="evenodd" clip-rule="evenodd" d="M72.4765 233.962C72.4212 234.045 72.3104 234.073 72.2273 234.031C72.1443 233.976 72.1166 233.865 72.1581 233.782L78.8728 221.682C78.8867 221.654 78.9005 221.64 78.9282 221.626L84.7568 217.542C84.8399 217.487 84.9506 217.5 85.006 217.584C85.0614 217.667 85.0476 217.777 84.9645 217.833L79.1635 221.903L72.4765 233.962Z" fill="#00045D"/>
<path fill-rule="evenodd" clip-rule="evenodd" d="M114.98 154.493C114.98 154.396 115.063 154.313 115.16 154.313C115.257 154.313 115.34 154.396 115.34 154.493V202.756C115.34 202.853 115.257 202.936 115.16 202.936C115.063 202.936 114.98 202.853 114.98 202.756V154.493Z" fill="#00045D"/>
<path fill-rule="evenodd" clip-rule="evenodd" d="M110.563 164.337H121.404V185.035H110.563C104.873 185.035 100.221 180.383 100.221 174.693C100.221 168.975 104.845 164.337 110.563 164.337Z" fill="#00045D"/>
<path fill-rule="evenodd" clip-rule="evenodd" d="M110.563 164.655C105.025 164.655 100.54 169.141 100.54 174.679C100.54 180.216 105.025 184.702 110.563 184.702H121.404V164.655H110.563Z" fill="url(#paint13_linear)"/>
<path fill-rule="evenodd" clip-rule="evenodd" d="M110.605 165.527C105.552 165.527 101.453 169.625 101.453 174.679C101.453 179.732 105.552 183.83 110.605 183.83H121.404V165.527H110.605Z" fill="url(#paint14_linear)"/>
<path fill-rule="evenodd" clip-rule="evenodd" d="M104.084 172.768C105.136 172.768 105.995 173.626 105.995 174.679C105.995 175.731 105.136 176.589 104.084 176.589C103.032 176.589 102.173 175.731 102.173 174.679C102.16 173.626 103.018 172.768 104.084 172.768Z" fill="#00045D"/>
<path fill-rule="evenodd" clip-rule="evenodd" d="M104.084 173.128C104.942 173.128 105.648 173.834 105.648 174.693C105.648 175.551 104.942 176.257 104.084 176.257C103.226 176.257 102.52 175.551 102.52 174.693C102.52 173.82 103.212 173.128 104.084 173.128Z" fill="url(#paint15_linear)"/>
<path fill-rule="evenodd" clip-rule="evenodd" d="M104.084 173.35C104.818 173.35 105.427 173.945 105.427 174.693C105.427 175.426 104.832 176.035 104.084 176.035C103.35 176.035 102.741 175.44 102.741 174.693C102.741 173.945 103.336 173.35 104.084 173.35Z" fill="url(#paint16_linear)"/>
<path d="M104.084 175.8C104.696 175.8 105.191 175.304 105.191 174.693C105.191 174.081 104.696 173.585 104.084 173.585C103.472 173.585 102.976 174.081 102.976 174.693C102.976 175.304 103.472 175.8 104.084 175.8Z" fill="url(#paint17_radial)"/>
<path opacity="0.5" fill-rule="evenodd" clip-rule="evenodd" d="M104.084 173.35C104.139 174.194 104.832 174.679 105.427 174.693C105.427 175.426 104.832 176.035 104.084 176.035C103.959 173.654 103.17 173.806 102.741 174.693C102.741 173.945 103.336 173.35 104.084 173.35Z" fill="url(#paint18_linear)"/>
<path d="M114.62 180.313C117.724 180.313 120.241 177.797 120.241 174.692C120.241 171.588 117.724 169.072 114.62 169.072C111.515 169.072 108.999 171.588 108.999 174.692C108.999 177.797 111.515 180.313 114.62 180.313Z" fill="url(#paint19_linear)"/>
<path fill-rule="evenodd" clip-rule="evenodd" d="M114.62 170.027C117.195 170.027 119.272 172.117 119.272 174.679C119.272 177.254 117.181 179.331 114.62 179.331C112.045 179.331 109.968 177.24 109.968 174.679C109.968 172.117 112.045 170.027 114.62 170.027Z" fill="#00045D"/>
<path fill-rule="evenodd" clip-rule="evenodd" d="M108.999 174.872V174.499H110.965V174.872H108.999ZM118.732 178.541L118.469 178.804L117.07 177.406L117.333 177.143L118.732 178.541ZM112.169 171.979L111.906 172.242L110.508 170.844L110.771 170.581L112.169 171.979ZM114.8 180.313H114.426V178.347H114.8V180.313ZM114.8 171.037H114.426V169.072H114.8V171.037ZM110.771 178.791L110.508 178.527L111.906 177.129L112.169 177.392L110.771 178.791ZM117.333 172.242L117.07 171.979L118.469 170.581L118.732 170.844L117.333 172.242ZM118.275 174.872V174.499H120.241V174.872H118.275Z" fill="url(#paint20_linear)"/>
<path d="M114.62 178.666C116.814 178.666 118.593 176.887 118.593 174.693C118.593 172.498 116.814 170.719 114.62 170.719C112.425 170.719 110.646 172.498 110.646 174.693C110.646 176.887 112.425 178.666 114.62 178.666Z" fill="url(#paint21_linear)"/>
<path d="M114.62 178.209C116.562 178.209 118.136 176.635 118.136 174.693C118.136 172.75 116.562 171.176 114.62 171.176C112.678 171.176 111.103 172.75 111.103 174.693C111.103 176.635 112.678 178.209 114.62 178.209Z" fill="url(#paint22_linear)"/>
<path opacity="0.5" fill-rule="evenodd" clip-rule="evenodd" d="M118.289 151.489L110.383 159.076L115.34 180.258C115.506 180.978 111.006 193.798 110.411 194.227C99.0168 202.562 84.7152 212.585 76.4222 213.735C78.6789 220.657 75.5361 245.633 68.4753 220.089L74.1378 240.15L81.1571 228.272C81.6832 227.372 82.3062 226.693 83.1507 226.084L86.0997 223.924L87.0134 221.668C90.6684 218.996 94.3234 216.324 97.9784 213.652L100.72 213.236L120.31 198.907C120.905 198.464 121.404 197.965 121.404 197.232C121.404 176.312 121.404 173.737 121.404 152.818C121.404 151.198 119.465 150.367 118.289 151.489Z" fill="url(#paint23_linear)"/>
<path fill-rule="evenodd" clip-rule="evenodd" d="M124.45 141.521C123.024 142.393 121.598 143.265 120.158 144.137C119.756 144.387 119.424 144.968 119.424 145.425C119.424 153.275 119.424 161.111 119.424 168.961C119.424 170.484 121.265 170.899 121.265 172.422C121.265 175.482 121.265 178.541 121.265 181.601C121.265 183.124 119.424 185.782 119.424 187.305C119.424 195.197 119.424 203.088 119.424 210.98C119.424 211.437 119.756 211.617 120.158 211.367C121.584 210.495 123.01 209.623 124.45 208.751C124.851 208.501 125.183 207.92 125.183 207.463C125.183 185.602 125.183 163.755 125.183 141.894C125.183 141.451 124.851 141.271 124.45 141.521Z" fill="url(#paint24_linear)"/>
<path fill-rule="evenodd" clip-rule="evenodd" d="M119.424 145.439C119.424 153.289 119.424 161.125 119.424 168.975C119.424 170.498 121.265 170.913 121.265 172.436C121.265 175.496 121.265 178.555 121.265 181.615C121.265 183.138 119.424 185.796 119.424 187.319C119.424 195.21 119.424 203.102 119.424 210.993C119.424 211.45 119.756 211.63 120.158 211.381C121.584 210.509 123.01 209.637 124.45 208.764C124.851 208.515 125.183 207.934 125.183 207.477C125.183 185.616 125.183 163.769 125.183 141.908C125.183 141.451 124.851 141.271 124.45 141.521C123.024 142.393 121.598 143.265 120.158 144.137C119.756 144.387 119.424 144.968 119.424 145.439ZM119.396 142.891L123.688 140.275C124.048 140.053 124.436 139.942 124.796 139.942C125.114 139.942 125.405 140.025 125.682 140.178C125.903 140.302 126.083 140.455 126.249 140.662C126.291 140.704 126.319 140.759 126.36 140.815C126.554 141.119 126.651 141.493 126.651 141.908V207.477C126.651 207.961 126.499 208.488 126.236 208.931C125.986 209.374 125.626 209.761 125.211 210.024L120.919 212.641C120.559 212.863 120.172 212.973 119.812 212.973C119.493 212.973 119.202 212.89 118.926 212.738C118.704 212.613 118.524 212.461 118.372 212.253C118.33 212.198 118.289 212.156 118.261 212.087C118.067 211.783 117.97 211.409 117.97 210.993V187.319C117.97 186.253 118.496 185.062 119.009 183.886C119.41 182.986 119.798 182.086 119.798 181.615V172.436C119.798 172.256 119.549 171.979 119.286 171.716C118.621 171.024 117.956 170.318 117.956 168.975V145.439C117.956 144.954 118.109 144.428 118.372 143.985C118.621 143.542 118.981 143.154 119.396 142.891Z" fill="black"/>
<path fill-rule="evenodd" clip-rule="evenodd" d="M120.933 143.667C120.67 143.819 120.421 143.985 120.158 144.137C119.756 144.387 119.424 144.968 119.424 145.425C119.424 153.275 119.424 161.111 119.424 168.961C119.424 170.484 121.265 170.899 121.265 172.422C121.265 175.482 121.265 178.541 121.265 181.601C121.265 183.124 119.424 185.782 119.424 187.305C119.424 195.197 119.424 203.088 119.424 210.98C119.424 211.437 119.756 211.617 120.158 211.367C120.421 211.201 120.684 211.035 120.961 210.883C119.881 210.26 119.839 187.817 120.988 186.031C120.988 184.467 122.83 183.844 122.83 182.28C122.041 181.449 121.847 172.45 122.774 171.245C122.774 169.681 120.933 169.266 120.933 167.701C119.895 167.41 120.047 145.453 120.933 143.667Z" fill="#5CA4FF"/>
<path fill-rule="evenodd" clip-rule="evenodd" d="M125.183 207.477C125.183 207.934 124.851 208.515 124.45 208.765C123.024 209.637 121.598 210.509 120.158 211.381C119.756 211.63 119.424 211.45 119.424 210.994C119.424 209.166 125.183 206.162 125.183 207.477Z" fill="#1D41B3"/>
<path fill-rule="evenodd" clip-rule="evenodd" d="M125.183 178.708C125.183 180.438 125.183 182.169 125.183 183.899C124.394 183.941 120.933 185.229 119.424 187.333C119.424 185.81 121.265 183.152 121.265 181.629C121.93 183.941 124.505 181.338 125.183 178.708Z" fill="url(#paint25_linear)"/>
<path fill-rule="evenodd" clip-rule="evenodd" d="M125.183 170.193C125.183 168.85 125.183 167.493 125.183 166.15C123.273 166.15 119.756 168.698 119.549 169.612C119.95 170.664 121.265 171.148 121.265 172.436C123.093 171.024 124.297 170.733 125.183 170.193Z" fill="url(#paint26_linear)"/>
<path fill-rule="evenodd" clip-rule="evenodd" d="M125.183 141.908C125.183 141.451 124.851 141.271 124.45 141.521C123.024 142.393 121.598 143.265 120.158 144.137C119.756 144.387 119.424 144.968 119.424 145.425C120.13 144.29 124.173 142.019 125.183 141.908Z" fill="#71AFFF"/>
<path fill-rule="evenodd" clip-rule="evenodd" d="M119.465 148.831C119.299 148.969 119.147 148.595 119.327 148.457L121.002 147.155C121.39 146.851 121.819 147.031 121.819 147.723V156.418C121.819 156.985 121.501 157.636 121.154 157.899L119.479 159.2C119.313 159.339 119.161 158.965 119.341 158.827L121.016 157.525C121.265 157.331 121.528 156.833 121.528 156.404V147.723C121.528 147.377 121.348 147.391 121.154 147.529L119.465 148.831Z" fill="#00045D"/>
<path fill-rule="evenodd" clip-rule="evenodd" d="M119.465 192.885C119.299 193.023 119.147 192.649 119.327 192.511L121.002 191.209C121.39 190.905 121.819 191.085 121.819 191.777V200.472C121.819 201.039 121.501 201.69 121.154 201.953L119.479 203.254C119.313 203.393 119.161 203.019 119.341 202.88L121.016 201.579C121.265 201.385 121.528 200.887 121.528 200.458V191.763C121.528 191.417 121.348 191.431 121.154 191.569L119.465 192.885Z" fill="#00045D"/>
<path fill-rule="evenodd" clip-rule="evenodd" d="M152.18 151.489C167.963 166.635 183.746 181.781 199.529 196.927L204.126 212.599L196.331 240.178L189.312 228.299C188.786 227.399 188.163 226.721 187.318 226.112L184.369 223.952L183.456 221.695C179.801 219.023 176.146 216.351 172.491 213.679L169.749 213.264L150.159 198.907C149.564 198.464 149.065 197.966 149.065 197.232C149.065 176.312 149.065 173.737 149.065 152.818C149.079 151.198 151.018 150.367 152.18 151.489Z" fill="url(#paint27_linear)"/>
<path fill-rule="evenodd" clip-rule="evenodd" d="M153.191 150.437L200.54 195.875C200.748 196.069 200.886 196.318 200.942 196.581L205.51 212.198C205.593 212.475 205.58 212.752 205.51 213.001L197.716 240.58C197.494 241.355 196.691 241.812 195.902 241.59C195.528 241.48 195.224 241.244 195.03 240.926L188.011 229.047C187.789 228.673 187.568 228.355 187.318 228.078C187.069 227.801 186.778 227.538 186.432 227.289L183.511 225.115C183.276 224.949 183.11 224.727 183.013 224.478L182.265 222.609L171.937 215.05L169.542 214.69C169.265 214.648 169.029 214.538 168.822 214.372L149.301 200.084C148.899 199.779 148.512 199.461 148.207 199.032C147.833 198.519 147.612 197.938 147.612 197.218V152.818C147.612 151.904 147.972 151.115 148.525 150.534C148.844 150.215 149.218 149.952 149.619 149.772C150.035 149.592 150.478 149.495 150.921 149.495C151.724 149.509 152.527 149.786 153.191 150.437ZM152.18 151.489C167.963 166.635 183.746 181.781 199.529 196.927L204.126 212.599L196.331 240.178L189.312 228.299C188.786 227.399 188.163 226.721 187.318 226.112L184.369 223.952L183.456 221.695C179.801 219.023 176.146 216.351 172.491 213.679L169.749 213.264L150.159 198.907C149.564 198.464 149.065 197.966 149.065 197.232C149.065 176.312 149.065 173.737 149.065 152.818C149.079 151.198 151.017 150.367 152.18 151.489Z" fill="black"/>
<path fill-rule="evenodd" clip-rule="evenodd" d="M199.529 196.927L204.126 212.599L196.331 240.164L189.312 228.286L199.529 196.927Z" fill="url(#paint28_linear)"/>
<path fill-rule="evenodd" clip-rule="evenodd" d="M176.962 175.357L178.804 177.115L159.463 192.774V205.705L156.888 203.822V191.542L176.962 175.357ZM184.162 182.252L165.402 196.858V210.052L167.977 211.935V198.118L186.114 184.135L184.162 182.252Z" fill="url(#paint29_linear)"/>
<path opacity="0.5" fill-rule="evenodd" clip-rule="evenodd" d="M190.752 223.883C190.876 226.707 193.105 234.626 196.331 240.164C193.992 236.205 191.652 232.245 189.312 228.285C188.786 227.386 188.163 226.707 187.318 226.098C186.335 225.378 185.352 224.658 184.369 223.938C184.065 223.191 183.76 222.429 183.456 221.682C179.801 219.009 176.146 216.337 172.491 213.665C171.577 213.527 170.663 213.389 169.749 213.25C148.816 197.938 166.842 211.118 150.159 198.921C149.564 198.478 149.065 197.979 149.065 197.246C149.065 194.311 149.065 188.136 149.065 185.201C149.855 194.795 165.734 211.547 172.726 210.537C177.115 213.873 181.476 216.974 185.2 219.716C186.405 222.997 188.121 224.713 190.752 223.883Z" fill="url(#paint30_linear)"/>
<path opacity="0.5" fill-rule="evenodd" clip-rule="evenodd" d="M152.18 151.489C167.963 166.635 183.746 181.781 199.529 196.927L204.126 212.599L203.074 216.337L199.543 204.279C183.76 189.133 167.977 173.986 152.194 158.84C151.031 157.719 149.093 158.55 149.093 160.169V152.832C149.079 151.198 151.018 150.367 152.18 151.489Z" fill="url(#paint31_linear)"/>
<path fill-rule="evenodd" clip-rule="evenodd" d="M193.715 207.145L192.912 206.882C192.579 206.771 192.219 206.951 192.109 207.283L188.301 218.663C188.191 218.996 188.371 219.356 188.703 219.466L189.506 219.729C189.838 219.84 190.198 219.66 190.309 219.328L194.116 207.948C194.241 207.615 194.047 207.255 193.715 207.145Z" fill="#00045D"/>
<path fill-rule="evenodd" clip-rule="evenodd" d="M193.618 207.422L192.815 207.158C192.635 207.103 192.455 207.2 192.386 207.366L188.592 218.746C188.537 218.926 188.634 219.106 188.8 219.176L189.603 219.439C189.783 219.494 189.963 219.397 190.032 219.231L193.839 207.851C193.895 207.671 193.798 207.491 193.618 207.422Z" fill="url(#paint32_linear)"/>
<path fill-rule="evenodd" clip-rule="evenodd" d="M193.355 207.934L192.732 207.726C192.593 207.685 192.441 207.754 192.399 207.892L188.897 218.359C188.855 218.497 188.924 218.65 189.063 218.691L189.686 218.899C189.824 218.94 189.977 218.871 190.018 218.733L193.521 208.266C193.576 208.128 193.493 207.975 193.355 207.934Z" fill="url(#paint33_linear)"/>
<path fill-rule="evenodd" clip-rule="evenodd" d="M193.106 208.225L192.759 208.114C192.69 208.086 192.607 208.128 192.579 208.211L189.229 218.193C189.201 218.262 189.243 218.345 189.326 218.373L189.672 218.483C189.741 218.511 189.824 218.47 189.852 218.387L193.202 208.391C193.216 208.335 193.175 208.252 193.106 208.225Z" fill="url(#paint34_linear)"/>
<path fill-rule="evenodd" clip-rule="evenodd" d="M191.887 205.303L191.084 205.04C190.752 204.929 190.392 205.109 190.281 205.442L186.474 216.822C186.363 217.154 186.543 217.514 186.875 217.625L187.678 217.888C188.011 217.999 188.371 217.819 188.481 217.487L192.289 206.106C192.399 205.774 192.219 205.414 191.887 205.303Z" fill="#00045D"/>
<path fill-rule="evenodd" clip-rule="evenodd" d="M191.79 205.594L190.987 205.331C190.807 205.276 190.627 205.372 190.558 205.539L186.751 216.919C186.695 217.099 186.792 217.279 186.958 217.348L187.761 217.611C187.941 217.667 188.135 217.57 188.191 217.404L191.998 206.023C192.053 205.843 191.956 205.649 191.79 205.594Z" fill="url(#paint35_linear)"/>
<path fill-rule="evenodd" clip-rule="evenodd" d="M191.527 206.092L190.904 205.885C190.766 205.843 190.613 205.912 190.572 206.051L187.069 216.518C187.028 216.656 187.097 216.808 187.235 216.85L187.858 217.057C187.997 217.099 188.149 217.03 188.191 216.891L191.693 206.425C191.735 206.286 191.666 206.134 191.527 206.092Z" fill="url(#paint36_linear)"/>
<path fill-rule="evenodd" clip-rule="evenodd" d="M191.264 206.397L190.918 206.286C190.849 206.259 190.766 206.3 190.738 206.383L187.388 216.379C187.36 216.448 187.401 216.531 187.484 216.559L187.831 216.67C187.9 216.697 187.983 216.656 188.011 216.573L191.361 206.577C191.389 206.494 191.347 206.411 191.264 206.397Z" fill="url(#paint37_linear)"/>
<path fill-rule="evenodd" clip-rule="evenodd" d="M201.218 202.687C201.343 202.299 201.052 202.008 201.038 202.064L196.29 216.628C196.276 216.67 196.276 216.711 196.29 216.753L197.854 222.097C197.882 222.194 197.979 222.249 198.076 222.222C198.131 222.208 198.186 222.152 198.2 222.097L202.783 208.031C202.838 207.878 202.603 207.408 202.589 207.422L198.02 221.432L196.636 216.698L201.218 202.687Z" fill="#00045D"/>
<path fill-rule="evenodd" clip-rule="evenodd" d="M185.906 214.815L176.27 207.449L172.505 213.665L183.47 221.682L185.906 214.815Z" fill="url(#paint38_linear)"/>
<path fill-rule="evenodd" clip-rule="evenodd" d="M185.906 214.815L184.383 223.938L183.47 221.682L185.906 214.815Z" fill="#1D41B3"/>
<path fill-rule="evenodd" clip-rule="evenodd" d="M176.27 207.449L169.763 213.236L172.504 213.665L176.27 207.449Z" fill="#1D41B3"/>
<path fill-rule="evenodd" clip-rule="evenodd" d="M184.203 223.911C184.189 224.007 184.259 224.104 184.356 224.118C184.452 224.132 184.549 224.063 184.563 223.966L186.086 214.856C186.1 214.787 186.072 214.718 186.017 214.676L176.395 207.311C176.326 207.255 176.229 207.269 176.16 207.325L169.652 213.112C169.583 213.181 169.569 213.292 169.639 213.375C169.708 213.458 169.819 213.458 169.902 213.389L176.298 207.698L185.726 214.912L184.203 223.911Z" fill="#00045D"/>
<path fill-rule="evenodd" clip-rule="evenodd" d="M199.709 196.983C199.737 196.886 199.682 196.789 199.599 196.747C199.502 196.72 199.405 196.775 199.363 196.858L195.819 207.726L149.204 165.887C149.135 165.818 149.01 165.832 148.941 165.901C148.872 165.97 148.885 166.095 148.955 166.164L195.777 208.197C195.791 208.211 195.819 208.238 195.847 208.238C195.944 208.266 196.04 208.211 196.082 208.128L199.709 196.983Z" fill="#00045D"/>
<path fill-rule="evenodd" clip-rule="evenodd" d="M189.534 191.417L185.505 187.665C185.352 187.527 185.117 187.541 184.992 187.679L182.487 190.365C182.348 190.517 182.362 190.753 182.5 190.877L186.529 194.629C186.682 194.768 186.917 194.754 187.041 194.615L189.547 191.929C189.686 191.791 189.672 191.556 189.534 191.417Z" fill="#00045D"/>
<path fill-rule="evenodd" clip-rule="evenodd" d="M189.547 191.943L185.519 188.191L183.013 190.877L187.042 194.629L189.547 191.943Z" fill="url(#paint39_linear)"/>
<path fill-rule="evenodd" clip-rule="evenodd" d="M197.993 233.962C198.048 234.045 198.159 234.073 198.242 234.031C198.325 233.976 198.352 233.865 198.311 233.782L191.596 221.682C191.582 221.654 191.569 221.64 191.541 221.626L185.712 217.542C185.629 217.487 185.518 217.5 185.463 217.584C185.408 217.667 185.422 217.777 185.505 217.833L191.306 221.903L197.993 233.962Z" fill="#00045D"/>
<path fill-rule="evenodd" clip-rule="evenodd" d="M155.503 154.493C155.503 154.396 155.42 154.313 155.323 154.313C155.226 154.313 155.143 154.396 155.143 154.493V202.756C155.143 202.853 155.226 202.936 155.323 202.936C155.42 202.936 155.503 202.853 155.503 202.756V154.493Z" fill="#00045D"/>
<path fill-rule="evenodd" clip-rule="evenodd" d="M159.906 164.337H149.065V185.035H159.906C165.596 185.035 170.248 180.383 170.248 174.693C170.262 168.975 165.624 164.337 159.906 164.337Z" fill="#00045D"/>
<path fill-rule="evenodd" clip-rule="evenodd" d="M159.906 164.655C165.444 164.655 169.929 169.141 169.929 174.679C169.929 180.217 165.444 184.702 159.906 184.702H149.065V164.655H159.906Z" fill="url(#paint40_linear)"/>
<path fill-rule="evenodd" clip-rule="evenodd" d="M159.878 165.527C164.931 165.527 169.029 169.626 169.029 174.679C169.029 179.732 164.931 183.83 159.878 183.83H149.079V165.527H159.878Z" fill="url(#paint41_linear)"/>
<path fill-rule="evenodd" clip-rule="evenodd" d="M166.399 172.768C165.347 172.768 164.488 173.627 164.488 174.679C164.488 175.731 165.347 176.589 166.399 176.589C167.451 176.589 168.31 175.731 168.31 174.679C168.31 173.627 167.451 172.768 166.399 172.768Z" fill="#00045D"/>
<path fill-rule="evenodd" clip-rule="evenodd" d="M166.399 173.128C165.541 173.128 164.834 173.834 164.834 174.693C164.834 175.551 165.541 176.257 166.399 176.257C167.257 176.257 167.963 175.551 167.963 174.693C167.963 173.82 167.257 173.128 166.399 173.128Z" fill="url(#paint42_linear)"/>
<path fill-rule="evenodd" clip-rule="evenodd" d="M166.399 173.35C165.665 173.35 165.056 173.945 165.056 174.693C165.056 175.427 165.651 176.036 166.399 176.036C167.133 176.036 167.742 175.44 167.742 174.693C167.728 173.945 167.133 173.35 166.399 173.35Z" fill="url(#paint43_linear)"/>
<path d="M166.399 175.8C167.011 175.8 167.507 175.304 167.507 174.693C167.507 174.081 167.011 173.585 166.399 173.585C165.787 173.585 165.291 174.081 165.291 174.693C165.291 175.304 165.787 175.8 166.399 175.8Z" fill="url(#paint44_radial)"/>
<path opacity="0.5" fill-rule="evenodd" clip-rule="evenodd" d="M166.399 173.35C166.344 174.194 165.651 174.679 165.056 174.693C165.056 175.427 165.651 176.036 166.399 176.036C166.524 173.654 167.313 173.807 167.742 174.693C167.728 173.945 167.133 173.35 166.399 173.35Z" fill="url(#paint45_linear)"/>
<path d="M155.863 180.314C158.968 180.314 161.484 177.797 161.484 174.693C161.484 171.588 158.968 169.072 155.863 169.072C152.759 169.072 150.242 171.588 150.242 174.693C150.242 177.797 152.759 180.314 155.863 180.314Z" fill="url(#paint46_linear)"/>
<path fill-rule="evenodd" clip-rule="evenodd" d="M155.863 170.027C153.288 170.027 151.211 172.118 151.211 174.679C151.211 177.254 153.302 179.331 155.863 179.331C158.438 179.331 160.515 177.24 160.515 174.679C160.515 172.118 158.425 170.027 155.863 170.027Z" fill="#00045D"/>
<path fill-rule="evenodd" clip-rule="evenodd" d="M161.484 174.873V174.499H159.518V174.873H161.484ZM151.751 178.541L152.014 178.804L153.413 177.406L153.15 177.143L151.751 178.541ZM158.314 171.979L158.577 172.242L159.975 170.844L159.712 170.581L158.314 171.979ZM155.669 180.314H156.043V178.348H155.669V180.314ZM155.669 171.038H156.043V169.072H155.669V171.038ZM159.698 178.791L159.961 178.528L158.563 177.129L158.3 177.392L159.698 178.791ZM153.136 172.242L153.399 171.979L152.001 170.581L151.738 170.844L153.136 172.242ZM152.208 174.873V174.499H150.242V174.873H152.208Z" fill="url(#paint47_linear)"/>
<path d="M155.863 178.666C158.058 178.666 159.837 176.887 159.837 174.693C159.837 172.498 158.058 170.719 155.863 170.719C153.669 170.719 151.89 172.498 151.89 174.693C151.89 176.887 153.669 178.666 155.863 178.666Z" fill="url(#paint48_linear)"/>
<path d="M155.863 178.209C157.805 178.209 159.38 176.635 159.38 174.693C159.38 172.751 157.805 171.176 155.863 171.176C153.921 171.176 152.347 172.751 152.347 174.693C152.347 176.635 153.921 178.209 155.863 178.209Z" fill="url(#paint49_linear)"/>
<path opacity="0.5" fill-rule="evenodd" clip-rule="evenodd" d="M152.18 151.489L160.086 159.076L155.129 180.258C154.963 180.978 159.463 193.798 160.058 194.228C171.452 202.562 185.754 212.586 194.047 213.735C191.79 220.657 194.933 245.633 201.994 220.089L196.331 240.15L189.312 228.272C188.786 227.372 188.163 226.693 187.318 226.084L184.369 223.924L183.456 221.668C179.801 218.996 176.146 216.324 172.491 213.652L169.749 213.236L150.159 198.907C149.564 198.464 149.065 197.966 149.065 197.232C149.065 176.312 149.065 173.737 149.065 152.818C149.079 151.198 151.018 150.367 152.18 151.489Z" fill="url(#paint50_linear)"/>
<path fill-rule="evenodd" clip-rule="evenodd" d="M146.033 141.521C147.459 142.393 148.885 143.265 150.325 144.137C150.727 144.387 151.059 144.968 151.059 145.425C151.059 153.275 151.059 161.111 151.059 168.961C151.059 170.484 149.218 170.899 149.218 172.422C149.218 175.482 149.218 178.541 149.218 181.601C149.218 183.124 151.059 185.782 151.059 187.305C151.059 195.197 151.059 203.088 151.059 210.98C151.059 211.437 150.727 211.617 150.325 211.367C148.899 210.495 147.473 209.623 146.033 208.751C145.632 208.501 145.3 207.92 145.3 207.463C145.3 185.602 145.3 163.755 145.3 141.894C145.3 141.451 145.618 141.271 146.033 141.521Z" fill="url(#paint51_linear)"/>
<path fill-rule="evenodd" clip-rule="evenodd" d="M146.795 140.275L151.087 142.891C151.502 143.141 151.862 143.542 152.111 143.985C152.36 144.428 152.527 144.954 152.527 145.439V168.975C152.527 170.318 151.862 171.024 151.198 171.716C150.948 171.979 150.685 172.256 150.685 172.436V181.615C150.685 182.086 151.087 182.986 151.474 183.886C152.001 185.076 152.513 186.267 152.513 187.319V210.993C152.513 211.409 152.402 211.783 152.222 212.087C152.181 212.143 152.153 212.198 152.111 212.253C151.959 212.461 151.765 212.613 151.558 212.738C151.281 212.89 150.976 212.973 150.671 212.973C150.311 212.973 149.924 212.863 149.564 212.641L145.272 210.024C144.857 209.775 144.497 209.374 144.247 208.931C143.998 208.488 143.832 207.961 143.832 207.477V141.908C143.832 141.493 143.943 141.119 144.123 140.815C144.151 140.759 144.192 140.704 144.234 140.662C144.386 140.455 144.58 140.289 144.801 140.178C145.078 140.025 145.383 139.942 145.687 139.942C146.047 139.942 146.421 140.053 146.795 140.275ZM151.045 145.439C151.045 153.289 151.045 161.125 151.045 168.975C151.045 170.498 149.204 170.913 149.204 172.436C149.204 175.496 149.204 178.555 149.204 181.615C149.204 183.138 151.045 185.796 151.045 187.319C151.045 195.21 151.045 203.102 151.045 210.993C151.045 211.45 150.713 211.63 150.311 211.381C148.885 210.509 147.459 209.637 146.02 208.764C145.618 208.515 145.286 207.934 145.286 207.477C145.286 185.616 145.286 163.769 145.286 141.908C145.286 141.451 145.618 141.271 146.02 141.521C147.446 142.393 148.872 143.265 150.311 144.137C150.713 144.387 151.045 144.968 151.045 145.439Z" fill="black"/>
<path fill-rule="evenodd" clip-rule="evenodd" d="M149.536 143.667C149.799 143.819 150.049 143.985 150.312 144.137C150.713 144.387 151.045 144.968 151.045 145.425C151.045 153.275 151.045 161.111 151.045 168.961C151.045 170.484 149.204 170.899 149.204 172.422C149.204 175.482 149.204 178.541 149.204 181.601C149.204 183.124 151.045 185.782 151.045 187.305C151.045 195.197 151.045 203.088 151.045 210.98C151.045 211.437 150.713 211.617 150.312 211.367C150.049 211.201 149.785 211.035 149.509 210.883C150.588 210.26 150.63 187.817 149.481 186.031C149.481 184.467 147.64 183.844 147.64 182.28C148.429 181.449 148.622 172.45 147.695 171.245C147.695 169.681 149.536 169.266 149.536 167.701C150.575 167.41 150.436 145.453 149.536 143.667Z" fill="#5CA4FF"/>
<path fill-rule="evenodd" clip-rule="evenodd" d="M145.3 207.477C145.3 207.934 145.632 208.515 146.033 208.765C147.459 209.637 148.885 210.509 150.325 211.381C150.727 211.63 151.059 211.45 151.059 210.994C151.045 209.166 145.3 206.162 145.3 207.477Z" fill="#1D41B3"/>
<path fill-rule="evenodd" clip-rule="evenodd" d="M145.3 178.708C145.3 180.438 145.3 182.169 145.3 183.899C146.089 183.941 149.55 185.229 151.059 187.333C151.059 185.81 149.218 183.152 149.218 181.629C148.553 183.941 145.964 181.338 145.3 178.708Z" fill="url(#paint52_linear)"/>
<path fill-rule="evenodd" clip-rule="evenodd" d="M145.3 170.193C145.3 168.85 145.3 167.493 145.3 166.15C147.21 166.15 150.727 168.698 150.934 169.612C150.533 170.664 149.218 171.148 149.218 172.436C147.39 171.024 146.186 170.733 145.3 170.193Z" fill="url(#paint53_linear)"/>
<path fill-rule="evenodd" clip-rule="evenodd" d="M145.3 141.908C145.3 141.451 145.632 141.271 146.033 141.521C147.459 142.393 148.885 143.265 150.325 144.137C150.727 144.387 151.059 144.968 151.059 145.425C150.339 144.29 146.31 142.019 145.3 141.908Z" fill="#71AFFF"/>
<path fill-rule="evenodd" clip-rule="evenodd" d="M151.018 148.831C151.184 148.969 151.336 148.595 151.156 148.457L149.481 147.169C149.093 146.865 148.664 147.045 148.664 147.737V156.431C148.664 156.999 148.982 157.65 149.328 157.913L151.004 159.214C151.17 159.353 151.322 158.979 151.142 158.84L149.467 157.539C149.218 157.345 148.955 156.847 148.955 156.418V147.723C148.955 147.377 149.135 147.391 149.328 147.529L151.018 148.831Z" fill="#00045D"/>
<path fill-rule="evenodd" clip-rule="evenodd" d="M151.018 192.885C151.184 193.023 151.336 192.649 151.156 192.511L149.481 191.209C149.093 190.905 148.664 191.085 148.664 191.777V200.472C148.664 201.039 148.982 201.69 149.328 201.953L151.004 203.254C151.17 203.393 151.322 203.019 151.142 202.88L149.481 201.579C149.232 201.385 148.969 200.887 148.969 200.458V191.763C148.969 191.417 149.149 191.431 149.342 191.569L151.018 192.885Z" fill="#00045D"/>
</g>
<defs>
<linearGradient id="paint0_linear" x1="93.8758" y1="236.111" x2="93.8785" y2="175.492" gradientUnits="userSpaceOnUse">
<stop stop-color="#3654A5"/>
<stop offset="1" stop-color="#5781C1"/>
</linearGradient>
<linearGradient id="paint1_linear" x1="71.1374" y1="218.947" x2="74.599" y2="217.969" gradientUnits="userSpaceOnUse">
<stop stop-color="#5781C1"/>
<stop offset="1" stop-color="#6FA1D6"/>
</linearGradient>
<linearGradient id="paint2_linear" x1="108.572" y1="202.389" x2="92.3225" y2="182.385" gradientUnits="userSpaceOnUse">
<stop stop-color="#CC721C"/>
<stop offset="1" stop-color="#F5841F"/>
</linearGradient>
<linearGradient id="paint3_linear" x1="115.231" y1="210.628" x2="79.9843" y2="214.769" gradientUnits="userSpaceOnUse">
<stop stop-color="#313092"/>
<stop offset="1" stop-color="#3654A5"/>
</linearGradient>
<linearGradient id="paint4_linear" x1="119.564" y1="164.649" x2="66.0765" y2="203.195" gradientUnits="userSpaceOnUse">
<stop stop-color="#5781C1"/>
<stop offset="1" stop-color="#AADDDD"/>
</linearGradient>
<linearGradient id="paint5_linear" x1="80.8315" y1="217.977" x2="77.9596" y2="209.401" gradientUnits="userSpaceOnUse">
<stop stop-color="#313092"/>
<stop offset="1" stop-color="#5F94CE"/>
</linearGradient>
<linearGradient id="paint6_linear" x1="80.8427" y1="218.011" x2="77.9448" y2="209.357" gradientUnits="userSpaceOnUse">
<stop stop-color="#3D0000"/>
<stop offset="1" stop-color="#794503"/>
</linearGradient>
<linearGradient id="paint7_linear" x1="80.8727" y1="218.099" x2="77.8323" y2="209.021" gradientUnits="userSpaceOnUse">
<stop stop-color="#EF4423"/>
<stop offset="1" stop-color="#C9CD2B"/>
</linearGradient>
<linearGradient id="paint8_linear" x1="82.6677" y1="216.141" x2="79.7958" y2="207.565" gradientUnits="userSpaceOnUse">
<stop stop-color="#313092"/>
<stop offset="1" stop-color="#5F94CE"/>
</linearGradient>
<linearGradient id="paint9_linear" x1="82.6788" y1="216.175" x2="79.7808" y2="207.521" gradientUnits="userSpaceOnUse">
<stop stop-color="#3D0000"/>
<stop offset="1" stop-color="#794503"/>
</linearGradient>
<linearGradient id="paint10_linear" x1="82.7086" y1="216.263" x2="79.668" y2="207.184" gradientUnits="userSpaceOnUse">
<stop stop-color="#EF4423"/>
<stop offset="1" stop-color="#C9CD2B"/>
</linearGradient>
<linearGradient id="paint11_linear" x1="89.8609" y1="213.6" x2="91.4405" y2="215.638" gradientUnits="userSpaceOnUse">
<stop stop-color="#25409A"/>
<stop offset="0.0988556" stop-color="#314FA4"/>
<stop offset="0.3584" stop-color="#4C73B9"/>
<stop offset="0.6027" stop-color="#5F8CC9"/>
<stop offset="0.8235" stop-color="#6B9CD3"/>
<stop offset="1" stop-color="#6FA1D6"/>
</linearGradient>
<linearGradient id="paint12_linear" x1="82.9833" y1="192.604" x2="85.3994" y2="190.225" gradientUnits="userSpaceOnUse">
<stop stop-color="#3654A5"/>
<stop offset="1" stop-color="#140C4F"/>
</linearGradient>
<linearGradient id="paint13_linear" x1="119.797" y1="174.69" x2="101.684" y2="174.685" gradientUnits="userSpaceOnUse">
<stop stop-color="#140C4F"/>
<stop offset="1" stop-color="#4361AD"/>
</linearGradient>
<linearGradient id="paint14_linear" x1="120.661" y1="174.69" x2="101.445" y2="174.685" gradientUnits="userSpaceOnUse">
<stop stop-color="#4361AD"/>
<stop offset="1" stop-color="#6FA1D6"/>
</linearGradient>
<linearGradient id="paint15_linear" x1="104.08" y1="175.973" x2="104.08" y2="173.618" gradientUnits="userSpaceOnUse">
<stop stop-color="#313092"/>
<stop offset="1" stop-color="#5F94CE"/>
</linearGradient>
<linearGradient id="paint16_linear" x1="104.08" y1="175.893" x2="104.08" y2="173.681" gradientUnits="userSpaceOnUse">
<stop stop-color="#3D0000"/>
<stop offset="1" stop-color="#794503"/>
</linearGradient>
<radialGradient id="paint17_radial" cx="0" cy="0" r="1" gradientUnits="userSpaceOnUse" gradientTransform="translate(104.077 174.32) rotate(-88.2108) scale(1.27622 1.25043)">
<stop stop-color="#C9CD2B"/>
<stop offset="1" stop-color="#EF4423"/>
</radialGradient>
<linearGradient id="paint18_linear" x1="104.445" y1="175.555" x2="103.815" y2="174.059" gradientUnits="userSpaceOnUse">
<stop stop-color="#EF4423"/>
<stop offset="1" stop-color="white"/>
</linearGradient>
<linearGradient id="paint19_linear" x1="108.995" y1="174.69" x2="120.239" y2="174.688" gradientUnits="userSpaceOnUse">
<stop stop-color="#140C4F"/>
<stop offset="1" stop-color="#4361AD"/>
</linearGradient>
<linearGradient id="paint20_linear" x1="119.828" y1="174.69" x2="108.996" y2="174.688" gradientUnits="userSpaceOnUse">
<stop stop-color="#4361AD"/>
<stop offset="1" stop-color="#6FA1D6"/>
</linearGradient>
<linearGradient id="paint21_linear" x1="118.597" y1="174.69" x2="110.909" y2="174.688" gradientUnits="userSpaceOnUse">
<stop stop-color="#2F50A3"/>
<stop offset="1" stop-color="#AADDDD"/>
</linearGradient>
<linearGradient id="paint22_linear" x1="117.878" y1="174.69" x2="111.096" y2="174.688" gradientUnits="userSpaceOnUse">
<stop stop-color="#4361AD"/>
<stop offset="1" stop-color="#6FA1D6"/>
</linearGradient>
<linearGradient id="paint23_linear" x1="102.54" y1="200.973" x2="94.0154" y2="192.283" gradientUnits="userSpaceOnUse">
<stop stop-color="#140C4F"/>
<stop offset="1" stop-color="white"/>
</linearGradient>
<linearGradient id="paint24_linear" x1="135.979" y1="198.812" x2="108.928" y2="154.586" gradientUnits="userSpaceOnUse">
<stop stop-color="#3654A5"/>
<stop offset="1" stop-color="#5781C1"/>
</linearGradient>
<linearGradient id="paint25_linear" x1="122.457" y1="184.15" x2="122.131" y2="181.71" gradientUnits="userSpaceOnUse">
<stop stop-color="#25409A"/>
<stop offset="1" stop-color="#4768B1"/>
</linearGradient>
<linearGradient id="paint26_linear" x1="123.359" y1="169.896" x2="122.667" y2="168.499" gradientUnits="userSpaceOnUse">
<stop stop-color="#25409A"/>
<stop offset="1" stop-color="#4E72B8"/>
</linearGradient>
<linearGradient id="paint27_linear" x1="176.601" y1="236.111" x2="176.598" y2="175.492" gradientUnits="userSpaceOnUse">
<stop stop-color="#3654A5"/>
<stop offset="1" stop-color="#5781C1"/>
</linearGradient>
<linearGradient id="paint28_linear" x1="199.339" y1="218.947" x2="195.877" y2="217.969" gradientUnits="userSpaceOnUse">
<stop stop-color="#5781C1"/>
<stop offset="1" stop-color="#6FA1D6"/>
</linearGradient>
<linearGradient id="paint29_linear" x1="161.904" y1="202.389" x2="178.154" y2="182.385" gradientUnits="userSpaceOnUse">
<stop stop-color="#CC721C"/>
<stop offset="1" stop-color="#F5841F"/>
</linearGradient>
<linearGradient id="paint30_linear" x1="155.245" y1="210.628" x2="190.492" y2="214.769" gradientUnits="userSpaceOnUse">
<stop stop-color="#313092"/>
<stop offset="1" stop-color="#3654A5"/>
</linearGradient>
<linearGradient id="paint31_linear" x1="150.913" y1="164.649" x2="204.4" y2="203.195" gradientUnits="userSpaceOnUse">
<stop stop-color="#5781C1"/>
<stop offset="1" stop-color="#AADDDD"/>
</linearGradient>
<linearGradient id="paint32_linear" x1="189.645" y1="217.977" x2="192.517" y2="209.401" gradientUnits="userSpaceOnUse">
<stop stop-color="#313092"/>
<stop offset="1" stop-color="#5F94CE"/>
</linearGradient>
<linearGradient id="paint33_linear" x1="189.634" y1="218.011" x2="192.532" y2="209.357" gradientUnits="userSpaceOnUse">
<stop stop-color="#3D0000"/>
<stop offset="1" stop-color="#794503"/>
</linearGradient>
<linearGradient id="paint34_linear" x1="189.604" y1="218.099" x2="192.645" y2="209.02" gradientUnits="userSpaceOnUse">
<stop stop-color="#EF4423"/>
<stop offset="1" stop-color="#C9CD2B"/>
</linearGradient>
<linearGradient id="paint35_linear" x1="187.809" y1="216.141" x2="190.681" y2="207.565" gradientUnits="userSpaceOnUse">
<stop stop-color="#313092"/>
<stop offset="1" stop-color="#5F94CE"/>
</linearGradient>
<linearGradient id="paint36_linear" x1="187.798" y1="216.175" x2="190.696" y2="207.521" gradientUnits="userSpaceOnUse">
<stop stop-color="#3D0000"/>
<stop offset="1" stop-color="#794503"/>
</linearGradient>
<linearGradient id="paint37_linear" x1="187.768" y1="216.263" x2="190.808" y2="207.185" gradientUnits="userSpaceOnUse">
<stop stop-color="#EF4423"/>
<stop offset="1" stop-color="#C9CD2B"/>
</linearGradient>
<linearGradient id="paint38_linear" x1="180.615" y1="213.6" x2="179.036" y2="215.638" gradientUnits="userSpaceOnUse">
<stop stop-color="#25409A"/>
<stop offset="0.0988556" stop-color="#314FA4"/>
<stop offset="0.3584" stop-color="#4C73B9"/>
<stop offset="0.6027" stop-color="#5F8CC9"/>
<stop offset="0.8235" stop-color="#6B9CD3"/>
<stop offset="1" stop-color="#6FA1D6"/>
</linearGradient>
<linearGradient id="paint39_linear" x1="187.493" y1="192.604" x2="185.077" y2="190.225" gradientUnits="userSpaceOnUse">
<stop stop-color="#3654A5"/>
<stop offset="1" stop-color="#140C4F"/>
</linearGradient>
<linearGradient id="paint40_linear" x1="150.679" y1="174.69" x2="168.792" y2="174.686" gradientUnits="userSpaceOnUse">
<stop stop-color="#140C4F"/>
<stop offset="1" stop-color="#4361AD"/>
</linearGradient>
<linearGradient id="paint41_linear" x1="149.815" y1="174.69" x2="169.031" y2="174.685" gradientUnits="userSpaceOnUse">
<stop stop-color="#4361AD"/>
<stop offset="1" stop-color="#6FA1D6"/>
</linearGradient>
<linearGradient id="paint42_linear" x1="166.396" y1="175.973" x2="166.396" y2="173.618" gradientUnits="userSpaceOnUse">
<stop stop-color="#313092"/>
<stop offset="1" stop-color="#5F94CE"/>
</linearGradient>
<linearGradient id="paint43_linear" x1="166.396" y1="175.893" x2="166.396" y2="173.681" gradientUnits="userSpaceOnUse">
<stop stop-color="#3D0000"/>
<stop offset="1" stop-color="#794503"/>
</linearGradient>
<radialGradient id="paint44_radial" cx="0" cy="0" r="1" gradientUnits="userSpaceOnUse" gradientTransform="translate(166.397 174.321) rotate(-91.7892) scale(1.27621 1.25043)">
<stop stop-color="#C9CD2B"/>
<stop offset="1" stop-color="#EF4423"/>
</radialGradient>
<linearGradient id="paint45_linear" x1="166.031" y1="175.555" x2="166.661" y2="174.059" gradientUnits="userSpaceOnUse">
<stop stop-color="#EF4423"/>
<stop offset="1" stop-color="white"/>
</linearGradient>
<linearGradient id="paint46_linear" x1="161.481" y1="174.69" x2="150.238" y2="174.688" gradientUnits="userSpaceOnUse">
<stop stop-color="#140C4F"/>
<stop offset="1" stop-color="#4361AD"/>
</linearGradient>
<linearGradient id="paint47_linear" x1="150.648" y1="174.691" x2="161.48" y2="174.688" gradientUnits="userSpaceOnUse">
<stop stop-color="#4361AD"/>
<stop offset="1" stop-color="#6FA1D6"/>
</linearGradient>
<linearGradient id="paint48_linear" x1="151.879" y1="174.69" x2="159.567" y2="174.688" gradientUnits="userSpaceOnUse">
<stop stop-color="#2F50A3"/>
<stop offset="1" stop-color="#AADDDD"/>
</linearGradient>
<linearGradient id="paint49_linear" x1="152.598" y1="174.69" x2="159.38" y2="174.688" gradientUnits="userSpaceOnUse">
<stop stop-color="#4361AD"/>
<stop offset="1" stop-color="#6FA1D6"/>
</linearGradient>
<linearGradient id="paint50_linear" x1="167.936" y1="200.973" x2="176.461" y2="192.283" gradientUnits="userSpaceOnUse">
<stop stop-color="#140C4F"/>
<stop offset="1" stop-color="white"/>
</linearGradient>
<linearGradient id="paint51_linear" x1="134.497" y1="198.812" x2="161.548" y2="154.586" gradientUnits="userSpaceOnUse">
<stop stop-color="#3654A5"/>
<stop offset="1" stop-color="#5781C1"/>
</linearGradient>
<linearGradient id="paint52_linear" x1="148.02" y1="184.15" x2="148.346" y2="181.71" gradientUnits="userSpaceOnUse">
<stop stop-color="#25409A"/>
<stop offset="1" stop-color="#4768B1"/>
</linearGradient>
<linearGradient id="paint53_linear" x1="147.117" y1="169.896" x2="147.81" y2="168.499" gradientUnits="userSpaceOnUse">
<stop stop-color="#25409A"/>
<stop offset="1" stop-color="#4E72B8"/>
</linearGradient>
<clipPath id="clip0">
<rect x="64.8895" y="118.372" width="140.704" height="129.78" fill="white"/>
</clipPath>
</defs>
</svg>
