<svg width="270" height="370" viewBox="0 0 270 370" fill="none" xmlns="http://www.w3.org/2000/svg">
<g clip-path="url(#clip0)">
<path fill-rule="evenodd" clip-rule="evenodd" d="M115.534 159.823L67.9216 189.52C66.6894 190.282 65.1111 189.41 65.1111 187.97V172.921C65.1111 171.91 64.2805 171.079 63.2698 171.079H59.6148C58.6041 171.079 57.7734 171.91 57.7734 172.921V207.103C57.7734 207.574 57.9257 207.975 58.2303 208.321L71.992 223.8C72.2965 224.146 72.4488 224.547 72.4488 225.018V262.87C72.4488 265.029 75.7439 265.251 76.6715 263.908L109.4 215.798C109.733 215.313 110.217 215.036 110.799 214.995L116.627 214.621C117.596 214.552 118.344 213.762 118.344 212.793V161.388C118.344 159.934 116.766 159.062 115.534 159.823Z" fill="url(#paint0_linear)"/>
<path fill-rule="evenodd" clip-rule="evenodd" d="M115.534 159.823L67.9216 189.52C66.6894 190.282 65.1111 189.409 65.1111 187.97V172.92C65.1111 171.91 64.2805 171.079 63.2698 171.079H59.6148C58.6041 171.079 57.7734 171.91 57.7734 172.92V207.103C57.7734 207.574 57.9257 207.975 58.2303 208.321L71.992 223.8C72.2966 224.146 72.4488 224.547 72.4488 225.018V262.87C72.4488 265.029 75.7439 265.251 76.6715 263.908L109.4 215.798C109.733 215.313 110.217 215.036 110.799 214.995L116.627 214.621C117.596 214.551 118.344 213.762 118.344 212.793V161.388C118.344 159.934 116.766 159.062 115.534 159.823ZM67.1463 188.274L114.758 158.577C115.312 158.231 115.921 158.065 116.503 158.065C117.07 158.065 117.61 158.217 118.109 158.48C118.593 158.743 119.009 159.145 119.313 159.616C119.632 160.114 119.812 160.709 119.812 161.36V212.793C119.812 213.665 119.466 214.455 118.912 215.05C118.358 215.645 117.583 216.033 116.71 216.088L110.882 216.462C110.826 216.462 110.771 216.476 110.729 216.504C110.688 216.531 110.646 216.559 110.619 216.628L77.8898 264.739C77.3914 265.472 76.5884 265.929 75.7024 266.123C75.0517 266.261 74.3456 266.248 73.681 266.095C73.0165 265.929 72.3796 265.611 71.8951 265.112C71.8535 265.085 71.8258 265.043 71.7843 265.002C71.2997 264.448 70.9952 263.742 70.9952 262.883V225.018C70.9952 224.963 70.9952 224.921 70.9813 224.88C70.9675 224.838 70.9398 224.81 70.9121 224.769L57.1366 209.29C56.8597 208.986 56.652 208.64 56.5136 208.266C56.3751 207.892 56.3059 207.505 56.3059 207.089V172.92C56.3059 172.007 56.6797 171.19 57.275 170.581C57.8704 169.985 58.701 169.612 59.6148 169.612H63.2836C64.1974 169.612 65.0142 169.985 65.6234 170.581C66.2187 171.176 66.5925 172.007 66.5925 172.907V187.956C66.5925 188.039 66.6064 188.108 66.6479 188.15C66.6756 188.205 66.731 188.247 66.7864 188.274C66.8417 188.302 66.8971 188.316 66.9663 188.316C67.0217 188.343 67.0909 188.316 67.1463 188.274Z" fill="black"/>
<path fill-rule="evenodd" clip-rule="evenodd" d="M85.809 227.621L94.6973 223.232V237.423L85.809 250.492V227.621Z" fill="url(#paint1_linear)"/>
<path fill-rule="evenodd" clip-rule="evenodd" d="M70.5383 187.9L80.1327 181.906V206.203L94.6974 223.232L85.8091 227.621L70.5383 208.391V187.9Z" fill="url(#paint2_linear)"/>
<path opacity="0.5" fill-rule="evenodd" clip-rule="evenodd" d="M72.4626 253.871V262.87C72.4626 265.029 75.7577 265.251 76.6853 263.908C87.5949 247.876 98.5046 231.83 109.414 215.798C109.746 215.313 110.231 215.036 110.813 214.995L116.641 214.621C117.61 214.552 118.358 213.762 118.358 212.793V209.041C117.541 209.041 117.735 211.88 115.021 211.88C113.208 211.88 108.057 212.24 107.351 213.306C104.859 217.03 97.577 225.184 96.2894 228.355C95.7495 229.698 95.7495 232.107 95.4587 233.436C94.9326 235.845 93.9496 232.397 93.4512 232.3C92.9805 232.204 91.956 233.962 91.6791 234.363C90.2531 236.412 88.7856 238.558 87.498 240.69C86.515 242.393 86.432 243.722 86.2381 245.564C85.8228 249.468 85.7813 247.53 84.8398 246.741C84.1753 246.187 84.0784 245.854 83.4554 246.671C81.9878 248.596 74.9547 259.228 72.4626 253.871Z" fill="url(#paint3_linear)"/>
<path opacity="0.5" fill-rule="evenodd" clip-rule="evenodd" d="M115.534 159.823C99.6676 169.722 83.7877 179.621 67.9216 189.52C66.6894 190.282 65.1111 189.41 65.1111 187.97C65.1111 182.958 65.1111 177.932 65.1111 172.92C65.1111 171.91 64.2805 171.079 63.2698 171.079C62.0791 171.079 60.5424 171.079 60.1686 171.079C64.5712 171.079 64.7927 194.034 65.3188 196.263C65.7618 193.521 67.5755 192.857 68.3093 192.442C71.5489 190.572 74.7609 188.579 77.9314 186.599C79.3435 185.741 79.5789 188.454 80.188 188.274C80.6311 188.15 80.548 185.104 82.2509 183.913C87.1104 180.521 92.759 177.268 97.8262 174.07C98.5046 173.64 98.7815 174.014 99.1138 174.623C99.5845 175.468 100.041 176.783 100.484 174.97C100.747 173.89 100.955 172.284 101.855 171.564C106.147 168.158 113.305 164.295 118.344 161.388C118.344 159.934 116.766 159.062 115.534 159.823Z" fill="url(#paint4_linear)"/>
<path fill-rule="evenodd" clip-rule="evenodd" d="M65.1527 188.371C65.1527 188.136 65.5265 188.87 65.5265 189.119V198.173L67.7555 196.789V193.134C67.7555 193.065 67.797 193.009 67.8524 192.968L69.7906 191.929V190.531L68.0462 191.5C67.9216 191.583 67.7555 191.5 67.7555 191.348V189.631C67.7555 189.396 68.1293 189.174 68.1293 189.423V191.043L69.9014 190.06C70.026 189.991 70.1783 190.088 70.1783 190.226V192.054C70.1783 192.123 70.1368 192.192 70.0675 192.22L68.1293 193.245V196.567L80.1465 189.077V181.92C80.1465 181.684 80.5203 181.449 80.5203 181.684V188.842L99.9306 176.742V169.584C99.9306 169.349 100.304 169.113 100.304 169.349V176.506L118.372 165.251C118.579 165.126 118.579 165.541 118.372 165.68L65.5126 198.602V205.899L79.8558 223.177L118.344 204.39C118.566 204.279 118.566 204.694 118.344 204.791L79.9942 223.523V230.085L109.774 215.382C110.411 215.064 109.65 215.853 109.248 216.047L95.0711 223.038V236.883C95.0711 237.118 94.6973 237.672 94.6973 237.423V223.232L85.809 227.621V250.492C85.809 250.728 85.4352 251.282 85.4352 251.046V227.801L79.9804 230.487V259.035C79.9804 259.27 79.6065 259.796 79.6065 259.561C79.6065 237.229 79.6065 234.696 79.6065 223.634L72.4488 225.198C72.2135 225.254 72.1996 224.88 72.435 224.824L79.4543 223.288L65.2634 206.162L57.8565 207.657C57.6211 207.698 57.5519 207.338 57.7873 207.297L65.1527 205.802V188.371Z" fill="#00045D"/>
<path fill-rule="evenodd" clip-rule="evenodd" d="M82.9985 196.803L105.496 182.612C105.912 182.349 107.877 185.478 107.462 185.741L84.9644 199.931C82.9016 201.233 80.9218 198.104 82.9985 196.803Z" fill="#00045D"/>
<path fill-rule="evenodd" clip-rule="evenodd" d="M83.1369 197.052L105.635 182.861L107.31 185.505L84.8121 199.696C83.0677 200.804 81.3925 198.146 83.1369 197.052Z" fill="url(#paint5_linear)"/>
<path fill-rule="evenodd" clip-rule="evenodd" d="M106.978 184.965L105.981 183.373L83.4692 197.578C82.417 198.242 83.4138 199.835 84.466 199.17L106.978 184.965Z" fill="url(#paint6_linear)"/>
<path fill-rule="evenodd" clip-rule="evenodd" d="M82.9985 203.074L105.496 188.883C105.912 188.62 107.877 191.749 107.462 192.012L84.9644 206.189C82.9016 207.491 80.9218 204.376 82.9985 203.074Z" fill="#00045D"/>
<path fill-rule="evenodd" clip-rule="evenodd" d="M83.1369 203.309L105.635 189.119L107.31 191.763L84.8121 205.954C83.0677 207.061 81.3925 204.417 83.1369 203.309Z" fill="url(#paint7_linear)"/>
<path fill-rule="evenodd" clip-rule="evenodd" d="M106.978 191.223L105.981 189.631L83.4692 203.836C82.417 204.5 83.4138 206.092 84.466 205.428L106.978 191.223Z" fill="url(#paint8_linear)"/>
<path fill-rule="evenodd" clip-rule="evenodd" d="M89.2563 206.203L111.754 192.012C112.169 191.749 114.135 194.878 113.72 195.141L91.2223 209.318C89.1594 210.62 87.1796 207.505 89.2563 206.203Z" fill="#00045D"/>
<path fill-rule="evenodd" clip-rule="evenodd" d="M89.4086 206.438L111.906 192.248L113.581 194.892L91.07 209.083C89.3255 210.19 87.6503 207.546 89.4086 206.438Z" fill="url(#paint9_linear)"/>
<path fill-rule="evenodd" clip-rule="evenodd" d="M113.235 194.352L112.239 192.76L89.7409 206.965C88.6887 207.629 89.6855 209.221 90.7377 208.557L113.235 194.352Z" fill="url(#paint10_linear)"/>
<path fill-rule="evenodd" clip-rule="evenodd" d="M118.344 204.14C108.916 204.14 101.287 196.498 101.287 187.084C101.287 177.655 108.93 170.027 118.344 170.027C118.344 181.393 118.344 192.774 118.344 204.14Z" fill="#00045D"/>
<path fill-rule="evenodd" clip-rule="evenodd" d="M118.344 170.359C118.344 181.518 118.344 192.663 118.344 203.822C109.11 203.822 101.62 196.332 101.62 187.098C101.62 177.863 109.11 170.359 118.344 170.359Z" fill="url(#paint11_linear)"/>
<path fill-rule="evenodd" clip-rule="evenodd" d="M118.344 171.245C118.344 181.809 118.344 192.358 118.344 202.922C109.594 202.922 102.506 195.833 102.506 187.084C102.506 178.334 109.594 171.245 118.344 171.245Z" fill="url(#paint12_linear)"/>
<path fill-rule="evenodd" clip-rule="evenodd" d="M103.004 183.166L103.101 182.806L103.821 182.999L103.724 183.359L103.004 183.166ZM114.066 171.827L114.426 171.73L114.62 172.45L114.26 172.547L114.066 171.827ZM110.273 173.46L110.591 173.28L110.965 173.931L110.647 174.111L110.273 173.46ZM107.019 176.008L107.282 175.745L107.808 176.271L107.545 176.534L107.019 176.008ZM104.541 179.331L104.721 179.012L105.372 179.386L105.192 179.704L104.541 179.331ZM114.412 202.41L114.052 202.313L114.246 201.593L114.606 201.69L114.412 202.41ZM110.577 200.873L110.259 200.693L110.633 200.042L110.951 200.222L110.577 200.873ZM107.282 198.409L107.019 198.146L107.545 197.619L107.808 197.883L107.282 198.409ZM104.721 195.169L104.541 194.851L105.192 194.477L105.372 194.795L104.721 195.169ZM103.101 191.362L103.004 191.002L103.724 190.808L103.821 191.168L103.101 191.362ZM102.506 187.264V186.904H103.253V187.277H102.506V187.264Z" fill="#00045D"/>
<path fill-rule="evenodd" clip-rule="evenodd" d="M118.344 171.993C118.344 182.058 118.344 192.109 118.344 202.174C110.01 202.174 103.253 195.418 103.253 187.084C103.253 178.749 110.01 171.993 118.344 171.993Z" fill="url(#paint13_linear)"/>
<path fill-rule="evenodd" clip-rule="evenodd" d="M118.344 172.491V201.676C110.287 201.676 103.752 195.141 103.752 187.084C103.752 179.026 110.287 172.491 118.344 172.491Z" fill="url(#paint14_linear)"/>
<path fill-rule="evenodd" clip-rule="evenodd" d="M78.2774 234.585C78.2774 233.242 77.9036 226.679 76.0346 226.679C74.1794 226.679 73.7917 233.242 73.7917 234.585C73.8056 236.44 78.2774 236.44 78.2774 234.585Z" fill="#00045D"/>
<path fill-rule="evenodd" clip-rule="evenodd" d="M78.0144 234.585C78.0144 231.968 77.3499 226.943 76.0346 226.943C74.7194 226.943 74.0548 231.996 74.0548 234.585C74.0687 236.122 78.0144 236.122 78.0144 234.585Z" fill="#3A68DD"/>
<path fill-rule="evenodd" clip-rule="evenodd" d="M76.0346 226.943C74.4702 226.943 74.0548 233.353 74.0548 234.585C74.7194 234.405 74.5809 234.059 76.0346 234.059C77.4883 234.059 77.3499 234.419 78.0144 234.585C78.0144 233.366 77.5991 226.943 76.0346 226.943Z" fill="url(#paint15_radial)"/>
<path opacity="0.5" fill-rule="evenodd" clip-rule="evenodd" d="M76.0345 226.943C75.7022 226.943 75.4115 227.247 75.1761 227.732C76.0899 228.77 77.0175 231.94 76.0345 234.059C76.8375 234.059 77.1559 234.169 77.3913 234.294C77.862 232.217 76.6714 227.51 76.0345 226.943Z" fill="url(#paint16_linear)"/>
<path fill-rule="evenodd" clip-rule="evenodd" d="M78.0145 234.585C76.7408 234.086 75.3563 234.086 74.0687 234.585C74.0687 236.122 78.0145 236.122 78.0145 234.585Z" fill="url(#paint17_linear)"/>
<path fill-rule="evenodd" clip-rule="evenodd" d="M76.7546 234.308C76.2838 234.114 75.8131 234.114 75.3424 234.308C75.3424 235.554 76.7546 235.554 76.7546 234.308Z" fill="url(#paint18_radial)"/>
<path fill-rule="evenodd" clip-rule="evenodd" d="M77.9452 234.696C78.0975 234.779 78.2221 234.557 78.0836 234.474C77.1145 233.92 74.9685 233.92 73.9994 234.474C73.8471 234.557 73.9856 234.792 74.1379 234.696C75.0101 234.197 77.0729 234.197 77.9452 234.696Z" fill="#00045D"/>
<path fill-rule="evenodd" clip-rule="evenodd" d="M77.6683 241.95C77.6683 240.981 77.3914 236.219 76.0485 236.219C74.7055 236.219 74.4286 240.981 74.4286 241.95C74.4148 243.293 77.6683 243.293 77.6683 241.95Z" fill="#00045D"/>
<path fill-rule="evenodd" clip-rule="evenodd" d="M77.4745 241.95C77.4745 240.054 77.0038 236.412 76.0485 236.412C75.0932 236.412 74.6225 240.081 74.6225 241.95C74.6086 243.072 77.4745 243.072 77.4745 241.95Z" fill="#3A68DD"/>
<path fill-rule="evenodd" clip-rule="evenodd" d="M76.0346 236.412C74.8994 236.412 74.6086 241.064 74.6086 241.95C75.0794 241.826 74.9824 241.563 76.0346 241.563C77.0868 241.563 76.9899 241.826 77.4607 241.95C77.4745 241.064 77.1699 236.412 76.0346 236.412Z" fill="url(#paint19_radial)"/>
<path opacity="0.5" fill-rule="evenodd" clip-rule="evenodd" d="M76.0346 236.412C75.7854 236.412 75.5778 236.634 75.4116 236.98C76.0762 237.728 76.7546 240.04 76.0346 241.563C76.6161 241.563 76.8515 241.646 77.0176 241.729C77.3637 240.233 76.4915 236.814 76.0346 236.412Z" fill="url(#paint20_linear)"/>
<path fill-rule="evenodd" clip-rule="evenodd" d="M77.4745 241.95C76.5469 241.59 75.5501 241.59 74.6086 241.95C74.6086 243.072 77.4745 243.072 77.4745 241.95Z" fill="url(#paint21_linear)"/>
<path fill-rule="evenodd" clip-rule="evenodd" d="M76.5606 241.756C76.2284 241.618 75.8823 241.618 75.5361 241.756C75.5361 242.656 76.5606 242.656 76.5606 241.756Z" fill="url(#paint22_radial)"/>
<path fill-rule="evenodd" clip-rule="evenodd" d="M77.419 242.033C77.5298 242.103 77.6267 241.936 77.5159 241.867C76.8237 241.466 75.2593 241.466 74.5532 241.867C74.4424 241.936 74.5393 242.089 74.6501 242.033C75.3008 241.673 76.7822 241.673 77.419 242.033Z" fill="#00045D"/>
<path fill-rule="evenodd" clip-rule="evenodd" d="M77.0453 246.56C77.0453 245.965 76.8791 243.002 76.0346 243.002C75.2039 243.002 75.0239 245.951 75.0239 246.56C75.0378 247.405 77.0453 247.405 77.0453 246.56Z" fill="#00045D"/>
<path fill-rule="evenodd" clip-rule="evenodd" d="M76.9344 246.56C76.9344 245.384 76.6437 243.127 76.0484 243.127C75.4531 243.127 75.1623 245.397 75.1623 246.56C75.1485 247.253 76.9344 247.253 76.9344 246.56Z" fill="#3A68DD"/>
<path fill-rule="evenodd" clip-rule="evenodd" d="M76.0346 243.127C75.3285 243.127 75.1486 246.007 75.1486 246.56C75.4393 246.477 75.3839 246.325 76.0346 246.325C76.6853 246.325 76.6299 246.477 76.9207 246.56C76.9345 246.007 76.7407 243.127 76.0346 243.127Z" fill="url(#paint23_radial)"/>
<path opacity="0.5" fill-rule="evenodd" clip-rule="evenodd" d="M76.0346 243.127C75.8823 243.127 75.7577 243.265 75.647 243.487C76.0623 243.958 76.4777 245.384 76.0346 246.325C76.3946 246.325 76.533 246.38 76.6438 246.436C76.8653 245.494 76.3254 243.376 76.0346 243.127Z" fill="url(#paint24_linear)"/>
<path fill-rule="evenodd" clip-rule="evenodd" d="M76.9344 246.56C76.3668 246.339 75.7438 246.339 75.1623 246.56C75.1485 247.253 76.9344 247.253 76.9344 246.56Z" fill="url(#paint25_linear)"/>
<path fill-rule="evenodd" clip-rule="evenodd" d="M76.3667 246.436C76.159 246.353 75.9375 246.353 75.7299 246.436C75.7299 247.003 76.3667 247.003 76.3667 246.436Z" fill="url(#paint26_radial)"/>
<path fill-rule="evenodd" clip-rule="evenodd" d="M76.893 246.616C76.9622 246.657 77.0176 246.547 76.9484 246.519C76.5192 246.27 75.55 246.27 75.107 246.519C75.0378 246.56 75.0932 246.657 75.1624 246.616C75.5777 246.394 76.5053 246.394 76.893 246.616Z" fill="#00045D"/>
<path opacity="0.5" fill-rule="evenodd" clip-rule="evenodd" d="M81.2541 231.387V257.179L79.9803 259.09L79.9942 230.487L109.234 216.047L107.767 218.22L81.2541 231.387Z" fill="url(#paint27_linear)"/>
<path fill-rule="evenodd" clip-rule="evenodd" d="M61.4423 174.153C60.57 174.153 59.8778 175.496 59.8778 177.143C59.8778 178.791 60.5839 180.134 61.4423 180.134C62.3145 180.134 63.0067 178.791 63.0067 177.143C63.0206 175.496 62.3145 174.153 61.4423 174.153Z" fill="url(#paint28_linear)"/>
<path fill-rule="evenodd" clip-rule="evenodd" d="M61.4422 174.762C60.75 174.762 60.1962 175.828 60.1962 177.143C60.1962 178.458 60.75 179.524 61.4422 179.524C62.1344 179.524 62.6882 178.458 62.6882 177.143C62.6882 175.828 62.1344 174.762 61.4422 174.762Z" fill="url(#paint29_linear)"/>
<path fill-rule="evenodd" clip-rule="evenodd" d="M61.4423 175.537C60.8608 175.537 60.4039 176.423 60.4039 177.517C60.4039 178.611 60.8747 179.497 61.4423 179.497C62.0099 179.497 62.4806 178.611 62.4806 177.517C62.4945 176.437 62.0238 175.537 61.4423 175.537Z" fill="url(#paint30_linear)"/>
<path fill-rule="evenodd" clip-rule="evenodd" d="M61.4423 180.12C60.847 180.12 60.3624 181.047 60.3624 182.182C60.3624 183.318 60.847 184.245 61.4423 184.245C62.0376 184.245 62.5222 183.318 62.5222 182.182C62.536 181.047 62.0515 180.12 61.4423 180.12Z" fill="url(#paint31_linear)"/>
<path fill-rule="evenodd" clip-rule="evenodd" d="M61.4422 180.549C60.9715 180.549 60.5839 181.283 60.5839 182.183C60.5839 183.082 60.9715 183.816 61.4422 183.816C61.913 183.816 62.3006 183.082 62.3006 182.183C62.3006 181.283 61.9268 180.549 61.4422 180.549Z" fill="url(#paint32_linear)"/>
<path fill-rule="evenodd" clip-rule="evenodd" d="M61.4422 181.089C61.0407 181.089 60.7223 181.698 60.7223 182.459C60.7223 183.221 61.0407 183.83 61.4422 183.83C61.8437 183.83 62.1621 183.221 62.1621 182.459C62.1621 181.698 61.8437 181.089 61.4422 181.089Z" fill="url(#paint33_linear)"/>
<path fill-rule="evenodd" clip-rule="evenodd" d="M61.4422 184.245C61.11 184.245 60.8469 184.758 60.8469 185.381C60.8469 186.004 61.11 186.516 61.4422 186.516C61.7745 186.516 62.0376 186.004 62.0376 185.381C62.0376 184.758 61.7745 184.245 61.4422 184.245Z" fill="url(#paint34_linear)"/>
<path fill-rule="evenodd" clip-rule="evenodd" d="M61.4423 184.481C61.1792 184.481 60.9716 184.882 60.9716 185.381C60.9716 185.879 61.1792 186.281 61.4423 186.281C61.7053 186.281 61.913 185.879 61.913 185.381C61.9268 184.882 61.7053 184.481 61.4423 184.481Z" fill="url(#paint35_linear)"/>
<path fill-rule="evenodd" clip-rule="evenodd" d="M61.4423 184.771C61.2208 184.771 61.0408 185.104 61.0408 185.533C61.0408 185.948 61.2208 186.294 61.4423 186.294C61.6638 186.294 61.8438 185.962 61.8438 185.533C61.8438 185.117 61.6638 184.771 61.4423 184.771Z" fill="url(#paint36_linear)"/>
<path fill-rule="evenodd" clip-rule="evenodd" d="M82.1817 189.797L86.1551 187.25C86.7504 186.89 87.3042 187.388 87.3042 188.025V191.625C87.3042 192.068 87.0689 192.608 86.6951 192.857L82.7493 195.377C82.154 195.764 81.5725 195.28 81.5725 194.615V191.015C81.5725 190.572 81.8079 190.032 82.1817 189.797Z" fill="#00045D"/>
<path fill-rule="evenodd" clip-rule="evenodd" d="M82.3618 190.157L86.5152 187.485C86.7367 187.347 86.9305 187.485 86.9305 187.817V191.611C86.9305 191.943 86.7505 192.317 86.5152 192.469L82.3618 195.141C82.1402 195.28 81.9464 195.141 81.9464 194.809V191.015C81.9603 190.697 82.1402 190.309 82.3618 190.157Z" fill="url(#paint37_linear)"/>
<path fill-rule="evenodd" clip-rule="evenodd" d="M82.8047 190.406L86.0859 188.302C86.2658 188.191 86.4043 188.302 86.4043 188.565V191.569C86.4043 191.832 86.2658 192.137 86.0859 192.248L82.8047 194.352C82.6247 194.463 82.4862 194.352 82.4862 194.089V191.085C82.4724 190.822 82.6247 190.517 82.8047 190.406Z" fill="url(#paint38_linear)"/>
<path fill-rule="evenodd" clip-rule="evenodd" d="M83.137 190.586L85.7536 188.911C85.892 188.814 86.0167 188.911 86.0167 189.119V191.5C86.0167 191.708 85.9059 191.943 85.7536 192.04L83.137 193.715C82.9985 193.812 82.8739 193.715 82.8739 193.507V191.126C82.8739 190.919 82.9985 190.683 83.137 190.586Z" fill="url(#paint39_radial)"/>
<path opacity="0.5" fill-rule="evenodd" clip-rule="evenodd" d="M82.8047 190.406C83.6492 192.414 86.4043 189.7 86.4043 191.555C86.4043 191.818 86.2658 192.123 86.0859 192.234C84.2168 191.86 83.1092 193.452 82.4862 191.085C82.4724 190.822 82.6247 190.517 82.8047 190.406Z" fill="url(#paint40_linear)"/>
<path fill-rule="evenodd" clip-rule="evenodd" d="M88.8409 185.228L92.8143 182.681C93.4096 182.321 93.9634 182.819 93.9634 183.456V187.056C93.9634 187.499 93.728 188.039 93.3542 188.288L89.4085 190.822C88.8132 191.209 88.2317 190.725 88.2317 190.06V186.461C88.2317 186.004 88.467 185.464 88.8409 185.228Z" fill="#00045D"/>
<path fill-rule="evenodd" clip-rule="evenodd" d="M89.0208 185.588L93.1742 182.916C93.3957 182.778 93.5896 182.916 93.5896 183.249V187.042C93.5896 187.374 93.4096 187.748 93.1742 187.9L89.0208 190.572C88.7993 190.711 88.6055 190.572 88.6055 190.24V186.447C88.6055 186.128 88.7854 185.741 89.0208 185.588Z" fill="url(#paint41_linear)"/>
<path fill-rule="evenodd" clip-rule="evenodd" d="M89.45 185.838L92.7312 183.733C92.9112 183.622 93.0496 183.733 93.0496 183.996V187.001C93.0496 187.264 92.9112 187.568 92.7312 187.679L89.45 189.783C89.27 189.894 89.1316 189.783 89.1316 189.52V186.516C89.1316 186.253 89.27 185.948 89.45 185.838Z" fill="url(#paint42_linear)"/>
<path fill-rule="evenodd" clip-rule="evenodd" d="M89.7822 186.018L92.3989 184.342C92.5373 184.245 92.6619 184.342 92.6619 184.55V186.931C92.6619 187.139 92.5512 187.374 92.3989 187.471L89.7822 189.146C89.6438 189.243 89.5192 189.146 89.5192 188.939V186.557C89.533 186.35 89.6438 186.114 89.7822 186.018Z" fill="url(#paint43_radial)"/>
<path opacity="0.5" fill-rule="evenodd" clip-rule="evenodd" d="M89.45 185.838C90.2945 187.845 93.0496 185.131 93.0496 186.987C93.0496 187.25 92.9112 187.554 92.7312 187.665C90.8622 187.291 89.7546 188.883 89.1316 186.516C89.1316 186.253 89.27 185.948 89.45 185.838Z" fill="url(#paint44_linear)"/>
<path fill-rule="evenodd" clip-rule="evenodd" d="M95.5003 181.31L99.4738 178.763C100.069 178.403 100.623 178.901 100.623 179.538V183.138C100.623 183.581 100.388 184.121 100.014 184.37L96.0541 186.904C95.4588 187.291 94.8773 186.807 94.8773 186.142V182.542C94.8773 182.099 95.1127 181.56 95.5003 181.31Z" fill="#00045D"/>
<path fill-rule="evenodd" clip-rule="evenodd" d="M95.6664 181.684L99.8199 179.012C100.041 178.874 100.235 179.012 100.235 179.344V183.138C100.235 183.47 100.055 183.844 99.8199 183.996L95.6664 186.668C95.4449 186.807 95.2511 186.668 95.2511 186.336V182.542C95.2649 182.21 95.4449 181.823 95.6664 181.684Z" fill="url(#paint45_linear)"/>
<path fill-rule="evenodd" clip-rule="evenodd" d="M96.1095 181.92L99.3907 179.815C99.5707 179.704 99.7091 179.815 99.7091 180.078V183.083C99.7091 183.346 99.5707 183.65 99.3907 183.761L96.1095 185.865C95.9295 185.976 95.791 185.865 95.791 185.602V182.598C95.7772 182.335 95.9295 182.044 96.1095 181.92Z" fill="url(#paint46_linear)"/>
<path fill-rule="evenodd" clip-rule="evenodd" d="M96.4418 182.113L99.0584 180.438C99.1969 180.341 99.3215 180.438 99.3215 180.646V183.027C99.3215 183.235 99.2107 183.47 99.0584 183.567L96.4418 185.242C96.3033 185.339 96.1787 185.242 96.1787 185.035V182.653C96.1787 182.446 96.3033 182.196 96.4418 182.113Z" fill="url(#paint47_radial)"/>
<path opacity="0.5" fill-rule="evenodd" clip-rule="evenodd" d="M96.1095 181.92C96.954 183.927 99.7091 181.213 99.7091 183.069C99.7091 183.332 99.5707 183.636 99.3907 183.747C97.5216 183.373 96.4141 184.965 95.791 182.598C95.7772 182.335 95.9295 182.044 96.1095 181.92Z" fill="url(#paint48_linear)"/>
<path opacity="0.5" fill-rule="evenodd" clip-rule="evenodd" d="M71.9919 223.8C72.2965 224.146 72.4488 224.547 72.4488 225.018C72.4488 237.631 72.4488 250.257 72.4488 262.87C72.4488 265.029 75.7439 265.251 76.6715 263.908C87.5811 247.876 98.4907 231.844 109.4 215.798C109.733 215.313 110.217 215.036 110.799 214.995C112.737 214.87 114.675 214.745 116.627 214.621C117.596 214.552 118.344 213.762 118.344 212.793C118.344 202.839 118.344 192.885 118.344 182.93C118.344 187.028 109.871 188.371 103.309 188.371C104.222 195.39 103.101 194.767 102.796 191.846C101.412 190.642 100.069 188.786 98.8784 186.128C98.8784 194.615 102.118 203.088 112.848 205.968C108.487 213.527 94.6973 219.189 88.9794 222.485C73.3349 231.511 77.8759 223.8 71.9919 223.8Z" fill="url(#paint49_linear)"/>
<path fill-rule="evenodd" clip-rule="evenodd" d="M122.165 154.59C120.739 155.352 119.313 156.099 117.873 156.861C117.472 157.068 117.14 157.581 117.14 157.982C117.14 164.766 117.14 171.536 117.14 178.32C117.14 179.635 118.981 179.995 118.981 181.31C118.981 183.955 118.981 186.599 118.981 189.243C118.981 190.559 117.14 192.857 117.14 194.172C117.14 200.984 117.14 207.809 117.14 214.621C117.14 215.022 117.472 215.175 117.873 214.953C119.299 214.192 120.725 213.444 122.165 212.683C122.567 212.475 122.899 211.963 122.899 211.561C122.899 192.677 122.899 173.793 122.899 154.909C122.899 154.521 122.567 154.382 122.165 154.59Z" fill="url(#paint50_linear)"/>
<path fill-rule="evenodd" clip-rule="evenodd" d="M122.899 211.575C122.899 192.691 122.899 173.807 122.899 154.922C122.899 154.521 122.567 154.369 122.165 154.59C120.739 155.352 119.313 156.099 117.873 156.861C117.472 157.068 117.14 157.581 117.14 157.982C117.14 164.766 117.14 171.536 117.14 178.32C117.14 179.635 118.981 179.995 118.981 181.31C118.981 183.955 118.981 186.599 118.981 189.243C118.981 190.559 117.14 192.857 117.14 194.172C117.14 200.984 117.14 207.809 117.14 214.621C117.14 215.022 117.472 215.175 117.873 214.953C119.299 214.192 120.725 213.444 122.165 212.683C122.567 212.475 122.899 211.976 122.899 211.575ZM117.195 155.559L121.487 153.289C121.833 153.109 122.179 153.026 122.511 153.026C122.747 153.026 122.982 153.067 123.204 153.164C123.287 153.192 123.37 153.233 123.439 153.275C123.73 153.441 123.965 153.676 124.131 153.995C124.283 154.272 124.366 154.59 124.366 154.922V211.575C124.366 212.018 124.214 212.489 123.979 212.89C123.951 212.932 123.937 212.973 123.91 213.001C123.647 213.389 123.273 213.749 122.857 213.97L118.566 216.241C118.302 216.379 118.039 216.462 117.776 216.49C117.693 216.504 117.624 216.504 117.541 216.504C117.223 216.504 116.904 216.421 116.627 216.254C116.323 216.088 116.073 215.839 115.907 215.521C115.755 215.244 115.672 214.925 115.672 214.593V194.158C115.672 193.148 116.212 192.095 116.752 191.029C117.126 190.282 117.513 189.534 117.513 189.216V181.283C117.513 181.269 117.292 181.061 117.084 180.867C116.392 180.231 115.686 179.594 115.686 178.292V157.968C115.686 157.525 115.838 157.054 116.073 156.653C116.101 156.611 116.115 156.57 116.143 156.542C116.392 156.141 116.78 155.781 117.195 155.559Z" fill="black"/>
<path fill-rule="evenodd" clip-rule="evenodd" d="M118.649 156.445C118.386 156.584 118.136 156.722 117.873 156.861C117.472 157.068 117.14 157.581 117.14 157.982C117.14 164.766 117.14 171.536 117.14 178.32C117.14 179.635 118.981 179.995 118.981 181.31C118.981 183.955 118.981 186.599 118.981 189.243C118.981 190.559 117.14 192.857 117.14 194.172C117.14 200.984 117.14 207.809 117.14 214.621C117.14 215.022 117.472 215.175 117.873 214.953C118.136 214.815 118.399 214.676 118.676 214.524C117.596 213.984 117.555 194.601 118.704 193.051C118.704 191.694 120.545 191.154 120.545 189.811C119.756 189.091 119.562 181.31 120.49 180.286C120.49 178.929 118.649 178.569 118.649 177.226C117.61 176.949 117.763 157.982 118.649 156.445Z" fill="#5CA4FF"/>
<path fill-rule="evenodd" clip-rule="evenodd" d="M122.899 211.575C122.899 211.976 122.567 212.475 122.165 212.696C120.739 213.458 119.313 214.205 117.873 214.967C117.472 215.175 117.14 215.022 117.14 214.635C117.14 213.043 122.899 210.426 122.899 211.575Z" fill="#1D41B3"/>
<path fill-rule="evenodd" clip-rule="evenodd" d="M122.899 186.724C122.899 188.219 122.899 189.714 122.899 191.209C122.11 191.237 118.649 192.358 117.14 194.172C117.14 192.857 118.981 190.559 118.981 189.243C119.645 191.237 122.221 188.994 122.899 186.724Z" fill="url(#paint51_linear)"/>
<path fill-rule="evenodd" clip-rule="evenodd" d="M122.899 179.358C122.899 178.195 122.899 177.032 122.899 175.869C120.988 175.869 117.472 178.071 117.264 178.86C117.666 179.76 118.981 180.189 118.981 181.31C120.808 180.078 122.013 179.829 122.899 179.358Z" fill="url(#paint52_linear)"/>
<path fill-rule="evenodd" clip-rule="evenodd" d="M122.899 154.922C122.899 154.521 122.567 154.369 122.165 154.59C120.739 155.352 119.313 156.099 117.873 156.861C117.472 157.068 117.14 157.581 117.14 157.982C117.846 156.971 121.888 155.019 122.899 154.922Z" fill="#71AFFF"/>
<path fill-rule="evenodd" clip-rule="evenodd" d="M117.181 160.903C117.015 161.014 116.863 160.696 117.043 160.585L118.718 159.463C119.105 159.2 119.535 159.366 119.535 159.948V167.452C119.535 167.95 119.216 168.504 118.87 168.739L117.195 169.861C117.029 169.971 116.876 169.653 117.056 169.542L118.732 168.421C118.981 168.255 119.244 167.812 119.244 167.452V159.948C119.244 159.643 119.064 159.657 118.87 159.782L117.181 160.903Z" fill="#00045D"/>
<path fill-rule="evenodd" clip-rule="evenodd" d="M117.181 198.962C117.015 199.073 116.863 198.755 117.043 198.644L118.718 197.523C119.105 197.26 119.535 197.426 119.535 198.007V205.511C119.535 206.009 119.216 206.563 118.87 206.799L117.195 207.92C117.029 208.031 116.876 207.712 117.056 207.602L118.732 206.48C118.981 206.314 119.244 205.871 119.244 205.511V198.007C119.244 197.703 119.064 197.716 118.87 197.841L117.181 198.962Z" fill="#00045D"/>
<path fill-rule="evenodd" clip-rule="evenodd" d="M155.005 159.824L202.617 189.52C203.849 190.282 205.427 189.41 205.427 187.97V172.921C205.427 171.91 206.258 171.079 207.269 171.079H210.938C211.948 171.079 212.779 171.91 212.779 172.921V207.103C212.779 207.574 212.627 207.975 212.322 208.322L198.561 223.8C198.256 224.146 198.104 224.548 198.104 225.018V262.87C198.104 265.03 194.809 265.251 193.881 263.908L161.138 215.798C160.806 215.313 160.321 215.036 159.74 214.995L153.911 214.621C152.942 214.552 152.195 213.763 152.195 212.793V161.388C152.195 159.934 153.787 159.062 155.005 159.824Z" fill="url(#paint53_linear)"/>
<path fill-rule="evenodd" clip-rule="evenodd" d="M155.78 158.577L203.392 188.274C203.462 188.316 203.531 188.33 203.586 188.33C203.655 188.33 203.711 188.316 203.766 188.288C203.822 188.261 203.863 188.219 203.905 188.164C203.932 188.108 203.96 188.039 203.96 187.97V172.921C203.96 172.007 204.334 171.19 204.929 170.595C205.524 169.999 206.355 169.626 207.269 169.626H210.938C211.852 169.626 212.668 169.999 213.278 170.595C213.873 171.19 214.247 172.021 214.247 172.934V207.117C214.247 207.532 214.177 207.92 214.039 208.294C213.901 208.668 213.693 209 213.416 209.318L199.654 224.797C199.613 224.838 199.599 224.88 199.585 224.907C199.571 224.935 199.571 224.977 199.571 225.046V262.897C199.571 263.756 199.267 264.476 198.782 265.016C198.754 265.057 198.713 265.085 198.671 265.126C198.187 265.625 197.564 265.943 196.885 266.109C196.221 266.275 195.515 266.276 194.864 266.137C193.978 265.943 193.175 265.486 192.677 264.753L159.934 216.628C159.892 216.573 159.851 216.531 159.823 216.504C159.782 216.476 159.726 216.462 159.671 216.462L153.842 216.088C152.97 216.033 152.195 215.645 151.641 215.05C151.087 214.455 150.741 213.666 150.741 212.793V161.388C150.741 160.737 150.921 160.142 151.239 159.644C151.544 159.159 151.959 158.771 152.444 158.508C152.928 158.231 153.482 158.093 154.05 158.093C154.617 158.079 155.227 158.231 155.78 158.577ZM155.005 159.823L202.617 189.52C203.849 190.282 205.428 189.41 205.428 187.97V172.921C205.428 171.91 206.258 171.079 207.269 171.079H210.938C211.948 171.079 212.779 171.91 212.779 172.921V207.103C212.779 207.574 212.627 207.975 212.322 208.322L198.561 223.8C198.256 224.146 198.104 224.548 198.104 225.018V262.87C198.104 265.029 194.809 265.251 193.881 263.908L161.138 215.798C160.806 215.313 160.322 215.036 159.74 214.995L153.911 214.621C152.942 214.552 152.195 213.762 152.195 212.793V161.388C152.195 159.934 153.787 159.062 155.005 159.823Z" fill="black"/>
<path fill-rule="evenodd" clip-rule="evenodd" d="M184.744 227.621L175.855 223.232V237.423L184.744 250.493V227.621Z" fill="url(#paint54_linear)"/>
<path fill-rule="evenodd" clip-rule="evenodd" d="M200.014 187.901L190.42 181.906V206.203L175.855 223.232L184.744 227.621L200.014 208.391V187.901Z" fill="url(#paint55_linear)"/>
<path opacity="0.5" fill-rule="evenodd" clip-rule="evenodd" d="M198.09 253.871V262.87C198.09 265.029 194.795 265.251 193.867 263.908C182.958 247.876 172.048 231.83 161.138 215.798C160.806 215.313 160.321 215.036 159.74 214.995L153.911 214.621C152.942 214.552 152.195 213.763 152.195 212.793V209.042C153.011 209.042 152.818 211.88 155.531 211.88C157.345 211.88 162.495 212.24 163.201 213.306C165.693 217.03 172.975 225.184 174.263 228.355C174.803 229.698 174.803 232.107 175.094 233.436C175.62 235.845 176.603 232.398 177.101 232.301C177.572 232.204 178.596 233.962 178.873 234.363C180.299 236.412 181.767 238.558 183.054 240.69C184.037 242.393 184.12 243.722 184.314 245.564C184.73 249.468 184.771 247.53 185.713 246.741C186.377 246.187 186.474 245.855 187.097 246.671C188.565 248.596 195.598 259.229 198.09 253.871Z" fill="url(#paint56_linear)"/>
<path opacity="0.5" fill-rule="evenodd" clip-rule="evenodd" d="M155.005 159.824C170.871 169.722 186.751 179.621 202.617 189.52C203.849 190.282 205.428 189.41 205.428 187.97C205.428 182.958 205.428 177.932 205.428 172.921C205.428 171.91 206.258 171.079 207.269 171.079C208.46 171.079 209.996 171.079 210.37 171.079C205.967 171.079 205.746 194.034 205.22 196.263C204.777 193.522 202.963 192.857 202.229 192.442C198.99 190.573 195.778 188.579 192.607 186.599C191.195 185.741 190.96 188.454 190.351 188.274C189.908 188.15 189.991 185.104 188.288 183.913C183.428 180.521 177.78 177.268 172.712 174.07C172.034 173.641 171.757 174.014 171.425 174.624C170.954 175.468 170.497 176.783 170.054 174.97C169.791 173.89 169.584 172.284 168.684 171.564C164.392 168.158 157.234 164.295 152.195 161.388C152.195 159.934 153.787 159.062 155.005 159.824Z" fill="url(#paint57_linear)"/>
<path fill-rule="evenodd" clip-rule="evenodd" d="M205.4 188.371C205.4 188.136 205.026 188.87 205.026 189.119V198.173L202.797 196.789V193.134C202.797 193.065 202.756 193.009 202.7 192.968L200.762 191.929V190.531L202.506 191.5C202.631 191.583 202.797 191.5 202.797 191.348V189.631C202.797 189.396 202.423 189.174 202.423 189.423V191.043L200.651 190.06C200.527 189.991 200.374 190.088 200.374 190.226V192.054C200.374 192.123 200.416 192.192 200.485 192.22L202.423 193.245V196.567L190.406 189.077V181.92C190.406 181.684 190.032 181.449 190.032 181.684V188.842L170.622 176.742V169.584C170.622 169.349 170.248 169.113 170.248 169.349V176.506L152.181 165.251C151.973 165.126 151.973 165.541 152.181 165.68L205.012 198.616V205.912L190.697 223.177L152.208 204.39C151.987 204.279 151.987 204.694 152.208 204.791L190.572 223.509V230.072L160.778 215.382C160.141 215.064 160.903 215.853 161.304 216.047L175.481 223.038V236.883C175.481 237.118 175.855 237.672 175.855 237.423V223.232L184.744 227.621V250.492C184.744 250.728 185.117 251.282 185.117 251.046V227.801L190.572 230.487V259.035C190.572 259.27 190.946 259.796 190.946 259.561C190.946 237.229 190.946 234.696 190.946 223.634L198.104 225.198C198.339 225.254 198.353 224.88 198.118 224.824L191.098 223.288L205.303 206.162L212.71 207.657C212.945 207.698 213.014 207.338 212.779 207.297L205.414 205.802V188.371H205.4Z" fill="#00045D"/>
<path fill-rule="evenodd" clip-rule="evenodd" d="M187.554 196.803L165.056 182.612C164.641 182.349 162.675 185.478 163.09 185.741L185.588 199.932C187.651 201.233 189.617 198.104 187.554 196.803Z" fill="#00045D"/>
<path fill-rule="evenodd" clip-rule="evenodd" d="M187.402 197.052L164.904 182.847L163.229 185.492L185.727 199.682C187.485 200.804 189.16 198.146 187.402 197.052Z" fill="url(#paint58_linear)"/>
<path fill-rule="evenodd" clip-rule="evenodd" d="M163.561 184.965L164.558 183.373L187.056 197.564C188.108 198.229 187.111 199.821 186.059 199.156L163.561 184.965Z" fill="url(#paint59_linear)"/>
<path fill-rule="evenodd" clip-rule="evenodd" d="M187.554 203.074L165.056 188.87C164.641 188.607 162.675 191.736 163.09 191.999L185.588 206.189C187.651 207.491 189.617 204.376 187.554 203.074Z" fill="#00045D"/>
<path fill-rule="evenodd" clip-rule="evenodd" d="M187.402 203.31L164.904 189.105L163.229 191.749L185.727 205.94C187.485 207.062 189.16 204.417 187.402 203.31Z" fill="url(#paint60_linear)"/>
<path fill-rule="evenodd" clip-rule="evenodd" d="M163.561 191.223L164.558 189.631L187.056 203.822C188.108 204.486 187.111 206.079 186.059 205.414L163.561 191.223Z" fill="url(#paint61_linear)"/>
<path fill-rule="evenodd" clip-rule="evenodd" d="M181.296 206.203L158.799 191.999C158.383 191.736 156.417 194.864 156.833 195.128L179.33 209.318C181.393 210.62 183.359 207.505 181.296 206.203Z" fill="#00045D"/>
<path fill-rule="evenodd" clip-rule="evenodd" d="M181.144 206.439L158.646 192.234L156.971 194.878L179.469 209.069C181.227 210.191 182.902 207.546 181.144 206.439Z" fill="url(#paint62_linear)"/>
<path fill-rule="evenodd" clip-rule="evenodd" d="M157.303 194.352L158.3 192.76L180.798 206.951C181.85 207.615 180.853 209.208 179.801 208.543L157.303 194.352Z" fill="url(#paint63_linear)"/>
<path fill-rule="evenodd" clip-rule="evenodd" d="M152.195 204.14C161.623 204.14 169.251 196.498 169.251 187.084C169.251 177.656 161.609 170.027 152.195 170.027C152.195 181.394 152.195 192.774 152.195 204.14Z" fill="#00045D"/>
<path fill-rule="evenodd" clip-rule="evenodd" d="M152.195 170.359C152.195 181.518 152.195 192.663 152.195 203.822C161.429 203.822 168.919 196.332 168.919 187.098C168.919 177.863 161.443 170.359 152.195 170.359Z" fill="url(#paint64_linear)"/>
<path fill-rule="evenodd" clip-rule="evenodd" d="M152.195 171.245C152.195 181.809 152.195 192.359 152.195 202.922C160.944 202.922 168.033 195.834 168.033 187.084C168.033 178.334 160.944 171.245 152.195 171.245Z" fill="url(#paint65_linear)"/>
<path fill-rule="evenodd" clip-rule="evenodd" d="M167.548 183.166L167.451 182.806L166.731 183L166.828 183.36L167.548 183.166ZM156.472 171.827L156.113 171.73L155.919 172.45L156.279 172.547L156.472 171.827ZM160.28 173.461L159.961 173.281L159.588 173.931L159.906 174.111L160.28 173.461ZM163.533 176.008L163.27 175.745L162.744 176.271L163.007 176.534L163.533 176.008ZM166.012 179.331L165.832 179.012L165.181 179.386L165.361 179.705L166.012 179.331ZM156.14 202.41L156.5 202.313L156.306 201.593L155.946 201.69L156.14 202.41ZM159.975 200.873L160.294 200.693L159.92 200.042L159.601 200.222L159.975 200.873ZM163.27 198.409L163.533 198.146L163.007 197.62L162.744 197.883L163.27 198.409ZM165.832 195.169L166.012 194.851L165.361 194.477L165.181 194.795L165.832 195.169ZM167.451 191.362L167.548 191.002L166.828 190.808L166.731 191.168L167.451 191.362ZM168.033 187.264V186.904H167.285V187.278H168.033V187.264Z" fill="#00045D"/>
<path fill-rule="evenodd" clip-rule="evenodd" d="M152.195 171.993C152.195 182.058 152.195 192.109 152.195 202.175C160.529 202.175 167.285 195.418 167.285 187.084C167.285 178.749 160.529 171.993 152.195 171.993Z" fill="url(#paint66_linear)"/>
<path fill-rule="evenodd" clip-rule="evenodd" d="M152.195 172.491V201.676C160.252 201.676 166.787 195.141 166.787 187.084C166.787 179.026 160.266 172.491 152.195 172.491Z" fill="url(#paint67_linear)"/>
<path fill-rule="evenodd" clip-rule="evenodd" d="M192.261 234.585C192.261 233.242 192.635 226.68 194.504 226.68C196.359 226.68 196.747 233.242 196.747 234.585C196.747 236.44 192.261 236.44 192.261 234.585Z" fill="#00045D"/>
<path fill-rule="evenodd" clip-rule="evenodd" d="M192.538 234.585C192.538 231.968 193.203 226.943 194.518 226.943C195.833 226.943 196.498 231.996 196.498 234.585C196.484 236.122 192.538 236.122 192.538 234.585Z" fill="#3A68DD"/>
<path fill-rule="evenodd" clip-rule="evenodd" d="M194.504 226.943C196.069 226.943 196.484 233.353 196.484 234.585C195.819 234.405 195.958 234.059 194.504 234.059C193.051 234.059 193.189 234.419 192.524 234.585C192.538 233.367 192.94 226.943 194.504 226.943Z" fill="url(#paint68_radial)"/>
<path opacity="0.5" fill-rule="evenodd" clip-rule="evenodd" d="M194.504 226.943C194.836 226.943 195.127 227.247 195.362 227.732C194.449 228.77 193.521 231.941 194.504 234.059C193.701 234.059 193.383 234.17 193.147 234.294C192.677 232.218 193.881 227.51 194.504 226.943Z" fill="url(#paint69_linear)"/>
<path fill-rule="evenodd" clip-rule="evenodd" d="M192.538 234.585C193.812 234.087 195.196 234.087 196.484 234.585C196.484 236.122 192.538 236.122 192.538 234.585Z" fill="url(#paint70_linear)"/>
<path fill-rule="evenodd" clip-rule="evenodd" d="M193.798 234.308C194.269 234.114 194.739 234.114 195.21 234.308C195.21 235.554 193.798 235.554 193.798 234.308Z" fill="url(#paint71_radial)"/>
<path fill-rule="evenodd" clip-rule="evenodd" d="M192.594 234.696C192.441 234.779 192.317 234.557 192.455 234.474C193.424 233.921 195.57 233.921 196.539 234.474C196.692 234.557 196.553 234.793 196.401 234.696C195.529 234.197 193.48 234.197 192.594 234.696Z" fill="#00045D"/>
<path fill-rule="evenodd" clip-rule="evenodd" d="M192.884 241.95C192.884 240.981 193.161 236.219 194.504 236.219C195.847 236.219 196.124 240.981 196.124 241.95C196.124 243.293 192.884 243.293 192.884 241.95Z" fill="#00045D"/>
<path fill-rule="evenodd" clip-rule="evenodd" d="M193.078 241.95C193.078 240.054 193.549 236.412 194.504 236.412C195.459 236.412 195.93 240.081 195.93 241.95C195.944 243.072 193.078 243.072 193.078 241.95Z" fill="#3A68DD"/>
<path fill-rule="evenodd" clip-rule="evenodd" d="M194.504 236.412C195.639 236.412 195.93 241.064 195.93 241.95C195.459 241.826 195.556 241.563 194.504 241.563C193.452 241.563 193.549 241.826 193.078 241.95C193.078 241.064 193.369 236.412 194.504 236.412Z" fill="url(#paint72_radial)"/>
<path opacity="0.5" fill-rule="evenodd" clip-rule="evenodd" d="M194.504 236.412C194.753 236.412 194.961 236.634 195.127 236.98C194.462 237.728 193.784 240.04 194.504 241.563C193.923 241.563 193.687 241.646 193.521 241.729C193.189 240.234 194.047 236.814 194.504 236.412Z" fill="url(#paint73_linear)"/>
<path fill-rule="evenodd" clip-rule="evenodd" d="M193.078 241.95C194.006 241.59 195.002 241.59 195.944 241.95C195.944 243.072 193.078 243.072 193.078 241.95Z" fill="url(#paint74_linear)"/>
<path fill-rule="evenodd" clip-rule="evenodd" d="M193.992 241.757C194.324 241.618 194.67 241.618 195.016 241.757C195.016 242.656 193.992 242.656 193.992 241.757Z" fill="url(#paint75_radial)"/>
<path fill-rule="evenodd" clip-rule="evenodd" d="M193.12 242.033C193.009 242.103 192.912 241.937 193.023 241.867C193.715 241.466 195.279 241.466 195.985 241.867C196.096 241.937 195.999 242.089 195.889 242.033C195.252 241.673 193.756 241.673 193.12 242.033Z" fill="#00045D"/>
<path fill-rule="evenodd" clip-rule="evenodd" d="M193.494 246.561C193.494 245.965 193.66 243.003 194.504 243.003C195.335 243.003 195.515 245.951 195.515 246.561C195.515 247.405 193.494 247.405 193.494 246.561Z" fill="#00045D"/>
<path fill-rule="evenodd" clip-rule="evenodd" d="M193.618 246.561C193.618 245.384 193.909 243.127 194.504 243.127C195.1 243.127 195.39 245.398 195.39 246.561C195.39 247.253 193.618 247.253 193.618 246.561Z" fill="#3A68DD"/>
<path fill-rule="evenodd" clip-rule="evenodd" d="M194.504 243.127C195.21 243.127 195.39 246.007 195.39 246.561C195.1 246.478 195.155 246.325 194.504 246.325C193.854 246.325 193.909 246.478 193.618 246.561C193.618 246.007 193.798 243.127 194.504 243.127Z" fill="url(#paint76_radial)"/>
<path opacity="0.5" fill-rule="evenodd" clip-rule="evenodd" d="M194.504 243.127C194.657 243.127 194.781 243.266 194.892 243.487C194.477 243.958 194.061 245.384 194.504 246.325C194.144 246.325 194.006 246.381 193.895 246.436C193.687 245.495 194.227 243.376 194.504 243.127Z" fill="url(#paint77_linear)"/>
<path fill-rule="evenodd" clip-rule="evenodd" d="M193.618 246.561C194.186 246.339 194.809 246.339 195.39 246.561C195.39 247.253 193.618 247.253 193.618 246.561Z" fill="url(#paint78_linear)"/>
<path fill-rule="evenodd" clip-rule="evenodd" d="M194.186 246.436C194.393 246.353 194.615 246.353 194.823 246.436C194.823 247.004 194.186 247.004 194.186 246.436Z" fill="url(#paint79_radial)"/>
<path fill-rule="evenodd" clip-rule="evenodd" d="M193.646 246.616C193.577 246.658 193.521 246.547 193.59 246.519C194.02 246.27 194.989 246.27 195.432 246.519C195.501 246.561 195.446 246.658 195.376 246.616C194.975 246.395 194.047 246.395 193.646 246.616Z" fill="#00045D"/>
<path opacity="0.5" fill-rule="evenodd" clip-rule="evenodd" d="M189.285 231.387V257.18L190.558 259.09V230.487L161.304 216.047L162.786 218.22L189.285 231.387Z" fill="url(#paint80_linear)"/>
<path fill-rule="evenodd" clip-rule="evenodd" d="M209.096 174.153C209.969 174.153 210.661 175.496 210.661 177.143C210.661 178.791 209.955 180.134 209.096 180.134C208.224 180.134 207.532 178.791 207.532 177.143C207.532 175.496 208.238 174.153 209.096 174.153Z" fill="url(#paint81_linear)"/>
<path fill-rule="evenodd" clip-rule="evenodd" d="M209.096 174.762C209.789 174.762 210.342 175.828 210.342 177.143C210.342 178.458 209.789 179.525 209.096 179.525C208.404 179.525 207.85 178.458 207.85 177.143C207.85 175.828 208.404 174.762 209.096 174.762Z" fill="url(#paint82_linear)"/>
<path fill-rule="evenodd" clip-rule="evenodd" d="M209.096 175.537C209.678 175.537 210.135 176.423 210.135 177.517C210.135 178.611 209.664 179.497 209.096 179.497C208.529 179.497 208.058 178.611 208.058 177.517C208.058 176.437 208.529 175.537 209.096 175.537Z" fill="url(#paint83_linear)"/>
<path fill-rule="evenodd" clip-rule="evenodd" d="M209.096 180.12C209.692 180.12 210.176 181.047 210.176 182.183C210.176 183.318 209.692 184.245 209.096 184.245C208.501 184.245 208.017 183.318 208.017 182.183C208.017 181.047 208.501 180.12 209.096 180.12Z" fill="url(#paint84_linear)"/>
<path fill-rule="evenodd" clip-rule="evenodd" d="M209.096 180.549C209.567 180.549 209.955 181.283 209.955 182.183C209.955 183.082 209.567 183.816 209.096 183.816C208.626 183.816 208.238 183.082 208.238 182.183C208.238 181.283 208.626 180.549 209.096 180.549Z" fill="url(#paint85_linear)"/>
<path fill-rule="evenodd" clip-rule="evenodd" d="M209.096 181.089C209.498 181.089 209.816 181.698 209.816 182.459C209.816 183.221 209.498 183.83 209.096 183.83C208.695 183.83 208.376 183.221 208.376 182.459C208.376 181.698 208.709 181.089 209.096 181.089Z" fill="url(#paint86_linear)"/>
<path fill-rule="evenodd" clip-rule="evenodd" d="M209.096 184.245C209.429 184.245 209.692 184.758 209.692 185.381C209.692 186.004 209.429 186.516 209.096 186.516C208.764 186.516 208.501 186.004 208.501 185.381C208.501 184.758 208.764 184.245 209.096 184.245Z" fill="url(#paint87_linear)"/>
<path fill-rule="evenodd" clip-rule="evenodd" d="M209.096 184.481C209.359 184.481 209.567 184.882 209.567 185.381C209.567 185.879 209.359 186.281 209.096 186.281C208.833 186.281 208.626 185.879 208.626 185.381C208.626 184.882 208.833 184.481 209.096 184.481Z" fill="url(#paint88_linear)"/>
<path fill-rule="evenodd" clip-rule="evenodd" d="M209.096 184.772C209.318 184.772 209.498 185.104 209.498 185.533C209.498 185.948 209.318 186.295 209.096 186.295C208.875 186.295 208.695 185.962 208.695 185.533C208.709 185.118 208.875 184.772 209.096 184.772Z" fill="url(#paint89_linear)"/>
<path fill-rule="evenodd" clip-rule="evenodd" d="M188.357 189.797L184.384 187.25C183.788 186.89 183.234 187.388 183.234 188.025V191.625C183.234 192.068 183.47 192.608 183.844 192.857L187.789 195.391C188.385 195.778 188.966 195.294 188.966 194.629V191.03C188.966 190.573 188.731 190.033 188.357 189.797Z" fill="#00045D"/>
<path fill-rule="evenodd" clip-rule="evenodd" d="M188.177 190.157L184.024 187.485C183.802 187.347 183.608 187.485 183.608 187.818V191.611C183.608 191.943 183.788 192.317 184.024 192.469L188.177 195.141C188.399 195.28 188.592 195.141 188.592 194.809V191.016C188.592 190.697 188.412 190.31 188.177 190.157Z" fill="url(#paint90_linear)"/>
<path fill-rule="evenodd" clip-rule="evenodd" d="M187.748 190.407L184.467 188.302C184.287 188.191 184.148 188.302 184.148 188.565V191.57C184.148 191.833 184.287 192.137 184.467 192.248L187.748 194.352C187.928 194.463 188.066 194.352 188.066 194.089V191.085C188.066 190.822 187.928 190.517 187.748 190.407Z" fill="url(#paint91_linear)"/>
<path fill-rule="evenodd" clip-rule="evenodd" d="M187.416 190.586L184.799 188.911C184.66 188.814 184.536 188.911 184.536 189.119V191.5C184.536 191.708 184.647 191.943 184.799 192.04L187.416 193.715C187.554 193.812 187.679 193.715 187.679 193.508V191.126C187.665 190.919 187.554 190.683 187.416 190.586Z" fill="url(#paint92_radial)"/>
<path opacity="0.5" fill-rule="evenodd" clip-rule="evenodd" d="M187.748 190.407C186.903 192.414 184.148 189.701 184.148 191.556C184.148 191.819 184.287 192.123 184.467 192.234C186.336 191.86 187.443 193.452 188.066 191.085C188.066 190.822 187.928 190.517 187.748 190.407Z" fill="url(#paint93_linear)"/>
<path fill-rule="evenodd" clip-rule="evenodd" d="M181.712 185.229L177.738 182.681C177.143 182.321 176.589 182.82 176.589 183.457V187.056C176.589 187.499 176.824 188.039 177.198 188.288L181.144 190.822C181.739 191.21 182.321 190.725 182.321 190.06V186.461C182.321 186.004 182.085 185.464 181.712 185.229Z" fill="#00045D"/>
<path fill-rule="evenodd" clip-rule="evenodd" d="M181.532 185.589L177.378 182.917C177.157 182.778 176.963 182.917 176.963 183.249V187.042C176.963 187.375 177.143 187.748 177.378 187.901L181.532 190.573C181.753 190.711 181.947 190.573 181.947 190.24V186.447C181.933 186.129 181.753 185.741 181.532 185.589Z" fill="url(#paint94_linear)"/>
<path fill-rule="evenodd" clip-rule="evenodd" d="M181.088 185.838L177.807 183.733C177.627 183.623 177.489 183.733 177.489 183.997V187.001C177.489 187.264 177.627 187.568 177.807 187.679L181.088 189.784C181.268 189.894 181.407 189.784 181.407 189.521V186.516C181.421 186.253 181.268 185.949 181.088 185.838Z" fill="url(#paint95_linear)"/>
<path fill-rule="evenodd" clip-rule="evenodd" d="M180.756 186.018L178.14 184.343C178.001 184.246 177.876 184.343 177.876 184.55V186.932C177.876 187.139 177.987 187.375 178.14 187.471L180.756 189.147C180.895 189.244 181.019 189.147 181.019 188.939V186.558C181.019 186.35 180.895 186.115 180.756 186.018Z" fill="url(#paint96_radial)"/>
<path opacity="0.5" fill-rule="evenodd" clip-rule="evenodd" d="M181.088 185.838C180.244 187.845 177.489 185.132 177.489 186.987C177.489 187.25 177.627 187.555 177.807 187.665C179.676 187.291 180.784 188.884 181.407 186.516C181.421 186.253 181.268 185.949 181.088 185.838Z" fill="url(#paint97_linear)"/>
<path fill-rule="evenodd" clip-rule="evenodd" d="M175.052 181.311L171.079 178.763C170.483 178.403 169.93 178.902 169.93 179.538V183.138C169.93 183.581 170.165 184.121 170.539 184.37L174.485 186.904C175.08 187.291 175.661 186.807 175.661 186.142V182.543C175.661 182.1 175.426 181.56 175.052 181.311Z" fill="#00045D"/>
<path fill-rule="evenodd" clip-rule="evenodd" d="M174.872 181.684L170.719 179.012C170.497 178.874 170.304 179.012 170.304 179.345V183.138C170.304 183.47 170.484 183.844 170.719 183.996L174.872 186.668C175.094 186.807 175.288 186.668 175.288 186.336V182.543C175.288 182.21 175.108 181.823 174.872 181.684Z" fill="url(#paint98_linear)"/>
<path fill-rule="evenodd" clip-rule="evenodd" d="M174.443 181.92L171.162 179.815C170.982 179.705 170.844 179.815 170.844 180.078V183.083C170.844 183.346 170.982 183.65 171.162 183.761L174.443 185.866C174.623 185.976 174.762 185.866 174.762 185.602V182.598C174.762 182.335 174.623 182.044 174.443 181.92Z" fill="url(#paint99_linear)"/>
<path fill-rule="evenodd" clip-rule="evenodd" d="M174.111 182.114L171.494 180.438C171.356 180.341 171.231 180.438 171.231 180.646V183.027C171.231 183.235 171.342 183.47 171.494 183.567L174.111 185.243C174.249 185.339 174.374 185.243 174.374 185.035V182.654C174.36 182.446 174.249 182.197 174.111 182.114Z" fill="url(#paint100_radial)"/>
<path opacity="0.5" fill-rule="evenodd" clip-rule="evenodd" d="M174.443 181.92C173.599 183.927 170.844 181.214 170.844 183.069C170.844 183.332 170.982 183.637 171.162 183.747C173.031 183.373 174.139 184.966 174.762 182.598C174.762 182.335 174.623 182.044 174.443 181.92Z" fill="url(#paint101_linear)"/>
<path opacity="0.5" fill-rule="evenodd" clip-rule="evenodd" d="M198.547 223.8C198.242 224.146 198.09 224.547 198.09 225.018C198.09 237.631 198.09 250.257 198.09 262.87C198.09 265.029 194.795 265.251 193.867 263.908C182.958 247.876 172.048 231.83 161.138 215.798C160.806 215.313 160.321 215.036 159.74 214.995C157.802 214.87 155.863 214.745 153.911 214.621C152.942 214.552 152.195 213.762 152.195 212.793C152.195 202.839 152.195 192.885 152.195 182.93C152.195 187.028 160.668 188.371 167.23 188.371C166.316 195.39 167.438 194.767 167.742 191.846C169.127 190.642 170.47 188.786 171.66 186.128C171.66 194.615 168.421 203.088 157.691 205.968C162.052 213.527 175.841 219.189 181.559 222.485C197.218 231.511 192.677 223.8 198.547 223.8Z" fill="url(#paint102_linear)"/>
<path fill-rule="evenodd" clip-rule="evenodd" d="M148.387 154.59C149.813 155.352 151.239 156.099 152.679 156.861C153.081 157.068 153.413 157.581 153.413 157.982C153.413 164.766 153.413 171.536 153.413 178.32C153.413 179.635 151.572 179.995 151.572 181.31C151.572 183.955 151.572 186.599 151.572 189.243C151.572 190.559 153.413 192.857 153.413 194.172C153.413 200.984 153.413 207.809 153.413 214.621C153.413 215.022 153.081 215.175 152.679 214.953C151.253 214.192 149.827 213.444 148.387 212.683C147.986 212.475 147.653 211.963 147.653 211.561C147.653 192.677 147.653 173.793 147.653 154.909C147.653 154.521 147.972 154.382 148.387 154.59Z" fill="url(#paint103_linear)"/>
<path fill-rule="evenodd" clip-rule="evenodd" d="M149.066 153.289L153.357 155.559C153.787 155.781 154.16 156.141 154.41 156.528C154.437 156.57 154.451 156.611 154.479 156.639C154.728 157.041 154.867 157.511 154.867 157.954V178.292C154.867 179.594 154.16 180.231 153.468 180.867C153.247 181.061 153.039 181.269 153.039 181.283V189.216C153.039 189.534 153.413 190.282 153.801 191.029C154.34 192.095 154.88 193.148 154.88 194.158V214.607C154.88 214.939 154.797 215.258 154.645 215.535C154.479 215.853 154.23 216.088 153.925 216.268C153.648 216.421 153.33 216.518 153.011 216.518C152.928 216.518 152.845 216.518 152.776 216.504C152.513 216.476 152.25 216.393 151.987 216.254L147.695 213.984C147.266 213.762 146.892 213.402 146.643 213.015C146.615 212.973 146.601 212.932 146.574 212.904C146.324 212.503 146.186 212.032 146.186 211.589V154.922C146.186 154.59 146.269 154.272 146.421 153.995C146.587 153.676 146.837 153.441 147.114 153.275C147.197 153.233 147.28 153.192 147.349 153.164C147.57 153.081 147.792 153.026 148.041 153.026C148.373 153.026 148.719 153.109 149.066 153.289ZM147.653 211.575C147.653 192.691 147.653 173.807 147.653 154.922C147.653 154.521 147.986 154.369 148.387 154.59C149.813 155.352 151.239 156.099 152.679 156.861C153.081 157.068 153.413 157.581 153.413 157.982C153.413 164.766 153.413 171.536 153.413 178.32C153.413 179.635 151.571 179.995 151.571 181.31C151.571 183.955 151.571 186.599 151.571 189.243C151.571 190.559 153.413 192.857 153.413 194.172C153.413 200.984 153.413 207.809 153.413 214.621C153.413 215.022 153.081 215.175 152.679 214.953C151.253 214.192 149.827 213.444 148.387 212.683C147.972 212.475 147.653 211.976 147.653 211.575Z" fill="black"/>
<path fill-rule="evenodd" clip-rule="evenodd" d="M151.89 156.445C152.153 156.584 152.402 156.722 152.665 156.861C153.067 157.068 153.399 157.581 153.399 157.982C153.399 164.766 153.399 171.536 153.399 178.32C153.399 179.635 151.558 179.995 151.558 181.31C151.558 183.955 151.558 186.599 151.558 189.243C151.558 190.559 153.399 192.857 153.399 194.172C153.399 200.984 153.399 207.809 153.399 214.621C153.399 215.022 153.067 215.175 152.665 214.953C152.402 214.815 152.139 214.676 151.862 214.524C152.942 213.984 152.984 194.601 151.835 193.051C151.835 191.694 149.993 191.154 149.993 189.811C150.782 189.091 150.976 181.31 150.049 180.286C150.049 178.929 151.89 178.569 151.89 177.226C152.928 176.949 152.79 157.982 151.89 156.445Z" fill="#5CA4FF"/>
<path fill-rule="evenodd" clip-rule="evenodd" d="M147.653 211.575C147.653 211.976 147.986 212.475 148.387 212.696C149.813 213.458 151.239 214.205 152.679 214.967C153.081 215.175 153.413 215.022 153.413 214.635C153.399 213.043 147.653 210.426 147.653 211.575Z" fill="#1D41B3"/>
<path fill-rule="evenodd" clip-rule="evenodd" d="M147.653 186.724C147.653 188.219 147.653 189.714 147.653 191.209C148.443 191.237 151.904 192.358 153.413 194.172C153.413 192.857 151.572 190.559 151.572 189.243C150.907 191.237 148.318 188.994 147.653 186.724Z" fill="url(#paint104_linear)"/>
<path fill-rule="evenodd" clip-rule="evenodd" d="M147.653 179.358C147.653 178.195 147.653 177.032 147.653 175.869C149.564 175.869 153.081 178.071 153.288 178.86C152.887 179.76 151.571 180.189 151.571 181.31C149.744 180.078 148.526 179.829 147.653 179.358Z" fill="url(#paint105_linear)"/>
<path fill-rule="evenodd" clip-rule="evenodd" d="M147.653 154.922C147.653 154.521 147.986 154.369 148.387 154.59C149.813 155.352 151.239 156.099 152.679 156.861C153.081 157.068 153.413 157.581 153.413 157.982C152.693 156.971 148.664 155.019 147.653 154.922Z" fill="#71AFFF"/>
<path fill-rule="evenodd" clip-rule="evenodd" d="M153.371 160.903C153.537 161.014 153.69 160.696 153.51 160.585L151.835 159.463C151.447 159.2 151.018 159.366 151.018 159.948V167.452C151.018 167.95 151.336 168.504 151.682 168.739L153.357 169.861C153.524 169.971 153.676 169.653 153.496 169.542L151.821 168.421C151.572 168.255 151.308 167.812 151.308 167.452V159.948C151.308 159.643 151.488 159.657 151.682 159.782L153.371 160.903Z" fill="#00045D"/>
<path fill-rule="evenodd" clip-rule="evenodd" d="M153.371 198.962C153.537 199.073 153.69 198.755 153.51 198.644L151.835 197.523C151.447 197.26 151.018 197.426 151.018 198.007V205.511C151.018 206.009 151.336 206.563 151.682 206.799L153.357 207.92C153.524 208.031 153.676 207.712 153.496 207.602L151.821 206.48C151.572 206.314 151.308 205.871 151.308 205.511V198.007C151.308 197.703 151.488 197.716 151.682 197.841L153.371 198.962Z" fill="#00045D"/>
</g>
<defs>
<linearGradient id="paint0_linear" x1="123.587" y1="202.821" x2="72.695" y2="216.457" gradientUnits="userSpaceOnUse">
<stop stop-color="#3654A5"/>
<stop offset="1" stop-color="#5781C1"/>
</linearGradient>
<linearGradient id="paint1_linear" x1="90.2481" y1="226.156" x2="90.2498" y2="243.958" gradientUnits="userSpaceOnUse">
<stop stop-color="#CC721C"/>
<stop offset="1" stop-color="#F5841F"/>
</linearGradient>
<linearGradient id="paint2_linear" x1="82.6131" y1="226.154" x2="82.6149" y2="182.62" gradientUnits="userSpaceOnUse">
<stop stop-color="#CC721C"/>
<stop offset="1" stop-color="#F5841F"/>
</linearGradient>
<linearGradient id="paint3_linear" x1="116.907" y1="213.614" x2="75.1582" y2="255.535" gradientUnits="userSpaceOnUse">
<stop stop-color="#140C4F"/>
<stop offset="1" stop-color="#ADB2C0"/>
</linearGradient>
<linearGradient id="paint4_linear" x1="98.4146" y1="153.823" x2="69.3845" y2="193.173" gradientUnits="userSpaceOnUse">
<stop stop-color="#5781C1"/>
<stop offset="1" stop-color="#AADDDD"/>
</linearGradient>
<linearGradient id="paint5_linear" x1="104.773" y1="185.252" x2="83.647" y2="198.577" gradientUnits="userSpaceOnUse">
<stop stop-color="#25409A"/>
<stop offset="1" stop-color="#6FA1D6"/>
</linearGradient>
<linearGradient id="paint6_linear" x1="105.218" y1="184.971" x2="85.6134" y2="197.336" gradientUnits="userSpaceOnUse">
<stop stop-color="#140C4F"/>
<stop offset="1" stop-color="#25409A"/>
</linearGradient>
<linearGradient id="paint7_linear" x1="104.773" y1="191.511" x2="83.647" y2="204.837" gradientUnits="userSpaceOnUse">
<stop stop-color="#25409A"/>
<stop offset="1" stop-color="#6FA1D6"/>
</linearGradient>
<linearGradient id="paint8_linear" x1="105.218" y1="191.23" x2="85.6134" y2="203.596" gradientUnits="userSpaceOnUse">
<stop stop-color="#140C4F"/>
<stop offset="1" stop-color="#25409A"/>
</linearGradient>
<linearGradient id="paint9_linear" x1="111.033" y1="194.641" x2="89.9068" y2="207.967" gradientUnits="userSpaceOnUse">
<stop stop-color="#25409A"/>
<stop offset="1" stop-color="#6FA1D6"/>
</linearGradient>
<linearGradient id="paint10_linear" x1="111.478" y1="194.36" x2="91.8711" y2="206.728" gradientUnits="userSpaceOnUse">
<stop stop-color="#140C4F"/>
<stop offset="1" stop-color="#25409A"/>
</linearGradient>
<linearGradient id="paint11_linear" x1="117.061" y1="187.085" x2="102.54" y2="187.084" gradientUnits="userSpaceOnUse">
<stop stop-color="#140C4F"/>
<stop offset="1" stop-color="#4361AD"/>
</linearGradient>
<linearGradient id="paint12_linear" x1="118.356" y1="187.085" x2="102.509" y2="187.084" gradientUnits="userSpaceOnUse">
<stop stop-color="#140C4F"/>
<stop offset="1" stop-color="#25409A"/>
</linearGradient>
<linearGradient id="paint13_linear" x1="118.356" y1="187.086" x2="103.765" y2="187.084" gradientUnits="userSpaceOnUse">
<stop stop-color="#2F50A3"/>
<stop offset="1" stop-color="#AADDDD"/>
</linearGradient>
<linearGradient id="paint14_linear" x1="117.806" y1="187.085" x2="103.755" y2="187.084" gradientUnits="userSpaceOnUse">
<stop stop-color="#4361AD"/>
<stop offset="1" stop-color="#6FA1D6"/>
</linearGradient>
<radialGradient id="paint15_radial" cx="0" cy="0" r="1" gradientUnits="userSpaceOnUse" gradientTransform="translate(76.0951 232.142) rotate(-89.9893) scale(5.0571 1.57377)">
<stop stop-color="#6FA1D6"/>
<stop offset="1" stop-color="#4361AD"/>
</radialGradient>
<linearGradient id="paint16_linear" x1="76.3398" y1="227.888" x2="76.3425" y2="232.773" gradientUnits="userSpaceOnUse">
<stop stop-color="#4361AD"/>
<stop offset="1" stop-color="white"/>
</linearGradient>
<linearGradient id="paint17_linear" x1="76.0386" y1="234.11" x2="76.0457" y2="235.733" gradientUnits="userSpaceOnUse">
<stop stop-color="#140C4F"/>
<stop offset="1" stop-color="#3654A5"/>
</linearGradient>
<radialGradient id="paint18_radial" cx="0" cy="0" r="1" gradientUnits="userSpaceOnUse" gradientTransform="translate(76.0338 234.288) rotate(-90.0444) scale(0.954351 0.650023)">
<stop stop-color="#6FA1D6"/>
<stop offset="1" stop-color="#25409A"/>
</radialGradient>
<radialGradient id="paint19_radial" cx="0" cy="0" r="1" gradientUnits="userSpaceOnUse" gradientTransform="translate(76.0804 240.18) rotate(-89.9893) scale(3.66529 1.14064)">
<stop stop-color="#6FA1D6"/>
<stop offset="1" stop-color="#4361AD"/>
</radialGradient>
<linearGradient id="paint20_linear" x1="76.2576" y1="237.096" x2="76.2596" y2="240.637" gradientUnits="userSpaceOnUse">
<stop stop-color="#4361AD"/>
<stop offset="1" stop-color="white"/>
</linearGradient>
<linearGradient id="paint21_linear" x1="76.0394" y1="241.606" x2="76.0445" y2="242.783" gradientUnits="userSpaceOnUse">
<stop stop-color="#140C4F"/>
<stop offset="1" stop-color="#3654A5"/>
</linearGradient>
<radialGradient id="paint22_radial" cx="0" cy="0" r="1" gradientUnits="userSpaceOnUse" gradientTransform="translate(76.0354 241.736) rotate(-90.0444) scale(0.69186 0.471237)">
<stop stop-color="#6FA1D6"/>
<stop offset="1" stop-color="#25409A"/>
</radialGradient>
<radialGradient id="paint23_radial" cx="0" cy="0" r="1" gradientUnits="userSpaceOnUse" gradientTransform="translate(76.0655 245.465) rotate(-89.9893) scale(2.27435 0.70778)">
<stop stop-color="#6FA1D6"/>
<stop offset="1" stop-color="#4361AD"/>
</radialGradient>
<linearGradient id="paint24_linear" x1="76.1753" y1="243.551" x2="76.1765" y2="245.748" gradientUnits="userSpaceOnUse">
<stop stop-color="#4361AD"/>
<stop offset="1" stop-color="white"/>
</linearGradient>
<linearGradient id="paint25_linear" x1="76.0399" y1="246.35" x2="76.0431" y2="247.08" gradientUnits="userSpaceOnUse">
<stop stop-color="#140C4F"/>
<stop offset="1" stop-color="#3654A5"/>
</linearGradient>
<radialGradient id="paint26_radial" cx="0" cy="0" r="1" gradientUnits="userSpaceOnUse" gradientTransform="translate(76.0374 246.43) rotate(-90.0444) scale(0.429072 0.292254)">
<stop stop-color="#6FA1D6"/>
<stop offset="1" stop-color="#25409A"/>
</radialGradient>
<linearGradient id="paint27_linear" x1="83.0967" y1="230.373" x2="88.3858" y2="233.679" gradientUnits="userSpaceOnUse">
<stop stop-color="#2B2477"/>
<stop offset="1" stop-color="white"/>
</linearGradient>
<linearGradient id="paint28_linear" x1="61.446" y1="174.476" x2="61.4452" y2="180.384" gradientUnits="userSpaceOnUse">
<stop stop-color="#393092"/>
<stop offset="1" stop-color="#5EC0ED"/>
</linearGradient>
<linearGradient id="paint29_linear" x1="61.4464" y1="179.514" x2="61.4447" y2="174.764" gradientUnits="userSpaceOnUse">
<stop stop-color="#38449C"/>
<stop offset="1" stop-color="#5EC0ED"/>
</linearGradient>
<linearGradient id="paint30_linear" x1="61.4465" y1="175.663" x2="61.4448" y2="179.446" gradientUnits="userSpaceOnUse">
<stop stop-color="#1B135A"/>
<stop offset="1" stop-color="#5F94CE"/>
</linearGradient>
<linearGradient id="paint31_linear" x1="61.446" y1="180.349" x2="61.4454" y2="184.427" gradientUnits="userSpaceOnUse">
<stop stop-color="#393092"/>
<stop offset="1" stop-color="#5EC0ED"/>
</linearGradient>
<linearGradient id="paint32_linear" x1="61.446" y1="183.827" x2="61.4448" y2="180.549" gradientUnits="userSpaceOnUse">
<stop stop-color="#38449C"/>
<stop offset="1" stop-color="#5EC0ED"/>
</linearGradient>
<linearGradient id="paint33_linear" x1="61.4462" y1="181.169" x2="61.445" y2="183.779" gradientUnits="userSpaceOnUse">
<stop stop-color="#1B135A"/>
<stop offset="1" stop-color="#5F94CE"/>
</linearGradient>
<linearGradient id="paint34_linear" x1="61.4458" y1="184.372" x2="61.4454" y2="186.619" gradientUnits="userSpaceOnUse">
<stop stop-color="#393092"/>
<stop offset="1" stop-color="#5EC0ED"/>
</linearGradient>
<linearGradient id="paint35_linear" x1="61.4459" y1="186.288" x2="61.4453" y2="184.482" gradientUnits="userSpaceOnUse">
<stop stop-color="#38449C"/>
<stop offset="1" stop-color="#5EC0ED"/>
</linearGradient>
<linearGradient id="paint36_linear" x1="61.446" y1="184.823" x2="61.4453" y2="186.262" gradientUnits="userSpaceOnUse">
<stop stop-color="#1B135A"/>
<stop offset="1" stop-color="#5F94CE"/>
</linearGradient>
<linearGradient id="paint37_linear" x1="84.8647" y1="191.978" x2="84.0888" y2="190.77" gradientUnits="userSpaceOnUse">
<stop stop-color="#313092"/>
<stop offset="1" stop-color="#5F94CE"/>
</linearGradient>
<linearGradient id="paint38_linear" x1="84.3618" y1="194.116" x2="84.5082" y2="188.977" gradientUnits="userSpaceOnUse">
<stop stop-color="#3D0000"/>
<stop offset="1" stop-color="#794503"/>
</linearGradient>
<radialGradient id="paint39_radial" cx="0" cy="0" r="1" gradientUnits="userSpaceOnUse" gradientTransform="translate(84.415 190.557) scale(2.8305)">
<stop stop-color="#C9CD2B"/>
<stop offset="1" stop-color="#EF4423"/>
</radialGradient>
<linearGradient id="paint40_linear" x1="85.7543" y1="191.947" x2="82.6212" y2="191.019" gradientUnits="userSpaceOnUse">
<stop stop-color="#EF4423"/>
<stop offset="1" stop-color="white"/>
</linearGradient>
<linearGradient id="paint41_linear" x1="91.5172" y1="187.411" x2="90.7413" y2="186.202" gradientUnits="userSpaceOnUse">
<stop stop-color="#313092"/>
<stop offset="1" stop-color="#5F94CE"/>
</linearGradient>
<linearGradient id="paint42_linear" x1="91.0145" y1="189.548" x2="91.1609" y2="184.41" gradientUnits="userSpaceOnUse">
<stop stop-color="#3D0000"/>
<stop offset="1" stop-color="#794503"/>
</linearGradient>
<radialGradient id="paint43_radial" cx="0" cy="0" r="1" gradientUnits="userSpaceOnUse" gradientTransform="translate(91.0676 185.99) scale(2.83055)">
<stop stop-color="#C9CD2B"/>
<stop offset="1" stop-color="#EF4423"/>
</radialGradient>
<linearGradient id="paint44_linear" x1="92.407" y1="187.379" x2="89.274" y2="186.451" gradientUnits="userSpaceOnUse">
<stop stop-color="#EF4423"/>
<stop offset="1" stop-color="white"/>
</linearGradient>
<linearGradient id="paint45_linear" x1="98.1702" y1="183.497" x2="97.3943" y2="182.289" gradientUnits="userSpaceOnUse">
<stop stop-color="#313092"/>
<stop offset="1" stop-color="#5F94CE"/>
</linearGradient>
<linearGradient id="paint46_linear" x1="97.6675" y1="185.635" x2="97.8139" y2="180.496" gradientUnits="userSpaceOnUse">
<stop stop-color="#3D0000"/>
<stop offset="1" stop-color="#794503"/>
</linearGradient>
<radialGradient id="paint47_radial" cx="0" cy="0" r="1" gradientUnits="userSpaceOnUse" gradientTransform="translate(97.7207 182.076) scale(2.83048)">
<stop stop-color="#C9CD2B"/>
<stop offset="1" stop-color="#EF4423"/>
</radialGradient>
<linearGradient id="paint48_linear" x1="99.0603" y1="183.466" x2="95.9268" y2="182.538" gradientUnits="userSpaceOnUse">
<stop stop-color="#EF4423"/>
<stop offset="1" stop-color="white"/>
</linearGradient>
<linearGradient id="paint49_linear" x1="95.1711" y1="262.872" x2="95.1729" y2="171.081" gradientUnits="userSpaceOnUse">
<stop stop-color="#140C4F"/>
<stop offset="1" stop-color="white"/>
</linearGradient>
<linearGradient id="paint50_linear" x1="130.986" y1="205.519" x2="109.296" y2="164.475" gradientUnits="userSpaceOnUse">
<stop stop-color="#3654A5"/>
<stop offset="1" stop-color="#5781C1"/>
</linearGradient>
<linearGradient id="paint51_linear" x1="120.135" y1="191.423" x2="119.891" y2="189.306" gradientUnits="userSpaceOnUse">
<stop stop-color="#25409A"/>
<stop offset="1" stop-color="#4768B1"/>
</linearGradient>
<linearGradient id="paint52_linear" x1="120.865" y1="179.193" x2="120.321" y2="177.923" gradientUnits="userSpaceOnUse">
<stop stop-color="#25409A"/>
<stop offset="1" stop-color="#4E72B8"/>
</linearGradient>
<linearGradient id="paint53_linear" x1="146.959" y1="202.821" x2="197.852" y2="216.457" gradientUnits="userSpaceOnUse">
<stop stop-color="#3654A5"/>
<stop offset="1" stop-color="#5781C1"/>
</linearGradient>
<linearGradient id="paint54_linear" x1="180.298" y1="226.156" x2="180.297" y2="243.958" gradientUnits="userSpaceOnUse">
<stop stop-color="#CC721C"/>
<stop offset="1" stop-color="#F5841F"/>
</linearGradient>
<linearGradient id="paint55_linear" x1="187.934" y1="226.154" x2="187.932" y2="182.62" gradientUnits="userSpaceOnUse">
<stop stop-color="#CC721C"/>
<stop offset="1" stop-color="#F5841F"/>
</linearGradient>
<linearGradient id="paint56_linear" x1="153.64" y1="213.614" x2="195.388" y2="255.535" gradientUnits="userSpaceOnUse">
<stop stop-color="#140C4F"/>
<stop offset="1" stop-color="#ADB2C0"/>
</linearGradient>
<linearGradient id="paint57_linear" x1="172.132" y1="153.823" x2="201.162" y2="193.173" gradientUnits="userSpaceOnUse">
<stop stop-color="#5781C1"/>
<stop offset="1" stop-color="#AADDDD"/>
</linearGradient>
<linearGradient id="paint58_linear" x1="165.774" y1="185.252" x2="186.9" y2="198.578" gradientUnits="userSpaceOnUse">
<stop stop-color="#25409A"/>
<stop offset="1" stop-color="#6FA1D6"/>
</linearGradient>
<linearGradient id="paint59_linear" x1="165.329" y1="184.971" x2="184.933" y2="197.337" gradientUnits="userSpaceOnUse">
<stop stop-color="#140C4F"/>
<stop offset="1" stop-color="#25409A"/>
</linearGradient>
<linearGradient id="paint60_linear" x1="165.774" y1="191.512" x2="186.9" y2="204.837" gradientUnits="userSpaceOnUse">
<stop stop-color="#25409A"/>
<stop offset="1" stop-color="#6FA1D6"/>
</linearGradient>
<linearGradient id="paint61_linear" x1="165.328" y1="191.231" x2="184.933" y2="203.596" gradientUnits="userSpaceOnUse">
<stop stop-color="#140C4F"/>
<stop offset="1" stop-color="#25409A"/>
</linearGradient>
<linearGradient id="paint62_linear" x1="159.514" y1="194.641" x2="180.64" y2="207.967" gradientUnits="userSpaceOnUse">
<stop stop-color="#25409A"/>
<stop offset="1" stop-color="#6FA1D6"/>
</linearGradient>
<linearGradient id="paint63_linear" x1="159.069" y1="194.361" x2="178.676" y2="206.728" gradientUnits="userSpaceOnUse">
<stop stop-color="#140C4F"/>
<stop offset="1" stop-color="#25409A"/>
</linearGradient>
<linearGradient id="paint64_linear" x1="153.486" y1="187.085" x2="168.006" y2="187.084" gradientUnits="userSpaceOnUse">
<stop stop-color="#140C4F"/>
<stop offset="1" stop-color="#4361AD"/>
</linearGradient>
<linearGradient id="paint65_linear" x1="152.19" y1="187.086" x2="168.037" y2="187.084" gradientUnits="userSpaceOnUse">
<stop stop-color="#140C4F"/>
<stop offset="1" stop-color="#25409A"/>
</linearGradient>
<linearGradient id="paint66_linear" x1="152.19" y1="187.086" x2="166.782" y2="187.084" gradientUnits="userSpaceOnUse">
<stop stop-color="#2F50A3"/>
<stop offset="1" stop-color="#AADDDD"/>
</linearGradient>
<linearGradient id="paint67_linear" x1="152.741" y1="187.086" x2="166.792" y2="187.084" gradientUnits="userSpaceOnUse">
<stop stop-color="#4361AD"/>
<stop offset="1" stop-color="#6FA1D6"/>
</linearGradient>
<radialGradient id="paint68_radial" cx="0" cy="0" r="1" gradientUnits="userSpaceOnUse" gradientTransform="translate(194.452 232.142) rotate(-90.0107) scale(5.05669 1.57363)">
<stop stop-color="#6FA1D6"/>
<stop offset="1" stop-color="#4361AD"/>
</radialGradient>
<linearGradient id="paint69_linear" x1="194.207" y1="227.888" x2="194.204" y2="232.773" gradientUnits="userSpaceOnUse">
<stop stop-color="#4361AD"/>
<stop offset="1" stop-color="white"/>
</linearGradient>
<linearGradient id="paint70_linear" x1="194.508" y1="234.11" x2="194.501" y2="235.734" gradientUnits="userSpaceOnUse">
<stop stop-color="#140C4F"/>
<stop offset="1" stop-color="#3654A5"/>
</linearGradient>
<radialGradient id="paint71_radial" cx="0" cy="0" r="1" gradientUnits="userSpaceOnUse" gradientTransform="translate(194.513 234.288) rotate(-89.9556) scale(0.954392 0.650022)">
<stop stop-color="#6FA1D6"/>
<stop offset="1" stop-color="#25409A"/>
</radialGradient>
<radialGradient id="paint72_radial" cx="0" cy="0" r="1" gradientUnits="userSpaceOnUse" gradientTransform="translate(194.466 240.181) rotate(-90.0107) scale(3.66505 1.14056)">
<stop stop-color="#6FA1D6"/>
<stop offset="1" stop-color="#4361AD"/>
</radialGradient>
<linearGradient id="paint73_linear" x1="194.289" y1="237.096" x2="194.287" y2="240.637" gradientUnits="userSpaceOnUse">
<stop stop-color="#4361AD"/>
<stop offset="1" stop-color="white"/>
</linearGradient>
<linearGradient id="paint74_linear" x1="194.507" y1="241.607" x2="194.502" y2="242.783" gradientUnits="userSpaceOnUse">
<stop stop-color="#140C4F"/>
<stop offset="1" stop-color="#3654A5"/>
</linearGradient>
<radialGradient id="paint75_radial" cx="0" cy="0" r="1" gradientUnits="userSpaceOnUse" gradientTransform="translate(194.511 241.736) rotate(-89.9556) scale(0.69186 0.471219)">
<stop stop-color="#6FA1D6"/>
<stop offset="1" stop-color="#25409A"/>
</radialGradient>
<radialGradient id="paint76_radial" cx="0" cy="0" r="1" gradientUnits="userSpaceOnUse" gradientTransform="translate(194.481 245.465) rotate(-90.0107) scale(2.27418 0.707722)">
<stop stop-color="#6FA1D6"/>
<stop offset="1" stop-color="#4361AD"/>
</radialGradient>
<linearGradient id="paint77_linear" x1="194.372" y1="243.552" x2="194.37" y2="245.748" gradientUnits="userSpaceOnUse">
<stop stop-color="#4361AD"/>
<stop offset="1" stop-color="white"/>
</linearGradient>
<linearGradient id="paint78_linear" x1="194.507" y1="246.35" x2="194.504" y2="247.08" gradientUnits="userSpaceOnUse">
<stop stop-color="#140C4F"/>
<stop offset="1" stop-color="#3654A5"/>
</linearGradient>
<radialGradient id="paint79_radial" cx="0" cy="0" r="1" gradientUnits="userSpaceOnUse" gradientTransform="translate(194.509 246.43) rotate(-89.9556) scale(0.429071 0.292213)">
<stop stop-color="#6FA1D6"/>
<stop offset="1" stop-color="#25409A"/>
</radialGradient>
<linearGradient id="paint80_linear" x1="187.45" y1="230.373" x2="182.161" y2="233.679" gradientUnits="userSpaceOnUse">
<stop stop-color="#2B2477"/>
<stop offset="1" stop-color="white"/>
</linearGradient>
<linearGradient id="paint81_linear" x1="209.101" y1="174.476" x2="209.101" y2="180.384" gradientUnits="userSpaceOnUse">
<stop stop-color="#393092"/>
<stop offset="1" stop-color="#5EC0ED"/>
</linearGradient>
<linearGradient id="paint82_linear" x1="209.1" y1="179.514" x2="209.102" y2="174.764" gradientUnits="userSpaceOnUse">
<stop stop-color="#38449C"/>
<stop offset="1" stop-color="#5EC0ED"/>
</linearGradient>
<linearGradient id="paint83_linear" x1="209.1" y1="175.663" x2="209.102" y2="179.446" gradientUnits="userSpaceOnUse">
<stop stop-color="#1B135A"/>
<stop offset="1" stop-color="#5F94CE"/>
</linearGradient>
<linearGradient id="paint84_linear" x1="209.101" y1="180.35" x2="209.101" y2="184.427" gradientUnits="userSpaceOnUse">
<stop stop-color="#393092"/>
<stop offset="1" stop-color="#5EC0ED"/>
</linearGradient>
<linearGradient id="paint85_linear" x1="209.101" y1="183.827" x2="209.102" y2="180.549" gradientUnits="userSpaceOnUse">
<stop stop-color="#38449C"/>
<stop offset="1" stop-color="#5EC0ED"/>
</linearGradient>
<linearGradient id="paint86_linear" x1="209.1" y1="181.169" x2="209.102" y2="183.779" gradientUnits="userSpaceOnUse">
<stop stop-color="#1B135A"/>
<stop offset="1" stop-color="#5F94CE"/>
</linearGradient>
<linearGradient id="paint87_linear" x1="209.101" y1="184.372" x2="209.101" y2="186.619" gradientUnits="userSpaceOnUse">
<stop stop-color="#393092"/>
<stop offset="1" stop-color="#5EC0ED"/>
</linearGradient>
<linearGradient id="paint88_linear" x1="209.101" y1="186.288" x2="209.101" y2="184.482" gradientUnits="userSpaceOnUse">
<stop stop-color="#38449C"/>
<stop offset="1" stop-color="#5EC0ED"/>
</linearGradient>
<linearGradient id="paint89_linear" x1="209.101" y1="184.824" x2="209.101" y2="186.262" gradientUnits="userSpaceOnUse">
<stop stop-color="#1B135A"/>
<stop offset="1" stop-color="#5F94CE"/>
</linearGradient>
<linearGradient id="paint90_linear" x1="185.682" y1="191.979" x2="186.458" y2="190.77" gradientUnits="userSpaceOnUse">
<stop stop-color="#313092"/>
<stop offset="1" stop-color="#5F94CE"/>
</linearGradient>
<linearGradient id="paint91_linear" x1="186.185" y1="194.117" x2="186.038" y2="188.978" gradientUnits="userSpaceOnUse">
<stop stop-color="#3D0000"/>
<stop offset="1" stop-color="#794503"/>
</linearGradient>
<radialGradient id="paint92_radial" cx="0" cy="0" r="1" gradientUnits="userSpaceOnUse" gradientTransform="translate(186.132 190.558) scale(2.83034)">
<stop stop-color="#C9CD2B"/>
<stop offset="1" stop-color="#EF4423"/>
</radialGradient>
<linearGradient id="paint93_linear" x1="184.792" y1="191.947" x2="187.925" y2="191.019" gradientUnits="userSpaceOnUse">
<stop stop-color="#EF4423"/>
<stop offset="1" stop-color="white"/>
</linearGradient>
<linearGradient id="paint94_linear" x1="179.029" y1="187.411" x2="179.805" y2="186.202" gradientUnits="userSpaceOnUse">
<stop stop-color="#313092"/>
<stop offset="1" stop-color="#5F94CE"/>
</linearGradient>
<linearGradient id="paint95_linear" x1="179.532" y1="189.548" x2="179.385" y2="184.41" gradientUnits="userSpaceOnUse">
<stop stop-color="#3D0000"/>
<stop offset="1" stop-color="#794503"/>
</linearGradient>
<radialGradient id="paint96_radial" cx="0" cy="0" r="1" gradientUnits="userSpaceOnUse" gradientTransform="translate(179.479 185.99) scale(2.83041)">
<stop stop-color="#C9CD2B"/>
<stop offset="1" stop-color="#EF4423"/>
</radialGradient>
<linearGradient id="paint97_linear" x1="178.139" y1="187.379" x2="181.272" y2="186.452" gradientUnits="userSpaceOnUse">
<stop stop-color="#EF4423"/>
<stop offset="1" stop-color="white"/>
</linearGradient>
<linearGradient id="paint98_linear" x1="172.377" y1="183.497" x2="173.152" y2="182.289" gradientUnits="userSpaceOnUse">
<stop stop-color="#313092"/>
<stop offset="1" stop-color="#5F94CE"/>
</linearGradient>
<linearGradient id="paint99_linear" x1="172.879" y1="185.636" x2="172.733" y2="180.497" gradientUnits="userSpaceOnUse">
<stop stop-color="#3D0000"/>
<stop offset="1" stop-color="#794503"/>
</linearGradient>
<radialGradient id="paint100_radial" cx="0" cy="0" r="1" gradientUnits="userSpaceOnUse" gradientTransform="translate(172.826 182.077) scale(2.83033)">
<stop stop-color="#C9CD2B"/>
<stop offset="1" stop-color="#EF4423"/>
</radialGradient>
<linearGradient id="paint101_linear" x1="171.486" y1="183.466" x2="174.62" y2="182.538" gradientUnits="userSpaceOnUse">
<stop stop-color="#EF4423"/>
<stop offset="1" stop-color="white"/>
</linearGradient>
<linearGradient id="paint102_linear" x1="175.375" y1="262.872" x2="175.374" y2="171.081" gradientUnits="userSpaceOnUse">
<stop stop-color="#140C4F"/>
<stop offset="1" stop-color="white"/>
</linearGradient>
<linearGradient id="paint103_linear" x1="139.561" y1="205.519" x2="161.251" y2="164.475" gradientUnits="userSpaceOnUse">
<stop stop-color="#3654A5"/>
<stop offset="1" stop-color="#5781C1"/>
</linearGradient>
<linearGradient id="paint104_linear" x1="150.411" y1="191.423" x2="150.655" y2="189.306" gradientUnits="userSpaceOnUse">
<stop stop-color="#25409A"/>
<stop offset="1" stop-color="#4768B1"/>
</linearGradient>
<linearGradient id="paint105_linear" x1="149.681" y1="179.193" x2="150.226" y2="177.923" gradientUnits="userSpaceOnUse">
<stop stop-color="#25409A"/>
<stop offset="1" stop-color="#4E72B8"/>
</linearGradient>
<clipPath id="clip0">
<rect x="56.3059" y="107.158" width="157.941" height="159.048" fill="white"/>
</clipPath>
</defs>
</svg>
