<svg width="270" height="370" viewBox="0 0 270 370" fill="none" xmlns="http://www.w3.org/2000/svg">
<g clip-path="url(#clip0)">
<path fill-rule="evenodd" clip-rule="evenodd" d="M113.069 222.748H105.566V237.603C105.566 243.722 94.1436 241.106 94.1436 240.358L94.1021 222.789C94.1021 220.92 92.1915 219.646 90.3086 219.646H85.7676C83.8985 219.646 82.3202 220.948 81.9741 222.789L78.7621 239.887C78.596 240.815 77.8069 241.466 76.8654 241.466H74.3872C72.269 241.466 70.2615 239.721 70.5384 237.603L85.9614 116.129C86.2244 114.025 87.692 112.267 89.8102 112.267H101.717C103.835 112.267 105.579 114.011 105.579 116.129V197.647H113.069C115.188 197.647 116.918 199.378 116.918 201.51V218.885C116.932 221.003 115.188 222.748 113.069 222.748Z" fill="url(#paint0_linear)"/>
<path fill-rule="evenodd" clip-rule="evenodd" d="M113.069 224.215H107.033V237.603C107.033 240.704 105.026 242.172 102.464 242.753C101.62 242.947 100.706 243.016 99.8061 243.03C98.92 243.03 98.0478 242.961 97.2725 242.85C94.6973 242.49 92.6899 241.23 92.6899 240.358L92.6483 222.789C92.6483 222.374 92.4268 222 92.0807 221.709C91.6238 221.322 90.9731 221.1 90.3224 221.1H85.7814C85.186 221.1 84.6599 221.294 84.2446 221.64C83.8292 221.986 83.5385 222.471 83.4278 223.038L80.2158 240.137C80.0635 240.94 79.6481 241.632 79.0528 242.116C78.4575 242.615 77.696 242.906 76.8792 242.906H74.3872C74.1656 242.906 73.9303 242.892 73.7088 242.864C73.6534 242.864 73.6118 242.85 73.5565 242.836C72.3935 242.656 71.2998 242.103 70.4968 241.3C69.6107 240.427 69.0431 239.251 69.0431 237.949C69.0431 237.769 69.0569 237.575 69.0846 237.395C69.0846 237.354 69.0985 237.312 69.1123 237.271L84.5215 115.922C84.7015 114.51 85.3106 113.208 86.2382 112.281C87.1658 111.353 88.3842 110.785 89.824 110.785H101.717C103.184 110.785 104.513 111.381 105.482 112.35C105.51 112.378 105.538 112.405 105.565 112.447C106.479 113.402 107.047 114.703 107.047 116.116V196.18H113.069C114.537 196.18 115.866 196.775 116.835 197.744C117.804 198.713 118.4 200.042 118.4 201.51V218.885C118.4 220.353 117.804 221.682 116.835 222.651C115.866 223.62 114.537 224.215 113.069 224.215ZM113.069 222.748H105.565V237.603C105.565 243.722 94.1436 241.106 94.1436 240.358L94.102 222.789C94.102 220.92 92.1915 219.646 90.3086 219.646H85.7675C83.8985 219.646 82.3202 220.948 81.9741 222.789L78.7621 239.887C78.5959 240.815 77.8068 241.466 76.8654 241.466H74.3872C72.2689 241.466 70.2614 239.721 70.5383 237.603L85.9613 116.129C86.2244 114.025 87.6919 112.267 89.8102 112.267H101.717C103.835 112.267 105.579 114.011 105.579 116.129V197.647H113.069C115.188 197.647 116.918 199.378 116.918 201.51V218.885C116.932 221.003 115.188 222.748 113.069 222.748Z" fill="black"/>
<path fill-rule="evenodd" clip-rule="evenodd" d="M105.566 237.603C105.566 243.722 94.1436 241.106 94.1436 240.358V222.831C94.1436 220.962 92.1915 219.646 90.3086 219.646H85.7676C83.8985 219.646 82.3202 220.948 81.9741 222.789L78.7621 239.887C78.596 240.815 77.8068 241.466 76.8654 241.466H74.3872C72.269 241.466 70.2615 239.721 70.5384 237.603L85.9614 116.129C86.2244 114.025 87.692 112.267 89.8102 112.267H101.717C103.835 112.267 105.579 113.997 105.579 116.129C105.566 168.947 105.566 203.102 105.566 237.603Z" fill="url(#paint1_linear)"/>
<path fill-rule="evenodd" clip-rule="evenodd" d="M105.012 237.326C105.012 242.85 94.6974 240.497 94.6974 239.804V197.772H105.012C105.012 245.508 105.012 206.162 105.012 237.326Z" fill="#1D41B3"/>
<path fill-rule="evenodd" clip-rule="evenodd" d="M102.423 197.647V228.604C102.423 229.795 101.454 230.764 100.263 230.764H99.4462C98.2555 230.764 97.2864 229.795 97.2864 228.604V197.647H102.423Z" fill="#00045D"/>
<path fill-rule="evenodd" clip-rule="evenodd" d="M97.6048 197.647H102.09V228.604C102.09 229.615 101.26 230.445 100.249 230.445H99.4323C98.4216 230.445 97.5909 229.615 97.5909 228.604V197.647H97.6048Z" fill="url(#paint2_linear)"/>
<path fill-rule="evenodd" clip-rule="evenodd" d="M98.8093 197.647H100.872V227.939C100.872 228.396 100.498 228.784 100.028 228.784H99.6539C99.197 228.784 98.8093 228.41 98.8093 227.939V197.647Z" fill="#464854"/>
<path opacity="0.5" fill-rule="evenodd" clip-rule="evenodd" d="M94.1158 207.754V198.312H105.565V207.754C105.565 208.765 104.735 209.595 103.724 209.595H95.9433C94.9465 209.581 94.1158 208.765 94.1158 207.754Z" fill="url(#paint3_linear)"/>
<path fill-rule="evenodd" clip-rule="evenodd" d="M94.1158 199.489L94.1435 112.281H101.717C103.835 112.281 105.579 114.011 105.579 116.143V199.502C105.579 200.513 104.749 201.344 103.738 201.344H95.9572C94.9465 201.33 94.1158 200.499 94.1158 199.489Z" fill="url(#paint4_linear)"/>
<path fill-rule="evenodd" clip-rule="evenodd" d="M94.2682 146.685L94.1159 222.775C93.6175 220.712 92.3022 219.729 90.3224 219.633C88.8134 219.633 87.3043 219.633 85.7814 219.633C83.6216 219.702 82.4309 220.823 81.9879 222.775L91.2362 146.629C91.3746 145.688 94.2128 145.688 94.2682 146.685Z" fill="url(#paint5_linear)"/>
<path fill-rule="evenodd" clip-rule="evenodd" d="M74.5672 241.48C74.5533 241.576 74.4564 241.646 74.3595 241.632C74.2626 241.618 74.1934 241.521 74.2072 241.424L87.6366 138.378C87.7058 137.879 87.955 137.436 88.3011 137.118C88.6611 136.8 89.1318 136.62 89.6302 136.62H94.1436C94.2405 136.62 94.3236 136.703 94.3236 136.8C94.3236 136.897 94.2405 136.98 94.1436 136.98H89.6302C89.2149 136.98 88.8272 137.132 88.5365 137.395C88.2458 137.644 88.0381 138.018 87.9965 138.419L74.5672 241.48Z" fill="#00045D"/>
<path fill-rule="evenodd" clip-rule="evenodd" d="M105.566 185.228V185.602C103.641 185.602 100.748 182.861 99.4462 181.546C99.0585 181.158 98.8508 180.674 98.8508 180.12V133.006C98.8508 132.092 98.1032 131.359 97.2033 131.359H94.1575C93.9221 131.359 93.9221 130.985 94.1575 130.985H97.2033C98.3109 130.985 99.2246 131.899 99.2246 133.006V180.106C99.2246 180.563 99.3908 180.95 99.7092 181.269C100.928 182.501 103.78 185.228 105.566 185.228Z" fill="#00045D"/>
<path fill-rule="evenodd" clip-rule="evenodd" d="M94.1574 130.251V132.092H89.8655C89.3533 132.092 88.9518 131.677 88.9518 131.179C88.9518 130.666 89.3671 130.265 89.8655 130.265H94.1574V130.251Z" fill="url(#paint6_linear)"/>
<path fill-rule="evenodd" clip-rule="evenodd" d="M94.1436 130.625V131.705H89.9071C89.6025 131.705 89.3672 131.469 89.3672 131.165C89.3672 130.86 89.6025 130.625 89.9071 130.625H94.1436Z" fill="url(#paint7_linear)"/>
<path fill-rule="evenodd" clip-rule="evenodd" d="M94.1574 133.92V135.761H89.8655C89.3533 135.761 88.9518 135.346 88.9518 134.848C88.9518 134.335 89.3671 133.934 89.8655 133.934H94.1574V133.92Z" fill="url(#paint8_linear)"/>
<path fill-rule="evenodd" clip-rule="evenodd" d="M94.1436 134.294V135.374H89.9071C89.6025 135.374 89.3672 135.138 89.3672 134.834C89.3672 134.529 89.6025 134.294 89.9071 134.294H94.1436Z" fill="url(#paint9_linear)"/>
<path d="M102.545 238.974C104.037 237.482 104.037 235.062 102.545 233.57C101.053 232.078 98.6335 232.078 97.1413 233.57C95.649 235.062 95.649 237.482 97.1413 238.974C98.6335 240.466 101.053 240.466 102.545 238.974Z" fill="#00045D"/>
<path fill-rule="evenodd" clip-rule="evenodd" d="M99.8476 232.813C101.758 232.813 103.309 234.363 103.309 236.274C103.309 238.184 101.758 239.735 99.8476 239.735C97.9371 239.735 96.3864 238.184 96.3864 236.274C96.3726 234.363 97.9371 232.813 99.8476 232.813Z" fill="url(#paint10_linear)"/>
<path fill-rule="evenodd" clip-rule="evenodd" d="M99.8476 239.32C98.1724 239.32 96.8018 237.949 96.8018 236.274C96.8018 234.599 98.1724 233.228 99.8476 233.228C101.523 233.228 102.893 234.599 102.893 236.274C102.893 237.963 101.523 239.32 99.8476 239.32Z" fill="url(#paint11_linear)"/>
<path fill-rule="evenodd" clip-rule="evenodd" d="M99.8476 239.14C98.2693 239.14 96.9956 237.866 96.9956 236.288C96.9956 234.709 98.2693 233.436 99.8476 233.436C101.426 233.436 102.7 234.709 102.7 236.288C102.7 237.852 101.426 239.14 99.8476 239.14Z" fill="url(#paint12_linear)"/>
<path fill-rule="evenodd" clip-rule="evenodd" d="M99.8476 238.6C98.5601 238.6 97.5217 237.561 97.5217 236.274C97.5217 234.986 98.5601 233.948 99.8476 233.948C101.135 233.948 102.174 234.986 102.174 236.274C102.174 237.561 101.135 238.6 99.8476 238.6Z" fill="url(#paint13_radial)"/>
<path opacity="0.5" fill-rule="evenodd" clip-rule="evenodd" d="M99.8476 239.14C100.831 238.392 104.693 234.225 96.9956 236.288C96.9956 234.709 98.2693 233.436 99.8476 233.436C98.7123 235.415 102.7 234.709 102.7 236.288C102.7 237.852 101.426 239.14 99.8476 239.14Z" fill="url(#paint14_linear)"/>
<path d="M100.042 230.764H99.6677V232.453H100.042V230.764Z" fill="#00045D"/>
<path fill-rule="evenodd" clip-rule="evenodd" d="M84.3969 202.839C84.4938 202.839 84.5769 202.922 84.5769 203.019C84.5769 203.116 84.4938 203.199 84.3969 203.199H76.7823C76.7546 203.199 76.7407 203.199 76.7131 203.185L74.9409 202.631C74.844 202.604 74.7886 202.493 74.8163 202.396C74.844 202.299 74.9548 202.244 75.0517 202.271L76.81 202.811H84.3969V202.839Z" fill="#00045D"/>
<path fill-rule="evenodd" clip-rule="evenodd" d="M90.0179 156.528C90.1148 156.528 90.1979 156.612 90.1979 156.708C90.1979 156.805 90.1148 156.888 90.0179 156.888H82.6802L82.6248 156.875L80.5896 156.321C80.4927 156.293 80.4373 156.196 80.465 156.099C80.4927 156.002 80.5896 155.947 80.6865 155.975L82.7079 156.528H90.0179Z" fill="#00045D"/>
<path fill-rule="evenodd" clip-rule="evenodd" d="M84.4108 128.271L84.7292 125.793H94.1436V128.271H84.4108ZM94.1436 112.267V119.812H85.4907L85.9614 116.129C86.2244 114.025 87.692 112.267 89.8102 112.267H94.1436Z" fill="url(#paint15_linear)"/>
<path fill-rule="evenodd" clip-rule="evenodd" d="M94.1575 125.793H105.579V128.271H94.1575V125.793ZM94.1575 119.812V112.267H101.717C103.835 112.267 105.579 114.011 105.579 116.129V119.812H94.1575Z" fill="url(#paint16_linear)"/>
<path opacity="0.5" fill-rule="evenodd" clip-rule="evenodd" d="M72.0196 240.69C71.0228 239.984 70.3721 238.849 70.5244 237.603L85.9474 116.129C86.1412 114.579 86.9858 113.236 88.2595 112.627L72.0196 240.69Z" fill="url(#paint17_linear)"/>
<path opacity="0.5" fill-rule="evenodd" clip-rule="evenodd" d="M113.069 222.748C96.871 222.748 95.528 220.851 94.1574 240.358C94.1435 234.502 94.1297 228.646 94.1159 222.789C94.1159 220.92 92.2053 219.646 90.3224 219.646C88.8133 219.646 87.3043 219.646 85.7813 219.646C83.9123 219.646 82.334 220.948 81.9879 222.789C80.9218 228.493 79.8558 234.183 78.7759 239.887C78.6098 240.815 77.8206 241.466 76.8792 241.466C76.0485 241.466 75.2178 241.466 74.3733 241.466C78.8313 234.128 80.1604 212.627 82.5001 206.591C83.2616 204.611 97.1479 203.462 97.2586 201.344C98.74 171.661 100.221 141.978 101.703 112.295C103.683 112.295 105.565 114.039 105.565 116.157C105.565 143.334 105.565 170.512 105.565 197.675C108.071 197.675 110.563 197.675 113.069 197.675C115.188 197.675 116.918 199.406 116.918 201.538C116.918 207.325 116.918 213.126 116.918 218.913C116.932 221.003 115.188 222.748 113.069 222.748Z" fill="url(#paint18_linear)"/>
<path fill-rule="evenodd" clip-rule="evenodd" d="M83.94 182.224L85.3937 182.404C86.1967 182.501 86.7643 183.235 86.6674 184.038L84.7014 200.07C84.6045 200.873 83.8708 201.441 83.0678 201.344L81.6141 201.164C80.8111 201.067 80.2434 200.333 80.3404 199.53L82.3063 183.498C82.4032 182.695 83.137 182.127 83.94 182.224Z" fill="#00045D"/>
<path fill-rule="evenodd" clip-rule="evenodd" d="M83.8985 182.584L85.3522 182.764C85.9475 182.833 86.3905 183.387 86.3074 183.996L84.3415 200.028C84.2723 200.624 83.7185 201.067 83.1093 200.984L81.6556 200.804C81.0603 200.735 80.6173 200.181 80.7003 199.572L82.6663 183.539C82.7355 182.944 83.2893 182.515 83.8985 182.584Z" fill="url(#paint19_radial)"/>
<path opacity="0.5" fill-rule="evenodd" clip-rule="evenodd" d="M83.8984 182.584C84.3829 182.639 84.8675 182.709 85.3521 182.764C83.04 193.314 82.9985 200.444 84.3414 200.028C84.2722 200.624 83.7184 201.067 83.1092 200.984C82.6246 200.928 82.1401 200.859 81.6555 200.804C84.5075 190.171 83.9399 182.224 82.6662 183.539C82.7354 182.944 83.2892 182.515 83.8984 182.584Z" fill="url(#paint20_linear)"/>
<path d="M116.932 221.169C122.988 221.169 127.897 216.26 127.897 210.204C127.897 204.149 122.988 199.239 116.932 199.239C110.876 199.239 105.967 204.149 105.967 210.204C105.967 216.26 110.876 221.169 116.932 221.169Z" fill="url(#paint21_linear)"/>
<path fill-rule="evenodd" clip-rule="evenodd" d="M116.932 199.225C110.868 199.225 105.967 204.14 105.967 210.19C105.967 216.254 110.882 221.156 116.932 221.156C122.996 221.156 127.897 216.241 127.897 210.19C127.897 204.14 122.982 199.225 116.932 199.225ZM108.127 201.399C110.383 199.142 113.485 197.758 116.918 197.758C120.352 197.758 123.467 199.156 125.709 201.399C127.952 203.642 129.351 206.757 129.351 210.19C129.351 213.624 127.952 216.739 125.709 218.982C123.453 221.239 120.352 222.623 116.918 222.623C113.485 222.623 110.369 221.225 108.127 218.982C105.87 216.725 104.485 213.624 104.485 210.19C104.485 206.771 105.884 203.656 108.127 201.399Z" fill="black"/>
<path fill-rule="evenodd" clip-rule="evenodd" d="M119.036 202.313C114.675 201.15 110.203 203.725 109.04 208.086C107.877 212.447 110.453 216.919 114.814 218.082C119.175 219.245 123.647 216.67 124.81 212.309C125.986 207.962 123.397 203.476 119.036 202.313Z" fill="url(#paint22_linear)"/>
<path fill-rule="evenodd" clip-rule="evenodd" d="M118.316 205.013C115.451 204.251 112.515 205.94 111.754 208.806C110.993 211.672 112.682 214.607 115.547 215.368C118.413 216.13 121.348 214.441 122.11 211.575C122.871 208.723 121.168 205.788 118.316 205.013Z" fill="#120801"/>
<path fill-rule="evenodd" clip-rule="evenodd" d="M157.4 222.748H164.904V237.603C164.904 243.722 176.326 241.106 176.326 240.358L176.367 222.789C176.367 220.92 178.278 219.646 180.161 219.646H184.702C186.571 219.646 188.149 220.948 188.495 222.789L191.707 239.887C191.873 240.815 192.663 241.466 193.604 241.466H196.11C198.228 241.466 200.236 239.721 199.959 237.603L184.508 116.129C184.245 114.025 182.777 112.267 180.659 112.267H168.767C166.648 112.267 164.904 114.011 164.904 116.129V197.647H157.4C155.282 197.647 153.551 199.378 153.551 201.51V218.885C153.551 221.003 155.282 222.748 157.4 222.748Z" fill="url(#paint23_linear)"/>
<path fill-rule="evenodd" clip-rule="evenodd" d="M157.4 222.748H164.904V237.603C164.904 243.722 176.326 241.106 176.326 240.358L176.367 222.789C176.367 220.92 178.278 219.646 180.161 219.646H184.702C186.571 219.646 188.149 220.948 188.495 222.789L191.707 239.887C191.873 240.815 192.663 241.466 193.604 241.466H196.11C198.228 241.466 200.236 239.721 199.959 237.603L184.508 116.129C184.245 114.025 182.777 112.267 180.659 112.267H168.767C166.648 112.267 164.904 114.011 164.904 116.129V197.647H157.4C155.282 197.647 153.551 199.378 153.551 201.51V218.885C153.551 221.003 155.282 222.748 157.4 222.748ZM163.436 224.215H157.4C155.932 224.215 154.603 223.62 153.634 222.651C152.665 221.681 152.07 220.352 152.07 218.885V201.51C152.07 200.042 152.665 198.713 153.634 197.744C154.603 196.775 155.932 196.18 157.4 196.18H163.436V116.129C163.436 114.717 164.004 113.416 164.918 112.461C164.945 112.433 164.973 112.405 165.001 112.364C165.97 111.395 167.299 110.799 168.767 110.799H180.659C182.099 110.799 183.317 111.367 184.245 112.294C185.173 113.222 185.782 114.523 185.962 115.936L201.371 237.284C201.385 237.326 201.385 237.368 201.399 237.409C201.426 237.603 201.44 237.783 201.44 237.963C201.44 239.264 200.872 240.427 199.986 241.313C199.183 242.102 198.09 242.67 196.927 242.85C196.871 242.864 196.83 242.864 196.774 242.878C196.553 242.905 196.331 242.919 196.096 242.919H193.59C192.773 242.919 192.012 242.629 191.416 242.13C190.821 241.632 190.406 240.953 190.254 240.15L187.042 223.052C186.931 222.484 186.64 221.986 186.225 221.654C185.809 221.322 185.283 221.114 184.688 221.114H180.147C179.496 221.114 178.845 221.335 178.389 221.723C178.042 222 177.821 222.374 177.821 222.803L177.779 240.372C177.779 241.244 175.772 242.504 173.197 242.864C172.408 242.975 171.535 243.044 170.663 243.044C169.763 243.044 168.85 242.961 168.005 242.767C165.444 242.199 163.436 240.718 163.436 237.617V224.215Z" fill="black"/>
<path fill-rule="evenodd" clip-rule="evenodd" d="M164.904 237.603C164.904 243.722 176.326 241.106 176.326 240.358V222.831C176.326 220.962 178.278 219.646 180.161 219.646H184.702C186.571 219.646 188.149 220.948 188.495 222.789L191.707 239.887C191.873 240.815 192.663 241.466 193.604 241.466H196.11C198.228 241.466 200.236 239.721 199.959 237.603L184.508 116.129C184.245 114.025 182.777 112.267 180.659 112.267H168.767C166.648 112.267 164.904 113.997 164.904 116.129C164.904 168.947 164.904 203.102 164.904 237.603Z" fill="url(#paint24_linear)"/>
<path fill-rule="evenodd" clip-rule="evenodd" d="M165.458 237.326C165.458 242.85 175.772 240.497 175.772 239.804V197.772H165.458C165.458 245.508 165.458 206.162 165.458 237.326Z" fill="#1D41B3"/>
<path fill-rule="evenodd" clip-rule="evenodd" d="M168.061 197.647V228.604C168.061 229.795 169.03 230.764 170.22 230.764H171.037C172.228 230.764 173.197 229.795 173.197 228.604V197.647H168.061Z" fill="#00045D"/>
<path fill-rule="evenodd" clip-rule="evenodd" d="M172.879 197.647H168.393V228.604C168.393 229.615 169.224 230.445 170.234 230.445H171.051C172.062 230.445 172.892 229.615 172.892 228.604V197.647H172.879Z" fill="url(#paint25_linear)"/>
<path fill-rule="evenodd" clip-rule="evenodd" d="M171.66 197.647H169.597V227.939C169.597 228.396 169.971 228.784 170.442 228.784H170.816C171.272 228.784 171.66 228.41 171.66 227.939V197.647Z" fill="#464854"/>
<path opacity="0.5" fill-rule="evenodd" clip-rule="evenodd" d="M176.354 207.754V198.312H164.904V207.754C164.904 208.764 165.735 209.595 166.745 209.595H174.526C175.523 209.581 176.354 208.764 176.354 207.754Z" fill="url(#paint26_linear)"/>
<path fill-rule="evenodd" clip-rule="evenodd" d="M176.354 199.488L176.326 112.281H168.767C166.648 112.281 164.904 114.011 164.904 116.143V199.502C164.904 200.513 165.735 201.344 166.745 201.344H174.526C175.523 201.33 176.354 200.499 176.354 199.488Z" fill="url(#paint27_linear)"/>
<path fill-rule="evenodd" clip-rule="evenodd" d="M176.215 146.685L176.367 222.775C176.866 220.712 178.181 219.729 180.161 219.632C181.67 219.632 183.179 219.632 184.702 219.632C186.862 219.702 188.052 220.823 188.495 222.775L179.247 146.629C179.109 145.688 176.257 145.688 176.215 146.685Z" fill="url(#paint28_linear)"/>
<path fill-rule="evenodd" clip-rule="evenodd" d="M195.902 241.48C195.916 241.576 196.013 241.646 196.11 241.632C196.207 241.618 196.276 241.521 196.262 241.424L182.833 138.378C182.764 137.879 182.514 137.436 182.168 137.118C181.808 136.8 181.338 136.62 180.839 136.62H176.326C176.229 136.62 176.146 136.703 176.146 136.8C176.146 136.897 176.229 136.98 176.326 136.98H180.839C181.254 136.98 181.642 137.132 181.933 137.395C182.224 137.644 182.431 138.018 182.473 138.419L195.902 241.48Z" fill="#00045D"/>
<path fill-rule="evenodd" clip-rule="evenodd" d="M164.904 185.228V185.602C166.828 185.602 169.722 182.861 171.023 181.546C171.411 181.158 171.619 180.674 171.619 180.12V133.006C171.619 132.092 172.366 131.359 173.266 131.359H176.312C176.547 131.359 176.547 130.985 176.312 130.985H173.266C172.159 130.985 171.245 131.899 171.245 133.006V180.106C171.245 180.563 171.079 180.95 170.76 181.269C169.556 182.501 166.69 185.228 164.904 185.228Z" fill="#00045D"/>
<path fill-rule="evenodd" clip-rule="evenodd" d="M176.326 130.251V132.092H180.618C181.13 132.092 181.531 131.677 181.531 131.179C181.531 130.666 181.116 130.265 180.618 130.265H176.326V130.251Z" fill="url(#paint29_linear)"/>
<path fill-rule="evenodd" clip-rule="evenodd" d="M176.326 130.625V131.705H180.562C180.867 131.705 181.102 131.469 181.102 131.165C181.102 130.86 180.867 130.625 180.562 130.625H176.326Z" fill="url(#paint30_linear)"/>
<path fill-rule="evenodd" clip-rule="evenodd" d="M176.326 133.92V135.761H180.618C181.13 135.761 181.531 135.346 181.531 134.848C181.531 134.335 181.116 133.934 180.618 133.934H176.326V133.92Z" fill="url(#paint31_linear)"/>
<path fill-rule="evenodd" clip-rule="evenodd" d="M176.326 134.294V135.374H180.562C180.867 135.374 181.102 135.138 181.102 134.834C181.102 134.529 180.867 134.294 180.562 134.294H176.326Z" fill="url(#paint32_linear)"/>
<path d="M171.496 239.997C173.551 239.517 174.828 237.463 174.349 235.407C173.87 233.352 171.815 232.074 169.76 232.554C167.705 233.033 166.427 235.088 166.906 237.143C167.386 239.198 169.44 240.476 171.496 239.997Z" fill="#00045D"/>
<path fill-rule="evenodd" clip-rule="evenodd" d="M170.622 232.813C168.711 232.813 167.161 234.363 167.161 236.274C167.161 238.184 168.711 239.735 170.622 239.735C172.532 239.735 174.083 238.184 174.083 236.274C174.097 234.363 172.546 232.813 170.622 232.813Z" fill="url(#paint33_linear)"/>
<path fill-rule="evenodd" clip-rule="evenodd" d="M170.622 239.32C172.297 239.32 173.668 237.949 173.668 236.274C173.668 234.599 172.297 233.228 170.622 233.228C168.947 233.228 167.576 234.599 167.576 236.274C167.576 237.963 168.947 239.32 170.622 239.32Z" fill="url(#paint34_linear)"/>
<path fill-rule="evenodd" clip-rule="evenodd" d="M170.622 239.14C172.2 239.14 173.474 237.866 173.474 236.288C173.474 234.709 172.2 233.436 170.622 233.436C169.043 233.436 167.77 234.709 167.77 236.288C167.77 237.852 169.057 239.14 170.622 239.14Z" fill="url(#paint35_linear)"/>
<path fill-rule="evenodd" clip-rule="evenodd" d="M170.622 238.6C171.909 238.6 172.948 237.561 172.948 236.274C172.948 234.986 171.909 233.948 170.622 233.948C169.334 233.948 168.296 234.986 168.296 236.274C168.296 237.561 169.348 238.6 170.622 238.6Z" fill="url(#paint36_radial)"/>
<path opacity="0.5" fill-rule="evenodd" clip-rule="evenodd" d="M170.622 239.14C169.639 238.392 165.776 234.225 173.474 236.288C173.474 234.709 172.2 233.436 170.622 233.436C171.757 235.415 167.77 234.709 167.77 236.288C167.77 237.852 169.057 239.14 170.622 239.14Z" fill="url(#paint37_linear)"/>
<path d="M170.815 230.764H170.442V232.453H170.815V230.764Z" fill="#00045D"/>
<path fill-rule="evenodd" clip-rule="evenodd" d="M186.072 202.839C185.976 202.839 185.892 202.922 185.892 203.019C185.892 203.116 185.976 203.199 186.072 203.199H193.673C193.701 203.199 193.715 203.199 193.742 203.185L195.515 202.631C195.611 202.603 195.667 202.493 195.639 202.396C195.611 202.299 195.501 202.243 195.404 202.271L193.645 202.811H186.072V202.839Z" fill="#00045D"/>
<path fill-rule="evenodd" clip-rule="evenodd" d="M180.451 156.528C180.355 156.528 180.271 156.611 180.271 156.708C180.271 156.805 180.355 156.888 180.451 156.888H187.803L187.858 156.874L189.894 156.321C189.99 156.293 190.046 156.196 190.018 156.099C189.99 156.002 189.894 155.947 189.797 155.975L187.775 156.528H180.451Z" fill="#00045D"/>
<path fill-rule="evenodd" clip-rule="evenodd" d="M186.059 128.271L185.74 125.793H176.326V128.271H186.059ZM176.326 112.267V119.812H184.979L184.508 116.129C184.245 114.025 182.777 112.267 180.659 112.267H176.326Z" fill="url(#paint38_linear)"/>
<path fill-rule="evenodd" clip-rule="evenodd" d="M176.326 125.793H164.904V128.271H176.326V125.793ZM176.326 119.812V112.267H168.767C166.648 112.267 164.904 114.011 164.904 116.129V119.812H176.326Z" fill="url(#paint39_linear)"/>
<path opacity="0.5" fill-rule="evenodd" clip-rule="evenodd" d="M198.45 240.69C199.446 239.984 200.097 238.849 199.931 237.603L184.508 116.129C184.314 114.579 183.47 113.236 182.196 112.627L198.45 240.69Z" fill="url(#paint40_linear)"/>
<path opacity="0.5" fill-rule="evenodd" clip-rule="evenodd" d="M157.4 222.748C173.598 222.748 174.941 220.851 176.312 240.358C176.326 234.502 176.34 228.645 176.353 222.789C176.353 220.92 178.264 219.646 180.147 219.646C181.656 219.646 183.165 219.646 184.688 219.646C186.557 219.646 188.135 220.948 188.481 222.789C189.547 228.493 190.613 234.183 191.693 239.887C191.859 240.815 192.649 241.466 193.59 241.466C194.421 241.466 195.251 241.466 196.096 241.466C191.638 234.128 190.309 212.627 187.969 206.591C187.208 204.611 173.321 203.462 173.211 201.344C171.729 171.661 170.248 141.978 168.766 112.294C166.787 112.294 164.904 114.039 164.904 116.157C164.904 143.334 164.904 170.511 164.904 197.675C162.398 197.675 159.906 197.675 157.4 197.675C155.282 197.675 153.551 199.405 153.551 201.537C153.551 207.325 153.551 213.126 153.551 218.913C153.551 221.003 155.282 222.748 157.4 222.748Z" fill="url(#paint41_linear)"/>
<path fill-rule="evenodd" clip-rule="evenodd" d="M186.529 182.224L185.076 182.404C184.273 182.501 183.705 183.235 183.802 184.038L185.768 200.07C185.865 200.873 186.599 201.441 187.402 201.344L188.855 201.164C189.658 201.067 190.226 200.333 190.129 199.53L188.163 183.498C188.08 182.695 187.332 182.127 186.529 182.224Z" fill="#00045D"/>
<path fill-rule="evenodd" clip-rule="evenodd" d="M186.585 182.584L185.131 182.764C184.536 182.833 184.093 183.387 184.176 183.996L186.142 200.028C186.211 200.624 186.765 201.067 187.374 200.984L188.828 200.804C189.423 200.735 189.866 200.181 189.783 199.572L187.817 183.539C187.734 182.944 187.18 182.515 186.585 182.584Z" fill="url(#paint42_radial)"/>
<path opacity="0.5" fill-rule="evenodd" clip-rule="evenodd" d="M186.585 182.584C186.1 182.639 185.616 182.709 185.131 182.764C187.443 193.314 187.485 200.444 186.142 200.028C186.211 200.624 186.765 201.067 187.374 200.984C187.858 200.928 188.343 200.859 188.828 200.804C185.976 190.171 186.543 182.224 187.817 183.539C187.734 182.944 187.18 182.515 186.585 182.584Z" fill="url(#paint43_linear)"/>
<path fill-rule="evenodd" clip-rule="evenodd" d="M153.551 199.225C159.615 199.225 164.516 204.14 164.516 210.19C164.516 216.254 159.601 221.155 153.551 221.155C147.487 221.155 142.586 216.24 142.586 210.19C142.572 204.14 147.487 199.225 153.551 199.225Z" fill="url(#paint44_linear)"/>
<path fill-rule="evenodd" clip-rule="evenodd" d="M153.551 197.758C156.985 197.758 160.1 199.156 162.343 201.399C164.599 203.656 165.984 206.757 165.984 210.19C165.984 213.624 164.585 216.739 162.343 218.982C160.086 221.238 156.985 222.623 153.551 222.623C150.118 222.623 147.003 221.225 144.76 218.982C142.503 216.725 141.119 213.624 141.119 210.19C141.119 206.757 142.517 203.642 144.76 201.399C147.003 199.156 150.118 197.758 153.551 197.758ZM153.551 199.225C159.615 199.225 164.516 204.14 164.516 210.19C164.516 216.254 159.601 221.155 153.551 221.155C147.487 221.155 142.586 216.241 142.586 210.19C142.572 204.14 147.487 199.225 153.551 199.225Z" fill="black"/>
<path fill-rule="evenodd" clip-rule="evenodd" d="M151.433 202.313C155.794 201.15 160.266 203.725 161.429 208.086C162.592 212.447 160.017 216.919 155.656 218.082C151.295 219.245 146.823 216.67 145.66 212.309C144.497 207.961 147.072 203.476 151.433 202.313Z" fill="url(#paint45_linear)"/>
<path fill-rule="evenodd" clip-rule="evenodd" d="M152.153 205.013C155.019 204.251 157.954 205.94 158.715 208.806C159.477 211.672 157.788 214.607 154.922 215.368C152.056 216.13 149.121 214.441 148.359 211.575C147.598 208.723 149.301 205.788 152.153 205.013Z" fill="#120801"/>
</g>
<defs>
<linearGradient id="paint0_linear" x1="116.609" y1="176.915" x2="103.312" y2="176.912" gradientUnits="userSpaceOnUse">
<stop stop-color="#3654A5"/>
<stop offset="1" stop-color="#5781C1"/>
</linearGradient>
<linearGradient id="paint1_linear" x1="70.3171" y1="176.914" x2="105.567" y2="176.911" gradientUnits="userSpaceOnUse">
<stop stop-color="#4361AD"/>
<stop offset="1" stop-color="#5F94CE"/>
</linearGradient>
<linearGradient id="paint2_linear" x1="99.8337" y1="206.689" x2="99.8626" y2="223.812" gradientUnits="userSpaceOnUse">
<stop stop-color="#828591"/>
<stop offset="1" stop-color="#ADB2C0"/>
</linearGradient>
<linearGradient id="paint3_linear" x1="99.8445" y1="200.697" x2="99.8462" y2="211.574" gradientUnits="userSpaceOnUse">
<stop stop-color="#140C4F"/>
<stop offset="1" stop-color="white"/>
</linearGradient>
<linearGradient id="paint4_linear" x1="94.2113" y1="156.798" x2="105.571" y2="156.799" gradientUnits="userSpaceOnUse">
<stop stop-color="#3654A5"/>
<stop offset="0.51" stop-color="#6FA1D6"/>
<stop offset="1" stop-color="#3654A5"/>
</linearGradient>
<linearGradient id="paint5_linear" x1="93.755" y1="146.11" x2="88.2845" y2="219.659" gradientUnits="userSpaceOnUse">
<stop stop-color="#2B2477"/>
<stop offset="1" stop-color="#3654A5"/>
</linearGradient>
<linearGradient id="paint6_linear" x1="94.1268" y1="131.17" x2="88.9407" y2="131.168" gradientUnits="userSpaceOnUse">
<stop stop-color="#2B2477"/>
<stop offset="1" stop-color="#3654A5"/>
</linearGradient>
<linearGradient id="paint7_linear" x1="94.1196" y1="131.17" x2="89.2724" y2="131.168" gradientUnits="userSpaceOnUse">
<stop stop-color="#4361AD"/>
<stop offset="1" stop-color="#6FA1D6"/>
</linearGradient>
<linearGradient id="paint8_linear" x1="94.1268" y1="134.841" x2="88.9407" y2="134.839" gradientUnits="userSpaceOnUse">
<stop stop-color="#2B2477"/>
<stop offset="1" stop-color="#3654A5"/>
</linearGradient>
<linearGradient id="paint9_linear" x1="94.1196" y1="134.841" x2="89.2724" y2="134.839" gradientUnits="userSpaceOnUse">
<stop stop-color="#4361AD"/>
<stop offset="1" stop-color="#6FA1D6"/>
</linearGradient>
<linearGradient id="paint10_linear" x1="99.8431" y1="232.812" x2="99.8463" y2="239.743" gradientUnits="userSpaceOnUse">
<stop stop-color="#2B2477"/>
<stop offset="1" stop-color="#6FA1D6"/>
</linearGradient>
<linearGradient id="paint11_linear" x1="99.8441" y1="238.659" x2="99.8453" y2="233.589" gradientUnits="userSpaceOnUse">
<stop stop-color="#3654A5"/>
<stop offset="1"/>
</linearGradient>
<linearGradient id="paint12_linear" x1="99.8438" y1="238.245" x2="99.8456" y2="234.298" gradientUnits="userSpaceOnUse">
<stop stop-color="#3D0000"/>
<stop offset="1" stop-color="#794503"/>
</linearGradient>
<radialGradient id="paint13_radial" cx="0" cy="0" r="1" gradientUnits="userSpaceOnUse" gradientTransform="translate(99.8447 235.325) scale(3.10689)">
<stop stop-color="#E4E526"/>
<stop offset="1" stop-color="#EF4423"/>
</radialGradient>
<linearGradient id="paint14_linear" x1="99.8429" y1="239.083" x2="99.846" y2="234.263" gradientUnits="userSpaceOnUse">
<stop stop-color="#EF4423"/>
<stop offset="1" stop-color="white"/>
</linearGradient>
<linearGradient id="paint15_linear" x1="91.7871" y1="120.275" x2="85.4916" y2="120.275" gradientUnits="userSpaceOnUse">
<stop stop-color="#CC721C"/>
<stop offset="1" stop-color="#F5841F"/>
</linearGradient>
<linearGradient id="paint16_linear" x1="105.759" y1="120.276" x2="94.1527" y2="120.274" gradientUnits="userSpaceOnUse">
<stop stop-color="#CC721C"/>
<stop offset="0.47" stop-color="#F5841F"/>
<stop offset="1" stop-color="#CC721C"/>
</linearGradient>
<linearGradient id="paint17_linear" x1="70.9469" y1="239.35" x2="87.6865" y2="112.544" gradientUnits="userSpaceOnUse">
<stop stop-color="#5781C1"/>
<stop offset="1" stop-color="#AADDDD"/>
</linearGradient>
<linearGradient id="paint18_linear" x1="114.937" y1="176.865" x2="79.8516" y2="176.863" gradientUnits="userSpaceOnUse">
<stop stop-color="#140C4F"/>
<stop offset="1" stop-color="#ADB2C0"/>
</linearGradient>
<radialGradient id="paint19_radial" cx="0" cy="0" r="1" gradientUnits="userSpaceOnUse" gradientTransform="translate(84.1087 191.393) rotate(-83.01) scale(9.12254 2.38585)">
<stop stop-color="#E4E526"/>
<stop offset="0.48" stop-color="#EF4423"/>
<stop offset="1" stop-color="#3D0000"/>
</radialGradient>
<linearGradient id="paint20_linear" x1="83.6076" y1="200.224" x2="83.3895" y2="182.716" gradientUnits="userSpaceOnUse">
<stop stop-color="#EF4423"/>
<stop offset="1" stop-color="white"/>
</linearGradient>
<linearGradient id="paint21_linear" x1="128.21" y1="210.198" x2="105.959" y2="210.197" gradientUnits="userSpaceOnUse">
<stop stop-color="#3654A5"/>
<stop offset="1" stop-color="#5F94CE"/>
</linearGradient>
<linearGradient id="paint22_linear" x1="123.666" y1="212.005" x2="110.487" y2="208.472" gradientUnits="userSpaceOnUse">
<stop stop-color="#5F94CE"/>
<stop offset="0.51" stop-color="#AADDDD"/>
<stop offset="1" stop-color="#5F94CE"/>
</linearGradient>
<linearGradient id="paint23_linear" x1="153.864" y1="176.915" x2="167.161" y2="176.912" gradientUnits="userSpaceOnUse">
<stop stop-color="#3654A5"/>
<stop offset="1" stop-color="#5781C1"/>
</linearGradient>
<linearGradient id="paint24_linear" x1="200.156" y1="176.914" x2="164.906" y2="176.911" gradientUnits="userSpaceOnUse">
<stop stop-color="#4361AD"/>
<stop offset="1" stop-color="#5F94CE"/>
</linearGradient>
<linearGradient id="paint25_linear" x1="170.64" y1="206.689" x2="170.611" y2="223.812" gradientUnits="userSpaceOnUse">
<stop stop-color="#828591"/>
<stop offset="1" stop-color="#ADB2C0"/>
</linearGradient>
<linearGradient id="paint26_linear" x1="170.629" y1="200.697" x2="170.627" y2="211.574" gradientUnits="userSpaceOnUse">
<stop stop-color="#140C4F"/>
<stop offset="1" stop-color="white"/>
</linearGradient>
<linearGradient id="paint27_linear" x1="176.262" y1="156.798" x2="164.902" y2="156.799" gradientUnits="userSpaceOnUse">
<stop stop-color="#3654A5"/>
<stop offset="0.51" stop-color="#6FA1D6"/>
<stop offset="1" stop-color="#3654A5"/>
</linearGradient>
<linearGradient id="paint28_linear" x1="176.718" y1="146.11" x2="182.188" y2="219.659" gradientUnits="userSpaceOnUse">
<stop stop-color="#2B2477"/>
<stop offset="1" stop-color="#3654A5"/>
</linearGradient>
<linearGradient id="paint29_linear" x1="176.346" y1="131.17" x2="181.532" y2="131.168" gradientUnits="userSpaceOnUse">
<stop stop-color="#2B2477"/>
<stop offset="1" stop-color="#3654A5"/>
</linearGradient>
<linearGradient id="paint30_linear" x1="176.353" y1="131.17" x2="181.201" y2="131.168" gradientUnits="userSpaceOnUse">
<stop stop-color="#4361AD"/>
<stop offset="1" stop-color="#6FA1D6"/>
</linearGradient>
<linearGradient id="paint31_linear" x1="176.346" y1="134.841" x2="181.532" y2="134.839" gradientUnits="userSpaceOnUse">
<stop stop-color="#2B2477"/>
<stop offset="1" stop-color="#3654A5"/>
</linearGradient>
<linearGradient id="paint32_linear" x1="176.353" y1="134.841" x2="181.201" y2="134.839" gradientUnits="userSpaceOnUse">
<stop stop-color="#4361AD"/>
<stop offset="1" stop-color="#6FA1D6"/>
</linearGradient>
<linearGradient id="paint33_linear" x1="170.63" y1="232.812" x2="170.627" y2="239.742" gradientUnits="userSpaceOnUse">
<stop stop-color="#2B2477"/>
<stop offset="1" stop-color="#6FA1D6"/>
</linearGradient>
<linearGradient id="paint34_linear" x1="170.629" y1="238.659" x2="170.628" y2="233.589" gradientUnits="userSpaceOnUse">
<stop stop-color="#3654A5"/>
<stop offset="1"/>
</linearGradient>
<linearGradient id="paint35_linear" x1="170.629" y1="238.245" x2="170.627" y2="234.298" gradientUnits="userSpaceOnUse">
<stop stop-color="#3D0000"/>
<stop offset="1" stop-color="#794503"/>
</linearGradient>
<radialGradient id="paint36_radial" cx="0" cy="0" r="1" gradientUnits="userSpaceOnUse" gradientTransform="translate(170.628 235.324) scale(3.10686)">
<stop stop-color="#E4E526"/>
<stop offset="1" stop-color="#EF4423"/>
</radialGradient>
<linearGradient id="paint37_linear" x1="170.63" y1="239.083" x2="170.627" y2="234.263" gradientUnits="userSpaceOnUse">
<stop stop-color="#EF4423"/>
<stop offset="1" stop-color="white"/>
</linearGradient>
<linearGradient id="paint38_linear" x1="178.686" y1="120.275" x2="184.981" y2="120.275" gradientUnits="userSpaceOnUse">
<stop stop-color="#CC721C"/>
<stop offset="1" stop-color="#F5841F"/>
</linearGradient>
<linearGradient id="paint39_linear" x1="164.715" y1="120.276" x2="176.32" y2="120.274" gradientUnits="userSpaceOnUse">
<stop stop-color="#CC721C"/>
<stop offset="0.47" stop-color="#F5841F"/>
<stop offset="1" stop-color="#CC721C"/>
</linearGradient>
<linearGradient id="paint40_linear" x1="199.526" y1="239.35" x2="182.786" y2="112.544" gradientUnits="userSpaceOnUse">
<stop stop-color="#5781C1"/>
<stop offset="1" stop-color="#AADDDD"/>
</linearGradient>
<linearGradient id="paint41_linear" x1="155.536" y1="176.864" x2="190.621" y2="176.863" gradientUnits="userSpaceOnUse">
<stop stop-color="#140C4F"/>
<stop offset="1" stop-color="#ADB2C0"/>
</linearGradient>
<radialGradient id="paint42_radial" cx="0" cy="0" r="1" gradientUnits="userSpaceOnUse" gradientTransform="translate(186.369 191.39) rotate(-96.99) scale(9.12272 2.3859)">
<stop stop-color="#E4E526"/>
<stop offset="0.48" stop-color="#EF4423"/>
<stop offset="1" stop-color="#3D0000"/>
</radialGradient>
<linearGradient id="paint43_linear" x1="186.865" y1="200.224" x2="187.083" y2="182.716" gradientUnits="userSpaceOnUse">
<stop stop-color="#EF4423"/>
<stop offset="1" stop-color="white"/>
</linearGradient>
<linearGradient id="paint44_linear" x1="142.263" y1="210.198" x2="164.514" y2="210.197" gradientUnits="userSpaceOnUse">
<stop stop-color="#3654A5"/>
<stop offset="1" stop-color="#5F94CE"/>
</linearGradient>
<linearGradient id="paint45_linear" x1="146.807" y1="212.004" x2="159.986" y2="208.472" gradientUnits="userSpaceOnUse">
<stop stop-color="#5F94CE"/>
<stop offset="0.51" stop-color="#AADDDD"/>
<stop offset="1" stop-color="#5F94CE"/>
</linearGradient>
<clipPath id="clip0">
<rect x="69.0431" y="96.913" width="132.383" height="147.488" fill="white"/>
</clipPath>
</defs>
</svg>
