<svg width="270" height="370" viewBox="0 0 270 370" fill="none" xmlns="http://www.w3.org/2000/svg">
<g clip-path="url(#clip0)">
<path fill-rule="evenodd" clip-rule="evenodd" d="M102.422 27.7311L106.091 53.4407V71.7988H102.422V27.7311Z" fill="url(#paint0_linear)"/>
<path fill-rule="evenodd" clip-rule="evenodd" d="M103.89 27.6203L107.545 53.233C107.559 53.3023 107.559 53.3715 107.559 53.4407V71.7988C107.559 72.6156 106.908 73.2663 106.091 73.2663H102.422C101.606 73.2663 100.955 72.6156 100.955 71.7988V27.7311C100.955 26.9143 101.606 26.2635 102.422 26.2635C103.198 26.2635 103.821 26.8589 103.89 27.6203ZM102.422 27.7311L106.091 53.4407V71.7988H102.422V27.7311Z" fill="black"/>
<path fill-rule="evenodd" clip-rule="evenodd" d="M111.588 185.492C110.37 186.253 109.151 187.028 107.933 187.79C107.933 148.942 107.933 110.093 107.933 71.245C107.933 70.3728 107.67 69.6252 107.13 68.9468C104.956 66.2194 102.769 63.492 100.595 60.7784C100.595 71.1758 100.595 81.587 100.595 91.9844C91.4022 128.701 83.8984 178.279 83.8984 189.576C83.1785 191.016 81.3094 194.145 81.3094 195.64C81.3094 216.158 81.3094 236.689 81.3094 257.207C83.4692 254.203 95.0849 239.223 95.0849 236.842C95.0849 230.916 95.0849 224.991 95.0849 219.065C95.0849 217.653 95.8741 216.545 97.0786 215.798C103.821 211.561 110.577 207.325 117.32 203.088C117.32 198.464 117.25 193.411 117.223 188.565C117.195 185.699 114.025 183.955 111.588 185.492Z" fill="url(#paint1_linear)"/>
<path fill-rule="evenodd" clip-rule="evenodd" d="M111.588 185.492C110.369 186.253 109.151 187.028 107.933 187.79C107.933 148.942 107.933 110.093 107.933 71.2451C107.933 70.3728 107.67 69.6252 107.13 68.9468C104.956 66.2194 102.769 63.492 100.595 60.7785C100.595 71.1758 100.595 81.5871 100.595 91.9844C91.4022 128.701 83.8983 178.279 83.8983 189.576C83.1784 191.016 81.3094 194.145 81.3094 195.64C81.3094 216.158 81.3094 236.689 81.3094 257.207C83.4691 254.203 95.0848 239.223 95.0848 236.842C95.0848 230.916 95.0848 224.991 95.0848 219.065C95.0848 217.653 95.874 216.545 97.0785 215.798C103.821 211.561 110.577 207.325 117.319 203.088C117.319 198.464 117.25 193.411 117.223 188.565C117.195 185.699 114.024 183.955 111.588 185.492ZM109.4 185.146L110.812 184.259C111.671 183.72 112.598 183.47 113.512 183.47C114.357 183.47 115.187 183.678 115.921 184.052C115.949 184.066 115.977 184.079 116.018 184.093C116.78 184.509 117.43 185.118 117.901 185.865C118.386 186.627 118.676 187.555 118.676 188.579C118.69 190.157 118.704 191.805 118.718 193.439C118.745 197.024 118.787 200.624 118.787 203.102C118.787 203.587 118.538 204.057 118.109 204.334L97.8676 217.044C97.4384 217.321 97.0785 217.639 96.857 218.013C96.677 218.317 96.5662 218.664 96.5662 219.065V236.842C96.5662 239.265 88.7578 249.703 84.6182 255.241C84.5906 255.269 84.5767 255.311 84.549 255.338C83.663 256.515 82.9569 257.456 82.5554 258.024C82.2923 258.426 81.8493 258.675 81.337 258.675C80.5202 258.675 79.8695 258.024 79.8695 257.207V195.64C79.8695 194.089 81.1709 191.666 82.0847 189.95C82.2093 189.714 82.32 189.507 82.4585 189.23C82.5415 182.667 84.7844 165.112 88.3009 144.608C91.2222 127.538 95.0156 108.39 99.1413 91.8183V60.7785H99.1552C99.1552 60.3493 99.349 59.9201 99.709 59.6432C100.346 59.1448 101.26 59.2417 101.758 59.8786L108.293 68.0469C108.667 68.5177 108.957 69.0161 109.137 69.556C109.331 70.096 109.428 70.6636 109.428 71.2589V185.146H109.4Z" fill="black"/>
<path fill-rule="evenodd" clip-rule="evenodd" d="M81.3093 202.659L100.401 192.746V147.737L98.7536 149.191V186.419C98.7536 187.624 96.9122 187.624 96.9122 186.419V150.811L95.9985 151.614V188.261C95.9985 189.465 94.1572 189.465 94.1572 188.261V153.233L93.2434 154.036C93.2434 166.054 93.2434 178.071 93.2434 190.088C93.2434 191.293 91.4021 191.293 91.4021 190.088V155.656L90.4883 156.459C90.4883 168.283 90.4883 180.106 90.4883 191.929C90.4883 193.134 88.647 193.134 88.647 191.929V164.143L87.7332 164.946C87.7332 176.576 87.7332 182.141 87.7332 193.771C87.7332 194.975 85.8919 194.975 85.8919 193.771V172.505C85.5457 175.067 85.2412 177.462 84.9781 179.663C84.9781 185.976 84.9781 189.285 84.9781 195.598C84.9781 196.803 83.1368 196.803 83.1368 195.598C83.1368 194.062 83.1368 192.539 83.1368 191.002C82.3199 192.552 81.2954 194.532 81.2954 195.626C81.3093 197.98 81.3093 200.319 81.3093 202.659Z" fill="url(#paint2_linear)"/>
<path fill-rule="evenodd" clip-rule="evenodd" d="M100.581 131.179C95.5279 144.29 87.7333 159.92 83.8983 189.576C85.892 158.079 93.2435 123.19 100.581 91.9844V60.7784C102.755 63.5059 105.122 66.0948 107.116 68.9468C107.587 69.6114 107.919 70.4282 107.919 71.245C107.919 110.343 107.919 148.9 107.919 187.79C105.468 189.437 103.018 191.085 100.581 192.746V131.179Z" fill="url(#paint3_linear)"/>
<path opacity="0.5" fill-rule="evenodd" clip-rule="evenodd" d="M81.3094 248.319C81.3094 251.282 81.3094 254.245 81.3094 257.221C83.4692 254.217 95.0849 239.237 95.0849 236.856C95.0849 230.93 95.0849 225.005 95.0849 219.079C95.0849 217.667 95.8741 216.559 97.0786 215.812C103.821 211.575 110.577 207.339 117.32 203.102C117.32 200.126 117.306 199.004 117.278 195.848C114.648 198.907 111.588 201.621 108.404 204.085C106.978 205.179 105.856 206.356 105.856 208.529C105.856 211.617 104.832 206.813 103.89 207.145C101.924 207.823 100.678 208.668 100.761 211.104C100.872 214.33 99.0168 210.357 97.7016 211.049C96.2202 211.838 91.2915 214.483 89.8516 214.496C89.8101 214.496 89.7824 214.496 89.7409 214.483C89.7547 236.911 85.5182 255.601 81.3094 248.319Z" fill="url(#paint4_linear)"/>
<path opacity="0.5" fill-rule="evenodd" clip-rule="evenodd" d="M100.581 60.7784C100.581 71.1758 100.581 81.587 100.581 91.9844C91.4022 128.701 83.8984 178.279 83.8984 189.576C83.1785 191.016 81.3094 194.145 81.3094 195.64C81.3094 216.158 81.3094 236.689 81.3094 257.207C81.3094 224.16 84.9783 209.955 84.9783 195.64C84.9783 194.145 86.8473 191.016 87.5673 189.576C87.5673 179.151 92.3852 137.797 100.318 102.631C100.401 106.12 100.734 109.18 100.734 126.845C102.423 101.163 101.467 76.5337 100.581 60.7784Z" fill="url(#paint5_linear)"/>
<path fill-rule="evenodd" clip-rule="evenodd" d="M107.933 187.638C108.099 187.527 108.182 187.845 108.03 187.942L100.692 192.899C100.567 192.982 100.401 192.885 100.401 192.746V132.12C93.4097 149.468 85.7258 171.024 83.8983 189.576C83.8707 189.811 83.5107 189.783 83.5384 189.534C85.3936 170.678 93.2851 148.72 100.415 131.11C100.484 130.916 100.775 130.957 100.775 131.165V192.386L107.933 187.638Z" fill="#00045D"/>
<path fill-rule="evenodd" clip-rule="evenodd" d="M89.7547 245.744C89.7547 245.979 89.3809 246.45 89.3809 246.215V213.292C89.3809 211.963 90.0039 210.814 91.0976 210.08C99.7782 204.32 108.556 198.464 117.236 192.705C117.347 192.636 117.403 193.037 117.236 193.148L105.842 200.721V210.288C105.842 210.523 105.468 210.772 105.468 210.523V200.956L100.747 204.085V213.458C100.747 213.693 100.374 213.943 100.374 213.693V204.348L91.2776 210.384C90.2669 211.049 89.727 212.087 89.727 213.292V245.744H89.7547Z" fill="#00045D"/>
<path fill-rule="evenodd" clip-rule="evenodd" d="M100.775 131.179C99.8474 133.2 98.906 135.235 97.9784 137.257C99.709 127.621 99.7228 107.075 100.595 91.9844C100.65 105.054 100.706 118.123 100.775 131.179Z" fill="url(#paint6_linear)"/>
<path fill-rule="evenodd" clip-rule="evenodd" d="M109.829 190.227C111.477 189.23 113 191.722 111.352 192.732L96.5939 201.704C95.6109 202.299 94.3511 201.607 94.3511 200.458V161.969C94.3511 160.031 97.2862 160.031 97.2862 161.969V197.855L109.829 190.227Z" fill="#00045D"/>
<path fill-rule="evenodd" clip-rule="evenodd" d="M110.106 190.697C111.131 190.074 112.086 191.639 111.062 192.262L96.3169 201.233C95.7355 201.593 94.9048 201.205 94.9048 200.458V161.97C94.9048 160.765 96.7461 160.765 96.7461 161.97V198.838L110.106 190.697Z" fill="url(#paint7_linear)"/>
<path fill-rule="evenodd" clip-rule="evenodd" d="M95.2649 161.969C95.2649 161.249 96.3725 161.249 96.3725 161.969V199.489L110.3 191.016C110.923 190.642 111.491 191.583 110.868 191.957L96.1094 200.942C95.7495 201.164 95.2649 200.915 95.2649 200.472V161.969Z" fill="url(#paint8_linear)"/>
<path fill-rule="evenodd" clip-rule="evenodd" d="M95.4586 166.76C95.4586 166.275 96.1924 166.275 96.1924 166.76V170.429C96.1924 170.913 95.4586 170.913 95.4586 170.429V166.76Z" fill="url(#paint9_linear)"/>
<path fill-rule="evenodd" clip-rule="evenodd" d="M95.5278 167.106C95.5278 166.718 96.1232 166.718 96.1232 167.106V170.083C96.1232 170.47 95.5278 170.47 95.5278 170.083V167.106Z" fill="url(#paint10_linear)"/>
<path opacity="0.5" fill-rule="evenodd" clip-rule="evenodd" d="M95.4586 166.76C95.4586 166.275 96.1924 166.275 96.1924 166.76C95.6801 166.469 95.7078 170.304 96.1924 170.429C96.1924 170.913 95.4586 170.913 95.4586 170.429C95.7078 170.29 95.9155 167.037 95.4586 166.76Z" fill="url(#paint11_linear)"/>
<path fill-rule="evenodd" clip-rule="evenodd" d="M95.4586 174.111C95.4586 173.627 96.1924 173.627 96.1924 174.111V177.78C96.1924 178.265 95.4586 178.265 95.4586 177.78V174.111Z" fill="url(#paint12_linear)"/>
<path fill-rule="evenodd" clip-rule="evenodd" d="M95.5278 174.457C95.5278 174.07 96.1232 174.07 96.1232 174.457V177.434C96.1232 177.822 95.5278 177.822 95.5278 177.434V174.457Z" fill="url(#paint13_linear)"/>
<path opacity="0.5" fill-rule="evenodd" clip-rule="evenodd" d="M95.4586 174.111C95.4586 173.627 96.1924 173.627 96.1924 174.111C95.6801 173.82 95.7078 177.655 96.1924 177.78C96.1924 178.265 95.4586 178.265 95.4586 177.78C95.7078 177.628 95.9155 174.374 95.4586 174.111Z" fill="url(#paint14_linear)"/>
<path fill-rule="evenodd" clip-rule="evenodd" d="M95.4586 181.449C95.4586 180.964 96.1924 180.964 96.1924 181.449V185.118C96.1924 185.602 95.4586 185.602 95.4586 185.118V181.449Z" fill="url(#paint15_linear)"/>
<path fill-rule="evenodd" clip-rule="evenodd" d="M95.5278 181.795C95.5278 181.407 96.1232 181.407 96.1232 181.795V184.772C96.1232 185.159 95.5278 185.159 95.5278 184.772V181.795Z" fill="url(#paint16_linear)"/>
<path opacity="0.5" fill-rule="evenodd" clip-rule="evenodd" d="M95.4586 181.449C95.4586 180.964 96.1924 180.964 96.1924 181.449C95.6801 181.158 95.7078 184.993 96.1924 185.118C96.1924 185.602 95.4586 185.602 95.4586 185.118C95.7078 184.979 95.9155 181.712 95.4586 181.449Z" fill="url(#paint17_linear)"/>
<path fill-rule="evenodd" clip-rule="evenodd" d="M95.4586 188.787C95.4586 188.302 96.1924 188.302 96.1924 188.787V192.455C96.1924 192.94 95.4586 192.94 95.4586 192.455V188.787Z" fill="url(#paint18_linear)"/>
<path fill-rule="evenodd" clip-rule="evenodd" d="M95.5278 189.133C95.5278 188.745 96.1232 188.745 96.1232 189.133V192.109C96.1232 192.497 95.5278 192.497 95.5278 192.109V189.133Z" fill="url(#paint19_linear)"/>
<path opacity="0.5" fill-rule="evenodd" clip-rule="evenodd" d="M95.4586 188.787C95.4586 188.302 96.1924 188.302 96.1924 188.787C95.6801 188.496 95.7078 192.331 96.1924 192.455C96.1924 192.94 95.4586 192.94 95.4586 192.455C95.7078 192.317 95.9155 189.064 95.4586 188.787Z" fill="url(#paint20_linear)"/>
<path fill-rule="evenodd" clip-rule="evenodd" d="M105.787 193.909C106.202 193.66 106.576 194.283 106.174 194.532L103.046 196.457C102.63 196.706 102.256 196.083 102.658 195.834L105.787 193.909Z" fill="url(#paint21_linear)"/>
<path fill-rule="evenodd" clip-rule="evenodd" d="M105.524 194.158C105.856 193.951 106.174 194.463 105.828 194.671L103.295 196.221C102.962 196.429 102.644 195.917 102.99 195.709L105.524 194.158Z" fill="url(#paint22_linear)"/>
<path opacity="0.5" fill-rule="evenodd" clip-rule="evenodd" d="M105.787 193.909C106.202 193.66 106.576 194.283 106.174 194.532C106.161 193.951 102.907 195.972 103.046 196.457C102.63 196.706 102.256 196.083 102.658 195.834C102.907 195.972 105.801 194.449 105.787 193.909Z" fill="url(#paint23_linear)"/>
<path fill-rule="evenodd" clip-rule="evenodd" d="M101.204 196.664C101.62 196.415 101.993 197.038 101.592 197.287L98.4629 199.212C98.0476 199.461 97.6738 198.838 98.0753 198.589L101.204 196.664Z" fill="url(#paint24_linear)"/>
<path fill-rule="evenodd" clip-rule="evenodd" d="M100.941 196.913C101.273 196.706 101.592 197.218 101.246 197.426L98.7121 198.976C98.3798 199.184 98.0614 198.672 98.4075 198.464L100.941 196.913Z" fill="url(#paint25_linear)"/>
<path opacity="0.5" fill-rule="evenodd" clip-rule="evenodd" d="M101.204 196.664C101.62 196.415 101.993 197.038 101.592 197.287C101.578 196.706 98.3245 198.727 98.4629 199.212C98.0476 199.461 97.6738 198.838 98.0753 198.589C98.3245 198.727 101.218 197.204 101.204 196.664Z" fill="url(#paint26_linear)"/>
<path fill-rule="evenodd" clip-rule="evenodd" d="M112.806 185.852C115.049 185.852 116.863 187.665 116.863 189.908C116.863 192.151 115.049 193.965 112.806 193.965C110.563 193.965 108.75 192.151 108.75 189.908C108.75 187.679 110.577 185.852 112.806 185.852Z" fill="#00045D"/>
<path fill-rule="evenodd" clip-rule="evenodd" d="M112.806 186.184C110.743 186.184 109.082 187.859 109.082 189.908C109.082 191.971 110.757 193.632 112.806 193.632C114.855 193.632 116.53 191.957 116.53 189.908C116.544 187.859 114.869 186.184 112.806 186.184Z" fill="url(#paint27_radial)"/>
<path d="M112.806 192.414C114.19 192.414 115.312 191.292 115.312 189.908C115.312 188.524 114.19 187.402 112.806 187.402C111.422 187.402 110.3 188.524 110.3 189.908C110.3 191.292 111.422 192.414 112.806 192.414Z" fill="url(#paint28_linear)"/>
<path fill-rule="evenodd" clip-rule="evenodd" d="M95.9432 156.459C98.1861 156.459 99.9997 158.273 99.9997 160.516C99.9997 162.759 98.1861 164.572 95.9432 164.572C93.7004 164.572 91.8867 162.759 91.8867 160.516C91.8867 158.273 93.7004 156.459 95.9432 156.459Z" fill="#00045D"/>
<path fill-rule="evenodd" clip-rule="evenodd" d="M95.9432 156.792C93.8804 156.792 92.219 158.467 92.219 160.516C92.219 162.579 93.8942 164.24 95.9432 164.24C98.0061 164.24 99.6674 162.565 99.6674 160.516C99.6674 158.467 98.0061 156.792 95.9432 156.792Z" fill="url(#paint29_radial)"/>
<path d="M95.9433 163.022C97.3272 163.022 98.4492 161.9 98.4492 160.516C98.4492 159.132 97.3272 158.01 95.9433 158.01C94.5593 158.01 93.4374 159.132 93.4374 160.516C93.4374 161.9 94.5593 163.022 95.9433 163.022Z" fill="url(#paint30_linear)"/>
<path fill-rule="evenodd" clip-rule="evenodd" d="M113.443 202.839V207.975C113.443 208.585 113.069 209.318 112.598 209.595L108.68 212.046C108.223 212.337 107.836 212.073 107.836 211.464V206.328C107.836 205.719 108.21 204.985 108.68 204.708L112.598 202.258C113.055 201.967 113.443 202.23 113.443 202.839Z" fill="url(#paint31_linear)"/>
<path fill-rule="evenodd" clip-rule="evenodd" d="M114.91 202.839V207.975C114.91 208.515 114.758 209.083 114.495 209.581C114.232 210.094 113.831 210.564 113.374 210.841L109.456 213.292C109.082 213.527 108.694 213.638 108.32 213.638C107.988 213.638 107.67 213.555 107.379 213.389C107.116 213.236 106.881 213.015 106.714 212.738C106.493 212.392 106.368 211.963 106.368 211.478V206.342C106.368 205.802 106.521 205.234 106.784 204.736C107.047 204.224 107.448 203.753 107.905 203.476L111.823 201.025C112.197 200.79 112.585 200.679 112.958 200.679C113.291 200.679 113.609 200.762 113.9 200.929C114.163 201.081 114.384 201.302 114.564 201.579C114.786 201.925 114.91 202.355 114.91 202.839ZM113.443 202.839V207.975C113.443 208.585 113.069 209.318 112.598 209.595L108.68 212.046C108.223 212.337 107.836 212.074 107.836 211.464V206.328C107.836 205.719 108.21 204.985 108.68 204.708L112.598 202.258C113.055 201.967 113.443 202.23 113.443 202.839Z" fill="black"/>
<path fill-rule="evenodd" clip-rule="evenodd" d="M111.615 210.218C110.965 210.62 110.314 211.035 109.663 211.437C108.583 212.115 109.857 205.816 110.176 205.608C110.48 205.414 110.799 205.22 111.103 205.027C111.435 204.819 112.695 209.54 111.615 210.218Z" fill="url(#paint32_linear)"/>
<path fill-rule="evenodd" clip-rule="evenodd" d="M107.933 127.551C108.168 127.635 108.168 127.995 107.933 127.925L106.091 127.33C105.178 127.025 104.444 127.524 104.444 128.438V140.372C104.444 141.285 105.191 142.268 106.091 142.559L107.933 143.154C108.168 143.238 108.168 143.598 107.933 143.528L106.091 142.933C104.984 142.573 104.07 141.369 104.07 140.247V128.313C104.07 127.205 104.984 126.596 106.091 126.956L107.933 127.551ZM107.933 149.578C108.168 149.661 108.168 150.021 107.933 149.952L106.091 149.357C105.178 149.052 104.444 149.551 104.444 150.464V162.399C104.444 163.312 105.191 164.295 106.091 164.586L107.933 165.181C108.168 165.264 108.168 165.624 107.933 165.555L106.091 164.96C104.984 164.6 104.07 163.395 104.07 162.274V150.34C104.07 149.232 104.984 148.623 106.091 148.983L107.933 149.578Z" fill="#00045D"/>
<path opacity="0.5" fill-rule="evenodd" clip-rule="evenodd" d="M111.588 185.492C110.37 186.253 109.151 187.028 107.933 187.79C107.933 177.752 107.933 167.715 107.933 157.691C105.565 157.124 100.761 150.741 100.761 129.891C99.1691 135.831 96.9955 146.006 94.6419 156.695C96.9124 156.695 98.4354 157.885 98.4354 160.516C98.4354 162.316 93.2436 169.086 93.2436 173.821C93.2436 187.651 93.2436 195.598 93.2436 207.643C93.2436 214.981 84.0645 218.664 81.3094 216.241C81.3094 229.892 81.3094 243.556 81.3094 257.207C83.4692 254.203 95.0849 239.223 95.0849 236.842C95.0849 230.916 95.0849 224.991 95.0849 219.065C95.0849 217.653 95.8741 216.545 97.0786 215.798C100.637 213.555 104.209 211.326 107.767 209.083C107.767 205.733 113.318 202.327 113.665 205.386C114.883 204.625 116.101 203.85 117.32 203.088C117.32 198.464 117.25 193.411 117.223 188.565C117.195 185.699 114.025 183.955 111.588 185.492Z" fill="url(#paint33_linear)"/>
<path fill-rule="evenodd" clip-rule="evenodd" d="M118.51 203.974H121.307C122.082 203.974 122.705 203.351 122.705 202.576V198.866C124.685 198.893 126.291 197.371 126.291 195.377C126.291 193.452 124.726 191.888 122.802 191.888L122.705 182.114C124.685 182.141 126.291 180.618 126.291 178.625C126.291 176.7 124.726 175.136 122.802 175.136L122.705 171.855C122.705 171.079 122.082 170.456 121.307 170.456H118.51C117.735 170.456 117.112 171.079 117.112 171.855V202.59C117.112 203.351 117.735 203.974 118.51 203.974Z" fill="url(#paint34_linear)"/>
<path fill-rule="evenodd" clip-rule="evenodd" d="M118.51 203.974H121.307C122.082 203.974 122.705 203.351 122.705 202.576V198.866C124.685 198.893 126.291 197.37 126.291 195.377C126.291 193.452 124.726 191.888 122.802 191.888L122.705 182.114C124.685 182.141 126.291 180.618 126.291 178.625C126.291 176.7 124.726 175.136 122.802 175.136L122.705 171.855C122.705 171.079 122.082 170.456 121.307 170.456H118.51C117.735 170.456 117.112 171.079 117.112 171.855V202.59C117.112 203.351 117.735 203.974 118.51 203.974ZM121.293 205.442H118.496C117.707 205.442 117.001 205.124 116.475 204.597C115.963 204.085 115.63 203.365 115.63 202.576V171.841C115.63 171.052 115.949 170.332 116.475 169.819C116.987 169.307 117.707 168.975 118.496 168.975H121.293C122.082 168.975 122.788 169.293 123.314 169.819C123.826 170.332 124.159 171.052 124.159 171.841L124.214 173.862C125.003 174.098 125.695 174.527 126.263 175.08L126.291 175.108C127.191 176.008 127.744 177.24 127.744 178.611V178.625V178.68C127.731 180.065 127.149 181.297 126.249 182.169C125.668 182.723 124.962 183.138 124.173 183.373L124.242 190.628C125.017 190.863 125.709 191.293 126.277 191.846L126.305 191.874C127.205 192.774 127.758 194.006 127.758 195.377V195.391V195.446C127.744 196.831 127.163 198.063 126.263 198.935C125.682 199.489 124.976 199.904 124.173 200.139V202.576C124.173 203.31 123.896 203.988 123.425 204.487C123.397 204.528 123.356 204.556 123.328 204.597C122.802 205.124 122.096 205.442 121.293 205.442Z" fill="black"/>
<path fill-rule="evenodd" clip-rule="evenodd" d="M122.747 175.122C119.631 176.437 119.673 181.283 122.691 182.1C117.001 182.072 117.042 175.094 122.747 175.122Z" fill="url(#paint35_linear)"/>
<path fill-rule="evenodd" clip-rule="evenodd" d="M122.747 191.888C119.631 193.203 119.673 198.077 122.691 198.893C117.001 198.866 117.042 191.846 122.747 191.888Z" fill="url(#paint36_linear)"/>
<path d="M123.245 180.106C124.071 180.106 124.74 179.437 124.74 178.611C124.74 177.785 124.071 177.116 123.245 177.116C122.419 177.116 121.75 177.785 121.75 178.611C121.75 179.437 122.419 180.106 123.245 180.106Z" fill="#00045D"/>
<path d="M123.245 179.732C123.864 179.732 124.366 179.23 124.366 178.611C124.366 177.992 123.864 177.49 123.245 177.49C122.626 177.49 122.124 177.992 122.124 178.611C122.124 179.23 122.626 179.732 123.245 179.732Z" fill="url(#paint37_linear)"/>
<path d="M123.245 196.9C124.071 196.9 124.74 196.23 124.74 195.405C124.74 194.579 124.071 193.909 123.245 193.909C122.419 193.909 121.75 194.579 121.75 195.405C121.75 196.23 122.419 196.9 123.245 196.9Z" fill="#00045D"/>
<path d="M123.245 196.526C123.864 196.526 124.366 196.024 124.366 195.404C124.366 194.785 123.864 194.283 123.245 194.283C122.626 194.283 122.124 194.785 122.124 195.404C122.124 196.024 122.626 196.526 123.245 196.526Z" fill="url(#paint38_linear)"/>
<path fill-rule="evenodd" clip-rule="evenodd" d="M122.691 174.762C122.926 174.762 122.926 175.136 122.691 175.136C117.042 175.136 117.042 182.114 122.691 182.114C122.926 182.114 122.926 182.487 122.691 182.487C116.558 182.474 116.558 174.762 122.691 174.762Z" fill="#00045D"/>
<path fill-rule="evenodd" clip-rule="evenodd" d="M122.691 191.514C122.926 191.514 122.926 191.888 122.691 191.888C117.042 191.888 117.042 198.866 122.691 198.866C122.926 198.866 122.926 199.239 122.691 199.239C116.558 199.239 116.558 191.514 122.691 191.514Z" fill="#00045D"/>
<path fill-rule="evenodd" clip-rule="evenodd" d="M117.112 187.402C116.876 187.402 116.876 187.029 117.112 187.029H120.601V182.169C120.601 182.072 120.684 181.989 120.781 181.989C120.877 181.989 120.961 182.072 120.961 182.169V191.833C120.961 191.93 120.877 192.013 120.781 192.013C120.684 192.013 120.601 191.93 120.601 191.833V187.402H117.112Z" fill="#00045D"/>
<path opacity="0.5" fill-rule="evenodd" clip-rule="evenodd" d="M118.51 203.974C119.438 203.974 120.379 203.974 121.307 203.974C122.082 203.974 122.705 203.351 122.705 202.576C122.705 201.344 122.705 200.098 122.705 198.866C124.685 198.893 126.291 197.37 126.291 195.377C126.291 193.452 124.726 191.888 122.802 191.888C122.774 188.634 122.733 185.367 122.705 182.114C124.685 182.141 126.291 180.618 126.291 178.625C126.291 176.7 124.726 175.136 122.802 175.136C122.774 174.042 122.733 172.948 122.705 171.855C122.705 171.079 122.082 170.456 121.307 170.456C120.379 170.456 119.438 170.456 118.51 170.456C117.901 182.653 117.901 191.777 118.51 203.974Z" fill="url(#paint39_linear)"/>
<path fill-rule="evenodd" clip-rule="evenodd" d="M168.157 27.4956L164.475 53.1914V71.5495H168.157V27.4956Z" fill="url(#paint40_linear)"/>
<path fill-rule="evenodd" clip-rule="evenodd" d="M168.157 27.4957L164.488 53.1915V71.5495H168.157V27.4957ZM163.035 52.9838L166.69 27.3711C166.745 26.6096 167.382 26.0143 168.157 26.0143C168.974 26.0143 169.625 26.665 169.625 27.4818V71.5357C169.625 72.3525 168.974 73.0032 168.157 73.0032H164.488C163.672 73.0032 163.021 72.3525 163.021 71.5357V53.1915C163.021 53.1222 163.021 53.053 163.035 52.9838Z" fill="black"/>
<path fill-rule="evenodd" clip-rule="evenodd" d="M158.992 185.256C160.21 186.018 161.429 186.793 162.647 187.554C162.647 148.706 162.647 109.858 162.647 71.0096C162.647 70.1374 162.91 69.3897 163.45 68.7113C165.624 65.9839 167.811 63.2565 169.985 60.543C169.985 70.9403 169.985 81.3516 169.985 91.749C179.164 128.465 186.667 178.029 186.667 189.34C187.387 190.78 189.256 193.909 189.256 195.404C189.256 215.922 189.256 236.454 189.256 256.972C187.097 253.967 175.481 238.987 175.481 236.606C175.481 230.681 175.481 224.755 175.481 218.83C175.481 217.417 174.692 216.31 173.487 215.562C166.745 211.326 159.989 207.089 153.246 202.853C153.246 198.229 153.316 193.175 153.343 188.33C153.385 185.45 156.541 183.719 158.992 185.256Z" fill="url(#paint41_linear)"/>
<path fill-rule="evenodd" clip-rule="evenodd" d="M159.767 184.024L161.179 184.91V71.0096C161.179 70.4143 161.276 69.8467 161.47 69.3067C161.65 68.7806 161.941 68.2684 162.315 67.7977L168.849 59.6293C169.348 58.9924 170.275 58.8955 170.898 59.3939C171.258 59.6847 171.452 60.1 171.452 60.5292H171.466V91.569C175.606 108.141 179.399 127.288 182.306 144.359C185.809 164.863 188.066 182.418 188.149 188.98C188.287 189.243 188.398 189.465 188.523 189.7C189.437 191.417 190.738 193.854 190.738 195.391V256.958C190.738 257.775 190.087 258.426 189.27 258.426C188.758 258.426 188.315 258.162 188.052 257.775C187.637 257.207 186.944 256.266 186.058 255.089C186.031 255.061 186.017 255.02 185.989 254.992C181.85 249.454 174.041 239.001 174.041 236.592V218.816C174.041 218.414 173.93 218.068 173.75 217.764C173.529 217.39 173.169 217.071 172.74 216.794L152.499 204.085C152.056 203.808 151.82 203.337 151.82 202.853C151.82 200.361 151.848 196.775 151.89 193.189C151.904 191.556 151.917 189.922 151.931 188.33C151.945 187.305 152.222 186.391 152.706 185.616C153.177 184.869 153.828 184.259 154.589 183.844C154.617 183.83 154.645 183.816 154.686 183.803C155.42 183.415 156.251 183.207 157.095 183.221C157.981 183.235 158.909 183.484 159.767 184.024ZM158.992 185.256C160.21 186.018 161.429 186.793 162.647 187.554C162.647 148.706 162.647 109.858 162.647 71.0096C162.647 70.1374 162.91 69.3898 163.45 68.7114C165.624 65.984 167.811 63.2566 169.985 60.543C169.985 70.9404 169.985 81.3516 169.985 91.749C179.164 128.465 186.668 178.029 186.668 189.34C187.388 190.78 189.257 193.909 189.257 195.404C189.257 215.922 189.257 236.454 189.257 256.972C187.097 253.968 175.481 238.988 175.481 236.606C175.481 230.681 175.481 224.755 175.481 218.83C175.481 217.417 174.692 216.31 173.487 215.562C166.745 211.326 159.989 207.089 153.246 202.853C153.246 198.229 153.316 193.175 153.343 188.33C153.385 185.45 156.541 183.719 158.992 185.256Z" fill="black"/>
<path fill-rule="evenodd" clip-rule="evenodd" d="M189.27 202.424L170.178 192.511V147.502L171.826 148.955V186.184C171.826 187.388 173.667 187.388 173.667 186.184V150.561L174.581 151.364V188.011C174.581 189.216 176.422 189.216 176.422 188.011V152.984L177.336 153.787C177.336 165.804 177.336 177.822 177.336 189.839C177.336 191.043 179.178 191.043 179.178 189.839V155.421L180.091 156.224C180.091 168.047 180.091 179.871 180.091 191.694C180.091 192.899 181.933 192.899 181.933 191.694V163.908L182.846 164.711C182.846 176.34 182.846 181.906 182.846 193.535C182.846 194.74 184.688 194.74 184.688 193.535V172.27C185.034 174.831 185.338 177.226 185.601 179.428C185.601 185.741 185.601 189.05 185.601 195.363C185.601 196.567 187.443 196.567 187.443 195.363C187.443 193.826 187.443 192.303 187.443 190.766C188.26 192.317 189.284 194.297 189.284 195.391C189.27 197.744 189.27 200.084 189.27 202.424Z" fill="url(#paint42_linear)"/>
<path fill-rule="evenodd" clip-rule="evenodd" d="M169.985 130.943C175.052 144.054 182.833 159.671 186.668 189.34C184.674 157.844 177.322 122.955 169.985 91.749V60.543C167.811 63.2704 165.444 65.8593 163.45 68.7114C162.979 69.3759 162.647 70.1927 162.647 71.0096C162.647 110.107 162.647 148.665 162.647 187.554C165.097 189.202 167.548 190.849 169.985 192.511V130.943Z" fill="url(#paint43_linear)"/>
<path opacity="0.5" fill-rule="evenodd" clip-rule="evenodd" d="M189.27 248.084C189.27 251.046 189.27 254.009 189.27 256.986C187.111 253.981 175.495 239.001 175.495 236.62C175.495 230.695 175.495 224.769 175.495 218.843C175.495 217.431 174.706 216.324 173.501 215.576C166.759 211.34 160.003 207.103 153.26 202.867C153.26 199.89 153.274 198.769 153.302 195.612C155.932 198.672 158.992 201.385 162.176 203.85C163.602 204.943 164.724 206.12 164.724 208.294C164.724 211.381 165.748 206.577 166.69 206.909C168.656 207.588 169.902 208.432 169.819 210.869C169.708 214.095 171.563 210.121 172.878 210.814C174.36 211.603 179.288 214.247 180.728 214.261C180.77 214.261 180.798 214.261 180.839 214.247C180.825 236.675 185.062 255.366 189.27 248.084Z" fill="url(#paint44_linear)"/>
<path opacity="0.5" fill-rule="evenodd" clip-rule="evenodd" d="M169.985 60.543C169.985 70.9403 169.985 81.3516 169.985 91.749C179.164 128.465 186.668 178.029 186.668 189.34C187.387 190.78 189.257 193.909 189.257 195.404C189.257 215.922 189.257 236.454 189.257 256.972C189.257 223.924 185.588 209.72 185.588 195.404C185.588 193.909 183.719 190.78 182.999 189.34C182.999 178.915 178.181 137.561 170.248 102.396C170.165 105.884 169.832 108.944 169.832 126.61C168.157 100.928 169.112 76.2983 169.985 60.543Z" fill="url(#paint45_linear)"/>
<path fill-rule="evenodd" clip-rule="evenodd" d="M162.647 187.402C162.481 187.291 162.398 187.61 162.55 187.707L169.888 192.663C170.012 192.746 170.179 192.649 170.179 192.511V131.885C177.17 149.232 184.854 170.789 186.681 189.34C186.709 189.576 187.069 189.548 187.041 189.299C185.186 170.442 177.295 148.485 170.165 130.874C170.095 130.68 169.805 130.722 169.805 130.93V192.165L162.647 187.402Z" fill="#00045D"/>
<path fill-rule="evenodd" clip-rule="evenodd" d="M180.825 245.508C180.825 245.744 181.199 246.214 181.199 245.979V213.056C181.199 211.727 180.576 210.578 179.482 209.844C170.802 204.085 162.024 198.229 153.343 192.469C153.233 192.4 153.177 192.802 153.343 192.912L164.738 200.485V210.052C164.738 210.287 165.111 210.537 165.111 210.287V200.721L169.832 203.85V213.223C169.832 213.458 170.206 213.707 170.206 213.458V204.085L179.302 210.121C180.313 210.786 180.853 211.824 180.853 213.029V245.508H180.825Z" fill="#00045D"/>
<path fill-rule="evenodd" clip-rule="evenodd" d="M169.805 130.943C170.732 132.965 171.674 135 172.601 137.021C170.871 127.385 170.857 106.84 169.985 91.749C169.929 104.818 169.86 117.874 169.805 130.943Z" fill="url(#paint46_linear)"/>
<path fill-rule="evenodd" clip-rule="evenodd" d="M160.75 189.991C159.103 188.994 157.58 191.486 159.227 192.497L173.986 201.482C174.969 202.077 176.229 201.385 176.229 200.236V161.748C176.229 159.81 173.294 159.81 173.294 161.748V197.633L160.75 189.991Z" fill="#00045D"/>
<path fill-rule="evenodd" clip-rule="evenodd" d="M160.459 190.448C159.435 189.825 158.48 191.389 159.504 192.012L174.263 200.998C174.844 201.358 175.675 200.97 175.675 200.222V161.734C175.675 160.529 173.833 160.529 173.833 161.734V198.602L160.459 190.448Z" fill="url(#paint47_linear)"/>
<path fill-rule="evenodd" clip-rule="evenodd" d="M175.301 161.72C175.301 161 174.194 161 174.194 161.72V199.239L160.266 190.766C159.643 190.393 159.075 191.334 159.698 191.708L174.457 200.693C174.817 200.915 175.301 200.665 175.301 200.222V161.72Z" fill="url(#paint48_linear)"/>
<path fill-rule="evenodd" clip-rule="evenodd" d="M175.121 166.524C175.121 166.04 174.387 166.04 174.387 166.524V170.193C174.387 170.678 175.121 170.678 175.121 170.193V166.524Z" fill="url(#paint49_linear)"/>
<path fill-rule="evenodd" clip-rule="evenodd" d="M175.052 166.87C175.052 166.483 174.456 166.483 174.456 166.87V169.847C174.456 170.235 175.052 170.235 175.052 169.847V166.87Z" fill="url(#paint50_linear)"/>
<path opacity="0.5" fill-rule="evenodd" clip-rule="evenodd" d="M175.121 166.524C175.121 166.04 174.387 166.04 174.387 166.524C174.899 166.233 174.872 170.068 174.387 170.193C174.387 170.678 175.121 170.678 175.121 170.193C174.872 170.055 174.664 166.787 175.121 166.524Z" fill="url(#paint51_linear)"/>
<path fill-rule="evenodd" clip-rule="evenodd" d="M175.121 173.862C175.121 173.377 174.387 173.377 174.387 173.862V177.531C174.387 178.015 175.121 178.015 175.121 177.531V173.862Z" fill="url(#paint52_linear)"/>
<path fill-rule="evenodd" clip-rule="evenodd" d="M175.052 174.208C175.052 173.82 174.456 173.82 174.456 174.208V177.185C174.456 177.572 175.052 177.572 175.052 177.185V174.208Z" fill="url(#paint53_linear)"/>
<path opacity="0.5" fill-rule="evenodd" clip-rule="evenodd" d="M175.121 173.862C175.121 173.377 174.387 173.377 174.387 173.862C174.899 173.571 174.872 177.406 174.387 177.531C174.387 178.015 175.121 178.015 175.121 177.531C174.872 177.392 174.664 174.139 175.121 173.862Z" fill="url(#paint54_linear)"/>
<path fill-rule="evenodd" clip-rule="evenodd" d="M175.121 181.214C175.121 180.729 174.387 180.729 174.387 181.214V184.882C174.387 185.367 175.121 185.367 175.121 184.882V181.214Z" fill="url(#paint55_linear)"/>
<path fill-rule="evenodd" clip-rule="evenodd" d="M175.052 181.56C175.052 181.172 174.456 181.172 174.456 181.56V184.536C174.456 184.924 175.052 184.924 175.052 184.536V181.56Z" fill="url(#paint56_linear)"/>
<path opacity="0.5" fill-rule="evenodd" clip-rule="evenodd" d="M175.121 181.214C175.121 180.729 174.387 180.729 174.387 181.214C174.899 180.923 174.872 184.758 174.387 184.882C174.387 185.367 175.121 185.367 175.121 184.882C174.872 184.744 174.664 181.477 175.121 181.214Z" fill="url(#paint57_linear)"/>
<path fill-rule="evenodd" clip-rule="evenodd" d="M175.121 188.551C175.121 188.067 174.387 188.067 174.387 188.551V192.22C174.387 192.705 175.121 192.705 175.121 192.22V188.551Z" fill="url(#paint58_linear)"/>
<path fill-rule="evenodd" clip-rule="evenodd" d="M175.052 188.897C175.052 188.51 174.456 188.51 174.456 188.897V191.874C174.456 192.262 175.052 192.262 175.052 191.874V188.897Z" fill="url(#paint59_linear)"/>
<path opacity="0.5" fill-rule="evenodd" clip-rule="evenodd" d="M175.121 188.551C175.121 188.067 174.387 188.067 174.387 188.551C174.899 188.26 174.872 192.095 174.387 192.22C174.387 192.705 175.121 192.705 175.121 192.22C174.872 192.082 174.664 188.814 175.121 188.551Z" fill="url(#paint60_linear)"/>
<path fill-rule="evenodd" clip-rule="evenodd" d="M164.793 193.674C164.378 193.425 164.004 194.048 164.405 194.297L167.534 196.221C167.949 196.47 168.323 195.847 167.922 195.598L164.793 193.674Z" fill="url(#paint61_linear)"/>
<path fill-rule="evenodd" clip-rule="evenodd" d="M165.042 193.909C164.71 193.701 164.391 194.214 164.737 194.421L167.271 195.972C167.603 196.18 167.922 195.667 167.576 195.46L165.042 193.909Z" fill="url(#paint62_linear)"/>
<path opacity="0.5" fill-rule="evenodd" clip-rule="evenodd" d="M164.793 193.674C164.378 193.425 164.004 194.048 164.405 194.297C164.419 193.715 167.673 195.737 167.534 196.221C167.949 196.47 168.323 195.847 167.922 195.598C167.659 195.723 164.779 194.2 164.793 193.674Z" fill="url(#paint63_linear)"/>
<path fill-rule="evenodd" clip-rule="evenodd" d="M169.375 196.429C168.96 196.18 168.586 196.803 168.988 197.052L172.117 198.976C172.532 199.225 172.906 198.602 172.504 198.353L169.375 196.429Z" fill="url(#paint64_linear)"/>
<path fill-rule="evenodd" clip-rule="evenodd" d="M169.638 196.664C169.306 196.457 168.988 196.969 169.334 197.176L171.867 198.727C172.2 198.935 172.518 198.422 172.172 198.215L169.638 196.664Z" fill="url(#paint65_linear)"/>
<path opacity="0.5" fill-rule="evenodd" clip-rule="evenodd" d="M169.375 196.429C168.96 196.18 168.586 196.803 168.988 197.052C169.002 196.47 172.255 198.492 172.117 198.976C172.532 199.225 172.906 198.602 172.504 198.353C172.255 198.478 169.362 196.955 169.375 196.429Z" fill="url(#paint66_linear)"/>
<path fill-rule="evenodd" clip-rule="evenodd" d="M157.76 185.616C155.517 185.616 153.703 187.43 153.703 189.673C153.703 191.915 155.517 193.729 157.76 193.729C160.003 193.729 161.816 191.915 161.816 189.673C161.816 187.43 160.003 185.616 157.76 185.616Z" fill="#00045D"/>
<path fill-rule="evenodd" clip-rule="evenodd" d="M157.76 185.948C159.823 185.948 161.484 187.624 161.484 189.673C161.484 191.722 159.809 193.397 157.76 193.397C155.697 193.397 154.036 191.722 154.036 189.673C154.036 187.624 155.697 185.948 157.76 185.948Z" fill="url(#paint67_radial)"/>
<path d="M157.76 192.178C159.144 192.178 160.266 191.057 160.266 189.673C160.266 188.289 159.144 187.167 157.76 187.167C156.376 187.167 155.254 188.289 155.254 189.673C155.254 191.057 156.376 192.178 157.76 192.178Z" fill="url(#paint68_linear)"/>
<path fill-rule="evenodd" clip-rule="evenodd" d="M174.637 156.224C172.394 156.224 170.58 158.038 170.58 160.28C170.58 162.523 172.394 164.337 174.637 164.337C176.879 164.337 178.693 162.523 178.693 160.28C178.693 158.038 176.879 156.224 174.637 156.224Z" fill="#00045D"/>
<path fill-rule="evenodd" clip-rule="evenodd" d="M174.637 156.556C176.699 156.556 178.361 158.231 178.361 160.28C178.361 162.343 176.686 164.005 174.637 164.005C172.588 164.005 170.912 162.329 170.912 160.28C170.898 158.218 172.574 156.556 174.637 156.556Z" fill="url(#paint69_radial)"/>
<path d="M174.637 162.786C176.02 162.786 177.142 161.664 177.142 160.28C177.142 158.896 176.02 157.774 174.637 157.774C173.253 157.774 172.131 158.896 172.131 160.28C172.131 161.664 173.253 162.786 174.637 162.786Z" fill="url(#paint70_linear)"/>
<path fill-rule="evenodd" clip-rule="evenodd" d="M157.137 202.59V207.726C157.137 208.335 157.511 209.069 157.981 209.346L161.899 211.796C162.356 212.087 162.744 211.824 162.744 211.215V206.079C162.744 205.469 162.37 204.736 161.899 204.459L157.981 202.008C157.511 201.731 157.137 201.994 157.137 202.59Z" fill="url(#paint71_linear)"/>
<path fill-rule="evenodd" clip-rule="evenodd" d="M157.137 202.59V207.726C157.137 208.335 157.511 209.069 157.981 209.346L161.899 211.797C162.356 212.087 162.744 211.824 162.744 211.215V206.079C162.744 205.469 162.37 204.736 161.899 204.459L157.981 202.008C157.511 201.731 157.137 201.994 157.137 202.59ZM155.669 207.74V202.604C155.669 202.119 155.794 201.69 156.002 201.344C156.182 201.067 156.403 200.845 156.666 200.693C156.957 200.527 157.275 200.444 157.608 200.444C157.981 200.444 158.369 200.555 158.743 200.79L162.661 203.24C163.118 203.531 163.519 203.988 163.782 204.5C164.032 204.999 164.198 205.566 164.198 206.106V211.243C164.198 211.727 164.073 212.156 163.865 212.503C163.685 212.779 163.464 213.001 163.201 213.153C162.91 213.319 162.592 213.403 162.259 213.403C161.886 213.403 161.498 213.292 161.124 213.056L157.206 210.606C156.749 210.315 156.348 209.858 156.085 209.346C155.822 208.848 155.669 208.266 155.669 207.74Z" fill="black"/>
<path fill-rule="evenodd" clip-rule="evenodd" d="M158.951 209.969C159.601 210.37 160.252 210.786 160.903 211.187C161.983 211.866 160.709 205.566 160.39 205.359C160.086 205.165 159.767 204.971 159.463 204.777C159.144 204.583 157.871 209.291 158.951 209.969Z" fill="url(#paint72_linear)"/>
<path fill-rule="evenodd" clip-rule="evenodd" d="M162.647 127.316C162.412 127.399 162.412 127.759 162.647 127.69L164.488 127.094C165.402 126.79 166.136 127.288 166.136 128.202V140.136C166.136 141.05 165.388 142.033 164.488 142.324L162.647 142.919C162.412 143.002 162.412 143.362 162.647 143.293L164.488 142.697C165.596 142.337 166.51 141.133 166.51 140.012V128.064C166.51 126.956 165.596 126.347 164.488 126.707L162.647 127.316ZM162.647 149.343C162.412 149.426 162.412 149.786 162.647 149.717L164.488 149.121C165.402 148.817 166.136 149.315 166.136 150.229V162.163C166.136 163.077 165.388 164.06 164.488 164.351L162.647 164.946C162.412 165.029 162.412 165.389 162.647 165.32L164.488 164.724C165.596 164.364 166.51 163.16 166.51 162.039V150.104C166.51 148.997 165.596 148.388 164.488 148.748L162.647 149.343Z" fill="#00045D"/>
<path opacity="0.5" fill-rule="evenodd" clip-rule="evenodd" d="M158.992 185.256C160.21 186.018 161.429 186.793 162.647 187.554C162.647 177.517 162.647 167.48 162.647 157.456C165.015 156.888 169.819 150.506 169.819 129.656C171.411 135.595 173.584 145.771 175.938 156.459C173.667 156.459 172.145 157.65 172.145 160.28C172.145 162.08 177.336 168.85 177.336 173.585C177.336 187.416 177.336 195.363 177.336 207.408C177.336 214.745 186.515 218.428 189.27 216.005C189.27 229.656 189.27 243.321 189.27 256.972C187.111 253.967 175.495 238.987 175.495 236.606C175.495 230.681 175.495 224.755 175.495 218.83C175.495 217.417 174.706 216.31 173.501 215.562C169.943 213.319 166.371 211.09 162.813 208.848C162.813 205.497 157.262 202.091 156.915 205.151C155.697 204.39 154.479 203.614 153.26 202.853C153.26 198.229 153.33 193.175 153.357 188.33C153.385 185.45 156.542 183.719 158.992 185.256Z" fill="url(#paint73_linear)"/>
<path fill-rule="evenodd" clip-rule="evenodd" d="M152.07 203.739H149.273C148.498 203.739 147.875 203.116 147.875 202.341V198.63C145.895 198.658 144.289 197.135 144.289 195.141C144.289 193.217 145.853 191.652 147.778 191.652L147.875 181.878C145.895 181.906 144.289 180.383 144.289 178.389C144.289 176.465 145.853 174.9 147.778 174.9L147.875 171.619C147.875 170.844 148.498 170.221 149.273 170.221H152.07C152.845 170.221 153.468 170.844 153.468 171.619V202.354C153.468 203.102 152.831 203.739 152.07 203.739Z" fill="url(#paint74_linear)"/>
<path fill-rule="evenodd" clip-rule="evenodd" d="M152.07 205.206H149.273C148.484 205.206 147.778 204.888 147.252 204.362C146.739 203.85 146.407 203.13 146.407 202.341V199.904C145.618 199.669 144.898 199.253 144.317 198.699C143.403 197.827 142.835 196.595 142.821 195.211V195.155V195.141C142.821 193.771 143.375 192.539 144.275 191.639L144.303 191.611C144.87 191.057 145.563 190.628 146.338 190.393L146.407 183.138C145.618 182.903 144.912 182.487 144.33 181.934C143.417 181.061 142.849 179.829 142.835 178.445V178.389V178.375C142.835 177.005 143.389 175.773 144.289 174.873L144.317 174.845C144.884 174.277 145.59 173.862 146.366 173.627L146.421 171.605C146.421 170.816 146.739 170.11 147.266 169.584C147.778 169.072 148.498 168.74 149.287 168.74H152.084C152.873 168.74 153.593 169.058 154.105 169.584C154.146 169.626 154.174 169.653 154.202 169.695C154.659 170.207 154.949 170.872 154.949 171.605V202.341C154.949 203.13 154.631 203.85 154.105 204.362C153.579 204.888 152.859 205.206 152.07 205.206ZM152.07 203.739H149.273C148.498 203.739 147.875 203.116 147.875 202.341V198.63C145.895 198.658 144.289 197.135 144.289 195.141C144.289 193.217 145.853 191.653 147.778 191.653L147.875 181.878C145.895 181.906 144.289 180.383 144.289 178.389C144.289 176.465 145.853 174.9 147.778 174.9L147.875 171.619C147.875 170.844 148.498 170.221 149.273 170.221H152.07C152.845 170.221 153.468 170.844 153.468 171.619V202.354C153.468 203.102 152.831 203.739 152.07 203.739Z" fill="black"/>
<path fill-rule="evenodd" clip-rule="evenodd" d="M147.833 174.887C150.948 176.202 150.907 181.047 147.889 181.864C153.579 181.837 153.537 174.859 147.833 174.887Z" fill="url(#paint75_linear)"/>
<path fill-rule="evenodd" clip-rule="evenodd" d="M147.833 191.653C150.948 192.968 150.907 197.841 147.889 198.658C153.579 198.616 153.537 191.611 147.833 191.653Z" fill="url(#paint76_linear)"/>
<path d="M148.825 178.425C148.851 177.6 148.203 176.91 147.378 176.884C146.552 176.858 145.862 177.506 145.836 178.332C145.811 179.157 146.459 179.847 147.284 179.873C148.11 179.899 148.8 179.25 148.825 178.425Z" fill="#00045D"/>
<path d="M147.335 179.497C147.954 179.497 148.456 178.995 148.456 178.375C148.456 177.756 147.954 177.254 147.335 177.254C146.715 177.254 146.213 177.756 146.213 178.375C146.213 178.995 146.715 179.497 147.335 179.497Z" fill="url(#paint77_linear)"/>
<path fill-rule="evenodd" clip-rule="evenodd" d="M147.335 193.674C146.518 193.674 145.84 194.338 145.84 195.169C145.84 195.986 146.504 196.664 147.335 196.664C148.166 196.664 148.83 196 148.83 195.169C148.83 194.338 148.152 193.674 147.335 193.674Z" fill="#00045D"/>
<path fill-rule="evenodd" clip-rule="evenodd" d="M147.335 194.034C146.712 194.034 146.213 194.532 146.213 195.155C146.213 195.778 146.712 196.277 147.335 196.277C147.958 196.277 148.456 195.778 148.456 195.155C148.456 194.546 147.958 194.034 147.335 194.034Z" fill="url(#paint78_linear)"/>
<path fill-rule="evenodd" clip-rule="evenodd" d="M147.875 174.513C147.639 174.513 147.639 174.886 147.875 174.886C153.523 174.886 153.523 181.864 147.875 181.864C147.639 181.864 147.639 182.238 147.875 182.238C154.022 182.238 154.022 174.513 147.875 174.513Z" fill="#00045D"/>
<path fill-rule="evenodd" clip-rule="evenodd" d="M147.875 191.279C147.639 191.279 147.639 191.653 147.875 191.653C153.523 191.653 153.523 198.63 147.875 198.63C147.639 198.63 147.639 199.004 147.875 199.004C154.022 198.99 154.022 191.279 147.875 191.279Z" fill="#00045D"/>
<path fill-rule="evenodd" clip-rule="evenodd" d="M153.468 187.153C153.703 187.153 153.703 186.779 153.468 186.779H149.979V181.92C149.979 181.823 149.896 181.74 149.799 181.74C149.702 181.74 149.619 181.823 149.619 181.92V191.583C149.619 191.68 149.702 191.763 149.799 191.763C149.896 191.763 149.979 191.68 149.979 191.583V187.153H153.468Z" fill="#00045D"/>
<path opacity="0.5" fill-rule="evenodd" clip-rule="evenodd" d="M152.07 203.739C151.142 203.739 150.201 203.739 149.273 203.739C148.498 203.739 147.875 203.116 147.875 202.341C147.875 201.108 147.875 199.862 147.875 198.63C145.895 198.658 144.289 197.135 144.289 195.141C144.289 193.217 145.853 191.652 147.778 191.652C147.806 188.399 147.847 185.132 147.875 181.878C145.895 181.906 144.289 180.383 144.289 178.389C144.289 176.465 145.853 174.9 147.778 174.9C147.806 173.807 147.847 172.713 147.875 171.619C147.875 170.844 148.498 170.221 149.273 170.221C150.201 170.221 151.142 170.221 152.07 170.221C152.665 182.418 152.665 191.528 152.07 203.739Z" fill="url(#paint79_linear)"/>
</g>
<defs>
<linearGradient id="paint0_linear" x1="106.073" y1="49.7663" x2="102.423" y2="49.7662" gradientUnits="userSpaceOnUse">
<stop stop-color="#3654A5"/>
<stop offset="1" stop-color="#5781C1"/>
</linearGradient>
<linearGradient id="paint1_linear" x1="117.108" y1="158.999" x2="81.3193" y2="158.997" gradientUnits="userSpaceOnUse">
<stop stop-color="#3654A5"/>
<stop offset="1" stop-color="#5781C1"/>
</linearGradient>
<linearGradient id="paint2_linear" x1="100.587" y1="175.203" x2="88.6599" y2="175.202" gradientUnits="userSpaceOnUse">
<stop stop-color="#CC721C"/>
<stop offset="1" stop-color="#F5841F"/>
</linearGradient>
<linearGradient id="paint3_linear" x1="107.93" y1="126.764" x2="91.4081" y2="126.764" gradientUnits="userSpaceOnUse">
<stop stop-color="#4361AD"/>
<stop offset="0.43" stop-color="#25409A"/>
<stop offset="1" stop-color="#4E72B8"/>
</linearGradient>
<linearGradient id="paint4_linear" x1="99.3099" y1="237.667" x2="99.3115" y2="209.979" gradientUnits="userSpaceOnUse">
<stop stop-color="#140C4F"/>
<stop offset="1" stop-color="#5781C1"/>
</linearGradient>
<linearGradient id="paint5_linear" x1="91.4878" y1="254.955" x2="91.4894" y2="68.1277" gradientUnits="userSpaceOnUse">
<stop stop-color="#5781C1"/>
<stop offset="1" stop-color="#AADDDD"/>
</linearGradient>
<linearGradient id="paint6_linear" x1="100.553" y1="114.627" x2="98.7482" y2="114.625" gradientUnits="userSpaceOnUse">
<stop stop-color="#2B2477"/>
<stop offset="1" stop-color="#27489E"/>
</linearGradient>
<linearGradient id="paint7_linear" x1="103.204" y1="200.301" x2="103.205" y2="163.425" gradientUnits="userSpaceOnUse">
<stop stop-color="#25409A"/>
<stop offset="1" stop-color="#6FA1D6"/>
</linearGradient>
<linearGradient id="paint8_linear" x1="103.203" y1="162.731" x2="103.205" y2="198.984" gradientUnits="userSpaceOnUse">
<stop stop-color="#25409A"/>
<stop offset="1" stop-color="#6FA1D6"/>
</linearGradient>
<linearGradient id="paint9_linear" x1="95.8181" y1="170.115" x2="95.8262" y2="167.075" gradientUnits="userSpaceOnUse">
<stop stop-color="#3D0000"/>
<stop offset="1" stop-color="#794503"/>
</linearGradient>
<linearGradient id="paint10_linear" x1="95.8221" y1="169.881" x2="95.8221" y2="167.102" gradientUnits="userSpaceOnUse">
<stop stop-color="#EF4423"/>
<stop offset="1" stop-color="#E4E526"/>
</linearGradient>
<linearGradient id="paint11_linear" x1="95.8212" y1="170.473" x2="95.823" y2="166.816" gradientUnits="userSpaceOnUse">
<stop stop-color="#EF4423"/>
<stop offset="1" stop-color="white"/>
</linearGradient>
<linearGradient id="paint12_linear" x1="95.8181" y1="177.457" x2="95.8262" y2="174.418" gradientUnits="userSpaceOnUse">
<stop stop-color="#3D0000"/>
<stop offset="1" stop-color="#794503"/>
</linearGradient>
<linearGradient id="paint13_linear" x1="95.8221" y1="177.224" x2="95.8221" y2="174.445" gradientUnits="userSpaceOnUse">
<stop stop-color="#EF4423"/>
<stop offset="1" stop-color="#E4E526"/>
</linearGradient>
<linearGradient id="paint14_linear" x1="95.8212" y1="177.815" x2="95.823" y2="174.159" gradientUnits="userSpaceOnUse">
<stop stop-color="#EF4423"/>
<stop offset="1" stop-color="white"/>
</linearGradient>
<linearGradient id="paint15_linear" x1="95.8181" y1="184.8" x2="95.8262" y2="181.761" gradientUnits="userSpaceOnUse">
<stop stop-color="#3D0000"/>
<stop offset="1" stop-color="#794503"/>
</linearGradient>
<linearGradient id="paint16_linear" x1="95.8221" y1="184.567" x2="95.8221" y2="181.787" gradientUnits="userSpaceOnUse">
<stop stop-color="#EF4423"/>
<stop offset="1" stop-color="#E4E526"/>
</linearGradient>
<linearGradient id="paint17_linear" x1="95.8212" y1="185.158" x2="95.823" y2="181.502" gradientUnits="userSpaceOnUse">
<stop stop-color="#EF4423"/>
<stop offset="1" stop-color="white"/>
</linearGradient>
<linearGradient id="paint18_linear" x1="95.8181" y1="192.142" x2="95.8262" y2="189.103" gradientUnits="userSpaceOnUse">
<stop stop-color="#3D0000"/>
<stop offset="1" stop-color="#794503"/>
</linearGradient>
<linearGradient id="paint19_linear" x1="95.8221" y1="191.909" x2="95.8221" y2="189.13" gradientUnits="userSpaceOnUse">
<stop stop-color="#EF4423"/>
<stop offset="1" stop-color="#E4E526"/>
</linearGradient>
<linearGradient id="paint20_linear" x1="95.8212" y1="192.501" x2="95.823" y2="188.845" gradientUnits="userSpaceOnUse">
<stop stop-color="#EF4423"/>
<stop offset="1" stop-color="white"/>
</linearGradient>
<linearGradient id="paint21_linear" x1="103.201" y1="195.925" x2="105.636" y2="194.441" gradientUnits="userSpaceOnUse">
<stop stop-color="#3D0000"/>
<stop offset="1" stop-color="#794503"/>
</linearGradient>
<linearGradient id="paint22_linear" x1="103.39" y1="195.813" x2="105.611" y2="194.452" gradientUnits="userSpaceOnUse">
<stop stop-color="#EF4423"/>
<stop offset="1" stop-color="#E4E526"/>
</linearGradient>
<linearGradient id="paint23_linear" x1="102.917" y1="196.102" x2="105.84" y2="194.312" gradientUnits="userSpaceOnUse">
<stop stop-color="#EF4423"/>
<stop offset="1" stop-color="white"/>
</linearGradient>
<linearGradient id="paint24_linear" x1="98.6117" y1="198.678" x2="101.047" y2="197.195" gradientUnits="userSpaceOnUse">
<stop stop-color="#3D0000"/>
<stop offset="1" stop-color="#794503"/>
</linearGradient>
<linearGradient id="paint25_linear" x1="98.8006" y1="198.567" x2="101.022" y2="197.206" gradientUnits="userSpaceOnUse">
<stop stop-color="#EF4423"/>
<stop offset="1" stop-color="#E4E526"/>
</linearGradient>
<linearGradient id="paint26_linear" x1="98.3272" y1="198.856" x2="101.251" y2="197.066" gradientUnits="userSpaceOnUse">
<stop stop-color="#EF4423"/>
<stop offset="1" stop-color="white"/>
</linearGradient>
<radialGradient id="paint27_radial" cx="0" cy="0" r="1" gradientUnits="userSpaceOnUse" gradientTransform="translate(111.307 189.77) scale(5.2341)">
<stop stop-color="#4361AD"/>
<stop offset="1" stop-color="#140C4F"/>
</radialGradient>
<linearGradient id="paint28_linear" x1="114.819" y1="189.915" x2="110.314" y2="189.913" gradientUnits="userSpaceOnUse">
<stop stop-color="#4361AD"/>
<stop offset="1" stop-color="#6FA1D6"/>
</linearGradient>
<radialGradient id="paint29_radial" cx="0" cy="0" r="1" gradientUnits="userSpaceOnUse" gradientTransform="translate(94.4348 160.375) scale(5.23416)">
<stop stop-color="#4361AD"/>
<stop offset="1" stop-color="#140C4F"/>
</radialGradient>
<linearGradient id="paint30_linear" x1="97.9477" y1="160.52" x2="93.4428" y2="160.518" gradientUnits="userSpaceOnUse">
<stop stop-color="#4361AD"/>
<stop offset="1" stop-color="#6FA1D6"/>
</linearGradient>
<linearGradient id="paint31_linear" x1="111.526" y1="208.572" x2="109.744" y2="205.715" gradientUnits="userSpaceOnUse">
<stop stop-color="#3654A5"/>
<stop offset="1" stop-color="#5781C1"/>
</linearGradient>
<linearGradient id="paint32_linear" x1="111.052" y1="209.459" x2="109.853" y2="207.536" gradientUnits="userSpaceOnUse">
<stop stop-color="#3654A5"/>
<stop offset="1" stop-color="#140C4F"/>
</linearGradient>
<linearGradient id="paint33_linear" x1="113.438" y1="193.554" x2="65.7122" y2="193.552" gradientUnits="userSpaceOnUse">
<stop stop-color="#140C4F"/>
<stop offset="1" stop-color="white"/>
</linearGradient>
<linearGradient id="paint34_linear" x1="126.286" y1="187.216" x2="117.109" y2="187.214" gradientUnits="userSpaceOnUse">
<stop stop-color="#3654A5"/>
<stop offset="1" stop-color="#5781C1"/>
</linearGradient>
<linearGradient id="paint35_linear" x1="118.895" y1="178.619" x2="121.757" y2="178.617" gradientUnits="userSpaceOnUse">
<stop stop-color="#2B2477"/>
<stop offset="1" stop-color="#4E72B8"/>
</linearGradient>
<linearGradient id="paint36_linear" x1="118.895" y1="195.392" x2="121.757" y2="195.391" gradientUnits="userSpaceOnUse">
<stop stop-color="#2B2477"/>
<stop offset="1" stop-color="#4E72B8"/>
</linearGradient>
<linearGradient id="paint37_linear" x1="124.373" y1="178.618" x2="122.115" y2="178.617" gradientUnits="userSpaceOnUse">
<stop stop-color="#3654A5"/>
<stop offset="1" stop-color="#313092"/>
</linearGradient>
<linearGradient id="paint38_linear" x1="124.373" y1="195.406" x2="122.115" y2="195.404" gradientUnits="userSpaceOnUse">
<stop stop-color="#3654A5"/>
<stop offset="1" stop-color="#313092"/>
</linearGradient>
<linearGradient id="paint39_linear" x1="122.782" y1="187.216" x2="118.062" y2="187.214" gradientUnits="userSpaceOnUse">
<stop stop-color="#140C4F"/>
<stop offset="1" stop-color="white"/>
</linearGradient>
<linearGradient id="paint40_linear" x1="164.501" y1="49.5264" x2="168.152" y2="49.5263" gradientUnits="userSpaceOnUse">
<stop stop-color="#3654A5"/>
<stop offset="1" stop-color="#5781C1"/>
</linearGradient>
<linearGradient id="paint41_linear" x1="153.466" y1="158.759" x2="189.255" y2="158.757" gradientUnits="userSpaceOnUse">
<stop stop-color="#3654A5"/>
<stop offset="1" stop-color="#5781C1"/>
</linearGradient>
<linearGradient id="paint42_linear" x1="169.987" y1="174.963" x2="181.914" y2="174.962" gradientUnits="userSpaceOnUse">
<stop stop-color="#CC721C"/>
<stop offset="1" stop-color="#F5841F"/>
</linearGradient>
<linearGradient id="paint43_linear" x1="162.644" y1="126.524" x2="179.166" y2="126.524" gradientUnits="userSpaceOnUse">
<stop stop-color="#4361AD"/>
<stop offset="0.43" stop-color="#25409A"/>
<stop offset="1" stop-color="#4E72B8"/>
</linearGradient>
<linearGradient id="paint44_linear" x1="171.264" y1="237.427" x2="171.263" y2="209.739" gradientUnits="userSpaceOnUse">
<stop stop-color="#140C4F"/>
<stop offset="1" stop-color="#5781C1"/>
</linearGradient>
<linearGradient id="paint45_linear" x1="179.086" y1="254.716" x2="179.085" y2="67.8878" gradientUnits="userSpaceOnUse">
<stop stop-color="#5781C1"/>
<stop offset="1" stop-color="#AADDDD"/>
</linearGradient>
<linearGradient id="paint46_linear" x1="170.021" y1="114.387" x2="171.826" y2="114.385" gradientUnits="userSpaceOnUse">
<stop stop-color="#2B2477"/>
<stop offset="1" stop-color="#27489E"/>
</linearGradient>
<linearGradient id="paint47_linear" x1="167.37" y1="200.061" x2="167.369" y2="163.185" gradientUnits="userSpaceOnUse">
<stop stop-color="#25409A"/>
<stop offset="1" stop-color="#6FA1D6"/>
</linearGradient>
<linearGradient id="paint48_linear" x1="167.371" y1="162.491" x2="167.369" y2="198.744" gradientUnits="userSpaceOnUse">
<stop stop-color="#25409A"/>
<stop offset="1" stop-color="#6FA1D6"/>
</linearGradient>
<linearGradient id="paint49_linear" x1="174.756" y1="169.875" x2="174.748" y2="166.835" gradientUnits="userSpaceOnUse">
<stop stop-color="#3D0000"/>
<stop offset="1" stop-color="#794503"/>
</linearGradient>
<linearGradient id="paint50_linear" x1="174.752" y1="169.642" x2="174.752" y2="166.862" gradientUnits="userSpaceOnUse">
<stop stop-color="#EF4423"/>
<stop offset="1" stop-color="#E4E526"/>
</linearGradient>
<linearGradient id="paint51_linear" x1="174.753" y1="170.233" x2="174.751" y2="166.577" gradientUnits="userSpaceOnUse">
<stop stop-color="#EF4423"/>
<stop offset="1" stop-color="white"/>
</linearGradient>
<linearGradient id="paint52_linear" x1="174.756" y1="177.217" x2="174.748" y2="174.178" gradientUnits="userSpaceOnUse">
<stop stop-color="#3D0000"/>
<stop offset="1" stop-color="#794503"/>
</linearGradient>
<linearGradient id="paint53_linear" x1="174.752" y1="176.984" x2="174.752" y2="174.205" gradientUnits="userSpaceOnUse">
<stop stop-color="#EF4423"/>
<stop offset="1" stop-color="#E4E526"/>
</linearGradient>
<linearGradient id="paint54_linear" x1="174.753" y1="177.576" x2="174.751" y2="173.919" gradientUnits="userSpaceOnUse">
<stop stop-color="#EF4423"/>
<stop offset="1" stop-color="white"/>
</linearGradient>
<linearGradient id="paint55_linear" x1="174.756" y1="184.56" x2="174.748" y2="181.521" gradientUnits="userSpaceOnUse">
<stop stop-color="#3D0000"/>
<stop offset="1" stop-color="#794503"/>
</linearGradient>
<linearGradient id="paint56_linear" x1="174.752" y1="184.327" x2="174.752" y2="181.548" gradientUnits="userSpaceOnUse">
<stop stop-color="#EF4423"/>
<stop offset="1" stop-color="#E4E526"/>
</linearGradient>
<linearGradient id="paint57_linear" x1="174.753" y1="184.918" x2="174.751" y2="181.262" gradientUnits="userSpaceOnUse">
<stop stop-color="#EF4423"/>
<stop offset="1" stop-color="white"/>
</linearGradient>
<linearGradient id="paint58_linear" x1="174.756" y1="191.903" x2="174.748" y2="188.863" gradientUnits="userSpaceOnUse">
<stop stop-color="#3D0000"/>
<stop offset="1" stop-color="#794503"/>
</linearGradient>
<linearGradient id="paint59_linear" x1="174.752" y1="191.67" x2="174.752" y2="188.891" gradientUnits="userSpaceOnUse">
<stop stop-color="#EF4423"/>
<stop offset="1" stop-color="#E4E526"/>
</linearGradient>
<linearGradient id="paint60_linear" x1="174.753" y1="192.261" x2="174.751" y2="188.605" gradientUnits="userSpaceOnUse">
<stop stop-color="#EF4423"/>
<stop offset="1" stop-color="white"/>
</linearGradient>
<linearGradient id="paint61_linear" x1="167.373" y1="195.685" x2="164.938" y2="194.201" gradientUnits="userSpaceOnUse">
<stop stop-color="#3D0000"/>
<stop offset="1" stop-color="#794503"/>
</linearGradient>
<linearGradient id="paint62_linear" x1="167.184" y1="195.574" x2="164.963" y2="194.212" gradientUnits="userSpaceOnUse">
<stop stop-color="#EF4423"/>
<stop offset="1" stop-color="#E4E526"/>
</linearGradient>
<linearGradient id="paint63_linear" x1="167.658" y1="195.863" x2="164.734" y2="194.073" gradientUnits="userSpaceOnUse">
<stop stop-color="#EF4423"/>
<stop offset="1" stop-color="white"/>
</linearGradient>
<linearGradient id="paint64_linear" x1="171.963" y1="198.439" x2="169.528" y2="196.955" gradientUnits="userSpaceOnUse">
<stop stop-color="#3D0000"/>
<stop offset="1" stop-color="#794503"/>
</linearGradient>
<linearGradient id="paint65_linear" x1="171.774" y1="198.327" x2="169.552" y2="196.966" gradientUnits="userSpaceOnUse">
<stop stop-color="#EF4423"/>
<stop offset="1" stop-color="#E4E526"/>
</linearGradient>
<linearGradient id="paint66_linear" x1="172.247" y1="198.617" x2="169.323" y2="196.827" gradientUnits="userSpaceOnUse">
<stop stop-color="#EF4423"/>
<stop offset="1" stop-color="white"/>
</linearGradient>
<radialGradient id="paint67_radial" cx="0" cy="0" r="1" gradientUnits="userSpaceOnUse" gradientTransform="translate(159.268 189.531) scale(5.23347)">
<stop stop-color="#4361AD"/>
<stop offset="1" stop-color="#140C4F"/>
</radialGradient>
<linearGradient id="paint68_linear" x1="155.755" y1="189.675" x2="160.26" y2="189.673" gradientUnits="userSpaceOnUse">
<stop stop-color="#4361AD"/>
<stop offset="1" stop-color="#6FA1D6"/>
</linearGradient>
<radialGradient id="paint69_radial" cx="0" cy="0" r="1" gradientUnits="userSpaceOnUse" gradientTransform="translate(176.139 160.136) scale(5.23346)">
<stop stop-color="#4361AD"/>
<stop offset="1" stop-color="#140C4F"/>
</radialGradient>
<linearGradient id="paint70_linear" x1="172.627" y1="160.28" x2="177.131" y2="160.278" gradientUnits="userSpaceOnUse">
<stop stop-color="#4361AD"/>
<stop offset="1" stop-color="#6FA1D6"/>
</linearGradient>
<linearGradient id="paint71_linear" x1="159.048" y1="208.332" x2="160.83" y2="205.475" gradientUnits="userSpaceOnUse">
<stop stop-color="#3654A5"/>
<stop offset="1" stop-color="#5781C1"/>
</linearGradient>
<linearGradient id="paint72_linear" x1="159.523" y1="209.22" x2="160.722" y2="207.296" gradientUnits="userSpaceOnUse">
<stop stop-color="#3654A5"/>
<stop offset="1" stop-color="#140C4F"/>
</linearGradient>
<linearGradient id="paint73_linear" x1="157.137" y1="193.314" x2="204.862" y2="193.312" gradientUnits="userSpaceOnUse">
<stop stop-color="#140C4F"/>
<stop offset="1" stop-color="white"/>
</linearGradient>
<linearGradient id="paint74_linear" x1="144.288" y1="186.976" x2="153.465" y2="186.974" gradientUnits="userSpaceOnUse">
<stop stop-color="#3654A5"/>
<stop offset="1" stop-color="#5781C1"/>
</linearGradient>
<linearGradient id="paint75_linear" x1="151.679" y1="178.379" x2="148.818" y2="178.378" gradientUnits="userSpaceOnUse">
<stop stop-color="#2B2477"/>
<stop offset="1" stop-color="#4E72B8"/>
</linearGradient>
<linearGradient id="paint76_linear" x1="151.679" y1="195.153" x2="148.818" y2="195.151" gradientUnits="userSpaceOnUse">
<stop stop-color="#2B2477"/>
<stop offset="1" stop-color="#4E72B8"/>
</linearGradient>
<linearGradient id="paint77_linear" x1="146.201" y1="178.378" x2="148.46" y2="178.377" gradientUnits="userSpaceOnUse">
<stop stop-color="#3654A5"/>
<stop offset="1" stop-color="#313092"/>
</linearGradient>
<linearGradient id="paint78_linear" x1="146.201" y1="195.166" x2="148.46" y2="195.165" gradientUnits="userSpaceOnUse">
<stop stop-color="#3654A5"/>
<stop offset="1" stop-color="#313092"/>
</linearGradient>
<linearGradient id="paint79_linear" x1="147.792" y1="186.976" x2="152.512" y2="186.974" gradientUnits="userSpaceOnUse">
<stop stop-color="#140C4F"/>
<stop offset="1" stop-color="white"/>
</linearGradient>
<clipPath id="clip0">
<rect x="79.8418" y="26.0281" width="110.896" height="232.66" fill="white"/>
</clipPath>
</defs>
</svg>
