<svg width="31" height="65" viewBox="0 0 31 65" fill="none" xmlns="http://www.w3.org/2000/svg">
<g clip-path="url(#clip0)">
<path opacity="0.1" fill-rule="evenodd" clip-rule="evenodd" d="M15.4111 64.6013C27.8237 64.6013 35.9371 25.6145 26.222 0.157227C28.3084 20.4093 21.6911 35.5825 15.4111 35.5825C9.11001 35.5825 2.51388 20.4093 4.60019 0.157227C-5.11488 25.6145 2.99858 64.6013 15.4111 64.6013Z" fill="url(#paint0_linear)"/>
<path opacity="0.1" fill-rule="evenodd" clip-rule="evenodd" d="M4.24117 1.88525C2.6817 21.7369 9.34106 36.1515 15.4104 36.1515C21.4796 36.1515 28.1179 21.758 26.5795 1.88525C35.7678 27.8905 26.8535 64.0322 15.4104 64.0322C3.96721 64.0322 -4.92598 27.8905 4.24117 1.88525Z" fill="url(#paint1_linear)"/>
<path opacity="0.1" fill-rule="evenodd" clip-rule="evenodd" d="M3.94602 3.57117C2.89232 22.8538 9.40416 36.7204 15.4102 36.7204C21.4163 36.7204 27.9281 22.8538 26.8744 3.57117C35.1986 29.1128 26.474 63.4632 15.4102 63.4632C4.34642 63.4632 -4.37818 29.1128 3.94602 3.57117Z" fill="url(#paint2_linear)"/>
<path opacity="0.1" fill-rule="evenodd" clip-rule="evenodd" d="M3.67216 5.23608C3.08209 23.9497 9.46749 37.2684 15.4103 37.2684C21.3532 37.2684 27.7386 23.9286 27.1485 5.23608C34.6719 30.2719 26.137 62.8732 15.4103 62.8732C4.70478 62.8943 -3.85123 30.2719 3.67216 5.23608Z" fill="url(#paint3_linear)"/>
<path opacity="0.1" fill-rule="evenodd" clip-rule="evenodd" d="M3.46131 6.90088C3.27164 25.0455 9.5306 37.8585 15.4102 37.8585C21.2898 37.8585 27.5488 25.0455 27.3591 6.90088C34.1239 31.3888 25.7575 62.3253 15.4102 62.3253C5.04185 62.3253 -3.30342 31.3677 3.46131 6.90088Z" fill="url(#paint4_linear)"/>
<path opacity="0.1" fill-rule="evenodd" clip-rule="evenodd" d="M3.27161 8.52356C3.46128 26.1203 9.61486 38.4275 15.4102 38.4275C21.2266 38.4275 27.3591 26.1203 27.5488 8.52356C33.5759 32.4425 25.4203 61.7563 15.4102 61.7563C5.40008 61.7563 -2.7766 32.4214 3.27161 8.52356Z" fill="url(#paint5_linear)"/>
<path opacity="0.1" fill-rule="evenodd" clip-rule="evenodd" d="M3.10325 10.1462C3.63009 27.174 9.65723 38.9964 15.4104 38.9964C21.1425 38.9964 27.1697 27.174 27.7176 10.1462C33.0704 33.454 25.0833 61.1873 15.4104 61.1873C5.73748 61.1873 -2.22846 33.4329 3.10325 10.1462Z" fill="url(#paint6_linear)"/>
<path opacity="0.1" fill-rule="evenodd" clip-rule="evenodd" d="M2.97661 11.7479C3.81957 28.2277 9.74134 39.5655 15.4102 39.5655C21.0791 39.5655 26.9798 28.2277 27.8438 11.7479C32.5222 34.4024 24.746 60.6183 15.4102 60.6183C6.07448 60.6183 -1.7018 34.4024 2.97661 11.7479Z" fill="url(#paint7_linear)"/>
<path opacity="0.1" fill-rule="evenodd" clip-rule="evenodd" d="M2.89228 13.3495C4.03027 29.2814 9.82559 40.1344 15.4102 40.1344C20.9948 40.1344 26.7901 29.2814 27.9281 13.3495C31.9743 35.3296 24.4087 60.0282 15.4102 60.0282C6.41162 60.0493 -1.15392 35.3296 2.89228 13.3495Z" fill="url(#paint8_linear)"/>
<path opacity="0.1" fill-rule="evenodd" clip-rule="evenodd" d="M2.82908 14.951C4.21996 30.3139 9.90992 40.7034 15.4102 40.7034C20.9105 40.7034 26.6005 30.3139 27.9913 14.951C31.4475 36.2357 24.0716 59.4592 15.4102 59.4592C6.74883 59.4592 -0.627039 36.2357 2.82908 14.951Z" fill="url(#paint9_linear)"/>
<path opacity="0.1" fill-rule="evenodd" clip-rule="evenodd" d="M2.78688 16.5739C4.40957 31.3677 9.99416 41.2725 15.4102 41.2725C20.8262 41.2725 26.3897 31.3677 28.0334 16.5739C30.8995 37.1209 23.7344 58.8903 15.4102 58.8903C7.08596 58.8903 -0.0791743 37.0999 2.78688 16.5739Z" fill="url(#paint10_linear)"/>
<path opacity="0.1" fill-rule="evenodd" clip-rule="evenodd" d="M2.78702 18.1965C4.64152 32.4004 10.0786 41.8415 15.4103 41.8415C20.742 41.8415 26.1791 32.4004 28.0336 18.1965C30.3517 37.9639 23.3973 58.3213 15.4103 58.3213C7.42328 58.3213 0.489959 37.9639 2.78702 18.1965Z" fill="url(#paint11_linear)"/>
<path opacity="0.1" fill-rule="evenodd" clip-rule="evenodd" d="M2.80799 19.8402C4.85216 33.454 10.1839 42.4104 15.4102 42.4104C20.6365 42.4104 25.9682 33.454 28.0124 19.8402C29.7826 38.7857 23.06 57.7522 15.4102 57.7522C7.78143 57.7522 1.03778 38.7857 2.80799 19.8402Z" fill="url(#paint12_linear)"/>
<path opacity="0.1" fill-rule="evenodd" clip-rule="evenodd" d="M2.87125 21.5262C5.10509 34.5289 10.2893 43.0006 15.4102 43.0006C20.5312 43.0006 25.7154 34.5289 27.9492 21.5262C29.1926 39.6077 22.7018 57.1833 15.4102 57.1833C8.11866 57.1833 1.62789 39.6077 2.87125 21.5262Z" fill="url(#paint13_linear)"/>
<path opacity="0.1" fill-rule="evenodd" clip-rule="evenodd" d="M2.97662 23.2332C5.35797 35.5825 10.3946 43.5695 15.4102 43.5695C20.4047 43.5695 25.4625 35.6035 27.8438 23.2332C28.6025 40.4295 22.3435 56.6142 15.4102 56.6142C8.47691 56.6142 2.21796 40.4295 2.97662 23.2332Z" fill="url(#paint14_linear)"/>
<path opacity="0.1" fill-rule="evenodd" clip-rule="evenodd" d="M3.10305 24.9823C5.63192 36.6572 10.5211 44.1174 15.4102 44.1174C20.2783 44.1174 25.1885 36.6572 27.7174 24.9823C27.9914 41.2092 22.0064 56.0453 15.4102 56.0453C8.81408 56.0453 2.82909 41.2303 3.10305 24.9823Z" fill="url(#paint15_linear)"/>
<path opacity="0.1" fill-rule="evenodd" clip-rule="evenodd" d="M3.29272 26.7946C5.92696 37.7741 10.6686 44.7074 15.4102 44.7074C20.1519 44.7074 24.8935 37.7741 27.5277 26.7946C27.3591 42.0099 21.627 55.4762 15.4102 55.4762C9.19342 55.4762 3.46132 42.031 3.29272 26.7946Z" fill="url(#paint16_linear)"/>
<path opacity="0.1" fill-rule="evenodd" clip-rule="evenodd" d="M3.52466 28.6703C6.26427 38.8911 10.8373 45.2555 15.4103 45.2555C19.9834 45.2555 24.5564 38.8701 27.296 28.6703C26.706 42.8109 21.2689 54.8862 15.4103 54.8862C9.5518 54.8862 4.1358 42.832 3.52466 28.6703Z" fill="url(#paint17_linear)"/>
<path opacity="0.1" fill-rule="evenodd" clip-rule="evenodd" d="M3.84058 30.6511C6.64341 40.0501 11.0268 45.8454 15.4102 45.8454C19.7935 45.8454 24.1769 40.0501 26.9797 30.6511C25.9893 43.6327 20.8683 54.3382 15.4102 54.3382C9.95201 54.3382 4.83105 43.6327 3.84058 30.6511Z" fill="url(#paint18_linear)"/>
<path opacity="0.1" fill-rule="evenodd" clip-rule="evenodd" d="M4.24097 32.7164C7.08595 41.2303 11.2375 46.4145 15.4101 46.4145C19.5828 46.4145 23.7343 41.2303 26.5793 32.7164C25.2306 44.4546 20.4468 53.7693 15.4101 53.7693C10.3735 53.7693 5.5897 44.4546 4.24097 32.7164Z" fill="url(#paint19_linear)"/>
</g>
<defs>
<linearGradient id="paint0_linear" x1="15.4041" y1="63.8751" x2="15.4131" y2="10.5508" gradientUnits="userSpaceOnUse">
<stop stop-color="#003DFF"/>
<stop offset="1" stop-color="#00FFFF"/>
</linearGradient>
<linearGradient id="paint1_linear" x1="15.4036" y1="63.3304" x2="15.412" y2="11.9048" gradientUnits="userSpaceOnUse">
<stop stop-color="#003DFF"/>
<stop offset="1" stop-color="#00FFFF"/>
</linearGradient>
<linearGradient id="paint2_linear" x1="15.4037" y1="62.7854" x2="15.4117" y2="13.2351" gradientUnits="userSpaceOnUse">
<stop stop-color="#003DFF"/>
<stop offset="1" stop-color="#00FFFF"/>
</linearGradient>
<linearGradient id="paint3_linear" x1="15.4041" y1="62.2404" x2="15.4115" y2="14.5427" gradientUnits="userSpaceOnUse">
<stop stop-color="#003DFF"/>
<stop offset="1" stop-color="#00FFFF"/>
</linearGradient>
<linearGradient id="paint4_linear" x1="15.4042" y1="61.6948" x2="15.4112" y2="15.8317" gradientUnits="userSpaceOnUse">
<stop stop-color="#003DFF"/>
<stop offset="1" stop-color="#00FFFF"/>
</linearGradient>
<linearGradient id="paint5_linear" x1="15.4044" y1="61.1493" x2="15.411" y2="17.1053" gradientUnits="userSpaceOnUse">
<stop stop-color="#003DFF"/>
<stop offset="1" stop-color="#00FFFF"/>
</linearGradient>
<linearGradient id="paint6_linear" x1="15.4049" y1="60.6035" x2="15.4109" y2="18.3699" gradientUnits="userSpaceOnUse">
<stop stop-color="#003DFF"/>
<stop offset="1" stop-color="#00FFFF"/>
</linearGradient>
<linearGradient id="paint7_linear" x1="15.4049" y1="60.0577" x2="15.4105" y2="19.6266" gradientUnits="userSpaceOnUse">
<stop stop-color="#003DFF"/>
<stop offset="1" stop-color="#00FFFF"/>
</linearGradient>
<linearGradient id="paint8_linear" x1="15.4052" y1="59.5117" x2="15.4104" y2="20.881" gradientUnits="userSpaceOnUse">
<stop stop-color="#003DFF"/>
<stop offset="1" stop-color="#00FFFF"/>
</linearGradient>
<linearGradient id="paint9_linear" x1="15.4054" y1="58.9659" x2="15.4102" y2="22.1361" gradientUnits="userSpaceOnUse">
<stop stop-color="#003DFF"/>
<stop offset="1" stop-color="#00FFFF"/>
</linearGradient>
<linearGradient id="paint10_linear" x1="15.4055" y1="58.4201" x2="15.4099" y2="23.3984" gradientUnits="userSpaceOnUse">
<stop stop-color="#003DFF"/>
<stop offset="1" stop-color="#00FFFF"/>
</linearGradient>
<linearGradient id="paint11_linear" x1="15.4058" y1="57.8745" x2="15.4099" y2="24.6726" gradientUnits="userSpaceOnUse">
<stop stop-color="#0057FF"/>
<stop offset="1" stop-color="#00FFFF"/>
</linearGradient>
<linearGradient id="paint12_linear" x1="15.406" y1="57.3289" x2="15.4096" y2="25.9626" gradientUnits="userSpaceOnUse">
<stop stop-color="#009FFF"/>
<stop offset="1" stop-color="#00FFFF"/>
</linearGradient>
<linearGradient id="paint13_linear" x1="15.4062" y1="56.7839" x2="15.4095" y2="27.2764" gradientUnits="userSpaceOnUse">
<stop stop-color="#00F7FF"/>
<stop offset="1" stop-color="#00FFFF"/>
</linearGradient>
<linearGradient id="paint14_linear" x1="15.4065" y1="56.2391" x2="15.4094" y2="28.618" gradientUnits="userSpaceOnUse">
<stop stop-color="#00FFFF"/>
<stop offset="1" stop-color="#00FFFF"/>
</linearGradient>
<linearGradient id="paint15_linear" x1="15.4067" y1="55.6949" x2="15.4092" y2="29.9973" gradientUnits="userSpaceOnUse">
<stop stop-color="#00FFFF"/>
<stop offset="1" stop-color="#00FFFF"/>
</linearGradient>
<linearGradient id="paint16_linear" x1="15.4069" y1="55.1513" x2="15.4091" y2="31.4231" gradientUnits="userSpaceOnUse">
<stop stop-color="#00FFFF"/>
<stop offset="1" stop-color="#00FFFF"/>
</linearGradient>
<linearGradient id="paint17_linear" x1="15.4074" y1="54.6111" x2="15.4093" y2="32.9109" gradientUnits="userSpaceOnUse">
<stop stop-color="#00FFFF"/>
<stop offset="1" stop-color="#00FFFF"/>
</linearGradient>
<linearGradient id="paint18_linear" x1="15.4078" y1="54.0668" x2="15.4093" y2="34.466" gradientUnits="userSpaceOnUse">
<stop stop-color="#00FFFF"/>
<stop offset="1" stop-color="#00FFFF"/>
</linearGradient>
<linearGradient id="paint19_linear" x1="15.408" y1="53.5261" x2="15.4092" y2="36.1132" gradientUnits="userSpaceOnUse">
<stop stop-color="#00FFFF"/>
<stop offset="1" stop-color="#00FFFF"/>
</linearGradient>
<clipPath id="clip0">
<rect x="0.300293" y="0.157227" width="30.22" height="64.444" fill="white"/>
</clipPath>
</defs>
</svg>
