<svg width="31" height="99" viewBox="0 0 31 99" fill="none" xmlns="http://www.w3.org/2000/svg">
<g clip-path="url(#clip0)">
<path opacity="0.2" fill-rule="evenodd" clip-rule="evenodd" d="M15.3935 0.157227C48.6901 0.157227 16.8126 98.3855 15.3935 98.3855C13.9745 98.3855 -17.903 0.157227 15.3935 0.157227Z" fill="url(#paint0_linear)"/>
<path opacity="0.2" fill-rule="evenodd" clip-rule="evenodd" d="M15.3939 97.8317C16.5707 95.6857 19.8242 84.6792 20.3087 83.0524C23.32 72.6343 25.8812 61.9392 27.7157 51.2788C29.6885 39.7185 33.9458 10.6099 22.5239 2.61462C20.4126 1.12631 17.9551 0.503296 15.3939 0.503296C12.8326 0.503296 10.3405 1.12631 8.22922 2.61462C-3.19267 10.6099 1.06458 39.7185 3.07206 51.2788C4.90649 61.9738 7.46776 72.6343 10.479 83.0524C10.9289 84.6792 14.2171 95.6857 15.3939 97.8317Z" fill="url(#paint1_linear)"/>
<path opacity="0.2" fill-rule="evenodd" clip-rule="evenodd" d="M15.3939 97.001C15.8785 95.8242 16.5015 93.9898 16.7092 93.3668C17.9206 89.871 18.9936 86.306 20.0319 82.741C23.0085 72.4267 25.5352 61.8355 27.3696 51.2443C29.3079 39.857 33.5651 10.7831 22.3509 2.89158C20.2742 1.43789 17.886 0.849487 15.3939 0.849487C12.9019 0.849487 10.4791 1.43789 8.43696 2.89158C-2.81187 10.7831 1.44538 39.857 3.38364 51.2443C5.21806 61.8355 7.74472 72.4267 10.7213 82.741C11.7597 86.306 12.8327 89.871 14.0441 93.3668C14.2864 93.9898 14.8748 95.8242 15.3939 97.001Z" fill="url(#paint2_linear)"/>
<path opacity="0.2" fill-rule="evenodd" clip-rule="evenodd" d="M15.3938 96.1011C15.8092 94.9935 16.2245 93.7129 16.4322 93.1245C17.6436 89.6287 18.7165 86.0637 19.7549 82.4987C22.6969 72.2536 25.2236 61.7316 27.0234 51.2096C28.9616 39.9954 33.2189 10.9215 22.1431 3.16843C20.1356 1.74935 17.8166 1.19556 15.3938 1.19556C12.971 1.19556 10.6174 1.74935 8.6099 3.16843C-2.43126 10.9215 1.82599 39.9954 3.72964 51.175C5.52945 61.697 8.05611 72.219 10.9981 82.4641C12.0365 86.0291 13.1094 89.5941 14.3208 93.0899C14.5285 93.7129 14.9439 94.9935 15.3938 96.1011Z" fill="url(#paint3_linear)"/>
<path opacity="0.2" fill-rule="evenodd" clip-rule="evenodd" d="M15.394 95.0973C15.7055 94.232 15.9824 93.3667 16.1554 92.8475C17.3668 89.3517 18.4398 85.7867 19.4782 82.2217C22.4202 72.0112 24.9122 61.5585 26.712 51.1057C28.5811 40.0992 32.8383 11.0945 21.9356 3.44527C19.9973 2.09541 17.7476 1.54163 15.394 1.54163C13.0404 1.54163 10.7906 2.09541 8.81773 3.44527C-2.08499 11.0945 2.17226 40.0992 4.07591 51.1057C5.87573 61.5585 8.36778 72.0458 11.3098 82.2217C12.3481 85.7867 13.4211 89.3517 14.6325 92.8475C14.8056 93.3667 15.0825 94.232 15.394 95.0973Z" fill="url(#paint4_linear)"/>
<path opacity="0.2" fill-rule="evenodd" clip-rule="evenodd" d="M15.394 94.059C15.567 93.5052 15.7401 93.0207 15.8785 92.6399C17.0899 89.1442 18.1629 85.5791 19.1666 82.0141C22.074 71.8729 24.5661 61.4547 26.3659 51.0366C28.2003 40.2377 32.4576 11.2676 21.7279 3.72224C19.8589 2.40699 17.6783 1.88782 15.394 1.88782C13.075 1.88782 10.929 2.40699 9.02538 3.72224C-1.70427 11.2676 2.55298 40.2377 4.42201 51.0712C6.22183 61.4893 8.67926 71.9075 11.6213 82.0487C12.6596 85.6137 13.7326 89.1788 14.9094 92.6746C15.0478 93.0207 15.1863 93.5052 15.394 94.059Z" fill="url(#paint5_linear)"/>
<path opacity="0.2" fill-rule="evenodd" clip-rule="evenodd" d="M15.394 92.9515C15.4632 92.7439 15.5324 92.5708 15.567 92.4324C16.7438 88.9366 17.8514 85.3715 18.8551 81.8065C21.7625 71.6999 24.22 61.3163 26.0198 50.9674C27.8542 40.3416 32.1114 11.3715 21.5549 3.99921C19.7204 2.71857 17.6091 2.23401 15.394 2.23401C13.1788 2.23401 11.0675 2.71857 9.23306 4.03382C-1.32354 11.4061 2.93371 40.3416 4.76814 51.002C6.53334 61.351 9.02539 71.7345 11.9328 81.8411C12.9365 85.4062 14.0441 88.9366 15.2209 92.467C15.2555 92.6054 15.3247 92.7785 15.394 92.9515Z" fill="url(#paint6_linear)"/>
<path opacity="0.2" fill-rule="evenodd" clip-rule="evenodd" d="M15.3939 91.8785C16.5361 88.4865 17.5744 85.06 18.5436 81.6334C21.4163 71.5614 23.8738 61.2471 25.6736 50.9327C27.4734 40.48 31.696 11.5791 21.3471 4.31067C19.5819 3.06464 17.5398 2.58008 15.3939 2.58008C13.2479 2.58008 11.2059 3.06464 9.44065 4.31067C-0.942889 11.5791 3.31436 40.48 5.11417 50.9327C6.87938 61.2471 9.33681 71.596 12.2442 81.6334C13.2133 85.0946 14.2517 88.5211 15.3939 91.8785Z" fill="url(#paint7_linear)"/>
<path opacity="0.2" fill-rule="evenodd" clip-rule="evenodd" d="M15.394 90.8055C16.3977 87.725 17.3668 84.61 18.2321 81.4949C21.1049 71.4575 23.5623 61.1778 25.3275 50.8981C27.0927 40.6184 31.35 11.7522 21.1395 4.62213C19.4435 3.3761 17.4707 2.92615 15.394 2.92615C13.3173 2.92615 11.3444 3.3761 9.61379 4.58751C-0.562072 11.7175 3.66057 40.6184 5.42577 50.8635C7.19097 61.1778 9.6484 71.4575 12.5212 81.4949C13.4211 84.61 14.3556 87.725 15.394 90.8055Z" fill="url(#paint8_linear)"/>
<path opacity="0.2" fill-rule="evenodd" clip-rule="evenodd" d="M15.3939 89.698C16.2938 86.929 17.1245 84.1255 17.9206 81.3219C20.7934 71.3191 23.2162 61.074 24.9814 50.8289C26.712 40.7569 30.9692 11.8907 20.9318 4.86448C19.305 3.72229 17.4014 3.27234 15.3939 3.27234C13.3864 3.27234 11.4828 3.68768 9.82141 4.86448C-0.181393 11.8907 4.04125 40.7223 5.77183 50.8289C7.53704 61.074 9.95986 71.3191 12.8326 81.3219C13.6287 84.1255 14.494 86.8944 15.3939 89.698Z" fill="url(#paint9_linear)"/>
<path opacity="0.2" fill-rule="evenodd" clip-rule="evenodd" d="M15.3938 88.5557C16.1899 86.0983 16.9167 83.6063 17.609 81.1488C20.4471 71.1806 22.87 60.9701 24.6352 50.7597C26.3311 40.8607 30.5884 12.0291 20.7586 5.14133C19.1665 4.03375 17.3321 3.61841 15.3938 3.61841C13.4556 3.61841 11.6211 4.03375 10.029 5.14133C0.199238 12.0291 4.42188 40.8607 6.11785 50.7597C7.88305 60.9701 10.3059 71.1806 13.144 81.1488C13.8709 83.6063 14.5977 86.0983 15.3938 88.5557Z" fill="url(#paint10_linear)"/>
<path opacity="0.2" fill-rule="evenodd" clip-rule="evenodd" d="M15.3939 87.4135C16.0515 85.2676 16.7092 83.1217 17.2976 80.9757C20.1357 71.0421 22.5586 60.8663 24.2892 50.6904C25.9505 40.9645 30.1732 12.2021 20.5511 5.41817C19.0282 4.34521 17.2283 3.96448 15.3939 3.96448C13.5595 3.96448 11.7597 4.34521 10.2368 5.41817C0.580077 12.2021 4.80272 40.9991 6.46408 50.6904C8.22928 60.8663 10.6175 71.0421 13.4557 80.9757C14.0787 83.1217 14.7017 85.2676 15.3939 87.4135Z" fill="url(#paint11_linear)"/>
<path opacity="0.2" fill-rule="evenodd" clip-rule="evenodd" d="M15.3939 86.2368C15.9477 84.437 16.4669 82.6372 16.9861 80.8373C19.8242 70.9384 22.2125 60.7971 23.9777 50.6559C25.6044 41.103 29.8271 12.3406 20.3434 5.72975C18.8551 4.6914 17.1591 4.31067 15.3593 4.31067C13.5595 4.31067 11.8635 4.6914 10.3752 5.72975C0.926211 12.3406 5.14885 41.103 6.81021 50.6559C8.5408 60.7971 10.9636 70.9384 13.8018 80.8373C14.2864 82.6372 14.8402 84.437 15.3939 86.2368Z" fill="url(#paint12_linear)"/>
<path opacity="0.2" fill-rule="evenodd" clip-rule="evenodd" d="M15.394 85.0599C15.8439 83.6062 16.2592 82.1525 16.6746 80.6988C19.4781 70.8345 21.901 60.7278 23.6316 50.6212C25.2237 41.276 29.4463 12.5482 20.1704 6.04121C18.7513 5.00286 17.0899 4.65674 15.394 4.65674C13.6634 4.65674 12.0366 5.00286 10.6175 6.0066C1.34156 12.5136 5.52959 41.2414 7.15634 50.5866C8.88693 60.6932 11.3098 70.7999 14.1133 80.6642C14.5287 82.1525 14.944 83.6062 15.394 85.0599Z" fill="url(#paint13_linear)"/>
<path opacity="0.2" fill-rule="evenodd" clip-rule="evenodd" d="M15.3939 83.8485C15.74 82.7409 16.0515 81.6333 16.363 80.5257C19.1666 70.696 21.5548 60.624 23.2854 50.5173C24.8429 41.3798 29.0655 12.652 19.9626 6.28344C18.6128 5.31431 17.0206 5.00281 15.3939 5.00281C13.7671 5.00281 12.175 5.31431 10.8251 6.28344C1.72221 12.652 5.91024 41.3798 7.46777 50.5173C9.19836 60.5893 11.5866 70.696 14.3901 80.5257C14.7362 81.6333 15.0477 82.7409 15.3939 83.8485Z" fill="url(#paint14_linear)"/>
<path opacity="0.2" fill-rule="evenodd" clip-rule="evenodd" d="M15.3938 0.157227C33.8765 0.157227 16.1899 68.1348 15.3938 68.1348C14.5977 68.1348 -3.12348 0.157227 15.3938 0.157227Z" fill="#EB2727"/>
<path opacity="0.2" fill-rule="evenodd" clip-rule="evenodd" d="M15.3938 67.3387C15.6707 66.508 16.0514 65.1581 16.1552 64.7428C16.8475 62.2507 17.4705 59.7587 18.0243 57.232C19.7203 49.9289 21.1393 42.4528 22.1431 35.0113C23.0084 28.6081 26.8157 0.503296 15.3938 0.503296C14.39 0.503296 13.4209 0.710967 12.5556 1.19553C4.90641 5.41817 7.70997 27.9851 8.64448 35.0113C9.64823 42.4528 11.0673 49.8943 12.7633 57.232C13.3517 59.7241 13.9747 62.2507 14.6323 64.7428C14.7362 65.1581 15.0823 66.508 15.3938 67.3387Z" fill="#EC2E2E"/>
<path opacity="0.2" fill-rule="evenodd" clip-rule="evenodd" d="M15.3939 66.1965C15.6016 65.5389 15.7747 64.8467 15.8785 64.466C16.5707 61.9739 17.1591 59.4819 17.7475 56.9552C19.4089 49.7213 20.828 42.3144 21.8317 34.9421C22.6278 28.8158 26.4005 0.849487 15.3939 0.849487C14.4594 0.849487 13.5249 1.05716 12.6942 1.50711C5.25269 5.62591 8.02163 28.1582 8.95615 34.9767C9.95989 42.349 11.3444 49.7213 13.0403 56.9898C13.6287 59.4819 14.2171 62.0085 14.9094 64.5006C15.0132 64.8467 15.1863 65.5389 15.3939 66.1965Z" fill="#EC3434"/>
<path opacity="0.2" fill-rule="evenodd" clip-rule="evenodd" d="M15.3938 64.8812C15.463 64.639 15.4976 64.4313 15.5669 64.2582C16.2591 61.7662 16.8475 59.2741 17.4359 56.7821C19.0973 49.5828 20.4817 42.2451 21.4855 34.9421C22.2469 29.0234 25.985 1.19556 15.3938 1.19556C14.4939 1.19556 13.6632 1.36862 12.8671 1.81857C5.63327 5.79892 8.40222 28.3312 9.30212 34.9421C10.3059 42.2451 11.6903 49.5828 13.3517 56.7821C13.9401 59.2741 14.5285 61.8008 15.2207 64.2582C15.2554 64.4313 15.3246 64.6736 15.3938 64.8812Z" fill="#EC3C3A"/>
<path opacity="0.2" fill-rule="evenodd" clip-rule="evenodd" d="M15.3938 63.566C16.0168 61.247 16.5706 58.928 17.1244 56.609C18.7857 49.4444 20.1702 42.1759 21.1393 34.9074C21.8662 29.2657 25.5696 1.54163 15.3938 1.54163C14.5631 1.54163 13.767 1.71468 13.0402 2.09541C6.04857 5.97194 8.78291 28.435 9.6482 34.8728C10.6173 42.1413 12.0018 49.4443 13.6632 56.5744C14.1823 58.928 14.7707 61.247 15.3938 63.566Z" fill="#ED413F"/>
<path opacity="0.2" fill-rule="evenodd" clip-rule="evenodd" d="M15.3938 62.2162C15.8783 60.3125 16.3629 58.3743 16.8128 56.436C18.4396 49.306 19.8241 42.0721 20.7932 34.8382C21.4854 29.4734 25.1543 1.88782 15.3938 1.88782C14.6323 1.88782 13.8708 2.02626 13.2132 2.40699C6.42931 6.14507 9.16364 28.6081 9.99432 34.8382C10.9635 42.0721 12.3479 49.306 13.9747 56.436C14.4246 58.3743 14.8746 60.3125 15.3938 62.2162Z" fill="#ED4745"/>
<path opacity="0.2" fill-rule="evenodd" clip-rule="evenodd" d="M15.3938 60.7971C15.7745 59.3088 16.1207 57.7859 16.4668 56.263C18.0935 49.1676 19.4434 41.9683 20.4471 34.7691C21.1394 29.6812 24.7044 2.23401 15.3938 2.23401C14.667 2.23401 14.0093 2.37246 13.3863 2.71857C6.84471 6.35281 9.54443 28.7812 10.3405 34.8037C11.3096 42.0029 12.6941 49.2022 14.3209 56.2976C14.6324 57.7859 15.0131 59.3088 15.3938 60.7971Z" fill="#EE4E4C"/>
<path opacity="0.2" fill-rule="evenodd" clip-rule="evenodd" d="M15.3937 59.378C15.6706 58.3051 15.9129 57.2321 16.1552 56.1591C17.7819 49.0983 19.1318 41.9337 20.1009 34.769C20.7585 29.8888 24.289 2.58008 15.3937 2.58008C14.7361 2.58008 14.1131 2.71853 13.5593 3.03003C10.5827 4.65679 9.78661 10.8523 9.57894 13.7943C9.05977 20.5782 9.78661 28.0197 10.6865 34.7344C11.6557 41.8991 13.0055 49.0983 14.6323 56.1245C14.8745 57.2321 15.1168 58.3051 15.3937 59.378Z" fill="#EE5452"/>
<path opacity="0.2" fill-rule="evenodd" clip-rule="evenodd" d="M15.3939 57.8897C15.5324 57.2667 15.6708 56.6437 15.8439 56.0206C17.436 48.9944 18.8205 41.8644 19.755 34.6998C20.6549 27.9851 21.3818 20.5782 20.8626 13.8289C20.6549 11.0253 19.8935 4.89902 17.0899 3.34149C16.5361 3.02998 15.9823 2.92615 15.3939 2.92615C14.8055 2.92615 14.2171 3.02998 13.6979 3.34149C10.8944 4.89902 10.1329 11.0253 9.92526 13.8289C9.40608 20.5782 10.1329 28.0197 11.0328 34.6998C12.002 41.8298 13.3518 48.9944 14.944 56.0206C15.0824 56.6437 15.2209 57.2667 15.3939 57.8897Z" fill="#EE5A58"/>
<path opacity="0.2" fill-rule="evenodd" clip-rule="evenodd" d="M15.3938 56.3668C15.4284 56.1938 15.4631 56.0553 15.4977 55.8823C17.0898 48.8907 18.4397 41.7607 19.4088 34.6652C20.3087 27.9852 21.0356 20.5782 20.5164 13.8635C20.3087 11.1984 19.5472 5.10676 16.8821 3.61846C16.3976 3.34156 15.913 3.27234 15.3592 3.27234C14.84 3.27234 14.3209 3.37617 13.8363 3.61846C11.1712 5.07215 10.4443 11.1984 10.2367 13.8289C9.75211 20.5782 10.4443 27.9852 11.3443 34.6652C12.3134 41.7953 13.6632 48.8907 15.2554 55.8823C15.29 56.0553 15.3592 56.1938 15.3938 56.3668Z" fill="#EF615F"/>
<path opacity="0.2" fill-rule="evenodd" clip-rule="evenodd" d="M15.3938 54.8092C16.8821 48.1292 18.1627 41.3799 19.0626 34.596C19.9625 27.9505 20.6894 20.5782 20.1702 13.8635C19.9625 11.3714 19.2357 5.31439 16.7436 3.92991C16.2937 3.68763 15.8437 3.61841 15.3938 3.61841C14.9092 3.61841 14.4592 3.68763 14.0439 3.92991C11.5518 5.31439 10.825 11.4061 10.6173 13.8635C10.0982 20.5782 10.7904 27.9505 11.6903 34.596C12.6248 41.3799 13.8708 48.1292 15.3938 54.8092Z" fill="#EF6563"/>
<path opacity="0.2" fill-rule="evenodd" clip-rule="evenodd" d="M15.3938 53.217C16.7437 47.0562 17.8859 40.826 18.7166 34.5613C19.6165 27.9158 20.3433 20.5781 19.8241 13.8981C19.6511 11.5791 18.9242 5.52201 16.5706 4.24137C16.1899 4.0337 15.8092 3.96448 15.3938 3.96448C14.9785 3.96448 14.5631 4.0337 14.217 4.24137C11.8634 5.55662 11.1366 11.5791 10.9635 13.8981C10.4443 20.5781 11.1366 27.9158 12.0365 34.5613C12.9018 40.7914 14.044 47.0562 15.3938 53.217Z" fill="#EF6D6B"/>
<path opacity="0.2" fill-rule="evenodd" clip-rule="evenodd" d="M15.3938 51.5558C16.6052 45.914 17.6089 40.2031 18.3704 34.4921C19.2703 27.9159 19.9971 20.5782 19.478 13.9327C19.3049 11.7868 18.6127 5.76436 16.3975 4.55295C16.086 4.37989 15.7399 4.31067 15.3938 4.31067C15.0477 4.31067 14.7015 4.37989 14.39 4.55295C12.2095 5.76436 11.4827 11.7868 11.3096 13.9327C10.7904 20.5782 11.4827 27.9159 12.3826 34.5268C13.144 40.2031 14.1824 45.914 15.3938 51.5558Z" fill="#F07270"/>
<path opacity="0.2" fill-rule="evenodd" clip-rule="evenodd" d="M15.3937 49.8944C16.4321 44.7718 17.332 39.6493 18.0588 34.4921C18.9588 27.9159 19.651 20.6128 19.1664 13.9673C18.9587 11.9598 18.2665 5.97199 16.2244 4.8298C15.9475 4.69135 15.6706 4.65674 15.3937 4.65674C15.1168 4.65674 14.8053 4.69135 14.5631 4.8298C12.521 5.93737 11.8287 11.9598 11.6557 13.9327C11.1365 20.5782 11.8287 27.8813 12.7286 34.4575C13.4209 39.6147 14.3208 44.7718 15.3937 49.8944Z" fill="#F07876"/>
<path opacity="0.2" fill-rule="evenodd" clip-rule="evenodd" d="M15.3938 48.1291C16.2937 43.595 17.0898 38.9916 17.7128 34.4228C18.6127 27.8812 19.3049 20.5781 18.7858 13.9673C18.6473 12.1328 17.9205 6.145 16.086 5.14125C15.8784 5.03742 15.6361 5.00281 15.3938 5.00281C15.1515 5.00281 14.9092 5.03742 14.7016 5.14125C12.8325 6.17961 12.1403 12.1674 12.0019 13.9673C11.4827 20.5781 12.1749 27.8812 13.0748 34.4228C13.6978 38.9916 14.4593 43.595 15.3938 48.1291Z" fill="#F0807E"/>
<path opacity="0.2" fill-rule="evenodd" clip-rule="evenodd" d="M15.3939 46.3294C16.1553 42.3491 16.813 38.3687 17.3668 34.3884C18.2321 27.8467 18.9589 20.5783 18.4397 14.002C18.3013 12.3406 17.609 6.38742 15.9131 5.41829C15.7746 5.34906 15.5669 5.31445 15.3939 5.31445C15.2208 5.31445 15.0478 5.31445 14.8747 5.41829C13.1787 6.35281 12.4519 12.306 12.3481 14.002C11.8289 20.5783 12.5557 27.8467 13.421 34.3538C13.9402 38.3687 14.6324 42.3491 15.3939 46.3294Z" fill="#F18583"/>
<path opacity="0.2" fill-rule="evenodd" clip-rule="evenodd" d="M15.3937 44.4603C16.0167 41.103 16.5705 37.711 17.0205 34.3191C17.8858 27.8121 18.6126 20.5782 18.0934 14.0366C17.9896 12.5483 17.2628 6.59504 15.7398 5.72975C15.636 5.69513 15.4975 5.66052 15.3937 5.66052C15.2899 5.66052 15.1514 5.66052 15.0476 5.72975C13.5247 6.56043 12.7978 12.5137 12.694 14.0366C12.1748 20.5782 12.8671 27.8121 13.767 34.3191C14.2169 37.711 14.7707 41.103 15.3937 44.4603Z" fill="#F18B89"/>
<path opacity="0.2" fill-rule="evenodd" clip-rule="evenodd" d="M15.3938 42.4874C15.8784 39.7531 16.2937 37.0187 16.6744 34.2844C17.5397 27.8466 18.2666 20.682 17.782 14.2096C17.6782 12.7905 16.9859 6.87188 15.6015 6.07581C15.5669 6.07581 15.463 6.07581 15.4284 6.07581C15.3938 6.07581 15.29 6.07581 15.2554 6.07581C13.8709 6.90649 13.1786 12.8251 13.0748 14.2096C12.5902 20.7166 13.2825 27.8466 14.1824 34.2844C14.4593 37.0187 14.9092 39.7531 15.3938 42.4874Z" fill="#F19191"/>
<path opacity="0.2" fill-rule="evenodd" clip-rule="evenodd" d="M15.3246 6.38733C14.0093 7.52952 13.4209 13.2059 13.3171 14.7288C12.9017 21.0627 13.594 27.9505 14.4593 34.2498C14.7362 36.3265 15.0477 38.4032 15.3938 40.4453C15.7399 38.3686 16.0514 36.3265 16.3283 34.2498C17.1936 27.9505 17.8512 21.0973 17.4705 14.7288C17.3667 13.2059 16.7783 7.52952 15.463 6.38733H15.4284C15.3592 6.38733 15.3592 6.38733 15.3246 6.38733Z" fill="#F29896"/>
<path opacity="0.2" fill-rule="evenodd" clip-rule="evenodd" d="M15.3937 6.87195C14.2516 8.42948 13.7324 13.552 13.6632 15.0749C13.317 21.3051 13.9747 28.0198 14.8053 34.1807C14.9784 35.5305 15.1861 36.8804 15.3937 38.2648C15.6014 36.915 15.8091 35.5651 15.9821 34.1807C16.8128 28.0198 17.4704 21.3051 17.1243 15.0749C17.0205 13.552 16.5359 8.42948 15.3937 6.87195Z" fill="#FB9D9D"/>
</g>
<defs>
<linearGradient id="paint0_linear" x1="15.3794" y1="2.11137" x2="15.3847" y2="97.3304" gradientUnits="userSpaceOnUse">
<stop stop-color="#AC0095"/>
<stop offset="1" stop-color="#EF2700"/>
</linearGradient>
<linearGradient id="paint1_linear" x1="15.3797" y1="2.43875" x2="15.3849" y2="96.774" gradientUnits="userSpaceOnUse">
<stop stop-color="#AA0098"/>
<stop offset="1" stop-color="#EF1B00"/>
</linearGradient>
<linearGradient id="paint2_linear" x1="15.3797" y1="2.76092" x2="15.3851" y2="95.9539" gradientUnits="userSpaceOnUse">
<stop stop-color="#AA089C"/>
<stop offset="1" stop-color="#EE1400"/>
</linearGradient>
<linearGradient id="paint3_linear" x1="15.3797" y1="3.08152" x2="15.385" y2="95.0595" gradientUnits="userSpaceOnUse">
<stop stop-color="#A810A0"/>
<stop offset="1" stop-color="#EE0C00"/>
</linearGradient>
<linearGradient id="paint4_linear" x1="15.3798" y1="3.40069" x2="15.3852" y2="94.0869" gradientUnits="userSpaceOnUse">
<stop stop-color="#A814A2"/>
<stop offset="1" stop-color="#ED0005"/>
</linearGradient>
<linearGradient id="paint5_linear" x1="15.3798" y1="3.71864" x2="15.3851" y2="93.0525" gradientUnits="userSpaceOnUse">
<stop stop-color="#A61AA6"/>
<stop offset="1" stop-color="#EE000B"/>
</linearGradient>
<linearGradient id="paint6_linear" x1="15.3798" y1="4.03576" x2="15.3851" y2="91.9795" gradientUnits="userSpaceOnUse">
<stop stop-color="#A01EA8"/>
<stop offset="1" stop-color="#EE0016"/>
</linearGradient>
<linearGradient id="paint7_linear" x1="15.3798" y1="4.35289" x2="15.3851" y2="90.9123" gradientUnits="userSpaceOnUse">
<stop stop-color="#9B21A9"/>
<stop offset="1" stop-color="#EE001B"/>
</linearGradient>
<linearGradient id="paint8_linear" x1="15.3798" y1="4.67003" x2="15.385" y2="89.8369" gradientUnits="userSpaceOnUse">
<stop stop-color="#9525AB"/>
<stop offset="1" stop-color="#EE0025"/>
</linearGradient>
<linearGradient id="paint9_linear" x1="15.3798" y1="4.98673" x2="15.3849" y2="88.7424" gradientUnits="userSpaceOnUse">
<stop stop-color="#9129AD"/>
<stop offset="1" stop-color="#EF0029"/>
</linearGradient>
<linearGradient id="paint10_linear" x1="15.3797" y1="5.30293" x2="15.3849" y2="87.6291" gradientUnits="userSpaceOnUse">
<stop stop-color="#8C2AAE"/>
<stop offset="1" stop-color="#EF002C"/>
</linearGradient>
<linearGradient id="paint11_linear" x1="15.3799" y1="5.61896" x2="15.385" y2="86.4972" gradientUnits="userSpaceOnUse">
<stop stop-color="#8B2FAD"/>
<stop offset="1" stop-color="#EF0034"/>
</linearGradient>
<linearGradient id="paint12_linear" x1="15.38" y1="5.93452" x2="15.3851" y2="85.3468" gradientUnits="userSpaceOnUse">
<stop stop-color="#8733AF"/>
<stop offset="1" stop-color="#EF003C"/>
</linearGradient>
<linearGradient id="paint13_linear" x1="15.38" y1="6.24964" x2="15.385" y2="84.178" gradientUnits="userSpaceOnUse">
<stop stop-color="#8234B0"/>
<stop offset="1" stop-color="#EF0044"/>
</linearGradient>
<linearGradient id="paint14_linear" x1="15.3798" y1="6.56439" x2="15.3849" y2="82.992" gradientUnits="userSpaceOnUse">
<stop stop-color="#7A2CB0"/>
<stop offset="1" stop-color="#F0004D"/>
</linearGradient>
<clipPath id="clip0">
<rect x="0.268555" y="0.157227" width="30.2161" height="98.2283" fill="white"/>
</clipPath>
</defs>
</svg>
