<svg width="32" height="70" viewBox="0 0 32 70" fill="none" xmlns="http://www.w3.org/2000/svg">
<g clip-path="url(#clip0)">
<path opacity="0.2" fill-rule="evenodd" clip-rule="evenodd" d="M16.0712 0.157227C49.357 0.157227 17.4946 69.7946 16.0712 69.7946C14.6478 69.7946 -17.2146 0.157227 16.0712 0.157227Z" fill="url(#paint0_linear)"/>
<path opacity="0.2" fill-rule="evenodd" clip-rule="evenodd" d="M16.0706 69.393C17.2385 67.8601 20.5233 60.0496 20.9613 58.9182C23.9906 51.5457 26.5454 43.9542 28.3703 36.3992C30.3411 28.2238 34.6114 7.56612 23.1876 1.909C21.0708 0.850569 18.6254 0.412598 16.0341 0.412598C13.4428 0.412598 10.9974 0.850569 8.88056 1.909C-2.50668 7.56612 1.76354 28.2238 3.7344 36.3992C5.55928 43.9542 8.11411 51.5457 11.1434 58.9182C11.6179 60.0861 14.9027 67.8601 16.0706 69.393Z" fill="url(#paint1_linear)"/>
<path opacity="0.2" fill-rule="evenodd" clip-rule="evenodd" d="M16.0705 68.8092C16.5815 67.9698 17.1655 66.6558 17.3845 66.2544C18.5889 63.7725 19.6838 61.2542 20.7057 58.6994C23.6985 51.3998 26.2169 43.8813 28.0417 36.3628C30.0126 28.2969 34.2463 7.67575 23.0051 2.09162C20.9247 1.06969 18.5524 0.668213 16.034 0.668213C13.5157 0.668213 11.1434 1.06969 9.06301 2.09162C-2.10525 7.67575 2.12847 28.2969 4.09934 36.3628C5.92421 43.8813 8.44255 51.3633 11.4353 58.6994C12.4573 61.2177 13.5522 63.7725 14.7566 66.2544C14.9756 66.6558 15.5596 67.9698 16.0705 68.8092Z" fill="url(#paint2_linear)"/>
<path opacity="0.2" fill-rule="evenodd" clip-rule="evenodd" d="M16.0705 68.1523C16.5085 67.3858 16.91 66.4369 17.129 66.0354C18.3334 63.5536 19.4283 61.0352 20.4502 58.4804C23.4065 51.2174 25.9249 43.7354 27.7133 36.2899C29.6476 28.3699 33.8813 7.74875 22.8226 2.27412C20.8152 1.28868 18.5159 0.887207 16.0705 0.887207C13.6252 0.887207 11.3258 1.28868 9.31847 2.27412C-1.74029 7.78525 2.49343 28.3699 4.4278 36.3264C6.25268 43.7719 8.73451 51.2539 11.6908 58.5169C12.7127 61.0352 13.8077 63.5536 15.0121 66.0719C15.2311 66.4734 15.6326 67.3858 16.0705 68.1523Z" fill="url(#paint3_linear)"/>
<path opacity="0.2" fill-rule="evenodd" clip-rule="evenodd" d="M16.0705 67.4588C16.3625 66.8383 16.6545 66.2179 16.837 65.8894C18.0414 63.4076 19.1363 60.8892 20.1583 58.3709C23.0781 51.1444 25.5964 43.7354 27.3848 36.3264C29.2827 28.5159 33.5164 7.96775 22.6401 2.52961C20.7057 1.54418 18.4429 1.1792 16.0705 1.1792C13.6982 1.1792 11.4718 1.54418 9.50098 2.52961C-1.3753 7.89475 2.89491 28.4794 4.75629 36.2899C6.54467 43.6989 9.06301 51.1079 11.9828 58.3344C13.0047 60.8527 14.0997 63.3711 15.3041 65.8529C15.4866 66.2179 15.7786 66.8383 16.0705 67.4588Z" fill="url(#paint4_linear)"/>
<path opacity="0.2" fill-rule="evenodd" clip-rule="evenodd" d="M16.0706 66.7289C16.2531 66.3274 16.3991 65.9989 16.5451 65.7434C17.7495 63.2616 18.8079 60.7433 19.8299 58.2249C22.7497 51.0349 25.2315 43.6624 27.0199 36.2534C28.8813 28.5889 33.115 8.04075 22.4212 2.71211C20.5233 1.76317 18.37 1.39819 16.0706 1.39819C13.7713 1.39819 11.6179 1.76317 9.72003 2.71211C-1.01026 8.04075 3.25996 28.5524 5.12133 36.2534C6.90971 43.6259 9.39155 50.9984 12.3114 58.2249C13.3333 60.7433 14.4282 63.2616 15.5961 65.7434C15.7056 65.9624 15.8881 66.3274 16.0706 66.7289Z" fill="url(#paint5_linear)"/>
<path opacity="0.2" fill-rule="evenodd" clip-rule="evenodd" d="M16.0706 65.9623C16.1436 65.8163 16.1801 65.7068 16.2531 65.5973C17.4575 63.1155 18.5159 60.5972 19.5379 58.0788C22.4577 50.9253 24.903 43.5528 26.6914 36.2168C28.5163 28.6618 32.7865 8.15013 22.2387 2.93098C20.4138 1.98204 18.2969 1.61707 16.0706 1.61707C13.8442 1.61707 11.7274 1.98204 9.90249 2.89448C-0.645307 8.15013 3.62491 28.6618 5.44979 36.1803C7.23817 43.5163 9.68351 50.8888 12.6033 58.0423C13.6252 60.5607 14.7202 63.079 15.8881 65.5608C15.9611 65.6703 15.9976 65.8163 16.0706 65.9623Z" fill="url(#paint6_linear)"/>
<path opacity="0.2" fill-rule="evenodd" clip-rule="evenodd" d="M16.0707 65.1959C17.2021 62.787 18.2605 60.3782 19.246 57.9328C22.1293 50.7793 24.5746 43.4798 26.363 36.1438C28.1514 28.7348 32.4216 8.22314 22.0563 3.07698C20.2679 2.20104 18.224 1.87256 16.1072 1.87256C13.9538 1.87256 11.91 2.20104 10.1581 3.07698C-0.243741 8.25964 3.98998 28.7348 5.77836 36.1438C7.56674 43.4433 10.0121 50.7793 12.8954 57.9328C13.8808 60.3417 14.9393 62.787 16.0707 65.1959Z" fill="url(#paint7_linear)"/>
<path opacity="0.2" fill-rule="evenodd" clip-rule="evenodd" d="M16.0706 64.3929C17.0925 62.2031 18.0415 60.0132 18.9174 57.7869C21.8007 50.6698 24.2461 43.3703 25.9979 36.1073C27.7498 28.8443 32.02 8.36914 21.8372 3.29597C20.1218 2.45653 18.151 2.12805 16.0706 2.12805C13.9902 2.12805 12.0194 2.45653 10.304 3.29597C0.121157 8.36914 4.35488 28.8443 6.14326 36.1073C7.89514 43.4068 10.3405 50.6698 13.2238 57.7869C14.0997 60.0132 15.0487 62.2031 16.0706 64.3929Z" fill="url(#paint8_linear)"/>
<path opacity="0.2" fill-rule="evenodd" clip-rule="evenodd" d="M16.0705 63.6265C16.9829 61.6556 17.8224 59.6848 18.6253 57.6774C21.4721 50.5969 23.9175 43.3338 25.6694 36.0708C27.4212 28.9173 31.655 8.47864 21.6546 3.51497C20.0122 2.67553 18.0779 2.38354 16.0705 2.38354C14.0631 2.38354 12.1653 2.67553 10.4864 3.51497C0.486028 8.47864 4.71975 28.9538 6.47163 36.0708C8.22351 43.3338 10.6689 50.5969 13.5157 57.6774C14.3186 59.6848 15.1581 61.6556 16.0705 63.6265Z" fill="url(#paint9_linear)"/>
<path opacity="0.2" fill-rule="evenodd" clip-rule="evenodd" d="M16.0706 62.8235C16.837 61.0717 17.6035 59.3198 18.2969 57.5679C21.1438 50.5239 23.5891 43.2608 25.341 36.0343C27.0199 29.0268 31.2536 8.58814 21.4357 3.69747C19.8298 2.89452 18.005 2.60254 16.0706 2.60254C14.1362 2.60254 12.3113 2.89452 10.7054 3.69747C0.887596 8.58814 5.12132 29.0268 6.8002 36.0343C8.55209 43.2608 10.9974 50.5239 13.8442 57.5679C14.5377 59.3198 15.3041 61.0717 16.0706 62.8235Z" fill="url(#paint10_linear)"/>
<path opacity="0.2" fill-rule="evenodd" clip-rule="evenodd" d="M16.0708 62.0206C16.7277 60.5242 17.3847 58.9913 17.9686 57.4584C20.8154 50.4144 23.2243 43.2244 24.9762 35.9978C26.6551 29.0998 30.8888 8.69765 21.2534 3.91646C19.7205 3.15001 17.9321 2.85803 16.0708 2.85803C14.2094 2.85803 12.4575 3.15001 10.8881 3.91646C1.25274 8.69765 5.48646 29.0998 7.16535 35.9978C8.91723 43.2244 11.3261 50.4144 14.1729 57.4584C14.7568 58.9548 15.4138 60.4877 16.0708 62.0206Z" fill="url(#paint11_linear)"/>
<path opacity="0.2" fill-rule="evenodd" clip-rule="evenodd" d="M16.0707 61.1812C16.6182 59.9038 17.1656 58.6263 17.6766 57.3489C20.4869 50.3414 22.8958 43.1514 24.6477 35.9613C26.29 29.2093 30.4873 8.80715 21.0344 4.09896C19.538 3.36901 17.8591 3.11353 16.0707 3.11353C14.2823 3.11353 12.5669 3.36901 11.107 4.09896C1.61767 8.80715 5.85139 29.1728 7.49378 35.9613C9.24567 43.1514 11.6545 50.3414 14.4648 57.3489C14.9758 58.6263 15.5233 59.9038 16.0707 61.1812Z" fill="url(#paint12_linear)"/>
<path opacity="0.2" fill-rule="evenodd" clip-rule="evenodd" d="M16.0706 60.3417C16.5086 59.3198 16.9465 58.2614 17.348 57.2394C20.1583 50.2319 22.5672 43.0784 24.319 35.9249C25.9249 29.3188 30.1222 8.95315 20.8518 4.31796C19.4284 3.6245 17.786 3.36902 16.0706 3.36902C14.3552 3.36902 12.7128 3.6245 11.2894 4.31796C2.01903 8.91665 6.21625 29.2823 7.82215 35.8884C9.57403 43.0419 11.9464 50.2319 14.7932 57.2029C15.1947 58.2614 15.6326 59.3198 16.0706 60.3417Z" fill="url(#paint13_linear)"/>
<path opacity="0.2" fill-rule="evenodd" clip-rule="evenodd" d="M16.0707 59.4658C16.3991 58.6994 16.7276 57.8964 17.0196 57.0935C19.8299 50.1224 22.2022 42.9689 23.9541 35.8154C25.5235 29.3188 29.7207 8.98965 20.6329 4.46395C19.2824 3.7705 17.713 3.55151 16.0707 3.55151C14.4283 3.55151 12.8589 3.7705 11.5085 4.46395C2.38406 9.02615 6.58128 29.3553 8.18718 35.8519C9.90256 43.0054 12.3114 50.1589 15.1217 57.13C15.4137 57.8964 15.7422 58.6994 16.0707 59.4658Z" fill="url(#paint14_linear)"/>
<path opacity="0.2" fill-rule="evenodd" clip-rule="evenodd" d="M16.0707 0.157227C34.575 0.157227 16.8371 48.334 16.0707 48.334C15.3042 48.334 -2.43358 0.157227 16.0707 0.157227Z" fill="#4AA6D9"/>
<path opacity="0.2" fill-rule="evenodd" clip-rule="evenodd" d="M16.0708 47.75C16.3628 47.166 16.7277 46.2171 16.8372 45.9251C17.5307 44.1732 18.1511 42.3848 18.7351 40.5964C20.414 35.4138 21.8374 30.1216 22.8593 24.866C23.6988 20.3038 27.4945 0.412598 16.0708 0.412598C15.0488 0.412598 14.0999 0.558588 13.224 0.923564C5.55947 3.91637 8.36978 19.9023 9.31872 24.9025C10.3407 30.1946 11.7641 35.4503 13.443 40.6329C14.0269 42.4213 14.6474 44.1732 15.3408 45.9616C15.4138 46.2171 15.7788 47.2025 16.0708 47.75Z" fill="#4BADE0"/>
<path opacity="0.2" fill-rule="evenodd" clip-rule="evenodd" d="M16.0708 46.9837C16.2533 46.5092 16.4358 46.0347 16.5453 45.7792C17.2387 44.0273 17.8227 42.239 18.4067 40.4506C20.0855 35.3044 21.4725 30.0853 22.4944 24.8661C23.3338 20.4864 27.0931 0.668213 16.0708 0.668213C15.1219 0.668213 14.2094 0.814203 13.37 1.14268C5.92447 4.06249 8.69829 20.0119 9.64723 24.8661C10.6327 30.0853 12.0561 35.3409 13.735 40.4506C14.3189 42.239 14.9394 43.9909 15.5963 45.7792C15.7058 45.9982 15.8883 46.5092 16.0708 46.9837Z" fill="#4BB3E6"/>
<path opacity="0.2" fill-rule="evenodd" clip-rule="evenodd" d="M16.0706 46.0347C16.1436 45.8522 16.1801 45.7062 16.2531 45.5967C16.9465 43.8449 17.5305 42.0565 18.1144 40.3046C19.7568 35.1949 21.1802 30.0123 22.1657 24.8296C22.9321 20.6324 26.6914 0.887207 16.0706 0.887207C15.1946 0.887207 14.3187 1.0332 13.5522 1.32518C6.32571 4.17199 9.09953 20.1214 9.97547 24.7931C10.9974 30.0123 12.3843 35.1949 14.0267 40.3046C14.6107 42.093 15.2311 43.8449 15.8881 45.5967C15.9611 45.7427 15.9976 45.8887 16.0706 46.0347Z" fill="#4BBBEC"/>
<path opacity="0.2" fill-rule="evenodd" clip-rule="evenodd" d="M16.0707 45.0858C16.6912 43.4434 17.2386 41.801 17.7861 40.1586C19.4285 35.0854 20.8154 29.9393 21.8008 24.7566C22.5673 20.7784 26.2535 1.1427 16.0707 1.1427C15.2313 1.1427 14.4648 1.25219 13.7349 1.54417C6.72732 4.28149 9.46464 20.2309 10.3406 24.7931C11.326 29.9393 12.7129 35.1219 14.3553 40.1951C14.8663 41.801 15.4502 43.4799 16.0707 45.0858Z" fill="#4CC0F1"/>
<path opacity="0.2" fill-rule="evenodd" clip-rule="evenodd" d="M16.0706 44.1369C16.5815 42.7865 17.0195 41.3995 17.4575 40.0491C19.0999 35.0125 20.4503 29.8663 21.4357 24.7201C22.1657 20.9244 25.8154 1.36169 16.0341 1.36169C15.2676 1.36169 14.5377 1.47119 13.8442 1.72667C7.05565 4.39099 9.79297 20.3039 10.6324 24.7201C11.6179 29.8663 13.0048 34.976 14.6107 40.0491C15.1216 41.436 15.5596 42.7865 16.0706 44.1369Z" fill="#4CC6F7"/>
<path opacity="0.2" fill-rule="evenodd" clip-rule="evenodd" d="M16.0708 43.1513C16.4357 42.0929 16.8007 41.0345 17.1657 39.9395C18.7716 34.9029 20.1585 29.7932 21.1439 24.6835C21.8009 21.0703 25.4141 1.61707 16.0708 1.61707C15.3773 1.61707 14.6839 1.72656 14.0634 1.94554C7.49383 4.50037 10.2311 20.4133 11.0341 24.6835C12.0195 29.7932 13.3699 34.9029 15.0123 39.9395C15.3408 41.0345 15.7058 42.0929 16.0708 43.1513Z" fill="#4DCDFE"/>
<path opacity="0.2" fill-rule="evenodd" clip-rule="evenodd" d="M16.0708 42.1294C16.3263 41.3629 16.5818 40.5965 16.8373 39.83C18.4432 34.8299 19.8301 29.7567 20.779 24.6471C21.436 21.2163 24.9762 1.83606 16.0708 1.83606C15.4139 1.83606 14.7934 1.90905 14.2095 2.16454C11.2532 3.33246 10.4867 7.71217 10.2677 9.79253C9.75675 14.6102 10.4502 19.8659 11.3626 24.6471C12.3481 29.7202 13.6985 34.8299 15.3044 39.83C15.5599 40.5965 15.8153 41.3629 16.0708 42.1294Z" fill="#4DD3FF"/>
<path opacity="0.2" fill-rule="evenodd" clip-rule="evenodd" d="M16.0707 41.0711C16.2167 40.6331 16.3627 40.1952 16.5087 39.7572C18.1146 34.757 19.465 29.7203 20.4139 24.6472C21.3264 19.9025 22.0563 14.6468 21.5089 9.82916C21.3264 7.85829 20.5599 3.51508 17.7496 2.38366C17.2386 2.16467 16.6547 2.09167 16.0707 2.09167C15.4868 2.09167 14.9028 2.16467 14.3918 2.38366C11.5815 3.47858 10.8151 7.85829 10.5961 9.82916C10.0851 14.6103 10.7786 19.866 11.691 24.6472C12.64 29.7203 14.0269 34.757 15.6328 39.7572C15.7787 40.1952 15.9247 40.6331 16.0707 41.0711Z" fill="#4DD9FF"/>
<path opacity="0.2" fill-rule="evenodd" clip-rule="evenodd" d="M16.0706 40.0126C16.1071 39.9031 16.1436 39.7936 16.1801 39.6841C17.786 34.7204 19.1364 29.6837 20.0853 24.6471C20.9978 19.9024 21.6912 14.6832 21.1803 9.90205C20.9613 8.04067 20.2313 3.69746 17.567 2.63903C17.129 2.42004 16.6181 2.34705 16.0706 2.34705C15.5232 2.34705 15.0122 2.42004 14.5377 2.60253C11.8734 3.66096 11.1434 7.96767 10.9245 9.86555C10.4135 14.6467 11.1069 19.8659 12.0194 24.6106C12.9683 29.6472 14.3187 34.6839 15.9246 39.6476C15.9976 39.7571 16.0341 39.9031 16.0706 40.0126Z" fill="#4EE0FF"/>
<path opacity="0.2" fill-rule="evenodd" clip-rule="evenodd" d="M16.0706 38.8811C17.567 34.173 18.8444 29.3553 19.7569 24.5741C20.6693 19.8659 21.3628 14.6467 20.8518 9.86556C20.6328 8.11368 19.9394 3.80696 17.421 2.82152C17.0196 2.67553 16.5451 2.60254 16.0706 2.60254C15.5962 2.60254 15.1582 2.67553 14.7202 2.82152C12.2019 3.80696 11.4719 8.11368 11.2894 9.86556C10.7785 14.6102 11.4719 19.8294 12.3844 24.5741C13.2968 29.3553 14.5742 34.173 16.0706 38.8811Z" fill="#4EE4FF"/>
<path opacity="0.2" fill-rule="evenodd" clip-rule="evenodd" d="M16.0706 37.7497C17.4211 33.37 18.5525 28.9538 19.3919 24.5376C20.3044 19.8294 20.9978 14.6103 20.4869 9.90207C20.3044 8.25967 19.5744 3.95296 17.2386 3.04052C16.8736 2.89453 16.4721 2.85803 16.0706 2.85803C15.6692 2.85803 15.2677 2.89453 14.9027 3.04052C12.5669 3.95296 11.8369 8.25967 11.6544 9.90207C11.1435 14.6468 11.8369 19.8659 12.7494 24.5376C13.5888 28.9538 14.7202 33.4065 16.0706 37.7497Z" fill="#4EECFF"/>
<path opacity="0.2" fill-rule="evenodd" clip-rule="evenodd" d="M16.0708 36.5818C17.2752 32.5671 18.2971 28.5523 19.0636 24.5011C19.9395 19.8294 20.6695 14.6103 20.1585 9.90208C19.976 8.36918 19.2826 4.09896 17.0927 3.25952C16.7642 3.15002 16.4358 3.11353 16.0708 3.11353C15.7058 3.11353 15.3773 3.15002 15.0488 3.25952C12.859 4.13546 12.129 8.40567 11.983 9.90208C11.4721 14.6103 12.1655 19.8294 13.078 24.5011C13.8444 28.5523 14.8664 32.6036 16.0708 36.5818Z" fill="#4FF1FF"/>
<path opacity="0.2" fill-rule="evenodd" clip-rule="evenodd" d="M16.0707 35.4139C17.1291 31.8006 18.005 28.1509 18.735 24.5011C19.6109 19.8294 20.3409 14.6468 19.8299 9.97508C19.6839 8.55167 18.954 4.31796 16.9466 3.51501C16.6911 3.40552 16.3991 3.36902 16.1072 3.36902C15.8152 3.36902 15.5232 3.40552 15.2677 3.51501C13.2239 4.31796 12.5304 8.55167 12.3844 9.97508C11.8734 14.6833 12.5669 19.8659 13.4793 24.5011C14.0998 28.1144 15.0122 31.8006 16.0707 35.4139Z" fill="#4FF7FF"/>
<path opacity="0.2" fill-rule="evenodd" clip-rule="evenodd" d="M16.0708 34.173C16.9832 30.9612 17.7497 27.7129 18.3701 24.4646C19.2461 19.8294 19.976 14.6468 19.4651 9.97509C19.3191 8.66118 18.6256 4.42746 16.7643 3.69751C16.5453 3.62451 16.3263 3.58801 16.0708 3.58801C15.8518 3.58801 15.5963 3.58801 15.3773 3.69751C13.516 4.42746 12.786 8.66118 12.6765 9.97509C12.1656 14.6468 12.8955 19.8294 13.7715 24.4646C14.3919 27.6764 15.1584 30.9247 16.0708 34.173Z" fill="#4FFFFF"/>
<path opacity="0.2" fill-rule="evenodd" clip-rule="evenodd" d="M16.0707 32.8956C16.8371 30.0853 17.4941 27.2385 18.0416 24.4281C18.9175 19.793 19.6475 14.6468 19.1365 9.9751C18.9905 8.80718 18.297 4.57346 16.5817 3.9165C16.4357 3.84351 16.2532 3.84351 16.0707 3.84351C15.8882 3.84351 15.7057 3.84351 15.5597 3.9165C13.8443 4.57346 13.1509 8.80718 13.0049 9.9751C12.4939 14.6468 13.2239 19.793 14.0998 24.4281C14.6473 27.2385 15.3042 30.0853 16.0707 32.8956Z" fill="#50FFFF"/>
<path opacity="0.2" fill-rule="evenodd" clip-rule="evenodd" d="M16.0707 31.5451C16.6912 29.1727 17.2386 26.7639 17.6766 24.355C18.5525 19.7563 19.2825 14.6102 18.7715 9.97499C18.662 8.91656 17.9321 4.68284 16.3992 4.09888C16.3262 4.06238 16.1437 4.06238 16.0707 4.06238C15.9612 4.06238 15.8152 4.06238 15.7422 4.09888C14.2093 4.71933 13.4794 8.91656 13.3699 10.0115C12.8589 14.6467 13.5889 19.7928 14.4648 24.3915C14.9028 26.7639 15.4503 29.1727 16.0707 31.5451Z" fill="#50FFFF"/>
<path opacity="0.2" fill-rule="evenodd" clip-rule="evenodd" d="M16.0706 30.1583C16.5451 28.2239 16.9831 26.2895 17.3481 24.3552C18.224 19.793 18.9175 14.7198 18.443 10.1211C18.3335 9.13567 17.64 4.93845 16.2531 4.35449C16.2166 4.35449 16.1071 4.35449 16.0706 4.35449C16.0342 4.35449 15.9247 4.35449 15.8882 4.35449C14.5013 4.93845 13.8078 9.13567 13.6983 10.1211C13.2238 14.7198 13.9173 19.793 14.7932 24.3552C15.1582 26.2895 15.5962 28.2239 16.0706 30.1583Z" fill="#50FFFF"/>
<path opacity="0.2" fill-rule="evenodd" clip-rule="evenodd" d="M16.0341 4.57349C14.7202 5.37643 14.0997 9.39117 14.0268 10.4861C13.6253 14.9753 14.3187 19.866 15.1582 24.3187C15.4502 25.7786 15.7421 27.2385 16.1071 28.6984C16.4356 27.2385 16.7641 25.7786 17.0561 24.3187C17.859 19.866 18.516 14.9753 18.1145 10.4861C18.005 9.39117 17.421 5.37643 16.1071 4.57349H16.0706C16.0706 4.57349 16.0341 4.57349 16.0341 4.57349Z" fill="#51FFFF"/>
<path opacity="0.2" fill-rule="evenodd" clip-rule="evenodd" d="M16.0706 4.90198C14.9027 6.0334 14.4282 9.64666 14.3187 10.7416C13.9538 15.1578 14.6107 19.9025 15.4502 24.2822C15.6327 25.2311 15.8151 26.2166 16.0341 27.1655C16.2531 26.2166 16.4356 25.2311 16.6181 24.2822C17.4575 19.9025 18.1145 15.1578 17.7495 10.7416C17.713 9.64666 17.202 6.0334 16.0706 4.90198Z" fill="#5AFFFF"/>
</g>
<defs>
<linearGradient id="paint0_linear" x1="16.0687" y1="1.54242" x2="16.0724" y2="69.0385" gradientUnits="userSpaceOnUse">
<stop stop-color="#0B7FFF"/>
<stop offset="1" stop-color="#4EA6B2"/>
</linearGradient>
<linearGradient id="paint1_linear" x1="16.0681" y1="1.7744" x2="16.0718" y2="68.644" gradientUnits="userSpaceOnUse">
<stop stop-color="#097FFF"/>
<stop offset="1" stop-color="#4E9AB2"/>
</linearGradient>
<linearGradient id="paint2_linear" x1="16.068" y1="2.00289" x2="16.0718" y2="68.0627" gradientUnits="userSpaceOnUse">
<stop stop-color="#0987FF"/>
<stop offset="1" stop-color="#4D93B2"/>
</linearGradient>
<linearGradient id="paint3_linear" x1="16.0681" y1="2.23017" x2="16.0718" y2="67.4288" gradientUnits="userSpaceOnUse">
<stop stop-color="#078FFF"/>
<stop offset="1" stop-color="#4D8BB2"/>
</linearGradient>
<linearGradient id="paint4_linear" x1="16.0681" y1="2.45643" x2="16.0719" y2="66.7394" gradientUnits="userSpaceOnUse">
<stop stop-color="#0793FF"/>
<stop offset="1" stop-color="#4C7FB7"/>
</linearGradient>
<linearGradient id="paint5_linear" x1="16.0681" y1="2.68181" x2="16.0719" y2="66.0061" gradientUnits="userSpaceOnUse">
<stop stop-color="#0599FF"/>
<stop offset="1" stop-color="#4D7FBD"/>
</linearGradient>
<linearGradient id="paint6_linear" x1="16.0681" y1="2.90642" x2="16.0718" y2="65.2454" gradientUnits="userSpaceOnUse">
<stop stop-color="#009DFF"/>
<stop offset="1" stop-color="#4D7FC8"/>
</linearGradient>
<linearGradient id="paint7_linear" x1="16.0683" y1="3.13125" x2="16.072" y2="64.4889" gradientUnits="userSpaceOnUse">
<stop stop-color="#00A0FF"/>
<stop offset="1" stop-color="#4D7FCD"/>
</linearGradient>
<linearGradient id="paint8_linear" x1="16.0681" y1="3.35609" x2="16.0718" y2="63.7267" gradientUnits="userSpaceOnUse">
<stop stop-color="#00A4FF"/>
<stop offset="1" stop-color="#4D7FD7"/>
</linearGradient>
<linearGradient id="paint9_linear" x1="16.068" y1="3.58056" x2="16.0716" y2="62.9508" gradientUnits="userSpaceOnUse">
<stop stop-color="#00A8FF"/>
<stop offset="1" stop-color="#4E7FDB"/>
</linearGradient>
<linearGradient id="paint10_linear" x1="16.0681" y1="3.80473" x2="16.0718" y2="62.1617" gradientUnits="userSpaceOnUse">
<stop stop-color="#00A9FF"/>
<stop offset="1" stop-color="#4E7FDE"/>
</linearGradient>
<linearGradient id="paint11_linear" x1="16.0684" y1="4.02877" x2="16.072" y2="61.3593" gradientUnits="userSpaceOnUse">
<stop stop-color="#00AEFF"/>
<stop offset="1" stop-color="#4E7FE6"/>
</linearGradient>
<linearGradient id="paint12_linear" x1="16.0684" y1="4.25243" x2="16.072" y2="60.5439" gradientUnits="userSpaceOnUse">
<stop stop-color="#00B2FF"/>
<stop offset="1" stop-color="#4E7FEE"/>
</linearGradient>
<linearGradient id="paint13_linear" x1="16.0683" y1="4.47584" x2="16.0718" y2="59.7154" gradientUnits="userSpaceOnUse">
<stop stop-color="#00B3FF"/>
<stop offset="1" stop-color="#4E7FF6"/>
</linearGradient>
<linearGradient id="paint14_linear" x1="16.0683" y1="4.699" x2="16.0719" y2="58.8748" gradientUnits="userSpaceOnUse">
<stop stop-color="#00ABFF"/>
<stop offset="1" stop-color="#4F7FFF"/>
</linearGradient>
<clipPath id="clip0">
<rect x="0.960693" y="0.157227" width="30.22" height="69.6374" fill="white"/>
</clipPath>
</defs>
</svg>
