<svg width="31" height="76" viewBox="0 0 31 76" fill="none" xmlns="http://www.w3.org/2000/svg">
<g clip-path="url(#clip0)">
<path opacity="0.15" fill-rule="evenodd" clip-rule="evenodd" d="M15.7024 0.157227C48.9966 0.157227 17.1089 75.3255 15.7024 75.3255C14.2959 75.3255 -17.5919 0.157227 15.7024 0.157227Z" fill="url(#paint0_linear)"/>
<path opacity="0.15" fill-rule="evenodd" clip-rule="evenodd" d="M15.7021 75.0843C16.6264 74.0998 20.1226 65.2387 20.5646 64.1135C23.5183 56.4179 26.05 48.3806 27.9388 40.3434C30.1892 30.6987 33.6452 11.5701 25.4673 3.79407C22.7749 1.24225 19.3188 0.358154 15.7021 0.358154C12.0853 0.358154 8.62933 1.24225 5.95695 3.79407C-2.24103 11.55 1.23508 30.6786 3.4855 40.3233C5.35416 48.3605 7.90598 56.3777 10.8597 64.0934C11.2816 65.2387 14.7778 74.0998 15.7021 75.0843Z" fill="url(#paint1_linear)"/>
<path opacity="0.15" fill-rule="evenodd" clip-rule="evenodd" d="M15.702 74.7227C16.1642 73.9993 17.0081 72.1307 17.209 71.6886C18.3744 69.1167 19.4393 66.4644 20.444 63.8322C23.3575 56.1968 25.8691 48.24 27.7378 40.2831C29.9681 30.7389 33.4241 11.6304 25.3266 3.93472C22.6743 1.44318 19.2585 0.559082 15.702 0.559082C12.1455 0.559082 8.72972 1.44318 6.07743 3.93472C-2.02008 11.6304 1.45602 30.7389 3.66626 40.2831C5.51483 48.24 8.04656 56.1968 10.9601 63.8322C11.9647 66.4845 13.0296 69.1167 14.195 71.6886C14.396 72.1307 15.2399 73.9993 15.702 74.7227Z" fill="url(#paint2_linear)"/>
<path opacity="0.15" fill-rule="evenodd" clip-rule="evenodd" d="M15.7022 74.3409C16.1845 73.497 16.8676 71.9699 17.0686 71.5078C18.234 68.9358 19.2989 66.2836 20.3036 63.6514C23.197 56.0562 25.6885 48.1596 27.5371 40.2429C29.7473 30.7791 33.2234 11.7107 25.1862 4.07537C22.5741 1.62401 19.2185 0.76001 15.7022 0.76001C12.1859 0.76001 8.8304 1.62401 6.2183 4.07537C-1.81893 11.6906 1.65717 30.7791 3.86741 40.2429C5.71597 48.1596 8.20751 56.0562 11.1009 63.6514C12.1056 66.3037 13.1705 68.9358 14.3359 71.5078C14.5368 71.9699 15.22 73.497 15.7022 74.3409Z" fill="url(#paint3_linear)"/>
<path opacity="0.15" fill-rule="evenodd" clip-rule="evenodd" d="M15.7022 73.939C16.1643 73.075 16.7269 71.8092 16.9278 71.3269C18.0932 68.755 19.1381 66.1027 20.1427 63.4705C23.016 55.9155 25.4875 48.0591 27.336 40.2027C29.5262 30.8394 33.0023 11.7911 25.0454 4.23611C22.4735 1.80485 19.1582 0.960938 15.7022 0.960938C12.2461 0.960938 8.93078 1.80485 6.35887 4.23611C-1.59799 11.7911 1.87811 30.8394 4.06826 40.2027C5.89673 48.0792 8.38827 55.9356 11.2616 63.4705C12.2662 66.1027 13.3312 68.755 14.4765 71.3269C14.6774 71.8092 15.24 73.075 15.7022 73.939Z" fill="url(#paint4_linear)"/>
<path opacity="0.15" fill-rule="evenodd" clip-rule="evenodd" d="M15.7022 73.5171C16.1242 72.6732 16.5863 71.6484 16.7872 71.1863C17.9526 68.6144 18.9975 65.9822 20.0021 63.3299C22.8553 55.8151 25.3268 47.9988 27.1553 40.1625C29.3052 30.8795 32.8014 11.8715 24.9048 4.39685C22.3731 1.98568 19.0979 1.16187 15.7022 1.16187C12.3065 1.16187 9.03129 1.98568 6.49956 4.37676C-1.39702 11.8514 2.09918 30.8795 4.24914 40.1424C6.07761 47.9788 8.54906 55.795 11.4023 63.3098C12.4069 65.942 13.4518 68.5943 14.6172 71.1662C14.8181 71.6283 15.2802 72.6732 15.7022 73.5171Z" fill="url(#paint5_linear)"/>
<path opacity="0.15" fill-rule="evenodd" clip-rule="evenodd" d="M15.702 73.0147C16.0235 72.3517 16.345 71.6886 16.6263 71.0255C17.7716 68.4536 18.8366 65.8214 19.8412 63.1691C22.6743 55.6744 25.1257 47.8984 26.9542 40.1023C29.084 30.9197 32.5802 11.9318 24.764 4.51741C22.2926 2.16652 19.0576 1.36279 15.702 1.36279C12.3465 1.36279 9.11152 2.16652 6.64007 4.51741C-1.17614 11.9318 2.32006 30.9197 4.44992 40.1023C6.2583 47.8984 8.72975 55.6744 11.5629 63.1691C12.5675 65.8013 13.6124 68.4335 14.7778 71.0255C15.0792 71.6886 15.3806 72.3517 15.702 73.0147Z" fill="url(#paint6_linear)"/>
<path opacity="0.15" fill-rule="evenodd" clip-rule="evenodd" d="M15.702 72.5526C15.9632 71.99 16.2244 71.4274 16.4856 70.8648C17.6309 68.2929 18.6959 65.6607 19.6804 63.0285C22.4935 55.5739 24.9448 47.818 26.7532 40.042C28.863 30.9398 32.3592 11.992 24.6233 4.65806C22.1921 2.34735 18.9973 1.56372 15.702 1.56372C12.4067 1.56372 9.23202 2.34735 6.78067 4.65806C-0.955171 12.0121 2.54103 30.9599 4.6508 40.0621C6.45918 47.8381 8.91053 55.5739 11.7236 63.0486C12.7282 65.6808 13.7731 68.3129 14.9184 70.8849C15.1796 71.4475 15.4408 72.0101 15.702 72.5526Z" fill="url(#paint7_linear)"/>
<path opacity="0.15" fill-rule="evenodd" clip-rule="evenodd" d="M15.7021 72.0904C15.9232 71.6484 16.1241 71.1863 16.325 70.7442C17.4703 68.1723 18.5152 65.5401 19.5198 62.9079C22.3329 55.4735 24.7641 47.7577 26.5725 40.0219C28.6622 31.0202 32.1785 12.0925 24.5029 4.8188C22.0917 2.52819 18.9371 1.76465 15.7021 1.76465C12.4672 1.76465 9.31254 2.52819 6.92147 4.8188C-0.754094 12.0724 2.7421 31.0001 4.85188 40.0018C6.66026 47.7376 9.09152 55.4534 11.9046 62.8878C12.8891 65.52 13.954 68.1522 15.0994 70.7241C15.2802 71.1863 15.5012 71.6484 15.7021 72.0904Z" fill="url(#paint8_linear)"/>
<path opacity="0.15" fill-rule="evenodd" clip-rule="evenodd" d="M15.7022 71.6082C15.863 71.2666 16.0036 70.9451 16.1644 70.6036C17.3097 68.0316 18.3545 65.3995 19.3592 62.7874C22.1521 55.373 24.5834 47.6773 26.3717 39.9817C28.4413 31.0805 31.9576 12.1729 24.3624 4.97954C21.9914 2.70902 18.897 1.96558 15.7022 1.96558C12.5074 1.96558 9.41311 2.70902 7.04213 4.95945C-0.55306 12.1528 2.96323 31.0604 5.03282 39.9616C6.8211 47.6773 9.25237 55.373 12.0453 62.7673C13.0299 65.3995 14.0948 68.0316 15.2401 70.5835C15.4009 70.9451 15.5415 71.2867 15.7022 71.6082Z" fill="url(#paint9_linear)"/>
<path opacity="0.15" fill-rule="evenodd" clip-rule="evenodd" d="M15.702 71.126C15.8025 70.9049 15.903 70.6839 16.0034 70.4629C17.1487 67.891 18.1936 65.2789 19.1781 62.6467C21.9711 55.2524 24.3822 47.597 26.1705 39.9013C28.22 31.1005 31.7363 12.2331 24.2215 5.10009C21.8907 2.88985 18.8365 2.1665 15.702 2.1665C12.5675 2.1665 9.51335 2.88985 7.18255 5.10009C-0.332259 12.2331 3.18403 31.1005 5.23353 39.9214C7.02181 47.6171 9.43298 55.2725 12.2259 62.6668C13.2105 65.299 14.2553 67.9111 15.4006 70.483C15.5011 70.704 15.6016 70.9049 15.702 71.126Z" fill="url(#paint10_linear)"/>
<path opacity="0.15" fill-rule="evenodd" clip-rule="evenodd" d="M15.7022 70.6439C15.7424 70.5434 15.7826 70.4429 15.8428 70.3425C16.9881 67.7705 18.033 65.1584 19.0175 62.5262C21.7904 55.1722 24.2016 47.5167 25.9898 39.8613C28.0192 31.1409 31.5355 12.2935 24.1011 5.24086C21.7904 3.07081 18.7965 2.36755 15.7022 2.36755C12.6279 2.36755 9.61398 3.07081 7.32337 5.24086C-0.111067 12.2935 3.38513 31.1409 5.43462 39.8613C7.22291 47.5368 9.63408 55.1722 12.4069 62.5463C13.3915 65.1785 14.4363 67.7906 15.5816 70.3626C15.6218 70.4429 15.662 70.5434 15.7022 70.6439Z" fill="url(#paint11_linear)"/>
<path opacity="0.15" fill-rule="evenodd" clip-rule="evenodd" d="M15.7022 70.1616C16.8274 67.6299 17.8521 65.0379 18.8367 62.4459C21.6095 55.1119 24.0006 47.4966 25.7889 39.8412C27.7982 31.2011 31.3145 12.394 23.9403 5.40161C21.6899 3.25165 18.7362 2.56848 15.7022 2.56848C12.6681 2.56848 9.71444 3.25165 7.46401 5.40161C0.0898472 12.394 3.60614 31.2011 5.61545 39.8412C7.38364 47.4765 9.79481 55.0918 12.5677 62.4459C13.5522 65.0178 14.577 67.6098 15.7022 70.1616Z" fill="url(#paint12_linear)"/>
<path opacity="0.15" fill-rule="evenodd" clip-rule="evenodd" d="M15.7022 69.6593C16.7672 67.2481 17.7316 64.7767 18.6559 62.3253C21.4087 55.0114 23.7997 47.4163 25.5679 39.801C27.5572 31.2614 31.0734 12.4744 23.7797 5.56235C21.5895 3.43248 18.676 2.76941 15.7022 2.76941C12.7285 2.76941 9.81496 3.43248 7.60472 5.54226C0.310935 12.4543 3.82722 31.2413 5.81644 39.7809C7.58463 47.3962 9.97571 54.9913 12.7285 62.3052C13.6728 64.7767 14.6373 67.2481 15.7022 69.6593Z" fill="url(#paint13_linear)"/>
<path opacity="0.15" fill-rule="evenodd" clip-rule="evenodd" d="M15.7022 69.1568C16.6867 66.8662 17.611 64.5354 18.4951 62.2046C21.2479 54.9108 23.6188 47.3357 25.387 39.7406C27.3562 31.3015 30.8724 12.5345 23.659 5.68278C21.489 3.61319 18.6358 2.97021 15.7022 2.97021C12.7686 2.97021 9.91536 3.63329 7.7453 5.68278C0.531887 12.5144 4.04818 31.3015 6.0173 39.7406C7.78549 47.3357 10.1766 54.9108 12.9092 62.2046C13.7933 64.5354 14.7176 66.8662 15.7022 69.1568Z" fill="url(#paint14_linear)"/>
<path opacity="0.15" fill-rule="evenodd" clip-rule="evenodd" d="M15.7022 68.6345C16.6265 66.4846 17.4905 64.2743 18.3143 62.0842C21.047 54.8105 23.418 47.2555 25.1861 39.6804C27.1352 31.3217 30.6515 12.5748 23.5184 5.82355C21.3886 3.81424 18.5755 3.17126 15.7022 3.17126C12.8289 3.17126 10.0159 3.81424 7.886 5.82355C0.752954 12.5949 4.26924 31.3418 6.21827 39.6804C7.98647 47.2555 10.3575 54.8105 13.0901 62.0842C13.9139 64.2944 14.7779 66.4846 15.7022 68.6345Z" fill="url(#paint15_linear)"/>
<path opacity="0.15" fill-rule="evenodd" clip-rule="evenodd" d="M15.702 68.1322C16.566 66.1028 17.3698 64.0533 18.1333 61.9837C20.866 54.7301 23.2369 47.1952 24.985 39.6402C26.914 31.382 30.4303 12.6552 23.3776 5.9642C21.2879 3.99508 18.5151 3.37219 15.702 3.37219C12.889 3.37219 10.1162 3.99508 8.02647 5.98429C0.953706 12.6753 4.49009 31.382 6.41903 39.6402C8.16712 47.1952 10.5381 54.7301 13.2708 61.9837C14.0343 64.0533 14.838 66.1028 15.702 68.1322Z" fill="url(#paint16_linear)"/>
<path opacity="0.15" fill-rule="evenodd" clip-rule="evenodd" d="M15.7021 67.6098C16.5058 65.721 17.2493 63.7921 17.9726 61.8833C20.6852 54.6497 23.0562 47.1349 24.8043 39.6C26.7131 31.4422 30.2294 12.7356 23.2571 6.12494C21.1875 4.17591 18.4749 3.57312 15.7021 3.57312C12.9292 3.57312 10.2167 4.17591 8.16718 6.12494C1.17479 12.7557 4.71117 31.4422 6.62002 39.6C8.36811 47.1349 10.7391 54.6296 13.4517 61.8833C14.1549 63.7921 14.8984 65.721 15.7021 67.6098Z" fill="url(#paint17_linear)"/>
<path opacity="0.15" fill-rule="evenodd" clip-rule="evenodd" d="M15.7021 67.0872C16.4255 65.3191 17.1288 63.5509 17.7918 61.7626C20.5044 54.5492 22.8553 47.0544 24.6034 39.5396C26.4921 31.4622 30.0084 12.7957 23.1165 6.24538C21.0871 4.35663 18.4147 3.77393 15.7021 3.77393C12.9896 3.77393 10.3172 4.35663 8.2878 6.26547C1.39588 12.8158 4.91217 31.4823 6.80092 39.5597C8.54901 47.0745 10.8999 54.5492 13.6125 61.7827C14.2755 63.5509 14.9788 65.3391 15.7021 67.0872Z" fill="url(#paint18_linear)"/>
<path opacity="0.15" fill-rule="evenodd" clip-rule="evenodd" d="M15.702 66.5648C16.365 64.9373 17.008 63.3097 17.6108 61.6621C20.3033 54.4688 22.6542 46.9942 24.4023 39.4994C26.2508 31.5225 29.7872 12.8761 22.9556 6.40612C20.9664 4.53746 18.3342 3.97485 15.6819 3.97485C13.0497 3.97485 10.4175 4.53746 8.42828 6.40612C1.59663 12.8761 5.13301 31.5225 6.98158 39.4994C8.72968 46.9942 11.0806 54.4688 13.773 61.6621C14.3959 63.3097 15.0389 64.9373 15.702 66.5648Z" fill="url(#paint19_linear)"/>
</g>
<defs>
<linearGradient id="paint0_linear" x1="15.7027" y1="0.157227" x2="15.7047" y2="69.4374" gradientUnits="userSpaceOnUse">
<stop stop-color="#FE940A"/>
<stop offset="1" stop-color="#F30B00"/>
</linearGradient>
<linearGradient id="paint1_linear" x1="15.7024" y1="0.358034" x2="15.7044" y2="69.2267" gradientUnits="userSpaceOnUse">
<stop stop-color="#FE980E"/>
<stop offset="1" stop-color="#F30B00"/>
</linearGradient>
<linearGradient id="paint2_linear" x1="15.7023" y1="0.558821" x2="15.7043" y2="68.9191" gradientUnits="userSpaceOnUse">
<stop stop-color="#FE9C16"/>
<stop offset="1" stop-color="#F40E00"/>
</linearGradient>
<linearGradient id="paint3_linear" x1="15.7025" y1="0.759628" x2="15.7045" y2="68.5825" gradientUnits="userSpaceOnUse">
<stop stop-color="#FEA01E"/>
<stop offset="1" stop-color="#F41404"/>
</linearGradient>
<linearGradient id="paint4_linear" x1="15.7024" y1="0.960455" x2="15.7044" y2="68.2232" gradientUnits="userSpaceOnUse">
<stop stop-color="#FFA727"/>
<stop offset="1" stop-color="#F5230F"/>
</linearGradient>
<linearGradient id="paint5_linear" x1="15.7025" y1="1.16122" x2="15.7045" y2="67.8452" gradientUnits="userSpaceOnUse">
<stop stop-color="#FFAF31"/>
<stop offset="1" stop-color="#F62E18"/>
</linearGradient>
<linearGradient id="paint6_linear" x1="15.7023" y1="1.36211" x2="15.7044" y2="67.4028" gradientUnits="userSpaceOnUse">
<stop stop-color="#FFB339"/>
<stop offset="1" stop-color="#F6381E"/>
</linearGradient>
<linearGradient id="paint7_linear" x1="15.7022" y1="1.56294" x2="15.7043" y2="66.9973" gradientUnits="userSpaceOnUse">
<stop stop-color="#FFB541"/>
<stop offset="1" stop-color="#F7432B"/>
</linearGradient>
<linearGradient id="paint8_linear" x1="15.7024" y1="1.7637" x2="15.7045" y2="66.5833" gradientUnits="userSpaceOnUse">
<stop stop-color="#FFBD4B"/>
<stop offset="1" stop-color="#F85030"/>
</linearGradient>
<linearGradient id="paint9_linear" x1="15.7025" y1="1.96453" x2="15.7045" y2="66.1618" gradientUnits="userSpaceOnUse">
<stop stop-color="#FFC151"/>
<stop offset="1" stop-color="#F85C3C"/>
</linearGradient>
<linearGradient id="paint10_linear" x1="15.7023" y1="2.16532" x2="15.7043" y2="65.7335" gradientUnits="userSpaceOnUse">
<stop stop-color="#FFC559"/>
<stop offset="1" stop-color="#F96B45"/>
</linearGradient>
<linearGradient id="paint11_linear" x1="15.7024" y1="2.36625" x2="15.7044" y2="65.2994" gradientUnits="userSpaceOnUse">
<stop stop-color="#FFC963"/>
<stop offset="1" stop-color="#FA7A52"/>
</linearGradient>
<linearGradient id="paint12_linear" x1="15.7025" y1="2.56703" x2="15.7044" y2="64.8605" gradientUnits="userSpaceOnUse">
<stop stop-color="#FFCD6D"/>
<stop offset="1" stop-color="#FB895B"/>
</linearGradient>
<linearGradient id="paint13_linear" x1="15.7026" y1="2.76784" x2="15.7045" y2="64.417" gradientUnits="userSpaceOnUse">
<stop stop-color="#FFD175"/>
<stop offset="1" stop-color="#FC9466"/>
</linearGradient>
<linearGradient id="paint14_linear" x1="15.7026" y1="2.96851" x2="15.7045" y2="63.9689" gradientUnits="userSpaceOnUse">
<stop stop-color="#FFD57B"/>
<stop offset="1" stop-color="#FDA771"/>
</linearGradient>
<linearGradient id="paint15_linear" x1="15.7025" y1="3.16952" x2="15.7044" y2="63.5168" gradientUnits="userSpaceOnUse">
<stop stop-color="#FFDD85"/>
<stop offset="1" stop-color="#FEB67A"/>
</linearGradient>
<linearGradient id="paint16_linear" x1="15.7023" y1="3.37032" x2="15.7043" y2="63.0602" gradientUnits="userSpaceOnUse">
<stop stop-color="#FFE38F"/>
<stop offset="1" stop-color="#FFC385"/>
</linearGradient>
<linearGradient id="paint17_linear" x1="15.7024" y1="3.57111" x2="15.7044" y2="62.5994" gradientUnits="userSpaceOnUse">
<stop stop-color="#FFE799"/>
<stop offset="1" stop-color="#FFD38B"/>
</linearGradient>
<linearGradient id="paint18_linear" x1="15.7026" y1="3.7718" x2="15.7045" y2="62.1342" gradientUnits="userSpaceOnUse">
<stop stop-color="#FFEBA3"/>
<stop offset="1" stop-color="#FFE39B"/>
</linearGradient>
<linearGradient id="paint19_linear" x1="15.7023" y1="3.97258" x2="15.7042" y2="61.6648" gradientUnits="userSpaceOnUse">
<stop stop-color="#FFF1A9"/>
<stop offset="1" stop-color="#FFF7A5"/>
</linearGradient>
<clipPath id="clip0">
<rect x="0.592285" y="0.157227" width="30.22" height="75.1682" fill="white"/>
</clipPath>
</defs>
</svg>
