<svg width="32" height="55" viewBox="0 0 32 55" fill="none" xmlns="http://www.w3.org/2000/svg">
<g clip-path="url(#clip0)">
<path opacity="0.25" fill-rule="evenodd" clip-rule="evenodd" d="M16.0615 0.157227C32.5553 0.157227 33.0504 21.9165 29.18 35.4626C25.3097 48.9863 20.5618 54.2967 16.0615 54.2967C11.5836 54.2967 6.81319 48.9863 2.94287 35.4626C-0.904945 21.9165 -0.409903 0.157227 16.0615 0.157227Z" fill="url(#paint0_linear)"/>
<path opacity="0.25" fill-rule="evenodd" clip-rule="evenodd" d="M16.0607 0.832275C2.35706 0.832275 -1.64827 17.7537 3.34714 35.1926C5.57483 43.0233 9.78267 53.6216 16.0607 53.6216C22.3612 53.6216 26.5466 43.0008 28.7742 35.1926C33.7697 17.7537 29.7643 0.832275 16.0607 0.832275Z" fill="url(#paint1_linear)"/>
<path opacity="0.25" fill-rule="evenodd" clip-rule="evenodd" d="M16.0608 1.48486C2.69467 1.48486 -1.13064 17.9337 3.72976 34.9226C5.88994 42.4607 9.98527 52.9691 16.0608 52.9691C22.1363 52.9691 26.2316 42.4607 28.3918 34.9226C33.2522 17.9337 29.4494 1.48486 16.0608 1.48486Z" fill="url(#paint2_linear)"/>
<path opacity="0.25" fill-rule="evenodd" clip-rule="evenodd" d="M16.0607 2.15991C3.00961 2.15991 -0.613193 18.0912 4.1347 34.6526C6.20487 41.8982 10.1877 52.294 16.0832 52.294C21.9562 52.294 25.939 41.8982 28.0317 34.6526C32.7571 18.0912 29.1343 2.15991 16.0607 2.15991Z" fill="url(#paint3_linear)"/>
<path opacity="0.25" fill-rule="evenodd" clip-rule="evenodd" d="M16.0606 2.8125C3.3245 2.8125 -0.095786 18.2488 4.5171 34.3601C6.51976 41.3357 10.3901 51.619 16.0606 51.619C21.731 51.619 25.6238 41.3357 27.604 34.3601C32.2394 18.2488 28.8191 2.8125 16.0606 2.8125Z" fill="url(#paint4_linear)"/>
<path opacity="0.25" fill-rule="evenodd" clip-rule="evenodd" d="M16.0607 3.48755C3.63969 3.48755 0.39942 18.4288 4.89979 34.1126C6.81245 40.7956 10.6153 50.9665 16.0607 50.9665C21.5287 50.9665 25.309 40.7731 27.2216 34.1126C31.722 18.4063 28.4817 3.48755 16.0607 3.48755Z" fill="url(#paint5_linear)"/>
<path opacity="0.25" fill-rule="evenodd" clip-rule="evenodd" d="M16.0606 4.14001C3.95462 4.14001 0.916867 18.5637 5.28223 33.82C7.10488 40.2105 10.8177 50.2913 16.0606 50.2913C21.3036 50.2913 25.0164 40.2105 26.839 33.82C31.2044 18.5862 28.1666 4.14001 16.0606 4.14001Z" fill="url(#paint6_linear)"/>
<path opacity="0.25" fill-rule="evenodd" clip-rule="evenodd" d="M16.0607 4.81506C4.29221 4.81506 1.43447 18.7437 5.68732 33.5499C7.41996 39.6254 11.0428 49.6163 16.0607 49.6163C21.0786 49.6163 24.7014 39.6254 26.434 33.5499C30.6869 18.7437 27.8516 4.81506 16.0607 4.81506Z" fill="url(#paint7_linear)"/>
<path opacity="0.25" fill-rule="evenodd" clip-rule="evenodd" d="M16.0608 5.46765C4.60731 5.46765 1.95209 18.9013 6.06993 33.2799C7.73507 39.0629 11.2454 48.9637 16.0608 48.9637C20.8762 48.9637 24.4089 39.0629 26.0516 33.2799C30.1694 18.9013 27.5142 5.46765 16.0608 5.46765Z" fill="url(#paint8_linear)"/>
<path opacity="0.25" fill-rule="evenodd" clip-rule="evenodd" d="M16.0606 6.1427C4.94472 6.1427 2.46952 19.0588 6.47485 33.0099C8.04998 38.4779 11.4928 48.2887 16.0831 48.2887C20.6735 48.2887 24.1163 38.4779 25.6914 33.0099C29.6743 19.0588 27.1991 6.1427 16.0606 6.1427Z" fill="url(#paint9_linear)"/>
<path opacity="0.25" fill-rule="evenodd" clip-rule="evenodd" d="M16.0605 6.81775C5.25966 6.81775 2.98697 19.2388 6.83479 32.7624C8.31991 37.9378 11.6952 47.6586 16.0605 47.6586C20.4259 47.6586 23.8012 37.9378 25.2863 32.7624C29.1566 19.2163 26.8614 6.81775 16.0605 6.81775Z" fill="url(#paint10_linear)"/>
<path opacity="0.25" fill-rule="evenodd" clip-rule="evenodd" d="M16.0607 7.47034C5.59737 7.47034 3.48219 19.3738 7.24001 32.4699C8.63512 37.3303 11.9429 46.9611 16.0607 46.9611C20.2011 46.9611 23.5089 37.3078 24.8815 32.4699C28.6393 19.3738 26.5466 7.47034 16.0607 7.47034Z" fill="url(#paint11_linear)"/>
<path opacity="0.25" fill-rule="evenodd" clip-rule="evenodd" d="M16.0606 8.14539C5.91226 8.14539 3.9996 19.5538 7.6224 32.1999C8.92751 36.7452 12.1678 46.3085 16.0606 46.3085C19.9534 46.3085 23.1937 36.7452 24.4988 32.1999C28.1216 19.5538 26.2089 8.14539 16.0606 8.14539Z" fill="url(#paint12_linear)"/>
<path opacity="0.25" fill-rule="evenodd" clip-rule="evenodd" d="M16.0608 8.79797C6.24994 8.79797 4.5173 19.6889 8.00509 31.9299C9.22019 36.1377 12.393 45.6335 16.0608 45.6335C19.7286 45.6335 22.9013 36.1377 24.1164 31.9299C27.6267 19.7114 25.8941 8.79797 16.0608 8.79797Z" fill="url(#paint13_linear)"/>
<path opacity="0.25" fill-rule="evenodd" clip-rule="evenodd" d="M16.0608 9.47302C6.56503 9.47302 5.03491 19.8689 8.41018 31.6599C9.51277 35.5527 12.663 44.9809 16.0608 44.9809C19.4811 44.9809 22.6089 35.5527 23.7114 31.6599C27.1092 19.8464 25.5566 9.47302 16.0608 9.47302Z" fill="url(#paint14_linear)"/>
<path opacity="0.25" fill-rule="evenodd" clip-rule="evenodd" d="M16.0605 10.1256C6.90223 10.1256 5.52962 20.0039 8.79239 31.3899C9.80497 34.9452 12.8877 44.3059 16.0605 44.3059C19.2107 44.3059 22.316 34.9452 23.3286 31.3899C26.5914 20.0039 25.2187 10.1256 16.0605 10.1256Z" fill="url(#paint15_linear)"/>
<path opacity="0.25" fill-rule="evenodd" clip-rule="evenodd" d="M16.0608 10.8007C13.383 10.8007 9.78274 11.4307 8.47763 15.7061C7.12752 20.1164 7.96008 26.8445 9.19769 31.1198C10.1203 34.3601 13.1805 43.6534 16.0833 43.6534C18.986 43.6534 22.0463 34.3601 22.9688 31.1198C23.6214 28.8696 24.0714 26.3719 24.2514 23.9192C25.0165 14.2209 22.1588 10.8007 16.0608 10.8007Z" fill="url(#paint16_linear)"/>
<path opacity="0.25" fill-rule="evenodd" clip-rule="evenodd" d="M16.0607 11.4757C13.563 11.4757 10.0752 12.0158 8.86013 15.9986C7.55503 20.2289 8.4101 26.777 9.58019 30.8498C10.4128 33.7525 13.428 42.9783 16.0607 42.9783C18.6934 42.9783 21.7312 33.73 22.5413 30.8498C23.1713 28.6446 23.5988 26.2144 23.8014 23.8292C24.5664 14.5585 21.8887 11.4757 16.0607 11.4757Z" fill="url(#paint17_linear)"/>
<path opacity="0.25" fill-rule="evenodd" clip-rule="evenodd" d="M16.0607 12.1282C13.7655 12.1282 10.3677 12.5557 9.24259 16.291C8.00499 20.3188 8.86006 26.7094 9.96265 30.5797C10.6827 33.1449 13.698 42.3257 16.0607 42.3257C18.4234 42.3257 21.4386 33.1449 22.1587 30.5797C22.7662 28.442 23.1937 26.0793 23.3738 23.7391C24.1163 14.8734 21.6411 12.1282 16.0607 12.1282Z" fill="url(#paint18_linear)"/>
<path opacity="0.25" fill-rule="evenodd" clip-rule="evenodd" d="M16.0608 12.8032C13.9906 12.8032 10.6603 13.1633 9.62524 16.5835C8.45514 20.4314 9.31021 26.6419 10.3453 30.3322C10.9753 32.5599 13.9906 41.6731 16.0608 41.6731C18.1309 41.6731 21.1237 32.5599 21.7762 30.3322C22.3613 28.262 22.7888 25.9443 22.9688 23.6941C23.6439 15.2109 21.3712 12.8032 16.0608 12.8032Z" fill="url(#paint19_linear)"/>
</g>
<defs>
<linearGradient id="paint0_linear" x1="16.0698" y1="16.446" x2="16.0698" y2="54.2907" gradientUnits="userSpaceOnUse">
<stop stop-color="#0EC6D0"/>
<stop offset="1" stop-color="#7FD31B"/>
</linearGradient>
<linearGradient id="paint1_linear" x1="16.0691" y1="16.7113" x2="16.0691" y2="53.6254" gradientUnits="userSpaceOnUse">
<stop stop-color="#0AC4D2"/>
<stop offset="1" stop-color="#82D426"/>
</linearGradient>
<linearGradient id="paint2_linear" x1="16.0691" y1="16.9762" x2="16.0691" y2="52.9602" gradientUnits="userSpaceOnUse">
<stop stop-color="#08C2D4"/>
<stop offset="1" stop-color="#85D531"/>
</linearGradient>
<linearGradient id="paint3_linear" x1="16.0691" y1="17.241" x2="16.0691" y2="52.2953" gradientUnits="userSpaceOnUse">
<stop stop-color="#0EC4D4"/>
<stop offset="1" stop-color="#88D63A"/>
</linearGradient>
<linearGradient id="paint4_linear" x1="16.069" y1="17.5059" x2="16.069" y2="51.6301" gradientUnits="userSpaceOnUse">
<stop stop-color="#0DC3D5"/>
<stop offset="1" stop-color="#8BD743"/>
</linearGradient>
<linearGradient id="paint5_linear" x1="16.0691" y1="17.7707" x2="16.0691" y2="50.9651" gradientUnits="userSpaceOnUse">
<stop stop-color="#0FC3D7"/>
<stop offset="1" stop-color="#8ED84E"/>
</linearGradient>
<linearGradient id="paint6_linear" x1="16.069" y1="18.0355" x2="16.069" y2="50.2998" gradientUnits="userSpaceOnUse">
<stop stop-color="#13C3D9"/>
<stop offset="1" stop-color="#91D957"/>
</linearGradient>
<linearGradient id="paint7_linear" x1="16.069" y1="18.3003" x2="16.069" y2="49.6348" gradientUnits="userSpaceOnUse">
<stop stop-color="#17C1DB"/>
<stop offset="1" stop-color="#93DB5F"/>
</linearGradient>
<linearGradient id="paint8_linear" x1="16.0692" y1="18.5652" x2="16.0692" y2="48.9696" gradientUnits="userSpaceOnUse">
<stop stop-color="#1BC1DD"/>
<stop offset="1" stop-color="#98DC66"/>
</linearGradient>
<linearGradient id="paint9_linear" x1="16.069" y1="18.83" x2="16.069" y2="48.3047" gradientUnits="userSpaceOnUse">
<stop stop-color="#1DC1DF"/>
<stop offset="1" stop-color="#9EDE6E"/>
</linearGradient>
<linearGradient id="paint10_linear" x1="16.0688" y1="19.0949" x2="16.0688" y2="47.6395" gradientUnits="userSpaceOnUse">
<stop stop-color="#22C2E0"/>
<stop offset="1" stop-color="#A6E07C"/>
</linearGradient>
<linearGradient id="paint11_linear" x1="16.0691" y1="19.3598" x2="16.0691" y2="46.9743" gradientUnits="userSpaceOnUse">
<stop stop-color="#22C0E4"/>
<stop offset="1" stop-color="#A6E288"/>
</linearGradient>
<linearGradient id="paint12_linear" x1="16.0688" y1="19.6246" x2="16.0688" y2="46.3093" gradientUnits="userSpaceOnUse">
<stop stop-color="#2CC2E6"/>
<stop offset="1" stop-color="#ABE38F"/>
</linearGradient>
<linearGradient id="paint13_linear" x1="16.0691" y1="19.8895" x2="16.0691" y2="45.6441" gradientUnits="userSpaceOnUse">
<stop stop-color="#2EC2E8"/>
<stop offset="1" stop-color="#AEE49A"/>
</linearGradient>
<linearGradient id="paint14_linear" x1="16.0692" y1="20.1543" x2="16.0692" y2="44.9791" gradientUnits="userSpaceOnUse">
<stop stop-color="#32C0EE"/>
<stop offset="1" stop-color="#B4E6A4"/>
</linearGradient>
<linearGradient id="paint15_linear" x1="16.0687" y1="20.4192" x2="16.0687" y2="44.3139" gradientUnits="userSpaceOnUse">
<stop stop-color="#38C0F2"/>
<stop offset="1" stop-color="#B3E7AD"/>
</linearGradient>
<linearGradient id="paint16_linear" x1="16.0742" y1="20.684" x2="16.0742" y2="43.649" gradientUnits="userSpaceOnUse">
<stop stop-color="#41BFF9"/>
<stop offset="1" stop-color="#B9E9BB"/>
</linearGradient>
<linearGradient id="paint17_linear" x1="16.0742" y1="20.9489" x2="16.0742" y2="42.9838" gradientUnits="userSpaceOnUse">
<stop stop-color="#4BC3F9"/>
<stop offset="1" stop-color="#C1EBC5"/>
</linearGradient>
<linearGradient id="paint18_linear" x1="16.0741" y1="21.2136" x2="16.0741" y2="42.3187" gradientUnits="userSpaceOnUse">
<stop stop-color="#69BFF5"/>
<stop offset="1" stop-color="#C3EDCD"/>
</linearGradient>
<linearGradient id="paint19_linear" x1="16.0741" y1="21.4785" x2="16.0741" y2="41.6535" gradientUnits="userSpaceOnUse">
<stop stop-color="#7ABAF0"/>
<stop offset="1" stop-color="#C9EFD7"/>
</linearGradient>
<clipPath id="clip0">
<rect x="0.961914" y="0.157227" width="30.22" height="54.1395" fill="white"/>
</clipPath>
</defs>
</svg>
