<svg width="37" height="134" viewBox="0 0 37 134" fill="none" xmlns="http://www.w3.org/2000/svg">
<g clip-path="url(#clip0)">
<path opacity="0.01" d="M23.6182 -133H12.349V126.801H23.6182V-133Z" fill="#FF0000"/>
<path opacity="0.02" fill-rule="evenodd" clip-rule="evenodd" d="M12.5704 -133C16.1976 -133 19.7971 -133 23.4243 -133C23.4243 -46.3905 23.4243 40.219 23.4243 126.801C19.7971 126.801 16.1976 126.801 12.5704 126.801C12.5704 40.219 12.5704 -46.3905 12.5704 -133Z" fill="#FF0000"/>
<path opacity="0.03" fill-rule="evenodd" clip-rule="evenodd" d="M12.7643 -133C16.253 -133 19.7141 -133 23.2028 -133C23.2028 -46.3905 23.2028 40.219 23.2028 126.801C19.7141 126.801 16.253 126.801 12.7643 126.801C12.7643 40.219 12.7643 -46.3905 12.7643 -133Z" fill="#FF0000"/>
<path opacity="0.03" fill-rule="evenodd" clip-rule="evenodd" d="M12.9857 -133C16.336 -133 19.6586 -133 23.0089 -133C23.0089 -46.3905 23.0089 40.219 23.0089 126.801C19.6586 126.801 16.336 126.801 12.9857 126.801C12.9857 40.219 12.9857 -46.3905 12.9857 -133Z" fill="#FF0500"/>
<path opacity="0.03" fill-rule="evenodd" clip-rule="evenodd" d="M13.1797 -133C16.3916 -133 19.6034 -133 22.7876 -133C22.7876 -46.3905 22.7876 40.219 22.7876 126.801C19.5757 126.801 16.3639 126.801 13.1797 126.801C13.1797 40.219 13.1797 -46.3905 13.1797 -133Z" fill="#FF0900"/>
<path opacity="0.03" fill-rule="evenodd" clip-rule="evenodd" d="M13.4012 -133C16.4747 -133 19.5481 -133 22.5938 -133C22.5938 -46.3905 22.5938 40.219 22.5938 126.801C19.5204 126.801 16.447 126.801 13.4012 126.801C13.4012 40.219 13.4012 -46.3905 13.4012 -133Z" fill="#FF1100"/>
<path opacity="0.03" fill-rule="evenodd" clip-rule="evenodd" d="M13.595 -133C16.5299 -133 19.4649 -133 22.3999 -133C22.3999 -46.3905 22.3999 40.219 22.3999 126.801C19.4649 126.801 16.5299 126.801 13.595 126.801C13.595 40.219 13.595 -46.3905 13.595 -133Z" fill="#FF1100"/>
<path opacity="0.03" fill-rule="evenodd" clip-rule="evenodd" d="M13.8165 -133C16.5854 -133 19.3819 -133 22.1784 -133C22.1784 -46.3905 22.1784 40.219 22.1784 126.801C19.3819 126.801 16.5854 126.801 13.7888 126.801C13.8165 40.219 13.8165 -46.3905 13.8165 -133Z" fill="#FF1900"/>
<path opacity="0.03" fill-rule="evenodd" clip-rule="evenodd" d="M14.0104 -133C16.6685 -133 19.3266 -133 21.9847 -133C21.9847 -46.3905 21.9847 40.219 21.9847 126.801C19.3266 126.801 16.6685 126.801 14.0104 126.801C14.0104 40.219 14.0104 -46.3905 14.0104 -133Z" fill="#FF1F00"/>
<path opacity="0.03" fill-rule="evenodd" clip-rule="evenodd" d="M14.2042 -133C16.7239 -133 19.2435 -133 21.7632 -133C21.7632 -46.3905 21.7632 40.219 21.7632 126.801C19.2435 126.801 16.7239 126.801 14.2042 126.801C14.2042 40.219 14.2042 -46.3905 14.2042 -133Z" fill="#FF2200"/>
<path opacity="0.03" fill-rule="evenodd" clip-rule="evenodd" d="M14.4257 -133C16.8069 -133 19.1881 -133 21.5693 -133C21.5693 -46.3905 21.5693 40.219 21.5693 126.801C19.1881 126.801 16.8069 126.801 14.4257 126.801C14.4257 40.219 14.4257 -46.3905 14.4257 -133Z" fill="#FF2600"/>
<path opacity="0.03" fill-rule="evenodd" clip-rule="evenodd" d="M14.6195 -133C16.8623 -133 19.105 -133 21.3755 -133C21.3755 -46.3905 21.3755 40.219 21.3755 126.801C19.1327 126.801 16.89 126.801 14.6472 126.801C14.6195 40.219 14.6195 -46.3905 14.6195 -133Z" fill="#FF2600"/>
<path opacity="0.03" fill-rule="evenodd" clip-rule="evenodd" d="M14.8409 -133C16.9453 -133 19.0496 -133 21.1539 -133C21.1539 -46.3905 21.1539 40.219 21.1539 126.801C19.0496 126.801 16.9453 126.801 14.8409 126.801C14.8409 40.219 14.8409 -46.3905 14.8409 -133Z" fill="#FF2600"/>
<path opacity="0.03" fill-rule="evenodd" clip-rule="evenodd" d="M15.0349 -133C17.0008 -133 18.9667 -133 20.9602 -133C20.9602 -46.3905 20.9602 40.219 20.9602 126.801C18.9944 126.801 17.0285 126.801 15.0349 126.801C15.0349 40.219 15.0349 -46.3905 15.0349 -133Z" fill="#FF2600"/>
<path opacity="0.03" fill-rule="evenodd" clip-rule="evenodd" d="M15.2563 -133C17.0838 -133 18.9112 -133 20.7664 -133C20.7664 -46.3905 20.7664 40.219 20.7664 126.801C18.9389 126.801 17.1115 126.801 15.2563 126.801C15.2563 40.219 15.2563 -46.3905 15.2563 -133Z" fill="#FF2600"/>
<path opacity="0.03" fill-rule="evenodd" clip-rule="evenodd" d="M15.4502 -133C17.1392 -133 18.8559 -133 20.5449 -133C20.5449 -46.3905 20.5449 40.219 20.5449 126.801C18.8559 126.801 17.1392 126.801 15.4502 126.801C15.4502 40.219 15.4502 -46.3905 15.4502 -133Z" fill="#FF2600"/>
<path opacity="0.03" fill-rule="evenodd" clip-rule="evenodd" d="M15.644 -133C17.1946 -133 18.7728 -133 20.3234 -133C20.3234 -46.3905 20.3234 40.219 20.3234 126.801C18.7728 126.801 17.1946 126.801 15.644 126.801C15.644 40.219 15.644 -46.3905 15.644 -133Z" fill="#FF2600"/>
<path opacity="0.03" fill-rule="evenodd" clip-rule="evenodd" d="M15.8655 -133C17.2776 -133 18.7174 -133 20.1295 -133C20.1295 -46.3905 20.1295 40.219 20.1295 126.801C18.7174 126.801 17.2776 126.801 15.8655 126.801C15.8655 40.219 15.8655 -46.3905 15.8655 -133Z" fill="#FF2600"/>
<path opacity="0.03" fill-rule="evenodd" clip-rule="evenodd" d="M16.0593 -133C17.333 -133 18.6344 -133 19.908 -133C19.908 -46.3905 19.908 40.219 19.908 126.801C18.6344 126.801 17.333 126.801 16.0593 126.801C16.0593 40.219 16.0593 -46.3905 16.0593 -133Z" fill="#FF2600"/>
<path opacity="0.03" fill-rule="evenodd" clip-rule="evenodd" d="M16.2808 -133C17.416 -133 18.5789 -133 19.7141 -133C19.7141 -46.3905 19.7141 40.219 19.7141 126.801C18.5789 126.801 17.416 126.801 16.2808 126.801C16.2808 40.219 16.2808 -46.3905 16.2808 -133Z" fill="#FF2600"/>
<path opacity="0.03" fill-rule="evenodd" clip-rule="evenodd" d="M16.4746 -133C17.4714 -133 18.4959 -133 19.4927 -133C19.4927 -46.3905 19.4927 40.219 19.4927 126.801C18.4959 126.801 17.4714 126.801 16.4746 126.801C16.4746 40.219 16.4746 -46.3905 16.4746 -133Z" fill="#FF2600"/>
<path opacity="0.03" fill-rule="evenodd" clip-rule="evenodd" d="M16.6962 -133C17.5545 -133 18.4405 -133 19.3266 -133C19.3266 -46.3905 19.3266 40.219 19.3266 126.801C18.4405 126.801 17.5822 126.801 16.6962 126.801C16.6962 40.219 16.6962 -46.3905 16.6962 -133Z" fill="#FF2600"/>
<g opacity="0.75">
<path opacity="0.06" fill-rule="evenodd" clip-rule="evenodd" d="M16.0593 -133C17.333 -133 18.6344 -133 19.908 -133C19.908 -46.3905 19.908 40.219 19.908 126.801C18.6344 126.801 17.333 126.801 16.0593 126.801C16.0593 40.219 16.0593 -46.3905 16.0593 -133Z" fill="#FF2600"/>
<path opacity="0.06" fill-rule="evenodd" clip-rule="evenodd" d="M16.1147 -133C17.3607 -133 18.6344 -133 19.8804 -133C19.8804 -46.3905 19.8804 40.219 19.8804 126.801C18.6344 126.801 17.3607 126.801 16.1147 126.801C16.1147 40.219 16.1147 -46.3905 16.1147 -133Z" fill="#FF2600"/>
<path opacity="0.06" fill-rule="evenodd" clip-rule="evenodd" d="M16.1699 -133C17.3882 -133 18.6065 -133 19.8248 -133C19.8248 -46.3905 19.8248 40.219 19.8248 126.801C18.6065 126.801 17.3882 126.801 16.1699 126.801C16.1699 40.219 16.1699 -46.3905 16.1699 -133Z" fill="#FF2600"/>
<path opacity="0.06" fill-rule="evenodd" clip-rule="evenodd" d="M16.1978 -133C17.3884 -133 18.579 -133 19.7696 -133C19.7696 -46.3905 19.7696 40.219 19.7696 126.801C18.579 126.801 17.3884 126.801 16.1978 126.801C16.1978 40.219 16.1978 -46.3905 16.1978 -133Z" fill="#FF2600"/>
<path opacity="0.06" fill-rule="evenodd" clip-rule="evenodd" d="M16.2532 -133C17.4161 -133 18.579 -133 19.7419 -133C19.7419 -46.3905 19.7419 40.219 19.7419 126.801C18.579 126.801 17.4161 126.801 16.2532 126.801C16.2532 40.219 16.2532 -46.3905 16.2532 -133Z" fill="#FF2600"/>
<path opacity="0.06" fill-rule="evenodd" clip-rule="evenodd" d="M16.3086 -133C17.4438 -133 18.579 -133 19.7143 -133C19.7143 -46.3905 19.7143 40.219 19.7143 126.801C18.579 126.801 17.4438 126.801 16.3086 126.801C16.3086 40.219 16.3086 -46.3905 16.3086 -133Z" fill="#FF2600"/>
<path opacity="0.06" fill-rule="evenodd" clip-rule="evenodd" d="M16.3364 -133C17.444 -133 18.5515 -133 19.659 -133C19.659 -46.3905 19.659 40.219 19.659 126.801C18.5515 126.801 17.444 126.801 16.3641 126.801C16.3364 40.219 16.3364 -46.3905 16.3364 -133Z" fill="#FF2600"/>
<path opacity="0.06" fill-rule="evenodd" clip-rule="evenodd" d="M16.3916 -133C17.4715 -133 18.5236 -133 19.6035 -133C19.6035 -46.3905 19.6035 40.219 19.6035 126.801C18.5236 126.801 17.4715 126.801 16.3916 126.801C16.3916 40.219 16.3916 -46.3905 16.3916 -133Z" fill="#FF2600"/>
<path opacity="0.06" fill-rule="evenodd" clip-rule="evenodd" d="M16.447 -133C17.4992 -133 18.5237 -133 19.5758 -133C19.5758 -46.3905 19.5758 40.219 19.5758 126.801C18.5237 126.801 17.4992 126.801 16.447 126.801C16.447 40.219 16.447 -46.3905 16.447 -133Z" fill="#FF2600"/>
<path opacity="0.06" fill-rule="evenodd" clip-rule="evenodd" d="M16.4746 -133C17.4714 -133 18.4959 -133 19.4927 -133C19.4927 -46.3905 19.4927 40.219 19.4927 126.801C18.4959 126.801 17.4714 126.801 16.4746 126.801C16.4746 40.219 16.4746 -46.3905 16.4746 -133Z" fill="#FF2600"/>
<path opacity="0.06" fill-rule="evenodd" clip-rule="evenodd" d="M16.53 -133C17.4991 -133 18.4959 -133 19.465 -133C19.465 -46.3905 19.465 40.219 19.465 126.801C18.4959 126.801 17.4991 126.801 16.53 126.801C16.53 40.219 16.53 -46.3905 16.53 -133Z" fill="#FF2600"/>
<path opacity="0.06" fill-rule="evenodd" clip-rule="evenodd" d="M16.5852 -133C17.5266 -133 18.468 -133 19.4371 -133C19.4371 -46.3905 19.4371 40.219 19.4371 126.801C18.4957 126.801 17.5543 126.801 16.5852 126.801C16.5852 40.219 16.5852 -46.3905 16.5852 -133Z" fill="#FF2600"/>
<path opacity="0.06" fill-rule="evenodd" clip-rule="evenodd" d="M16.6133 -133C17.527 -133 18.4407 -133 19.3544 -133C19.3544 -46.3905 19.3544 40.219 19.3544 126.801C18.4407 126.801 17.527 126.801 16.6133 126.801C16.6133 40.219 16.6133 -46.3905 16.6133 -133Z" fill="#FF2600"/>
<path opacity="0.06" fill-rule="evenodd" clip-rule="evenodd" d="M16.6685 -133C17.5545 -133 18.4405 -133 19.3266 -133C19.3266 -46.3905 19.3266 40.219 19.3266 126.801C18.4405 126.801 17.5545 126.801 16.6685 126.801C16.6685 40.219 16.6685 -46.3905 16.6685 -133Z" fill="#FF2600"/>
<path opacity="0.06" fill-rule="evenodd" clip-rule="evenodd" d="M16.7239 -133C17.5822 -133 18.4406 -133 19.2989 -133C19.2989 -46.3905 19.2989 40.219 19.2989 126.801C18.4406 126.801 17.5822 126.801 16.7239 126.801C16.7239 40.219 16.7239 -46.3905 16.7239 -133Z" fill="#FF2600"/>
<path opacity="0.06" fill-rule="evenodd" clip-rule="evenodd" d="M16.7515 -133C17.5821 -133 18.4128 -133 19.2157 -133C19.2157 -46.3905 19.2157 40.219 19.2157 126.801C18.3851 126.801 17.5544 126.801 16.7515 126.801C16.7515 40.219 16.7515 -46.3905 16.7515 -133Z" fill="#FF2600"/>
<path opacity="0.06" fill-rule="evenodd" clip-rule="evenodd" d="M16.807 -133C17.61 -133 18.3853 -133 19.1882 -133C19.1882 -46.3905 19.1882 40.219 19.1882 126.801C18.3853 126.801 17.61 126.801 16.807 126.801C16.807 40.219 16.807 -46.3905 16.807 -133Z" fill="#FF2600"/>
<path opacity="0.06" fill-rule="evenodd" clip-rule="evenodd" d="M16.8345 -133C17.6098 -133 18.3573 -133 19.1326 -133C19.1326 -46.3905 19.1326 40.219 19.1326 126.801C18.3573 126.801 17.6098 126.801 16.8345 126.801C16.8345 40.219 16.8345 -46.3905 16.8345 -133Z" fill="#FF2600"/>
<path opacity="0.06" fill-rule="evenodd" clip-rule="evenodd" d="M16.89 -133C17.6099 -133 18.3575 -133 19.0774 -133C19.0774 -46.3905 19.0774 40.219 19.0774 126.801C18.3575 126.801 17.6099 126.801 16.89 126.801C16.89 40.219 16.89 -46.3905 16.89 -133Z" fill="#FF2600"/>
<path opacity="0.06" fill-rule="evenodd" clip-rule="evenodd" d="M16.9453 -133C17.6375 -133 18.3574 -133 19.0496 -133C19.0496 -46.3905 19.0496 40.219 19.0496 126.801C18.3574 126.801 17.6375 126.801 16.9453 126.801C16.9453 40.219 16.9453 -46.3905 16.9453 -133Z" fill="#FF2600"/>
<path opacity="0.06" fill-rule="evenodd" clip-rule="evenodd" d="M16.9731 -133C17.6377 -133 18.3299 -133 18.9944 -133C18.9944 -46.3905 18.9944 40.219 18.9944 126.801C18.3299 126.801 17.6377 126.801 16.9731 126.801C16.9731 40.219 16.9731 -46.3905 16.9731 -133Z" fill="#FF2600"/>
<path opacity="0.06" fill-rule="evenodd" clip-rule="evenodd" d="M17.0286 -133C17.6654 -133 18.3022 -133 18.9668 -133C18.9668 -46.3905 18.9668 40.219 18.9668 126.801C18.3299 126.801 17.6931 126.801 17.0286 126.801C17.0286 40.219 17.0286 -46.3905 17.0286 -133Z" fill="#FF2600"/>
</g>
<g opacity="0.75">
<path opacity="0.06" fill-rule="evenodd" clip-rule="evenodd" d="M17.0006 -133C18.2743 -133 17.6928 -133 18.9942 -133C18.9942 -46.3905 18.9942 40.219 18.9942 126.801C17.7205 126.801 18.302 126.801 17.0006 126.801C17.0006 40.219 17.0006 -46.3905 17.0006 -133Z" fill="#FF2600"/>
<path opacity="0.06" fill-rule="evenodd" clip-rule="evenodd" d="M17.056 -133C18.302 -133 17.6929 -133 18.9388 -133C18.9388 -46.3905 18.9388 40.219 18.9388 126.801C17.6929 126.801 18.302 126.801 17.056 126.801C17.056 40.219 17.056 -46.3905 17.056 -133Z" fill="#FF2600"/>
<path opacity="0.06" fill-rule="evenodd" clip-rule="evenodd" d="M17.0836 -133C18.3019 -133 17.6651 -133 18.8834 -133C18.8834 -46.3905 18.8834 40.219 18.8834 126.801C17.6651 126.801 18.3019 126.801 17.0836 126.801C17.0836 40.219 17.0836 -46.3905 17.0836 -133Z" fill="#FF2600"/>
<path opacity="0.06" fill-rule="evenodd" clip-rule="evenodd" d="M17.1388 -133C18.3294 -133 17.6649 -133 18.8555 -133C18.8555 -46.3905 18.8555 40.219 18.8555 126.801C17.6649 126.801 18.3294 126.801 17.1388 126.801C17.1388 40.219 17.1388 -46.3905 17.1388 -133Z" fill="#FF2600"/>
<path opacity="0.06" fill-rule="evenodd" clip-rule="evenodd" d="M17.1945 -133C18.3574 -133 17.6375 -133 18.8004 -133C18.8004 -46.3905 18.8004 40.219 18.8004 126.801C17.6375 126.801 18.3574 126.801 17.1945 126.801C17.1945 40.219 17.1945 -46.3905 17.1945 -133Z" fill="#FF2600"/>
<path opacity="0.06" fill-rule="evenodd" clip-rule="evenodd" d="M17.222 -133C18.3573 -133 17.6097 -133 18.7449 -133C18.7449 -46.3905 18.7449 40.219 18.7449 126.801C17.6097 126.801 18.3573 126.801 17.222 126.801C17.222 40.219 17.222 -46.3905 17.222 -133Z" fill="#FF2600"/>
<path opacity="0.06" fill-rule="evenodd" clip-rule="evenodd" d="M17.2777 -133C18.3853 -133 17.61 -133 18.7175 -133C18.7175 -46.3905 18.7175 40.219 18.7175 126.801C17.61 126.801 18.3853 126.801 17.2777 126.801C17.2777 40.219 17.2777 -46.3905 17.2777 -133Z" fill="#FF2600"/>
<path opacity="0.06" fill-rule="evenodd" clip-rule="evenodd" d="M17.3329 -133C18.4127 -133 17.6098 -133 18.6619 -133C18.6619 -46.3905 18.6619 40.219 18.6619 126.801C17.5821 126.801 18.385 126.801 17.3329 126.801C17.3329 40.219 17.3329 -46.3905 17.3329 -133Z" fill="#FF2600"/>
<path opacity="0.06" fill-rule="evenodd" clip-rule="evenodd" d="M17.3607 -133C18.4129 -133 17.5545 -133 18.6067 -133C18.6067 -46.3905 18.6067 40.219 18.6067 126.801C17.5545 126.801 18.4129 126.801 17.3607 126.801C17.3607 40.219 17.3607 -46.3905 17.3607 -133Z" fill="#FF2600"/>
<path opacity="0.06" fill-rule="evenodd" clip-rule="evenodd" d="M17.4159 -133C18.4127 -133 17.5543 -133 18.5788 -133C18.5788 -46.3905 18.5788 40.219 18.5788 126.801C17.582 126.801 18.4404 126.801 17.4159 126.801C17.4159 40.219 17.4159 -46.3905 17.4159 -133Z" fill="#FF2600"/>
<path opacity="0.06" fill-rule="evenodd" clip-rule="evenodd" d="M17.4713 -133C18.4404 -133 17.5544 -133 18.5235 -133C18.5235 -46.3905 18.5235 40.219 18.5235 126.801C17.5544 126.801 18.4404 126.801 17.4713 126.801C17.4713 40.219 17.4713 -46.3905 17.4713 -133Z" fill="#FF2600"/>
<path opacity="0.06" fill-rule="evenodd" clip-rule="evenodd" d="M17.4989 -133C18.4403 -133 17.5266 -133 18.468 -133C18.468 -46.3905 18.468 40.219 18.468 126.801C17.5266 126.801 18.4403 126.801 17.4989 126.801C17.4989 40.219 17.4989 -46.3905 17.4989 -133Z" fill="#FF2600"/>
<path opacity="0.06" fill-rule="evenodd" clip-rule="evenodd" d="M17.5544 -133C18.4682 -133 17.5268 -133 18.4405 -133C18.4405 -46.3905 18.4405 40.219 18.4405 126.801C17.5268 126.801 18.4682 126.801 17.5544 126.801C17.5544 40.219 17.5544 -46.3905 17.5544 -133Z" fill="#FF2600"/>
<path opacity="0.06" fill-rule="evenodd" clip-rule="evenodd" d="M17.6097 -133C18.4958 -133 17.499 -133 18.385 -133C18.385 -46.3905 18.385 40.219 18.385 126.801C17.499 126.801 18.4958 126.801 17.6097 126.801C17.6097 40.219 17.6097 -46.3905 17.6097 -133Z" fill="#FF2600"/>
<path opacity="0.06" fill-rule="evenodd" clip-rule="evenodd" d="M17.6373 -133C18.4957 -133 17.4712 -133 18.3295 -133C18.3295 -46.3905 18.3295 40.219 18.3295 126.801C17.4712 126.801 18.4957 126.801 17.6373 126.801C17.6373 40.219 17.6373 -46.3905 17.6373 -133Z" fill="#FF2600"/>
<path opacity="0.06" fill-rule="evenodd" clip-rule="evenodd" d="M17.6927 -133C18.5234 -133 17.4712 -133 18.3019 -133C18.3019 -46.3905 18.3019 40.219 18.3019 126.801C17.4712 126.801 18.5234 126.801 17.6927 126.801C17.6927 40.219 17.6927 -46.3905 17.6927 -133Z" fill="#FF2600"/>
<path opacity="0.06" fill-rule="evenodd" clip-rule="evenodd" d="M17.7483 -133C18.5513 -133 17.4714 -133 18.2744 -133C18.2744 -46.3905 18.2744 40.219 18.2744 126.801C17.4714 126.801 18.5513 126.801 17.7483 126.801C17.7483 40.219 17.7483 -46.3905 17.7483 -133Z" fill="#FF2600"/>
<path opacity="0.06" fill-rule="evenodd" clip-rule="evenodd" d="M17.7758 -133C18.551 -133 17.4435 -133 18.1911 -133C18.1911 -46.3905 18.1911 40.219 18.1911 126.801C17.4158 126.801 18.5233 126.801 17.7758 126.801C17.7758 40.219 17.7758 -46.3905 17.7758 -133Z" fill="#FF2600"/>
<path opacity="0.06" fill-rule="evenodd" clip-rule="evenodd" d="M17.8313 -133C18.5512 -133 17.416 -133 18.1636 -133C18.1636 -46.3905 18.1636 40.219 18.1636 126.801C17.4437 126.801 18.5789 126.801 17.8313 126.801C17.8313 40.219 17.8313 -46.3905 17.8313 -133Z" fill="#FF2600"/>
</g>
<path opacity="0.1" fill-rule="evenodd" clip-rule="evenodd" d="M18.025 110.908C14.8962 110.908 13.0134 113.649 12.1828 115.504C7.72492 125.278 10.3553 127.327 18.025 127.327C25.7224 127.327 28.3251 125.306 23.8673 115.504C23.009 113.621 21.1261 110.908 18.025 110.908Z" fill="#FF0000"/>
<path opacity="0.1" fill-rule="evenodd" clip-rule="evenodd" d="M18.0248 111.046C14.9791 111.046 13.124 113.732 12.2933 115.559C10.1613 120.266 9.60755 123.312 10.6597 125.001C11.6842 126.69 14.3146 127.161 18.0248 127.161C21.7351 127.161 24.3378 126.69 25.39 125.001C26.4421 123.312 25.8884 120.266 23.7564 115.559C22.898 113.704 21.0706 111.046 18.0248 111.046Z" fill="#FF0000"/>
<path opacity="0.1" fill-rule="evenodd" clip-rule="evenodd" d="M18.025 111.157C15.0623 111.157 13.2348 113.787 12.4319 115.587C10.3829 120.1 9.7461 123.257 10.7983 124.918C11.8227 126.552 14.4808 127.022 18.0526 127.022C21.6245 127.022 24.2826 126.552 25.307 124.918C26.3315 123.257 25.7224 120.1 23.6734 115.587C22.7874 113.787 20.9876 111.157 18.025 111.157Z" fill="#FF0000"/>
<path opacity="0.1" fill-rule="evenodd" clip-rule="evenodd" d="M18.025 111.295C15.1177 111.295 13.3456 113.87 12.5427 115.642C10.5768 119.962 9.8569 123.201 10.8814 124.835C11.8782 126.413 14.5916 126.856 17.9973 126.856C21.403 126.856 24.1165 126.413 25.1132 124.835C26.1377 123.201 25.4455 119.962 23.4519 115.642C22.6767 113.87 20.9046 111.295 18.025 111.295Z" fill="#FF0000"/>
<path opacity="0.1" fill-rule="evenodd" clip-rule="evenodd" d="M18.0252 111.434C15.2009 111.434 13.4566 113.953 12.6813 115.698C10.7985 119.823 10.0232 123.174 11.02 124.78C11.9891 126.33 14.7579 126.746 18.0252 126.746C21.2924 126.746 24.0613 126.33 25.0304 124.78C26.0271 123.201 25.2519 119.851 23.369 115.698C22.5661 113.981 20.8494 111.434 18.0252 111.434Z" fill="#FF0000"/>
<path opacity="0.1" fill-rule="evenodd" clip-rule="evenodd" d="M18.0251 111.572C15.2839 111.572 13.5949 114.037 12.792 115.753C10.9922 119.713 10.1339 123.146 11.1307 124.697C12.0721 126.192 14.8963 126.607 18.0251 126.607C21.1539 126.607 23.9504 126.219 24.9195 124.697C25.9163 123.146 25.058 119.713 23.2582 115.753C22.4553 114.064 20.7663 111.572 18.0251 111.572Z" fill="#FF0100"/>
<path opacity="0.1" fill-rule="evenodd" clip-rule="evenodd" d="M18.0251 111.711C15.367 111.711 13.7057 114.147 12.9305 115.809C11.2138 119.574 10.2724 123.118 11.2692 124.614C12.2106 126.081 15.0348 126.441 18.0251 126.441C21.0155 126.441 23.8674 126.053 24.7811 124.614C25.7779 123.091 24.8365 119.547 23.1198 115.809C22.3445 114.147 20.6832 111.711 18.0251 111.711Z" fill="#FF0300"/>
<path opacity="0.1" fill-rule="evenodd" clip-rule="evenodd" d="M18.0251 111.849C15.4224 111.849 13.8165 114.23 13.0412 115.864C11.4076 119.436 10.3831 123.063 11.3522 124.558C12.2659 125.97 15.1455 126.33 17.9974 126.33C20.8493 126.33 23.7289 125.97 24.6427 124.558C25.6118 123.063 24.5873 119.436 22.9537 115.864C22.2338 114.23 20.6001 111.849 18.0251 111.849Z" fill="#FF0600"/>
<path opacity="0.1" fill-rule="evenodd" clip-rule="evenodd" d="M18.025 111.988C15.5054 111.988 13.9271 114.313 13.1795 115.919C11.629 119.325 10.5214 123.035 11.4905 124.503C12.3766 125.86 15.3115 126.192 18.025 126.192C20.7385 126.192 23.6735 125.86 24.5595 124.503C25.5286 123.063 24.4211 119.325 22.8705 115.947C22.1229 114.313 20.5447 111.988 18.025 111.988Z" fill="#FF0800"/>
<path opacity="0.1" fill-rule="evenodd" clip-rule="evenodd" d="M18.0249 112.126C15.5884 112.126 14.0378 114.396 13.2902 115.975C11.8227 119.159 10.6598 123.008 11.6012 124.42C12.4596 125.749 15.4499 126.053 18.0249 126.053C20.6 126.053 23.5626 125.749 24.4487 124.42C25.3901 123.008 24.1995 119.187 22.7597 115.975C22.0121 114.396 20.4615 112.126 18.0249 112.126Z" fill="#FF0A00"/>
<path opacity="0.1" fill-rule="evenodd" clip-rule="evenodd" d="M18.025 112.265C15.6438 112.265 14.1486 114.48 13.4287 116.058C12.0719 119.048 10.7983 122.98 11.7397 124.364C12.5703 125.638 15.6161 125.943 18.025 125.943C20.4616 125.943 23.4796 125.638 24.3102 124.364C25.2517 122.98 23.978 119.048 22.6213 116.058C21.9014 114.48 20.3785 112.265 18.025 112.265Z" fill="#FF0C00"/>
<path opacity="0.1" fill-rule="evenodd" clip-rule="evenodd" d="M18.0251 112.403C15.7269 112.403 14.2595 114.563 13.5672 116.113C12.2936 118.937 10.9368 122.952 11.8506 124.309C12.6812 125.527 15.7546 125.804 18.0251 125.804C20.3232 125.804 23.369 125.527 24.1996 124.309C25.1133 122.952 23.7843 118.937 22.4829 116.113C21.7907 114.563 20.2955 112.403 18.0251 112.403Z" fill="#FF0D00"/>
<path opacity="0.1" fill-rule="evenodd" clip-rule="evenodd" d="M18.0251 112.541C15.81 112.541 14.3702 114.646 13.678 116.169C12.4874 118.799 11.0476 122.925 11.9613 124.226C12.7643 125.417 15.8654 125.666 18.0251 125.666C20.1571 125.666 23.2859 125.417 24.0888 124.226C25.0026 122.925 23.5628 118.799 22.3722 116.169C21.6799 114.646 20.2401 112.541 18.0251 112.541Z" fill="#FF0F00"/>
<path opacity="0.1" fill-rule="evenodd" clip-rule="evenodd" d="M18.0249 112.68C15.8928 112.68 14.4807 114.756 13.8162 116.224C12.7087 118.661 11.2135 122.869 12.0995 124.143C12.8748 125.278 16.0313 125.5 18.0525 125.5C20.0461 125.5 23.2026 125.278 24.0056 124.143C24.8916 122.869 23.3964 118.661 22.2889 116.224C21.569 114.756 20.1569 112.68 18.0249 112.68Z" fill="#FF1100"/>
<path opacity="0.1" fill-rule="evenodd" clip-rule="evenodd" d="M18.025 112.818C15.9484 112.818 14.5916 114.839 13.9271 116.279C12.9026 118.522 11.3244 122.841 12.2104 124.087C12.958 125.167 16.1699 125.389 18.025 125.389C19.8801 125.389 23.092 125.167 23.8396 124.087C24.7256 122.841 23.1474 118.522 22.1229 116.279C21.4584 114.839 20.074 112.818 18.025 112.818Z" fill="#FF1300"/>
<path opacity="0.1" fill-rule="evenodd" clip-rule="evenodd" d="M18.0252 112.957C16.0316 112.957 14.7026 114.923 14.0657 116.335C13.1243 118.384 11.463 122.814 12.3214 124.004C13.069 125.057 16.3085 125.223 18.0252 125.223C19.7419 125.223 22.9814 125.029 23.729 124.004C24.5874 122.786 22.9261 118.384 21.9846 116.335C21.3478 114.923 20.0188 112.957 18.0252 112.957Z" fill="#FF1600"/>
<path opacity="0.1" fill-rule="evenodd" clip-rule="evenodd" d="M18.0251 113.095C16.1146 113.095 14.8132 115.006 14.1764 116.39C13.318 118.273 11.5737 122.758 12.432 123.949C13.1519 124.946 16.4468 125.112 18.0251 125.112C19.6033 125.112 22.8982 124.946 23.6181 123.949C24.4765 122.786 22.7321 118.273 21.8738 116.39C21.2369 115.006 19.9356 113.095 18.0251 113.095Z" fill="#FF1800"/>
<path opacity="0.1" fill-rule="evenodd" clip-rule="evenodd" d="M18.0251 113.234C16.1977 113.234 14.924 115.089 14.3149 116.445C13.5396 118.134 11.7122 122.731 12.5705 123.866C13.2627 124.807 16.613 124.973 18.0251 124.973C19.4649 124.973 22.7875 124.835 23.4798 123.866C24.3104 122.731 22.5107 118.107 21.7354 116.445C21.1262 115.089 19.8526 113.234 18.0251 113.234Z" fill="#FF1A00"/>
<path opacity="0.1" fill-rule="evenodd" clip-rule="evenodd" d="M18.025 113.372C16.2529 113.372 15.0346 115.172 14.4255 116.501C13.7333 117.996 11.8505 122.703 12.6811 123.81C13.3456 124.724 16.7236 124.835 18.025 124.835C19.3263 124.835 22.7043 124.724 23.3689 123.81C24.1995 122.703 22.289 117.996 21.6245 116.501C21.0153 115.172 19.7694 113.372 18.025 113.372Z" fill="#FF1A00"/>
<path opacity="0.1" fill-rule="evenodd" clip-rule="evenodd" d="M18.0251 113.51C16.3361 113.51 15.1455 115.282 14.564 116.556C13.9826 117.857 11.989 122.648 12.792 123.727C13.4565 124.586 16.8622 124.697 18.0251 124.697C19.188 124.697 22.5937 124.586 23.2582 123.727C24.0889 122.648 22.0953 117.857 21.4862 116.556C20.9047 115.255 19.7141 113.51 18.0251 113.51Z" fill="#FF1D00"/>
<path opacity="0.1" fill-rule="evenodd" clip-rule="evenodd" d="M18.0249 113.621C16.4189 113.621 15.256 115.338 14.6746 116.611C14.1762 117.719 12.0995 122.62 12.9025 123.672C13.5393 124.475 17.0004 124.558 18.0249 124.558C19.0493 124.558 22.5104 124.475 23.1472 123.672C23.9502 122.648 21.8736 117.747 21.3752 116.611C20.7937 115.338 19.6308 113.621 18.0249 113.621Z" fill="#FF1F00"/>
<path opacity="0.1" fill-rule="evenodd" clip-rule="evenodd" d="M18.0251 113.76C16.5022 113.76 15.367 115.421 14.8132 116.667C14.3979 117.581 12.2382 122.592 13.0411 123.589C13.6503 124.364 17.1667 124.42 18.0251 124.42C18.8834 124.42 22.3998 124.364 23.009 123.589C23.812 122.592 21.6523 117.581 21.2369 116.667C20.6832 115.421 19.5479 113.76 18.0251 113.76Z" fill="#FF2100"/>
<path opacity="0.25" fill-rule="evenodd" clip-rule="evenodd" d="M26.8855 133.28C27.4947 131.397 24.0336 128.185 17.7206 128.185C11.4077 128.185 8.99875 131.148 9.55252 132.892C7.4482 131.065 5.37156 130.456 3.26724 129.819C5.31619 129.847 7.39282 129.68 9.52483 128.739C6.64523 122.897 3.43337 117.636 0 112.763C3.43337 116.805 6.94981 120.626 10.7154 123.589C11.2969 115.061 11.0754 106.173 10.7708 97.2572C12.7921 105.896 15.0348 114.313 17.6929 122.343C20.5725 115.808 23.1752 108.942 25.6395 101.937C25.3073 108.942 25.0581 115.975 25.6395 122.98C29.4882 120.211 32.7832 116.418 36.0227 112.541C32.6447 117.719 29.4328 123.312 26.5809 129.708C28.6022 130.511 30.6234 130.096 32.6447 129.847C30.5681 130.234 28.6576 131.452 26.8855 133.28Z" fill="#FF1C00"/>
<path opacity="0.25" fill-rule="evenodd" clip-rule="evenodd" d="M5.4547 130.151C6.75605 130.622 7.97435 131.203 9.19264 132.172C9.30339 131.009 10.2448 130.04 10.937 129.542C12.8752 128.13 15.5887 127.798 17.7207 127.798C20.0742 127.798 22.8431 128.268 25.0028 129.68C25.695 130.123 26.9963 131.203 27.1902 132.477C27.9931 131.702 28.8238 131.037 29.7098 130.539C28.63 130.594 27.5501 130.511 26.4703 130.068L26.1103 129.93L26.3041 129.487C28.4361 124.752 30.7897 120.322 33.3924 116.085C31.0112 118.799 28.5192 121.318 25.7504 123.312L25.3904 123.561L25.335 123.007C24.8089 116.639 24.9474 110.215 25.252 103.819C22.9815 110.188 20.6003 116.473 17.9145 122.509L17.6376 123.118L17.4161 122.454C14.9795 115.172 12.9306 107.613 11.1031 99.9983C11.3523 107.834 11.4631 115.753 10.937 123.589L10.9093 124.17L10.5494 123.866C7.91897 121.789 5.4547 119.353 3.07349 116.75C5.4547 120.46 7.69746 124.364 9.74641 128.49L9.96792 128.905L9.60797 129.071C8.25123 129.736 6.86681 130.04 5.4547 130.151Z" fill="#FF1C00"/>
<path opacity="0.25" fill-rule="evenodd" clip-rule="evenodd" d="M6.89436 130.345C7.61426 130.677 8.33416 131.092 9.02637 131.591C9.33094 130.539 10.1339 129.68 10.7984 129.21C12.7643 127.77 15.5332 127.41 17.7205 127.41C20.1294 127.41 22.926 127.881 25.1411 129.32C25.3626 129.459 25.6118 129.653 25.861 129.874L26.1378 129.293C27.8268 125.555 29.6543 122.011 31.6202 118.577C29.8204 120.46 27.9653 122.204 25.944 123.644L25.2241 124.17L25.1411 123.063C24.6427 117.304 24.698 111.489 24.9472 105.702C22.8706 111.489 20.6555 117.221 18.2189 122.731L17.6929 123.949L17.2498 122.647C15.0901 116.141 13.2073 109.468 11.546 102.684C11.7398 109.662 11.7675 116.694 11.2968 123.644L11.2138 124.835L10.4662 124.253C8.61104 122.786 6.83898 121.152 5.0946 119.38C6.83898 122.232 8.4726 125.222 9.99546 128.296L10.4108 129.154L9.69089 129.459C8.77717 129.902 7.83576 130.179 6.89436 130.345ZM26.4424 130.456C27.1346 130.732 27.8545 130.871 28.5467 130.926C28.1591 131.231 27.7438 131.535 27.3838 131.895C27.1623 131.342 26.8301 130.871 26.4424 130.456Z" fill="#FF1C00"/>
<path opacity="0.25" fill-rule="evenodd" clip-rule="evenodd" d="M7.97431 130.483C8.27888 130.649 8.58346 130.843 8.91572 131.065C9.08185 130.649 9.33105 130.262 9.58024 129.93C9.05416 130.179 8.50039 130.345 7.97431 130.483ZM10.6324 128.905C10.6601 128.877 10.6601 128.877 10.6878 128.85C12.709 127.382 15.4779 127.022 17.7207 127.022C20.1572 127.022 23.0092 127.493 25.2519 128.96C25.418 129.071 25.5842 129.182 25.778 129.32L25.8888 129.044C27.2178 126.081 28.6576 123.229 30.1805 120.46C28.8514 121.734 27.4947 122.924 26.0549 123.949L24.975 124.724L24.8366 123.063C24.3936 117.857 24.4213 112.652 24.5874 107.447C22.6769 112.707 20.6279 117.857 18.4406 122.869L17.6376 124.696L16.9731 122.731C15.0626 116.971 13.3736 111.074 11.8507 105.121C11.9891 111.295 11.9615 117.47 11.5461 123.617L11.4354 125.389L10.3278 124.503C9.05416 123.506 7.83587 122.426 6.64526 121.291C7.89124 123.478 9.10954 125.693 10.2448 128.019L10.6324 128.905ZM27.3286 131.12C27.3839 131.203 27.4116 131.259 27.4393 131.342C27.4947 131.286 27.5778 131.231 27.6331 131.176C27.5224 131.176 27.4393 131.148 27.3286 131.12Z" fill="#FF1C00"/>
<path opacity="0.25" fill-rule="evenodd" clip-rule="evenodd" d="M10.7156 128.434C12.7645 127.022 15.5057 126.662 17.7208 126.662C20.2127 126.662 23.0923 127.161 25.3628 128.656C25.4458 128.711 25.5566 128.794 25.6674 128.85C26.7195 126.524 27.8271 124.281 28.9623 122.094C28.0486 122.897 27.1348 123.672 26.1657 124.364L24.7259 125.389L24.5321 123.174C24.1445 118.55 24.1168 113.898 24.2276 109.274C22.4832 113.981 20.6281 118.633 18.6345 123.174L17.5546 125.61L16.6963 123.007C15.0073 117.968 13.5121 112.818 12.1554 107.585C12.2384 112.984 12.1831 118.383 11.8231 123.727L11.657 126.081L10.1618 124.918C9.38654 124.309 8.63895 123.672 7.89136 123.007C8.77739 124.586 9.60804 126.219 10.4387 127.853L10.7156 128.434Z" fill="#FF1C00"/>
<path opacity="0.25" fill-rule="evenodd" clip-rule="evenodd" d="M10.8261 127.936C12.8197 126.662 15.367 126.302 17.5267 126.275L16.4746 123.146C15.0071 118.771 13.7057 114.313 12.4597 109.8C12.4874 114.452 12.4044 119.131 12.0998 123.755L11.906 126.718L10.0508 125.25C9.71858 124.973 9.35863 124.697 9.02637 124.42C9.58014 125.472 10.1339 126.552 10.6877 127.659L10.8261 127.936ZM17.6098 126.275C17.6375 126.275 17.6929 126.275 17.7205 126.275C20.2679 126.275 23.1752 126.773 25.4733 128.296C25.501 128.324 25.5287 128.324 25.5564 128.351C26.304 126.662 27.1069 125.029 27.9376 123.423C27.4115 123.866 26.8577 124.281 26.304 124.697L24.5319 125.97L24.3104 123.201C23.9781 119.103 23.8951 115.033 23.9781 110.935C22.3999 115.144 20.7109 119.297 18.9388 123.368L17.6098 126.275Z" fill="#FF1C00"/>
<path opacity="0.25" fill-rule="evenodd" clip-rule="evenodd" d="M10.9092 127.465C11.1861 127.299 11.4353 127.161 11.7122 127.05L9.99548 125.721C10.3277 126.275 10.6046 126.856 10.9092 127.465ZM12.1829 126.828C13.7611 126.192 15.5055 125.942 17.0837 125.887L16.2254 123.312C14.9794 119.574 13.8165 115.781 12.7643 111.932C12.7643 115.891 12.6536 119.851 12.3767 123.81L12.1829 126.828ZM18.1082 125.887C20.5448 125.942 23.2583 126.441 25.4733 127.853C25.9717 126.745 26.4978 125.666 27.0239 124.586C26.8301 124.724 26.6363 124.863 26.4424 125.001L24.3104 126.552L24.0335 123.229C23.729 119.657 23.6459 116.085 23.6736 112.513C22.2338 116.251 20.7663 119.934 19.1604 123.533L18.1082 125.887Z" fill="#FF1C00"/>
<path opacity="0.25" fill-rule="evenodd" clip-rule="evenodd" d="M11.0199 126.967C11.0475 126.967 11.0475 126.939 11.0752 126.939L10.9645 126.856C10.9645 126.912 10.9922 126.939 11.0199 126.967ZM12.4873 126.302C13.8441 125.804 15.2839 125.583 16.6683 125.527L15.9761 123.478C14.9239 120.322 13.9548 117.138 13.0134 113.926C12.9857 117.248 12.875 120.543 12.6535 123.838L12.4873 126.302ZM18.6065 125.527C20.4062 125.61 22.2891 125.943 24.0334 126.69L23.7566 123.284C23.5074 120.211 23.3966 117.138 23.3966 114.064C22.1229 117.331 20.7939 120.571 19.4095 123.727L18.6065 125.527ZM24.4488 126.884C24.7533 127.022 25.0579 127.188 25.3625 127.382C25.6394 126.801 25.8886 126.219 26.1655 125.666L24.4488 126.884Z" fill="#FF1C00"/>
<path opacity="0.25" fill-rule="evenodd" clip-rule="evenodd" d="M12.792 125.804C13.9272 125.444 15.0901 125.25 16.2254 125.167L15.6993 123.617C14.8409 121.042 14.0103 118.439 13.235 115.781C13.1796 118.467 13.0689 121.152 12.9027 123.838L12.792 125.804ZM19.0773 125.167C20.6001 125.278 22.2061 125.582 23.7013 126.164L23.4521 123.34C23.2305 120.765 23.1198 118.162 23.0921 115.587C21.9846 118.411 20.8217 121.208 19.6034 123.977L19.0773 125.167ZM25.1411 126.828C25.1687 126.856 25.2241 126.884 25.2518 126.884C25.2795 126.801 25.3072 126.745 25.3626 126.662L25.1411 126.828Z" fill="#FF1C00"/>
<path opacity="0.25" fill-rule="evenodd" clip-rule="evenodd" d="M13.0967 125.333C13.9827 125.084 14.8964 124.918 15.7825 124.835L15.4502 123.811C14.758 121.762 14.1212 119.713 13.4843 117.608C13.4289 119.713 13.3182 121.817 13.1797 123.894L13.0967 125.333ZM19.5481 124.835C20.8218 124.946 22.1231 125.223 23.3691 125.666L23.1753 123.395C23.0092 121.263 22.8984 119.131 22.843 117.027C21.8739 119.436 20.8771 121.817 19.8527 124.17L19.5481 124.835Z" fill="#FF1C00"/>
<path opacity="0.25" fill-rule="evenodd" clip-rule="evenodd" d="M13.429 124.835C14.0935 124.669 14.7303 124.558 15.3948 124.475L15.2287 123.949C14.7026 122.398 14.2042 120.875 13.7335 119.297C13.6782 120.848 13.5951 122.371 13.4843 123.921L13.429 124.835ZM20.0188 124.475C21.0433 124.586 22.0401 124.807 23.0369 125.112L22.8984 123.395C22.76 121.706 22.6492 120.017 22.5938 118.356C21.7632 120.377 20.9325 122.371 20.0742 124.336L20.0188 124.475Z" fill="#FF1C00"/>
<path opacity="0.25" fill-rule="evenodd" clip-rule="evenodd" d="M13.7336 124.392C14.149 124.309 14.5643 124.226 14.9796 124.17V124.143C14.6197 123.091 14.2874 122.038 13.9552 120.959C13.8998 121.983 13.8444 122.98 13.789 123.977L13.7336 124.392ZM20.4896 124.17C21.2372 124.281 21.9848 124.447 22.7324 124.641L22.6216 123.478C22.5109 122.232 22.4278 120.959 22.3724 119.713C21.7633 121.208 21.1542 122.675 20.4896 124.17Z" fill="#FF1C00"/>
<path opacity="0.25" fill-rule="evenodd" clip-rule="evenodd" d="M14.0381 123.921C14.2042 123.893 14.398 123.866 14.5642 123.838C14.4257 123.395 14.2873 122.952 14.1212 122.509C14.0935 122.98 14.0658 123.45 14.0381 123.921ZM20.9602 123.838C21.4586 123.921 21.9293 124.032 22.4277 124.143L22.3723 123.506C22.2893 122.647 22.2339 121.817 22.2062 120.958C21.7909 121.928 21.3755 122.897 20.9602 123.838Z" fill="#FF1C00"/>
<path opacity="0.25" fill-rule="evenodd" clip-rule="evenodd" d="M21.4031 123.533C21.6246 123.589 21.8461 123.617 22.0953 123.672V123.533C22.0676 123.09 22.0122 122.647 21.9845 122.177C21.7907 122.647 21.5969 123.09 21.4031 123.533Z" fill="#FF1C00"/>
</g>
<defs>
<clipPath id="clip0">
<rect y="-133" width="36.0504" height="266.28" fill="white"/>
</clipPath>
</defs>
</svg>
