<svg width="270" height="370" viewBox="0 0 270 370" fill="none" xmlns="http://www.w3.org/2000/svg">
<g clip-path="url(#clip0)">
<g clip-path="url(#clip1)">
<path fill-rule="evenodd" clip-rule="evenodd" d="M135.332 120.214C122.705 120.214 116.517 127.676 116.475 139.472C116.475 141.022 110.162 142.822 110.162 143.653C110.162 151.835 110.162 160.017 110.162 168.213C110.162 169.515 111.089 170.705 112.695 172.311C113.138 172.754 110.162 173.35 110.162 173.973C110.162 175.496 110.162 177.032 110.162 178.555C112.668 182.196 116.129 188.371 120.13 193.923C129.005 206.272 130.015 205.912 135.345 205.912C140.676 205.912 141.672 206.286 150.561 193.923C154.548 188.371 158.023 182.21 160.529 178.555C160.529 177.032 160.529 175.496 160.529 173.973C160.529 173.35 157.552 172.754 157.995 172.311C159.615 170.691 160.529 169.515 160.529 168.213C160.529 160.031 160.529 151.849 160.529 143.653C160.529 142.822 154.216 141.022 154.216 139.472C154.147 127.676 147.958 120.214 135.332 120.214Z" fill="url(#paint0_linear)"/>
<path fill-rule="evenodd" clip-rule="evenodd" d="M110.162 173.973C110.162 175.496 110.162 177.032 110.162 178.555C112.668 182.196 116.129 188.371 120.13 193.923C129.005 206.272 130.015 205.912 135.345 205.912C140.676 205.912 141.672 206.286 150.561 193.923C154.548 188.371 158.023 182.21 160.529 178.555C160.529 177.032 160.529 175.496 160.529 173.973C160.529 173.35 157.552 172.754 157.995 172.311C159.615 170.691 160.529 169.515 160.529 168.213C160.529 160.031 160.529 151.849 160.529 143.653C160.529 142.822 154.216 141.022 154.216 139.472C154.147 127.676 147.958 120.214 135.332 120.214C122.705 120.214 116.517 127.676 116.475 139.472C116.475 141.022 110.162 142.822 110.162 143.653C110.162 151.835 110.162 160.017 110.162 168.213C110.162 169.515 111.09 170.705 112.695 172.311C113.139 172.754 110.162 173.35 110.162 173.973ZM120.296 124.09C123.716 120.601 128.728 118.649 135.332 118.649C141.936 118.649 146.947 120.601 150.367 124.09C153.939 127.745 155.725 133.02 155.739 139.458C155.739 139.555 157.345 140.108 158.715 140.745C160.501 141.576 162.066 142.296 162.066 143.653V168.213C162.066 169.196 161.747 170.082 161.152 170.996C160.944 171.314 160.709 171.633 160.432 171.965C161.318 172.381 162.08 172.92 162.08 173.973V178.555C162.08 178.86 161.997 179.164 161.803 179.441C160.834 180.853 159.684 182.709 158.411 184.744C156.486 187.845 154.271 191.417 151.807 194.837C142.725 207.477 141.354 207.477 135.788 207.463H135.332H134.875C129.295 207.477 127.939 207.477 118.856 194.837C116.392 191.417 114.177 187.845 112.252 184.744C111.006 182.736 109.885 180.923 108.916 179.524C108.708 179.261 108.584 178.929 108.584 178.555V173.973C108.584 172.92 109.345 172.381 110.231 171.965C109.954 171.633 109.719 171.314 109.511 170.996C108.916 170.082 108.597 169.182 108.597 168.213V143.653C108.597 142.31 110.148 141.576 111.948 140.745C113.305 140.108 114.924 139.569 114.924 139.458C114.938 133.02 116.71 127.745 120.296 124.09Z" fill="black"/>
<path opacity="0.5" fill-rule="evenodd" clip-rule="evenodd" d="M135.332 120.214C127.26 120.214 123.287 127.676 123.259 139.472C123.259 141.022 119.216 142.822 119.216 143.653C124.865 154.382 124.782 175.011 127.662 189.866H142.988C145.867 175.025 145.784 154.382 151.433 143.653C151.433 142.822 147.39 141.022 147.39 139.472C147.363 127.676 143.403 120.214 135.332 120.214Z" fill="url(#paint1_radial)"/>
<path fill-rule="evenodd" clip-rule="evenodd" d="M112.654 172.45C112.875 172.796 110.162 173.35 110.162 173.973C110.162 175.496 110.162 177.032 110.162 178.555C112.668 182.196 116.129 188.371 120.13 193.923C129.005 206.272 130.015 205.912 135.345 205.912C135.345 200.901 135.345 194.809 135.345 189.811L127.482 189.839L112.654 172.45Z" fill="url(#paint2_linear)"/>
<path fill-rule="evenodd" clip-rule="evenodd" d="M158.009 172.45C157.788 172.796 160.501 173.35 160.501 173.973C160.501 175.496 160.501 177.032 160.501 178.555C157.995 182.196 154.534 188.371 150.533 193.923C141.659 206.272 140.648 205.912 135.318 205.912C135.318 200.901 135.318 194.809 135.318 189.811L143.182 189.839L158.009 172.45Z" fill="url(#paint3_linear)"/>
<path fill-rule="evenodd" clip-rule="evenodd" d="M130.777 120.574C121.21 122.207 116.503 129.199 116.475 139.472C116.475 141.022 110.162 142.822 110.162 143.653C110.162 151.835 110.162 160.017 110.162 168.213C110.162 169.515 111.089 170.705 112.695 172.311C113.138 172.754 110.162 173.35 110.162 173.973C110.162 175.496 110.162 177.032 110.162 178.555C112.668 182.196 116.129 188.371 120.13 193.923C127.177 203.739 129.268 205.525 132.493 205.843C123.522 200.139 116.24 180.161 116.24 176.409C111.796 168.892 111.671 165.984 111.796 161.069C111.934 155.822 111.186 145.868 116.918 149.44C117.527 148.734 118.192 148.194 118.912 147.848C115.298 142.324 123.259 123.232 130.777 120.574Z" fill="url(#paint4_linear)"/>
<path fill-rule="evenodd" clip-rule="evenodd" d="M139.887 120.574C149.439 122.207 154.147 129.199 154.188 139.472C154.188 141.022 160.501 142.822 160.501 143.653C160.501 151.835 160.501 160.017 160.501 168.213C160.501 169.515 159.574 170.705 157.968 172.311C157.525 172.754 160.501 173.35 160.501 173.973C160.501 175.496 160.501 177.032 160.501 178.555C157.995 182.196 154.534 188.371 150.533 193.923C143.486 203.739 141.396 205.525 138.17 205.843C147.141 200.139 154.424 180.161 154.424 176.409C158.868 168.892 158.992 165.984 158.868 161.069C158.729 155.822 159.477 145.868 153.745 149.44C153.136 148.734 152.471 148.194 151.751 147.848C155.351 142.324 147.404 123.232 139.887 120.574Z" fill="url(#paint5_linear)"/>
<path fill-rule="evenodd" clip-rule="evenodd" d="M112.654 172.45C113 172.671 110.162 173.53 110.162 173.973C112.419 176.035 114.938 178.68 117.416 181.241C118.995 180.493 124.81 187.402 127.468 189.839C122.525 184.038 117.596 178.251 112.654 172.45Z" fill="url(#paint6_linear)"/>
<path fill-rule="evenodd" clip-rule="evenodd" d="M158.009 172.45C157.663 172.671 160.501 173.53 160.501 173.973C158.245 176.035 155.725 178.68 153.247 181.241C151.668 180.493 145.854 187.402 143.195 189.839C148.138 184.038 153.067 178.251 158.009 172.45Z" fill="url(#paint7_linear)"/>
<path fill-rule="evenodd" clip-rule="evenodd" d="M148.706 126.208C146.324 123.592 142.752 121.64 137.381 121.64H137.367C137.173 121.64 137.021 121.792 137.021 121.986V137.616C137.021 137.81 137.173 137.963 137.367 137.963C143.265 137.963 144.248 144.123 144.774 147.377C144.995 148.748 145.148 149.689 145.729 149.689C146.338 149.689 148.54 147.169 150.409 144.566C151.987 142.365 153.358 140.067 153.358 139.167C153.358 137.616 152.928 130.86 148.706 126.208Z" fill="#3B0201"/>
<path fill-rule="evenodd" clip-rule="evenodd" d="M137.367 121.986C152.001 121.986 152.998 136.772 152.998 139.167C152.998 140.967 146.643 149.343 145.715 149.343C144.635 149.343 145.784 137.63 137.367 137.63C137.367 128.507 137.367 131.11 137.367 121.986Z" fill="url(#paint8_radial)"/>
<path fill-rule="evenodd" clip-rule="evenodd" d="M137.367 121.986C142.614 121.986 146.117 123.896 148.443 126.444C148.443 130.057 141.285 131.428 137.367 131.428C137.367 128.908 137.367 127.981 137.367 121.986Z" fill="url(#paint9_linear)"/>
<path opacity="0.5" fill-rule="evenodd" clip-rule="evenodd" d="M149.786 137.824C145.521 147.792 145.203 140.15 141.728 136.495C139.568 134.224 140.039 133.311 140.094 129.96C140.15 126.098 141.368 124.99 145.134 127.51C148.387 129.697 150.838 133.878 149.786 137.824Z" fill="url(#paint10_linear)"/>
<path opacity="0.5" fill-rule="evenodd" clip-rule="evenodd" d="M141.479 122.429C148.567 124.063 151.309 129.919 152.361 134.308C149.135 129.047 146.961 141.521 145.037 146.865C144.802 145.411 144.455 143.528 143.68 141.839C147.044 144.539 149.44 129.407 141.479 122.429Z" fill="url(#paint11_linear)"/>
<path opacity="0.5" fill-rule="evenodd" clip-rule="evenodd" d="M135.332 142.656C133.795 142.656 134.542 148.332 132.673 148.332C128.478 148.332 126.803 145.882 126.803 147.432C126.803 156.002 130.555 152.832 130.555 157.317C130.555 164.503 133.061 165.957 135.318 165.957C137.574 165.957 140.08 164.503 140.08 157.317C140.08 152.832 143.832 156.002 143.832 147.432C143.832 145.896 142.171 148.332 137.962 148.332C136.121 148.332 136.868 142.656 135.332 142.656Z" fill="url(#paint12_linear)"/>
<path opacity="0.5" fill-rule="evenodd" clip-rule="evenodd" d="M127.357 189.603L129.683 195.875H140.966L143.306 189.603H127.357Z" fill="url(#paint13_linear)"/>
<path fill-rule="evenodd" clip-rule="evenodd" d="M130.278 139.25C132.397 138.516 133.85 142.836 133.656 144.608C133.463 146.352 132.134 146.809 130.915 145.549C129.669 144.276 128.16 139.984 130.278 139.25Z" fill="#3B0201"/>
<path fill-rule="evenodd" clip-rule="evenodd" d="M130.458 139.79C132.244 139.167 133.476 142.822 133.31 144.303C133.144 145.771 132.037 146.159 130.998 145.106C129.946 144.04 128.672 140.399 130.458 139.79Z" fill="url(#paint14_linear)"/>
<path fill-rule="evenodd" clip-rule="evenodd" d="M140.385 139.25C138.267 138.516 136.813 142.836 137.007 144.608C137.201 146.352 138.53 146.809 139.748 145.549C140.98 144.276 142.489 139.984 140.385 139.25Z" fill="#3B0201"/>
<path fill-rule="evenodd" clip-rule="evenodd" d="M140.205 139.79C138.419 139.167 137.187 142.822 137.353 144.303C137.519 145.771 138.627 146.159 139.665 145.106C140.703 144.04 141.991 140.399 140.205 139.79Z" fill="url(#paint15_linear)"/>
<path fill-rule="evenodd" clip-rule="evenodd" d="M123.577 155.089C124.103 163.645 128.243 170.47 132.743 175.163C133.103 175.537 133.283 175.994 133.283 176.52V178.735C133.283 179.081 132.881 179.248 132.632 179.026L120.241 167.521C119.825 167.133 119.618 166.649 119.618 166.095V155.199C119.618 152.693 123.425 152.583 123.577 155.089Z" fill="url(#paint16_linear)"/>
<path fill-rule="evenodd" clip-rule="evenodd" d="M130.984 176.437C127.758 173.211 124.283 170.221 120.947 167.12C120.642 166.843 120.49 166.483 120.49 166.067V155.988C120.49 154.133 123.3 154.05 123.425 155.905C123.633 159.408 124.519 162.758 125.931 165.86C127.412 169.113 129.489 172.104 132.023 174.748C133.033 175.8 131.815 177.268 130.984 176.437Z" fill="url(#paint17_linear)"/>
<path fill-rule="evenodd" clip-rule="evenodd" d="M132.064 175.745C132.064 175.44 131.967 175.205 131.76 174.997C126.762 169.792 123.508 163.202 123.065 155.933C122.982 154.535 120.836 154.59 120.836 156.002C120.836 159.367 120.836 162.717 120.836 166.081C120.836 166.4 120.947 166.663 121.182 166.884C124.533 169.999 128.229 173.211 131.233 176.216C131.483 176.451 132.064 176.243 132.064 175.745Z" fill="url(#paint18_linear)"/>
<path fill-rule="evenodd" clip-rule="evenodd" d="M147.086 155.089C146.56 163.645 142.42 170.47 137.921 175.163C137.561 175.537 137.381 175.994 137.381 176.52V178.735C137.381 179.081 137.782 179.248 138.031 179.026L150.422 167.521C150.838 167.133 151.045 166.649 151.045 166.095V155.199C151.045 152.693 147.238 152.583 147.086 155.089Z" fill="url(#paint19_linear)"/>
<path fill-rule="evenodd" clip-rule="evenodd" d="M139.679 176.437C142.905 173.211 146.38 170.221 149.716 167.12C150.021 166.843 150.173 166.483 150.173 166.067V155.988C150.173 154.133 147.363 154.05 147.238 155.905C147.017 159.408 146.144 162.758 144.732 165.86C143.251 169.113 141.174 172.104 138.64 174.748C137.63 175.8 138.848 177.268 139.679 176.437Z" fill="url(#paint20_linear)"/>
<path fill-rule="evenodd" clip-rule="evenodd" d="M138.599 175.745C138.599 175.44 138.696 175.205 138.903 174.997C143.901 169.792 147.155 163.202 147.598 155.933C147.681 154.535 149.827 154.59 149.827 156.002C149.827 159.367 149.827 162.717 149.827 166.081C149.827 166.4 149.716 166.663 149.481 166.884C146.13 169.999 142.434 173.211 139.43 176.216C139.167 176.451 138.599 176.243 138.599 175.745Z" fill="url(#paint21_linear)"/>
<path opacity="0.5" fill-rule="evenodd" clip-rule="evenodd" d="M135.332 120.74C132.341 120.74 134.902 122.678 134.902 130.085C134.902 137.492 132.341 139.333 135.332 139.333C138.322 139.333 135.761 137.492 135.761 130.085C135.747 122.678 138.322 120.74 135.332 120.74Z" fill="url(#paint22_linear)"/>
<path fill-rule="evenodd" clip-rule="evenodd" d="M121.958 126.208C124.339 123.592 127.911 121.64 133.283 121.64H133.296C133.49 121.64 133.643 121.792 133.643 121.986V137.616C133.643 137.81 133.49 137.963 133.296 137.963C127.399 137.963 126.416 144.123 125.89 147.377C125.668 148.748 125.516 149.689 124.934 149.689C124.325 149.689 122.124 147.169 120.255 144.566C118.676 142.365 117.306 140.067 117.306 139.167C117.306 137.616 117.721 130.86 121.958 126.208Z" fill="#3B0201"/>
<path fill-rule="evenodd" clip-rule="evenodd" d="M133.296 121.986C118.662 121.986 117.666 136.772 117.666 139.167C117.666 140.967 124.02 149.343 124.948 149.343C126.028 149.343 124.879 137.63 133.296 137.63C133.296 128.507 133.296 131.11 133.296 121.986Z" fill="url(#paint23_radial)"/>
<path fill-rule="evenodd" clip-rule="evenodd" d="M133.296 121.986C128.049 121.986 124.547 123.896 122.221 126.444C122.221 130.057 129.378 131.428 133.296 131.428C133.296 128.908 133.296 127.981 133.296 121.986Z" fill="url(#paint24_linear)"/>
<path opacity="0.5" fill-rule="evenodd" clip-rule="evenodd" d="M120.878 137.824C125.142 147.792 125.46 140.15 128.935 136.495C131.095 134.224 130.624 133.311 130.569 129.96C130.514 126.098 129.295 124.99 125.53 127.51C122.276 129.697 119.826 133.878 120.878 137.824Z" fill="url(#paint25_linear)"/>
<path opacity="0.5" fill-rule="evenodd" clip-rule="evenodd" d="M130.472 122.193C124.131 123.135 120.905 127.219 119.286 131.192C121.861 128.825 125.599 136.661 126.319 143.597C127.011 141.285 128.271 138.945 130.832 138.032C125.447 139.472 122.331 127.219 130.472 122.193Z" fill="url(#paint26_linear)"/>
<path fill-rule="evenodd" clip-rule="evenodd" d="M120.282 186.696L122.138 185.616C122.318 185.505 122.567 185.574 122.678 185.754L124.145 188.288C124.367 188.662 124.228 189.146 123.854 189.354L122.664 190.032C122.29 190.254 121.819 190.116 121.598 189.742L120.13 187.208C120.033 187.042 120.102 186.807 120.282 186.696Z" fill="#3B0201"/>
<path fill-rule="evenodd" clip-rule="evenodd" d="M120.282 186.696L122.138 185.616L123.605 188.15C123.716 188.33 123.647 188.579 123.467 188.689L122.276 189.368C122.096 189.479 121.847 189.409 121.736 189.229L120.282 186.696Z" fill="url(#paint27_linear)"/>
<path fill-rule="evenodd" clip-rule="evenodd" d="M123.467 192.774L125.322 191.694C125.502 191.583 125.751 191.652 125.862 191.832L127.329 194.38C127.551 194.753 127.412 195.238 127.039 195.446L125.848 196.124C125.474 196.332 125.003 196.207 124.782 195.833L123.314 193.3C123.217 193.12 123.273 192.884 123.467 192.774Z" fill="#3B0201"/>
<path fill-rule="evenodd" clip-rule="evenodd" d="M123.467 192.774L125.322 191.694L126.789 194.227C126.9 194.407 126.831 194.656 126.651 194.767L125.46 195.446C125.28 195.556 125.031 195.487 124.92 195.307L123.467 192.774Z" fill="url(#paint28_linear)"/>
<path fill-rule="evenodd" clip-rule="evenodd" d="M127.163 198.45L128.728 196.969C128.88 196.816 129.129 196.83 129.282 196.982L131.289 199.115C131.58 199.433 131.566 199.918 131.261 200.222L130.265 201.164C129.946 201.454 129.462 201.44 129.157 201.136L127.15 199.004C127.011 198.852 127.011 198.602 127.163 198.45Z" fill="#3B0201"/>
<path fill-rule="evenodd" clip-rule="evenodd" d="M127.163 198.45L128.728 196.969L130.735 199.101C130.888 199.253 130.874 199.502 130.721 199.654L129.725 200.596C129.572 200.748 129.323 200.734 129.171 200.582L127.163 198.45Z" fill="url(#paint29_linear)"/>
<path fill-rule="evenodd" clip-rule="evenodd" d="M150.367 186.696L148.512 185.616C148.332 185.505 148.082 185.574 147.972 185.754L146.504 188.288C146.283 188.662 146.421 189.146 146.795 189.354L147.986 190.032C148.359 190.254 148.83 190.116 149.052 189.742L150.519 187.208C150.616 187.042 150.561 186.807 150.367 186.696Z" fill="#3B0201"/>
<path fill-rule="evenodd" clip-rule="evenodd" d="M150.367 186.696L148.512 185.616L147.044 188.15C146.933 188.33 147.003 188.579 147.183 188.689L148.373 189.368C148.553 189.479 148.802 189.409 148.913 189.229L150.367 186.696Z" fill="url(#paint30_linear)"/>
<path fill-rule="evenodd" clip-rule="evenodd" d="M147.197 192.774L145.341 191.694C145.161 191.583 144.912 191.652 144.801 191.832L143.334 194.38C143.112 194.753 143.251 195.238 143.625 195.446L144.815 196.124C145.189 196.332 145.66 196.207 145.881 195.833L147.349 193.3C147.446 193.12 147.377 192.884 147.197 192.774Z" fill="#3B0201"/>
<path fill-rule="evenodd" clip-rule="evenodd" d="M147.197 192.774L145.341 191.694L143.874 194.241C143.763 194.421 143.832 194.67 144.012 194.781L145.203 195.459C145.383 195.57 145.632 195.501 145.743 195.321L147.197 192.774Z" fill="url(#paint31_linear)"/>
<path fill-rule="evenodd" clip-rule="evenodd" d="M143.486 198.45L141.922 196.969C141.769 196.816 141.52 196.83 141.368 196.982L139.36 199.115C139.07 199.433 139.083 199.918 139.388 200.222L140.385 201.164C140.703 201.454 141.188 201.44 141.492 201.136L143.5 199.004C143.652 198.852 143.652 198.602 143.486 198.45Z" fill="#3B0201"/>
<path fill-rule="evenodd" clip-rule="evenodd" d="M143.486 198.45L141.922 196.969L139.914 199.101C139.762 199.253 139.776 199.502 139.928 199.654L140.925 200.596C141.077 200.748 141.326 200.734 141.478 200.582L143.486 198.45Z" fill="url(#paint32_linear)"/>
<path opacity="0.5" fill-rule="evenodd" clip-rule="evenodd" d="M116.641 172.768C116.641 159.325 116.655 153.676 116.641 153.469C116.544 151.433 116.849 150.893 114.537 150.049C113.429 149.634 112.834 149.495 114.163 150.437C115.686 151.516 115.395 152.223 115.409 153.898C115.423 160.045 116.641 178.874 116.641 172.768Z" fill="url(#paint33_linear)"/>
<path opacity="0.5" fill-rule="evenodd" clip-rule="evenodd" d="M154.022 172.768C154.022 159.325 154.008 153.676 154.022 153.469C154.119 151.433 153.814 150.893 156.126 150.049C157.234 149.634 157.829 149.495 156.5 150.437C154.977 151.516 155.268 152.223 155.254 153.898C155.24 160.045 154.022 178.874 154.022 172.768Z" fill="url(#paint34_linear)"/>
<path fill-rule="evenodd" clip-rule="evenodd" d="M112.543 172.602C112.474 172.519 112.474 172.394 112.557 172.325C112.64 172.256 112.765 172.256 112.834 172.339C114.565 174.291 116.198 176.34 117.818 178.375C117.693 169.293 117.555 160.211 117.458 151.129C117.43 148.955 112.322 146.103 110.148 146.103C109.885 146.103 109.885 145.716 110.148 145.716C112.516 145.716 117.818 148.706 117.846 151.129C117.943 160.377 118.095 169.625 118.206 178.874C121.141 182.584 124.076 186.294 127.496 189.59H135.318V189.977H127.412C127.357 189.977 127.316 189.963 127.274 189.922C123.799 186.571 120.822 182.806 117.846 179.04C117.237 179.22 116.004 179.4 115.7 179.469L114.274 184.799C114.205 185.048 113.831 184.952 113.9 184.702C114.052 184.135 115.298 179.261 115.423 179.164C115.492 179.109 116.89 178.791 117.527 178.652C115.921 176.617 114.288 174.568 112.543 172.602ZM110.162 143.847C114.565 143.847 121.722 149.44 123.204 153.427C122.747 153.039 122.138 152.846 121.528 152.859C120.213 152.901 119.23 153.842 119.23 155.185V166.053C119.23 166.718 119.493 167.313 119.978 167.77L132.369 179.275C132.867 179.732 133.684 179.386 133.684 178.708V176.492C133.684 175.869 133.463 175.316 133.033 174.873C130.611 172.353 128.299 169.196 126.609 165.5C125.197 162.398 124.214 158.896 123.979 155.047C123.688 150.215 115.049 143.445 110.162 143.445C109.899 143.459 109.899 143.847 110.162 143.847ZM123.577 155.088C123.425 152.583 119.618 152.693 119.618 155.213V166.081C119.618 166.649 119.826 167.133 120.241 167.507L132.632 179.012C132.881 179.247 133.283 179.068 133.283 178.721V176.506C133.283 175.98 133.103 175.537 132.743 175.149C128.243 170.456 124.104 163.645 123.577 155.088ZM124.74 149.564C124.74 153.746 128.755 156.833 128.755 162.468C128.755 165.721 131.344 174.07 135.332 174.07V173.682C131.635 173.682 129.157 165.5 129.157 162.468C129.157 156.778 125.142 153.635 125.142 149.564C125.142 149.301 124.74 149.301 124.74 149.564Z" fill="#3B0201"/>
<path fill-rule="evenodd" clip-rule="evenodd" d="M158.106 172.602C158.176 172.519 158.176 172.394 158.092 172.325C158.009 172.256 157.885 172.256 157.816 172.339C156.085 174.291 154.451 176.34 152.831 178.375C152.956 169.293 153.094 160.211 153.191 151.129C153.219 148.955 158.328 146.103 160.501 146.103C160.764 146.103 160.764 145.716 160.501 145.716C158.134 145.716 152.831 148.706 152.804 151.129C152.707 160.377 152.555 169.625 152.444 178.874C149.509 182.584 146.574 186.294 143.154 189.59H135.332V189.977H143.237C143.292 189.977 143.334 189.963 143.376 189.922C146.851 186.571 149.827 182.806 152.804 179.04C153.413 179.22 154.645 179.4 154.95 179.469L156.376 184.799C156.445 185.048 156.819 184.952 156.749 184.702C156.597 184.135 155.351 179.261 155.227 179.164C155.157 179.109 153.759 178.791 153.122 178.652C154.742 176.617 156.376 174.568 158.106 172.602ZM160.501 143.847C156.099 143.847 148.941 149.44 147.46 153.427C147.917 153.039 148.526 152.846 149.135 152.859C150.45 152.901 151.433 153.842 151.433 155.185V166.053C151.433 166.718 151.17 167.313 150.686 167.77L138.294 179.275C137.796 179.732 136.979 179.386 136.979 178.708V176.492C136.979 175.869 137.201 175.316 137.63 174.873C140.053 172.353 142.365 169.196 144.054 165.5C145.466 162.398 146.449 158.896 146.684 155.047C146.975 150.215 155.614 143.445 160.501 143.445C160.764 143.459 160.764 143.847 160.501 143.847ZM147.086 155.088C147.238 152.583 151.045 152.693 151.045 155.213V166.081C151.045 166.649 150.838 167.133 150.422 167.507L138.031 179.012C137.782 179.247 137.381 179.068 137.381 178.721V176.506C137.381 175.98 137.561 175.537 137.921 175.149C142.42 170.456 146.56 163.645 147.086 155.088ZM145.909 149.564C145.909 153.746 141.894 156.833 141.894 162.468C141.894 165.721 139.305 174.07 135.318 174.07V173.682C139.014 173.682 141.493 165.5 141.493 162.468C141.493 156.778 145.508 153.635 145.508 149.564C145.521 149.301 145.909 149.301 145.909 149.564Z" fill="#3B0201"/>
<path fill-rule="evenodd" clip-rule="evenodd" d="M133.296 120.283C122.041 121.058 116.517 128.327 116.475 139.472C116.475 141.022 110.162 142.822 110.162 143.653C110.162 151.835 110.162 160.017 110.162 168.213C110.162 169.515 111.089 170.705 112.695 172.311C113.138 172.754 110.162 173.35 110.162 173.973C110.162 175.496 110.162 177.032 110.162 178.555C112.668 182.196 116.129 188.371 120.13 193.923C127.745 204.528 129.572 205.76 133.296 205.885C128.188 199.516 122.041 193.092 122.041 183.622C122.041 174.734 115.7 177.088 115.7 162.177C115.7 147.432 120.919 159.103 120.919 132.563C120.919 127.897 129.295 122.041 133.296 120.283Z" fill="url(#paint35_linear)"/>
<path fill-rule="evenodd" clip-rule="evenodd" d="M137.353 120.283C148.609 121.058 154.133 128.327 154.174 139.472C154.174 141.022 160.488 142.822 160.488 143.653C160.488 151.835 160.488 160.017 160.488 168.213C160.488 169.515 159.56 170.705 157.954 172.311C157.511 172.754 160.488 173.35 160.488 173.973C160.488 175.496 160.488 177.032 160.488 178.555C157.982 182.196 154.52 188.371 150.519 193.923C142.905 204.528 141.077 205.76 137.353 205.885C142.462 199.516 148.609 193.092 148.609 183.622C148.609 174.734 154.95 177.088 154.95 162.177C154.95 147.432 149.73 159.103 149.73 132.563C149.716 127.897 141.34 122.041 137.353 120.283Z" fill="url(#paint36_linear)"/>
</g>
</g>
<defs>
<linearGradient id="paint0_linear" x1="135.329" y1="198.188" x2="135.331" y2="125.902" gradientUnits="userSpaceOnUse">
<stop stop-color="#7A0604"/>
<stop offset="1" stop-color="#C2391E"/>
</linearGradient>
<radialGradient id="paint1_radial" cx="0" cy="0" r="1" gradientUnits="userSpaceOnUse" gradientTransform="translate(135.349 161.057) rotate(-89.9985) scale(40.3365 18.6354)">
<stop stop-color="#F36E21"/>
<stop offset="1" stop-color="#C2391E"/>
</radialGradient>
<linearGradient id="paint2_linear" x1="116.289" y1="177.764" x2="131.516" y2="196.798" gradientUnits="userSpaceOnUse">
<stop stop-color="#7A0604"/>
<stop offset="1" stop-color="#C2391E"/>
</linearGradient>
<linearGradient id="paint3_linear" x1="154.37" y1="177.764" x2="139.143" y2="196.798" gradientUnits="userSpaceOnUse">
<stop stop-color="#7A0604"/>
<stop offset="1" stop-color="#C2391E"/>
</linearGradient>
<linearGradient id="paint4_linear" x1="121.321" y1="203.991" x2="121.323" y2="123.364" gradientUnits="userSpaceOnUse">
<stop stop-color="#7A0604"/>
<stop offset="0.48" stop-color="#640036"/>
<stop offset="1" stop-color="#7A0604"/>
</linearGradient>
<linearGradient id="paint5_linear" x1="149.338" y1="203.991" x2="149.336" y2="123.364" gradientUnits="userSpaceOnUse">
<stop stop-color="#7A0604"/>
<stop offset="0.48" stop-color="#640036"/>
<stop offset="1" stop-color="#7A0604"/>
</linearGradient>
<linearGradient id="paint6_linear" x1="112.941" y1="174.824" x2="127.341" y2="189.948" gradientUnits="userSpaceOnUse">
<stop stop-color="#3A0000"/>
<stop offset="1" stop-color="#640036"/>
</linearGradient>
<linearGradient id="paint7_linear" x1="157.718" y1="174.824" x2="143.319" y2="189.948" gradientUnits="userSpaceOnUse">
<stop stop-color="#3A0000"/>
<stop offset="1" stop-color="#640036"/>
</linearGradient>
<radialGradient id="paint8_radial" cx="0" cy="0" r="1" gradientUnits="userSpaceOnUse" gradientTransform="translate(143.856 138.086) rotate(-90.0046) scale(13.5703 9.44898)">
<stop stop-color="#3654A5"/>
<stop offset="1"/>
</radialGradient>
<linearGradient id="paint9_linear" x1="142.906" y1="130.781" x2="142.904" y2="122.208" gradientUnits="userSpaceOnUse">
<stop/>
<stop offset="1" stop-color="#3654A5"/>
</linearGradient>
<linearGradient id="paint10_linear" x1="145.02" y1="142.471" x2="145.02" y2="126.308" gradientUnits="userSpaceOnUse">
<stop/>
<stop offset="1" stop-color="#AADDDD"/>
</linearGradient>
<linearGradient id="paint11_linear" x1="146.803" y1="128.682" x2="141.626" y2="141.526" gradientUnits="userSpaceOnUse">
<stop stop-color="#3654A5"/>
<stop offset="1" stop-color="white"/>
</linearGradient>
<linearGradient id="paint12_linear" x1="135.329" y1="166.074" x2="135.33" y2="142.651" gradientUnits="userSpaceOnUse">
<stop stop-color="#F36E21"/>
<stop offset="1" stop-color="white"/>
</linearGradient>
<linearGradient id="paint13_linear" x1="135.33" y1="189.605" x2="135.335" y2="195.867" gradientUnits="userSpaceOnUse">
<stop stop-color="#3A0000"/>
<stop offset="1" stop-color="#C2391E"/>
</linearGradient>
<linearGradient id="paint14_linear" x1="132.33" y1="145.446" x2="130.603" y2="139.999" gradientUnits="userSpaceOnUse">
<stop stop-color="#3A0000"/>
<stop offset="1" stop-color="#C2391E"/>
</linearGradient>
<linearGradient id="paint15_linear" x1="138.329" y1="145.446" x2="140.057" y2="139.999" gradientUnits="userSpaceOnUse">
<stop stop-color="#3A0000"/>
<stop offset="1" stop-color="#C2391E"/>
</linearGradient>
<linearGradient id="paint16_linear" x1="124.779" y1="166.933" x2="121.839" y2="167.869" gradientUnits="userSpaceOnUse">
<stop stop-color="#3D191E"/>
<stop offset="1" stop-color="#757367"/>
</linearGradient>
<linearGradient id="paint17_linear" x1="124.552" y1="166.342" x2="122.355" y2="167.095" gradientUnits="userSpaceOnUse">
<stop stop-color="#757367"/>
<stop offset="1" stop-color="#B2B4B4"/>
</linearGradient>
<linearGradient id="paint18_linear" x1="123.01" y1="167.411" x2="124.65" y2="166.597" gradientUnits="userSpaceOnUse">
<stop stop-color="#757367"/>
<stop offset="1" stop-color="#040000"/>
</linearGradient>
<linearGradient id="paint19_linear" x1="145.88" y1="166.933" x2="148.82" y2="167.869" gradientUnits="userSpaceOnUse">
<stop stop-color="#3D191E"/>
<stop offset="1" stop-color="#757367"/>
</linearGradient>
<linearGradient id="paint20_linear" x1="146.107" y1="166.342" x2="148.305" y2="167.095" gradientUnits="userSpaceOnUse">
<stop stop-color="#757367"/>
<stop offset="1" stop-color="#B2B4B4"/>
</linearGradient>
<linearGradient id="paint21_linear" x1="147.649" y1="167.411" x2="146.01" y2="166.597" gradientUnits="userSpaceOnUse">
<stop stop-color="#757367"/>
<stop offset="1" stop-color="#040000"/>
</linearGradient>
<linearGradient id="paint22_linear" x1="135.33" y1="121.48" x2="135.332" y2="136.271" gradientUnits="userSpaceOnUse">
<stop stop-color="#C2391E"/>
<stop offset="1" stop-color="white"/>
</linearGradient>
<radialGradient id="paint23_radial" cx="0" cy="0" r="1" gradientUnits="userSpaceOnUse" gradientTransform="translate(126.803 138.086) rotate(-89.9954) scale(13.5702 9.44893)">
<stop stop-color="#3654A5"/>
<stop offset="1"/>
</radialGradient>
<linearGradient id="paint24_linear" x1="127.754" y1="130.781" x2="127.756" y2="122.208" gradientUnits="userSpaceOnUse">
<stop/>
<stop offset="1" stop-color="#3654A5"/>
</linearGradient>
<linearGradient id="paint25_linear" x1="125.639" y1="142.471" x2="125.64" y2="126.308" gradientUnits="userSpaceOnUse">
<stop/>
<stop offset="1" stop-color="#AADDDD"/>
</linearGradient>
<linearGradient id="paint26_linear" x1="125.142" y1="127.46" x2="129.051" y2="139.211" gradientUnits="userSpaceOnUse">
<stop stop-color="#3654A5"/>
<stop offset="1" stop-color="white"/>
</linearGradient>
<linearGradient id="paint27_linear" x1="122.583" y1="188.518" x2="121.515" y2="186.674" gradientUnits="userSpaceOnUse">
<stop stop-color="#7A0604"/>
<stop offset="1" stop-color="#C2391E"/>
</linearGradient>
<linearGradient id="paint28_linear" x1="125.759" y1="194.596" x2="124.69" y2="192.753" gradientUnits="userSpaceOnUse">
<stop stop-color="#7A0604"/>
<stop offset="1" stop-color="#C2391E"/>
</linearGradient>
<linearGradient id="paint29_linear" x1="129.797" y1="199.667" x2="128.401" y2="198.194" gradientUnits="userSpaceOnUse">
<stop stop-color="#7A0604"/>
<stop offset="1" stop-color="#C2391E"/>
</linearGradient>
<linearGradient id="paint30_linear" x1="148.076" y1="188.518" x2="149.144" y2="186.674" gradientUnits="userSpaceOnUse">
<stop stop-color="#7A0604"/>
<stop offset="1" stop-color="#C2391E"/>
</linearGradient>
<linearGradient id="paint31_linear" x1="144.901" y1="194.596" x2="145.969" y2="192.753" gradientUnits="userSpaceOnUse">
<stop stop-color="#7A0604"/>
<stop offset="1" stop-color="#C2391E"/>
</linearGradient>
<linearGradient id="paint32_linear" x1="140.863" y1="199.667" x2="142.259" y2="198.194" gradientUnits="userSpaceOnUse">
<stop stop-color="#7A0604"/>
<stop offset="1" stop-color="#C2391E"/>
</linearGradient>
<linearGradient id="paint33_linear" x1="124.105" y1="171.912" x2="109.83" y2="154.456" gradientUnits="userSpaceOnUse">
<stop stop-color="#C2391E"/>
<stop offset="1" stop-color="#F3CAD9"/>
</linearGradient>
<linearGradient id="paint34_linear" x1="146.555" y1="171.912" x2="160.83" y2="154.455" gradientUnits="userSpaceOnUse">
<stop stop-color="#C2391E"/>
<stop offset="1" stop-color="#F3CAD9"/>
</linearGradient>
<linearGradient id="paint35_linear" x1="109.849" y1="163.09" x2="124.328" y2="163.088" gradientUnits="userSpaceOnUse">
<stop stop-color="#7A0604"/>
<stop offset="1" stop-color="white"/>
</linearGradient>
<linearGradient id="paint36_linear" x1="160.793" y1="163.086" x2="146.314" y2="163.084" gradientUnits="userSpaceOnUse">
<stop stop-color="#7A0604"/>
<stop offset="1" stop-color="white"/>
</linearGradient>
<clipPath id="clip0">
<rect width="270" height="370" fill="white"/>
</clipPath>
<clipPath id="clip1">
<rect x="66.2742" y="118.649" width="138.115" height="125.489" fill="white"/>
</clipPath>
</defs>
</svg>
