<svg width="270" height="370" viewBox="0 0 270 370" fill="none" xmlns="http://www.w3.org/2000/svg">
<g clip-path="url(#clip0)">
<g clip-path="url(#clip1)">
<path fill-rule="evenodd" clip-rule="evenodd" d="M135.332 120.269C122.705 120.269 116.517 127.731 116.475 139.527C116.475 141.078 110.162 142.877 110.162 143.708C110.162 151.89 110.162 160.073 110.162 168.269C110.162 169.57 111.089 170.761 112.695 172.367C113.138 172.81 110.162 173.405 110.162 174.028C110.162 175.551 110.162 177.088 110.162 178.611C112.668 182.252 116.129 188.427 120.13 193.978C129.005 206.328 130.015 205.968 135.345 205.968C140.662 205.968 141.672 206.342 150.561 193.978C154.548 188.427 158.023 182.266 160.529 178.611C160.529 177.088 160.529 175.551 160.529 174.028C160.529 173.405 157.552 172.81 157.995 172.367C159.615 170.747 160.529 169.57 160.529 168.269C160.529 160.086 160.529 151.904 160.529 143.708C160.529 142.877 154.216 141.078 154.216 139.527C154.147 127.731 147.944 120.269 135.332 120.269Z" fill="url(#paint0_linear)"/>
<path fill-rule="evenodd" clip-rule="evenodd" d="M110.148 174.028C110.148 175.551 110.148 177.088 110.148 178.611C112.654 182.252 116.115 188.427 120.116 193.978C128.991 206.328 130.001 205.968 135.332 205.968C140.648 205.968 141.659 206.342 150.547 193.978C154.534 188.427 158.009 182.266 160.515 178.611C160.515 177.088 160.515 175.551 160.515 174.028C160.515 173.405 157.539 172.81 157.982 172.367C159.601 170.747 160.515 169.57 160.515 168.269C160.515 160.086 160.515 151.904 160.515 143.708C160.515 142.877 154.202 141.078 154.202 139.527C154.16 127.731 147.958 120.269 135.345 120.269C122.733 120.269 116.503 127.731 116.461 139.527C116.461 141.078 110.148 142.877 110.148 143.708C110.148 151.89 110.148 160.073 110.148 168.269C110.148 169.57 111.076 170.761 112.682 172.367C113.125 172.81 110.148 173.405 110.148 174.028ZM120.282 124.146C123.702 120.643 128.714 118.705 135.318 118.705C141.922 118.705 146.933 120.657 150.353 124.146C153.925 127.801 155.711 133.075 155.725 139.513C155.725 139.61 157.331 140.164 158.701 140.801C160.487 141.631 162.052 142.351 162.052 143.708V168.269C162.052 169.252 161.733 170.138 161.138 171.051C160.93 171.37 160.695 171.688 160.418 172.021C161.304 172.436 162.066 172.976 162.066 174.028V178.611C162.066 178.915 161.983 179.22 161.789 179.497C160.82 180.909 159.671 182.764 158.397 184.799C156.472 187.9 154.257 191.472 151.793 194.892C142.711 207.532 141.354 207.532 135.775 207.518H135.318H134.861C129.281 207.532 127.925 207.532 118.843 194.892C116.392 191.472 114.177 187.9 112.252 184.799C111.006 182.792 109.885 180.978 108.916 179.58C108.708 179.317 108.584 178.984 108.584 178.611V174.028C108.584 172.976 109.345 172.436 110.231 172.021C109.954 171.688 109.719 171.37 109.511 171.051C108.916 170.138 108.597 169.238 108.597 168.269V143.708C108.597 142.365 110.148 141.631 111.948 140.801C113.305 140.164 114.924 139.624 114.924 139.513C114.938 133.075 116.71 127.801 120.282 124.146Z" fill="black"/>
<path opacity="0.5" fill-rule="evenodd" clip-rule="evenodd" d="M146.892 177.766L142.988 189.908H127.662L123.757 177.766L127.177 174.485C127.551 167.784 125.516 148.097 119.216 143.708C119.216 142.877 123.259 141.078 123.259 139.527C123.287 127.731 127.246 120.269 135.332 120.269C143.403 120.269 147.377 127.731 147.404 139.527C147.404 141.078 151.447 142.877 151.447 143.708C145.148 148.111 143.112 167.784 143.486 174.485L146.892 177.766Z" fill="url(#paint1_radial)"/>
<path fill-rule="evenodd" clip-rule="evenodd" d="M112.654 172.505C112.875 172.851 110.162 173.405 110.162 174.028C110.162 175.551 110.162 177.088 110.162 178.611C112.668 182.252 116.129 188.427 120.13 193.978C129.005 206.328 130.015 205.968 135.345 205.968C135.345 200.956 135.345 194.864 135.345 189.866L127.482 189.894L112.654 172.505Z" fill="url(#paint2_linear)"/>
<path fill-rule="evenodd" clip-rule="evenodd" d="M157.995 172.505C157.774 172.851 160.487 173.405 160.487 174.028C160.487 175.551 160.487 177.088 160.487 178.611C157.982 182.252 154.52 188.427 150.519 193.978C141.645 206.328 140.634 205.968 135.304 205.968C135.304 200.956 135.304 194.864 135.304 189.866L143.168 189.894L157.995 172.505Z" fill="url(#paint3_linear)"/>
<path fill-rule="evenodd" clip-rule="evenodd" d="M130.777 120.629C121.21 122.263 116.503 129.254 116.475 139.527C116.475 141.078 110.162 142.877 110.162 143.708C110.162 151.89 110.162 160.073 110.162 168.269C110.162 169.57 111.089 170.761 112.695 172.367C113.138 172.81 110.162 173.405 110.162 174.028C110.162 175.551 110.162 177.088 110.162 178.611C112.668 182.252 116.129 188.427 120.13 193.978C127.177 203.794 129.268 205.58 132.493 205.899C123.522 200.195 116.24 180.203 116.24 176.451C111.796 168.933 111.671 166.026 111.796 161.111C111.934 155.864 111.186 145.909 116.918 149.481C117.527 148.775 118.192 148.235 118.912 147.889C115.298 142.379 123.259 123.287 130.777 120.629Z" fill="url(#paint4_linear)"/>
<path fill-rule="evenodd" clip-rule="evenodd" d="M139.873 120.629C149.439 122.263 154.147 129.254 154.188 139.527C154.188 141.078 160.501 142.877 160.501 143.708C160.501 151.89 160.501 160.073 160.501 168.269C160.501 169.57 159.574 170.761 157.968 172.367C157.525 172.81 160.501 173.405 160.501 174.028C160.501 175.551 160.501 177.088 160.501 178.611C157.995 182.252 154.534 188.427 150.533 193.978C143.486 203.794 141.396 205.58 138.17 205.899C147.127 200.195 154.41 180.203 154.41 176.451C158.854 168.933 158.978 166.026 158.854 161.111C158.715 155.864 159.463 145.909 153.731 149.481C153.122 148.775 152.458 148.235 151.738 147.889C155.351 142.379 147.39 123.287 139.873 120.629Z" fill="url(#paint5_linear)"/>
<path fill-rule="evenodd" clip-rule="evenodd" d="M112.654 172.505C113 172.727 110.162 173.585 110.162 174.028C112.419 176.091 114.938 178.735 117.416 181.297C118.995 180.549 124.81 187.457 127.468 189.894C122.525 184.093 117.583 178.292 112.654 172.505Z" fill="url(#paint6_linear)"/>
<path fill-rule="evenodd" clip-rule="evenodd" d="M157.995 172.505C157.649 172.727 160.488 173.585 160.488 174.028C158.231 176.091 155.711 178.735 153.233 181.297C151.655 180.549 145.84 187.457 143.182 189.894C148.124 184.093 153.067 178.292 157.995 172.505Z" fill="url(#paint7_linear)"/>
<path opacity="0.5" fill-rule="evenodd" clip-rule="evenodd" d="M133.933 137.907C128.562 138.586 126.803 143.127 126.803 144.553C126.803 153.123 130.555 149.952 130.555 154.438C130.555 161.623 133.061 163.077 135.318 163.077C137.574 163.077 140.08 161.623 140.08 154.438C140.08 149.952 143.832 153.123 143.832 144.553C143.832 143.127 142.074 138.586 136.702 137.907C136.495 136.578 135.733 134.197 135.733 130.14C135.733 122.733 138.308 120.795 135.304 120.795C132.313 120.795 134.875 122.733 134.875 130.14C134.902 134.183 134.141 136.578 133.933 137.907Z" fill="url(#paint8_linear)"/>
<path opacity="0.5" fill-rule="evenodd" clip-rule="evenodd" d="M127.343 189.659L129.683 195.917H140.966L143.306 189.659H127.343Z" fill="url(#paint9_linear)"/>
<path fill-rule="evenodd" clip-rule="evenodd" d="M121.958 126.264C124.339 123.647 127.911 121.695 133.283 121.695H133.296C133.49 121.695 133.643 121.847 133.643 122.041V137.672C133.643 137.866 133.49 138.018 133.296 138.018C127.399 138.018 126.416 144.179 125.89 147.432C125.668 148.803 125.516 149.744 124.934 149.744C124.325 149.744 122.124 147.225 120.255 144.622C118.676 142.421 117.306 140.122 117.306 139.222C117.306 137.658 117.721 130.916 121.958 126.264Z" fill="#3B0201"/>
<path fill-rule="evenodd" clip-rule="evenodd" d="M133.283 122.041C118.649 122.041 117.652 136.827 117.652 139.223C117.652 141.022 124.007 149.398 124.934 149.398C126.014 149.398 124.865 137.686 133.283 137.686C133.283 128.562 133.283 131.165 133.283 122.041Z" fill="url(#paint10_linear)"/>
<path fill-rule="evenodd" clip-rule="evenodd" d="M131.248 123.329C126.776 123.827 123.231 126.028 121.016 130.279C119.701 132.812 118.829 136.343 118.815 139.195C118.926 140.122 121.335 143.68 123.245 146.076C123.661 146.602 124.505 146.394 124.63 145.73C124.893 144.262 125.239 142.85 125.89 141.424C127.053 138.876 128.908 137.187 131.483 136.675C131.857 136.606 132.106 136.287 132.106 135.914C132.106 131.982 132.106 128.036 132.106 124.104C132.12 123.633 131.718 123.273 131.248 123.329Z" fill="url(#paint11_radial)"/>
<path fill-rule="evenodd" clip-rule="evenodd" d="M131.247 123.329C127.675 123.509 125.294 125.046 123.633 126.776C123.633 129.42 129.115 130.417 132.12 130.417C132.12 128.701 132.12 127.994 132.12 124.326C132.12 123.647 131.787 123.301 131.247 123.329Z" fill="url(#paint12_linear)"/>
<path opacity="0.5" fill-rule="evenodd" clip-rule="evenodd" d="M121.778 136.315C125.46 144.913 125.737 138.323 128.742 135.166C130.611 133.214 130.195 132.425 130.154 129.531C130.112 126.208 129.06 125.239 125.806 127.427C122.982 129.296 120.864 132.909 121.778 136.315Z" fill="url(#paint13_linear)"/>
<path opacity="0.5" fill-rule="evenodd" clip-rule="evenodd" d="M130.472 122.249C124.131 123.19 120.905 127.274 119.286 131.248C121.861 128.88 125.599 136.717 126.319 143.653C127.011 141.341 128.271 139.001 130.832 138.087C125.446 139.513 122.331 127.274 130.472 122.249Z" fill="url(#paint14_linear)"/>
<path fill-rule="evenodd" clip-rule="evenodd" d="M148.692 126.236C146.31 123.619 142.739 121.667 137.367 121.667H137.353C137.159 121.667 137.007 121.82 137.007 122.013V137.644C137.007 137.838 137.159 137.99 137.353 137.99C143.251 137.99 144.234 144.151 144.76 147.405C144.981 148.775 145.134 149.717 145.715 149.717C146.324 149.717 148.526 147.197 150.395 144.594C151.973 142.393 153.344 140.095 153.344 139.195C153.344 137.644 152.914 130.888 148.692 126.236Z" fill="#3B0201"/>
<path fill-rule="evenodd" clip-rule="evenodd" d="M137.353 122.014C151.987 122.014 152.984 136.8 152.984 139.195C152.984 140.995 146.629 149.371 145.701 149.371C144.621 149.371 145.77 137.658 137.353 137.658C137.353 128.534 137.353 131.137 137.353 122.014Z" fill="url(#paint15_linear)"/>
<path fill-rule="evenodd" clip-rule="evenodd" d="M139.388 123.301C143.874 123.799 147.404 125.987 149.619 130.251C150.935 132.785 151.807 136.315 151.821 139.167C151.71 140.095 149.301 143.653 147.39 146.048C146.975 146.574 146.131 146.366 146.006 145.702C145.743 144.234 145.397 142.822 144.746 141.396C143.583 138.849 141.728 137.16 139.153 136.647C138.779 136.578 138.53 136.26 138.53 135.886C138.53 131.954 138.53 128.008 138.53 124.076C138.53 123.606 138.931 123.246 139.388 123.301Z" fill="url(#paint16_radial)"/>
<path fill-rule="evenodd" clip-rule="evenodd" d="M139.388 123.301C142.96 123.481 145.341 125.018 147.003 126.748C147.003 129.393 141.52 130.39 138.516 130.39C138.516 128.673 138.516 127.967 138.516 124.298C138.53 123.62 138.848 123.273 139.388 123.301Z" fill="url(#paint17_linear)"/>
<path opacity="0.5" fill-rule="evenodd" clip-rule="evenodd" d="M148.872 136.287C145.189 144.885 144.912 138.295 141.908 135.138C140.039 133.186 140.454 132.397 140.496 129.503C140.537 126.167 141.589 125.212 144.843 127.385C147.653 129.268 149.785 132.882 148.872 136.287Z" fill="url(#paint18_linear)"/>
<path opacity="0.5" fill-rule="evenodd" clip-rule="evenodd" d="M140.163 122.221C146.504 123.163 149.73 127.247 151.35 131.22C148.775 128.853 145.037 136.689 144.317 143.625C143.625 141.313 142.365 138.973 139.803 138.059C145.203 139.499 148.318 127.247 140.163 122.221Z" fill="url(#paint19_linear)"/>
<path fill-rule="evenodd" clip-rule="evenodd" d="M120.282 186.751L122.138 185.672C122.318 185.561 122.567 185.63 122.677 185.81L124.145 188.344C124.367 188.717 124.228 189.202 123.854 189.41L122.664 190.088C122.29 190.296 121.819 190.171 121.598 189.797L120.13 187.264C120.033 187.098 120.102 186.862 120.282 186.751Z" fill="#3B0201"/>
<path fill-rule="evenodd" clip-rule="evenodd" d="M120.282 186.751L122.138 185.672L123.605 188.205C123.716 188.385 123.647 188.634 123.467 188.745L122.276 189.423C122.096 189.534 121.847 189.465 121.736 189.285L120.282 186.751Z" fill="url(#paint20_linear)"/>
<path fill-rule="evenodd" clip-rule="evenodd" d="M123.453 192.829L125.308 191.749C125.488 191.639 125.737 191.708 125.848 191.888L127.316 194.421C127.537 194.795 127.399 195.28 127.025 195.487L125.834 196.166C125.46 196.373 124.99 196.249 124.768 195.875L123.314 193.355C123.204 193.175 123.273 192.94 123.453 192.829Z" fill="#3B0201"/>
<path fill-rule="evenodd" clip-rule="evenodd" d="M123.453 192.829L125.308 191.749L126.776 194.283C126.886 194.463 126.817 194.712 126.637 194.823L125.447 195.501C125.267 195.612 125.017 195.543 124.907 195.363L123.453 192.829Z" fill="url(#paint21_linear)"/>
<path fill-rule="evenodd" clip-rule="evenodd" d="M127.163 198.506L128.728 197.024C128.88 196.872 129.129 196.886 129.281 197.038L131.289 199.17C131.58 199.489 131.566 199.973 131.261 200.278L130.264 201.219C129.946 201.51 129.461 201.496 129.157 201.191L127.149 199.059C126.997 198.907 127.011 198.658 127.163 198.506Z" fill="#3B0201"/>
<path fill-rule="evenodd" clip-rule="evenodd" d="M127.163 198.506L128.728 197.024L130.735 199.156C130.887 199.309 130.873 199.558 130.721 199.71L129.724 200.651C129.572 200.804 129.323 200.79 129.171 200.638L127.163 198.506Z" fill="url(#paint22_linear)"/>
<path fill-rule="evenodd" clip-rule="evenodd" d="M150.367 186.751L148.512 185.672C148.332 185.561 148.083 185.63 147.972 185.81L146.504 188.344C146.283 188.717 146.421 189.202 146.795 189.41L147.986 190.088C148.359 190.296 148.83 190.171 149.052 189.797L150.519 187.264C150.616 187.098 150.547 186.862 150.367 186.751Z" fill="#3B0201"/>
<path fill-rule="evenodd" clip-rule="evenodd" d="M150.367 186.751L148.512 185.672L147.044 188.205C146.933 188.385 147.003 188.634 147.183 188.745L148.373 189.423C148.553 189.534 148.802 189.465 148.913 189.285L150.367 186.751Z" fill="url(#paint23_linear)"/>
<path fill-rule="evenodd" clip-rule="evenodd" d="M147.196 192.829L145.327 191.749C145.147 191.639 144.898 191.708 144.787 191.888L143.32 194.421C143.098 194.795 143.237 195.28 143.611 195.487L144.801 196.166C145.175 196.373 145.646 196.249 145.867 195.875L147.335 193.341C147.446 193.175 147.376 192.94 147.196 192.829Z" fill="#3B0201"/>
<path fill-rule="evenodd" clip-rule="evenodd" d="M147.196 192.829L145.327 191.749L143.86 194.283C143.749 194.463 143.818 194.712 143.998 194.823L145.189 195.501C145.369 195.612 145.618 195.543 145.729 195.363L147.196 192.829Z" fill="url(#paint24_linear)"/>
<path fill-rule="evenodd" clip-rule="evenodd" d="M143.486 198.506L141.922 197.024C141.769 196.872 141.52 196.886 141.368 197.038L139.36 199.17C139.07 199.489 139.084 199.973 139.388 200.278L140.385 201.219C140.703 201.51 141.188 201.496 141.493 201.191L143.5 199.059C143.652 198.907 143.638 198.658 143.486 198.506Z" fill="#3B0201"/>
<path fill-rule="evenodd" clip-rule="evenodd" d="M143.486 198.506L141.922 197.024L139.914 199.156C139.762 199.309 139.776 199.558 139.928 199.71L140.925 200.651C141.077 200.804 141.326 200.79 141.479 200.638L143.486 198.506Z" fill="url(#paint25_linear)"/>
<path opacity="0.5" fill-rule="evenodd" clip-rule="evenodd" d="M116.627 172.824C116.627 159.38 116.641 153.732 116.627 153.524C116.531 151.489 116.835 150.949 114.523 150.104C113.416 149.689 112.82 149.551 114.149 150.492C115.672 151.572 115.381 152.278 115.395 153.953C115.409 160.086 116.627 178.929 116.627 172.824Z" fill="url(#paint26_linear)"/>
<path opacity="0.5" fill-rule="evenodd" clip-rule="evenodd" d="M154.022 172.824C154.022 159.38 154.008 153.732 154.022 153.524C154.119 151.489 153.814 150.949 156.126 150.104C157.234 149.689 157.829 149.551 156.5 150.492C154.977 151.572 155.268 152.278 155.254 153.953C155.24 160.086 154.022 178.929 154.022 172.824Z" fill="url(#paint27_linear)"/>
<path fill-rule="evenodd" clip-rule="evenodd" d="M124.74 149.537C124.74 149.371 125.128 149.371 125.128 149.537C125.128 152.112 129.143 154.105 129.143 157.705C129.143 159.63 131.635 164.807 135.318 164.807C139.014 164.807 141.493 159.63 141.493 157.705C141.493 154.092 145.508 152.112 145.508 149.537C145.508 149.371 145.895 149.371 145.895 149.537C145.895 152.195 141.88 154.147 141.88 157.705C141.88 159.768 139.291 165.057 135.304 165.057C131.331 165.057 128.728 159.768 128.728 157.705C128.755 154.147 124.74 152.195 124.74 149.537Z" fill="#3B0201"/>
<path fill-rule="evenodd" clip-rule="evenodd" d="M112.543 172.657C112.474 172.574 112.474 172.45 112.557 172.381C112.64 172.311 112.765 172.311 112.834 172.394C114.565 174.346 116.198 176.396 117.818 178.431L117.458 151.184C117.43 149.011 112.322 146.159 110.148 146.159C109.885 146.159 109.885 145.771 110.148 145.771C112.516 145.771 117.818 148.761 117.846 151.184C117.929 158.3 118.026 165.417 118.123 172.533C123.937 172.796 127.579 188.108 135.318 188.108V188.496C127.385 188.496 123.688 173.197 118.123 172.92C118.15 174.928 118.178 176.922 118.206 178.929C121.141 182.639 124.076 186.35 127.496 189.645H135.318V190.033H127.412C127.357 190.033 127.316 190.019 127.274 189.977C123.799 186.627 120.822 182.861 117.846 179.095C117.237 179.275 116.004 179.455 115.7 179.524L114.274 184.855C114.205 185.104 113.831 185.007 113.9 184.758C114.052 184.19 115.298 179.317 115.423 179.22C115.492 179.164 116.89 178.846 117.527 178.708C115.907 176.659 114.274 174.623 112.543 172.657Z" fill="#3B0201"/>
<path fill-rule="evenodd" clip-rule="evenodd" d="M158.106 172.657C158.175 172.574 158.175 172.45 158.092 172.381C158.009 172.311 157.885 172.311 157.816 172.394C156.085 174.346 154.451 176.396 152.831 178.431L153.191 151.184C153.219 149.011 158.328 146.159 160.501 146.159C160.764 146.159 160.764 145.771 160.501 145.771C158.134 145.771 152.831 148.761 152.804 151.184C152.721 158.3 152.624 165.417 152.527 172.533C146.712 172.796 143.071 188.108 135.332 188.108V188.496C143.265 188.496 146.961 173.197 152.527 172.92C152.499 174.928 152.471 176.922 152.444 178.929C149.509 182.639 146.574 186.35 143.154 189.645H135.332V190.033H143.237C143.292 190.033 143.334 190.019 143.375 189.977C146.85 186.627 149.827 182.861 152.804 179.095C153.413 179.275 154.645 179.455 154.95 179.524L156.376 184.855C156.445 185.104 156.819 185.007 156.749 184.758C156.597 184.19 155.351 179.317 155.227 179.22C155.157 179.164 153.759 178.846 153.122 178.708C154.742 176.659 156.376 174.623 158.106 172.657Z" fill="#3B0201"/>
<path fill-rule="evenodd" clip-rule="evenodd" d="M120.85 152.929H121.57C122.747 152.929 123.827 153.413 124.602 154.189C125.377 154.964 125.862 156.044 125.862 157.221V163.132C125.862 163.381 125.89 163.617 125.931 163.838C125.973 164.06 126.042 164.281 126.153 164.517L129.212 171.674C129.337 171.979 129.406 172.297 129.406 172.602C129.406 173.073 129.268 173.516 129.018 173.89C128.769 174.263 128.409 174.568 127.98 174.748C127.703 174.873 127.385 174.942 127.052 174.942H125.89C125.419 174.942 124.962 174.803 124.588 174.554C124.214 174.305 123.91 173.945 123.73 173.516L120.019 164.821C119.895 164.544 119.812 164.268 119.756 163.991C119.701 163.714 119.673 163.423 119.673 163.132V154.106C119.673 153.787 119.812 153.482 120.019 153.275C120.227 153.067 120.518 152.929 120.85 152.929Z" fill="#3B0201"/>
<path fill-rule="evenodd" clip-rule="evenodd" d="M120.85 153.33H121.57C123.716 153.33 125.474 155.088 125.474 157.234V163.146C125.474 163.7 125.571 164.171 125.793 164.683L128.852 171.841C129.406 173.128 128.465 174.568 127.052 174.568H125.89C125.087 174.568 124.408 174.111 124.09 173.377L120.379 164.683C120.158 164.171 120.061 163.7 120.061 163.146V154.119C120.061 153.676 120.421 153.33 120.85 153.33Z" fill="url(#paint28_linear)"/>
<path opacity="0.5" fill-rule="evenodd" clip-rule="evenodd" d="M125.779 164.669C126.803 167.05 127.814 169.445 128.838 171.827C126.305 167.092 120.365 160.654 120.379 164.669C120.158 164.157 120.061 163.686 120.061 163.132C120.061 160.972 120.061 158.827 120.061 156.667C121.487 161.429 126.665 168.407 125.779 164.669Z" fill="url(#paint29_linear)"/>
<path fill-rule="evenodd" clip-rule="evenodd" d="M122.622 154.964C123.55 155.407 124.283 157.567 124.283 159.796C124.283 162.025 123.536 163.492 122.622 163.049C121.694 162.606 120.961 160.446 120.961 158.217C120.961 155.988 121.708 154.535 122.622 154.964Z" fill="#525252"/>
<path fill-rule="evenodd" clip-rule="evenodd" d="M122.622 154.964C123.37 155.31 123.965 157.068 123.965 158.882C123.965 160.696 123.356 161.872 122.622 161.512C121.874 161.166 121.279 159.408 121.279 157.594C121.279 155.795 121.888 154.618 122.622 154.964Z" fill="url(#paint30_linear)"/>
<path fill-rule="evenodd" clip-rule="evenodd" d="M149.799 152.929H149.079C147.903 152.929 146.823 153.413 146.047 154.189C145.272 154.964 144.788 156.044 144.788 157.221V163.132C144.788 163.381 144.76 163.617 144.718 163.838C144.677 164.06 144.608 164.281 144.497 164.517L141.451 171.674C141.326 171.979 141.257 172.297 141.257 172.602C141.257 173.073 141.396 173.516 141.645 173.89C141.894 174.263 142.254 174.568 142.683 174.748C142.96 174.873 143.279 174.942 143.611 174.942H144.774C145.244 174.942 145.701 174.803 146.075 174.554C146.449 174.305 146.754 173.945 146.934 173.516L150.644 164.821C150.769 164.544 150.852 164.268 150.907 163.991C150.962 163.714 150.99 163.423 150.99 163.132V154.106C150.99 153.787 150.852 153.482 150.644 153.275C150.422 153.067 150.132 152.929 149.799 152.929Z" fill="#3B0201"/>
<path fill-rule="evenodd" clip-rule="evenodd" d="M149.799 153.33H149.079C146.934 153.33 145.175 155.088 145.175 157.234V163.146C145.175 163.7 145.078 164.171 144.857 164.683L141.797 171.841C141.243 173.128 142.185 174.568 143.597 174.568H144.76C145.563 174.568 146.241 174.111 146.56 173.377L150.27 164.683C150.492 164.171 150.589 163.7 150.589 163.146V154.119C150.589 153.676 150.229 153.33 149.799 153.33Z" fill="url(#paint31_linear)"/>
<path opacity="0.5" fill-rule="evenodd" clip-rule="evenodd" d="M144.871 164.669C143.846 167.05 142.835 169.445 141.811 171.827C144.344 167.092 150.284 160.654 150.27 164.669C150.492 164.157 150.588 163.686 150.588 163.132C150.588 160.972 150.588 158.827 150.588 156.667C149.162 161.429 143.985 168.407 144.871 164.669Z" fill="url(#paint32_linear)"/>
<path fill-rule="evenodd" clip-rule="evenodd" d="M148.027 154.964C147.1 155.407 146.366 157.567 146.366 159.796C146.366 162.025 147.114 163.492 148.027 163.049C148.955 162.606 149.689 160.446 149.689 158.217C149.689 155.988 148.941 154.535 148.027 154.964Z" fill="#525252"/>
<path fill-rule="evenodd" clip-rule="evenodd" d="M148.027 154.964C147.28 155.31 146.684 157.068 146.684 158.882C146.684 160.696 147.293 161.872 148.027 161.512C148.775 161.166 149.37 159.408 149.37 157.594C149.37 155.795 148.761 154.618 148.027 154.964Z" fill="url(#paint33_linear)"/>
<path fill-rule="evenodd" clip-rule="evenodd" d="M110.148 147.889L114.703 150.561C115.935 151.281 116.627 152.499 116.627 153.925V168.822C116.627 170.331 114.994 171.273 113.678 170.511L110.134 168.435V147.889H110.148Z" fill="url(#paint34_linear)"/>
<path fill-rule="evenodd" clip-rule="evenodd" d="M110.148 149.232L113.872 151.586C114.883 152.223 115.451 153.303 115.451 154.562V167.715C115.451 169.058 114.108 169.875 113.042 169.196L110.134 167.369V149.232H110.148Z" fill="#BCBCBC"/>
<path fill-rule="evenodd" clip-rule="evenodd" d="M160.501 147.889L155.946 150.561C154.714 151.281 154.022 152.499 154.022 153.925V168.822C154.022 170.331 155.656 171.273 156.971 170.511L160.515 168.435V147.889H160.501Z" fill="url(#paint35_linear)"/>
<path fill-rule="evenodd" clip-rule="evenodd" d="M160.501 149.232L156.777 151.586C155.766 152.223 155.199 153.303 155.199 154.562V167.715C155.199 169.058 156.542 169.875 157.608 169.196L160.515 167.369V149.232H160.501Z" fill="#BCBCBC"/>
<path fill-rule="evenodd" clip-rule="evenodd" d="M131.206 175.233C132.258 174.18 133.712 173.53 135.332 173.53C136.938 173.53 138.391 174.18 139.457 175.233C140.509 176.285 141.16 177.738 141.16 179.358C141.16 180.964 140.509 182.418 139.457 183.484C138.405 184.536 136.951 185.187 135.332 185.187C133.726 185.187 132.272 184.536 131.206 183.484C130.154 182.432 129.503 180.978 129.503 179.358C129.503 177.738 130.154 176.285 131.206 175.233Z" fill="#3B0201"/>
<path d="M135.331 184.785C138.336 184.785 140.772 182.349 140.772 179.344C140.772 176.339 138.336 173.903 135.331 173.903C132.327 173.903 129.891 176.339 129.891 179.344C129.891 182.349 132.327 184.785 135.331 184.785Z" fill="url(#paint36_linear)"/>
<path fill-rule="evenodd" clip-rule="evenodd" d="M135.332 175.233C133.061 175.233 131.206 177.074 131.206 179.358C131.206 181.629 133.047 183.484 135.332 183.484C137.602 183.484 139.457 181.643 139.457 179.358C139.443 177.074 137.602 175.233 135.332 175.233Z" fill="url(#paint37_linear)"/>
<path fill-rule="evenodd" clip-rule="evenodd" d="M135.332 176.769C133.906 176.769 132.756 177.918 132.756 179.344C132.756 180.77 133.906 181.92 135.332 181.92C136.758 181.92 137.907 180.77 137.907 179.344C137.907 177.918 136.744 176.769 135.332 176.769Z" fill="url(#paint38_linear)"/>
<path fill-rule="evenodd" clip-rule="evenodd" d="M135.332 177.572C134.349 177.572 133.559 178.361 133.559 179.344C133.559 180.327 134.349 181.117 135.332 181.117C136.315 181.117 137.104 180.327 137.104 179.344C137.104 178.361 136.301 177.572 135.332 177.572Z" fill="url(#paint39_linear)"/>
<path fill-rule="evenodd" clip-rule="evenodd" d="M132.881 167.133C133.504 166.51 134.376 166.123 135.332 166.123C136.287 166.123 137.145 166.51 137.782 167.133C138.405 167.756 138.793 168.629 138.793 169.584C138.793 170.539 138.405 171.398 137.782 172.034C137.159 172.657 136.287 173.045 135.332 173.045C134.376 173.045 133.518 172.657 132.881 172.034C132.258 171.411 131.87 170.539 131.87 169.584C131.87 168.629 132.258 167.756 132.881 167.133Z" fill="#3B0201"/>
<path fill-rule="evenodd" clip-rule="evenodd" d="M135.332 166.441C133.601 166.441 132.189 167.839 132.189 169.584C132.189 171.314 133.587 172.727 135.332 172.727C137.062 172.727 138.474 171.328 138.474 169.584C138.46 167.853 137.062 166.441 135.332 166.441Z" fill="url(#paint40_linear)"/>
<path d="M135.332 171.965C136.647 171.965 137.713 170.899 137.713 169.584C137.713 168.269 136.647 167.203 135.332 167.203C134.016 167.203 132.95 168.269 132.95 169.584C132.95 170.899 134.016 171.965 135.332 171.965Z" fill="url(#paint41_linear)"/>
<path d="M135.332 171.065C136.15 171.065 136.813 170.402 136.813 169.584C136.813 168.766 136.15 168.103 135.332 168.103C134.513 168.103 133.85 168.766 133.85 169.584C133.85 170.402 134.513 171.065 135.332 171.065Z" fill="url(#paint42_linear)"/>
<path d="M135.332 170.608C135.897 170.608 136.356 170.15 136.356 169.584C136.356 169.018 135.897 168.559 135.332 168.559C134.766 168.559 134.307 169.018 134.307 169.584C134.307 170.15 134.766 170.608 135.332 170.608Z" fill="url(#paint43_linear)"/>
<path fill-rule="evenodd" clip-rule="evenodd" d="M119.95 150.201H122.248C123.107 150.201 123.107 152.527 122.248 152.527H119.95C119.092 152.541 119.092 150.201 119.95 150.201Z" fill="#3B0201"/>
<path fill-rule="evenodd" clip-rule="evenodd" d="M119.743 150.561H122.041C122.636 150.561 122.636 152.181 122.041 152.181H119.743C119.161 152.181 119.161 150.561 119.743 150.561Z" fill="url(#paint44_linear)"/>
<path fill-rule="evenodd" clip-rule="evenodd" d="M119.881 150.714H121.916C122.442 150.714 122.442 152.043 121.916 152.043H119.881C119.355 152.029 119.355 150.714 119.881 150.714Z" fill="url(#paint45_radial)"/>
<path opacity="0.5" fill-rule="evenodd" clip-rule="evenodd" d="M119.743 150.561C120.504 150.561 121.279 150.561 122.041 150.561C120.462 151.115 122.041 151.046 122.041 152.181C121.279 152.181 120.504 152.181 119.743 152.181C121.958 152.029 119.743 151.433 119.743 150.561Z" fill="url(#paint46_linear)"/>
<path fill-rule="evenodd" clip-rule="evenodd" d="M127.066 176.368L128.783 178.708C129.42 179.58 127.537 180.95 126.9 180.078L125.183 177.738C124.56 176.88 126.429 175.509 127.066 176.368Z" fill="#3B0201"/>
<path fill-rule="evenodd" clip-rule="evenodd" d="M126.79 176.575L128.506 178.915C128.949 179.511 127.634 180.48 127.191 179.871L125.474 177.531C125.031 176.935 126.347 175.98 126.79 176.575Z" fill="url(#paint47_linear)"/>
<path fill-rule="evenodd" clip-rule="evenodd" d="M126.762 176.797L128.285 178.874C128.672 179.4 127.606 180.189 127.219 179.663L125.696 177.586C125.308 177.06 126.374 176.271 126.762 176.797Z" fill="url(#paint48_radial)"/>
<path opacity="0.5" fill-rule="evenodd" clip-rule="evenodd" d="M126.789 176.576C127.357 177.351 127.925 178.14 128.506 178.915C126.886 177.655 128.118 179.192 127.191 179.871C126.623 179.095 126.056 178.306 125.474 177.531C127.232 179.691 126.083 177.102 126.789 176.576Z" fill="url(#paint49_linear)"/>
<path fill-rule="evenodd" clip-rule="evenodd" d="M150.727 150.063H148.429C147.57 150.063 147.57 152.389 148.429 152.389H150.727C151.585 152.389 151.585 150.063 150.727 150.063Z" fill="#3B0201"/>
<path fill-rule="evenodd" clip-rule="evenodd" d="M150.935 150.409H148.636C148.041 150.409 148.041 152.029 148.636 152.029H150.935C151.516 152.043 151.516 150.409 150.935 150.409Z" fill="url(#paint50_linear)"/>
<path fill-rule="evenodd" clip-rule="evenodd" d="M150.796 150.561H148.761C148.235 150.561 148.235 151.89 148.761 151.89H150.796C151.322 151.89 151.322 150.561 150.796 150.561Z" fill="url(#paint51_radial)"/>
<path opacity="0.5" fill-rule="evenodd" clip-rule="evenodd" d="M150.935 150.409C150.173 150.409 149.398 150.409 148.636 150.409C150.215 150.963 148.636 150.894 148.636 152.029C149.398 152.029 150.173 152.029 150.935 152.029C148.719 151.89 150.935 151.295 150.935 150.409Z" fill="url(#paint52_linear)"/>
<path fill-rule="evenodd" clip-rule="evenodd" d="M143.611 176.229L141.894 178.569C141.257 179.441 143.14 180.812 143.777 179.94L145.494 177.6C146.131 176.728 144.248 175.357 143.611 176.229Z" fill="#3B0201"/>
<path fill-rule="evenodd" clip-rule="evenodd" d="M143.888 176.437L142.171 178.777C141.728 179.372 143.043 180.341 143.486 179.732L145.203 177.392C145.646 176.797 144.331 175.828 143.888 176.437Z" fill="url(#paint53_linear)"/>
<path fill-rule="evenodd" clip-rule="evenodd" d="M143.915 176.659L142.392 178.735C142.005 179.261 143.071 180.051 143.459 179.524L144.981 177.448C145.383 176.908 144.303 176.119 143.915 176.659Z" fill="url(#paint54_radial)"/>
<path opacity="0.5" fill-rule="evenodd" clip-rule="evenodd" d="M143.888 176.437C143.32 177.212 142.752 178.002 142.171 178.777C143.791 177.517 142.559 179.054 143.486 179.732C144.054 178.957 144.621 178.168 145.203 177.392C143.445 179.552 144.608 176.949 143.888 176.437Z" fill="url(#paint55_linear)"/>
<path fill-rule="evenodd" clip-rule="evenodd" d="M133.283 120.338C122.027 121.114 116.503 128.382 116.461 139.527C116.461 141.078 110.148 142.877 110.148 143.708C110.148 151.89 110.148 160.073 110.148 168.269C110.148 169.57 111.076 170.761 112.682 172.367C113.125 172.81 110.148 173.405 110.148 174.028C110.148 175.551 110.148 177.088 110.148 178.611C112.654 182.252 116.115 188.427 120.116 193.978C127.731 204.583 129.558 205.816 133.283 205.94C128.174 199.572 122.027 193.148 122.027 183.678C122.027 174.79 115.686 177.143 115.686 162.232C115.686 147.488 120.905 159.159 120.905 132.619C120.919 127.953 129.295 122.097 133.283 120.338Z" fill="url(#paint56_linear)"/>
<path fill-rule="evenodd" clip-rule="evenodd" d="M137.353 120.324C148.609 121.1 154.133 128.368 154.174 139.513C154.174 141.064 160.487 142.864 160.487 143.694C160.487 151.877 160.487 160.059 160.487 168.255C160.487 169.556 159.56 170.747 157.954 172.353C157.511 172.796 160.487 173.391 160.487 174.014C160.487 175.537 160.487 177.074 160.487 178.597C157.982 182.238 154.52 188.413 150.519 193.965C142.905 204.57 141.077 205.802 137.353 205.926C142.462 199.558 148.609 193.134 148.609 183.664C148.609 174.776 154.95 177.129 154.95 162.219C154.95 147.474 149.73 159.145 149.73 132.605C149.716 127.939 141.34 122.097 137.353 120.324Z" fill="url(#paint57_linear)"/>
</g>
</g>
<defs>
<linearGradient id="paint0_linear" x1="135.324" y1="198.241" x2="135.326" y2="125.955" gradientUnits="userSpaceOnUse">
<stop stop-color="#7A0604"/>
<stop offset="1" stop-color="#C2391E"/>
</linearGradient>
<radialGradient id="paint1_radial" cx="0" cy="0" r="1" gradientUnits="userSpaceOnUse" gradientTransform="translate(135.344 161.11) rotate(-89.9985) scale(40.3365 18.6354)">
<stop stop-color="#F36E21"/>
<stop offset="1" stop-color="#C2391E"/>
</radialGradient>
<linearGradient id="paint2_linear" x1="116.287" y1="177.82" x2="131.514" y2="196.853" gradientUnits="userSpaceOnUse">
<stop stop-color="#7A0604"/>
<stop offset="1" stop-color="#C2391E"/>
</linearGradient>
<linearGradient id="paint3_linear" x1="154.363" y1="177.82" x2="139.136" y2="196.853" gradientUnits="userSpaceOnUse">
<stop stop-color="#7A0604"/>
<stop offset="1" stop-color="#C2391E"/>
</linearGradient>
<linearGradient id="paint4_linear" x1="121.316" y1="204.043" x2="121.319" y2="123.417" gradientUnits="userSpaceOnUse">
<stop stop-color="#7A0604"/>
<stop offset="0.48" stop-color="#640036"/>
<stop offset="1" stop-color="#7A0604"/>
</linearGradient>
<linearGradient id="paint5_linear" x1="149.333" y1="204.043" x2="149.331" y2="123.417" gradientUnits="userSpaceOnUse">
<stop stop-color="#7A0604"/>
<stop offset="0.48" stop-color="#640036"/>
<stop offset="1" stop-color="#7A0604"/>
</linearGradient>
<linearGradient id="paint6_linear" x1="112.936" y1="174.877" x2="127.336" y2="190.001" gradientUnits="userSpaceOnUse">
<stop stop-color="#3A0000"/>
<stop offset="1" stop-color="#640036"/>
</linearGradient>
<linearGradient id="paint7_linear" x1="157.713" y1="174.877" x2="143.314" y2="190.001" gradientUnits="userSpaceOnUse">
<stop stop-color="#3A0000"/>
<stop offset="1" stop-color="#640036"/>
</linearGradient>
<linearGradient id="paint8_linear" x1="135.324" y1="163.204" x2="135.326" y2="120.818" gradientUnits="userSpaceOnUse">
<stop stop-color="#F36E21"/>
<stop offset="1" stop-color="#F3CAD9"/>
</linearGradient>
<linearGradient id="paint9_linear" x1="135.325" y1="189.658" x2="135.331" y2="195.921" gradientUnits="userSpaceOnUse">
<stop stop-color="#3A0000"/>
<stop offset="1" stop-color="#C2391E"/>
</linearGradient>
<linearGradient id="paint10_linear" x1="125.469" y1="123.311" x2="125.471" y2="149.624" gradientUnits="userSpaceOnUse">
<stop stop-color="#454849"/>
<stop offset="1" stop-color="#B2B4B4"/>
</linearGradient>
<radialGradient id="paint11_radial" cx="0" cy="0" r="1" gradientUnits="userSpaceOnUse" gradientTransform="translate(126.599 136.886) rotate(-89.9953) scale(11.4393 8.03268)">
<stop stop-color="#3654A5"/>
<stop offset="1"/>
</radialGradient>
<linearGradient id="paint12_linear" x1="127.873" y1="129.921" x2="127.874" y2="123.487" gradientUnits="userSpaceOnUse">
<stop/>
<stop offset="1" stop-color="#3654A5"/>
</linearGradient>
<linearGradient id="paint13_linear" x1="125.883" y1="140.323" x2="125.884" y2="126.367" gradientUnits="userSpaceOnUse">
<stop/>
<stop offset="1" stop-color="#AADDDD"/>
</linearGradient>
<linearGradient id="paint14_linear" x1="125.781" y1="130.107" x2="128.422" y2="139.963" gradientUnits="userSpaceOnUse">
<stop stop-color="#3654A5"/>
<stop offset="1" stop-color="white"/>
</linearGradient>
<linearGradient id="paint15_linear" x1="145.171" y1="123.286" x2="145.169" y2="149.599" gradientUnits="userSpaceOnUse">
<stop stop-color="#454849"/>
<stop offset="1" stop-color="#B2B4B4"/>
</linearGradient>
<radialGradient id="paint16_radial" cx="0" cy="0" r="1" gradientUnits="userSpaceOnUse" gradientTransform="translate(144.042 136.862) rotate(-90.0047) scale(11.4397 8.03292)">
<stop stop-color="#3654A5"/>
<stop offset="1"/>
</radialGradient>
<linearGradient id="paint17_linear" x1="142.768" y1="129.896" x2="142.767" y2="123.462" gradientUnits="userSpaceOnUse">
<stop/>
<stop offset="1" stop-color="#3654A5"/>
</linearGradient>
<linearGradient id="paint18_linear" x1="144.757" y1="140.298" x2="144.757" y2="126.341" gradientUnits="userSpaceOnUse">
<stop/>
<stop offset="1" stop-color="#AADDDD"/>
</linearGradient>
<linearGradient id="paint19_linear" x1="144.859" y1="130.082" x2="142.218" y2="139.939" gradientUnits="userSpaceOnUse">
<stop stop-color="#3654A5"/>
<stop offset="1" stop-color="white"/>
</linearGradient>
<linearGradient id="paint20_linear" x1="122.578" y1="188.57" x2="121.51" y2="186.727" gradientUnits="userSpaceOnUse">
<stop stop-color="#7A0604"/>
<stop offset="1" stop-color="#C2391E"/>
</linearGradient>
<linearGradient id="paint21_linear" x1="125.754" y1="194.649" x2="124.686" y2="192.806" gradientUnits="userSpaceOnUse">
<stop stop-color="#7A0604"/>
<stop offset="1" stop-color="#C2391E"/>
</linearGradient>
<linearGradient id="paint22_linear" x1="129.792" y1="199.72" x2="128.396" y2="198.247" gradientUnits="userSpaceOnUse">
<stop stop-color="#7A0604"/>
<stop offset="1" stop-color="#C2391E"/>
</linearGradient>
<linearGradient id="paint23_linear" x1="148.071" y1="188.57" x2="149.14" y2="186.727" gradientUnits="userSpaceOnUse">
<stop stop-color="#7A0604"/>
<stop offset="1" stop-color="#C2391E"/>
</linearGradient>
<linearGradient id="paint24_linear" x1="144.896" y1="194.649" x2="145.964" y2="192.806" gradientUnits="userSpaceOnUse">
<stop stop-color="#7A0604"/>
<stop offset="1" stop-color="#C2391E"/>
</linearGradient>
<linearGradient id="paint25_linear" x1="140.858" y1="199.72" x2="142.254" y2="198.247" gradientUnits="userSpaceOnUse">
<stop stop-color="#7A0604"/>
<stop offset="1" stop-color="#C2391E"/>
</linearGradient>
<linearGradient id="paint26_linear" x1="124.1" y1="171.965" x2="109.825" y2="154.508" gradientUnits="userSpaceOnUse">
<stop stop-color="#C2391E"/>
<stop offset="1" stop-color="#F3CAD9"/>
</linearGradient>
<linearGradient id="paint27_linear" x1="146.55" y1="171.965" x2="160.825" y2="154.508" gradientUnits="userSpaceOnUse">
<stop stop-color="#C2391E"/>
<stop offset="1" stop-color="#F3CAD9"/>
</linearGradient>
<linearGradient id="paint28_linear" x1="125.664" y1="173.452" x2="121.519" y2="153.399" gradientUnits="userSpaceOnUse">
<stop stop-color="#454849"/>
<stop offset="1" stop-color="#B2B4B4"/>
</linearGradient>
<linearGradient id="paint29_linear" x1="127.928" y1="167.758" x2="120.65" y2="161.065" gradientUnits="userSpaceOnUse">
<stop stop-color="#454849"/>
<stop offset="1" stop-color="white"/>
</linearGradient>
<linearGradient id="paint30_linear" x1="122.627" y1="160.836" x2="122.629" y2="154.968" gradientUnits="userSpaceOnUse">
<stop/>
<stop offset="1" stop-color="#B2B4B4"/>
</linearGradient>
<linearGradient id="paint31_linear" x1="144.986" y1="173.452" x2="149.131" y2="153.399" gradientUnits="userSpaceOnUse">
<stop stop-color="#454849"/>
<stop offset="1" stop-color="#B2B4B4"/>
</linearGradient>
<linearGradient id="paint32_linear" x1="142.721" y1="167.758" x2="150" y2="161.065" gradientUnits="userSpaceOnUse">
<stop stop-color="#454849"/>
<stop offset="1" stop-color="white"/>
</linearGradient>
<linearGradient id="paint33_linear" x1="148.023" y1="160.836" x2="148.021" y2="154.968" gradientUnits="userSpaceOnUse">
<stop/>
<stop offset="1" stop-color="#B2B4B4"/>
</linearGradient>
<linearGradient id="paint34_linear" x1="109.841" y1="159.342" x2="116.632" y2="159.341" gradientUnits="userSpaceOnUse">
<stop stop-color="#454849"/>
<stop offset="1" stop-color="#B2B4B4"/>
</linearGradient>
<linearGradient id="paint35_linear" x1="160.809" y1="159.342" x2="154.018" y2="159.341" gradientUnits="userSpaceOnUse">
<stop stop-color="#454849"/>
<stop offset="1" stop-color="#B2B4B4"/>
</linearGradient>
<linearGradient id="paint36_linear" x1="135.33" y1="184.853" x2="135.32" y2="173.994" gradientUnits="userSpaceOnUse">
<stop stop-color="#7A0604"/>
<stop offset="1" stop-color="#C2391E"/>
</linearGradient>
<linearGradient id="paint37_linear" x1="135.324" y1="176.77" x2="135.326" y2="183.465" gradientUnits="userSpaceOnUse">
<stop stop-color="#7A0604"/>
<stop offset="1" stop-color="#C2391E"/>
</linearGradient>
<linearGradient id="paint38_linear" x1="135.324" y1="181.877" x2="135.326" y2="176.771" gradientUnits="userSpaceOnUse">
<stop stop-color="#454849"/>
<stop offset="1" stop-color="#757367"/>
</linearGradient>
<linearGradient id="paint39_linear" x1="135.459" y1="180.891" x2="135.174" y2="177.616" gradientUnits="userSpaceOnUse">
<stop stop-color="#454849"/>
<stop offset="1" stop-color="#B2B4B4"/>
</linearGradient>
<linearGradient id="paint40_linear" x1="135.328" y1="172.757" x2="135.322" y2="166.491" gradientUnits="userSpaceOnUse">
<stop stop-color="#7A0604"/>
<stop offset="1" stop-color="#C2391E"/>
</linearGradient>
<linearGradient id="paint41_linear" x1="135.324" y1="168.093" x2="135.326" y2="171.956" gradientUnits="userSpaceOnUse">
<stop stop-color="#7A0604"/>
<stop offset="1" stop-color="#C2391E"/>
</linearGradient>
<linearGradient id="paint42_linear" x1="135.324" y1="171.039" x2="135.325" y2="168.093" gradientUnits="userSpaceOnUse">
<stop stop-color="#454849"/>
<stop offset="1" stop-color="#757367"/>
</linearGradient>
<linearGradient id="paint43_linear" x1="135.402" y1="170.47" x2="135.238" y2="168.581" gradientUnits="userSpaceOnUse">
<stop stop-color="#454849"/>
<stop offset="1" stop-color="#B2B4B4"/>
</linearGradient>
<linearGradient id="paint44_linear" x1="120.901" y1="152.084" x2="120.901" y2="150.558" gradientUnits="userSpaceOnUse">
<stop stop-color="#00290D"/>
<stop offset="1" stop-color="#185C22"/>
</linearGradient>
<radialGradient id="paint45_radial" cx="0" cy="0" r="1" gradientUnits="userSpaceOnUse" gradientTransform="translate(120.981 151.13) rotate(0.0301094) scale(1.52299 0.697842)">
<stop stop-color="#80C342"/>
<stop offset="1" stop-color="#2F943E"/>
</radialGradient>
<linearGradient id="paint46_linear" x1="120.899" y1="152.071" x2="120.902" y2="150.707" gradientUnits="userSpaceOnUse">
<stop stop-color="#2F943E"/>
<stop offset="1" stop-color="white"/>
</linearGradient>
<linearGradient id="paint47_linear" x1="126.788" y1="178.374" x2="127.209" y2="178.065" gradientUnits="userSpaceOnUse">
<stop stop-color="#00290D"/>
<stop offset="1" stop-color="#185C22"/>
</linearGradient>
<radialGradient id="paint48_radial" cx="0" cy="0" r="1" gradientUnits="userSpaceOnUse" gradientTransform="translate(127.239 178.17) rotate(-126.186) scale(1.91641 0.69759)">
<stop stop-color="#80C342"/>
<stop offset="1" stop-color="#2F943E"/>
</radialGradient>
<linearGradient id="paint49_linear" x1="126.774" y1="178.383" x2="127.184" y2="178.084" gradientUnits="userSpaceOnUse">
<stop stop-color="#2F943E"/>
<stop offset="1" stop-color="white"/>
</linearGradient>
<linearGradient id="paint50_linear" x1="149.777" y1="151.936" x2="149.777" y2="150.41" gradientUnits="userSpaceOnUse">
<stop stop-color="#00290D"/>
<stop offset="1" stop-color="#185C22"/>
</linearGradient>
<radialGradient id="paint51_radial" cx="0" cy="0" r="1" gradientUnits="userSpaceOnUse" gradientTransform="translate(149.697 150.983) rotate(-0.0300998) scale(1.52278 0.697732)">
<stop stop-color="#80C342"/>
<stop offset="1" stop-color="#2F943E"/>
</radialGradient>
<linearGradient id="paint52_linear" x1="149.779" y1="151.924" x2="149.776" y2="150.559" gradientUnits="userSpaceOnUse">
<stop stop-color="#2F943E"/>
<stop offset="1" stop-color="white"/>
</linearGradient>
<linearGradient id="paint53_linear" x1="143.89" y1="178.226" x2="143.469" y2="177.918" gradientUnits="userSpaceOnUse">
<stop stop-color="#00290D"/>
<stop offset="1" stop-color="#185C22"/>
</linearGradient>
<radialGradient id="paint54_radial" cx="0" cy="0" r="1" gradientUnits="userSpaceOnUse" gradientTransform="translate(143.44 178.022) rotate(-53.8144) scale(1.91645 0.697603)">
<stop stop-color="#80C342"/>
<stop offset="1" stop-color="#2F943E"/>
</radialGradient>
<linearGradient id="paint55_linear" x1="143.903" y1="178.236" x2="143.494" y2="177.937" gradientUnits="userSpaceOnUse">
<stop stop-color="#2F943E"/>
<stop offset="1" stop-color="white"/>
</linearGradient>
<linearGradient id="paint56_linear" x1="109.844" y1="163.143" x2="124.323" y2="163.141" gradientUnits="userSpaceOnUse">
<stop stop-color="#7A0604"/>
<stop offset="1" stop-color="white"/>
</linearGradient>
<linearGradient id="paint57_linear" x1="160.788" y1="163.138" x2="146.309" y2="163.137" gradientUnits="userSpaceOnUse">
<stop stop-color="#7A0604"/>
<stop offset="1" stop-color="white"/>
</linearGradient>
<clipPath id="clip0">
<rect width="270" height="370" fill="white"/>
</clipPath>
<clipPath id="clip1">
<rect x="55.6138" y="116.296" width="159.422" height="133.781" fill="white"/>
</clipPath>
</defs>
</svg>
