<svg width="270" height="370" viewBox="0 0 270 370" fill="none" xmlns="http://www.w3.org/2000/svg">
<g clip-path="url(#clip0)">
<g clip-path="url(#clip1)">
<path fill-rule="evenodd" clip-rule="evenodd" d="M135.318 120.283C122.691 120.283 116.503 127.745 116.461 139.541C116.461 141.091 110.148 142.891 110.148 143.722C110.148 151.904 110.148 160.086 110.148 168.282C110.148 169.584 111.076 170.775 112.682 172.38C113.125 172.824 110.148 173.419 110.148 174.042C110.148 175.565 110.148 177.102 110.148 178.624C112.654 182.266 116.115 188.44 120.116 193.992C128.991 206.342 130.001 205.982 135.331 205.982C140.648 205.982 141.659 206.355 150.547 193.992C154.534 188.44 158.009 182.279 160.515 178.624C160.515 177.102 160.515 175.565 160.515 174.042C160.515 173.419 157.538 172.824 157.981 172.38C159.601 170.761 160.515 169.584 160.515 168.282C160.515 160.1 160.515 151.918 160.515 143.722C160.515 142.891 154.202 141.091 154.202 139.541C154.133 127.745 147.944 120.283 135.318 120.283Z" fill="url(#paint0_linear)"/>
<path fill-rule="evenodd" clip-rule="evenodd" d="M110.148 174.042C110.148 175.565 110.148 177.102 110.148 178.624C112.654 182.266 116.115 188.44 120.116 193.992C128.991 206.342 130.001 205.982 135.331 205.982C140.648 205.982 141.658 206.355 150.547 193.992C154.534 188.44 158.009 182.279 160.515 178.624C160.515 177.102 160.515 175.565 160.515 174.042C160.515 173.419 157.538 172.824 157.981 172.38C159.601 170.761 160.515 169.584 160.515 168.282C160.515 160.1 160.515 151.918 160.515 143.722C160.515 142.891 154.202 141.091 154.202 139.541C154.16 127.745 147.958 120.283 135.345 120.283C122.733 120.283 116.53 127.745 116.489 139.541C116.489 141.091 110.176 142.891 110.176 143.722C110.176 151.904 110.176 160.086 110.176 168.282C110.176 169.584 111.103 170.774 112.709 172.38C113.124 172.824 110.148 173.433 110.148 174.042ZM120.282 124.173C123.702 120.67 128.714 118.718 135.318 118.718C141.921 118.718 146.933 120.67 150.353 124.173C153.925 127.828 155.711 133.103 155.725 139.541C155.725 139.638 157.331 140.192 158.701 140.828C160.487 141.659 162.052 142.393 162.052 143.736V168.296C162.052 169.279 161.733 170.165 161.138 171.079C160.93 171.398 160.695 171.716 160.418 172.048C161.304 172.464 162.066 173.003 162.066 174.056V178.638C162.066 178.943 161.982 179.247 161.789 179.524C160.82 180.937 159.67 182.792 158.397 184.827C156.472 187.928 154.257 191.5 151.793 194.92C142.711 207.56 141.34 207.56 135.774 207.546H135.318H134.861C129.281 207.56 127.924 207.56 118.842 194.92C116.392 191.486 114.177 187.914 112.238 184.813C110.992 182.806 109.871 180.992 108.902 179.594C108.694 179.331 108.57 178.998 108.57 178.624V174.042C108.57 172.99 109.331 172.45 110.217 172.034C109.94 171.702 109.705 171.384 109.497 171.065C108.902 170.151 108.583 169.252 108.583 168.282V143.722C108.583 142.379 110.134 141.645 111.934 140.815C113.291 140.178 114.91 139.638 114.91 139.527C114.924 133.089 116.71 127.814 120.282 124.173Z" fill="black"/>
<path opacity="0.5" fill-rule="evenodd" clip-rule="evenodd" d="M146.892 177.794L142.988 189.936H127.661L123.757 177.794L127.177 174.513C127.551 167.812 125.516 148.138 119.216 143.736C119.216 142.905 123.259 141.105 123.259 139.555C123.287 127.759 127.246 120.297 135.331 120.297C143.403 120.297 147.376 127.759 147.404 139.555C147.404 141.105 151.447 142.905 151.447 143.736C145.147 148.138 143.112 167.812 143.486 174.513L146.892 177.794Z" fill="url(#paint1_radial)"/>
<path fill-rule="evenodd" clip-rule="evenodd" d="M112.64 172.519C112.862 172.865 110.148 173.419 110.148 174.042C110.148 175.565 110.148 177.102 110.148 178.624C112.654 182.266 116.115 188.44 120.116 193.992C128.991 206.342 130.001 205.982 135.331 205.982C135.331 200.97 135.331 194.878 135.331 189.88L127.468 189.908L112.64 172.519Z" fill="url(#paint2_linear)"/>
<path fill-rule="evenodd" clip-rule="evenodd" d="M157.995 172.519C157.774 172.865 160.487 173.419 160.487 174.042C160.487 175.565 160.487 177.102 160.487 178.624C157.981 182.266 154.52 188.44 150.519 193.992C141.645 206.342 140.634 205.982 135.304 205.982C135.304 200.97 135.304 194.878 135.304 189.88L143.168 189.908L157.995 172.519Z" fill="url(#paint3_linear)"/>
<path fill-rule="evenodd" clip-rule="evenodd" d="M130.763 120.643C121.196 122.276 116.489 129.268 116.461 139.541C116.461 141.091 110.148 142.891 110.148 143.722C110.148 151.904 110.148 160.086 110.148 168.282C110.148 169.584 111.076 170.775 112.682 172.381C113.125 172.824 110.148 173.419 110.148 174.042C110.148 175.565 110.148 177.102 110.148 178.624C112.654 182.266 116.115 188.44 120.116 193.992C127.163 203.808 129.254 205.594 132.479 205.912C123.508 200.208 116.226 180.23 116.226 176.479C111.782 168.961 111.657 166.053 111.782 161.139C111.92 155.891 111.172 145.937 116.904 149.509C117.513 148.803 118.178 148.263 118.898 147.917C115.298 142.393 123.245 123.315 130.763 120.643Z" fill="url(#paint4_linear)"/>
<path fill-rule="evenodd" clip-rule="evenodd" d="M139.873 120.643C149.439 122.276 154.146 129.268 154.174 139.541C154.174 141.091 160.487 142.891 160.487 143.722C160.487 151.904 160.487 160.086 160.487 168.282C160.487 169.584 159.56 170.775 157.954 172.381C157.511 172.824 160.487 173.419 160.487 174.042C160.487 175.565 160.487 177.102 160.487 178.624C157.981 182.266 154.52 188.44 150.519 193.992C143.472 203.808 141.382 205.594 138.156 205.912C147.127 200.208 154.409 180.23 154.409 176.479C158.854 168.961 158.978 166.053 158.854 161.139C158.715 155.891 159.463 145.937 153.731 149.509C153.122 148.803 152.457 148.263 151.737 147.917C155.351 142.393 147.39 123.315 139.873 120.643Z" fill="url(#paint5_linear)"/>
<path fill-rule="evenodd" clip-rule="evenodd" d="M112.64 172.519C112.986 172.74 110.148 173.599 110.148 174.042C112.405 176.105 114.924 178.749 117.403 181.31C118.981 180.563 124.796 187.471 127.454 189.908C122.511 184.107 117.583 178.32 112.64 172.519Z" fill="url(#paint6_linear)"/>
<path fill-rule="evenodd" clip-rule="evenodd" d="M157.995 172.519C157.649 172.74 160.487 173.599 160.487 174.042C158.231 176.105 155.711 178.749 153.233 181.31C151.654 180.563 145.84 187.471 143.181 189.908C148.124 184.107 153.053 178.32 157.995 172.519Z" fill="url(#paint7_linear)"/>
<path opacity="0.5" fill-rule="evenodd" clip-rule="evenodd" d="M135.318 138.198C135.844 138.198 136.633 138.392 136.716 137.921C136.951 136.592 135.747 135.886 135.747 130.154C135.747 124.422 138.322 120.809 135.318 120.809C132.327 120.809 134.888 124.422 134.888 130.154C134.888 135.886 133.67 136.592 133.919 137.921C134.002 138.392 134.791 138.198 135.318 138.198Z" fill="url(#paint8_linear)"/>
<path opacity="0.5" fill-rule="evenodd" clip-rule="evenodd" d="M127.343 189.672L129.683 196.913H140.952L143.292 189.672H127.343Z" fill="url(#paint9_linear)"/>
<path fill-rule="evenodd" clip-rule="evenodd" d="M128.367 189.672C129.932 194.186 132.632 195.473 135.331 195.473C138.031 195.473 140.717 194.2 142.295 189.672C139.969 189.672 137.657 189.672 135.331 189.672C133.005 189.672 130.68 189.672 128.367 189.672Z" fill="url(#paint10_linear)"/>
<path fill-rule="evenodd" clip-rule="evenodd" d="M130.07 189.88C131.247 193.065 133.282 193.964 135.317 193.964C137.353 193.964 139.388 193.065 140.565 189.88C138.82 189.88 137.062 189.88 135.317 189.88C133.573 189.88 131.815 189.88 130.07 189.88Z" fill="#070707"/>
<path fill-rule="evenodd" clip-rule="evenodd" d="M121.944 126.291C124.325 123.675 127.897 121.723 133.269 121.723H133.282C133.476 121.723 133.629 121.875 133.629 122.069V137.699C133.629 137.893 133.476 138.046 133.282 138.046C127.385 138.046 126.402 144.206 125.875 147.46C125.654 148.831 125.502 149.772 124.92 149.772C124.311 149.772 122.11 147.252 120.241 144.649C118.662 142.448 117.292 140.15 117.292 139.25C117.292 137.686 117.707 130.943 121.944 126.291Z" fill="#3B0201"/>
<path fill-rule="evenodd" clip-rule="evenodd" d="M131.233 123.342C126.761 123.841 123.217 126.042 121.002 130.292C119.687 132.826 118.815 136.356 118.801 139.208C118.912 140.136 121.321 143.694 123.231 146.089C123.646 146.615 124.491 146.408 124.616 145.743C124.879 144.276 125.225 142.863 125.875 141.437C127.038 138.89 128.894 137.201 131.469 136.689C131.842 136.62 132.092 136.301 132.092 135.927C132.092 131.995 132.092 128.05 132.092 124.118C132.106 123.647 131.704 123.287 131.233 123.342Z" fill="url(#paint11_radial)"/>
<path fill-rule="evenodd" clip-rule="evenodd" d="M131.233 123.342C127.661 123.509 125.28 125.059 123.619 126.79C123.619 129.434 129.101 130.431 132.106 130.431C132.106 128.714 132.106 128.008 132.106 124.339C132.106 123.661 131.787 123.315 131.233 123.342Z" fill="url(#paint12_linear)"/>
<path opacity="0.5" fill-rule="evenodd" clip-rule="evenodd" d="M121.764 136.329C125.446 144.926 125.723 138.336 128.727 135.18C130.596 133.228 130.181 132.438 130.14 129.545C130.098 126.222 129.046 125.253 125.792 127.441C122.982 129.31 120.85 132.923 121.764 136.329Z" fill="url(#paint13_linear)"/>
<path opacity="0.5" fill-rule="evenodd" clip-rule="evenodd" d="M130.472 122.263C124.131 123.204 120.905 127.288 119.285 131.262C121.861 128.894 125.599 136.73 126.319 143.667C127.011 141.354 128.271 139.015 130.832 138.101C125.432 139.541 122.317 127.288 130.472 122.263Z" fill="url(#paint14_linear)"/>
<path fill-rule="evenodd" clip-rule="evenodd" d="M118.773 135.761C118.33 135.457 118.787 134.792 119.23 135.083C119.853 135.498 120.434 135.969 121.002 136.481C121.39 136.841 122.013 136.73 122.262 136.273C123.411 134.141 125.031 132.106 126.983 130.694C127.288 130.473 127.398 130.085 127.26 129.725C126.623 128.16 125.848 126.679 124.934 125.267C124.643 124.824 125.322 124.381 125.612 124.824C126.498 126.181 127.246 127.607 127.883 129.102C128.063 129.517 128.547 129.711 128.963 129.531C130.043 129.047 131.192 128.77 132.369 128.77C132.909 128.77 132.909 129.586 132.369 129.586C131.247 129.586 130.167 129.863 129.143 130.334C128.769 130.514 128.589 130.929 128.714 131.331C129.364 133.311 129.821 135.36 130.126 137.423C130.153 137.644 130.001 137.852 129.78 137.879C129.558 137.907 129.35 137.755 129.323 137.533C129.06 135.678 128.672 133.892 128.146 132.203C127.98 131.649 127.301 131.442 126.845 131.815C125.059 133.297 123.591 135.332 122.594 137.395C122.456 137.686 122.497 138.018 122.705 138.267C123.896 139.707 124.879 141.327 125.695 143.016C125.931 143.5 125.197 143.847 124.962 143.362C124.38 142.157 123.729 141.022 122.968 139.956C122.567 139.402 121.708 139.555 121.514 140.205C121.224 141.258 121.071 142.268 121.071 143.182C121.071 143.722 120.254 143.722 120.254 143.182C120.254 141.756 120.601 140.136 121.224 138.502C121.334 138.198 121.265 137.879 121.044 137.644C120.338 136.938 119.576 136.315 118.773 135.761Z" fill="url(#paint15_linear)"/>
<path fill-rule="evenodd" clip-rule="evenodd" d="M133.282 122.069C118.648 122.069 117.652 136.855 117.652 139.25C117.652 141.05 124.006 149.426 124.934 149.426C126.014 149.426 124.865 137.713 133.282 137.713C133.282 128.576 133.282 131.179 133.282 122.069ZM131.233 123.342C131.704 123.287 132.105 123.647 132.105 124.118C132.105 128.05 132.105 131.995 132.105 135.927C132.105 136.301 131.842 136.62 131.482 136.689C128.907 137.215 127.066 138.89 125.889 141.437C125.239 142.863 124.892 144.276 124.629 145.743C124.505 146.408 123.674 146.615 123.245 146.089C121.334 143.68 118.911 140.136 118.815 139.208C118.815 136.356 119.687 132.826 121.016 130.292C123.231 126.042 126.761 123.841 131.233 123.342Z" fill="url(#paint16_linear)"/>
<path fill-rule="evenodd" clip-rule="evenodd" d="M148.692 126.291C146.31 123.675 142.738 121.723 137.367 121.723H137.353C137.159 121.723 137.007 121.875 137.007 122.069V137.699C137.007 137.893 137.159 138.046 137.353 138.046C143.251 138.046 144.234 144.206 144.76 147.46C144.981 148.831 145.133 149.772 145.715 149.772C146.324 149.772 148.525 147.252 150.394 144.649C151.973 142.448 153.343 140.15 153.343 139.25C153.343 137.686 152.928 130.943 148.692 126.291Z" fill="#3B0201"/>
<path fill-rule="evenodd" clip-rule="evenodd" d="M139.402 123.342C143.874 123.841 147.418 126.042 149.633 130.292C150.948 132.826 151.82 136.356 151.834 139.208C151.724 140.136 149.315 143.694 147.404 146.089C146.989 146.615 146.144 146.408 146.02 145.743C145.757 144.276 145.41 142.863 144.76 141.437C143.597 138.89 141.742 137.201 139.166 136.689C138.793 136.62 138.543 136.301 138.543 135.927C138.543 131.995 138.543 128.05 138.543 124.118C138.53 123.647 138.931 123.287 139.402 123.342Z" fill="url(#paint17_radial)"/>
<path fill-rule="evenodd" clip-rule="evenodd" d="M139.402 123.342C142.974 123.509 145.355 125.059 147.016 126.79C147.016 129.434 141.534 130.431 138.53 130.431C138.53 128.714 138.53 128.008 138.53 124.339C138.53 123.661 138.862 123.315 139.402 123.342Z" fill="url(#paint18_linear)"/>
<path opacity="0.5" fill-rule="evenodd" clip-rule="evenodd" d="M148.872 136.329C145.189 144.926 144.912 138.336 141.908 135.18C140.039 133.228 140.454 132.438 140.495 129.545C140.537 126.222 141.589 125.253 144.843 127.441C147.667 129.31 149.785 132.923 148.872 136.329Z" fill="url(#paint19_linear)"/>
<path opacity="0.5" fill-rule="evenodd" clip-rule="evenodd" d="M140.177 122.263C146.518 123.204 149.744 127.288 151.364 131.262C148.788 128.894 145.05 136.73 144.317 143.667C143.624 141.354 142.364 139.015 139.803 138.101C145.203 139.541 148.318 127.288 140.177 122.263Z" fill="url(#paint20_linear)"/>
<path fill-rule="evenodd" clip-rule="evenodd" d="M151.876 135.761C152.319 135.457 151.862 134.792 151.419 135.083C150.796 135.498 150.214 135.969 149.647 136.481C149.259 136.841 148.636 136.73 148.387 136.273C147.238 134.141 145.618 132.106 143.666 130.694C143.361 130.473 143.25 130.085 143.389 129.725C144.026 128.16 144.801 126.679 145.715 125.267C146.006 124.824 145.327 124.381 145.036 124.824C144.15 126.181 143.403 127.607 142.766 129.102C142.586 129.517 142.101 129.711 141.686 129.531C140.606 129.047 139.457 128.77 138.28 128.77C137.74 128.77 137.74 129.586 138.28 129.586C139.402 129.586 140.482 129.863 141.506 130.334C141.88 130.514 142.06 130.929 141.935 131.331C141.285 133.311 140.828 135.36 140.523 137.423C140.495 137.644 140.648 137.852 140.869 137.879C141.091 137.907 141.298 137.755 141.326 137.533C141.589 135.678 141.977 133.892 142.503 132.203C142.669 131.649 143.347 131.442 143.804 131.815C145.59 133.297 147.058 135.332 148.055 137.395C148.193 137.686 148.152 138.018 147.944 138.267C146.753 139.707 145.77 141.327 144.953 143.016C144.718 143.5 145.452 143.847 145.687 143.362C146.269 142.157 146.919 141.022 147.681 139.956C148.082 139.402 148.941 139.555 149.134 140.205C149.425 141.258 149.578 142.268 149.578 143.182C149.578 143.722 150.394 143.722 150.394 143.182C150.394 141.756 150.048 140.136 149.425 138.502C149.314 138.198 149.384 137.879 149.605 137.644C150.311 136.938 151.073 136.315 151.876 135.761Z" fill="url(#paint21_linear)"/>
<path fill-rule="evenodd" clip-rule="evenodd" d="M137.353 122.069C151.987 122.069 152.983 136.855 152.983 139.25C152.983 141.05 146.629 149.426 145.701 149.426C144.621 149.426 145.77 137.713 137.353 137.713C137.353 128.576 137.353 131.179 137.353 122.069ZM139.402 123.342C138.931 123.287 138.529 123.647 138.529 124.118C138.529 128.05 138.529 131.995 138.529 135.927C138.529 136.301 138.793 136.62 139.152 136.689C141.728 137.215 143.569 138.89 144.746 141.437C145.396 142.863 145.743 144.276 146.006 145.743C146.13 146.408 146.961 146.615 147.39 146.089C149.301 143.68 151.723 140.136 151.82 139.208C151.82 136.356 150.948 132.826 149.619 130.292C147.404 126.042 143.874 123.841 139.402 123.342Z" fill="url(#paint22_linear)"/>
<path fill-rule="evenodd" clip-rule="evenodd" d="M120.282 186.765L122.137 185.685C122.317 185.575 122.567 185.644 122.677 185.824L124.145 188.357C124.366 188.731 124.228 189.216 123.854 189.423L122.664 190.102C122.29 190.309 121.819 190.185 121.598 189.811L120.13 187.305C120.033 187.111 120.088 186.876 120.282 186.765Z" fill="#3B0201"/>
<path fill-rule="evenodd" clip-rule="evenodd" d="M120.282 186.765L122.137 185.685L123.605 188.219C123.716 188.399 123.647 188.648 123.467 188.759L122.276 189.437C122.096 189.548 121.847 189.479 121.736 189.299L120.282 186.765Z" fill="url(#paint23_linear)"/>
<path fill-rule="evenodd" clip-rule="evenodd" d="M123.453 192.843L125.308 191.763C125.488 191.652 125.737 191.722 125.848 191.902L127.315 194.435C127.537 194.809 127.399 195.293 127.025 195.501L125.834 196.18C125.46 196.387 124.99 196.263 124.768 195.889L123.314 193.383C123.204 193.189 123.273 192.954 123.453 192.843Z" fill="#3B0201"/>
<path fill-rule="evenodd" clip-rule="evenodd" d="M123.453 192.843L125.308 191.763L126.776 194.297C126.886 194.477 126.817 194.726 126.637 194.837L125.447 195.515C125.267 195.626 125.017 195.557 124.907 195.377L123.453 192.843Z" fill="url(#paint24_linear)"/>
<path fill-rule="evenodd" clip-rule="evenodd" d="M127.163 198.533L128.727 197.052C128.88 196.9 129.129 196.913 129.281 197.066L131.289 199.198C131.579 199.516 131.566 200.001 131.261 200.305L130.264 201.247C129.946 201.538 129.461 201.524 129.157 201.219L127.149 199.087C126.997 198.921 126.997 198.672 127.163 198.533Z" fill="#3B0201"/>
<path fill-rule="evenodd" clip-rule="evenodd" d="M127.163 198.533L128.728 197.052L130.735 199.184C130.887 199.336 130.873 199.585 130.721 199.738L129.724 200.679C129.572 200.831 129.323 200.818 129.171 200.665L127.163 198.533Z" fill="url(#paint25_linear)"/>
<path fill-rule="evenodd" clip-rule="evenodd" d="M150.367 186.765L148.512 185.685C148.332 185.575 148.082 185.644 147.972 185.824L146.504 188.357C146.283 188.731 146.421 189.216 146.795 189.423L147.986 190.102C148.359 190.309 148.83 190.185 149.052 189.811L150.519 187.277C150.616 187.111 150.547 186.876 150.367 186.765Z" fill="#3B0201"/>
<path fill-rule="evenodd" clip-rule="evenodd" d="M150.367 186.765L148.512 185.685L147.044 188.219C146.933 188.399 147.003 188.648 147.183 188.759L148.373 189.437C148.553 189.548 148.802 189.479 148.913 189.299L150.367 186.765Z" fill="url(#paint26_linear)"/>
<path fill-rule="evenodd" clip-rule="evenodd" d="M147.183 192.843L145.327 191.763C145.147 191.652 144.898 191.722 144.787 191.902L143.32 194.435C143.098 194.809 143.237 195.293 143.611 195.501L144.801 196.18C145.175 196.387 145.646 196.263 145.867 195.889L147.335 193.355C147.432 193.189 147.376 192.954 147.183 192.843Z" fill="#3B0201"/>
<path fill-rule="evenodd" clip-rule="evenodd" d="M147.182 192.843L145.327 191.763L143.86 194.297C143.749 194.477 143.818 194.726 143.998 194.837L145.189 195.515C145.369 195.626 145.618 195.557 145.729 195.377L147.182 192.843Z" fill="url(#paint27_linear)"/>
<path fill-rule="evenodd" clip-rule="evenodd" d="M143.472 198.533L141.908 197.052C141.755 196.9 141.506 196.913 141.354 197.066L139.346 199.198C139.056 199.516 139.069 200.001 139.374 200.305L140.371 201.247C140.689 201.538 141.174 201.524 141.478 201.219L143.486 199.087C143.638 198.921 143.638 198.672 143.472 198.533Z" fill="#3B0201"/>
<path fill-rule="evenodd" clip-rule="evenodd" d="M143.472 198.533L141.908 197.052L139.9 199.184C139.748 199.336 139.762 199.585 139.914 199.738L140.911 200.679C141.063 200.831 141.312 200.818 141.465 200.665L143.472 198.533Z" fill="url(#paint28_linear)"/>
<path opacity="0.5" fill-rule="evenodd" clip-rule="evenodd" d="M116.627 172.837C116.627 159.394 116.641 153.745 116.627 153.538C116.53 151.503 116.835 150.963 114.523 150.118C113.415 149.703 112.82 149.564 114.149 150.506C115.672 151.586 115.381 152.292 115.395 153.967C115.409 160.114 116.627 178.943 116.627 172.837Z" fill="url(#paint29_linear)"/>
<path opacity="0.5" fill-rule="evenodd" clip-rule="evenodd" d="M154.008 172.837C154.008 159.394 153.994 153.745 154.008 153.538C154.105 151.503 153.8 150.963 156.112 150.118C157.22 149.703 157.815 149.564 156.486 150.506C154.963 151.586 155.254 152.292 155.24 153.967C155.226 160.114 154.008 178.943 154.008 172.837Z" fill="url(#paint30_linear)"/>
<path fill-rule="evenodd" clip-rule="evenodd" d="M124.74 149.564C124.74 149.398 125.128 149.398 125.128 149.564C125.128 152.14 129.143 154.133 129.143 157.733C129.143 159.657 131.635 164.835 135.318 164.835C139.014 164.835 141.492 159.657 141.492 157.733C141.492 154.119 145.507 152.14 145.507 149.564C145.507 149.398 145.895 149.398 145.895 149.564C145.895 152.223 141.88 154.175 141.88 157.733C141.88 159.796 139.291 165.084 135.304 165.084C131.33 165.084 128.728 159.796 128.728 157.733C128.741 154.161 124.74 152.209 124.74 149.564Z" fill="#3B0201"/>
<path fill-rule="evenodd" clip-rule="evenodd" d="M112.543 172.671C112.474 172.588 112.474 172.464 112.557 172.394C112.64 172.325 112.764 172.325 112.834 172.408C114.564 174.36 116.198 176.409 117.818 178.444L117.458 151.198C117.43 149.024 112.321 146.172 110.148 146.172C109.885 146.172 109.885 145.785 110.148 145.785C112.515 145.785 117.818 148.775 117.846 151.198C117.929 158.314 118.025 165.43 118.122 172.547C123.937 172.81 127.578 188.122 135.318 188.122V188.51C127.385 188.51 123.688 173.211 118.122 172.934C118.15 174.942 118.178 176.935 118.205 178.943C121.141 182.653 124.076 186.364 127.495 189.659H135.318V190.046H127.412C127.357 190.046 127.315 190.033 127.274 189.991C123.799 186.641 120.822 182.875 117.846 179.109C117.236 179.289 116.004 179.469 115.7 179.538L114.274 184.868C114.204 185.118 113.831 185.021 113.9 184.772C114.052 184.204 115.298 179.331 115.423 179.234C115.492 179.178 116.89 178.86 117.527 178.721C115.907 176.686 114.274 174.637 112.543 172.671Z" fill="#3B0201"/>
<path fill-rule="evenodd" clip-rule="evenodd" d="M158.106 172.671C158.175 172.588 158.175 172.464 158.092 172.394C158.009 172.325 157.884 172.325 157.815 172.408C156.085 174.36 154.451 176.409 152.831 178.444L153.191 151.198C153.219 149.024 158.327 146.172 160.501 146.172C160.764 146.172 160.764 145.785 160.501 145.785C158.134 145.785 152.831 148.775 152.803 151.198C152.72 158.314 152.623 165.43 152.527 172.547C146.712 172.81 143.071 188.122 135.331 188.122V188.51C143.264 188.51 146.961 173.211 152.527 172.934C152.499 174.942 152.471 176.935 152.443 178.943C149.508 182.653 146.573 186.364 143.154 189.659H135.331V190.046H143.237C143.292 190.046 143.334 190.033 143.375 189.991C146.85 186.641 149.827 182.875 152.803 179.109C153.413 179.289 154.645 179.469 154.949 179.538L156.375 184.868C156.445 185.118 156.818 185.021 156.749 184.772C156.597 184.204 155.351 179.331 155.226 179.234C155.157 179.178 153.759 178.86 153.122 178.721C154.728 176.686 156.362 174.637 158.106 172.671Z" fill="#3B0201"/>
<path fill-rule="evenodd" clip-rule="evenodd" d="M120.836 152.956H121.556C122.733 152.956 123.813 153.441 124.588 154.216C125.363 154.991 125.848 156.071 125.848 157.248V163.146C125.848 163.395 125.875 163.631 125.917 163.852C125.959 164.074 126.028 164.295 126.139 164.53L129.198 171.688C129.323 171.993 129.392 172.311 129.392 172.616C129.392 173.087 129.254 173.53 129.004 173.903C128.755 174.277 128.395 174.582 127.966 174.762C127.689 174.886 127.371 174.956 127.038 174.956H125.875C125.405 174.956 124.948 174.817 124.574 174.568C124.2 174.319 123.896 173.973 123.716 173.53L120.005 164.835C119.881 164.558 119.798 164.281 119.742 164.004C119.687 163.727 119.659 163.437 119.659 163.146V154.119C119.659 153.801 119.798 153.496 120.005 153.289C120.227 153.081 120.518 152.956 120.836 152.956Z" fill="#3B0201"/>
<path fill-rule="evenodd" clip-rule="evenodd" d="M120.836 153.344H121.556C123.702 153.344 125.46 155.102 125.46 157.248V163.146C125.46 163.7 125.557 164.171 125.778 164.683L128.838 171.841C129.392 173.128 128.45 174.568 127.038 174.568H125.875C125.072 174.568 124.394 174.111 124.076 173.377L120.365 164.683C120.144 164.171 120.047 163.7 120.047 163.146V154.119C120.061 153.69 120.407 153.344 120.836 153.344Z" fill="url(#paint31_linear)"/>
<path opacity="0.5" fill-rule="evenodd" clip-rule="evenodd" d="M125.779 164.697C126.803 167.078 127.814 169.473 128.838 171.854C126.305 167.119 120.365 160.682 120.379 164.697C120.158 164.184 120.061 163.714 120.061 163.16C120.061 161 120.061 158.854 120.061 156.694C121.487 161.457 126.651 168.421 125.779 164.697Z" fill="url(#paint32_linear)"/>
<path fill-rule="evenodd" clip-rule="evenodd" d="M122.622 154.991C123.55 155.434 124.283 157.594 124.283 159.823C124.283 162.052 123.536 163.52 122.622 163.077C121.694 162.634 120.961 160.474 120.961 158.245C120.961 156.002 121.694 154.548 122.622 154.991Z" fill="#525252"/>
<path fill-rule="evenodd" clip-rule="evenodd" d="M122.622 154.992C123.369 155.351 123.965 157.096 123.965 158.91C123.965 160.723 123.356 161.9 122.622 161.54C121.874 161.194 121.279 159.436 121.279 157.622C121.279 155.808 121.874 154.632 122.622 154.992Z" fill="url(#paint33_linear)"/>
<path fill-rule="evenodd" clip-rule="evenodd" d="M149.799 152.956H149.079C147.902 152.956 146.822 153.441 146.047 154.216C145.272 154.991 144.787 156.071 144.787 157.248V163.146C144.787 163.395 144.76 163.631 144.718 163.852C144.676 164.074 144.607 164.295 144.497 164.53L141.451 171.688C141.326 171.993 141.257 172.311 141.257 172.616C141.257 173.087 141.395 173.53 141.644 173.903C141.894 174.277 142.254 174.582 142.683 174.762C142.96 174.886 143.278 174.956 143.61 174.956H144.773C145.244 174.956 145.701 174.817 146.075 174.568C146.449 174.319 146.753 173.973 146.933 173.53L150.644 164.835C150.768 164.558 150.851 164.281 150.907 164.004C150.962 163.727 150.99 163.437 150.99 163.146V154.119C150.99 153.801 150.851 153.496 150.644 153.289C150.408 153.081 150.117 152.956 149.799 152.956Z" fill="#3B0201"/>
<path fill-rule="evenodd" clip-rule="evenodd" d="M149.799 153.344H149.079C146.933 153.344 145.175 155.102 145.175 157.248V163.146C145.175 163.7 145.078 164.171 144.856 164.683L141.797 171.841C141.243 173.128 142.184 174.568 143.597 174.568H144.76C145.563 174.568 146.241 174.111 146.559 173.377L150.27 164.683C150.491 164.171 150.588 163.7 150.588 163.146V154.119C150.574 153.69 150.228 153.344 149.799 153.344Z" fill="url(#paint34_linear)"/>
<path opacity="0.5" fill-rule="evenodd" clip-rule="evenodd" d="M144.857 164.697C143.832 167.078 142.821 169.473 141.797 171.854C144.33 167.119 150.27 160.682 150.256 164.697C150.477 164.184 150.574 163.714 150.574 163.16C150.574 161 150.574 158.854 150.574 156.694C149.148 161.457 143.984 168.421 144.857 164.697Z" fill="url(#paint35_linear)"/>
<path fill-rule="evenodd" clip-rule="evenodd" d="M148.013 154.991C147.085 155.434 146.352 157.594 146.352 159.823C146.352 162.052 147.099 163.52 148.013 163.077C148.941 162.634 149.674 160.474 149.674 158.245C149.688 156.002 148.941 154.548 148.013 154.991Z" fill="#525252"/>
<path fill-rule="evenodd" clip-rule="evenodd" d="M148.013 154.992C147.265 155.351 146.67 157.096 146.67 158.91C146.67 160.723 147.279 161.9 148.013 161.54C148.761 161.194 149.356 159.436 149.356 157.622C149.356 155.808 148.761 154.632 148.013 154.992Z" fill="url(#paint36_linear)"/>
<path fill-rule="evenodd" clip-rule="evenodd" d="M110.148 147.917L114.703 150.589C115.935 151.309 116.627 152.527 116.627 153.953V168.85C116.627 170.359 114.994 171.301 113.678 170.539L110.134 168.463V147.917H110.148Z" fill="url(#paint37_linear)"/>
<path fill-rule="evenodd" clip-rule="evenodd" d="M110.148 149.26L113.872 151.613C114.883 152.25 115.45 153.33 115.45 154.59V167.743C115.45 169.086 114.107 169.902 113.041 169.224L110.134 167.396V149.26H110.148Z" fill="#BCBCBC"/>
<path fill-rule="evenodd" clip-rule="evenodd" d="M160.487 147.917L155.932 150.589C154.7 151.309 154.008 152.527 154.008 153.953V168.85C154.008 170.359 155.642 171.301 156.957 170.539L160.501 168.463V147.917H160.487Z" fill="url(#paint38_linear)"/>
<path fill-rule="evenodd" clip-rule="evenodd" d="M160.487 149.26L156.763 151.613C155.752 152.25 155.185 153.33 155.185 154.59V167.743C155.185 169.086 156.528 169.902 157.594 169.224L160.501 167.396V149.26H160.487Z" fill="#BCBCBC"/>
<path fill-rule="evenodd" clip-rule="evenodd" d="M135.318 139.499C139.776 139.499 143.541 142.421 143.541 145.979C143.541 150.741 142.309 151.738 141.257 152.583C140.606 153.109 140.053 153.552 140.053 155.144C140.053 158.55 139.443 160.612 138.571 161.831C137.657 163.105 136.453 163.478 135.318 163.478C134.182 163.478 132.978 163.105 132.064 161.831C131.192 160.612 130.583 158.55 130.583 155.144C130.583 153.552 130.029 153.109 129.378 152.583C128.34 151.738 127.094 150.741 127.094 145.979C127.094 142.421 130.86 139.499 135.318 139.499Z" fill="#3B0201"/>
<path fill-rule="evenodd" clip-rule="evenodd" d="M135.318 139.832C128.644 139.832 127.426 144.663 127.426 145.992C127.426 153.925 130.901 151.004 130.901 155.158C130.901 161.803 133.227 163.16 135.318 163.16C137.408 163.16 139.734 161.817 139.734 155.158C139.734 151.004 143.209 153.939 143.209 145.992C143.209 144.663 142.005 139.832 135.318 139.832Z" fill="url(#paint39_linear)"/>
<path fill-rule="evenodd" clip-rule="evenodd" d="M135.318 139.832C139.083 140.842 143.292 144.608 139.208 152.638C139.208 160.183 134.238 164.378 130.901 155.144C130.901 161.789 133.227 163.146 135.318 163.146C137.408 163.146 139.734 161.803 139.734 155.144C139.734 150.99 143.209 153.925 143.209 145.979C143.209 144.663 142.074 139.832 135.318 139.832Z" fill="#730200"/>
<path fill-rule="evenodd" clip-rule="evenodd" d="M135.318 142.49C130.97 142.933 129.849 145.84 129.849 146.754C129.849 152.25 132.258 150.229 132.258 153.095C132.258 157.705 133.864 158.633 135.318 158.633C136.771 158.633 138.377 157.705 138.377 153.095C138.377 150.215 140.786 152.25 140.786 146.754C140.786 145.84 139.665 142.919 135.318 142.49Z" fill="url(#paint40_linear)"/>
<path fill-rule="evenodd" clip-rule="evenodd" d="M133.006 145.356C133.601 144.76 134.418 144.4 135.318 144.4C136.218 144.4 137.034 144.774 137.63 145.356C138.225 145.951 138.585 146.768 138.585 147.668C138.585 148.568 138.211 149.384 137.63 149.98C137.034 150.575 136.218 150.935 135.318 150.935C134.418 150.935 133.601 150.575 133.006 149.98C132.41 149.384 132.05 148.568 132.05 147.668C132.05 146.768 132.41 145.951 133.006 145.356Z" fill="#3B0201"/>
<path fill-rule="evenodd" clip-rule="evenodd" d="M135.318 144.705C133.684 144.705 132.355 146.034 132.355 147.668C132.355 149.301 133.684 150.63 135.318 150.63C136.951 150.63 138.28 149.301 138.28 147.668C138.294 146.034 136.965 144.705 135.318 144.705Z" fill="url(#paint41_linear)"/>
<path fill-rule="evenodd" clip-rule="evenodd" d="M135.318 145.411C134.072 145.411 133.061 146.422 133.061 147.668C133.061 148.914 134.072 149.925 135.318 149.925C136.564 149.925 137.574 148.914 137.574 147.668C137.574 146.422 136.564 145.411 135.318 145.411Z" fill="url(#paint42_linear)"/>
<path fill-rule="evenodd" clip-rule="evenodd" d="M135.318 146.256C134.542 146.256 133.906 146.892 133.906 147.668C133.906 148.443 134.542 149.08 135.318 149.08C136.093 149.08 136.73 148.443 136.73 147.668C136.73 146.892 136.093 146.256 135.318 146.256Z" fill="url(#paint43_linear)"/>
<path fill-rule="evenodd" clip-rule="evenodd" d="M135.318 146.699C134.778 146.699 134.349 147.128 134.349 147.668C134.349 148.208 134.778 148.637 135.318 148.637C135.858 148.637 136.287 148.208 136.287 147.668C136.287 147.128 135.858 146.699 135.318 146.699Z" fill="url(#paint44_linear)"/>
<path fill-rule="evenodd" clip-rule="evenodd" d="M119.936 150.229H122.234C123.092 150.229 123.092 152.555 122.234 152.555H119.936C119.091 152.555 119.091 150.229 119.936 150.229Z" fill="#3B0201"/>
<path fill-rule="evenodd" clip-rule="evenodd" d="M119.742 150.575H122.04C122.636 150.575 122.636 152.195 122.04 152.195H119.742C119.147 152.209 119.147 150.575 119.742 150.575Z" fill="url(#paint45_linear)"/>
<path fill-rule="evenodd" clip-rule="evenodd" d="M119.881 150.727H121.916C122.442 150.727 122.442 152.056 121.916 152.056H119.881C119.355 152.056 119.355 150.727 119.881 150.727Z" fill="url(#paint46_radial)"/>
<path opacity="0.5" fill-rule="evenodd" clip-rule="evenodd" d="M119.742 150.575C120.504 150.575 121.279 150.575 122.04 150.575C120.462 151.129 122.04 151.06 122.04 152.195C121.279 152.195 120.504 152.195 119.742 152.195C121.957 152.056 119.742 151.461 119.742 150.575Z" fill="url(#paint47_linear)"/>
<path fill-rule="evenodd" clip-rule="evenodd" d="M127.066 176.395L128.783 178.735C129.42 179.607 127.537 180.978 126.9 180.106L125.183 177.766C124.546 176.894 126.429 175.523 127.066 176.395Z" fill="#3B0201"/>
<path fill-rule="evenodd" clip-rule="evenodd" d="M126.775 176.603L128.492 178.943C128.935 179.538 127.62 180.507 127.177 179.898L125.46 177.558C125.031 176.963 126.346 175.994 126.775 176.603Z" fill="url(#paint48_linear)"/>
<path fill-rule="evenodd" clip-rule="evenodd" d="M126.762 176.825L128.284 178.901C128.672 179.427 127.606 180.217 127.218 179.69L125.695 177.614C125.294 177.074 126.374 176.285 126.762 176.825Z" fill="url(#paint49_radial)"/>
<path opacity="0.5" fill-rule="evenodd" clip-rule="evenodd" d="M126.775 176.603C127.343 177.378 127.911 178.167 128.492 178.943C126.872 177.683 128.104 179.22 127.177 179.898C126.609 179.123 126.042 178.334 125.46 177.558C127.232 179.718 126.069 177.115 126.775 176.603Z" fill="url(#paint50_linear)"/>
<path fill-rule="evenodd" clip-rule="evenodd" d="M150.727 150.077H148.428C147.57 150.077 147.57 152.403 148.428 152.403H150.727C151.585 152.403 151.585 150.077 150.727 150.077Z" fill="#3B0201"/>
<path fill-rule="evenodd" clip-rule="evenodd" d="M150.921 150.437H148.622C148.027 150.437 148.027 152.056 148.622 152.056H150.921C151.516 152.056 151.516 150.437 150.921 150.437Z" fill="url(#paint51_linear)"/>
<path fill-rule="evenodd" clip-rule="evenodd" d="M150.796 150.575H148.761C148.235 150.575 148.235 151.904 148.761 151.904H150.796C151.308 151.904 151.308 150.575 150.796 150.575Z" fill="url(#paint52_radial)"/>
<path opacity="0.5" fill-rule="evenodd" clip-rule="evenodd" d="M150.921 150.437C150.159 150.437 149.384 150.437 148.622 150.437C150.201 150.99 148.622 150.921 148.622 152.056C149.384 152.056 150.159 152.056 150.921 152.056C148.719 151.904 150.921 151.309 150.921 150.437Z" fill="url(#paint53_linear)"/>
<path fill-rule="evenodd" clip-rule="evenodd" d="M143.597 176.243L141.88 178.583C141.243 179.455 143.126 180.826 143.763 179.954L145.48 177.614C146.117 176.755 144.234 175.371 143.597 176.243Z" fill="#3B0201"/>
<path fill-rule="evenodd" clip-rule="evenodd" d="M143.887 176.451L142.171 178.791C141.728 179.386 143.043 180.355 143.486 179.746L145.203 177.406C145.632 176.811 144.331 175.856 143.887 176.451Z" fill="url(#paint54_linear)"/>
<path fill-rule="evenodd" clip-rule="evenodd" d="M143.915 176.672L142.392 178.749C142.005 179.275 143.071 180.064 143.458 179.538L144.981 177.461C145.369 176.922 144.303 176.146 143.915 176.672Z" fill="url(#paint55_radial)"/>
<path opacity="0.5" fill-rule="evenodd" clip-rule="evenodd" d="M143.888 176.451C143.32 177.226 142.752 178.015 142.171 178.791C143.791 177.531 142.558 179.068 143.486 179.746C144.054 178.971 144.621 178.182 145.203 177.406C143.431 179.566 144.594 176.977 143.888 176.451Z" fill="url(#paint56_linear)"/>
<path fill-rule="evenodd" clip-rule="evenodd" d="M135.318 184.024C134.764 184.024 134.238 183.927 133.725 183.761C132.618 183.387 131.635 182.639 130.929 181.698C130.223 180.757 129.793 179.621 129.793 178.472C129.793 177.988 129.863 177.517 130.029 177.032C130.236 176.437 130.638 175.966 131.039 175.509C131.455 175.053 131.842 174.596 131.842 174.125C131.842 173.474 131.815 172.865 131.801 172.284C131.773 171.716 131.759 171.162 131.759 170.691C131.759 168.172 132.244 166.386 135.318 166.386C138.391 166.386 138.876 168.186 138.876 170.691C138.876 171.176 138.848 171.716 138.834 172.284C138.806 172.865 138.793 173.474 138.793 174.125C138.793 174.596 139.18 175.039 139.596 175.509C139.997 175.966 140.412 176.423 140.606 177.032C140.758 177.503 140.842 177.988 140.842 178.472C140.842 179.621 140.412 180.757 139.706 181.698C139 182.639 138.017 183.387 136.91 183.761C136.397 183.927 135.871 184.024 135.318 184.024Z" fill="#3B0201"/>
<path fill-rule="evenodd" clip-rule="evenodd" d="M135.317 166.787C139.305 166.787 138.405 170.235 138.405 174.139C138.405 175.26 139.845 175.98 140.246 177.157C141.257 180.147 138.529 183.622 135.331 183.622C132.119 183.622 129.406 180.147 130.416 177.157C130.818 175.98 132.258 175.246 132.258 174.139C132.23 170.248 131.33 166.787 135.317 166.787Z" fill="url(#paint57_linear)"/>
<path fill-rule="evenodd" clip-rule="evenodd" d="M135.317 167.881C138.419 167.881 137.713 170.885 137.713 174.291C137.713 175.26 138.834 175.897 139.139 176.922C139.914 179.524 137.809 182.556 135.304 182.556C132.812 182.556 130.693 179.524 131.469 176.922C131.773 175.897 132.895 175.26 132.895 174.291C132.922 170.885 132.216 167.881 135.317 167.881Z" fill="url(#paint58_linear)"/>
<path fill-rule="evenodd" clip-rule="evenodd" d="M134.944 168.698H135.705C136.356 168.698 136.882 169.224 136.882 169.875V179.76C136.882 180.411 136.356 180.937 135.705 180.937H134.944C134.293 180.937 133.767 180.411 133.767 179.76V169.875C133.767 169.224 134.293 168.698 134.944 168.698Z" fill="#3B0201"/>
<path fill-rule="evenodd" clip-rule="evenodd" d="M135.691 169.086H134.944C134.515 169.086 134.168 169.432 134.168 169.861V179.746C134.168 180.175 134.515 180.521 134.944 180.521H135.705C136.134 180.521 136.48 180.175 136.48 179.746V169.875C136.48 169.446 136.121 169.086 135.691 169.086Z" fill="url(#paint59_linear)"/>
<path fill-rule="evenodd" clip-rule="evenodd" d="M135.608 169.376H135.013C134.681 169.376 134.404 169.653 134.404 169.986V179.649C134.404 179.981 134.681 180.258 135.013 180.258H135.608C135.941 180.258 136.217 179.981 136.217 179.649V169.986C136.217 169.653 135.954 169.376 135.608 169.376Z" fill="url(#paint60_radial)"/>
<path opacity="0.5" fill-rule="evenodd" clip-rule="evenodd" d="M135.691 169.086C135.442 169.086 135.193 169.086 134.93 169.086C135.774 169.598 135.304 179.76 134.155 179.76C134.155 180.189 134.501 180.535 134.93 180.535C135.179 180.535 135.428 180.535 135.691 180.535C135.013 180.258 135.387 169.238 136.467 169.861C136.481 169.446 136.121 169.086 135.691 169.086Z" fill="url(#paint61_linear)"/>
<path fill-rule="evenodd" clip-rule="evenodd" d="M133.282 120.352C122.027 121.127 116.503 128.396 116.461 139.541C116.461 141.091 110.148 142.891 110.148 143.722C110.148 151.904 110.148 160.086 110.148 168.282C110.148 169.584 111.076 170.775 112.682 172.38C113.125 172.824 110.148 173.419 110.148 174.042C110.148 175.565 110.148 177.102 110.148 178.624C112.654 182.266 116.115 188.44 120.116 193.992C127.731 204.597 129.558 205.829 133.282 205.954C128.174 199.585 122.027 193.161 122.027 183.692C122.027 174.803 115.686 177.157 115.686 162.246C115.686 147.502 120.905 159.173 120.905 132.632C120.905 127.967 129.295 122.124 133.282 120.352Z" fill="url(#paint62_linear)"/>
<path fill-rule="evenodd" clip-rule="evenodd" d="M137.339 120.352C148.595 121.127 154.119 128.396 154.16 139.541C154.16 141.091 160.473 142.891 160.473 143.722C160.473 151.904 160.473 160.086 160.473 168.282C160.473 169.584 159.546 170.775 157.94 172.38C157.497 172.824 160.473 173.419 160.473 174.042C160.473 175.565 160.473 177.102 160.473 178.624C157.968 182.266 154.506 188.44 150.505 193.992C142.891 204.597 141.063 205.829 137.339 205.954C142.448 199.585 148.595 193.161 148.595 183.692C148.595 174.803 154.936 177.157 154.936 162.246C154.936 147.502 149.716 159.173 149.716 132.632C149.716 127.967 141.326 122.11 137.339 120.352Z" fill="url(#paint63_linear)"/>
</g>
</g>
<defs>
<linearGradient id="paint0_linear" x1="135.318" y1="198.26" x2="135.32" y2="125.975" gradientUnits="userSpaceOnUse">
<stop stop-color="#7A0604"/>
<stop offset="1" stop-color="#C2391E"/>
</linearGradient>
<radialGradient id="paint1_radial" cx="0" cy="0" r="1" gradientUnits="userSpaceOnUse" gradientTransform="translate(135.338 161.13) rotate(-89.9985) scale(40.3365 18.6354)">
<stop stop-color="#F36E21"/>
<stop offset="1" stop-color="#C2391E"/>
</radialGradient>
<linearGradient id="paint2_linear" x1="116.281" y1="177.84" x2="131.508" y2="196.873" gradientUnits="userSpaceOnUse">
<stop stop-color="#7A0604"/>
<stop offset="1" stop-color="#C2391E"/>
</linearGradient>
<linearGradient id="paint3_linear" x1="154.357" y1="177.84" x2="139.13" y2="196.873" gradientUnits="userSpaceOnUse">
<stop stop-color="#7A0604"/>
<stop offset="1" stop-color="#C2391E"/>
</linearGradient>
<linearGradient id="paint4_linear" x1="121.311" y1="204.063" x2="121.313" y2="123.436" gradientUnits="userSpaceOnUse">
<stop stop-color="#7A0604"/>
<stop offset="0.48" stop-color="#640036"/>
<stop offset="1" stop-color="#7A0604"/>
</linearGradient>
<linearGradient id="paint5_linear" x1="149.327" y1="204.063" x2="149.325" y2="123.436" gradientUnits="userSpaceOnUse">
<stop stop-color="#7A0604"/>
<stop offset="0.48" stop-color="#640036"/>
<stop offset="1" stop-color="#7A0604"/>
</linearGradient>
<linearGradient id="paint6_linear" x1="112.932" y1="174.898" x2="127.33" y2="190.02" gradientUnits="userSpaceOnUse">
<stop stop-color="#3A0000"/>
<stop offset="1" stop-color="#640036"/>
</linearGradient>
<linearGradient id="paint7_linear" x1="157.706" y1="174.898" x2="143.308" y2="190.02" gradientUnits="userSpaceOnUse">
<stop stop-color="#3A0000"/>
<stop offset="1" stop-color="#640036"/>
</linearGradient>
<linearGradient id="paint8_linear" x1="135.318" y1="138.294" x2="135.319" y2="120.825" gradientUnits="userSpaceOnUse">
<stop stop-color="#F36E21"/>
<stop offset="1" stop-color="#F3CAD9"/>
</linearGradient>
<linearGradient id="paint9_linear" x1="135.319" y1="189.677" x2="135.326" y2="196.917" gradientUnits="userSpaceOnUse">
<stop stop-color="#3A0000"/>
<stop offset="1" stop-color="#C2391E"/>
</linearGradient>
<linearGradient id="paint10_linear" x1="135.319" y1="189.834" x2="135.321" y2="195.469" gradientUnits="userSpaceOnUse">
<stop/>
<stop offset="1" stop-color="#454849"/>
</linearGradient>
<radialGradient id="paint11_radial" cx="0" cy="0" r="1" gradientUnits="userSpaceOnUse" gradientTransform="translate(126.593 136.905) rotate(-89.9953) scale(11.4393 8.03269)">
<stop stop-color="#3654A5"/>
<stop offset="1"/>
</radialGradient>
<linearGradient id="paint12_linear" x1="127.867" y1="129.94" x2="127.868" y2="123.506" gradientUnits="userSpaceOnUse">
<stop/>
<stop offset="1" stop-color="#3654A5"/>
</linearGradient>
<linearGradient id="paint13_linear" x1="125.877" y1="140.342" x2="125.878" y2="126.387" gradientUnits="userSpaceOnUse">
<stop/>
<stop offset="1" stop-color="#AADDDD"/>
</linearGradient>
<linearGradient id="paint14_linear" x1="125.775" y1="130.126" x2="128.416" y2="139.983" gradientUnits="userSpaceOnUse">
<stop stop-color="#3654A5"/>
<stop offset="1" stop-color="white"/>
</linearGradient>
<linearGradient id="paint15_linear" x1="122.863" y1="130.833" x2="127.335" y2="137.403" gradientUnits="userSpaceOnUse">
<stop stop-color="#454849"/>
<stop offset="1" stop-color="#B2B4B4"/>
</linearGradient>
<linearGradient id="paint16_linear" x1="125.463" y1="123.33" x2="125.465" y2="149.643" gradientUnits="userSpaceOnUse">
<stop stop-color="#454849"/>
<stop offset="1" stop-color="#B2B4B4"/>
</linearGradient>
<radialGradient id="paint17_radial" cx="0" cy="0" r="1" gradientUnits="userSpaceOnUse" gradientTransform="translate(144.045 136.905) rotate(-90.0047) scale(11.4397 8.03295)">
<stop stop-color="#3654A5"/>
<stop offset="1"/>
</radialGradient>
<linearGradient id="paint18_linear" x1="142.771" y1="129.94" x2="142.77" y2="123.506" gradientUnits="userSpaceOnUse">
<stop/>
<stop offset="1" stop-color="#3654A5"/>
</linearGradient>
<linearGradient id="paint19_linear" x1="144.76" y1="140.342" x2="144.76" y2="126.387" gradientUnits="userSpaceOnUse">
<stop/>
<stop offset="1" stop-color="#AADDDD"/>
</linearGradient>
<linearGradient id="paint20_linear" x1="144.862" y1="130.126" x2="142.221" y2="139.983" gradientUnits="userSpaceOnUse">
<stop stop-color="#3654A5"/>
<stop offset="1" stop-color="white"/>
</linearGradient>
<linearGradient id="paint21_linear" x1="147.775" y1="130.833" x2="143.303" y2="137.403" gradientUnits="userSpaceOnUse">
<stop stop-color="#454849"/>
<stop offset="1" stop-color="#B2B4B4"/>
</linearGradient>
<linearGradient id="paint22_linear" x1="145.174" y1="123.33" x2="145.172" y2="149.643" gradientUnits="userSpaceOnUse">
<stop stop-color="#454849"/>
<stop offset="1" stop-color="#B2B4B4"/>
</linearGradient>
<linearGradient id="paint23_linear" x1="122.572" y1="188.59" x2="121.504" y2="186.747" gradientUnits="userSpaceOnUse">
<stop stop-color="#7A0604"/>
<stop offset="1" stop-color="#C2391E"/>
</linearGradient>
<linearGradient id="paint24_linear" x1="125.748" y1="194.669" x2="124.68" y2="192.825" gradientUnits="userSpaceOnUse">
<stop stop-color="#7A0604"/>
<stop offset="1" stop-color="#C2391E"/>
</linearGradient>
<linearGradient id="paint25_linear" x1="129.786" y1="199.74" x2="128.39" y2="198.267" gradientUnits="userSpaceOnUse">
<stop stop-color="#7A0604"/>
<stop offset="1" stop-color="#C2391E"/>
</linearGradient>
<linearGradient id="paint26_linear" x1="148.065" y1="188.59" x2="149.134" y2="186.747" gradientUnits="userSpaceOnUse">
<stop stop-color="#7A0604"/>
<stop offset="1" stop-color="#C2391E"/>
</linearGradient>
<linearGradient id="paint27_linear" x1="144.89" y1="194.669" x2="145.958" y2="192.825" gradientUnits="userSpaceOnUse">
<stop stop-color="#7A0604"/>
<stop offset="1" stop-color="#C2391E"/>
</linearGradient>
<linearGradient id="paint28_linear" x1="140.852" y1="199.74" x2="142.248" y2="198.267" gradientUnits="userSpaceOnUse">
<stop stop-color="#7A0604"/>
<stop offset="1" stop-color="#C2391E"/>
</linearGradient>
<linearGradient id="paint29_linear" x1="124.094" y1="171.985" x2="109.819" y2="154.528" gradientUnits="userSpaceOnUse">
<stop stop-color="#C2391E"/>
<stop offset="1" stop-color="#F3CAD9"/>
</linearGradient>
<linearGradient id="paint30_linear" x1="146.544" y1="171.985" x2="160.819" y2="154.528" gradientUnits="userSpaceOnUse">
<stop stop-color="#C2391E"/>
<stop offset="1" stop-color="#F3CAD9"/>
</linearGradient>
<linearGradient id="paint31_linear" x1="125.658" y1="173.471" x2="121.512" y2="153.419" gradientUnits="userSpaceOnUse">
<stop stop-color="#454849"/>
<stop offset="1" stop-color="#B2B4B4"/>
</linearGradient>
<linearGradient id="paint32_linear" x1="127.922" y1="167.777" x2="120.644" y2="161.085" gradientUnits="userSpaceOnUse">
<stop stop-color="#454849"/>
<stop offset="1" stop-color="white"/>
</linearGradient>
<linearGradient id="paint33_linear" x1="122.621" y1="160.856" x2="122.623" y2="154.987" gradientUnits="userSpaceOnUse">
<stop/>
<stop offset="1" stop-color="#B2B4B4"/>
</linearGradient>
<linearGradient id="paint34_linear" x1="144.979" y1="173.471" x2="149.125" y2="153.419" gradientUnits="userSpaceOnUse">
<stop stop-color="#454849"/>
<stop offset="1" stop-color="#B2B4B4"/>
</linearGradient>
<linearGradient id="paint35_linear" x1="142.715" y1="167.777" x2="149.994" y2="161.085" gradientUnits="userSpaceOnUse">
<stop stop-color="#454849"/>
<stop offset="1" stop-color="white"/>
</linearGradient>
<linearGradient id="paint36_linear" x1="148.017" y1="160.856" x2="148.015" y2="154.987" gradientUnits="userSpaceOnUse">
<stop/>
<stop offset="1" stop-color="#B2B4B4"/>
</linearGradient>
<linearGradient id="paint37_linear" x1="109.835" y1="159.362" x2="116.626" y2="159.36" gradientUnits="userSpaceOnUse">
<stop stop-color="#454849"/>
<stop offset="1" stop-color="#B2B4B4"/>
</linearGradient>
<linearGradient id="paint38_linear" x1="160.803" y1="159.362" x2="154.012" y2="159.36" gradientUnits="userSpaceOnUse">
<stop stop-color="#454849"/>
<stop offset="1" stop-color="#B2B4B4"/>
</linearGradient>
<linearGradient id="paint39_linear" x1="135.318" y1="163.078" x2="135.319" y2="139.83" gradientUnits="userSpaceOnUse">
<stop stop-color="#7A0604"/>
<stop offset="1" stop-color="#C2391E"/>
</linearGradient>
<linearGradient id="paint40_linear" x1="135.318" y1="159.377" x2="135.319" y2="142.635" gradientUnits="userSpaceOnUse">
<stop stop-color="#C2391E"/>
<stop offset="1" stop-color="#F36E21"/>
</linearGradient>
<linearGradient id="paint41_linear" x1="135.322" y1="150.677" x2="135.316" y2="144.743" gradientUnits="userSpaceOnUse">
<stop stop-color="#7A0604"/>
<stop offset="1" stop-color="#C2391E"/>
</linearGradient>
<linearGradient id="paint42_linear" x1="135.319" y1="146.26" x2="135.32" y2="149.919" gradientUnits="userSpaceOnUse">
<stop stop-color="#7A0604"/>
<stop offset="1" stop-color="#C2391E"/>
</linearGradient>
<linearGradient id="paint43_linear" x1="135.319" y1="149.051" x2="135.32" y2="146.261" gradientUnits="userSpaceOnUse">
<stop stop-color="#454849"/>
<stop offset="1" stop-color="#757367"/>
</linearGradient>
<linearGradient id="paint44_linear" x1="135.392" y1="148.512" x2="135.237" y2="146.722" gradientUnits="userSpaceOnUse">
<stop stop-color="#454849"/>
<stop offset="1" stop-color="#B2B4B4"/>
</linearGradient>
<linearGradient id="paint45_linear" x1="120.895" y1="152.104" x2="120.895" y2="150.578" gradientUnits="userSpaceOnUse">
<stop stop-color="#00290D"/>
<stop offset="1" stop-color="#185C22"/>
</linearGradient>
<radialGradient id="paint46_radial" cx="0" cy="0" r="1" gradientUnits="userSpaceOnUse" gradientTransform="translate(120.975 151.15) rotate(0.0301089) scale(1.52301 0.69784)">
<stop stop-color="#80C342"/>
<stop offset="1" stop-color="#2F943E"/>
</radialGradient>
<linearGradient id="paint47_linear" x1="120.893" y1="152.091" x2="120.896" y2="150.727" gradientUnits="userSpaceOnUse">
<stop stop-color="#2F943E"/>
<stop offset="1" stop-color="white"/>
</linearGradient>
<linearGradient id="paint48_linear" x1="126.782" y1="178.393" x2="127.203" y2="178.085" gradientUnits="userSpaceOnUse">
<stop stop-color="#00290D"/>
<stop offset="1" stop-color="#185C22"/>
</linearGradient>
<radialGradient id="paint49_radial" cx="0" cy="0" r="1" gradientUnits="userSpaceOnUse" gradientTransform="translate(127.234 178.19) rotate(-126.186) scale(1.9164 0.69759)">
<stop stop-color="#80C342"/>
<stop offset="1" stop-color="#2F943E"/>
</radialGradient>
<linearGradient id="paint50_linear" x1="126.768" y1="178.402" x2="127.178" y2="178.104" gradientUnits="userSpaceOnUse">
<stop stop-color="#2F943E"/>
<stop offset="1" stop-color="white"/>
</linearGradient>
<linearGradient id="paint51_linear" x1="149.771" y1="151.956" x2="149.771" y2="150.43" gradientUnits="userSpaceOnUse">
<stop stop-color="#00290D"/>
<stop offset="1" stop-color="#185C22"/>
</linearGradient>
<radialGradient id="paint52_radial" cx="0" cy="0" r="1" gradientUnits="userSpaceOnUse" gradientTransform="translate(149.691 151.003) rotate(-0.0301001) scale(1.52276 0.697732)">
<stop stop-color="#80C342"/>
<stop offset="1" stop-color="#2F943E"/>
</radialGradient>
<linearGradient id="paint53_linear" x1="149.773" y1="151.943" x2="149.77" y2="150.579" gradientUnits="userSpaceOnUse">
<stop stop-color="#2F943E"/>
<stop offset="1" stop-color="white"/>
</linearGradient>
<linearGradient id="paint54_linear" x1="143.884" y1="178.246" x2="143.463" y2="177.937" gradientUnits="userSpaceOnUse">
<stop stop-color="#00290D"/>
<stop offset="1" stop-color="#185C22"/>
</linearGradient>
<radialGradient id="paint55_radial" cx="0" cy="0" r="1" gradientUnits="userSpaceOnUse" gradientTransform="translate(143.434 178.041) rotate(-53.814) scale(1.91646 0.697613)">
<stop stop-color="#80C342"/>
<stop offset="1" stop-color="#2F943E"/>
</radialGradient>
<linearGradient id="paint56_linear" x1="143.898" y1="178.255" x2="143.488" y2="177.956" gradientUnits="userSpaceOnUse">
<stop stop-color="#2F943E"/>
<stop offset="1" stop-color="white"/>
</linearGradient>
<linearGradient id="paint57_linear" x1="135.318" y1="183.378" x2="135.32" y2="166.797" gradientUnits="userSpaceOnUse">
<stop stop-color="#7A0604"/>
<stop offset="1" stop-color="#C2391E"/>
</linearGradient>
<linearGradient id="paint58_linear" x1="135.318" y1="182.288" x2="135.32" y2="167.875" gradientUnits="userSpaceOnUse">
<stop stop-color="#454849"/>
<stop offset="1" stop-color="#B2B4B4"/>
</linearGradient>
<linearGradient id="paint59_linear" x1="135.316" y1="179.838" x2="135.322" y2="169.091" gradientUnits="userSpaceOnUse">
<stop stop-color="#00290D"/>
<stop offset="1" stop-color="#185C22"/>
</linearGradient>
<radialGradient id="paint60_radial" cx="0" cy="0" r="1" gradientUnits="userSpaceOnUse" gradientTransform="translate(135.37 172.846) rotate(-90.0091) scale(5.72027 0.974172)">
<stop stop-color="#80C342"/>
<stop offset="1" stop-color="#2F943E"/>
</radialGradient>
<linearGradient id="paint61_linear" x1="135.237" y1="179.737" x2="135.397" y2="170.152" gradientUnits="userSpaceOnUse">
<stop stop-color="#2F943E"/>
<stop offset="1" stop-color="white"/>
</linearGradient>
<linearGradient id="paint62_linear" x1="109.838" y1="163.163" x2="124.317" y2="163.161" gradientUnits="userSpaceOnUse">
<stop stop-color="#7A0604"/>
<stop offset="1" stop-color="white"/>
</linearGradient>
<linearGradient id="paint63_linear" x1="160.782" y1="163.158" x2="146.303" y2="163.156" gradientUnits="userSpaceOnUse">
<stop stop-color="#7A0604"/>
<stop offset="1" stop-color="white"/>
</linearGradient>
<clipPath id="clip0">
<rect width="270" height="370" fill="white"/>
</clipPath>
<clipPath id="clip1">
<rect x="39" y="86.9448" width="192.635" height="198.007" fill="white"/>
</clipPath>
</defs>
</svg>
