<svg width="270" height="370" viewBox="0 0 270 370" fill="none" xmlns="http://www.w3.org/2000/svg">
<g clip-path="url(#clip0)">
<g clip-path="url(#clip1)">
<path fill-rule="evenodd" clip-rule="evenodd" d="M135.332 176.133C129.448 176.133 123.577 176.133 117.693 176.133C114.177 177.683 110.66 179.234 107.144 180.784C106.424 181.103 105.981 181.781 105.981 182.57C105.981 193.729 105.981 204.888 105.981 216.047C105.981 216.711 106.285 217.279 106.825 217.653C107.836 218.345 108.847 219.051 109.857 219.743C109.913 222.055 109.968 224.381 110.023 226.693C110.051 227.58 110.19 228.327 110.48 229.158C112.571 234.959 114.648 240.76 116.738 246.547C122.165 247.973 127.44 248.499 135.345 248.499C143.251 248.499 148.539 247.973 153.953 246.547C156.043 240.746 158.12 234.945 160.211 229.158C160.515 228.327 160.654 227.58 160.667 226.693C160.723 224.381 160.778 222.055 160.834 219.743C161.844 219.051 162.855 218.345 163.866 217.653C164.406 217.279 164.71 216.711 164.71 216.047C164.71 204.888 164.71 193.729 164.71 182.57C164.71 181.781 164.267 181.103 163.547 180.784C160.031 179.234 156.514 177.683 152.997 176.133C147.086 176.133 141.202 176.133 135.332 176.133Z" fill="url(#paint0_linear)"/>
<path fill-rule="evenodd" clip-rule="evenodd" d="M117.693 174.568H135.332H152.97C153.177 174.568 153.399 174.61 153.593 174.707L164.142 179.358C164.779 179.635 165.305 180.092 165.679 180.66C166.039 181.227 166.247 181.878 166.247 182.584V216.061C166.247 216.642 166.108 217.196 165.845 217.694C165.582 218.193 165.208 218.622 164.724 218.954L162.356 220.602L162.218 226.763C162.204 227.303 162.163 227.787 162.066 228.258C161.983 228.743 161.844 229.213 161.664 229.712L155.448 247.018C155.296 247.53 154.894 247.945 154.354 248.084C151.571 248.817 148.816 249.316 145.743 249.634C142.669 249.953 139.333 250.091 135.345 250.091C131.372 250.091 128.022 249.953 124.948 249.634C121.875 249.316 119.119 248.817 116.337 248.084C115.852 247.959 115.451 247.599 115.271 247.101L109.013 229.712C108.847 229.241 108.708 228.784 108.625 228.327L108.611 228.258C108.528 227.787 108.473 227.289 108.459 226.763L108.321 220.602L105.953 218.954C105.469 218.622 105.095 218.193 104.832 217.694C104.569 217.196 104.43 216.642 104.43 216.061V182.57C104.43 181.878 104.638 181.214 104.998 180.646C105.358 180.078 105.884 179.635 106.535 179.345L117.015 174.72C117.195 174.637 117.43 174.568 117.693 174.568ZM116.71 246.561C122.138 247.987 127.412 248.513 135.318 248.513C143.223 248.513 148.512 247.987 153.925 246.561C156.016 240.76 158.092 234.959 160.183 229.172C160.487 228.341 160.626 227.593 160.64 226.707C160.695 224.395 160.75 222.069 160.806 219.757C161.816 219.065 162.827 218.359 163.838 217.667C164.378 217.293 164.682 216.725 164.682 216.061C164.682 204.902 164.682 193.743 164.682 182.584C164.682 181.795 164.239 181.117 163.519 180.798C160.003 179.248 156.486 177.697 152.97 176.146C147.086 176.146 141.216 176.146 135.332 176.146C129.448 176.146 123.577 176.146 117.693 176.146C114.177 177.697 110.66 179.248 107.144 180.798C106.424 181.117 105.981 181.795 105.981 182.584C105.981 193.743 105.981 204.902 105.981 216.061C105.981 216.725 106.285 217.293 106.825 217.667C107.836 218.359 108.847 219.065 109.857 219.757C109.913 222.069 109.968 224.395 110.023 226.707C110.051 227.593 110.19 228.341 110.48 229.172C112.543 234.973 114.634 240.76 116.71 246.561Z" fill="black"/>
<path fill-rule="evenodd" clip-rule="evenodd" d="M135.332 225.655C133.435 225.655 131.524 225.614 129.628 225.586C125.446 221.031 121.265 216.476 117.098 211.921C114.689 213.873 112.266 215.839 109.857 217.791C109.927 221.183 109.982 224.575 110.051 227.967C112.28 234.17 114.509 240.358 116.738 246.561C123.01 248.056 127.399 248.513 135.345 248.513C143.292 248.513 147.695 248.056 153.953 246.561C156.182 240.358 158.411 234.17 160.64 227.967C160.709 224.575 160.764 221.183 160.834 217.791C158.425 215.839 156.002 213.873 153.593 211.921C149.412 216.476 145.231 221.031 141.063 225.586C139.125 225.614 137.228 225.655 135.332 225.655Z" fill="url(#paint1_radial)"/>
<path opacity="0.5" fill-rule="evenodd" clip-rule="evenodd" d="M117.084 211.935C114.675 213.887 112.252 215.853 109.843 217.805C109.913 221.197 109.968 224.589 110.037 227.981C112.266 234.184 114.495 240.372 116.724 246.575C119.41 247.211 121.75 247.668 124.173 247.973C112.142 233.824 117.084 225.614 117.084 211.935Z" fill="url(#paint2_linear)"/>
<path opacity="0.5" fill-rule="evenodd" clip-rule="evenodd" d="M153.565 211.935C155.974 213.887 158.397 215.853 160.806 217.805C160.737 221.197 160.681 224.589 160.612 227.981C158.383 234.184 156.154 240.372 153.925 246.575C151.239 247.211 148.899 247.668 146.477 247.973C158.508 233.824 153.565 225.614 153.565 211.935Z" fill="url(#paint3_linear)"/>
<path opacity="0.5" fill-rule="evenodd" clip-rule="evenodd" d="M114.897 241.493C115.506 243.182 116.115 244.872 116.724 246.561C126.665 249.26 144.012 249.26 153.939 246.561C154.548 244.872 155.157 243.182 155.766 241.493C142.517 244.359 128.132 244.359 114.897 241.493Z" fill="url(#paint4_radial)"/>
<path fill-rule="evenodd" clip-rule="evenodd" d="M110.037 219.757C110.037 219.868 109.954 219.951 109.843 219.951C109.733 219.951 109.65 219.868 109.65 219.757V217.805C109.65 217.736 109.691 217.681 109.733 217.639L116.96 211.783C117.043 211.714 117.167 211.727 117.237 211.81C117.306 211.893 117.292 212.018 117.209 212.087L110.037 217.902V219.757Z" fill="#3B0201"/>
<path fill-rule="evenodd" clip-rule="evenodd" d="M161 219.757C161 219.868 160.917 219.951 160.806 219.951C160.695 219.951 160.612 219.868 160.612 219.757V217.902L153.44 212.087C153.357 212.018 153.344 211.893 153.413 211.81C153.482 211.727 153.607 211.714 153.69 211.783L160.917 217.639C160.972 217.681 161 217.736 161 217.805V219.757Z" fill="#3B0201"/>
<path fill-rule="evenodd" clip-rule="evenodd" d="M121.791 242.795C124.726 243.058 127.648 243.321 130.583 243.57C130.583 241.341 130.583 239.126 130.583 236.897C129.6 235.748 128.631 234.585 127.648 233.436C127.648 230.155 127.648 226.873 127.648 223.606C124.713 220.436 121.791 217.279 118.856 214.109C118.856 220.228 118.856 226.347 118.856 232.467C119.839 233.616 120.808 234.779 121.791 235.928C121.791 238.226 121.791 240.511 121.791 242.795Z" fill="url(#paint5_linear)"/>
<path fill-rule="evenodd" clip-rule="evenodd" d="M124.187 243.016L128.202 243.376V236.689L125.377 233.477V221.294L121.349 216.476V232.508L124.187 235.72V243.016Z" fill="#241818"/>
<path fill-rule="evenodd" clip-rule="evenodd" d="M118.663 214.109C118.663 213.846 119.05 213.846 119.05 214.109V232.398L121.93 235.803C121.958 235.845 121.971 235.886 121.971 235.928V242.643C121.971 242.906 121.584 242.85 121.584 242.587V235.997L118.704 232.605C118.663 232.564 118.649 232.522 118.649 232.467V214.109H118.663ZM130.777 243.404C130.777 243.667 130.389 243.667 130.389 243.404V236.98L127.509 233.574C127.482 233.533 127.468 233.491 127.468 233.45V223.758C127.468 223.495 127.855 223.786 127.855 224.049V233.381L130.735 236.772C130.777 236.814 130.791 236.856 130.791 236.911V243.404H130.777Z" fill="url(#paint6_linear)"/>
<path fill-rule="evenodd" clip-rule="evenodd" d="M148.789 242.643C145.854 242.906 142.932 243.169 139.997 243.418C139.997 241.189 139.997 238.974 139.997 236.745C140.98 235.596 141.949 234.433 142.932 233.284C142.932 230.002 142.932 226.721 142.932 223.454C145.867 220.283 148.789 217.127 151.724 213.956C151.724 220.076 151.724 226.195 151.724 232.314C150.741 233.463 149.772 234.626 148.789 235.776C148.789 238.06 148.789 240.358 148.789 242.643Z" fill="url(#paint7_linear)"/>
<path fill-rule="evenodd" clip-rule="evenodd" d="M146.407 242.864L142.379 243.21V236.537L145.217 233.325V221.142L149.232 216.31V232.356L146.407 235.554V242.864Z" fill="#241818"/>
<path fill-rule="evenodd" clip-rule="evenodd" d="M151.918 213.956C151.918 213.693 151.53 213.693 151.53 213.956V232.245L148.65 235.651C148.623 235.693 148.609 235.734 148.609 235.776V242.49C148.609 242.753 148.996 242.698 148.996 242.435V235.845L151.876 232.453C151.918 232.411 151.931 232.37 151.931 232.314V213.956H151.918ZM139.803 243.238C139.803 243.501 140.191 243.501 140.191 243.238V236.814L143.071 233.408C143.099 233.367 143.112 233.325 143.112 233.284V223.592C143.112 223.329 142.725 223.62 142.725 223.883V233.214L139.859 236.606C139.817 236.648 139.803 236.689 139.803 236.745V243.238Z" fill="url(#paint8_linear)"/>
<path fill-rule="evenodd" clip-rule="evenodd" d="M135.332 243.833C128.437 243.833 121.708 243.266 114.98 241.715C114.731 241.66 114.578 241.217 114.828 241.286C121.528 242.823 128.465 243.446 135.332 243.446C142.199 243.446 149.135 242.823 155.836 241.286C156.085 241.23 155.933 241.66 155.683 241.715C148.955 243.252 142.226 243.833 135.332 243.833Z" fill="#BCBCBC"/>
<path fill-rule="evenodd" clip-rule="evenodd" d="M125.197 248.097C125.197 248.36 124.81 248.36 124.81 248.097V246.381C124.81 246.104 124.63 245.744 124.339 245.688C123.647 245.578 122.664 245.37 121.999 245.342C121.722 245.342 121.653 245.619 121.625 245.841V247.544C121.625 247.807 121.238 247.807 121.238 247.544V245.827C121.265 245.384 121.487 244.941 121.999 244.941C122.747 244.996 123.647 245.176 124.394 245.301C124.893 245.37 125.197 245.91 125.197 246.367V248.097ZM137.699 248.499C137.699 248.762 137.311 248.762 137.311 248.499V246.782C137.311 246.464 137.048 246.201 136.73 246.201H133.947C133.629 246.201 133.366 246.464 133.366 246.782V248.499C133.366 248.762 132.978 248.762 132.978 248.499V246.782C132.978 246.242 133.421 245.799 133.961 245.799H136.744C137.284 245.799 137.727 246.242 137.727 246.782V248.499H137.699ZM145.452 248.097C145.452 248.36 145.84 248.36 145.84 248.097V246.381C145.84 246.104 146.02 245.744 146.31 245.688C147.003 245.578 147.986 245.37 148.65 245.342C148.927 245.342 148.996 245.619 149.024 245.841V247.544C149.024 247.807 149.412 247.807 149.412 247.544V245.827C149.384 245.384 149.162 244.941 148.65 244.941C147.903 244.996 147.003 245.176 146.255 245.301C145.757 245.37 145.452 245.91 145.452 246.367V248.097Z" fill="url(#paint9_linear)"/>
<path opacity="0.5" fill-rule="evenodd" clip-rule="evenodd" d="M119.12 208.778L117.25 219.605L129.655 233.283H140.994L153.399 219.605L151.53 208.778H119.12Z" fill="url(#paint10_linear)"/>
<path fill-rule="evenodd" clip-rule="evenodd" d="M116.863 211.797V181.421C116.863 181.2 117.043 181.034 117.25 181.034H153.385C153.607 181.034 153.773 181.214 153.773 181.421V211.797C153.773 211.893 153.731 211.977 153.676 212.06L141.299 225.71C141.23 225.807 141.119 225.863 140.994 225.863H129.655C129.545 225.863 129.448 225.821 129.365 225.738L116.987 212.087C116.918 212.004 116.863 211.907 116.863 211.797Z" fill="#3B0201"/>
<path fill-rule="evenodd" clip-rule="evenodd" d="M117.25 181.421V211.797L129.655 225.461H140.994L153.399 211.797V181.421H117.25Z" fill="url(#paint11_radial)"/>
<path opacity="0.5" fill-rule="evenodd" clip-rule="evenodd" d="M125.709 181.421V211.797L129.655 225.461H140.994L144.94 211.797V181.421H125.709Z" fill="url(#paint12_linear)"/>
<path fill-rule="evenodd" clip-rule="evenodd" d="M110.314 206.729C111.463 206.411 113.678 206.259 114.08 207.754C114.565 209.526 111.92 211.007 110.522 211.395C109.373 211.714 107.158 211.866 106.756 210.371C106.272 208.598 108.916 207.117 110.314 206.729Z" fill="#3B0201"/>
<path fill-rule="evenodd" clip-rule="evenodd" d="M110.425 206.729C108.584 207.242 107.102 208.529 107.102 209.609C107.102 210.689 108.598 211.146 110.425 210.648C112.266 210.135 113.748 208.848 113.748 207.768C113.748 206.688 112.253 206.231 110.425 206.729Z" fill="url(#paint13_linear)"/>
<path fill-rule="evenodd" clip-rule="evenodd" d="M110.314 198.921C111.463 198.603 113.678 198.45 114.08 199.945C114.565 201.718 111.92 203.199 110.522 203.587C109.373 203.905 107.158 204.057 106.756 202.562C106.272 200.79 108.916 199.309 110.314 198.921Z" fill="#3B0201"/>
<path fill-rule="evenodd" clip-rule="evenodd" d="M110.425 198.921C108.584 199.433 107.102 200.721 107.102 201.801C107.102 202.88 108.598 203.337 110.425 202.839C112.266 202.327 113.748 201.039 113.748 199.959C113.748 198.879 112.253 198.409 110.425 198.921Z" fill="url(#paint14_linear)"/>
<path fill-rule="evenodd" clip-rule="evenodd" d="M110.314 191.099C111.463 190.78 113.678 190.628 114.08 192.123C114.565 193.895 111.92 195.377 110.522 195.764C109.373 196.083 107.158 196.235 106.756 194.74C106.272 192.968 108.916 191.486 110.314 191.099Z" fill="#3B0201"/>
<path fill-rule="evenodd" clip-rule="evenodd" d="M110.425 191.099C108.584 191.611 107.102 192.899 107.102 193.979C107.102 195.058 108.598 195.515 110.425 195.017C112.266 194.505 113.748 193.217 113.748 192.137C113.748 191.057 112.253 190.6 110.425 191.099Z" fill="url(#paint15_linear)"/>
<path fill-rule="evenodd" clip-rule="evenodd" d="M110.314 183.29C111.463 182.972 113.678 182.82 114.08 184.315C114.565 186.087 111.92 187.568 110.522 187.956C109.373 188.274 107.158 188.413 106.756 186.931C106.272 185.159 108.916 183.678 110.314 183.29Z" fill="#3B0201"/>
<path fill-rule="evenodd" clip-rule="evenodd" d="M110.425 183.29C108.584 183.803 107.102 185.09 107.102 186.17C107.102 187.25 108.598 187.707 110.425 187.208C112.266 186.696 113.748 185.409 113.748 184.329C113.748 183.249 112.253 182.778 110.425 183.29Z" fill="url(#paint16_linear)"/>
<path fill-rule="evenodd" clip-rule="evenodd" d="M160.349 206.674C159.2 206.356 156.985 206.203 156.583 207.699C156.099 209.471 158.743 210.952 160.141 211.34C161.29 211.658 163.506 211.811 163.907 210.315C164.392 208.529 161.761 207.062 160.349 206.674Z" fill="#3B0201"/>
<path fill-rule="evenodd" clip-rule="evenodd" d="M160.252 206.674C162.093 207.186 163.575 208.474 163.575 209.554C163.575 210.634 162.08 211.091 160.252 210.592C158.411 210.08 156.929 208.792 156.929 207.712C156.929 206.619 158.411 206.162 160.252 206.674Z" fill="url(#paint17_linear)"/>
<path fill-rule="evenodd" clip-rule="evenodd" d="M160.349 198.852C159.2 198.533 156.985 198.381 156.583 199.876C156.099 201.648 158.743 203.13 160.141 203.518C161.29 203.836 163.506 203.988 163.907 202.493C164.392 200.721 161.761 199.239 160.349 198.852Z" fill="#3B0201"/>
<path fill-rule="evenodd" clip-rule="evenodd" d="M160.252 198.852C162.093 199.364 163.575 200.652 163.575 201.732C163.575 202.811 162.08 203.268 160.252 202.77C158.411 202.258 156.929 200.97 156.929 199.89C156.929 198.81 158.411 198.353 160.252 198.852Z" fill="url(#paint18_linear)"/>
<path fill-rule="evenodd" clip-rule="evenodd" d="M160.349 191.043C159.2 190.725 156.985 190.573 156.583 192.068C156.099 193.84 158.743 195.321 160.141 195.709C161.29 196.027 163.506 196.18 163.907 194.685C164.392 192.899 161.761 191.431 160.349 191.043Z" fill="#3B0201"/>
<path fill-rule="evenodd" clip-rule="evenodd" d="M160.252 191.043C162.093 191.556 163.575 192.843 163.575 193.923C163.575 195.003 162.08 195.46 160.252 194.961C158.411 194.449 156.929 193.162 156.929 192.082C156.929 191.002 158.411 190.531 160.252 191.043Z" fill="url(#paint19_linear)"/>
<path fill-rule="evenodd" clip-rule="evenodd" d="M160.349 183.221C159.2 182.903 156.985 182.75 156.583 184.246C156.099 186.018 158.743 187.499 160.141 187.887C161.29 188.205 163.506 188.344 163.907 186.862C164.392 185.09 161.761 183.609 160.349 183.221Z" fill="#3B0201"/>
<path fill-rule="evenodd" clip-rule="evenodd" d="M160.252 183.221C162.093 183.733 163.575 185.021 163.575 186.101C163.575 187.181 162.08 187.638 160.252 187.139C158.411 186.627 156.929 185.339 156.929 184.26C156.929 183.18 158.411 182.723 160.252 183.221Z" fill="url(#paint20_linear)"/>
<path fill-rule="evenodd" clip-rule="evenodd" d="M118.344 211.52H119.216C119.576 211.52 119.881 211.104 119.881 210.606V205.899C119.881 205.386 119.59 204.985 119.216 204.985H118.344C117.984 204.985 117.68 205.4 117.68 205.899V210.606C117.693 211.104 117.984 211.52 118.344 211.52Z" fill="#3B0201"/>
<path fill-rule="evenodd" clip-rule="evenodd" d="M118.123 211.215H118.995C119.23 211.215 119.438 210.938 119.438 210.606V205.899C119.438 205.566 119.244 205.29 118.995 205.29H118.123C117.887 205.29 117.68 205.566 117.68 205.899V210.606C117.693 210.938 117.887 211.215 118.123 211.215Z" fill="url(#paint21_linear)"/>
<path fill-rule="evenodd" clip-rule="evenodd" d="M118.219 210.592H118.912C119.105 210.592 119.258 210.371 119.258 210.108V206.369C119.258 206.106 119.105 205.885 118.912 205.885H118.219C118.026 205.885 117.873 206.106 117.873 206.369V210.108C117.873 210.384 118.026 210.592 118.219 210.592Z" fill="url(#paint22_radial)"/>
<path opacity="0.5" fill-rule="evenodd" clip-rule="evenodd" d="M118.123 211.215C118.123 208.28 118.455 206.868 119.438 205.899C119.438 205.566 119.244 205.29 118.995 205.29H118.123C118.441 205.899 117.984 209.9 117.68 210.606C117.693 210.938 117.887 211.215 118.123 211.215Z" fill="url(#paint23_linear)"/>
<path fill-rule="evenodd" clip-rule="evenodd" d="M118.344 203.697H119.216C119.576 203.697 119.881 203.282 119.881 202.784V198.076C119.881 197.564 119.59 197.163 119.216 197.163H118.344C117.984 197.163 117.68 197.578 117.68 198.076V202.784C117.693 203.282 117.984 203.697 118.344 203.697Z" fill="#3B0201"/>
<path fill-rule="evenodd" clip-rule="evenodd" d="M118.123 203.393H118.995C119.23 203.393 119.438 203.116 119.438 202.784V198.076C119.438 197.744 119.244 197.467 118.995 197.467H118.123C117.887 197.467 117.68 197.744 117.68 198.076V202.784C117.693 203.116 117.887 203.393 118.123 203.393Z" fill="url(#paint24_linear)"/>
<path fill-rule="evenodd" clip-rule="evenodd" d="M118.219 202.784H118.912C119.105 202.784 119.258 202.562 119.258 202.299V198.561C119.258 198.298 119.105 198.076 118.912 198.076H118.219C118.026 198.076 117.873 198.298 117.873 198.561V202.299C117.873 202.562 118.026 202.784 118.219 202.784Z" fill="url(#paint25_radial)"/>
<path opacity="0.5" fill-rule="evenodd" clip-rule="evenodd" d="M118.123 203.393C118.123 200.458 118.455 199.045 119.438 198.076C119.438 197.744 119.244 197.467 118.995 197.467H118.123C118.441 198.076 117.984 202.077 117.68 202.784C117.693 203.116 117.887 203.393 118.123 203.393Z" fill="url(#paint26_linear)"/>
<path fill-rule="evenodd" clip-rule="evenodd" d="M118.344 195.889H119.216C119.576 195.889 119.881 195.474 119.881 194.975V190.268C119.881 189.756 119.59 189.354 119.216 189.354H118.344C117.984 189.354 117.68 189.77 117.68 190.268V194.975C117.693 195.474 117.984 195.889 118.344 195.889Z" fill="#3B0201"/>
<path fill-rule="evenodd" clip-rule="evenodd" d="M118.123 195.584H118.995C119.23 195.584 119.438 195.307 119.438 194.975V190.268C119.438 189.936 119.244 189.659 118.995 189.659H118.123C117.887 189.659 117.68 189.936 117.68 190.268V194.975C117.693 195.307 117.887 195.584 118.123 195.584Z" fill="url(#paint27_linear)"/>
<path fill-rule="evenodd" clip-rule="evenodd" d="M118.219 194.975H118.912C119.105 194.975 119.258 194.754 119.258 194.491V190.753C119.258 190.49 119.105 190.268 118.912 190.268H118.219C118.026 190.268 117.873 190.49 117.873 190.753V194.491C117.873 194.754 118.026 194.975 118.219 194.975Z" fill="url(#paint28_radial)"/>
<path opacity="0.5" fill-rule="evenodd" clip-rule="evenodd" d="M118.123 195.584C118.123 192.649 118.455 191.237 119.438 190.268C119.438 189.936 119.244 189.659 118.995 189.659H118.123C118.441 190.268 117.984 194.269 117.68 194.975C117.693 195.307 117.887 195.584 118.123 195.584Z" fill="url(#paint29_linear)"/>
<path fill-rule="evenodd" clip-rule="evenodd" d="M152.056 211.437H151.184C150.824 211.437 150.519 211.021 150.519 210.523V205.816C150.519 205.303 150.81 204.902 151.184 204.902H152.056C152.416 204.902 152.721 205.317 152.721 205.816V210.523C152.721 211.021 152.416 211.437 152.056 211.437Z" fill="#3B0201"/>
<path fill-rule="evenodd" clip-rule="evenodd" d="M152.278 211.132H151.405C151.17 211.132 150.962 210.855 150.962 210.523V205.816C150.962 205.483 151.156 205.206 151.405 205.206H152.278C152.513 205.206 152.721 205.483 152.721 205.816V210.523C152.721 210.855 152.513 211.132 152.278 211.132Z" fill="url(#paint30_linear)"/>
<path fill-rule="evenodd" clip-rule="evenodd" d="M152.194 210.523H151.502C151.308 210.523 151.156 210.301 151.156 210.038V206.3C151.156 206.037 151.308 205.816 151.502 205.816H152.194C152.388 205.816 152.54 206.037 152.54 206.3V210.038C152.54 210.301 152.374 210.523 152.194 210.523Z" fill="url(#paint31_radial)"/>
<path opacity="0.5" fill-rule="evenodd" clip-rule="evenodd" d="M152.278 211.132C152.278 208.197 151.945 206.785 150.962 205.816C150.962 205.483 151.156 205.206 151.405 205.206H152.278C151.959 205.816 152.416 209.817 152.721 210.523C152.721 210.855 152.513 211.132 152.278 211.132Z" fill="url(#paint32_linear)"/>
<path fill-rule="evenodd" clip-rule="evenodd" d="M152.056 203.628H151.184C150.824 203.628 150.519 203.213 150.519 202.714V198.007C150.519 197.495 150.81 197.094 151.184 197.094H152.056C152.416 197.094 152.721 197.509 152.721 198.007V202.714C152.721 203.213 152.416 203.628 152.056 203.628Z" fill="#3B0201"/>
<path fill-rule="evenodd" clip-rule="evenodd" d="M152.278 203.31H151.405C151.17 203.31 150.962 203.033 150.962 202.701V197.993C150.962 197.661 151.156 197.384 151.405 197.384H152.278C152.513 197.384 152.721 197.661 152.721 197.993V202.701C152.721 203.047 152.513 203.31 152.278 203.31Z" fill="url(#paint33_linear)"/>
<path fill-rule="evenodd" clip-rule="evenodd" d="M152.194 202.701H151.502C151.308 202.701 151.156 202.479 151.156 202.216V198.478C151.156 198.215 151.308 197.993 151.502 197.993H152.194C152.388 197.993 152.54 198.215 152.54 198.478V202.216C152.54 202.493 152.374 202.701 152.194 202.701Z" fill="url(#paint34_radial)"/>
<path opacity="0.5" fill-rule="evenodd" clip-rule="evenodd" d="M152.278 203.31C152.278 200.375 151.945 198.963 150.962 197.993C150.962 197.661 151.156 197.384 151.405 197.384H152.278C151.959 197.993 152.416 201.995 152.721 202.701C152.721 203.047 152.513 203.31 152.278 203.31Z" fill="url(#paint35_linear)"/>
<path fill-rule="evenodd" clip-rule="evenodd" d="M152.056 195.806H151.184C150.824 195.806 150.519 195.391 150.519 194.892V190.185C150.519 189.673 150.81 189.271 151.184 189.271H152.056C152.416 189.271 152.721 189.687 152.721 190.185V194.892C152.721 195.391 152.416 195.806 152.056 195.806Z" fill="#3B0201"/>
<path fill-rule="evenodd" clip-rule="evenodd" d="M152.278 195.501H151.405C151.17 195.501 150.962 195.224 150.962 194.892V190.185C150.962 189.853 151.156 189.576 151.405 189.576H152.278C152.513 189.576 152.721 189.853 152.721 190.185V194.892C152.721 195.224 152.513 195.501 152.278 195.501Z" fill="url(#paint36_linear)"/>
<path fill-rule="evenodd" clip-rule="evenodd" d="M152.194 194.892H151.502C151.308 194.892 151.156 194.671 151.156 194.408V190.67C151.156 190.406 151.308 190.185 151.502 190.185H152.194C152.388 190.185 152.54 190.406 152.54 190.67V194.408C152.54 194.671 152.374 194.892 152.194 194.892Z" fill="url(#paint37_radial)"/>
<path opacity="0.5" fill-rule="evenodd" clip-rule="evenodd" d="M152.278 195.501C152.278 192.566 151.945 191.154 150.962 190.185C150.962 189.853 151.156 189.576 151.405 189.576H152.278C151.959 190.185 152.416 194.186 152.721 194.892C152.721 195.224 152.513 195.501 152.278 195.501Z" fill="url(#paint38_linear)"/>
<path fill-rule="evenodd" clip-rule="evenodd" d="M119.604 176.133C118.967 176.133 118.33 176.133 117.693 176.133C114.177 177.683 110.66 179.234 107.144 180.784C106.424 181.103 105.981 181.781 105.981 182.57C105.981 193.729 105.981 204.888 105.981 216.047C105.981 216.711 106.285 217.279 106.825 217.653C107.836 218.345 108.847 219.051 109.857 219.743C109.913 222.055 109.968 224.381 110.023 226.693C110.051 227.58 110.19 228.327 110.48 229.158C112.571 234.959 114.648 240.76 116.738 246.547C117.707 246.796 118.663 247.031 119.632 247.225C113.014 235.817 111.394 190.365 119.604 176.133Z" fill="url(#paint39_linear)"/>
<path fill-rule="evenodd" clip-rule="evenodd" d="M151.045 176.133C151.682 176.133 152.319 176.133 152.956 176.133C156.472 177.683 159.989 179.234 163.506 180.784C164.225 181.103 164.668 181.781 164.668 182.57C164.668 193.729 164.668 204.888 164.668 216.047C164.668 216.711 164.364 217.279 163.824 217.653C162.813 218.345 161.803 219.051 160.792 219.743C160.737 222.055 160.681 224.381 160.626 226.693C160.598 227.58 160.46 228.327 160.169 229.158C158.078 234.959 156.002 240.76 153.911 246.547C152.942 246.796 151.987 247.031 151.018 247.225C157.635 235.817 159.255 190.365 151.045 176.133Z" fill="url(#paint40_linear)"/>
</g>
</g>
<defs>
<linearGradient id="paint0_linear" x1="135.324" y1="176.771" x2="135.326" y2="225.47" gradientUnits="userSpaceOnUse">
<stop stop-color="#7A0604"/>
<stop offset="1" stop-color="#C2391E"/>
</linearGradient>
<radialGradient id="paint1_radial" cx="0" cy="0" r="1" gradientUnits="userSpaceOnUse" gradientTransform="translate(135.483 227.036) rotate(-90.0023) scale(25.0443 21.9137)">
<stop stop-color="#B2B4B4"/>
<stop offset="1" stop-color="#454849"/>
</radialGradient>
<linearGradient id="paint2_linear" x1="109.846" y1="229.946" x2="118.761" y2="229.944" gradientUnits="userSpaceOnUse">
<stop stop-color="#454849"/>
<stop offset="1" stop-color="#B2B4B4"/>
</linearGradient>
<linearGradient id="paint3_linear" x1="160.803" y1="229.946" x2="151.889" y2="229.944" gradientUnits="userSpaceOnUse">
<stop stop-color="#454849"/>
<stop offset="1" stop-color="#B2B4B4"/>
</linearGradient>
<radialGradient id="paint4_radial" cx="0" cy="0" r="1" gradientUnits="userSpaceOnUse" gradientTransform="translate(135.353 243.939) scale(21.6727 4.57727)">
<stop stop-color="#B2B4B4"/>
<stop offset="1" stop-color="#040000"/>
</radialGradient>
<linearGradient id="paint5_linear" x1="124.721" y1="241.987" x2="124.723" y2="219.808" gradientUnits="userSpaceOnUse">
<stop stop-color="#454849"/>
<stop offset="0.46" stop-color="#B2B4B4"/>
<stop offset="1" stop-color="#454849"/>
</linearGradient>
<linearGradient id="paint6_linear" x1="124.721" y1="218.684" x2="124.723" y2="242.808" gradientUnits="userSpaceOnUse">
<stop stop-color="#040000"/>
<stop offset="1" stop-color="#B2B4B4"/>
</linearGradient>
<linearGradient id="paint7_linear" x1="145.866" y1="241.831" x2="145.864" y2="219.652" gradientUnits="userSpaceOnUse">
<stop stop-color="#454849"/>
<stop offset="0.46" stop-color="#B2B4B4"/>
<stop offset="1" stop-color="#454849"/>
</linearGradient>
<linearGradient id="paint8_linear" x1="145.866" y1="218.527" x2="145.864" y2="242.652" gradientUnits="userSpaceOnUse">
<stop stop-color="#040000"/>
<stop offset="1" stop-color="#B2B4B4"/>
</linearGradient>
<linearGradient id="paint9_linear" x1="135.323" y1="248.584" x2="135.325" y2="245.802" gradientUnits="userSpaceOnUse">
<stop/>
<stop offset="1" stop-color="#454849"/>
</linearGradient>
<linearGradient id="paint10_linear" x1="135.325" y1="222.875" x2="135.326" y2="233.282" gradientUnits="userSpaceOnUse">
<stop stop-color="#454849"/>
<stop offset="1" stop-color="#B2B4B4"/>
</linearGradient>
<radialGradient id="paint11_radial" cx="0" cy="0" r="1" gradientUnits="userSpaceOnUse" gradientTransform="translate(135.329 192.79) rotate(-89.9976) scale(32.6756 17.4945)">
<stop stop-color="#C2391E"/>
<stop offset="1" stop-color="#7A0604"/>
</radialGradient>
<linearGradient id="paint12_linear" x1="135.324" y1="180.678" x2="135.326" y2="225.467" gradientUnits="userSpaceOnUse">
<stop stop-color="#F36E21"/>
<stop offset="1" stop-color="white"/>
</linearGradient>
<linearGradient id="paint13_linear" x1="110.421" y1="210.64" x2="110.423" y2="206.735" gradientUnits="userSpaceOnUse">
<stop stop-color="#7A0604"/>
<stop offset="1" stop-color="#C2391E"/>
</linearGradient>
<linearGradient id="paint14_linear" x1="110.421" y1="202.826" x2="110.423" y2="198.921" gradientUnits="userSpaceOnUse">
<stop stop-color="#7A0604"/>
<stop offset="1" stop-color="#C2391E"/>
</linearGradient>
<linearGradient id="paint15_linear" x1="110.421" y1="195.012" x2="110.423" y2="191.107" gradientUnits="userSpaceOnUse">
<stop stop-color="#7A0604"/>
<stop offset="1" stop-color="#C2391E"/>
</linearGradient>
<linearGradient id="paint16_linear" x1="110.421" y1="187.197" x2="110.423" y2="183.292" gradientUnits="userSpaceOnUse">
<stop stop-color="#7A0604"/>
<stop offset="1" stop-color="#C2391E"/>
</linearGradient>
<linearGradient id="paint17_linear" x1="160.252" y1="210.576" x2="160.25" y2="206.671" gradientUnits="userSpaceOnUse">
<stop stop-color="#7A0604"/>
<stop offset="1" stop-color="#C2391E"/>
</linearGradient>
<linearGradient id="paint18_linear" x1="160.252" y1="202.762" x2="160.25" y2="198.857" gradientUnits="userSpaceOnUse">
<stop stop-color="#7A0604"/>
<stop offset="1" stop-color="#C2391E"/>
</linearGradient>
<linearGradient id="paint19_linear" x1="160.252" y1="194.947" x2="160.25" y2="191.042" gradientUnits="userSpaceOnUse">
<stop stop-color="#7A0604"/>
<stop offset="1" stop-color="#C2391E"/>
</linearGradient>
<linearGradient id="paint20_linear" x1="160.252" y1="187.133" x2="160.25" y2="183.228" gradientUnits="userSpaceOnUse">
<stop stop-color="#7A0604"/>
<stop offset="1" stop-color="#C2391E"/>
</linearGradient>
<linearGradient id="paint21_linear" x1="118.562" y1="205.648" x2="118.564" y2="211.21" gradientUnits="userSpaceOnUse">
<stop stop-color="#00290D"/>
<stop offset="1" stop-color="#185C22"/>
</linearGradient>
<radialGradient id="paint22_radial" cx="0" cy="0" r="1" gradientUnits="userSpaceOnUse" gradientTransform="translate(118.602 209.097) rotate(-89.9827) scale(2.47193 0.747762)">
<stop stop-color="#80C342"/>
<stop offset="1" stop-color="#2F943E"/>
</radialGradient>
<linearGradient id="paint23_linear" x1="119.073" y1="205.721" x2="117.353" y2="210.313" gradientUnits="userSpaceOnUse">
<stop stop-color="#2F943E"/>
<stop offset="1" stop-color="white"/>
</linearGradient>
<linearGradient id="paint24_linear" x1="118.562" y1="197.833" x2="118.564" y2="203.395" gradientUnits="userSpaceOnUse">
<stop stop-color="#00290D"/>
<stop offset="1" stop-color="#185C22"/>
</linearGradient>
<radialGradient id="paint25_radial" cx="0" cy="0" r="1" gradientUnits="userSpaceOnUse" gradientTransform="translate(118.602 201.283) rotate(-89.9827) scale(2.47194 0.747762)">
<stop stop-color="#80C342"/>
<stop offset="1" stop-color="#2F943E"/>
</radialGradient>
<linearGradient id="paint26_linear" x1="119.073" y1="197.907" x2="117.353" y2="202.499" gradientUnits="userSpaceOnUse">
<stop stop-color="#2F943E"/>
<stop offset="1" stop-color="white"/>
</linearGradient>
<linearGradient id="paint27_linear" x1="118.562" y1="190.018" x2="118.564" y2="195.581" gradientUnits="userSpaceOnUse">
<stop stop-color="#00290D"/>
<stop offset="1" stop-color="#185C22"/>
</linearGradient>
<radialGradient id="paint28_radial" cx="0" cy="0" r="1" gradientUnits="userSpaceOnUse" gradientTransform="translate(118.602 193.469) rotate(-89.9827) scale(2.47193 0.747762)">
<stop stop-color="#80C342"/>
<stop offset="1" stop-color="#2F943E"/>
</radialGradient>
<linearGradient id="paint29_linear" x1="119.073" y1="190.092" x2="117.353" y2="194.684" gradientUnits="userSpaceOnUse">
<stop stop-color="#2F943E"/>
<stop offset="1" stop-color="white"/>
</linearGradient>
<linearGradient id="paint30_linear" x1="151.844" y1="205.569" x2="151.842" y2="211.131" gradientUnits="userSpaceOnUse">
<stop stop-color="#00290D"/>
<stop offset="1" stop-color="#185C22"/>
</linearGradient>
<radialGradient id="paint31_radial" cx="0" cy="0" r="1" gradientUnits="userSpaceOnUse" gradientTransform="translate(151.804 209.019) rotate(-90.0173) scale(2.47195 0.747766)">
<stop stop-color="#80C342"/>
<stop offset="1" stop-color="#2F943E"/>
</radialGradient>
<linearGradient id="paint32_linear" x1="151.333" y1="205.643" x2="153.053" y2="210.235" gradientUnits="userSpaceOnUse">
<stop stop-color="#2F943E"/>
<stop offset="1" stop-color="white"/>
</linearGradient>
<linearGradient id="paint33_linear" x1="151.844" y1="197.755" x2="151.842" y2="203.317" gradientUnits="userSpaceOnUse">
<stop stop-color="#00290D"/>
<stop offset="1" stop-color="#185C22"/>
</linearGradient>
<radialGradient id="paint34_radial" cx="0" cy="0" r="1" gradientUnits="userSpaceOnUse" gradientTransform="translate(151.804 201.204) rotate(-90.0173) scale(2.47204 0.747787)">
<stop stop-color="#80C342"/>
<stop offset="1" stop-color="#2F943E"/>
</radialGradient>
<linearGradient id="paint35_linear" x1="151.333" y1="197.828" x2="153.053" y2="202.42" gradientUnits="userSpaceOnUse">
<stop stop-color="#2F943E"/>
<stop offset="1" stop-color="white"/>
</linearGradient>
<linearGradient id="paint36_linear" x1="151.844" y1="189.94" x2="151.842" y2="195.502" gradientUnits="userSpaceOnUse">
<stop stop-color="#00290D"/>
<stop offset="1" stop-color="#185C22"/>
</linearGradient>
<radialGradient id="paint37_radial" cx="0" cy="0" r="1" gradientUnits="userSpaceOnUse" gradientTransform="translate(151.804 193.39) rotate(-90.0173) scale(2.47204 0.747787)">
<stop stop-color="#80C342"/>
<stop offset="1" stop-color="#2F943E"/>
</radialGradient>
<linearGradient id="paint38_linear" x1="151.333" y1="190.014" x2="153.053" y2="194.606" gradientUnits="userSpaceOnUse">
<stop stop-color="#2F943E"/>
<stop offset="1" stop-color="white"/>
</linearGradient>
<linearGradient id="paint39_linear" x1="105.938" y1="211.691" x2="117.257" y2="211.689" gradientUnits="userSpaceOnUse">
<stop stop-color="#7A0604"/>
<stop offset="1" stop-color="white"/>
</linearGradient>
<linearGradient id="paint40_linear" x1="164.712" y1="211.691" x2="153.393" y2="211.689" gradientUnits="userSpaceOnUse">
<stop stop-color="#7A0604"/>
<stop offset="1" stop-color="white"/>
</linearGradient>
<clipPath id="clip0">
<rect width="270" height="370" fill="white"/>
</clipPath>
<clipPath id="clip1">
<rect x="55.6138" y="116.296" width="159.422" height="133.781" fill="white"/>
</clipPath>
</defs>
</svg>
