<svg width="270" height="370" viewBox="0 0 270 370" fill="none" xmlns="http://www.w3.org/2000/svg">
<g clip-path="url(#clip0)">
<g clip-path="url(#clip1)">
<path fill-rule="evenodd" clip-rule="evenodd" d="M135.318 182.293C129.434 182.293 123.564 182.293 117.68 182.293C114.163 183.844 110.647 185.395 107.13 186.945C106.41 187.264 105.967 187.942 105.967 188.731C105.967 199.89 105.967 211.049 105.967 222.208C105.967 222.872 106.272 223.44 106.812 223.814C107.822 224.506 108.833 225.212 109.844 225.904C109.899 228.216 109.954 230.542 110.01 232.854C110.037 233.74 110.176 234.488 110.467 235.319C112.557 241.12 114.634 246.92 116.724 252.708C117.666 252.957 118.607 253.178 119.563 253.372L123.093 268.338C127.219 269.833 130.098 270.29 135.332 270.29C140.551 270.29 143.445 269.833 147.57 268.338L151.101 253.372C152.056 253.178 152.998 252.957 153.939 252.708C156.03 246.907 158.106 241.106 160.197 235.319C160.501 234.488 160.64 233.74 160.654 232.854C160.709 230.542 160.764 228.216 160.82 225.904C161.83 225.212 162.841 224.506 163.852 223.814C164.392 223.44 164.696 222.872 164.696 222.208C164.696 211.049 164.696 199.89 164.696 188.731C164.696 187.942 164.253 187.264 163.533 186.945C160.017 185.395 156.5 183.844 152.984 182.293C147.072 182.293 141.188 182.293 135.318 182.293Z" fill="url(#paint0_linear)"/>
<path fill-rule="evenodd" clip-rule="evenodd" d="M117.68 180.729H135.318H152.956C153.164 180.729 153.385 180.77 153.579 180.867L164.129 185.519C164.765 185.796 165.292 186.253 165.665 186.821C166.025 187.388 166.233 188.039 166.233 188.745V222.208C166.233 222.789 166.095 223.343 165.832 223.841C165.568 224.34 165.195 224.769 164.71 225.101L162.343 226.749L162.204 232.91C162.19 233.45 162.149 233.934 162.052 234.405C161.969 234.889 161.83 235.36 161.65 235.859L155.434 253.164C155.282 253.677 154.88 254.092 154.34 254.23C153.828 254.369 153.344 254.494 152.887 254.59L152.402 254.701L149.093 268.698C148.983 269.197 148.623 269.626 148.11 269.806C145.964 270.581 144.123 271.093 142.116 271.412C140.108 271.73 138.004 271.855 135.332 271.855C132.66 271.855 130.555 271.73 128.548 271.412C126.568 271.093 124.754 270.595 122.636 269.833C122.124 269.681 121.695 269.252 121.57 268.698L118.261 254.701L117.777 254.59C117.32 254.48 116.835 254.355 116.323 254.23C115.838 254.106 115.437 253.746 115.257 253.247L108.999 235.859C108.833 235.388 108.694 234.931 108.611 234.474L108.597 234.405C108.514 233.934 108.459 233.436 108.445 232.91V232.896L108.307 226.735L105.939 225.087C105.455 224.755 105.081 224.326 104.818 223.827C104.555 223.329 104.416 222.775 104.416 222.194V188.731C104.416 188.039 104.624 187.374 104.984 186.807C105.344 186.239 105.87 185.796 106.521 185.505L117.001 180.881C117.181 180.784 117.43 180.729 117.68 180.729ZM116.71 252.721C117.652 252.971 118.593 253.192 119.549 253.386L123.079 268.352C127.205 269.847 130.084 270.304 135.318 270.304C140.537 270.304 143.431 269.847 147.557 268.352L151.087 253.386C152.042 253.192 152.984 252.971 153.925 252.721C156.016 246.92 158.092 241.12 160.183 235.332C160.487 234.502 160.626 233.754 160.64 232.868C160.695 230.556 160.751 228.23 160.806 225.918C161.817 225.226 162.827 224.52 163.838 223.827C164.378 223.454 164.682 222.886 164.682 222.221C164.682 211.063 164.682 199.904 164.682 188.745C164.682 187.956 164.239 187.277 163.519 186.959C160.003 185.408 156.486 183.858 152.97 182.307C147.086 182.307 141.216 182.307 135.332 182.307C129.448 182.307 123.577 182.307 117.693 182.307C114.177 183.858 110.66 185.408 107.144 186.959C106.424 187.277 105.981 187.956 105.981 188.745C105.981 199.904 105.981 211.063 105.981 222.221C105.981 222.886 106.285 223.454 106.825 223.827C107.836 224.52 108.847 225.226 109.857 225.918C109.913 228.23 109.968 230.556 110.023 232.868C110.051 233.754 110.19 234.502 110.48 235.332C112.543 241.12 114.62 246.92 116.71 252.721Z" fill="black"/>
<path fill-rule="evenodd" clip-rule="evenodd" d="M118.69 249.759C120.158 255.961 121.625 262.15 123.079 268.352C130.61 271.08 140.011 271.08 147.556 268.352C149.024 262.15 150.492 255.961 151.945 249.759C140.856 249.759 129.766 249.759 118.69 249.759Z" fill="url(#paint1_linear)"/>
<path fill-rule="evenodd" clip-rule="evenodd" d="M109.83 225.904C109.899 229.296 109.954 230.736 110.023 234.128C112.252 240.33 112.737 241.673 114.966 247.862C121.238 249.357 127.371 249.98 135.318 249.98C143.265 249.98 149.412 249.357 155.669 247.862C157.898 241.659 158.383 240.316 160.612 234.128C160.681 230.736 160.737 229.296 160.806 225.904C149.093 216.42 121.542 216.42 109.83 225.904Z" fill="url(#paint2_linear)"/>
<path opacity="0.5" fill-rule="evenodd" clip-rule="evenodd" d="M150.478 248.914C152.222 248.623 153.939 248.291 155.67 247.876C157.899 241.673 158.383 240.33 160.612 234.142C160.681 230.75 160.737 229.31 160.806 225.918C158.66 224.174 155.988 222.761 152.984 221.654C152.942 226.583 152.901 228.853 152.859 233.976L150.478 248.914Z" fill="url(#paint3_linear)"/>
<path opacity="0.5" fill-rule="evenodd" clip-rule="evenodd" d="M109.83 225.904C109.899 229.296 109.954 230.736 110.023 234.128C112.252 240.33 112.737 241.673 114.966 247.862C116.697 248.277 118.413 248.623 120.158 248.9L117.776 233.99C117.735 228.867 117.693 226.583 117.652 221.668C114.648 222.761 111.976 224.174 109.83 225.904Z" fill="url(#paint4_linear)"/>
<path fill-rule="evenodd" clip-rule="evenodd" d="M114.883 247.654C115.492 249.343 116.101 251.032 116.71 252.721C126.651 255.421 143.998 255.421 153.925 252.721C154.534 251.032 155.143 249.343 155.753 247.654C142.503 250.506 128.132 250.506 114.883 247.654Z" fill="url(#paint5_radial)"/>
<path fill-rule="evenodd" clip-rule="evenodd" d="M135.318 249.98C128.423 249.98 121.695 249.413 114.966 247.862C114.717 247.807 114.565 247.364 114.814 247.433C121.515 248.969 128.451 249.593 135.318 249.593C142.185 249.593 149.121 248.969 155.822 247.433C156.071 247.377 155.919 247.807 155.67 247.862C148.941 249.413 142.212 249.98 135.318 249.98Z" fill="#BCBCBC"/>
<path opacity="0.5" fill-rule="evenodd" clip-rule="evenodd" d="M116.987 211.021L117.25 225.766L129.655 239.43H140.98L153.385 225.766L153.648 211.021H116.987Z" fill="url(#paint6_linear)"/>
<path fill-rule="evenodd" clip-rule="evenodd" d="M121.57 216.573H125.474V238.821C125.474 241.396 121.57 241.396 121.57 238.821V216.573Z" fill="url(#paint7_linear)"/>
<path fill-rule="evenodd" clip-rule="evenodd" d="M122.553 216.573H124.505V238.821C124.505 240.109 122.553 240.109 122.553 238.821V216.573Z" fill="url(#paint8_linear)"/>
<path fill-rule="evenodd" clip-rule="evenodd" d="M123.135 216.573H123.924V237.852C123.924 238.503 123.135 238.517 123.135 237.852V216.573Z" fill="url(#paint9_linear)"/>
<path fill-rule="evenodd" clip-rule="evenodd" d="M133.366 224.395H137.27V246.644C137.27 249.219 133.366 249.219 133.366 246.644V224.395Z" fill="url(#paint10_linear)"/>
<path fill-rule="evenodd" clip-rule="evenodd" d="M134.335 224.395H136.287V246.644C136.287 247.931 134.335 247.931 134.335 246.644V224.395Z" fill="url(#paint11_linear)"/>
<path fill-rule="evenodd" clip-rule="evenodd" d="M134.916 224.395H135.706V245.674C135.706 246.325 134.916 246.339 134.916 245.674V224.395Z" fill="url(#paint12_linear)"/>
<path fill-rule="evenodd" clip-rule="evenodd" d="M145.023 216.573H148.927V238.821C148.927 241.396 145.023 241.396 145.023 238.821V216.573Z" fill="url(#paint13_linear)"/>
<path fill-rule="evenodd" clip-rule="evenodd" d="M145.992 216.573H147.944V238.821C147.944 240.109 145.992 240.109 145.992 238.821V216.573Z" fill="url(#paint14_linear)"/>
<path fill-rule="evenodd" clip-rule="evenodd" d="M146.574 216.573H147.363V237.852C147.363 238.503 146.574 238.517 146.574 237.852V216.573Z" fill="url(#paint15_linear)"/>
<path fill-rule="evenodd" clip-rule="evenodd" d="M116.863 213.416V182.293H153.773V213.43C153.773 216.545 152.734 219.259 150.63 221.571L143.597 229.324C141.991 231.096 139.914 232.024 137.519 232.024H133.103C130.708 232.024 128.631 231.11 127.025 229.324L119.992 221.571C117.901 219.245 116.863 216.545 116.863 213.416Z" fill="#3B0201"/>
<path fill-rule="evenodd" clip-rule="evenodd" d="M117.25 182.293V213.43C117.25 216.462 118.261 219.065 120.296 221.308L127.329 229.061C128.866 230.75 130.832 231.622 133.117 231.622H137.533C139.817 231.622 141.783 230.75 143.32 229.061L150.353 221.308C152.388 219.065 153.399 216.462 153.399 213.43V182.293H117.25Z" fill="url(#paint16_radial)"/>
<path fill-rule="evenodd" clip-rule="evenodd" d="M125.35 216.282V182.293H145.286V216.296C145.286 221.239 142.545 225.849 136.578 225.849H134.058C128.091 225.835 125.35 221.239 125.35 216.282Z" fill="#3B0201"/>
<path fill-rule="evenodd" clip-rule="evenodd" d="M125.709 182.293V216.296C125.709 221.003 128.298 225.489 134.058 225.489H136.578C142.337 225.489 144.926 220.989 144.926 216.296V182.293H125.709Z" fill="url(#paint17_linear)"/>
<path opacity="0.5" fill-rule="evenodd" clip-rule="evenodd" d="M131.317 182.293V212.378C131.317 221.557 139.305 221.557 139.305 212.378V182.293H131.317Z" fill="url(#paint18_linear)"/>
<path fill-rule="evenodd" clip-rule="evenodd" d="M140.205 228.867C140.205 228.438 140.205 227.995 140.205 227.566C140.205 227.026 139.568 226.417 138.834 226.583C136.495 227.123 134.141 227.123 131.801 226.583C131.067 226.417 130.431 227.026 130.431 227.566C130.431 227.995 130.431 228.438 130.431 228.867C130.431 229.407 131.054 229.712 131.801 229.85C134.141 230.279 136.495 230.279 138.834 229.85C139.582 229.712 140.205 229.407 140.205 228.867Z" fill="#3B0201"/>
<path fill-rule="evenodd" clip-rule="evenodd" d="M139.748 229.185C139.748 228.756 139.748 228.313 139.748 227.884C139.748 227.524 139.333 227.164 138.834 227.233C136.495 227.538 134.141 227.538 131.801 227.233C131.303 227.164 130.887 227.524 130.887 227.884C130.887 228.313 130.887 228.756 130.887 229.185C130.887 229.545 131.303 229.753 131.801 229.836C134.141 230.265 136.495 230.265 138.834 229.836C139.333 229.753 139.748 229.545 139.748 229.185Z" fill="url(#paint19_linear)"/>
<path fill-rule="evenodd" clip-rule="evenodd" d="M138.834 229.061C138.834 228.715 138.834 228.369 138.834 228.022C138.834 227.732 138.502 227.427 138.115 227.496C136.259 227.87 134.39 227.87 132.535 227.496C132.147 227.413 131.815 227.732 131.815 228.022C131.815 228.369 131.815 228.715 131.815 229.061C131.815 229.352 132.147 229.531 132.535 229.587C134.335 229.836 136.19 229.85 138.115 229.587C138.502 229.518 138.834 229.338 138.834 229.061Z" fill="url(#paint20_radial)"/>
<path opacity="0.5" fill-rule="evenodd" clip-rule="evenodd" d="M139.748 229.185C135.359 229.199 133.255 228.701 131.801 227.233C131.303 227.233 130.887 227.524 130.887 227.884C130.887 228.313 130.887 228.756 130.887 229.185C131.801 228.701 137.699 229.518 138.834 229.836C139.305 229.975 139.748 229.545 139.748 229.185Z" fill="url(#paint21_linear)"/>
<path fill-rule="evenodd" clip-rule="evenodd" d="M106.396 223.44C106.23 223.246 106.105 223.025 106.036 222.734C106.895 222 112.779 218.857 117.984 217.57C112.945 219.619 107.947 222.125 106.396 223.44Z" fill="url(#paint22_linear)"/>
<path fill-rule="evenodd" clip-rule="evenodd" d="M164.239 223.44C164.406 223.246 164.53 223.025 164.599 222.734C163.741 222 157.857 218.857 152.651 217.57C157.691 219.619 162.689 222.125 164.239 223.44Z" fill="url(#paint23_linear)"/>
<path fill-rule="evenodd" clip-rule="evenodd" d="M133.366 235.319V235.706C128.949 235.706 127.62 242.919 125.46 242.919C122.733 242.919 119.507 242.587 116.863 241.936C115.949 241.715 114.578 231.193 113.734 231.193H109.954V230.805H113.734C115.008 230.805 116.406 241.424 116.946 241.563C119.563 242.213 122.761 242.532 125.447 242.532C127.205 242.546 128.755 235.319 133.366 235.319Z" fill="#3B0201"/>
<path fill-rule="evenodd" clip-rule="evenodd" d="M137.27 235.319V235.706C141.686 235.706 143.015 242.919 145.175 242.919C147.903 242.919 151.128 242.587 153.773 241.936C154.687 241.715 156.057 231.193 156.902 231.193H160.681V230.805H156.902C155.628 230.805 154.23 241.424 153.69 241.563C151.073 242.213 147.875 242.532 145.189 242.532C143.417 242.546 141.88 235.319 137.27 235.319Z" fill="#3B0201"/>
<path fill-rule="evenodd" clip-rule="evenodd" d="M114.385 183.747V191.306C114.385 191.805 113.983 192.206 113.485 192.206H111.366C110.868 192.206 110.467 191.805 110.467 191.306V185.464L114.385 183.747Z" fill="url(#paint24_linear)"/>
<path fill-rule="evenodd" clip-rule="evenodd" d="M112.432 187.485V190.628C112.432 190.919 112.266 191.154 112.059 191.154H111.173C110.965 191.154 110.799 190.919 110.799 190.628V187.485C110.799 186.987 111.09 186.585 111.45 186.585H111.809C112.142 186.585 112.432 186.987 112.432 187.485Z" fill="url(#paint25_linear)"/>
<path fill-rule="evenodd" clip-rule="evenodd" d="M156.237 183.747V191.306C156.237 191.805 156.639 192.206 157.137 192.206H159.255C159.754 192.206 160.155 191.805 160.155 191.306V185.464L156.237 183.747Z" fill="url(#paint26_linear)"/>
<path fill-rule="evenodd" clip-rule="evenodd" d="M158.203 187.485V190.628C158.203 190.919 158.369 191.154 158.577 191.154H159.463C159.671 191.154 159.837 190.919 159.837 190.628V187.485C159.837 186.987 159.546 186.585 159.186 186.585H158.826C158.494 186.585 158.203 186.987 158.203 187.485Z" fill="url(#paint27_linear)"/>
<path fill-rule="evenodd" clip-rule="evenodd" d="M127.052 222.443C127.122 222.36 127.246 222.346 127.329 222.415C127.412 222.485 127.426 222.609 127.357 222.692L124.671 226.07C124.602 226.153 124.477 226.167 124.394 226.098C124.311 226.029 124.297 225.904 124.367 225.821L127.052 222.443Z" fill="#3B0201"/>
<path fill-rule="evenodd" clip-rule="evenodd" d="M143.555 222.235C143.486 222.152 143.362 222.138 143.279 222.208C143.195 222.277 143.182 222.401 143.251 222.485L145.937 225.863C146.006 225.946 146.131 225.96 146.214 225.89C146.297 225.821 146.311 225.697 146.241 225.613L143.555 222.235Z" fill="#3B0201"/>
<path fill-rule="evenodd" clip-rule="evenodd" d="M125.654 254.272L126.042 254.314C126.263 256.224 125.834 256.169 125.363 256.141C124.948 256.127 124.45 256.113 124.976 260.71C125.336 263.963 130.361 263.783 130.361 270.083L129.974 270.041C129.974 263.922 124.99 264.282 124.602 260.765C124.034 255.712 124.782 255.74 125.391 255.753C125.613 255.767 125.82 255.726 125.654 254.272Z" fill="url(#paint28_linear)"/>
<path fill-rule="evenodd" clip-rule="evenodd" d="M144.981 254.272L144.594 254.314C144.372 256.224 144.801 256.169 145.272 256.141C145.688 256.127 146.186 256.113 145.66 260.71C145.3 263.963 140.274 263.783 140.274 270.083L140.662 270.041C140.662 263.922 145.646 264.282 146.034 260.765C146.601 255.712 145.854 255.74 145.245 255.753C145.023 255.767 144.815 255.726 144.981 254.272Z" fill="url(#paint29_linear)"/>
<path fill-rule="evenodd" clip-rule="evenodd" d="M122.096 182.293H122.484V201.344C122.484 204.265 121.556 206.785 119.687 209.014L117.25 211.879C117.195 211.949 117.126 211.45 117.25 211.312L119.396 208.764C121.224 206.605 122.096 204.168 122.096 201.344V182.293Z" fill="#3B0201"/>
<path fill-rule="evenodd" clip-rule="evenodd" d="M148.54 182.321H148.152V201.371C148.152 204.292 149.08 206.812 150.949 209.041L153.385 211.907C153.441 211.976 153.51 211.478 153.385 211.339L151.239 208.792C149.412 206.632 148.54 204.196 148.54 201.371V182.321Z" fill="#3B0201"/>
<path opacity="0.5" fill-rule="evenodd" clip-rule="evenodd" d="M135.318 182.293C129.434 182.293 123.564 182.293 117.68 182.293C114.163 183.844 110.647 185.395 107.13 186.945C106.41 187.264 105.967 187.942 105.967 188.731C105.967 199.89 105.967 211.049 105.967 222.208C105.967 222.872 106.272 223.44 106.812 223.814C107.822 224.506 108.833 225.212 109.844 225.904C109.899 228.216 109.954 230.542 110.01 232.854C110.037 233.74 110.176 234.488 110.467 235.319C112.557 241.12 114.634 246.92 116.724 252.708C117.666 252.957 118.607 210.204 119.563 210.398C130.085 225.96 140.593 225.78 151.115 210.398C152.07 210.204 153.011 252.957 153.953 252.708C156.043 246.907 158.12 241.106 160.211 235.319C160.515 234.488 160.654 233.74 160.668 232.854C160.723 230.542 160.778 228.216 160.834 225.904C161.844 225.212 162.855 224.506 163.866 223.814C164.406 223.44 164.71 222.872 164.71 222.208C164.71 211.049 164.71 199.89 164.71 188.731C164.71 187.942 164.267 187.264 163.547 186.945C160.031 185.395 156.514 183.844 152.998 182.293C147.072 182.293 141.188 182.293 135.318 182.293Z" fill="url(#paint30_linear)"/>
<path fill-rule="evenodd" clip-rule="evenodd" d="M108.93 199.433H110.107C110.536 199.433 110.882 199.779 110.882 200.208V218.968C110.882 219.397 110.536 219.743 110.107 219.743H108.93C108.501 219.743 108.155 219.397 108.155 218.968V200.222C108.155 199.793 108.501 199.433 108.93 199.433Z" fill="#3B0201"/>
<path fill-rule="evenodd" clip-rule="evenodd" d="M108.542 199.834H109.719C109.941 199.834 110.107 200.014 110.107 200.222V218.982C110.107 219.203 109.927 219.369 109.719 219.369H108.542C108.321 219.369 108.155 219.189 108.155 218.982V200.222C108.155 200.001 108.321 199.834 108.542 199.834Z" fill="url(#paint31_linear)"/>
<path fill-rule="evenodd" clip-rule="evenodd" d="M108.667 200.554H109.525C109.677 200.554 109.802 200.679 109.802 200.831V218.359C109.802 218.511 109.677 218.636 109.525 218.636H108.667C108.514 218.636 108.39 218.511 108.39 218.359V200.831C108.376 200.679 108.501 200.554 108.667 200.554Z" fill="url(#paint32_radial)"/>
<path opacity="0.5" fill-rule="evenodd" clip-rule="evenodd" d="M110.107 206.591C110.107 210.44 110.107 214.302 110.107 218.151C108.182 201.44 108.376 214.081 108.155 216.545C108.155 211.339 108.155 206.134 108.155 200.928C109.802 217.459 109.802 208.557 110.107 206.591Z" fill="url(#paint33_linear)"/>
<path fill-rule="evenodd" clip-rule="evenodd" d="M161.54 199.433H160.363C159.934 199.433 159.588 199.779 159.588 200.208V218.968C159.588 219.397 159.934 219.743 160.363 219.743H161.54C161.969 219.743 162.315 219.397 162.315 218.968V200.222C162.315 199.793 161.969 199.433 161.54 199.433Z" fill="#3B0201"/>
<path fill-rule="evenodd" clip-rule="evenodd" d="M161.927 199.834H160.751C160.529 199.834 160.363 200.014 160.363 200.222V218.982C160.363 219.203 160.543 219.369 160.751 219.369H161.927C162.149 219.369 162.315 219.189 162.315 218.982V200.222C162.315 200.001 162.149 199.834 161.927 199.834Z" fill="url(#paint34_linear)"/>
<path fill-rule="evenodd" clip-rule="evenodd" d="M161.803 200.554H160.944C160.792 200.554 160.667 200.679 160.667 200.831V218.359C160.667 218.511 160.792 218.636 160.944 218.636H161.803C161.955 218.636 162.08 218.511 162.08 218.359V200.831C162.093 200.679 161.969 200.554 161.803 200.554Z" fill="url(#paint35_radial)"/>
<path opacity="0.5" fill-rule="evenodd" clip-rule="evenodd" d="M160.363 206.591C160.363 210.44 160.363 214.302 160.363 218.151C162.287 201.44 162.094 214.081 162.315 216.545C162.315 211.339 162.315 206.134 162.315 200.928C160.668 217.459 160.667 208.557 160.363 206.591Z" fill="url(#paint36_linear)"/>
</g>
</g>
<defs>
<linearGradient id="paint0_linear" x1="135.315" y1="182.922" x2="135.317" y2="231.619" gradientUnits="userSpaceOnUse">
<stop stop-color="#7A0604"/>
<stop offset="1" stop-color="#C2391E"/>
</linearGradient>
<linearGradient id="paint1_linear" x1="123.509" y1="260.078" x2="147.554" y2="260.076" gradientUnits="userSpaceOnUse">
<stop stop-color="#454849"/>
<stop offset="0.49" stop-color="#B2B4B4"/>
<stop offset="1" stop-color="#454849"/>
</linearGradient>
<linearGradient id="paint2_linear" x1="109.831" y1="234.388" x2="160.511" y2="234.387" gradientUnits="userSpaceOnUse">
<stop stop-color="#7A0604"/>
<stop offset="0.5" stop-color="#C2391E"/>
<stop offset="1" stop-color="#7A0604"/>
</linearGradient>
<linearGradient id="paint3_linear" x1="160.624" y1="235.285" x2="152.855" y2="235.283" gradientUnits="userSpaceOnUse">
<stop stop-color="#454849"/>
<stop offset="1" stop-color="#B2B4B4"/>
</linearGradient>
<linearGradient id="paint4_linear" x1="109.836" y1="235.285" x2="117.777" y2="235.283" gradientUnits="userSpaceOnUse">
<stop stop-color="#454849"/>
<stop offset="1" stop-color="#B2B4B4"/>
</linearGradient>
<radialGradient id="paint5_radial" cx="0" cy="0" r="1" gradientUnits="userSpaceOnUse" gradientTransform="translate(135.345 250.094) scale(21.6727 4.57725)">
<stop stop-color="#B2B4B4"/>
<stop offset="1" stop-color="#040000"/>
</radialGradient>
<linearGradient id="paint6_linear" x1="135.317" y1="227.37" x2="135.318" y2="239.436" gradientUnits="userSpaceOnUse">
<stop stop-color="#454849"/>
<stop offset="1" stop-color="#B2B4B4"/>
</linearGradient>
<linearGradient id="paint7_linear" x1="123.529" y1="216.727" x2="123.531" y2="240.785" gradientUnits="userSpaceOnUse">
<stop stop-color="#454849"/>
<stop offset="1" stop-color="#B2B4B4"/>
</linearGradient>
<linearGradient id="paint8_linear" x1="123.529" y1="217.338" x2="123.53" y2="239.73" gradientUnits="userSpaceOnUse">
<stop stop-color="#B2B4B4"/>
<stop offset="1" stop-color="white"/>
</linearGradient>
<linearGradient id="paint9_linear" x1="123.529" y1="216.677" x2="123.531" y2="238.182" gradientUnits="userSpaceOnUse">
<stop/>
<stop offset="1" stop-color="#454849"/>
</linearGradient>
<linearGradient id="paint10_linear" x1="135.315" y1="224.541" x2="135.317" y2="248.599" gradientUnits="userSpaceOnUse">
<stop stop-color="#454849"/>
<stop offset="1" stop-color="#B2B4B4"/>
</linearGradient>
<linearGradient id="paint11_linear" x1="135.315" y1="225.153" x2="135.317" y2="247.545" gradientUnits="userSpaceOnUse">
<stop stop-color="#B2B4B4"/>
<stop offset="1" stop-color="white"/>
</linearGradient>
<linearGradient id="paint12_linear" x1="135.315" y1="224.491" x2="135.317" y2="245.997" gradientUnits="userSpaceOnUse">
<stop/>
<stop offset="1" stop-color="#454849"/>
</linearGradient>
<linearGradient id="paint13_linear" x1="146.972" y1="216.727" x2="146.974" y2="240.785" gradientUnits="userSpaceOnUse">
<stop stop-color="#454849"/>
<stop offset="1" stop-color="#B2B4B4"/>
</linearGradient>
<linearGradient id="paint14_linear" x1="146.972" y1="217.338" x2="146.974" y2="239.73" gradientUnits="userSpaceOnUse">
<stop stop-color="#B2B4B4"/>
<stop offset="1" stop-color="white"/>
</linearGradient>
<linearGradient id="paint15_linear" x1="146.972" y1="216.677" x2="146.974" y2="238.182" gradientUnits="userSpaceOnUse">
<stop/>
<stop offset="1" stop-color="#454849"/>
</linearGradient>
<radialGradient id="paint16_radial" cx="0" cy="0" r="1" gradientUnits="userSpaceOnUse" gradientTransform="translate(135.587 204.987) rotate(-90.0021) scale(32.8992 18.1866)">
<stop stop-color="#C2391E"/>
<stop offset="1" stop-color="#7A0604"/>
</radialGradient>
<linearGradient id="paint17_linear" x1="135.316" y1="182.181" x2="135.317" y2="225.486" gradientUnits="userSpaceOnUse">
<stop stop-color="#7A0604"/>
<stop offset="1" stop-color="#C2391E"/>
</linearGradient>
<linearGradient id="paint18_linear" x1="135.315" y1="181.664" x2="135.318" y2="219.264" gradientUnits="userSpaceOnUse">
<stop stop-color="#F36E21"/>
<stop offset="1" stop-color="white"/>
</linearGradient>
<linearGradient id="paint19_linear" x1="131.431" y1="228.694" x2="139.746" y2="228.692" gradientUnits="userSpaceOnUse">
<stop stop-color="#00290D"/>
<stop offset="1" stop-color="#185C22"/>
</linearGradient>
<radialGradient id="paint20_radial" cx="0" cy="0" r="1" gradientUnits="userSpaceOnUse" gradientTransform="translate(136.589 228.563) rotate(0.019409) scale(3.69518 1.22864)">
<stop stop-color="#80C342"/>
<stop offset="1" stop-color="#2F943E"/>
</radialGradient>
<linearGradient id="paint21_linear" x1="131.538" y1="227.788" x2="138.415" y2="230.339" gradientUnits="userSpaceOnUse">
<stop stop-color="#2F943E"/>
<stop offset="1" stop-color="white"/>
</linearGradient>
<linearGradient id="paint22_linear" x1="107.004" y1="223.044" x2="117.558" y2="216.866" gradientUnits="userSpaceOnUse">
<stop stop-color="#C2391E"/>
<stop offset="1" stop-color="#F3CAD9"/>
</linearGradient>
<linearGradient id="paint23_linear" x1="163.631" y1="223.044" x2="153.077" y2="216.866" gradientUnits="userSpaceOnUse">
<stop stop-color="#C2391E"/>
<stop offset="1" stop-color="#F3CAD9"/>
</linearGradient>
<linearGradient id="paint24_linear" x1="112.435" y1="185.159" x2="112.435" y2="192.203" gradientUnits="userSpaceOnUse">
<stop stop-color="#454849"/>
<stop offset="0.5" stop-color="#B2B4B4"/>
<stop offset="1" stop-color="#454849"/>
</linearGradient>
<linearGradient id="paint25_linear" x1="111.608" y1="186.612" x2="111.61" y2="191.158" gradientUnits="userSpaceOnUse">
<stop stop-color="#454849"/>
<stop offset="1"/>
</linearGradient>
<linearGradient id="paint26_linear" x1="158.197" y1="185.159" x2="158.197" y2="192.203" gradientUnits="userSpaceOnUse">
<stop stop-color="#454849"/>
<stop offset="0.5" stop-color="#B2B4B4"/>
<stop offset="1" stop-color="#454849"/>
</linearGradient>
<linearGradient id="paint27_linear" x1="159.025" y1="186.612" x2="159.023" y2="191.158" gradientUnits="userSpaceOnUse">
<stop stop-color="#454849"/>
<stop offset="1"/>
</linearGradient>
<linearGradient id="paint28_linear" x1="127.362" y1="254.235" x2="127.364" y2="269.259" gradientUnits="userSpaceOnUse">
<stop/>
<stop offset="1" stop-color="#454849"/>
</linearGradient>
<linearGradient id="paint29_linear" x1="143.271" y1="254.235" x2="143.27" y2="269.259" gradientUnits="userSpaceOnUse">
<stop/>
<stop offset="1" stop-color="#454849"/>
</linearGradient>
<linearGradient id="paint30_linear" x1="135.316" y1="182.289" x2="135.317" y2="252.719" gradientUnits="userSpaceOnUse">
<stop stop-color="#7A0604"/>
<stop offset="1" stop-color="white"/>
</linearGradient>
<linearGradient id="paint31_linear" x1="109.117" y1="218.166" x2="109.137" y2="199.83" gradientUnits="userSpaceOnUse">
<stop stop-color="#00290D"/>
<stop offset="1" stop-color="#185C22"/>
</linearGradient>
<radialGradient id="paint32_radial" cx="0" cy="0" r="1" gradientUnits="userSpaceOnUse" gradientTransform="translate(109.128 206.323) rotate(-90.0042) scale(9.507 0.764361)">
<stop stop-color="#80C342"/>
<stop offset="1" stop-color="#2F943E"/>
</radialGradient>
<linearGradient id="paint33_linear" x1="109.706" y1="212.597" x2="107.2" y2="206.395" gradientUnits="userSpaceOnUse">
<stop stop-color="#2F943E"/>
<stop offset="1" stop-color="white"/>
</linearGradient>
<linearGradient id="paint34_linear" x1="161.352" y1="218.164" x2="161.332" y2="199.829" gradientUnits="userSpaceOnUse">
<stop stop-color="#00290D"/>
<stop offset="1" stop-color="#185C22"/>
</linearGradient>
<radialGradient id="paint35_radial" cx="0" cy="0" r="1" gradientUnits="userSpaceOnUse" gradientTransform="translate(161.341 206.323) rotate(-89.9958) scale(9.50709 0.764384)">
<stop stop-color="#80C342"/>
<stop offset="1" stop-color="#2F943E"/>
</radialGradient>
<linearGradient id="paint36_linear" x1="160.762" y1="212.597" x2="163.269" y2="206.395" gradientUnits="userSpaceOnUse">
<stop stop-color="#2F943E"/>
<stop offset="1" stop-color="white"/>
</linearGradient>
<clipPath id="clip0">
<rect width="270" height="370" fill="white"/>
</clipPath>
<clipPath id="clip1">
<rect x="61.29" y="100.236" width="148.055" height="171.633" fill="white"/>
</clipPath>
</defs>
</svg>
