<svg width="270" height="370" viewBox="0 0 270 370" fill="none" xmlns="http://www.w3.org/2000/svg">
<g clip-path="url(#clip0)">
<g clip-path="url(#clip1)">
<path fill-rule="evenodd" clip-rule="evenodd" d="M135.318 283.401C132.036 276.396 128.741 269.404 125.46 262.399C122.677 261.416 119.895 260.433 117.112 259.45C116.323 259.173 115.81 258.453 115.81 257.609C115.81 253.441 115.81 249.26 115.81 245.093C115.81 244.248 115.575 243.515 115.091 242.822C112.072 238.586 109.054 234.349 106.036 230.113C104.998 228.659 104.527 227.109 104.596 225.323C104.998 212.765 105.413 200.208 105.815 187.651C105.884 185.685 106.576 184.01 107.919 182.57C111.879 178.334 115.824 174.111 119.784 169.875C121.321 168.241 123.245 167.396 125.488 167.396C128.769 167.396 132.05 167.396 135.318 167.396C138.599 167.396 141.88 167.396 145.147 167.396C147.39 167.396 149.329 168.241 150.851 169.875C154.811 174.111 158.757 178.334 162.716 182.57C164.059 184.01 164.752 185.685 164.821 187.651C165.222 200.208 165.638 212.765 166.039 225.323C166.094 227.109 165.624 228.659 164.599 230.113C161.581 234.349 158.563 238.586 155.545 242.822C155.046 243.515 154.825 244.235 154.825 245.093C154.825 249.26 154.825 253.441 154.825 257.609C154.825 258.453 154.313 259.173 153.523 259.45C150.741 260.433 147.958 261.416 145.175 262.399C141.894 269.39 138.599 276.396 135.318 283.401Z" fill="url(#paint0_linear)"/>
<path fill-rule="evenodd" clip-rule="evenodd" d="M133.905 284.052L124.325 263.645L116.586 260.917C115.88 260.668 115.298 260.211 114.883 259.63C114.467 259.048 114.246 258.356 114.246 257.595V245.079C114.246 244.802 114.218 244.567 114.149 244.359C114.08 244.151 113.969 243.93 113.817 243.722L104.762 231.013C104.139 230.141 103.696 229.241 103.406 228.299C103.115 227.358 102.99 226.347 103.032 225.281L104.25 187.61C104.292 186.433 104.513 185.339 104.942 184.328C105.371 183.304 105.981 182.363 106.77 181.518L118.635 168.822C119.548 167.839 120.587 167.106 121.736 166.607L121.819 166.58C122.954 166.095 124.186 165.86 125.474 165.86H135.304H145.134C146.463 165.86 147.709 166.109 148.872 166.621C150.021 167.119 151.059 167.867 151.973 168.836L163.838 181.532C164.641 182.39 165.25 183.318 165.665 184.342C166.081 185.367 166.316 186.447 166.357 187.624L167.576 225.295C167.617 226.361 167.493 227.372 167.202 228.313C166.911 229.255 166.468 230.168 165.845 231.027L156.791 243.736C156.638 243.958 156.528 244.165 156.458 244.373C156.389 244.581 156.362 244.816 156.362 245.093V257.609C156.362 258.356 156.126 259.062 155.725 259.644C155.697 259.685 155.656 259.727 155.628 259.768C155.226 260.294 154.673 260.696 154.022 260.917L146.283 263.645L136.702 284.052C136.342 284.827 135.415 285.173 134.639 284.8C134.321 284.647 134.058 284.384 133.905 284.052ZM135.318 283.401C132.036 276.396 128.741 269.404 125.46 262.399C122.677 261.416 119.895 260.433 117.112 259.45C116.323 259.173 115.81 258.453 115.81 257.609C115.81 253.441 115.81 249.26 115.81 245.093C115.81 244.248 115.575 243.515 115.09 242.822C112.072 238.586 109.054 234.349 106.036 230.113C104.998 228.659 104.527 227.109 104.596 225.323C104.998 212.766 105.413 200.208 105.815 187.651C105.884 185.685 106.576 184.01 107.919 182.57C111.878 178.334 115.824 174.111 119.784 169.875C121.321 168.241 123.245 167.396 125.488 167.396C128.769 167.396 132.05 167.396 135.318 167.396C138.599 167.396 141.88 167.396 145.147 167.396C147.39 167.396 149.328 168.241 150.851 169.875C154.811 174.111 158.757 178.334 162.716 182.57C164.059 184.01 164.751 185.685 164.821 187.651C165.222 200.208 165.638 212.766 166.039 225.323C166.094 227.109 165.624 228.659 164.599 230.113C161.581 234.349 158.563 238.586 155.545 242.822C155.046 243.515 154.825 244.235 154.825 245.093C154.825 249.26 154.825 253.441 154.825 257.609C154.825 258.453 154.313 259.173 153.523 259.45C150.741 260.433 147.958 261.416 145.175 262.399C141.894 269.39 138.599 276.396 135.318 283.401Z" fill="black"/>
<path fill-rule="evenodd" clip-rule="evenodd" d="M135.318 253.829C125.765 253.829 130.597 246.893 115.81 245.093C115.81 244.248 115.575 243.515 115.091 242.822C112.072 238.586 109.054 234.35 106.036 230.113C104.998 228.659 104.527 227.109 104.596 225.323C117.652 233.09 116.835 240.94 135.318 240.94C135.318 246.782 135.318 247.987 135.318 253.829Z" fill="url(#paint1_linear)"/>
<path fill-rule="evenodd" clip-rule="evenodd" d="M135.318 253.829C144.87 253.829 140.039 246.893 154.825 245.093C154.825 244.248 155.06 243.515 155.545 242.822C158.563 238.586 161.581 234.35 164.599 230.113C165.637 228.659 166.108 227.109 166.039 225.323C152.983 233.09 153.8 240.94 135.318 240.94C135.318 246.782 135.318 247.987 135.318 253.829Z" fill="url(#paint2_linear)"/>
<path opacity="0.5" fill-rule="evenodd" clip-rule="evenodd" d="M115.81 245.093C115.81 244.248 115.575 243.515 115.091 242.822C112.072 238.586 109.054 234.349 106.036 230.113C104.998 228.659 104.527 227.109 104.596 225.323C104.998 212.765 105.413 200.208 105.815 187.651C105.884 185.685 106.576 184.01 107.919 182.57C111.879 178.334 115.824 174.111 119.784 169.875C121.321 168.241 123.245 167.396 125.488 167.396C128.769 167.396 132.05 167.396 135.318 167.396C130.444 169.833 124.477 169.722 117.527 178.735C111.782 186.197 112.626 195.169 112.626 207.089C112.626 214.565 109.83 229.185 122.11 238.655C106.036 230.113 114.8 241.286 115.81 245.093Z" fill="url(#paint3_linear)"/>
<path opacity="0.5" fill-rule="evenodd" clip-rule="evenodd" d="M155.212 245.093C155.212 244.248 155.448 243.515 155.932 242.822C158.95 238.586 161.969 234.349 164.987 230.113C166.025 228.659 166.496 227.109 166.427 225.323C166.025 212.765 165.61 200.208 165.208 187.651C165.139 185.685 164.447 184.01 163.104 182.57C159.144 178.334 155.199 174.111 151.239 169.875C149.702 168.241 147.778 167.396 145.535 167.396C142.254 167.396 138.973 167.396 135.705 167.396C140.579 169.833 146.546 169.722 153.496 178.735C159.241 186.197 158.397 195.169 158.397 207.089C158.397 214.565 161.193 229.185 148.913 238.655C164.987 230.113 156.237 241.286 155.212 245.093Z" fill="url(#paint4_linear)"/>
<path fill-rule="evenodd" clip-rule="evenodd" d="M135.318 283.401L125.46 262.399H145.175L135.318 283.401Z" fill="url(#paint5_radial)"/>
<path opacity="0.5" fill-rule="evenodd" clip-rule="evenodd" d="M131.939 276.202C130.416 272.948 126.997 265.652 125.46 262.399C128.741 262.399 132.036 262.399 135.318 262.399C138.599 262.399 141.894 262.399 145.175 262.399C143.652 265.652 140.232 272.948 138.696 276.202C140.509 270.055 137.45 266.649 135.318 266.649C133.185 266.649 130.126 270.055 131.939 276.202Z" fill="url(#paint6_linear)"/>
<path fill-rule="evenodd" clip-rule="evenodd" d="M135.317 265.597C128.907 265.597 123.19 261.499 117.112 259.45C116.323 259.173 115.81 258.453 115.81 257.609C115.81 253.441 115.81 249.26 115.81 245.093C129.364 246.768 126.886 253.829 135.317 253.829C143.749 253.829 141.271 246.768 154.825 245.093C154.825 249.26 154.825 253.441 154.825 257.609C154.825 258.453 154.312 259.173 153.523 259.45C147.459 261.499 141.728 265.597 135.317 265.597Z" fill="url(#paint7_radial)"/>
<path fill-rule="evenodd" clip-rule="evenodd" d="M135.317 265.597C128.907 265.597 123.19 261.499 117.112 259.45C116.323 259.173 115.81 258.453 115.81 257.608V255.656C115.81 256.501 116.323 257.221 117.112 257.498C123.176 259.547 128.907 263.645 135.317 263.645C141.728 263.645 147.445 259.547 153.523 257.498C154.312 257.221 154.825 256.501 154.825 255.656V257.608C154.825 258.453 154.312 259.173 153.523 259.45C147.459 261.499 141.728 265.597 135.317 265.597Z" fill="url(#paint8_radial)"/>
<path opacity="0.5" fill-rule="evenodd" clip-rule="evenodd" d="M127.772 250.354C129.752 252.223 131.289 253.829 135.318 253.829C139.346 253.829 140.883 252.223 142.863 250.354C141.271 255.034 139.748 257.872 135.318 257.872C130.887 257.872 129.364 255.034 127.772 250.354Z" fill="url(#paint9_linear)"/>
<path opacity="0.5" fill-rule="evenodd" clip-rule="evenodd" d="M119.742 260.447C118.87 260.087 117.998 259.741 117.112 259.45C116.323 259.173 115.81 258.453 115.81 257.609C115.81 253.441 115.81 249.26 115.81 245.093C129.364 246.768 126.886 253.829 135.318 253.829C124.311 253.829 115.7 238.946 119.742 260.447Z" fill="url(#paint10_linear)"/>
<path opacity="0.5" fill-rule="evenodd" clip-rule="evenodd" d="M150.893 260.447C151.765 260.087 152.637 259.741 153.523 259.45C154.312 259.173 154.825 258.453 154.825 257.609C154.825 253.441 154.825 249.26 154.825 245.093C141.271 246.768 143.749 253.829 135.318 253.829C146.324 253.829 154.949 238.946 150.893 260.447Z" fill="url(#paint11_linear)"/>
<path opacity="0.5" fill-rule="evenodd" clip-rule="evenodd" d="M150.893 260.447C151.765 260.087 152.637 259.741 153.523 259.45C154.312 259.173 154.825 258.453 154.825 257.609C154.825 253.441 154.825 249.26 154.825 245.093C141.271 246.768 143.749 253.829 135.318 253.829C146.324 253.829 154.949 238.946 150.893 260.447Z" fill="url(#paint12_linear)"/>
<path fill-rule="evenodd" clip-rule="evenodd" d="M126.526 248.942H131.829C131.939 248.942 132.023 248.859 132.023 248.748V247.474C132.023 247.363 131.939 247.28 131.829 247.28H124.145C125.086 247.806 125.862 248.374 126.526 248.942ZM123.383 246.893H131.829C132.147 246.893 132.41 247.156 132.41 247.474V248.748C132.41 249.066 132.147 249.329 131.829 249.329H126.969C127.385 249.703 127.758 250.077 128.118 250.437C129.406 251.724 130.541 252.846 132.673 253.344C132.798 251.974 133.947 250.921 135.331 250.921V251.309C134.141 251.309 133.144 252.237 133.061 253.427C133.712 253.552 134.459 253.621 135.331 253.621V254.009C132.009 254.009 130.361 253.206 127.855 250.7C125.792 248.637 123.356 246.2 115.824 245.273V244.871C119.188 245.301 121.597 246.034 123.383 246.893Z" fill="#3B0201"/>
<path fill-rule="evenodd" clip-rule="evenodd" d="M144.123 248.942H138.82C138.709 248.942 138.626 248.859 138.626 248.748V247.474C138.626 247.363 138.709 247.28 138.82 247.28H146.504C145.549 247.806 144.787 248.374 144.123 248.942ZM147.265 246.893H138.82C138.502 246.893 138.239 247.156 138.239 247.474V248.748C138.239 249.066 138.502 249.329 138.82 249.329H143.68C143.264 249.703 142.891 250.077 142.531 250.437C141.243 251.724 140.108 252.846 137.976 253.344C137.851 251.974 136.702 250.921 135.318 250.921V251.309C136.508 251.309 137.505 252.237 137.588 253.427C136.937 253.552 136.19 253.621 135.318 253.621V254.009C138.64 254.009 140.288 253.206 142.794 250.7C144.857 248.637 147.293 246.2 154.825 245.273V244.871C151.447 245.301 149.038 246.034 147.265 246.893Z" fill="#3B0201"/>
<path fill-rule="evenodd" clip-rule="evenodd" d="M135.318 212.059C135.428 212.059 135.511 212.143 135.511 212.253C135.511 212.364 135.428 212.447 135.318 212.447C128.423 212.447 122.982 211.796 118.206 210.675C113.443 209.567 109.345 207.989 105.136 206.162C105.039 206.12 104.998 206.009 105.039 205.899C105.081 205.802 105.192 205.76 105.302 205.802C109.483 207.615 113.568 209.18 118.302 210.287C123.037 211.409 128.451 212.059 135.318 212.059ZM135.318 196.429C135.428 196.429 135.511 196.512 135.511 196.623C135.511 196.733 135.428 196.816 135.318 196.816C128.423 196.816 122.982 196.166 118.206 195.044C113.443 193.937 109.345 192.358 105.136 190.531C105.039 190.489 104.998 190.379 105.039 190.268C105.081 190.171 105.192 190.129 105.302 190.171C109.483 191.985 113.568 193.549 118.302 194.657C123.037 195.778 128.451 196.429 135.318 196.429Z" fill="#3B0201"/>
<path fill-rule="evenodd" clip-rule="evenodd" d="M135.705 212.059C135.594 212.059 135.511 212.143 135.511 212.253C135.511 212.364 135.594 212.447 135.705 212.447C142.6 212.447 148.041 211.796 152.817 210.675C157.58 209.567 161.678 207.989 165.887 206.162C165.984 206.12 166.025 206.009 165.984 205.899C165.942 205.802 165.831 205.76 165.721 205.802C161.539 207.615 157.455 209.18 152.72 210.287C147.985 211.409 142.572 212.059 135.705 212.059ZM135.705 196.429C135.594 196.429 135.511 196.512 135.511 196.623C135.511 196.733 135.594 196.816 135.705 196.816C142.6 196.816 148.041 196.166 152.817 195.044C157.58 193.937 161.678 192.358 165.887 190.531C165.984 190.489 166.025 190.379 165.984 190.268C165.942 190.171 165.831 190.129 165.721 190.171C161.539 191.985 157.455 193.549 152.72 194.657C147.985 195.778 142.572 196.429 135.705 196.429Z" fill="#3B0201"/>
<path fill-rule="evenodd" clip-rule="evenodd" d="M113.748 191.666H115.7C116.35 191.666 116.932 191.929 117.361 192.358C117.79 192.788 118.053 193.369 118.053 194.02V225.281C118.053 225.932 117.79 226.513 117.361 226.942C116.932 227.372 116.35 227.635 115.7 227.635H113.748C113.097 227.635 112.515 227.372 112.086 226.942C111.657 226.513 111.394 225.932 111.394 225.281V194.006C111.394 193.355 111.657 192.774 112.086 192.345C112.515 191.929 113.097 191.666 113.748 191.666Z" fill="#3B0201"/>
<path fill-rule="evenodd" clip-rule="evenodd" d="M113.748 192.054H115.7C116.78 192.054 117.652 192.926 117.652 194.006V225.267C117.652 226.347 116.78 227.219 115.7 227.219H113.748C112.668 227.219 111.795 226.347 111.795 225.267V194.006C111.782 192.94 112.668 192.054 113.748 192.054Z" fill="url(#paint13_linear)"/>
<path fill-rule="evenodd" clip-rule="evenodd" d="M114.024 193.203H115.423C116.184 193.203 116.821 193.826 116.821 194.601V224.686C116.821 225.447 116.198 226.084 115.423 226.084H114.024C113.263 226.084 112.626 225.461 112.626 224.686V194.601C112.626 193.826 113.263 193.203 114.024 193.203Z" fill="url(#paint14_linear)"/>
<path fill-rule="evenodd" clip-rule="evenodd" d="M116.807 202.41C116.807 203.517 116.807 208.529 116.807 209.637C116.807 210.744 116.807 215.756 116.807 216.864C114.661 216.864 113.609 216.005 113.609 209.637H115.27H113.609C113.609 203.268 114.661 202.41 116.807 202.41Z" fill="#070707"/>
<path fill-rule="evenodd" clip-rule="evenodd" d="M157.289 191.666H155.337C154.686 191.666 154.105 191.929 153.676 192.358C153.246 192.788 152.983 193.369 152.983 194.02V225.281C152.983 225.932 153.246 226.513 153.676 226.942C154.105 227.372 154.686 227.635 155.337 227.635H157.289C157.94 227.635 158.521 227.372 158.95 226.942C159.38 226.513 159.643 225.932 159.643 225.281V194.006C159.643 193.355 159.38 192.774 158.95 192.345C158.521 191.929 157.94 191.666 157.289 191.666Z" fill="#3B0201"/>
<path fill-rule="evenodd" clip-rule="evenodd" d="M157.289 192.054H155.337C154.257 192.054 153.385 192.926 153.385 194.006V225.267C153.385 226.347 154.257 227.219 155.337 227.219H157.289C158.369 227.219 159.241 226.347 159.241 225.267V194.006C159.241 192.94 158.369 192.054 157.289 192.054Z" fill="url(#paint15_linear)"/>
<path fill-rule="evenodd" clip-rule="evenodd" d="M157.012 193.203H155.614C154.852 193.203 154.215 193.826 154.215 194.601V224.686C154.215 225.447 154.838 226.084 155.614 226.084H157.012C157.774 226.084 158.41 225.461 158.41 224.686V194.601C158.397 193.826 157.774 193.203 157.012 193.203Z" fill="url(#paint16_linear)"/>
<path fill-rule="evenodd" clip-rule="evenodd" d="M154.215 202.41C154.215 203.517 154.215 208.529 154.215 209.637C154.215 210.744 154.215 215.756 154.215 216.864C156.361 216.864 157.414 216.005 157.414 209.637H155.752H157.414C157.427 203.268 156.361 202.41 154.215 202.41Z" fill="#070707"/>
<path fill-rule="evenodd" clip-rule="evenodd" d="M126.249 181.698C127.025 182.723 125.46 183.899 124.699 182.875C123.051 180.701 117.472 179.358 114.066 175.952L115.45 174.568C119.022 178.168 124.048 178.804 126.249 181.698Z" fill="#3B0201"/>
<path fill-rule="evenodd" clip-rule="evenodd" d="M125.779 182.058C126.083 182.473 125.46 182.944 125.156 182.529C123.342 180.134 117.929 179.012 114.467 175.537L115.021 174.983C118.552 178.528 123.743 179.372 125.779 182.058Z" fill="#B72106"/>
<path fill-rule="evenodd" clip-rule="evenodd" d="M144.787 181.698C144.012 182.723 145.577 183.899 146.338 182.875C147.985 180.701 153.565 179.358 156.971 175.952L155.586 174.568C152.014 178.168 146.989 178.804 144.787 181.698Z" fill="#3B0201"/>
<path fill-rule="evenodd" clip-rule="evenodd" d="M145.258 182.058C144.954 182.473 145.577 182.944 145.881 182.529C147.695 180.134 153.108 179.012 156.569 175.537L156.015 174.983C152.471 178.528 147.293 179.372 145.258 182.058Z" fill="#B72106"/>
<path fill-rule="evenodd" clip-rule="evenodd" d="M135.318 239.61C131.815 239.61 129.392 238.586 126.485 236.731C125.1 235.845 124.366 234.349 124.366 232.73V230.376C124.366 230.182 124.519 230.03 124.713 230.03H145.923C146.116 230.03 146.269 230.182 146.269 230.376V232.73C146.269 233.574 146.075 234.349 145.715 235.042C144.178 237.963 138.516 239.61 135.318 239.61Z" fill="#3B0201"/>
<path fill-rule="evenodd" clip-rule="evenodd" d="M135.318 239.251C131.884 239.251 129.572 238.281 126.665 236.426C125.432 235.637 124.713 234.28 124.713 232.716V230.362H145.923V232.716C145.923 234.28 145.203 235.637 143.971 236.426C141.063 238.281 138.751 239.251 135.318 239.251Z" fill="url(#paint17_linear)"/>
<path fill-rule="evenodd" clip-rule="evenodd" d="M135.318 238.42C132.133 238.42 129.974 237.631 127.274 236.122C126.125 235.485 125.46 234.377 125.46 233.103V231.207H145.175V233.117C145.175 234.391 144.511 235.499 143.361 236.135C140.662 237.631 138.502 238.42 135.318 238.42Z" fill="url(#paint18_radial)"/>
<path opacity="0.5" fill-rule="evenodd" clip-rule="evenodd" d="M124.713 232.73C124.713 231.94 124.713 231.165 124.713 230.376C129.614 233.962 138.931 241.424 145.923 232.73C145.923 234.294 145.203 235.651 143.971 236.44C132.119 240.856 132.078 235.055 124.713 232.73Z" fill="url(#paint19_linear)"/>
<path fill-rule="evenodd" clip-rule="evenodd" d="M135.318 235.346C131.58 235.346 129.046 234.377 125.875 232.522C124.533 231.733 123.743 230.376 123.743 228.811V188.371C123.743 188.15 123.923 187.983 124.131 187.983H146.49C146.712 187.983 146.878 188.163 146.878 188.371V228.811C146.878 230.376 146.103 231.733 144.746 232.522C141.589 234.377 139.056 235.346 135.318 235.346Z" fill="#3B0201"/>
<path fill-rule="evenodd" clip-rule="evenodd" d="M135.318 234.959C131.164 234.959 128.631 233.685 126.069 232.19C124.837 231.47 124.131 230.237 124.131 228.811C124.131 215.327 124.131 201.842 124.131 188.371C128.063 188.371 131.372 188.371 135.318 188.371C139.25 188.371 142.558 188.371 146.504 188.371C146.504 201.856 146.504 215.341 146.504 228.811C146.504 230.237 145.798 231.47 144.566 232.19C142.005 233.685 139.471 234.959 135.318 234.959Z" fill="url(#paint20_radial)"/>
<path opacity="0.5" fill-rule="evenodd" clip-rule="evenodd" d="M129.503 233.92C128.271 233.45 127.177 232.84 126.069 232.19C124.837 231.47 124.131 230.238 124.131 228.812C124.131 215.327 124.131 201.842 124.131 188.371H125.889C125.889 195.418 125.626 230.597 129.503 233.92Z" fill="url(#paint21_linear)"/>
<path opacity="0.5" fill-rule="evenodd" clip-rule="evenodd" d="M141.132 233.92C142.365 233.45 143.458 232.84 144.566 232.19C145.798 231.47 146.504 230.238 146.504 228.812C146.504 215.327 146.504 201.842 146.504 188.371H144.746C144.746 195.418 145.023 230.597 141.132 233.92Z" fill="url(#paint22_linear)"/>
<path opacity="0.5" fill-rule="evenodd" clip-rule="evenodd" d="M135.318 234.959C135.318 214.814 131.081 200.402 124.131 188.371C128.063 188.371 131.372 188.371 135.318 188.371C125.889 194.158 141.908 211.658 146.504 228.811C146.504 230.237 145.798 231.47 144.566 232.19C142.005 233.685 139.471 234.959 135.318 234.959Z" fill="url(#paint23_linear)"/>
<path d="M135.318 199.71C141.71 199.71 146.892 194.528 146.892 188.136C146.892 181.744 141.71 176.562 135.318 176.562C128.925 176.562 123.743 181.744 123.743 188.136C123.743 194.528 128.925 199.71 135.318 199.71Z" fill="#3B0201"/>
<path d="M135.318 199.322C141.496 199.322 146.504 194.314 146.504 188.136C146.504 181.958 141.496 176.949 135.318 176.949C129.139 176.949 124.131 181.958 124.131 188.136C124.131 194.314 129.139 199.322 135.318 199.322Z" fill="url(#paint24_linear)"/>
<path d="M135.318 195.737C139.515 195.737 142.918 192.334 142.918 188.136C142.918 183.938 139.515 180.535 135.318 180.535C131.12 180.535 127.717 183.938 127.717 188.136C127.717 192.334 131.12 195.737 135.318 195.737Z" fill="url(#paint25_linear)"/>
<path d="M135.317 192.026C137.466 192.026 139.208 190.284 139.208 188.136C139.208 185.987 137.466 184.245 135.317 184.245C133.169 184.245 131.427 185.987 131.427 188.136C131.427 190.284 133.169 192.026 135.317 192.026Z" fill="url(#paint26_radial)"/>
<path opacity="0.5" fill-rule="evenodd" clip-rule="evenodd" d="M135.318 283.401C132.036 276.396 128.741 269.404 125.46 262.399C122.677 261.416 119.895 260.433 117.112 259.45C116.323 259.173 115.81 258.453 115.81 257.609C115.81 253.441 115.81 249.26 115.81 245.093C115.81 244.248 115.575 243.515 115.091 242.822C112.072 238.586 109.054 234.349 106.036 230.113C104.998 228.659 104.527 227.109 104.596 225.323C104.998 212.765 105.413 200.208 105.815 187.651C105.884 185.685 106.576 184.01 107.919 182.57C111.879 178.334 115.824 174.111 119.784 169.875C121.321 168.241 123.245 167.396 125.488 167.396C127.537 167.396 129.572 167.396 131.621 167.396C130.777 167.396 125.156 169.999 124.283 171.508C118.483 181.504 123.979 207.394 123.757 225.336C123.73 227.122 121.501 229.642 121.57 231.151C122.747 257.581 128.368 261.762 132.133 265.292C131.233 267.48 132.756 276.963 135.318 283.401Z" fill="url(#paint27_linear)"/>
<path opacity="0.5" fill-rule="evenodd" clip-rule="evenodd" d="M135.318 283.401C138.599 276.396 141.894 269.404 145.175 262.399C147.958 261.416 150.741 260.433 153.523 259.45C154.312 259.173 154.825 258.453 154.825 257.609C154.825 253.441 154.825 249.26 154.825 245.093C154.825 244.248 155.06 243.515 155.545 242.822C158.563 238.586 161.581 234.349 164.599 230.113C165.637 228.659 166.108 227.109 166.039 225.323C165.637 212.765 165.222 200.208 164.821 187.651C164.751 185.685 164.059 184.01 162.716 182.57C158.757 178.334 154.811 174.111 150.851 169.875C149.315 168.241 147.39 167.396 145.147 167.396C143.098 167.396 141.063 167.396 139.014 167.396C139.859 167.396 145.48 169.999 146.352 171.508C152.153 181.504 146.656 207.394 146.878 225.336C146.906 227.122 149.135 229.642 149.065 231.151C147.889 257.581 142.268 261.762 138.502 265.292C139.402 267.48 137.893 276.963 135.318 283.401Z" fill="url(#paint28_linear)"/>
</g>
</g>
<defs>
<linearGradient id="paint0_linear" x1="135.318" y1="166.662" x2="135.32" y2="284.757" gradientUnits="userSpaceOnUse">
<stop stop-color="#7A0604"/>
<stop offset="1" stop-color="#C2391E"/>
</linearGradient>
<linearGradient id="paint1_linear" x1="115.696" y1="239.575" x2="133.279" y2="239.573" gradientUnits="userSpaceOnUse">
<stop stop-color="#7A0604"/>
<stop offset="1" stop-color="#C2391E"/>
</linearGradient>
<linearGradient id="paint2_linear" x1="154.947" y1="239.575" x2="137.364" y2="239.573" gradientUnits="userSpaceOnUse">
<stop stop-color="#7A0604"/>
<stop offset="1" stop-color="#C2391E"/>
</linearGradient>
<linearGradient id="paint3_linear" x1="104.179" y1="206.245" x2="135.319" y2="206.238" gradientUnits="userSpaceOnUse">
<stop stop-color="#7A0604"/>
<stop offset="1" stop-color="white"/>
</linearGradient>
<linearGradient id="paint4_linear" x1="166.85" y1="206.245" x2="135.71" y2="206.238" gradientUnits="userSpaceOnUse">
<stop stop-color="#7A0604"/>
<stop offset="1" stop-color="white"/>
</linearGradient>
<radialGradient id="paint5_radial" cx="0" cy="0" r="1" gradientUnits="userSpaceOnUse" gradientTransform="translate(135.232 266.301) rotate(-90.0045) scale(17.5844 5.86087)">
<stop stop-color="#B2B4B4"/>
<stop offset="1" stop-color="#454849"/>
</radialGradient>
<linearGradient id="paint6_linear" x1="135.319" y1="262.391" x2="135.326" y2="276.19" gradientUnits="userSpaceOnUse">
<stop stop-color="#454849"/>
<stop offset="1" stop-color="#B2B4B4"/>
</linearGradient>
<radialGradient id="paint7_radial" cx="0" cy="0" r="1" gradientUnits="userSpaceOnUse" gradientTransform="translate(135.276 254.057) rotate(-90.0026) scale(22.0135 18.7357)">
<stop stop-color="#B2B4B4"/>
<stop offset="1" stop-color="#454849"/>
</radialGradient>
<radialGradient id="paint8_radial" cx="0" cy="0" r="1" gradientUnits="userSpaceOnUse" gradientTransform="translate(135.276 259.999) scale(16.2362 8.25612)">
<stop stop-color="white"/>
<stop offset="1" stop-color="#B2B4B4"/>
</radialGradient>
<linearGradient id="paint9_linear" x1="135.321" y1="254.389" x2="135.323" y2="260.315" gradientUnits="userSpaceOnUse">
<stop stop-color="#454849"/>
<stop offset="1" stop-color="#B2B4B4"/>
</linearGradient>
<linearGradient id="paint10_linear" x1="116.385" y1="252.769" x2="135.317" y2="252.768" gradientUnits="userSpaceOnUse">
<stop stop-color="#454849"/>
<stop offset="1" stop-color="#B2B4B4"/>
</linearGradient>
<linearGradient id="paint11_linear" x1="154.253" y1="252.769" x2="135.321" y2="252.768" gradientUnits="userSpaceOnUse">
<stop stop-color="#454849"/>
<stop offset="1" stop-color="#B2B4B4"/>
</linearGradient>
<linearGradient id="paint12_linear" x1="154.253" y1="252.769" x2="135.321" y2="252.768" gradientUnits="userSpaceOnUse">
<stop stop-color="#454849"/>
<stop offset="1" stop-color="#B2B4B4"/>
</linearGradient>
<linearGradient id="paint13_linear" x1="117.649" y1="209.643" x2="111.789" y2="209.641" gradientUnits="userSpaceOnUse">
<stop stop-color="#454849"/>
<stop offset="1" stop-color="#B2B4B4"/>
</linearGradient>
<linearGradient id="paint14_linear" x1="113.021" y1="209.642" x2="116.805" y2="209.641" gradientUnits="userSpaceOnUse">
<stop stop-color="#454849"/>
<stop offset="1"/>
</linearGradient>
<linearGradient id="paint15_linear" x1="153.38" y1="209.643" x2="159.24" y2="209.641" gradientUnits="userSpaceOnUse">
<stop stop-color="#454849"/>
<stop offset="1" stop-color="#B2B4B4"/>
</linearGradient>
<linearGradient id="paint16_linear" x1="158.009" y1="209.642" x2="154.224" y2="209.641" gradientUnits="userSpaceOnUse">
<stop stop-color="#454849"/>
<stop offset="1"/>
</linearGradient>
<linearGradient id="paint17_linear" x1="135.319" y1="238.708" x2="135.319" y2="230.374" gradientUnits="userSpaceOnUse">
<stop stop-color="#00290D"/>
<stop offset="1" stop-color="#185C22"/>
</linearGradient>
<radialGradient id="paint18_radial" cx="0" cy="0" r="1" gradientUnits="userSpaceOnUse" gradientTransform="translate(135.372 234.388) rotate(-0.0108) scale(5.71435 4.03549)">
<stop stop-color="#80C342"/>
<stop offset="1" stop-color="#2F943E"/>
</radialGradient>
<linearGradient id="paint19_linear" x1="145.009" y1="234.215" x2="129.769" y2="234.213" gradientUnits="userSpaceOnUse">
<stop stop-color="#2F943E"/>
<stop offset="1" stop-color="white"/>
</linearGradient>
<radialGradient id="paint20_radial" cx="0" cy="0" r="1" gradientUnits="userSpaceOnUse" gradientTransform="translate(135.234 199.875) rotate(-90.002) scale(43.8456 10.3475)">
<stop stop-color="#F36E21"/>
<stop offset="1" stop-color="#7A0604"/>
</radialGradient>
<linearGradient id="paint21_linear" x1="126.819" y1="194.011" x2="126.821" y2="233.029" gradientUnits="userSpaceOnUse">
<stop stop-color="#7A0604"/>
<stop offset="1" stop-color="white"/>
</linearGradient>
<linearGradient id="paint22_linear" x1="143.818" y1="194.011" x2="143.817" y2="233.029" gradientUnits="userSpaceOnUse">
<stop stop-color="#7A0604"/>
<stop offset="1" stop-color="white"/>
</linearGradient>
<linearGradient id="paint23_linear" x1="130.713" y1="193.833" x2="139.732" y2="227.49" gradientUnits="userSpaceOnUse">
<stop stop-color="#C2391E"/>
<stop offset="1" stop-color="#F3CAD9"/>
</linearGradient>
<linearGradient id="paint24_linear" x1="135.318" y1="176.429" x2="135.32" y2="199.711" gradientUnits="userSpaceOnUse">
<stop stop-color="#640036"/>
<stop offset="1" stop-color="#C2391E"/>
</linearGradient>
<linearGradient id="paint25_linear" x1="135.318" y1="195.965" x2="135.32" y2="181.141" gradientUnits="userSpaceOnUse">
<stop stop-color="#7A0604"/>
<stop offset="1" stop-color="#F36E21"/>
</linearGradient>
<radialGradient id="paint26_radial" cx="0" cy="0" r="1" gradientUnits="userSpaceOnUse" gradientTransform="translate(135.33 188.119) scale(3.89859)">
<stop/>
<stop offset="1" stop-color="#7A0604"/>
</radialGradient>
<linearGradient id="paint27_linear" x1="105.259" y1="225.396" x2="135.319" y2="225.396" gradientUnits="userSpaceOnUse">
<stop stop-color="#7A0604"/>
<stop offset="1" stop-color="white"/>
</linearGradient>
<linearGradient id="paint28_linear" x1="165.379" y1="225.396" x2="135.319" y2="225.396" gradientUnits="userSpaceOnUse">
<stop stop-color="#7A0604"/>
<stop offset="1" stop-color="white"/>
</linearGradient>
<clipPath id="clip0">
<rect width="270" height="370" fill="white"/>
</clipPath>
<clipPath id="clip1">
<rect x="39" y="86.9448" width="192.635" height="198.007" fill="white"/>
</clipPath>
</defs>
</svg>
