<svg width="270" height="370" viewBox="0 0 270 370" fill="none" xmlns="http://www.w3.org/2000/svg">
<g clip-path="url(#clip0)">
<g clip-path="url(#clip1)">
<path fill-rule="evenodd" clip-rule="evenodd" d="M97.6602 145.439H103.918C104.347 145.439 104.693 145.785 104.693 146.214V157.151H96.8711V146.214C96.8849 145.785 97.2311 145.439 97.6602 145.439Z" fill="url(#paint0_radial)"/>
<path fill-rule="evenodd" clip-rule="evenodd" d="M97.6602 143.874H103.918C104.569 143.874 105.15 144.137 105.579 144.567C106.009 144.996 106.272 145.577 106.272 146.228V157.165C106.272 158.024 105.566 158.73 104.707 158.73H96.8849C96.0265 158.73 95.3204 158.024 95.3204 157.165V146.228C95.3204 145.577 95.5835 144.996 96.0127 144.567C96.428 144.137 97.0233 143.874 97.6602 143.874ZM97.6602 145.439H103.918C104.347 145.439 104.693 145.785 104.693 146.214V157.151H96.871V146.214C96.8849 145.785 97.231 145.439 97.6602 145.439Z" fill="black"/>
<path opacity="0.5" fill-rule="evenodd" clip-rule="evenodd" d="M97.6602 145.439C98.4079 145.439 99.1693 145.439 99.9169 145.439C97.6602 145.439 98.934 153.247 98.934 157.165C97.9233 157.165 97.8818 157.165 96.8711 157.165C96.8711 153.524 96.8711 149.869 96.8711 146.228C96.8849 145.785 97.2311 145.439 97.6602 145.439Z" fill="url(#paint1_linear)"/>
<path opacity="0.5" fill-rule="evenodd" clip-rule="evenodd" d="M103.918 145.439C103.17 145.439 102.409 145.439 101.661 145.439C103.918 145.439 102.644 153.247 102.644 157.165C103.655 157.165 103.697 157.165 104.707 157.165C104.707 153.524 104.707 149.869 104.707 146.228C104.693 145.785 104.347 145.439 103.918 145.439Z" fill="url(#paint2_linear)"/>
<path opacity="0.5" fill-rule="evenodd" clip-rule="evenodd" d="M97.6602 145.439C98.7678 145.439 99.8754 145.439 100.969 145.439C97.0926 146.588 104.043 155.711 104.693 152.998C104.693 155.67 105.579 157.151 103.198 157.151C104.292 155.199 97.5356 143.293 96.8711 148.845C96.8711 147.958 96.8711 147.086 96.8711 146.2C96.8849 145.785 97.2311 145.439 97.6602 145.439Z" fill="url(#paint3_linear)"/>
<path fill-rule="evenodd" clip-rule="evenodd" d="M97.937 146.643C98.3247 146.643 98.6431 147.086 98.6431 147.64C98.6431 148.194 98.3247 148.637 97.937 148.637C97.5494 148.637 97.231 148.194 97.231 147.64C97.231 147.086 97.5494 146.643 97.937 146.643Z" fill="url(#paint4_radial)"/>
<path fill-rule="evenodd" clip-rule="evenodd" d="M103.641 146.643C103.253 146.643 102.935 147.086 102.935 147.64C102.935 148.194 103.253 148.637 103.641 148.637C104.029 148.637 104.347 148.194 104.347 147.64C104.347 147.086 104.029 146.643 103.641 146.643Z" fill="url(#paint5_radial)"/>
<path fill-rule="evenodd" clip-rule="evenodd" d="M97.937 148.955C98.3247 148.955 98.6431 149.398 98.6431 149.952C98.6431 150.506 98.3247 150.949 97.937 150.949C97.5494 150.949 97.231 150.506 97.231 149.952C97.231 149.398 97.5494 148.955 97.937 148.955Z" fill="url(#paint6_radial)"/>
<path fill-rule="evenodd" clip-rule="evenodd" d="M103.641 148.955C103.253 148.955 102.935 149.398 102.935 149.952C102.935 150.506 103.253 150.949 103.641 150.949C104.029 150.949 104.347 150.506 104.347 149.952C104.347 149.398 104.029 148.955 103.641 148.955Z" fill="url(#paint7_radial)"/>
<path fill-rule="evenodd" clip-rule="evenodd" d="M97.937 151.267C98.3247 151.267 98.6431 151.71 98.6431 152.264C98.6431 152.818 98.3247 153.261 97.937 153.261C97.5494 153.261 97.231 152.818 97.231 152.264C97.231 151.71 97.5494 151.267 97.937 151.267Z" fill="url(#paint8_radial)"/>
<path fill-rule="evenodd" clip-rule="evenodd" d="M103.641 151.267C103.253 151.267 102.935 151.71 102.935 152.264C102.935 152.818 103.253 153.261 103.641 153.261C104.029 153.261 104.347 152.818 104.347 152.264C104.347 151.71 104.029 151.267 103.641 151.267Z" fill="url(#paint9_radial)"/>
<path fill-rule="evenodd" clip-rule="evenodd" d="M100.789 146.643C101.343 146.643 101.786 147.086 101.786 147.64C101.786 148.194 101.343 148.637 100.789 148.637C100.235 148.637 99.7922 148.194 99.7922 147.64C99.7922 147.086 100.235 146.643 100.789 146.643Z" fill="url(#paint10_radial)"/>
<path fill-rule="evenodd" clip-rule="evenodd" d="M100.789 148.955C101.343 148.955 101.786 149.398 101.786 149.952C101.786 150.506 101.343 150.949 100.789 150.949C100.235 150.949 99.7922 150.506 99.7922 149.952C99.7922 149.398 100.235 148.955 100.789 148.955Z" fill="url(#paint11_radial)"/>
<path fill-rule="evenodd" clip-rule="evenodd" d="M100.789 151.267C101.343 151.267 101.786 151.71 101.786 152.264C101.786 152.818 101.343 153.261 100.789 153.261C100.235 153.261 99.7922 152.818 99.7922 152.264C99.7922 151.71 100.235 151.267 100.789 151.267Z" fill="url(#paint12_radial)"/>
<path fill-rule="evenodd" clip-rule="evenodd" d="M106.645 155.213H96.871C92.5653 155.213 89.0626 158.73 89.0626 163.021V196.235C89.0626 197.315 89.9348 198.187 91.0147 198.187H106.645C107.725 198.187 108.598 197.315 108.598 196.235V157.165C108.611 156.085 107.725 155.213 106.645 155.213Z" fill="url(#paint13_linear)"/>
<path fill-rule="evenodd" clip-rule="evenodd" d="M106.645 155.213H96.871C92.5653 155.213 89.0626 158.73 89.0626 163.021V196.235C89.0626 197.315 89.9348 198.187 91.0147 198.187H106.645C107.725 198.187 108.597 197.315 108.597 196.235V157.165C108.611 156.085 107.725 155.213 106.645 155.213ZM96.8848 153.649H106.659C107.628 153.649 108.514 154.036 109.151 154.673C109.788 155.31 110.176 156.182 110.176 157.151V196.221C110.176 197.19 109.774 198.062 109.151 198.699C108.514 199.336 107.642 199.724 106.673 199.724H91.0147C90.1009 199.724 89.2702 199.378 88.6472 198.796C88.6057 198.769 88.5642 198.727 88.5365 198.699C87.8996 198.062 87.512 197.176 87.512 196.207V163.021C87.512 160.446 88.5642 158.093 90.2671 156.404C91.9561 154.701 94.2959 153.649 96.8848 153.649Z" fill="black"/>
<path opacity="0.5" fill-rule="evenodd" clip-rule="evenodd" d="M106.645 155.213C104.43 155.213 102.201 155.213 99.9861 155.213C103.572 157.317 104.167 161.069 104.167 178.929C104.167 196.789 102.16 196.387 99.9861 198.201C102.201 198.201 104.43 198.201 106.645 198.201C107.725 198.201 108.598 197.329 108.598 196.249C108.598 183.221 108.598 170.193 108.598 157.179C108.611 156.085 107.725 155.213 106.645 155.213Z" fill="url(#paint14_linear)"/>
<path opacity="0.5" fill-rule="evenodd" clip-rule="evenodd" d="M96.8848 155.213C92.5791 155.213 89.0764 158.73 89.0764 163.021C89.0764 174.097 89.0764 185.159 89.0764 196.235C89.0764 197.315 89.9486 198.187 91.0285 198.187C92.3299 198.187 93.6452 198.187 94.9466 198.187C93.0222 197.702 91.8038 195.086 91.1531 191.362C90.9455 190.129 92.413 187.416 96.6633 185.865C91.0424 184.951 90.5578 184.481 90.5578 182.958C90.6132 171.55 93.396 157.525 96.8848 155.213Z" fill="url(#paint15_linear)"/>
<path fill-rule="evenodd" clip-rule="evenodd" d="M103.281 163.326H107.725C108.404 163.326 108.971 163.88 108.971 164.572V182.335C108.971 182.778 108.819 182.986 108.556 182.986C108.099 182.986 107.434 180.687 106.839 178.611C106.41 177.129 106.327 175.759 106.175 175.759H102.201C102.049 175.759 101.966 177.115 101.537 178.611C100.941 180.687 100.277 182.986 99.8198 182.986C99.5568 182.986 99.4045 182.792 99.4045 182.335V167.23C99.3768 165.084 101.121 163.326 103.281 163.326Z" fill="#3B0201"/>
<path fill-rule="evenodd" clip-rule="evenodd" d="M107.711 163.672H103.267C101.315 163.672 99.7091 165.264 99.7091 167.23V182.335C99.7091 184.37 101.675 175.413 101.98 175.413H106.327C106.631 175.413 108.597 184.37 108.597 182.335V164.558C108.611 164.074 108.21 163.672 107.711 163.672Z" fill="url(#paint16_linear)"/>
<path fill-rule="evenodd" clip-rule="evenodd" d="M90.5024 164.143H93.4098C94.4897 164.143 94.4897 166.469 93.4098 166.469H90.5024C89.4225 166.469 89.4225 164.143 90.5024 164.143Z" fill="#3B0201"/>
<path fill-rule="evenodd" clip-rule="evenodd" d="M90.2532 164.489H93.1468C93.8944 164.489 93.8944 166.109 93.1468 166.109H90.2532C89.5056 166.123 89.5056 164.489 90.2532 164.489Z" fill="url(#paint17_linear)"/>
<path fill-rule="evenodd" clip-rule="evenodd" d="M90.4193 164.641H92.9944C93.659 164.641 93.659 165.97 92.9944 165.97H90.4193C89.7686 165.97 89.7686 164.641 90.4193 164.641Z" fill="url(#paint18_radial)"/>
<path opacity="0.5" fill-rule="evenodd" clip-rule="evenodd" d="M90.2532 164.489C91.2223 164.489 92.1914 164.489 93.1467 164.489C91.1669 165.043 93.1467 164.974 93.1467 166.109C92.1776 166.109 91.2085 166.109 90.2532 166.109C93.036 165.97 90.2532 165.375 90.2532 164.489Z" fill="url(#paint19_linear)"/>
<path fill-rule="evenodd" clip-rule="evenodd" d="M90.5024 169.03H93.4098C94.4897 169.03 94.4897 171.356 93.4098 171.356H90.5024C89.4225 171.356 89.4225 169.03 90.5024 169.03Z" fill="#3B0201"/>
<path fill-rule="evenodd" clip-rule="evenodd" d="M90.2532 169.376H93.1468C93.8944 169.376 93.8944 170.996 93.1468 170.996H90.2532C89.5056 171.01 89.5056 169.376 90.2532 169.376Z" fill="url(#paint20_linear)"/>
<path fill-rule="evenodd" clip-rule="evenodd" d="M90.4193 169.528H92.9944C93.659 169.528 93.659 170.858 92.9944 170.858H90.4193C89.7686 170.858 89.7686 169.528 90.4193 169.528Z" fill="url(#paint21_radial)"/>
<path opacity="0.5" fill-rule="evenodd" clip-rule="evenodd" d="M90.2532 169.376C91.2223 169.376 92.1914 169.376 93.1467 169.376C91.1669 169.93 93.1467 169.861 93.1467 170.996C92.1776 170.996 91.2085 170.996 90.2532 170.996C93.036 170.858 90.2532 170.262 90.2532 169.376Z" fill="url(#paint22_linear)"/>
<path fill-rule="evenodd" clip-rule="evenodd" d="M90.5024 173.917H93.4098C94.4897 173.917 94.4897 176.243 93.4098 176.243H90.5024C89.4225 176.243 89.4225 173.917 90.5024 173.917Z" fill="#3B0201"/>
<path fill-rule="evenodd" clip-rule="evenodd" d="M90.2532 174.263H93.1468C93.8944 174.263 93.8944 175.883 93.1468 175.883H90.2532C89.5056 175.897 89.5056 174.263 90.2532 174.263Z" fill="url(#paint23_linear)"/>
<path fill-rule="evenodd" clip-rule="evenodd" d="M90.4193 174.416H92.9944C93.659 174.416 93.659 175.745 92.9944 175.745H90.4193C89.7686 175.745 89.7686 174.416 90.4193 174.416Z" fill="url(#paint24_radial)"/>
<path opacity="0.5" fill-rule="evenodd" clip-rule="evenodd" d="M90.2532 174.263C91.2223 174.263 92.1914 174.263 93.1467 174.263C91.1669 174.817 93.1467 174.748 93.1467 175.883C92.1776 175.883 91.2085 175.883 90.2532 175.883C93.036 175.745 90.2532 175.149 90.2532 174.263Z" fill="url(#paint25_linear)"/>
<path fill-rule="evenodd" clip-rule="evenodd" d="M100.872 166.053H107.711C107.933 166.053 108.099 166.22 108.099 166.427V174.762C108.099 174.969 107.919 175.136 107.711 175.136H100.872C100.651 175.136 100.484 174.969 100.484 174.762V166.427C100.484 166.22 100.664 166.053 100.872 166.053Z" fill="url(#paint26_linear)"/>
<path fill-rule="evenodd" clip-rule="evenodd" d="M101.454 166.053H107.13V173.64C107.13 174.056 106.839 174.388 106.479 174.388H102.104C101.744 174.388 101.454 174.056 101.454 173.64V166.053Z" fill="url(#paint27_linear)"/>
<path fill-rule="evenodd" clip-rule="evenodd" d="M101.454 171.91C102.395 172.56 101.91 173.862 104.292 173.862C106.673 173.862 106.189 172.56 107.13 171.91C107.13 172.491 107.13 173.059 107.13 173.64C107.13 174.056 106.839 174.388 106.479 174.388C105.026 174.388 103.558 174.388 102.104 174.388C101.744 174.388 101.454 174.056 101.454 173.64C101.454 173.059 101.454 172.491 101.454 171.91Z" fill="#3B0201"/>
<path fill-rule="evenodd" clip-rule="evenodd" d="M96.691 155.213C96.691 155.102 96.7741 155.019 96.8848 155.019C96.9956 155.019 97.0787 155.102 97.0787 155.213V185.879C97.0787 185.99 96.9956 186.073 96.8848 186.073C95.5142 186.073 94.0051 186.35 92.6484 186.793C91.2224 187.25 89.9625 187.873 89.1872 188.537C89.1041 188.606 88.9795 188.593 88.9103 188.51C88.8411 188.426 88.8549 188.302 88.938 188.233C89.7548 187.54 91.0562 186.876 92.5238 186.405C93.8529 185.976 95.3204 185.699 96.6772 185.671V155.213H96.691Z" fill="#3B0201"/>
<path fill-rule="evenodd" clip-rule="evenodd" d="M173.003 145.439H166.745C166.316 145.439 165.97 145.785 165.97 146.214V157.151H173.792V146.214C173.778 145.785 173.432 145.439 173.003 145.439Z" fill="url(#paint28_radial)"/>
<path fill-rule="evenodd" clip-rule="evenodd" d="M173.003 145.439H166.745C166.316 145.439 165.97 145.785 165.97 146.214V157.151H173.792V146.214C173.778 145.785 173.432 145.439 173.003 145.439ZM166.745 143.874H173.003C173.654 143.874 174.235 144.137 174.664 144.567C175.094 144.996 175.357 145.577 175.357 146.228V157.165C175.357 158.024 174.651 158.73 173.792 158.73H165.956C165.098 158.73 164.392 158.024 164.392 157.165V146.228C164.392 145.577 164.655 144.996 165.084 144.567C165.513 144.137 166.095 143.874 166.745 143.874Z" fill="black"/>
<path opacity="0.5" fill-rule="evenodd" clip-rule="evenodd" d="M173.003 145.439C172.255 145.439 171.494 145.439 170.746 145.439C173.003 145.439 171.729 153.247 171.729 157.165C172.74 157.165 172.782 157.165 173.792 157.165C173.792 153.524 173.792 149.869 173.792 146.228C173.778 145.785 173.432 145.439 173.003 145.439Z" fill="url(#paint29_linear)"/>
<path opacity="0.5" fill-rule="evenodd" clip-rule="evenodd" d="M166.745 145.439C167.493 145.439 168.254 145.439 169.002 145.439C166.745 145.439 168.019 153.247 168.019 157.165C167.008 157.165 166.967 157.165 165.956 157.165C165.956 153.524 165.956 149.869 165.956 146.228C165.956 145.785 166.316 145.439 166.745 145.439Z" fill="url(#paint30_linear)"/>
<path opacity="0.5" fill-rule="evenodd" clip-rule="evenodd" d="M173.003 145.439C171.895 145.439 170.788 145.439 169.694 145.439C173.571 146.588 166.621 155.711 165.97 152.998C165.97 155.67 165.084 157.151 167.465 157.151C166.371 155.199 173.128 143.293 173.792 148.845C173.792 147.958 173.792 147.086 173.792 146.2C173.778 145.785 173.432 145.439 173.003 145.439Z" fill="url(#paint31_linear)"/>
<path fill-rule="evenodd" clip-rule="evenodd" d="M172.726 146.643C172.339 146.643 172.02 147.086 172.02 147.64C172.02 148.194 172.339 148.637 172.726 148.637C173.114 148.637 173.432 148.194 173.432 147.64C173.432 147.086 173.114 146.643 172.726 146.643Z" fill="url(#paint32_radial)"/>
<path fill-rule="evenodd" clip-rule="evenodd" d="M167.022 146.643C167.41 146.643 167.728 147.086 167.728 147.64C167.728 148.194 167.41 148.637 167.022 148.637C166.634 148.637 166.316 148.194 166.316 147.64C166.316 147.086 166.621 146.643 167.022 146.643Z" fill="url(#paint33_radial)"/>
<path fill-rule="evenodd" clip-rule="evenodd" d="M172.726 148.955C172.339 148.955 172.02 149.398 172.02 149.952C172.02 150.506 172.339 150.949 172.726 150.949C173.114 150.949 173.432 150.506 173.432 149.952C173.432 149.398 173.114 148.955 172.726 148.955Z" fill="url(#paint34_radial)"/>
<path fill-rule="evenodd" clip-rule="evenodd" d="M167.022 148.955C167.41 148.955 167.728 149.398 167.728 149.952C167.728 150.506 167.41 150.949 167.022 150.949C166.634 150.949 166.316 150.506 166.316 149.952C166.316 149.398 166.621 148.955 167.022 148.955Z" fill="url(#paint35_radial)"/>
<path fill-rule="evenodd" clip-rule="evenodd" d="M172.726 151.267C172.339 151.267 172.02 151.71 172.02 152.264C172.02 152.818 172.339 153.261 172.726 153.261C173.114 153.261 173.432 152.818 173.432 152.264C173.432 151.71 173.114 151.267 172.726 151.267Z" fill="url(#paint36_radial)"/>
<path fill-rule="evenodd" clip-rule="evenodd" d="M167.022 151.267C167.41 151.267 167.728 151.71 167.728 152.264C167.728 152.818 167.41 153.261 167.022 153.261C166.634 153.261 166.316 152.818 166.316 152.264C166.316 151.71 166.621 151.267 167.022 151.267Z" fill="url(#paint37_radial)"/>
<path fill-rule="evenodd" clip-rule="evenodd" d="M169.874 146.643C169.32 146.643 168.877 147.086 168.877 147.64C168.877 148.194 169.32 148.637 169.874 148.637C170.428 148.637 170.871 148.194 170.871 147.64C170.871 147.086 170.414 146.643 169.874 146.643Z" fill="url(#paint38_radial)"/>
<path fill-rule="evenodd" clip-rule="evenodd" d="M169.874 148.955C169.32 148.955 168.877 149.398 168.877 149.952C168.877 150.506 169.32 150.949 169.874 150.949C170.428 150.949 170.871 150.506 170.871 149.952C170.871 149.398 170.414 148.955 169.874 148.955Z" fill="url(#paint39_radial)"/>
<path fill-rule="evenodd" clip-rule="evenodd" d="M169.874 151.267C169.32 151.267 168.877 151.71 168.877 152.264C168.877 152.818 169.32 153.261 169.874 153.261C170.428 153.261 170.871 152.818 170.871 152.264C170.871 151.71 170.414 151.267 169.874 151.267Z" fill="url(#paint40_radial)"/>
<path fill-rule="evenodd" clip-rule="evenodd" d="M164.004 155.213H173.778C178.084 155.213 181.587 158.73 181.587 163.021V196.235C181.587 197.315 180.715 198.187 179.635 198.187H164.004C162.924 198.187 162.052 197.315 162.052 196.235V157.165C162.052 156.085 162.938 155.213 164.004 155.213Z" fill="url(#paint41_linear)"/>
<path fill-rule="evenodd" clip-rule="evenodd" d="M164.004 153.649H173.778C176.353 153.649 178.707 154.701 180.396 156.404C182.099 158.107 183.151 160.446 183.151 163.021V196.235C183.151 197.204 182.75 198.09 182.127 198.727C182.085 198.768 182.057 198.796 182.016 198.824C181.393 199.405 180.562 199.751 179.648 199.751H164.004C163.035 199.751 162.163 199.35 161.526 198.727C160.889 198.09 160.501 197.218 160.501 196.249V157.165C160.501 156.196 160.903 155.324 161.526 154.687C162.163 154.036 163.035 153.649 164.004 153.649ZM164.004 155.213H173.778C178.084 155.213 181.587 158.73 181.587 163.021V196.235C181.587 197.315 180.715 198.187 179.635 198.187H164.004C162.924 198.187 162.052 197.315 162.052 196.235V157.165C162.052 156.085 162.938 155.213 164.004 155.213Z" fill="black"/>
<path opacity="0.5" fill-rule="evenodd" clip-rule="evenodd" d="M164.004 155.213C166.219 155.213 168.448 155.213 170.663 155.213C167.078 157.317 166.482 161.069 166.482 178.929C166.482 196.789 168.49 196.387 170.663 198.201C168.448 198.201 166.219 198.201 164.004 198.201C162.924 198.201 162.052 197.329 162.052 196.249C162.052 183.221 162.052 170.193 162.052 157.179C162.052 156.085 162.938 155.213 164.004 155.213Z" fill="url(#paint42_linear)"/>
<path opacity="0.5" fill-rule="evenodd" clip-rule="evenodd" d="M173.778 155.213C178.084 155.213 181.587 158.73 181.587 163.021C181.587 174.097 181.587 185.159 181.587 196.235C181.587 197.315 180.714 198.187 179.635 198.187C178.333 198.187 177.018 198.187 175.716 198.187C177.641 197.702 178.859 195.086 179.51 191.362C179.718 190.129 178.25 187.416 174 185.865C179.621 184.951 180.105 184.481 180.105 182.958C180.05 171.55 177.253 157.525 173.778 155.213Z" fill="url(#paint43_linear)"/>
<path fill-rule="evenodd" clip-rule="evenodd" d="M167.382 163.326H162.938C162.259 163.326 161.692 163.88 161.692 164.572V182.335C161.692 182.778 161.844 182.986 162.107 182.986C162.564 182.986 163.229 180.687 163.824 178.611C164.253 177.129 164.336 175.759 164.488 175.759H168.462C168.614 175.759 168.697 177.115 169.126 178.611C169.722 180.687 170.386 182.986 170.843 182.986C171.106 182.986 171.258 182.792 171.258 182.335V167.23C171.286 165.084 169.528 163.326 167.382 163.326Z" fill="#3B0201"/>
<path fill-rule="evenodd" clip-rule="evenodd" d="M162.938 163.672H167.382C169.334 163.672 170.94 165.264 170.94 167.23V182.335C170.94 184.37 168.974 175.413 168.67 175.413H164.322C164.018 175.413 162.052 184.37 162.052 182.335V164.558C162.052 164.074 162.453 163.672 162.938 163.672Z" fill="url(#paint44_linear)"/>
<path fill-rule="evenodd" clip-rule="evenodd" d="M180.161 164.143H177.267C176.187 164.143 176.187 166.469 177.267 166.469H180.161C181.227 166.469 181.227 164.143 180.161 164.143Z" fill="#3B0201"/>
<path fill-rule="evenodd" clip-rule="evenodd" d="M180.41 164.489H177.516C176.769 164.489 176.769 166.109 177.516 166.109H180.41C181.144 166.123 181.144 164.489 180.41 164.489Z" fill="url(#paint45_linear)"/>
<path fill-rule="evenodd" clip-rule="evenodd" d="M180.244 164.641H177.669C177.004 164.641 177.004 165.97 177.669 165.97H180.244C180.895 165.97 180.895 164.641 180.244 164.641Z" fill="url(#paint46_radial)"/>
<path opacity="0.5" fill-rule="evenodd" clip-rule="evenodd" d="M180.41 164.489C179.441 164.489 178.472 164.489 177.516 164.489C179.496 165.043 177.516 164.974 177.516 166.109C178.485 166.109 179.455 166.109 180.41 166.109C177.627 165.97 180.41 165.375 180.41 164.489Z" fill="url(#paint47_linear)"/>
<path fill-rule="evenodd" clip-rule="evenodd" d="M180.161 169.03H177.267C176.187 169.03 176.187 171.356 177.267 171.356H180.161C181.227 171.356 181.227 169.03 180.161 169.03Z" fill="#3B0201"/>
<path fill-rule="evenodd" clip-rule="evenodd" d="M180.41 169.376H177.516C176.769 169.376 176.769 170.996 177.516 170.996H180.41C181.144 171.01 181.144 169.376 180.41 169.376Z" fill="url(#paint48_linear)"/>
<path fill-rule="evenodd" clip-rule="evenodd" d="M180.244 169.528H177.669C177.004 169.528 177.004 170.858 177.669 170.858H180.244C180.895 170.858 180.895 169.528 180.244 169.528Z" fill="url(#paint49_radial)"/>
<path opacity="0.5" fill-rule="evenodd" clip-rule="evenodd" d="M180.41 169.376C179.441 169.376 178.472 169.376 177.516 169.376C179.496 169.93 177.516 169.861 177.516 170.996C178.485 170.996 179.455 170.996 180.41 170.996C177.627 170.858 180.41 170.262 180.41 169.376Z" fill="url(#paint50_linear)"/>
<path fill-rule="evenodd" clip-rule="evenodd" d="M180.161 173.917H177.267C176.187 173.917 176.187 176.243 177.267 176.243H180.161C181.227 176.243 181.227 173.917 180.161 173.917Z" fill="#3B0201"/>
<path fill-rule="evenodd" clip-rule="evenodd" d="M180.41 174.263H177.516C176.769 174.263 176.769 175.883 177.516 175.883H180.41C181.144 175.897 181.144 174.263 180.41 174.263Z" fill="url(#paint51_linear)"/>
<path fill-rule="evenodd" clip-rule="evenodd" d="M180.244 174.416H177.669C177.004 174.416 177.004 175.745 177.669 175.745H180.244C180.895 175.745 180.895 174.416 180.244 174.416Z" fill="url(#paint52_radial)"/>
<path opacity="0.5" fill-rule="evenodd" clip-rule="evenodd" d="M180.41 174.263C179.441 174.263 178.472 174.263 177.516 174.263C179.496 174.817 177.516 174.748 177.516 175.883C178.485 175.883 179.455 175.883 180.41 175.883C177.627 175.745 180.41 175.149 180.41 174.263Z" fill="url(#paint53_linear)"/>
<path fill-rule="evenodd" clip-rule="evenodd" d="M169.791 166.053H162.952C162.73 166.053 162.564 166.22 162.564 166.427V174.762C162.564 174.969 162.744 175.136 162.952 175.136H169.791C170.013 175.136 170.179 174.969 170.179 174.762V166.427C170.179 166.22 169.999 166.053 169.791 166.053Z" fill="url(#paint54_linear)"/>
<path fill-rule="evenodd" clip-rule="evenodd" d="M169.196 166.053H163.519V173.64C163.519 174.056 163.81 174.388 164.17 174.388H168.545C168.905 174.388 169.196 174.056 169.196 173.64V166.053Z" fill="url(#paint55_linear)"/>
<path fill-rule="evenodd" clip-rule="evenodd" d="M169.196 171.91C168.254 172.56 168.739 173.862 166.357 173.862C163.976 173.862 164.461 172.56 163.519 171.91C163.519 172.491 163.519 173.059 163.519 173.64C163.519 174.056 163.81 174.388 164.17 174.388C165.624 174.388 167.091 174.388 168.545 174.388C168.905 174.388 169.196 174.056 169.196 173.64C169.196 173.059 169.196 172.491 169.196 171.91Z" fill="#3B0201"/>
<path fill-rule="evenodd" clip-rule="evenodd" d="M173.972 155.213C173.972 155.102 173.889 155.019 173.778 155.019C173.668 155.019 173.584 155.102 173.584 155.213V185.879C173.584 185.99 173.668 186.073 173.778 186.073C175.149 186.073 176.658 186.35 178.015 186.793C179.441 187.25 180.701 187.873 181.476 188.537C181.559 188.606 181.684 188.593 181.753 188.51C181.822 188.426 181.808 188.302 181.725 188.233C180.908 187.54 179.607 186.876 178.139 186.405C176.81 185.976 175.343 185.699 173.986 185.671V155.213H173.972Z" fill="#3B0201"/>
</g>
</g>
<defs>
<radialGradient id="paint0_radial" cx="0" cy="0" r="1" gradientUnits="userSpaceOnUse" gradientTransform="translate(100.754 148.831) rotate(-90.0019) scale(9.70514 4.09363)">
<stop stop-color="#B2B4B4"/>
<stop offset="1" stop-color="#454849"/>
</radialGradient>
<linearGradient id="paint1_linear" x1="96.8827" y1="151.3" x2="99.9436" y2="151.299" gradientUnits="userSpaceOnUse">
<stop stop-color="#454849"/>
<stop offset="1" stop-color="#B2B4B4"/>
</linearGradient>
<linearGradient id="paint2_linear" x1="104.696" y1="151.3" x2="101.635" y2="151.299" gradientUnits="userSpaceOnUse">
<stop stop-color="#454849"/>
<stop offset="1" stop-color="#B2B4B4"/>
</linearGradient>
<linearGradient id="paint3_linear" x1="104.794" y1="154.77" x2="97.6646" y2="145.618" gradientUnits="userSpaceOnUse">
<stop stop-color="#757367"/>
<stop offset="1" stop-color="white"/>
</linearGradient>
<radialGradient id="paint4_radial" cx="0" cy="0" r="1" gradientUnits="userSpaceOnUse" gradientTransform="translate(97.9355 147.634) rotate(-90) scale(0.995076 0.703815)">
<stop/>
<stop offset="1" stop-color="#393D3E"/>
</radialGradient>
<radialGradient id="paint5_radial" cx="0" cy="0" r="1" gradientUnits="userSpaceOnUse" gradientTransform="translate(103.644 147.634) rotate(-90) scale(0.995034 0.703792)">
<stop/>
<stop offset="1" stop-color="#393D3E"/>
</radialGradient>
<radialGradient id="paint6_radial" cx="0" cy="0" r="1" gradientUnits="userSpaceOnUse" gradientTransform="translate(97.9356 149.945) rotate(-90) scale(0.995078 0.703815)">
<stop/>
<stop offset="1" stop-color="#393D3E"/>
</radialGradient>
<radialGradient id="paint7_radial" cx="0" cy="0" r="1" gradientUnits="userSpaceOnUse" gradientTransform="translate(103.644 149.945) rotate(-90) scale(0.995036 0.703792)">
<stop/>
<stop offset="1" stop-color="#393D3E"/>
</radialGradient>
<radialGradient id="paint8_radial" cx="0" cy="0" r="1" gradientUnits="userSpaceOnUse" gradientTransform="translate(97.9356 152.256) rotate(-90) scale(0.995074 0.703815)">
<stop/>
<stop offset="1" stop-color="#393D3E"/>
</radialGradient>
<radialGradient id="paint9_radial" cx="0" cy="0" r="1" gradientUnits="userSpaceOnUse" gradientTransform="translate(103.644 152.256) rotate(-90) scale(0.995033 0.703792)">
<stop/>
<stop offset="1" stop-color="#393D3E"/>
</radialGradient>
<radialGradient id="paint10_radial" cx="0" cy="0" r="1" gradientUnits="userSpaceOnUse" gradientTransform="translate(100.79 147.634) scale(0.995044)">
<stop/>
<stop offset="1" stop-color="#393D3E"/>
</radialGradient>
<radialGradient id="paint11_radial" cx="0" cy="0" r="1" gradientUnits="userSpaceOnUse" gradientTransform="translate(100.79 149.945) scale(0.995044)">
<stop/>
<stop offset="1" stop-color="#393D3E"/>
</radialGradient>
<radialGradient id="paint12_radial" cx="0" cy="0" r="1" gradientUnits="userSpaceOnUse" gradientTransform="translate(100.79 152.256) scale(0.995044)">
<stop/>
<stop offset="1" stop-color="#393D3E"/>
</radialGradient>
<linearGradient id="paint13_linear" x1="108.582" y1="176.698" x2="91.2412" y2="176.698" gradientUnits="userSpaceOnUse">
<stop stop-color="#7A0604"/>
<stop offset="1" stop-color="#C2391E"/>
</linearGradient>
<linearGradient id="paint14_linear" x1="108.605" y1="176.699" x2="89.0675" y2="176.697" gradientUnits="userSpaceOnUse">
<stop stop-color="#C2391E"/>
<stop offset="1" stop-color="#C2391E"/>
</linearGradient>
<linearGradient id="paint15_linear" x1="92.9726" y1="197.734" x2="92.9744" y2="157.502" gradientUnits="userSpaceOnUse">
<stop stop-color="#C2391E"/>
<stop offset="1" stop-color="#F3CAD9"/>
</linearGradient>
<linearGradient id="paint16_linear" x1="104.163" y1="180.825" x2="104.165" y2="163.678" gradientUnits="userSpaceOnUse">
<stop stop-color="#3A0000"/>
<stop offset="1" stop-color="#C2391E"/>
</linearGradient>
<linearGradient id="paint17_linear" x1="91.7049" y1="166.021" x2="91.7049" y2="164.495" gradientUnits="userSpaceOnUse">
<stop stop-color="#00290D"/>
<stop offset="1" stop-color="#185C22"/>
</linearGradient>
<radialGradient id="paint18_radial" cx="0" cy="0" r="1" gradientUnits="userSpaceOnUse" gradientTransform="translate(91.8057 165.068) rotate(0.0218091) scale(1.91665 0.697659)">
<stop stop-color="#80C342"/>
<stop offset="1" stop-color="#2F943E"/>
</radialGradient>
<linearGradient id="paint19_linear" x1="91.7034" y1="166.009" x2="91.7059" y2="164.644" gradientUnits="userSpaceOnUse">
<stop stop-color="#2F943E"/>
<stop offset="1" stop-color="white"/>
</linearGradient>
<linearGradient id="paint20_linear" x1="91.7049" y1="170.906" x2="91.7049" y2="169.38" gradientUnits="userSpaceOnUse">
<stop stop-color="#00290D"/>
<stop offset="1" stop-color="#185C22"/>
</linearGradient>
<radialGradient id="paint21_radial" cx="0" cy="0" r="1" gradientUnits="userSpaceOnUse" gradientTransform="translate(91.8057 169.953) rotate(0.0218091) scale(1.9167 0.697681)">
<stop stop-color="#80C342"/>
<stop offset="1" stop-color="#2F943E"/>
</radialGradient>
<linearGradient id="paint22_linear" x1="91.7034" y1="170.894" x2="91.7059" y2="169.529" gradientUnits="userSpaceOnUse">
<stop stop-color="#2F943E"/>
<stop offset="1" stop-color="white"/>
</linearGradient>
<linearGradient id="paint23_linear" x1="91.7049" y1="175.791" x2="91.7049" y2="174.265" gradientUnits="userSpaceOnUse">
<stop stop-color="#00290D"/>
<stop offset="1" stop-color="#185C22"/>
</linearGradient>
<radialGradient id="paint24_radial" cx="0" cy="0" r="1" gradientUnits="userSpaceOnUse" gradientTransform="translate(91.8057 174.838) rotate(0.0218091) scale(1.91665 0.697661)">
<stop stop-color="#80C342"/>
<stop offset="1" stop-color="#2F943E"/>
</radialGradient>
<linearGradient id="paint25_linear" x1="91.7034" y1="175.779" x2="91.7059" y2="174.414" gradientUnits="userSpaceOnUse">
<stop stop-color="#2F943E"/>
<stop offset="1" stop-color="white"/>
</linearGradient>
<linearGradient id="paint26_linear" x1="104.295" y1="174.775" x2="104.297" y2="166.048" gradientUnits="userSpaceOnUse">
<stop stop-color="#C2391E"/>
<stop offset="1" stop-color="#B3321A"/>
</linearGradient>
<linearGradient id="paint27_linear" x1="104.296" y1="174.385" x2="104.296" y2="166.047" gradientUnits="userSpaceOnUse">
<stop stop-color="#3A0000"/>
<stop offset="1" stop-color="#B3321A"/>
</linearGradient>
<radialGradient id="paint28_radial" cx="0" cy="0" r="1" gradientUnits="userSpaceOnUse" gradientTransform="translate(169.906 148.831) rotate(-89.9981) scale(9.70546 4.09377)">
<stop stop-color="#B2B4B4"/>
<stop offset="1" stop-color="#454849"/>
</radialGradient>
<linearGradient id="paint29_linear" x1="173.777" y1="151.3" x2="170.716" y2="151.299" gradientUnits="userSpaceOnUse">
<stop stop-color="#454849"/>
<stop offset="1" stop-color="#B2B4B4"/>
</linearGradient>
<linearGradient id="paint30_linear" x1="165.964" y1="151.3" x2="169.024" y2="151.299" gradientUnits="userSpaceOnUse">
<stop stop-color="#454849"/>
<stop offset="1" stop-color="#B2B4B4"/>
</linearGradient>
<linearGradient id="paint31_linear" x1="165.866" y1="154.77" x2="172.995" y2="145.618" gradientUnits="userSpaceOnUse">
<stop stop-color="#757367"/>
<stop offset="1" stop-color="white"/>
</linearGradient>
<radialGradient id="paint32_radial" cx="0" cy="0" r="1" gradientUnits="userSpaceOnUse" gradientTransform="translate(172.724 147.634) rotate(-90) scale(0.995076 0.703814)">
<stop/>
<stop offset="1" stop-color="#393D3E"/>
</radialGradient>
<radialGradient id="paint33_radial" cx="0" cy="0" r="1" gradientUnits="userSpaceOnUse" gradientTransform="translate(167.016 147.634) rotate(-90) scale(0.995034 0.703788)">
<stop/>
<stop offset="1" stop-color="#393D3E"/>
</radialGradient>
<radialGradient id="paint34_radial" cx="0" cy="0" r="1" gradientUnits="userSpaceOnUse" gradientTransform="translate(172.724 149.945) rotate(-90) scale(0.995078 0.703814)">
<stop/>
<stop offset="1" stop-color="#393D3E"/>
</radialGradient>
<radialGradient id="paint35_radial" cx="0" cy="0" r="1" gradientUnits="userSpaceOnUse" gradientTransform="translate(167.016 149.945) rotate(-90) scale(0.995036 0.703788)">
<stop/>
<stop offset="1" stop-color="#393D3E"/>
</radialGradient>
<radialGradient id="paint36_radial" cx="0" cy="0" r="1" gradientUnits="userSpaceOnUse" gradientTransform="translate(172.724 152.256) rotate(-90) scale(0.995074 0.703814)">
<stop/>
<stop offset="1" stop-color="#393D3E"/>
</radialGradient>
<radialGradient id="paint37_radial" cx="0" cy="0" r="1" gradientUnits="userSpaceOnUse" gradientTransform="translate(167.016 152.256) rotate(-90) scale(0.995033 0.703788)">
<stop/>
<stop offset="1" stop-color="#393D3E"/>
</radialGradient>
<radialGradient id="paint38_radial" cx="0" cy="0" r="1" gradientUnits="userSpaceOnUse" gradientTransform="translate(169.87 147.634) scale(0.99505)">
<stop/>
<stop offset="1" stop-color="#393D3E"/>
</radialGradient>
<radialGradient id="paint39_radial" cx="0" cy="0" r="1" gradientUnits="userSpaceOnUse" gradientTransform="translate(169.87 149.945) scale(0.99505)">
<stop/>
<stop offset="1" stop-color="#393D3E"/>
</radialGradient>
<radialGradient id="paint40_radial" cx="0" cy="0" r="1" gradientUnits="userSpaceOnUse" gradientTransform="translate(169.87 152.256) scale(0.99505)">
<stop/>
<stop offset="1" stop-color="#393D3E"/>
</radialGradient>
<linearGradient id="paint41_linear" x1="162.078" y1="176.698" x2="179.418" y2="176.698" gradientUnits="userSpaceOnUse">
<stop stop-color="#7A0604"/>
<stop offset="1" stop-color="#C2391E"/>
</linearGradient>
<linearGradient id="paint42_linear" x1="162.055" y1="176.699" x2="181.592" y2="176.697" gradientUnits="userSpaceOnUse">
<stop stop-color="#C2391E"/>
<stop offset="1" stop-color="#C2391E"/>
</linearGradient>
<linearGradient id="paint43_linear" x1="177.684" y1="197.734" x2="177.686" y2="155.069" gradientUnits="userSpaceOnUse">
<stop stop-color="#C2391E"/>
<stop offset="1" stop-color="#F3CAD9"/>
</linearGradient>
<linearGradient id="paint44_linear" x1="166.497" y1="180.825" x2="166.495" y2="163.678" gradientUnits="userSpaceOnUse">
<stop stop-color="#3A0000"/>
<stop offset="1" stop-color="#C2391E"/>
</linearGradient>
<linearGradient id="paint45_linear" x1="178.955" y1="166.021" x2="178.955" y2="164.495" gradientUnits="userSpaceOnUse">
<stop stop-color="#00290D"/>
<stop offset="1" stop-color="#185C22"/>
</linearGradient>
<radialGradient id="paint46_radial" cx="0" cy="0" r="1" gradientUnits="userSpaceOnUse" gradientTransform="translate(178.854 165.068) rotate(-0.0218) scale(1.91646 0.697588)">
<stop stop-color="#80C342"/>
<stop offset="1" stop-color="#2F943E"/>
</radialGradient>
<linearGradient id="paint47_linear" x1="178.956" y1="166.009" x2="178.954" y2="164.644" gradientUnits="userSpaceOnUse">
<stop stop-color="#2F943E"/>
<stop offset="1" stop-color="white"/>
</linearGradient>
<linearGradient id="paint48_linear" x1="178.955" y1="170.906" x2="178.955" y2="169.38" gradientUnits="userSpaceOnUse">
<stop stop-color="#00290D"/>
<stop offset="1" stop-color="#185C22"/>
</linearGradient>
<radialGradient id="paint49_radial" cx="0" cy="0" r="1" gradientUnits="userSpaceOnUse" gradientTransform="translate(178.854 169.953) rotate(-0.0218) scale(1.91651 0.69761)">
<stop stop-color="#80C342"/>
<stop offset="1" stop-color="#2F943E"/>
</radialGradient>
<linearGradient id="paint50_linear" x1="178.956" y1="170.894" x2="178.954" y2="169.529" gradientUnits="userSpaceOnUse">
<stop stop-color="#2F943E"/>
<stop offset="1" stop-color="white"/>
</linearGradient>
<linearGradient id="paint51_linear" x1="178.955" y1="175.791" x2="178.955" y2="174.265" gradientUnits="userSpaceOnUse">
<stop stop-color="#00290D"/>
<stop offset="1" stop-color="#185C22"/>
</linearGradient>
<radialGradient id="paint52_radial" cx="0" cy="0" r="1" gradientUnits="userSpaceOnUse" gradientTransform="translate(178.854 174.838) rotate(-0.0218) scale(1.91646 0.69759)">
<stop stop-color="#80C342"/>
<stop offset="1" stop-color="#2F943E"/>
</radialGradient>
<linearGradient id="paint53_linear" x1="178.956" y1="175.779" x2="178.954" y2="174.414" gradientUnits="userSpaceOnUse">
<stop stop-color="#2F943E"/>
<stop offset="1" stop-color="white"/>
</linearGradient>
<linearGradient id="paint54_linear" x1="166.364" y1="174.775" x2="166.363" y2="166.048" gradientUnits="userSpaceOnUse">
<stop stop-color="#C2391E"/>
<stop offset="1" stop-color="#B3321A"/>
</linearGradient>
<linearGradient id="paint55_linear" x1="166.364" y1="174.385" x2="166.364" y2="166.047" gradientUnits="userSpaceOnUse">
<stop stop-color="#3A0000"/>
<stop offset="1" stop-color="#B3321A"/>
</linearGradient>
<clipPath id="clip0">
<rect width="270" height="370" fill="white"/>
</clipPath>
<clipPath id="clip1">
<rect x="66.2742" y="118.649" width="138.115" height="125.489" fill="white"/>
</clipPath>
</defs>
</svg>
