<svg width="270" height="370" viewBox="0 0 270 370" fill="none" xmlns="http://www.w3.org/2000/svg">
<g clip-path="url(#clip0)">
<g clip-path="url(#clip1)">
<path fill-rule="evenodd" clip-rule="evenodd" d="M103.267 155.864C103.267 158.813 98.7815 158.813 98.7815 155.864C98.7815 144.94 97.3417 135.72 107.781 134.474C108.597 132.618 110.439 131.331 112.585 131.331C115.478 131.331 117.832 133.685 117.832 136.578C117.832 139.472 115.478 141.825 112.585 141.825C110.605 141.825 108.888 140.731 108.002 139.126C101.897 140.787 103.267 149.384 103.267 155.864Z" fill="url(#paint0_linear)"/>
<path fill-rule="evenodd" clip-rule="evenodd" d="M104.832 155.864C104.832 157.664 103.821 158.827 102.52 159.353C102.035 159.546 101.523 159.643 101.024 159.643C100.526 159.643 100.014 159.546 99.5292 159.353L99.4323 159.311C98.1863 158.771 97.2171 157.622 97.2171 155.864C97.2171 154.244 97.2033 153.275 97.1894 152.32C97.0372 142.504 96.9264 134.626 106.784 133.034C107.31 132.162 108.03 131.428 108.874 130.874C109.94 130.168 111.228 129.766 112.599 129.766C114.481 129.766 116.184 130.528 117.417 131.76C118.649 132.992 119.41 134.695 119.41 136.578C119.41 138.461 118.649 140.164 117.417 141.396C116.184 142.628 114.481 143.39 112.599 143.39C111.339 143.39 110.162 143.044 109.151 142.448C108.514 142.074 107.933 141.59 107.448 141.036C104.472 142.767 104.624 147.972 104.763 152.776C104.79 153.898 104.832 155.019 104.832 155.864ZM103.267 155.864C103.267 158.813 98.7816 158.813 98.7816 155.864C98.7816 144.94 97.3417 135.72 107.781 134.474C108.597 132.618 110.439 131.331 112.585 131.331C115.478 131.331 117.832 133.685 117.832 136.578C117.832 139.472 115.478 141.825 112.585 141.825C110.605 141.825 108.888 140.731 108.002 139.126C101.897 140.787 103.267 149.384 103.267 155.864Z" fill="black"/>
<path fill-rule="evenodd" clip-rule="evenodd" d="M102.118 149.357C102.118 147.889 99.986 147.792 99.8753 149.288C99.8753 150.035 99.8476 150.81 99.8337 151.558C99.8337 153.053 102.077 153.039 102.077 151.572C102.09 150.838 102.104 150.09 102.118 149.357Z" fill="url(#paint1_radial)"/>
<path fill-rule="evenodd" clip-rule="evenodd" d="M102.146 144.677C102.118 143.168 99.986 143.154 99.903 144.622C99.8891 145.397 99.8891 146.145 99.903 146.92C99.9168 148.18 101.8 148.484 102.132 147.1C102.146 147.017 102.146 146.948 102.146 146.865C102.118 146.131 102.132 145.411 102.146 144.677Z" fill="url(#paint2_radial)"/>
<path fill-rule="evenodd" clip-rule="evenodd" d="M103.129 140.69C103.655 139.319 101.564 138.502 101.024 139.901C100.734 140.69 100.54 141.41 100.374 142.241C100.069 143.556 102.132 144.234 102.575 142.711C102.713 141.991 102.88 141.368 103.129 140.69Z" fill="url(#paint3_radial)"/>
<path fill-rule="evenodd" clip-rule="evenodd" d="M105.69 138.239C107.047 137.713 106.272 135.609 104.859 136.149C103.973 136.509 103.226 137.021 102.603 137.755C101.744 138.71 103.06 140.233 104.181 139.333C104.721 138.793 104.956 138.53 105.69 138.239Z" fill="url(#paint4_radial)"/>
<path fill-rule="evenodd" clip-rule="evenodd" d="M109.788 137.783C111.242 137.824 111.339 135.581 109.83 135.54C109.068 135.512 108.251 135.512 107.49 135.567C107.088 135.581 106.728 135.844 106.548 136.204C106.188 136.993 106.77 137.838 107.642 137.81C108.348 137.755 109.082 137.769 109.788 137.783Z" fill="url(#paint5_radial)"/>
<path fill-rule="evenodd" clip-rule="evenodd" d="M99.903 156.154C99.903 156.376 99.9999 156.639 100.124 156.805C100.817 157.663 102.146 157.193 102.146 156.099C102.132 155.351 102.104 154.604 102.104 153.87C102.104 152.416 99.8615 152.389 99.8615 153.898C99.8615 154.645 99.8891 155.393 99.903 156.154Z" fill="url(#paint6_radial)"/>
<path fill-rule="evenodd" clip-rule="evenodd" d="M112.585 132.092C115.049 132.092 117.057 134.1 117.057 136.564C117.057 139.029 115.049 141.036 112.585 141.036C110.12 141.036 108.113 139.029 108.113 136.564C108.113 134.1 110.12 132.092 112.585 132.092Z" fill="url(#paint7_linear)"/>
<path fill-rule="evenodd" clip-rule="evenodd" d="M112.585 133.145C114.468 133.145 116.004 134.681 116.004 136.564C116.004 138.447 114.468 139.984 112.585 139.984C110.702 139.984 109.165 138.447 109.165 136.564C109.165 134.681 110.702 133.145 112.585 133.145Z" fill="url(#paint8_linear)"/>
<path fill-rule="evenodd" clip-rule="evenodd" d="M83.9816 101.8H92.0669C93.5483 101.8 94.7666 103.019 94.7666 104.5V117.819L92.4546 120.781V126.721L94.7666 129.683V152.763L109.539 158.951C111.242 159.671 112.294 161.249 112.294 163.091V206.895C112.294 208.377 111.076 209.595 109.594 209.595H83.9816C82.5002 209.595 81.2819 208.391 81.2819 206.895V174.526H74.4841C73.9857 174.526 73.5842 174.125 73.5842 173.627V149.883C73.5842 149.384 73.9857 148.983 74.4841 148.983H81.2957V129.683L83.6078 126.721V120.781L81.2819 117.819V104.5C81.2819 103.005 82.4864 101.8 83.9816 101.8Z" fill="url(#paint9_linear)"/>
<path fill-rule="evenodd" clip-rule="evenodd" d="M83.9816 100.236H92.0669C93.2437 100.236 94.3098 100.72 95.0712 101.482C95.0989 101.509 95.1405 101.551 95.1681 101.592C95.8881 102.354 96.3173 103.378 96.3173 104.5V117.819C96.3173 118.192 96.1788 118.552 95.9573 118.815L94.019 121.321V126.181L95.9988 128.728C96.2203 129.019 96.3311 129.351 96.3311 129.683V151.724L110.134 157.511L110.217 157.553C111.325 158.037 112.211 158.799 112.834 159.74C113.485 160.709 113.831 161.859 113.831 163.091V206.895C113.831 208.058 113.346 209.124 112.585 209.9C111.809 210.675 110.757 211.146 109.58 211.146H83.9678C82.8048 211.146 81.7388 210.661 80.9635 209.886C80.1882 209.111 79.7174 208.045 79.7174 206.882V176.091H74.4841C73.8057 176.091 73.1827 175.814 72.7397 175.371C72.6982 175.329 72.6566 175.274 72.6151 175.233C72.2413 174.803 72.0198 174.25 72.0198 173.64V149.883C72.0198 149.204 72.2967 148.595 72.7397 148.152C73.1827 147.709 73.8057 147.432 74.4841 147.432H79.7313V129.683C79.7313 129.31 79.8697 128.95 80.0912 128.687L82.0295 126.181V121.321L80.0497 118.774C79.8005 118.455 79.6897 118.068 79.7313 117.694V104.5C79.7313 103.323 80.2158 102.257 80.9773 101.496C81.005 101.468 81.0465 101.426 81.0881 101.399C81.8357 100.679 82.8602 100.236 83.9816 100.236ZM83.9816 101.8H92.0669C93.5483 101.8 94.7666 103.019 94.7666 104.5V117.819L92.4546 120.781V126.721L94.7666 129.683V152.763L109.539 158.951C111.242 159.671 112.294 161.249 112.294 163.091V206.895C112.294 208.377 111.076 209.595 109.594 209.595H83.9816C82.5002 209.595 81.2819 208.391 81.2819 206.895V174.526H74.4841C73.9857 174.526 73.5842 174.125 73.5842 173.627V149.883C73.5842 149.384 73.9857 148.983 74.4841 148.983H81.2957V129.683L83.6078 126.721V120.781L81.2819 117.819V104.5C81.2819 103.005 82.4864 101.8 83.9816 101.8Z" fill="black"/>
<path fill-rule="evenodd" clip-rule="evenodd" d="M94.7528 152.763L109.525 158.951C111.228 159.671 112.28 161.249 112.28 163.091V206.895C112.28 208.377 111.062 209.595 109.58 209.595H94.7528V152.763Z" fill="url(#paint10_linear)"/>
<path opacity="0.5" fill-rule="evenodd" clip-rule="evenodd" d="M99.1692 154.618C102.617 156.071 106.078 157.511 109.525 158.965C111.228 159.685 112.28 161.263 112.28 163.105C112.28 177.711 112.28 192.303 112.28 206.909C112.28 208.391 111.062 209.609 109.58 209.609C106.105 209.609 102.644 209.609 99.1692 209.609C105.925 208.225 104.499 205.636 104.499 183.166C104.499 160.682 105.524 158.73 99.1692 154.618Z" fill="url(#paint11_linear)"/>
<path fill-rule="evenodd" clip-rule="evenodd" d="M83.9817 101.8H92.067C93.5484 101.8 94.7667 103.019 94.7667 104.5V117.819L92.4547 120.781V126.721L94.7667 129.683V148.983H81.2958V129.683L83.6079 126.721V120.781L81.282 117.819V104.5C81.282 103.005 82.4865 101.8 83.9817 101.8Z" fill="url(#paint12_linear)"/>
<path fill-rule="evenodd" clip-rule="evenodd" d="M81.282 132.854V132.314H83.9817L84.2448 132.563L86.1969 143.099H89.7273L91.6794 132.535L91.9424 132.314H94.656V132.854H92.1778L90.2257 143.39L89.9626 143.639H85.9753L85.7123 143.417L83.7602 132.854H81.282Z" fill="#525252"/>
<path opacity="0.5" fill-rule="evenodd" clip-rule="evenodd" d="M94.7527 129.683L92.4406 126.721H83.58L81.2679 129.683H94.7527ZM94.7527 117.818L92.4406 120.781H83.58L81.2818 117.818H94.7527Z" fill="url(#paint13_linear)"/>
<path opacity="0.5" fill-rule="evenodd" clip-rule="evenodd" d="M83.9817 101.8V117.819L85.9753 120.934V125.89L83.9817 129.683V148.983H81.282V129.683L83.5941 126.721V120.781L81.282 117.819V104.5C81.282 103.005 82.4865 101.8 83.9817 101.8Z" fill="url(#paint14_linear)"/>
<path opacity="0.5" fill-rule="evenodd" clip-rule="evenodd" d="M92.067 101.8V117.819L90.0734 120.934V125.89L92.067 129.683V148.983H94.7667V129.683L92.4547 126.721V120.781L94.7667 117.819V104.5C94.7529 103.005 93.5484 101.8 92.067 101.8Z" fill="url(#paint15_linear)"/>
<path opacity="0.5" fill-rule="evenodd" clip-rule="evenodd" d="M83.9816 101.8H92.067C93.5483 101.8 94.7667 103.019 94.7667 104.5H81.2958C81.2819 103.005 82.4864 101.8 83.9816 101.8Z" fill="url(#paint16_linear)"/>
<path opacity="0.5" fill-rule="evenodd" clip-rule="evenodd" d="M80.382 148.983H74.4841C73.9857 148.983 73.5842 149.384 73.5842 149.883V173.627C73.5842 174.125 73.9857 174.526 74.4841 174.526H80.3958C80.8942 174.526 81.2957 174.125 81.2957 173.627V149.883C81.2819 149.398 80.8804 148.983 80.382 148.983Z" fill="url(#paint17_linear)"/>
<path fill-rule="evenodd" clip-rule="evenodd" d="M73.5842 150.824H79.4267C79.9251 150.824 80.3266 151.226 80.3266 151.724V153.842C80.3266 154.341 79.9251 154.742 79.4267 154.742H73.5842V150.824Z" fill="url(#paint18_linear)"/>
<path fill-rule="evenodd" clip-rule="evenodd" d="M75.6056 151.627H78.7483C79.0391 151.627 79.2744 151.863 79.2744 152.153V153.386C79.2744 153.676 79.0391 153.912 78.7483 153.912H75.6056C75.1072 153.912 74.7057 153.51 74.7057 153.012V152.513C74.7057 152.043 75.1072 151.627 75.6056 151.627Z" fill="url(#paint19_linear)"/>
<path fill-rule="evenodd" clip-rule="evenodd" d="M73.5842 155.31H79.4267C79.9251 155.31 80.3266 155.712 80.3266 156.21V158.328C80.3266 158.827 79.9251 159.228 79.4267 159.228H73.5842V155.31Z" fill="url(#paint20_linear)"/>
<path fill-rule="evenodd" clip-rule="evenodd" d="M75.6056 156.127H78.7483C79.0391 156.127 79.2744 156.362 79.2744 156.653V157.885C79.2744 158.176 79.0391 158.411 78.7483 158.411H75.6056C75.1072 158.411 74.7057 158.01 74.7057 157.511V157.013C74.7057 156.528 75.1072 156.127 75.6056 156.127Z" fill="url(#paint21_linear)"/>
<path fill-rule="evenodd" clip-rule="evenodd" d="M73.5842 159.81H79.4267C79.9251 159.81 80.3266 160.211 80.3266 160.709V162.814C80.3266 163.312 79.9251 163.714 79.4267 163.714H73.5842V159.81Z" fill="url(#paint22_linear)"/>
<path fill-rule="evenodd" clip-rule="evenodd" d="M75.6056 160.613H78.7483C79.0391 160.613 79.2744 160.848 79.2744 161.139V162.371C79.2744 162.662 79.0391 162.897 78.7483 162.897H75.6056C75.1072 162.897 74.7057 162.495 74.7057 161.997V161.499C74.7057 161.014 75.1072 160.613 75.6056 160.613Z" fill="url(#paint23_linear)"/>
<path fill-rule="evenodd" clip-rule="evenodd" d="M73.5842 164.295H79.4267C79.9251 164.295 80.3266 164.697 80.3266 165.195V167.313C80.3266 167.812 79.9251 168.213 79.4267 168.213H73.5842V164.295Z" fill="url(#paint24_linear)"/>
<path fill-rule="evenodd" clip-rule="evenodd" d="M75.6056 165.098H78.7483C79.0391 165.098 79.2744 165.334 79.2744 165.624V166.857C79.2744 167.147 79.0391 167.383 78.7483 167.383H75.6056C75.1072 167.383 74.7057 166.981 74.7057 166.483V165.998C74.7057 165.5 75.1072 165.098 75.6056 165.098Z" fill="url(#paint25_linear)"/>
<path fill-rule="evenodd" clip-rule="evenodd" d="M73.5842 168.781H79.4267C79.9251 168.781 80.3266 169.183 80.3266 169.681V171.799C80.3266 172.298 79.9251 172.699 79.4267 172.699H73.5842V168.781Z" fill="url(#paint26_linear)"/>
<path fill-rule="evenodd" clip-rule="evenodd" d="M75.6056 169.598H78.7483C79.0391 169.598 79.2744 169.833 79.2744 170.124V171.356C79.2744 171.647 79.0391 171.882 78.7483 171.882H75.6056C75.1072 171.882 74.7057 171.481 74.7057 170.982V170.484C74.7057 169.999 75.1072 169.598 75.6056 169.598Z" fill="url(#paint27_linear)"/>
<path fill-rule="evenodd" clip-rule="evenodd" d="M88.0244 121.792C88.8412 121.792 89.5057 122.664 89.5057 123.744C89.5057 124.824 88.8412 125.696 88.0244 125.696C87.2075 125.696 86.543 124.824 86.543 123.744C86.543 122.664 87.2075 121.792 88.0244 121.792Z" fill="url(#paint28_radial)"/>
<path fill-rule="evenodd" clip-rule="evenodd" d="M88.0243 122.249C88.6473 122.249 89.1596 122.913 89.1596 123.744C89.1596 124.575 88.6473 125.239 88.0243 125.239C87.4013 125.239 86.889 124.575 86.889 123.744C86.889 122.927 87.4013 122.249 88.0243 122.249Z" fill="#070707"/>
<path fill-rule="evenodd" clip-rule="evenodd" d="M91.707 121.792C92.1223 121.792 92.4546 122.664 92.4546 123.744C92.4546 124.824 92.1223 125.696 91.707 125.696C91.2916 125.696 90.9594 124.824 90.9594 123.744C90.9732 122.664 91.3055 121.792 91.707 121.792Z" fill="url(#paint29_linear)"/>
<path fill-rule="evenodd" clip-rule="evenodd" d="M91.5685 122.18C91.9007 122.18 92.1638 122.886 92.1638 123.758C92.1638 124.63 91.9007 125.336 91.5685 125.336C91.2362 125.336 90.9731 124.63 90.9731 123.758C90.9731 122.886 91.2362 122.18 91.5685 122.18Z" fill="#070707"/>
<path fill-rule="evenodd" clip-rule="evenodd" d="M84.3277 121.792C83.9124 121.792 83.5801 122.664 83.5801 123.744C83.5801 124.824 83.9124 125.696 84.3277 125.696C84.743 125.696 85.0615 124.824 85.0615 123.744C85.0753 122.664 84.743 121.792 84.3277 121.792Z" fill="url(#paint30_linear)"/>
<path fill-rule="evenodd" clip-rule="evenodd" d="M84.48 122.18C84.1477 122.18 83.8846 122.886 83.8846 123.758C83.8846 124.63 84.1477 125.336 84.48 125.336C84.8122 125.336 85.0753 124.63 85.0753 123.758C85.0753 122.886 84.7984 122.18 84.48 122.18Z" fill="#070707"/>
<path opacity="0.5" fill-rule="evenodd" clip-rule="evenodd" d="M112.28 169.722H107.241C106.742 169.722 106.341 170.124 106.341 170.622V174.776C106.341 175.274 106.742 175.676 107.241 175.676H112.28V169.722Z" fill="url(#paint31_linear)"/>
<path opacity="0.5" fill-rule="evenodd" clip-rule="evenodd" d="M112.28 170.622H108.016C107.67 170.622 107.393 170.899 107.393 171.245V174.139C107.393 174.485 107.67 174.762 108.016 174.762H112.28V170.622Z" fill="url(#paint32_linear)"/>
<path opacity="0.5" fill-rule="evenodd" clip-rule="evenodd" d="M112.28 178.708H107.241C106.742 178.708 106.341 179.109 106.341 179.607V183.761C106.341 184.259 106.742 184.661 107.241 184.661H112.28V178.708Z" fill="url(#paint33_linear)"/>
<path opacity="0.5" fill-rule="evenodd" clip-rule="evenodd" d="M112.28 179.607H108.016C107.67 179.607 107.393 179.884 107.393 180.23V183.124C107.393 183.47 107.67 183.747 108.016 183.747H112.28V179.607Z" fill="url(#paint34_linear)"/>
<path opacity="0.5" fill-rule="evenodd" clip-rule="evenodd" d="M112.28 187.693H107.241C106.742 187.693 106.341 188.094 106.341 188.593V192.746C106.341 193.245 106.742 193.646 107.241 193.646H112.28V187.693Z" fill="url(#paint35_linear)"/>
<path opacity="0.5" fill-rule="evenodd" clip-rule="evenodd" d="M112.28 188.579H108.016C107.67 188.579 107.393 188.856 107.393 189.202V192.095C107.393 192.442 107.67 192.718 108.016 192.718H112.28V188.579Z" fill="url(#paint36_linear)"/>
<path fill-rule="evenodd" clip-rule="evenodd" d="M97.3003 163.797H99.9862C100.983 163.797 100.983 161.125 99.9862 161.125H97.3003C96.3035 161.125 96.3035 163.797 97.3003 163.797Z" fill="#3B0201"/>
<path fill-rule="evenodd" clip-rule="evenodd" d="M97.0927 163.395H99.7785C100.471 163.395 100.471 161.526 99.7785 161.526H97.0927C96.4004 161.526 96.4004 163.395 97.0927 163.395Z" fill="url(#paint37_linear)"/>
<path fill-rule="evenodd" clip-rule="evenodd" d="M97.245 163.229H99.6262C100.235 163.229 100.235 161.706 99.6262 161.706H97.245C96.6358 161.706 96.6358 163.229 97.245 163.229Z" fill="url(#paint38_radial)"/>
<path opacity="0.5" fill-rule="evenodd" clip-rule="evenodd" d="M97.0927 163.395C97.9926 163.395 98.8925 163.395 99.7785 163.395C97.9372 162.758 99.7785 162.841 99.7785 161.526C98.8786 161.526 97.9787 161.526 97.0927 161.526C99.6678 161.706 97.0927 162.385 97.0927 163.395Z" fill="url(#paint39_linear)"/>
<path fill-rule="evenodd" clip-rule="evenodd" d="M97.3003 168.296H99.9862C100.983 168.296 100.983 165.624 99.9862 165.624H97.3003C96.3035 165.61 96.3035 168.296 97.3003 168.296Z" fill="#3B0201"/>
<path fill-rule="evenodd" clip-rule="evenodd" d="M97.0927 167.895H99.7785C100.471 167.895 100.471 166.026 99.7785 166.026H97.0927C96.4004 166.026 96.4004 167.895 97.0927 167.895Z" fill="url(#paint40_linear)"/>
<path fill-rule="evenodd" clip-rule="evenodd" d="M97.245 167.715H99.6262C100.235 167.715 100.235 166.192 99.6262 166.192H97.245C96.6358 166.192 96.6358 167.715 97.245 167.715Z" fill="url(#paint41_radial)"/>
<path opacity="0.5" fill-rule="evenodd" clip-rule="evenodd" d="M97.0927 167.895C97.9926 167.895 98.8925 167.895 99.7785 167.895C97.9372 167.258 99.7785 167.341 99.7785 166.026C98.8786 166.026 97.9787 166.026 97.0927 166.026C99.6678 166.192 97.0927 166.884 97.0927 167.895Z" fill="url(#paint42_linear)"/>
<path fill-rule="evenodd" clip-rule="evenodd" d="M97.3003 172.782H99.9862C100.983 172.782 100.983 170.11 99.9862 170.11H97.3003C96.3035 170.11 96.3035 172.782 97.3003 172.782Z" fill="#3B0201"/>
<path fill-rule="evenodd" clip-rule="evenodd" d="M97.0927 172.381H99.7785C100.471 172.381 100.471 170.511 99.7785 170.511H97.0927C96.4004 170.511 96.4004 172.381 97.0927 172.381Z" fill="url(#paint43_linear)"/>
<path fill-rule="evenodd" clip-rule="evenodd" d="M97.245 172.201H99.6262C100.235 172.201 100.235 170.678 99.6262 170.678H97.245C96.6358 170.678 96.6358 172.201 97.245 172.201Z" fill="url(#paint44_radial)"/>
<path opacity="0.5" fill-rule="evenodd" clip-rule="evenodd" d="M97.0927 172.381C97.9926 172.381 98.8925 172.381 99.7785 172.381C97.9372 171.744 99.7785 171.827 99.7785 170.511C98.8786 170.511 97.9787 170.511 97.0927 170.511C99.6678 170.678 97.0927 171.37 97.0927 172.381Z" fill="url(#paint45_linear)"/>
<path d="M88.9518 160.46H86.972V167.216H88.9518V160.46Z" fill="url(#paint46_linear)"/>
<path d="M88.5088 160.46H87.4012V167.216H88.5088V160.46Z" fill="url(#paint47_linear)"/>
<path fill-rule="evenodd" clip-rule="evenodd" d="M87.9689 153.095C90.184 153.095 91.9838 154.895 91.9838 157.11C91.9838 159.325 90.184 161.125 87.9689 161.125C85.7537 161.125 83.9677 159.325 83.9677 157.11C83.9539 154.895 85.7537 153.095 87.9689 153.095Z" fill="url(#paint48_linear)"/>
<path fill-rule="evenodd" clip-rule="evenodd" d="M87.9688 154.036C89.6579 154.036 91.0285 155.407 91.0285 157.096C91.0285 158.785 89.6579 160.156 87.9688 160.156C86.2798 160.156 84.9092 158.785 84.9092 157.096C84.8953 155.407 86.2659 154.036 87.9688 154.036Z" fill="url(#paint49_linear)"/>
<path fill-rule="evenodd" clip-rule="evenodd" d="M87.9688 155.102C89.0763 155.102 89.9624 156.002 89.9624 157.096C89.9624 158.204 89.0625 159.09 87.9688 159.09C86.8612 159.09 85.9751 158.19 85.9751 157.096C85.9613 156.002 86.8612 155.102 87.9688 155.102Z" fill="url(#paint50_radial)"/>
<path fill-rule="evenodd" clip-rule="evenodd" d="M87.9689 166.566C90.184 166.566 91.9838 168.366 91.9838 170.581C91.9838 172.796 90.184 174.582 87.9689 174.582C85.7537 174.582 83.9677 172.782 83.9677 170.581C83.9539 168.366 85.7537 166.566 87.9689 166.566Z" fill="url(#paint51_linear)"/>
<path fill-rule="evenodd" clip-rule="evenodd" d="M87.9688 167.507C89.6579 167.507 91.0285 168.878 91.0285 170.567C91.0285 172.256 89.6579 173.627 87.9688 173.627C86.2798 173.627 84.9092 172.256 84.9092 170.567C84.8953 168.878 86.2659 167.507 87.9688 167.507Z" fill="url(#paint52_linear)"/>
<path fill-rule="evenodd" clip-rule="evenodd" d="M87.9688 168.573C89.0763 168.573 89.9624 169.473 89.9624 170.567C89.9624 171.674 89.0625 172.561 87.9688 172.561C86.8612 172.561 85.9751 171.661 85.9751 170.567C85.9613 169.473 86.8612 168.573 87.9688 168.573Z" fill="url(#paint53_radial)"/>
<path fill-rule="evenodd" clip-rule="evenodd" d="M85.8921 178.625H87.7335V174.582C87.7335 174.457 87.8304 174.36 87.955 174.36C88.0796 174.36 88.1765 174.457 88.1765 174.582V178.625H90.0178C91.4992 178.625 92.7176 179.843 92.7176 181.324V189.52H94.5312V152.763C94.5312 152.638 94.6281 152.541 94.7527 152.541C94.8773 152.541 94.9742 152.638 94.9742 152.763V189.506H102.603C102.727 189.506 102.824 189.603 102.824 189.728V209.595H102.381V189.963H94.9742V209.609H94.5174V189.963H92.7037V198.159C92.7037 199.641 91.4992 200.859 90.004 200.859H88.1626V205.802C88.1626 205.926 88.0657 206.023 87.9411 206.023H81.2541V205.58H87.7335V200.873H85.8921C84.4107 200.873 83.1924 199.668 83.1924 198.173V181.31C83.1924 179.829 84.4107 178.625 85.8921 178.625ZM92.2745 181.31C92.2745 180.078 91.2639 179.068 90.0317 179.068C88.4534 179.068 87.4704 179.068 85.8921 179.068C84.6599 179.068 83.6493 180.078 83.6493 181.31V198.146C83.6493 199.378 84.6599 200.388 85.8921 200.388C87.4704 200.388 88.4534 200.388 90.0317 200.388C91.2639 200.388 92.2745 199.378 92.2745 198.146C92.2745 192.345 92.2745 187.125 92.2745 181.31ZM81.0603 148.983V174.526C81.0603 174.651 81.1572 174.748 81.2818 174.748C81.4064 174.748 81.5033 174.651 81.5033 174.526V148.983C81.5033 148.858 81.4064 148.761 81.2818 148.761C81.1572 148.761 81.0603 148.858 81.0603 148.983Z" fill="#3B0201"/>
<path fill-rule="evenodd" clip-rule="evenodd" d="M97.2863 175.759H98.5738C99.6953 175.759 99.6953 177.462 98.5738 177.462H98.1447V201.039H98.5738C99.6953 201.039 99.6953 202.742 98.5738 202.742H97.3694C96.8017 202.811 96.3448 202.451 96.3448 201.856V176.659C96.3587 176.049 96.7325 175.759 97.2863 175.759Z" fill="url(#paint54_linear)"/>
<path fill-rule="evenodd" clip-rule="evenodd" d="M97.6323 176.271C97.9508 176.271 98.0061 176.493 98.5876 176.894C99.0445 177.212 99.4321 176.202 99.4321 176.631C99.4321 177.06 99.1552 177.489 98.5876 177.489C98.4492 177.489 98.2969 177.489 98.1584 177.489C98.1584 185.353 98.1584 193.217 98.1584 201.067C98.2969 201.067 98.4492 201.067 98.5876 201.067C99.1552 201.067 99.4321 201.496 99.4321 201.925C99.4321 202.354 99.0445 201.33 98.5876 201.662C98.0338 202.064 97.9923 202.285 97.7015 202.285L97.6323 176.271Z" fill="#525252"/>
<path opacity="0.5" fill-rule="evenodd" clip-rule="evenodd" d="M103.295 156.348L109.525 158.965C111.228 159.685 112.28 161.263 112.28 163.105V206.909C112.28 208.391 111.062 209.609 109.58 209.609H83.9677C82.4863 209.609 81.2679 208.405 81.2679 206.909V200.624H100.609C102.09 200.624 103.309 199.405 103.309 197.924V156.348H103.295Z" fill="url(#paint55_linear)"/>
<path opacity="0.5" fill-rule="evenodd" clip-rule="evenodd" d="M90.2671 101.8H92.0669C93.5483 101.8 94.7666 103.019 94.7666 104.5V117.819L92.4546 120.781V126.721L94.7666 129.683V148.983H90.2809V129.683L87.9689 126.721V120.781L90.2809 117.819V101.8H90.2671Z" fill="url(#paint56_linear)"/>
<path fill-rule="evenodd" clip-rule="evenodd" d="M116.074 113.97H119.826V127.441H120.573C121.805 127.441 122.816 128.451 122.816 129.683V146.74C122.816 147.972 121.805 148.983 120.573 148.983H113.748C112.516 148.983 111.505 147.972 111.505 146.74V129.683C111.505 128.451 112.516 127.441 113.748 127.441H116.088V113.97H116.074Z" fill="url(#paint57_linear)"/>
<path fill-rule="evenodd" clip-rule="evenodd" d="M116.074 112.405H119.826C120.684 112.405 121.39 113.111 121.39 113.97V125.959C122.11 126.125 122.747 126.485 123.259 126.984C123.951 127.676 124.381 128.617 124.381 129.67V146.726C124.381 147.765 123.951 148.72 123.259 149.412C122.567 150.104 121.625 150.52 120.573 150.52H113.748C112.709 150.52 111.754 150.091 111.062 149.398C110.37 148.706 109.954 147.765 109.954 146.712V129.683C109.954 128.645 110.384 127.69 111.076 126.998C111.768 126.305 112.709 125.89 113.762 125.89H114.537V113.984C114.523 113.111 115.215 112.405 116.074 112.405ZM116.074 113.97H119.826V127.441H120.573C121.805 127.441 122.816 128.451 122.816 129.683V146.74C122.816 147.972 121.805 148.983 120.573 148.983H113.748C112.516 148.983 111.505 147.972 111.505 146.74V129.683C111.505 128.451 112.516 127.441 113.748 127.441H116.088V113.97H116.074Z" fill="black"/>
<path opacity="0.5" fill-rule="evenodd" clip-rule="evenodd" d="M120.573 127.441C121.805 127.441 122.816 128.451 122.816 129.684V146.74C122.816 147.972 121.805 148.983 120.573 148.983H113.748C112.516 148.983 111.505 147.972 111.505 146.74V144.497H116.088C117.32 144.497 118.33 143.487 118.33 142.255V127.441H120.573Z" fill="url(#paint58_linear)"/>
<path fill-rule="evenodd" clip-rule="evenodd" d="M116.074 113.97H119.826V136.772C119.826 137.27 119.424 137.672 118.926 137.672H116.974C116.475 137.672 116.074 137.27 116.074 136.772V113.97Z" fill="url(#paint59_linear)"/>
<path fill-rule="evenodd" clip-rule="evenodd" d="M111.491 132.702H118.815C119.438 132.702 119.936 133.214 119.936 133.823V136.467C119.936 137.09 119.424 137.589 118.815 137.589H111.491V132.702Z" fill="url(#paint60_linear)"/>
<path fill-rule="evenodd" clip-rule="evenodd" d="M114.025 133.726H117.97C118.33 133.726 118.635 134.031 118.635 134.391V135.941C118.635 136.301 118.33 136.606 117.97 136.606H114.025C113.402 136.606 112.903 136.094 112.903 135.484V134.847C112.903 134.224 113.416 133.726 114.025 133.726Z" fill="url(#paint61_linear)"/>
<path fill-rule="evenodd" clip-rule="evenodd" d="M167.368 155.864C167.368 158.813 171.854 158.813 171.854 155.864C171.854 144.94 173.294 135.72 162.855 134.474C162.038 132.618 160.197 131.331 158.051 131.331C155.157 131.331 152.804 133.685 152.804 136.578C152.804 139.472 155.157 141.825 158.051 141.825C160.031 141.825 161.748 140.731 162.634 139.126C168.725 140.787 167.368 149.384 167.368 155.864Z" fill="url(#paint62_linear)"/>
<path fill-rule="evenodd" clip-rule="evenodd" d="M168.116 159.339C166.815 158.813 165.804 157.65 165.804 155.85C165.804 155.019 165.832 153.884 165.873 152.735C166.025 147.931 166.178 142.725 163.187 140.995C162.703 141.562 162.135 142.033 161.484 142.407C160.474 143.002 159.283 143.348 158.037 143.348C156.154 143.348 154.451 142.587 153.219 141.355C151.987 140.122 151.225 138.419 151.225 136.537C151.225 134.654 151.987 132.951 153.219 131.719C154.451 130.486 156.154 129.725 158.037 129.725C159.408 129.725 160.681 130.126 161.761 130.833C162.606 131.386 163.326 132.134 163.852 132.992C173.709 134.584 173.585 142.448 173.446 152.278C173.432 153.247 173.419 154.216 173.419 155.822C173.419 157.581 172.449 158.73 171.203 159.27L171.106 159.311C170.622 159.505 170.11 159.602 169.611 159.602C169.113 159.643 168.601 159.546 168.116 159.339ZM167.368 155.864C167.368 158.813 171.854 158.813 171.854 155.864C171.854 144.94 173.294 135.72 162.855 134.474C162.038 132.619 160.197 131.331 158.051 131.331C155.157 131.331 152.804 133.685 152.804 136.578C152.804 139.472 155.157 141.825 158.051 141.825C160.031 141.825 161.747 140.732 162.634 139.126C168.725 140.787 167.368 149.384 167.368 155.864Z" fill="black"/>
<path fill-rule="evenodd" clip-rule="evenodd" d="M168.518 149.357C168.518 147.889 170.65 147.792 170.76 149.288C170.76 150.035 170.788 150.811 170.802 151.558C170.802 153.053 168.559 153.04 168.559 151.572C168.545 150.838 168.531 150.091 168.518 149.357Z" fill="url(#paint63_radial)"/>
<path fill-rule="evenodd" clip-rule="evenodd" d="M168.49 144.677C168.518 143.168 170.65 143.154 170.733 144.622C170.747 145.397 170.747 146.145 170.733 146.92C170.719 148.18 168.836 148.485 168.504 147.1C168.49 147.017 168.49 146.948 168.49 146.865C168.504 146.131 168.504 145.411 168.49 144.677Z" fill="url(#paint64_radial)"/>
<path fill-rule="evenodd" clip-rule="evenodd" d="M167.507 140.69C166.981 139.319 169.071 138.503 169.611 139.901C169.902 140.69 170.096 141.41 170.262 142.241C170.567 143.556 168.504 144.234 168.061 142.711C167.908 141.991 167.756 141.368 167.507 140.69Z" fill="url(#paint65_radial)"/>
<path fill-rule="evenodd" clip-rule="evenodd" d="M164.946 138.239C163.589 137.713 164.364 135.609 165.776 136.149C166.662 136.509 167.41 137.021 168.033 137.755C168.891 138.71 167.576 140.233 166.455 139.333C165.915 138.793 165.679 138.53 164.946 138.239Z" fill="url(#paint66_radial)"/>
<path fill-rule="evenodd" clip-rule="evenodd" d="M160.834 137.783C159.38 137.824 159.283 135.581 160.792 135.54C161.554 135.512 162.37 135.512 163.132 135.567C163.533 135.581 163.893 135.844 164.073 136.204C164.433 136.993 163.852 137.838 162.98 137.81C162.287 137.755 161.54 137.769 160.834 137.783Z" fill="url(#paint67_radial)"/>
<path fill-rule="evenodd" clip-rule="evenodd" d="M170.733 156.155C170.733 156.376 170.636 156.639 170.511 156.805C169.819 157.664 168.49 157.193 168.49 156.099C168.504 155.352 168.531 154.604 168.531 153.87C168.531 152.416 170.774 152.389 170.774 153.898C170.774 154.645 170.747 155.393 170.733 156.155Z" fill="url(#paint68_radial)"/>
<path fill-rule="evenodd" clip-rule="evenodd" d="M158.051 132.092C155.587 132.092 153.579 134.1 153.579 136.564C153.579 139.029 155.587 141.036 158.051 141.036C160.515 141.036 162.523 139.029 162.523 136.564C162.523 134.1 160.515 132.092 158.051 132.092Z" fill="url(#paint69_linear)"/>
<path fill-rule="evenodd" clip-rule="evenodd" d="M158.051 133.145C156.168 133.145 154.631 134.681 154.631 136.564C154.631 138.447 156.168 139.984 158.051 139.984C159.934 139.984 161.471 138.447 161.471 136.564C161.471 134.681 159.934 133.145 158.051 133.145Z" fill="url(#paint70_linear)"/>
<path fill-rule="evenodd" clip-rule="evenodd" d="M186.654 101.8H178.569C177.087 101.8 175.869 103.019 175.869 104.5V117.819L178.181 120.781V126.721L175.869 129.683V152.763L161.11 158.951C159.408 159.671 158.355 161.249 158.355 163.091V206.895C158.355 208.377 159.574 209.595 161.055 209.595H186.668C188.149 209.595 189.368 208.391 189.368 206.895V174.526H196.179C196.678 174.526 197.079 174.125 197.079 173.627V149.883C197.079 149.384 196.678 148.983 196.179 148.983H189.354V129.683L187.042 126.721V120.781L189.354 117.819V104.5C189.354 103.005 188.135 101.8 186.654 101.8Z" fill="url(#paint71_linear)"/>
<path fill-rule="evenodd" clip-rule="evenodd" d="M186.654 101.8H178.569C177.087 101.8 175.869 103.019 175.869 104.5V117.819L178.181 120.781V126.721L175.869 129.683V152.763L161.111 158.951C159.408 159.671 158.355 161.249 158.355 163.091V206.895C158.355 208.377 159.574 209.595 161.055 209.595H186.668C188.149 209.595 189.368 208.391 189.368 206.895V174.526H196.179C196.678 174.526 197.079 174.125 197.079 173.627V149.883C197.079 149.384 196.678 148.983 196.179 148.983H189.354V129.683L187.042 126.721V120.781L189.354 117.819V104.5C189.354 103.005 188.135 101.8 186.654 101.8ZM178.569 100.236H186.654C187.775 100.236 188.8 100.679 189.561 101.385C189.603 101.413 189.631 101.454 189.672 101.482C190.447 102.257 190.918 103.323 190.918 104.486V117.68C190.946 118.054 190.849 118.442 190.6 118.76L188.62 121.307V126.167L190.558 128.673C190.78 128.95 190.918 129.296 190.918 129.67V147.419H196.165C196.844 147.419 197.467 147.695 197.91 148.138C198.353 148.581 198.63 149.204 198.63 149.869V173.613C198.63 174.222 198.408 174.776 198.034 175.205C197.993 175.26 197.951 175.302 197.91 175.343C197.467 175.786 196.844 176.063 196.165 176.063H190.918V206.882C190.918 208.058 190.434 209.124 189.672 209.886C188.897 210.661 187.831 211.146 186.668 211.146H161.055C159.892 211.146 158.826 210.675 158.051 209.9C157.276 209.124 156.805 208.058 156.805 206.895V163.105C156.805 161.872 157.165 160.723 157.802 159.754C158.425 158.813 159.325 158.051 160.418 157.567L160.501 157.525L174.305 151.738V129.683C174.305 129.351 174.415 129.005 174.637 128.728L176.617 126.181V121.321L174.678 118.815C174.457 118.538 174.318 118.192 174.318 117.819V104.5C174.318 103.378 174.761 102.354 175.467 101.592C175.495 101.551 175.523 101.523 175.564 101.482C176.326 100.72 177.392 100.236 178.569 100.236Z" fill="black"/>
<path fill-rule="evenodd" clip-rule="evenodd" d="M175.869 152.763L161.11 158.951C159.408 159.671 158.355 161.249 158.355 163.091V206.895C158.355 208.377 159.574 209.595 161.055 209.595H175.883V152.763H175.869Z" fill="url(#paint72_linear)"/>
<path opacity="0.5" fill-rule="evenodd" clip-rule="evenodd" d="M171.466 154.618C168.019 156.071 164.558 157.511 161.11 158.965C159.408 159.685 158.355 161.263 158.355 163.105C158.355 177.711 158.355 192.303 158.355 206.909C158.355 208.391 159.574 209.609 161.055 209.609C164.53 209.609 167.991 209.609 171.466 209.609C164.71 208.225 166.136 205.636 166.136 183.166C166.122 160.682 165.112 158.73 171.466 154.618Z" fill="url(#paint73_linear)"/>
<path fill-rule="evenodd" clip-rule="evenodd" d="M186.654 101.8H178.569C177.087 101.8 175.869 103.019 175.869 104.5V117.819L178.181 120.781V126.721L175.869 129.683V148.983H189.354V129.683L187.042 126.721V120.781L189.354 117.819V104.5C189.354 103.005 188.135 101.8 186.654 101.8Z" fill="url(#paint74_linear)"/>
<path fill-rule="evenodd" clip-rule="evenodd" d="M189.354 132.854V132.314H186.654L186.391 132.563L184.439 143.099H180.895L178.943 132.535L178.679 132.314H175.98V132.854H178.458L180.41 143.39L180.673 143.639H184.66L184.923 143.417L186.876 132.854H189.354Z" fill="#525252"/>
<path opacity="0.5" fill-rule="evenodd" clip-rule="evenodd" d="M175.869 129.683L178.181 126.721H187.042L189.354 129.683H175.869ZM175.869 117.818L178.181 120.781H187.042L189.354 117.818H175.869Z" fill="url(#paint75_linear)"/>
<path opacity="0.5" fill-rule="evenodd" clip-rule="evenodd" d="M186.654 101.8V117.819L184.66 120.934V125.89L186.654 129.683V148.983H189.354V129.683L187.042 126.721V120.781L189.354 117.819V104.5C189.354 103.005 188.135 101.8 186.654 101.8Z" fill="url(#paint76_linear)"/>
<path opacity="0.5" fill-rule="evenodd" clip-rule="evenodd" d="M178.569 101.8V117.819L180.562 120.934V125.89L178.569 129.683V148.983H175.869V129.683L178.181 126.721V120.781L175.869 117.819V104.5C175.869 103.005 177.087 101.8 178.569 101.8Z" fill="url(#paint77_linear)"/>
<path opacity="0.5" fill-rule="evenodd" clip-rule="evenodd" d="M186.654 101.8H178.569C177.087 101.8 175.869 103.019 175.869 104.5H189.354C189.354 103.005 188.135 101.8 186.654 101.8Z" fill="url(#paint78_linear)"/>
<path opacity="0.5" fill-rule="evenodd" clip-rule="evenodd" d="M190.254 148.983H196.165C196.664 148.983 197.065 149.384 197.065 149.883V173.627C197.065 174.125 196.664 174.526 196.165 174.526H190.254C189.755 174.526 189.354 174.125 189.354 173.627V149.883C189.354 149.398 189.755 148.983 190.254 148.983Z" fill="url(#paint79_linear)"/>
<path fill-rule="evenodd" clip-rule="evenodd" d="M197.051 150.824H191.209C190.711 150.824 190.309 151.226 190.309 151.724V153.842C190.309 154.341 190.711 154.742 191.209 154.742H197.051V150.824Z" fill="url(#paint80_linear)"/>
<path fill-rule="evenodd" clip-rule="evenodd" d="M195.03 151.627H191.887C191.597 151.627 191.361 151.863 191.361 152.153V153.386C191.361 153.676 191.597 153.912 191.887 153.912H195.03C195.528 153.912 195.93 153.51 195.93 153.012V152.513C195.93 152.043 195.528 151.627 195.03 151.627Z" fill="url(#paint81_linear)"/>
<path fill-rule="evenodd" clip-rule="evenodd" d="M197.051 155.31H191.209C190.711 155.31 190.309 155.712 190.309 156.21V158.328C190.309 158.827 190.711 159.228 191.209 159.228H197.051V155.31Z" fill="url(#paint82_linear)"/>
<path fill-rule="evenodd" clip-rule="evenodd" d="M195.03 156.127H191.887C191.597 156.127 191.361 156.362 191.361 156.653V157.885C191.361 158.176 191.597 158.411 191.887 158.411H195.03C195.528 158.411 195.93 158.01 195.93 157.511V157.013C195.93 156.528 195.528 156.127 195.03 156.127Z" fill="url(#paint83_linear)"/>
<path fill-rule="evenodd" clip-rule="evenodd" d="M197.051 159.81H191.209C190.711 159.81 190.309 160.211 190.309 160.709V162.814C190.309 163.312 190.711 163.714 191.209 163.714H197.051V159.81Z" fill="url(#paint84_linear)"/>
<path fill-rule="evenodd" clip-rule="evenodd" d="M195.03 160.613H191.887C191.597 160.613 191.361 160.848 191.361 161.139V162.371C191.361 162.662 191.597 162.897 191.887 162.897H195.03C195.528 162.897 195.93 162.495 195.93 161.997V161.499C195.93 161.014 195.528 160.613 195.03 160.613Z" fill="url(#paint85_linear)"/>
<path fill-rule="evenodd" clip-rule="evenodd" d="M197.051 164.295H191.209C190.711 164.295 190.309 164.697 190.309 165.195V167.313C190.309 167.812 190.711 168.213 191.209 168.213H197.051V164.295Z" fill="url(#paint86_linear)"/>
<path fill-rule="evenodd" clip-rule="evenodd" d="M195.03 165.098H191.887C191.597 165.098 191.361 165.334 191.361 165.624V166.857C191.361 167.147 191.597 167.383 191.887 167.383H195.03C195.528 167.383 195.93 166.981 195.93 166.483V165.998C195.93 165.5 195.528 165.098 195.03 165.098Z" fill="url(#paint87_linear)"/>
<path fill-rule="evenodd" clip-rule="evenodd" d="M197.051 168.781H191.209C190.711 168.781 190.309 169.183 190.309 169.681V171.799C190.309 172.298 190.711 172.699 191.209 172.699H197.051V168.781Z" fill="url(#paint88_linear)"/>
<path fill-rule="evenodd" clip-rule="evenodd" d="M195.03 169.598H191.887C191.597 169.598 191.361 169.833 191.361 170.124V171.356C191.361 171.647 191.597 171.882 191.887 171.882H195.03C195.528 171.882 195.93 171.481 195.93 170.982V170.484C195.93 169.999 195.528 169.598 195.03 169.598Z" fill="url(#paint89_linear)"/>
<path fill-rule="evenodd" clip-rule="evenodd" d="M182.611 121.792C181.795 121.792 181.13 122.664 181.13 123.744C181.13 124.824 181.795 125.696 182.611 125.696C183.428 125.696 184.093 124.824 184.093 123.744C184.093 122.664 183.428 121.792 182.611 121.792Z" fill="url(#paint90_radial)"/>
<path fill-rule="evenodd" clip-rule="evenodd" d="M182.611 122.249C181.988 122.249 181.476 122.913 181.476 123.744C181.476 124.575 181.988 125.239 182.611 125.239C183.234 125.239 183.747 124.575 183.747 123.744C183.747 122.927 183.234 122.249 182.611 122.249Z" fill="#070707"/>
<path fill-rule="evenodd" clip-rule="evenodd" d="M178.915 121.792C178.5 121.792 178.167 122.664 178.167 123.744C178.167 124.824 178.5 125.696 178.915 125.696C179.33 125.696 179.662 124.824 179.662 123.744C179.662 122.664 179.33 121.792 178.915 121.792Z" fill="url(#paint91_linear)"/>
<path fill-rule="evenodd" clip-rule="evenodd" d="M179.067 122.18C178.735 122.18 178.472 122.886 178.472 123.758C178.472 124.63 178.735 125.336 179.067 125.336C179.399 125.336 179.662 124.63 179.662 123.758C179.662 122.886 179.399 122.18 179.067 122.18Z" fill="#070707"/>
<path fill-rule="evenodd" clip-rule="evenodd" d="M186.308 121.792C186.723 121.792 187.056 122.664 187.056 123.744C187.056 124.824 186.723 125.696 186.308 125.696C185.893 125.696 185.574 124.824 185.574 123.744C185.56 122.664 185.893 121.792 186.308 121.792Z" fill="url(#paint92_linear)"/>
<path fill-rule="evenodd" clip-rule="evenodd" d="M186.156 122.18C186.488 122.18 186.751 122.886 186.751 123.758C186.751 124.63 186.488 125.336 186.156 125.336C185.823 125.336 185.56 124.63 185.56 123.758C185.56 122.886 185.823 122.18 186.156 122.18Z" fill="#070707"/>
<path opacity="0.5" fill-rule="evenodd" clip-rule="evenodd" d="M158.355 169.722H163.395C163.893 169.722 164.295 170.124 164.295 170.622V174.776C164.295 175.274 163.893 175.676 163.395 175.676H158.355V169.722Z" fill="url(#paint93_linear)"/>
<path opacity="0.5" fill-rule="evenodd" clip-rule="evenodd" d="M158.355 170.622H162.62C162.966 170.622 163.243 170.899 163.243 171.245V174.139C163.243 174.485 162.966 174.762 162.62 174.762H158.355V170.622Z" fill="url(#paint94_linear)"/>
<path opacity="0.5" fill-rule="evenodd" clip-rule="evenodd" d="M158.355 178.708H163.395C163.893 178.708 164.295 179.109 164.295 179.607V183.761C164.295 184.259 163.893 184.661 163.395 184.661H158.355V178.708Z" fill="url(#paint95_linear)"/>
<path opacity="0.5" fill-rule="evenodd" clip-rule="evenodd" d="M158.355 179.607H162.62C162.966 179.607 163.243 179.884 163.243 180.23V183.124C163.243 183.47 162.966 183.747 162.62 183.747H158.355V179.607Z" fill="url(#paint96_linear)"/>
<path opacity="0.5" fill-rule="evenodd" clip-rule="evenodd" d="M158.355 187.693H163.395C163.893 187.693 164.295 188.094 164.295 188.593V192.746C164.295 193.245 163.893 193.646 163.395 193.646H158.355V187.693Z" fill="url(#paint97_linear)"/>
<path opacity="0.5" fill-rule="evenodd" clip-rule="evenodd" d="M158.355 188.579H162.62C162.966 188.579 163.243 188.856 163.243 189.202V192.095C163.243 192.442 162.966 192.718 162.62 192.718H158.355V188.579Z" fill="url(#paint98_linear)"/>
<path fill-rule="evenodd" clip-rule="evenodd" d="M173.335 163.797H170.649C169.653 163.797 169.653 161.125 170.649 161.125H173.335C174.332 161.125 174.332 163.797 173.335 163.797Z" fill="#3B0201"/>
<path fill-rule="evenodd" clip-rule="evenodd" d="M173.543 163.395H170.857C170.165 163.395 170.165 161.526 170.857 161.526H173.543C174.235 161.526 174.235 163.395 173.543 163.395Z" fill="url(#paint99_linear)"/>
<path fill-rule="evenodd" clip-rule="evenodd" d="M173.391 163.229H171.009C170.4 163.229 170.4 161.706 171.009 161.706H173.391C174 161.706 174 163.229 173.391 163.229Z" fill="url(#paint100_radial)"/>
<path opacity="0.5" fill-rule="evenodd" clip-rule="evenodd" d="M173.543 163.395C172.643 163.395 171.743 163.395 170.857 163.395C172.699 162.758 170.857 162.841 170.857 161.526C171.757 161.526 172.657 161.526 173.543 161.526C170.954 161.706 173.543 162.385 173.543 163.395Z" fill="url(#paint101_linear)"/>
<path fill-rule="evenodd" clip-rule="evenodd" d="M173.335 168.296H170.649C169.653 168.296 169.653 165.624 170.649 165.624H173.335C174.332 165.61 174.332 168.296 173.335 168.296Z" fill="#3B0201"/>
<path fill-rule="evenodd" clip-rule="evenodd" d="M173.543 167.895H170.857C170.165 167.895 170.165 166.026 170.857 166.026H173.543C174.235 166.026 174.235 167.895 173.543 167.895Z" fill="url(#paint102_linear)"/>
<path fill-rule="evenodd" clip-rule="evenodd" d="M173.391 167.715H171.009C170.4 167.715 170.4 166.192 171.009 166.192H173.391C174 166.192 174 167.715 173.391 167.715Z" fill="url(#paint103_radial)"/>
<path opacity="0.5" fill-rule="evenodd" clip-rule="evenodd" d="M173.543 167.895C172.643 167.895 171.743 167.895 170.857 167.895C172.699 167.258 170.857 167.341 170.857 166.026C171.757 166.026 172.657 166.026 173.543 166.026C170.954 166.192 173.543 166.884 173.543 167.895Z" fill="url(#paint104_linear)"/>
<path fill-rule="evenodd" clip-rule="evenodd" d="M173.335 172.782H170.649C169.653 172.782 169.653 170.11 170.649 170.11H173.335C174.332 170.11 174.332 172.782 173.335 172.782Z" fill="#3B0201"/>
<path fill-rule="evenodd" clip-rule="evenodd" d="M173.543 172.381H170.857C170.165 172.381 170.165 170.511 170.857 170.511H173.543C174.235 170.511 174.235 172.381 173.543 172.381Z" fill="url(#paint105_linear)"/>
<path fill-rule="evenodd" clip-rule="evenodd" d="M173.391 172.201H171.009C170.4 172.201 170.4 170.678 171.009 170.678H173.391C174 170.678 174 172.201 173.391 172.201Z" fill="url(#paint106_radial)"/>
<path opacity="0.5" fill-rule="evenodd" clip-rule="evenodd" d="M173.543 172.381C172.643 172.381 171.743 172.381 170.857 172.381C172.699 171.744 170.857 171.827 170.857 170.511C171.757 170.511 172.657 170.511 173.543 170.511C170.954 170.678 173.543 171.37 173.543 172.381Z" fill="url(#paint107_linear)"/>
<path d="M183.664 160.46H181.684V167.216H183.664V160.46Z" fill="url(#paint108_linear)"/>
<path d="M183.221 160.46H182.113V167.216H183.221V160.46Z" fill="url(#paint109_linear)"/>
<path fill-rule="evenodd" clip-rule="evenodd" d="M182.667 153.095C180.452 153.095 178.652 154.895 178.652 157.11C178.652 159.325 180.452 161.125 182.667 161.125C184.882 161.125 186.668 159.325 186.668 157.11C186.682 154.895 184.882 153.095 182.667 153.095Z" fill="url(#paint110_linear)"/>
<path fill-rule="evenodd" clip-rule="evenodd" d="M182.667 154.036C180.978 154.036 179.607 155.407 179.607 157.096C179.607 158.785 180.978 160.156 182.667 160.156C184.356 160.156 185.726 158.785 185.726 157.096C185.74 155.407 184.356 154.036 182.667 154.036Z" fill="url(#paint111_linear)"/>
<path fill-rule="evenodd" clip-rule="evenodd" d="M182.667 155.102C181.559 155.102 180.673 156.002 180.673 157.096C180.673 158.204 181.573 159.09 182.667 159.09C183.774 159.09 184.66 158.19 184.66 157.096C184.66 156.002 183.774 155.102 182.667 155.102Z" fill="url(#paint112_radial)"/>
<path fill-rule="evenodd" clip-rule="evenodd" d="M182.667 166.566C180.452 166.566 178.652 168.366 178.652 170.581C178.652 172.796 180.452 174.582 182.667 174.582C184.882 174.582 186.668 172.782 186.668 170.581C186.682 168.366 184.882 166.566 182.667 166.566Z" fill="url(#paint113_linear)"/>
<path fill-rule="evenodd" clip-rule="evenodd" d="M182.667 167.507C180.978 167.507 179.607 168.878 179.607 170.567C179.607 172.256 180.978 173.627 182.667 173.627C184.356 173.627 185.726 172.256 185.726 170.567C185.74 168.878 184.356 167.507 182.667 167.507Z" fill="url(#paint114_linear)"/>
<path fill-rule="evenodd" clip-rule="evenodd" d="M182.667 168.573C181.559 168.573 180.673 169.473 180.673 170.567C180.673 171.674 181.573 172.561 182.667 172.561C183.774 172.561 184.66 171.661 184.66 170.567C184.66 169.473 183.774 168.573 182.667 168.573Z" fill="url(#paint115_radial)"/>
<path fill-rule="evenodd" clip-rule="evenodd" d="M184.743 178.625H182.902V174.582C182.902 174.457 182.805 174.36 182.681 174.36C182.556 174.36 182.459 174.457 182.459 174.582V178.625H180.618C179.136 178.625 177.918 179.843 177.918 181.324V189.52H176.104V152.763C176.104 152.638 176.007 152.541 175.883 152.541C175.758 152.541 175.661 152.638 175.661 152.763V189.506H168.033C167.908 189.506 167.811 189.603 167.811 189.728V209.595H168.254V189.963H175.648V209.609H176.104V189.963H177.918V198.159C177.918 199.641 179.123 200.859 180.618 200.859H182.459V205.802C182.459 205.926 182.556 206.023 182.681 206.023H189.354V205.58H182.902V200.873H184.743C186.225 200.873 187.443 199.668 187.443 198.173V181.31C187.429 179.829 186.225 178.625 184.743 178.625ZM178.361 181.31C178.361 180.078 179.372 179.068 180.604 179.068C182.182 179.068 183.165 179.068 184.743 179.068C185.976 179.068 186.986 180.078 186.986 181.31V198.146C186.986 199.378 185.976 200.388 184.743 200.388C183.165 200.388 182.182 200.388 180.604 200.388C179.372 200.388 178.361 199.378 178.361 198.146C178.361 192.345 178.361 187.125 178.361 181.31ZM189.575 148.983V174.526C189.575 174.651 189.478 174.748 189.354 174.748C189.229 174.748 189.132 174.651 189.132 174.526V148.983C189.132 148.858 189.229 148.761 189.354 148.761C189.478 148.761 189.575 148.858 189.575 148.983Z" fill="#3B0201"/>
<path fill-rule="evenodd" clip-rule="evenodd" d="M173.335 175.759H172.048C170.926 175.759 170.926 177.462 172.048 177.462H172.477V201.039H172.048C170.926 201.039 170.926 202.742 172.048 202.742H173.252C173.82 202.811 174.277 202.451 174.277 201.856V176.659C174.277 176.049 173.903 175.759 173.335 175.759Z" fill="url(#paint116_linear)"/>
<path fill-rule="evenodd" clip-rule="evenodd" d="M173.003 176.271C172.685 176.271 172.629 176.493 172.048 176.894C171.591 177.212 171.203 176.202 171.203 176.631C171.203 177.06 171.48 177.489 172.048 177.489C172.186 177.489 172.339 177.489 172.477 177.489C172.477 185.353 172.477 193.217 172.477 201.067C172.339 201.067 172.186 201.067 172.048 201.067C171.48 201.067 171.203 201.496 171.203 201.925C171.203 202.354 171.591 201.33 172.048 201.662C172.602 202.064 172.643 202.285 172.934 202.285L173.003 176.271Z" fill="#525252"/>
<path opacity="0.5" fill-rule="evenodd" clip-rule="evenodd" d="M167.327 156.348L161.097 158.965C159.394 159.685 158.342 161.263 158.342 163.105V206.909C158.342 208.391 159.56 209.609 161.041 209.609H186.654C188.135 209.609 189.354 208.405 189.354 206.909V200.624H170.026C168.545 200.624 167.327 199.405 167.327 197.924V156.348Z" fill="url(#paint117_linear)"/>
<path opacity="0.5" fill-rule="evenodd" clip-rule="evenodd" d="M180.369 101.8H178.569C177.087 101.8 175.869 103.019 175.869 104.5V117.819L178.181 120.781V126.721L175.869 129.683V148.983H180.355V129.683L182.667 126.721V120.781L180.369 117.819V101.8Z" fill="url(#paint118_linear)"/>
<path fill-rule="evenodd" clip-rule="evenodd" d="M154.548 113.97H150.796V127.441H150.049C148.816 127.441 147.806 128.451 147.806 129.683V146.74C147.806 147.972 148.816 148.983 150.049 148.983H156.874C158.106 148.983 159.117 147.972 159.117 146.74V129.683C159.117 128.451 158.106 127.441 156.874 127.441H154.534V113.97H154.548Z" fill="url(#paint119_linear)"/>
<path fill-rule="evenodd" clip-rule="evenodd" d="M154.548 113.97H150.796V127.441H150.049C148.816 127.441 147.806 128.451 147.806 129.683V146.74C147.806 147.972 148.816 148.983 150.049 148.983H156.874C158.106 148.983 159.117 147.972 159.117 146.74V129.683C159.117 128.451 158.106 127.441 156.874 127.441H154.534V113.97H154.548ZM150.81 112.405H154.562C155.42 112.405 156.126 113.111 156.126 113.97V125.876H156.902C157.94 125.876 158.895 126.305 159.588 126.984C160.28 127.676 160.709 128.631 160.709 129.67V146.726C160.709 147.765 160.28 148.72 159.601 149.412C158.909 150.104 157.954 150.534 156.916 150.534H150.09C149.052 150.534 148.096 150.104 147.404 149.426C146.712 148.734 146.283 147.779 146.283 146.74V129.683C146.283 128.645 146.712 127.69 147.404 126.998C147.903 126.499 148.553 126.125 149.273 125.973V113.97C149.246 113.111 149.938 112.405 150.81 112.405Z" fill="black"/>
<path opacity="0.5" fill-rule="evenodd" clip-rule="evenodd" d="M150.062 127.441C148.83 127.441 147.82 128.451 147.82 129.684V146.74C147.82 147.972 148.83 148.983 150.062 148.983H156.888C158.12 148.983 159.131 147.972 159.131 146.74V144.497H154.548C153.316 144.497 152.305 143.487 152.305 142.255V127.441H150.062Z" fill="url(#paint120_linear)"/>
<path fill-rule="evenodd" clip-rule="evenodd" d="M154.548 113.97H150.796V136.772C150.796 137.27 151.198 137.672 151.696 137.672H153.648C154.147 137.672 154.548 137.27 154.548 136.772V113.97Z" fill="url(#paint121_linear)"/>
<path fill-rule="evenodd" clip-rule="evenodd" d="M159.144 132.702H151.821C151.198 132.702 150.699 133.214 150.699 133.823V136.467C150.699 137.09 151.211 137.589 151.821 137.589H159.144V132.702Z" fill="url(#paint122_linear)"/>
<path fill-rule="evenodd" clip-rule="evenodd" d="M156.597 133.726H152.651C152.291 133.726 151.987 134.031 151.987 134.391V135.941C151.987 136.301 152.291 136.606 152.651 136.606H156.597C157.22 136.606 157.719 136.094 157.719 135.484V134.847C157.732 134.224 157.22 133.726 156.597 133.726Z" fill="url(#paint123_linear)"/>
</g>
</g>
<defs>
<linearGradient id="paint0_linear" x1="98.8361" y1="144.699" x2="112.585" y2="144.694" gradientUnits="userSpaceOnUse">
<stop stop-color="#454849"/>
<stop offset="0.51" stop-color="#B2B4B4"/>
<stop offset="1" stop-color="#454849"/>
</linearGradient>
<radialGradient id="paint1_radial" cx="0" cy="0" r="1" gradientUnits="userSpaceOnUse" gradientTransform="translate(100.976 150.443) rotate(-90) scale(2.23487 1.14202)">
<stop stop-color="#454849"/>
<stop offset="1"/>
</radialGradient>
<radialGradient id="paint2_radial" cx="0" cy="0" r="1" gradientUnits="userSpaceOnUse" gradientTransform="translate(101.016 145.767) rotate(-94.9292) scale(2.23635 1.21839)">
<stop stop-color="#454849"/>
<stop offset="1"/>
</radialGradient>
<radialGradient id="paint3_radial" cx="0" cy="0" r="1" gradientUnits="userSpaceOnUse" gradientTransform="translate(101.779 141.371) rotate(-90) scale(2.19989 1.43346)">
<stop stop-color="#454849"/>
<stop offset="1"/>
</radialGradient>
<radialGradient id="paint4_radial" cx="0" cy="0" r="1" gradientUnits="userSpaceOnUse" gradientTransform="translate(104.36 137.836) scale(2.03294 1.77415)">
<stop stop-color="#454849"/>
<stop offset="1"/>
</radialGradient>
<radialGradient id="paint5_radial" cx="0" cy="0" r="1" gradientUnits="userSpaceOnUse" gradientTransform="translate(108.688 136.677) rotate(1.70653) scale(2.23723 1.16695)">
<stop stop-color="#454849"/>
<stop offset="1"/>
</radialGradient>
<radialGradient id="paint6_radial" cx="0" cy="0" r="1" gradientUnits="userSpaceOnUse" gradientTransform="translate(101.002 155.007) rotate(-90) scale(2.23844 1.1407)">
<stop stop-color="#454849"/>
<stop offset="1"/>
</radialGradient>
<linearGradient id="paint7_linear" x1="108.223" y1="136.564" x2="116.854" y2="136.562" gradientUnits="userSpaceOnUse">
<stop stop-color="#454849"/>
<stop offset="1" stop-color="#B2B4B4"/>
</linearGradient>
<linearGradient id="paint8_linear" x1="116.137" y1="136.564" x2="109.169" y2="136.562" gradientUnits="userSpaceOnUse">
<stop stop-color="#454849"/>
<stop offset="1" stop-color="#B2B4B4"/>
</linearGradient>
<linearGradient id="paint9_linear" x1="94.7602" y1="155.699" x2="81.2815" y2="155.699" gradientUnits="userSpaceOnUse">
<stop stop-color="#7A0604"/>
<stop offset="0.48" stop-color="#C2391E"/>
<stop offset="1" stop-color="#7A0604"/>
</linearGradient>
<linearGradient id="paint10_linear" x1="104.504" y1="181.181" x2="94.7597" y2="181.181" gradientUnits="userSpaceOnUse">
<stop stop-color="#7A0604"/>
<stop offset="0.0121381" stop-color="#7D0805"/>
<stop offset="0.1393" stop-color="#961A0E"/>
<stop offset="0.2802" stop-color="#AA2815"/>
<stop offset="0.4426" stop-color="#B7321A"/>
<stop offset="0.6436" stop-color="#C0371D"/>
<stop offset="1" stop-color="#C2391E"/>
</linearGradient>
<linearGradient id="paint11_linear" x1="112.278" y1="182.116" x2="99.1706" y2="182.106" gradientUnits="userSpaceOnUse">
<stop stop-color="#7A0604"/>
<stop offset="1" stop-color="white"/>
</linearGradient>
<linearGradient id="paint12_linear" x1="81.4063" y1="125.395" x2="94.7604" y2="125.392" gradientUnits="userSpaceOnUse">
<stop stop-color="#454849"/>
<stop offset="0.51" stop-color="#B2B4B4"/>
<stop offset="1" stop-color="#454849"/>
</linearGradient>
<linearGradient id="paint13_linear" x1="81.26" y1="123.745" x2="94.7612" y2="123.755" gradientUnits="userSpaceOnUse">
<stop stop-color="#454849"/>
<stop offset="0.5" stop-color="#B2B4B4"/>
<stop offset="1" stop-color="#454849"/>
</linearGradient>
<linearGradient id="paint14_linear" x1="81.2786" y1="125.401" x2="85.9144" y2="125.388" gradientUnits="userSpaceOnUse">
<stop stop-color="#454849"/>
<stop offset="1" stop-color="white"/>
</linearGradient>
<linearGradient id="paint15_linear" x1="94.764" y1="125.401" x2="90.1282" y2="125.388" gradientUnits="userSpaceOnUse">
<stop stop-color="#454849"/>
<stop offset="1" stop-color="white"/>
</linearGradient>
<linearGradient id="paint16_linear" x1="88.021" y1="104.493" x2="88.0231" y2="101.8" gradientUnits="userSpaceOnUse">
<stop stop-color="#B2B4B4"/>
<stop offset="1" stop-color="white"/>
</linearGradient>
<linearGradient id="paint17_linear" x1="73.4783" y1="161.758" x2="82.6565" y2="161.756" gradientUnits="userSpaceOnUse">
<stop stop-color="#7A0604"/>
<stop offset="1" stop-color="white"/>
</linearGradient>
<linearGradient id="paint18_linear" x1="74.7031" y1="152.778" x2="80.3191" y2="152.778" gradientUnits="userSpaceOnUse">
<stop stop-color="#454849"/>
<stop offset="0.5" stop-color="#B2B4B4"/>
<stop offset="1" stop-color="#454849"/>
</linearGradient>
<linearGradient id="paint19_linear" x1="74.7285" y1="152.779" x2="79.2745" y2="152.777" gradientUnits="userSpaceOnUse">
<stop stop-color="#454849"/>
<stop offset="1"/>
</linearGradient>
<linearGradient id="paint20_linear" x1="74.7031" y1="157.268" x2="80.3191" y2="157.268" gradientUnits="userSpaceOnUse">
<stop stop-color="#454849"/>
<stop offset="0.5" stop-color="#B2B4B4"/>
<stop offset="1" stop-color="#454849"/>
</linearGradient>
<linearGradient id="paint21_linear" x1="74.7285" y1="157.268" x2="79.2745" y2="157.267" gradientUnits="userSpaceOnUse">
<stop stop-color="#454849"/>
<stop offset="1"/>
</linearGradient>
<linearGradient id="paint22_linear" x1="74.7031" y1="161.757" x2="80.3191" y2="161.757" gradientUnits="userSpaceOnUse">
<stop stop-color="#454849"/>
<stop offset="0.5" stop-color="#B2B4B4"/>
<stop offset="1" stop-color="#454849"/>
</linearGradient>
<linearGradient id="paint23_linear" x1="74.7285" y1="161.758" x2="79.2745" y2="161.757" gradientUnits="userSpaceOnUse">
<stop stop-color="#454849"/>
<stop offset="1"/>
</linearGradient>
<linearGradient id="paint24_linear" x1="74.7031" y1="166.247" x2="80.3191" y2="166.247" gradientUnits="userSpaceOnUse">
<stop stop-color="#454849"/>
<stop offset="0.5" stop-color="#B2B4B4"/>
<stop offset="1" stop-color="#454849"/>
</linearGradient>
<linearGradient id="paint25_linear" x1="74.7285" y1="166.248" x2="79.2745" y2="166.246" gradientUnits="userSpaceOnUse">
<stop stop-color="#454849"/>
<stop offset="1"/>
</linearGradient>
<linearGradient id="paint26_linear" x1="74.7031" y1="170.737" x2="80.3191" y2="170.737" gradientUnits="userSpaceOnUse">
<stop stop-color="#454849"/>
<stop offset="0.5" stop-color="#B2B4B4"/>
<stop offset="1" stop-color="#454849"/>
</linearGradient>
<linearGradient id="paint27_linear" x1="74.7285" y1="170.737" x2="79.2745" y2="170.736" gradientUnits="userSpaceOnUse">
<stop stop-color="#454849"/>
<stop offset="1"/>
</linearGradient>
<radialGradient id="paint28_radial" cx="0" cy="0" r="1" gradientUnits="userSpaceOnUse" gradientTransform="translate(88.0258 123.754) rotate(-89.6708) scale(1.96084 1.48652)">
<stop/>
<stop offset="1" stop-color="#454849"/>
</radialGradient>
<linearGradient id="paint29_linear" x1="92.4507" y1="123.751" x2="90.9743" y2="123.749" gradientUnits="userSpaceOnUse">
<stop stop-color="#454849"/>
<stop offset="1"/>
</linearGradient>
<linearGradient id="paint30_linear" x1="83.5867" y1="123.751" x2="85.0676" y2="123.749" gradientUnits="userSpaceOnUse">
<stop stop-color="#454849"/>
<stop offset="1"/>
</linearGradient>
<linearGradient id="paint31_linear" x1="112.202" y1="172.705" x2="106.335" y2="172.703" gradientUnits="userSpaceOnUse">
<stop stop-color="#7A0604"/>
<stop offset="1" stop-color="#C2391E"/>
</linearGradient>
<linearGradient id="paint32_linear" x1="107.412" y1="172.705" x2="112.279" y2="172.703" gradientUnits="userSpaceOnUse">
<stop stop-color="#3A0000"/>
<stop offset="1" stop-color="white"/>
</linearGradient>
<linearGradient id="paint33_linear" x1="112.202" y1="181.684" x2="106.335" y2="181.682" gradientUnits="userSpaceOnUse">
<stop stop-color="#7A0604"/>
<stop offset="1" stop-color="#C2391E"/>
</linearGradient>
<linearGradient id="paint34_linear" x1="107.412" y1="181.684" x2="112.279" y2="181.682" gradientUnits="userSpaceOnUse">
<stop stop-color="#3A0000"/>
<stop offset="1" stop-color="white"/>
</linearGradient>
<linearGradient id="paint35_linear" x1="112.202" y1="190.663" x2="106.335" y2="190.661" gradientUnits="userSpaceOnUse">
<stop stop-color="#7A0604"/>
<stop offset="1" stop-color="#C2391E"/>
</linearGradient>
<linearGradient id="paint36_linear" x1="107.412" y1="190.663" x2="112.279" y2="190.661" gradientUnits="userSpaceOnUse">
<stop stop-color="#3A0000"/>
<stop offset="1" stop-color="white"/>
</linearGradient>
<linearGradient id="paint37_linear" x1="98.436" y1="161.645" x2="98.4361" y2="163.398" gradientUnits="userSpaceOnUse">
<stop stop-color="#00290D"/>
<stop offset="1" stop-color="#185C22"/>
</linearGradient>
<radialGradient id="paint38_radial" cx="0" cy="0" r="1" gradientUnits="userSpaceOnUse" gradientTransform="translate(98.5298 162.74) rotate(-0.0293003) scale(1.77895 0.80178)">
<stop stop-color="#80C342"/>
<stop offset="1" stop-color="#2F943E"/>
</radialGradient>
<linearGradient id="paint39_linear" x1="98.4341" y1="161.659" x2="98.4378" y2="163.227" gradientUnits="userSpaceOnUse">
<stop stop-color="#2F943E"/>
<stop offset="1" stop-color="white"/>
</linearGradient>
<linearGradient id="paint40_linear" x1="98.436" y1="166.135" x2="98.4361" y2="167.888" gradientUnits="userSpaceOnUse">
<stop stop-color="#00290D"/>
<stop offset="1" stop-color="#185C22"/>
</linearGradient>
<radialGradient id="paint41_radial" cx="0" cy="0" r="1" gradientUnits="userSpaceOnUse" gradientTransform="translate(98.5298 167.23) rotate(-0.0292998) scale(1.77893 0.801758)">
<stop stop-color="#80C342"/>
<stop offset="1" stop-color="#2F943E"/>
</radialGradient>
<linearGradient id="paint42_linear" x1="98.4341" y1="166.149" x2="98.4378" y2="167.717" gradientUnits="userSpaceOnUse">
<stop stop-color="#2F943E"/>
<stop offset="1" stop-color="white"/>
</linearGradient>
<linearGradient id="paint43_linear" x1="98.436" y1="170.624" x2="98.4361" y2="172.378" gradientUnits="userSpaceOnUse">
<stop stop-color="#00290D"/>
<stop offset="1" stop-color="#185C22"/>
</linearGradient>
<radialGradient id="paint44_radial" cx="0" cy="0" r="1" gradientUnits="userSpaceOnUse" gradientTransform="translate(98.5298 171.72) rotate(-0.0292999) scale(1.77899 0.801787)">
<stop stop-color="#80C342"/>
<stop offset="1" stop-color="#2F943E"/>
</radialGradient>
<linearGradient id="paint45_linear" x1="98.4341" y1="170.639" x2="98.4378" y2="172.206" gradientUnits="userSpaceOnUse">
<stop stop-color="#2F943E"/>
<stop offset="1" stop-color="white"/>
</linearGradient>
<linearGradient id="paint46_linear" x1="88.9327" y1="163.841" x2="86.9742" y2="163.839" gradientUnits="userSpaceOnUse">
<stop stop-color="#454849"/>
<stop offset="0.5" stop-color="#B2B4B4"/>
<stop offset="1" stop-color="#454849"/>
</linearGradient>
<linearGradient id="paint47_linear" x1="88.4761" y1="163.841" x2="87.4081" y2="163.839" gradientUnits="userSpaceOnUse">
<stop stop-color="#B2B4B4"/>
<stop offset="0.48" stop-color="white"/>
<stop offset="1" stop-color="#B2B4B4"/>
</linearGradient>
<linearGradient id="paint48_linear" x1="89.7683" y1="159.228" x2="86.1225" y2="154.939" gradientUnits="userSpaceOnUse">
<stop stop-color="#B2B4B4"/>
<stop offset="0.48" stop-color="white"/>
<stop offset="1" stop-color="#B2B4B4"/>
</linearGradient>
<linearGradient id="paint49_linear" x1="89.3783" y1="158.727" x2="86.5367" y2="155.469" gradientUnits="userSpaceOnUse">
<stop stop-color="#454849"/>
<stop offset="0.5" stop-color="#B2B4B4"/>
<stop offset="1" stop-color="#454849"/>
</linearGradient>
<radialGradient id="paint50_radial" cx="0" cy="0" r="1" gradientUnits="userSpaceOnUse" gradientTransform="translate(87.9625 157.075) scale(1.99444)">
<stop/>
<stop offset="0.505" stop-color="#020202"/>
<stop offset="0.6711" stop-color="#080808"/>
<stop offset="0.7871" stop-color="#131414"/>
<stop offset="0.8797" stop-color="#222424"/>
<stop offset="0.9573" stop-color="#36393A"/>
<stop offset="1" stop-color="#454849"/>
</radialGradient>
<linearGradient id="paint51_linear" x1="89.7687" y1="172.698" x2="86.1231" y2="168.409" gradientUnits="userSpaceOnUse">
<stop stop-color="#B2B4B4"/>
<stop offset="0.48" stop-color="white"/>
<stop offset="1" stop-color="#B2B4B4"/>
</linearGradient>
<linearGradient id="paint52_linear" x1="89.3786" y1="172.196" x2="86.5371" y2="168.939" gradientUnits="userSpaceOnUse">
<stop stop-color="#454849"/>
<stop offset="0.5" stop-color="#B2B4B4"/>
<stop offset="1" stop-color="#454849"/>
</linearGradient>
<radialGradient id="paint53_radial" cx="0" cy="0" r="1" gradientUnits="userSpaceOnUse" gradientTransform="translate(87.9625 170.544) scale(1.99456)">
<stop/>
<stop offset="0.505" stop-color="#020202"/>
<stop offset="0.6711" stop-color="#080808"/>
<stop offset="0.7871" stop-color="#131414"/>
<stop offset="0.8797" stop-color="#222424"/>
<stop offset="0.9573" stop-color="#36393A"/>
<stop offset="1" stop-color="#454849"/>
</radialGradient>
<linearGradient id="paint54_linear" x1="99.6847" y1="189.266" x2="96.6819" y2="189.264" gradientUnits="userSpaceOnUse">
<stop stop-color="#454849"/>
<stop offset="1" stop-color="#B2B4B4"/>
</linearGradient>
<linearGradient id="paint55_linear" x1="111.159" y1="207.689" x2="81.7035" y2="160.646" gradientUnits="userSpaceOnUse">
<stop stop-color="#7A0604"/>
<stop offset="1" stop-color="white"/>
</linearGradient>
<linearGradient id="paint56_linear" x1="92.4907" y1="125.394" x2="86.893" y2="125.392" gradientUnits="userSpaceOnUse">
<stop stop-color="#7A0604"/>
<stop offset="1" stop-color="white"/>
</linearGradient>
<linearGradient id="paint57_linear" x1="122.815" y1="131.48" x2="111.499" y2="131.478" gradientUnits="userSpaceOnUse">
<stop stop-color="#7A0604"/>
<stop offset="0.48" stop-color="#C2391E"/>
<stop offset="1" stop-color="#7A0604"/>
</linearGradient>
<linearGradient id="paint58_linear" x1="123.005" y1="147.27" x2="112.612" y2="131.182" gradientUnits="userSpaceOnUse">
<stop stop-color="#7A0604"/>
<stop offset="1" stop-color="white"/>
</linearGradient>
<linearGradient id="paint59_linear" x1="120.073" y1="125.822" x2="116.079" y2="125.819" gradientUnits="userSpaceOnUse">
<stop stop-color="#454849"/>
<stop offset="0.51" stop-color="#B2B4B4"/>
<stop offset="1" stop-color="#454849"/>
</linearGradient>
<linearGradient id="paint60_linear" x1="112.903" y1="135.159" x2="119.947" y2="135.159" gradientUnits="userSpaceOnUse">
<stop stop-color="#454849"/>
<stop offset="0.5" stop-color="#B2B4B4"/>
<stop offset="1" stop-color="#454849"/>
</linearGradient>
<linearGradient id="paint61_linear" x1="112.934" y1="135.16" x2="118.637" y2="135.158" gradientUnits="userSpaceOnUse">
<stop stop-color="#454849"/>
<stop offset="1"/>
</linearGradient>
<linearGradient id="paint62_linear" x1="171.797" y1="144.699" x2="158.047" y2="144.694" gradientUnits="userSpaceOnUse">
<stop stop-color="#454849"/>
<stop offset="0.51" stop-color="#B2B4B4"/>
<stop offset="1" stop-color="#454849"/>
</linearGradient>
<radialGradient id="paint63_radial" cx="0" cy="0" r="1" gradientUnits="userSpaceOnUse" gradientTransform="translate(169.657 150.443) rotate(-90) scale(2.23486 1.14201)">
<stop stop-color="#454849"/>
<stop offset="1"/>
</radialGradient>
<radialGradient id="paint64_radial" cx="0" cy="0" r="1" gradientUnits="userSpaceOnUse" gradientTransform="translate(169.618 145.768) rotate(-85.0708) scale(2.2364 1.21842)">
<stop stop-color="#454849"/>
<stop offset="1"/>
</radialGradient>
<radialGradient id="paint65_radial" cx="0" cy="0" r="1" gradientUnits="userSpaceOnUse" gradientTransform="translate(168.853 141.371) rotate(-90) scale(2.19994 1.43347)">
<stop stop-color="#454849"/>
<stop offset="1"/>
</radialGradient>
<radialGradient id="paint66_radial" cx="0" cy="0" r="1" gradientUnits="userSpaceOnUse" gradientTransform="translate(166.272 137.836) scale(2.03297 1.77417)">
<stop stop-color="#454849"/>
<stop offset="1"/>
</radialGradient>
<radialGradient id="paint67_radial" cx="0" cy="0" r="1" gradientUnits="userSpaceOnUse" gradientTransform="translate(161.951 136.677) rotate(-1.70652) scale(2.23705 1.16686)">
<stop stop-color="#454849"/>
<stop offset="1"/>
</radialGradient>
<radialGradient id="paint68_radial" cx="0" cy="0" r="1" gradientUnits="userSpaceOnUse" gradientTransform="translate(169.631 155.007) rotate(-90) scale(2.23842 1.14068)">
<stop stop-color="#454849"/>
<stop offset="1"/>
</radialGradient>
<linearGradient id="paint69_linear" x1="162.409" y1="136.564" x2="153.779" y2="136.562" gradientUnits="userSpaceOnUse">
<stop stop-color="#454849"/>
<stop offset="1" stop-color="#B2B4B4"/>
</linearGradient>
<linearGradient id="paint70_linear" x1="154.496" y1="136.564" x2="161.464" y2="136.562" gradientUnits="userSpaceOnUse">
<stop stop-color="#454849"/>
<stop offset="1" stop-color="#B2B4B4"/>
</linearGradient>
<linearGradient id="paint71_linear" x1="175.872" y1="155.699" x2="189.351" y2="155.699" gradientUnits="userSpaceOnUse">
<stop stop-color="#7A0604"/>
<stop offset="0.48" stop-color="#C2391E"/>
<stop offset="1" stop-color="#7A0604"/>
</linearGradient>
<linearGradient id="paint72_linear" x1="166.129" y1="181.181" x2="175.873" y2="181.181" gradientUnits="userSpaceOnUse">
<stop stop-color="#7A0604"/>
<stop offset="0.0121381" stop-color="#7D0805"/>
<stop offset="0.1393" stop-color="#961A0E"/>
<stop offset="0.2802" stop-color="#AA2815"/>
<stop offset="0.4426" stop-color="#B7321A"/>
<stop offset="0.6436" stop-color="#C0371D"/>
<stop offset="1" stop-color="#C2391E"/>
</linearGradient>
<linearGradient id="paint73_linear" x1="158.355" y1="182.116" x2="171.462" y2="182.106" gradientUnits="userSpaceOnUse">
<stop stop-color="#7A0604"/>
<stop offset="1" stop-color="white"/>
</linearGradient>
<linearGradient id="paint74_linear" x1="189.226" y1="125.395" x2="175.872" y2="125.392" gradientUnits="userSpaceOnUse">
<stop stop-color="#454849"/>
<stop offset="0.51" stop-color="#B2B4B4"/>
<stop offset="1" stop-color="#454849"/>
</linearGradient>
<linearGradient id="paint75_linear" x1="189.373" y1="123.745" x2="175.871" y2="123.755" gradientUnits="userSpaceOnUse">
<stop stop-color="#454849"/>
<stop offset="0.5" stop-color="#B2B4B4"/>
<stop offset="1" stop-color="#454849"/>
</linearGradient>
<linearGradient id="paint76_linear" x1="189.354" y1="125.401" x2="184.718" y2="125.388" gradientUnits="userSpaceOnUse">
<stop stop-color="#454849"/>
<stop offset="1" stop-color="white"/>
</linearGradient>
<linearGradient id="paint77_linear" x1="175.869" y1="125.401" x2="180.504" y2="125.388" gradientUnits="userSpaceOnUse">
<stop stop-color="#454849"/>
<stop offset="1" stop-color="white"/>
</linearGradient>
<linearGradient id="paint78_linear" x1="182.612" y1="104.493" x2="182.61" y2="101.8" gradientUnits="userSpaceOnUse">
<stop stop-color="#B2B4B4"/>
<stop offset="1" stop-color="white"/>
</linearGradient>
<linearGradient id="paint79_linear" x1="197.154" y1="161.758" x2="187.976" y2="161.756" gradientUnits="userSpaceOnUse">
<stop stop-color="#7A0604"/>
<stop offset="1" stop-color="white"/>
</linearGradient>
<linearGradient id="paint80_linear" x1="195.929" y1="152.778" x2="190.314" y2="152.778" gradientUnits="userSpaceOnUse">
<stop stop-color="#454849"/>
<stop offset="0.5" stop-color="#B2B4B4"/>
<stop offset="1" stop-color="#454849"/>
</linearGradient>
<linearGradient id="paint81_linear" x1="195.904" y1="152.779" x2="191.358" y2="152.777" gradientUnits="userSpaceOnUse">
<stop stop-color="#454849"/>
<stop offset="1"/>
</linearGradient>
<linearGradient id="paint82_linear" x1="195.929" y1="157.268" x2="190.314" y2="157.268" gradientUnits="userSpaceOnUse">
<stop stop-color="#454849"/>
<stop offset="0.5" stop-color="#B2B4B4"/>
<stop offset="1" stop-color="#454849"/>
</linearGradient>
<linearGradient id="paint83_linear" x1="195.904" y1="157.268" x2="191.358" y2="157.267" gradientUnits="userSpaceOnUse">
<stop stop-color="#454849"/>
<stop offset="1"/>
</linearGradient>
<linearGradient id="paint84_linear" x1="195.929" y1="161.757" x2="190.314" y2="161.757" gradientUnits="userSpaceOnUse">
<stop stop-color="#454849"/>
<stop offset="0.5" stop-color="#B2B4B4"/>
<stop offset="1" stop-color="#454849"/>
</linearGradient>
<linearGradient id="paint85_linear" x1="195.904" y1="161.758" x2="191.358" y2="161.757" gradientUnits="userSpaceOnUse">
<stop stop-color="#454849"/>
<stop offset="1"/>
</linearGradient>
<linearGradient id="paint86_linear" x1="195.929" y1="166.247" x2="190.314" y2="166.247" gradientUnits="userSpaceOnUse">
<stop stop-color="#454849"/>
<stop offset="0.5" stop-color="#B2B4B4"/>
<stop offset="1" stop-color="#454849"/>
</linearGradient>
<linearGradient id="paint87_linear" x1="195.904" y1="166.248" x2="191.358" y2="166.246" gradientUnits="userSpaceOnUse">
<stop stop-color="#454849"/>
<stop offset="1"/>
</linearGradient>
<linearGradient id="paint88_linear" x1="195.929" y1="170.737" x2="190.314" y2="170.737" gradientUnits="userSpaceOnUse">
<stop stop-color="#454849"/>
<stop offset="0.5" stop-color="#B2B4B4"/>
<stop offset="1" stop-color="#454849"/>
</linearGradient>
<linearGradient id="paint89_linear" x1="195.904" y1="170.737" x2="191.358" y2="170.736" gradientUnits="userSpaceOnUse">
<stop stop-color="#454849"/>
<stop offset="1"/>
</linearGradient>
<radialGradient id="paint90_radial" cx="0" cy="0" r="1" gradientUnits="userSpaceOnUse" gradientTransform="translate(182.608 123.752) rotate(-90.3292) scale(1.96088 1.48655)">
<stop/>
<stop offset="1" stop-color="#454849"/>
</radialGradient>
<linearGradient id="paint91_linear" x1="178.182" y1="123.751" x2="179.658" y2="123.749" gradientUnits="userSpaceOnUse">
<stop stop-color="#454849"/>
<stop offset="1"/>
</linearGradient>
<linearGradient id="paint92_linear" x1="187.046" y1="123.751" x2="185.565" y2="123.749" gradientUnits="userSpaceOnUse">
<stop stop-color="#454849"/>
<stop offset="1"/>
</linearGradient>
<linearGradient id="paint93_linear" x1="158.43" y1="172.705" x2="164.297" y2="172.703" gradientUnits="userSpaceOnUse">
<stop stop-color="#7A0604"/>
<stop offset="1" stop-color="#C2391E"/>
</linearGradient>
<linearGradient id="paint94_linear" x1="163.22" y1="172.705" x2="158.354" y2="172.703" gradientUnits="userSpaceOnUse">
<stop stop-color="#3A0000"/>
<stop offset="1" stop-color="white"/>
</linearGradient>
<linearGradient id="paint95_linear" x1="158.43" y1="181.684" x2="164.297" y2="181.682" gradientUnits="userSpaceOnUse">
<stop stop-color="#7A0604"/>
<stop offset="1" stop-color="#C2391E"/>
</linearGradient>
<linearGradient id="paint96_linear" x1="163.22" y1="181.684" x2="158.354" y2="181.682" gradientUnits="userSpaceOnUse">
<stop stop-color="#3A0000"/>
<stop offset="1" stop-color="white"/>
</linearGradient>
<linearGradient id="paint97_linear" x1="158.43" y1="190.663" x2="164.297" y2="190.661" gradientUnits="userSpaceOnUse">
<stop stop-color="#7A0604"/>
<stop offset="1" stop-color="#C2391E"/>
</linearGradient>
<linearGradient id="paint98_linear" x1="163.22" y1="190.663" x2="158.354" y2="190.661" gradientUnits="userSpaceOnUse">
<stop stop-color="#3A0000"/>
<stop offset="1" stop-color="white"/>
</linearGradient>
<linearGradient id="paint99_linear" x1="172.197" y1="161.645" x2="172.197" y2="163.398" gradientUnits="userSpaceOnUse">
<stop stop-color="#00290D"/>
<stop offset="1" stop-color="#185C22"/>
</linearGradient>
<radialGradient id="paint100_radial" cx="0" cy="0" r="1" gradientUnits="userSpaceOnUse" gradientTransform="translate(172.103 162.74) rotate(0.0293094) scale(1.77907 0.801837)">
<stop stop-color="#80C342"/>
<stop offset="1" stop-color="#2F943E"/>
</radialGradient>
<linearGradient id="paint101_linear" x1="172.199" y1="161.659" x2="172.195" y2="163.227" gradientUnits="userSpaceOnUse">
<stop stop-color="#2F943E"/>
<stop offset="1" stop-color="white"/>
</linearGradient>
<linearGradient id="paint102_linear" x1="172.197" y1="166.135" x2="172.197" y2="167.888" gradientUnits="userSpaceOnUse">
<stop stop-color="#00290D"/>
<stop offset="1" stop-color="#185C22"/>
</linearGradient>
<radialGradient id="paint103_radial" cx="0" cy="0" r="1" gradientUnits="userSpaceOnUse" gradientTransform="translate(172.103 167.23) rotate(0.0293089) scale(1.77906 0.801814)">
<stop stop-color="#80C342"/>
<stop offset="1" stop-color="#2F943E"/>
</radialGradient>
<linearGradient id="paint104_linear" x1="172.199" y1="166.149" x2="172.195" y2="167.717" gradientUnits="userSpaceOnUse">
<stop stop-color="#2F943E"/>
<stop offset="1" stop-color="white"/>
</linearGradient>
<linearGradient id="paint105_linear" x1="172.197" y1="170.624" x2="172.197" y2="172.378" gradientUnits="userSpaceOnUse">
<stop stop-color="#00290D"/>
<stop offset="1" stop-color="#185C22"/>
</linearGradient>
<radialGradient id="paint106_radial" cx="0" cy="0" r="1" gradientUnits="userSpaceOnUse" gradientTransform="translate(172.103 171.72) rotate(0.029309) scale(1.7791 0.801837)">
<stop stop-color="#80C342"/>
<stop offset="1" stop-color="#2F943E"/>
</radialGradient>
<linearGradient id="paint107_linear" x1="172.199" y1="170.639" x2="172.195" y2="172.206" gradientUnits="userSpaceOnUse">
<stop stop-color="#2F943E"/>
<stop offset="1" stop-color="white"/>
</linearGradient>
<linearGradient id="paint108_linear" x1="181.7" y1="163.841" x2="183.658" y2="163.839" gradientUnits="userSpaceOnUse">
<stop stop-color="#454849"/>
<stop offset="0.5" stop-color="#B2B4B4"/>
<stop offset="1" stop-color="#454849"/>
</linearGradient>
<linearGradient id="paint109_linear" x1="182.156" y1="163.841" x2="183.224" y2="163.839" gradientUnits="userSpaceOnUse">
<stop stop-color="#B2B4B4"/>
<stop offset="0.48" stop-color="white"/>
<stop offset="1" stop-color="#B2B4B4"/>
</linearGradient>
<linearGradient id="paint110_linear" x1="180.864" y1="159.228" x2="184.51" y2="154.939" gradientUnits="userSpaceOnUse">
<stop stop-color="#B2B4B4"/>
<stop offset="0.48" stop-color="white"/>
<stop offset="1" stop-color="#B2B4B4"/>
</linearGradient>
<linearGradient id="paint111_linear" x1="181.254" y1="158.727" x2="184.096" y2="155.469" gradientUnits="userSpaceOnUse">
<stop stop-color="#454849"/>
<stop offset="0.5" stop-color="#B2B4B4"/>
<stop offset="1" stop-color="#454849"/>
</linearGradient>
<radialGradient id="paint112_radial" cx="0" cy="0" r="1" gradientUnits="userSpaceOnUse" gradientTransform="translate(182.67 157.075) scale(1.99445)">
<stop/>
<stop offset="0.505" stop-color="#020202"/>
<stop offset="0.6711" stop-color="#080808"/>
<stop offset="0.7871" stop-color="#131414"/>
<stop offset="0.8797" stop-color="#222424"/>
<stop offset="0.9573" stop-color="#36393A"/>
<stop offset="1" stop-color="#454849"/>
</radialGradient>
<linearGradient id="paint113_linear" x1="180.864" y1="172.698" x2="184.509" y2="168.409" gradientUnits="userSpaceOnUse">
<stop stop-color="#B2B4B4"/>
<stop offset="0.48" stop-color="white"/>
<stop offset="1" stop-color="#B2B4B4"/>
</linearGradient>
<linearGradient id="paint114_linear" x1="181.254" y1="172.196" x2="184.095" y2="168.939" gradientUnits="userSpaceOnUse">
<stop stop-color="#454849"/>
<stop offset="0.5" stop-color="#B2B4B4"/>
<stop offset="1" stop-color="#454849"/>
</linearGradient>
<radialGradient id="paint115_radial" cx="0" cy="0" r="1" gradientUnits="userSpaceOnUse" gradientTransform="translate(182.67 170.544) scale(1.99437)">
<stop/>
<stop offset="0.505" stop-color="#020202"/>
<stop offset="0.6711" stop-color="#080808"/>
<stop offset="0.7871" stop-color="#131414"/>
<stop offset="0.8797" stop-color="#222424"/>
<stop offset="0.9573" stop-color="#36393A"/>
<stop offset="1" stop-color="#454849"/>
</radialGradient>
<linearGradient id="paint116_linear" x1="170.948" y1="189.266" x2="173.95" y2="189.264" gradientUnits="userSpaceOnUse">
<stop stop-color="#454849"/>
<stop offset="1" stop-color="#B2B4B4"/>
</linearGradient>
<linearGradient id="paint117_linear" x1="159.474" y1="207.689" x2="188.929" y2="160.646" gradientUnits="userSpaceOnUse">
<stop stop-color="#7A0604"/>
<stop offset="1" stop-color="white"/>
</linearGradient>
<linearGradient id="paint118_linear" x1="178.142" y1="125.394" x2="183.74" y2="125.392" gradientUnits="userSpaceOnUse">
<stop stop-color="#7A0604"/>
<stop offset="1" stop-color="white"/>
</linearGradient>
<linearGradient id="paint119_linear" x1="147.817" y1="131.48" x2="159.134" y2="131.478" gradientUnits="userSpaceOnUse">
<stop stop-color="#7A0604"/>
<stop offset="0.48" stop-color="#C2391E"/>
<stop offset="1" stop-color="#7A0604"/>
</linearGradient>
<linearGradient id="paint120_linear" x1="147.627" y1="147.27" x2="158.021" y2="131.182" gradientUnits="userSpaceOnUse">
<stop stop-color="#7A0604"/>
<stop offset="1" stop-color="white"/>
</linearGradient>
<linearGradient id="paint121_linear" x1="150.56" y1="125.822" x2="154.553" y2="125.819" gradientUnits="userSpaceOnUse">
<stop stop-color="#454849"/>
<stop offset="0.51" stop-color="#B2B4B4"/>
<stop offset="1" stop-color="#454849"/>
</linearGradient>
<linearGradient id="paint122_linear" x1="157.73" y1="135.159" x2="150.685" y2="135.159" gradientUnits="userSpaceOnUse">
<stop stop-color="#454849"/>
<stop offset="0.5" stop-color="#B2B4B4"/>
<stop offset="1" stop-color="#454849"/>
</linearGradient>
<linearGradient id="paint123_linear" x1="157.698" y1="135.16" x2="151.995" y2="135.158" gradientUnits="userSpaceOnUse">
<stop stop-color="#454849"/>
<stop offset="1"/>
</linearGradient>
<clipPath id="clip0">
<rect width="270" height="370" fill="white"/>
</clipPath>
<clipPath id="clip1">
<rect x="61.29" y="100.236" width="148.055" height="171.633" fill="white"/>
</clipPath>
</defs>
</svg>
