<svg width="270" height="370" viewBox="0 0 270 370" fill="none" xmlns="http://www.w3.org/2000/svg">
<g clip-path="url(#clip0)">
<g clip-path="url(#clip1)">
<path fill-rule="evenodd" clip-rule="evenodd" d="M107.739 180.812C106.23 180.812 104.707 180.812 103.198 180.812C93.5899 187.901 83.3309 194.2 74.3596 202.091C72.712 203.545 72.892 206.245 72.006 208.252C70.8845 210.814 69.777 213.402 68.3787 215.825C66.2466 219.522 71.6737 219.73 86.0722 223.592C91.4716 229.545 95.8466 235.319 102.021 242.587C104.43 237.838 106.839 233.09 109.248 228.341C109.553 227.759 109.677 227.192 109.677 226.527C109.622 221.488 109.207 217.694 109.677 213.25C109.844 211.727 111.533 210.606 111.63 209.083C112.183 200.984 111.63 192.829 111.63 184.702C111.643 182.57 109.885 180.812 107.739 180.812Z" fill="url(#paint0_linear)"/>
<path fill-rule="evenodd" clip-rule="evenodd" d="M86.0722 223.592C91.4716 229.545 95.8465 235.319 102.021 242.587C104.43 237.838 106.839 233.09 109.248 228.341C109.553 227.759 109.677 227.192 109.677 226.527C109.622 221.488 109.207 217.694 109.677 213.25C109.844 211.727 111.533 210.606 111.63 209.083C112.183 200.984 111.63 192.829 111.63 184.702C111.63 182.556 109.871 180.798 107.725 180.798C106.216 180.798 104.693 180.798 103.184 180.798C93.576 187.887 83.3171 194.186 74.3457 202.077C72.6982 203.531 72.8782 206.231 71.9921 208.238C70.8707 210.8 69.7631 213.389 68.3648 215.811C66.2465 219.522 71.6737 219.73 86.0722 223.592ZM103.184 179.248H107.725C109.234 179.248 110.591 179.857 111.588 180.854C112.571 181.85 113.194 183.207 113.194 184.716C113.194 187.665 113.249 190.24 113.305 192.815C113.429 198.284 113.554 203.753 113.18 209.194C113.097 210.398 112.516 211.243 111.934 212.087C111.602 212.558 111.283 213.043 111.228 213.389V213.416C110.91 216.379 111.007 219.079 111.117 222.083C111.159 223.454 111.214 224.894 111.228 226.513C111.228 226.97 111.186 227.399 111.09 227.815C110.993 228.23 110.84 228.632 110.633 229.047L103.406 243.266C103.309 243.459 103.184 243.626 103.004 243.778C102.354 244.332 101.357 244.249 100.803 243.598C98.2417 240.58 96.0957 237.963 94.0744 235.485C91.0424 231.774 88.232 228.341 85.2138 224.991C82.2926 224.215 79.8559 223.606 77.7515 223.094C73.1274 221.959 70.0815 221.197 68.3648 220.214C66.0804 218.899 65.6789 217.39 67.008 215.078C68.3094 212.835 69.3754 210.37 70.4415 207.92L70.5522 207.657C70.8015 207.075 70.9676 206.328 71.1337 205.566C71.5075 203.877 71.8675 202.202 73.2935 200.942C79.3436 195.626 85.9337 191.043 92.51 186.461C95.7912 184.176 99.0862 181.892 102.132 179.649C102.437 179.4 102.797 179.248 103.184 179.248Z" fill="black"/>
<path opacity="0.5" fill-rule="evenodd" clip-rule="evenodd" d="M107.739 180.812C106.23 180.812 104.707 180.812 103.198 180.812C93.5898 187.901 83.3309 194.2 74.3595 202.091C76.99 204.168 78.1529 206.051 79.8005 208.723C79.8697 206.882 80.645 204.943 81.891 203.005C79.8697 199.018 85.463 195.127 89.3118 192.317C102.063 183.013 101.703 184.495 102.88 187.084C103.06 185.755 103.309 182.653 105.621 182.556C107.545 182.473 107.531 183.761 107.711 185.339C109.221 184.924 110.563 184.702 111.657 184.716C111.643 182.57 109.885 180.812 107.739 180.812Z" fill="url(#paint1_linear)"/>
<path opacity="0.5" fill-rule="evenodd" clip-rule="evenodd" d="M89.5472 227.552C90.7102 228.95 100.72 241.064 102.021 242.587C104.43 237.838 106.839 233.09 109.248 228.341C109.553 227.76 109.677 227.192 109.677 226.527C109.622 221.488 109.207 217.694 109.677 213.25C109.844 211.727 111.533 210.606 111.63 209.083C112.183 200.984 111.63 192.829 111.63 184.702C111.63 182.556 109.871 180.798 107.725 180.798C110.162 183.027 111.796 205.968 107.587 207.878C107.573 211.132 107.559 214.441 107.559 217.722C107.559 221.585 107.905 222.637 104.776 229.421C104.61 229.795 102.381 229.31 98.2279 224.561C102.063 230.556 102.021 233.284 101.855 233.56C99.3355 237.52 94.4483 232.204 89.5472 227.552Z" fill="url(#paint2_linear)"/>
<path fill-rule="evenodd" clip-rule="evenodd" d="M74.8026 205.096C73.6951 206.079 74.1658 207.228 73.4874 208.958C72.7952 210.717 71.1061 214.15 70.1647 215.784C68.7387 218.262 74.1935 218.927 84.1617 221.432C85.1308 216.019 78.6515 205.566 74.8026 205.096Z" fill="url(#paint3_linear)"/>
<path fill-rule="evenodd" clip-rule="evenodd" d="M74.3457 202.091C73.335 202.977 73.0166 204.32 72.712 205.691C76.8793 201.524 87.0136 220.242 82.5972 222.678C83.6355 222.845 84.7708 223.329 86.0583 223.578C83.2756 214.967 79.8559 207.615 74.3457 202.091Z" fill="#730200"/>
<path opacity="0.5" fill-rule="evenodd" clip-rule="evenodd" d="M78.9422 209.969C83.8155 217.279 85.4907 221.405 81.0881 220.782C78.6653 220.436 66.2604 216.338 73.875 218.484C88.8135 222.692 77.3362 208.488 75.8686 206.909C74.5811 205.525 76.9762 207.02 78.9422 209.969Z" fill="url(#paint4_linear)"/>
<path opacity="0.5" fill-rule="evenodd" clip-rule="evenodd" d="M109.691 213.264C101.814 216.698 93.9499 220.145 86.0722 223.592C85.7261 222.554 85.3661 221.529 85.02 220.491C93.8945 216.698 102.769 212.89 111.643 209.097C111.463 210.481 109.899 211.824 109.691 213.264Z" fill="url(#paint5_linear)"/>
<path fill-rule="evenodd" clip-rule="evenodd" d="M87.1382 203.725L100.581 195.307C100.775 195.211 101.011 195.294 101.107 195.487C102.838 199.142 103.06 206.259 99.1969 208.681C95.5142 210.994 89.2564 207.339 87.0413 204.279L87.0274 204.251C86.9028 204.071 86.9582 203.836 87.1382 203.725Z" fill="#3B0201"/>
<path fill-rule="evenodd" clip-rule="evenodd" d="M100.747 195.654C96.2755 198.45 91.8175 201.247 87.3457 204.043C89.6024 207.172 95.6387 210.44 98.9753 208.349C102.312 206.259 102.672 199.71 100.747 195.654Z" fill="url(#paint6_radial)"/>
<path opacity="0.5" fill-rule="evenodd" clip-rule="evenodd" d="M100.747 195.654C99.003 196.747 97.2447 197.841 95.5003 198.949C96.6771 201.759 95.7357 205.373 89.3948 206.134C91.4715 207.795 94.2958 209.083 96.6633 209.014C95.4449 205.58 100.249 200.333 100.747 195.654Z" fill="url(#paint7_linear)"/>
<path fill-rule="evenodd" clip-rule="evenodd" d="M100.747 195.654C96.2755 198.45 91.8175 201.247 87.3457 204.043C87.7887 204.57 91.4714 202.853 94.808 200.762C98.1446 198.686 101.066 196.29 100.747 195.654Z" fill="url(#paint8_linear)"/>
<path fill-rule="evenodd" clip-rule="evenodd" d="M87.4012 204.237C87.152 204.306 87.0551 203.933 87.3043 203.863C92.5653 202.424 97.0925 199.738 100.609 195.543C100.775 195.349 101.066 195.598 100.914 195.792C97.3279 200.056 92.7314 202.77 87.4012 204.237Z" fill="#3B0201"/>
<path fill-rule="evenodd" clip-rule="evenodd" d="M81.7111 204.86L82.7909 204.293C83.234 204.057 83.8016 204.224 84.037 204.68L86.2244 208.848C86.4598 209.291 86.2937 209.858 85.8368 210.094L84.7569 210.661C84.3139 210.897 83.7462 210.731 83.5109 210.274L81.3234 206.106C81.088 205.65 81.268 205.096 81.7111 204.86Z" fill="#3B0201"/>
<path fill-rule="evenodd" clip-rule="evenodd" d="M81.8495 205.137L82.9294 204.57C83.234 204.417 83.5939 204.528 83.7601 204.819L85.9475 208.986C86.0998 209.291 85.9891 209.651 85.6983 209.817L84.6184 210.384C84.3139 210.537 83.9539 210.426 83.7878 210.135L81.6003 205.968C81.4342 205.663 81.5588 205.29 81.8495 205.137Z" fill="url(#paint9_linear)"/>
<path fill-rule="evenodd" clip-rule="evenodd" d="M82.251 205.608L83.1094 205.165C83.3448 205.04 83.6355 205.137 83.7601 205.373L85.5045 208.681C85.6291 208.917 85.5322 209.208 85.2969 209.332L84.4385 209.775C84.2031 209.9 83.9124 209.803 83.7878 209.568L82.0433 206.259C81.9187 206.037 82.0157 205.733 82.251 205.608Z" fill="url(#paint10_radial)"/>
<path opacity="0.5" fill-rule="evenodd" clip-rule="evenodd" d="M81.8495 205.137C83.2063 207.74 84.2723 208.765 85.9475 208.986C86.0998 209.291 85.9891 209.651 85.6983 209.817L84.6184 210.384C84.7292 209.637 82.2925 206.397 81.6003 205.968C81.4342 205.663 81.5588 205.289 81.8495 205.137Z" fill="url(#paint11_linear)"/>
<path fill-rule="evenodd" clip-rule="evenodd" d="M85.1445 210.938L85.9059 210.537C86.2244 210.371 86.6259 210.495 86.792 210.814L88.3565 213.776C88.5226 214.095 88.398 214.496 88.0796 214.662L87.3181 215.064C86.9997 215.23 86.5982 215.105 86.432 214.787L84.8676 211.824C84.7014 211.506 84.8261 211.104 85.1445 210.938Z" fill="#3B0201"/>
<path fill-rule="evenodd" clip-rule="evenodd" d="M85.2414 211.132L86.0029 210.73C86.2105 210.62 86.4736 210.703 86.5982 210.91L88.1626 213.873C88.2734 214.081 88.1903 214.344 87.9827 214.469L87.2212 214.87C87.0135 214.981 86.7505 214.898 86.6259 214.69L85.0614 211.727C84.9507 211.506 85.0337 211.243 85.2414 211.132Z" fill="url(#paint12_linear)"/>
<path fill-rule="evenodd" clip-rule="evenodd" d="M85.5183 211.478L86.1275 211.16C86.2936 211.077 86.5013 211.132 86.5982 211.298L87.8442 213.652C87.9273 213.818 87.8719 214.025 87.6919 214.122L87.0828 214.441C86.9166 214.524 86.7089 214.469 86.612 214.302L85.366 211.949C85.2829 211.769 85.3522 211.561 85.5183 211.478Z" fill="url(#paint13_radial)"/>
<path opacity="0.5" fill-rule="evenodd" clip-rule="evenodd" d="M85.2414 211.132C86.2105 212.987 86.972 213.721 88.1626 213.873C88.2734 214.081 88.1903 214.344 87.9827 214.469L87.2212 214.87C87.3043 214.33 85.5598 212.032 85.0753 211.727C84.9507 211.506 85.0337 211.243 85.2414 211.132Z" fill="url(#paint14_linear)"/>
<path fill-rule="evenodd" clip-rule="evenodd" d="M95.2374 219.799L105.801 235.36C105.856 235.443 105.842 235.568 105.746 235.637C105.662 235.692 105.538 235.679 105.469 235.582L94.8636 219.965L86.1276 223.786C86.0307 223.828 85.9199 223.772 85.8784 223.661C83.5525 216.836 79.7036 207.103 74.2211 202.244C74.0273 202.077 74.2904 201.787 74.4842 201.953C79.9805 206.826 83.8294 216.49 86.1968 223.329L109.608 213.084C109.844 212.987 109.996 213.333 109.761 213.444L95.2374 219.799ZM111.782 208.958C110.688 207.865 109.221 207.768 107.767 207.768L107.933 180.812C107.933 180.563 107.545 180.549 107.545 180.812L107.379 207.961C107.379 208.072 107.462 208.155 107.573 208.155C108.971 208.155 110.453 208.183 111.505 209.235C111.685 209.415 111.962 209.138 111.782 208.958ZM77.8623 199.156L82.1126 203.573C82.1818 203.642 82.2926 203.656 82.3618 203.6L102.935 188.648C102.99 188.607 103.018 188.551 103.018 188.496L103.378 180.812C103.392 180.563 103.004 180.535 102.99 180.798L102.63 188.385L82.2788 203.171L78.1392 198.879C77.9592 198.699 77.6823 198.976 77.8623 199.156Z" fill="#3B0201"/>
<path opacity="0.5" fill-rule="evenodd" clip-rule="evenodd" d="M77.5299 221.419C79.9112 222.014 82.7632 222.706 86.0721 223.592C91.4715 229.545 95.8465 235.319 102.021 242.587C104.43 237.838 106.839 233.09 109.248 228.341C109.553 227.759 109.677 227.192 109.677 226.527C109.622 221.488 109.207 217.694 109.677 213.25C109.843 211.727 111.533 210.606 111.629 209.083C111.713 206.12 111.796 203.144 111.879 200.181C106.867 210.163 90.3086 219.674 77.5299 221.419Z" fill="url(#paint15_linear)"/>
<path fill-rule="evenodd" clip-rule="evenodd" d="M162.924 180.812C164.433 180.812 165.956 180.812 167.465 180.812C177.074 187.901 187.332 194.2 196.304 202.091C197.951 203.545 197.771 206.245 198.657 208.252C199.779 210.814 200.886 213.402 202.285 215.825C204.417 219.508 198.99 219.73 184.591 223.578C179.192 229.532 174.817 235.305 168.642 242.573C166.233 237.825 163.824 233.076 161.415 228.327C161.124 227.746 160.986 227.178 160.986 226.513C161.041 221.474 161.457 217.68 160.986 213.236C160.82 211.713 159.131 210.592 159.034 209.069C158.48 200.97 159.034 192.815 159.034 184.689C159.02 182.57 160.778 180.812 162.924 180.812Z" fill="url(#paint16_linear)"/>
<path fill-rule="evenodd" clip-rule="evenodd" d="M162.924 179.248H167.465C167.853 179.248 168.213 179.386 168.49 179.635C171.536 181.878 174.831 184.162 178.112 186.447C184.702 191.029 191.292 195.598 197.328 200.928C198.768 202.188 199.128 203.863 199.488 205.553C199.654 206.3 199.82 207.062 200.07 207.643L200.18 207.906C201.246 210.357 202.312 212.807 203.614 215.064C204.943 217.376 204.528 218.885 202.257 220.2C200.54 221.197 197.494 221.945 192.87 223.08C190.766 223.592 188.329 224.201 185.408 224.977C182.39 228.327 179.579 231.761 176.547 235.471C174.512 237.949 172.38 240.566 169.819 243.584C169.265 244.235 168.282 244.318 167.618 243.764C167.451 243.625 167.313 243.445 167.216 243.252L160.003 229.047C159.795 228.646 159.643 228.244 159.546 227.815C159.449 227.399 159.408 226.984 159.408 226.513C159.421 224.894 159.477 223.468 159.518 222.083C159.629 219.079 159.712 216.379 159.408 213.416V213.389C159.366 213.042 159.034 212.558 158.702 212.087C158.12 211.243 157.525 210.384 157.456 209.194C157.082 203.753 157.206 198.284 157.331 192.815C157.386 190.24 157.442 187.665 157.442 184.716C157.442 183.207 158.051 181.85 159.048 180.854C160.058 179.857 161.429 179.248 162.924 179.248ZM184.591 223.592C179.192 229.545 174.817 235.319 168.642 242.587C166.233 237.838 163.824 233.09 161.415 228.341C161.124 227.759 160.986 227.192 160.986 226.527C161.041 221.488 161.457 217.694 160.986 213.25C160.82 211.727 159.131 210.606 159.034 209.083C158.48 200.984 159.034 192.829 159.034 184.702C159.034 182.556 160.792 180.798 162.938 180.798C164.447 180.798 165.97 180.798 167.479 180.798C177.087 187.887 187.346 194.186 196.318 202.077C197.965 203.531 197.785 206.231 198.671 208.238C199.793 210.8 200.9 213.389 202.299 215.811C204.403 219.522 198.976 219.729 184.591 223.592Z" fill="black"/>
<path opacity="0.5" fill-rule="evenodd" clip-rule="evenodd" d="M162.924 180.812C164.433 180.812 165.956 180.812 167.465 180.812C177.073 187.901 187.332 194.2 196.304 202.091C193.673 204.168 192.51 206.051 190.863 208.723C190.794 206.882 190.018 204.943 188.772 203.005C190.794 199.018 185.2 195.127 181.351 192.317C168.6 183.013 168.96 184.495 167.784 187.084C167.604 185.755 167.354 182.653 165.042 182.556C163.118 182.473 163.132 183.761 162.952 185.339C161.443 184.924 160.1 184.702 159.006 184.716C159.02 182.57 160.778 180.812 162.924 180.812Z" fill="url(#paint17_linear)"/>
<path opacity="0.5" fill-rule="evenodd" clip-rule="evenodd" d="M181.102 227.552C179.939 228.95 169.93 241.064 168.628 242.587C166.219 237.838 163.81 233.09 161.401 228.341C161.111 227.76 160.972 227.192 160.972 226.527C161.028 221.488 161.443 217.694 160.972 213.25C160.806 211.727 159.117 210.606 159.02 209.083C158.466 200.984 159.02 192.829 159.02 184.702C159.02 182.556 160.778 180.798 162.924 180.798C160.488 183.027 158.854 205.968 163.063 207.878C163.077 211.132 163.09 214.441 163.09 217.722C163.09 221.585 162.744 222.637 165.873 229.421C166.039 229.795 168.268 229.31 172.422 224.561C168.587 230.556 168.628 233.284 168.794 233.56C171.328 237.52 176.215 232.204 181.102 227.552Z" fill="url(#paint18_linear)"/>
<path fill-rule="evenodd" clip-rule="evenodd" d="M195.861 205.096C196.968 206.079 196.498 207.228 197.176 208.958C197.868 210.717 199.557 214.15 200.499 215.784C201.925 218.262 196.47 218.927 186.502 221.432C185.533 216.019 191.998 205.566 195.861 205.096Z" fill="url(#paint19_linear)"/>
<path fill-rule="evenodd" clip-rule="evenodd" d="M196.304 202.091C197.314 202.977 197.633 204.32 197.937 205.691C193.77 201.524 183.636 220.242 188.052 222.678C187.014 222.845 185.879 223.329 184.591 223.578C187.388 214.967 190.807 207.615 196.304 202.091Z" fill="#730200"/>
<path opacity="0.5" fill-rule="evenodd" clip-rule="evenodd" d="M191.721 209.969C186.848 217.279 185.173 221.405 189.575 220.782C191.998 220.436 204.403 216.338 196.788 218.484C181.85 222.692 193.327 208.488 194.795 206.909C196.082 205.525 193.687 207.02 191.721 209.969Z" fill="url(#paint20_linear)"/>
<path opacity="0.5" fill-rule="evenodd" clip-rule="evenodd" d="M160.972 213.264C168.85 216.711 176.713 220.145 184.577 223.592C184.923 222.554 185.283 221.529 185.629 220.491C176.755 216.698 167.881 212.89 159.006 209.097C159.186 210.481 160.751 211.824 160.972 213.264Z" fill="url(#paint21_linear)"/>
<path fill-rule="evenodd" clip-rule="evenodd" d="M183.525 203.725L170.082 195.307C169.888 195.211 169.653 195.294 169.57 195.487C167.839 199.142 167.618 206.259 171.48 208.681C175.163 210.994 181.421 207.339 183.636 204.279L183.65 204.251C183.761 204.071 183.705 203.836 183.525 203.725Z" fill="#3B0201"/>
<path fill-rule="evenodd" clip-rule="evenodd" d="M169.916 195.654C174.388 198.45 178.846 201.247 183.318 204.043C181.061 207.172 175.025 210.44 171.688 208.349C168.338 206.259 167.991 199.71 169.916 195.654Z" fill="url(#paint22_radial)"/>
<path opacity="0.5" fill-rule="evenodd" clip-rule="evenodd" d="M169.916 195.654C171.66 196.747 173.419 197.841 175.163 198.949C173.986 201.759 174.928 205.373 181.269 206.134C179.192 207.795 176.368 209.083 174 209.014C175.218 205.58 170.4 200.333 169.916 195.654Z" fill="url(#paint23_linear)"/>
<path fill-rule="evenodd" clip-rule="evenodd" d="M169.916 195.654C174.388 198.45 178.846 201.247 183.318 204.043C182.875 204.57 179.192 202.853 175.855 200.762C172.519 198.686 169.584 196.29 169.916 195.654Z" fill="url(#paint24_linear)"/>
<path fill-rule="evenodd" clip-rule="evenodd" d="M183.262 204.237C183.511 204.306 183.608 203.933 183.359 203.863C178.098 202.424 173.571 199.738 170.054 195.543C169.888 195.349 169.597 195.598 169.75 195.792C173.335 200.056 177.932 202.77 183.262 204.237Z" fill="#3B0201"/>
<path fill-rule="evenodd" clip-rule="evenodd" d="M188.952 204.86L187.872 204.293C187.429 204.057 186.862 204.224 186.626 204.68L184.439 208.848C184.203 209.291 184.37 209.858 184.826 210.094L185.906 210.661C186.349 210.897 186.903 210.731 187.152 210.274L189.34 206.106C189.575 205.65 189.395 205.096 188.952 204.86Z" fill="#3B0201"/>
<path fill-rule="evenodd" clip-rule="evenodd" d="M188.8 205.137L187.72 204.57C187.415 204.417 187.055 204.528 186.889 204.819L184.702 208.986C184.55 209.291 184.66 209.651 184.951 209.817L186.031 210.384C186.322 210.537 186.695 210.426 186.862 210.135L189.049 205.968C189.215 205.663 189.104 205.29 188.8 205.137Z" fill="url(#paint25_linear)"/>
<path fill-rule="evenodd" clip-rule="evenodd" d="M188.412 205.608L187.554 205.165C187.318 205.04 187.028 205.137 186.903 205.373L185.159 208.681C185.034 208.917 185.131 209.208 185.366 209.332L186.225 209.775C186.46 209.9 186.751 209.803 186.875 209.568L188.62 206.259C188.744 206.037 188.648 205.733 188.412 205.608Z" fill="url(#paint26_radial)"/>
<path opacity="0.5" fill-rule="evenodd" clip-rule="evenodd" d="M188.8 205.137C187.443 207.74 186.377 208.765 184.702 208.986C184.55 209.291 184.66 209.651 184.951 209.817L186.031 210.384C185.92 209.637 188.357 206.397 189.049 205.968C189.215 205.663 189.104 205.289 188.8 205.137Z" fill="url(#paint27_linear)"/>
<path fill-rule="evenodd" clip-rule="evenodd" d="M185.519 210.938L184.757 210.537C184.439 210.371 184.037 210.495 183.871 210.814L182.307 213.776C182.141 214.095 182.265 214.496 182.584 214.662L183.345 215.064C183.664 215.23 184.065 215.105 184.231 214.787L185.796 211.824C185.962 211.506 185.837 211.104 185.519 210.938Z" fill="#3B0201"/>
<path fill-rule="evenodd" clip-rule="evenodd" d="M185.422 211.132L184.66 210.73C184.453 210.62 184.19 210.703 184.065 210.91L182.501 213.873C182.39 214.081 182.473 214.344 182.681 214.469L183.442 214.87C183.65 214.981 183.913 214.898 184.037 214.69L185.602 211.727C185.713 211.506 185.63 211.243 185.422 211.132Z" fill="url(#paint28_linear)"/>
<path fill-rule="evenodd" clip-rule="evenodd" d="M185.131 211.478L184.522 211.16C184.356 211.077 184.148 211.132 184.051 211.298L182.805 213.652C182.722 213.818 182.778 214.025 182.958 214.122L183.567 214.441C183.733 214.524 183.94 214.469 184.037 214.302L185.283 211.949C185.367 211.769 185.311 211.561 185.131 211.478Z" fill="url(#paint29_radial)"/>
<path opacity="0.5" fill-rule="evenodd" clip-rule="evenodd" d="M185.422 211.132C184.453 212.987 183.691 213.721 182.501 213.873C182.39 214.081 182.473 214.344 182.681 214.469L183.442 214.87C183.359 214.33 185.103 212.032 185.588 211.727C185.713 211.506 185.63 211.243 185.422 211.132Z" fill="url(#paint30_linear)"/>
<path fill-rule="evenodd" clip-rule="evenodd" d="M175.426 219.799L164.862 235.36C164.807 235.443 164.821 235.568 164.918 235.637C165.001 235.692 165.126 235.679 165.195 235.582L175.786 219.951L184.522 223.772C184.619 223.814 184.73 223.758 184.771 223.648C187.111 216.836 190.96 207.089 196.442 202.244C196.636 202.077 196.373 201.787 196.179 201.953C190.683 206.826 186.834 216.49 184.467 223.329L161.055 213.084C160.82 212.987 160.668 213.333 160.903 213.444L175.426 219.799ZM158.882 208.958C159.975 207.865 161.443 207.768 162.897 207.768L162.73 180.812C162.73 180.563 163.118 180.549 163.118 180.812L163.284 207.961C163.284 208.072 163.201 208.155 163.09 208.155C161.692 208.155 160.211 208.183 159.158 209.235C158.978 209.415 158.702 209.138 158.882 208.958ZM192.801 199.156L188.551 203.573C188.482 203.642 188.371 203.656 188.302 203.6L167.728 188.648C167.673 188.607 167.645 188.551 167.645 188.496L167.285 180.812C167.271 180.563 167.659 180.535 167.673 180.798L168.033 188.385L188.385 203.171L192.524 198.879C192.704 198.699 192.981 198.976 192.801 199.156Z" fill="#3B0201"/>
<path opacity="0.5" fill-rule="evenodd" clip-rule="evenodd" d="M193.133 221.419C190.752 222.014 187.9 222.706 184.591 223.592C179.192 229.545 174.817 235.319 168.642 242.587C166.233 237.838 163.824 233.09 161.415 228.341C161.124 227.759 160.986 227.192 160.986 226.527C161.041 221.488 161.457 217.694 160.986 213.25C160.82 211.727 159.131 210.606 159.034 209.083C158.951 206.12 158.868 203.144 158.785 200.181C163.796 210.163 180.355 219.674 193.133 221.419Z" fill="url(#paint31_linear)"/>
</g>
</g>
<defs>
<linearGradient id="paint0_linear" x1="111.833" y1="211.696" x2="72.8253" y2="211.694" gradientUnits="userSpaceOnUse">
<stop stop-color="#7A0604"/>
<stop offset="1" stop-color="#C2391E"/>
</linearGradient>
<linearGradient id="paint1_linear" x1="107.784" y1="183.974" x2="76.208" y2="204.897" gradientUnits="userSpaceOnUse">
<stop stop-color="#C2391E"/>
<stop offset="1" stop-color="#F3CAD9"/>
</linearGradient>
<linearGradient id="paint2_linear" x1="100.719" y1="235.311" x2="100.72" y2="180.823" gradientUnits="userSpaceOnUse">
<stop stop-color="#C2391E"/>
<stop offset="1" stop-color="white"/>
</linearGradient>
<linearGradient id="paint3_linear" x1="77.9426" y1="213.966" x2="71.4334" y2="216.967" gradientUnits="userSpaceOnUse">
<stop stop-color="#C2391E"/>
<stop offset="1" stop-color="#F36E21"/>
</linearGradient>
<linearGradient id="paint4_linear" x1="73.9497" y1="210.216" x2="78.7284" y2="220.764" gradientUnits="userSpaceOnUse">
<stop stop-color="#F36E21"/>
<stop offset="1" stop-color="white"/>
</linearGradient>
<linearGradient id="paint5_linear" x1="98.9405" y1="216.541" x2="98.7733" y2="216.138" gradientUnits="userSpaceOnUse">
<stop stop-color="#7A0604"/>
<stop offset="1" stop-color="white"/>
</linearGradient>
<radialGradient id="paint6_radial" cx="0" cy="0" r="1" gradientUnits="userSpaceOnUse" gradientTransform="translate(94.0455 199.853) scale(9.76765)">
<stop stop-color="#C2391E"/>
<stop offset="1" stop-color="#7A0604"/>
</radialGradient>
<linearGradient id="paint7_linear" x1="93.916" y1="205.327" x2="96.7801" y2="198.108" gradientUnits="userSpaceOnUse">
<stop stop-color="#C2391E"/>
<stop offset="1" stop-color="white"/>
</linearGradient>
<linearGradient id="paint8_linear" x1="94.3674" y1="200.321" x2="94.2963" y2="200.217" gradientUnits="userSpaceOnUse">
<stop stop-color="#3A0000"/>
<stop offset="1" stop-color="#7A0604"/>
</linearGradient>
<linearGradient id="paint9_linear" x1="84.746" y1="209.322" x2="82.6585" y2="205.356" gradientUnits="userSpaceOnUse">
<stop stop-color="#00290D"/>
<stop offset="1" stop-color="#185C22"/>
</linearGradient>
<radialGradient id="paint10_radial" cx="0" cy="0" r="1" gradientUnits="userSpaceOnUse" gradientTransform="translate(83.4238 206.694) rotate(-117.808) scale(2.47167 1.04307)">
<stop stop-color="#80C342"/>
<stop offset="1" stop-color="#2F943E"/>
</radialGradient>
<linearGradient id="paint11_linear" x1="85.0001" y1="209.376" x2="81.8341" y2="205.958" gradientUnits="userSpaceOnUse">
<stop stop-color="#2F943E"/>
<stop offset="1" stop-color="white"/>
</linearGradient>
<linearGradient id="paint12_linear" x1="87.303" y1="214.116" x2="85.8152" y2="211.289" gradientUnits="userSpaceOnUse">
<stop stop-color="#00290D"/>
<stop offset="1" stop-color="#185C22"/>
</linearGradient>
<radialGradient id="paint13_radial" cx="0" cy="0" r="1" gradientUnits="userSpaceOnUse" gradientTransform="translate(86.3608 212.244) rotate(-117.808) scale(1.76164 0.743423)">
<stop stop-color="#80C342"/>
<stop offset="1" stop-color="#2F943E"/>
</radialGradient>
<linearGradient id="paint14_linear" x1="87.4836" y1="214.154" x2="85.2269" y2="211.717" gradientUnits="userSpaceOnUse">
<stop stop-color="#2F943E"/>
<stop offset="1" stop-color="white"/>
</linearGradient>
<linearGradient id="paint15_linear" x1="102.896" y1="236.537" x2="94.676" y2="210.707" gradientUnits="userSpaceOnUse">
<stop stop-color="#7A0604"/>
<stop offset="1" stop-color="white"/>
</linearGradient>
<linearGradient id="paint16_linear" x1="158.827" y1="211.696" x2="197.834" y2="211.694" gradientUnits="userSpaceOnUse">
<stop stop-color="#7A0604"/>
<stop offset="1" stop-color="#C2391E"/>
</linearGradient>
<linearGradient id="paint17_linear" x1="162.876" y1="183.974" x2="194.452" y2="204.897" gradientUnits="userSpaceOnUse">
<stop stop-color="#C2391E"/>
<stop offset="1" stop-color="#F3CAD9"/>
</linearGradient>
<linearGradient id="paint18_linear" x1="169.941" y1="235.311" x2="169.939" y2="180.823" gradientUnits="userSpaceOnUse">
<stop stop-color="#C2391E"/>
<stop offset="1" stop-color="white"/>
</linearGradient>
<linearGradient id="paint19_linear" x1="192.717" y1="213.966" x2="199.226" y2="216.967" gradientUnits="userSpaceOnUse">
<stop stop-color="#C2391E"/>
<stop offset="1" stop-color="#F36E21"/>
</linearGradient>
<linearGradient id="paint20_linear" x1="196.71" y1="210.216" x2="191.931" y2="220.764" gradientUnits="userSpaceOnUse">
<stop stop-color="#F36E21"/>
<stop offset="1" stop-color="white"/>
</linearGradient>
<linearGradient id="paint21_linear" x1="171.719" y1="216.541" x2="171.886" y2="216.138" gradientUnits="userSpaceOnUse">
<stop stop-color="#7A0604"/>
<stop offset="1" stop-color="white"/>
</linearGradient>
<radialGradient id="paint22_radial" cx="0" cy="0" r="1" gradientUnits="userSpaceOnUse" gradientTransform="translate(176.614 199.853) scale(9.76809)">
<stop stop-color="#C2391E"/>
<stop offset="1" stop-color="#7A0604"/>
</radialGradient>
<linearGradient id="paint23_linear" x1="176.744" y1="205.327" x2="173.88" y2="198.108" gradientUnits="userSpaceOnUse">
<stop stop-color="#C2391E"/>
<stop offset="1" stop-color="white"/>
</linearGradient>
<linearGradient id="paint24_linear" x1="176.292" y1="200.321" x2="176.363" y2="200.217" gradientUnits="userSpaceOnUse">
<stop stop-color="#3A0000"/>
<stop offset="1" stop-color="#7A0604"/>
</linearGradient>
<linearGradient id="paint25_linear" x1="185.914" y1="209.322" x2="188.001" y2="205.356" gradientUnits="userSpaceOnUse">
<stop stop-color="#00290D"/>
<stop offset="1" stop-color="#185C22"/>
</linearGradient>
<radialGradient id="paint26_radial" cx="0" cy="0" r="1" gradientUnits="userSpaceOnUse" gradientTransform="translate(187.244 206.692) rotate(-62.192) scale(2.47162 1.04304)">
<stop stop-color="#80C342"/>
<stop offset="1" stop-color="#2F943E"/>
</radialGradient>
<linearGradient id="paint27_linear" x1="185.659" y1="209.376" x2="188.826" y2="205.958" gradientUnits="userSpaceOnUse">
<stop stop-color="#2F943E"/>
<stop offset="1" stop-color="white"/>
</linearGradient>
<linearGradient id="paint28_linear" x1="183.357" y1="214.116" x2="184.844" y2="211.289" gradientUnits="userSpaceOnUse">
<stop stop-color="#00290D"/>
<stop offset="1" stop-color="#185C22"/>
</linearGradient>
<radialGradient id="paint29_radial" cx="0" cy="0" r="1" gradientUnits="userSpaceOnUse" gradientTransform="translate(184.307 212.241) rotate(-62.192) scale(1.76178 0.743484)">
<stop stop-color="#80C342"/>
<stop offset="1" stop-color="#2F943E"/>
</radialGradient>
<linearGradient id="paint30_linear" x1="183.176" y1="214.154" x2="185.433" y2="211.717" gradientUnits="userSpaceOnUse">
<stop stop-color="#2F943E"/>
<stop offset="1" stop-color="white"/>
</linearGradient>
<linearGradient id="paint31_linear" x1="167.764" y1="236.537" x2="175.984" y2="210.707" gradientUnits="userSpaceOnUse">
<stop stop-color="#7A0604"/>
<stop offset="1" stop-color="white"/>
</linearGradient>
<clipPath id="clip0">
<rect width="270" height="370" fill="white"/>
</clipPath>
<clipPath id="clip1">
<rect x="66.2742" y="118.649" width="138.115" height="125.489" fill="white"/>
</clipPath>
</defs>
</svg>
