<svg width="270" height="370" viewBox="0 0 270 370" fill="none" xmlns="http://www.w3.org/2000/svg">
<g clip-path="url(#clip0)">
<g clip-path="url(#clip1)">
<path fill-rule="evenodd" clip-rule="evenodd" d="M111.602 180.812C100.471 187.9 89.3396 195.003 78.2223 202.091C71.0922 204.016 63.9622 205.94 56.8322 207.865C55.9738 208.1 55.3923 208.861 55.3923 209.747C55.3923 211.256 55.3923 212.752 55.3923 214.261C55.3923 215.188 56.0153 215.964 56.9153 216.171C67.0773 218.456 77.2393 220.726 87.4013 223.011C89.1181 223.398 90.7102 223.232 92.3162 222.512C99.3632 219.342 106.493 216.351 113.568 213.25C114.62 212.793 115.52 210.62 115.52 209.083C115.52 201.039 115.52 192.829 115.52 184.702C115.506 182.57 113.416 179.649 111.602 180.812Z" fill="url(#paint0_linear)"/>
<path fill-rule="evenodd" clip-rule="evenodd" d="M111.602 180.812C100.471 187.9 89.3396 195.003 78.2223 202.091C71.0922 204.016 63.9622 205.94 56.8322 207.865C55.9738 208.1 55.3923 208.861 55.3923 209.747C55.3923 211.257 55.3923 212.752 55.3923 214.261C55.3923 215.188 56.0153 215.964 56.9152 216.171C67.0773 218.456 77.2393 220.726 87.4013 223.011C89.118 223.398 90.7102 223.232 92.3162 222.512C99.3631 219.342 106.493 216.351 113.568 213.25C114.62 212.793 115.52 210.62 115.52 209.083C115.52 201.039 115.52 192.829 115.52 184.702C115.506 182.57 113.416 179.649 111.602 180.812ZM77.5992 200.651L110.771 179.497C111.325 179.151 111.906 178.984 112.474 178.984C113.236 178.984 113.969 179.275 114.606 179.746C115.146 180.147 115.617 180.687 116.004 181.283C116.655 182.307 117.084 183.581 117.084 184.716V209.097C117.084 210.107 116.78 211.326 116.309 212.336C115.811 213.402 115.063 214.316 114.191 214.704C111.02 216.088 108.667 217.099 106.313 218.123C101.744 220.089 97.1757 222.069 92.953 223.952C91.9977 224.381 91.0425 224.644 90.0595 224.741C89.0765 224.838 88.0935 224.769 87.069 224.547L56.5553 217.694C55.7523 217.514 55.0739 217.071 54.5755 216.462C54.0909 215.853 53.8002 215.091 53.8002 214.261V209.747C53.8002 208.944 54.0632 208.211 54.5201 207.615C54.977 207.02 55.6277 206.563 56.403 206.355L77.5992 200.651Z" fill="black"/>
<path fill-rule="evenodd" clip-rule="evenodd" d="M111.768 214.039L113.54 213.264C114.592 212.807 115.492 210.634 115.492 209.097C115.492 201.053 115.492 192.843 115.492 184.716C115.492 182.639 113.526 179.843 111.754 180.715V214.039H111.768Z" fill="url(#paint1_linear)"/>
<path fill-rule="evenodd" clip-rule="evenodd" d="M55.4061 212.198C55.2954 212.212 55.1985 212.143 55.1846 212.046C55.1708 211.935 55.24 211.838 55.3369 211.824L80.9635 207.006C81.0742 206.992 81.1712 207.062 81.185 207.159C81.1988 207.269 81.1296 207.366 81.0327 207.38L55.4061 212.198ZM104.153 193.951C104.07 194.02 103.946 193.992 103.876 193.909C103.807 193.826 103.835 193.702 103.918 193.632L111.339 188.247C112.031 187.734 112.903 187.693 113.651 188.122L115.589 189.216C115.686 189.271 115.714 189.382 115.658 189.479C115.603 189.576 115.492 189.603 115.395 189.548L113.457 188.454C112.848 188.108 112.128 188.15 111.56 188.565L104.153 193.951Z" fill="#3B0201"/>
<path opacity="0.5" fill-rule="evenodd" clip-rule="evenodd" d="M111.602 180.812C100.471 187.9 89.3396 195.003 78.2223 202.091C71.0922 204.016 63.9622 205.94 56.8322 207.865C55.9738 208.1 55.3923 208.861 55.3923 209.747C67.7557 206.439 77.53 204.306 81.0466 203.365C87.2767 201.69 111.394 180.881 115.52 188.607V184.702C115.506 182.57 113.416 179.649 111.602 180.812Z" fill="url(#paint2_linear)"/>
<path fill-rule="evenodd" clip-rule="evenodd" d="M104.721 202.507H107.061C107.711 202.507 108.238 203.033 108.238 203.684V209.941C108.238 210.592 107.711 211.118 107.061 211.118H104.721C104.07 211.118 103.544 210.592 103.544 209.941V203.684C103.544 203.033 104.07 202.507 104.721 202.507ZM96.8987 206.411H99.2385C99.8892 206.411 100.415 206.937 100.415 207.588V213.846C100.415 214.496 99.8892 215.022 99.2385 215.022H96.8987C96.248 215.022 95.7219 214.496 95.7219 213.846V207.588C95.7358 206.937 96.2619 206.411 96.8987 206.411ZM96.8987 206.799C96.4695 206.799 96.1234 207.145 96.1234 207.574V213.832C96.1234 214.261 96.4695 214.607 96.8987 214.607H99.2385C99.6677 214.607 100.014 214.261 100.014 213.832V207.574C100.014 207.145 99.6677 206.799 99.2385 206.799H96.8987ZM104.721 202.894C104.292 202.894 103.946 203.24 103.946 203.67V209.927C103.946 210.357 104.292 210.703 104.721 210.703H107.061C107.49 210.703 107.836 210.357 107.836 209.927V203.67C107.836 203.24 107.49 202.894 107.061 202.894H104.721Z" fill="#3B0201"/>
<path opacity="0.5" fill-rule="evenodd" clip-rule="evenodd" d="M111.602 180.812C110.356 181.615 109.096 182.404 107.85 183.207C107.85 204.348 109.553 208.82 96.1234 216.573C87.7197 221.418 64.862 216.573 55.3784 214.261C55.3784 215.188 56.0014 215.964 56.9013 216.171C67.0634 218.456 77.2254 220.726 87.3874 223.011C89.1041 223.398 90.6963 223.232 92.3023 222.512C99.3492 219.342 106.479 216.351 113.554 213.25C114.606 212.793 115.506 210.62 115.506 209.083C115.506 201.039 115.506 192.829 115.506 184.702C115.506 182.57 113.415 179.649 111.602 180.812Z" fill="url(#paint3_linear)"/>
<path fill-rule="evenodd" clip-rule="evenodd" d="M87.5813 223.011C87.5813 223.121 87.4982 223.205 87.3874 223.205C87.2767 223.205 87.1936 223.121 87.1936 223.011V210.661C87.1936 210.55 87.2767 210.467 87.3874 210.467C87.4982 210.467 87.5813 210.55 87.5813 210.661V223.011ZM92.4961 222.512C92.4961 222.623 92.413 222.706 92.3023 222.706C92.1915 222.706 92.1085 222.623 92.1085 222.512V207.532C92.1085 207.422 92.1915 207.339 92.3023 207.339C92.413 207.339 92.4961 207.422 92.4961 207.532V222.512Z" fill="#3B0201"/>
<path fill-rule="evenodd" clip-rule="evenodd" d="M78.07 202.188C78.0146 202.105 78.0423 201.994 78.1392 201.953C78.2223 201.898 78.333 201.939 78.3746 202.022L82.4864 209.041C83.594 210.813 85.7676 211.45 87.5813 210.384L103.254 200.125C104.943 199.018 105.441 196.775 104.389 195.058L100.152 188.108C100.097 188.025 100.125 187.914 100.208 187.873C100.291 187.817 100.402 187.845 100.443 187.928L104.68 194.878C105.829 196.761 105.275 199.212 103.434 200.416L87.7474 210.675C85.7538 211.838 83.3725 211.16 82.168 209.208L78.07 202.188Z" fill="#3B0201"/>
<path fill-rule="evenodd" clip-rule="evenodd" d="M100.305 188.011L78.2223 202.091L82.3342 209.111C83.4694 211.049 85.9615 211.644 87.8444 210.412L103.35 200.264C105.109 199.115 105.649 196.761 104.541 194.961L100.305 188.011Z" fill="url(#paint4_linear)"/>
<path fill-rule="evenodd" clip-rule="evenodd" d="M80.4511 215.452L81.6418 215.23C82.1402 215.133 82.4725 214.662 82.3756 214.164L81.5449 209.54C81.448 209.041 80.9772 208.709 80.4788 208.806L79.2882 209.028C78.7898 209.125 78.4575 209.595 78.5544 210.094L79.3851 214.718C79.4682 215.216 79.9527 215.549 80.4511 215.452Z" fill="#3B0201"/>
<path fill-rule="evenodd" clip-rule="evenodd" d="M80.3957 215.161L81.5864 214.939C81.9186 214.884 82.1401 214.565 82.0848 214.233L81.2541 209.609C81.1987 209.277 80.8803 209.055 80.548 209.111L79.3574 209.332C79.0251 209.388 78.8036 209.706 78.8589 210.038L79.7035 214.662C79.745 214.995 80.0634 215.216 80.3957 215.161Z" fill="url(#paint5_linear)"/>
<path fill-rule="evenodd" clip-rule="evenodd" d="M80.4096 214.538L81.3649 214.372C81.6279 214.33 81.8079 214.067 81.7525 213.804L81.088 210.135C81.0464 209.872 80.7834 209.692 80.5203 209.748L79.565 209.914C79.302 209.955 79.122 210.218 79.1774 210.481L79.8419 214.15C79.8973 214.399 80.1465 214.579 80.4096 214.538Z" fill="url(#paint6_radial)"/>
<path opacity="0.5" fill-rule="evenodd" clip-rule="evenodd" d="M80.3957 215.161C79.8696 212.267 80.0773 210.8 81.2402 209.609C81.1849 209.277 80.8664 209.055 80.5342 209.111L79.3435 209.332C79.8973 209.858 79.9665 213.901 79.6896 214.676C79.745 214.995 80.0634 215.216 80.3957 215.161Z" fill="url(#paint7_linear)"/>
<path fill-rule="evenodd" clip-rule="evenodd" d="M76.6993 214.635L77.6269 214.469C78.0146 214.399 78.2638 214.026 78.1946 213.638L77.5439 210.052C77.4746 209.665 77.1008 209.415 76.7132 209.485L75.7856 209.651C75.3979 209.72 75.1487 210.094 75.2179 210.481L75.8687 214.067C75.9517 214.441 76.3117 214.704 76.6993 214.635Z" fill="#3B0201"/>
<path fill-rule="evenodd" clip-rule="evenodd" d="M76.6579 214.399L77.5854 214.233C77.8485 214.192 78.0146 213.943 77.9731 213.679L77.3224 210.094C77.2809 209.844 77.0317 209.665 76.7686 209.706L75.841 209.872C75.5918 209.914 75.4118 210.163 75.4534 210.426L76.1041 214.012C76.1594 214.275 76.3948 214.441 76.6579 214.399Z" fill="url(#paint8_linear)"/>
<path fill-rule="evenodd" clip-rule="evenodd" d="M76.6716 213.915L77.4054 213.776C77.6131 213.735 77.7515 213.541 77.71 213.347L77.1977 210.509C77.1562 210.301 76.9624 210.177 76.7547 210.204L76.0209 210.343C75.8133 210.384 75.6748 210.578 75.7164 210.786L76.2286 213.624C76.2701 213.818 76.464 213.956 76.6716 213.915Z" fill="url(#paint9_radial)"/>
<path opacity="0.5" fill-rule="evenodd" clip-rule="evenodd" d="M76.6578 214.399C76.2424 212.17 76.4086 211.035 77.3223 210.108C77.2808 209.858 77.0316 209.678 76.7685 209.72L75.8409 209.886C76.2701 210.288 76.3255 213.43 76.104 214.012C76.1594 214.275 76.3947 214.441 76.6578 214.399Z" fill="url(#paint10_linear)"/>
<path fill-rule="evenodd" clip-rule="evenodd" d="M73.6258 213.679L74.2765 213.555C74.5534 213.499 74.7333 213.25 74.678 212.973L74.2211 210.44C74.1657 210.163 73.9165 209.983 73.6396 210.038L72.9889 210.163C72.712 210.218 72.532 210.467 72.5874 210.744L73.0443 213.278C73.0997 213.541 73.3627 213.735 73.6258 213.679Z" fill="#3B0201"/>
<path fill-rule="evenodd" clip-rule="evenodd" d="M73.598 213.513L74.2487 213.389C74.4287 213.361 74.5533 213.181 74.5118 213.001L74.0549 210.467C74.0272 210.287 73.8472 210.163 73.6673 210.204L73.0166 210.329C72.8366 210.357 72.712 210.537 72.7535 210.717L73.2104 213.25C73.2381 213.43 73.418 213.541 73.598 213.513Z" fill="url(#paint11_linear)"/>
<path fill-rule="evenodd" clip-rule="evenodd" d="M73.6119 213.167L74.1242 213.07C74.2626 213.042 74.3595 212.904 74.3318 212.766L73.9719 210.758C73.9442 210.62 73.8057 210.523 73.6673 210.55L73.155 210.647C73.0166 210.675 72.9197 210.813 72.9474 210.952L73.3073 212.959C73.3212 213.098 73.4596 213.195 73.6119 213.167Z" fill="url(#paint12_radial)"/>
<path opacity="0.5" fill-rule="evenodd" clip-rule="evenodd" d="M73.598 213.513C73.3073 211.935 73.418 211.132 74.0688 210.481C74.0411 210.301 73.8611 210.177 73.6811 210.218L73.0304 210.343C73.335 210.634 73.3765 212.849 73.2242 213.264C73.2381 213.43 73.418 213.541 73.598 213.513Z" fill="url(#paint13_linear)"/>
<path fill-rule="evenodd" clip-rule="evenodd" d="M99.0171 203.102L90.4057 208.737C89.755 207.878 89.3673 206.799 89.3673 205.622C89.3673 202.77 91.6794 200.472 94.5175 200.472C96.442 200.472 98.131 201.538 99.0171 203.102Z" fill="url(#paint14_linear)"/>
<path fill-rule="evenodd" clip-rule="evenodd" d="M98.3247 203.559L91.2501 208.183C90.7101 207.477 90.3917 206.591 90.3917 205.636C90.3917 203.296 92.2884 201.399 94.6282 201.399C96.2203 201.385 97.6048 202.257 98.3247 203.559Z" fill="#070707"/>
<path fill-rule="evenodd" clip-rule="evenodd" d="M102.534 191.819C103.254 200.125 87.8444 210.426 80.4513 205.899C81.0743 206.979 81.7112 208.045 82.3342 209.124C83.4694 211.063 85.9615 211.658 87.8444 210.426C93.0085 207.048 98.1864 203.656 103.35 200.278C105.109 199.129 105.676 196.747 104.541 194.975C103.877 193.909 103.198 192.857 102.534 191.819Z" fill="url(#paint15_linear)"/>
<path fill-rule="evenodd" clip-rule="evenodd" d="M90.2533 208.834L87.4982 210.634L86.1276 208.529C85.8922 208.169 85.9891 207.685 86.3491 207.449L87.8028 206.508C88.1627 206.272 88.6473 206.369 88.8827 206.729L90.2533 208.834Z" fill="url(#paint16_linear)"/>
<path fill-rule="evenodd" clip-rule="evenodd" d="M88.6058 209.318C88.0797 209.664 87.3597 209.512 87.0136 208.986C86.6675 208.46 86.8198 207.74 87.3459 207.394C87.872 207.048 88.5919 207.2 88.938 207.726C89.2841 208.266 89.1319 208.972 88.6058 209.318Z" fill="url(#paint17_linear)"/>
<path fill-rule="evenodd" clip-rule="evenodd" d="M88.412 209.041C88.0382 209.291 87.5398 209.18 87.2906 208.806C87.0414 208.432 87.1521 207.934 87.5259 207.685C87.8997 207.435 88.3982 207.546 88.6474 207.92C88.8966 208.294 88.7858 208.792 88.412 209.041Z" fill="url(#paint18_linear)"/>
<path fill-rule="evenodd" clip-rule="evenodd" d="M102.146 201.053L99.3909 202.853L98.0203 200.748C97.7849 200.388 97.8818 199.904 98.2418 199.668L99.6955 198.727C100.055 198.492 100.54 198.589 100.775 198.949L102.146 201.053Z" fill="url(#paint19_linear)"/>
<path fill-rule="evenodd" clip-rule="evenodd" d="M100.498 201.538C99.9724 201.884 99.2524 201.731 98.9063 201.205C98.5602 200.679 98.7125 199.959 99.2386 199.613C99.7647 199.267 100.485 199.419 100.831 199.945C101.177 200.471 101.025 201.191 100.498 201.538Z" fill="url(#paint20_linear)"/>
<path fill-rule="evenodd" clip-rule="evenodd" d="M100.318 201.261C99.9447 201.51 99.4463 201.399 99.1971 201.025C98.9479 200.651 99.0586 200.153 99.4324 199.904C99.8062 199.655 100.305 199.765 100.554 200.139C100.803 200.513 100.692 201.011 100.318 201.261Z" fill="url(#paint21_linear)"/>
<path fill-rule="evenodd" clip-rule="evenodd" d="M158.868 180.812C169.999 187.9 181.116 195.003 192.248 202.091C199.378 204.016 206.508 205.94 213.638 207.865C214.496 208.1 215.077 208.861 215.077 209.747C215.077 211.256 215.077 212.752 215.077 214.261C215.077 215.188 214.454 215.964 213.555 216.171C203.393 218.456 193.23 220.726 183.068 223.011C181.352 223.398 179.76 223.232 178.154 222.512C171.107 219.342 163.977 216.351 156.902 213.25C155.85 212.793 154.95 210.62 154.95 209.083C154.95 201.039 154.95 192.829 154.95 184.702C154.964 182.57 157.054 179.649 158.868 180.812Z" fill="url(#paint22_linear)"/>
<path fill-rule="evenodd" clip-rule="evenodd" d="M159.712 179.497L192.884 200.651L214.053 206.369C214.828 206.577 215.479 207.02 215.936 207.629C216.393 208.225 216.656 208.972 216.656 209.761V214.275C216.656 215.092 216.365 215.853 215.88 216.476C215.396 217.085 214.704 217.528 213.901 217.708L183.415 224.547C182.39 224.783 181.393 224.838 180.424 224.741C179.441 224.644 178.486 224.381 177.531 223.952C173.322 222.055 168.739 220.089 164.17 218.124C161.817 217.113 159.449 216.088 156.293 214.704C155.421 214.316 154.673 213.416 154.174 212.336C153.704 211.326 153.399 210.107 153.399 209.097V184.716C153.399 183.581 153.815 182.307 154.479 181.283C154.867 180.674 155.351 180.134 155.877 179.746C156.514 179.275 157.248 178.984 158.009 178.984C158.577 178.984 159.159 179.151 159.712 179.497ZM158.868 180.812C169.999 187.9 181.116 195.003 192.247 202.091C199.378 204.016 206.508 205.94 213.638 207.865C214.496 208.1 215.077 208.861 215.077 209.747C215.077 211.257 215.077 212.752 215.077 214.261C215.077 215.188 214.454 215.964 213.555 216.171C203.392 218.456 193.23 220.726 183.068 223.011C181.352 223.398 179.76 223.232 178.154 222.512C171.107 219.342 163.977 216.351 156.902 213.25C155.85 212.793 154.95 210.62 154.95 209.083C154.95 201.039 154.95 192.829 154.95 184.702C154.964 182.57 157.054 179.649 158.868 180.812Z" fill="black"/>
<path fill-rule="evenodd" clip-rule="evenodd" d="M158.702 214.039L156.93 213.264C155.877 212.807 154.977 210.634 154.977 209.097C154.977 201.053 154.977 192.843 154.977 184.716C154.977 182.639 156.943 179.843 158.716 180.715V214.039H158.702Z" fill="url(#paint23_linear)"/>
<path fill-rule="evenodd" clip-rule="evenodd" d="M215.064 212.198C215.174 212.212 215.271 212.143 215.285 212.046C215.299 211.935 215.23 211.838 215.133 211.824L189.506 207.006C189.395 206.992 189.299 207.062 189.285 207.159C189.271 207.269 189.34 207.366 189.437 207.38L215.064 212.198ZM166.316 193.951C166.399 194.02 166.524 193.992 166.593 193.909C166.662 193.826 166.635 193.702 166.552 193.632L159.131 188.247C158.439 187.734 157.566 187.693 156.819 188.122L154.881 189.216C154.784 189.271 154.756 189.382 154.811 189.479C154.867 189.576 154.977 189.603 155.074 189.548L157.013 188.454C157.622 188.108 158.342 188.15 158.909 188.565L166.316 193.951Z" fill="#3B0201"/>
<path opacity="0.5" fill-rule="evenodd" clip-rule="evenodd" d="M158.868 180.812C169.999 187.9 181.116 195.003 192.248 202.091C199.378 204.016 206.508 205.94 213.638 207.865C214.496 208.1 215.077 208.861 215.077 209.747C202.714 206.439 192.94 204.306 189.423 203.365C183.193 201.69 159.076 180.881 154.95 188.607V184.702C154.964 182.57 157.054 179.649 158.868 180.812Z" fill="url(#paint24_linear)"/>
<path fill-rule="evenodd" clip-rule="evenodd" d="M165.749 202.507H163.409C162.758 202.507 162.232 203.033 162.232 203.684V209.941C162.232 210.592 162.758 211.118 163.409 211.118H165.749C166.399 211.118 166.925 210.592 166.925 209.941V203.684C166.925 203.033 166.399 202.507 165.749 202.507ZM173.571 206.411H171.217C170.567 206.411 170.04 206.937 170.04 207.588V213.846C170.04 214.496 170.567 215.022 171.217 215.022H173.571C174.222 215.022 174.748 214.496 174.748 213.846V207.588C174.734 206.937 174.208 206.411 173.571 206.411ZM173.571 206.799C174 206.799 174.346 207.145 174.346 207.574V213.832C174.346 214.261 174 214.607 173.571 214.607H171.217C170.788 214.607 170.442 214.261 170.442 213.832V207.574C170.442 207.145 170.788 206.799 171.217 206.799H173.571ZM165.749 202.894C166.178 202.894 166.524 203.24 166.524 203.67V209.927C166.524 210.357 166.178 210.703 165.749 210.703H163.409C162.98 210.703 162.634 210.357 162.634 209.927V203.67C162.634 203.24 162.98 202.894 163.409 202.894H165.749Z" fill="#3B0201"/>
<path opacity="0.5" fill-rule="evenodd" clip-rule="evenodd" d="M158.868 180.812C160.114 181.615 161.374 182.404 162.62 183.207C162.62 204.348 160.917 208.82 174.346 216.573C182.75 221.418 205.608 216.573 215.091 214.261C215.091 215.188 214.468 215.964 213.568 216.171C203.406 218.456 193.244 220.726 183.082 223.011C181.366 223.398 179.773 223.232 178.167 222.512C171.12 219.342 163.99 216.351 156.916 213.25C155.864 212.793 154.964 210.62 154.964 209.083C154.964 201.039 154.964 192.829 154.964 184.702C154.964 182.57 157.054 179.649 158.868 180.812Z" fill="url(#paint25_linear)"/>
<path fill-rule="evenodd" clip-rule="evenodd" d="M182.889 223.011C182.889 223.121 182.972 223.205 183.082 223.205C183.193 223.205 183.276 223.121 183.276 223.011V210.661C183.276 210.55 183.193 210.467 183.082 210.467C182.972 210.467 182.889 210.55 182.889 210.661V223.011ZM177.974 222.512C177.974 222.623 178.057 222.706 178.167 222.706C178.278 222.706 178.361 222.623 178.361 222.512V207.532C178.361 207.422 178.278 207.339 178.167 207.339C178.057 207.339 177.974 207.422 177.974 207.532V222.512Z" fill="#3B0201"/>
<path fill-rule="evenodd" clip-rule="evenodd" d="M192.4 202.188C192.455 202.105 192.427 201.994 192.344 201.953C192.261 201.898 192.151 201.939 192.109 202.022L187.997 209.041C186.89 210.813 184.716 211.45 182.902 210.384L167.23 200.125C165.541 199.018 165.043 196.775 166.095 195.058L170.331 188.108C170.387 188.025 170.359 187.914 170.276 187.873C170.193 187.817 170.082 187.845 170.041 187.928L165.804 194.878C164.655 196.761 165.209 199.212 167.05 200.416L182.736 210.675C184.73 211.838 187.111 211.16 188.316 209.208L192.4 202.188Z" fill="#3B0201"/>
<path fill-rule="evenodd" clip-rule="evenodd" d="M170.165 188.011L192.261 202.091L188.15 209.111C187.014 211.049 184.522 211.644 182.639 210.412L167.133 200.264C165.375 199.115 164.835 196.761 165.943 194.961L170.165 188.011Z" fill="url(#paint26_linear)"/>
<path fill-rule="evenodd" clip-rule="evenodd" d="M190.019 215.452L188.828 215.23C188.329 215.133 187.997 214.662 188.094 214.164L188.925 209.54C189.022 209.041 189.492 208.709 189.991 208.806L191.181 209.028C191.68 209.125 192.012 209.595 191.915 210.094L191.085 214.718C191.001 215.216 190.517 215.549 190.019 215.452Z" fill="#3B0201"/>
<path fill-rule="evenodd" clip-rule="evenodd" d="M190.074 215.161L188.883 214.939C188.551 214.884 188.329 214.565 188.385 214.233L189.216 209.609C189.271 209.277 189.589 209.055 189.922 209.111L191.112 209.332C191.445 209.388 191.666 209.706 191.611 210.038L190.766 214.662C190.725 214.995 190.406 215.216 190.074 215.161Z" fill="url(#paint27_linear)"/>
<path fill-rule="evenodd" clip-rule="evenodd" d="M190.06 214.538L189.105 214.372C188.842 214.33 188.662 214.067 188.717 213.804L189.382 210.135C189.423 209.872 189.686 209.692 189.949 209.748L190.905 209.914C191.168 209.955 191.348 210.218 191.292 210.481L190.628 214.15C190.572 214.399 190.323 214.579 190.06 214.538Z" fill="url(#paint28_radial)"/>
<path opacity="0.5" fill-rule="evenodd" clip-rule="evenodd" d="M190.074 215.161C190.6 212.267 190.406 210.8 189.229 209.609C189.285 209.277 189.603 209.055 189.935 209.111L191.126 209.332C190.572 209.858 190.503 213.901 190.78 214.676C190.725 214.995 190.406 215.216 190.074 215.161Z" fill="url(#paint29_linear)"/>
<path fill-rule="evenodd" clip-rule="evenodd" d="M193.77 214.635L192.843 214.469C192.455 214.399 192.206 214.026 192.275 213.638L192.926 210.052C192.995 209.665 193.369 209.415 193.757 209.485L194.684 209.651C195.072 209.72 195.321 210.094 195.252 210.481L194.601 214.067C194.532 214.441 194.158 214.704 193.77 214.635Z" fill="#3B0201"/>
<path fill-rule="evenodd" clip-rule="evenodd" d="M193.812 214.399L192.884 214.233C192.635 214.192 192.455 213.943 192.497 213.679L193.147 210.094C193.189 209.844 193.438 209.665 193.701 209.706L194.629 209.872C194.878 209.914 195.058 210.163 195.016 210.426L194.366 214.012C194.31 214.275 194.075 214.441 193.812 214.399Z" fill="url(#paint30_linear)"/>
<path fill-rule="evenodd" clip-rule="evenodd" d="M193.798 213.915L193.064 213.776C192.857 213.735 192.718 213.541 192.76 213.347L193.272 210.509C193.313 210.301 193.507 210.177 193.715 210.204L194.449 210.343C194.656 210.384 194.781 210.578 194.753 210.786L194.241 213.624C194.2 213.818 194.006 213.956 193.798 213.915Z" fill="url(#paint31_radial)"/>
<path opacity="0.5" fill-rule="evenodd" clip-rule="evenodd" d="M193.812 214.399C194.227 212.17 194.061 211.035 193.147 210.108C193.189 209.858 193.438 209.678 193.701 209.72L194.629 209.886C194.2 210.288 194.144 213.43 194.366 214.012C194.31 214.275 194.075 214.441 193.812 214.399Z" fill="url(#paint32_linear)"/>
<path fill-rule="evenodd" clip-rule="evenodd" d="M196.844 213.679L196.193 213.555C195.916 213.499 195.736 213.25 195.792 212.973L196.249 210.44C196.304 210.163 196.553 209.983 196.83 210.038L197.481 210.163C197.758 210.218 197.938 210.467 197.882 210.744L197.425 213.278C197.37 213.541 197.121 213.735 196.844 213.679Z" fill="#3B0201"/>
<path fill-rule="evenodd" clip-rule="evenodd" d="M196.872 213.513L196.221 213.389C196.041 213.361 195.916 213.181 195.958 213.001L196.415 210.467C196.442 210.287 196.622 210.163 196.802 210.204L197.453 210.329C197.633 210.357 197.758 210.537 197.716 210.717L197.259 213.25C197.232 213.43 197.052 213.541 196.872 213.513Z" fill="url(#paint33_linear)"/>
<path fill-rule="evenodd" clip-rule="evenodd" d="M196.858 213.167L196.345 213.07C196.207 213.042 196.11 212.904 196.138 212.766L196.498 210.758C196.525 210.62 196.664 210.523 196.802 210.55L197.315 210.647C197.453 210.675 197.55 210.813 197.522 210.952L197.162 212.959C197.148 213.098 197.01 213.195 196.858 213.167Z" fill="url(#paint34_radial)"/>
<path opacity="0.5" fill-rule="evenodd" clip-rule="evenodd" d="M196.872 213.513C197.162 211.935 197.052 211.132 196.401 210.481C196.429 210.301 196.609 210.177 196.789 210.218L197.439 210.343C197.135 210.634 197.093 212.849 197.245 213.264C197.232 213.43 197.052 213.541 196.872 213.513Z" fill="url(#paint35_linear)"/>
<path fill-rule="evenodd" clip-rule="evenodd" d="M171.453 203.102L180.064 208.737C180.715 207.878 181.102 206.799 181.102 205.622C181.102 202.77 178.79 200.472 175.952 200.472C174.028 200.472 172.339 201.538 171.453 203.102Z" fill="url(#paint36_linear)"/>
<path fill-rule="evenodd" clip-rule="evenodd" d="M172.145 203.559L179.22 208.183C179.759 207.477 180.078 206.591 180.078 205.636C180.078 203.296 178.181 201.399 175.841 201.399C174.249 201.385 172.865 202.257 172.145 203.559Z" fill="#070707"/>
<path fill-rule="evenodd" clip-rule="evenodd" d="M167.95 191.819C167.23 200.125 182.639 210.426 190.032 205.899C189.409 206.979 188.773 208.045 188.15 209.124C187.014 211.063 184.522 211.658 182.639 210.426C177.475 207.048 172.297 203.656 167.133 200.278C165.375 199.129 164.807 196.747 165.943 194.975C166.593 193.909 167.272 192.857 167.95 191.819Z" fill="url(#paint37_linear)"/>
<path fill-rule="evenodd" clip-rule="evenodd" d="M180.216 208.834L182.972 210.634L184.342 208.529C184.578 208.169 184.481 207.685 184.121 207.449L182.667 206.508C182.307 206.272 181.822 206.369 181.587 206.729L180.216 208.834Z" fill="url(#paint38_linear)"/>
<path fill-rule="evenodd" clip-rule="evenodd" d="M181.878 209.318C182.404 209.664 183.124 209.512 183.47 208.986C183.816 208.46 183.664 207.74 183.138 207.394C182.612 207.048 181.892 207.2 181.546 207.726C181.186 208.266 181.338 208.972 181.878 209.318Z" fill="url(#paint39_linear)"/>
<path fill-rule="evenodd" clip-rule="evenodd" d="M182.058 209.041C182.431 209.291 182.93 209.18 183.179 208.806C183.428 208.432 183.318 207.934 182.944 207.685C182.57 207.435 182.072 207.546 181.822 207.92C181.573 208.294 181.684 208.792 182.058 209.041Z" fill="url(#paint40_linear)"/>
<path fill-rule="evenodd" clip-rule="evenodd" d="M168.324 201.053L171.079 202.853L172.45 200.748C172.685 200.388 172.588 199.904 172.228 199.668L170.774 198.727C170.414 198.492 169.93 198.589 169.694 198.949L168.324 201.053Z" fill="url(#paint41_linear)"/>
<path fill-rule="evenodd" clip-rule="evenodd" d="M169.971 201.538C170.497 201.884 171.217 201.731 171.564 201.205C171.91 200.679 171.757 199.959 171.231 199.613C170.705 199.267 169.985 199.419 169.639 199.945C169.293 200.471 169.445 201.191 169.971 201.538Z" fill="url(#paint42_linear)"/>
<path fill-rule="evenodd" clip-rule="evenodd" d="M170.151 201.261C170.525 201.51 171.024 201.399 171.273 201.025C171.522 200.651 171.411 200.153 171.037 199.904C170.664 199.655 170.165 199.765 169.916 200.139C169.681 200.513 169.777 201.011 170.151 201.261Z" fill="url(#paint43_linear)"/>
</g>
</g>
<defs>
<linearGradient id="paint0_linear" x1="115.433" y1="201.885" x2="62.0697" y2="201.88" gradientUnits="userSpaceOnUse">
<stop stop-color="#7A0604"/>
<stop offset="1" stop-color="#C2391E"/>
</linearGradient>
<linearGradient id="paint1_linear" x1="115.563" y1="197.294" x2="111.775" y2="197.292" gradientUnits="userSpaceOnUse">
<stop stop-color="#7A0604"/>
<stop offset="1" stop-color="white"/>
</linearGradient>
<linearGradient id="paint2_linear" x1="106.995" y1="181.63" x2="57.6013" y2="220.781" gradientUnits="userSpaceOnUse">
<stop stop-color="#C2391E"/>
<stop offset="1" stop-color="#F3CAD9"/>
</linearGradient>
<linearGradient id="paint3_linear" x1="93.1774" y1="216.937" x2="87.9748" y2="205.053" gradientUnits="userSpaceOnUse">
<stop stop-color="#7A0604"/>
<stop offset="1" stop-color="white"/>
</linearGradient>
<linearGradient id="paint4_linear" x1="93.4961" y1="201.923" x2="91.3695" y2="198.654" gradientUnits="userSpaceOnUse">
<stop stop-color="#454849"/>
<stop offset="0.2976" stop-color="#484B4B"/>
<stop offset="0.4767" stop-color="#505354"/>
<stop offset="0.6243" stop-color="#5E6162"/>
<stop offset="0.7548" stop-color="#727576"/>
<stop offset="0.874" stop-color="#8D8F8F"/>
<stop offset="0.9836" stop-color="#ADAFAF"/>
<stop offset="1" stop-color="#B2B4B4"/>
</linearGradient>
<linearGradient id="paint5_linear" x1="80.0468" y1="209.819" x2="80.9439" y2="214.771" gradientUnits="userSpaceOnUse">
<stop stop-color="#00290D"/>
<stop offset="1" stop-color="#185C22"/>
</linearGradient>
<radialGradient id="paint6_radial" cx="0" cy="0" r="1" gradientUnits="userSpaceOnUse" gradientTransform="translate(80.6733 212.961) rotate(-100.224) scale(2.47177 1.04312)">
<stop stop-color="#80C342"/>
<stop offset="1" stop-color="#2F943E"/>
</radialGradient>
<linearGradient id="paint7_linear" x1="80.2984" y1="209.409" x2="79.8671" y2="214.57" gradientUnits="userSpaceOnUse">
<stop stop-color="#2F943E"/>
<stop offset="1" stop-color="white"/>
</linearGradient>
<linearGradient id="paint8_linear" x1="76.3879" y1="210.27" x2="77.0815" y2="214.099" gradientUnits="userSpaceOnUse">
<stop stop-color="#00290D"/>
<stop offset="1" stop-color="#185C22"/>
</linearGradient>
<radialGradient id="paint9_radial" cx="0" cy="0" r="1" gradientUnits="userSpaceOnUse" gradientTransform="translate(76.8724 212.699) rotate(-100.224) scale(1.91106 0.806492)">
<stop stop-color="#80C342"/>
<stop offset="1" stop-color="#2F943E"/>
</radialGradient>
<linearGradient id="paint10_linear" x1="76.5823" y1="209.953" x2="76.2488" y2="213.944" gradientUnits="userSpaceOnUse">
<stop stop-color="#2F943E"/>
<stop offset="1" stop-color="white"/>
</linearGradient>
<linearGradient id="paint11_linear" x1="73.4087" y1="210.596" x2="73.8991" y2="213.303" gradientUnits="userSpaceOnUse">
<stop stop-color="#00290D"/>
<stop offset="1" stop-color="#185C22"/>
</linearGradient>
<radialGradient id="paint12_radial" cx="0" cy="0" r="1" gradientUnits="userSpaceOnUse" gradientTransform="translate(73.7514 212.314) rotate(-100.224) scale(1.35069 0.570008)">
<stop stop-color="#80C342"/>
<stop offset="1" stop-color="#2F943E"/>
</radialGradient>
<linearGradient id="paint13_linear" x1="73.5463" y1="210.372" x2="73.3106" y2="213.193" gradientUnits="userSpaceOnUse">
<stop stop-color="#2F943E"/>
<stop offset="1" stop-color="white"/>
</linearGradient>
<linearGradient id="paint14_linear" x1="92.071" y1="202.231" x2="93.5485" y2="204.284" gradientUnits="userSpaceOnUse">
<stop/>
<stop offset="1" stop-color="#454849"/>
</linearGradient>
<linearGradient id="paint15_linear" x1="94.3882" y1="203.623" x2="92.8464" y2="201.059" gradientUnits="userSpaceOnUse">
<stop stop-color="#454849"/>
<stop offset="1" stop-color="white"/>
</linearGradient>
<linearGradient id="paint16_linear" x1="88.4414" y1="209.098" x2="87.4283" y2="207.461" gradientUnits="userSpaceOnUse">
<stop stop-color="#454849"/>
<stop offset="1" stop-color="#B2B4B4"/>
</linearGradient>
<linearGradient id="paint17_linear" x1="87.528" y1="207.676" x2="88.4256" y2="209.054" gradientUnits="userSpaceOnUse">
<stop stop-color="#757367"/>
<stop offset="1" stop-color="#B2B4B4"/>
</linearGradient>
<linearGradient id="paint18_linear" x1="87.689" y1="207.923" x2="88.2932" y2="208.851" gradientUnits="userSpaceOnUse">
<stop stop-color="#B2B4B4"/>
<stop offset="1" stop-color="white"/>
</linearGradient>
<linearGradient id="paint19_linear" x1="100.34" y1="201.313" x2="99.3273" y2="199.676" gradientUnits="userSpaceOnUse">
<stop stop-color="#454849"/>
<stop offset="1" stop-color="#B2B4B4"/>
</linearGradient>
<linearGradient id="paint20_linear" x1="99.427" y1="199.892" x2="100.325" y2="201.269" gradientUnits="userSpaceOnUse">
<stop stop-color="#757367"/>
<stop offset="1" stop-color="#B2B4B4"/>
</linearGradient>
<linearGradient id="paint21_linear" x1="99.5879" y1="200.138" x2="100.192" y2="201.066" gradientUnits="userSpaceOnUse">
<stop stop-color="#B2B4B4"/>
<stop offset="1" stop-color="white"/>
</linearGradient>
<linearGradient id="paint22_linear" x1="155.038" y1="201.885" x2="208.402" y2="201.88" gradientUnits="userSpaceOnUse">
<stop stop-color="#7A0604"/>
<stop offset="1" stop-color="#C2391E"/>
</linearGradient>
<linearGradient id="paint23_linear" x1="154.908" y1="197.294" x2="158.696" y2="197.292" gradientUnits="userSpaceOnUse">
<stop stop-color="#7A0604"/>
<stop offset="1" stop-color="white"/>
</linearGradient>
<linearGradient id="paint24_linear" x1="163.476" y1="181.63" x2="212.87" y2="220.781" gradientUnits="userSpaceOnUse">
<stop stop-color="#C2391E"/>
<stop offset="1" stop-color="#F3CAD9"/>
</linearGradient>
<linearGradient id="paint25_linear" x1="177.294" y1="216.937" x2="182.496" y2="205.053" gradientUnits="userSpaceOnUse">
<stop stop-color="#7A0604"/>
<stop offset="1" stop-color="white"/>
</linearGradient>
<linearGradient id="paint26_linear" x1="176.975" y1="201.923" x2="179.102" y2="198.654" gradientUnits="userSpaceOnUse">
<stop stop-color="#454849"/>
<stop offset="0.2976" stop-color="#484B4B"/>
<stop offset="0.4767" stop-color="#505354"/>
<stop offset="0.6243" stop-color="#5E6162"/>
<stop offset="0.7548" stop-color="#727576"/>
<stop offset="0.874" stop-color="#8D8F8F"/>
<stop offset="0.9836" stop-color="#ADAFAF"/>
<stop offset="1" stop-color="#B2B4B4"/>
</linearGradient>
<linearGradient id="paint27_linear" x1="190.424" y1="209.819" x2="189.527" y2="214.771" gradientUnits="userSpaceOnUse">
<stop stop-color="#00290D"/>
<stop offset="1" stop-color="#185C22"/>
</linearGradient>
<radialGradient id="paint28_radial" cx="0" cy="0" r="1" gradientUnits="userSpaceOnUse" gradientTransform="translate(189.794 212.962) rotate(-79.7756) scale(2.47174 1.04311)">
<stop stop-color="#80C342"/>
<stop offset="1" stop-color="#2F943E"/>
</radialGradient>
<linearGradient id="paint29_linear" x1="190.173" y1="209.409" x2="190.604" y2="214.57" gradientUnits="userSpaceOnUse">
<stop stop-color="#2F943E"/>
<stop offset="1" stop-color="white"/>
</linearGradient>
<linearGradient id="paint30_linear" x1="194.084" y1="210.27" x2="193.39" y2="214.099" gradientUnits="userSpaceOnUse">
<stop stop-color="#00290D"/>
<stop offset="1" stop-color="#185C22"/>
</linearGradient>
<radialGradient id="paint31_radial" cx="0" cy="0" r="1" gradientUnits="userSpaceOnUse" gradientTransform="translate(193.594 212.701) rotate(-79.7756) scale(1.91097 0.80645)">
<stop stop-color="#80C342"/>
<stop offset="1" stop-color="#2F943E"/>
</radialGradient>
<linearGradient id="paint32_linear" x1="193.889" y1="209.953" x2="194.223" y2="213.944" gradientUnits="userSpaceOnUse">
<stop stop-color="#2F943E"/>
<stop offset="1" stop-color="white"/>
</linearGradient>
<linearGradient id="paint33_linear" x1="197.062" y1="210.597" x2="196.572" y2="213.303" gradientUnits="userSpaceOnUse">
<stop stop-color="#00290D"/>
<stop offset="1" stop-color="#185C22"/>
</linearGradient>
<radialGradient id="paint34_radial" cx="0" cy="0" r="1" gradientUnits="userSpaceOnUse" gradientTransform="translate(196.715 212.315) rotate(-79.7755) scale(1.3505 0.569937)">
<stop stop-color="#80C342"/>
<stop offset="1" stop-color="#2F943E"/>
</radialGradient>
<linearGradient id="paint35_linear" x1="196.925" y1="210.372" x2="197.161" y2="213.194" gradientUnits="userSpaceOnUse">
<stop stop-color="#2F943E"/>
<stop offset="1" stop-color="white"/>
</linearGradient>
<linearGradient id="paint36_linear" x1="178.4" y1="202.231" x2="176.923" y2="204.284" gradientUnits="userSpaceOnUse">
<stop/>
<stop offset="1" stop-color="#454849"/>
</linearGradient>
<linearGradient id="paint37_linear" x1="176.083" y1="203.623" x2="177.625" y2="201.059" gradientUnits="userSpaceOnUse">
<stop stop-color="#454849"/>
<stop offset="1" stop-color="white"/>
</linearGradient>
<linearGradient id="paint38_linear" x1="182.03" y1="209.098" x2="183.043" y2="207.461" gradientUnits="userSpaceOnUse">
<stop stop-color="#454849"/>
<stop offset="1" stop-color="#B2B4B4"/>
</linearGradient>
<linearGradient id="paint39_linear" x1="182.943" y1="207.676" x2="182.046" y2="209.054" gradientUnits="userSpaceOnUse">
<stop stop-color="#757367"/>
<stop offset="1" stop-color="#B2B4B4"/>
</linearGradient>
<linearGradient id="paint40_linear" x1="182.782" y1="207.922" x2="182.178" y2="208.851" gradientUnits="userSpaceOnUse">
<stop stop-color="#B2B4B4"/>
<stop offset="1" stop-color="white"/>
</linearGradient>
<linearGradient id="paint41_linear" x1="170.131" y1="201.313" x2="171.144" y2="199.676" gradientUnits="userSpaceOnUse">
<stop stop-color="#454849"/>
<stop offset="1" stop-color="#B2B4B4"/>
</linearGradient>
<linearGradient id="paint42_linear" x1="171.044" y1="199.892" x2="170.147" y2="201.269" gradientUnits="userSpaceOnUse">
<stop stop-color="#757367"/>
<stop offset="1" stop-color="#B2B4B4"/>
</linearGradient>
<linearGradient id="paint43_linear" x1="170.883" y1="200.138" x2="170.279" y2="201.066" gradientUnits="userSpaceOnUse">
<stop stop-color="#B2B4B4"/>
<stop offset="1" stop-color="white"/>
</linearGradient>
<clipPath id="clip0">
<rect width="270" height="370" fill="white"/>
</clipPath>
<clipPath id="clip1">
<rect x="53.814" y="118.649" width="162.842" height="123.453" fill="white"/>
</clipPath>
</defs>
</svg>
