<svg width="270" height="370" viewBox="0 0 270 370" fill="none" xmlns="http://www.w3.org/2000/svg">
<g clip-path="url(#clip0)">
<g clip-path="url(#clip1)">
<path fill-rule="evenodd" clip-rule="evenodd" d="M58.1473 171.439C58.4658 170.041 62.7161 170.041 63.0345 171.439V192.843H58.1473V171.439Z" fill="url(#paint0_linear)"/>
<path fill-rule="evenodd" clip-rule="evenodd" d="M56.6936 170.872C57.0259 169.861 57.9812 169.252 59.1442 168.989C59.6149 168.878 60.1133 168.823 60.5979 168.823C61.0824 168.823 61.5808 168.878 62.0515 168.989C63.2976 169.266 64.2944 169.958 64.5574 171.093C64.5851 171.204 64.599 171.328 64.599 171.439V192.843C64.599 193.701 63.8929 194.408 63.0345 194.408H58.1473C57.289 194.408 56.5829 193.701 56.5829 192.843V171.439C56.5967 171.231 56.6244 171.052 56.6936 170.872ZM58.1473 171.439C58.4658 170.041 62.7161 170.041 63.0345 171.439V192.843H58.1473V171.439Z" fill="black"/>
<path opacity="0.5" fill-rule="evenodd" clip-rule="evenodd" d="M60.5978 170.387C61.733 170.387 62.8822 170.733 63.0344 171.439C63.0344 178.569 63.0344 185.713 63.0344 192.843C62.2176 192.843 61.4008 192.843 60.5978 192.843C61.3592 191.888 62.2038 187.901 62.2038 183.096C62.1899 169.681 62.0376 171.052 60.5978 170.387Z" fill="url(#paint1_linear)"/>
<path opacity="0.5" fill-rule="evenodd" clip-rule="evenodd" d="M60.5978 170.387C59.4625 170.387 58.3134 170.733 58.1611 171.439C58.1611 178.569 58.1611 185.713 58.1611 192.843C58.978 192.843 59.7948 192.843 60.5978 192.843C59.8363 191.888 58.9918 187.901 58.9918 183.096C58.9918 169.681 59.158 171.052 60.5978 170.387Z" fill="url(#paint2_linear)"/>
<path fill-rule="evenodd" clip-rule="evenodd" d="M60.5979 171.716C62.024 171.716 63.1731 172.865 63.1731 174.291C63.1731 175.717 62.024 176.866 60.5979 176.866C59.1719 176.866 58.0228 175.717 58.0228 174.291C58.0228 172.865 59.1719 171.716 60.5979 171.716Z" fill="#3B0201"/>
<path fill-rule="evenodd" clip-rule="evenodd" d="M60.5979 172.118C61.8024 172.118 62.7853 173.101 62.7853 174.305C62.7853 175.51 61.8024 176.492 60.5979 176.492C59.3934 176.492 58.4104 175.51 58.4104 174.305C58.4104 173.087 59.3934 172.118 60.5979 172.118Z" fill="url(#paint3_radial)"/>
<path d="M60.598 176.036C61.5614 176.036 62.3424 175.255 62.3424 174.291C62.3424 173.328 61.5614 172.547 60.598 172.547C59.6345 172.547 58.8535 173.328 58.8535 174.291C58.8535 175.255 59.6345 176.036 60.598 176.036Z" fill="url(#paint4_radial)"/>
<path opacity="0.5" fill-rule="evenodd" clip-rule="evenodd" d="M60.5979 172.118C59.5595 174.499 61.6085 174.651 62.7853 174.305C62.7853 175.51 61.8024 176.492 60.5979 176.492C62.1346 175.136 60.5979 174.305 58.4104 174.305C58.4104 173.087 59.3934 172.118 60.5979 172.118Z" fill="url(#paint5_linear)"/>
<path fill-rule="evenodd" clip-rule="evenodd" d="M106.756 175.842C102.935 178.901 98.1863 184.661 95.3066 185.021C85.9337 186.17 75.1348 187.942 64.9866 188.925C61.747 189.243 57.1782 180.48 57.1782 183.083C57.1782 193.674 57.1782 204.251 57.1782 214.842C57.1782 216.185 57.8012 217.348 58.9227 218.096C60.6256 219.231 62.3146 220.353 64.0175 221.488C64.6821 221.931 65.3743 222.139 66.1911 222.139C79.4682 222.139 92.7591 222.139 106.036 222.139C108.182 222.139 109.94 220.38 109.94 218.234C109.94 204.611 109.94 190.988 109.94 177.365C109.927 175.731 108.03 174.817 106.756 175.842Z" fill="url(#paint6_linear)"/>
<path fill-rule="evenodd" clip-rule="evenodd" d="M106.756 175.842C102.935 178.902 98.1863 184.661 95.3066 185.021C85.9337 186.17 75.1348 187.942 64.9866 188.925C61.747 189.244 57.1782 180.48 57.1782 183.083C57.1782 193.674 57.1782 204.251 57.1782 214.842C57.1782 216.185 57.8012 217.348 58.9227 218.096C60.6256 219.231 62.3146 220.353 64.0175 221.488C64.6821 221.931 65.3743 222.139 66.1911 222.139C79.4682 222.139 92.7591 222.139 106.036 222.139C108.182 222.139 109.94 220.38 109.94 218.234C109.94 204.611 109.94 190.988 109.94 177.365C109.927 175.731 108.03 174.817 106.756 175.842ZM101.647 178.389C103.046 177.046 104.458 175.703 105.773 174.637C106.452 174.097 107.213 173.862 107.961 173.862C108.487 173.862 109.013 173.987 109.484 174.222C109.954 174.444 110.383 174.776 110.716 175.191C111.186 175.786 111.491 176.534 111.491 177.392V218.262C111.491 219.771 110.882 221.128 109.885 222.125C108.888 223.122 107.531 223.731 106.022 223.731H66.1773C65.6789 223.731 65.2082 223.662 64.7236 223.537C64.6821 223.523 64.6405 223.523 64.599 223.509C64.1006 223.357 63.616 223.122 63.1453 222.817L58.0504 219.425C57.2751 218.913 56.666 218.248 56.2506 217.459C55.8353 216.67 55.6138 215.798 55.6138 214.87V183.096C55.6138 181.67 56.2506 181.047 57.3997 181.047C58.4658 181.047 59.3795 182.141 60.5425 183.526C61.9408 185.187 63.8514 187.485 64.8482 187.388C71.0229 186.793 77.5023 185.879 83.7601 185.007C87.7474 184.453 91.6377 183.899 95.1266 183.484C96.5249 183.304 99.0862 180.84 101.647 178.389Z" fill="black"/>
<path opacity="0.5" fill-rule="evenodd" clip-rule="evenodd" d="M64.9866 221.972C65.3189 222.069 65.7896 222.152 66.1634 222.152C79.4405 222.152 92.7314 222.152 106.008 222.152C108.154 222.152 109.913 220.394 109.913 218.248C109.913 211.506 109.913 204.777 109.913 198.035C108.473 203.393 101.509 215.493 92.1361 215.493C79.399 215.493 69.1262 215.881 64.9728 213.499C64.2528 215.493 62.2453 218.511 60.4178 219.134C61.3731 219.73 64.059 221.709 64.9866 221.972Z" fill="url(#paint7_linear)"/>
<path opacity="0.5" fill-rule="evenodd" clip-rule="evenodd" d="M59.5457 184.772C59.4211 184.633 58.7704 183.816 58.2166 183.235C57.6489 182.64 57.2059 182.28 57.1782 183.096V185.962V214.856C57.1782 216.199 57.8012 217.362 58.9227 218.11C59.3103 218.373 59.7118 218.636 60.0995 218.899C58.1197 216.158 58.7704 193.342 59.0196 187.61C59.1026 185.852 64.2113 189.562 65.0005 192.58C65.582 190.199 65.9696 189.88 80.2297 187.956C96.8157 185.727 97.0649 187.001 96.9956 188.233C98.9477 186.696 105.621 180.992 109.927 177.379C109.927 175.731 108.03 174.831 106.756 175.856C102.935 178.915 98.1863 184.675 95.3066 185.035C85.9337 186.17 75.1348 187.942 64.9866 188.925C63.2561 189.105 61.1378 186.668 59.5457 184.772Z" fill="url(#paint8_linear)"/>
<path fill-rule="evenodd" clip-rule="evenodd" d="M82.2788 192.539H82.6664C82.9849 192.539 83.2895 192.677 83.4971 192.885C83.7048 193.092 83.8432 193.397 83.8432 193.715V204.653C83.8432 204.874 83.6633 205.04 83.4556 205.04H81.5035C81.282 205.04 81.1158 204.86 81.1158 204.653V193.715C81.1158 193.397 81.2543 193.092 81.462 192.885C81.6696 192.663 81.9604 192.539 82.2788 192.539Z" fill="#3B0201"/>
<path fill-rule="evenodd" clip-rule="evenodd" d="M82.2787 192.926H82.6664C83.0956 192.926 83.4417 193.272 83.4417 193.702V204.639H81.5034V193.702C81.5034 193.272 81.8495 192.926 82.2787 192.926Z" fill="url(#paint9_linear)"/>
<path opacity="0.5" fill-rule="evenodd" clip-rule="evenodd" d="M82.3342 193.162H82.6249C82.9433 193.162 83.2064 193.425 83.2064 193.743V204.653H81.7527V193.743C81.7527 193.425 82.0157 193.162 82.3342 193.162Z" fill="url(#paint10_linear)"/>
<path fill-rule="evenodd" clip-rule="evenodd" d="M82.971 193.895V204.653H81.988V193.895C81.988 193.355 82.971 193.355 82.971 193.895Z" fill="url(#paint11_linear)"/>
<path fill-rule="evenodd" clip-rule="evenodd" d="M86.1968 191.556H86.5844C86.9029 191.556 87.2074 191.694 87.4151 191.902C87.6228 192.109 87.7612 192.414 87.7612 192.732V203.67C87.7612 203.891 87.5812 204.057 87.3736 204.057H85.4215C85.2 204.057 85.0338 203.877 85.0338 203.67V192.732C85.0338 192.414 85.1723 192.109 85.3799 191.902C85.5738 191.694 85.8645 191.556 86.1968 191.556Z" fill="#3B0201"/>
<path fill-rule="evenodd" clip-rule="evenodd" d="M86.1969 191.943H86.5845C87.0137 191.943 87.3598 192.289 87.3598 192.719V203.656H85.4077V192.719C85.4077 192.303 85.7538 191.943 86.1969 191.943Z" fill="url(#paint12_linear)"/>
<path opacity="0.5" fill-rule="evenodd" clip-rule="evenodd" d="M86.2383 192.179H86.5291C86.8475 192.179 87.1106 192.442 87.1106 192.76V203.67H85.6569V192.76C85.6569 192.442 85.9199 192.179 86.2383 192.179Z" fill="url(#paint13_linear)"/>
<path fill-rule="evenodd" clip-rule="evenodd" d="M86.8752 192.912V203.67H85.8922V192.912C85.8922 192.386 86.8752 192.386 86.8752 192.912Z" fill="url(#paint14_linear)"/>
<path fill-rule="evenodd" clip-rule="evenodd" d="M90.1009 190.587H90.4886C90.807 190.587 91.1116 190.725 91.3193 190.933C91.527 191.14 91.6654 191.445 91.6654 191.763V202.701C91.6654 202.922 91.4854 203.088 91.2777 203.088H89.3256C89.1041 203.088 88.938 202.908 88.938 202.701V191.763C88.938 191.445 89.0764 191.14 89.2841 190.933C89.4779 190.711 89.7687 190.587 90.1009 190.587Z" fill="#3B0201"/>
<path fill-rule="evenodd" clip-rule="evenodd" d="M90.101 190.974H90.4887C90.9179 190.974 91.264 191.32 91.264 191.75V202.687H89.3119V191.75C89.3119 191.32 89.6719 190.974 90.101 190.974Z" fill="url(#paint15_linear)"/>
<path opacity="0.5" fill-rule="evenodd" clip-rule="evenodd" d="M90.1425 191.21H90.4333C90.7517 191.21 91.0147 191.473 91.0147 191.791V202.701H89.561V191.791C89.561 191.473 89.8241 191.21 90.1425 191.21Z" fill="url(#paint16_linear)"/>
<path fill-rule="evenodd" clip-rule="evenodd" d="M90.7794 191.943V202.701H89.7964V191.943C89.7964 191.403 90.7794 191.403 90.7794 191.943Z" fill="url(#paint17_linear)"/>
<path fill-rule="evenodd" clip-rule="evenodd" d="M94.0052 189.604H94.3929C94.7113 189.604 95.0159 189.742 95.2236 189.95C95.4313 190.157 95.5697 190.462 95.5697 190.78V201.718C95.5697 201.939 95.3897 202.105 95.182 202.105H93.2299C93.0084 202.105 92.8423 201.925 92.8423 201.718V190.78C92.8423 190.462 92.9807 190.157 93.1884 189.95C93.3822 189.742 93.6868 189.604 94.0052 189.604Z" fill="#3B0201"/>
<path fill-rule="evenodd" clip-rule="evenodd" d="M94.0052 189.991H94.3929C94.822 189.991 95.1682 190.337 95.1682 190.766V201.704H93.2161V190.766C93.2299 190.351 93.576 189.991 94.0052 189.991Z" fill="url(#paint18_linear)"/>
<path opacity="0.5" fill-rule="evenodd" clip-rule="evenodd" d="M94.0606 190.227H94.3514C94.6698 190.227 94.9329 190.49 94.9329 190.808V201.718H93.4792V190.808C93.4653 190.49 93.7284 190.227 94.0606 190.227Z" fill="url(#paint19_linear)"/>
<path fill-rule="evenodd" clip-rule="evenodd" d="M94.6837 190.96V201.718H93.7007V190.96C93.7145 190.434 94.6837 190.434 94.6837 190.96Z" fill="url(#paint20_linear)"/>
<path opacity="0.5" fill-rule="evenodd" clip-rule="evenodd" d="M79.662 202.964V197.426C79.662 196.567 81.5033 195.57 83.76 195.211L93.8805 193.591C96.1372 193.231 97.9785 193.632 97.9785 194.491V198.589C97.9647 198.879 79.662 203.296 79.662 202.964Z" fill="url(#paint21_linear)"/>
<path fill-rule="evenodd" clip-rule="evenodd" d="M97.8956 198.367C98.1309 198.34 98.3386 198.45 98.3386 198.699V208.474C98.3386 210.814 96.428 212.738 94.0744 212.738H83.5386C81.1988 212.738 79.2744 210.827 79.2744 208.474V202.618C79.2883 202.008 96.0958 198.741 97.8956 198.367Z" fill="#3B0201"/>
<path fill-rule="evenodd" clip-rule="evenodd" d="M97.9924 198.699L79.6482 202.604V208.46C79.6482 210.606 81.4065 212.364 83.5524 212.364H94.0882C96.2342 212.364 97.9924 210.606 97.9924 208.46V198.699Z" fill="url(#paint22_radial)"/>
<path opacity="0.5" fill-rule="evenodd" clip-rule="evenodd" d="M93.5206 199.655C88.8965 200.638 84.2723 201.621 79.6482 202.604C88.4396 202.604 93.5898 208.266 94.0882 212.378C96.2342 212.378 97.9924 210.62 97.9924 208.474C95.5835 211.063 89.5333 202.327 93.5206 199.655Z" fill="url(#paint23_linear)"/>
<path fill-rule="evenodd" clip-rule="evenodd" d="M73.7364 196.069L76.8376 201.427C77.1422 201.953 76.7546 202.604 76.1592 202.604H74.8024C74.5256 202.604 74.2625 202.451 74.1241 202.216L73.3764 200.929C73.2242 200.666 72.8503 200.666 72.6981 200.929L71.9504 202.216C71.812 202.465 71.5489 202.604 71.272 202.604H69.9153C69.3199 202.604 68.9323 201.953 69.2369 201.427L72.3519 196.028C72.6704 195.501 73.4595 195.515 73.7364 196.069Z" fill="#3B0201"/>
<path fill-rule="evenodd" clip-rule="evenodd" d="M73.3903 196.221L76.5053 201.621C76.6576 201.884 76.4638 202.202 76.1731 202.202H74.8163C74.6778 202.202 74.5532 202.133 74.484 202.008L73.4041 200.126C73.2518 199.862 72.878 199.862 72.7257 200.126L71.6458 202.008C71.5766 202.133 71.452 202.202 71.3136 202.202H69.9568C69.6522 202.202 69.4722 201.884 69.6245 201.621L72.7396 196.221C72.8642 195.972 73.238 195.972 73.3903 196.221Z" fill="url(#paint24_linear)"/>
<path fill-rule="evenodd" clip-rule="evenodd" d="M72.7118 197.011C72.1303 198.007 70.9535 200.043 70.2751 201.233C69.9013 201.884 71.1889 201.995 71.4104 201.621C71.7288 201.053 72.0611 200.499 72.3795 199.946C72.6841 199.42 73.4317 199.42 73.7363 199.946C74.0548 200.513 74.387 201.067 74.7055 201.621C74.927 201.995 76.2145 201.884 75.8407 201.233C75.0239 199.821 74.2209 198.423 73.4041 197.011C73.2379 196.747 72.8641 196.747 72.7118 197.011Z" fill="url(#paint25_radial)"/>
<path opacity="0.5" fill-rule="evenodd" clip-rule="evenodd" d="M75.7577 200.333C74.8301 199.503 73.9856 199.862 74.8024 202.202C74.664 202.202 74.5394 202.133 74.4702 202.008C74.1517 200.07 72.1581 197.841 71.3551 198.561C71.812 197.786 72.255 196.997 72.7119 196.221C73.0857 197.897 74.3317 199.392 75.7577 200.333Z" fill="url(#paint26_linear)"/>
<path fill-rule="evenodd" clip-rule="evenodd" d="M73.598 202.521L76.0901 206.826C76.3254 207.242 76.0347 207.768 75.5501 207.768H74.4564C74.2349 207.768 74.0272 207.643 73.9165 207.449L73.3211 206.411C73.1965 206.203 72.892 206.203 72.7812 206.411L72.1859 207.449C72.0751 207.643 71.8674 207.768 71.6459 207.768H70.5522C70.0815 207.768 69.763 207.256 70.0123 206.826L72.5181 202.493C72.7397 202.078 73.3765 202.091 73.598 202.521Z" fill="#3B0201"/>
<path fill-rule="evenodd" clip-rule="evenodd" d="M73.3211 202.659L75.827 206.993C75.9516 207.2 75.7993 207.463 75.5501 207.463H74.4564C74.3456 207.463 74.2487 207.408 74.1795 207.311L73.3072 205.802C73.1826 205.594 72.8781 205.594 72.7673 205.802L71.8951 207.311C71.8397 207.408 71.7428 207.463 71.6182 207.463H70.5245C70.2891 207.463 70.1368 207.2 70.2476 206.993L72.7535 202.659C72.8919 202.452 73.1965 202.452 73.3211 202.659Z" fill="url(#paint27_linear)"/>
<path fill-rule="evenodd" clip-rule="evenodd" d="M72.7811 203.282C72.3243 204.085 71.369 205.719 70.829 206.674C70.5245 207.2 71.5628 207.297 71.7289 206.993C71.992 206.536 72.255 206.093 72.5043 205.636C72.7396 205.22 73.3488 205.22 73.5841 205.636C73.8472 206.093 74.1102 206.536 74.3594 206.993C74.5394 207.297 75.5639 207.2 75.2593 206.674C74.6086 205.539 73.9579 204.417 73.3072 203.282C73.1965 203.075 72.8919 203.075 72.7811 203.282Z" fill="url(#paint28_radial)"/>
<path opacity="0.5" fill-rule="evenodd" clip-rule="evenodd" d="M75.2179 205.954C74.4703 205.29 73.7919 205.567 74.4564 207.449C74.3457 207.449 74.2488 207.394 74.1796 207.297C73.9165 205.746 72.3244 203.947 71.6875 204.528C72.0475 203.905 72.4074 203.282 72.7674 202.645C73.0858 204.002 74.0688 205.193 75.2179 205.954Z" fill="url(#paint29_linear)"/>
<path fill-rule="evenodd" clip-rule="evenodd" d="M73.4734 208.017L75.3563 211.271C75.5363 211.589 75.3147 211.977 74.9409 211.977H74.1241C73.958 211.977 73.8057 211.88 73.7088 211.741L73.2519 210.952C73.155 210.8 72.9334 210.8 72.8365 210.952L72.3797 211.741C72.2966 211.894 72.1443 211.977 71.9643 211.977H71.1475C70.7875 211.977 70.5522 211.589 70.7321 211.271L72.615 208.003C72.8227 207.671 73.2934 207.685 73.4734 208.017Z" fill="#3B0201"/>
<path fill-rule="evenodd" clip-rule="evenodd" d="M73.2518 208.114L75.1347 211.381C75.2316 211.534 75.107 211.741 74.927 211.741H74.1102C74.0271 211.741 73.9441 211.7 73.9025 211.617L73.2518 210.481C73.1549 210.329 72.9334 210.329 72.8365 210.481L72.1858 211.617C72.1443 211.686 72.0612 211.741 71.9781 211.741H71.1613C70.9813 211.741 70.8705 211.547 70.9536 211.381L72.8365 208.114C72.9334 207.962 73.1688 207.962 73.2518 208.114Z" fill="url(#paint30_linear)"/>
<path fill-rule="evenodd" clip-rule="evenodd" d="M72.8365 208.585C72.4904 209.194 71.7704 210.426 71.3551 211.146C71.1197 211.547 71.9089 211.617 72.0335 211.381C72.2273 211.035 72.4211 210.703 72.6288 210.357C72.8088 210.038 73.2657 210.038 73.4456 210.357C73.6395 210.703 73.8333 211.035 74.0271 211.381C74.1656 211.603 74.9409 211.547 74.7055 211.146C74.2071 210.288 73.7225 209.443 73.2241 208.585C73.1687 208.432 72.9334 208.432 72.8365 208.585Z" fill="url(#paint31_radial)"/>
<path opacity="0.5" fill-rule="evenodd" clip-rule="evenodd" d="M74.6918 210.606C74.1242 210.108 73.6119 210.315 74.1103 211.741C74.0273 211.741 73.9442 211.7 73.9027 211.617C73.7088 210.44 72.5043 209.083 72.0198 209.526C72.2967 209.055 72.5597 208.585 72.8366 208.114C73.072 209.125 73.8196 210.025 74.6918 210.606Z" fill="url(#paint32_linear)"/>
<path fill-rule="evenodd" clip-rule="evenodd" d="M64.7928 188.925C64.7928 188.814 64.8759 188.731 64.9867 188.731C65.0974 188.731 65.1805 188.814 65.1805 188.925V192.345L96.8987 188.025L109.788 177.213C109.871 177.143 109.996 177.157 110.065 177.24C110.134 177.323 110.12 177.448 110.037 177.517L97.1064 188.371C97.0787 188.399 97.0372 188.413 97.0095 188.413L65.1805 192.746V221.986C65.1805 222.097 65.0974 222.18 64.9867 222.18C64.8759 222.18 64.7928 222.097 64.7928 221.986V188.925ZM57.1229 199.156C57.026 199.129 56.9567 199.018 56.9844 198.921C57.0121 198.824 57.1229 198.755 57.2198 198.783L63.5607 200.624C63.713 200.665 63.8376 200.762 63.9345 200.887L63.9483 200.901C64.0314 201.025 64.0868 201.164 64.0868 201.316V202.285C64.0868 202.341 64.0729 202.382 64.0729 202.438C64.0452 202.548 63.976 202.631 63.9068 202.687L63.8929 202.701C63.8099 202.756 63.7268 202.784 63.6299 202.784C63.5745 202.784 63.5191 202.77 63.4638 202.756L57.1229 200.915C57.026 200.887 56.9567 200.776 56.9844 200.679C57.0121 200.582 57.1229 200.513 57.2198 200.541C58.895 201.025 62.0654 202.161 63.616 202.382C63.6437 202.382 63.6576 202.382 63.6714 202.368C63.6853 202.355 63.6991 202.341 63.6991 202.327V202.285V201.316C63.6991 201.261 63.6714 201.192 63.6299 201.136L63.616 201.122C63.5745 201.067 63.5053 201.012 63.4361 200.998L57.1229 199.156ZM57.1229 206.965C57.026 206.937 56.9567 206.826 56.9844 206.729C57.0121 206.633 57.1229 206.563 57.2198 206.591L63.5607 208.432C63.713 208.474 63.8376 208.571 63.9345 208.695L63.9483 208.709C64.0314 208.834 64.0868 208.972 64.0868 209.125V210.094C64.0868 210.149 64.0729 210.191 64.0729 210.246C64.0452 210.357 63.976 210.44 63.9068 210.495L63.8929 210.509C63.8099 210.564 63.7268 210.592 63.6299 210.592C63.5745 210.592 63.5191 210.578 63.4638 210.564L57.1229 208.723C57.026 208.695 56.9567 208.585 56.9844 208.488C57.0121 208.391 57.1229 208.322 57.2198 208.349C58.895 208.834 62.0654 209.969 63.616 210.191C63.6437 210.191 63.6576 210.191 63.6714 210.177C63.6853 210.163 63.6991 210.149 63.6991 210.135V210.094V209.125C63.6991 209.069 63.6714 209 63.6299 208.945L63.616 208.931C63.5745 208.875 63.5053 208.82 63.4361 208.806L57.1229 206.965ZM57.1229 203.061L63.4638 204.902C63.533 204.916 63.5884 204.971 63.6437 205.027V205.04C63.6853 205.096 63.713 205.165 63.713 205.22V206.19V206.231C63.713 206.245 63.6991 206.259 63.6853 206.273C63.6714 206.286 63.6576 206.286 63.6299 206.286C62.0793 206.051 58.9088 204.93 57.2336 204.445C57.1367 204.417 57.026 204.473 56.9983 204.584C56.9706 204.68 57.026 204.791 57.1367 204.819L63.4776 206.66C63.533 206.674 63.5884 206.688 63.6437 206.688C63.7406 206.688 63.8376 206.66 63.9068 206.605L63.9206 206.591C64.0037 206.536 64.0591 206.453 64.0868 206.342C64.1006 206.3 64.1006 206.245 64.1006 206.19V205.22C64.1006 205.082 64.0452 204.93 63.9622 204.805L63.9483 204.791C63.8514 204.667 63.7268 204.57 63.5745 204.528L57.2336 202.687C57.1367 202.659 57.026 202.714 56.9983 202.825C56.9567 202.922 57.026 203.033 57.1229 203.061Z" fill="#3B0201"/>
<path opacity="0.5" fill-rule="evenodd" clip-rule="evenodd" d="M64.9866 221.972C65.3189 222.069 65.7896 222.152 66.1634 222.152C79.4405 222.152 92.7314 222.152 106.009 222.152C108.154 222.152 109.913 220.394 109.913 218.248C109.913 211.506 109.913 204.777 109.913 198.035C109.331 200.222 103.281 196.055 98.3247 198.713C97.2725 205.22 83.9123 212.78 80.202 210.523C71.6459 219.079 53.7724 211.215 60.4179 219.12C61.3732 219.73 64.059 221.709 64.9866 221.972Z" fill="url(#paint33_linear)"/>
<path fill-rule="evenodd" clip-rule="evenodd" d="M109.927 186.973C108.224 186.973 106.521 186.973 104.818 186.973C102.589 186.973 99.4462 194.006 99.4462 197.094C99.4462 205.94 99.4462 214.801 99.4462 223.648C99.4462 226.721 102.866 230.072 104.541 230.072C106.341 230.072 108.127 230.072 109.927 230.072C111.007 230.072 111.879 229.199 111.879 228.12C111.879 215.05 111.879 201.995 111.879 188.925C111.879 187.859 111.007 186.973 109.927 186.973Z" fill="url(#paint34_linear)"/>
<path fill-rule="evenodd" clip-rule="evenodd" d="M109.927 186.973C108.224 186.973 106.521 186.973 104.818 186.973C102.589 186.973 99.4462 194.006 99.4462 197.093C99.4462 205.94 99.4462 214.801 99.4462 223.648C99.4462 226.721 102.866 230.072 104.541 230.072C106.341 230.072 108.127 230.072 109.927 230.072C111.006 230.072 111.879 229.199 111.879 228.119C111.879 215.05 111.879 201.994 111.879 188.925C111.879 187.859 111.006 186.973 109.927 186.973ZM104.818 185.422H109.927C110.896 185.422 111.782 185.824 112.419 186.447C113.056 187.084 113.443 187.956 113.443 188.925V228.119C113.443 229.033 113.097 229.864 112.516 230.487C112.488 230.528 112.446 230.57 112.419 230.598C111.782 231.235 110.896 231.622 109.927 231.622H104.541C103.184 231.622 101.246 230.376 99.8615 228.632C98.7401 227.22 97.8817 225.42 97.8817 223.634V197.093C97.8817 195.197 98.8647 192.096 100.152 189.673C101.426 187.278 103.115 185.422 104.818 185.422Z" fill="black"/>
<path opacity="0.5" fill-rule="evenodd" clip-rule="evenodd" d="M104.818 186.973C102.589 186.973 99.4462 194.006 99.4462 197.094C99.4462 205.94 99.4462 214.801 99.4462 223.648C99.4462 226.721 102.866 230.072 104.541 230.072C102.063 223.343 100.886 231.844 100.886 209.401C100.886 186.973 102.243 194.615 104.818 186.973Z" fill="url(#paint35_linear)"/>
<path fill-rule="evenodd" clip-rule="evenodd" d="M99.2523 202.77C99.2523 202.507 99.64 202.507 99.64 202.77C99.64 208.058 102.824 208.986 107.407 208.986V209.374C102.824 209.374 99.64 210.301 99.64 215.59C99.64 215.853 99.2523 215.853 99.2523 215.59C99.2523 211.963 100.761 209.775 104.306 209.18C100.761 208.585 99.2523 206.383 99.2523 202.77Z" fill="#3B0201"/>
<path fill-rule="evenodd" clip-rule="evenodd" d="M110.342 195.294C108.999 195.294 107.67 195.294 106.327 195.294C105.455 195.294 104.389 196.374 103.558 197.689C102.727 199.004 106.009 200.555 106.009 201.51C106.009 206.951 106.009 212.392 106.009 217.833C106.009 218.774 102.769 219.771 103.613 220.519C104.444 221.266 105.455 221.793 106.106 221.793C107.518 221.793 108.93 221.793 110.328 221.793C111.173 221.793 111.865 221.253 111.865 220.588C111.865 212.558 111.865 204.528 111.865 196.498C111.879 195.834 111.187 195.294 110.342 195.294Z" fill="url(#paint36_linear)"/>
<path fill-rule="evenodd" clip-rule="evenodd" d="M110.342 195.294C108.999 195.294 107.67 195.294 106.327 195.294C105.455 195.294 104.389 196.374 103.558 197.689C102.727 199.004 106.009 200.555 106.009 201.51C106.009 206.951 106.009 212.392 106.009 217.833C106.009 218.774 102.769 219.771 103.613 220.519C104.444 221.266 105.455 221.792 106.106 221.792C107.518 221.792 108.93 221.792 110.328 221.792C111.173 221.792 111.865 221.253 111.865 220.588C111.865 212.558 111.865 204.528 111.865 196.498C111.879 195.834 111.187 195.294 110.342 195.294ZM106.327 194.892H110.342C110.854 194.892 111.325 195.058 111.671 195.335C112.045 195.626 112.266 196.027 112.266 196.484V220.574C112.266 221.031 112.031 221.433 111.671 221.723C111.325 221.986 110.854 222.166 110.342 222.166H106.119C105.732 222.166 105.275 222.028 104.79 221.792L104.763 221.779C104.292 221.543 103.807 221.197 103.35 220.796C102.921 220.408 103.004 220.02 103.35 219.633C103.6 219.356 104.015 219.079 104.444 218.802C105.012 218.428 105.607 218.054 105.607 217.819V201.51C105.607 201.302 105.136 200.873 104.61 200.416C103.627 199.544 102.534 198.547 103.212 197.495C103.669 196.775 104.209 196.111 104.749 195.64C105.289 195.169 105.815 194.892 106.327 194.892Z" fill="#3B0201"/>
<path opacity="0.5" fill-rule="evenodd" clip-rule="evenodd" d="M109.927 186.973C108.224 186.973 106.521 186.973 104.818 186.973C106.659 190.157 107.822 190.85 107.822 208.169C107.822 225.489 106.922 227.704 104.555 230.072C106.355 230.072 108.141 230.072 109.941 230.072C111.02 230.072 111.893 229.199 111.893 228.12C111.893 215.05 111.893 201.995 111.893 188.925C111.879 187.859 111.007 186.973 109.927 186.973Z" fill="url(#paint37_linear)"/>
<path fill-rule="evenodd" clip-rule="evenodd" d="M212.502 171.439C212.184 170.041 207.934 170.041 207.615 171.439V192.843H212.502V171.439Z" fill="url(#paint38_linear)"/>
<path fill-rule="evenodd" clip-rule="evenodd" d="M212.502 171.439C212.184 170.041 207.933 170.041 207.615 171.439V192.843H212.502V171.439ZM211.505 168.989C212.668 169.252 213.624 169.875 213.956 170.872C214.025 171.052 214.067 171.231 214.067 171.439V192.843C214.067 193.701 213.361 194.408 212.502 194.408H207.615C206.757 194.408 206.051 193.701 206.051 192.843V171.439C206.051 171.328 206.064 171.204 206.092 171.093C206.355 169.958 207.352 169.279 208.598 168.989C209.069 168.878 209.567 168.823 210.052 168.823C210.536 168.823 211.035 168.878 211.505 168.989Z" fill="black"/>
<path opacity="0.5" fill-rule="evenodd" clip-rule="evenodd" d="M210.052 170.387C208.917 170.387 207.767 170.733 207.615 171.439C207.615 178.569 207.615 185.713 207.615 192.843C208.432 192.843 209.249 192.843 210.052 192.843C209.29 191.888 208.446 187.901 208.446 183.096C208.46 169.681 208.612 171.052 210.052 170.387Z" fill="url(#paint39_linear)"/>
<path opacity="0.5" fill-rule="evenodd" clip-rule="evenodd" d="M210.052 170.387C211.187 170.387 212.336 170.733 212.488 171.439C212.488 178.569 212.488 185.713 212.488 192.843C211.671 192.843 210.855 192.843 210.052 192.843C210.813 191.888 211.658 187.901 211.658 183.096C211.658 169.681 211.491 171.052 210.052 170.387Z" fill="url(#paint40_linear)"/>
<path fill-rule="evenodd" clip-rule="evenodd" d="M210.052 171.716C208.626 171.716 207.477 172.865 207.477 174.291C207.477 175.717 208.626 176.866 210.052 176.866C211.478 176.866 212.627 175.717 212.627 174.291C212.627 172.865 211.478 171.716 210.052 171.716Z" fill="#3B0201"/>
<path fill-rule="evenodd" clip-rule="evenodd" d="M210.052 172.118C208.847 172.118 207.864 173.101 207.864 174.305C207.864 175.51 208.847 176.492 210.052 176.492C211.256 176.492 212.239 175.51 212.239 174.305C212.239 173.087 211.256 172.118 210.052 172.118Z" fill="url(#paint41_radial)"/>
<path d="M210.052 176.036C211.015 176.036 211.796 175.255 211.796 174.291C211.796 173.328 211.015 172.547 210.052 172.547C209.088 172.547 208.307 173.328 208.307 174.291C208.307 175.255 209.088 176.036 210.052 176.036Z" fill="url(#paint42_radial)"/>
<path opacity="0.5" fill-rule="evenodd" clip-rule="evenodd" d="M210.052 172.118C211.09 174.499 209.041 174.651 207.864 174.305C207.864 175.51 208.847 176.492 210.052 176.492C208.515 175.136 210.052 174.305 212.239 174.305C212.239 173.087 211.256 172.118 210.052 172.118Z" fill="url(#paint43_linear)"/>
<path fill-rule="evenodd" clip-rule="evenodd" d="M163.893 175.842C167.714 178.901 172.463 184.661 175.343 185.021C184.716 186.156 195.515 187.942 205.649 188.925C208.889 189.243 213.457 180.48 213.457 183.083C213.457 193.674 213.457 204.251 213.457 214.842C213.457 216.185 212.834 217.348 211.713 218.096C210.01 219.231 208.321 220.353 206.618 221.488C205.954 221.931 205.261 222.139 204.444 222.139C191.167 222.139 177.876 222.139 164.599 222.139C162.453 222.139 160.695 220.38 160.695 218.234C160.695 204.611 160.695 190.988 160.695 177.365C160.723 175.731 162.62 174.817 163.893 175.842Z" fill="url(#paint44_linear)"/>
<path fill-rule="evenodd" clip-rule="evenodd" d="M164.876 174.637C166.205 175.703 167.604 177.046 169.002 178.389C171.563 180.854 174.125 183.304 175.523 183.484C179.012 183.913 182.902 184.453 186.889 185.007C193.147 185.879 199.64 186.793 205.801 187.388C206.798 187.485 208.723 185.187 210.107 183.526C211.27 182.141 212.184 181.047 213.25 181.047C214.399 181.047 215.036 181.67 215.036 183.096V214.856C215.036 215.784 214.814 216.656 214.399 217.445C213.984 218.22 213.374 218.885 212.599 219.411L207.504 222.803C207.033 223.121 206.549 223.343 206.051 223.495C206.009 223.509 205.967 223.523 205.926 223.523C205.455 223.648 204.971 223.717 204.472 223.717H164.627C163.118 223.717 161.761 223.108 160.764 222.111C159.781 221.114 159.158 219.757 159.158 218.248V177.379C159.158 176.52 159.449 175.773 159.934 175.177C160.266 174.762 160.695 174.43 161.166 174.208C161.65 173.973 162.163 173.848 162.689 173.848C163.436 173.848 164.198 174.097 164.876 174.637ZM163.893 175.842C167.714 178.901 172.463 184.661 175.343 185.021C184.716 186.156 195.515 187.942 205.649 188.925C208.889 189.243 213.457 180.48 213.457 183.083C213.457 193.674 213.457 204.251 213.457 214.842C213.457 216.185 212.834 217.348 211.713 218.096C210.01 219.231 208.321 220.353 206.618 221.488C205.954 221.931 205.261 222.139 204.445 222.139C191.167 222.139 177.877 222.139 164.599 222.139C162.453 222.139 160.695 220.38 160.695 218.234C160.695 204.611 160.695 190.988 160.695 177.365C160.723 175.731 162.62 174.817 163.893 175.842Z" fill="black"/>
<path opacity="0.5" fill-rule="evenodd" clip-rule="evenodd" d="M205.663 221.972C205.331 222.069 204.86 222.152 204.486 222.152C191.209 222.152 177.918 222.152 164.641 222.152C162.495 222.152 160.737 220.394 160.737 218.248C160.737 211.506 160.737 204.777 160.737 198.035C162.177 203.393 169.141 215.493 178.513 215.493C191.251 215.493 201.523 215.881 205.677 213.499C206.397 215.493 208.404 218.511 210.232 219.134C209.276 219.73 206.591 221.709 205.663 221.972Z" fill="url(#paint45_linear)"/>
<path opacity="0.5" fill-rule="evenodd" clip-rule="evenodd" d="M211.104 184.772C211.228 184.633 211.879 183.816 212.433 183.235C213.001 182.64 213.444 182.28 213.471 183.096V185.962V214.856C213.471 216.199 212.848 217.362 211.727 218.11C211.339 218.373 210.938 218.636 210.55 218.899C212.53 216.158 211.879 193.342 211.63 187.61C211.547 185.852 206.438 189.562 205.649 192.58C205.068 190.199 204.68 189.88 190.42 187.956C173.834 185.727 173.585 187.001 173.654 188.233C171.702 186.696 165.029 180.992 160.723 177.379C160.723 175.731 162.62 174.831 163.893 175.856C167.714 178.915 172.463 184.675 175.343 185.035C184.716 186.17 195.515 187.956 205.649 188.939C207.393 189.105 209.512 186.668 211.104 184.772Z" fill="url(#paint46_linear)"/>
<path fill-rule="evenodd" clip-rule="evenodd" d="M188.371 192.538H187.969C187.651 192.538 187.346 192.677 187.138 192.885C186.931 193.092 186.792 193.397 186.792 193.715V204.653C186.792 204.874 186.972 205.04 187.18 205.04H189.132C189.354 205.04 189.52 204.86 189.52 204.653V193.715C189.52 193.397 189.381 193.092 189.174 192.885C188.98 192.663 188.689 192.538 188.371 192.538Z" fill="#3B0201"/>
<path fill-rule="evenodd" clip-rule="evenodd" d="M188.371 192.926H187.969C187.54 192.926 187.194 193.272 187.194 193.701V204.639H189.146V193.701C189.146 193.272 188.8 192.926 188.371 192.926Z" fill="url(#paint47_linear)"/>
<path opacity="0.5" fill-rule="evenodd" clip-rule="evenodd" d="M188.315 193.161H188.024C187.706 193.161 187.443 193.424 187.443 193.743V204.652H188.897V193.743C188.897 193.424 188.634 193.161 188.315 193.161Z" fill="url(#paint48_linear)"/>
<path fill-rule="evenodd" clip-rule="evenodd" d="M187.678 193.895V204.653H188.661V193.895C188.661 193.355 187.678 193.355 187.678 193.895Z" fill="url(#paint49_linear)"/>
<path fill-rule="evenodd" clip-rule="evenodd" d="M184.467 191.555H184.079C183.76 191.555 183.456 191.694 183.248 191.902C183.041 192.109 182.902 192.414 182.902 192.732V203.67C182.902 203.891 183.082 204.057 183.29 204.057H185.242C185.463 204.057 185.63 203.877 185.63 203.67V192.732C185.63 192.414 185.491 192.109 185.283 191.902C185.076 191.694 184.785 191.555 184.467 191.555Z" fill="#3B0201"/>
<path fill-rule="evenodd" clip-rule="evenodd" d="M184.467 191.943H184.079C183.65 191.943 183.304 192.289 183.304 192.718V203.656H185.256V192.718C185.242 192.303 184.896 191.943 184.467 191.943Z" fill="url(#paint50_linear)"/>
<path opacity="0.5" fill-rule="evenodd" clip-rule="evenodd" d="M184.411 192.178H184.12C183.802 192.178 183.539 192.442 183.539 192.76V203.67H184.993V192.76C184.993 192.442 184.73 192.178 184.411 192.178Z" fill="url(#paint51_linear)"/>
<path fill-rule="evenodd" clip-rule="evenodd" d="M183.774 192.912V203.669H184.757V192.912C184.757 192.386 183.774 192.386 183.774 192.912Z" fill="url(#paint52_linear)"/>
<path fill-rule="evenodd" clip-rule="evenodd" d="M180.548 190.586H180.161C179.842 190.586 179.538 190.725 179.33 190.933C179.122 191.14 178.984 191.445 178.984 191.763V202.701C178.984 202.922 179.164 203.088 179.372 203.088H181.324C181.545 203.088 181.711 202.908 181.711 202.701V191.763C181.711 191.445 181.573 191.14 181.365 190.933C181.171 190.711 180.881 190.586 180.548 190.586Z" fill="#3B0201"/>
<path fill-rule="evenodd" clip-rule="evenodd" d="M180.548 190.974H180.161C179.731 190.974 179.385 191.32 179.385 191.749V202.687H181.337V191.749C181.337 191.32 180.978 190.974 180.548 190.974Z" fill="url(#paint53_linear)"/>
<path opacity="0.5" fill-rule="evenodd" clip-rule="evenodd" d="M180.507 191.209H180.216C179.898 191.209 179.635 191.473 179.635 191.791V202.701H181.088V191.791C181.088 191.473 180.825 191.209 180.507 191.209Z" fill="url(#paint54_linear)"/>
<path fill-rule="evenodd" clip-rule="evenodd" d="M179.87 191.943V202.701H180.853V191.943C180.853 191.403 179.87 191.403 179.87 191.943Z" fill="url(#paint55_linear)"/>
<path fill-rule="evenodd" clip-rule="evenodd" d="M176.644 189.603H176.257C175.938 189.603 175.634 189.742 175.426 189.95C175.218 190.157 175.08 190.462 175.08 190.78V201.718C175.08 201.939 175.26 202.105 175.467 202.105H177.42C177.641 202.105 177.807 201.925 177.807 201.718V190.78C177.807 190.462 177.669 190.157 177.461 189.95C177.267 189.742 176.963 189.603 176.644 189.603Z" fill="#3B0201"/>
<path fill-rule="evenodd" clip-rule="evenodd" d="M176.644 189.991H176.257C175.827 189.991 175.481 190.337 175.481 190.766V201.704H177.433V190.766C177.433 190.351 177.073 189.991 176.644 189.991Z" fill="url(#paint56_linear)"/>
<path opacity="0.5" fill-rule="evenodd" clip-rule="evenodd" d="M176.603 190.226H176.312C175.994 190.226 175.731 190.489 175.731 190.808V201.717H177.184V190.808C177.184 190.489 176.921 190.226 176.603 190.226Z" fill="url(#paint57_linear)"/>
<path fill-rule="evenodd" clip-rule="evenodd" d="M175.966 190.96V201.718H176.949V190.96C176.935 190.434 175.966 190.434 175.966 190.96Z" fill="url(#paint58_linear)"/>
<path opacity="0.5" fill-rule="evenodd" clip-rule="evenodd" d="M190.987 202.964V197.426C190.987 196.567 189.146 195.57 186.889 195.211L176.769 193.591C174.512 193.231 172.671 193.632 172.671 194.491V198.589C172.685 198.879 190.987 203.296 190.987 202.964Z" fill="url(#paint59_linear)"/>
<path fill-rule="evenodd" clip-rule="evenodd" d="M172.754 198.367C172.519 198.339 172.311 198.45 172.311 198.699V208.474C172.311 210.813 174.221 212.738 176.575 212.738H187.111C189.451 212.738 191.375 210.827 191.375 208.474V202.617C191.361 202.008 174.554 198.741 172.754 198.367Z" fill="#3B0201"/>
<path fill-rule="evenodd" clip-rule="evenodd" d="M172.657 198.699L191.001 202.604V208.46C191.001 210.606 189.243 212.364 187.097 212.364H176.561C174.415 212.364 172.657 210.606 172.657 208.46V198.699Z" fill="url(#paint60_radial)"/>
<path opacity="0.5" fill-rule="evenodd" clip-rule="evenodd" d="M177.129 199.655C181.753 200.638 186.377 201.621 191.001 202.604C182.21 202.604 177.06 208.266 176.561 212.378C174.415 212.378 172.657 210.62 172.657 208.474C175.066 211.063 181.116 202.327 177.129 199.655Z" fill="url(#paint61_linear)"/>
<path fill-rule="evenodd" clip-rule="evenodd" d="M196.913 196.069L193.812 201.427C193.507 201.953 193.895 202.604 194.49 202.604H195.847C196.124 202.604 196.387 202.451 196.525 202.216L197.273 200.928C197.425 200.665 197.799 200.665 197.951 200.928L198.699 202.216C198.837 202.465 199.1 202.604 199.377 202.604H200.734C201.329 202.604 201.717 201.953 201.413 201.427L198.298 196.027C197.979 195.501 197.19 195.515 196.913 196.069Z" fill="#3B0201"/>
<path fill-rule="evenodd" clip-rule="evenodd" d="M197.259 196.221L194.144 201.621C193.992 201.884 194.186 202.202 194.476 202.202H195.833C195.972 202.202 196.096 202.133 196.165 202.008L197.245 200.125C197.398 199.862 197.771 199.862 197.924 200.125L199.004 202.008C199.073 202.133 199.197 202.202 199.336 202.202H200.693C200.997 202.202 201.177 201.884 201.025 201.621L197.91 196.221C197.785 195.972 197.411 195.972 197.259 196.221Z" fill="url(#paint62_linear)"/>
<path fill-rule="evenodd" clip-rule="evenodd" d="M197.938 197.01C198.519 198.007 199.696 200.042 200.374 201.233C200.748 201.884 199.46 201.995 199.239 201.621C198.92 201.053 198.588 200.499 198.27 199.945C197.965 199.419 197.218 199.419 196.913 199.945C196.595 200.513 196.262 201.067 195.944 201.621C195.722 201.995 194.435 201.884 194.809 201.233C195.625 199.821 196.428 198.423 197.245 197.01C197.411 196.747 197.785 196.747 197.938 197.01Z" fill="url(#paint63_radial)"/>
<path opacity="0.5" fill-rule="evenodd" clip-rule="evenodd" d="M194.892 200.333C195.819 199.502 196.664 199.862 195.847 202.202C195.985 202.202 196.11 202.133 196.179 202.008C196.498 200.07 198.491 197.841 199.294 198.561C198.837 197.786 198.394 196.996 197.938 196.221C197.564 197.896 196.318 199.392 194.892 200.333Z" fill="url(#paint64_linear)"/>
<path fill-rule="evenodd" clip-rule="evenodd" d="M197.052 202.521L194.559 206.826C194.324 207.242 194.615 207.768 195.099 207.768H196.193C196.415 207.768 196.622 207.643 196.733 207.449L197.328 206.411C197.453 206.203 197.758 206.203 197.868 206.411L198.464 207.449C198.574 207.643 198.782 207.768 199.004 207.768H200.097C200.568 207.768 200.886 207.255 200.637 206.826L198.131 202.493C197.91 202.078 197.273 202.091 197.052 202.521Z" fill="#3B0201"/>
<path fill-rule="evenodd" clip-rule="evenodd" d="M197.328 202.659L194.823 206.992C194.698 207.2 194.85 207.463 195.099 207.463H196.193C196.304 207.463 196.401 207.408 196.47 207.311L197.342 205.802C197.467 205.594 197.771 205.594 197.882 205.802L198.754 207.311C198.81 207.408 198.907 207.463 199.031 207.463H200.125C200.36 207.463 200.513 207.2 200.402 206.992L197.896 202.659C197.758 202.451 197.453 202.451 197.328 202.659Z" fill="url(#paint65_linear)"/>
<path fill-rule="evenodd" clip-rule="evenodd" d="M197.868 203.282C198.325 204.085 199.281 205.719 199.82 206.674C200.125 207.2 199.087 207.297 198.921 206.992C198.658 206.536 198.394 206.093 198.145 205.636C197.91 205.22 197.301 205.22 197.065 205.636C196.802 206.093 196.539 206.536 196.29 206.992C196.11 207.297 195.086 207.2 195.39 206.674C196.041 205.539 196.692 204.417 197.342 203.282C197.453 203.074 197.758 203.074 197.868 203.282Z" fill="url(#paint66_radial)"/>
<path opacity="0.5" fill-rule="evenodd" clip-rule="evenodd" d="M195.432 205.954C196.179 205.289 196.858 205.566 196.193 207.449C196.304 207.449 196.401 207.394 196.47 207.297C196.733 205.746 198.325 203.947 198.962 204.528C198.602 203.905 198.242 203.282 197.882 202.645C197.564 204.002 196.581 205.193 195.432 205.954Z" fill="url(#paint67_linear)"/>
<path fill-rule="evenodd" clip-rule="evenodd" d="M197.176 208.017L195.293 211.27C195.113 211.589 195.335 211.977 195.708 211.977H196.525C196.691 211.977 196.844 211.88 196.941 211.741L197.398 210.952C197.494 210.8 197.716 210.8 197.813 210.952L198.27 211.741C198.353 211.893 198.505 211.977 198.685 211.977H199.502C199.862 211.977 200.097 211.589 199.917 211.27L198.034 208.003C197.827 207.671 197.356 207.685 197.176 208.017Z" fill="#3B0201"/>
<path fill-rule="evenodd" clip-rule="evenodd" d="M197.398 208.114L195.515 211.381C195.418 211.533 195.542 211.741 195.722 211.741H196.539C196.622 211.741 196.705 211.7 196.747 211.617L197.398 210.481C197.494 210.329 197.716 210.329 197.813 210.481L198.464 211.617C198.505 211.686 198.588 211.741 198.671 211.741H199.488C199.668 211.741 199.779 211.547 199.696 211.381L197.813 208.114C197.716 207.962 197.494 207.962 197.398 208.114Z" fill="url(#paint68_linear)"/>
<path fill-rule="evenodd" clip-rule="evenodd" d="M197.813 208.585C198.159 209.194 198.879 210.426 199.294 211.146C199.53 211.547 198.74 211.617 198.616 211.381C198.422 211.035 198.228 210.703 198.021 210.357C197.841 210.038 197.384 210.038 197.204 210.357C197.01 210.703 196.816 211.035 196.622 211.381C196.484 211.603 195.708 211.547 195.944 211.146C196.442 210.287 196.927 209.443 197.425 208.585C197.494 208.432 197.716 208.432 197.813 208.585Z" fill="url(#paint69_radial)"/>
<path opacity="0.5" fill-rule="evenodd" clip-rule="evenodd" d="M195.958 210.606C196.525 210.108 197.038 210.315 196.539 211.741C196.622 211.741 196.705 211.7 196.747 211.617C196.941 210.44 198.145 209.083 198.63 209.526C198.353 209.055 198.09 208.585 197.813 208.114C197.577 209.125 196.83 210.024 195.958 210.606Z" fill="url(#paint70_linear)"/>
<path fill-rule="evenodd" clip-rule="evenodd" d="M205.857 188.925C205.857 188.814 205.774 188.731 205.663 188.731C205.552 188.731 205.469 188.814 205.469 188.925V192.345L173.751 188.025L160.861 177.212C160.778 177.143 160.654 177.157 160.584 177.24C160.515 177.323 160.529 177.448 160.612 177.517L173.543 188.371C173.571 188.399 173.612 188.413 173.64 188.413L205.469 192.746V221.986C205.469 222.097 205.552 222.18 205.663 222.18C205.774 222.18 205.857 222.097 205.857 221.986V188.925ZM213.527 199.156C213.624 199.129 213.693 199.018 213.665 198.921C213.637 198.824 213.527 198.755 213.43 198.782L207.089 200.624C206.937 200.665 206.812 200.762 206.715 200.887L206.701 200.901C206.618 201.025 206.563 201.164 206.563 201.316V202.285C206.563 202.341 206.577 202.382 206.577 202.437C206.604 202.548 206.674 202.631 206.743 202.687L206.757 202.701C206.84 202.756 206.923 202.784 207.02 202.784C207.075 202.784 207.13 202.77 207.186 202.756L213.527 200.915C213.624 200.887 213.693 200.776 213.665 200.679C213.637 200.582 213.527 200.513 213.43 200.541C211.755 201.025 208.584 202.161 207.033 202.382C207.006 202.382 206.992 202.382 206.978 202.368C206.964 202.354 206.95 202.341 206.95 202.327V202.285V201.316C206.95 201.261 206.978 201.191 207.02 201.136L207.033 201.122C207.075 201.067 207.144 201.011 207.213 200.998L213.527 199.156ZM213.527 206.965C213.624 206.937 213.693 206.826 213.665 206.729C213.637 206.632 213.527 206.563 213.43 206.591L207.089 208.432C206.937 208.474 206.812 208.571 206.715 208.695L206.701 208.709C206.618 208.834 206.563 208.972 206.563 209.124V210.094C206.563 210.149 206.577 210.191 206.577 210.246C206.604 210.357 206.674 210.44 206.743 210.495L206.757 210.509C206.84 210.564 206.923 210.592 207.02 210.592C207.075 210.592 207.13 210.578 207.186 210.564L213.527 208.723C213.624 208.695 213.693 208.585 213.665 208.488C213.637 208.391 213.527 208.321 213.43 208.349C211.755 208.834 208.584 209.969 207.033 210.191C207.006 210.191 206.992 210.191 206.978 210.177C206.964 210.163 206.95 210.149 206.95 210.135V210.094V209.124C206.95 209.069 206.978 209 207.02 208.944L207.033 208.931C207.075 208.875 207.144 208.82 207.213 208.806L213.527 206.965ZM213.527 203.06L207.186 204.902C207.117 204.916 207.061 204.971 207.006 205.026L206.992 205.04C206.95 205.096 206.923 205.165 206.923 205.22V206.189V206.231C206.923 206.245 206.937 206.259 206.95 206.272C206.964 206.286 206.978 206.286 207.006 206.286C208.556 206.051 211.727 204.93 213.402 204.445C213.499 204.417 213.61 204.473 213.637 204.583C213.665 204.68 213.61 204.791 213.499 204.819L207.158 206.66C207.103 206.674 207.047 206.688 206.992 206.688C206.895 206.688 206.798 206.66 206.729 206.605L206.715 206.591C206.632 206.536 206.577 206.452 206.549 206.342C206.535 206.3 206.535 206.245 206.535 206.189V205.22C206.535 205.082 206.59 204.93 206.674 204.805L206.687 204.791C206.784 204.666 206.909 204.57 207.061 204.528L213.402 202.687C213.499 202.659 213.61 202.714 213.637 202.825C213.693 202.922 213.624 203.033 213.527 203.06Z" fill="#3B0201"/>
<path opacity="0.5" fill-rule="evenodd" clip-rule="evenodd" d="M205.663 221.972C205.331 222.069 204.86 222.152 204.486 222.152C191.209 222.152 177.918 222.152 164.641 222.152C162.495 222.152 160.737 220.394 160.737 218.248C160.737 211.506 160.737 204.777 160.737 198.035C161.318 200.222 167.368 196.055 172.325 198.713C173.377 205.22 186.737 212.78 190.448 210.523C199.004 219.079 216.877 211.215 210.232 219.12C209.276 219.73 206.591 221.709 205.663 221.972Z" fill="url(#paint71_linear)"/>
<path fill-rule="evenodd" clip-rule="evenodd" d="M160.723 186.973C162.426 186.973 164.129 186.973 165.832 186.973C168.061 186.973 171.203 194.006 171.203 197.094C171.203 205.94 171.203 214.801 171.203 223.648C171.203 226.721 167.784 230.072 166.108 230.072C164.309 230.072 162.523 230.072 160.723 230.072C159.643 230.072 158.771 229.199 158.771 228.12C158.771 215.05 158.771 201.995 158.771 188.925C158.771 187.859 159.643 186.973 160.723 186.973Z" fill="url(#paint72_linear)"/>
<path fill-rule="evenodd" clip-rule="evenodd" d="M160.723 185.422H165.832C167.535 185.422 169.224 187.291 170.483 189.673C171.771 192.096 172.754 195.211 172.754 197.093V223.648C172.754 225.434 171.896 227.233 170.774 228.646C169.39 230.39 167.451 231.636 166.095 231.636H160.709C159.74 231.636 158.854 231.235 158.217 230.612C158.175 230.57 158.148 230.542 158.12 230.501C157.539 229.878 157.193 229.047 157.193 228.133V188.939C157.193 187.97 157.594 187.098 158.217 186.461C158.868 185.81 159.754 185.422 160.723 185.422ZM160.723 186.973C162.426 186.973 164.129 186.973 165.832 186.973C168.061 186.973 171.203 194.006 171.203 197.093C171.203 205.94 171.203 214.801 171.203 223.648C171.203 226.721 167.784 230.072 166.108 230.072C164.309 230.072 162.523 230.072 160.723 230.072C159.643 230.072 158.771 229.199 158.771 228.119C158.771 215.05 158.771 201.994 158.771 188.925C158.771 187.859 159.643 186.973 160.723 186.973Z" fill="black"/>
<path opacity="0.5" fill-rule="evenodd" clip-rule="evenodd" d="M165.832 186.973C168.061 186.973 171.203 194.006 171.203 197.094C171.203 205.94 171.203 214.801 171.203 223.648C171.203 226.721 167.784 230.072 166.109 230.072C168.587 223.343 169.764 231.844 169.764 209.401C169.764 186.973 168.407 194.615 165.832 186.973Z" fill="url(#paint73_linear)"/>
<path fill-rule="evenodd" clip-rule="evenodd" d="M171.397 202.77C171.397 202.507 171.01 202.507 171.01 202.77C171.01 208.058 167.825 208.986 163.243 208.986V209.374C167.825 209.374 171.01 210.301 171.01 215.59C171.01 215.853 171.397 215.853 171.397 215.59C171.397 211.963 169.888 209.775 166.344 209.18C169.888 208.585 171.397 206.383 171.397 202.77Z" fill="#3B0201"/>
<path fill-rule="evenodd" clip-rule="evenodd" d="M160.307 195.294C161.65 195.294 162.979 195.294 164.322 195.294C165.195 195.294 166.261 196.374 167.091 197.689C167.922 199.004 164.641 200.555 164.641 201.51C164.641 206.951 164.641 212.392 164.641 217.833C164.641 218.774 167.88 219.771 167.036 220.519C166.205 221.266 165.195 221.793 164.544 221.793C163.132 221.793 161.72 221.793 160.321 221.793C159.477 221.793 158.785 221.253 158.785 220.588C158.785 212.558 158.785 204.528 158.785 196.498C158.771 195.834 159.463 195.294 160.307 195.294Z" fill="url(#paint74_linear)"/>
<path fill-rule="evenodd" clip-rule="evenodd" d="M160.308 194.892H164.322C164.835 194.892 165.375 195.169 165.887 195.612C166.427 196.083 166.953 196.747 167.424 197.467C168.102 198.533 166.995 199.516 166.025 200.389C165.513 200.845 165.029 201.275 165.029 201.482V217.805C165.029 218.027 165.624 218.414 166.192 218.788C166.621 219.065 167.036 219.328 167.285 219.619C167.645 220.007 167.714 220.408 167.285 220.782C166.842 221.183 166.344 221.516 165.873 221.765L165.845 221.779C165.361 222.014 164.904 222.152 164.516 222.152H160.294C159.781 222.152 159.311 221.986 158.965 221.709C158.591 221.419 158.369 221.017 158.369 220.56V196.471C158.369 196.014 158.605 195.612 158.965 195.321C159.325 195.072 159.795 194.892 160.308 194.892ZM160.308 195.294C161.65 195.294 162.98 195.294 164.322 195.294C165.195 195.294 166.261 196.374 167.091 197.689C167.922 199.004 164.641 200.555 164.641 201.51C164.641 206.951 164.641 212.392 164.641 217.833C164.641 218.774 167.881 219.771 167.036 220.519C166.205 221.266 165.195 221.792 164.544 221.792C163.132 221.792 161.72 221.792 160.321 221.792C159.477 221.792 158.785 221.253 158.785 220.588C158.785 212.558 158.785 204.528 158.785 196.498C158.771 195.834 159.463 195.294 160.308 195.294Z" fill="#3B0201"/>
<path opacity="0.5" fill-rule="evenodd" clip-rule="evenodd" d="M160.723 186.973C162.426 186.973 164.129 186.973 165.832 186.973C163.99 190.157 162.827 190.85 162.827 208.169C162.827 225.489 163.727 227.704 166.095 230.072C164.295 230.072 162.509 230.072 160.709 230.072C159.629 230.072 158.757 229.199 158.757 228.12C158.757 215.05 158.757 201.995 158.757 188.925C158.771 187.859 159.643 186.973 160.723 186.973Z" fill="url(#paint75_linear)"/>
</g>
</g>
<defs>
<linearGradient id="paint0_linear" x1="60.5943" y1="190.817" x2="60.5956" y2="171.875" gradientUnits="userSpaceOnUse">
<stop stop-color="#7A0604"/>
<stop offset="1" stop-color="#C2391E"/>
</linearGradient>
<linearGradient id="paint1_linear" x1="61.8158" y1="182.638" x2="61.8158" y2="171.047" gradientUnits="userSpaceOnUse">
<stop stop-color="#7A0604"/>
<stop offset="1" stop-color="white"/>
</linearGradient>
<linearGradient id="paint2_linear" x1="59.381" y1="191.298" x2="59.3703" y2="176.72" gradientUnits="userSpaceOnUse">
<stop stop-color="#C2391E"/>
<stop offset="1" stop-color="#F3CAD9"/>
</linearGradient>
<radialGradient id="paint3_radial" cx="0" cy="0" r="1" gradientUnits="userSpaceOnUse" gradientTransform="translate(60.6281 174.463) scale(2.35179)">
<stop stop-color="#185C22"/>
<stop offset="1" stop-color="#00290D"/>
</radialGradient>
<radialGradient id="paint4_radial" cx="0" cy="0" r="1" gradientUnits="userSpaceOnUse" gradientTransform="translate(60.6945 173.656) rotate(1.02275) scale(1.88636 1.8392)">
<stop stop-color="#80C342"/>
<stop offset="1" stop-color="#2F943E"/>
</radialGradient>
<linearGradient id="paint5_linear" x1="61.5273" y1="175.074" x2="59.425" y2="173.31" gradientUnits="userSpaceOnUse">
<stop stop-color="#2F943E"/>
<stop offset="1" stop-color="white"/>
</linearGradient>
<linearGradient id="paint6_linear" x1="83.5517" y1="217.936" x2="83.5522" y2="178.516" gradientUnits="userSpaceOnUse">
<stop stop-color="#7A0604"/>
<stop offset="1" stop-color="#C2391E"/>
</linearGradient>
<linearGradient id="paint7_linear" x1="88.9657" y1="224.868" x2="85.7918" y2="211.199" gradientUnits="userSpaceOnUse">
<stop stop-color="#7A0604"/>
<stop offset="1" stop-color="white"/>
</linearGradient>
<linearGradient id="paint8_linear" x1="83.5496" y1="215.898" x2="83.5514" y2="187.676" gradientUnits="userSpaceOnUse">
<stop stop-color="#C2391E"/>
<stop offset="1" stop-color="#F3CAD9"/>
</linearGradient>
<linearGradient id="paint9_linear" x1="82.4777" y1="204.103" x2="82.4795" y2="192.927" gradientUnits="userSpaceOnUse">
<stop stop-color="#7A0604"/>
<stop offset="1" stop-color="#C2391E"/>
</linearGradient>
<linearGradient id="paint10_linear" x1="82.4776" y1="203.985" x2="82.4796" y2="193.161" gradientUnits="userSpaceOnUse">
<stop stop-color="#F36E21"/>
<stop offset="1" stop-color="#FFF01F"/>
</linearGradient>
<linearGradient id="paint11_linear" x1="82.4777" y1="194.202" x2="82.4795" y2="204.649" gradientUnits="userSpaceOnUse">
<stop stop-color="#3A0000"/>
<stop offset="1" stop-color="#C2391E"/>
</linearGradient>
<linearGradient id="paint12_linear" x1="86.385" y1="203.126" x2="86.3868" y2="191.95" gradientUnits="userSpaceOnUse">
<stop stop-color="#7A0604"/>
<stop offset="1" stop-color="#C2391E"/>
</linearGradient>
<linearGradient id="paint13_linear" x1="86.3849" y1="203.008" x2="86.3868" y2="192.184" gradientUnits="userSpaceOnUse">
<stop stop-color="#F36E21"/>
<stop offset="1" stop-color="#FFF01F"/>
</linearGradient>
<linearGradient id="paint14_linear" x1="86.3849" y1="193.225" x2="86.3867" y2="203.672" gradientUnits="userSpaceOnUse">
<stop stop-color="#3A0000"/>
<stop offset="1" stop-color="#C2391E"/>
</linearGradient>
<linearGradient id="paint15_linear" x1="90.2922" y1="202.149" x2="90.294" y2="190.973" gradientUnits="userSpaceOnUse">
<stop stop-color="#7A0604"/>
<stop offset="1" stop-color="#C2391E"/>
</linearGradient>
<linearGradient id="paint16_linear" x1="90.2921" y1="202.031" x2="90.2941" y2="191.207" gradientUnits="userSpaceOnUse">
<stop stop-color="#F36E21"/>
<stop offset="1" stop-color="#FFF01F"/>
</linearGradient>
<linearGradient id="paint17_linear" x1="90.2921" y1="192.248" x2="90.294" y2="202.695" gradientUnits="userSpaceOnUse">
<stop stop-color="#3A0000"/>
<stop offset="1" stop-color="#C2391E"/>
</linearGradient>
<linearGradient id="paint18_linear" x1="94.1994" y1="201.172" x2="94.2012" y2="189.996" gradientUnits="userSpaceOnUse">
<stop stop-color="#7A0604"/>
<stop offset="1" stop-color="#C2391E"/>
</linearGradient>
<linearGradient id="paint19_linear" x1="94.1994" y1="201.054" x2="94.2014" y2="190.23" gradientUnits="userSpaceOnUse">
<stop stop-color="#F36E21"/>
<stop offset="1" stop-color="#FFF01F"/>
</linearGradient>
<linearGradient id="paint20_linear" x1="94.1994" y1="191.271" x2="94.2013" y2="201.718" gradientUnits="userSpaceOnUse">
<stop stop-color="#3A0000"/>
<stop offset="1" stop-color="#C2391E"/>
</linearGradient>
<linearGradient id="paint21_linear" x1="88.8075" y1="198.657" x2="88.1605" y2="195.737" gradientUnits="userSpaceOnUse">
<stop stop-color="#3A0000"/>
<stop offset="1" stop-color="white"/>
</linearGradient>
<radialGradient id="paint22_radial" cx="0" cy="0" r="1" gradientUnits="userSpaceOnUse" gradientTransform="translate(88.5609 203.864) rotate(-90.0167) scale(8.51387 5.91204)">
<stop stop-color="#C2391E"/>
<stop offset="1" stop-color="#7A0604"/>
</radialGradient>
<linearGradient id="paint23_linear" x1="88.8155" y1="211.503" x2="88.816" y2="203.243" gradientUnits="userSpaceOnUse">
<stop stop-color="#C2391E"/>
<stop offset="1" stop-color="#F3CAD9"/>
</linearGradient>
<linearGradient id="paint24_linear" x1="73.0481" y1="201.827" x2="73.0486" y2="196.033" gradientUnits="userSpaceOnUse">
<stop stop-color="#00290D"/>
<stop offset="1" stop-color="#185C22"/>
</linearGradient>
<radialGradient id="paint25_radial" cx="0" cy="0" r="1" gradientUnits="userSpaceOnUse" gradientTransform="translate(73.2091 198.416) rotate(0.172109) scale(3.06681 2.6393)">
<stop stop-color="#80C342"/>
<stop offset="1" stop-color="#2F943E"/>
</radialGradient>
<linearGradient id="paint26_linear" x1="74.6609" y1="201.722" x2="72.5537" y2="197.378" gradientUnits="userSpaceOnUse">
<stop stop-color="#2F943E"/>
<stop offset="1" stop-color="white"/>
</linearGradient>
<linearGradient id="paint27_linear" x1="73.0481" y1="207.155" x2="73.0485" y2="202.502" gradientUnits="userSpaceOnUse">
<stop stop-color="#00290D"/>
<stop offset="1" stop-color="#185C22"/>
</linearGradient>
<radialGradient id="paint28_radial" cx="0" cy="0" r="1" gradientUnits="userSpaceOnUse" gradientTransform="translate(73.1776 204.416) rotate(0.172109) scale(2.46229 2.11906)">
<stop stop-color="#80C342"/>
<stop offset="1" stop-color="#2F943E"/>
</radialGradient>
<linearGradient id="paint29_linear" x1="74.3432" y1="207.071" x2="72.6515" y2="203.583" gradientUnits="userSpaceOnUse">
<stop stop-color="#2F943E"/>
<stop offset="1" stop-color="white"/>
</linearGradient>
<linearGradient id="paint30_linear" x1="73.0479" y1="211.506" x2="73.0482" y2="207.995" gradientUnits="userSpaceOnUse">
<stop stop-color="#00290D"/>
<stop offset="1" stop-color="#185C22"/>
</linearGradient>
<radialGradient id="paint31_radial" cx="0" cy="0" r="1" gradientUnits="userSpaceOnUse" gradientTransform="translate(73.1454 209.439) rotate(0.17211) scale(1.85747 1.59855)">
<stop stop-color="#80C342"/>
<stop offset="1" stop-color="#2F943E"/>
</radialGradient>
<linearGradient id="paint32_linear" x1="74.0252" y1="211.443" x2="72.7485" y2="208.811" gradientUnits="userSpaceOnUse">
<stop stop-color="#2F943E"/>
<stop offset="1" stop-color="white"/>
</linearGradient>
<linearGradient id="paint33_linear" x1="107.971" y1="209.964" x2="65.1844" y2="209.962" gradientUnits="userSpaceOnUse">
<stop stop-color="#7A0604"/>
<stop offset="1" stop-color="white"/>
</linearGradient>
<linearGradient id="paint34_linear" x1="111.882" y1="208.532" x2="99.4484" y2="208.53" gradientUnits="userSpaceOnUse">
<stop stop-color="#7A0604"/>
<stop offset="1" stop-color="#C2391E"/>
</linearGradient>
<linearGradient id="paint35_linear" x1="102.109" y1="227.121" x2="102.126" y2="199.137" gradientUnits="userSpaceOnUse">
<stop stop-color="#C2391E"/>
<stop offset="1" stop-color="#F3CAD9"/>
</linearGradient>
<linearGradient id="paint36_linear" x1="111.881" y1="208.532" x2="103.428" y2="208.53" gradientUnits="userSpaceOnUse">
<stop stop-color="#7A0604"/>
<stop offset="1" stop-color="#C2391E"/>
</linearGradient>
<linearGradient id="paint37_linear" x1="111.881" y1="208.532" x2="104.969" y2="208.531" gradientUnits="userSpaceOnUse">
<stop stop-color="#7A0604"/>
<stop offset="1" stop-color="white"/>
</linearGradient>
<linearGradient id="paint38_linear" x1="210.056" y1="190.817" x2="210.054" y2="171.875" gradientUnits="userSpaceOnUse">
<stop stop-color="#7A0604"/>
<stop offset="1" stop-color="#C2391E"/>
</linearGradient>
<linearGradient id="paint39_linear" x1="208.834" y1="182.638" x2="208.834" y2="171.047" gradientUnits="userSpaceOnUse">
<stop stop-color="#7A0604"/>
<stop offset="1" stop-color="white"/>
</linearGradient>
<linearGradient id="paint40_linear" x1="211.269" y1="191.298" x2="211.28" y2="176.72" gradientUnits="userSpaceOnUse">
<stop stop-color="#C2391E"/>
<stop offset="1" stop-color="#F3CAD9"/>
</linearGradient>
<radialGradient id="paint41_radial" cx="0" cy="0" r="1" gradientUnits="userSpaceOnUse" gradientTransform="translate(210.022 174.463) scale(2.35188)">
<stop stop-color="#185C22"/>
<stop offset="1" stop-color="#00290D"/>
</radialGradient>
<radialGradient id="paint42_radial" cx="0" cy="0" r="1" gradientUnits="userSpaceOnUse" gradientTransform="translate(209.949 173.656) rotate(-1.02274) scale(1.88657 1.8394)">
<stop stop-color="#80C342"/>
<stop offset="1" stop-color="#2F943E"/>
</radialGradient>
<linearGradient id="paint43_linear" x1="209.123" y1="175.074" x2="211.225" y2="173.31" gradientUnits="userSpaceOnUse">
<stop stop-color="#2F943E"/>
<stop offset="1" stop-color="white"/>
</linearGradient>
<linearGradient id="paint44_linear" x1="187.098" y1="217.936" x2="187.098" y2="178.516" gradientUnits="userSpaceOnUse">
<stop stop-color="#7A0604"/>
<stop offset="1" stop-color="#C2391E"/>
</linearGradient>
<linearGradient id="paint45_linear" x1="181.684" y1="224.868" x2="184.858" y2="211.199" gradientUnits="userSpaceOnUse">
<stop stop-color="#7A0604"/>
<stop offset="1" stop-color="white"/>
</linearGradient>
<linearGradient id="paint46_linear" x1="187.1" y1="215.898" x2="187.098" y2="187.676" gradientUnits="userSpaceOnUse">
<stop stop-color="#C2391E"/>
<stop offset="1" stop-color="#F3CAD9"/>
</linearGradient>
<linearGradient id="paint47_linear" x1="188.172" y1="204.103" x2="188.17" y2="192.926" gradientUnits="userSpaceOnUse">
<stop stop-color="#7A0604"/>
<stop offset="1" stop-color="#C2391E"/>
</linearGradient>
<linearGradient id="paint48_linear" x1="188.172" y1="203.985" x2="188.17" y2="193.16" gradientUnits="userSpaceOnUse">
<stop stop-color="#F36E21"/>
<stop offset="1" stop-color="#FFF01F"/>
</linearGradient>
<linearGradient id="paint49_linear" x1="188.172" y1="194.202" x2="188.17" y2="204.649" gradientUnits="userSpaceOnUse">
<stop stop-color="#3A0000"/>
<stop offset="1" stop-color="#C2391E"/>
</linearGradient>
<linearGradient id="paint50_linear" x1="184.265" y1="203.126" x2="184.263" y2="191.949" gradientUnits="userSpaceOnUse">
<stop stop-color="#7A0604"/>
<stop offset="1" stop-color="#C2391E"/>
</linearGradient>
<linearGradient id="paint51_linear" x1="184.265" y1="203.008" x2="184.263" y2="192.184" gradientUnits="userSpaceOnUse">
<stop stop-color="#F36E21"/>
<stop offset="1" stop-color="#FFF01F"/>
</linearGradient>
<linearGradient id="paint52_linear" x1="184.265" y1="193.225" x2="184.263" y2="203.672" gradientUnits="userSpaceOnUse">
<stop stop-color="#3A0000"/>
<stop offset="1" stop-color="#C2391E"/>
</linearGradient>
<linearGradient id="paint53_linear" x1="180.358" y1="202.149" x2="180.356" y2="190.972" gradientUnits="userSpaceOnUse">
<stop stop-color="#7A0604"/>
<stop offset="1" stop-color="#C2391E"/>
</linearGradient>
<linearGradient id="paint54_linear" x1="180.358" y1="202.031" x2="180.356" y2="191.207" gradientUnits="userSpaceOnUse">
<stop stop-color="#F36E21"/>
<stop offset="1" stop-color="#FFF01F"/>
</linearGradient>
<linearGradient id="paint55_linear" x1="180.358" y1="192.248" x2="180.356" y2="202.695" gradientUnits="userSpaceOnUse">
<stop stop-color="#3A0000"/>
<stop offset="1" stop-color="#C2391E"/>
</linearGradient>
<linearGradient id="paint56_linear" x1="176.451" y1="201.172" x2="176.449" y2="189.995" gradientUnits="userSpaceOnUse">
<stop stop-color="#7A0604"/>
<stop offset="1" stop-color="#C2391E"/>
</linearGradient>
<linearGradient id="paint57_linear" x1="176.451" y1="201.054" x2="176.449" y2="190.229" gradientUnits="userSpaceOnUse">
<stop stop-color="#F36E21"/>
<stop offset="1" stop-color="#FFF01F"/>
</linearGradient>
<linearGradient id="paint58_linear" x1="176.451" y1="191.271" x2="176.449" y2="201.718" gradientUnits="userSpaceOnUse">
<stop stop-color="#3A0000"/>
<stop offset="1" stop-color="#C2391E"/>
</linearGradient>
<linearGradient id="paint59_linear" x1="181.842" y1="198.657" x2="182.489" y2="195.737" gradientUnits="userSpaceOnUse">
<stop stop-color="#3A0000"/>
<stop offset="1" stop-color="white"/>
</linearGradient>
<radialGradient id="paint60_radial" cx="0" cy="0" r="1" gradientUnits="userSpaceOnUse" gradientTransform="translate(182.089 203.864) rotate(-89.9833) scale(8.51444 5.91243)">
<stop stop-color="#C2391E"/>
<stop offset="1" stop-color="#7A0604"/>
</radialGradient>
<linearGradient id="paint61_linear" x1="181.834" y1="211.503" x2="181.834" y2="203.243" gradientUnits="userSpaceOnUse">
<stop stop-color="#C2391E"/>
<stop offset="1" stop-color="#F3CAD9"/>
</linearGradient>
<linearGradient id="paint62_linear" x1="197.602" y1="201.827" x2="197.601" y2="196.033" gradientUnits="userSpaceOnUse">
<stop stop-color="#00290D"/>
<stop offset="1" stop-color="#185C22"/>
</linearGradient>
<radialGradient id="paint63_radial" cx="0" cy="0" r="1" gradientUnits="userSpaceOnUse" gradientTransform="translate(197.441 198.416) rotate(-0.172099) scale(3.06668 2.63918)">
<stop stop-color="#80C342"/>
<stop offset="1" stop-color="#2F943E"/>
</radialGradient>
<linearGradient id="paint64_linear" x1="195.989" y1="201.722" x2="198.096" y2="197.378" gradientUnits="userSpaceOnUse">
<stop stop-color="#2F943E"/>
<stop offset="1" stop-color="white"/>
</linearGradient>
<linearGradient id="paint65_linear" x1="197.602" y1="207.155" x2="197.601" y2="202.502" gradientUnits="userSpaceOnUse">
<stop stop-color="#00290D"/>
<stop offset="1" stop-color="#185C22"/>
</linearGradient>
<radialGradient id="paint66_radial" cx="0" cy="0" r="1" gradientUnits="userSpaceOnUse" gradientTransform="translate(197.473 204.416) rotate(-0.1721) scale(2.46217 2.11896)">
<stop stop-color="#80C342"/>
<stop offset="1" stop-color="#2F943E"/>
</radialGradient>
<linearGradient id="paint67_linear" x1="196.307" y1="207.071" x2="197.999" y2="203.583" gradientUnits="userSpaceOnUse">
<stop stop-color="#2F943E"/>
<stop offset="1" stop-color="white"/>
</linearGradient>
<linearGradient id="paint68_linear" x1="197.602" y1="211.506" x2="197.602" y2="207.995" gradientUnits="userSpaceOnUse">
<stop stop-color="#00290D"/>
<stop offset="1" stop-color="#185C22"/>
</linearGradient>
<radialGradient id="paint69_radial" cx="0" cy="0" r="1" gradientUnits="userSpaceOnUse" gradientTransform="translate(197.505 209.439) rotate(-0.172099) scale(1.85757 1.59862)">
<stop stop-color="#80C342"/>
<stop offset="1" stop-color="#2F943E"/>
</radialGradient>
<linearGradient id="paint70_linear" x1="196.625" y1="211.442" x2="197.901" y2="208.81" gradientUnits="userSpaceOnUse">
<stop stop-color="#2F943E"/>
<stop offset="1" stop-color="white"/>
</linearGradient>
<linearGradient id="paint71_linear" x1="162.678" y1="209.964" x2="205.466" y2="209.962" gradientUnits="userSpaceOnUse">
<stop stop-color="#7A0604"/>
<stop offset="1" stop-color="white"/>
</linearGradient>
<linearGradient id="paint72_linear" x1="158.768" y1="208.532" x2="171.202" y2="208.53" gradientUnits="userSpaceOnUse">
<stop stop-color="#7A0604"/>
<stop offset="1" stop-color="#C2391E"/>
</linearGradient>
<linearGradient id="paint73_linear" x1="168.541" y1="227.121" x2="168.524" y2="199.137" gradientUnits="userSpaceOnUse">
<stop stop-color="#C2391E"/>
<stop offset="1" stop-color="#F3CAD9"/>
</linearGradient>
<linearGradient id="paint74_linear" x1="158.769" y1="208.532" x2="167.222" y2="208.53" gradientUnits="userSpaceOnUse">
<stop stop-color="#7A0604"/>
<stop offset="1" stop-color="#C2391E"/>
</linearGradient>
<linearGradient id="paint75_linear" x1="158.769" y1="208.532" x2="165.681" y2="208.531" gradientUnits="userSpaceOnUse">
<stop stop-color="#7A0604"/>
<stop offset="1" stop-color="white"/>
</linearGradient>
<clipPath id="clip0">
<rect width="270" height="370" fill="white"/>
</clipPath>
<clipPath id="clip1">
<rect x="55.6138" y="116.296" width="159.422" height="133.781" fill="white"/>
</clipPath>
</defs>
</svg>
