<svg width="270" height="370" viewBox="0 0 270 370" fill="none" xmlns="http://www.w3.org/2000/svg">
<g clip-path="url(#clip0)">
<g clip-path="url(#clip1)">
<path fill-rule="evenodd" clip-rule="evenodd" d="M101.91 224.783C94.7528 224.783 89.5333 224.783 82.3756 224.783C82.3756 233.505 84.3831 242.241 99.8753 242.933C101.329 243.003 101.91 241.729 101.91 240.981C101.91 235.582 101.91 230.182 101.91 224.783Z" fill="url(#paint0_linear)"/>
<path fill-rule="evenodd" clip-rule="evenodd" d="M101.91 224.783C94.7528 224.783 89.5333 224.783 82.3756 224.783C82.3756 233.505 84.3831 242.241 99.8753 242.933C101.329 243.003 101.91 241.729 101.91 240.981C101.91 235.582 101.91 230.182 101.91 224.783ZM82.3756 223.219H101.91C102.769 223.219 103.475 223.925 103.475 224.783V240.981V241.009V241.023V241.12C103.447 241.77 103.184 242.601 102.644 243.266C102.063 243.972 101.191 244.512 99.9861 244.512H99.9584H99.903H99.8061C91.4993 244.138 86.7505 241.535 84.0508 237.811C81.3649 234.114 80.8112 229.449 80.8112 224.811C80.8112 223.925 81.5172 223.219 82.3756 223.219Z" fill="black"/>
<path opacity="0.5" fill-rule="evenodd" clip-rule="evenodd" d="M101.911 224.783C94.7528 224.783 89.5333 224.783 82.3756 224.783C82.3756 228.729 82.791 232.674 84.6738 235.886C85.9752 231.055 96.0819 231.858 101.924 237.7C101.911 233.394 101.911 229.089 101.911 224.783Z" fill="url(#paint1_linear)"/>
<path opacity="0.5" fill-rule="evenodd" clip-rule="evenodd" d="M101.911 224.783C99.4323 224.783 97.1895 224.783 95.0159 224.783C99.8477 233.145 98.9201 242.726 88.6196 239.971C91.1947 241.632 94.8221 242.712 99.8754 242.933C101.329 243.003 101.911 241.729 101.911 240.981C101.911 235.582 101.911 230.182 101.911 224.783Z" fill="url(#paint2_linear)"/>
<path fill-rule="evenodd" clip-rule="evenodd" d="M94.0468 238.005L97.148 232.647C97.4526 232.121 97.065 231.47 96.4697 231.47H95.1129C94.836 231.47 94.5729 231.622 94.4345 231.858L93.6869 233.145C93.5346 233.408 93.1608 233.408 93.0085 233.145L92.2609 231.858C92.1224 231.608 91.8594 231.47 91.5825 231.47H90.2257C89.6304 231.47 89.2427 232.121 89.5473 232.647L92.6624 238.046C92.9669 238.558 93.7699 238.545 94.0468 238.005Z" fill="#3B0201"/>
<path fill-rule="evenodd" clip-rule="evenodd" d="M93.6869 237.839L96.802 232.439C96.9543 232.176 96.7604 231.858 96.4697 231.858H95.1129C94.9745 231.858 94.8499 231.927 94.7806 232.051L93.7007 233.934C93.5485 234.197 93.1746 234.197 93.0224 233.934L91.9425 232.051C91.8732 231.927 91.7486 231.858 91.6102 231.858H90.2534C89.9488 231.858 89.7688 232.176 89.9211 232.439L93.0362 237.839C93.1608 238.102 93.5346 238.102 93.6869 237.839Z" fill="url(#paint3_linear)"/>
<path fill-rule="evenodd" clip-rule="evenodd" d="M93.0085 237.063C92.427 236.066 91.2502 234.031 90.5718 232.841C90.198 232.19 91.4855 232.079 91.707 232.453C92.0255 233.021 92.3577 233.574 92.6762 234.128C92.9808 234.654 93.7284 234.654 94.033 234.128C94.3514 233.561 94.6837 233.007 95.0021 232.453C95.2236 232.079 96.5112 232.19 96.1374 232.841C95.3205 234.253 94.5175 235.651 93.7007 237.063C93.5345 237.312 93.1607 237.312 93.0085 237.063Z" fill="url(#paint4_radial)"/>
<path opacity="0.5" fill-rule="evenodd" clip-rule="evenodd" d="M96.0681 233.727C95.1406 234.557 94.296 234.197 95.1129 231.858C94.9744 231.858 94.8498 231.927 94.7806 232.051C94.4622 233.99 92.4685 236.219 91.6655 235.499C92.1224 236.274 92.5654 237.063 93.0223 237.839C93.3961 236.163 94.6283 234.668 96.0681 233.727Z" fill="url(#paint5_linear)"/>
<path fill-rule="evenodd" clip-rule="evenodd" d="M62.8407 164.711H80.4235C81.5034 164.711 82.3756 165.597 82.3756 166.663V192.068C92.6899 192.068 101.689 189.396 108.847 185.782C109.47 185.464 110.162 185.492 110.757 185.865C111.353 186.225 111.685 186.835 111.685 187.527C111.685 200.209 111.685 212.904 111.685 225.586C111.685 226.666 110.813 227.538 109.733 227.538C100.609 227.538 91.4993 227.538 82.3756 227.538V272.45C82.3756 279.982 71.286 274.541 71.286 270.152V252.639H68.697C64.3913 252.639 60.8886 249.122 60.8886 244.83V166.663C60.8747 165.583 61.7608 164.711 62.8407 164.711Z" fill="url(#paint6_linear)"/>
<path fill-rule="evenodd" clip-rule="evenodd" d="M62.8407 163.146H80.4235C81.3926 163.146 82.2787 163.548 82.9017 164.185C83.5247 164.821 83.9401 165.708 83.9401 166.663V190.476C88.0796 190.365 91.9839 189.811 95.625 188.953C100.263 187.859 104.458 186.239 108.154 184.384C108.708 184.107 109.29 183.983 109.885 184.01C110.48 184.038 111.062 184.204 111.588 184.536C111.63 184.564 111.685 184.592 111.726 184.633C112.183 184.952 112.557 185.353 112.82 185.81C113.111 186.322 113.263 186.918 113.263 187.527V225.586C113.263 226.555 112.862 227.427 112.239 228.064C111.602 228.701 110.716 229.089 109.747 229.089H83.9401V272.436C83.9401 275.136 82.8048 276.673 81.1158 277.365C80.2574 277.711 79.3021 277.808 78.3191 277.697C77.4192 277.6 76.4778 277.324 75.564 276.922C72.532 275.607 69.7354 272.783 69.7354 270.124V254.189H68.7109C66.1358 254.189 63.796 253.137 62.0931 251.434C60.3902 249.731 59.338 247.391 59.338 244.816V166.663C59.338 165.694 59.7395 164.808 60.3625 164.171C60.4041 164.129 60.4317 164.102 60.4733 164.074C61.0824 163.492 61.927 163.146 62.8407 163.146ZM62.8407 164.711H80.4235C81.5034 164.711 82.3756 165.597 82.3756 166.663V192.068C92.6899 192.068 101.689 189.396 108.847 185.782C109.47 185.464 110.162 185.492 110.757 185.865C111.353 186.225 111.685 186.835 111.685 187.527C111.685 200.209 111.685 212.904 111.685 225.586C111.685 226.666 110.813 227.538 109.733 227.538C100.609 227.538 91.4993 227.538 82.3756 227.538V272.45C82.3756 279.982 71.286 274.541 71.286 270.152V252.638H68.697C64.3913 252.638 60.8886 249.122 60.8886 244.83V166.663C60.8748 165.583 61.7608 164.711 62.8407 164.711Z" fill="black"/>
<path opacity="0.5" fill-rule="evenodd" clip-rule="evenodd" d="M74.5533 164.711C76.5054 164.711 78.4576 164.711 80.4097 164.711C81.4896 164.711 82.3618 165.597 82.3618 166.663C82.3618 175.122 82.3618 183.595 82.3618 192.068C92.6761 192.068 101.675 189.396 108.833 185.782C109.456 185.464 110.148 185.492 110.743 185.865C111.339 186.225 111.671 186.835 111.671 187.527C111.671 200.209 111.671 212.904 111.671 225.586C111.671 226.666 110.799 227.538 109.719 227.538C100.595 227.538 91.4854 227.538 82.3618 227.538C82.3618 242.504 82.3618 257.484 82.3618 272.45C82.3618 277.282 77.8207 276.784 74.5533 274.638C77.35 264.185 78.8867 266.151 78.1945 216.961C78.1668 214.981 106.812 218.137 106.812 209.014C106.812 199.876 77.973 203.933 77.9038 200.956C77.3223 175.44 76.3255 171.287 74.5533 164.711Z" fill="url(#paint7_linear)"/>
<path fill-rule="evenodd" clip-rule="evenodd" d="M71.2861 252.625C70.4277 252.625 69.5555 252.625 68.6971 252.625C64.3914 252.625 60.8887 249.108 60.8887 244.816C60.8887 228.479 60.8887 212.156 60.8887 195.82C63.7684 198.436 67.2434 199.765 71.2584 199.932C71.2722 217.501 71.2861 235.056 71.2861 252.625Z" fill="url(#paint8_linear)"/>
<path opacity="0.5" fill-rule="evenodd" clip-rule="evenodd" d="M62.8407 164.711C64.0036 164.711 65.1528 164.711 66.3157 164.711C62.8684 166.704 61.4285 191.694 65.4435 198.672C61.8162 204.957 64.1006 233.782 66.3157 252.265C63.173 251.254 60.8886 248.291 60.8886 244.83C60.8886 218.774 60.8886 192.732 60.8886 166.677C60.8747 165.583 61.7608 164.711 62.8407 164.711Z" fill="url(#paint9_linear)"/>
<path fill-rule="evenodd" clip-rule="evenodd" d="M62.8407 164.711C68.697 164.711 74.5672 164.711 80.4235 164.711C81.5034 164.711 82.3756 165.597 82.3756 166.663C82.3756 173.17 82.3756 179.691 82.3756 186.198C75.204 184.758 68.0602 184.799 60.8886 186.198C60.8886 179.691 60.8886 173.17 60.8886 166.663C60.8747 165.583 61.7608 164.711 62.8407 164.711Z" fill="url(#paint10_radial)"/>
<path opacity="0.5" fill-rule="evenodd" clip-rule="evenodd" d="M62.8407 164.711H67.2295C63.0345 164.711 63.3668 175.385 63.3668 185.768C62.5361 185.893 61.7193 186.032 60.8886 186.198C60.8886 179.691 60.8886 173.17 60.8886 166.663C60.8747 165.583 61.7608 164.711 62.8407 164.711Z" fill="url(#paint11_linear)"/>
<path opacity="0.5" fill-rule="evenodd" clip-rule="evenodd" d="M80.4234 164.711H76.0347C80.2296 164.711 79.8973 175.385 79.8973 185.768C80.728 185.893 81.5449 186.032 82.3755 186.198C82.3755 179.691 82.3755 173.17 82.3755 166.663C82.3755 165.583 81.4895 164.711 80.4234 164.711Z" fill="url(#paint12_linear)"/>
<path fill-rule="evenodd" clip-rule="evenodd" d="M82.3756 192.054C92.6899 192.054 101.689 189.382 108.847 185.768C109.47 185.45 110.162 185.478 110.757 185.851C111.353 186.211 111.685 186.821 111.685 187.513V201.828H84.3277C83.2478 201.828 82.3756 200.956 82.3756 199.876V192.054ZM111.685 216.434V225.572C111.685 226.652 110.813 227.524 109.733 227.524C100.609 227.524 91.4993 227.524 82.3756 227.524V218.387C82.3756 217.307 83.2478 216.434 84.3277 216.434H111.685Z" fill="url(#paint13_linear)"/>
<path fill-rule="evenodd" clip-rule="evenodd" d="M111.685 201.648V201.995H84.3276C83.1508 201.995 82.1956 201.039 82.1956 199.862V192.04C82.1956 191.805 82.5417 191.805 82.5417 192.04V199.862C82.5417 200.845 83.3447 201.635 84.3138 201.635H111.685V201.648ZM82.5555 227.524C82.5555 227.621 82.4724 227.704 82.3755 227.704C82.2786 227.704 82.1956 227.621 82.1956 227.524V218.387C82.1956 217.21 83.1508 216.255 84.3276 216.255H111.685V216.601H84.3276C83.3447 216.601 82.5555 217.404 82.5555 218.373V227.524Z" fill="#3B0201"/>
<path opacity="0.5" fill-rule="evenodd" clip-rule="evenodd" d="M101.827 216.615C102.686 219.785 103.696 223.385 104.832 227.538C99.6261 227.538 94.4205 227.538 89.2148 227.538C93.0083 226.472 93.7282 222.083 93.1883 216.615H101.827Z" fill="url(#paint14_linear)"/>
<path opacity="0.5" fill-rule="evenodd" clip-rule="evenodd" d="M88.3704 191.749C97.0095 190.6 100.263 189.631 107.476 186.433C99.8061 192.054 96.9402 193.051 98.2416 201.635H90.184C89.201 197.606 88.3704 194.02 88.3704 191.749Z" fill="url(#paint15_linear)"/>
<path fill-rule="evenodd" clip-rule="evenodd" d="M71.4798 252.625C71.4798 252.888 71.0921 252.888 71.0921 252.625V200.07C67.4371 200.028 63.3529 198.575 60.7363 195.958C60.5563 195.778 60.8332 195.501 61.0132 195.681C63.6021 198.27 67.6725 199.668 71.2859 199.668C71.3967 199.668 71.4798 199.752 71.4798 199.862V252.625Z" fill="#3B0201"/>
<path fill-rule="evenodd" clip-rule="evenodd" d="M67.5757 252.542L67.188 252.472V208.862C65.1113 208.834 62.8823 207.366 60.8887 206.48V206.051C62.9377 206.992 65.2498 208.46 67.3957 208.46C67.5064 208.46 67.5895 208.543 67.5895 208.654V252.542H67.5757Z" fill="url(#paint16_linear)"/>
<path opacity="0.5" fill-rule="evenodd" clip-rule="evenodd" d="M94.0882 190.891C99.5984 189.77 104.555 187.942 108.847 185.782C109.47 185.464 110.162 185.492 110.757 185.865C111.353 186.225 111.685 186.835 111.685 187.527C111.685 200.209 111.685 212.904 111.685 225.586C111.685 226.666 110.813 227.538 109.733 227.538C100.609 227.538 91.4992 227.538 82.3756 227.538C82.3756 242.504 82.3756 257.484 82.3756 272.45C82.3756 276.534 79.1082 276.811 76.1316 275.496C73.6119 274.389 71.2998 272.16 71.2998 270.152C80.7834 271.62 78.4714 247.585 78.4714 223.329C78.4714 217.75 78.4714 208.169 95.1681 208.169C103.115 208.155 103.641 190.891 94.0882 190.891Z" fill="url(#paint17_linear)"/>
<path fill-rule="evenodd" clip-rule="evenodd" d="M77.1977 185.436C77.1977 185.326 77.2808 185.242 77.3916 185.242C77.5023 185.242 77.5854 185.326 77.5854 185.436L77.5577 263.202C77.5577 263.271 77.5162 263.34 77.4608 263.368C75.8686 264.282 72.9336 263.825 71.2445 263.368C71.1337 263.34 71.0784 263.23 71.1061 263.133C71.1337 263.022 71.2445 262.967 71.3414 262.994C72.9059 263.41 75.6748 263.867 77.17 263.091L77.1977 185.436Z" fill="#3B0201"/>
<path fill-rule="evenodd" clip-rule="evenodd" d="M60.8748 186.807V185.589C64.419 184.855 67.8663 184.536 71.4798 184.536C75.0933 184.536 78.5406 184.855 82.0849 185.589V186.807C78.6098 186.087 75.0241 185.713 71.4798 185.713C67.9356 185.713 64.3636 186.087 60.8748 186.807Z" fill="#BCBCBC"/>
<path fill-rule="evenodd" clip-rule="evenodd" d="M82.5556 197.024C82.4449 197.024 82.3618 196.941 82.3618 196.83C82.3618 196.72 82.4449 196.637 82.5556 196.637C88.855 196.637 94.0883 196.18 98.7539 195.308C103.42 194.435 107.545 193.148 111.616 191.486C111.713 191.445 111.823 191.5 111.865 191.597C111.906 191.694 111.851 191.805 111.754 191.846C107.656 193.522 103.517 194.809 98.8093 195.695C94.116 196.567 88.8688 197.024 82.5556 197.024ZM82.5556 223.149C82.4449 223.149 82.3618 223.066 82.3618 222.955C82.3618 222.845 82.4449 222.762 82.5556 222.762H111.685C111.796 222.762 111.879 222.845 111.879 222.955C111.879 223.066 111.796 223.149 111.685 223.149H82.5556Z" fill="#3B0201"/>
<path fill-rule="evenodd" clip-rule="evenodd" d="M111.685 205.525H87.9274C86.8476 205.525 85.9753 206.397 85.9753 207.477V210.966C85.9753 212.046 86.8476 212.918 87.9274 212.918H111.685V205.525Z" fill="url(#paint18_linear)"/>
<path fill-rule="evenodd" clip-rule="evenodd" d="M111.602 206.702H88.5088C87.775 206.702 87.1797 207.297 87.1797 208.031V210.398C87.1797 211.132 87.775 211.727 88.5088 211.727H111.616V206.702H111.602Z" fill="url(#paint19_linear)"/>
<path fill-rule="evenodd" clip-rule="evenodd" d="M111.685 207.491H88.9933C88.4949 207.491 88.0796 207.906 88.0796 208.405V210.024C88.0796 210.523 88.4949 210.938 88.9933 210.938H111.685V207.491Z" fill="#070707"/>
<path fill-rule="evenodd" clip-rule="evenodd" d="M63.7822 190.877C62.6746 189.41 62.2039 188.621 62.5362 188.025C62.8546 187.458 63.796 187.333 65.5405 187.167C70.22 186.738 71.4522 186.835 71.7567 189.451C71.8537 190.282 71.8398 191.376 71.8121 192.829L71.7983 193.314C71.7844 194.255 71.7844 195.086 71.7844 195.806C71.7983 198.478 71.7983 199.807 70.6907 199.406C69.9846 199.156 68.7801 197.537 66.3711 194.311C65.5958 193.3 64.7098 192.109 63.7822 190.877Z" fill="#3B0201"/>
<path fill-rule="evenodd" clip-rule="evenodd" d="M64.0867 190.656C62.0792 187.998 62.37 187.887 65.5819 187.568C71.6875 187.001 71.4936 187.388 71.4106 193.314C71.2721 201.205 72.3935 201.607 64.0867 190.656Z" fill="url(#paint20_linear)"/>
<path fill-rule="evenodd" clip-rule="evenodd" d="M65.1251 191.5C63.796 189.756 63.9898 189.673 66.108 189.465C70.1369 189.091 70.0123 189.34 69.943 193.258C69.86 198.464 70.5937 198.727 65.1251 191.5Z" fill="url(#paint21_linear)"/>
<path fill-rule="evenodd" clip-rule="evenodd" d="M67.9494 164.711H68.337V171.744C68.337 172.284 67.894 172.727 67.3541 172.727H66.1219C65.5819 172.727 65.1389 172.284 65.1389 171.744V164.711H65.5266V171.744C65.5266 172.062 65.7896 172.325 66.108 172.325H67.3402C67.6587 172.325 67.9217 172.062 67.9217 171.744V164.711H67.9494Z" fill="url(#paint22_linear)"/>
<path fill-rule="evenodd" clip-rule="evenodd" d="M77.2392 164.711H77.6268V171.744C77.6268 172.284 77.1838 172.727 76.6439 172.727H75.4117C74.8717 172.727 74.4287 172.284 74.4287 171.744V164.711H74.8164V171.744C74.8164 172.062 75.0794 172.325 75.3978 172.325H76.63C76.9484 172.325 77.2115 172.062 77.2115 171.744V164.711H77.2392Z" fill="url(#paint23_linear)"/>
<path fill-rule="evenodd" clip-rule="evenodd" d="M73.9026 200.042H75.1209C75.6332 200.042 76.0347 200.458 76.0347 200.956V205.663C76.0347 206.176 75.6194 206.577 75.1209 206.577H73.9026C73.3904 206.577 72.9889 206.162 72.9889 205.663V200.956C72.975 200.444 73.3904 200.042 73.9026 200.042Z" fill="#3B0201"/>
<path fill-rule="evenodd" clip-rule="evenodd" d="M73.9026 200.347H75.121C75.4532 200.347 75.7301 200.624 75.7301 200.956V205.663C75.7301 205.996 75.4532 206.272 75.121 206.272H73.9026C73.5704 206.272 73.2935 205.996 73.2935 205.663V200.956C73.2796 200.61 73.5565 200.347 73.9026 200.347Z" fill="url(#paint24_linear)"/>
<path fill-rule="evenodd" clip-rule="evenodd" d="M74.0272 200.956H74.9963C75.2594 200.956 75.4809 201.178 75.4809 201.441V205.179C75.4809 205.442 75.2594 205.663 74.9963 205.663H74.0272C73.7641 205.663 73.5426 205.442 73.5426 205.179V201.441C73.5426 201.178 73.7503 200.956 74.0272 200.956Z" fill="url(#paint25_radial)"/>
<path opacity="0.5" fill-rule="evenodd" clip-rule="evenodd" d="M73.9026 200.347C73.8888 203.282 74.3595 204.694 75.7301 205.663C75.7301 205.996 75.4532 206.272 75.121 206.272H73.9026C74.3595 205.663 73.7088 201.662 73.2935 200.956C73.2796 200.61 73.5565 200.347 73.9026 200.347Z" fill="url(#paint26_linear)"/>
<path fill-rule="evenodd" clip-rule="evenodd" d="M73.9026 211.755H75.1209C75.6332 211.755 76.0347 212.17 76.0347 212.669V217.376C76.0347 217.888 75.6194 218.29 75.1209 218.29H73.9026C73.3904 218.29 72.9889 217.874 72.9889 217.376V212.669C72.975 212.17 73.3904 211.755 73.9026 211.755Z" fill="#3B0201"/>
<path fill-rule="evenodd" clip-rule="evenodd" d="M73.9026 212.06H75.121C75.4532 212.06 75.7301 212.336 75.7301 212.669V217.376C75.7301 217.708 75.4532 217.985 75.121 217.985H73.9026C73.5704 217.985 73.2935 217.708 73.2935 217.376V212.669C73.2796 212.336 73.5565 212.06 73.9026 212.06Z" fill="url(#paint27_linear)"/>
<path fill-rule="evenodd" clip-rule="evenodd" d="M74.0272 212.669H74.9963C75.2594 212.669 75.4809 212.89 75.4809 213.153V216.891C75.4809 217.154 75.2594 217.376 74.9963 217.376H74.0272C73.7641 217.376 73.5426 217.154 73.5426 216.891V213.153C73.5426 212.89 73.7503 212.669 74.0272 212.669Z" fill="url(#paint28_radial)"/>
<path opacity="0.5" fill-rule="evenodd" clip-rule="evenodd" d="M73.9026 212.06C73.8888 214.995 74.3595 216.407 75.7301 217.376C75.7301 217.708 75.4532 217.985 75.121 217.985H73.9026C74.3595 217.376 73.7088 213.375 73.2935 212.669C73.2796 212.336 73.5565 212.06 73.9026 212.06Z" fill="url(#paint29_linear)"/>
<path fill-rule="evenodd" clip-rule="evenodd" d="M73.9026 223.481H75.1209C75.6332 223.481 76.0347 223.897 76.0347 224.395V229.102C76.0347 229.615 75.6194 230.016 75.1209 230.016H73.9026C73.3904 230.016 72.9889 229.601 72.9889 229.102V224.395C72.975 223.897 73.3904 223.481 73.9026 223.481Z" fill="#3B0201"/>
<path fill-rule="evenodd" clip-rule="evenodd" d="M73.9026 223.786H75.121C75.4532 223.786 75.7301 224.063 75.7301 224.395V229.102C75.7301 229.435 75.4532 229.712 75.121 229.712H73.9026C73.5704 229.712 73.2935 229.435 73.2935 229.102V224.395C73.2796 224.063 73.5565 223.786 73.9026 223.786Z" fill="url(#paint30_linear)"/>
<path fill-rule="evenodd" clip-rule="evenodd" d="M74.0272 224.395H74.9963C75.2594 224.395 75.4809 224.617 75.4809 224.88V228.618C75.4809 228.881 75.2594 229.102 74.9963 229.102H74.0272C73.7641 229.102 73.5426 228.881 73.5426 228.618V224.88C73.5426 224.617 73.7503 224.395 74.0272 224.395Z" fill="url(#paint31_radial)"/>
<path opacity="0.5" fill-rule="evenodd" clip-rule="evenodd" d="M73.9026 223.786C73.8888 226.721 74.3595 228.133 75.7301 229.102C75.7301 229.435 75.4532 229.712 75.121 229.712H73.9026C74.3595 229.102 73.7088 225.101 73.2935 224.395C73.2796 224.063 73.5565 223.786 73.9026 223.786Z" fill="url(#paint32_linear)"/>
<path opacity="0.5" fill-rule="evenodd" clip-rule="evenodd" d="M80.4236 164.711C81.5034 164.711 82.3757 165.597 82.3757 166.663C82.3757 175.122 82.3757 183.595 82.3757 192.068C92.69 192.068 101.689 189.396 108.847 185.782C109.47 185.464 110.162 185.492 110.757 185.865C111.353 186.225 111.685 186.835 111.685 187.527C111.685 200.209 111.685 212.904 111.685 225.586C111.685 226.666 110.813 227.538 109.733 227.538C100.609 227.538 91.4993 227.538 82.3757 227.538C82.3757 242.504 82.3757 257.484 82.3757 272.45C82.3757 279.982 71.286 274.541 71.286 270.152C71.286 264.31 71.286 258.481 71.286 252.639C70.4277 252.639 69.5555 252.639 68.6971 252.639C64.3914 252.639 60.8887 249.122 60.8887 244.83C77.5577 244.816 80.4236 215.133 80.4236 164.711Z" fill="url(#paint33_linear)"/>
<path fill-rule="evenodd" clip-rule="evenodd" d="M168.725 224.783C175.883 224.783 181.102 224.783 188.26 224.783C188.26 233.505 186.252 242.241 170.76 242.933C169.307 243.003 168.725 241.729 168.725 240.981C168.725 235.582 168.725 230.182 168.725 224.783Z" fill="url(#paint34_linear)"/>
<path fill-rule="evenodd" clip-rule="evenodd" d="M168.725 223.219H188.26C189.118 223.219 189.824 223.925 189.824 224.783C189.824 229.421 189.271 234.087 186.585 237.783C183.885 241.507 179.136 244.11 170.829 244.484H170.733H170.677H170.65C169.431 244.484 168.559 243.944 167.991 243.238C167.451 242.587 167.202 241.743 167.161 241.092V240.995V240.981V240.954V224.755C167.161 223.925 167.867 223.219 168.725 223.219ZM168.725 224.783C175.883 224.783 181.102 224.783 188.26 224.783C188.26 233.505 186.253 242.241 170.76 242.933C169.307 243.003 168.725 241.729 168.725 240.981C168.725 235.582 168.725 230.182 168.725 224.783Z" fill="black"/>
<path opacity="0.5" fill-rule="evenodd" clip-rule="evenodd" d="M168.725 224.783C175.883 224.783 181.102 224.783 188.26 224.783C188.26 228.729 187.845 232.674 185.962 235.886C184.66 231.055 174.554 231.858 168.711 237.7C168.725 233.394 168.725 229.089 168.725 224.783Z" fill="url(#paint35_linear)"/>
<path opacity="0.5" fill-rule="evenodd" clip-rule="evenodd" d="M168.725 224.783C171.203 224.783 173.446 224.783 175.62 224.783C170.788 233.145 171.716 242.726 182.016 239.971C179.441 241.632 175.814 242.712 170.76 242.933C169.307 243.003 168.725 241.729 168.725 240.981C168.725 235.582 168.725 230.182 168.725 224.783Z" fill="url(#paint36_linear)"/>
<path fill-rule="evenodd" clip-rule="evenodd" d="M176.589 238.005L173.488 232.647C173.183 232.121 173.571 231.47 174.166 231.47H175.523C175.8 231.47 176.063 231.622 176.201 231.858L176.949 233.145C177.101 233.408 177.475 233.408 177.627 233.145L178.375 231.858C178.513 231.608 178.776 231.47 179.053 231.47H180.41C181.005 231.47 181.393 232.121 181.089 232.647L177.973 238.046C177.669 238.558 176.866 238.545 176.589 238.005Z" fill="#3B0201"/>
<path fill-rule="evenodd" clip-rule="evenodd" d="M176.949 237.839L173.834 232.439C173.682 232.176 173.875 231.858 174.166 231.858H175.523C175.661 231.858 175.786 231.927 175.855 232.051L176.935 233.934C177.087 234.197 177.461 234.197 177.614 233.934L178.693 232.051C178.763 231.927 178.887 231.858 179.026 231.858H180.382C180.687 231.858 180.867 232.176 180.715 232.439L177.6 237.839C177.475 238.102 177.101 238.102 176.949 237.839Z" fill="url(#paint37_linear)"/>
<path fill-rule="evenodd" clip-rule="evenodd" d="M177.627 237.063C178.209 236.066 179.386 234.031 180.064 232.841C180.438 232.19 179.15 232.079 178.929 232.453C178.61 233.021 178.278 233.574 177.96 234.128C177.655 234.654 176.908 234.654 176.603 234.128C176.285 233.561 175.952 233.007 175.634 232.453C175.412 232.079 174.125 232.19 174.499 232.841C175.315 234.253 176.118 235.651 176.935 237.063C177.101 237.312 177.475 237.312 177.627 237.063Z" fill="url(#paint38_radial)"/>
<path opacity="0.5" fill-rule="evenodd" clip-rule="evenodd" d="M174.581 233.727C175.509 234.557 176.354 234.197 175.537 231.858C175.675 231.858 175.8 231.927 175.869 232.051C176.187 233.99 178.181 236.219 178.984 235.499C178.527 236.274 178.084 237.063 177.627 237.839C177.253 236.163 176.007 234.668 174.581 233.727Z" fill="url(#paint39_linear)"/>
<path fill-rule="evenodd" clip-rule="evenodd" d="M207.809 164.711H190.226C189.146 164.711 188.274 165.597 188.274 166.663V192.068C177.96 192.068 168.96 189.396 161.803 185.782C161.18 185.464 160.488 185.492 159.892 185.865C159.297 186.225 158.965 186.835 158.965 187.527C158.965 200.209 158.965 212.904 158.965 225.586C158.965 226.666 159.837 227.538 160.917 227.538C170.04 227.538 179.15 227.538 188.274 227.538V272.45C188.274 279.982 199.363 274.541 199.363 270.152V252.639H201.952C206.258 252.639 209.761 249.122 209.761 244.83V166.663C209.761 165.583 208.875 164.711 207.809 164.711Z" fill="url(#paint40_linear)"/>
<path fill-rule="evenodd" clip-rule="evenodd" d="M207.809 164.711H190.226C189.146 164.711 188.274 165.597 188.274 166.663V192.068C177.96 192.068 168.96 189.396 161.803 185.782C161.18 185.464 160.488 185.492 159.892 185.865C159.297 186.225 158.965 186.835 158.965 187.527C158.965 200.209 158.965 212.904 158.965 225.586C158.965 226.666 159.837 227.538 160.917 227.538C170.04 227.538 179.15 227.538 188.274 227.538V272.45C188.274 279.982 199.363 274.541 199.363 270.152V252.639H201.952C206.258 252.639 209.761 249.122 209.761 244.83V166.663C209.761 165.583 208.875 164.711 207.809 164.711ZM190.212 163.146H207.795C208.709 163.146 209.539 163.506 210.162 164.074C210.204 164.102 210.245 164.143 210.273 164.171C210.91 164.808 211.298 165.694 211.298 166.663V244.816C211.298 247.391 210.245 249.731 208.543 251.434C206.84 253.137 204.5 254.189 201.925 254.189H200.9V270.138C200.9 272.796 198.09 275.621 195.072 276.936C194.158 277.337 193.216 277.601 192.317 277.711C191.334 277.822 190.378 277.725 189.52 277.379C187.831 276.687 186.696 275.15 186.696 272.45V229.102H160.917C159.948 229.102 159.062 228.715 158.425 228.078C157.788 227.441 157.4 226.569 157.4 225.6V187.513C157.4 186.89 157.552 186.308 157.843 185.796C158.106 185.325 158.466 184.924 158.937 184.619C158.978 184.592 159.034 184.55 159.075 184.522C159.601 184.204 160.183 184.024 160.778 183.996C161.36 183.969 161.955 184.093 162.509 184.37C166.192 186.225 170.4 187.831 175.038 188.939C178.679 189.797 182.584 190.351 186.723 190.462V166.649C186.723 165.68 187.125 164.794 187.762 164.171C188.371 163.534 189.243 163.146 190.212 163.146Z" fill="black"/>
<path opacity="0.5" fill-rule="evenodd" clip-rule="evenodd" d="M196.082 164.711C194.13 164.711 192.178 164.711 190.226 164.711C189.146 164.711 188.274 165.597 188.274 166.663C188.274 175.122 188.274 183.595 188.274 192.068C177.96 192.068 168.96 189.396 161.803 185.782C161.18 185.464 160.488 185.492 159.892 185.865C159.297 186.225 158.965 186.835 158.965 187.527C158.965 200.209 158.965 212.904 158.965 225.586C158.965 226.666 159.837 227.538 160.917 227.538C170.04 227.538 179.15 227.538 188.274 227.538C188.274 242.504 188.274 257.484 188.274 272.45C188.274 277.282 192.815 276.784 196.082 274.638C193.286 264.185 191.749 266.151 192.441 216.961C192.469 214.981 163.824 218.137 163.824 209.014C163.824 199.876 192.663 203.933 192.732 200.956C193.313 175.44 194.324 171.287 196.082 164.711Z" fill="url(#paint41_linear)"/>
<path fill-rule="evenodd" clip-rule="evenodd" d="M199.35 252.625C200.208 252.625 201.08 252.625 201.939 252.625C206.244 252.625 209.747 249.108 209.747 244.816C209.747 228.479 209.747 212.156 209.747 195.82C206.867 198.436 203.392 199.765 199.377 199.932C199.363 217.501 199.363 235.056 199.35 252.625Z" fill="url(#paint42_linear)"/>
<path opacity="0.5" fill-rule="evenodd" clip-rule="evenodd" d="M207.809 164.711C206.646 164.711 205.497 164.711 204.334 164.711C207.781 166.704 209.221 191.694 205.206 198.672C208.833 204.957 206.549 233.782 204.334 252.265C207.476 251.254 209.761 248.291 209.761 244.83C209.761 218.774 209.761 192.732 209.761 166.677C209.761 165.583 208.875 164.711 207.809 164.711Z" fill="url(#paint43_linear)"/>
<path fill-rule="evenodd" clip-rule="evenodd" d="M207.809 164.711C201.953 164.711 196.082 164.711 190.226 164.711C189.146 164.711 188.274 165.597 188.274 166.663C188.274 173.17 188.274 179.691 188.274 186.198C195.445 184.758 202.589 184.799 209.761 186.198C209.761 179.691 209.761 173.17 209.761 166.663C209.761 165.583 208.875 164.711 207.809 164.711Z" fill="url(#paint44_radial)"/>
<path opacity="0.5" fill-rule="evenodd" clip-rule="evenodd" d="M207.809 164.711H203.42C207.615 164.711 207.283 175.385 207.283 185.768C208.113 185.893 208.93 186.032 209.761 186.198C209.761 179.691 209.761 173.17 209.761 166.663C209.761 165.583 208.875 164.711 207.809 164.711Z" fill="url(#paint45_linear)"/>
<path opacity="0.5" fill-rule="evenodd" clip-rule="evenodd" d="M190.212 164.711H194.601C190.406 164.711 190.738 175.385 190.738 185.768C189.908 185.893 189.091 186.032 188.26 186.198C188.26 179.691 188.26 173.17 188.26 166.663C188.26 165.583 189.146 164.711 190.212 164.711Z" fill="url(#paint46_linear)"/>
<path fill-rule="evenodd" clip-rule="evenodd" d="M188.26 192.054C177.946 192.054 168.947 189.382 161.789 185.768C161.166 185.45 160.474 185.478 159.878 185.851C159.283 186.211 158.951 186.821 158.951 187.513V201.828H186.308C187.388 201.828 188.26 200.956 188.26 199.876V192.054ZM158.965 216.434V225.572C158.965 226.652 159.837 227.524 160.917 227.524C170.04 227.524 179.15 227.524 188.274 227.524V218.387C188.274 217.307 187.402 216.434 186.322 216.434H158.965Z" fill="url(#paint47_linear)"/>
<path fill-rule="evenodd" clip-rule="evenodd" d="M158.965 201.648V201.995H186.308C187.485 201.995 188.44 201.039 188.44 199.862V192.04C188.44 191.805 188.094 191.805 188.094 192.04V199.862C188.094 200.845 187.291 201.635 186.322 201.635H158.965V201.648ZM188.094 227.524C188.094 227.621 188.177 227.704 188.274 227.704C188.371 227.704 188.454 227.621 188.454 227.524V218.387C188.454 217.21 187.499 216.255 186.322 216.255H158.965V216.601H186.308C187.291 216.601 188.08 217.404 188.08 218.373V227.524H188.094Z" fill="#3B0201"/>
<path opacity="0.5" fill-rule="evenodd" clip-rule="evenodd" d="M168.822 216.615C167.964 219.785 166.953 223.385 165.818 227.538C171.023 227.538 176.229 227.538 181.435 227.538C177.641 226.472 176.921 222.083 177.461 216.615H168.822Z" fill="url(#paint48_linear)"/>
<path opacity="0.5" fill-rule="evenodd" clip-rule="evenodd" d="M182.265 191.749C173.626 190.6 170.373 189.631 163.16 186.433C170.83 192.054 173.695 193.051 172.394 201.635H180.452C181.435 197.606 182.265 194.02 182.265 191.749Z" fill="url(#paint49_linear)"/>
<path fill-rule="evenodd" clip-rule="evenodd" d="M199.156 252.625C199.156 252.888 199.543 252.888 199.543 252.625V200.07C203.198 200.028 207.283 198.575 209.899 195.958C210.079 195.778 209.802 195.501 209.622 195.681C207.033 198.27 202.963 199.668 199.35 199.668C199.239 199.668 199.156 199.752 199.156 199.862V252.625Z" fill="#3B0201"/>
<path fill-rule="evenodd" clip-rule="evenodd" d="M203.06 252.542L203.448 252.472V208.862C205.524 208.834 207.753 207.366 209.747 206.48V206.051C207.698 206.992 205.386 208.46 203.24 208.46C203.129 208.46 203.046 208.543 203.046 208.654V252.542H203.06Z" fill="url(#paint50_linear)"/>
<path opacity="0.5" fill-rule="evenodd" clip-rule="evenodd" d="M176.547 190.891C171.037 189.77 166.081 187.942 161.789 185.782C161.166 185.464 160.474 185.492 159.878 185.865C159.283 186.225 158.951 186.835 158.951 187.527C158.951 200.209 158.951 212.904 158.951 225.586C158.951 226.666 159.823 227.538 160.903 227.538C170.027 227.538 179.136 227.538 188.26 227.538C188.26 242.504 188.26 257.484 188.26 272.45C188.26 276.534 191.527 276.811 194.504 275.496C197.024 274.389 199.336 272.16 199.336 270.152C189.852 271.62 192.164 247.585 192.164 223.329C192.164 217.75 192.164 208.169 175.468 208.169C167.535 208.155 167.008 190.891 176.547 190.891Z" fill="url(#paint51_linear)"/>
<path fill-rule="evenodd" clip-rule="evenodd" d="M193.452 185.436C193.452 185.326 193.369 185.242 193.258 185.242C193.147 185.242 193.064 185.326 193.064 185.436L193.092 263.202C193.092 263.271 193.133 263.34 193.189 263.368C194.781 264.282 197.716 263.825 199.405 263.368C199.502 263.34 199.571 263.23 199.543 263.133C199.516 263.022 199.405 262.967 199.308 262.994C197.744 263.41 194.975 263.867 193.479 263.091L193.452 185.436Z" fill="#3B0201"/>
<path fill-rule="evenodd" clip-rule="evenodd" d="M209.761 186.807V185.589C206.217 184.855 202.769 184.536 199.156 184.536C195.542 184.536 192.095 184.855 188.551 185.589V186.807C192.026 186.087 195.612 185.713 199.156 185.713C202.7 185.713 206.286 186.087 209.761 186.807Z" fill="#BCBCBC"/>
<path fill-rule="evenodd" clip-rule="evenodd" d="M188.094 197.024C188.205 197.024 188.288 196.941 188.288 196.83C188.288 196.72 188.205 196.637 188.094 196.637C181.794 196.637 176.561 196.18 171.896 195.308C167.23 194.435 163.104 193.148 159.034 191.486C158.937 191.445 158.826 191.5 158.785 191.597C158.743 191.694 158.798 191.805 158.895 191.846C162.993 193.522 167.133 194.809 171.84 195.695C176.52 196.567 181.781 197.024 188.094 197.024ZM188.094 223.149C188.205 223.149 188.288 223.066 188.288 222.955C188.288 222.845 188.205 222.762 188.094 222.762H158.965C158.854 222.762 158.771 222.845 158.771 222.955C158.771 223.066 158.854 223.149 158.965 223.149H188.094Z" fill="#3B0201"/>
<path fill-rule="evenodd" clip-rule="evenodd" d="M158.965 205.525H182.708C183.788 205.525 184.66 206.397 184.66 207.477V210.966C184.66 212.046 183.788 212.918 182.708 212.918H158.965V205.525Z" fill="url(#paint52_linear)"/>
<path fill-rule="evenodd" clip-rule="evenodd" d="M159.034 206.702H182.141C182.874 206.702 183.47 207.297 183.47 208.031V210.398C183.47 211.132 182.874 211.727 182.141 211.727H159.034V206.702Z" fill="url(#paint53_linear)"/>
<path fill-rule="evenodd" clip-rule="evenodd" d="M158.965 207.491H181.656C182.155 207.491 182.57 207.906 182.57 208.405V210.024C182.57 210.523 182.155 210.938 181.656 210.938H158.965V207.491Z" fill="#070707"/>
<path fill-rule="evenodd" clip-rule="evenodd" d="M206.867 190.877C207.975 189.41 208.446 188.621 208.113 188.025C207.795 187.458 206.854 187.333 205.109 187.167C200.43 186.738 199.197 186.835 198.893 189.451C198.796 190.282 198.81 191.376 198.838 192.829L198.851 193.314C198.865 194.255 198.865 195.086 198.865 195.806C198.851 198.478 198.851 199.807 199.959 199.406C200.665 199.156 201.87 197.537 204.279 194.311C205.04 193.3 205.926 192.109 206.867 190.877Z" fill="#3B0201"/>
<path fill-rule="evenodd" clip-rule="evenodd" d="M206.549 190.656C208.556 187.998 208.266 187.887 205.054 187.568C198.948 187.001 199.142 187.388 199.225 193.314C199.364 201.205 198.242 201.607 206.549 190.656Z" fill="url(#paint54_linear)"/>
<path fill-rule="evenodd" clip-rule="evenodd" d="M205.524 191.5C206.854 189.756 206.66 189.673 204.541 189.465C200.513 189.091 200.637 189.34 200.706 193.258C200.776 198.464 200.042 198.727 205.524 191.5Z" fill="url(#paint55_linear)"/>
<path fill-rule="evenodd" clip-rule="evenodd" d="M202.7 164.711H202.312V171.744C202.312 172.284 202.756 172.727 203.295 172.727H204.528C205.068 172.727 205.511 172.284 205.511 171.744V164.711H205.123V171.744C205.123 172.062 204.86 172.325 204.541 172.325H203.309C202.991 172.325 202.728 172.062 202.728 171.744V164.711H202.7Z" fill="url(#paint56_linear)"/>
<path fill-rule="evenodd" clip-rule="evenodd" d="M193.396 164.711H193.009V171.744C193.009 172.284 193.452 172.727 193.992 172.727H195.224C195.764 172.727 196.207 172.284 196.207 171.744V164.711H195.819V171.744C195.819 172.062 195.556 172.325 195.238 172.325H194.006C193.687 172.325 193.424 172.062 193.424 171.744V164.711H193.396Z" fill="url(#paint57_linear)"/>
<path fill-rule="evenodd" clip-rule="evenodd" d="M196.747 200.042H195.529C195.016 200.042 194.615 200.458 194.615 200.956V205.663C194.615 206.176 195.03 206.577 195.529 206.577H196.747C197.259 206.577 197.661 206.162 197.661 205.663V200.956C197.661 200.444 197.245 200.042 196.747 200.042Z" fill="#3B0201"/>
<path fill-rule="evenodd" clip-rule="evenodd" d="M196.747 200.347H195.529C195.196 200.347 194.919 200.624 194.919 200.956V205.663C194.919 205.996 195.196 206.272 195.529 206.272H196.747C197.079 206.272 197.356 205.996 197.356 205.663V200.956C197.356 200.61 197.079 200.347 196.747 200.347Z" fill="url(#paint58_linear)"/>
<path fill-rule="evenodd" clip-rule="evenodd" d="M196.622 200.956H195.653C195.39 200.956 195.169 201.178 195.169 201.441V205.179C195.169 205.442 195.39 205.663 195.653 205.663H196.622C196.885 205.663 197.107 205.442 197.107 205.179V201.441C197.107 201.178 196.885 200.956 196.622 200.956Z" fill="url(#paint59_radial)"/>
<path opacity="0.5" fill-rule="evenodd" clip-rule="evenodd" d="M196.747 200.347C196.761 203.282 196.29 204.694 194.919 205.663C194.919 205.996 195.196 206.272 195.529 206.272H196.747C196.29 205.663 196.941 201.662 197.356 200.956C197.356 200.61 197.079 200.347 196.747 200.347Z" fill="url(#paint60_linear)"/>
<path fill-rule="evenodd" clip-rule="evenodd" d="M196.747 211.755H195.529C195.016 211.755 194.615 212.17 194.615 212.669V217.376C194.615 217.888 195.03 218.29 195.529 218.29H196.747C197.259 218.29 197.661 217.874 197.661 217.376V212.669C197.661 212.17 197.245 211.755 196.747 211.755Z" fill="#3B0201"/>
<path fill-rule="evenodd" clip-rule="evenodd" d="M196.747 212.06H195.529C195.196 212.06 194.919 212.336 194.919 212.669V217.376C194.919 217.708 195.196 217.985 195.529 217.985H196.747C197.079 217.985 197.356 217.708 197.356 217.376V212.669C197.356 212.336 197.079 212.06 196.747 212.06Z" fill="url(#paint61_linear)"/>
<path fill-rule="evenodd" clip-rule="evenodd" d="M196.622 212.669H195.653C195.39 212.669 195.169 212.89 195.169 213.153V216.891C195.169 217.154 195.39 217.376 195.653 217.376H196.622C196.885 217.376 197.107 217.154 197.107 216.891V213.153C197.107 212.89 196.885 212.669 196.622 212.669Z" fill="url(#paint62_radial)"/>
<path opacity="0.5" fill-rule="evenodd" clip-rule="evenodd" d="M196.747 212.06C196.761 214.995 196.29 216.407 194.919 217.376C194.919 217.708 195.196 217.985 195.529 217.985H196.747C196.29 217.376 196.941 213.375 197.356 212.669C197.356 212.336 197.079 212.06 196.747 212.06Z" fill="url(#paint63_linear)"/>
<path fill-rule="evenodd" clip-rule="evenodd" d="M196.747 223.481H195.529C195.016 223.481 194.615 223.897 194.615 224.395V229.102C194.615 229.615 195.03 230.016 195.529 230.016H196.747C197.259 230.016 197.661 229.601 197.661 229.102V224.395C197.661 223.897 197.245 223.481 196.747 223.481Z" fill="#3B0201"/>
<path fill-rule="evenodd" clip-rule="evenodd" d="M196.747 223.786H195.529C195.196 223.786 194.919 224.063 194.919 224.395V229.102C194.919 229.435 195.196 229.712 195.529 229.712H196.747C197.079 229.712 197.356 229.435 197.356 229.102V224.395C197.356 224.063 197.079 223.786 196.747 223.786Z" fill="url(#paint64_linear)"/>
<path fill-rule="evenodd" clip-rule="evenodd" d="M196.622 224.395H195.653C195.39 224.395 195.169 224.617 195.169 224.88V228.618C195.169 228.881 195.39 229.102 195.653 229.102H196.622C196.885 229.102 197.107 228.881 197.107 228.618V224.88C197.107 224.617 196.885 224.395 196.622 224.395Z" fill="url(#paint65_radial)"/>
<path opacity="0.5" fill-rule="evenodd" clip-rule="evenodd" d="M196.747 223.786C196.761 226.721 196.29 228.133 194.919 229.102C194.919 229.435 195.196 229.712 195.529 229.712H196.747C196.29 229.102 196.941 225.101 197.356 224.395C197.356 224.063 197.079 223.786 196.747 223.786Z" fill="url(#paint66_linear)"/>
<path opacity="0.5" fill-rule="evenodd" clip-rule="evenodd" d="M190.212 164.711C189.132 164.711 188.26 165.597 188.26 166.663C188.26 175.122 188.26 183.595 188.26 192.068C177.946 192.068 168.947 189.396 161.789 185.782C161.166 185.464 160.474 185.492 159.878 185.865C159.283 186.225 158.951 186.835 158.951 187.527C158.951 200.209 158.951 212.904 158.951 225.586C158.951 226.666 159.823 227.538 160.903 227.538C170.027 227.538 179.136 227.538 188.26 227.538C188.26 242.504 188.26 257.484 188.26 272.45C188.26 279.982 199.35 274.541 199.35 270.152C199.35 264.31 199.35 258.481 199.35 252.639C200.208 252.639 201.08 252.639 201.939 252.639C206.244 252.639 209.747 249.122 209.747 244.83C193.078 244.816 190.212 215.133 190.212 164.711Z" fill="url(#paint67_linear)"/>
</g>
</g>
<defs>
<linearGradient id="paint0_linear" x1="92.1422" y1="224.673" x2="92.1424" y2="243.152" gradientUnits="userSpaceOnUse">
<stop stop-color="#7A0604"/>
<stop offset="1" stop-color="#C2391E"/>
</linearGradient>
<linearGradient id="paint1_linear" x1="92.1423" y1="225.133" x2="92.1432" y2="236.967" gradientUnits="userSpaceOnUse">
<stop stop-color="#7A0604"/>
<stop offset="1" stop-color="white"/>
</linearGradient>
<linearGradient id="paint2_linear" x1="101.91" y1="233.864" x2="85.1859" y2="233.863" gradientUnits="userSpaceOnUse">
<stop stop-color="#7A0604"/>
<stop offset="1" stop-color="white"/>
</linearGradient>
<linearGradient id="paint3_linear" x1="93.3514" y1="232.238" x2="93.3519" y2="238.032" gradientUnits="userSpaceOnUse">
<stop stop-color="#00290D"/>
<stop offset="1" stop-color="#185C22"/>
</linearGradient>
<radialGradient id="paint4_radial" cx="0" cy="0" r="1" gradientUnits="userSpaceOnUse" gradientTransform="translate(93.5126 235.65) rotate(-0.1721) scale(3.06687 2.63935)">
<stop stop-color="#80C342"/>
<stop offset="1" stop-color="#2F943E"/>
</radialGradient>
<linearGradient id="paint5_linear" x1="94.9644" y1="232.342" x2="92.857" y2="236.687" gradientUnits="userSpaceOnUse">
<stop stop-color="#2F943E"/>
<stop offset="1" stop-color="white"/>
</linearGradient>
<linearGradient id="paint6_linear" x1="109.724" y1="220.448" x2="60.854" y2="220.446" gradientUnits="userSpaceOnUse">
<stop stop-color="#7A0604"/>
<stop offset="1" stop-color="#C2391E"/>
</linearGradient>
<linearGradient id="paint7_linear" x1="111.677" y1="220.448" x2="60.8801" y2="220.446" gradientUnits="userSpaceOnUse">
<stop stop-color="#7A0604"/>
<stop offset="1" stop-color="white"/>
</linearGradient>
<linearGradient id="paint8_linear" x1="70.652" y1="224.224" x2="60.8824" y2="224.223" gradientUnits="userSpaceOnUse">
<stop stop-color="#454849"/>
<stop offset="1" stop-color="#B2B4B4"/>
</linearGradient>
<linearGradient id="paint9_linear" x1="63.5943" y1="246.763" x2="63.5962" y2="164.705" gradientUnits="userSpaceOnUse">
<stop stop-color="#C2391E"/>
<stop offset="1" stop-color="#F3CAD9"/>
</linearGradient>
<radialGradient id="paint10_radial" cx="0" cy="0" r="1" gradientUnits="userSpaceOnUse" gradientTransform="translate(71.7671 178.455) rotate(-89.9965) scale(19.8011 10.4669)">
<stop stop-color="#B2B4B4"/>
<stop offset="1" stop-color="#454849"/>
</radialGradient>
<linearGradient id="paint11_linear" x1="60.8816" y1="175.451" x2="66.2374" y2="175.449" gradientUnits="userSpaceOnUse">
<stop stop-color="#454849"/>
<stop offset="1" stop-color="#B2B4B4"/>
</linearGradient>
<linearGradient id="paint12_linear" x1="82.3733" y1="175.451" x2="77.0174" y2="175.449" gradientUnits="userSpaceOnUse">
<stop stop-color="#454849"/>
<stop offset="1" stop-color="#B2B4B4"/>
</linearGradient>
<linearGradient id="paint13_linear" x1="110.556" y1="206.544" x2="82.372" y2="206.546" gradientUnits="userSpaceOnUse">
<stop stop-color="#7A0604"/>
<stop offset="1" stop-color="#F36E21"/>
</linearGradient>
<linearGradient id="paint14_linear" x1="104.078" y1="222.071" x2="90.189" y2="222.071" gradientUnits="userSpaceOnUse">
<stop stop-color="#C2391E"/>
<stop offset="1" stop-color="#F3CAD9"/>
</linearGradient>
<linearGradient id="paint15_linear" x1="97.9643" y1="194.047" x2="88.4748" y2="194.047" gradientUnits="userSpaceOnUse">
<stop stop-color="#C2391E"/>
<stop offset="1" stop-color="#F3CAD9"/>
</linearGradient>
<linearGradient id="paint16_linear" x1="67.5419" y1="229.302" x2="60.8778" y2="229.301" gradientUnits="userSpaceOnUse">
<stop/>
<stop offset="1" stop-color="#B2B4B4"/>
</linearGradient>
<linearGradient id="paint17_linear" x1="111.676" y1="230.873" x2="60.8597" y2="230.872" gradientUnits="userSpaceOnUse">
<stop stop-color="#7A0604"/>
<stop offset="1" stop-color="white"/>
</linearGradient>
<linearGradient id="paint18_linear" x1="110.809" y1="209.217" x2="85.9715" y2="209.215" gradientUnits="userSpaceOnUse">
<stop/>
<stop offset="1" stop-color="#454849"/>
</linearGradient>
<linearGradient id="paint19_linear" x1="87.3625" y1="209.217" x2="111.609" y2="209.215" gradientUnits="userSpaceOnUse">
<stop/>
<stop offset="1" stop-color="#454849"/>
</linearGradient>
<linearGradient id="paint20_linear" x1="68.1668" y1="192.127" x2="70.8683" y2="188.702" gradientUnits="userSpaceOnUse">
<stop stop-color="#7A0604"/>
<stop offset="1" stop-color="#C2391E"/>
</linearGradient>
<linearGradient id="paint21_linear" x1="68.1402" y1="192.254" x2="69.8062" y2="190.439" gradientUnits="userSpaceOnUse">
<stop stop-color="#C2391E"/>
<stop offset="1" stop-color="#F36E21"/>
</linearGradient>
<linearGradient id="paint22_linear" x1="66.7419" y1="172.52" x2="66.7438" y2="164.705" gradientUnits="userSpaceOnUse">
<stop stop-color="#B2B4B4"/>
<stop offset="1" stop-color="#454849"/>
</linearGradient>
<linearGradient id="paint23_linear" x1="76.036" y1="172.654" x2="76.0378" y2="164.705" gradientUnits="userSpaceOnUse">
<stop stop-color="#B2B4B4"/>
<stop offset="1" stop-color="#454849"/>
</linearGradient>
<linearGradient id="paint24_linear" x1="74.5025" y1="205.904" x2="74.5039" y2="200.342" gradientUnits="userSpaceOnUse">
<stop stop-color="#00290D"/>
<stop offset="1" stop-color="#185C22"/>
</linearGradient>
<radialGradient id="paint25_radial" cx="0" cy="0" r="1" gradientUnits="userSpaceOnUse" gradientTransform="translate(74.5581 202.454) rotate(-90.0266) scale(2.47162 1.04302)">
<stop stop-color="#80C342"/>
<stop offset="1" stop-color="#2F943E"/>
</radialGradient>
<linearGradient id="paint26_linear" x1="74.803" y1="205.941" x2="73.4917" y2="201.057" gradientUnits="userSpaceOnUse">
<stop stop-color="#2F943E"/>
<stop offset="1" stop-color="white"/>
</linearGradient>
<linearGradient id="paint27_linear" x1="74.5025" y1="217.625" x2="74.5039" y2="212.063" gradientUnits="userSpaceOnUse">
<stop stop-color="#00290D"/>
<stop offset="1" stop-color="#185C22"/>
</linearGradient>
<radialGradient id="paint28_radial" cx="0" cy="0" r="1" gradientUnits="userSpaceOnUse" gradientTransform="translate(74.5581 214.176) rotate(-90.0266) scale(2.47162 1.04302)">
<stop stop-color="#80C342"/>
<stop offset="1" stop-color="#2F943E"/>
</radialGradient>
<linearGradient id="paint29_linear" x1="74.8028" y1="217.662" x2="73.4917" y2="212.779" gradientUnits="userSpaceOnUse">
<stop stop-color="#2F943E"/>
<stop offset="1" stop-color="white"/>
</linearGradient>
<linearGradient id="paint30_linear" x1="74.5025" y1="229.347" x2="74.5039" y2="223.785" gradientUnits="userSpaceOnUse">
<stop stop-color="#00290D"/>
<stop offset="1" stop-color="#185C22"/>
</linearGradient>
<radialGradient id="paint31_radial" cx="0" cy="0" r="1" gradientUnits="userSpaceOnUse" gradientTransform="translate(74.5581 225.897) rotate(-90.0266) scale(2.47161 1.04302)">
<stop stop-color="#80C342"/>
<stop offset="1" stop-color="#2F943E"/>
</radialGradient>
<linearGradient id="paint32_linear" x1="74.8029" y1="229.384" x2="73.4917" y2="224.5" gradientUnits="userSpaceOnUse">
<stop stop-color="#2F943E"/>
<stop offset="1" stop-color="white"/>
</linearGradient>
<linearGradient id="paint33_linear" x1="109.729" y1="220.447" x2="67.0639" y2="220.447" gradientUnits="userSpaceOnUse">
<stop stop-color="#7A0604"/>
<stop offset="1" stop-color="white"/>
</linearGradient>
<linearGradient id="paint34_linear" x1="178.496" y1="224.673" x2="178.496" y2="243.152" gradientUnits="userSpaceOnUse">
<stop stop-color="#7A0604"/>
<stop offset="1" stop-color="#C2391E"/>
</linearGradient>
<linearGradient id="paint35_linear" x1="178.496" y1="225.133" x2="178.495" y2="236.967" gradientUnits="userSpaceOnUse">
<stop stop-color="#7A0604"/>
<stop offset="1" stop-color="white"/>
</linearGradient>
<linearGradient id="paint36_linear" x1="168.728" y1="233.864" x2="185.453" y2="233.863" gradientUnits="userSpaceOnUse">
<stop stop-color="#7A0604"/>
<stop offset="1" stop-color="white"/>
</linearGradient>
<linearGradient id="paint37_linear" x1="177.287" y1="232.238" x2="177.287" y2="238.032" gradientUnits="userSpaceOnUse">
<stop stop-color="#00290D"/>
<stop offset="1" stop-color="#185C22"/>
</linearGradient>
<radialGradient id="paint38_radial" cx="0" cy="0" r="1" gradientUnits="userSpaceOnUse" gradientTransform="translate(177.126 235.65) rotate(0.172109) scale(3.0664 2.63896)">
<stop stop-color="#80C342"/>
<stop offset="1" stop-color="#2F943E"/>
</radialGradient>
<linearGradient id="paint39_linear" x1="175.674" y1="232.342" x2="177.782" y2="236.686" gradientUnits="userSpaceOnUse">
<stop stop-color="#2F943E"/>
<stop offset="1" stop-color="white"/>
</linearGradient>
<linearGradient id="paint40_linear" x1="160.914" y1="220.448" x2="209.784" y2="220.446" gradientUnits="userSpaceOnUse">
<stop stop-color="#7A0604"/>
<stop offset="1" stop-color="#C2391E"/>
</linearGradient>
<linearGradient id="paint41_linear" x1="158.962" y1="220.448" x2="209.758" y2="220.446" gradientUnits="userSpaceOnUse">
<stop stop-color="#7A0604"/>
<stop offset="1" stop-color="white"/>
</linearGradient>
<linearGradient id="paint42_linear" x1="199.987" y1="224.224" x2="209.756" y2="224.223" gradientUnits="userSpaceOnUse">
<stop stop-color="#454849"/>
<stop offset="1" stop-color="#B2B4B4"/>
</linearGradient>
<linearGradient id="paint43_linear" x1="207.044" y1="246.763" x2="207.042" y2="164.705" gradientUnits="userSpaceOnUse">
<stop stop-color="#C2391E"/>
<stop offset="1" stop-color="#F3CAD9"/>
</linearGradient>
<radialGradient id="paint44_radial" cx="0" cy="0" r="1" gradientUnits="userSpaceOnUse" gradientTransform="translate(198.871 178.455) rotate(-90.0035) scale(19.7993 10.4659)">
<stop stop-color="#B2B4B4"/>
<stop offset="1" stop-color="#454849"/>
</radialGradient>
<linearGradient id="paint45_linear" x1="209.757" y1="175.451" x2="204.401" y2="175.449" gradientUnits="userSpaceOnUse">
<stop stop-color="#454849"/>
<stop offset="1" stop-color="#B2B4B4"/>
</linearGradient>
<linearGradient id="paint46_linear" x1="188.265" y1="175.451" x2="193.621" y2="175.449" gradientUnits="userSpaceOnUse">
<stop stop-color="#454849"/>
<stop offset="1" stop-color="#B2B4B4"/>
</linearGradient>
<linearGradient id="paint47_linear" x1="160.083" y1="206.544" x2="188.266" y2="206.546" gradientUnits="userSpaceOnUse">
<stop stop-color="#7A0604"/>
<stop offset="1" stop-color="#F36E21"/>
</linearGradient>
<linearGradient id="paint48_linear" x1="166.56" y1="222.071" x2="180.45" y2="222.071" gradientUnits="userSpaceOnUse">
<stop stop-color="#C2391E"/>
<stop offset="1" stop-color="#F3CAD9"/>
</linearGradient>
<linearGradient id="paint49_linear" x1="172.674" y1="194.047" x2="182.164" y2="194.047" gradientUnits="userSpaceOnUse">
<stop stop-color="#C2391E"/>
<stop offset="1" stop-color="#F3CAD9"/>
</linearGradient>
<linearGradient id="paint50_linear" x1="203.097" y1="229.302" x2="209.761" y2="229.301" gradientUnits="userSpaceOnUse">
<stop/>
<stop offset="1" stop-color="#B2B4B4"/>
</linearGradient>
<linearGradient id="paint51_linear" x1="158.963" y1="230.873" x2="209.779" y2="230.872" gradientUnits="userSpaceOnUse">
<stop stop-color="#7A0604"/>
<stop offset="1" stop-color="white"/>
</linearGradient>
<linearGradient id="paint52_linear" x1="159.83" y1="209.217" x2="184.667" y2="209.215" gradientUnits="userSpaceOnUse">
<stop/>
<stop offset="1" stop-color="#454849"/>
</linearGradient>
<linearGradient id="paint53_linear" x1="183.276" y1="209.217" x2="159.03" y2="209.215" gradientUnits="userSpaceOnUse">
<stop/>
<stop offset="1" stop-color="#454849"/>
</linearGradient>
<linearGradient id="paint54_linear" x1="202.472" y1="192.127" x2="199.77" y2="188.702" gradientUnits="userSpaceOnUse">
<stop stop-color="#7A0604"/>
<stop offset="1" stop-color="#C2391E"/>
</linearGradient>
<linearGradient id="paint55_linear" x1="202.498" y1="192.254" x2="200.832" y2="190.439" gradientUnits="userSpaceOnUse">
<stop stop-color="#C2391E"/>
<stop offset="1" stop-color="#F36E21"/>
</linearGradient>
<linearGradient id="paint56_linear" x1="203.897" y1="172.52" x2="203.895" y2="164.705" gradientUnits="userSpaceOnUse">
<stop stop-color="#B2B4B4"/>
<stop offset="1" stop-color="#454849"/>
</linearGradient>
<linearGradient id="paint57_linear" x1="194.602" y1="172.654" x2="194.601" y2="164.705" gradientUnits="userSpaceOnUse">
<stop stop-color="#B2B4B4"/>
<stop offset="1" stop-color="#454849"/>
</linearGradient>
<linearGradient id="paint58_linear" x1="196.136" y1="205.904" x2="196.135" y2="200.342" gradientUnits="userSpaceOnUse">
<stop stop-color="#00290D"/>
<stop offset="1" stop-color="#185C22"/>
</linearGradient>
<radialGradient id="paint59_radial" cx="0" cy="0" r="1" gradientUnits="userSpaceOnUse" gradientTransform="translate(196.08 202.454) rotate(-89.9734) scale(2.47182 1.04311)">
<stop stop-color="#80C342"/>
<stop offset="1" stop-color="#2F943E"/>
</radialGradient>
<linearGradient id="paint60_linear" x1="195.836" y1="205.941" x2="197.147" y2="201.057" gradientUnits="userSpaceOnUse">
<stop stop-color="#2F943E"/>
<stop offset="1" stop-color="white"/>
</linearGradient>
<linearGradient id="paint61_linear" x1="196.136" y1="217.626" x2="196.135" y2="212.064" gradientUnits="userSpaceOnUse">
<stop stop-color="#00290D"/>
<stop offset="1" stop-color="#185C22"/>
</linearGradient>
<radialGradient id="paint62_radial" cx="0" cy="0" r="1" gradientUnits="userSpaceOnUse" gradientTransform="translate(196.08 214.176) rotate(-89.9734) scale(2.47182 1.04311)">
<stop stop-color="#80C342"/>
<stop offset="1" stop-color="#2F943E"/>
</radialGradient>
<linearGradient id="paint63_linear" x1="195.836" y1="217.662" x2="197.147" y2="212.779" gradientUnits="userSpaceOnUse">
<stop stop-color="#2F943E"/>
<stop offset="1" stop-color="white"/>
</linearGradient>
<linearGradient id="paint64_linear" x1="196.136" y1="229.348" x2="196.135" y2="223.785" gradientUnits="userSpaceOnUse">
<stop stop-color="#00290D"/>
<stop offset="1" stop-color="#185C22"/>
</linearGradient>
<radialGradient id="paint65_radial" cx="0" cy="0" r="1" gradientUnits="userSpaceOnUse" gradientTransform="translate(196.08 225.897) rotate(-89.9734) scale(2.47182 1.04311)">
<stop stop-color="#80C342"/>
<stop offset="1" stop-color="#2F943E"/>
</radialGradient>
<linearGradient id="paint66_linear" x1="195.836" y1="229.384" x2="197.147" y2="224.5" gradientUnits="userSpaceOnUse">
<stop stop-color="#2F943E"/>
<stop offset="1" stop-color="white"/>
</linearGradient>
<linearGradient id="paint67_linear" x1="160.922" y1="220.437" x2="203.588" y2="220.436" gradientUnits="userSpaceOnUse">
<stop stop-color="#7A0604"/>
<stop offset="1" stop-color="white"/>
</linearGradient>
<clipPath id="clip0">
<rect width="270" height="370" fill="white"/>
</clipPath>
<clipPath id="clip1">
<rect x="39" y="86.9448" width="192.635" height="198.007" fill="white"/>
</clipPath>
</defs>
</svg>
