<svg width="270" height="370" viewBox="0 0 270 370" fill="none" xmlns="http://www.w3.org/2000/svg">
<g clip-path="url(#clip0)">
<g clip-path="url(#clip1)">
<path fill-rule="evenodd" clip-rule="evenodd" d="M135.262 119.397C132.535 119.397 132.812 117.555 132.826 116.365C132.826 116.074 132.826 109.581 132.826 109.318C131.123 109.318 127.759 109.609 127.454 111.81C123.965 136.73 122.996 152.749 122.982 178.112C122.982 178.611 122.816 179.026 122.47 179.386C120.809 181.103 119.147 182.806 117.486 184.522C117.486 188.579 117.486 192.635 117.486 196.692C119.133 198.81 120.781 200.942 122.428 203.06C122.788 203.517 123.287 203.767 123.882 203.767C127.676 203.767 131.469 203.767 135.276 203.767C139.07 203.767 142.863 203.767 146.671 203.767C147.252 203.767 147.764 203.517 148.124 203.06C149.772 200.942 151.419 198.81 153.067 196.692C153.067 192.635 153.067 188.579 153.067 184.522C151.405 182.806 149.744 181.103 148.083 179.386C147.737 179.026 147.57 178.611 147.57 178.112C147.557 152.763 146.587 136.73 143.099 111.81C142.794 109.609 139.43 109.318 137.727 109.318C137.727 109.581 137.727 116.074 137.727 116.365C137.713 117.542 137.99 119.397 135.262 119.397Z" fill="url(#paint0_linear)"/>
<path fill-rule="evenodd" clip-rule="evenodd" d="M135.262 119.397C132.535 119.397 132.812 117.555 132.826 116.365C132.826 116.074 132.826 109.581 132.826 109.318C131.123 109.318 127.759 109.609 127.454 111.81C123.965 136.73 122.996 152.749 122.982 178.112C122.982 178.611 122.816 179.026 122.47 179.386C120.809 181.103 119.147 182.806 117.486 184.522C117.486 188.579 117.486 192.635 117.486 196.692C119.133 198.81 120.781 200.942 122.428 203.06C122.788 203.517 123.287 203.767 123.882 203.767C127.676 203.767 131.469 203.767 135.276 203.767C139.07 203.767 142.863 203.767 146.67 203.767C147.252 203.767 147.764 203.517 148.124 203.06C149.772 200.942 151.419 198.81 153.067 196.692C153.067 192.635 153.067 188.579 153.067 184.522C151.405 182.806 149.744 181.103 148.083 179.386C147.737 179.026 147.57 178.611 147.57 178.112C147.557 152.763 146.587 136.73 143.099 111.81C142.794 109.609 139.43 109.318 137.727 109.318C137.727 109.581 137.727 116.074 137.727 116.365C137.713 117.542 137.99 119.397 135.262 119.397ZM134.141 116.683C134.127 117.279 134.113 118.068 135.262 118.068C136.425 118.068 136.398 117.279 136.384 116.683C136.384 116.586 136.384 116.489 136.384 116.365V109.442C136.384 109.401 136.384 109.359 136.384 109.332C136.384 108.598 136.979 108.003 137.713 108.003C138.862 108.003 140.676 108.127 142.102 108.792C143.292 109.346 144.206 110.232 144.4 111.644C146.144 124.146 147.266 134.404 147.944 144.733C148.623 155.019 148.872 165.389 148.872 178.126C148.872 178.209 148.886 178.265 148.899 178.32C148.913 178.375 148.955 178.417 149.01 178.472L153.925 183.539C154.202 183.789 154.368 184.135 154.368 184.536V196.706C154.368 196.983 154.285 197.273 154.091 197.509L149.149 203.877C148.844 204.265 148.47 204.569 148.041 204.777C147.612 204.985 147.141 205.096 146.657 205.096H135.262H123.868C123.384 205.096 122.913 204.985 122.484 204.777C122.055 204.569 121.681 204.265 121.376 203.877L116.503 197.564C116.295 197.329 116.157 197.01 116.157 196.678V184.509C116.157 184.176 116.281 183.844 116.531 183.581L121.515 178.445C121.556 178.389 121.598 178.348 121.625 178.278C121.639 178.223 121.653 178.168 121.653 178.085C121.667 165.347 121.902 154.978 122.581 144.691C123.259 134.377 124.38 124.104 126.125 111.602C126.319 110.19 127.233 109.304 128.423 108.75C129.863 108.113 131.677 107.989 132.826 107.989C133.56 107.989 134.141 108.584 134.141 109.304V116.351V116.365V116.642V116.683Z" fill="black"/>
<path fill-rule="evenodd" clip-rule="evenodd" d="M130.749 109.47C129.198 109.442 127.662 110.315 127.454 111.81C123.965 136.73 122.996 152.749 122.982 178.112C122.982 178.611 122.816 179.026 122.47 179.386C120.809 181.103 119.147 182.806 117.486 184.522C117.486 188.579 117.486 192.635 117.486 196.692C119.133 198.81 120.781 200.942 122.428 203.06C122.788 203.517 123.287 203.766 123.882 203.766C125.004 203.766 126.111 203.766 127.233 203.766C127.233 200.264 123.065 199.876 121.985 196.692C124.865 196 123.965 186.765 122.955 185.007C126.153 184.149 126.886 183.622 126.886 174.513C126.886 164.849 123.854 166.593 126.028 144.636C127.62 128.604 127.233 121.557 129.434 119.272C127.413 118.857 128.119 115.16 129.448 110.688C129.448 110.121 130.749 110.093 130.749 109.47Z" fill="url(#paint1_linear)"/>
<path fill-rule="evenodd" clip-rule="evenodd" d="M139.79 109.47C141.34 109.442 142.877 110.315 143.085 111.81C146.574 136.73 147.543 152.749 147.557 178.112C147.557 178.611 147.723 179.026 148.069 179.386C149.73 181.103 151.392 182.806 153.053 184.522C153.053 188.579 153.053 192.635 153.053 196.692C151.405 198.81 149.758 200.942 148.11 203.06C147.75 203.517 147.252 203.766 146.657 203.766C145.535 203.766 144.428 203.766 143.306 203.766C143.306 200.264 147.474 199.876 148.553 196.692C145.674 196 146.574 186.765 147.584 185.007C144.386 184.149 143.652 183.622 143.652 174.513C143.652 164.849 146.684 166.593 144.511 144.636C142.919 128.604 143.306 121.557 141.105 119.272C143.126 118.857 142.42 115.16 141.091 110.688C141.077 110.121 139.79 110.093 139.79 109.47Z" fill="url(#paint2_linear)"/>
<path d="M126.526 184.924H117.486V196.678H126.526V184.924Z" fill="url(#paint3_linear)"/>
<path d="M153.039 184.924H143.998V196.678H153.039V184.924Z" fill="url(#paint4_linear)"/>
<path opacity="0.5" fill-rule="evenodd" clip-rule="evenodd" d="M121.044 184.924C122.802 184.924 124.574 184.924 126.333 184.924C121.321 186.211 125.447 194.435 123.259 196.678C121.501 196.678 119.729 196.678 117.97 196.678C125.225 194.864 121.473 188.897 121.044 184.924Z" fill="url(#paint5_linear)"/>
<path opacity="0.5" fill-rule="evenodd" clip-rule="evenodd" d="M149.481 184.924C147.723 184.924 145.951 184.924 144.192 184.924C149.204 186.211 145.078 194.435 147.266 196.678C149.024 196.678 150.796 196.678 152.554 196.678C145.3 194.864 149.052 188.897 149.481 184.924Z" fill="url(#paint6_linear)"/>
<path fill-rule="evenodd" clip-rule="evenodd" d="M132.023 183.913C133.103 181.74 134.183 179.58 135.262 177.406C136.342 179.58 137.422 181.74 138.502 183.913C139.236 185.436 142.476 184.924 143.999 184.924C143.999 188.842 143.999 192.76 143.999 196.678C138.17 196.678 132.341 196.678 126.526 196.678C126.526 192.76 126.526 188.842 126.526 184.924C128.049 184.924 131.289 185.422 132.023 183.913Z" fill="url(#paint7_linear)"/>
<path fill-rule="evenodd" clip-rule="evenodd" d="M127.62 187.901C127.62 189.853 127.62 191.805 127.62 193.757C127.62 194.767 128.437 195.584 129.448 195.584C133.324 195.584 137.187 195.584 141.063 195.584C142.074 195.584 142.891 194.767 142.891 193.757C142.891 191.805 142.891 189.853 142.891 187.901C142.891 186.89 142.074 186.073 141.063 186.073C139.637 186.073 138.211 185.838 137.505 184.412C137.298 183.996 137.09 183.581 136.896 183.179C136.232 181.823 134.28 181.823 133.615 183.179C133.407 183.595 133.2 184.01 133.006 184.412C132.3 185.851 130.874 186.073 129.448 186.073C128.451 186.073 127.62 186.89 127.62 187.901Z" fill="url(#paint8_linear)"/>
<path fill-rule="evenodd" clip-rule="evenodd" d="M130.14 166.801H140.385C141.603 166.801 142.586 167.784 142.586 169.002V173.156C142.586 174.36 141.603 175.357 140.385 175.357H130.14C128.935 175.357 127.939 174.374 127.939 173.156V169.002C127.939 167.784 128.935 166.801 130.14 166.801Z" fill="#050000"/>
<path fill-rule="evenodd" clip-rule="evenodd" d="M135.263 167.175H130.14C129.129 167.175 128.312 167.992 128.312 169.002V173.156C128.312 174.167 129.129 174.983 130.14 174.983H135.263H140.385C141.396 174.983 142.213 174.167 142.213 173.156V169.002C142.213 167.992 141.396 167.175 140.385 167.175H135.263Z" fill="url(#paint9_radial)"/>
<path fill-rule="evenodd" clip-rule="evenodd" d="M131.787 167.507C134.099 167.507 136.411 167.507 138.737 167.507V168.393L138.377 168.739C137.561 169.542 137.561 172.588 138.377 173.377L138.737 173.723V174.61C136.425 174.61 134.113 174.61 131.787 174.61V173.751L132.147 173.405C132.964 172.602 132.964 169.556 132.147 168.767L131.787 168.421V167.507Z" fill="url(#paint10_radial)"/>
<path fill-rule="evenodd" clip-rule="evenodd" d="M138.378 168.753C137.561 169.556 137.561 172.602 138.378 173.391H132.161C132.978 172.588 132.978 169.542 132.161 168.753H138.378Z" fill="url(#paint11_radial)"/>
<path opacity="0.5" fill-rule="evenodd" clip-rule="evenodd" d="M130.14 167.175C129.129 167.175 128.312 167.992 128.312 169.002V173.156C128.312 174.167 129.129 174.983 130.14 174.983H140.385C141.396 174.983 142.213 174.167 142.213 173.156V169.002C142.213 167.992 141.396 167.175 140.385 167.175H130.14Z" fill="url(#paint12_radial)"/>
<path opacity="0.5" fill-rule="evenodd" clip-rule="evenodd" d="M130.14 167.175C129.129 167.175 128.312 167.992 128.312 169.002C129.642 170.332 137.062 173.059 140.385 174.983C141.396 174.983 142.213 174.167 142.213 173.156C136.259 171.55 133.006 173.128 130.14 167.175Z" fill="url(#paint13_linear)"/>
<path fill-rule="evenodd" clip-rule="evenodd" d="M131.012 132.937C131.94 127.524 133.338 123.966 135.262 123.966C137.187 123.966 138.585 127.51 139.513 132.937C140.565 139.098 141.077 147.765 141.077 156.307C141.077 157.414 140.191 158.979 138.973 160.197C137.879 161.291 136.495 162.135 135.262 162.135C134.016 162.135 132.646 161.305 131.552 160.197C130.334 158.979 129.448 157.414 129.448 156.307C129.448 147.765 129.96 139.098 131.012 132.937Z" fill="#050000"/>
<path fill-rule="evenodd" clip-rule="evenodd" d="M135.262 124.298C131.524 124.298 129.766 140.482 129.766 156.293C129.766 158.245 132.84 161.789 135.262 161.789C137.685 161.789 140.759 158.245 140.759 156.293C140.759 140.482 139.014 124.298 135.262 124.298Z" fill="url(#paint14_radial)"/>
<path fill-rule="evenodd" clip-rule="evenodd" d="M135.262 124.298C132.936 124.298 131.372 130.57 130.527 139.126C133.684 142.116 136.841 142.241 139.983 139.126C139.153 130.57 137.602 124.298 135.262 124.298Z" fill="url(#paint15_linear)"/>
<path opacity="0.5" fill-rule="evenodd" clip-rule="evenodd" d="M135.262 131.816C133.947 131.816 133.615 132.425 132.992 134.695C131.815 138.973 131.123 146.629 132.272 151.392C132.812 153.663 133.463 154.272 135.276 154.272C137.076 154.272 137.727 153.676 138.281 151.392C139.416 146.629 138.724 138.973 137.561 134.695C136.91 132.425 136.592 131.816 135.262 131.816Z" fill="url(#paint16_linear)"/>
<path opacity="0.5" fill-rule="evenodd" clip-rule="evenodd" d="M133.559 125.558C132.355 127.482 131.441 131.469 130.818 136.523C134.487 134.391 135.179 146.449 135.262 161.789C137.685 161.789 140.759 158.245 140.759 156.293C135.179 159.283 134.003 132.245 133.559 125.558Z" fill="url(#paint17_linear)"/>
<path fill-rule="evenodd" clip-rule="evenodd" d="M135.262 186.267C137.533 186.267 139.374 188.108 139.374 190.379C139.374 192.649 137.533 194.491 135.262 194.491C132.992 194.491 131.151 192.649 131.151 190.379C131.151 188.108 132.992 186.267 135.262 186.267Z" fill="#5B1E00"/>
<path fill-rule="evenodd" clip-rule="evenodd" d="M135.262 186.641C133.2 186.641 131.524 188.316 131.524 190.379C131.524 192.442 133.2 194.117 135.262 194.117C137.325 194.117 139.001 192.442 139.001 190.379C139.014 188.316 137.339 186.641 135.262 186.641Z" fill="url(#paint18_radial)"/>
<path fill-rule="evenodd" clip-rule="evenodd" d="M135.262 188.482C134.21 188.482 133.366 189.34 133.366 190.379C133.366 191.431 134.224 192.276 135.262 192.276C136.315 192.276 137.159 191.417 137.159 190.379C137.173 189.327 136.315 188.482 135.262 188.482Z" fill="#FFEA26"/>
<path fill-rule="evenodd" clip-rule="evenodd" d="M129.434 186.059C129.683 186.059 129.918 186.059 130.168 186.045C130.168 186.876 130.001 190.019 131.178 190.019V190.753C129.212 190.753 129.434 187.388 129.434 186.059Z" fill="url(#paint19_linear)"/>
<path opacity="0.5" fill-rule="evenodd" clip-rule="evenodd" d="M129.628 186.059C129.877 186.059 129.655 186.073 129.891 186.059C129.891 186.89 129.766 190.268 131.164 190.268V190.559C129.448 190.559 129.628 187.388 129.628 186.059Z" fill="url(#paint20_linear)"/>
<path fill-rule="evenodd" clip-rule="evenodd" d="M141.105 186.059C140.856 186.059 140.62 186.059 140.371 186.045C140.371 186.876 140.537 190.019 139.36 190.019V190.753C141.313 190.753 141.105 187.388 141.105 186.059Z" fill="url(#paint21_linear)"/>
<path opacity="0.5" fill-rule="evenodd" clip-rule="evenodd" d="M140.897 186.059C140.648 186.059 140.87 186.073 140.634 186.059C140.634 186.89 140.759 190.268 139.36 190.268V190.559C141.091 190.559 140.897 187.388 140.897 186.059Z" fill="url(#paint22_linear)"/>
<path fill-rule="evenodd" clip-rule="evenodd" d="M131.718 192.455L133.089 193.867L132.189 195.584H130.14L131.718 192.455Z" fill="url(#paint23_linear)"/>
<path opacity="0.5" fill-rule="evenodd" clip-rule="evenodd" d="M131.94 192.788L132.812 193.688L131.829 195.584H130.527L131.94 192.788Z" fill="url(#paint24_linear)"/>
<path fill-rule="evenodd" clip-rule="evenodd" d="M138.821 192.455L137.436 193.867L138.336 195.584H140.399L138.821 192.455Z" fill="url(#paint25_linear)"/>
<path opacity="0.5" fill-rule="evenodd" clip-rule="evenodd" d="M138.585 192.788L137.713 193.688L138.696 195.584H139.997L138.585 192.788Z" fill="url(#paint26_linear)"/>
<path fill-rule="evenodd" clip-rule="evenodd" d="M125.087 130.957C125.087 130.833 125.128 130.722 125.128 130.597C126.873 130.597 130.389 131.732 131.151 132.217C131.123 132.342 131.109 132.466 131.081 132.605C130.375 132.134 126.734 130.957 125.087 130.957ZM135.262 176.991V177.808L132.189 183.996C131.843 184.688 131.164 185.118 130.389 185.118H126.706V196.498H135.262V196.872H126.72C126.914 199.322 130.818 201.039 130.818 203.766H130.444C130.444 201.219 126.526 199.488 126.346 196.872H117.624C117.389 196.872 117.237 196.498 117.486 196.498H126.346V185.104H117.486V184.744H130.389C131.04 184.744 131.58 184.412 131.87 183.83L135.262 176.991ZM123.439 153.51V153.15C126.554 153.15 126.596 159.048 127.814 161.402C128.022 161.817 128.354 162.08 128.797 162.218C129.6 162.468 129.766 162.8 129.946 163.132C130.624 164.434 134.099 164.226 135.262 164.226V164.6C130.334 164.6 129.974 163.963 129.628 163.312C129.378 162.869 129.185 162.731 128.686 162.565C128.146 162.398 127.745 162.066 127.496 161.568C126.36 159.38 126.153 153.51 123.439 153.51ZM130.444 110.896H128.783C128.603 110.896 128.451 111.035 128.423 111.215L127.412 118.857C127.385 119.078 127.551 119.272 127.772 119.272H129.434C129.614 119.272 129.766 119.134 129.794 118.954L130.804 111.311C130.832 111.09 130.666 110.896 130.444 110.896ZM128.783 110.522C129.309 110.522 130.043 110.467 130.541 110.536C130.901 110.592 131.178 110.896 131.178 111.256C131.04 113.61 130.486 116.586 130.168 118.995C130.126 119.355 129.808 119.632 129.448 119.632C128.922 119.632 128.188 119.688 127.689 119.618C127.329 119.563 127.053 119.258 127.053 118.898C127.191 116.545 127.745 113.568 128.063 111.159C128.105 110.799 128.409 110.522 128.783 110.522ZM129.78 144.663C127.925 143.985 125.876 143.237 124.034 143.237C124.034 143.113 124.048 142.988 124.048 142.877C125.959 142.877 127.911 143.597 129.794 144.29C129.794 144.414 129.78 144.539 129.78 144.663Z" fill="#5B1E00"/>
<path fill-rule="evenodd" clip-rule="evenodd" d="M145.438 130.957C145.438 130.833 145.397 130.722 145.397 130.597C143.652 130.597 140.136 131.732 139.374 132.217C139.402 132.342 139.416 132.466 139.444 132.605C140.163 132.134 143.805 130.957 145.438 130.957ZM135.262 176.991V177.808L138.336 183.982C138.682 184.675 139.36 185.104 140.136 185.104H143.818V196.484H135.262V196.858H143.805C143.611 199.308 139.707 201.025 139.707 203.753H140.067C140.067 201.205 143.985 199.475 144.165 196.858H152.887C153.122 196.858 153.274 196.484 153.025 196.484H144.165V185.104H153.025V184.744H140.122C139.471 184.744 138.931 184.412 138.641 183.83L135.262 176.991ZM147.086 153.51V153.15C143.971 153.15 143.929 159.048 142.711 161.402C142.503 161.817 142.171 162.08 141.728 162.218C140.925 162.468 140.759 162.8 140.579 163.132C139.9 164.434 136.425 164.226 135.262 164.226V164.6C140.191 164.6 140.551 163.963 140.897 163.312C141.146 162.869 141.34 162.731 141.839 162.565C142.379 162.398 142.78 162.066 143.029 161.568C144.165 159.38 144.372 153.51 147.086 153.51ZM140.094 110.896H141.756C141.936 110.896 142.088 111.035 142.116 111.215L143.126 118.857C143.154 119.078 142.988 119.272 142.766 119.272H141.105C140.925 119.272 140.773 119.134 140.745 118.954L139.734 111.311C139.693 111.09 139.873 110.896 140.094 110.896ZM141.756 110.522C141.23 110.522 140.496 110.467 139.997 110.536C139.637 110.592 139.36 110.896 139.36 111.256C139.499 113.61 140.053 116.586 140.371 118.995C140.413 119.355 140.731 119.632 141.091 119.632C141.617 119.632 142.351 119.688 142.849 119.618C143.209 119.563 143.486 119.258 143.486 118.898C143.348 116.545 142.794 113.568 142.476 111.159C142.434 110.799 142.116 110.522 141.756 110.522ZM140.759 144.663C142.614 143.985 144.663 143.237 146.504 143.237C146.504 143.113 146.491 142.988 146.491 142.877C144.58 142.877 142.628 143.597 140.745 144.29C140.745 144.414 140.745 144.539 140.759 144.663Z" fill="#5B1E00"/>
<path opacity="0.5" fill-rule="evenodd" clip-rule="evenodd" d="M131.566 122.124C129.545 125.821 126.277 150.354 126.153 156.127C125.931 166.649 127.329 170.678 128.285 156.971C128.963 147.225 130.126 138.752 131.22 129.088C131.344 127.994 131.995 123.038 131.677 122.11L131.566 122.124Z" fill="url(#paint27_linear)"/>
<path opacity="0.5" fill-rule="evenodd" clip-rule="evenodd" d="M139.001 122.138C141.022 125.835 144.289 150.367 144.414 156.141C144.635 166.663 143.237 170.692 142.282 156.985C141.603 147.239 140.44 138.766 139.347 129.102C139.222 128.008 138.571 123.052 138.89 122.124L139.001 122.138Z" fill="url(#paint28_linear)"/>
<path fill-rule="evenodd" clip-rule="evenodd" d="M145.951 198.561C145.203 198.561 144.469 198.782 143.874 199.156C143.265 199.53 142.808 200.07 142.656 200.665C142.614 200.818 142.6 200.97 142.6 201.108C142.6 201.524 142.766 201.911 143.043 202.216C143.306 202.507 143.694 202.728 144.151 202.839C144.414 202.908 144.691 202.95 144.995 202.95C145.743 202.95 146.477 202.728 147.072 202.354C147.681 201.981 148.138 201.441 148.29 200.845C148.332 200.693 148.346 200.541 148.346 200.402C148.346 199.987 148.18 199.599 147.903 199.295C147.64 199.004 147.252 198.782 146.795 198.672C146.532 198.602 146.255 198.561 145.951 198.561ZM124.574 198.561C125.322 198.561 126.056 198.782 126.651 199.156C127.26 199.53 127.717 200.07 127.869 200.665C127.911 200.818 127.925 200.97 127.925 201.108C127.925 201.524 127.759 201.911 127.482 202.216C127.219 202.507 126.831 202.728 126.374 202.839C126.111 202.908 125.834 202.95 125.53 202.95C124.782 202.95 124.048 202.728 123.453 202.354C122.844 201.981 122.387 201.441 122.235 200.845C122.193 200.693 122.179 200.541 122.179 200.402C122.179 199.987 122.345 199.599 122.622 199.295C122.885 199.004 123.273 198.782 123.73 198.672C123.993 198.602 124.284 198.561 124.574 198.561ZM124.574 198.921C123.218 198.921 122.318 199.738 122.595 200.748C122.858 201.759 124.173 202.576 125.543 202.576C126.9 202.576 127.8 201.759 127.523 200.748C127.26 199.738 125.945 198.921 124.574 198.921ZM145.951 198.921C147.307 198.921 148.207 199.738 147.93 200.748C147.667 201.759 146.352 202.576 144.981 202.576C143.625 202.576 142.739 201.759 143.002 200.748C143.265 199.738 144.594 198.921 145.951 198.921Z" fill="#5B1E00"/>
<path fill-rule="evenodd" clip-rule="evenodd" d="M127.939 172.976V173.35C127.039 173.35 126.18 172.408 125.322 171.453C124.519 170.567 123.73 169.681 122.982 169.681V169.307C123.882 169.307 124.74 170.249 125.599 171.204C126.402 172.09 127.205 172.976 127.939 172.976ZM135.442 177.614H135.082V175.357H135.456V177.614H135.442ZM135.082 164.6H135.456V166.801H135.082V164.6ZM142.559 172.976V173.35C143.459 173.35 144.317 172.408 145.175 171.453C145.978 170.567 146.767 169.681 147.515 169.681V169.307C146.615 169.307 145.757 170.249 144.912 171.204C144.095 172.09 143.292 172.976 142.559 172.976Z" fill="#5B1E00"/>
<path opacity="0.5" fill-rule="evenodd" clip-rule="evenodd" d="M132.826 109.318C131.123 109.318 127.759 109.609 127.454 111.81C123.965 136.73 122.996 152.749 122.982 178.112C122.982 178.611 122.816 179.026 122.47 179.386C120.809 181.103 119.147 182.806 117.486 184.522C117.486 188.579 117.486 192.635 117.486 196.692C119.133 198.81 120.781 200.942 122.428 203.06C122.788 203.517 123.287 203.767 123.882 203.767C125.474 203.767 127.053 203.767 128.645 203.767C126.291 199.987 125.045 193.563 126.346 187.485C127.233 183.318 129.697 182.695 129.697 177.6C129.697 167.175 126.776 171.467 127.869 153.787C129.102 133.518 130.472 113.845 132.826 109.318Z" fill="url(#paint29_linear)"/>
<path opacity="0.5" fill-rule="evenodd" clip-rule="evenodd" d="M137.699 109.318C139.402 109.318 142.766 109.609 143.071 111.81C146.56 136.73 147.529 152.749 147.543 178.112C147.543 178.611 147.709 179.026 148.055 179.386C149.716 181.103 151.378 182.806 153.039 184.522C153.039 188.579 153.039 192.635 153.039 196.692C151.392 198.81 149.744 200.942 148.096 203.06C147.737 203.517 147.238 203.767 146.643 203.767C145.051 203.767 143.472 203.767 141.88 203.767C144.234 199.987 145.48 193.563 144.178 187.485C143.292 183.318 140.828 182.695 140.828 177.6C140.828 167.175 143.749 171.467 142.656 153.787C141.437 133.518 140.067 113.845 137.699 109.318Z" fill="url(#paint30_radial)"/>
</g>
</g>
<defs>
<linearGradient id="paint0_linear" x1="151.354" y1="156.538" x2="117.482" y2="156.538" gradientUnits="userSpaceOnUse">
<stop stop-color="#F89952"/>
<stop offset="0.49" stop-color="#FAEF5F"/>
<stop offset="1" stop-color="#F89952"/>
</linearGradient>
<linearGradient id="paint1_linear" x1="124.113" y1="202.6" x2="124.115" y2="111.969" gradientUnits="userSpaceOnUse">
<stop stop-color="#FFD13A"/>
<stop offset="0.45" stop-color="#F89952"/>
<stop offset="1" stop-color="#FFF032"/>
</linearGradient>
<linearGradient id="paint2_linear" x1="146.416" y1="202.6" x2="146.414" y2="111.969" gradientUnits="userSpaceOnUse">
<stop stop-color="#FFD13A"/>
<stop offset="0.45" stop-color="#F89952"/>
<stop offset="1" stop-color="#FFF032"/>
</linearGradient>
<linearGradient id="paint3_linear" x1="126.526" y1="190.803" x2="117.482" y2="190.802" gradientUnits="userSpaceOnUse">
<stop stop-color="#212427"/>
<stop offset="1" stop-color="#B5B8B8"/>
</linearGradient>
<linearGradient id="paint4_linear" x1="144.003" y1="190.803" x2="153.047" y2="190.802" gradientUnits="userSpaceOnUse">
<stop stop-color="#212427"/>
<stop offset="1" stop-color="#B5B8B8"/>
</linearGradient>
<linearGradient id="paint5_linear" x1="122.157" y1="196.337" x2="122.159" y2="185.109" gradientUnits="userSpaceOnUse">
<stop stop-color="#B5B8B8"/>
<stop offset="1" stop-color="white"/>
</linearGradient>
<linearGradient id="paint6_linear" x1="148.372" y1="196.337" x2="148.37" y2="185.11" gradientUnits="userSpaceOnUse">
<stop stop-color="#B5B8B8"/>
<stop offset="1" stop-color="white"/>
</linearGradient>
<linearGradient id="paint7_linear" x1="135.263" y1="177.403" x2="135.265" y2="196.495" gradientUnits="userSpaceOnUse">
<stop stop-color="#FFF032"/>
<stop offset="1" stop-color="#FEFAD1"/>
</linearGradient>
<linearGradient id="paint8_linear" x1="135.264" y1="195.416" x2="135.266" y2="182.144" gradientUnits="userSpaceOnUse">
<stop stop-color="#FFF032"/>
<stop offset="1" stop-color="#5C1800"/>
</linearGradient>
<radialGradient id="paint9_radial" cx="0" cy="0" r="1" gradientUnits="userSpaceOnUse" gradientTransform="translate(135.316 171.334) rotate(-89.9932) scale(8.20501 6.28341)">
<stop/>
<stop offset="1" stop-color="#210000"/>
</radialGradient>
<radialGradient id="paint10_radial" cx="0" cy="0" r="1" gradientUnits="userSpaceOnUse" gradientTransform="translate(135.265 171.076) rotate(-89.986) scale(4.79424 2.26767)">
<stop stop-color="#B8B9B8"/>
<stop offset="1" stop-color="#23272A"/>
</radialGradient>
<radialGradient id="paint11_radial" cx="0" cy="0" r="1" gradientUnits="userSpaceOnUse" gradientTransform="translate(135.267 171.076) rotate(-90) scale(3.12293 2.03147)">
<stop stop-color="#FAEF5F"/>
<stop offset="1" stop-color="#B5B8B8"/>
</radialGradient>
<radialGradient id="paint12_radial" cx="0" cy="0" r="1" gradientUnits="userSpaceOnUse" gradientTransform="translate(135.393 171.867) rotate(-0.0146) scale(7.22346 4.69813)">
<stop stop-color="#2B3594"/>
<stop offset="1"/>
</radialGradient>
<linearGradient id="paint13_linear" x1="135.357" y1="174.391" x2="135.203" y2="168.843" gradientUnits="userSpaceOnUse">
<stop stop-color="#2B3594"/>
<stop offset="1" stop-color="white"/>
</linearGradient>
<radialGradient id="paint14_radial" cx="0" cy="0" r="1" gradientUnits="userSpaceOnUse" gradientTransform="translate(135.366 146.838) rotate(-89.9965) scale(22.5395 5.70248)">
<stop stop-color="#2B3594"/>
<stop offset="1"/>
</radialGradient>
<linearGradient id="paint15_linear" x1="135.264" y1="141.417" x2="135.266" y2="124.301" gradientUnits="userSpaceOnUse">
<stop/>
<stop offset="1" stop-color="#2B3594"/>
</linearGradient>
<linearGradient id="paint16_linear" x1="135.264" y1="153.896" x2="135.266" y2="132.014" gradientUnits="userSpaceOnUse">
<stop/>
<stop offset="1" stop-color="#A5DBDB"/>
</linearGradient>
<linearGradient id="paint17_linear" x1="137.832" y1="158.06" x2="133.447" y2="133.786" gradientUnits="userSpaceOnUse">
<stop stop-color="#2B3594"/>
<stop offset="1" stop-color="white"/>
</linearGradient>
<radialGradient id="paint18_radial" cx="0" cy="0" r="1" gradientUnits="userSpaceOnUse" gradientTransform="translate(135.186 190.36) scale(3.72542)">
<stop stop-color="#F9F185"/>
<stop offset="1" stop-color="#FAEF5F"/>
</radialGradient>
<linearGradient id="paint19_linear" x1="130.554" y1="190.28" x2="129.619" y2="186.209" gradientUnits="userSpaceOnUse">
<stop stop-color="#23272A"/>
<stop offset="1" stop-color="#B8B9B8"/>
</linearGradient>
<linearGradient id="paint20_linear" x1="129.457" y1="186.408" x2="130.827" y2="190.524" gradientUnits="userSpaceOnUse">
<stop stop-color="#B8B9B8"/>
<stop offset="1" stop-color="white"/>
</linearGradient>
<linearGradient id="paint21_linear" x1="139.975" y1="190.28" x2="140.91" y2="186.209" gradientUnits="userSpaceOnUse">
<stop stop-color="#23272A"/>
<stop offset="1" stop-color="#B8B9B8"/>
</linearGradient>
<linearGradient id="paint22_linear" x1="141.072" y1="186.408" x2="139.703" y2="190.523" gradientUnits="userSpaceOnUse">
<stop stop-color="#B8B9B8"/>
<stop offset="1" stop-color="white"/>
</linearGradient>
<linearGradient id="paint23_linear" x1="132.235" y1="193.456" x2="131.156" y2="195.65" gradientUnits="userSpaceOnUse">
<stop stop-color="#23272A"/>
<stop offset="0.55" stop-color="#B8B9B8"/>
<stop offset="1" stop-color="#23272A"/>
</linearGradient>
<linearGradient id="paint24_linear" x1="131.272" y1="195.496" x2="132.215" y2="193.456" gradientUnits="userSpaceOnUse">
<stop stop-color="#B8B9B8"/>
<stop offset="1" stop-color="white"/>
</linearGradient>
<linearGradient id="paint25_linear" x1="138.294" y1="193.456" x2="139.374" y2="195.65" gradientUnits="userSpaceOnUse">
<stop stop-color="#23272A"/>
<stop offset="0.55" stop-color="#B8B9B8"/>
<stop offset="1" stop-color="#23272A"/>
</linearGradient>
<linearGradient id="paint26_linear" x1="139.258" y1="195.496" x2="138.315" y2="193.456" gradientUnits="userSpaceOnUse">
<stop stop-color="#B8B9B8"/>
<stop offset="1" stop-color="white"/>
</linearGradient>
<linearGradient id="paint27_linear" x1="128.949" y1="164.723" x2="128.95" y2="122.722" gradientUnits="userSpaceOnUse">
<stop stop-color="#FAEF5F"/>
<stop offset="1" stop-color="white"/>
</linearGradient>
<linearGradient id="paint28_linear" x1="141.619" y1="164.737" x2="141.618" y2="122.735" gradientUnits="userSpaceOnUse">
<stop stop-color="#FAEF5F"/>
<stop offset="1" stop-color="white"/>
</linearGradient>
<linearGradient id="paint29_linear" x1="122.359" y1="156.539" x2="132.484" y2="156.537" gradientUnits="userSpaceOnUse">
<stop stop-color="#FFD13A"/>
<stop offset="1" stop-color="white"/>
</linearGradient>
<radialGradient id="paint30_radial" cx="0" cy="0" r="1" gradientUnits="userSpaceOnUse" gradientTransform="translate(143.107 161.109) rotate(-89.9927) scale(31.1624 5.0639)">
<stop stop-color="white"/>
<stop offset="1" stop-color="#FFD13A"/>
</radialGradient>
<clipPath id="clip0">
<rect width="270" height="370" fill="white"/>
</clipPath>
<clipPath id="clip1">
<rect x="81.088" y="107.989" width="108.349" height="142.407" fill="white"/>
</clipPath>
</defs>
</svg>
