<svg width="270" height="370" viewBox="0 0 270 370" fill="none" xmlns="http://www.w3.org/2000/svg">
<g clip-path="url(#clip0)">
<g clip-path="url(#clip1)">
<path fill-rule="evenodd" clip-rule="evenodd" d="M135.249 90.7244C134.695 90.7244 132.59 95.9992 132.59 98.8651V104.403C131.109 105.414 129.641 106.812 129.641 107.753C129.641 111.63 129.641 115.506 129.641 119.383C133.38 119.383 137.131 119.383 140.87 119.383C140.87 115.506 140.87 111.63 140.87 107.753C140.87 106.812 139.388 105.414 137.921 104.403V98.8651C137.907 95.9854 135.802 90.7244 135.249 90.7244Z" fill="url(#paint0_linear)"/>
<path fill-rule="evenodd" clip-rule="evenodd" d="M135.249 90.7244C134.695 90.7244 132.59 95.9992 132.59 98.865V104.403C131.109 105.414 129.641 106.812 129.641 107.753C129.641 111.63 129.641 115.506 129.641 119.383C133.379 119.383 137.131 119.383 140.869 119.383C140.869 115.506 140.869 111.63 140.869 107.753C140.869 106.812 139.388 105.414 137.921 104.403V98.865C137.907 95.9853 135.802 90.7244 135.249 90.7244ZM132.23 93.9363C133.033 91.472 134.404 89.3953 135.249 89.3953C136.093 89.3953 137.464 91.472 138.267 93.9363C138.807 95.5839 139.236 97.4667 139.236 98.865V103.725C139.914 104.237 140.565 104.804 141.063 105.372C141.742 106.147 142.185 106.964 142.185 107.74V119.369C142.185 120.103 141.589 120.698 140.856 120.698H129.628C128.894 120.698 128.298 120.103 128.298 119.369V107.74C128.298 106.964 128.741 106.134 129.42 105.372C129.918 104.804 130.569 104.237 131.247 103.725V98.865C131.261 97.4529 131.69 95.5839 132.23 93.9363Z" fill="black"/>
<path opacity="0.5" fill-rule="evenodd" clip-rule="evenodd" d="M135.248 90.7244C135.027 90.7244 133.809 102.174 133.809 104.403C133.338 104.998 132.216 106.604 132.216 107.753C132.216 116.586 133.726 119.161 135.248 119.161C136.771 119.161 138.28 116.586 138.28 107.753C138.28 106.812 137.477 105.414 136.688 104.403C136.688 102.174 135.47 90.7244 135.248 90.7244Z" fill="url(#paint1_linear)"/>
<path fill-rule="evenodd" clip-rule="evenodd" d="M135.249 119.383C132.521 119.383 132.798 117.541 132.812 116.351C132.812 116.06 132.812 109.567 132.812 109.304C131.109 109.304 127.745 109.595 127.44 111.796C123.951 136.716 122.982 152.735 122.968 178.098C122.968 178.597 122.802 179.012 122.456 179.372C120.795 181.089 119.133 182.792 117.472 184.508C117.472 188.565 117.472 192.621 117.472 196.678C119.12 198.796 120.767 200.928 122.415 203.046C122.775 203.503 123.273 203.752 123.868 203.752C127.662 203.752 131.455 203.752 135.262 203.752C139.056 203.752 142.849 203.752 146.657 203.752C147.238 203.752 147.75 203.503 148.11 203.046C149.758 200.928 151.405 198.796 153.053 196.678C153.053 192.621 153.053 188.565 153.053 184.508C151.392 182.792 149.73 181.089 148.069 179.372C147.723 179.012 147.557 178.597 147.557 178.098C147.543 152.749 146.574 136.716 143.085 111.796C142.78 109.595 139.416 109.304 137.713 109.304C137.713 109.567 137.713 116.06 137.713 116.351C137.699 117.541 137.976 119.383 135.249 119.383Z" fill="url(#paint2_linear)"/>
<path fill-rule="evenodd" clip-rule="evenodd" d="M135.249 119.383C132.521 119.383 132.798 117.541 132.812 116.351C132.812 116.06 132.812 109.567 132.812 109.304C131.109 109.304 127.745 109.595 127.44 111.796C123.951 136.716 122.982 152.735 122.968 178.098C122.968 178.597 122.802 179.012 122.456 179.372C120.795 181.089 119.133 182.792 117.472 184.508C117.472 188.565 117.472 192.621 117.472 196.678C119.119 198.796 120.767 200.928 122.415 203.046C122.774 203.503 123.273 203.753 123.868 203.753C127.662 203.753 131.455 203.753 135.262 203.753C139.056 203.753 142.849 203.753 146.657 203.753C147.238 203.753 147.75 203.503 148.11 203.046C149.758 200.928 151.405 198.796 153.053 196.678C153.053 192.621 153.053 188.565 153.053 184.508C151.392 182.792 149.73 181.089 148.069 179.372C147.723 179.012 147.557 178.597 147.557 178.098C147.543 152.749 146.574 136.716 143.085 111.796C142.78 109.595 139.416 109.304 137.713 109.304C137.713 109.567 137.713 116.06 137.713 116.351C137.699 117.541 137.976 119.383 135.249 119.383ZM134.113 116.669C134.099 117.265 134.086 118.054 135.235 118.054C136.384 118.054 136.37 117.265 136.356 116.669C136.356 116.572 136.356 116.475 136.356 116.351V109.428C136.356 109.387 136.356 109.345 136.356 109.318C136.356 108.584 136.951 107.989 137.685 107.989C138.834 107.989 140.648 108.113 142.074 108.778C143.265 109.332 144.178 110.218 144.372 111.63C146.117 124.132 147.238 134.39 147.916 144.719C148.595 155.005 148.844 165.375 148.844 178.112C148.844 178.195 148.858 178.251 148.872 178.306C148.899 178.361 148.927 178.417 148.983 178.472L153.897 183.539C154.174 183.788 154.34 184.135 154.34 184.536V196.706C154.34 196.982 154.257 197.273 154.064 197.509L149.121 203.877C148.816 204.265 148.443 204.569 148.013 204.777C147.584 204.985 147.113 205.095 146.629 205.095H135.235H123.841C123.356 205.095 122.885 204.985 122.456 204.777C122.027 204.569 121.653 204.265 121.348 203.877L116.475 197.592C116.267 197.356 116.129 197.038 116.129 196.706V184.508C116.129 184.176 116.254 183.844 116.503 183.581L121.487 178.444C121.528 178.389 121.57 178.347 121.598 178.278C121.612 178.223 121.625 178.167 121.625 178.084C121.639 165.347 121.875 154.978 122.553 144.691C123.231 134.377 124.353 124.104 126.097 111.602C126.291 110.19 127.205 109.304 128.395 108.75C129.821 108.086 131.635 107.961 132.784 107.961C133.518 107.961 134.099 108.556 134.099 109.276V116.323V116.351V116.628L134.113 116.669Z" fill="black"/>
<path fill-rule="evenodd" clip-rule="evenodd" d="M130.721 109.47C129.171 109.442 127.634 110.315 127.426 111.81C123.937 136.73 122.968 152.749 122.954 178.112C122.954 178.611 122.788 179.026 122.442 179.386C120.781 181.103 119.119 182.805 117.458 184.522C117.458 188.579 117.458 192.635 117.458 196.692C119.106 198.81 120.753 200.942 122.401 203.06C122.761 203.517 123.259 203.766 123.854 203.766C124.976 203.766 126.083 203.766 127.205 203.766C122.235 202.437 121.958 199.876 121.958 196.692C124.837 195.999 123.937 186.765 122.927 185.007C124.353 184.619 125.294 184.315 125.89 183.276C124.533 181.975 123.854 178.707 126.859 175.592C126.859 167.95 125.031 166.067 125.336 154.784C126.776 152.306 127.177 148.72 126.111 143.514C128.506 138.184 128.395 134.46 127.163 130.902C127.634 124.492 127.966 120.781 129.406 119.286C127.385 118.871 128.091 115.174 129.42 110.702C129.434 110.121 130.721 110.079 130.721 109.47Z" fill="url(#paint3_linear)"/>
<path fill-rule="evenodd" clip-rule="evenodd" d="M139.762 109.47C141.313 109.442 142.849 110.315 143.057 111.81C146.546 136.73 147.515 152.749 147.529 178.112C147.529 178.611 147.695 179.026 148.041 179.386C149.702 181.103 151.364 182.805 153.025 184.522C153.025 188.579 153.025 192.635 153.025 196.692C151.378 198.81 149.73 200.942 148.083 203.06C147.723 203.517 147.224 203.766 146.629 203.766C145.508 203.766 144.4 203.766 143.279 203.766C148.249 202.437 148.526 199.876 148.526 196.692C145.646 195.999 146.546 186.765 147.557 185.007C146.131 184.619 145.189 184.315 144.594 183.276C145.951 181.975 146.629 178.707 143.625 175.592C143.625 167.95 145.452 166.067 145.148 154.784C143.708 152.306 143.306 148.72 144.386 143.514C141.991 138.184 142.102 134.46 143.334 130.902C142.863 124.492 142.531 120.781 141.091 119.286C143.112 118.871 142.406 115.174 141.077 110.702C141.05 110.121 139.762 110.079 139.762 109.47Z" fill="url(#paint4_linear)"/>
<path d="M126.499 184.924H117.458V196.678H126.499V184.924Z" fill="url(#paint5_linear)"/>
<path fill-rule="evenodd" clip-rule="evenodd" d="M117.458 188.385L119.563 189.049C120.338 189.299 120.836 189.977 120.836 190.794C120.836 191.611 120.338 192.289 119.563 192.538L117.458 193.203V188.385Z" fill="url(#paint6_linear)"/>
<path opacity="0.5" fill-rule="evenodd" clip-rule="evenodd" d="M121.03 184.924C122.788 184.924 124.56 184.924 126.319 184.924C121.307 186.211 125.433 194.435 123.245 196.678C121.487 196.678 119.715 196.678 117.957 196.678C125.211 194.85 121.459 188.883 121.03 184.924Z" fill="url(#paint7_linear)"/>
<path d="M153.025 184.924H143.985V196.678H153.025V184.924Z" fill="url(#paint8_linear)"/>
<path fill-rule="evenodd" clip-rule="evenodd" d="M153.025 188.385L150.921 189.049C150.146 189.299 149.647 189.977 149.647 190.794C149.647 191.611 150.159 192.289 150.921 192.538L153.025 193.203V188.385Z" fill="url(#paint9_linear)"/>
<path opacity="0.5" fill-rule="evenodd" clip-rule="evenodd" d="M149.467 184.924C147.709 184.924 145.937 184.924 144.178 184.924C149.19 186.211 145.065 194.435 147.252 196.678C149.01 196.678 150.782 196.678 152.541 196.678C145.286 194.85 149.038 188.883 149.467 184.924Z" fill="url(#paint10_linear)"/>
<path fill-rule="evenodd" clip-rule="evenodd" d="M132.009 183.899C133.089 181.726 134.169 179.566 135.249 177.392C136.328 179.566 137.408 181.726 138.488 183.899C139.222 185.422 142.462 184.91 143.985 184.91C143.985 188.828 143.985 192.746 143.985 196.664C138.156 196.664 132.327 196.664 126.513 196.664C126.513 192.746 126.513 188.828 126.513 184.91C128.035 184.924 131.275 185.422 132.009 183.899Z" fill="url(#paint11_linear)"/>
<path fill-rule="evenodd" clip-rule="evenodd" d="M127.606 187.886C127.606 189.839 127.606 191.791 127.606 193.743C127.606 194.753 128.423 195.57 129.434 195.57C133.31 195.57 137.173 195.57 141.05 195.57C142.06 195.57 142.877 194.753 142.877 193.743C142.877 191.791 142.877 189.839 142.877 187.886C142.877 186.876 142.06 186.059 141.05 186.059C139.624 186.059 138.198 185.824 137.491 184.398C137.284 183.982 137.076 183.567 136.882 183.165C136.218 181.809 134.266 181.809 133.601 183.165C133.393 183.581 133.186 183.996 132.992 184.398C132.286 185.837 130.86 186.059 129.434 186.059C128.423 186.059 127.606 186.89 127.606 187.886Z" fill="url(#paint12_radial)"/>
<path fill-rule="evenodd" clip-rule="evenodd" d="M132.258 185.325C132.41 185.173 132.521 185.104 132.632 184.965C132.632 185.297 132.632 185.63 132.632 185.962C132.507 185.962 132.383 185.962 132.258 185.962C132.258 185.782 132.258 185.505 132.258 185.325Z" fill="url(#paint13_linear)"/>
<path fill-rule="evenodd" clip-rule="evenodd" d="M138.239 185.325C138.087 185.173 137.962 185.104 137.865 184.965C137.865 185.297 137.865 185.63 137.865 185.962C137.99 185.962 138.115 185.962 138.239 185.962C138.239 185.782 138.239 185.505 138.239 185.325Z" fill="url(#paint14_linear)"/>
<path fill-rule="evenodd" clip-rule="evenodd" d="M132.632 191.915H137.865V184.965C137.727 184.799 137.602 184.619 137.505 184.398C137.298 183.982 137.09 183.567 136.896 183.165C136.564 182.487 135.913 182.155 135.249 182.155C134.598 182.155 133.947 182.487 133.601 183.165C133.393 183.581 133.186 183.996 132.992 184.398C132.881 184.619 132.757 184.799 132.632 184.965V191.915Z" fill="url(#paint15_linear)"/>
<path fill-rule="evenodd" clip-rule="evenodd" d="M130.126 166.801H140.371C141.59 166.801 142.573 167.784 142.573 169.002V173.156C142.573 174.36 141.59 175.357 140.371 175.357H130.126C128.922 175.357 127.925 174.374 127.925 173.156V169.002C127.925 167.784 128.908 166.801 130.126 166.801Z" fill="#050000"/>
<path fill-rule="evenodd" clip-rule="evenodd" d="M135.249 167.161H130.126C129.116 167.161 128.299 167.978 128.299 168.989V173.142C128.299 174.153 129.116 174.969 130.126 174.969H135.249H140.371C141.382 174.969 142.199 174.153 142.199 173.142V168.989C142.199 167.978 141.382 167.161 140.371 167.161H135.249Z" fill="url(#paint16_linear)"/>
<path opacity="0.5" fill-rule="evenodd" clip-rule="evenodd" d="M139.444 174.983H140.371C141.382 174.983 142.199 174.166 142.199 173.156V169.002C142.199 167.992 141.382 167.175 140.371 167.175H139.444C139.762 167.535 139.97 168.13 139.97 168.808V173.35C139.97 174.014 139.762 174.609 139.444 174.983Z" fill="url(#paint17_linear)"/>
<path opacity="0.5" fill-rule="evenodd" clip-rule="evenodd" d="M131.054 167.161H130.126C129.116 167.161 128.299 167.978 128.299 168.989V173.142C128.299 174.153 129.116 174.969 130.126 174.969H131.054C130.735 174.609 130.528 174.014 130.528 173.336V168.795C130.528 168.13 130.735 167.521 131.054 167.161Z" fill="url(#paint18_linear)"/>
<path opacity="0.5" fill-rule="evenodd" clip-rule="evenodd" d="M130.126 167.161C129.116 167.161 128.299 167.978 128.299 168.989C128.299 171.356 140.371 169.072 140.371 174.969C141.382 174.969 142.199 174.153 142.199 173.142C141.285 169.708 130.126 169.612 130.126 167.161Z" fill="url(#paint19_linear)"/>
<path fill-rule="evenodd" clip-rule="evenodd" d="M130.998 132.937C131.926 127.524 133.324 123.965 135.249 123.965C137.173 123.965 138.571 127.51 139.499 132.937C140.551 139.098 141.063 147.765 141.063 156.307C141.063 157.414 140.177 158.979 138.959 160.197C137.865 161.291 136.481 162.135 135.249 162.135C134.003 162.135 132.632 161.305 131.538 160.197C130.32 158.979 129.434 157.414 129.434 156.307C129.42 147.751 129.932 139.098 130.998 132.937Z" fill="#050000"/>
<path fill-rule="evenodd" clip-rule="evenodd" d="M135.249 124.298C131.51 124.298 129.752 140.482 129.752 156.293C129.752 158.245 132.826 161.789 135.249 161.789C137.671 161.789 140.745 158.245 140.745 156.293C140.731 140.482 138.987 124.298 135.249 124.298Z" fill="url(#paint20_radial)"/>
<path fill-rule="evenodd" clip-rule="evenodd" d="M135.248 124.298C132.923 124.298 131.358 130.569 130.514 139.125C133.67 142.116 136.827 142.24 139.97 139.125C139.139 130.569 137.574 124.298 135.248 124.298Z" fill="url(#paint21_linear)"/>
<path opacity="0.5" fill-rule="evenodd" clip-rule="evenodd" d="M135.249 131.815C133.933 131.815 133.601 132.425 132.978 134.695C131.801 138.973 131.109 146.629 132.258 151.392C132.798 153.662 133.449 154.272 135.262 154.272C137.062 154.272 137.713 153.676 138.267 151.392C139.402 146.629 138.71 138.973 137.547 134.695C136.896 132.425 136.564 131.815 135.249 131.815Z" fill="url(#paint22_linear)"/>
<path opacity="0.5" fill-rule="evenodd" clip-rule="evenodd" d="M133.546 125.558C132.341 127.482 131.427 131.469 130.804 136.523C134.473 134.391 135.165 146.449 135.248 161.789C137.671 161.789 140.745 158.245 140.745 156.293C135.165 159.27 133.989 132.245 133.546 125.558Z" fill="url(#paint23_linear)"/>
<path fill-rule="evenodd" clip-rule="evenodd" d="M125.073 130.943C125.073 130.819 125.114 130.708 125.114 130.583C126.859 130.583 130.375 131.718 131.137 132.203C131.109 132.328 131.095 132.452 131.068 132.591C130.348 132.134 126.706 130.943 125.073 130.943ZM135.249 176.991V177.808L132.175 183.982C131.829 184.674 131.151 185.104 130.375 185.104H126.693V196.484H135.249V196.844H126.706C126.9 199.295 130.804 201.011 130.804 203.739H130.431C130.431 201.191 126.513 199.461 126.333 196.844H117.61C117.375 196.844 117.223 196.484 117.472 196.484H126.333V185.104H117.472V184.73H130.375C131.026 184.73 131.566 184.398 131.857 183.816L135.249 176.991ZM123.425 153.51V153.136C126.54 153.136 126.582 159.034 127.8 161.388C128.008 161.803 128.34 162.066 128.783 162.205C129.586 162.454 129.752 162.786 129.932 163.118C130.611 164.42 134.086 164.212 135.249 164.212V164.572C130.32 164.572 129.96 163.935 129.614 163.284C129.365 162.841 129.171 162.703 128.672 162.537C128.132 162.371 127.731 162.038 127.482 161.54C126.346 159.366 126.139 153.51 123.425 153.51ZM130.417 110.882H128.755C128.575 110.882 128.423 111.021 128.395 111.201L127.385 118.843C127.357 119.064 127.523 119.258 127.745 119.258H129.406C129.586 119.258 129.738 119.12 129.766 118.94L130.777 111.297C130.818 111.076 130.638 110.882 130.417 110.882ZM128.755 110.522C129.282 110.522 130.015 110.467 130.514 110.536C130.874 110.591 131.151 110.896 131.151 111.256C131.012 113.61 130.458 116.586 130.14 118.995C130.098 119.355 129.78 119.632 129.42 119.632C128.894 119.632 128.16 119.687 127.662 119.618C127.302 119.577 127.025 119.258 127.025 118.898C127.163 116.545 127.717 113.568 128.036 111.159C128.077 110.799 128.395 110.522 128.755 110.522ZM129.752 144.663C127.897 143.985 125.848 143.237 124.007 143.237C124.007 143.113 124.021 142.988 124.021 142.877C125.931 142.877 127.883 143.597 129.766 144.289C129.766 144.4 129.766 144.525 129.752 144.663Z" fill="#5B1E00"/>
<path fill-rule="evenodd" clip-rule="evenodd" d="M145.425 130.943C145.425 130.819 145.383 130.708 145.383 130.583C143.639 130.583 140.122 131.718 139.361 132.203C139.388 132.328 139.402 132.452 139.43 132.591C140.136 132.134 143.777 130.943 145.425 130.943ZM135.249 176.991V177.808L138.322 183.982C138.668 184.674 139.347 185.104 140.122 185.104H143.805V196.484H135.249V196.844H143.791C143.597 199.295 139.693 201.011 139.693 203.739H140.053C140.053 201.191 143.971 199.461 144.151 196.844H152.873C153.108 196.844 153.261 196.484 153.011 196.484H144.151V185.104H153.011V184.73H140.108C139.458 184.73 138.918 184.398 138.627 183.816L135.249 176.991ZM147.058 153.51V153.136C143.943 153.136 143.902 159.034 142.683 161.388C142.476 161.803 142.143 162.066 141.7 162.205C140.897 162.454 140.731 162.786 140.551 163.118C139.873 164.42 136.398 164.212 135.235 164.212V164.572C140.164 164.572 140.524 163.935 140.87 163.284C141.119 162.841 141.313 162.703 141.811 162.537C142.351 162.371 142.753 162.038 143.002 161.54C144.151 159.366 144.359 153.51 147.058 153.51ZM140.067 110.882H141.728C141.908 110.882 142.06 111.021 142.088 111.201L143.099 118.843C143.126 119.064 142.96 119.258 142.739 119.258H141.077C140.897 119.258 140.745 119.12 140.717 118.94L139.707 111.297C139.679 111.076 139.845 110.882 140.067 110.882ZM141.728 110.522C141.202 110.522 140.468 110.467 139.97 110.536C139.61 110.591 139.333 110.896 139.333 111.256C139.471 113.61 140.025 116.586 140.344 118.995C140.385 119.355 140.704 119.632 141.063 119.632C141.59 119.632 142.323 119.687 142.822 119.618C143.182 119.577 143.459 119.258 143.459 118.898C143.32 116.545 142.766 113.568 142.448 111.159C142.406 110.799 142.102 110.522 141.728 110.522ZM140.731 144.663C142.586 143.985 144.635 143.237 146.477 143.237C146.477 143.113 146.463 142.988 146.463 142.877C144.552 142.877 142.6 143.597 140.717 144.289C140.717 144.4 140.731 144.525 140.731 144.663Z" fill="#5B1E00"/>
<path opacity="0.5" fill-rule="evenodd" clip-rule="evenodd" d="M131.552 122.124C129.517 125.807 126.263 150.34 126.139 156.127C125.917 166.649 127.316 170.677 128.271 156.971C128.949 147.225 130.112 138.752 131.206 129.088C131.331 127.994 131.981 123.038 131.663 122.11L131.552 122.124Z" fill="url(#paint24_linear)"/>
<path opacity="0.5" fill-rule="evenodd" clip-rule="evenodd" d="M138.987 122.138C141.008 125.835 144.275 150.367 144.4 156.141C144.622 166.663 143.223 170.691 142.268 156.985C141.59 147.238 140.427 138.765 139.333 129.102C139.208 128.008 138.558 123.052 138.876 122.124L138.987 122.138Z" fill="url(#paint25_linear)"/>
<path fill-rule="evenodd" clip-rule="evenodd" d="M127.925 172.962V173.336C127.025 173.336 126.166 172.394 125.308 171.439C124.505 170.553 123.716 169.667 122.968 169.667V169.307C123.868 169.307 124.727 170.248 125.585 171.204C126.388 172.076 127.177 172.962 127.925 172.962ZM135.429 177.614H135.055V175.357H135.429V177.614ZM135.069 164.586H135.442V166.787H135.069V164.586ZM142.531 172.962V173.336C143.431 173.336 144.289 172.394 145.147 171.439C145.95 170.553 146.74 169.667 147.487 169.667V169.307C146.587 169.307 145.729 170.248 144.884 171.204C144.081 172.076 143.278 172.962 142.531 172.962Z" fill="#5B1E00"/>
<path fill-rule="evenodd" clip-rule="evenodd" d="M131.261 175.745C131.317 175.454 131.607 175.26 131.912 175.315C132.203 175.371 132.397 175.662 132.341 175.966C131.275 181.255 132.203 183.525 132.964 185.394C133.407 186.474 133.795 187.416 133.781 188.717C133.781 189.022 133.532 189.257 133.227 189.257C132.923 189.257 132.687 189.008 132.687 188.703C132.687 187.637 132.341 186.765 131.954 185.796C131.123 183.788 130.14 181.352 131.261 175.745Z" fill="#5B1E00"/>
<path fill-rule="evenodd" clip-rule="evenodd" d="M131.441 175.772C131.483 175.579 131.677 175.44 131.871 175.482C132.064 175.523 132.203 175.717 132.161 175.911C131.095 181.255 132.023 183.553 132.798 185.436C133.227 186.488 133.615 187.43 133.601 188.69C133.601 188.897 133.435 189.049 133.241 189.049C133.034 189.049 132.881 188.883 132.881 188.69C132.881 187.582 132.535 186.71 132.134 185.713C131.303 183.747 130.32 181.338 131.441 175.772Z" fill="url(#paint26_linear)"/>
<path fill-rule="evenodd" clip-rule="evenodd" d="M131.621 175.814C131.635 175.717 131.732 175.648 131.843 175.675C131.94 175.689 132.009 175.786 131.981 175.883C130.901 181.283 131.843 183.608 132.618 185.519C133.047 186.557 133.421 187.485 133.407 188.703C133.407 188.8 133.324 188.883 133.227 188.883C133.13 188.883 133.047 188.8 133.047 188.703C133.061 187.554 132.687 186.668 132.286 185.657C131.483 183.705 130.514 181.324 131.621 175.814Z" fill="url(#paint27_linear)"/>
<path fill-rule="evenodd" clip-rule="evenodd" d="M132.577 184.411C132.701 184.758 132.826 185.076 132.964 185.381C133.407 186.461 133.795 187.402 133.781 188.703C133.781 189.008 133.532 189.243 133.227 189.243C132.923 189.243 132.687 188.994 132.687 188.69C132.687 187.623 132.341 186.751 131.954 185.782C131.829 185.478 131.704 185.159 131.58 184.827C132.106 185.228 132.438 184.882 132.577 184.411Z" fill="#C1C1C1"/>
<path fill-rule="evenodd" clip-rule="evenodd" d="M130.721 175.343H132.881V176.756C132.881 176.963 132.715 177.116 132.521 177.116H131.081C130.874 177.116 130.721 176.949 130.721 176.756V175.343Z" fill="url(#paint28_linear)"/>
<path fill-rule="evenodd" clip-rule="evenodd" d="M131.372 175.343H132.23V175.98C132.23 176.478 131.372 176.478 131.372 175.98V175.343Z" fill="#C1C1C1"/>
<path fill-rule="evenodd" clip-rule="evenodd" d="M139.831 175.745C139.776 175.454 139.485 175.26 139.181 175.315C138.89 175.371 138.696 175.662 138.751 175.966C139.817 181.255 138.89 183.525 138.128 185.394C137.685 186.474 137.298 187.416 137.312 188.717C137.312 189.022 137.561 189.257 137.865 189.257C138.17 189.257 138.405 189.008 138.405 188.703C138.405 187.637 138.751 186.765 139.139 185.796C139.956 183.788 140.953 181.352 139.831 175.745Z" fill="#5B1E00"/>
<path fill-rule="evenodd" clip-rule="evenodd" d="M139.651 175.772C139.61 175.579 139.416 175.44 139.222 175.482C139.028 175.523 138.89 175.717 138.931 175.911C139.997 181.255 139.07 183.553 138.295 185.436C137.865 186.488 137.478 187.43 137.492 188.69C137.492 188.897 137.658 189.049 137.852 189.049C138.059 189.049 138.211 188.883 138.211 188.69C138.198 187.582 138.558 186.71 138.959 185.713C139.776 183.747 140.759 181.338 139.651 175.772Z" fill="url(#paint29_linear)"/>
<path fill-rule="evenodd" clip-rule="evenodd" d="M139.471 175.814C139.457 175.717 139.36 175.648 139.264 175.675C139.167 175.689 139.097 175.786 139.125 175.883C140.205 181.283 139.264 183.608 138.488 185.519C138.059 186.557 137.685 187.485 137.699 188.703C137.699 188.8 137.782 188.883 137.879 188.883C137.976 188.883 138.059 188.8 138.059 188.703C138.045 187.554 138.419 186.668 138.821 185.657C139.61 183.705 140.579 181.324 139.471 175.814Z" fill="url(#paint30_linear)"/>
<path fill-rule="evenodd" clip-rule="evenodd" d="M138.516 184.411C138.391 184.758 138.267 185.076 138.128 185.381C137.685 186.461 137.298 187.402 137.312 188.703C137.312 189.008 137.561 189.243 137.865 189.243C138.17 189.243 138.405 188.994 138.405 188.69C138.405 187.623 138.751 186.751 139.139 185.782C139.264 185.478 139.388 185.159 139.513 184.827C138.987 185.228 138.641 184.882 138.516 184.411Z" fill="#C1C1C1"/>
<path fill-rule="evenodd" clip-rule="evenodd" d="M140.371 175.343H138.211V176.755C138.211 176.963 138.378 177.115 138.571 177.115H139.997C140.205 177.115 140.357 176.949 140.357 176.755V175.343H140.371Z" fill="url(#paint31_linear)"/>
<path fill-rule="evenodd" clip-rule="evenodd" d="M139.72 175.343H138.862V175.98C138.862 176.478 139.72 176.478 139.72 175.98V175.343Z" fill="#C1C1C1"/>
<path fill-rule="evenodd" clip-rule="evenodd" d="M128.008 186.751C128.271 186.433 128.589 186.225 128.963 186.115C129.462 187.997 130.597 188.579 131.76 189.091C132.134 189.257 132.521 189.437 132.895 189.645C133.158 189.797 133.255 190.129 133.103 190.393C132.95 190.656 132.618 190.752 132.355 190.6C132.009 190.406 131.649 190.24 131.303 190.088C129.905 189.465 128.645 189.133 128.008 186.751Z" fill="#5B1E00"/>
<path fill-rule="evenodd" clip-rule="evenodd" d="M128.146 186.599C128.382 186.391 128.59 186.253 128.797 186.184C129.323 188.15 130.486 188.731 131.691 189.285C132.065 189.451 132.438 189.617 132.812 189.825C132.992 189.922 133.048 190.143 132.951 190.323C132.854 190.503 132.632 190.559 132.452 190.462C132.106 190.268 131.746 190.102 131.386 189.949C130.016 189.326 128.756 188.897 128.146 186.599Z" fill="url(#paint32_linear)"/>
<path fill-rule="evenodd" clip-rule="evenodd" d="M128.299 186.461C128.396 186.391 128.52 186.308 128.631 186.253C129.185 188.302 130.362 188.883 131.621 189.437C131.995 189.603 132.355 189.77 132.729 189.977C132.812 190.033 132.854 190.143 132.798 190.226C132.743 190.309 132.632 190.351 132.549 190.296C132.189 190.102 131.829 189.936 131.469 189.77C130.126 189.174 128.894 188.676 128.299 186.461Z" fill="url(#paint33_linear)"/>
<path fill-rule="evenodd" clip-rule="evenodd" d="M127.606 191.099C129.032 192.123 130.154 191.874 131.344 191.611C131.746 191.514 132.161 191.431 132.59 191.376C132.895 191.334 133.172 191.556 133.2 191.846C133.241 192.151 133.02 192.428 132.729 192.455C132.327 192.511 131.954 192.594 131.58 192.677C130.306 192.954 129.102 193.231 127.606 192.4V191.099Z" fill="#5B1E00"/>
<path fill-rule="evenodd" clip-rule="evenodd" d="M127.606 191.32C129.046 192.303 130.181 192.054 131.386 191.777C131.787 191.694 132.189 191.597 132.604 191.542C132.798 191.514 132.992 191.652 133.02 191.86C133.047 192.054 132.909 192.248 132.701 192.275C132.3 192.331 131.912 192.414 131.538 192.497C130.278 192.774 129.088 193.037 127.593 192.192V191.32H127.606Z" fill="url(#paint34_linear)"/>
<path fill-rule="evenodd" clip-rule="evenodd" d="M127.606 191.542C129.06 192.483 130.209 192.234 131.427 191.957C131.815 191.874 132.217 191.777 132.632 191.722C132.729 191.708 132.826 191.777 132.84 191.874C132.853 191.971 132.784 192.068 132.687 192.082C132.286 192.137 131.898 192.22 131.511 192.303C130.265 192.58 129.088 192.843 127.606 191.957V191.542Z" fill="url(#paint35_linear)"/>
<path fill-rule="evenodd" clip-rule="evenodd" d="M132.84 192.649C133.061 192.455 133.407 192.469 133.615 192.691C133.809 192.912 133.795 193.258 133.573 193.466C132.77 194.186 132.424 194.878 132.286 195.57H131.164C131.289 194.629 131.691 193.674 132.84 192.649Z" fill="#5B1E00"/>
<path fill-rule="evenodd" clip-rule="evenodd" d="M132.964 192.788C133.117 192.649 133.352 192.663 133.477 192.815C133.615 192.968 133.601 193.203 133.449 193.328C132.591 194.089 132.231 194.837 132.092 195.57H131.344C131.469 194.671 131.871 193.757 132.964 192.788Z" fill="url(#paint36_linear)"/>
<path fill-rule="evenodd" clip-rule="evenodd" d="M133.089 192.926C133.158 192.857 133.283 192.871 133.352 192.94C133.421 193.009 133.407 193.134 133.338 193.203C132.424 194.02 132.05 194.795 131.912 195.57H131.538C131.663 194.712 132.05 193.854 133.089 192.926Z" fill="url(#paint37_linear)"/>
<path fill-rule="evenodd" clip-rule="evenodd" d="M142.489 186.751C142.226 186.433 141.908 186.225 141.534 186.115C141.036 187.997 139.9 188.579 138.737 189.091C138.364 189.257 137.976 189.437 137.602 189.645C137.339 189.797 137.242 190.129 137.394 190.393C137.547 190.656 137.879 190.752 138.142 190.6C138.488 190.406 138.848 190.24 139.194 190.088C140.593 189.465 141.852 189.133 142.489 186.751Z" fill="#5B1E00"/>
<path fill-rule="evenodd" clip-rule="evenodd" d="M142.351 186.599C142.115 186.391 141.908 186.253 141.7 186.184C141.174 188.15 140.011 188.731 138.807 189.285C138.433 189.451 138.059 189.617 137.685 189.825C137.505 189.922 137.45 190.143 137.547 190.323C137.644 190.503 137.865 190.559 138.045 190.462C138.391 190.268 138.751 190.102 139.111 189.949C140.482 189.326 141.728 188.897 142.351 186.599Z" fill="url(#paint38_linear)"/>
<path fill-rule="evenodd" clip-rule="evenodd" d="M142.199 186.461C142.102 186.391 141.977 186.308 141.866 186.253C141.313 188.302 140.136 188.883 138.876 189.437C138.502 189.603 138.142 189.77 137.768 189.977C137.685 190.033 137.644 190.143 137.699 190.226C137.754 190.309 137.865 190.351 137.948 190.296C138.308 190.102 138.668 189.936 139.028 189.77C140.357 189.174 141.603 188.676 142.199 186.461Z" fill="url(#paint39_linear)"/>
<path fill-rule="evenodd" clip-rule="evenodd" d="M142.891 191.099C141.465 192.123 140.343 191.874 139.153 191.611C138.751 191.514 138.336 191.431 137.907 191.376C137.602 191.334 137.325 191.556 137.298 191.846C137.256 192.151 137.478 192.428 137.768 192.455C138.17 192.511 138.544 192.594 138.917 192.677C140.191 192.954 141.396 193.231 142.891 192.4V191.099Z" fill="#5B1E00"/>
<path fill-rule="evenodd" clip-rule="evenodd" d="M142.891 191.32C141.451 192.303 140.316 192.054 139.111 191.777C138.71 191.694 138.308 191.597 137.893 191.542C137.699 191.514 137.505 191.652 137.478 191.86C137.45 192.054 137.588 192.248 137.796 192.275C138.198 192.331 138.585 192.414 138.959 192.497C140.219 192.774 141.41 193.037 142.905 192.192V191.32H142.891Z" fill="url(#paint40_linear)"/>
<path fill-rule="evenodd" clip-rule="evenodd" d="M142.891 191.542C141.437 192.483 140.288 192.234 139.07 191.957C138.682 191.874 138.281 191.777 137.865 191.722C137.768 191.708 137.671 191.777 137.658 191.874C137.644 191.971 137.713 192.068 137.81 192.082C138.211 192.137 138.599 192.22 138.987 192.303C140.233 192.58 141.41 192.843 142.891 191.957V191.542Z" fill="url(#paint41_linear)"/>
<path fill-rule="evenodd" clip-rule="evenodd" d="M137.644 192.649C137.422 192.455 137.076 192.469 136.868 192.691C136.661 192.912 136.688 193.258 136.91 193.466C137.713 194.186 138.059 194.878 138.198 195.57H139.319C139.208 194.629 138.793 193.674 137.644 192.649Z" fill="#5B1E00"/>
<path fill-rule="evenodd" clip-rule="evenodd" d="M137.533 192.788C137.381 192.649 137.145 192.663 137.021 192.815C136.882 192.968 136.896 193.203 137.048 193.328C137.907 194.089 138.267 194.837 138.405 195.57H139.153C139.014 194.671 138.613 193.757 137.533 192.788Z" fill="url(#paint42_linear)"/>
<path fill-rule="evenodd" clip-rule="evenodd" d="M137.408 192.926C137.339 192.857 137.215 192.871 137.145 192.94C137.076 193.009 137.09 193.134 137.159 193.203C138.073 194.02 138.447 194.795 138.585 195.57H138.959C138.834 194.712 138.447 193.854 137.408 192.926Z" fill="url(#paint43_linear)"/>
<path opacity="0.5" fill-rule="evenodd" clip-rule="evenodd" d="M135.193 185.588C132.48 185.588 130.278 187.79 130.278 190.503C130.278 193.217 132.48 195.418 135.193 195.418C137.907 195.418 140.108 193.217 140.108 190.503C140.108 187.79 137.907 185.588 135.193 185.588Z" fill="url(#paint44_linear)"/>
<path fill-rule="evenodd" clip-rule="evenodd" d="M135.193 184.675C132.48 184.675 130.278 186.876 130.278 189.589C130.278 192.303 132.48 194.504 135.193 194.504C137.907 194.504 140.108 192.303 140.108 189.589C140.108 186.876 137.907 184.675 135.193 184.675Z" fill="#5B1E00"/>
<path d="M135.193 194.13C137.701 194.13 139.734 192.097 139.734 189.589C139.734 187.081 137.701 185.048 135.193 185.048C132.685 185.048 130.652 187.081 130.652 189.589C130.652 192.097 132.685 194.13 135.193 194.13Z" fill="url(#paint45_linear)"/>
<path fill-rule="evenodd" clip-rule="evenodd" d="M135.193 186.115C133.283 186.115 131.718 187.665 131.718 189.59C131.718 191.5 133.269 193.065 135.193 193.065C137.104 193.065 138.668 191.514 138.668 189.59C138.668 187.679 137.118 186.115 135.193 186.115Z" fill="url(#paint46_linear)"/>
<path opacity="0.5" fill-rule="evenodd" clip-rule="evenodd" d="M135.193 186.115C135.415 187.97 133.532 190.531 131.718 189.59C131.718 191.5 133.269 193.065 135.193 193.065C134.653 190.78 137.048 188.482 138.668 189.59C138.668 187.679 137.118 186.115 135.193 186.115Z" fill="url(#paint47_linear)"/>
<path fill-rule="evenodd" clip-rule="evenodd" d="M135.193 186.377C133.421 186.377 131.981 187.817 131.981 189.589C131.981 191.362 133.421 192.801 135.193 192.801C136.965 192.801 138.405 191.362 138.405 189.589C138.405 187.817 136.965 186.377 135.193 186.377Z" fill="url(#paint48_linear)"/>
<path fill-rule="evenodd" clip-rule="evenodd" d="M135.193 187.43C134.003 187.43 133.033 188.399 133.033 189.589C133.033 190.78 134.003 191.749 135.193 191.749C136.384 191.749 137.353 190.78 137.353 189.589C137.353 188.399 136.384 187.43 135.193 187.43Z" fill="url(#paint49_linear)"/>
<path fill-rule="evenodd" clip-rule="evenodd" d="M135.193 187.748C134.183 187.748 133.366 188.565 133.366 189.576C133.366 190.586 134.183 191.403 135.193 191.403C136.204 191.403 137.021 190.586 137.021 189.576C137.035 188.579 136.204 187.748 135.193 187.748Z" fill="url(#paint50_linear)"/>
<path d="M135.193 190.669C135.79 190.669 136.273 190.186 136.273 189.589C136.273 188.993 135.79 188.51 135.193 188.51C134.597 188.51 134.113 188.993 134.113 189.589C134.113 190.186 134.597 190.669 135.193 190.669Z" fill="#1F00C1"/>
<path fill-rule="evenodd" clip-rule="evenodd" d="M135.193 188.814C134.764 188.814 134.418 189.16 134.418 189.59C134.418 190.019 134.764 190.365 135.193 190.365C135.622 190.365 135.969 190.019 135.969 189.59C135.969 189.16 135.622 188.814 135.193 188.814Z" fill="url(#paint51_radial)"/>
<path opacity="0.5" fill-rule="evenodd" clip-rule="evenodd" d="M135.193 188.51C134.598 188.51 134.113 188.994 134.113 189.589C134.736 188.966 135.332 190.005 135.193 190.669C135.789 190.669 136.273 190.185 136.273 189.589C135.636 190.212 135.082 189.465 135.193 188.51Z" fill="url(#paint52_linear)"/>
<path fill-rule="evenodd" clip-rule="evenodd" d="M143.763 176.119C142.143 176.119 140.814 177.669 140.814 179.594C140.814 181.504 142.129 183.069 143.763 183.069C145.383 183.069 146.712 181.518 146.712 179.594C146.712 177.683 145.383 176.119 143.763 176.119Z" fill="#5B1E00"/>
<path fill-rule="evenodd" clip-rule="evenodd" d="M143.763 176.382C142.254 176.382 141.036 177.821 141.036 179.594C141.036 181.366 142.254 182.806 143.763 182.806C145.272 182.806 146.491 181.366 146.491 179.594C146.491 177.821 145.272 176.382 143.763 176.382Z" fill="url(#paint53_linear)"/>
<path fill-rule="evenodd" clip-rule="evenodd" d="M144.22 177.143C143.071 177.143 142.143 178.237 142.143 179.594C142.143 180.95 143.071 182.044 144.22 182.044C145.369 182.044 146.297 180.95 146.297 179.594C146.297 178.237 145.369 177.143 144.22 177.143Z" fill="url(#paint54_linear)"/>
<path opacity="0.5" fill-rule="evenodd" clip-rule="evenodd" d="M144.22 177.143C144.345 178.458 143.223 180.272 142.143 179.594C142.143 180.95 143.071 182.044 144.22 182.044C143.902 180.424 145.328 178.804 146.297 179.594C146.297 178.237 145.369 177.143 144.22 177.143Z" fill="url(#paint55_linear)"/>
<path fill-rule="evenodd" clip-rule="evenodd" d="M144.22 177.323C143.154 177.323 142.296 178.334 142.296 179.594C142.296 180.853 143.154 181.864 144.22 181.864C145.286 181.864 146.144 180.853 146.144 179.594C146.144 178.348 145.286 177.323 144.22 177.323Z" fill="url(#paint56_linear)"/>
<path d="M126.706 183.069C128.335 183.069 129.655 181.513 129.655 179.594C129.655 177.674 128.335 176.119 126.706 176.119C125.078 176.119 123.757 177.674 123.757 179.594C123.757 181.513 125.078 183.069 126.706 183.069Z" fill="#5B1E00"/>
<path fill-rule="evenodd" clip-rule="evenodd" d="M126.706 176.382C128.215 176.382 129.434 177.821 129.434 179.594C129.434 181.366 128.215 182.806 126.706 182.806C125.197 182.806 123.979 181.366 123.979 179.594C123.979 177.821 125.197 176.382 126.706 176.382Z" fill="url(#paint57_linear)"/>
<path d="M126.25 182.044C127.396 182.044 128.326 180.947 128.326 179.594C128.326 178.24 127.396 177.143 126.25 177.143C125.103 177.143 124.173 178.24 124.173 179.594C124.173 180.947 125.103 182.044 126.25 182.044Z" fill="url(#paint58_linear)"/>
<path opacity="0.5" fill-rule="evenodd" clip-rule="evenodd" d="M126.25 177.143C126.125 178.458 127.246 180.272 128.326 179.594C128.326 180.95 127.399 182.044 126.25 182.044C126.568 180.424 125.142 178.804 124.173 179.594C124.173 178.237 125.1 177.143 126.25 177.143Z" fill="url(#paint59_linear)"/>
<path fill-rule="evenodd" clip-rule="evenodd" d="M126.249 177.323C127.316 177.323 128.174 178.334 128.174 179.594C128.174 180.853 127.316 181.864 126.249 181.864C125.183 181.864 124.325 180.853 124.325 179.594C124.325 178.348 125.183 177.323 126.249 177.323Z" fill="url(#paint60_linear)"/>
<path opacity="0.5" fill-rule="evenodd" clip-rule="evenodd" d="M132.812 109.304C131.109 109.304 127.745 109.595 127.44 111.796C123.951 136.716 122.982 152.735 122.968 178.098C122.968 178.597 122.802 179.012 122.456 179.372C120.795 181.089 119.133 182.792 117.472 184.508C117.472 188.565 117.472 192.621 117.472 196.678C119.12 198.796 120.767 200.928 122.415 203.047C122.775 203.503 123.273 203.753 123.868 203.753C125.46 203.753 127.039 203.753 128.631 203.753C126.277 199.973 125.031 193.549 126.333 187.471C127.219 183.304 127.676 183.138 127.676 178.043C127.676 167.618 123.453 171.107 124.533 153.427C125.765 133.172 128.285 112.101 132.812 109.304Z" fill="url(#paint61_linear)"/>
<path opacity="0.5" fill-rule="evenodd" clip-rule="evenodd" d="M137.685 109.304C139.388 109.304 142.752 109.595 143.057 111.796C146.546 136.716 147.515 152.735 147.529 178.098C147.529 178.597 147.695 179.012 148.041 179.372C149.703 181.089 151.364 182.792 153.025 184.508C153.025 188.565 153.025 192.621 153.025 196.678C151.378 198.796 149.73 200.928 148.083 203.047C147.723 203.503 147.224 203.753 146.629 203.753C145.037 203.753 143.459 203.753 141.866 203.753C144.22 199.973 145.466 193.549 144.165 187.471C143.279 183.304 142.822 183.138 142.822 178.043C142.822 167.618 147.044 171.107 145.964 153.427C144.732 133.172 142.213 112.101 137.685 109.304Z" fill="url(#paint62_linear)"/>
</g>
</g>
<defs>
<linearGradient id="paint0_linear" x1="129.649" y1="105.052" x2="141.13" y2="105.06" gradientUnits="userSpaceOnUse">
<stop stop-color="#212427"/>
<stop offset="0.5" stop-color="#B8B9B8"/>
<stop offset="1" stop-color="#23272A"/>
</linearGradient>
<linearGradient id="paint1_linear" x1="135.245" y1="119.613" x2="135.247" y2="91.0317" gradientUnits="userSpaceOnUse">
<stop stop-color="#B8B9B8"/>
<stop offset="1" stop-color="white"/>
</linearGradient>
<linearGradient id="paint2_linear" x1="151.336" y1="156.533" x2="117.463" y2="156.533" gradientUnits="userSpaceOnUse">
<stop stop-color="#F89952"/>
<stop offset="0.49" stop-color="#FAEF5F"/>
<stop offset="1" stop-color="#F89952"/>
</linearGradient>
<linearGradient id="paint3_linear" x1="124.095" y1="202.596" x2="124.096" y2="111.965" gradientUnits="userSpaceOnUse">
<stop stop-color="#FFD13A"/>
<stop offset="0.45" stop-color="#F89952"/>
<stop offset="1" stop-color="#FFF032"/>
</linearGradient>
<linearGradient id="paint4_linear" x1="146.397" y1="202.596" x2="146.395" y2="111.965" gradientUnits="userSpaceOnUse">
<stop stop-color="#FFD13A"/>
<stop offset="0.45" stop-color="#F89952"/>
<stop offset="1" stop-color="#FFF032"/>
</linearGradient>
<linearGradient id="paint5_linear" x1="126.507" y1="190.798" x2="117.464" y2="190.797" gradientUnits="userSpaceOnUse">
<stop stop-color="#212427"/>
<stop offset="1" stop-color="#B5B8B8"/>
</linearGradient>
<linearGradient id="paint6_linear" x1="120.842" y1="190.799" x2="117.463" y2="190.798" gradientUnits="userSpaceOnUse">
<stop/>
<stop offset="1" stop-color="#23272A"/>
</linearGradient>
<linearGradient id="paint7_linear" x1="122.138" y1="196.333" x2="122.14" y2="185.104" gradientUnits="userSpaceOnUse">
<stop stop-color="#B5B8B8"/>
<stop offset="1" stop-color="white"/>
</linearGradient>
<linearGradient id="paint8_linear" x1="143.984" y1="190.798" x2="153.028" y2="190.797" gradientUnits="userSpaceOnUse">
<stop stop-color="#212427"/>
<stop offset="1" stop-color="#B5B8B8"/>
</linearGradient>
<linearGradient id="paint9_linear" x1="149.65" y1="190.799" x2="153.029" y2="190.798" gradientUnits="userSpaceOnUse">
<stop/>
<stop offset="1" stop-color="#23272A"/>
</linearGradient>
<linearGradient id="paint10_linear" x1="148.353" y1="196.333" x2="148.352" y2="185.104" gradientUnits="userSpaceOnUse">
<stop stop-color="#B5B8B8"/>
<stop offset="1" stop-color="white"/>
</linearGradient>
<linearGradient id="paint11_linear" x1="135.245" y1="177.399" x2="135.246" y2="196.49" gradientUnits="userSpaceOnUse">
<stop stop-color="#FFF032"/>
<stop offset="1" stop-color="#FEFAD1"/>
</linearGradient>
<radialGradient id="paint12_radial" cx="0" cy="0" r="1" gradientUnits="userSpaceOnUse" gradientTransform="translate(135.209 191.08) rotate(-90.0341) scale(8.9402 7.60453)">
<stop stop-color="#FFF032"/>
<stop offset="1" stop-color="#210000"/>
</radialGradient>
<linearGradient id="paint13_linear" x1="132.638" y1="185.462" x2="132.26" y2="185.461" gradientUnits="userSpaceOnUse">
<stop/>
<stop offset="1" stop-color="#23272A"/>
</linearGradient>
<linearGradient id="paint14_linear" x1="137.854" y1="185.462" x2="138.231" y2="185.461" gradientUnits="userSpaceOnUse">
<stop/>
<stop offset="1" stop-color="#23272A"/>
</linearGradient>
<linearGradient id="paint15_linear" x1="132.705" y1="187.027" x2="137.864" y2="187.025" gradientUnits="userSpaceOnUse">
<stop stop-color="#23272A"/>
<stop offset="0.49" stop-color="#B8B9B8"/>
<stop offset="1" stop-color="#212427"/>
</linearGradient>
<linearGradient id="paint16_linear" x1="128.294" y1="171.073" x2="142.2" y2="171.071" gradientUnits="userSpaceOnUse">
<stop stop-color="#212427"/>
<stop offset="0.5" stop-color="#B8B9B8"/>
<stop offset="1" stop-color="#23272A"/>
</linearGradient>
<linearGradient id="paint17_linear" x1="142.201" y1="171.072" x2="135.247" y2="171.07" gradientUnits="userSpaceOnUse">
<stop stop-color="#23272A"/>
<stop offset="1" stop-color="white"/>
</linearGradient>
<linearGradient id="paint18_linear" x1="128.191" y1="171.072" x2="135.229" y2="171.071" gradientUnits="userSpaceOnUse">
<stop stop-color="#23272A"/>
<stop offset="1" stop-color="white"/>
</linearGradient>
<linearGradient id="paint19_linear" x1="140.388" y1="173.441" x2="129.386" y2="167.868" gradientUnits="userSpaceOnUse">
<stop stop-color="#B5B8B8"/>
<stop offset="1" stop-color="white"/>
</linearGradient>
<radialGradient id="paint20_radial" cx="0" cy="0" r="1" gradientUnits="userSpaceOnUse" gradientTransform="translate(135.347 146.833) rotate(-89.9965) scale(22.5407 5.7028)">
<stop stop-color="#2B3594"/>
<stop offset="1"/>
</radialGradient>
<linearGradient id="paint21_linear" x1="135.245" y1="141.412" x2="135.247" y2="124.296" gradientUnits="userSpaceOnUse">
<stop/>
<stop offset="1" stop-color="#2B3594"/>
</linearGradient>
<linearGradient id="paint22_linear" x1="135.245" y1="153.891" x2="135.247" y2="132.009" gradientUnits="userSpaceOnUse">
<stop/>
<stop offset="1" stop-color="#A5DBDB"/>
</linearGradient>
<linearGradient id="paint23_linear" x1="137.813" y1="158.055" x2="133.428" y2="133.782" gradientUnits="userSpaceOnUse">
<stop stop-color="#2B3594"/>
<stop offset="1" stop-color="white"/>
</linearGradient>
<linearGradient id="paint24_linear" x1="128.93" y1="164.719" x2="128.931" y2="122.717" gradientUnits="userSpaceOnUse">
<stop stop-color="#FAEF5F"/>
<stop offset="1" stop-color="white"/>
</linearGradient>
<linearGradient id="paint25_linear" x1="141.6" y1="164.732" x2="141.599" y2="122.731" gradientUnits="userSpaceOnUse">
<stop stop-color="#FAEF5F"/>
<stop offset="1" stop-color="white"/>
</linearGradient>
<linearGradient id="paint26_linear" x1="133.7" y1="181.969" x2="131.578" y2="182.517" gradientUnits="userSpaceOnUse">
<stop stop-color="#FFD13A"/>
<stop offset="0.53" stop-color="#FAEF5F"/>
<stop offset="1" stop-color="#FFD13A"/>
</linearGradient>
<linearGradient id="paint27_linear" x1="133.219" y1="182.259" x2="131.259" y2="182.308" gradientUnits="userSpaceOnUse">
<stop stop-color="#3B3092"/>
<stop offset="0.51" stop-color="#A5DBDB"/>
<stop offset="1" stop-color="#3B3092"/>
</linearGradient>
<linearGradient id="paint28_linear" x1="131.795" y1="175.468" x2="131.796" y2="177.118" gradientUnits="userSpaceOnUse">
<stop stop-color="#23272A"/>
<stop offset="1" stop-color="#B8B9B8"/>
</linearGradient>
<linearGradient id="paint29_linear" x1="137.386" y1="181.969" x2="139.509" y2="182.517" gradientUnits="userSpaceOnUse">
<stop stop-color="#FFD13A"/>
<stop offset="0.53" stop-color="#FAEF5F"/>
<stop offset="1" stop-color="#FFD13A"/>
</linearGradient>
<linearGradient id="paint30_linear" x1="137.867" y1="182.259" x2="139.827" y2="182.308" gradientUnits="userSpaceOnUse">
<stop stop-color="#3B3092"/>
<stop offset="0.51" stop-color="#A5DBDB"/>
<stop offset="1" stop-color="#3B3092"/>
</linearGradient>
<linearGradient id="paint31_linear" x1="139.291" y1="175.468" x2="139.29" y2="177.118" gradientUnits="userSpaceOnUse">
<stop stop-color="#23272A"/>
<stop offset="1" stop-color="#B8B9B8"/>
</linearGradient>
<linearGradient id="paint32_linear" x1="131.034" y1="187.733" x2="130.185" y2="188.99" gradientUnits="userSpaceOnUse">
<stop stop-color="#FFD13A"/>
<stop offset="0.53" stop-color="#FAEF5F"/>
<stop offset="1" stop-color="#FFD13A"/>
</linearGradient>
<linearGradient id="paint33_linear" x1="132.413" y1="187.996" x2="128.816" y2="188.582" gradientUnits="userSpaceOnUse">
<stop stop-color="#3B3092"/>
<stop offset="0.51" stop-color="#A5DBDB"/>
<stop offset="1" stop-color="#3B3092"/>
</linearGradient>
<linearGradient id="paint34_linear" x1="130.211" y1="188.654" x2="130.362" y2="193.557" gradientUnits="userSpaceOnUse">
<stop stop-color="#FFD13A"/>
<stop offset="0.53" stop-color="#FAEF5F"/>
<stop offset="1" stop-color="#FFD13A"/>
</linearGradient>
<linearGradient id="paint35_linear" x1="131.669" y1="190.272" x2="128.786" y2="193.236" gradientUnits="userSpaceOnUse">
<stop stop-color="#3B3092"/>
<stop offset="0.51" stop-color="#A5DBDB"/>
<stop offset="1" stop-color="#3B3092"/>
</linearGradient>
<linearGradient id="paint36_linear" x1="134.833" y1="194.506" x2="131.177" y2="193.976" gradientUnits="userSpaceOnUse">
<stop stop-color="#FFD13A"/>
<stop offset="0.53" stop-color="#FAEF5F"/>
<stop offset="1" stop-color="#FFD13A"/>
</linearGradient>
<linearGradient id="paint37_linear" x1="133.433" y1="195.641" x2="132.168" y2="193.887" gradientUnits="userSpaceOnUse">
<stop stop-color="#3B3092"/>
<stop offset="0.51" stop-color="#A5DBDB"/>
<stop offset="1" stop-color="#3B3092"/>
</linearGradient>
<linearGradient id="paint38_linear" x1="139.458" y1="187.733" x2="140.307" y2="188.99" gradientUnits="userSpaceOnUse">
<stop stop-color="#FFD13A"/>
<stop offset="0.53" stop-color="#FAEF5F"/>
<stop offset="1" stop-color="#FFD13A"/>
</linearGradient>
<linearGradient id="paint39_linear" x1="138.079" y1="187.996" x2="141.676" y2="188.582" gradientUnits="userSpaceOnUse">
<stop stop-color="#3B3092"/>
<stop offset="0.51" stop-color="#A5DBDB"/>
<stop offset="1" stop-color="#3B3092"/>
</linearGradient>
<linearGradient id="paint40_linear" x1="140.281" y1="188.654" x2="140.13" y2="193.557" gradientUnits="userSpaceOnUse">
<stop stop-color="#FFD13A"/>
<stop offset="0.53" stop-color="#FAEF5F"/>
<stop offset="1" stop-color="#FFD13A"/>
</linearGradient>
<linearGradient id="paint41_linear" x1="138.823" y1="190.272" x2="141.705" y2="193.236" gradientUnits="userSpaceOnUse">
<stop stop-color="#3B3092"/>
<stop offset="0.51" stop-color="#A5DBDB"/>
<stop offset="1" stop-color="#3B3092"/>
</linearGradient>
<linearGradient id="paint42_linear" x1="135.659" y1="194.506" x2="139.315" y2="193.976" gradientUnits="userSpaceOnUse">
<stop stop-color="#FFD13A"/>
<stop offset="0.53" stop-color="#FAEF5F"/>
<stop offset="1" stop-color="#FFD13A"/>
</linearGradient>
<linearGradient id="paint43_linear" x1="137.059" y1="195.641" x2="138.323" y2="193.887" gradientUnits="userSpaceOnUse">
<stop stop-color="#3B3092"/>
<stop offset="0.51" stop-color="#A5DBDB"/>
<stop offset="1" stop-color="#3B3092"/>
</linearGradient>
<linearGradient id="paint44_linear" x1="135.197" y1="190.174" x2="135.198" y2="195.409" gradientUnits="userSpaceOnUse">
<stop stop-color="#5C1800"/>
<stop offset="1" stop-color="white"/>
</linearGradient>
<linearGradient id="paint45_linear" x1="135.198" y1="194.07" x2="135.196" y2="185.047" gradientUnits="userSpaceOnUse">
<stop stop-color="#F89952"/>
<stop offset="1" stop-color="#FAEF5F"/>
</linearGradient>
<linearGradient id="paint46_linear" x1="135.198" y1="193.047" x2="135.196" y2="186.117" gradientUnits="userSpaceOnUse">
<stop stop-color="#3B3092"/>
<stop offset="1" stop-color="#2B3594"/>
</linearGradient>
<linearGradient id="paint47_linear" x1="133.676" y1="191.235" x2="136.861" y2="187.784" gradientUnits="userSpaceOnUse">
<stop stop-color="#A5DBDB"/>
<stop offset="1" stop-color="white"/>
</linearGradient>
<linearGradient id="paint48_linear" x1="135.198" y1="186.659" x2="135.195" y2="192.797" gradientUnits="userSpaceOnUse">
<stop stop-color="#FFF032"/>
<stop offset="1" stop-color="#FAEF5F"/>
</linearGradient>
<linearGradient id="paint49_linear" x1="135.197" y1="191.743" x2="135.196" y2="187.425" gradientUnits="userSpaceOnUse">
<stop stop-color="#3B3092"/>
<stop offset="1" stop-color="#2B3594"/>
</linearGradient>
<linearGradient id="paint50_linear" x1="135.198" y1="187.916" x2="135.196" y2="191.418" gradientUnits="userSpaceOnUse">
<stop stop-color="#FFF032"/>
<stop offset="1" stop-color="#FAEF5F"/>
</linearGradient>
<radialGradient id="paint51_radial" cx="0" cy="0" r="1" gradientUnits="userSpaceOnUse" gradientTransform="translate(135.195 189.622) rotate(0.333698) scale(1.07716 0.811846)">
<stop stop-color="#A5DBDB"/>
<stop offset="1" stop-color="#3B3092"/>
</radialGradient>
<linearGradient id="paint52_linear" x1="135.534" y1="190.212" x2="134.821" y2="188.889" gradientUnits="userSpaceOnUse">
<stop stop-color="#2B3594"/>
<stop offset="1" stop-color="white"/>
</linearGradient>
<linearGradient id="paint53_linear" x1="143.764" y1="182.765" x2="143.762" y2="176.384" gradientUnits="userSpaceOnUse">
<stop stop-color="#F89952"/>
<stop offset="1" stop-color="#FAEF5F"/>
</linearGradient>
<linearGradient id="paint54_linear" x1="144.221" y1="182.042" x2="144.219" y2="177.141" gradientUnits="userSpaceOnUse">
<stop stop-color="#3B3092"/>
<stop offset="1" stop-color="#2B3594"/>
</linearGradient>
<linearGradient id="paint55_linear" x1="143.145" y1="180.584" x2="145.396" y2="178.514" gradientUnits="userSpaceOnUse">
<stop stop-color="#A5DBDB"/>
<stop offset="1" stop-color="white"/>
</linearGradient>
<linearGradient id="paint56_linear" x1="144.221" y1="177.524" x2="144.219" y2="181.864" gradientUnits="userSpaceOnUse">
<stop stop-color="#FFF032"/>
<stop offset="1" stop-color="#FAEF5F"/>
</linearGradient>
<linearGradient id="paint57_linear" x1="126.705" y1="182.765" x2="126.707" y2="176.384" gradientUnits="userSpaceOnUse">
<stop stop-color="#F89952"/>
<stop offset="1" stop-color="#FAEF5F"/>
</linearGradient>
<linearGradient id="paint58_linear" x1="126.248" y1="182.042" x2="126.249" y2="177.141" gradientUnits="userSpaceOnUse">
<stop stop-color="#3B3092"/>
<stop offset="1" stop-color="#2B3594"/>
</linearGradient>
<linearGradient id="paint59_linear" x1="127.324" y1="180.583" x2="125.073" y2="178.514" gradientUnits="userSpaceOnUse">
<stop stop-color="#A5DBDB"/>
<stop offset="1" stop-color="white"/>
</linearGradient>
<linearGradient id="paint60_linear" x1="126.247" y1="177.524" x2="126.25" y2="181.865" gradientUnits="userSpaceOnUse">
<stop stop-color="#FFF032"/>
<stop offset="1" stop-color="#FAEF5F"/>
</linearGradient>
<linearGradient id="paint61_linear" x1="122.341" y1="156.534" x2="132.465" y2="156.533" gradientUnits="userSpaceOnUse">
<stop stop-color="#FFD13A"/>
<stop offset="1" stop-color="white"/>
</linearGradient>
<linearGradient id="paint62_linear" x1="148.151" y1="156.534" x2="138.027" y2="156.533" gradientUnits="userSpaceOnUse">
<stop stop-color="#FFD13A"/>
<stop offset="1" stop-color="white"/>
</linearGradient>
<clipPath id="clip0">
<rect width="270" height="370" fill="white"/>
</clipPath>
<clipPath id="clip1">
<rect x="65.3188" y="89.3953" width="139.859" height="163.451" fill="white"/>
</clipPath>
</defs>
</svg>
