<svg width="270" height="370" viewBox="0 0 270 370" fill="none" xmlns="http://www.w3.org/2000/svg">
<g clip-path="url(#clip0)">
<g clip-path="url(#clip1)">
<path fill-rule="evenodd" clip-rule="evenodd" d="M135.235 79.7456C134.681 79.7456 132.576 85.0204 132.576 87.8863V93.4242C131.095 94.4349 129.627 95.8332 129.627 96.7746C129.627 100.651 129.627 116.905 129.627 120.795C133.366 120.795 137.117 120.795 140.856 120.795C140.856 116.919 140.856 100.665 140.856 96.7746C140.856 95.8332 139.374 94.4349 137.907 93.4242V87.8863C137.893 85.0066 135.788 79.7456 135.235 79.7456Z" fill="url(#paint0_linear)"/>
<path fill-rule="evenodd" clip-rule="evenodd" d="M135.235 79.7456C134.681 79.7456 132.576 85.0204 132.576 87.8863V93.4242C131.095 94.4348 129.627 95.8332 129.627 96.7746C129.627 100.651 129.627 116.905 129.627 120.795C133.366 120.795 137.117 120.795 140.856 120.795C140.856 116.919 140.856 100.665 140.856 96.7746C140.856 95.8332 139.374 94.4348 137.907 93.4242V87.8863C137.893 85.0066 135.788 79.7456 135.235 79.7456ZM132.216 82.9576C133.019 80.4932 134.39 78.4165 135.235 78.4165C136.079 78.4165 137.45 80.4932 138.253 82.9576C138.793 84.6051 139.222 86.488 139.222 87.8863V92.7458C139.9 93.258 140.551 93.8257 141.049 94.3933C141.728 95.1686 142.171 95.9854 142.171 96.7608V120.781C142.171 121.515 141.575 122.11 140.842 122.11H129.614C128.88 122.11 128.285 121.515 128.285 120.781V96.7746C128.285 95.9993 128.728 95.1686 129.406 94.4072C129.904 93.8395 130.555 93.2719 131.233 92.7596V87.8863C131.247 86.4741 131.676 84.6051 132.216 82.9576Z" fill="black"/>
<path opacity="0.5" fill-rule="evenodd" clip-rule="evenodd" d="M135.235 79.7456C135.013 79.7456 133.795 91.1952 133.795 93.4242C133.324 94.0195 132.203 95.6255 132.203 96.7746C132.203 105.608 133.712 120.795 135.235 120.795C136.744 120.781 138.267 105.594 138.267 96.7746C138.267 95.8332 137.464 94.4349 136.674 93.4242C136.661 91.1952 135.442 79.7456 135.235 79.7456Z" fill="url(#paint1_linear)"/>
<path fill-rule="evenodd" clip-rule="evenodd" d="M135.235 119.397C132.507 119.397 132.784 117.555 132.798 116.365C132.798 116.074 132.798 102.257 132.798 101.994C131.095 101.994 127.731 102.285 127.426 104.486C123.937 129.407 122.968 152.763 122.954 178.112C122.954 178.611 122.788 179.026 122.442 179.386C121.127 180.743 119.812 182.1 118.496 183.456C117.804 184.162 117.458 185.021 117.458 186.004C117.458 189.147 117.458 192.289 117.458 195.432C117.458 196.277 117.707 197.01 118.233 197.675C119.632 199.475 121.016 201.261 122.414 203.06C122.774 203.517 123.273 203.767 123.868 203.767C131.455 203.767 139.056 203.767 146.643 203.767C147.224 203.767 147.736 203.517 148.096 203.06C149.495 201.261 150.879 199.475 152.277 197.675C152.804 197.01 153.053 196.277 153.053 195.432C153.053 192.289 153.053 189.147 153.053 186.004C153.053 185.021 152.707 184.162 152.014 183.456C150.699 182.1 149.384 180.743 148.069 179.386C147.723 179.026 147.556 178.611 147.556 178.112C147.543 152.763 146.573 129.407 143.085 104.486C142.78 102.285 139.416 101.994 137.713 101.994C137.713 102.257 137.713 116.074 137.713 116.365C137.685 117.555 137.948 119.397 135.235 119.397Z" fill="url(#paint2_linear)"/>
<path fill-rule="evenodd" clip-rule="evenodd" d="M135.235 119.397C132.507 119.397 132.784 117.555 132.798 116.365C132.798 116.074 132.798 102.257 132.798 101.994C131.095 101.994 127.731 102.285 127.426 104.486C123.937 129.407 122.968 152.763 122.954 178.112C122.954 178.611 122.788 179.026 122.442 179.386C121.127 180.743 119.812 182.1 118.496 183.456C117.804 184.162 117.458 185.021 117.458 186.004C117.458 189.147 117.458 192.289 117.458 195.432C117.458 196.277 117.707 197.01 118.233 197.675C119.632 199.475 121.016 201.261 122.414 203.06C122.774 203.517 123.273 203.767 123.868 203.767C131.455 203.767 139.056 203.767 146.643 203.767C147.224 203.767 147.736 203.517 148.096 203.06C149.495 201.261 150.879 199.475 152.277 197.675C152.803 197.01 153.053 196.277 153.053 195.432C153.053 192.289 153.053 189.147 153.053 186.004C153.053 185.021 152.707 184.162 152.014 183.456C150.699 182.1 149.384 180.743 148.069 179.386C147.722 179.026 147.556 178.611 147.556 178.112C147.542 152.763 146.573 129.407 143.084 104.486C142.78 102.285 139.416 101.994 137.713 101.994C137.713 102.257 137.713 116.074 137.713 116.365C137.685 117.555 137.948 119.397 135.235 119.397ZM134.099 116.683C134.085 117.279 134.072 118.068 135.221 118.068C136.356 118.068 136.356 117.306 136.342 116.711V116.683V116.393V116.379V102.119C136.342 102.077 136.342 102.036 136.342 102.008C136.342 101.274 136.937 100.679 137.671 100.679C138.82 100.679 140.634 100.803 142.06 101.468C143.251 102.022 144.164 102.908 144.358 104.32C146.103 116.822 147.224 128.922 147.902 141.078C148.581 153.192 148.83 165.403 148.83 178.126C148.83 178.209 148.844 178.265 148.858 178.32C148.885 178.375 148.913 178.431 148.968 178.486L152.914 182.556C153.385 183.041 153.731 183.567 153.966 184.149C154.202 184.73 154.326 185.367 154.326 186.031V195.46C154.326 196.027 154.243 196.567 154.063 197.08C153.883 197.592 153.62 198.076 153.274 198.519L149.107 203.891C148.802 204.279 148.429 204.583 147.999 204.791C147.57 204.999 147.099 205.109 146.615 205.109H123.84C123.356 205.109 122.885 204.999 122.456 204.791C122.027 204.583 121.653 204.279 121.348 203.891L117.167 198.506C116.821 198.049 116.558 197.578 116.378 197.066C116.198 196.553 116.115 196.013 116.115 195.446V186.018C116.115 185.353 116.24 184.73 116.475 184.135C116.71 183.553 117.056 183.027 117.527 182.543L121.473 178.472C121.514 178.417 121.556 178.375 121.584 178.306C121.597 178.251 121.611 178.195 121.611 178.112C121.625 165.389 121.861 153.192 122.539 141.064C123.217 128.908 124.339 116.808 126.083 104.306C126.277 102.894 127.191 102.008 128.381 101.454C129.807 100.79 131.621 100.665 132.77 100.665C133.504 100.665 134.085 101.26 134.085 101.98V116.351V116.365V116.642L134.099 116.683Z" fill="black"/>
<path fill-rule="evenodd" clip-rule="evenodd" d="M129.974 102.299C128.714 102.617 127.578 103.254 127.412 104.486C123.923 129.407 122.954 152.763 122.94 178.112C122.94 178.611 122.774 179.026 122.428 179.386C121.113 180.743 119.798 182.1 118.482 183.456C117.79 184.162 117.444 185.021 117.444 186.004C117.444 189.147 117.444 192.289 117.444 195.432C117.444 196.277 117.693 197.01 118.219 197.675C119.618 199.475 121.002 201.261 122.4 203.061C122.76 203.517 123.259 203.767 123.854 203.767H131.067C127.454 203.767 126.166 195.432 126.166 190.697C126.166 182.155 122.83 178.874 125.557 174.416C125.779 174.042 127.052 174.305 127.052 173.779C127.066 147.169 125.986 126.278 129.974 102.299Z" fill="url(#paint3_linear)"/>
<path fill-rule="evenodd" clip-rule="evenodd" d="M140.482 102.299C141.742 102.617 142.877 103.254 143.043 104.486C146.532 129.407 147.501 152.763 147.515 178.112C147.515 178.611 147.681 179.026 148.027 179.386C149.342 180.743 150.658 182.1 151.973 183.456C152.665 184.162 153.011 185.021 153.011 186.004C153.011 189.147 153.011 192.289 153.011 195.432C153.011 196.277 152.762 197.01 152.236 197.675C150.838 199.475 149.453 201.261 148.055 203.061C147.695 203.517 147.196 203.767 146.601 203.767H139.36C142.974 203.767 144.261 195.432 144.261 190.697C144.261 182.155 147.598 178.874 144.871 174.416C144.649 174.042 143.375 174.305 143.375 173.779C143.389 147.169 144.469 126.278 140.482 102.299Z" fill="url(#paint4_linear)"/>
<path opacity="0.5" fill-rule="evenodd" clip-rule="evenodd" d="M144.469 202.354C145.757 202.216 146.601 202.05 146.767 201.828C148.013 200.222 149.273 198.602 150.519 196.996C151.668 195.515 151.751 185.727 150.284 184.218C149.965 183.886 147.667 180.369 146.698 178.569C146.366 177.932 145.729 177.572 145.009 177.6C144.815 177.614 144.635 177.614 144.469 177.628V202.354Z" fill="url(#paint5_linear)"/>
<path opacity="0.5" fill-rule="evenodd" clip-rule="evenodd" d="M125.986 177.628C125.82 177.614 125.64 177.6 125.446 177.6C124.726 177.572 124.103 177.932 123.757 178.569C122.788 180.369 120.49 183.886 120.172 184.218C118.704 185.727 118.787 195.515 119.936 196.996C121.182 198.602 122.442 200.222 123.688 201.828C123.854 202.036 124.713 202.216 125.986 202.354V177.628Z" fill="url(#paint6_linear)"/>
<path fill-rule="evenodd" clip-rule="evenodd" d="M127.26 193.757V187.9C127.26 186.71 128.229 185.741 129.42 185.741C130.721 185.741 132.036 185.561 132.687 184.259C133.089 183.442 133.407 182.473 134.265 182.044C134.874 181.74 135.608 181.74 136.204 182.044C137.062 182.473 137.38 183.442 137.782 184.259C138.419 185.561 139.734 185.741 141.049 185.741C142.24 185.741 143.209 186.71 143.209 187.9V193.757C143.209 194.947 142.24 195.917 141.049 195.917H129.434C128.229 195.917 127.26 194.947 127.26 193.757Z" fill="url(#paint7_linear)"/>
<path fill-rule="evenodd" clip-rule="evenodd" d="M127.592 187.9C127.592 189.852 127.592 191.805 127.592 193.757C127.592 194.767 128.409 195.584 129.42 195.584C133.296 195.584 137.159 195.584 141.036 195.584C142.046 195.584 142.863 194.767 142.863 193.757C142.863 191.805 142.863 189.852 142.863 187.9C142.863 186.89 142.046 186.073 141.036 186.073C139.61 186.073 138.183 185.838 137.477 184.412C137.27 183.996 137.062 183.581 136.868 183.179C136.204 181.823 134.252 181.823 133.587 183.179C133.379 183.595 133.172 184.01 132.978 184.412C132.272 185.851 130.846 186.073 129.42 186.073C128.409 186.073 127.592 186.89 127.592 187.9Z" fill="url(#paint8_linear)"/>
<path fill-rule="evenodd" clip-rule="evenodd" d="M127.592 187.9C127.592 189.853 127.592 191.805 127.592 193.757C127.592 194.767 128.409 195.584 129.42 195.584C130.846 195.584 132.286 195.584 133.712 195.584C128.672 194.823 129.157 193.12 129.157 188.648C129.157 187.07 132.964 187.402 132.964 184.412C132.258 185.851 130.832 186.073 129.406 186.073C128.409 186.073 127.592 186.89 127.592 187.9Z" fill="#353535"/>
<path fill-rule="evenodd" clip-rule="evenodd" d="M142.877 187.9C142.877 189.853 142.877 191.805 142.877 193.757C142.877 194.767 142.06 195.584 141.049 195.584C139.609 195.584 138.183 195.584 136.757 195.584C141.797 194.823 141.312 193.12 141.312 188.648C141.312 187.07 137.505 187.402 137.505 184.412C138.211 185.851 139.637 186.073 141.063 186.073C142.046 186.073 142.877 186.89 142.877 187.9Z" fill="#353535"/>
<path opacity="0.5" fill-rule="evenodd" clip-rule="evenodd" d="M141.035 195.584C142.046 195.584 142.863 194.767 142.863 193.757C135.137 192.234 134.348 188.731 132.964 184.412C132.258 185.851 130.832 186.073 129.406 186.073C131.012 188.136 135.47 194.449 141.035 195.584Z" fill="url(#paint9_linear)"/>
<path fill-rule="evenodd" clip-rule="evenodd" d="M130.112 166.815H140.357C141.575 166.815 142.558 167.798 142.558 169.016V173.17C142.558 174.374 141.575 175.371 140.357 175.371H130.112C128.908 175.371 127.911 174.388 127.911 173.17V169.016C127.911 167.798 128.894 166.815 130.112 166.815Z" fill="#050000"/>
<path fill-rule="evenodd" clip-rule="evenodd" d="M135.235 167.175H130.112C129.101 167.175 128.285 167.992 128.285 169.003V173.156C128.285 174.167 129.101 174.983 130.112 174.983H135.235H140.357C141.368 174.983 142.185 174.167 142.185 173.156V169.003C142.185 167.992 141.368 167.175 140.357 167.175H135.235Z" fill="url(#paint10_linear)"/>
<path opacity="0.5" fill-rule="evenodd" clip-rule="evenodd" d="M139.416 174.997H140.343C141.354 174.997 142.171 174.181 142.171 173.17V169.016C142.171 168.006 141.354 167.189 140.343 167.189H139.416C139.734 167.549 139.942 168.144 139.942 168.823V173.364C139.956 174.028 139.734 174.624 139.416 174.997Z" fill="url(#paint11_linear)"/>
<path opacity="0.5" fill-rule="evenodd" clip-rule="evenodd" d="M131.04 167.175H130.112C129.101 167.175 128.285 167.992 128.285 169.003V173.156C128.285 174.167 129.101 174.983 130.112 174.983H131.04C130.721 174.624 130.514 174.028 130.514 173.35V168.809C130.514 168.144 130.721 167.535 131.04 167.175Z" fill="url(#paint12_linear)"/>
<path opacity="0.5" fill-rule="evenodd" clip-rule="evenodd" d="M130.112 167.175C129.101 167.175 128.285 167.992 128.285 169.003C128.285 171.37 140.357 169.086 140.357 174.983C141.368 174.983 142.185 174.167 142.185 173.156C141.257 169.709 130.112 169.626 130.112 167.175Z" fill="url(#paint13_linear)"/>
<path fill-rule="evenodd" clip-rule="evenodd" d="M126.18 180.646V181.74C120.808 181.74 120.822 191.749 126.18 191.749V192.843C119.355 192.843 119.355 180.646 126.18 180.646Z" fill="#5B1E00"/>
<path fill-rule="evenodd" clip-rule="evenodd" d="M126.18 180.826V181.56C120.573 181.56 120.573 191.929 126.18 191.929V192.663C119.59 192.663 119.59 180.826 126.18 180.826Z" fill="url(#paint14_linear)"/>
<path fill-rule="evenodd" clip-rule="evenodd" d="M126.18 181.006V181.366C120.324 181.366 120.324 192.109 126.18 192.109V192.469C119.839 192.483 119.839 181.006 126.18 181.006Z" fill="url(#paint15_linear)"/>
<path fill-rule="evenodd" clip-rule="evenodd" d="M126.18 184.301V185.395C120.808 185.395 120.822 195.404 126.18 195.404V196.498C119.355 196.512 119.355 184.301 126.18 184.301Z" fill="#5B1E00"/>
<path fill-rule="evenodd" clip-rule="evenodd" d="M126.18 184.481V185.215C120.573 185.215 120.573 195.584 126.18 195.584V196.318C119.59 196.332 119.59 184.481 126.18 184.481Z" fill="url(#paint16_linear)"/>
<path fill-rule="evenodd" clip-rule="evenodd" d="M126.18 184.675V185.035C120.324 185.035 120.324 195.778 126.18 195.778V196.138C119.839 196.138 119.839 184.675 126.18 184.675Z" fill="url(#paint17_linear)"/>
<path fill-rule="evenodd" clip-rule="evenodd" d="M126.18 187.97V189.063C120.808 189.063 120.822 199.073 126.18 199.073V200.167C119.355 200.167 119.355 187.97 126.18 187.97Z" fill="#5B1E00"/>
<path fill-rule="evenodd" clip-rule="evenodd" d="M126.18 188.15V188.884C120.573 188.884 120.573 199.253 126.18 199.253V199.987C119.59 199.987 119.59 188.15 126.18 188.15Z" fill="url(#paint18_linear)"/>
<path fill-rule="evenodd" clip-rule="evenodd" d="M126.18 188.33V188.69C120.324 188.69 120.324 199.433 126.18 199.433V199.793C119.839 199.807 119.839 188.33 126.18 188.33Z" fill="url(#paint19_linear)"/>
<path fill-rule="evenodd" clip-rule="evenodd" d="M144.289 180.646V181.74C149.661 181.74 149.647 191.749 144.289 191.749V192.843C151.114 192.843 151.114 180.646 144.289 180.646Z" fill="#5B1E00"/>
<path fill-rule="evenodd" clip-rule="evenodd" d="M144.289 180.826V181.56C149.896 181.56 149.896 191.929 144.289 191.929V192.663C150.865 192.663 150.865 180.826 144.289 180.826Z" fill="url(#paint20_linear)"/>
<path fill-rule="evenodd" clip-rule="evenodd" d="M144.289 181.006V181.366C150.145 181.366 150.145 192.109 144.289 192.109V192.469C150.63 192.483 150.63 181.006 144.289 181.006Z" fill="url(#paint21_linear)"/>
<path fill-rule="evenodd" clip-rule="evenodd" d="M144.289 184.301V185.395C149.661 185.395 149.647 195.404 144.289 195.404V196.498C151.114 196.512 151.114 184.301 144.289 184.301Z" fill="#5B1E00"/>
<path fill-rule="evenodd" clip-rule="evenodd" d="M144.289 184.481V185.215C149.896 185.215 149.896 195.584 144.289 195.584V196.318C150.865 196.332 150.865 184.481 144.289 184.481Z" fill="url(#paint22_linear)"/>
<path fill-rule="evenodd" clip-rule="evenodd" d="M144.289 184.675V185.035C150.145 185.035 150.145 195.778 144.289 195.778V196.138C150.63 196.138 150.63 184.675 144.289 184.675Z" fill="url(#paint23_linear)"/>
<path fill-rule="evenodd" clip-rule="evenodd" d="M144.289 187.97V189.063C149.661 189.063 149.647 199.073 144.289 199.073V200.167C151.114 200.167 151.114 187.97 144.289 187.97Z" fill="#5B1E00"/>
<path fill-rule="evenodd" clip-rule="evenodd" d="M144.289 188.15V188.884C149.896 188.884 149.896 199.253 144.289 199.253V199.987C150.865 199.987 150.865 188.15 144.289 188.15Z" fill="url(#paint24_linear)"/>
<path fill-rule="evenodd" clip-rule="evenodd" d="M144.289 188.33V188.69C150.145 188.69 150.145 199.433 144.289 199.433V199.793C150.63 199.807 150.63 188.33 144.289 188.33Z" fill="url(#paint25_linear)"/>
<path fill-rule="evenodd" clip-rule="evenodd" d="M125.308 122.332L125.349 121.917C126.429 122.498 129.835 124.976 129.835 126.278V136.523C129.835 136.758 130.14 137.16 130.361 137.16C130.458 137.16 130.541 137.243 130.541 137.34C130.541 137.437 130.458 137.52 130.361 137.52C129.932 137.52 129.475 136.938 129.475 136.523V126.278C129.475 125.198 126.415 122.969 125.308 122.332ZM131.856 120.615V105.344C131.856 104.583 131.095 104.043 130.375 104.32L129.364 104.694C128.921 104.86 128.644 105.261 128.644 105.718V120.56C128.644 120.781 128.714 120.989 128.838 121.169L129.849 122.664C130.458 123.564 131.856 123.121 131.856 122.055V120.975C132.272 121.017 132.521 121.197 132.798 121.39C133.269 121.737 133.822 122.138 135.234 122.138V121.778C133.933 121.778 133.435 121.418 133.006 121.1C132.673 120.864 132.382 120.643 131.856 120.615ZM126.18 203.767H125.806V177.628C125.806 176.866 126.305 176.672 127.038 176.672C127.8 176.672 128.575 176.839 129.35 176.839C130.043 176.839 130.541 175.966 130.541 175.357C130.541 175.26 130.624 175.177 130.721 175.177C130.818 175.177 130.901 175.26 130.901 175.357C130.901 176.174 130.237 177.212 129.35 177.212C128.575 177.212 127.8 177.046 127.038 177.046C126.526 177.046 126.18 177.171 126.18 177.642V203.767ZM123.813 142.296L123.84 141.908C124.685 142.531 125.779 142.822 126.831 142.822C126.928 142.822 127.011 142.905 127.011 143.002V161.097C127.011 163.243 131.607 164.628 131.607 166.815C131.607 167.05 131.233 167.05 131.233 166.815C131.233 164.877 126.637 163.478 126.637 161.097V143.182C125.571 143.154 124.671 142.933 123.813 142.296ZM130.5 104.666L129.489 105.04C129.198 105.151 129.004 105.414 129.004 105.732V120.574C129.004 120.726 129.046 120.864 129.129 120.989L130.14 122.484C130.541 123.08 131.483 122.789 131.483 122.069V105.344C131.483 104.832 130.984 104.486 130.5 104.666Z" fill="#5B1E00"/>
<path fill-rule="evenodd" clip-rule="evenodd" d="M145.161 122.332L145.12 121.917C144.04 122.498 140.634 124.976 140.634 126.278V136.523C140.634 136.758 140.329 137.16 140.108 137.16C140.011 137.16 139.928 137.243 139.928 137.34C139.928 137.437 140.011 137.52 140.108 137.52C140.537 137.52 140.994 136.938 140.994 136.523V126.278C140.994 125.198 144.04 122.969 145.161 122.332ZM138.613 120.615V105.344C138.613 104.583 139.374 104.043 140.094 104.32L141.105 104.694C141.534 104.86 141.825 105.261 141.825 105.718V120.56C141.825 120.781 141.755 120.989 141.631 121.169L140.62 122.664C140.011 123.564 138.613 123.121 138.613 122.055V120.975C138.197 121.017 137.948 121.197 137.671 121.39C137.2 121.737 136.647 122.138 135.234 122.138V121.778C136.536 121.778 137.034 121.418 137.464 121.1C137.782 120.864 138.087 120.643 138.613 120.615ZM144.289 203.767H144.663V177.628C144.663 176.866 144.164 176.672 143.431 176.672C142.669 176.672 141.894 176.839 141.119 176.839C140.426 176.839 139.928 175.966 139.928 175.357C139.928 175.26 139.845 175.177 139.748 175.177C139.651 175.177 139.568 175.26 139.568 175.357C139.568 176.174 140.232 177.212 141.119 177.212C141.894 177.212 142.669 177.046 143.431 177.046C143.943 177.046 144.289 177.171 144.289 177.642V203.767ZM146.643 142.296L146.615 141.908C145.77 142.531 144.677 142.822 143.624 142.822C143.527 142.822 143.444 142.905 143.444 143.002V161.097C143.444 163.243 138.848 164.628 138.848 166.815C138.848 167.05 139.208 167.05 139.208 166.815C139.208 164.877 143.804 163.478 143.804 161.097V143.182C144.884 143.154 145.784 142.933 146.643 142.296ZM139.956 104.666L140.966 105.04C141.257 105.151 141.451 105.414 141.451 105.732V120.574C141.451 120.726 141.409 120.864 141.326 120.989L140.316 122.484C139.914 123.08 138.973 122.789 138.973 122.069V105.344C138.973 104.832 139.485 104.486 139.956 104.666Z" fill="#5B1E00"/>
<path fill-rule="evenodd" clip-rule="evenodd" d="M130.984 132.937C131.912 127.524 133.31 123.966 135.234 123.966C137.159 123.966 138.557 127.51 139.485 132.937C140.537 139.098 141.049 147.765 141.049 156.307C141.049 157.414 140.163 158.979 138.945 160.197C137.851 161.291 136.467 162.135 135.234 162.135C133.988 162.135 132.618 161.305 131.524 160.197C130.306 158.979 129.42 157.414 129.42 156.307C129.406 147.765 129.918 139.112 130.984 132.937Z" fill="#050000"/>
<path fill-rule="evenodd" clip-rule="evenodd" d="M135.235 124.312C131.22 124.312 130.195 142.435 130.029 145.342C130.029 146.477 133.49 146.491 135.235 146.491C136.965 146.491 140.44 146.491 140.44 145.342C140.274 142.435 139.236 124.312 135.235 124.312Z" fill="url(#paint26_linear)"/>
<path fill-rule="evenodd" clip-rule="evenodd" d="M130.167 143.154C129.877 147.322 129.738 151.821 129.738 156.307C129.738 158.259 132.812 161.803 135.235 161.803C137.657 161.803 140.731 158.259 140.731 156.307C140.731 151.821 140.592 147.322 140.302 143.154C139.374 145.023 137.104 144.885 135.235 144.885C133.365 144.885 131.095 145.023 130.167 143.154Z" fill="url(#paint27_linear)"/>
<path fill-rule="evenodd" clip-rule="evenodd" d="M130.167 143.154C129.877 147.322 129.738 151.821 129.738 156.307C129.738 158.259 132.812 161.803 135.235 161.803C137.657 161.803 140.731 158.259 140.731 156.307C140.731 151.821 140.592 147.322 140.302 143.154C139.374 145.023 137.104 144.885 135.235 144.885C133.365 144.885 131.095 145.023 130.167 143.154Z" fill="url(#paint28_linear)"/>
<path opacity="0.5" fill-rule="evenodd" clip-rule="evenodd" d="M130.167 143.154C129.877 147.322 129.738 151.821 129.738 156.307C129.738 157.802 131.552 160.239 133.49 161.291C132.867 159.92 132.396 158.148 132.396 156.93C132.396 152.818 132.438 148.692 132.535 144.76C131.538 144.58 130.666 144.151 130.167 143.154Z" fill="url(#paint29_linear)"/>
<path opacity="0.5" fill-rule="evenodd" clip-rule="evenodd" d="M140.302 143.154C140.592 147.322 140.731 151.821 140.731 156.307C140.731 157.802 138.917 160.239 136.979 161.291C137.602 159.92 138.073 158.148 138.073 156.93C138.073 152.818 138.031 148.692 137.934 144.76C138.931 144.58 139.803 144.151 140.302 143.154Z" fill="url(#paint30_linear)"/>
<path opacity="0.5" fill-rule="evenodd" clip-rule="evenodd" d="M135.235 127.247C132.756 127.247 131.593 137.353 131.303 140.912C131.178 142.462 133.725 143.057 135.235 143.057C136.757 143.057 139.291 142.476 139.166 140.912C138.876 137.353 137.713 127.247 135.235 127.247Z" fill="url(#paint31_linear)"/>
<path opacity="0.5" fill-rule="evenodd" clip-rule="evenodd" d="M134.224 124.713C133.532 125.295 132.95 126.485 132.452 128.008C134.459 128.728 138.142 135.014 140.177 141.701C139.983 139.319 139.679 136.204 139.194 133.269C139.914 138.724 132.175 127.856 134.224 124.713Z" fill="url(#paint32_linear)"/>
<path fill-rule="evenodd" clip-rule="evenodd" d="M129.766 153.275V152.541C131.87 152.541 132.673 154.452 135.235 154.452C137.796 154.452 138.599 152.541 140.703 152.541V153.275C138.89 153.275 137.962 155.185 135.235 155.185C132.507 155.185 131.58 153.275 129.766 153.275Z" fill="url(#paint33_linear)"/>
<path fill-rule="evenodd" clip-rule="evenodd" d="M129.766 153.095V152.735C131.801 152.735 132.632 154.645 135.235 154.645C137.837 154.645 138.668 152.735 140.703 152.735V153.095C138.82 153.095 137.934 155.005 135.235 155.005C132.549 155.005 131.649 153.095 129.766 153.095Z" fill="url(#paint34_linear)"/>
<path fill-rule="evenodd" clip-rule="evenodd" d="M132.715 147.419C133.102 147.419 133.296 148.609 133.13 150.077C132.978 151.544 132.535 152.735 132.147 152.735C131.759 152.735 131.566 151.544 131.732 150.077C131.884 148.609 132.327 147.419 132.715 147.419Z" fill="url(#paint35_linear)"/>
<path fill-rule="evenodd" clip-rule="evenodd" d="M132.645 148.042C132.95 148.042 133.089 148.955 132.964 150.077C132.839 151.198 132.507 152.112 132.202 152.112C131.898 152.112 131.759 151.198 131.884 150.077C132.009 148.942 132.355 148.042 132.645 148.042Z" fill="url(#paint36_linear)"/>
<path fill-rule="evenodd" clip-rule="evenodd" d="M137.74 147.419C137.353 147.419 137.159 148.609 137.325 150.077C137.477 151.544 137.92 152.735 138.308 152.735C138.696 152.735 138.89 151.544 138.723 150.077C138.571 148.609 138.128 147.419 137.74 147.419Z" fill="url(#paint37_linear)"/>
<path fill-rule="evenodd" clip-rule="evenodd" d="M137.81 148.042C137.505 148.042 137.367 148.955 137.491 150.077C137.616 151.198 137.948 152.112 138.253 152.112C138.557 152.112 138.696 151.198 138.571 150.077C138.446 148.942 138.114 148.042 137.81 148.042Z" fill="url(#paint38_linear)"/>
<path fill-rule="evenodd" clip-rule="evenodd" d="M140.537 178.292H140.911C141.52 178.292 142.005 178.791 142.005 179.386V183.415C142.005 184.024 141.506 184.509 140.911 184.509H140.537C139.928 184.509 139.443 184.01 139.443 183.415V179.386C139.443 178.777 139.928 178.292 140.537 178.292Z" fill="url(#paint39_linear)"/>
<path fill-rule="evenodd" clip-rule="evenodd" d="M140.537 178.652H140.911C141.312 178.652 141.645 178.985 141.645 179.386V183.415C141.645 183.816 141.312 184.149 140.911 184.149H140.537C140.136 184.149 139.803 183.816 139.803 183.415V179.386C139.803 178.985 140.136 178.652 140.537 178.652Z" fill="url(#paint40_linear)"/>
<path fill-rule="evenodd" clip-rule="evenodd" d="M140.579 178.943H140.869C141.188 178.943 141.437 179.206 141.437 179.511V183.263C141.437 183.581 141.174 183.83 140.869 183.83H140.579C140.26 183.83 140.011 183.567 140.011 183.263V179.511C139.997 179.192 140.26 178.943 140.579 178.943Z" fill="url(#paint41_radial)"/>
<path opacity="0.5" fill-rule="evenodd" clip-rule="evenodd" d="M140.537 178.652C140.662 178.652 140.786 178.652 140.911 178.652C140.537 179.192 140.98 183.83 141.645 183.415C141.645 183.816 141.312 184.149 140.911 184.149C140.786 184.149 140.662 184.149 140.537 184.149C141.215 180.535 139.997 179.511 139.803 179.386C139.803 178.985 140.136 178.652 140.537 178.652Z" fill="url(#paint42_linear)"/>
<path fill-rule="evenodd" clip-rule="evenodd" d="M129.544 178.292H129.904C130.514 178.292 130.998 178.791 130.998 179.386V183.415C130.998 184.024 130.5 184.509 129.904 184.509H129.544C128.935 184.509 128.451 184.01 128.451 183.415V179.386C128.451 178.777 128.935 178.292 129.544 178.292Z" fill="url(#paint43_linear)"/>
<path fill-rule="evenodd" clip-rule="evenodd" d="M129.544 178.652H129.904C130.306 178.652 130.638 178.985 130.638 179.386V183.415C130.638 183.816 130.306 184.149 129.904 184.149H129.544C129.143 184.149 128.811 183.816 128.811 183.415V179.386C128.811 178.985 129.143 178.652 129.544 178.652Z" fill="url(#paint44_linear)"/>
<path fill-rule="evenodd" clip-rule="evenodd" d="M129.586 178.943H129.877C130.195 178.943 130.444 179.206 130.444 179.511V183.263C130.444 183.581 130.181 183.83 129.877 183.83H129.586C129.268 183.83 129.018 183.567 129.018 183.263V179.511C129.018 179.192 129.268 178.943 129.586 178.943Z" fill="url(#paint45_radial)"/>
<path opacity="0.5" fill-rule="evenodd" clip-rule="evenodd" d="M129.544 178.652C129.669 178.652 129.794 178.652 129.904 178.652C129.531 179.192 129.974 183.83 130.638 183.415C130.638 183.816 130.306 184.149 129.904 184.149C129.78 184.149 129.655 184.149 129.544 184.149C130.223 180.535 129.004 179.511 128.811 179.386C128.811 178.985 129.143 178.652 129.544 178.652Z" fill="url(#paint46_linear)"/>
<path opacity="0.5" fill-rule="evenodd" clip-rule="evenodd" d="M131.372 102.063C129.669 102.243 127.648 102.811 127.412 104.486C123.923 129.407 122.954 152.763 122.94 178.112C122.94 178.611 122.774 179.026 122.428 179.386C121.113 180.743 119.798 182.1 118.482 183.456C117.79 184.163 117.444 185.021 117.444 186.004C117.444 189.147 117.444 192.289 117.444 195.432C117.444 196.277 117.693 197.01 118.219 197.675C119.618 199.475 121.002 201.261 122.4 203.061C122.76 203.517 123.259 203.767 123.854 203.767H128.548C126.332 200.167 125.557 186.848 129.06 179.386C129.226 179.026 129.309 178.611 129.309 178.112C129.295 153.178 129.752 126.638 131.372 102.063Z" fill="url(#paint47_linear)"/>
<path opacity="0.5" fill-rule="evenodd" clip-rule="evenodd" d="M139.097 102.063C140.8 102.243 142.822 102.811 143.057 104.486C146.546 129.407 147.515 152.763 147.529 178.112C147.529 178.611 147.695 179.026 148.041 179.386C149.356 180.743 150.671 182.1 151.987 183.456C152.679 184.163 153.025 185.021 153.025 186.004C153.025 189.147 153.025 192.289 153.025 195.432C153.025 196.277 152.776 197.01 152.25 197.675C150.851 199.475 149.467 201.261 148.069 203.061C147.709 203.517 147.21 203.767 146.615 203.767H141.922C144.137 200.167 144.912 186.848 141.409 179.386C141.243 179.026 141.16 178.611 141.16 178.112C141.16 153.178 140.703 126.638 139.097 102.063Z" fill="url(#paint48_linear)"/>
</g>
</g>
<defs>
<linearGradient id="paint0_linear" x1="129.629" y1="100.263" x2="141.114" y2="100.269" gradientUnits="userSpaceOnUse">
<stop stop-color="#212427"/>
<stop offset="0.5" stop-color="#B8B9B8"/>
<stop offset="1" stop-color="#23272A"/>
</linearGradient>
<linearGradient id="paint1_linear" x1="135.229" y1="121.446" x2="135.232" y2="80.1904" gradientUnits="userSpaceOnUse">
<stop stop-color="#B8B9B8"/>
<stop offset="1" stop-color="white"/>
</linearGradient>
<linearGradient id="paint2_linear" x1="151.321" y1="152.882" x2="117.448" y2="152.882" gradientUnits="userSpaceOnUse">
<stop stop-color="#F89952"/>
<stop offset="0.49" stop-color="#FAEF5F"/>
<stop offset="1" stop-color="#F89952"/>
</linearGradient>
<linearGradient id="paint3_linear" x1="124.261" y1="202.509" x2="124.263" y2="104.688" gradientUnits="userSpaceOnUse">
<stop stop-color="#FFD13A"/>
<stop offset="0.45" stop-color="#F89952"/>
<stop offset="1" stop-color="#FFF032"/>
</linearGradient>
<linearGradient id="paint4_linear" x1="146.201" y1="202.509" x2="146.198" y2="104.688" gradientUnits="userSpaceOnUse">
<stop stop-color="#FFD13A"/>
<stop offset="0.45" stop-color="#F89952"/>
<stop offset="1" stop-color="#FFF032"/>
</linearGradient>
<linearGradient id="paint5_linear" x1="144.537" y1="189.978" x2="151.691" y2="189.976" gradientUnits="userSpaceOnUse">
<stop stop-color="#5C1800"/>
<stop offset="0.0822077" stop-color="#82430E"/>
<stop offset="0.1688" stop-color="#A36919"/>
<stop offset="0.2625" stop-color="#C08923"/>
<stop offset="0.3632" stop-color="#D7A32C"/>
<stop offset="0.4734" stop-color="#E9B832"/>
<stop offset="0.598" stop-color="#F5C637"/>
<stop offset="0.749" stop-color="#FDCE39"/>
<stop offset="1" stop-color="#FFD13A"/>
</linearGradient>
<linearGradient id="paint6_linear" x1="125.99" y1="189.978" x2="119.167" y2="189.976" gradientUnits="userSpaceOnUse">
<stop stop-color="#5C1800"/>
<stop offset="0.0822077" stop-color="#82430E"/>
<stop offset="0.1688" stop-color="#A36919"/>
<stop offset="0.2625" stop-color="#C08923"/>
<stop offset="0.3632" stop-color="#D7A32C"/>
<stop offset="0.4734" stop-color="#E9B832"/>
<stop offset="0.598" stop-color="#F5C637"/>
<stop offset="0.749" stop-color="#FDCE39"/>
<stop offset="1" stop-color="#FFD13A"/>
</linearGradient>
<linearGradient id="paint7_linear" x1="127.368" y1="188.871" x2="143.199" y2="188.87" gradientUnits="userSpaceOnUse">
<stop/>
<stop offset="0.5" stop-color="#212427"/>
<stop offset="1"/>
</linearGradient>
<linearGradient id="paint8_linear" x1="127.595" y1="188.87" x2="142.871" y2="188.869" gradientUnits="userSpaceOnUse">
<stop stop-color="#212427"/>
<stop offset="0.5" stop-color="#B8B9B8"/>
<stop offset="1" stop-color="#23272A"/>
</linearGradient>
<linearGradient id="paint9_linear" x1="141.482" y1="195.012" x2="131.829" y2="186.459" gradientUnits="userSpaceOnUse">
<stop stop-color="#B5B8B8"/>
<stop offset="1" stop-color="white"/>
</linearGradient>
<linearGradient id="paint10_linear" x1="128.279" y1="171.084" x2="142.185" y2="171.083" gradientUnits="userSpaceOnUse">
<stop stop-color="#212427"/>
<stop offset="0.5" stop-color="#B8B9B8"/>
<stop offset="1" stop-color="#23272A"/>
</linearGradient>
<linearGradient id="paint11_linear" x1="142.186" y1="171.084" x2="135.231" y2="171.083" gradientUnits="userSpaceOnUse">
<stop stop-color="#23272A"/>
<stop offset="1" stop-color="white"/>
</linearGradient>
<linearGradient id="paint12_linear" x1="128.176" y1="171.084" x2="135.214" y2="171.082" gradientUnits="userSpaceOnUse">
<stop stop-color="#23272A"/>
<stop offset="1" stop-color="white"/>
</linearGradient>
<linearGradient id="paint13_linear" x1="140.373" y1="173.453" x2="129.371" y2="167.88" gradientUnits="userSpaceOnUse">
<stop stop-color="#B5B8B8"/>
<stop offset="1" stop-color="white"/>
</linearGradient>
<linearGradient id="paint14_linear" x1="123.473" y1="181.764" x2="124.617" y2="192.695" gradientUnits="userSpaceOnUse">
<stop stop-color="#FFD13A"/>
<stop offset="0.53" stop-color="#FAEF5F"/>
<stop offset="1" stop-color="#FFD13A"/>
</linearGradient>
<linearGradient id="paint15_linear" x1="123.629" y1="181.9" x2="124.474" y2="192.578" gradientUnits="userSpaceOnUse">
<stop stop-color="#3B3092"/>
<stop offset="0.51" stop-color="#A5DBDB"/>
<stop offset="1" stop-color="#3B3092"/>
</linearGradient>
<linearGradient id="paint16_linear" x1="123.473" y1="185.427" x2="124.617" y2="196.359" gradientUnits="userSpaceOnUse">
<stop stop-color="#FFD13A"/>
<stop offset="0.53" stop-color="#FAEF5F"/>
<stop offset="1" stop-color="#FFD13A"/>
</linearGradient>
<linearGradient id="paint17_linear" x1="123.629" y1="185.564" x2="124.474" y2="196.242" gradientUnits="userSpaceOnUse">
<stop stop-color="#3B3092"/>
<stop offset="0.51" stop-color="#A5DBDB"/>
<stop offset="1" stop-color="#3B3092"/>
</linearGradient>
<linearGradient id="paint18_linear" x1="123.473" y1="189.091" x2="124.617" y2="200.022" gradientUnits="userSpaceOnUse">
<stop stop-color="#FFD13A"/>
<stop offset="0.53" stop-color="#FAEF5F"/>
<stop offset="1" stop-color="#FFD13A"/>
</linearGradient>
<linearGradient id="paint19_linear" x1="123.629" y1="189.227" x2="124.474" y2="199.905" gradientUnits="userSpaceOnUse">
<stop stop-color="#3B3092"/>
<stop offset="0.51" stop-color="#A5DBDB"/>
<stop offset="1" stop-color="#3B3092"/>
</linearGradient>
<linearGradient id="paint20_linear" x1="146.988" y1="181.764" x2="145.844" y2="192.695" gradientUnits="userSpaceOnUse">
<stop stop-color="#FFD13A"/>
<stop offset="0.53" stop-color="#FAEF5F"/>
<stop offset="1" stop-color="#FFD13A"/>
</linearGradient>
<linearGradient id="paint21_linear" x1="146.832" y1="181.9" x2="145.988" y2="192.578" gradientUnits="userSpaceOnUse">
<stop stop-color="#3B3092"/>
<stop offset="0.51" stop-color="#A5DBDB"/>
<stop offset="1" stop-color="#3B3092"/>
</linearGradient>
<linearGradient id="paint22_linear" x1="146.988" y1="185.427" x2="145.844" y2="196.359" gradientUnits="userSpaceOnUse">
<stop stop-color="#FFD13A"/>
<stop offset="0.53" stop-color="#FAEF5F"/>
<stop offset="1" stop-color="#FFD13A"/>
</linearGradient>
<linearGradient id="paint23_linear" x1="146.832" y1="185.564" x2="145.988" y2="196.242" gradientUnits="userSpaceOnUse">
<stop stop-color="#3B3092"/>
<stop offset="0.51" stop-color="#A5DBDB"/>
<stop offset="1" stop-color="#3B3092"/>
</linearGradient>
<linearGradient id="paint24_linear" x1="146.988" y1="189.091" x2="145.844" y2="200.022" gradientUnits="userSpaceOnUse">
<stop stop-color="#FFD13A"/>
<stop offset="0.53" stop-color="#FAEF5F"/>
<stop offset="1" stop-color="#FFD13A"/>
</linearGradient>
<linearGradient id="paint25_linear" x1="146.832" y1="189.227" x2="145.988" y2="199.905" gradientUnits="userSpaceOnUse">
<stop stop-color="#3B3092"/>
<stop offset="0.51" stop-color="#A5DBDB"/>
<stop offset="1" stop-color="#3B3092"/>
</linearGradient>
<linearGradient id="paint26_linear" x1="130.531" y1="135.397" x2="140.058" y2="135.396" gradientUnits="userSpaceOnUse">
<stop/>
<stop offset="0.49" stop-color="#3B3092"/>
<stop offset="1"/>
</linearGradient>
<linearGradient id="paint27_linear" x1="129.655" y1="152.479" x2="141.007" y2="152.477" gradientUnits="userSpaceOnUse">
<stop stop-color="#212427"/>
<stop offset="0.49" stop-color="#B8B9B8"/>
<stop offset="1" stop-color="#212427"/>
</linearGradient>
<linearGradient id="paint28_linear" x1="129.655" y1="152.479" x2="141.007" y2="152.477" gradientUnits="userSpaceOnUse">
<stop stop-color="#212427"/>
<stop offset="0.49" stop-color="#B8B9B8"/>
<stop offset="1" stop-color="#212427"/>
</linearGradient>
<linearGradient id="paint29_linear" x1="129.711" y1="152.223" x2="133.583" y2="152.223" gradientUnits="userSpaceOnUse">
<stop stop-color="#212427"/>
<stop offset="1" stop-color="white"/>
</linearGradient>
<linearGradient id="paint30_linear" x1="140.751" y1="152.223" x2="136.878" y2="152.223" gradientUnits="userSpaceOnUse">
<stop stop-color="#212427"/>
<stop offset="1" stop-color="white"/>
</linearGradient>
<linearGradient id="paint31_linear" x1="135.23" y1="142.768" x2="135.232" y2="127.247" gradientUnits="userSpaceOnUse">
<stop/>
<stop offset="1" stop-color="#A5DBDB"/>
</linearGradient>
<linearGradient id="paint32_linear" x1="139.644" y1="140.205" x2="135.15" y2="128.928" gradientUnits="userSpaceOnUse">
<stop stop-color="#3B3092"/>
<stop offset="1" stop-color="white"/>
</linearGradient>
<linearGradient id="paint33_linear" x1="129.774" y1="153.864" x2="140.694" y2="153.863" gradientUnits="userSpaceOnUse">
<stop stop-color="#23272A"/>
<stop offset="0.5" stop-color="#B8B9B8"/>
<stop offset="1" stop-color="#212427"/>
</linearGradient>
<linearGradient id="paint34_linear" x1="129.818" y1="153.864" x2="140.694" y2="153.862" gradientUnits="userSpaceOnUse">
<stop/>
<stop offset="0.5" stop-color="#212427"/>
<stop offset="1"/>
</linearGradient>
<linearGradient id="paint35_linear" x1="132.16" y1="152.641" x2="132.71" y2="147.466" gradientUnits="userSpaceOnUse">
<stop stop-color="#212427"/>
<stop offset="1" stop-color="#B8B9B8"/>
</linearGradient>
<linearGradient id="paint36_linear" x1="132.212" y1="152.064" x2="132.654" y2="148.076" gradientUnits="userSpaceOnUse">
<stop/>
<stop offset="1" stop-color="#212427"/>
</linearGradient>
<linearGradient id="paint37_linear" x1="138.3" y1="152.641" x2="137.75" y2="147.466" gradientUnits="userSpaceOnUse">
<stop stop-color="#212427"/>
<stop offset="1" stop-color="#B8B9B8"/>
</linearGradient>
<linearGradient id="paint38_linear" x1="138.248" y1="152.064" x2="137.806" y2="148.076" gradientUnits="userSpaceOnUse">
<stop/>
<stop offset="1" stop-color="#212427"/>
</linearGradient>
<linearGradient id="paint39_linear" x1="142.003" y1="181.401" x2="139.439" y2="181.4" gradientUnits="userSpaceOnUse">
<stop stop-color="#23272A"/>
<stop offset="1" stop-color="#B5B8B8"/>
</linearGradient>
<linearGradient id="paint40_linear" x1="140.72" y1="184.046" x2="140.722" y2="178.653" gradientUnits="userSpaceOnUse">
<stop stop-color="#020035"/>
<stop offset="1" stop-color="#472F92"/>
</linearGradient>
<radialGradient id="paint41_radial" cx="0" cy="0" r="1" gradientUnits="userSpaceOnUse" gradientTransform="translate(140.7 181.515) rotate(-89.9939) scale(2.40423 0.894851)">
<stop stop-color="#2B3594"/>
<stop offset="1" stop-color="#3B3092"/>
</radialGradient>
<linearGradient id="paint42_linear" x1="141.07" y1="183.617" x2="140.31" y2="178.786" gradientUnits="userSpaceOnUse">
<stop stop-color="#3B3092"/>
<stop offset="1" stop-color="white"/>
</linearGradient>
<linearGradient id="paint43_linear" x1="131.011" y1="181.401" x2="128.447" y2="181.4" gradientUnits="userSpaceOnUse">
<stop stop-color="#23272A"/>
<stop offset="1" stop-color="#B5B8B8"/>
</linearGradient>
<linearGradient id="paint44_linear" x1="129.728" y1="184.046" x2="129.73" y2="178.653" gradientUnits="userSpaceOnUse">
<stop stop-color="#020035"/>
<stop offset="1" stop-color="#472F92"/>
</linearGradient>
<radialGradient id="paint45_radial" cx="0" cy="0" r="1" gradientUnits="userSpaceOnUse" gradientTransform="translate(129.708 181.515) rotate(-89.9939) scale(2.40415 0.894827)">
<stop stop-color="#2B3594"/>
<stop offset="1" stop-color="#3B3092"/>
</radialGradient>
<linearGradient id="paint46_linear" x1="130.078" y1="183.617" x2="129.318" y2="178.786" gradientUnits="userSpaceOnUse">
<stop stop-color="#3B3092"/>
<stop offset="1" stop-color="white"/>
</linearGradient>
<linearGradient id="paint47_linear" x1="118.659" y1="152.918" x2="131.445" y2="152.916" gradientUnits="userSpaceOnUse">
<stop stop-color="#5C1800"/>
<stop offset="1" stop-color="white"/>
</linearGradient>
<linearGradient id="paint48_linear" x1="151.803" y1="152.918" x2="139.017" y2="152.916" gradientUnits="userSpaceOnUse">
<stop stop-color="#5C1800"/>
<stop offset="1" stop-color="white"/>
</linearGradient>
<clipPath id="clip0">
<rect width="270" height="370" fill="white"/>
</clipPath>
<clipPath id="clip1">
<rect x="56.7212" y="78.4165" width="157.013" height="196.124" fill="white"/>
</clipPath>
</defs>
</svg>
