<svg width="270" height="370" viewBox="0 0 270 370" fill="none" xmlns="http://www.w3.org/2000/svg">
<g clip-path="url(#clip0)">
<g clip-path="url(#clip1)">
<path fill-rule="evenodd" clip-rule="evenodd" d="M135.262 201.413C141.478 201.413 140.149 211.88 140.149 215.978C140.149 220.076 137.962 223.398 135.262 223.398C132.562 223.398 130.375 220.076 130.375 215.978C130.375 211.88 129.046 201.413 135.262 201.413Z" fill="url(#paint0_linear)"/>
<path fill-rule="evenodd" clip-rule="evenodd" d="M135.262 200.084C140.772 200.084 141.603 205.926 141.603 211.035C141.603 212.004 141.562 213.112 141.534 214.081C141.506 214.732 141.492 215.327 141.492 215.964C141.492 218.276 140.856 220.38 139.831 221.945C138.696 223.661 137.09 224.714 135.276 224.714C133.449 224.714 131.843 223.648 130.707 221.945C129.683 220.394 129.046 218.276 129.046 215.964C129.046 215.313 129.018 214.732 129.004 214.081C128.963 213.098 128.935 212.004 128.935 211.035C128.921 205.94 129.752 200.084 135.262 200.084ZM135.262 223.398C132.563 223.398 130.375 220.076 130.375 215.978C130.375 211.88 129.046 201.413 135.262 201.413C141.479 201.413 140.149 211.88 140.149 215.978C140.149 220.076 137.962 223.398 135.262 223.398Z" fill="black"/>
<path fill-rule="evenodd" clip-rule="evenodd" d="M122.927 230.21H129.489L126.208 240.967L122.927 230.21Z" fill="url(#paint1_radial)"/>
<path fill-rule="evenodd" clip-rule="evenodd" d="M122.927 228.895H129.489C130.223 228.895 130.818 229.49 130.818 230.224C130.818 230.404 130.777 230.57 130.721 230.722L127.468 241.355C127.26 242.047 126.512 242.449 125.82 242.241C125.377 242.103 125.059 241.77 124.934 241.355L121.653 230.598C121.445 229.905 121.833 229.158 122.539 228.95C122.664 228.909 122.802 228.895 122.927 228.895ZM122.927 230.21H129.489L126.208 240.967L122.927 230.21Z" fill="black"/>
<path opacity="0.5" fill-rule="evenodd" clip-rule="evenodd" d="M122.927 230.21C124.02 230.21 125.114 230.21 126.208 230.21C124.796 231.941 125.391 236.426 126.208 240.967C125.114 237.382 124.02 233.796 122.927 230.21Z" fill="url(#paint2_linear)"/>
<path opacity="0.5" fill-rule="evenodd" clip-rule="evenodd" d="M129.489 230.21C128.395 230.21 127.301 230.21 126.208 230.21C127.62 231.941 127.025 236.426 126.208 240.967C127.301 237.382 128.395 233.796 129.489 230.21Z" fill="url(#paint3_linear)"/>
<path fill-rule="evenodd" clip-rule="evenodd" d="M129.766 201.413H122.442C120.421 201.413 118.773 203.06 118.773 205.082V211.492L121.044 213.762V218.304L118.773 220.574V227.469L120.642 231.622C121.252 232.965 122.511 231.954 123.979 231.954H128.437C129.974 231.954 131.275 232.896 131.843 231.484L133.435 227.483V220.574L131.164 218.304V213.762L133.435 211.492V205.082C133.435 203.06 131.787 201.413 129.766 201.413Z" fill="url(#paint4_linear)"/>
<path fill-rule="evenodd" clip-rule="evenodd" d="M129.766 201.413H122.442C120.421 201.413 118.773 203.06 118.773 205.082V211.492L121.044 213.762V218.304L118.773 220.574V227.469L120.642 231.622C121.251 232.965 122.511 231.954 123.979 231.954H128.437C129.974 231.954 131.275 232.896 131.843 231.484L133.435 227.483V220.574L131.164 218.304V213.762L133.435 211.492V205.082C133.435 203.06 131.787 201.413 129.766 201.413ZM122.442 200.084H129.766C131.095 200.084 132.313 200.61 133.213 201.468C133.241 201.496 133.269 201.524 133.296 201.538C134.196 202.437 134.764 203.683 134.764 205.068V211.478C134.764 211.824 134.639 212.156 134.376 212.42L132.493 214.289V217.736L134.307 219.55C134.584 219.799 134.764 220.159 134.764 220.56V227.469C134.764 227.635 134.736 227.801 134.667 227.953L133.075 231.954C132.272 233.962 131.054 233.727 129.517 233.422C129.171 233.353 128.783 233.27 128.437 233.27H123.993C123.66 233.27 123.287 233.353 122.941 233.436C121.487 233.782 120.31 234.059 119.452 232.148L117.61 228.064C117.513 227.884 117.458 227.676 117.458 227.455V220.546C117.458 220.2 117.583 219.868 117.846 219.605L119.729 217.736V214.289L117.915 212.503C117.638 212.253 117.458 211.893 117.458 211.492V205.082C117.458 203.711 118.012 202.451 118.926 201.551C119.812 200.651 121.071 200.084 122.442 200.084Z" fill="black"/>
<path opacity="0.5" fill-rule="evenodd" clip-rule="evenodd" d="M130.334 232.231C130.998 232.328 131.524 232.259 131.829 231.484L133.421 227.483V220.574L131.15 218.304V213.762L133.421 211.492V205.082C133.421 203.448 132.341 202.05 130.846 201.579C131.04 202.161 131.15 202.825 131.15 203.531V210.786L129.586 213.347V218.47L131.15 221.031V228.853L130.334 232.231Z" fill="url(#paint5_linear)"/>
<path opacity="0.5" fill-rule="evenodd" clip-rule="evenodd" d="M121.348 201.579C119.853 202.05 118.773 203.434 118.773 205.082V211.492L121.044 213.762V218.304L118.773 220.574V227.469L120.642 231.622C120.947 232.301 121.418 232.37 121.985 232.287L121.044 228.853V221.031L122.608 218.47V213.347L121.044 210.786V203.531C121.058 202.825 121.155 202.161 121.348 201.579Z" fill="url(#paint6_linear)"/>
<path fill-rule="evenodd" clip-rule="evenodd" d="M118.773 227.469C119.396 228.853 120.019 230.238 120.642 231.622C121.252 232.965 122.511 231.954 123.979 231.954C125.46 231.954 126.942 231.954 128.423 231.954C129.96 231.954 131.261 232.896 131.829 231.484C132.355 230.155 132.895 228.812 133.421 227.483C128.548 226.956 123.661 226.956 118.773 227.469Z" fill="url(#paint7_radial)"/>
<path opacity="0.5" fill-rule="evenodd" clip-rule="evenodd" d="M118.773 227.469C119.396 228.853 120.019 230.238 120.642 231.622C121.044 232.522 121.75 232.37 122.608 232.162C122.055 231.276 121.335 228.936 122.567 227.469C121.307 227.469 120.033 227.469 118.773 227.469Z" fill="url(#paint8_linear)"/>
<path opacity="0.5" fill-rule="evenodd" clip-rule="evenodd" d="M133.435 227.469C132.867 228.853 132.313 230.238 131.746 231.622C131.386 232.522 130.68 232.37 129.808 232.162C130.334 231.276 130.943 228.936 129.655 227.469C130.901 227.469 132.175 227.469 133.435 227.469Z" fill="url(#paint9_linear)"/>
<path fill-rule="evenodd" clip-rule="evenodd" d="M121.058 218.29L118.773 220.56H133.435L131.164 218.29H121.058Z" fill="url(#paint10_radial)"/>
<path fill-rule="evenodd" clip-rule="evenodd" d="M118.773 211.492L121.058 213.762H131.164L133.435 211.492H118.773Z" fill="url(#paint11_radial)"/>
<path fill-rule="evenodd" clip-rule="evenodd" d="M121.058 218.29C120.296 219.051 119.535 219.799 118.787 220.56C119.95 220.56 121.113 220.56 122.262 220.56C122.664 219.799 123.051 219.051 123.453 218.29C122.65 218.29 121.847 218.29 121.058 218.29ZM129.946 220.56H133.421L131.15 218.29H128.755L129.946 220.56ZM128.755 213.762H131.15L133.421 211.492H129.946L128.755 213.762ZM118.773 211.492C119.535 212.253 120.296 213.001 121.044 213.762C121.847 213.762 122.65 213.762 123.439 213.762C123.037 213.001 122.65 212.253 122.248 211.492C121.099 211.492 119.936 211.492 118.773 211.492Z" fill="#373737"/>
<path d="M131.164 213.762H121.058V218.304H131.164V213.762Z" fill="url(#paint12_radial)"/>
<path opacity="0.5" fill-rule="evenodd" clip-rule="evenodd" d="M121.058 213.762C121.058 215.272 121.058 216.781 121.058 218.304C121.916 218.304 122.761 218.304 123.619 218.304C122.927 216.794 122.844 215.285 123.619 213.762C122.761 213.762 121.902 213.762 121.058 213.762Z" fill="url(#paint13_linear)"/>
<path opacity="0.5" fill-rule="evenodd" clip-rule="evenodd" d="M131.164 213.762C131.164 215.272 131.164 216.781 131.164 218.304C130.306 218.304 129.461 218.304 128.603 218.304C129.295 216.794 129.378 215.285 128.603 213.762C129.447 213.762 130.306 213.762 131.164 213.762Z" fill="url(#paint14_linear)"/>
<path fill-rule="evenodd" clip-rule="evenodd" d="M122.262 213.762H122.622V218.304H122.262V213.762ZM129.586 213.762H129.96V218.304H129.586V213.762ZM127.758 213.762H128.132V218.304H127.758V213.762ZM125.917 213.762H126.291V218.304H125.917V213.762ZM124.09 213.762H124.463V218.304H124.09V213.762Z" fill="url(#paint15_linear)"/>
<path fill-rule="evenodd" clip-rule="evenodd" d="M118.773 225.087V224.714C119.936 224.714 121.279 225.129 122.373 224.728C123.605 224.271 121.708 221.972 126.097 221.972C130.486 221.972 128.603 224.271 129.821 224.728C130.915 225.143 132.258 224.714 133.421 224.714V225.087C132.189 225.087 130.887 225.531 129.697 225.074C128.077 224.464 130.264 222.332 126.097 222.332C121.93 222.332 124.117 224.464 122.498 225.074C121.307 225.531 120.005 225.087 118.773 225.087Z" fill="#5B1E00"/>
<path fill-rule="evenodd" clip-rule="evenodd" d="M118.773 206.965V206.591C119.244 206.591 122.858 205.566 122.913 205.206C123.051 204.32 123.259 202.922 126.097 202.922C128.935 202.922 129.157 204.306 129.281 205.206C129.337 205.566 132.95 206.591 133.421 206.591V206.965C132.438 206.965 129.032 206.023 128.921 205.262C128.811 204.486 128.617 203.296 126.097 203.296C123.564 203.296 123.384 204.5 123.273 205.262C123.162 206.023 119.77 206.965 118.773 206.965Z" fill="#5B1E00"/>
<path fill-rule="evenodd" clip-rule="evenodd" d="M126.111 204.154C128.063 204.154 129.655 205.746 129.655 207.698C129.655 209.651 128.063 211.243 126.111 211.243C124.159 211.243 122.567 209.651 122.567 207.698C122.553 205.746 124.145 204.154 126.111 204.154Z" fill="#5B1E00"/>
<path fill-rule="evenodd" clip-rule="evenodd" d="M126.111 204.5C127.869 204.5 129.309 205.926 129.309 207.698C129.309 209.457 127.883 210.897 126.111 210.897C124.353 210.897 122.913 209.471 122.913 207.698C122.913 205.94 124.339 204.5 126.111 204.5Z" fill="url(#paint16_linear)"/>
<path opacity="0.5" fill-rule="evenodd" clip-rule="evenodd" d="M126.111 204.5C123.993 206.785 128.008 211.893 129.309 207.698C129.309 209.457 127.883 210.897 126.111 210.897C126.332 206.563 123.854 205.442 122.913 207.698C122.913 205.94 124.339 204.5 126.111 204.5Z" fill="url(#paint17_linear)"/>
<path fill-rule="evenodd" clip-rule="evenodd" d="M126.111 205.594C127.274 205.594 128.215 206.535 128.215 207.698C128.215 208.861 127.274 209.803 126.111 209.803C124.948 209.803 124.006 208.861 124.006 207.698C124.006 206.535 124.948 205.594 126.111 205.594Z" fill="url(#paint18_linear)"/>
<path opacity="0.5" fill-rule="evenodd" clip-rule="evenodd" d="M126.111 205.594C124.796 207.657 126.637 208.751 128.215 207.698C128.215 208.861 127.274 209.803 126.111 209.803C128.575 209.332 125.128 206.785 124.006 207.698C124.006 206.535 124.948 205.594 126.111 205.594Z" fill="url(#paint19_linear)"/>
<path fill-rule="evenodd" clip-rule="evenodd" d="M126.111 205.912C127.094 205.912 127.897 206.715 127.897 207.698C127.897 208.681 127.094 209.484 126.111 209.484C125.128 209.484 124.325 208.681 124.325 207.698C124.325 206.715 125.114 205.912 126.111 205.912Z" fill="url(#paint20_linear)"/>
<path opacity="0.5" fill-rule="evenodd" clip-rule="evenodd" d="M129.766 201.413C128.658 201.413 127.565 201.413 126.457 201.413C127.343 202.119 127.925 203.24 127.925 204.486C127.925 206.729 127.925 208.972 127.925 211.215C125.945 212.06 124.076 213.749 121.985 213.749C121.985 215.258 121.985 216.767 121.985 218.29C124.076 218.29 125.945 219.923 127.925 220.74C127.925 223.163 127.925 225.572 127.925 227.995C127.426 229.31 126.928 230.625 126.429 231.941C127.094 231.941 127.758 231.941 128.423 231.941C129.96 231.941 131.261 232.882 131.829 231.47C132.355 230.141 132.895 228.798 133.421 227.469C133.421 225.17 133.421 222.858 133.421 220.56C132.66 219.799 131.898 219.051 131.15 218.29C131.15 216.781 131.15 215.272 131.15 213.749C131.912 212.987 132.673 212.24 133.421 211.478C133.421 209.346 133.421 207.2 133.421 205.068C133.435 203.06 131.787 201.413 129.766 201.413Z" fill="url(#paint21_linear)"/>
<path fill-rule="evenodd" clip-rule="evenodd" d="M147.598 230.21H141.036L144.317 240.967L147.598 230.21Z" fill="url(#paint22_radial)"/>
<path fill-rule="evenodd" clip-rule="evenodd" d="M147.598 230.21H141.036L144.317 240.967L147.598 230.21ZM141.036 228.895H147.598C147.723 228.895 147.847 228.909 147.986 228.95C148.678 229.158 149.079 229.905 148.872 230.598L145.59 241.355C145.466 241.77 145.147 242.103 144.704 242.241C144.012 242.449 143.265 242.061 143.057 241.355L139.817 230.722C139.748 230.57 139.72 230.404 139.72 230.224C139.706 229.49 140.302 228.895 141.036 228.895Z" fill="black"/>
<path opacity="0.5" fill-rule="evenodd" clip-rule="evenodd" d="M147.598 230.21C146.504 230.21 145.411 230.21 144.317 230.21C145.729 231.941 145.134 236.426 144.317 240.967C145.411 237.382 146.504 233.796 147.598 230.21Z" fill="url(#paint23_linear)"/>
<path opacity="0.5" fill-rule="evenodd" clip-rule="evenodd" d="M141.036 230.21C142.129 230.21 143.223 230.21 144.317 230.21C142.905 231.941 143.5 236.426 144.317 240.967C143.223 237.382 142.129 233.796 141.036 230.21Z" fill="url(#paint24_linear)"/>
<path fill-rule="evenodd" clip-rule="evenodd" d="M140.759 201.413H148.082C150.104 201.413 151.751 203.06 151.751 205.082V211.492L149.481 213.762V218.304L151.751 220.574V227.469L149.882 231.622C149.273 232.965 148.013 231.954 146.546 231.954H142.102C140.565 231.954 139.263 232.896 138.696 231.484L137.104 227.469V220.56L139.374 218.29V213.762L137.104 211.492V205.082C137.104 203.06 138.737 201.413 140.759 201.413Z" fill="url(#paint25_linear)"/>
<path fill-rule="evenodd" clip-rule="evenodd" d="M140.759 200.084H148.082C149.453 200.084 150.713 200.638 151.613 201.551C152.513 202.451 153.08 203.697 153.08 205.082V211.492C153.08 211.893 152.9 212.253 152.624 212.503L150.81 214.316V217.764L152.693 219.633C152.956 219.896 153.08 220.228 153.08 220.574V227.469C153.08 227.69 153.025 227.898 152.928 228.078L151.087 232.162C150.228 234.059 149.052 233.782 147.598 233.45C147.252 233.367 146.878 233.283 146.546 233.283H142.102C141.755 233.283 141.382 233.367 141.022 233.436C139.499 233.74 138.267 233.99 137.464 231.968L135.871 227.967C135.802 227.801 135.775 227.649 135.775 227.483V220.574C135.775 220.173 135.955 219.813 136.231 219.563L138.045 217.75V214.302L136.162 212.433C135.899 212.17 135.775 211.838 135.775 211.492V205.082C135.775 203.711 136.328 202.451 137.242 201.551C138.142 200.651 139.388 200.084 140.759 200.084ZM140.759 201.413H148.082C150.104 201.413 151.751 203.06 151.751 205.082V211.492L149.481 213.762V218.304L151.751 220.574V227.469L149.882 231.622C149.273 232.965 148.013 231.954 146.546 231.954H142.102C140.565 231.954 139.263 232.896 138.696 231.484L137.104 227.469V220.56L139.374 218.29V213.762L137.104 211.492V205.082C137.104 203.06 138.737 201.413 140.759 201.413Z" fill="black"/>
<path opacity="0.5" fill-rule="evenodd" clip-rule="evenodd" d="M140.191 232.231C139.526 232.328 139 232.259 138.696 231.484L137.104 227.469V220.56L139.374 218.29V213.762L137.104 211.492V205.082C137.104 203.448 138.184 202.05 139.679 201.579C139.485 202.161 139.374 202.825 139.374 203.531V210.786L140.939 213.347V218.47L139.374 221.045V228.867L140.191 232.231Z" fill="url(#paint26_linear)"/>
<path opacity="0.5" fill-rule="evenodd" clip-rule="evenodd" d="M149.176 201.579C150.671 202.05 151.751 203.434 151.751 205.082V211.492L149.481 213.762V218.304L151.751 220.574V227.469L149.882 231.622C149.578 232.301 149.107 232.37 148.539 232.287L149.481 228.853V221.031L147.916 218.47V213.347L149.481 210.786V203.531C149.481 202.825 149.37 202.161 149.176 201.579Z" fill="url(#paint27_linear)"/>
<path fill-rule="evenodd" clip-rule="evenodd" d="M151.751 227.469C151.128 228.853 150.505 230.238 149.882 231.622C149.273 232.965 148.013 231.954 146.546 231.954C145.064 231.954 143.583 231.954 142.102 231.954C140.565 231.954 139.263 232.896 138.696 231.484C138.17 230.155 137.63 228.812 137.104 227.483C141.977 226.956 146.864 226.956 151.751 227.469Z" fill="url(#paint28_radial)"/>
<path opacity="0.5" fill-rule="evenodd" clip-rule="evenodd" d="M151.751 227.469C151.128 228.853 150.505 230.238 149.882 231.622C149.481 232.522 148.775 232.37 147.916 232.162C148.47 231.276 149.19 228.936 147.958 227.469C149.232 227.469 150.491 227.469 151.751 227.469Z" fill="url(#paint29_linear)"/>
<path opacity="0.5" fill-rule="evenodd" clip-rule="evenodd" d="M137.104 227.469C137.671 228.853 138.225 230.238 138.793 231.622C139.153 232.522 139.859 232.37 140.731 232.162C140.205 231.276 139.596 228.936 140.883 227.469C139.623 227.469 138.364 227.469 137.104 227.469Z" fill="url(#paint30_linear)"/>
<path fill-rule="evenodd" clip-rule="evenodd" d="M149.481 218.29L151.751 220.56H137.104L139.374 218.29H149.481Z" fill="url(#paint31_radial)"/>
<path fill-rule="evenodd" clip-rule="evenodd" d="M151.751 211.492L149.481 213.762H139.374L137.104 211.492H151.751Z" fill="url(#paint32_radial)"/>
<path fill-rule="evenodd" clip-rule="evenodd" d="M149.481 218.29C150.242 219.051 151.004 219.799 151.751 220.56C150.588 220.56 149.425 220.56 148.276 220.56C147.875 219.799 147.473 219.051 147.086 218.29C147.875 218.29 148.678 218.29 149.481 218.29ZM140.579 220.56H137.104L139.374 218.29H141.769L140.579 220.56ZM141.769 213.762H139.374L137.104 211.492H140.579L141.769 213.762ZM151.751 211.492C150.99 212.253 150.228 213.001 149.481 213.762C148.678 213.762 147.875 213.762 147.086 213.762C147.487 213.001 147.875 212.253 148.276 211.492C149.425 211.492 150.588 211.492 151.751 211.492Z" fill="#373737"/>
<path d="M149.481 213.762H139.374V218.304H149.481V213.762Z" fill="url(#paint33_radial)"/>
<path opacity="0.5" fill-rule="evenodd" clip-rule="evenodd" d="M149.481 213.762C149.481 215.272 149.481 216.781 149.481 218.304C148.622 218.304 147.778 218.304 146.919 218.304C147.612 216.794 147.695 215.285 146.919 213.762C147.764 213.762 148.622 213.762 149.481 213.762Z" fill="url(#paint34_linear)"/>
<path opacity="0.5" fill-rule="evenodd" clip-rule="evenodd" d="M139.374 213.762C139.374 215.272 139.374 216.781 139.374 218.304C140.233 218.304 141.077 218.304 141.936 218.304C141.243 216.794 141.16 215.285 141.936 213.762C141.077 213.762 140.233 213.762 139.374 213.762Z" fill="url(#paint35_linear)"/>
<path fill-rule="evenodd" clip-rule="evenodd" d="M148.276 213.762H147.903V218.304H148.276V213.762ZM140.939 213.762H140.565V218.304H140.939V213.762ZM142.78 213.762H142.42V218.304H142.78V213.762ZM144.607 213.762H144.234V218.304H144.607V213.762ZM146.435 213.762H146.061V218.304H146.435V213.762Z" fill="url(#paint36_linear)"/>
<path fill-rule="evenodd" clip-rule="evenodd" d="M151.751 225.087V224.714C150.588 224.714 149.245 225.129 148.152 224.728C146.92 224.271 148.816 221.972 144.427 221.972C140.039 221.972 141.922 224.271 140.703 224.728C139.61 225.143 138.253 224.714 137.104 224.714V225.087C138.336 225.087 139.637 225.531 140.828 225.074C142.448 224.464 140.26 222.332 144.427 222.332C148.595 222.332 146.407 224.464 148.027 225.074C149.218 225.531 150.519 225.087 151.751 225.087Z" fill="#5B1E00"/>
<path fill-rule="evenodd" clip-rule="evenodd" d="M151.751 206.965V206.591C151.281 206.591 147.667 205.566 147.612 205.206C147.473 204.32 147.266 202.922 144.427 202.922C141.589 202.922 141.368 204.306 141.243 205.206C141.188 205.566 137.574 206.591 137.104 206.591V206.965C138.087 206.965 141.492 206.023 141.603 205.262C141.714 204.486 141.908 203.296 144.427 203.296C146.961 203.296 147.141 204.5 147.252 205.262C147.363 206.023 150.768 206.965 151.751 206.965Z" fill="#5B1E00"/>
<path fill-rule="evenodd" clip-rule="evenodd" d="M144.427 204.154C142.475 204.154 140.883 205.746 140.883 207.698C140.883 209.651 142.475 211.243 144.427 211.243C146.38 211.243 147.972 209.651 147.972 207.698C147.972 205.746 146.38 204.154 144.427 204.154Z" fill="#5B1E00"/>
<path fill-rule="evenodd" clip-rule="evenodd" d="M144.427 204.5C142.669 204.5 141.229 205.926 141.229 207.698C141.229 209.457 142.655 210.897 144.427 210.897C146.186 210.897 147.626 209.471 147.626 207.698C147.612 205.94 146.186 204.5 144.427 204.5Z" fill="url(#paint37_linear)"/>
<path opacity="0.5" fill-rule="evenodd" clip-rule="evenodd" d="M144.427 204.5C146.546 206.785 142.531 211.893 141.229 207.698C141.229 209.457 142.655 210.897 144.427 210.897C144.206 206.563 146.684 205.442 147.626 207.698C147.612 205.94 146.186 204.5 144.427 204.5Z" fill="url(#paint38_linear)"/>
<path fill-rule="evenodd" clip-rule="evenodd" d="M144.428 205.594C143.265 205.594 142.323 206.535 142.323 207.698C142.323 208.861 143.265 209.803 144.428 209.803C145.59 209.803 146.532 208.861 146.532 207.698C146.532 206.535 145.577 205.594 144.428 205.594Z" fill="url(#paint39_linear)"/>
<path opacity="0.5" fill-rule="evenodd" clip-rule="evenodd" d="M144.428 205.594C145.743 207.657 143.901 208.751 142.323 207.698C142.323 208.861 143.265 209.803 144.428 209.803C141.963 209.332 145.41 206.785 146.532 207.698C146.532 206.535 145.577 205.594 144.428 205.594Z" fill="url(#paint40_linear)"/>
<path fill-rule="evenodd" clip-rule="evenodd" d="M144.428 205.912C143.445 205.912 142.642 206.715 142.642 207.698C142.642 208.681 143.445 209.484 144.428 209.484C145.411 209.484 146.214 208.681 146.214 207.698C146.214 206.715 145.411 205.912 144.428 205.912Z" fill="url(#paint41_linear)"/>
<path opacity="0.5" fill-rule="evenodd" clip-rule="evenodd" d="M140.759 201.413C141.866 201.413 142.96 201.413 144.068 201.413C143.181 202.119 142.6 203.24 142.6 204.486C142.6 206.729 142.6 208.972 142.6 211.215C144.58 212.06 146.449 213.749 148.539 213.749C148.539 215.258 148.539 216.767 148.539 218.29C146.449 218.29 144.58 219.923 142.6 220.74C142.6 223.163 142.6 225.572 142.6 227.995C143.098 229.31 143.597 230.625 144.095 231.941C143.431 231.941 142.766 231.941 142.102 231.941C140.565 231.941 139.263 232.882 138.696 231.47C138.17 230.141 137.63 228.798 137.104 227.469C137.104 225.17 137.104 222.858 137.104 220.56C137.865 219.799 138.627 219.051 139.374 218.29C139.374 216.781 139.374 215.272 139.374 213.749C138.613 212.987 137.851 212.24 137.104 211.478C137.104 209.346 137.104 207.2 137.104 205.068C137.104 203.06 138.751 201.413 140.759 201.413Z" fill="url(#paint42_linear)"/>
</g>
</g>
<defs>
<linearGradient id="paint0_linear" x1="135.264" y1="202.906" x2="135.265" y2="223.398" gradientUnits="userSpaceOnUse">
<stop stop-color="#F89952"/>
<stop offset="0.42" stop-color="#FFD13A"/>
<stop offset="1" stop-color="#FAEF5F"/>
</linearGradient>
<radialGradient id="paint1_radial" cx="0" cy="0" r="1" gradientUnits="userSpaceOnUse" gradientTransform="translate(126.199 230.641) rotate(-90.0077) scale(10.9919 1.83015)">
<stop stop-color="#B5B8B8"/>
<stop offset="1" stop-color="#212427"/>
</radialGradient>
<linearGradient id="paint2_linear" x1="123.631" y1="235.594" x2="126.49" y2="235.596" gradientUnits="userSpaceOnUse">
<stop stop-color="#212427"/>
<stop offset="1" stop-color="white"/>
</linearGradient>
<linearGradient id="paint3_linear" x1="128.787" y1="235.594" x2="125.928" y2="235.596" gradientUnits="userSpaceOnUse">
<stop stop-color="#212427"/>
<stop offset="1" stop-color="white"/>
</linearGradient>
<linearGradient id="paint4_linear" x1="126.104" y1="203.512" x2="126.105" y2="232.32" gradientUnits="userSpaceOnUse">
<stop stop-color="#F89952"/>
<stop offset="0.42" stop-color="#FFD13A"/>
<stop offset="1" stop-color="#FAEF5F"/>
</linearGradient>
<linearGradient id="paint5_linear" x1="133.432" y1="216.922" x2="130.217" y2="216.92" gradientUnits="userSpaceOnUse">
<stop stop-color="#5C1800"/>
<stop offset="1" stop-color="white"/>
</linearGradient>
<linearGradient id="paint6_linear" x1="118.777" y1="216.951" x2="122.619" y2="216.95" gradientUnits="userSpaceOnUse">
<stop stop-color="#5C1800"/>
<stop offset="1" stop-color="white"/>
</linearGradient>
<radialGradient id="paint7_radial" cx="0" cy="0" r="1" gradientUnits="userSpaceOnUse" gradientTransform="translate(126.105 229.702) rotate(-90.001) scale(14.5417 5.50985)">
<stop stop-color="#B5B8B8"/>
<stop offset="1" stop-color="#212427"/>
</radialGradient>
<linearGradient id="paint8_linear" x1="119.6" y1="229.895" x2="122.935" y2="229.899" gradientUnits="userSpaceOnUse">
<stop stop-color="#212427"/>
<stop offset="1" stop-color="white"/>
</linearGradient>
<linearGradient id="paint9_linear" x1="132.742" y1="229.787" x2="129.55" y2="229.927" gradientUnits="userSpaceOnUse">
<stop stop-color="#212427"/>
<stop offset="1" stop-color="white"/>
</linearGradient>
<radialGradient id="paint10_radial" cx="0" cy="0" r="1" gradientUnits="userSpaceOnUse" gradientTransform="translate(126.105 219.427) rotate(-90.0084) scale(6.29982 5.51044)">
<stop stop-color="#B5B8B8"/>
<stop offset="1" stop-color="#212427"/>
</radialGradient>
<radialGradient id="paint11_radial" cx="0" cy="0" r="1" gradientUnits="userSpaceOnUse" gradientTransform="translate(126.105 212.623) rotate(-89.9929) scale(7.40142 6.62872)">
<stop stop-color="#B5B8B8"/>
<stop offset="1" stop-color="#212427"/>
</radialGradient>
<radialGradient id="paint12_radial" cx="0" cy="0" r="1" gradientUnits="userSpaceOnUse" gradientTransform="translate(126.105 216.025) rotate(-90.0087) scale(6.32965 5.05295)">
<stop stop-color="#FAEF5F"/>
<stop offset="1" stop-color="#FFF032"/>
</radialGradient>
<linearGradient id="paint13_linear" x1="121.051" y1="216.027" x2="123.614" y2="216.025" gradientUnits="userSpaceOnUse">
<stop stop-color="#5C1800"/>
<stop offset="1" stop-color="white"/>
</linearGradient>
<linearGradient id="paint14_linear" x1="131.158" y1="216.027" x2="128.595" y2="216.025" gradientUnits="userSpaceOnUse">
<stop stop-color="#5C1800"/>
<stop offset="1" stop-color="white"/>
</linearGradient>
<linearGradient id="paint15_linear" x1="126.104" y1="213.886" x2="126.106" y2="218.294" gradientUnits="userSpaceOnUse">
<stop stop-color="#23272A"/>
<stop offset="0.49" stop-color="#B8B9B8"/>
<stop offset="1" stop-color="#23272A"/>
</linearGradient>
<linearGradient id="paint16_linear" x1="126.104" y1="210.849" x2="126.105" y2="204.507" gradientUnits="userSpaceOnUse">
<stop stop-color="#FFF032"/>
<stop offset="1" stop-color="#FAEF5F"/>
</linearGradient>
<linearGradient id="paint17_linear" x1="127.122" y1="209.157" x2="125.016" y2="206.138" gradientUnits="userSpaceOnUse">
<stop stop-color="#FAEF5F"/>
<stop offset="1" stop-color="white"/>
</linearGradient>
<linearGradient id="paint18_linear" x1="126.104" y1="209.651" x2="126.105" y2="205.708" gradientUnits="userSpaceOnUse">
<stop stop-color="#3B3092"/>
<stop offset="1" stop-color="#2B3594"/>
</linearGradient>
<linearGradient id="paint19_linear" x1="127.122" y1="208.604" x2="124.995" y2="206.711" gradientUnits="userSpaceOnUse">
<stop stop-color="#A5DBDB"/>
<stop offset="1" stop-color="white"/>
</linearGradient>
<linearGradient id="paint20_linear" x1="126.104" y1="209.481" x2="126.105" y2="205.916" gradientUnits="userSpaceOnUse">
<stop stop-color="#FAEF5F"/>
<stop offset="1" stop-color="#FDFAD3"/>
</linearGradient>
<linearGradient id="paint21_linear" x1="133.764" y1="216.838" x2="118.78" y2="216.836" gradientUnits="userSpaceOnUse">
<stop stop-color="#FFD13A"/>
<stop offset="1" stop-color="white"/>
</linearGradient>
<radialGradient id="paint22_radial" cx="0" cy="0" r="1" gradientUnits="userSpaceOnUse" gradientTransform="translate(144.33 230.641) rotate(-89.9923) scale(10.9919 1.83016)">
<stop stop-color="#B5B8B8"/>
<stop offset="1" stop-color="#212427"/>
</radialGradient>
<linearGradient id="paint23_linear" x1="146.898" y1="235.594" x2="144.039" y2="235.596" gradientUnits="userSpaceOnUse">
<stop stop-color="#212427"/>
<stop offset="1" stop-color="white"/>
</linearGradient>
<linearGradient id="paint24_linear" x1="141.742" y1="235.594" x2="144.601" y2="235.596" gradientUnits="userSpaceOnUse">
<stop stop-color="#212427"/>
<stop offset="1" stop-color="white"/>
</linearGradient>
<linearGradient id="paint25_linear" x1="144.425" y1="203.512" x2="144.424" y2="232.32" gradientUnits="userSpaceOnUse">
<stop stop-color="#F89952"/>
<stop offset="0.42" stop-color="#FFD13A"/>
<stop offset="1" stop-color="#FAEF5F"/>
</linearGradient>
<linearGradient id="paint26_linear" x1="137.097" y1="216.922" x2="140.312" y2="216.92" gradientUnits="userSpaceOnUse">
<stop stop-color="#5C1800"/>
<stop offset="1" stop-color="white"/>
</linearGradient>
<linearGradient id="paint27_linear" x1="151.752" y1="216.951" x2="147.91" y2="216.95" gradientUnits="userSpaceOnUse">
<stop stop-color="#5C1800"/>
<stop offset="1" stop-color="white"/>
</linearGradient>
<radialGradient id="paint28_radial" cx="0" cy="0" r="1" gradientUnits="userSpaceOnUse" gradientTransform="translate(144.423 229.702) rotate(-89.999) scale(14.5413 5.50969)">
<stop stop-color="#B5B8B8"/>
<stop offset="1" stop-color="#212427"/>
</radialGradient>
<linearGradient id="paint29_linear" x1="150.93" y1="229.895" x2="147.594" y2="229.899" gradientUnits="userSpaceOnUse">
<stop stop-color="#212427"/>
<stop offset="1" stop-color="white"/>
</linearGradient>
<linearGradient id="paint30_linear" x1="137.787" y1="229.787" x2="140.978" y2="229.927" gradientUnits="userSpaceOnUse">
<stop stop-color="#212427"/>
<stop offset="1" stop-color="white"/>
</linearGradient>
<radialGradient id="paint31_radial" cx="0" cy="0" r="1" gradientUnits="userSpaceOnUse" gradientTransform="translate(144.423 219.427) rotate(-89.9916) scale(6.29936 5.51004)">
<stop stop-color="#B5B8B8"/>
<stop offset="1" stop-color="#212427"/>
</radialGradient>
<radialGradient id="paint32_radial" cx="0" cy="0" r="1" gradientUnits="userSpaceOnUse" gradientTransform="translate(144.423 212.623) rotate(-90.0071) scale(7.40115 6.62848)">
<stop stop-color="#B5B8B8"/>
<stop offset="1" stop-color="#212427"/>
</radialGradient>
<radialGradient id="paint33_radial" cx="0" cy="0" r="1" gradientUnits="userSpaceOnUse" gradientTransform="translate(144.424 216.025) rotate(-89.9913) scale(6.33012 5.05332)">
<stop stop-color="#FAEF5F"/>
<stop offset="1" stop-color="#FFF032"/>
</radialGradient>
<linearGradient id="paint34_linear" x1="149.478" y1="216.027" x2="146.915" y2="216.025" gradientUnits="userSpaceOnUse">
<stop stop-color="#5C1800"/>
<stop offset="1" stop-color="white"/>
</linearGradient>
<linearGradient id="paint35_linear" x1="139.371" y1="216.027" x2="141.934" y2="216.025" gradientUnits="userSpaceOnUse">
<stop stop-color="#5C1800"/>
<stop offset="1" stop-color="white"/>
</linearGradient>
<linearGradient id="paint36_linear" x1="144.425" y1="213.886" x2="144.424" y2="218.294" gradientUnits="userSpaceOnUse">
<stop stop-color="#23272A"/>
<stop offset="0.49" stop-color="#B8B9B8"/>
<stop offset="1" stop-color="#23272A"/>
</linearGradient>
<linearGradient id="paint37_linear" x1="144.425" y1="210.849" x2="144.423" y2="204.507" gradientUnits="userSpaceOnUse">
<stop stop-color="#FFF032"/>
<stop offset="1" stop-color="#FAEF5F"/>
</linearGradient>
<linearGradient id="paint38_linear" x1="143.407" y1="209.157" x2="145.512" y2="206.138" gradientUnits="userSpaceOnUse">
<stop stop-color="#FAEF5F"/>
<stop offset="1" stop-color="white"/>
</linearGradient>
<linearGradient id="paint39_linear" x1="144.425" y1="209.651" x2="144.424" y2="205.708" gradientUnits="userSpaceOnUse">
<stop stop-color="#3B3092"/>
<stop offset="1" stop-color="#2B3594"/>
</linearGradient>
<linearGradient id="paint40_linear" x1="143.407" y1="208.605" x2="145.534" y2="206.711" gradientUnits="userSpaceOnUse">
<stop stop-color="#A5DBDB"/>
<stop offset="1" stop-color="white"/>
</linearGradient>
<linearGradient id="paint41_linear" x1="144.425" y1="209.481" x2="144.424" y2="205.916" gradientUnits="userSpaceOnUse">
<stop stop-color="#FAEF5F"/>
<stop offset="1" stop-color="#FDFAD3"/>
</linearGradient>
<linearGradient id="paint42_linear" x1="136.765" y1="216.838" x2="151.75" y2="216.836" gradientUnits="userSpaceOnUse">
<stop stop-color="#FFD13A"/>
<stop offset="1" stop-color="white"/>
</linearGradient>
<clipPath id="clip0">
<rect width="270" height="370" fill="white"/>
</clipPath>
<clipPath id="clip1">
<rect x="81.088" y="107.989" width="108.349" height="142.407" fill="white"/>
</clipPath>
</defs>
</svg>
