<svg width="270" height="370" viewBox="0 0 270 370" fill="none" xmlns="http://www.w3.org/2000/svg">
<g clip-path="url(#clip0)">
<g clip-path="url(#clip1)">
<path fill-rule="evenodd" clip-rule="evenodd" d="M127.994 241.106C127.994 243.404 127.994 245.716 127.994 248.014C127.994 251.157 142.489 251.157 142.489 248.014C142.489 245.716 142.489 243.404 142.489 241.106H127.994Z" fill="url(#paint0_linear)"/>
<path fill-rule="evenodd" clip-rule="evenodd" d="M127.994 241.106C127.994 243.404 127.994 245.716 127.994 248.014C127.994 251.157 142.489 251.157 142.489 248.014C142.489 245.716 142.489 243.404 142.489 241.106H127.994ZM126.678 248.014V241.106C126.678 240.372 127.274 239.777 128.008 239.777H142.503C143.237 239.777 143.832 240.372 143.832 241.106V248.014C143.832 249.952 141.451 251.088 138.391 251.489C137.38 251.628 136.301 251.683 135.262 251.683C134.21 251.683 133.144 251.614 132.133 251.489C129.06 251.088 126.678 249.952 126.678 248.014Z" fill="black"/>
<path fill-rule="evenodd" clip-rule="evenodd" d="M131.953 250.132L131.219 250.008C131.219 248.028 129.392 246.464 129.392 244.331C129.392 243.847 130.126 243.847 130.126 244.331C130.112 246.297 131.953 248 131.953 250.132ZM139.277 250.008L138.543 250.132C138.543 248 140.371 246.297 140.371 244.318C140.371 243.833 141.105 243.833 141.105 244.318C141.105 246.464 139.277 248.028 139.277 250.008Z" fill="#373737"/>
<path fill-rule="evenodd" clip-rule="evenodd" d="M121.791 214.385C120.435 215.078 119.092 215.77 117.735 216.462C117.167 216.753 116.849 217.237 116.849 217.805C116.849 221.474 116.849 225.157 116.849 228.825C116.849 229.255 117.015 229.615 117.361 229.919C117.929 230.418 118.482 230.916 119.05 231.4C119.05 234.612 119.05 237.838 119.05 241.05C119.05 245.425 151.447 245.425 151.447 241.05C151.447 237.838 151.447 234.612 151.447 231.4C152 230.902 152.568 230.404 153.136 229.919C153.482 229.615 153.648 229.255 153.648 228.825C153.648 225.157 153.648 221.474 153.648 217.805C153.648 217.237 153.33 216.753 152.762 216.462C151.405 215.77 150.062 215.078 148.705 214.385C148.705 208.917 148.705 203.448 148.705 197.993C148.705 197.135 147.889 196.429 146.878 196.429C139.125 196.429 131.386 196.429 123.633 196.429C122.622 196.429 121.805 197.135 121.805 197.993C121.791 203.448 121.791 208.917 121.791 214.385Z" fill="url(#paint1_linear)"/>
<path fill-rule="evenodd" clip-rule="evenodd" d="M116.849 217.805C116.849 221.474 116.849 225.157 116.849 228.825C116.849 229.255 117.015 229.615 117.361 229.919C117.929 230.418 118.482 230.916 119.05 231.4C119.05 234.612 119.05 237.838 119.05 241.05C119.05 245.425 151.447 245.425 151.447 241.05C151.447 237.838 151.447 234.612 151.447 231.4C152 230.902 152.568 230.404 153.136 229.919C153.482 229.615 153.648 229.255 153.648 228.825C153.648 225.157 153.648 221.474 153.648 217.805C153.648 217.237 153.33 216.753 152.762 216.462C151.405 215.77 150.062 215.078 148.705 214.385C148.705 208.917 148.705 203.448 148.705 197.993C148.705 197.135 147.889 196.429 146.878 196.429C139.125 196.429 131.386 196.429 123.633 196.429C122.622 196.429 121.805 197.135 121.805 197.993C121.805 203.462 121.805 208.931 121.805 214.385C120.448 215.078 119.105 215.77 117.749 216.462C117.167 216.753 116.849 217.237 116.849 217.805ZM117.139 215.285L120.476 213.582V197.979C120.476 197.149 120.864 196.401 121.473 195.861C122.041 195.377 122.802 195.086 123.633 195.086H146.864C147.695 195.086 148.456 195.39 149.024 195.861C149.647 196.387 150.021 197.135 150.021 197.979V213.582L153.357 215.285C153.856 215.534 154.243 215.881 154.52 216.296C154.811 216.739 154.977 217.251 154.977 217.805V228.825C154.977 229.227 154.894 229.615 154.714 229.974C154.548 230.321 154.313 230.625 154.008 230.902L152.776 231.996V241.05C152.776 243.487 148.041 244.899 141.977 245.398C139.845 245.577 137.547 245.661 135.248 245.661C132.95 245.661 130.652 245.577 128.52 245.398C122.456 244.899 117.721 243.487 117.721 241.05V231.996L116.489 230.902C116.184 230.625 115.949 230.321 115.783 229.974C115.617 229.615 115.52 229.227 115.52 228.825V217.805C115.52 217.265 115.672 216.753 115.977 216.296C116.253 215.881 116.641 215.534 117.139 215.285Z" fill="black"/>
<path fill-rule="evenodd" clip-rule="evenodd" d="M119.05 237.921C120.67 240.192 132.604 240.497 135.248 240.497C137.893 240.497 149.827 240.192 151.447 237.921V238.406C148.858 240.607 137.934 240.856 135.248 240.856C132.562 240.856 121.625 240.607 119.05 238.406V237.921Z" fill="#5B1E00"/>
<path fill-rule="evenodd" clip-rule="evenodd" d="M121.791 214.385C120.435 215.078 119.092 215.77 117.735 216.462C117.167 216.753 116.849 217.237 116.849 217.805C116.849 221.474 116.849 225.157 116.849 228.825C116.849 229.255 117.029 229.615 117.361 229.919C117.929 230.418 118.482 230.916 119.05 231.401C129.738 230.916 140.537 230.916 151.447 231.401C152 230.902 152.568 230.404 153.136 229.919C153.482 229.615 153.648 229.255 153.648 228.825C153.648 225.157 153.648 221.474 153.648 217.805C153.648 217.237 153.33 216.753 152.762 216.462C151.405 215.77 150.062 215.078 148.705 214.385C139.693 213.887 130.735 213.901 121.791 214.385Z" fill="url(#paint2_linear)"/>
<path fill-rule="evenodd" clip-rule="evenodd" d="M142.808 214.731H142.074V196.415H142.808V214.731ZM124.394 196.415H125.128V214.731H124.394V196.415ZM146.103 214.731H145.369V196.415H146.103V214.731ZM127.675 196.415H128.409V214.731H127.675V196.415Z" fill="url(#paint3_linear)"/>
<path opacity="0.5" fill-rule="evenodd" clip-rule="evenodd" d="M151.447 231.401C151.447 234.612 151.447 237.838 151.447 241.05C151.447 242.186 149.273 243.03 146.047 243.57C147.224 242.047 147.695 237.243 147.722 231.248C148.968 231.304 150.201 231.345 151.447 231.401ZM146.975 214.288C146.241 205.58 145.12 197.966 144.22 196.415C145.106 196.415 145.978 196.415 146.864 196.415C147.875 196.415 148.692 197.121 148.692 197.979C148.692 203.448 148.692 208.917 148.692 214.372C148.124 214.358 147.542 214.316 146.975 214.288Z" fill="url(#paint4_linear)"/>
<path opacity="0.5" fill-rule="evenodd" clip-rule="evenodd" d="M119.05 231.401C119.05 234.612 119.05 237.838 119.05 241.05C119.05 242.186 121.224 243.03 124.449 243.57C123.273 242.047 122.802 237.243 122.774 231.248C121.514 231.304 120.282 231.345 119.05 231.401ZM123.522 214.288C124.256 205.58 125.377 197.966 126.277 196.415C125.391 196.415 124.519 196.415 123.633 196.415C122.622 196.415 121.805 197.121 121.805 197.979C121.805 203.448 121.805 208.917 121.805 214.372C122.373 214.358 122.94 214.316 123.522 214.288Z" fill="url(#paint5_linear)"/>
<path fill-rule="evenodd" clip-rule="evenodd" d="M121.791 214.385V218.47L119.05 221.169V231.414L127.841 239.181H142.655L151.447 231.414V221.169L148.691 218.47V214.385L139.942 209.886V198.312C139.942 197.301 139.125 196.484 138.114 196.484H132.396C131.386 196.484 130.569 197.301 130.569 198.312V209.886L121.791 214.385Z" fill="url(#paint6_radial)"/>
<path fill-rule="evenodd" clip-rule="evenodd" d="M122.885 215.05V218.926L120.144 221.626V230.916L128.257 238.074H142.24L150.353 230.916V221.626L147.612 218.926V215.05L138.848 210.564V198.325C138.848 197.924 138.516 197.592 138.114 197.592H132.396C131.995 197.592 131.663 197.924 131.663 198.325V210.564L122.885 215.05Z" fill="url(#paint7_radial)"/>
<path fill-rule="evenodd" clip-rule="evenodd" d="M130.583 232.01V238.06H139.9V232.01C139.9 227.718 130.583 227.718 130.583 232.01Z" fill="url(#paint8_linear)"/>
<path fill-rule="evenodd" clip-rule="evenodd" d="M131.095 232.162V238.06H139.402V232.162C139.402 228.341 131.095 228.341 131.095 232.162Z" fill="url(#paint9_linear)"/>
<path fill-rule="evenodd" clip-rule="evenodd" d="M131.469 210.564C131.469 210.329 131.843 210.329 131.843 210.564V222.415H135.248V222.775H131.829C131.732 224.81 130.043 226.444 127.98 226.444H120.144V226.07H127.994C129.904 226.07 131.469 224.506 131.469 222.595V210.564Z" fill="#353535"/>
<path fill-rule="evenodd" clip-rule="evenodd" d="M139.028 210.564C139.028 210.329 138.654 210.329 138.654 210.564V222.415H135.248V222.775H138.668C138.765 224.81 140.454 226.444 142.517 226.444H150.367V226.07H142.517C140.606 226.07 139.042 224.506 139.042 222.595V210.564H139.028Z" fill="#353535"/>
<path opacity="0.5" fill-rule="evenodd" clip-rule="evenodd" d="M125.723 220.976V231.373C125.723 233.505 129.392 233.505 129.392 231.373V220.976C129.378 218.843 125.723 218.843 125.723 220.976Z" fill="url(#paint10_linear)"/>
<path fill-rule="evenodd" clip-rule="evenodd" d="M124.809 220.062V230.459C124.809 232.591 128.478 232.591 128.478 230.459V220.062C128.464 217.93 124.809 217.93 124.809 220.062Z" fill="url(#paint11_radial)"/>
<path opacity="0.5" fill-rule="evenodd" clip-rule="evenodd" d="M124.809 220.062V220.726C124.809 218.871 128.478 218.871 128.478 220.726V220.062C128.464 217.93 124.809 217.93 124.809 220.062ZM124.809 229.795V230.459C124.809 232.591 128.478 232.591 128.478 230.459V229.795C128.464 231.65 124.809 231.65 124.809 229.795Z" fill="#5B1E00"/>
<path opacity="0.5" fill-rule="evenodd" clip-rule="evenodd" d="M146.601 220.976V231.373C146.601 233.505 142.932 233.505 142.932 231.373V220.976C142.946 218.843 146.601 218.843 146.601 220.976Z" fill="url(#paint12_linear)"/>
<path fill-rule="evenodd" clip-rule="evenodd" d="M145.687 220.062V230.459C145.687 232.591 142.018 232.591 142.018 230.459V220.062C142.018 217.93 145.687 217.93 145.687 220.062Z" fill="url(#paint13_radial)"/>
<path opacity="0.5" fill-rule="evenodd" clip-rule="evenodd" d="M145.687 220.062V220.726C145.687 218.871 142.018 218.871 142.018 220.726V220.062C142.018 217.93 145.687 217.93 145.687 220.062ZM145.687 229.795V230.459C145.687 232.591 142.018 232.591 142.018 230.459V229.795C142.018 231.65 145.687 231.65 145.687 229.795Z" fill="#5B1E00"/>
<path fill-rule="evenodd" clip-rule="evenodd" d="M130.513 205.954C130.513 205.608 130.79 205.317 131.15 205.317C131.496 205.317 131.787 205.594 131.787 205.954C131.787 209.263 131.136 211.741 130.666 213.541C130.417 214.496 130.223 215.244 130.223 215.77C130.223 216.42 130.763 216.697 132.521 216.697C132.867 216.697 133.158 216.974 133.158 217.334C133.158 217.68 132.881 217.971 132.521 217.971C129.78 217.971 128.949 217.32 128.949 215.784C128.949 215.119 129.17 214.288 129.434 213.236C129.89 211.492 130.513 209.124 130.513 205.954Z" fill="#5B1E00"/>
<path fill-rule="evenodd" clip-rule="evenodd" d="M130.721 205.954C130.721 205.719 130.915 205.539 131.136 205.539C131.372 205.539 131.552 205.732 131.552 205.954C131.552 209.235 130.915 211.699 130.444 213.485C130.195 214.455 129.987 215.216 129.987 215.77C129.987 216.559 130.569 216.905 132.507 216.905C132.742 216.905 132.922 217.099 132.922 217.32C132.922 217.542 132.729 217.736 132.507 217.736C129.932 217.736 129.157 217.14 129.157 215.77C129.157 215.119 129.364 214.316 129.641 213.278C130.098 211.533 130.721 209.138 130.721 205.954Z" fill="url(#paint14_linear)"/>
<path fill-rule="evenodd" clip-rule="evenodd" d="M130.929 205.954C130.929 205.843 131.026 205.746 131.136 205.746C131.247 205.746 131.344 205.843 131.344 205.954C131.344 209.221 130.707 211.658 130.25 213.43C129.987 214.413 129.794 215.188 129.794 215.77C129.794 216.711 130.43 217.113 132.521 217.113C132.632 217.113 132.729 217.21 132.729 217.32C132.729 217.431 132.632 217.528 132.521 217.528C130.098 217.528 129.378 217.002 129.378 215.77C129.378 215.147 129.586 214.344 129.849 213.333C130.306 211.575 130.929 209.166 130.929 205.954Z" fill="url(#paint15_linear)"/>
<path fill-rule="evenodd" clip-rule="evenodd" d="M139.983 205.954C139.983 205.608 139.706 205.317 139.346 205.317C139 205.317 138.709 205.594 138.709 205.954C138.709 209.263 139.36 211.741 139.831 213.541C140.08 214.496 140.274 215.244 140.274 215.77C140.274 216.42 139.734 216.697 137.976 216.697C137.63 216.697 137.339 216.974 137.339 217.334C137.339 217.68 137.616 217.971 137.976 217.971C140.717 217.971 141.548 217.32 141.548 215.784C141.548 215.119 141.326 214.288 141.063 213.236C140.606 211.492 139.983 209.124 139.983 205.954Z" fill="#5B1E00"/>
<path fill-rule="evenodd" clip-rule="evenodd" d="M139.776 205.954C139.776 205.719 139.582 205.539 139.36 205.539C139.125 205.539 138.945 205.732 138.945 205.954C138.945 209.235 139.582 211.699 140.052 213.485C140.302 214.455 140.509 215.216 140.509 215.77C140.509 216.559 139.928 216.905 137.99 216.905C137.754 216.905 137.574 217.099 137.574 217.32C137.574 217.542 137.768 217.736 137.99 217.736C140.565 217.736 141.34 217.14 141.34 215.77C141.34 215.119 141.132 214.316 140.855 213.278C140.399 211.533 139.776 209.138 139.776 205.954Z" fill="url(#paint16_linear)"/>
<path fill-rule="evenodd" clip-rule="evenodd" d="M139.568 205.954C139.568 205.843 139.471 205.746 139.36 205.746C139.249 205.746 139.153 205.843 139.153 205.954C139.153 209.221 139.789 211.658 140.246 213.43C140.509 214.413 140.703 215.188 140.703 215.77C140.703 216.711 140.066 217.113 137.976 217.113C137.865 217.113 137.768 217.21 137.768 217.32C137.768 217.431 137.865 217.528 137.976 217.528C140.399 217.528 141.118 217.002 141.118 215.77C141.118 215.147 140.911 214.344 140.648 213.333C140.191 211.575 139.568 209.166 139.568 205.954Z" fill="url(#paint17_linear)"/>
<path opacity="0.5" fill-rule="evenodd" clip-rule="evenodd" d="M135.248 202.687C137.962 202.687 140.163 204.888 140.163 207.601C140.163 210.315 137.962 212.516 135.248 212.516C132.535 212.516 130.333 210.315 130.333 207.601C130.333 204.888 132.535 202.687 135.248 202.687Z" fill="url(#paint18_linear)"/>
<path fill-rule="evenodd" clip-rule="evenodd" d="M135.248 201.773C137.962 201.773 140.163 203.974 140.163 206.688C140.163 209.401 137.962 211.602 135.248 211.602C132.535 211.602 130.333 209.401 130.333 206.688C130.333 203.974 132.535 201.773 135.248 201.773Z" fill="#5B1E00"/>
<path fill-rule="evenodd" clip-rule="evenodd" d="M135.248 202.147C137.754 202.147 139.789 204.182 139.789 206.688C139.789 209.194 137.754 211.229 135.248 211.229C132.742 211.229 130.707 209.194 130.707 206.688C130.707 204.168 132.742 202.147 135.248 202.147Z" fill="url(#paint19_linear)"/>
<path d="M135.248 210.163C137.167 210.163 138.723 208.607 138.723 206.688C138.723 204.768 137.167 203.213 135.248 203.213C133.329 203.213 131.773 204.768 131.773 206.688C131.773 208.607 133.329 210.163 135.248 210.163Z" fill="url(#paint20_linear)"/>
<path opacity="0.5" fill-rule="evenodd" clip-rule="evenodd" d="M135.248 203.213C135.027 205.068 136.91 207.629 138.723 206.688C138.723 208.598 137.173 210.163 135.248 210.163C135.788 207.878 133.393 205.58 131.773 206.688C131.773 204.763 133.324 203.213 135.248 203.213Z" fill="url(#paint21_linear)"/>
<path fill-rule="evenodd" clip-rule="evenodd" d="M135.248 203.476C137.02 203.476 138.46 204.915 138.46 206.688C138.46 208.46 137.02 209.9 135.248 209.9C133.476 209.9 132.036 208.46 132.036 206.688C132.036 204.915 133.476 203.476 135.248 203.476Z" fill="url(#paint22_linear)"/>
<path fill-rule="evenodd" clip-rule="evenodd" d="M135.248 204.514C136.439 204.514 137.408 205.483 137.408 206.674C137.408 207.864 136.439 208.833 135.248 208.833C134.058 208.833 133.089 207.864 133.089 206.674C133.089 205.483 134.058 204.514 135.248 204.514Z" fill="url(#paint23_linear)"/>
<path fill-rule="evenodd" clip-rule="evenodd" d="M135.248 204.846C136.259 204.846 137.076 205.663 137.076 206.674C137.076 207.684 136.259 208.501 135.248 208.501C134.238 208.501 133.421 207.684 133.421 206.674C133.407 205.677 134.238 204.846 135.248 204.846Z" fill="url(#paint24_linear)"/>
<path opacity="0.5" fill-rule="evenodd" clip-rule="evenodd" d="M135.331 213.956C137.283 213.956 138.876 215.548 138.876 217.5C138.876 219.452 137.283 221.044 135.331 221.044C133.379 221.044 131.787 219.452 131.787 217.5C131.787 215.548 133.379 213.956 135.331 213.956Z" fill="url(#paint25_linear)"/>
<path fill-rule="evenodd" clip-rule="evenodd" d="M135.331 213.042C137.283 213.042 138.876 214.634 138.876 216.586C138.876 218.539 137.283 220.131 135.331 220.131C133.379 220.131 131.787 218.539 131.787 216.586C131.787 214.634 133.379 213.042 135.331 213.042Z" fill="#5B1E00"/>
<path fill-rule="evenodd" clip-rule="evenodd" d="M135.331 213.402C137.09 213.402 138.529 214.828 138.529 216.6C138.529 218.359 137.103 219.798 135.331 219.798C133.573 219.798 132.133 218.372 132.133 216.6C132.147 214.828 133.573 213.402 135.331 213.402Z" fill="url(#paint26_linear)"/>
<path opacity="0.5" fill-rule="evenodd" clip-rule="evenodd" d="M135.331 213.402C133.213 215.687 137.228 220.795 138.529 216.6C138.529 218.359 137.103 219.798 135.331 219.798C135.553 215.465 133.075 214.344 132.133 216.6C132.147 214.828 133.573 213.402 135.331 213.402Z" fill="url(#paint27_linear)"/>
<path fill-rule="evenodd" clip-rule="evenodd" d="M135.331 214.482C136.494 214.482 137.436 215.423 137.436 216.586C137.436 217.749 136.494 218.691 135.331 218.691C134.168 218.691 133.227 217.749 133.227 216.586C133.227 215.423 134.168 214.482 135.331 214.482Z" fill="url(#paint28_linear)"/>
<path opacity="0.5" fill-rule="evenodd" clip-rule="evenodd" d="M135.331 214.482C134.016 216.545 135.858 217.639 137.436 216.586C137.436 217.749 136.494 218.691 135.331 218.691C137.796 218.22 134.348 215.673 133.227 216.586C133.227 215.437 134.168 214.482 135.331 214.482Z" fill="url(#paint29_linear)"/>
<path fill-rule="evenodd" clip-rule="evenodd" d="M135.331 214.801C136.314 214.801 137.117 215.604 137.117 216.587C137.117 217.569 136.314 218.372 135.331 218.372C134.348 218.372 133.545 217.569 133.545 216.587C133.545 215.604 134.348 214.801 135.331 214.801Z" fill="url(#paint30_linear)"/>
<path fill-rule="evenodd" clip-rule="evenodd" d="M133.116 223.108H133.421C133.919 223.108 134.335 223.523 134.335 224.021V227.358C134.335 227.856 133.933 228.272 133.421 228.272H133.116C132.618 228.272 132.203 227.856 132.203 227.358V224.021C132.203 223.523 132.618 223.108 133.116 223.108Z" fill="#353535"/>
<path fill-rule="evenodd" clip-rule="evenodd" d="M133.116 223.412H133.421C133.753 223.412 134.03 223.689 134.03 224.021V227.358C134.03 227.69 133.753 227.967 133.421 227.967H133.116C132.784 227.967 132.507 227.69 132.507 227.358V224.021C132.507 223.689 132.784 223.412 133.116 223.412Z" fill="url(#paint31_linear)"/>
<path fill-rule="evenodd" clip-rule="evenodd" d="M133.144 223.647H133.38C133.643 223.647 133.85 223.855 133.85 224.118V227.219C133.85 227.482 133.643 227.69 133.38 227.69H133.144C132.881 227.69 132.673 227.482 132.673 227.219V224.118C132.673 223.869 132.881 223.647 133.144 223.647Z" fill="url(#paint32_radial)"/>
<path opacity="0.5" fill-rule="evenodd" clip-rule="evenodd" d="M133.116 223.412C133.213 223.412 133.324 223.412 133.421 223.412C133.103 223.855 133.49 227.69 134.03 227.358C134.03 227.69 133.753 227.967 133.421 227.967C133.324 227.967 133.213 227.967 133.116 227.967C133.684 224.977 132.673 224.132 132.507 224.021C132.507 223.689 132.784 223.412 133.116 223.412Z" fill="url(#paint33_linear)"/>
<path fill-rule="evenodd" clip-rule="evenodd" d="M137.38 223.108H137.076C136.577 223.108 136.162 223.523 136.162 224.021V227.358C136.162 227.856 136.577 228.272 137.076 228.272H137.38C137.879 228.272 138.294 227.856 138.294 227.358V224.021C138.28 223.523 137.879 223.108 137.38 223.108Z" fill="#353535"/>
<path fill-rule="evenodd" clip-rule="evenodd" d="M137.38 223.412H137.076C136.744 223.412 136.467 223.689 136.467 224.021V227.358C136.467 227.69 136.744 227.967 137.076 227.967H137.38C137.713 227.967 137.99 227.69 137.99 227.358V224.021C137.976 223.689 137.713 223.412 137.38 223.412Z" fill="url(#paint34_linear)"/>
<path fill-rule="evenodd" clip-rule="evenodd" d="M137.339 223.647H137.104C136.841 223.647 136.633 223.855 136.633 224.118V227.219C136.633 227.482 136.841 227.69 137.104 227.69H137.339C137.602 227.69 137.81 227.482 137.81 227.219V224.118C137.824 223.869 137.602 223.647 137.339 223.647Z" fill="url(#paint35_radial)"/>
<path opacity="0.5" fill-rule="evenodd" clip-rule="evenodd" d="M137.38 223.412C137.284 223.412 137.173 223.412 137.076 223.412C137.394 223.855 137.02 227.69 136.467 227.358C136.467 227.69 136.744 227.967 137.076 227.967C137.173 227.967 137.284 227.967 137.38 227.967C136.813 224.977 137.823 224.132 137.99 224.021C137.976 223.689 137.713 223.412 137.38 223.412Z" fill="url(#paint36_linear)"/>
<path opacity="0.5" fill-rule="evenodd" clip-rule="evenodd" d="M121.791 214.385C120.435 215.078 119.092 215.77 117.735 216.462C117.167 216.753 116.849 217.237 116.849 217.805C116.849 221.474 116.849 225.156 116.849 228.825C116.849 229.255 117.015 229.614 117.361 229.919C117.929 230.417 118.482 230.916 119.05 231.4C119.036 214.551 151.433 214.233 151.447 231.4C152 230.902 152.568 230.404 153.136 229.919C153.482 229.614 153.648 229.255 153.648 228.825C153.648 225.156 153.648 221.474 153.648 217.805C153.648 217.237 153.33 216.753 152.762 216.462C151.405 215.77 150.062 215.078 148.705 214.385C148.705 208.917 148.705 203.448 148.705 197.993C148.705 197.135 147.889 196.429 146.878 196.429C139.125 196.429 131.386 196.429 123.633 196.429C122.622 196.429 121.805 197.135 121.805 197.993C121.791 203.448 121.791 208.917 121.791 214.385Z" fill="url(#paint37_linear)"/>
</g>
</g>
<defs>
<linearGradient id="paint0_linear" x1="127.837" y1="245.734" x2="142.493" y2="245.732" gradientUnits="userSpaceOnUse">
<stop stop-color="#212427"/>
<stop offset="0.52" stop-color="#B8B9B8"/>
<stop offset="1" stop-color="#23272A"/>
</linearGradient>
<linearGradient id="paint1_linear" x1="135.245" y1="199.672" x2="135.246" y2="244.337" gradientUnits="userSpaceOnUse">
<stop stop-color="#F89952"/>
<stop offset="0.42" stop-color="#FFD13A"/>
<stop offset="1" stop-color="#FAEF5F"/>
</linearGradient>
<linearGradient id="paint2_linear" x1="116.845" y1="222.711" x2="153.646" y2="222.709" gradientUnits="userSpaceOnUse">
<stop stop-color="#23272A"/>
<stop offset="0.5" stop-color="#B8B9B8"/>
<stop offset="1" stop-color="#23272A"/>
</linearGradient>
<linearGradient id="paint3_linear" x1="135.245" y1="214.97" x2="135.246" y2="196.674" gradientUnits="userSpaceOnUse">
<stop stop-color="#5C1800"/>
<stop offset="1" stop-color="#FFD13A"/>
</linearGradient>
<linearGradient id="paint4_linear" x1="151.554" y1="219.996" x2="143.936" y2="219.995" gradientUnits="userSpaceOnUse">
<stop stop-color="#5C1800"/>
<stop offset="1" stop-color="#FFF032"/>
</linearGradient>
<linearGradient id="paint5_linear" x1="118.937" y1="219.996" x2="126.554" y2="219.995" gradientUnits="userSpaceOnUse">
<stop stop-color="#5C1800"/>
<stop offset="1" stop-color="#FFF032"/>
</linearGradient>
<radialGradient id="paint6_radial" cx="0" cy="0" r="1" gradientUnits="userSpaceOnUse" gradientTransform="translate(135.246 221.273) rotate(-89.9918) scale(25.1264 13.0582)">
<stop stop-color="white"/>
<stop offset="1" stop-color="#B5B8B8"/>
</radialGradient>
<radialGradient id="paint7_radial" cx="0" cy="0" r="1" gradientUnits="userSpaceOnUse" gradientTransform="translate(135.152 221.435) rotate(-90.0028) scale(22.3461 12.6412)">
<stop stop-color="#B8B9B8"/>
<stop offset="1" stop-color="#23272A"/>
</radialGradient>
<linearGradient id="paint8_linear" x1="135.245" y1="238.066" x2="135.247" y2="228.793" gradientUnits="userSpaceOnUse">
<stop stop-color="#B8B9B8"/>
<stop offset="1" stop-color="#212427"/>
</linearGradient>
<linearGradient id="paint9_linear" x1="135.245" y1="237.978" x2="135.247" y2="229.297" gradientUnits="userSpaceOnUse">
<stop stop-color="#23272A"/>
<stop offset="1"/>
</linearGradient>
<linearGradient id="paint10_linear" x1="127.551" y1="219.78" x2="127.553" y2="232.897" gradientUnits="userSpaceOnUse">
<stop stop-color="#5C1800"/>
<stop offset="1" stop-color="white"/>
</linearGradient>
<radialGradient id="paint11_radial" cx="0" cy="0" r="1" gradientUnits="userSpaceOnUse" gradientTransform="translate(126.641 225.257) rotate(-89.9969) scale(6.7998 1.38444)">
<stop stop-color="#FAEF5F"/>
<stop offset="1" stop-color="#FFD13A"/>
</radialGradient>
<linearGradient id="paint12_linear" x1="144.772" y1="219.78" x2="144.771" y2="232.897" gradientUnits="userSpaceOnUse">
<stop stop-color="#5C1800"/>
<stop offset="1" stop-color="white"/>
</linearGradient>
<radialGradient id="paint13_radial" cx="0" cy="0" r="1" gradientUnits="userSpaceOnUse" gradientTransform="translate(143.851 225.257) rotate(-90.0031) scale(6.7996 1.3844)">
<stop stop-color="#FAEF5F"/>
<stop offset="1" stop-color="#FFD13A"/>
</radialGradient>
<linearGradient id="paint14_linear" x1="129.722" y1="206.445" x2="131.32" y2="217.776" gradientUnits="userSpaceOnUse">
<stop stop-color="#FFD13A"/>
<stop offset="0.53" stop-color="#FAEF5F"/>
<stop offset="1" stop-color="#FFD13A"/>
</linearGradient>
<linearGradient id="paint15_linear" x1="129.895" y1="206.621" x2="131.164" y2="217.65" gradientUnits="userSpaceOnUse">
<stop stop-color="#3B3092"/>
<stop offset="0.51" stop-color="#A5DBDB"/>
<stop offset="1" stop-color="#3B3092"/>
</linearGradient>
<linearGradient id="paint16_linear" x1="140.769" y1="206.445" x2="139.171" y2="217.776" gradientUnits="userSpaceOnUse">
<stop stop-color="#FFD13A"/>
<stop offset="0.53" stop-color="#FAEF5F"/>
<stop offset="1" stop-color="#FFD13A"/>
</linearGradient>
<linearGradient id="paint17_linear" x1="140.596" y1="206.621" x2="139.327" y2="217.65" gradientUnits="userSpaceOnUse">
<stop stop-color="#3B3092"/>
<stop offset="0.51" stop-color="#A5DBDB"/>
<stop offset="1" stop-color="#3B3092"/>
</linearGradient>
<linearGradient id="paint18_linear" x1="135.246" y1="208.512" x2="135.248" y2="212.504" gradientUnits="userSpaceOnUse">
<stop stop-color="#5C1800"/>
<stop offset="1" stop-color="white"/>
</linearGradient>
<linearGradient id="paint19_linear" x1="135.244" y1="211.166" x2="135.247" y2="202.143" gradientUnits="userSpaceOnUse">
<stop stop-color="#F89952"/>
<stop offset="1" stop-color="#FAEF5F"/>
</linearGradient>
<linearGradient id="paint20_linear" x1="135.245" y1="210.143" x2="135.246" y2="203.212" gradientUnits="userSpaceOnUse">
<stop stop-color="#3B3092"/>
<stop offset="1" stop-color="#2B3594"/>
</linearGradient>
<linearGradient id="paint21_linear" x1="136.767" y1="208.331" x2="133.582" y2="204.88" gradientUnits="userSpaceOnUse">
<stop stop-color="#A5DBDB"/>
<stop offset="1" stop-color="white"/>
</linearGradient>
<linearGradient id="paint22_linear" x1="135.244" y1="203.755" x2="135.247" y2="209.892" gradientUnits="userSpaceOnUse">
<stop stop-color="#FFF032"/>
<stop offset="1" stop-color="#FAEF5F"/>
</linearGradient>
<linearGradient id="paint23_linear" x1="135.245" y1="208.838" x2="135.246" y2="204.521" gradientUnits="userSpaceOnUse">
<stop stop-color="#3B3092"/>
<stop offset="1" stop-color="#2B3594"/>
</linearGradient>
<linearGradient id="paint24_linear" x1="135.245" y1="205.012" x2="135.246" y2="208.514" gradientUnits="userSpaceOnUse">
<stop stop-color="#FFF032"/>
<stop offset="1" stop-color="#FAEF5F"/>
</linearGradient>
<linearGradient id="paint25_linear" x1="135.333" y1="218.165" x2="135.334" y2="221.049" gradientUnits="userSpaceOnUse">
<stop stop-color="#5C1800"/>
<stop offset="1" stop-color="white"/>
</linearGradient>
<linearGradient id="paint26_linear" x1="135.332" y1="219.74" x2="135.333" y2="213.398" gradientUnits="userSpaceOnUse">
<stop stop-color="#FFF032"/>
<stop offset="1" stop-color="#FAEF5F"/>
</linearGradient>
<linearGradient id="paint27_linear" x1="136.349" y1="218.048" x2="134.244" y2="215.029" gradientUnits="userSpaceOnUse">
<stop stop-color="#FAEF5F"/>
<stop offset="1" stop-color="white"/>
</linearGradient>
<linearGradient id="paint28_linear" x1="135.332" y1="218.542" x2="135.333" y2="214.599" gradientUnits="userSpaceOnUse">
<stop stop-color="#3B3092"/>
<stop offset="1" stop-color="#2B3594"/>
</linearGradient>
<linearGradient id="paint29_linear" x1="136.35" y1="217.495" x2="134.224" y2="215.602" gradientUnits="userSpaceOnUse">
<stop stop-color="#A5DBDB"/>
<stop offset="1" stop-color="white"/>
</linearGradient>
<linearGradient id="paint30_linear" x1="135.332" y1="218.372" x2="135.333" y2="214.807" gradientUnits="userSpaceOnUse">
<stop stop-color="#FAEF5F"/>
<stop offset="1" stop-color="#FDFAD3"/>
</linearGradient>
<linearGradient id="paint31_linear" x1="133.267" y1="227.879" x2="133.268" y2="223.413" gradientUnits="userSpaceOnUse">
<stop stop-color="#020035"/>
<stop offset="1" stop-color="#472F92"/>
</linearGradient>
<radialGradient id="paint32_radial" cx="0" cy="0" r="1" gradientUnits="userSpaceOnUse" gradientTransform="translate(133.25 225.783) rotate(-89.9939) scale(1.99067 0.740927)">
<stop stop-color="#2B3594"/>
<stop offset="1" stop-color="#3B3092"/>
</radialGradient>
<linearGradient id="paint33_linear" x1="133.556" y1="227.524" x2="132.927" y2="223.523" gradientUnits="userSpaceOnUse">
<stop stop-color="#3B3092"/>
<stop offset="1" stop-color="white"/>
</linearGradient>
<linearGradient id="paint34_linear" x1="137.224" y1="227.879" x2="137.223" y2="223.413" gradientUnits="userSpaceOnUse">
<stop stop-color="#020035"/>
<stop offset="1" stop-color="#472F92"/>
</linearGradient>
<radialGradient id="paint35_radial" cx="0" cy="0" r="1" gradientUnits="userSpaceOnUse" gradientTransform="translate(137.241 225.783) rotate(-90.0061) scale(1.99071 0.740939)">
<stop stop-color="#2B3594"/>
<stop offset="1" stop-color="#3B3092"/>
</radialGradient>
<linearGradient id="paint36_linear" x1="136.935" y1="227.524" x2="137.564" y2="223.523" gradientUnits="userSpaceOnUse">
<stop stop-color="#3B3092"/>
<stop offset="1" stop-color="white"/>
</linearGradient>
<linearGradient id="paint37_linear" x1="135.245" y1="196.519" x2="135.246" y2="245.731" gradientUnits="userSpaceOnUse">
<stop stop-color="#FFD13A"/>
<stop offset="1" stop-color="white"/>
</linearGradient>
<clipPath id="clip0">
<rect width="270" height="370" fill="white"/>
</clipPath>
<clipPath id="clip1">
<rect x="65.3188" y="89.3953" width="139.859" height="163.451" fill="white"/>
</clipPath>
</defs>
</svg>
