<svg width="270" height="370" viewBox="0 0 270 370" fill="none" xmlns="http://www.w3.org/2000/svg">
<g clip-path="url(#clip0)">
<g clip-path="url(#clip1)">
<path fill-rule="evenodd" clip-rule="evenodd" d="M130.154 198.09V194.075C130.154 193.065 129.337 192.248 128.326 192.248H123.73C122.719 192.248 121.902 193.065 121.902 194.075V213.236L120.075 214.289C118.912 214.967 118.247 216.116 118.247 217.459V227.358H120.504V239.264C120.504 240.58 120.698 241.701 121.141 242.947L131.483 271.993C131.746 272.741 132.424 273.212 133.213 273.212H137.284C138.073 273.212 138.751 272.741 139.014 271.993L149.356 242.947C149.799 241.701 149.993 240.58 149.993 239.264V227.358H152.25V217.459C152.25 216.116 151.585 214.967 150.422 214.289L148.595 213.236V194.061C148.595 193.051 147.778 192.234 146.767 192.234H142.143C141.132 192.234 140.316 193.051 140.316 194.061V198.076H130.154V198.09Z" fill="url(#paint0_linear)"/>
<path fill-rule="evenodd" clip-rule="evenodd" d="M130.154 198.09V194.075C130.154 193.065 129.337 192.248 128.326 192.248H123.73C122.719 192.248 121.902 193.065 121.902 194.075V213.236L120.075 214.289C118.912 214.967 118.247 216.116 118.247 217.459V227.358H120.504V239.264C120.504 240.58 120.698 241.701 121.141 242.947L131.483 271.993C131.746 272.741 132.424 273.212 133.213 273.212H137.284C138.073 273.212 138.751 272.741 139.014 271.993L149.356 242.947C149.799 241.701 149.993 240.58 149.993 239.264V227.358H152.25V217.459C152.25 216.116 151.585 214.967 150.422 214.289L148.595 213.236V194.061C148.595 193.051 147.778 192.234 146.767 192.234H142.143C141.132 192.234 140.316 193.051 140.316 194.061V198.076H130.154V198.09ZM131.483 194.061V196.747H138.987V194.061C138.987 193.189 139.347 192.4 139.914 191.832C140.482 191.265 141.271 190.905 142.143 190.905H146.74C147.556 190.905 148.318 191.223 148.872 191.749C148.899 191.777 148.941 191.805 148.969 191.832C149.536 192.4 149.896 193.189 149.896 194.061V212.461L151.059 213.139C151.834 213.596 152.457 214.219 152.887 214.967C153.316 215.715 153.551 216.559 153.551 217.459V227.358C153.551 228.092 152.956 228.687 152.222 228.687H151.294V239.264C151.294 239.998 151.239 240.677 151.114 241.355C151.004 242.033 150.824 242.698 150.575 243.39L140.233 272.436C140.011 273.073 139.596 273.599 139.083 273.973C138.557 274.333 137.934 274.541 137.256 274.541H133.186C132.507 274.541 131.884 274.333 131.358 273.973C130.832 273.599 130.431 273.087 130.209 272.436L119.867 243.39C119.618 242.698 119.438 242.033 119.327 241.355C119.216 240.677 119.147 239.984 119.147 239.264V228.687H118.219C117.486 228.687 116.89 228.092 116.89 227.358V217.459C116.89 216.559 117.126 215.715 117.555 214.967C117.984 214.219 118.607 213.596 119.382 213.139L120.545 212.461V194.061C120.545 193.189 120.905 192.4 121.473 191.832C122.041 191.265 122.83 190.905 123.702 190.905H128.298C129.115 190.905 129.877 191.223 130.431 191.749C130.458 191.777 130.5 191.805 130.527 191.832C131.123 192.4 131.483 193.189 131.483 194.061Z" fill="black"/>
<path fill-rule="evenodd" clip-rule="evenodd" d="M121.127 242.947C124.574 252.625 128.022 262.316 131.469 271.993C131.732 272.741 132.41 273.212 133.199 273.212C134.556 273.212 135.913 273.212 137.27 273.212C138.059 273.212 138.737 272.741 139 271.993C142.448 262.316 145.895 252.625 149.342 242.947C139.845 247.931 130.444 247.876 121.127 242.947Z" fill="url(#paint1_linear)"/>
<path opacity="0.5" fill-rule="evenodd" clip-rule="evenodd" d="M129.489 266.428L131.469 271.993C131.732 272.741 132.41 273.212 133.199 273.212C134.556 273.212 135.913 273.212 137.27 273.212C138.059 273.212 138.737 272.741 139 271.993L140.98 266.428C138.82 271.093 131.635 271.093 129.489 266.428Z" fill="url(#paint2_linear)"/>
<path fill-rule="evenodd" clip-rule="evenodd" d="M120.49 227.344C120.49 231.317 120.49 235.291 120.49 239.25C120.49 240.69 129.24 243.888 135.221 243.888C141.202 243.888 149.952 240.69 149.952 239.25C149.952 235.277 149.952 231.317 149.952 227.344H120.49Z" fill="url(#paint3_linear)"/>
<path fill-rule="evenodd" clip-rule="evenodd" d="M121.93 227.344C121.93 230.93 121.93 235.319 121.93 238.904C121.93 240.192 129.835 243.085 135.235 243.085C140.634 243.085 148.539 240.192 148.539 238.904C148.539 235.319 148.539 230.93 148.539 227.344H121.93Z" fill="url(#paint4_linear)"/>
<path fill-rule="evenodd" clip-rule="evenodd" d="M130.154 198.09C130.154 203.144 130.154 208.183 130.154 213.236C127.399 213.236 124.643 213.236 121.902 213.236C121.293 213.582 120.684 213.942 120.075 214.289C118.912 214.967 118.247 216.116 118.247 217.459C118.247 220.754 118.247 224.063 118.247 227.358C121.168 227.358 149.287 227.358 152.222 227.358C152.222 224.063 152.222 220.754 152.222 217.459C152.222 216.116 151.558 214.967 150.395 214.289C149.785 213.942 149.176 213.582 148.567 213.236C145.812 213.236 143.057 213.236 140.316 213.236C140.316 208.183 140.316 203.144 140.316 198.09C136.924 198.09 133.532 198.09 130.154 198.09Z" fill="url(#paint5_linear)"/>
<path fill-rule="evenodd" clip-rule="evenodd" d="M131.067 198.907C131.067 203.033 131.067 209.914 131.067 214.053C128.811 214.053 124.727 214.053 122.47 214.053C121.971 214.344 121.473 214.635 120.975 214.925C120.019 215.479 119.479 216.421 119.479 217.514C119.479 220.214 119.479 223.827 119.479 226.527C121.875 226.527 148.553 226.527 150.948 226.527C150.948 223.827 150.948 220.214 150.948 217.514C150.948 216.421 150.408 215.465 149.453 214.925C148.955 214.635 148.456 214.344 147.958 214.053C145.701 214.053 141.617 214.053 139.36 214.053C139.36 209.927 139.36 203.047 139.36 198.907C136.619 198.907 133.85 198.907 131.067 198.907Z" fill="url(#paint6_linear)"/>
<path fill-rule="evenodd" clip-rule="evenodd" d="M130.154 213.222C130.154 222.166 130.154 232.743 130.154 241.881C130.154 242.822 130.86 243.612 131.801 243.708C134.182 243.944 136.273 243.944 138.654 243.708C139.596 243.612 140.302 242.836 140.302 241.881C140.302 232.743 140.302 222.18 140.302 213.222C140.302 212.212 139.485 211.395 138.474 211.395C136.314 211.395 134.141 211.395 131.981 211.395C130.97 211.395 130.154 212.212 130.154 213.222Z" fill="url(#paint7_linear)"/>
<path fill-rule="evenodd" clip-rule="evenodd" d="M126.776 258.924C127.288 260.322 127.8 261.707 128.312 263.105C131.524 264.365 138.931 264.365 142.143 263.105C142.655 261.707 143.168 260.322 143.68 258.924C138.793 260.17 131.677 260.17 126.776 258.924Z" fill="url(#paint8_linear)"/>
<path fill-rule="evenodd" clip-rule="evenodd" d="M129.434 210.634V194.643C129.434 193.812 128.755 193.134 127.925 193.134H124.131C123.3 193.134 122.622 193.812 122.622 194.643V210.634C122.622 211.561 123.384 212.323 124.311 212.323H127.745C128.686 212.323 129.434 211.561 129.434 210.634Z" fill="#1F00C1"/>
<path fill-rule="evenodd" clip-rule="evenodd" d="M129.074 210.634V194.643C129.074 194.006 128.561 193.494 127.924 193.494H124.131C123.494 193.494 122.982 194.006 122.982 194.643V210.634C122.982 211.367 123.577 211.963 124.311 211.963H127.745C128.478 211.963 129.074 211.367 129.074 210.634Z" fill="url(#paint9_radial)"/>
<path d="M127.745 193.494H124.297V211.949H127.745V193.494Z" fill="url(#paint10_linear)"/>
<path d="M126.845 193.494H125.197V211.949H126.845V193.494Z" fill="url(#paint11_linear)"/>
<path opacity="0.5" fill-rule="evenodd" clip-rule="evenodd" d="M124.297 193.494C125.446 193.494 125.529 193.494 126.679 193.494C127.302 195.404 125.889 211.049 127.758 211.949C126.609 211.949 126.36 211.949 125.211 211.949C126.028 200.651 126.319 196.872 124.297 193.494Z" fill="url(#paint12_linear)"/>
<path fill-rule="evenodd" clip-rule="evenodd" d="M141.022 210.634V194.643C141.022 193.812 141.7 193.134 142.531 193.134H146.324C147.155 193.134 147.833 193.812 147.833 194.643V210.634C147.833 211.561 147.072 212.323 146.144 212.323H142.697C141.783 212.323 141.022 211.561 141.022 210.634Z" fill="#1F00C1"/>
<path fill-rule="evenodd" clip-rule="evenodd" d="M141.396 210.634V194.643C141.396 194.006 141.908 193.494 142.545 193.494H146.338C146.975 193.494 147.487 194.006 147.487 194.643V210.634C147.487 211.367 146.892 211.963 146.158 211.963H142.711C141.991 211.963 141.396 211.367 141.396 210.634Z" fill="url(#paint13_radial)"/>
<path d="M146.158 193.494H142.711V211.949H146.158V193.494Z" fill="url(#paint14_linear)"/>
<path d="M145.258 193.494H143.611V211.949H145.258V193.494Z" fill="url(#paint15_linear)"/>
<path opacity="0.5" fill-rule="evenodd" clip-rule="evenodd" d="M146.158 193.494C145.009 193.494 144.926 193.494 143.777 193.494C143.154 195.404 144.566 211.049 142.697 211.949C143.846 211.949 144.095 211.949 145.244 211.949C144.441 200.651 144.151 196.872 146.158 193.494Z" fill="url(#paint16_linear)"/>
<path fill-rule="evenodd" clip-rule="evenodd" d="M130.5 205.94C130.5 205.594 130.777 205.303 131.136 205.303C131.483 205.303 131.773 205.58 131.773 205.94C131.773 209.249 131.123 211.727 130.652 213.527C130.403 214.482 130.209 215.23 130.209 215.756C130.209 216.407 130.749 216.684 132.507 216.684C132.853 216.684 133.144 216.96 133.144 217.32C133.144 217.667 132.867 217.957 132.507 217.957C129.766 217.957 128.935 217.307 128.935 215.77C128.935 215.105 129.157 214.275 129.42 213.222C129.877 211.478 130.5 209.097 130.5 205.94Z" fill="#5B1E00"/>
<path fill-rule="evenodd" clip-rule="evenodd" d="M130.707 205.94C130.707 205.705 130.901 205.525 131.123 205.525C131.358 205.525 131.538 205.719 131.538 205.94C131.538 209.221 130.901 211.686 130.43 213.472C130.181 214.441 129.974 215.202 129.974 215.756C129.974 216.545 130.555 216.891 132.493 216.891C132.729 216.891 132.909 217.085 132.909 217.307C132.909 217.528 132.715 217.722 132.493 217.722C129.918 217.722 129.143 217.127 129.143 215.756C129.143 215.105 129.35 214.302 129.627 213.264C130.084 211.52 130.707 209.124 130.707 205.94Z" fill="url(#paint17_linear)"/>
<path fill-rule="evenodd" clip-rule="evenodd" d="M130.915 205.94C130.915 205.829 131.012 205.732 131.123 205.732C131.233 205.732 131.33 205.829 131.33 205.94C131.33 209.207 130.693 211.644 130.237 213.416C129.974 214.399 129.78 215.174 129.78 215.756C129.78 216.697 130.417 217.099 132.507 217.099C132.618 217.099 132.715 217.196 132.715 217.307C132.715 217.417 132.618 217.514 132.507 217.514C130.084 217.514 129.364 216.988 129.364 215.756C129.364 215.133 129.572 214.33 129.835 213.319C130.278 211.561 130.915 209.152 130.915 205.94Z" fill="url(#paint18_linear)"/>
<path fill-rule="evenodd" clip-rule="evenodd" d="M139.969 205.94C139.969 205.594 139.693 205.303 139.333 205.303C138.986 205.303 138.696 205.58 138.696 205.94C138.696 209.249 139.346 211.727 139.817 213.527C140.066 214.482 140.26 215.23 140.26 215.756C140.26 216.407 139.72 216.684 137.962 216.684C137.616 216.684 137.325 216.96 137.325 217.32C137.325 217.667 137.602 217.957 137.962 217.957C140.703 217.957 141.534 217.307 141.534 215.77C141.534 215.105 141.312 214.275 141.049 213.222C140.592 211.478 139.969 209.097 139.969 205.94Z" fill="#5B1E00"/>
<path fill-rule="evenodd" clip-rule="evenodd" d="M139.762 205.94C139.762 205.705 139.568 205.525 139.346 205.525C139.111 205.525 138.931 205.719 138.931 205.94C138.931 209.221 139.568 211.686 140.039 213.472C140.288 214.441 140.495 215.202 140.495 215.756C140.495 216.545 139.914 216.891 137.976 216.891C137.74 216.891 137.56 217.085 137.56 217.307C137.56 217.528 137.754 217.722 137.976 217.722C140.551 217.722 141.326 217.127 141.326 215.756C141.326 215.105 141.119 214.302 140.842 213.264C140.385 211.52 139.762 209.124 139.762 205.94Z" fill="url(#paint19_linear)"/>
<path fill-rule="evenodd" clip-rule="evenodd" d="M139.554 205.94C139.554 205.829 139.457 205.732 139.346 205.732C139.236 205.732 139.139 205.829 139.139 205.94C139.139 209.207 139.775 211.644 140.232 213.416C140.495 214.399 140.689 215.174 140.689 215.756C140.689 216.697 140.052 217.099 137.962 217.099C137.851 217.099 137.754 217.196 137.754 217.307C137.754 217.417 137.851 217.514 137.962 217.514C140.385 217.514 141.105 216.988 141.105 215.756C141.105 215.133 140.897 214.33 140.634 213.319C140.177 211.561 139.554 209.152 139.554 205.94Z" fill="url(#paint20_linear)"/>
<path fill-rule="evenodd" clip-rule="evenodd" d="M131.732 205.94C131.732 205.594 131.939 205.303 132.202 205.303C132.466 205.303 132.673 205.58 132.673 205.94C132.673 209.249 132.189 211.727 131.843 213.527C131.663 214.482 131.51 215.23 131.51 215.756C131.51 216.407 131.898 216.684 133.213 216.684C133.476 216.684 133.684 216.96 133.684 217.32C133.684 217.667 133.476 217.957 133.213 217.957C131.192 217.957 130.583 217.307 130.583 215.77C130.583 215.105 130.735 214.275 130.943 213.222C131.275 211.478 131.732 209.097 131.732 205.94Z" fill="#5B1E00"/>
<path fill-rule="evenodd" clip-rule="evenodd" d="M131.884 205.94C131.884 205.705 132.023 205.525 132.189 205.525C132.355 205.525 132.493 205.719 132.493 205.94C132.493 209.221 132.023 211.686 131.676 213.472C131.483 214.441 131.344 215.202 131.344 215.756C131.344 216.545 131.773 216.891 133.199 216.891C133.366 216.891 133.504 217.085 133.504 217.307C133.504 217.528 133.366 217.722 133.199 217.722C131.289 217.722 130.721 217.127 130.721 215.756C130.721 215.105 130.873 214.302 131.081 213.264C131.427 211.52 131.884 209.124 131.884 205.94Z" fill="url(#paint21_linear)"/>
<path fill-rule="evenodd" clip-rule="evenodd" d="M132.036 205.94C132.036 205.829 132.106 205.732 132.189 205.732C132.272 205.732 132.341 205.829 132.341 205.94C132.341 209.207 131.87 211.644 131.524 213.416C131.33 214.399 131.178 215.174 131.178 215.756C131.178 216.697 131.649 217.099 133.186 217.099C133.269 217.099 133.338 217.196 133.338 217.307C133.338 217.417 133.269 217.514 133.186 217.514C131.4 217.514 130.86 216.988 130.86 215.756C130.86 215.133 131.012 214.33 131.206 213.319C131.58 211.561 132.036 209.152 132.036 205.94Z" fill="url(#paint22_linear)"/>
<path fill-rule="evenodd" clip-rule="evenodd" d="M138.737 205.94C138.737 205.594 138.529 205.303 138.266 205.303C138.003 205.303 137.796 205.58 137.796 205.94C137.796 209.249 138.28 211.727 138.626 213.527C138.806 214.482 138.959 215.23 138.959 215.756C138.959 216.407 138.571 216.684 137.256 216.684C136.993 216.684 136.785 216.96 136.785 217.32C136.785 217.667 136.993 217.957 137.256 217.957C139.277 217.957 139.886 217.307 139.886 215.77C139.886 215.105 139.72 214.275 139.526 213.222C139.194 211.478 138.737 209.097 138.737 205.94Z" fill="#5B1E00"/>
<path fill-rule="evenodd" clip-rule="evenodd" d="M138.571 205.94C138.571 205.705 138.433 205.525 138.266 205.525C138.1 205.525 137.962 205.719 137.962 205.94C137.962 209.221 138.433 211.686 138.779 213.472C138.973 214.441 139.111 215.202 139.111 215.756C139.111 216.545 138.682 216.891 137.256 216.891C137.09 216.891 136.951 217.085 136.951 217.307C136.951 217.528 137.09 217.722 137.256 217.722C139.166 217.722 139.734 217.127 139.734 215.756C139.734 215.105 139.582 214.302 139.374 213.264C139.042 211.52 138.571 209.124 138.571 205.94Z" fill="url(#paint23_linear)"/>
<path fill-rule="evenodd" clip-rule="evenodd" d="M138.419 205.94C138.419 205.829 138.349 205.732 138.266 205.732C138.183 205.732 138.114 205.829 138.114 205.94C138.114 209.207 138.585 211.644 138.931 213.416C139.125 214.399 139.277 215.174 139.277 215.756C139.277 216.697 138.806 217.099 137.27 217.099C137.187 217.099 137.117 217.196 137.117 217.307C137.117 217.417 137.187 217.514 137.27 217.514C139.056 217.514 139.596 216.988 139.596 215.756C139.596 215.133 139.443 214.33 139.249 213.319C138.889 211.561 138.419 209.152 138.419 205.94Z" fill="url(#paint24_linear)"/>
<path fill-rule="evenodd" clip-rule="evenodd" d="M132.964 205.94C132.964 205.594 133.103 205.303 133.269 205.303C133.435 205.303 133.573 205.58 133.573 205.94C133.573 209.249 133.269 211.727 133.047 213.527C132.923 214.482 132.839 215.23 132.839 215.756C132.839 216.407 133.089 216.684 133.947 216.684C134.113 216.684 134.252 216.96 134.252 217.32C134.252 217.667 134.113 217.957 133.947 217.957C132.632 217.957 132.244 217.307 132.244 215.77C132.244 215.105 132.341 214.275 132.48 213.222C132.673 211.478 132.964 209.097 132.964 205.94Z" fill="#5B1E00"/>
<path fill-rule="evenodd" clip-rule="evenodd" d="M133.061 205.94C133.061 205.705 133.158 205.525 133.269 205.525C133.379 205.525 133.476 205.719 133.476 205.94C133.476 209.221 133.172 211.686 132.95 213.472C132.826 214.441 132.729 215.202 132.729 215.756C132.729 216.545 133.006 216.891 133.933 216.891C134.044 216.891 134.141 217.085 134.141 217.307C134.141 217.528 134.044 217.722 133.933 217.722C132.701 217.722 132.327 217.127 132.327 215.756C132.327 215.105 132.424 214.302 132.563 213.264C132.77 211.52 133.061 209.124 133.061 205.94Z" fill="url(#paint25_linear)"/>
<path fill-rule="evenodd" clip-rule="evenodd" d="M133.172 205.94C133.172 205.829 133.213 205.732 133.269 205.732C133.324 205.732 133.366 205.829 133.366 205.94C133.366 209.207 133.061 211.644 132.84 213.416C132.715 214.399 132.618 215.174 132.618 215.756C132.618 216.697 132.923 217.099 133.919 217.099C133.975 217.099 134.016 217.196 134.016 217.307C134.016 217.417 133.975 217.514 133.919 217.514C132.77 217.514 132.41 216.988 132.41 215.756C132.41 215.133 132.507 214.33 132.632 213.319C132.867 211.561 133.172 209.152 133.172 205.94Z" fill="url(#paint26_linear)"/>
<path fill-rule="evenodd" clip-rule="evenodd" d="M137.491 205.94C137.491 205.594 137.353 205.303 137.187 205.303C137.021 205.303 136.882 205.58 136.882 205.94C136.882 209.249 137.187 211.727 137.422 213.527C137.547 214.482 137.63 215.23 137.63 215.756C137.63 216.407 137.38 216.684 136.522 216.684C136.356 216.684 136.218 216.96 136.218 217.32C136.218 217.667 136.356 217.957 136.522 217.957C137.837 217.957 138.225 217.307 138.225 215.77C138.225 215.105 138.128 214.275 137.99 213.222C137.796 211.478 137.491 209.097 137.491 205.94Z" fill="#5B1E00"/>
<path fill-rule="evenodd" clip-rule="evenodd" d="M137.394 205.94C137.394 205.705 137.297 205.525 137.187 205.525C137.076 205.525 136.979 205.719 136.979 205.94C136.979 209.221 137.284 211.686 137.505 213.472C137.63 214.441 137.727 215.202 137.727 215.756C137.727 216.545 137.45 216.891 136.522 216.891C136.411 216.891 136.314 217.085 136.314 217.307C136.314 217.528 136.411 217.722 136.522 217.722C137.754 217.722 138.128 217.127 138.128 215.756C138.128 215.105 138.031 214.302 137.893 213.264C137.699 211.52 137.394 209.124 137.394 205.94Z" fill="url(#paint27_linear)"/>
<path fill-rule="evenodd" clip-rule="evenodd" d="M137.297 205.94C137.297 205.829 137.256 205.732 137.2 205.732C137.145 205.732 137.104 205.829 137.104 205.94C137.104 209.207 137.408 211.644 137.63 213.416C137.754 214.399 137.851 215.174 137.851 215.756C137.851 216.697 137.547 217.099 136.55 217.099C136.494 217.099 136.453 217.196 136.453 217.307C136.453 217.417 136.494 217.514 136.55 217.514C137.699 217.514 138.059 216.988 138.059 215.756C138.059 215.133 137.962 214.33 137.837 213.319C137.588 211.561 137.297 209.152 137.297 205.94Z" fill="url(#paint28_linear)"/>
<path fill-rule="evenodd" clip-rule="evenodd" d="M136.674 228.161C136.591 228.507 136.19 228.715 135.788 228.645C135.387 228.576 135.137 228.23 135.221 227.898C136.051 224.672 137.422 222.388 138.405 220.726C138.931 219.854 139.346 219.162 139.471 218.636C139.637 217.999 139.097 217.625 137.076 217.237C136.674 217.168 136.425 216.822 136.508 216.49C136.591 216.144 136.993 215.936 137.394 216.005C140.523 216.601 141.312 217.417 140.925 218.899C140.758 219.549 140.302 220.311 139.72 221.28C138.792 222.872 137.477 225.06 136.674 228.161Z" fill="#5B1E00"/>
<path fill-rule="evenodd" clip-rule="evenodd" d="M136.439 228.106C136.383 228.327 136.12 228.479 135.857 228.424C135.594 228.369 135.428 228.147 135.484 227.926C136.314 224.714 137.671 222.457 138.654 220.809C139.194 219.91 139.609 219.217 139.748 218.677C139.942 217.902 139.374 217.445 137.159 217.03C136.896 216.974 136.73 216.753 136.785 216.531C136.84 216.31 137.103 216.158 137.366 216.213C140.315 216.767 141.049 217.514 140.703 218.857C140.537 219.494 140.094 220.242 139.526 221.183C138.557 222.789 137.242 224.991 136.439 228.106Z" fill="url(#paint29_linear)"/>
<path fill-rule="evenodd" clip-rule="evenodd" d="M136.19 228.064C136.162 228.175 136.023 228.244 135.899 228.23C135.76 228.202 135.677 228.092 135.705 227.981C136.522 224.797 137.879 222.54 138.848 220.92C139.388 220.006 139.817 219.3 139.969 218.733C140.205 217.819 139.582 217.293 137.186 216.836C137.048 216.808 136.965 216.697 136.993 216.587C137.02 216.476 137.159 216.407 137.283 216.421C140.052 216.947 140.745 217.611 140.44 218.816C140.288 219.425 139.845 220.159 139.277 221.1C138.336 222.706 137.006 224.921 136.19 228.064Z" fill="url(#paint30_linear)"/>
<path fill-rule="evenodd" clip-rule="evenodd" d="M136.674 239.14C136.591 239.486 136.19 239.694 135.788 239.624C135.387 239.555 135.137 239.209 135.221 238.877C136.051 235.651 137.422 233.366 138.405 231.705C138.931 230.833 139.346 230.141 139.471 229.628C139.637 228.992 139.097 228.618 137.076 228.23C136.674 228.161 136.425 227.815 136.508 227.482C136.591 227.136 136.993 226.929 137.394 226.998C140.523 227.593 141.312 228.41 140.925 229.891C140.758 230.542 140.302 231.304 139.72 232.273C138.792 233.865 137.477 236.052 136.674 239.14Z" fill="#5B1E00"/>
<path fill-rule="evenodd" clip-rule="evenodd" d="M136.439 239.098C136.383 239.32 136.12 239.472 135.857 239.417C135.594 239.361 135.428 239.14 135.484 238.918C136.314 235.706 137.671 233.45 138.654 231.802C139.194 230.902 139.609 230.21 139.748 229.67C139.942 228.895 139.374 228.438 137.159 228.022C136.896 227.967 136.73 227.746 136.785 227.524C136.84 227.303 137.103 227.15 137.366 227.206C140.315 227.759 141.049 228.507 140.703 229.85C140.537 230.487 140.094 231.234 139.526 232.176C138.557 233.782 137.242 235.983 136.439 239.098Z" fill="url(#paint31_linear)"/>
<path fill-rule="evenodd" clip-rule="evenodd" d="M136.19 239.057C136.162 239.167 136.023 239.237 135.899 239.223C135.76 239.195 135.677 239.084 135.705 238.974C136.522 235.789 137.879 233.533 138.848 231.913C139.388 230.999 139.817 230.293 139.969 229.725C140.205 228.812 139.582 228.285 137.186 227.829C137.048 227.801 136.965 227.69 136.993 227.579C137.02 227.469 137.159 227.399 137.283 227.413C140.052 227.939 140.745 228.604 140.44 229.808C140.288 230.418 139.845 231.151 139.277 232.093C138.336 233.699 137.006 235.914 136.19 239.057Z" fill="url(#paint32_linear)"/>
<path fill-rule="evenodd" clip-rule="evenodd" d="M133.753 228.161C133.836 228.507 134.238 228.715 134.639 228.645C135.041 228.576 135.29 228.23 135.207 227.898C134.376 224.672 133.005 222.388 132.022 220.726C131.496 219.854 131.081 219.162 130.956 218.636C130.79 217.999 131.33 217.625 133.352 217.237C133.753 217.168 134.002 216.822 133.919 216.49C133.836 216.144 133.435 215.936 133.033 216.005C129.904 216.601 129.115 217.417 129.503 218.899C129.669 219.549 130.126 220.311 130.707 221.28C131.649 222.872 132.95 225.06 133.753 228.161Z" fill="#5B1E00"/>
<path fill-rule="evenodd" clip-rule="evenodd" d="M134.002 228.106C134.058 228.327 134.321 228.479 134.584 228.424C134.847 228.369 135.013 228.147 134.958 227.926C134.127 224.714 132.77 222.457 131.787 220.809C131.247 219.91 130.832 219.217 130.693 218.677C130.5 217.902 131.067 217.445 133.282 217.03C133.545 216.974 133.712 216.753 133.656 216.531C133.601 216.31 133.338 216.158 133.075 216.213C130.126 216.767 129.392 217.514 129.738 218.857C129.904 219.494 130.347 220.242 130.915 221.183C131.87 222.789 133.185 224.991 134.002 228.106Z" fill="url(#paint33_linear)"/>
<path fill-rule="evenodd" clip-rule="evenodd" d="M134.238 228.064C134.265 228.175 134.404 228.244 134.528 228.23C134.667 228.202 134.75 228.092 134.722 227.981C133.905 224.797 132.549 222.54 131.579 220.92C131.039 220.006 130.61 219.3 130.458 218.733C130.223 217.819 130.846 217.293 133.241 216.836C133.379 216.808 133.462 216.697 133.435 216.587C133.407 216.476 133.268 216.407 133.144 216.421C130.375 216.947 129.683 217.611 129.987 218.816C130.14 219.425 130.583 220.159 131.15 221.1C132.092 222.706 133.421 224.921 134.238 228.064Z" fill="url(#paint34_linear)"/>
<path fill-rule="evenodd" clip-rule="evenodd" d="M133.753 239.14C133.836 239.486 134.238 239.694 134.639 239.624C135.041 239.555 135.29 239.209 135.207 238.877C134.376 235.651 133.005 233.366 132.022 231.705C131.496 230.833 131.081 230.141 130.956 229.628C130.79 228.992 131.33 228.618 133.352 228.23C133.753 228.161 134.002 227.815 133.919 227.482C133.836 227.136 133.435 226.929 133.033 226.998C129.904 227.593 129.115 228.41 129.503 229.891C129.669 230.542 130.126 231.304 130.707 232.273C131.649 233.865 132.95 236.052 133.753 239.14Z" fill="#5B1E00"/>
<path fill-rule="evenodd" clip-rule="evenodd" d="M134.002 239.098C134.058 239.32 134.321 239.472 134.584 239.417C134.847 239.361 135.013 239.14 134.958 238.918C134.127 235.706 132.77 233.45 131.787 231.802C131.247 230.902 130.832 230.21 130.693 229.67C130.5 228.895 131.067 228.438 133.282 228.022C133.545 227.967 133.712 227.746 133.656 227.524C133.601 227.303 133.338 227.15 133.075 227.206C130.126 227.759 129.392 228.507 129.738 229.85C129.904 230.487 130.347 231.234 130.915 232.176C131.87 233.782 133.185 235.983 134.002 239.098Z" fill="url(#paint35_linear)"/>
<path fill-rule="evenodd" clip-rule="evenodd" d="M134.238 239.057C134.265 239.167 134.404 239.237 134.528 239.223C134.667 239.195 134.75 239.084 134.722 238.974C133.905 235.789 132.549 233.533 131.579 231.913C131.039 230.999 130.61 230.293 130.458 229.725C130.223 228.812 130.846 228.285 133.241 227.829C133.379 227.801 133.462 227.69 133.435 227.579C133.407 227.469 133.268 227.399 133.144 227.413C130.375 227.939 129.683 228.604 129.987 229.808C130.14 230.418 130.583 231.151 131.15 232.093C132.092 233.699 133.421 235.914 134.238 239.057Z" fill="url(#paint36_linear)"/>
<path fill-rule="evenodd" clip-rule="evenodd" d="M136.467 226.486C136.398 226.832 136.065 227.04 135.733 226.97C135.401 226.901 135.193 226.555 135.262 226.223C135.955 222.997 137.09 220.712 137.907 219.051C138.336 218.179 138.682 217.487 138.793 216.961C138.931 216.324 138.474 215.95 136.799 215.562C136.467 215.493 136.259 215.147 136.328 214.815C136.398 214.468 136.73 214.261 137.062 214.33C139.665 214.925 140.316 215.742 139.983 217.224C139.845 217.874 139.471 218.636 138.987 219.605C138.211 221.211 137.131 223.398 136.467 226.486Z" fill="#5B1E00"/>
<path fill-rule="evenodd" clip-rule="evenodd" d="M136.273 226.444C136.218 226.666 136.01 226.818 135.788 226.763C135.567 226.707 135.429 226.486 135.484 226.264C136.176 223.052 137.298 220.796 138.114 219.148C138.557 218.248 138.904 217.556 139.028 217.016C139.194 216.241 138.71 215.784 136.882 215.368C136.661 215.313 136.522 215.092 136.578 214.87C136.633 214.649 136.841 214.496 137.062 214.552C139.513 215.105 140.122 215.853 139.831 217.196C139.693 217.833 139.319 218.58 138.848 219.522C138.031 221.128 136.938 223.329 136.273 226.444Z" fill="url(#paint37_linear)"/>
<path fill-rule="evenodd" clip-rule="evenodd" d="M136.065 226.403C136.038 226.513 135.927 226.583 135.816 226.569C135.705 226.541 135.636 226.43 135.664 226.319C136.342 223.135 137.464 220.879 138.28 219.259C138.737 218.345 139.083 217.639 139.208 217.071C139.402 216.158 138.89 215.631 136.91 215.175C136.799 215.147 136.73 215.036 136.758 214.925C136.785 214.815 136.896 214.745 137.007 214.759C139.305 215.285 139.886 215.95 139.623 217.154C139.499 217.763 139.125 218.497 138.654 219.439C137.837 221.045 136.744 223.26 136.065 226.403Z" fill="url(#paint38_linear)"/>
<path fill-rule="evenodd" clip-rule="evenodd" d="M136.467 237.478C136.398 237.825 136.065 238.032 135.733 237.963C135.401 237.894 135.193 237.548 135.262 237.215C135.955 233.99 137.09 231.705 137.907 230.044C138.336 229.172 138.682 228.479 138.793 227.967C138.931 227.33 138.474 226.956 136.799 226.569C136.467 226.5 136.259 226.153 136.328 225.821C136.398 225.475 136.73 225.267 137.062 225.337C139.665 225.932 140.316 226.749 139.983 228.23C139.845 228.881 139.471 229.642 138.987 230.611C138.211 232.204 137.131 234.391 136.467 237.478Z" fill="#5B1E00"/>
<path fill-rule="evenodd" clip-rule="evenodd" d="M136.273 237.437C136.218 237.658 136.01 237.811 135.788 237.755C135.567 237.7 135.429 237.478 135.484 237.257C136.176 234.045 137.298 231.788 138.114 230.141C138.557 229.241 138.904 228.549 139.028 228.009C139.194 227.233 138.71 226.776 136.882 226.361C136.661 226.306 136.522 226.084 136.578 225.863C136.633 225.641 136.841 225.489 137.062 225.544C139.513 226.098 140.122 226.846 139.831 228.189C139.693 228.825 139.319 229.573 138.848 230.515C138.031 232.121 136.938 234.322 136.273 237.437Z" fill="url(#paint39_linear)"/>
<path fill-rule="evenodd" clip-rule="evenodd" d="M136.065 237.395C136.038 237.506 135.927 237.575 135.816 237.562C135.705 237.534 135.636 237.423 135.664 237.312C136.342 234.128 137.464 231.871 138.28 230.252C138.737 229.338 139.083 228.632 139.208 228.064C139.402 227.15 138.89 226.624 136.91 226.167C136.799 226.14 136.73 226.029 136.758 225.918C136.785 225.807 136.896 225.738 137.007 225.752C139.305 226.278 139.886 226.943 139.623 228.147C139.499 228.756 139.125 229.49 138.654 230.432C137.837 232.038 136.744 234.253 136.065 237.395Z" fill="url(#paint40_linear)"/>
<path fill-rule="evenodd" clip-rule="evenodd" d="M134.044 226.486C134.113 226.832 134.445 227.04 134.778 226.97C135.11 226.901 135.318 226.555 135.248 226.223C134.556 222.997 133.421 220.712 132.604 219.051C132.161 218.179 131.829 217.487 131.718 216.961C131.58 216.324 132.036 215.95 133.712 215.562C134.044 215.493 134.252 215.147 134.182 214.815C134.113 214.468 133.781 214.261 133.449 214.33C130.846 214.925 130.195 215.742 130.527 217.224C130.666 217.874 131.04 218.636 131.524 219.605C132.299 221.211 133.379 223.398 134.044 226.486Z" fill="#5B1E00"/>
<path fill-rule="evenodd" clip-rule="evenodd" d="M134.238 226.444C134.293 226.666 134.501 226.818 134.722 226.763C134.944 226.707 135.082 226.486 135.027 226.264C134.335 223.052 133.213 220.796 132.396 219.148C131.953 218.248 131.607 217.556 131.483 217.016C131.317 216.241 131.801 215.784 133.629 215.368C133.85 215.313 133.989 215.092 133.933 214.87C133.878 214.649 133.67 214.496 133.449 214.552C130.998 215.105 130.389 215.853 130.68 217.196C130.818 217.833 131.192 218.58 131.663 219.522C132.48 221.128 133.573 223.329 134.238 226.444Z" fill="url(#paint41_linear)"/>
<path fill-rule="evenodd" clip-rule="evenodd" d="M134.445 226.403C134.473 226.513 134.584 226.583 134.695 226.569C134.805 226.541 134.875 226.43 134.847 226.319C134.168 223.135 133.047 220.879 132.23 219.259C131.773 218.345 131.427 217.639 131.303 217.071C131.109 216.158 131.621 215.631 133.601 215.175C133.712 215.147 133.781 215.036 133.753 214.925C133.725 214.815 133.615 214.745 133.504 214.759C131.206 215.285 130.624 215.95 130.887 217.154C131.012 217.763 131.386 218.497 131.856 219.439C132.659 221.045 133.767 223.26 134.445 226.403Z" fill="url(#paint42_linear)"/>
<path fill-rule="evenodd" clip-rule="evenodd" d="M134.044 237.478C134.113 237.825 134.445 238.032 134.778 237.963C135.11 237.894 135.318 237.548 135.248 237.215C134.556 233.99 133.421 231.705 132.604 230.044C132.161 229.172 131.829 228.479 131.718 227.967C131.58 227.33 132.036 226.956 133.712 226.569C134.044 226.5 134.252 226.153 134.182 225.821C134.113 225.475 133.781 225.267 133.449 225.337C130.846 225.932 130.195 226.749 130.527 228.23C130.666 228.881 131.04 229.642 131.524 230.611C132.299 232.204 133.379 234.391 134.044 237.478Z" fill="#5B1E00"/>
<path fill-rule="evenodd" clip-rule="evenodd" d="M134.238 237.437C134.293 237.658 134.501 237.811 134.722 237.755C134.944 237.7 135.082 237.478 135.027 237.257C134.335 234.045 133.213 231.788 132.396 230.141C131.953 229.241 131.607 228.549 131.483 228.009C131.317 227.233 131.801 226.776 133.629 226.361C133.85 226.306 133.989 226.084 133.933 225.863C133.878 225.641 133.67 225.489 133.449 225.544C130.998 226.098 130.389 226.846 130.68 228.189C130.818 228.825 131.192 229.573 131.663 230.515C132.48 232.121 133.573 234.322 134.238 237.437Z" fill="url(#paint43_linear)"/>
<path fill-rule="evenodd" clip-rule="evenodd" d="M134.445 237.395C134.473 237.506 134.584 237.575 134.695 237.562C134.805 237.534 134.875 237.423 134.847 237.312C134.168 234.128 133.047 231.871 132.23 230.252C131.773 229.338 131.427 228.632 131.303 228.064C131.109 227.15 131.621 226.624 133.601 226.167C133.712 226.14 133.781 226.029 133.753 225.918C133.725 225.807 133.615 225.738 133.504 225.752C131.206 226.278 130.624 226.943 130.887 228.147C131.012 228.756 131.386 229.49 131.856 230.432C132.659 232.038 133.767 234.253 134.445 237.395Z" fill="url(#paint44_linear)"/>
<path opacity="0.5" fill-rule="evenodd" clip-rule="evenodd" d="M135.234 202.673C137.948 202.673 140.149 204.874 140.149 207.588C140.149 210.301 137.948 212.502 135.234 212.502C132.521 212.502 130.32 210.301 130.32 207.588C130.32 204.874 132.521 202.673 135.234 202.673Z" fill="url(#paint45_linear)"/>
<path fill-rule="evenodd" clip-rule="evenodd" d="M135.234 201.759C137.948 201.759 140.149 203.96 140.149 206.674C140.149 209.387 137.948 211.589 135.234 211.589C132.521 211.589 130.32 209.387 130.32 206.674C130.32 203.96 132.521 201.759 135.234 201.759Z" fill="#5B1E00"/>
<path fill-rule="evenodd" clip-rule="evenodd" d="M135.234 202.119C137.74 202.119 139.776 204.154 139.776 206.66C139.776 209.166 137.74 211.201 135.234 211.201C132.729 211.201 130.693 209.166 130.693 206.66C130.693 204.154 132.729 202.119 135.234 202.119Z" fill="url(#paint46_linear)"/>
<path fill-rule="evenodd" clip-rule="evenodd" d="M135.235 203.199C137.145 203.199 138.71 204.749 138.71 206.674C138.71 208.584 137.159 210.149 135.235 210.149C133.324 210.149 131.76 208.598 131.76 206.674C131.76 204.749 133.31 203.199 135.235 203.199Z" fill="url(#paint47_linear)"/>
<path opacity="0.5" fill-rule="evenodd" clip-rule="evenodd" d="M135.235 203.199C135.013 205.054 136.896 207.615 138.71 206.674C138.71 208.584 137.159 210.149 135.235 210.149C135.774 207.865 133.379 205.566 131.76 206.674C131.76 204.749 133.31 203.199 135.235 203.199Z" fill="url(#paint48_linear)"/>
<path fill-rule="evenodd" clip-rule="evenodd" d="M135.234 203.448C137.007 203.448 138.446 204.888 138.446 206.66C138.446 208.432 137.007 209.872 135.234 209.872C133.462 209.872 132.022 208.432 132.022 206.66C132.022 204.888 133.462 203.448 135.234 203.448Z" fill="url(#paint49_linear)"/>
<path fill-rule="evenodd" clip-rule="evenodd" d="M135.234 204.5C136.425 204.5 137.394 205.469 137.394 206.66C137.394 207.851 136.425 208.82 135.234 208.82C134.044 208.82 133.075 207.851 133.075 206.66C133.075 205.469 134.044 204.5 135.234 204.5Z" fill="url(#paint50_linear)"/>
<path fill-rule="evenodd" clip-rule="evenodd" d="M135.235 204.833C136.245 204.833 137.062 205.649 137.062 206.66C137.062 207.671 136.245 208.488 135.235 208.488C134.224 208.488 133.407 207.671 133.407 206.66C133.393 205.649 134.224 204.833 135.235 204.833Z" fill="url(#paint51_linear)"/>
<path opacity="0.5" fill-rule="evenodd" clip-rule="evenodd" d="M135.318 213.942C137.27 213.942 138.862 215.534 138.862 217.487C138.862 219.439 137.27 221.031 135.318 221.031C133.365 221.031 131.773 219.439 131.773 217.487C131.773 215.534 133.365 213.942 135.318 213.942Z" fill="url(#paint52_linear)"/>
<path fill-rule="evenodd" clip-rule="evenodd" d="M135.318 213.029C137.27 213.029 138.862 214.621 138.862 216.573C138.862 218.525 137.27 220.117 135.318 220.117C133.365 220.117 131.773 218.525 131.773 216.573C131.773 214.621 133.365 213.029 135.318 213.029Z" fill="#5B1E00"/>
<path fill-rule="evenodd" clip-rule="evenodd" d="M135.318 213.375C137.076 213.375 138.516 214.801 138.516 216.573C138.516 218.331 137.09 219.771 135.318 219.771C133.559 219.771 132.119 218.345 132.119 216.573C132.119 214.814 133.559 213.375 135.318 213.375Z" fill="url(#paint53_linear)"/>
<path opacity="0.5" fill-rule="evenodd" clip-rule="evenodd" d="M135.318 213.375C133.199 215.659 137.214 220.768 138.516 216.573C138.516 218.331 137.09 219.771 135.318 219.771C135.539 215.437 133.061 214.316 132.119 216.573C132.119 214.814 133.559 213.375 135.318 213.375Z" fill="url(#paint54_linear)"/>
<path fill-rule="evenodd" clip-rule="evenodd" d="M135.318 214.469C136.481 214.469 137.422 215.41 137.422 216.573C137.422 217.736 136.481 218.677 135.318 218.677C134.155 218.677 133.213 217.736 133.213 216.573C133.213 215.41 134.155 214.469 135.318 214.469Z" fill="url(#paint55_linear)"/>
<path opacity="0.5" fill-rule="evenodd" clip-rule="evenodd" d="M135.318 214.469C134.002 216.531 135.844 217.625 137.422 216.573C137.422 217.736 136.481 218.677 135.318 218.677C137.782 218.207 134.335 215.659 133.213 216.573C133.213 215.41 134.155 214.469 135.318 214.469Z" fill="url(#paint56_linear)"/>
<path fill-rule="evenodd" clip-rule="evenodd" d="M135.318 214.787C136.301 214.787 137.104 215.59 137.104 216.573C137.104 217.556 136.301 218.359 135.318 218.359C134.335 218.359 133.532 217.556 133.532 216.573C133.532 215.59 134.335 214.787 135.318 214.787Z" fill="url(#paint57_linear)"/>
<path opacity="0.5" fill-rule="evenodd" clip-rule="evenodd" d="M135.318 224.935C137.27 224.935 138.862 226.527 138.862 228.479C138.862 230.432 137.27 232.024 135.318 232.024C133.365 232.024 131.773 230.432 131.773 228.479C131.773 226.527 133.365 224.935 135.318 224.935Z" fill="url(#paint58_linear)"/>
<path fill-rule="evenodd" clip-rule="evenodd" d="M135.318 224.021C137.27 224.021 138.862 225.614 138.862 227.566C138.862 229.518 137.27 231.11 135.318 231.11C133.365 231.11 131.773 229.518 131.773 227.566C131.773 225.6 133.365 224.021 135.318 224.021Z" fill="#5B1E00"/>
<path fill-rule="evenodd" clip-rule="evenodd" d="M135.318 224.367C137.076 224.367 138.516 225.793 138.516 227.566C138.516 229.324 137.09 230.764 135.318 230.764C133.559 230.764 132.119 229.338 132.119 227.566C132.119 225.793 133.559 224.367 135.318 224.367Z" fill="url(#paint59_linear)"/>
<path opacity="0.5" fill-rule="evenodd" clip-rule="evenodd" d="M135.318 224.367C133.199 226.652 137.214 231.761 138.516 227.566C138.516 229.324 137.09 230.764 135.318 230.764C135.539 226.43 133.061 225.309 132.119 227.566C132.119 225.793 133.559 224.367 135.318 224.367Z" fill="url(#paint60_linear)"/>
<path fill-rule="evenodd" clip-rule="evenodd" d="M135.318 225.461C136.481 225.461 137.422 226.403 137.422 227.566C137.422 228.729 136.481 229.67 135.318 229.67C134.155 229.67 133.213 228.729 133.213 227.566C133.213 226.403 134.155 225.461 135.318 225.461Z" fill="url(#paint61_linear)"/>
<path opacity="0.5" fill-rule="evenodd" clip-rule="evenodd" d="M135.318 225.461C134.002 227.524 135.844 228.618 137.422 227.566C137.422 228.729 136.481 229.67 135.318 229.67C137.782 229.199 134.335 226.652 133.213 227.566C133.213 226.403 134.155 225.461 135.318 225.461Z" fill="url(#paint62_linear)"/>
<path fill-rule="evenodd" clip-rule="evenodd" d="M135.318 225.78C136.301 225.78 137.104 226.583 137.104 227.566C137.104 228.549 136.301 229.352 135.318 229.352C134.335 229.352 133.532 228.549 133.532 227.566C133.532 226.583 134.335 225.78 135.318 225.78Z" fill="url(#paint63_linear)"/>
<path opacity="0.5" fill-rule="evenodd" clip-rule="evenodd" d="M135.318 235.928C137.27 235.928 138.862 237.52 138.862 239.472C138.862 241.424 137.27 243.016 135.318 243.016C133.365 243.016 131.773 241.424 131.773 239.472C131.773 237.506 133.365 235.928 135.318 235.928Z" fill="url(#paint64_linear)"/>
<path fill-rule="evenodd" clip-rule="evenodd" d="M135.318 235.014C137.27 235.014 138.862 236.606 138.862 238.558C138.862 240.51 137.27 242.103 135.318 242.103C133.365 242.103 131.773 240.51 131.773 238.558C131.773 236.592 133.365 235.014 135.318 235.014Z" fill="#5B1E00"/>
<path fill-rule="evenodd" clip-rule="evenodd" d="M135.318 235.36C137.076 235.36 138.516 236.786 138.516 238.558C138.516 240.317 137.09 241.757 135.318 241.757C133.559 241.757 132.119 240.33 132.119 238.558C132.119 236.786 133.559 235.36 135.318 235.36Z" fill="url(#paint65_linear)"/>
<path opacity="0.5" fill-rule="evenodd" clip-rule="evenodd" d="M135.318 235.36C133.199 237.645 137.214 242.753 138.516 238.558C138.516 240.317 137.09 241.757 135.318 241.757C135.539 237.423 133.061 236.302 132.119 238.558C132.119 236.786 133.559 235.36 135.318 235.36Z" fill="url(#paint66_linear)"/>
<path fill-rule="evenodd" clip-rule="evenodd" d="M135.318 236.454C136.481 236.454 137.422 237.395 137.422 238.558C137.422 239.721 136.481 240.663 135.318 240.663C134.155 240.663 133.213 239.721 133.213 238.558C133.213 237.395 134.155 236.454 135.318 236.454Z" fill="url(#paint67_linear)"/>
<path opacity="0.5" fill-rule="evenodd" clip-rule="evenodd" d="M135.318 236.454C134.002 238.517 135.844 239.61 137.422 238.558C137.422 239.721 136.481 240.663 135.318 240.663C137.782 240.192 134.335 237.645 133.213 238.558C133.213 237.395 134.155 236.454 135.318 236.454Z" fill="url(#paint68_linear)"/>
<path fill-rule="evenodd" clip-rule="evenodd" d="M135.318 236.772C136.301 236.772 137.104 237.575 137.104 238.558C137.104 239.541 136.301 240.344 135.318 240.344C134.335 240.344 133.532 239.541 133.532 238.558C133.532 237.575 134.335 236.772 135.318 236.772Z" fill="url(#paint69_linear)"/>
<path fill-rule="evenodd" clip-rule="evenodd" d="M135.235 249.939C136.204 249.939 136.979 251.572 136.979 253.608C136.979 255.629 136.19 257.276 135.235 257.276C134.265 257.276 133.476 255.643 133.476 253.608C133.476 251.586 134.265 249.939 135.235 249.939Z" fill="url(#paint70_radial)"/>
<path fill-rule="evenodd" clip-rule="evenodd" d="M127.288 249.025C128.063 249.025 128.963 250.659 129.295 252.694C129.628 254.715 129.281 256.363 128.506 256.363C127.731 256.363 126.831 254.729 126.499 252.694C126.166 250.659 126.526 249.025 127.288 249.025Z" fill="url(#paint71_radial)"/>
<path fill-rule="evenodd" clip-rule="evenodd" d="M143.168 249.025C142.392 249.025 141.492 250.659 141.16 252.694C140.828 254.715 141.174 256.363 141.949 256.363C142.725 256.363 143.625 254.729 143.957 252.694C144.289 250.659 143.943 249.025 143.168 249.025Z" fill="url(#paint72_radial)"/>
<path opacity="0.5" fill-rule="evenodd" clip-rule="evenodd" d="M143.389 217.874C143.389 215.465 147.058 215.465 147.058 217.874V238.032C147.058 240.441 143.389 240.441 143.389 238.032V217.874Z" fill="url(#paint73_linear)"/>
<path fill-rule="evenodd" clip-rule="evenodd" d="M143.389 227.344H147.058V238.032C147.058 240.441 143.389 240.441 143.389 238.032V227.344Z" fill="url(#paint74_linear)"/>
<path fill-rule="evenodd" clip-rule="evenodd" d="M144.303 217.874C144.303 216.67 146.13 216.67 146.13 217.874V238.032C146.13 239.237 144.303 239.237 144.303 238.032V217.874Z" fill="url(#paint75_linear)"/>
<path opacity="0.5" fill-rule="evenodd" clip-rule="evenodd" d="M123.231 217.874C123.231 215.465 126.9 215.465 126.9 217.874V238.032C126.9 240.441 123.231 240.441 123.231 238.032V217.874Z" fill="url(#paint76_linear)"/>
<path fill-rule="evenodd" clip-rule="evenodd" d="M123.231 227.344H126.9V238.032C126.9 240.441 123.231 240.441 123.231 238.032V227.344Z" fill="url(#paint77_linear)"/>
<path fill-rule="evenodd" clip-rule="evenodd" d="M124.145 217.874C124.145 216.67 125.973 216.67 125.973 217.874V238.032C125.973 239.237 124.145 239.237 124.145 238.032V217.874Z" fill="url(#paint78_linear)"/>
<path opacity="0.5" fill-rule="evenodd" clip-rule="evenodd" d="M133.199 273.212C132.41 273.212 131.732 272.741 131.469 271.993L121.127 242.947C120.684 241.701 120.49 240.58 120.49 239.264V227.358H118.233V217.459C118.233 216.116 118.898 214.967 120.061 214.289L121.888 213.236V194.061C121.888 193.051 122.705 192.234 123.716 192.234H128.312C129.323 192.234 130.14 193.051 130.14 194.061V198.076C127.44 196 126.886 205.94 126.886 227.344C126.886 232.494 123.563 235.416 124.256 241.618C125.183 249.883 129.946 262.094 133.199 273.212Z" fill="url(#paint79_linear)"/>
<path opacity="0.5" fill-rule="evenodd" clip-rule="evenodd" d="M137.27 273.212C138.059 273.212 138.737 272.741 139 271.993L149.342 242.947C149.785 241.701 149.979 240.58 149.979 239.264V227.358H152.236V217.459C152.236 216.116 151.571 214.967 150.408 214.289L148.581 213.236V194.061C148.581 193.051 147.764 192.234 146.753 192.234H142.143C141.132 192.234 140.316 193.051 140.316 194.061V198.076C143.015 196 143.569 205.94 143.569 227.344C143.569 232.494 146.892 235.416 146.2 241.618C145.272 249.883 140.509 262.094 137.27 273.212Z" fill="url(#paint80_linear)"/>
</g>
</g>
<defs>
<linearGradient id="paint0_linear" x1="135.23" y1="197.731" x2="135.232" y2="273.211" gradientUnits="userSpaceOnUse">
<stop stop-color="#F89952"/>
<stop offset="0.42" stop-color="#FFD13A"/>
<stop offset="1" stop-color="#FAEF5F"/>
</linearGradient>
<linearGradient id="paint1_linear" x1="120.82" y1="258.078" x2="149.33" y2="258.076" gradientUnits="userSpaceOnUse">
<stop stop-color="#212427"/>
<stop offset="0.52" stop-color="#B8B9B8"/>
<stop offset="1" stop-color="#23272A"/>
</linearGradient>
<linearGradient id="paint2_linear" x1="131.142" y1="269.819" x2="139.313" y2="269.817" gradientUnits="userSpaceOnUse">
<stop stop-color="#B8B9B8"/>
<stop offset="0.5" stop-color="white"/>
<stop offset="1" stop-color="#B8B9B8"/>
</linearGradient>
<linearGradient id="paint3_linear" x1="135.23" y1="243.305" x2="135.232" y2="224.033" gradientUnits="userSpaceOnUse">
<stop stop-color="#23272A"/>
<stop offset="1" stop-color="#B8B9B8"/>
</linearGradient>
<linearGradient id="paint4_linear" x1="135.23" y1="243.014" x2="135.231" y2="227.349" gradientUnits="userSpaceOnUse">
<stop stop-color="#23272A"/>
<stop offset="1" stop-color="#B5B8B8"/>
</linearGradient>
<linearGradient id="paint5_linear" x1="135.229" y1="197.729" x2="135.231" y2="227.349" gradientUnits="userSpaceOnUse">
<stop stop-color="#23272A"/>
<stop offset="1" stop-color="#B8B9B8"/>
</linearGradient>
<linearGradient id="paint6_linear" x1="135.23" y1="214.217" x2="135.231" y2="226.082" gradientUnits="userSpaceOnUse">
<stop stop-color="#23272A"/>
<stop offset="1" stop-color="#B5B8B8"/>
</linearGradient>
<linearGradient id="paint7_linear" x1="129.654" y1="227.638" x2="140.308" y2="227.635" gradientUnits="userSpaceOnUse">
<stop stop-color="#23272A"/>
<stop offset="0.5" stop-color="#B8B9B8"/>
<stop offset="1" stop-color="#23272A"/>
</linearGradient>
<linearGradient id="paint8_linear" x1="127.528" y1="261.482" x2="142.744" y2="261.48" gradientUnits="userSpaceOnUse">
<stop/>
<stop offset="0.51" stop-color="#212427"/>
<stop offset="1"/>
</linearGradient>
<radialGradient id="paint9_radial" cx="0" cy="0" r="1" gradientUnits="userSpaceOnUse" gradientTransform="translate(126.023 202.729) rotate(-90.0238) scale(12.4983 4.12944)">
<stop/>
<stop offset="1" stop-color="#020035"/>
</radialGradient>
<linearGradient id="paint10_linear" x1="124.158" y1="202.73" x2="127.749" y2="202.729" gradientUnits="userSpaceOnUse">
<stop stop-color="#020035"/>
<stop offset="0.51" stop-color="#3B3092"/>
<stop offset="1" stop-color="#020035"/>
</linearGradient>
<linearGradient id="paint11_linear" x1="125.183" y1="202.73" x2="126.846" y2="202.729" gradientUnits="userSpaceOnUse">
<stop stop-color="#3B3092"/>
<stop offset="0.48" stop-color="#2B3594"/>
<stop offset="1" stop-color="#3B3092"/>
</linearGradient>
<linearGradient id="paint12_linear" x1="127.097" y1="208.857" x2="125.049" y2="197.978" gradientUnits="userSpaceOnUse">
<stop stop-color="#2B3594"/>
<stop offset="1" stop-color="#A5DBDB"/>
</linearGradient>
<radialGradient id="paint13_radial" cx="0" cy="0" r="1" gradientUnits="userSpaceOnUse" gradientTransform="translate(144.439 202.729) rotate(-89.9762) scale(12.4985 4.12952)">
<stop/>
<stop offset="1" stop-color="#020035"/>
</radialGradient>
<linearGradient id="paint14_linear" x1="146.304" y1="202.73" x2="142.713" y2="202.729" gradientUnits="userSpaceOnUse">
<stop stop-color="#020035"/>
<stop offset="0.51" stop-color="#3B3092"/>
<stop offset="1" stop-color="#020035"/>
</linearGradient>
<linearGradient id="paint15_linear" x1="145.279" y1="202.73" x2="143.616" y2="202.729" gradientUnits="userSpaceOnUse">
<stop stop-color="#3B3092"/>
<stop offset="0.48" stop-color="#2B3594"/>
<stop offset="1" stop-color="#3B3092"/>
</linearGradient>
<linearGradient id="paint16_linear" x1="143.365" y1="208.857" x2="145.412" y2="197.978" gradientUnits="userSpaceOnUse">
<stop stop-color="#2B3594"/>
<stop offset="1" stop-color="#A5DBDB"/>
</linearGradient>
<linearGradient id="paint17_linear" x1="129.707" y1="206.428" x2="131.306" y2="217.759" gradientUnits="userSpaceOnUse">
<stop stop-color="#FFD13A"/>
<stop offset="0.53" stop-color="#FAEF5F"/>
<stop offset="1" stop-color="#FFD13A"/>
</linearGradient>
<linearGradient id="paint18_linear" x1="129.88" y1="206.603" x2="131.149" y2="217.632" gradientUnits="userSpaceOnUse">
<stop stop-color="#3B3092"/>
<stop offset="0.51" stop-color="#A5DBDB"/>
<stop offset="1" stop-color="#3B3092"/>
</linearGradient>
<linearGradient id="paint19_linear" x1="140.754" y1="206.428" x2="139.156" y2="217.759" gradientUnits="userSpaceOnUse">
<stop stop-color="#FFD13A"/>
<stop offset="0.53" stop-color="#FAEF5F"/>
<stop offset="1" stop-color="#FFD13A"/>
</linearGradient>
<linearGradient id="paint20_linear" x1="140.581" y1="206.603" x2="139.312" y2="217.632" gradientUnits="userSpaceOnUse">
<stop stop-color="#3B3092"/>
<stop offset="0.51" stop-color="#A5DBDB"/>
<stop offset="1" stop-color="#3B3092"/>
</linearGradient>
<linearGradient id="paint21_linear" x1="130.762" y1="206.502" x2="132.89" y2="217.652" gradientUnits="userSpaceOnUse">
<stop stop-color="#FFD13A"/>
<stop offset="0.53" stop-color="#FAEF5F"/>
<stop offset="1" stop-color="#FFD13A"/>
</linearGradient>
<linearGradient id="paint22_linear" x1="130.948" y1="206.654" x2="132.647" y2="217.565" gradientUnits="userSpaceOnUse">
<stop stop-color="#3B3092"/>
<stop offset="0.51" stop-color="#A5DBDB"/>
<stop offset="1" stop-color="#3B3092"/>
</linearGradient>
<linearGradient id="paint23_linear" x1="139.7" y1="206.502" x2="137.572" y2="217.652" gradientUnits="userSpaceOnUse">
<stop stop-color="#FFD13A"/>
<stop offset="0.53" stop-color="#FAEF5F"/>
<stop offset="1" stop-color="#FFD13A"/>
</linearGradient>
<linearGradient id="paint24_linear" x1="139.513" y1="206.655" x2="137.814" y2="217.565" gradientUnits="userSpaceOnUse">
<stop stop-color="#3B3092"/>
<stop offset="0.51" stop-color="#A5DBDB"/>
<stop offset="1" stop-color="#3B3092"/>
</linearGradient>
<linearGradient id="paint25_linear" x1="131.6" y1="206.72" x2="134.737" y2="217.351" gradientUnits="userSpaceOnUse">
<stop stop-color="#FFD13A"/>
<stop offset="0.53" stop-color="#FAEF5F"/>
<stop offset="1" stop-color="#FFD13A"/>
</linearGradient>
<linearGradient id="paint26_linear" x1="131.867" y1="206.798" x2="134.41" y2="217.36" gradientUnits="userSpaceOnUse">
<stop stop-color="#3B3092"/>
<stop offset="0.51" stop-color="#A5DBDB"/>
<stop offset="1" stop-color="#3B3092"/>
</linearGradient>
<linearGradient id="paint27_linear" x1="138.862" y1="206.72" x2="135.725" y2="217.35" gradientUnits="userSpaceOnUse">
<stop stop-color="#FFD13A"/>
<stop offset="0.53" stop-color="#FAEF5F"/>
<stop offset="1" stop-color="#FFD13A"/>
</linearGradient>
<linearGradient id="paint28_linear" x1="138.594" y1="206.797" x2="136.051" y2="217.36" gradientUnits="userSpaceOnUse">
<stop stop-color="#3B3092"/>
<stop offset="0.51" stop-color="#A5DBDB"/>
<stop offset="1" stop-color="#3B3092"/>
</linearGradient>
<linearGradient id="paint29_linear" x1="137.797" y1="228.082" x2="138.555" y2="216.596" gradientUnits="userSpaceOnUse">
<stop stop-color="#FFD13A"/>
<stop offset="0.53" stop-color="#FAEF5F"/>
<stop offset="1" stop-color="#FFD13A"/>
</linearGradient>
<linearGradient id="paint30_linear" x1="137.711" y1="227.83" x2="138.679" y2="216.83" gradientUnits="userSpaceOnUse">
<stop stop-color="#3B3092"/>
<stop offset="0.51" stop-color="#A5DBDB"/>
<stop offset="1" stop-color="#3B3092"/>
</linearGradient>
<linearGradient id="paint31_linear" x1="137.797" y1="239.073" x2="138.555" y2="227.588" gradientUnits="userSpaceOnUse">
<stop stop-color="#FFD13A"/>
<stop offset="0.53" stop-color="#FAEF5F"/>
<stop offset="1" stop-color="#FFD13A"/>
</linearGradient>
<linearGradient id="paint32_linear" x1="137.711" y1="238.821" x2="138.679" y2="227.821" gradientUnits="userSpaceOnUse">
<stop stop-color="#3B3092"/>
<stop offset="0.51" stop-color="#A5DBDB"/>
<stop offset="1" stop-color="#3B3092"/>
</linearGradient>
<linearGradient id="paint33_linear" x1="132.635" y1="228.082" x2="131.876" y2="216.596" gradientUnits="userSpaceOnUse">
<stop stop-color="#FFD13A"/>
<stop offset="0.53" stop-color="#FAEF5F"/>
<stop offset="1" stop-color="#FFD13A"/>
</linearGradient>
<linearGradient id="paint34_linear" x1="132.721" y1="227.83" x2="131.753" y2="216.83" gradientUnits="userSpaceOnUse">
<stop stop-color="#3B3092"/>
<stop offset="0.51" stop-color="#A5DBDB"/>
<stop offset="1" stop-color="#3B3092"/>
</linearGradient>
<linearGradient id="paint35_linear" x1="132.635" y1="239.073" x2="131.876" y2="227.588" gradientUnits="userSpaceOnUse">
<stop stop-color="#FFD13A"/>
<stop offset="0.53" stop-color="#FAEF5F"/>
<stop offset="1" stop-color="#FFD13A"/>
</linearGradient>
<linearGradient id="paint36_linear" x1="132.721" y1="238.821" x2="131.753" y2="227.822" gradientUnits="userSpaceOnUse">
<stop stop-color="#3B3092"/>
<stop offset="0.51" stop-color="#A5DBDB"/>
<stop offset="1" stop-color="#3B3092"/>
</linearGradient>
<linearGradient id="paint37_linear" x1="137.277" y1="226.406" x2="138.19" y2="214.942" gradientUnits="userSpaceOnUse">
<stop stop-color="#FFD13A"/>
<stop offset="0.53" stop-color="#FAEF5F"/>
<stop offset="1" stop-color="#FFD13A"/>
</linearGradient>
<linearGradient id="paint38_linear" x1="137.111" y1="226.141" x2="138.274" y2="215.18" gradientUnits="userSpaceOnUse">
<stop stop-color="#3B3092"/>
<stop offset="0.51" stop-color="#A5DBDB"/>
<stop offset="1" stop-color="#3B3092"/>
</linearGradient>
<linearGradient id="paint39_linear" x1="137.277" y1="237.397" x2="138.19" y2="225.933" gradientUnits="userSpaceOnUse">
<stop stop-color="#FFD13A"/>
<stop offset="0.53" stop-color="#FAEF5F"/>
<stop offset="1" stop-color="#FFD13A"/>
</linearGradient>
<linearGradient id="paint40_linear" x1="137.111" y1="237.132" x2="138.274" y2="226.17" gradientUnits="userSpaceOnUse">
<stop stop-color="#3B3092"/>
<stop offset="0.51" stop-color="#A5DBDB"/>
<stop offset="1" stop-color="#3B3092"/>
</linearGradient>
<linearGradient id="paint41_linear" x1="133.233" y1="226.406" x2="132.32" y2="214.942" gradientUnits="userSpaceOnUse">
<stop stop-color="#FFD13A"/>
<stop offset="0.53" stop-color="#FAEF5F"/>
<stop offset="1" stop-color="#FFD13A"/>
</linearGradient>
<linearGradient id="paint42_linear" x1="133.399" y1="226.141" x2="132.236" y2="215.18" gradientUnits="userSpaceOnUse">
<stop stop-color="#3B3092"/>
<stop offset="0.51" stop-color="#A5DBDB"/>
<stop offset="1" stop-color="#3B3092"/>
</linearGradient>
<linearGradient id="paint43_linear" x1="133.233" y1="237.397" x2="132.32" y2="225.933" gradientUnits="userSpaceOnUse">
<stop stop-color="#FFD13A"/>
<stop offset="0.53" stop-color="#FAEF5F"/>
<stop offset="1" stop-color="#FFD13A"/>
</linearGradient>
<linearGradient id="paint44_linear" x1="133.399" y1="237.132" x2="132.236" y2="226.17" gradientUnits="userSpaceOnUse">
<stop stop-color="#3B3092"/>
<stop offset="0.51" stop-color="#A5DBDB"/>
<stop offset="1" stop-color="#3B3092"/>
</linearGradient>
<linearGradient id="paint45_linear" x1="135.231" y1="208.495" x2="135.233" y2="212.487" gradientUnits="userSpaceOnUse">
<stop stop-color="#5C1800"/>
<stop offset="1" stop-color="white"/>
</linearGradient>
<linearGradient id="paint46_linear" x1="135.23" y1="211.149" x2="135.232" y2="202.125" gradientUnits="userSpaceOnUse">
<stop stop-color="#F89952"/>
<stop offset="1" stop-color="#FAEF5F"/>
</linearGradient>
<linearGradient id="paint47_linear" x1="135.23" y1="210.125" x2="135.232" y2="203.195" gradientUnits="userSpaceOnUse">
<stop stop-color="#3B3092"/>
<stop offset="1" stop-color="#2B3594"/>
</linearGradient>
<linearGradient id="paint48_linear" x1="136.752" y1="208.313" x2="133.567" y2="204.862" gradientUnits="userSpaceOnUse">
<stop stop-color="#A5DBDB"/>
<stop offset="1" stop-color="white"/>
</linearGradient>
<linearGradient id="paint49_linear" x1="135.229" y1="203.738" x2="135.232" y2="209.875" gradientUnits="userSpaceOnUse">
<stop stop-color="#FFF032"/>
<stop offset="1" stop-color="#FAEF5F"/>
</linearGradient>
<linearGradient id="paint50_linear" x1="135.23" y1="208.821" x2="135.231" y2="204.504" gradientUnits="userSpaceOnUse">
<stop stop-color="#3B3092"/>
<stop offset="1" stop-color="#2B3594"/>
</linearGradient>
<linearGradient id="paint51_linear" x1="135.23" y1="204.995" x2="135.232" y2="208.497" gradientUnits="userSpaceOnUse">
<stop stop-color="#FFF032"/>
<stop offset="1" stop-color="#FAEF5F"/>
</linearGradient>
<linearGradient id="paint52_linear" x1="135.318" y1="218.148" x2="135.319" y2="221.032" gradientUnits="userSpaceOnUse">
<stop stop-color="#5C1800"/>
<stop offset="1" stop-color="white"/>
</linearGradient>
<linearGradient id="paint53_linear" x1="135.317" y1="219.723" x2="135.318" y2="213.38" gradientUnits="userSpaceOnUse">
<stop stop-color="#FFF032"/>
<stop offset="1" stop-color="#FAEF5F"/>
</linearGradient>
<linearGradient id="paint54_linear" x1="136.335" y1="218.031" x2="134.23" y2="215.012" gradientUnits="userSpaceOnUse">
<stop stop-color="#FAEF5F"/>
<stop offset="1" stop-color="white"/>
</linearGradient>
<linearGradient id="paint55_linear" x1="135.317" y1="218.525" x2="135.319" y2="214.582" gradientUnits="userSpaceOnUse">
<stop stop-color="#3B3092"/>
<stop offset="1" stop-color="#2B3594"/>
</linearGradient>
<linearGradient id="paint56_linear" x1="136.336" y1="217.478" x2="134.209" y2="215.585" gradientUnits="userSpaceOnUse">
<stop stop-color="#A5DBDB"/>
<stop offset="1" stop-color="white"/>
</linearGradient>
<linearGradient id="paint57_linear" x1="135.317" y1="218.355" x2="135.318" y2="214.79" gradientUnits="userSpaceOnUse">
<stop stop-color="#FAEF5F"/>
<stop offset="1" stop-color="#FDFAD3"/>
</linearGradient>
<linearGradient id="paint58_linear" x1="135.318" y1="229.139" x2="135.319" y2="232.023" gradientUnits="userSpaceOnUse">
<stop stop-color="#5C1800"/>
<stop offset="1" stop-color="white"/>
</linearGradient>
<linearGradient id="paint59_linear" x1="135.317" y1="230.714" x2="135.318" y2="224.372" gradientUnits="userSpaceOnUse">
<stop stop-color="#FFF032"/>
<stop offset="1" stop-color="#FAEF5F"/>
</linearGradient>
<linearGradient id="paint60_linear" x1="136.335" y1="229.021" x2="134.229" y2="226.002" gradientUnits="userSpaceOnUse">
<stop stop-color="#FAEF5F"/>
<stop offset="1" stop-color="white"/>
</linearGradient>
<linearGradient id="paint61_linear" x1="135.317" y1="229.516" x2="135.319" y2="225.573" gradientUnits="userSpaceOnUse">
<stop stop-color="#3B3092"/>
<stop offset="1" stop-color="#2B3594"/>
</linearGradient>
<linearGradient id="paint62_linear" x1="136.336" y1="228.469" x2="134.209" y2="226.576" gradientUnits="userSpaceOnUse">
<stop stop-color="#A5DBDB"/>
<stop offset="1" stop-color="white"/>
</linearGradient>
<linearGradient id="paint63_linear" x1="135.317" y1="229.345" x2="135.318" y2="225.781" gradientUnits="userSpaceOnUse">
<stop stop-color="#FAEF5F"/>
<stop offset="1" stop-color="#FDFAD3"/>
</linearGradient>
<linearGradient id="paint64_linear" x1="135.318" y1="240.13" x2="135.319" y2="243.014" gradientUnits="userSpaceOnUse">
<stop stop-color="#5C1800"/>
<stop offset="1" stop-color="white"/>
</linearGradient>
<linearGradient id="paint65_linear" x1="135.317" y1="241.705" x2="135.318" y2="235.363" gradientUnits="userSpaceOnUse">
<stop stop-color="#FFF032"/>
<stop offset="1" stop-color="#FAEF5F"/>
</linearGradient>
<linearGradient id="paint66_linear" x1="136.335" y1="240.012" x2="134.229" y2="236.993" gradientUnits="userSpaceOnUse">
<stop stop-color="#FAEF5F"/>
<stop offset="1" stop-color="white"/>
</linearGradient>
<linearGradient id="paint67_linear" x1="135.317" y1="240.507" x2="135.319" y2="236.564" gradientUnits="userSpaceOnUse">
<stop stop-color="#3B3092"/>
<stop offset="1" stop-color="#2B3594"/>
</linearGradient>
<linearGradient id="paint68_linear" x1="136.336" y1="239.46" x2="134.209" y2="237.567" gradientUnits="userSpaceOnUse">
<stop stop-color="#A5DBDB"/>
<stop offset="1" stop-color="white"/>
</linearGradient>
<linearGradient id="paint69_linear" x1="135.317" y1="240.336" x2="135.318" y2="236.771" gradientUnits="userSpaceOnUse">
<stop stop-color="#FAEF5F"/>
<stop offset="1" stop-color="#FDFAD3"/>
</linearGradient>
<radialGradient id="paint70_radial" cx="0" cy="0" r="1" gradientUnits="userSpaceOnUse" gradientTransform="translate(135.231 253.604) rotate(-90) scale(3.66387 1.75133)">
<stop/>
<stop offset="1" stop-color="#23272A"/>
</radialGradient>
<radialGradient id="paint71_radial" cx="0" cy="0" r="1" gradientUnits="userSpaceOnUse" gradientTransform="translate(127.91 252.686) rotate(-100.953) scale(3.72222 1.37621)">
<stop/>
<stop offset="1" stop-color="#23272A"/>
</radialGradient>
<radialGradient id="paint72_radial" cx="0" cy="0" r="1" gradientUnits="userSpaceOnUse" gradientTransform="translate(142.564 252.686) rotate(-79.0474) scale(3.72207 1.37615)">
<stop/>
<stop offset="1" stop-color="#23272A"/>
</radialGradient>
<linearGradient id="paint73_linear" x1="145.216" y1="239.233" x2="145.217" y2="216.073" gradientUnits="userSpaceOnUse">
<stop stop-color="#B8B9B8"/>
<stop offset="1" stop-color="white"/>
</linearGradient>
<linearGradient id="paint74_linear" x1="145.216" y1="228.011" x2="145.218" y2="239.095" gradientUnits="userSpaceOnUse">
<stop stop-color="#23272A"/>
<stop offset="1" stop-color="#B8B9B8"/>
</linearGradient>
<linearGradient id="paint75_linear" x1="145.216" y1="238.303" x2="145.217" y2="217.051" gradientUnits="userSpaceOnUse">
<stop/>
<stop offset="1" stop-color="#212427"/>
</linearGradient>
<linearGradient id="paint76_linear" x1="125.066" y1="239.233" x2="125.068" y2="216.073" gradientUnits="userSpaceOnUse">
<stop stop-color="#B8B9B8"/>
<stop offset="1" stop-color="white"/>
</linearGradient>
<linearGradient id="paint77_linear" x1="125.066" y1="228.011" x2="125.068" y2="239.095" gradientUnits="userSpaceOnUse">
<stop stop-color="#23272A"/>
<stop offset="1" stop-color="#B8B9B8"/>
</linearGradient>
<linearGradient id="paint78_linear" x1="125.066" y1="238.303" x2="125.068" y2="217.051" gradientUnits="userSpaceOnUse">
<stop/>
<stop offset="1" stop-color="#212427"/>
</linearGradient>
<linearGradient id="paint79_linear" x1="118.668" y1="232.723" x2="135.222" y2="232.721" gradientUnits="userSpaceOnUse">
<stop stop-color="#23272A"/>
<stop offset="1" stop-color="white"/>
</linearGradient>
<linearGradient id="paint80_linear" x1="151.793" y1="232.723" x2="135.239" y2="232.721" gradientUnits="userSpaceOnUse">
<stop stop-color="#23272A"/>
<stop offset="1" stop-color="white"/>
</linearGradient>
<clipPath id="clip0">
<rect width="270" height="370" fill="white"/>
</clipPath>
<clipPath id="clip1">
<rect x="56.7212" y="78.4165" width="157.013" height="196.124" fill="white"/>
</clipPath>
</defs>
</svg>
