<svg width="270" height="370" viewBox="0 0 270 370" fill="none" xmlns="http://www.w3.org/2000/svg">
<g clip-path="url(#clip0)">
<g clip-path="url(#clip1)">
<path fill-rule="evenodd" clip-rule="evenodd" d="M121.985 195.058H117.278V165.403C117.278 164.489 118.026 163.741 118.939 163.741H120.338C121.251 163.741 121.999 164.489 121.999 165.403V195.058H121.985Z" fill="#FFDD43"/>
<path fill-rule="evenodd" clip-rule="evenodd" d="M121.985 196.373H117.278C116.544 196.373 115.949 195.778 115.949 195.044V165.403C115.949 164.586 116.281 163.838 116.821 163.298C117.361 162.758 118.109 162.426 118.925 162.426H120.324C121.141 162.426 121.888 162.758 122.428 163.298C122.456 163.326 122.484 163.368 122.511 163.395C122.996 163.921 123.3 164.627 123.3 165.403V195.058C123.314 195.792 122.719 196.373 121.985 196.373ZM121.985 195.058H117.278V165.403C117.278 164.489 118.026 163.741 118.939 163.741H120.338C121.251 163.741 121.999 164.489 121.999 165.403V195.058H121.985Z" fill="black"/>
<path fill-rule="evenodd" clip-rule="evenodd" d="M117.278 165.569V165.237H118.206C119.216 165.237 120.033 166.053 120.033 167.064V195.058H119.701V167.064C119.701 166.247 119.036 165.569 118.206 165.569H117.278Z" fill="#5B1E00"/>
<path fill-rule="evenodd" clip-rule="evenodd" d="M121.985 195.058C121.071 195.058 121.528 195.058 120.614 195.058C120.614 168.185 122.013 165.347 119.244 163.741C119.604 163.741 119.964 163.741 120.324 163.741C121.237 163.741 121.985 164.489 121.985 165.403C121.985 175.288 121.985 185.173 121.985 195.058Z" fill="#C1C1C1"/>
<path fill-rule="evenodd" clip-rule="evenodd" d="M114.897 189.839L111.823 188.731V174.499C111.823 171.758 113.9 169.529 116.433 169.529H119.507C121.528 169.529 121.528 172.851 119.507 172.851H116.433C115.575 172.851 114.897 173.585 114.897 174.513V189.839Z" fill="url(#paint0_linear)"/>
<path fill-rule="evenodd" clip-rule="evenodd" d="M114.343 191.043L111.366 189.963C110.826 189.769 110.494 189.257 110.494 188.717V174.499C110.494 172.796 111.145 171.231 112.211 170.096C113.291 168.933 114.786 168.213 116.433 168.213H119.507C120.878 168.213 121.764 169.016 122.151 170.055L122.179 170.138C122.29 170.484 122.359 170.844 122.359 171.19C122.359 171.578 122.29 171.965 122.151 172.325C121.764 173.363 120.891 174.166 119.507 174.166H116.433C116.392 174.166 116.35 174.194 116.309 174.222C116.253 174.277 116.212 174.374 116.212 174.499V189.825C116.212 190.559 115.617 191.154 114.883 191.154C114.689 191.168 114.509 191.112 114.343 191.043ZM114.897 189.839L111.823 188.731V174.499C111.823 171.758 113.9 169.529 116.433 169.529H119.507C121.528 169.529 121.528 172.851 119.507 172.851H116.433C115.575 172.851 114.897 173.585 114.897 174.513V189.839Z" fill="black"/>
<path fill-rule="evenodd" clip-rule="evenodd" d="M114.897 189.839L113.512 189.34L113.484 174.513C113.484 172.657 115.063 171.19 116.433 171.19H119.507C121.528 171.19 121.528 172.851 119.507 172.851H116.433C115.575 172.851 114.897 173.585 114.897 174.513V189.839Z" fill="url(#paint1_linear)"/>
<path fill-rule="evenodd" clip-rule="evenodd" d="M117.901 172.547C117.929 172.27 118.178 172.076 118.455 172.104C118.732 172.131 118.926 172.38 118.898 172.657C118.676 174.72 119.009 175.122 119.369 175.551C119.839 176.119 120.352 176.7 120.227 179.067C120.213 179.344 119.978 179.552 119.701 179.538C119.424 179.524 119.216 179.289 119.23 179.012C119.341 177.046 118.967 176.603 118.607 176.188C118.109 175.592 117.638 175.025 117.901 172.547Z" fill="#5B1E00"/>
<path fill-rule="evenodd" clip-rule="evenodd" d="M118.067 172.561C118.081 172.381 118.247 172.242 118.427 172.27C118.607 172.284 118.745 172.45 118.718 172.63C118.482 174.762 118.856 175.191 119.23 175.648C119.687 176.188 120.171 176.755 120.047 179.04C120.033 179.22 119.881 179.358 119.701 179.358C119.521 179.344 119.382 179.192 119.382 179.012C119.493 176.977 119.092 176.52 118.718 176.077C118.261 175.509 117.804 174.983 118.067 172.561Z" fill="url(#paint2_linear)"/>
<path fill-rule="evenodd" clip-rule="evenodd" d="M118.233 172.574C118.247 172.477 118.33 172.422 118.413 172.422C118.51 172.436 118.566 172.519 118.566 172.602C118.316 174.803 118.718 175.26 119.119 175.745C119.549 176.257 120.019 176.797 119.895 179.026C119.895 179.123 119.812 179.192 119.715 179.178C119.618 179.178 119.549 179.095 119.562 178.998C119.673 176.908 119.258 176.409 118.87 175.952C118.413 175.44 117.97 174.928 118.233 172.574Z" fill="url(#paint3_linear)"/>
<path fill-rule="evenodd" clip-rule="evenodd" d="M120.988 172.547C120.961 172.27 120.711 172.076 120.435 172.104C120.158 172.131 119.964 172.38 119.991 172.657C120.213 174.72 119.881 175.122 119.521 175.551C119.05 176.119 118.538 176.7 118.662 179.067C118.676 179.344 118.912 179.552 119.189 179.538C119.465 179.524 119.673 179.289 119.659 179.012C119.548 177.046 119.922 176.603 120.282 176.188C120.794 175.592 121.265 175.025 120.988 172.547Z" fill="#5B1E00"/>
<path fill-rule="evenodd" clip-rule="evenodd" d="M120.822 172.561C120.808 172.381 120.642 172.242 120.462 172.27C120.282 172.284 120.144 172.45 120.171 172.63C120.407 174.762 120.033 175.191 119.659 175.648C119.202 176.188 118.718 176.755 118.842 179.04C118.856 179.22 119.009 179.358 119.188 179.358C119.368 179.344 119.507 179.192 119.507 179.012C119.396 176.977 119.798 176.52 120.171 176.077C120.642 175.509 121.099 174.983 120.822 172.561Z" fill="url(#paint4_linear)"/>
<path fill-rule="evenodd" clip-rule="evenodd" d="M120.67 172.574C120.656 172.477 120.573 172.422 120.49 172.422C120.393 172.436 120.338 172.519 120.338 172.602C120.587 174.803 120.185 175.26 119.784 175.745C119.355 176.257 118.884 176.797 119.009 179.026C119.009 179.123 119.092 179.192 119.189 179.178C119.286 179.178 119.355 179.095 119.341 178.998C119.23 176.908 119.645 176.409 120.033 175.952C120.49 175.44 120.919 174.928 120.67 172.574Z" fill="url(#paint5_linear)"/>
<path fill-rule="evenodd" clip-rule="evenodd" d="M119.562 168.642C120.905 168.642 121.985 169.722 121.985 171.065C121.985 172.408 120.905 173.488 119.562 173.488C118.219 173.488 117.139 172.408 117.139 171.065C117.139 169.736 118.219 168.642 119.562 168.642Z" fill="#5B1E00"/>
<path d="M119.562 173.239C120.763 173.239 121.736 172.266 121.736 171.065C121.736 169.865 120.763 168.892 119.562 168.892C118.362 168.892 117.389 169.865 117.389 171.065C117.389 172.266 118.362 173.239 119.562 173.239Z" fill="url(#paint6_linear)"/>
<path opacity="0.5" fill-rule="evenodd" clip-rule="evenodd" d="M119.562 168.892C118.122 170.442 120.85 173.917 121.736 171.065C121.736 172.27 120.767 173.239 119.562 173.239C119.714 170.29 118.025 169.528 117.389 171.065C117.389 169.875 118.358 168.892 119.562 168.892Z" fill="url(#paint7_linear)"/>
<path fill-rule="evenodd" clip-rule="evenodd" d="M119.562 169.639C120.351 169.639 120.988 170.276 120.988 171.065C120.988 171.854 120.351 172.491 119.562 172.491C118.773 172.491 118.136 171.854 118.136 171.065C118.136 170.276 118.773 169.639 119.562 169.639Z" fill="url(#paint8_linear)"/>
<path opacity="0.5" fill-rule="evenodd" clip-rule="evenodd" d="M119.562 169.639C118.662 171.051 119.922 171.785 120.988 171.065C120.988 171.854 120.351 172.491 119.562 172.491C121.237 172.173 118.898 170.442 118.136 171.065C118.136 170.276 118.773 169.639 119.562 169.639Z" fill="url(#paint9_linear)"/>
<path fill-rule="evenodd" clip-rule="evenodd" d="M119.562 169.861C120.227 169.861 120.781 170.401 120.781 171.079C120.781 171.744 120.241 172.297 119.562 172.297C118.898 172.297 118.344 171.757 118.344 171.079C118.344 170.401 118.898 169.861 119.562 169.861Z" fill="url(#paint10_linear)"/>
<path fill-rule="evenodd" clip-rule="evenodd" d="M119.562 178.597C120.905 178.597 121.985 179.677 121.985 181.02C121.985 182.363 120.905 183.442 119.562 183.442C118.219 183.442 117.139 182.363 117.139 181.02C117.139 179.677 118.219 178.597 119.562 178.597Z" fill="#5B1E00"/>
<path d="M119.562 183.193C120.763 183.193 121.736 182.22 121.736 181.02C121.736 179.819 120.763 178.846 119.562 178.846C118.362 178.846 117.389 179.819 117.389 181.02C117.389 182.22 118.362 183.193 119.562 183.193Z" fill="url(#paint11_linear)"/>
<path opacity="0.5" fill-rule="evenodd" clip-rule="evenodd" d="M119.562 178.846C118.122 180.397 120.85 183.872 121.736 181.02C121.736 182.224 120.767 183.193 119.562 183.193C119.714 180.244 118.025 179.483 117.389 181.02C117.389 179.815 118.358 178.846 119.562 178.846Z" fill="url(#paint12_linear)"/>
<path fill-rule="evenodd" clip-rule="evenodd" d="M119.562 179.594C120.351 179.594 120.988 180.23 120.988 181.02C120.988 181.809 120.351 182.446 119.562 182.446C118.773 182.446 118.136 181.809 118.136 181.02C118.136 180.23 118.773 179.594 119.562 179.594Z" fill="url(#paint13_linear)"/>
<path opacity="0.5" fill-rule="evenodd" clip-rule="evenodd" d="M119.562 179.594C118.662 181.006 119.922 181.74 120.988 181.02C120.988 181.809 120.351 182.446 119.562 182.446C121.237 182.127 118.898 180.397 118.136 181.02C118.136 180.23 118.773 179.594 119.562 179.594Z" fill="url(#paint14_linear)"/>
<path fill-rule="evenodd" clip-rule="evenodd" d="M119.562 179.801C120.227 179.801 120.781 180.341 120.781 181.02C120.781 181.684 120.241 182.238 119.562 182.238C118.898 182.238 118.344 181.698 118.344 181.02C118.344 180.341 118.898 179.801 119.562 179.801Z" fill="url(#paint15_linear)"/>
<path fill-rule="evenodd" clip-rule="evenodd" d="M109.705 187.914V150.852C109.705 149.786 105.69 149.814 105.69 150.686C105.856 166.289 105.69 181.85 105.69 197.467C105.69 199.239 106.839 200.624 108.404 201.067L113.457 202.507C117.527 203.67 121.376 199.959 121.376 195.335L117.873 194.117V190.448C117.873 189.659 117.347 188.925 116.572 188.828L109.705 187.914Z" fill="url(#paint16_linear)"/>
<path fill-rule="evenodd" clip-rule="evenodd" d="M105.69 197.467C105.69 199.239 106.839 200.624 108.404 201.067L113.457 202.507C117.527 203.67 121.376 199.959 121.376 195.335L117.873 194.117V190.448C117.873 189.659 117.347 188.925 116.572 188.828L109.691 187.914V150.852C109.691 149.786 105.676 149.814 105.676 150.686C105.856 166.289 105.69 181.864 105.69 197.467ZM111.02 150.852V186.765L116.738 187.527C117.486 187.623 118.095 188.011 118.524 188.537C118.953 189.063 119.189 189.756 119.189 190.448V193.175L121.694 194.047C122.262 194.2 122.677 194.712 122.677 195.335C122.677 196.235 122.553 197.107 122.317 197.938C121.819 199.668 120.85 201.177 119.59 202.257C118.289 203.379 116.669 204.043 114.952 204.043C114.343 204.043 113.706 203.96 113.069 203.78L108.016 202.34C106.936 202.036 106.008 201.399 105.344 200.527C104.707 199.682 104.333 198.644 104.333 197.467C104.333 193.729 104.361 187.776 104.375 181.864C104.416 171.481 104.444 161.097 104.333 150.7C104.319 149.606 105.275 148.983 106.534 148.789C106.839 148.748 107.199 148.72 107.573 148.72C107.919 148.72 108.279 148.748 108.625 148.803C109.968 148.997 111.02 149.647 111.02 150.852Z" fill="black"/>
<path fill-rule="evenodd" clip-rule="evenodd" d="M109.705 150.852C109.705 149.786 105.69 149.814 105.69 150.686C105.69 165.694 105.69 162.191 105.69 177.503C105.69 178.154 109.705 180.023 109.705 178.306V150.852Z" fill="url(#paint17_linear)"/>
<path fill-rule="evenodd" clip-rule="evenodd" d="M109.705 177.226C108.362 177.226 107.033 177.226 105.69 177.226C105.69 191.68 105.69 177.434 105.69 190.739C105.69 191.652 106.438 192.4 107.351 192.4H108.044C108.957 192.4 109.705 191.652 109.705 190.739C109.705 186.239 109.705 181.726 109.705 177.226Z" fill="url(#paint18_linear)"/>
<path fill-rule="evenodd" clip-rule="evenodd" d="M109.705 177.226C109.151 177.226 109.511 177.226 108.957 177.226C108.957 180.037 109.04 184.107 109.04 187.374C109.04 187.61 108.514 187.734 108.514 187.956C109.442 187.762 109.802 191.915 108.044 192.4C108.957 192.4 109.705 191.652 109.705 190.739C109.705 186.239 109.705 181.726 109.705 177.226Z" fill="#C1C1C1"/>
<path fill-rule="evenodd" clip-rule="evenodd" d="M109.705 187.914L110.01 187.956V190.739C110.01 191.818 109.124 192.691 108.057 192.691H107.365C106.687 192.691 106.064 192.345 105.704 191.777V190.835C105.759 191.708 106.479 192.4 107.365 192.4H108.057C108.971 192.4 109.719 191.652 109.719 190.739V187.914H109.705Z" fill="#5B1E00"/>
<path fill-rule="evenodd" clip-rule="evenodd" d="M105.69 193.535C105.69 194.85 105.69 196.152 105.69 197.467C105.69 199.239 106.839 200.624 108.404 201.067C110.093 201.551 111.782 202.022 113.457 202.507C116.503 203.379 119.41 201.51 120.698 198.602C115.7 196.913 110.688 195.224 105.69 193.535Z" fill="url(#paint19_linear)"/>
<path opacity="0.5" fill-rule="evenodd" clip-rule="evenodd" d="M105.69 193.535V194.587L120.213 199.53L120.698 198.602L105.69 193.535Z" fill="url(#paint20_linear)"/>
<path opacity="0.5" fill-rule="evenodd" clip-rule="evenodd" d="M105.69 197.467C105.69 199.239 106.839 200.624 108.404 201.067C110.093 201.551 111.782 202.022 113.457 202.507C115.367 203.046 117.223 202.52 118.649 201.33C115.049 202.95 107.033 200.361 105.69 197.467Z" fill="#5B1E00"/>
<path fill-rule="evenodd" clip-rule="evenodd" d="M108.251 198.464C108.03 198.298 107.988 197.993 108.141 197.772C108.307 197.55 108.611 197.509 108.833 197.661C110.508 198.893 111.034 198.796 111.574 198.699C112.308 198.561 113.069 198.422 115.049 199.724C115.284 199.876 115.34 200.181 115.201 200.416C115.049 200.651 114.744 200.707 114.509 200.568C112.862 199.488 112.294 199.599 111.754 199.696C110.993 199.807 110.273 199.945 108.251 198.464Z" fill="#5B1E00"/>
<path fill-rule="evenodd" clip-rule="evenodd" d="M108.348 198.325C108.196 198.215 108.168 198.007 108.279 197.869C108.39 197.716 108.597 197.689 108.736 197.799C110.467 199.073 111.02 198.962 111.616 198.865C112.308 198.741 113.042 198.602 114.966 199.862C115.118 199.959 115.16 200.167 115.063 200.319C114.966 200.471 114.758 200.513 114.606 200.416C112.903 199.308 112.308 199.419 111.74 199.516C111.006 199.641 110.314 199.765 108.348 198.325Z" fill="url(#paint21_linear)"/>
<path fill-rule="evenodd" clip-rule="evenodd" d="M108.445 198.201C108.376 198.146 108.362 198.049 108.403 197.966C108.459 197.896 108.556 197.882 108.639 197.924C110.425 199.239 111.02 199.128 111.643 199.018C112.308 198.893 113 198.769 114.869 199.987C114.952 200.042 114.966 200.139 114.924 200.222C114.869 200.305 114.772 200.319 114.689 200.278C112.931 199.128 112.294 199.253 111.699 199.35C111.006 199.475 110.356 199.585 108.445 198.201Z" fill="url(#paint22_linear)"/>
<path fill-rule="evenodd" clip-rule="evenodd" d="M108.542 196.083C109.636 196.083 110.508 196.969 110.508 198.048C110.508 199.142 109.622 200.014 108.542 200.014C107.448 200.014 106.576 199.128 106.576 198.048C106.576 196.969 107.462 196.083 108.542 196.083Z" fill="#5B1E00"/>
<path fill-rule="evenodd" clip-rule="evenodd" d="M108.542 196.387C109.47 196.387 110.217 197.135 110.217 198.062C110.217 198.99 109.47 199.737 108.542 199.737C107.614 199.737 106.867 198.99 106.867 198.062C106.867 197.135 107.614 196.387 108.542 196.387Z" fill="url(#paint23_linear)"/>
<path opacity="0.5" fill-rule="evenodd" clip-rule="evenodd" d="M108.542 196.387C107.421 197.592 109.539 200.277 110.217 198.062C110.217 198.99 109.47 199.737 108.542 199.737C108.653 197.453 107.351 196.872 106.867 198.062C106.867 197.135 107.614 196.387 108.542 196.387Z" fill="url(#paint24_linear)"/>
<path fill-rule="evenodd" clip-rule="evenodd" d="M108.542 196.955C109.151 196.955 109.649 197.453 109.649 198.062C109.649 198.671 109.151 199.17 108.542 199.17C107.933 199.17 107.434 198.671 107.434 198.062C107.448 197.453 107.933 196.955 108.542 196.955Z" fill="url(#paint25_linear)"/>
<path opacity="0.5" fill-rule="evenodd" clip-rule="evenodd" d="M108.542 196.955C107.85 198.048 108.819 198.616 109.649 198.062C109.649 198.671 109.151 199.17 108.542 199.17C109.843 198.921 108.03 197.578 107.434 198.062C107.448 197.453 107.933 196.955 108.542 196.955Z" fill="url(#paint26_linear)"/>
<path fill-rule="evenodd" clip-rule="evenodd" d="M108.542 197.121C109.054 197.121 109.483 197.536 109.483 198.062C109.483 198.575 109.068 199.004 108.542 199.004C108.03 199.004 107.601 198.588 107.601 198.062C107.614 197.536 108.03 197.121 108.542 197.121Z" fill="url(#paint27_linear)"/>
<path fill-rule="evenodd" clip-rule="evenodd" d="M115.52 198.381C116.614 198.381 117.486 199.267 117.486 200.347C117.486 201.441 116.6 202.313 115.52 202.313C114.44 202.313 113.554 201.427 113.554 200.347C113.554 199.267 114.44 198.381 115.52 198.381Z" fill="#5B1E00"/>
<path fill-rule="evenodd" clip-rule="evenodd" d="M115.52 198.672C116.447 198.672 117.195 199.419 117.195 200.347C117.195 201.274 116.447 202.022 115.52 202.022C114.592 202.022 113.845 201.274 113.845 200.347C113.845 199.419 114.592 198.672 115.52 198.672Z" fill="url(#paint28_linear)"/>
<path opacity="0.5" fill-rule="evenodd" clip-rule="evenodd" d="M115.52 198.672C114.398 199.876 116.517 202.562 117.195 200.347C117.195 201.274 116.447 202.022 115.52 202.022C115.631 199.738 114.329 199.156 113.845 200.347C113.845 199.433 114.592 198.672 115.52 198.672Z" fill="url(#paint29_linear)"/>
<path fill-rule="evenodd" clip-rule="evenodd" d="M115.52 199.253C116.129 199.253 116.627 199.751 116.627 200.361C116.627 200.97 116.129 201.468 115.52 201.468C114.911 201.468 114.412 200.97 114.412 200.361C114.412 199.751 114.911 199.253 115.52 199.253Z" fill="url(#paint30_linear)"/>
<path opacity="0.5" fill-rule="evenodd" clip-rule="evenodd" d="M115.52 199.253C114.828 200.347 115.797 200.914 116.627 200.361C116.627 200.97 116.129 201.468 115.52 201.468C116.821 201.219 115.008 199.876 114.412 200.361C114.412 199.751 114.911 199.253 115.52 199.253Z" fill="url(#paint31_linear)"/>
<path d="M115.52 201.302C116.04 201.302 116.461 200.881 116.461 200.361C116.461 199.841 116.04 199.419 115.52 199.419C115 199.419 114.578 199.841 114.578 200.361C114.578 200.881 115 201.302 115.52 201.302Z" fill="url(#paint32_linear)"/>
<path fill-rule="evenodd" clip-rule="evenodd" d="M115.852 189.797H116.212C116.821 189.797 117.306 190.296 117.306 190.891V194.92C117.306 195.529 116.807 196.013 116.212 196.013H115.852C115.243 196.013 114.758 195.515 114.758 194.92V190.891C114.758 190.296 115.257 189.797 115.852 189.797Z" fill="url(#paint33_linear)"/>
<path fill-rule="evenodd" clip-rule="evenodd" d="M115.852 190.157H116.212C116.614 190.157 116.946 190.489 116.946 190.891V194.92C116.946 195.321 116.614 195.653 116.212 195.653H115.852C115.451 195.653 115.118 195.321 115.118 194.92V190.891C115.132 190.489 115.451 190.157 115.852 190.157Z" fill="url(#paint34_linear)"/>
<path fill-rule="evenodd" clip-rule="evenodd" d="M115.894 190.448H116.184C116.503 190.448 116.752 190.711 116.752 191.016V194.767C116.752 195.086 116.489 195.335 116.184 195.335H115.894C115.575 195.335 115.326 195.072 115.326 194.767V191.016C115.326 190.711 115.575 190.448 115.894 190.448Z" fill="url(#paint35_radial)"/>
<path opacity="0.5" fill-rule="evenodd" clip-rule="evenodd" d="M115.852 190.157C115.977 190.157 116.101 190.157 116.212 190.157C115.838 190.697 116.281 195.335 116.946 194.92C116.946 195.321 116.614 195.653 116.212 195.653C116.087 195.653 115.963 195.653 115.852 195.653C116.53 192.04 115.312 191.015 115.118 190.891C115.132 190.489 115.451 190.157 115.852 190.157Z" fill="url(#paint36_linear)"/>
<path fill-rule="evenodd" clip-rule="evenodd" d="M111.712 188.966H112.072C112.681 188.966 113.166 189.465 113.166 190.06V194.089C113.166 194.698 112.668 195.183 112.072 195.183H111.712C111.103 195.183 110.619 194.684 110.619 194.089V190.06C110.619 189.465 111.103 188.966 111.712 188.966Z" fill="url(#paint37_linear)"/>
<path fill-rule="evenodd" clip-rule="evenodd" d="M111.712 189.326H112.072C112.474 189.326 112.806 189.659 112.806 190.06V194.089C112.806 194.49 112.474 194.823 112.072 194.823H111.712C111.311 194.823 110.978 194.49 110.978 194.089V190.06C110.978 189.659 111.311 189.326 111.712 189.326Z" fill="url(#paint38_linear)"/>
<path fill-rule="evenodd" clip-rule="evenodd" d="M111.754 189.617H112.044C112.363 189.617 112.612 189.88 112.612 190.185V193.937C112.612 194.255 112.349 194.504 112.044 194.504H111.754C111.435 194.504 111.186 194.241 111.186 193.937V190.185C111.172 189.88 111.435 189.617 111.754 189.617Z" fill="url(#paint39_radial)"/>
<path opacity="0.5" fill-rule="evenodd" clip-rule="evenodd" d="M111.712 189.326C111.837 189.326 111.961 189.326 112.072 189.326C111.698 189.866 112.141 194.504 112.806 194.089C112.806 194.49 112.474 194.823 112.072 194.823C111.948 194.823 111.823 194.823 111.712 194.823C112.391 191.209 111.172 190.185 110.978 190.06C110.978 189.659 111.311 189.326 111.712 189.326Z" fill="url(#paint40_linear)"/>
<path d="M109.705 162.26H105.69V162.592H109.705V162.26Z" fill="url(#paint41_linear)"/>
<path d="M109.705 158.951H105.69V159.283H109.705V158.951Z" fill="url(#paint42_linear)"/>
<path fill-rule="evenodd" clip-rule="evenodd" d="M108.874 177.226H108.542V166.233C108.542 165.79 108.874 165.79 108.874 166.233V177.226ZM106.853 177.226H106.521V166.233C106.521 165.79 106.853 165.79 106.853 166.233V177.226Z" fill="url(#paint43_linear)"/>
<path fill-rule="evenodd" clip-rule="evenodd" d="M109.027 180.341V187.374C109.027 188.343 106.368 188.343 106.368 187.374V180.341C106.368 179.372 109.027 179.372 109.027 180.341ZM108.694 180.341C108.694 179.829 106.701 179.829 106.701 180.341V187.374C106.701 187.887 108.694 187.887 108.694 187.374V180.341Z" fill="#5B1E00"/>
<path fill-rule="evenodd" clip-rule="evenodd" d="M148.512 195.058H153.219V165.403C153.219 164.489 152.471 163.741 151.558 163.741H150.173C149.259 163.741 148.512 164.489 148.512 165.403V195.058Z" fill="#FFDD43"/>
<path fill-rule="evenodd" clip-rule="evenodd" d="M148.512 196.373C147.778 196.373 147.183 195.778 147.183 195.044V165.403C147.183 164.627 147.487 163.921 147.972 163.395C147.999 163.368 148.027 163.326 148.055 163.298C148.595 162.758 149.342 162.426 150.159 162.426H151.558C152.374 162.426 153.122 162.758 153.662 163.298C154.202 163.838 154.534 164.586 154.534 165.403V195.058C154.534 195.792 153.939 196.387 153.205 196.387H148.512V196.373ZM148.512 165.403C148.512 164.489 149.259 163.741 150.173 163.741H151.558C152.471 163.741 153.219 164.489 153.219 165.403V195.058H148.512V165.403Z" fill="black"/>
<path fill-rule="evenodd" clip-rule="evenodd" d="M153.219 165.569V165.237H152.291C151.281 165.237 150.464 166.053 150.464 167.064V195.058H150.796V167.064C150.796 166.247 151.461 165.569 152.291 165.569H153.219Z" fill="#5B1E00"/>
<path fill-rule="evenodd" clip-rule="evenodd" d="M148.512 195.058C149.425 195.058 148.969 195.058 149.882 195.058C149.882 168.185 148.484 165.347 151.253 163.741C150.893 163.741 150.533 163.741 150.173 163.741C149.259 163.741 148.512 164.489 148.512 165.403C148.512 175.288 148.512 185.173 148.512 195.058Z" fill="#C1C1C1"/>
<path fill-rule="evenodd" clip-rule="evenodd" d="M155.6 189.839L158.674 188.731V174.499C158.674 171.758 156.597 169.529 154.063 169.529H150.99C148.969 169.529 148.969 172.851 150.99 172.851H154.063C154.922 172.851 155.6 173.585 155.6 174.513V189.839Z" fill="url(#paint44_linear)"/>
<path fill-rule="evenodd" clip-rule="evenodd" d="M156.154 191.043C155.988 191.112 155.808 191.168 155.6 191.168C154.866 191.168 154.271 190.572 154.271 189.839V174.499C154.271 174.388 154.23 174.291 154.174 174.222C154.146 174.18 154.091 174.166 154.05 174.166H150.976C149.605 174.166 148.719 173.363 148.332 172.325C148.193 171.965 148.124 171.578 148.124 171.19C148.124 170.83 148.179 170.47 148.304 170.138L148.332 170.055C148.719 169.016 149.592 168.213 150.976 168.213H154.05C155.697 168.213 157.192 168.933 158.272 170.096C159.324 171.231 159.989 172.796 159.989 174.499V188.717C159.989 189.257 159.657 189.769 159.117 189.963L156.154 191.043ZM155.6 174.499C155.6 173.585 154.922 172.837 154.063 172.837H150.99C148.969 172.837 148.969 169.515 150.99 169.515H154.063C156.597 169.515 158.674 171.758 158.674 174.485V188.703L155.6 189.811V174.499Z" fill="black"/>
<path fill-rule="evenodd" clip-rule="evenodd" d="M155.6 189.839L156.985 189.34L157.012 174.513C157.012 172.657 155.434 171.19 154.063 171.19H150.99C148.969 171.19 148.969 172.851 150.99 172.851H154.063C154.922 172.851 155.6 173.585 155.6 174.513V189.839Z" fill="url(#paint45_linear)"/>
<path fill-rule="evenodd" clip-rule="evenodd" d="M152.596 172.547C152.568 172.27 152.319 172.076 152.042 172.104C151.765 172.131 151.571 172.38 151.599 172.657C151.821 174.72 151.488 175.122 151.128 175.551C150.658 176.119 150.145 176.7 150.27 179.067C150.284 179.344 150.519 179.552 150.796 179.538C151.073 179.524 151.281 179.289 151.267 179.012C151.156 177.046 151.53 176.603 151.89 176.188C152.388 175.592 152.859 175.025 152.596 172.547Z" fill="#5B1E00"/>
<path fill-rule="evenodd" clip-rule="evenodd" d="M152.43 172.56C152.416 172.38 152.25 172.242 152.07 172.27C151.89 172.283 151.751 172.45 151.779 172.63C152.014 174.762 151.641 175.191 151.267 175.648C150.81 176.188 150.325 176.755 150.45 179.04C150.464 179.22 150.616 179.358 150.796 179.358C150.976 179.344 151.115 179.192 151.115 179.012C151.004 176.977 151.405 176.52 151.779 176.077C152.236 175.509 152.693 174.983 152.43 172.56Z" fill="url(#paint46_linear)"/>
<path fill-rule="evenodd" clip-rule="evenodd" d="M152.264 172.574C152.25 172.477 152.167 172.422 152.084 172.422C151.987 172.436 151.931 172.519 151.931 172.602C152.181 174.803 151.779 175.26 151.378 175.745C150.948 176.257 150.478 176.797 150.602 179.026C150.602 179.123 150.685 179.192 150.782 179.178C150.879 179.178 150.948 179.095 150.935 178.998C150.824 176.908 151.239 176.409 151.627 175.952C152.084 175.44 152.513 174.928 152.264 172.574Z" fill="url(#paint47_linear)"/>
<path fill-rule="evenodd" clip-rule="evenodd" d="M149.509 172.547C149.536 172.27 149.785 172.076 150.062 172.104C150.339 172.131 150.533 172.38 150.505 172.657C150.284 174.72 150.616 175.122 150.99 175.551C151.461 176.119 151.973 176.7 151.848 179.067C151.834 179.344 151.599 179.552 151.322 179.538C151.045 179.524 150.838 179.289 150.851 179.012C150.962 177.046 150.588 176.603 150.228 176.188C149.702 175.592 149.232 175.025 149.509 172.547Z" fill="#5B1E00"/>
<path fill-rule="evenodd" clip-rule="evenodd" d="M149.661 172.56C149.675 172.38 149.841 172.242 150.021 172.27C150.201 172.283 150.339 172.45 150.312 172.63C150.076 174.762 150.45 175.191 150.824 175.648C151.281 176.188 151.765 176.755 151.641 179.04C151.627 179.22 151.474 179.358 151.295 179.358C151.115 179.344 150.976 179.192 150.976 179.012C151.087 176.977 150.685 176.52 150.312 176.077C149.855 175.509 149.398 174.983 149.661 172.56Z" fill="url(#paint48_linear)"/>
<path fill-rule="evenodd" clip-rule="evenodd" d="M149.827 172.574C149.841 172.477 149.924 172.422 150.007 172.422C150.104 172.436 150.159 172.519 150.159 172.602C149.91 174.803 150.312 175.26 150.713 175.745C151.142 176.257 151.613 176.797 151.488 179.026C151.488 179.123 151.405 179.192 151.308 179.178C151.211 179.178 151.142 179.095 151.156 178.998C151.267 176.908 150.852 176.409 150.464 175.952C150.007 175.44 149.578 174.928 149.827 172.574Z" fill="url(#paint49_linear)"/>
<path fill-rule="evenodd" clip-rule="evenodd" d="M150.935 168.642C149.592 168.642 148.512 169.722 148.512 171.065C148.512 172.408 149.592 173.488 150.935 173.488C152.277 173.488 153.357 172.408 153.357 171.065C153.357 169.736 152.264 168.642 150.935 168.642Z" fill="#5B1E00"/>
<path d="M150.934 173.239C152.135 173.239 153.108 172.266 153.108 171.065C153.108 169.865 152.135 168.892 150.934 168.892C149.734 168.892 148.761 169.865 148.761 171.065C148.761 172.266 149.734 173.239 150.934 173.239Z" fill="url(#paint50_linear)"/>
<path opacity="0.5" fill-rule="evenodd" clip-rule="evenodd" d="M150.934 168.892C152.374 170.442 149.647 173.917 148.761 171.065C148.761 172.27 149.73 173.239 150.934 173.239C150.782 170.29 152.471 169.528 153.108 171.065C153.108 169.875 152.139 168.892 150.934 168.892Z" fill="url(#paint51_linear)"/>
<path fill-rule="evenodd" clip-rule="evenodd" d="M150.935 169.639C150.145 169.639 149.509 170.276 149.509 171.065C149.509 171.854 150.145 172.491 150.935 172.491C151.724 172.491 152.361 171.854 152.361 171.065C152.361 170.276 151.724 169.639 150.935 169.639Z" fill="url(#paint52_linear)"/>
<path opacity="0.5" fill-rule="evenodd" clip-rule="evenodd" d="M150.935 169.639C151.834 171.051 150.575 171.785 149.509 171.065C149.509 171.854 150.145 172.491 150.935 172.491C149.259 172.173 151.599 170.442 152.361 171.065C152.361 170.276 151.724 169.639 150.935 169.639Z" fill="url(#paint53_linear)"/>
<path fill-rule="evenodd" clip-rule="evenodd" d="M150.935 169.861C150.27 169.861 149.716 170.401 149.716 171.079C149.716 171.744 150.256 172.297 150.935 172.297C151.599 172.297 152.153 171.757 152.153 171.079C152.153 170.401 151.599 169.861 150.935 169.861Z" fill="url(#paint54_linear)"/>
<path fill-rule="evenodd" clip-rule="evenodd" d="M150.935 178.597C149.592 178.597 148.512 179.677 148.512 181.02C148.512 182.363 149.592 183.442 150.935 183.442C152.277 183.442 153.357 182.363 153.357 181.02C153.357 179.677 152.264 178.597 150.935 178.597Z" fill="#5B1E00"/>
<path d="M150.934 183.193C152.135 183.193 153.108 182.22 153.108 181.02C153.108 179.819 152.135 178.846 150.934 178.846C149.734 178.846 148.761 179.819 148.761 181.02C148.761 182.22 149.734 183.193 150.934 183.193Z" fill="url(#paint55_linear)"/>
<path opacity="0.5" fill-rule="evenodd" clip-rule="evenodd" d="M150.934 178.846C152.374 180.397 149.647 183.872 148.761 181.02C148.761 182.224 149.73 183.193 150.934 183.193C150.782 180.244 152.471 179.483 153.108 181.02C153.108 179.815 152.139 178.846 150.934 178.846Z" fill="url(#paint56_linear)"/>
<path fill-rule="evenodd" clip-rule="evenodd" d="M150.935 179.594C150.145 179.594 149.509 180.23 149.509 181.02C149.509 181.809 150.145 182.446 150.935 182.446C151.724 182.446 152.361 181.809 152.361 181.02C152.361 180.23 151.724 179.594 150.935 179.594Z" fill="url(#paint57_linear)"/>
<path opacity="0.5" fill-rule="evenodd" clip-rule="evenodd" d="M150.935 179.594C151.834 181.006 150.575 181.74 149.509 181.02C149.509 181.809 150.145 182.446 150.935 182.446C149.259 182.127 151.599 180.397 152.361 181.02C152.361 180.23 151.724 179.594 150.935 179.594Z" fill="url(#paint58_linear)"/>
<path fill-rule="evenodd" clip-rule="evenodd" d="M150.935 179.801C150.27 179.801 149.716 180.341 149.716 181.02C149.716 181.684 150.256 182.238 150.935 182.238C151.599 182.238 152.153 181.698 152.153 181.02C152.153 180.341 151.599 179.801 150.935 179.801Z" fill="url(#paint59_linear)"/>
<path fill-rule="evenodd" clip-rule="evenodd" d="M160.792 187.914V150.852C160.792 149.786 164.807 149.814 164.807 150.686C164.641 166.289 164.807 181.85 164.807 197.467C164.807 199.239 163.658 200.624 162.093 201.067L157.04 202.507C152.97 203.67 149.121 199.959 149.121 195.335L152.624 194.117V190.448C152.624 189.659 153.15 188.925 153.925 188.828L160.792 187.914Z" fill="url(#paint60_linear)"/>
<path fill-rule="evenodd" clip-rule="evenodd" d="M164.807 197.467C164.807 181.864 164.641 166.289 164.807 150.686C164.821 149.814 160.792 149.786 160.792 150.852V187.914L153.911 188.828C153.136 188.925 152.61 189.659 152.61 190.448V194.117L149.107 195.335C149.107 199.959 152.956 203.67 157.026 202.507L162.08 201.067C163.658 200.624 164.807 199.239 164.807 197.467ZM161.858 148.789C162.204 148.734 162.55 148.706 162.91 148.706C163.284 148.706 163.63 148.734 163.949 148.775C165.208 148.969 166.15 149.592 166.15 150.686C166.039 161.083 166.081 171.467 166.108 181.85C166.122 187.762 166.15 193.715 166.15 197.453C166.15 198.616 165.776 199.668 165.139 200.513C164.489 201.385 163.547 202.022 162.467 202.327L157.414 203.766C156.777 203.946 156.154 204.03 155.531 204.03C153.8 204.03 152.194 203.365 150.893 202.244C149.633 201.164 148.65 199.655 148.166 197.924C147.93 197.093 147.806 196.221 147.806 195.321C147.806 194.712 148.221 194.186 148.789 194.034L151.295 193.161V190.434C151.295 189.728 151.544 189.05 151.959 188.523C152.388 187.984 153.011 187.61 153.745 187.513L159.463 186.751V150.852C159.463 149.647 160.529 148.997 161.858 148.789Z" fill="black"/>
<path fill-rule="evenodd" clip-rule="evenodd" d="M160.792 150.852C160.792 149.786 164.807 149.814 164.807 150.686C164.807 165.694 164.807 162.191 164.807 177.503C164.807 178.154 160.792 180.023 160.792 178.306V150.852Z" fill="url(#paint61_linear)"/>
<path fill-rule="evenodd" clip-rule="evenodd" d="M160.792 177.226C162.135 177.226 163.464 177.226 164.807 177.226C164.807 191.68 164.807 177.434 164.807 190.739C164.807 191.652 164.059 192.4 163.146 192.4H162.453C161.54 192.4 160.792 191.652 160.792 190.739C160.792 186.239 160.792 181.726 160.792 177.226Z" fill="url(#paint62_linear)"/>
<path fill-rule="evenodd" clip-rule="evenodd" d="M160.792 177.226C161.346 177.226 160.986 177.226 161.54 177.226C161.54 180.037 161.457 184.107 161.457 187.374C161.457 187.61 161.983 187.734 161.983 187.956C161.055 187.762 160.695 191.915 162.453 192.4C161.54 192.4 160.792 191.652 160.792 190.739C160.792 186.239 160.792 181.726 160.792 177.226Z" fill="#C1C1C1"/>
<path fill-rule="evenodd" clip-rule="evenodd" d="M160.792 187.914L160.487 187.956V190.739C160.487 191.819 161.373 192.691 162.439 192.691H163.132C163.81 192.691 164.433 192.345 164.793 191.777V190.836C164.738 191.708 164.018 192.4 163.132 192.4H162.439C161.526 192.4 160.778 191.652 160.778 190.739V187.914H160.792Z" fill="#5B1E00"/>
<path fill-rule="evenodd" clip-rule="evenodd" d="M164.807 193.535C164.807 194.851 164.807 196.152 164.807 197.467C164.807 199.239 163.658 200.624 162.093 201.067C160.404 201.551 158.715 202.022 157.04 202.507C153.994 203.379 151.087 201.51 149.799 198.602C154.797 196.913 159.809 195.224 164.807 193.535Z" fill="url(#paint63_linear)"/>
<path opacity="0.5" fill-rule="evenodd" clip-rule="evenodd" d="M164.807 193.535V194.587L150.284 199.53L149.799 198.602L164.807 193.535Z" fill="url(#paint64_linear)"/>
<path opacity="0.5" fill-rule="evenodd" clip-rule="evenodd" d="M164.807 197.467C164.807 199.239 163.658 200.624 162.093 201.067C160.404 201.551 158.715 202.022 157.04 202.507C155.129 203.047 153.274 202.52 151.848 201.33C155.448 202.95 163.45 200.361 164.807 197.467Z" fill="#5B1E00"/>
<path fill-rule="evenodd" clip-rule="evenodd" d="M162.246 198.464C162.467 198.298 162.509 197.993 162.356 197.772C162.19 197.55 161.886 197.509 161.664 197.661C159.989 198.893 159.463 198.796 158.923 198.699C158.189 198.561 157.428 198.422 155.448 199.724C155.213 199.876 155.157 200.181 155.296 200.416C155.448 200.651 155.753 200.707 155.988 200.568C157.635 199.488 158.203 199.599 158.743 199.696C159.491 199.807 160.224 199.945 162.246 198.464Z" fill="#5B1E00"/>
<path fill-rule="evenodd" clip-rule="evenodd" d="M162.149 198.325C162.301 198.215 162.329 198.007 162.218 197.869C162.107 197.716 161.899 197.689 161.761 197.799C160.03 199.073 159.477 198.962 158.881 198.865C158.189 198.741 157.455 198.602 155.531 199.862C155.379 199.959 155.337 200.167 155.434 200.319C155.531 200.471 155.739 200.513 155.891 200.416C157.594 199.308 158.189 199.419 158.757 199.516C159.49 199.641 160.183 199.765 162.149 198.325Z" fill="url(#paint65_linear)"/>
<path fill-rule="evenodd" clip-rule="evenodd" d="M162.052 198.201C162.121 198.146 162.135 198.049 162.093 197.966C162.038 197.896 161.941 197.882 161.858 197.924C160.072 199.239 159.477 199.128 158.854 199.018C158.189 198.893 157.497 198.769 155.628 199.987C155.545 200.042 155.531 200.139 155.572 200.222C155.628 200.305 155.725 200.319 155.808 200.278C157.566 199.128 158.203 199.253 158.798 199.35C159.491 199.475 160.141 199.585 162.052 198.201Z" fill="url(#paint66_linear)"/>
<path fill-rule="evenodd" clip-rule="evenodd" d="M161.941 196.083C160.847 196.083 159.975 196.969 159.975 198.049C159.975 199.142 160.861 200.015 161.941 200.015C163.035 200.015 163.907 199.128 163.907 198.049C163.921 196.969 163.035 196.083 161.941 196.083Z" fill="#5B1E00"/>
<path fill-rule="evenodd" clip-rule="evenodd" d="M161.941 196.387C161.013 196.387 160.266 197.135 160.266 198.062C160.266 198.99 161.013 199.738 161.941 199.738C162.869 199.738 163.616 198.99 163.616 198.062C163.63 197.135 162.869 196.387 161.941 196.387Z" fill="url(#paint67_linear)"/>
<path opacity="0.5" fill-rule="evenodd" clip-rule="evenodd" d="M161.941 196.387C163.062 197.592 160.944 200.278 160.266 198.062C160.266 198.99 161.013 199.738 161.941 199.738C161.83 197.453 163.132 196.872 163.616 198.062C163.63 197.135 162.869 196.387 161.941 196.387Z" fill="url(#paint68_linear)"/>
<path fill-rule="evenodd" clip-rule="evenodd" d="M161.941 196.955C161.332 196.955 160.833 197.453 160.833 198.062C160.833 198.672 161.332 199.17 161.941 199.17C162.55 199.17 163.049 198.672 163.049 198.062C163.049 197.453 162.564 196.955 161.941 196.955Z" fill="url(#paint69_linear)"/>
<path opacity="0.5" fill-rule="evenodd" clip-rule="evenodd" d="M161.941 196.955C162.633 198.049 161.664 198.616 160.833 198.062C160.833 198.672 161.332 199.17 161.941 199.17C160.64 198.921 162.453 197.578 163.049 198.062C163.049 197.453 162.564 196.955 161.941 196.955Z" fill="url(#paint70_linear)"/>
<path fill-rule="evenodd" clip-rule="evenodd" d="M161.941 197.121C161.429 197.121 161 197.536 161 198.062C161 198.575 161.415 199.004 161.941 199.004C162.453 199.004 162.883 198.589 162.883 198.062C162.883 197.536 162.467 197.121 161.941 197.121Z" fill="url(#paint71_linear)"/>
<path fill-rule="evenodd" clip-rule="evenodd" d="M154.977 198.381C153.883 198.381 153.011 199.267 153.011 200.347C153.011 201.441 153.897 202.313 154.977 202.313C156.057 202.313 156.943 201.427 156.943 200.347C156.943 199.267 156.057 198.381 154.977 198.381Z" fill="#5B1E00"/>
<path fill-rule="evenodd" clip-rule="evenodd" d="M154.977 198.672C154.05 198.672 153.302 199.419 153.302 200.347C153.302 201.274 154.05 202.022 154.977 202.022C155.905 202.022 156.652 201.274 156.652 200.347C156.652 199.419 155.905 198.672 154.977 198.672Z" fill="url(#paint72_linear)"/>
<path opacity="0.5" fill-rule="evenodd" clip-rule="evenodd" d="M154.977 198.672C156.099 199.876 153.98 202.562 153.302 200.347C153.302 201.274 154.05 202.022 154.977 202.022C154.866 199.738 156.168 199.156 156.652 200.347C156.652 199.433 155.905 198.672 154.977 198.672Z" fill="url(#paint73_linear)"/>
<path fill-rule="evenodd" clip-rule="evenodd" d="M154.977 199.253C154.368 199.253 153.87 199.751 153.87 200.361C153.87 200.97 154.368 201.468 154.977 201.468C155.586 201.468 156.085 200.97 156.085 200.361C156.085 199.751 155.586 199.253 154.977 199.253Z" fill="url(#paint74_linear)"/>
<path opacity="0.5" fill-rule="evenodd" clip-rule="evenodd" d="M154.977 199.253C155.669 200.347 154.7 200.914 153.87 200.361C153.87 200.97 154.368 201.468 154.977 201.468C153.676 201.219 155.489 199.876 156.085 200.361C156.085 199.751 155.586 199.253 154.977 199.253Z" fill="url(#paint75_linear)"/>
<path fill-rule="evenodd" clip-rule="evenodd" d="M154.977 199.419C154.465 199.419 154.036 199.835 154.036 200.361C154.036 200.887 154.451 201.302 154.977 201.302C155.489 201.302 155.919 200.887 155.919 200.361C155.919 199.835 155.489 199.419 154.977 199.419Z" fill="url(#paint76_linear)"/>
<path fill-rule="evenodd" clip-rule="evenodd" d="M154.631 189.797H154.271C153.662 189.797 153.177 190.296 153.177 190.891V194.92C153.177 195.529 153.676 196.014 154.271 196.014H154.631C155.24 196.014 155.725 195.515 155.725 194.92V190.891C155.739 190.296 155.24 189.797 154.631 189.797Z" fill="url(#paint77_linear)"/>
<path fill-rule="evenodd" clip-rule="evenodd" d="M154.631 190.157H154.271C153.87 190.157 153.537 190.489 153.537 190.891V194.92C153.537 195.321 153.87 195.654 154.271 195.654H154.631C155.033 195.654 155.365 195.321 155.365 194.92V190.891C155.365 190.489 155.046 190.157 154.631 190.157Z" fill="url(#paint78_linear)"/>
<path fill-rule="evenodd" clip-rule="evenodd" d="M154.603 190.448H154.313C153.994 190.448 153.745 190.711 153.745 191.016V194.767C153.745 195.086 154.008 195.335 154.313 195.335H154.603C154.922 195.335 155.171 195.072 155.171 194.767V191.016C155.171 190.711 154.908 190.448 154.603 190.448Z" fill="url(#paint79_radial)"/>
<path opacity="0.5" fill-rule="evenodd" clip-rule="evenodd" d="M154.631 190.157C154.506 190.157 154.382 190.157 154.271 190.157C154.645 190.697 154.202 195.335 153.537 194.92C153.537 195.321 153.87 195.654 154.271 195.654C154.396 195.654 154.52 195.654 154.631 195.654C153.953 192.04 155.171 191.016 155.365 190.891C155.365 190.489 155.046 190.157 154.631 190.157Z" fill="url(#paint80_linear)"/>
<path fill-rule="evenodd" clip-rule="evenodd" d="M158.785 188.966H158.425C157.815 188.966 157.331 189.465 157.331 190.06V194.089C157.331 194.698 157.829 195.183 158.425 195.183H158.785C159.394 195.183 159.878 194.684 159.878 194.089V190.06C159.878 189.465 159.394 188.966 158.785 188.966Z" fill="url(#paint81_linear)"/>
<path fill-rule="evenodd" clip-rule="evenodd" d="M158.785 189.326H158.425C158.023 189.326 157.691 189.659 157.691 190.06V194.089C157.691 194.49 158.023 194.823 158.425 194.823H158.785C159.186 194.823 159.518 194.49 159.518 194.089V190.06C159.518 189.659 159.186 189.326 158.785 189.326Z" fill="url(#paint82_linear)"/>
<path fill-rule="evenodd" clip-rule="evenodd" d="M158.743 189.617H158.452C158.134 189.617 157.885 189.88 157.885 190.185V193.937C157.885 194.255 158.148 194.504 158.452 194.504H158.743C159.061 194.504 159.311 194.241 159.311 193.937V190.185C159.324 189.88 159.061 189.617 158.743 189.617Z" fill="url(#paint83_radial)"/>
<path opacity="0.5" fill-rule="evenodd" clip-rule="evenodd" d="M158.785 189.326C158.66 189.326 158.535 189.326 158.425 189.326C158.798 189.866 158.355 194.504 157.691 194.089C157.691 194.49 158.023 194.823 158.425 194.823C158.549 194.823 158.674 194.823 158.785 194.823C158.106 191.209 159.324 190.185 159.518 190.06C159.518 189.659 159.186 189.326 158.785 189.326Z" fill="url(#paint84_linear)"/>
<path d="M164.807 162.26H160.792V162.592H164.807V162.26Z" fill="url(#paint85_linear)"/>
<path d="M164.807 158.951H160.792V159.283H164.807V158.951Z" fill="url(#paint86_linear)"/>
<path fill-rule="evenodd" clip-rule="evenodd" d="M161.623 177.226V166.233C161.623 165.79 161.955 165.79 161.955 166.233V177.226H161.623ZM163.644 166.233C163.644 165.79 163.976 165.79 163.976 166.233V177.226H163.644V166.233Z" fill="url(#paint87_linear)"/>
<path fill-rule="evenodd" clip-rule="evenodd" d="M161.47 180.341C161.47 179.372 164.129 179.372 164.129 180.341V187.374C164.129 188.343 161.47 188.343 161.47 187.374V180.341ZM161.803 187.374C161.803 187.887 163.796 187.887 163.796 187.374V180.341C163.796 179.829 161.803 179.829 161.803 180.341V187.374Z" fill="#5B1E00"/>
</g>
</g>
<defs>
<linearGradient id="paint0_linear" x1="111.824" y1="179.677" x2="121.223" y2="179.685" gradientUnits="userSpaceOnUse">
<stop stop-color="#212427"/>
<stop offset="0.5" stop-color="#B8B9B8"/>
<stop offset="1" stop-color="#23272A"/>
</linearGradient>
<linearGradient id="paint1_linear" x1="113.48" y1="180.508" x2="121.186" y2="180.514" gradientUnits="userSpaceOnUse">
<stop stop-color="#212427"/>
<stop offset="0.5" stop-color="#B8B9B8"/>
<stop offset="1" stop-color="#23272A"/>
</linearGradient>
<linearGradient id="paint2_linear" x1="119.782" y1="175.647" x2="118.489" y2="175.953" gradientUnits="userSpaceOnUse">
<stop stop-color="#FFD13A"/>
<stop offset="0.53" stop-color="#FAEF5F"/>
<stop offset="1" stop-color="#FFD13A"/>
</linearGradient>
<linearGradient id="paint3_linear" x1="121.661" y1="177.851" x2="116.667" y2="173.939" gradientUnits="userSpaceOnUse">
<stop stop-color="#3B3092"/>
<stop offset="0.51" stop-color="#A5DBDB"/>
<stop offset="1" stop-color="#3B3092"/>
</linearGradient>
<linearGradient id="paint4_linear" x1="119.117" y1="175.647" x2="120.41" y2="175.953" gradientUnits="userSpaceOnUse">
<stop stop-color="#FFD13A"/>
<stop offset="0.53" stop-color="#FAEF5F"/>
<stop offset="1" stop-color="#FFD13A"/>
</linearGradient>
<linearGradient id="paint5_linear" x1="117.238" y1="177.851" x2="122.232" y2="173.939" gradientUnits="userSpaceOnUse">
<stop stop-color="#3B3092"/>
<stop offset="0.51" stop-color="#A5DBDB"/>
<stop offset="1" stop-color="#3B3092"/>
</linearGradient>
<linearGradient id="paint6_linear" x1="119.561" y1="173.209" x2="119.562" y2="168.897" gradientUnits="userSpaceOnUse">
<stop stop-color="#FFF032"/>
<stop offset="1" stop-color="#FAEF5F"/>
</linearGradient>
<linearGradient id="paint7_linear" x1="120.253" y1="172.058" x2="118.821" y2="170.006" gradientUnits="userSpaceOnUse">
<stop stop-color="#FAEF5F"/>
<stop offset="1" stop-color="white"/>
</linearGradient>
<linearGradient id="paint8_linear" x1="119.561" y1="172.395" x2="119.562" y2="169.714" gradientUnits="userSpaceOnUse">
<stop stop-color="#3B3092"/>
<stop offset="1" stop-color="#2B3594"/>
</linearGradient>
<linearGradient id="paint9_linear" x1="120.253" y1="171.683" x2="118.807" y2="170.395" gradientUnits="userSpaceOnUse">
<stop stop-color="#A5DBDB"/>
<stop offset="1" stop-color="white"/>
</linearGradient>
<linearGradient id="paint10_linear" x1="119.561" y1="172.279" x2="119.562" y2="169.855" gradientUnits="userSpaceOnUse">
<stop stop-color="#FAEF5F"/>
<stop offset="1" stop-color="#FDFAD3"/>
</linearGradient>
<linearGradient id="paint11_linear" x1="119.561" y1="183.16" x2="119.562" y2="178.847" gradientUnits="userSpaceOnUse">
<stop stop-color="#FFF032"/>
<stop offset="1" stop-color="#FAEF5F"/>
</linearGradient>
<linearGradient id="paint12_linear" x1="120.253" y1="182.009" x2="118.821" y2="179.956" gradientUnits="userSpaceOnUse">
<stop stop-color="#FAEF5F"/>
<stop offset="1" stop-color="white"/>
</linearGradient>
<linearGradient id="paint13_linear" x1="119.561" y1="182.345" x2="119.562" y2="179.664" gradientUnits="userSpaceOnUse">
<stop stop-color="#3B3092"/>
<stop offset="1" stop-color="#2B3594"/>
</linearGradient>
<linearGradient id="paint14_linear" x1="120.253" y1="181.633" x2="118.807" y2="180.345" gradientUnits="userSpaceOnUse">
<stop stop-color="#A5DBDB"/>
<stop offset="1" stop-color="white"/>
</linearGradient>
<linearGradient id="paint15_linear" x1="119.561" y1="182.229" x2="119.562" y2="179.805" gradientUnits="userSpaceOnUse">
<stop stop-color="#FAEF5F"/>
<stop offset="1" stop-color="#FDFAD3"/>
</linearGradient>
<linearGradient id="paint16_linear" x1="121.29" y1="176.383" x2="105.872" y2="176.381" gradientUnits="userSpaceOnUse">
<stop stop-color="#F89952"/>
<stop offset="1" stop-color="#FFDF4A"/>
</linearGradient>
<linearGradient id="paint17_linear" x1="105.686" y1="164.529" x2="109.696" y2="164.528" gradientUnits="userSpaceOnUse">
<stop stop-color="#212427"/>
<stop offset="0.49" stop-color="#B5B8B8"/>
<stop offset="1" stop-color="#212427"/>
</linearGradient>
<linearGradient id="paint18_linear" x1="105.688" y1="184.812" x2="109.699" y2="184.812" gradientUnits="userSpaceOnUse">
<stop stop-color="#F89952"/>
<stop offset="0.5" stop-color="#FAEF5F"/>
<stop offset="1" stop-color="#F89952"/>
</linearGradient>
<linearGradient id="paint19_linear" x1="111.524" y1="200.816" x2="112.463" y2="198.14" gradientUnits="userSpaceOnUse">
<stop stop-color="#F89952"/>
<stop offset="1" stop-color="#FFDF4A"/>
</linearGradient>
<linearGradient id="paint20_linear" x1="113.009" y1="196.61" x2="113.041" y2="196.514" gradientUnits="userSpaceOnUse">
<stop stop-color="#5C1800"/>
<stop offset="1" stop-color="#FFDF4A"/>
</linearGradient>
<linearGradient id="paint21_linear" x1="111.83" y1="198.552" x2="111.526" y2="199.568" gradientUnits="userSpaceOnUse">
<stop stop-color="#FFD13A"/>
<stop offset="0.53" stop-color="#FAEF5F"/>
<stop offset="1" stop-color="#FFD13A"/>
</linearGradient>
<linearGradient id="paint22_linear" x1="114.083" y1="198.123" x2="109.407" y2="200.006" gradientUnits="userSpaceOnUse">
<stop stop-color="#3B3092"/>
<stop offset="0.51" stop-color="#A5DBDB"/>
<stop offset="1" stop-color="#3B3092"/>
</linearGradient>
<linearGradient id="paint23_linear" x1="108.548" y1="199.721" x2="108.549" y2="196.381" gradientUnits="userSpaceOnUse">
<stop stop-color="#FFF032"/>
<stop offset="1" stop-color="#FAEF5F"/>
</linearGradient>
<linearGradient id="paint24_linear" x1="109.084" y1="198.83" x2="107.975" y2="197.24" gradientUnits="userSpaceOnUse">
<stop stop-color="#FAEF5F"/>
<stop offset="1" stop-color="white"/>
</linearGradient>
<linearGradient id="paint25_linear" x1="108.547" y1="199.09" x2="108.548" y2="197.013" gradientUnits="userSpaceOnUse">
<stop stop-color="#3B3092"/>
<stop offset="1" stop-color="#2B3594"/>
</linearGradient>
<linearGradient id="paint26_linear" x1="109.084" y1="198.539" x2="107.964" y2="197.541" gradientUnits="userSpaceOnUse">
<stop stop-color="#A5DBDB"/>
<stop offset="1" stop-color="white"/>
</linearGradient>
<linearGradient id="paint27_linear" x1="108.548" y1="199" x2="108.549" y2="197.123" gradientUnits="userSpaceOnUse">
<stop stop-color="#FAEF5F"/>
<stop offset="1" stop-color="#FDFAD3"/>
</linearGradient>
<linearGradient id="paint28_linear" x1="115.522" y1="202.017" x2="115.523" y2="198.677" gradientUnits="userSpaceOnUse">
<stop stop-color="#FFF032"/>
<stop offset="1" stop-color="#FAEF5F"/>
</linearGradient>
<linearGradient id="paint29_linear" x1="116.059" y1="201.126" x2="114.95" y2="199.536" gradientUnits="userSpaceOnUse">
<stop stop-color="#FAEF5F"/>
<stop offset="1" stop-color="white"/>
</linearGradient>
<linearGradient id="paint30_linear" x1="115.522" y1="201.386" x2="115.523" y2="199.309" gradientUnits="userSpaceOnUse">
<stop stop-color="#3B3092"/>
<stop offset="1" stop-color="#2B3594"/>
</linearGradient>
<linearGradient id="paint31_linear" x1="116.059" y1="200.834" x2="114.939" y2="199.837" gradientUnits="userSpaceOnUse">
<stop stop-color="#A5DBDB"/>
<stop offset="1" stop-color="white"/>
</linearGradient>
<linearGradient id="paint32_linear" x1="115.522" y1="201.296" x2="115.523" y2="199.419" gradientUnits="userSpaceOnUse">
<stop stop-color="#FAEF5F"/>
<stop offset="1" stop-color="#FDFAD3"/>
</linearGradient>
<linearGradient id="paint33_linear" x1="117.324" y1="192.911" x2="114.76" y2="192.909" gradientUnits="userSpaceOnUse">
<stop stop-color="#23272A"/>
<stop offset="1" stop-color="#B5B8B8"/>
</linearGradient>
<linearGradient id="paint34_linear" x1="116.041" y1="195.555" x2="116.043" y2="190.162" gradientUnits="userSpaceOnUse">
<stop stop-color="#020035"/>
<stop offset="1" stop-color="#472F92"/>
</linearGradient>
<radialGradient id="paint35_radial" cx="0" cy="0" r="1" gradientUnits="userSpaceOnUse" gradientTransform="translate(116.02 193.025) rotate(-89.9939) scale(2.40419 0.894842)">
<stop stop-color="#2B3594"/>
<stop offset="1" stop-color="#3B3092"/>
</radialGradient>
<linearGradient id="paint36_linear" x1="116.39" y1="195.127" x2="115.63" y2="190.295" gradientUnits="userSpaceOnUse">
<stop stop-color="#3B3092"/>
<stop offset="1" stop-color="white"/>
</linearGradient>
<linearGradient id="paint37_linear" x1="113.177" y1="192.081" x2="110.613" y2="192.079" gradientUnits="userSpaceOnUse">
<stop stop-color="#23272A"/>
<stop offset="1" stop-color="#B5B8B8"/>
</linearGradient>
<linearGradient id="paint38_linear" x1="111.894" y1="194.725" x2="111.895" y2="189.332" gradientUnits="userSpaceOnUse">
<stop stop-color="#020035"/>
<stop offset="1" stop-color="#472F92"/>
</linearGradient>
<radialGradient id="paint39_radial" cx="0" cy="0" r="1" gradientUnits="userSpaceOnUse" gradientTransform="translate(111.873 192.195) rotate(-89.9939) scale(2.40419 0.894838)">
<stop stop-color="#2B3594"/>
<stop offset="1" stop-color="#3B3092"/>
</radialGradient>
<linearGradient id="paint40_linear" x1="112.243" y1="194.297" x2="111.483" y2="189.465" gradientUnits="userSpaceOnUse">
<stop stop-color="#3B3092"/>
<stop offset="1" stop-color="white"/>
</linearGradient>
<linearGradient id="paint41_linear" x1="105.694" y1="162.433" x2="109.699" y2="162.432" gradientUnits="userSpaceOnUse">
<stop/>
<stop offset="0.5" stop-color="#212427"/>
<stop offset="1"/>
</linearGradient>
<linearGradient id="paint42_linear" x1="105.694" y1="159.117" x2="109.699" y2="159.115" gradientUnits="userSpaceOnUse">
<stop/>
<stop offset="0.5" stop-color="#212427"/>
<stop offset="1"/>
</linearGradient>
<linearGradient id="paint43_linear" x1="107.693" y1="176.98" x2="107.695" y2="166.101" gradientUnits="userSpaceOnUse">
<stop/>
<stop offset="1" stop-color="#212427"/>
</linearGradient>
<linearGradient id="paint44_linear" x1="158.671" y1="179.677" x2="149.273" y2="179.685" gradientUnits="userSpaceOnUse">
<stop stop-color="#212427"/>
<stop offset="0.5" stop-color="#B8B9B8"/>
<stop offset="1" stop-color="#23272A"/>
</linearGradient>
<linearGradient id="paint45_linear" x1="157.015" y1="180.508" x2="149.309" y2="180.514" gradientUnits="userSpaceOnUse">
<stop stop-color="#212427"/>
<stop offset="0.5" stop-color="#B8B9B8"/>
<stop offset="1" stop-color="#23272A"/>
</linearGradient>
<linearGradient id="paint46_linear" x1="150.714" y1="175.646" x2="152.007" y2="175.953" gradientUnits="userSpaceOnUse">
<stop stop-color="#FFD13A"/>
<stop offset="0.53" stop-color="#FAEF5F"/>
<stop offset="1" stop-color="#FFD13A"/>
</linearGradient>
<linearGradient id="paint47_linear" x1="148.834" y1="177.851" x2="153.829" y2="173.939" gradientUnits="userSpaceOnUse">
<stop stop-color="#3B3092"/>
<stop offset="0.51" stop-color="#A5DBDB"/>
<stop offset="1" stop-color="#3B3092"/>
</linearGradient>
<linearGradient id="paint48_linear" x1="151.378" y1="175.646" x2="150.085" y2="175.953" gradientUnits="userSpaceOnUse">
<stop stop-color="#FFD13A"/>
<stop offset="0.53" stop-color="#FAEF5F"/>
<stop offset="1" stop-color="#FFD13A"/>
</linearGradient>
<linearGradient id="paint49_linear" x1="153.258" y1="177.851" x2="148.263" y2="173.939" gradientUnits="userSpaceOnUse">
<stop stop-color="#3B3092"/>
<stop offset="0.51" stop-color="#A5DBDB"/>
<stop offset="1" stop-color="#3B3092"/>
</linearGradient>
<linearGradient id="paint50_linear" x1="150.934" y1="173.209" x2="150.933" y2="168.897" gradientUnits="userSpaceOnUse">
<stop stop-color="#FFF032"/>
<stop offset="1" stop-color="#FAEF5F"/>
</linearGradient>
<linearGradient id="paint51_linear" x1="150.242" y1="172.058" x2="151.674" y2="170.006" gradientUnits="userSpaceOnUse">
<stop stop-color="#FAEF5F"/>
<stop offset="1" stop-color="white"/>
</linearGradient>
<linearGradient id="paint52_linear" x1="150.934" y1="172.395" x2="150.933" y2="169.714" gradientUnits="userSpaceOnUse">
<stop stop-color="#3B3092"/>
<stop offset="1" stop-color="#2B3594"/>
</linearGradient>
<linearGradient id="paint53_linear" x1="150.242" y1="171.683" x2="151.688" y2="170.395" gradientUnits="userSpaceOnUse">
<stop stop-color="#A5DBDB"/>
<stop offset="1" stop-color="white"/>
</linearGradient>
<linearGradient id="paint54_linear" x1="150.934" y1="172.279" x2="150.933" y2="169.855" gradientUnits="userSpaceOnUse">
<stop stop-color="#FAEF5F"/>
<stop offset="1" stop-color="#FDFAD3"/>
</linearGradient>
<linearGradient id="paint55_linear" x1="150.934" y1="183.16" x2="150.933" y2="178.847" gradientUnits="userSpaceOnUse">
<stop stop-color="#FFF032"/>
<stop offset="1" stop-color="#FAEF5F"/>
</linearGradient>
<linearGradient id="paint56_linear" x1="150.242" y1="182.009" x2="151.674" y2="179.956" gradientUnits="userSpaceOnUse">
<stop stop-color="#FAEF5F"/>
<stop offset="1" stop-color="white"/>
</linearGradient>
<linearGradient id="paint57_linear" x1="150.934" y1="182.345" x2="150.933" y2="179.664" gradientUnits="userSpaceOnUse">
<stop stop-color="#3B3092"/>
<stop offset="1" stop-color="#2B3594"/>
</linearGradient>
<linearGradient id="paint58_linear" x1="150.242" y1="181.633" x2="151.688" y2="180.345" gradientUnits="userSpaceOnUse">
<stop stop-color="#A5DBDB"/>
<stop offset="1" stop-color="white"/>
</linearGradient>
<linearGradient id="paint59_linear" x1="150.934" y1="182.229" x2="150.933" y2="179.805" gradientUnits="userSpaceOnUse">
<stop stop-color="#FAEF5F"/>
<stop offset="1" stop-color="#FDFAD3"/>
</linearGradient>
<linearGradient id="paint60_linear" x1="149.205" y1="176.383" x2="164.623" y2="176.381" gradientUnits="userSpaceOnUse">
<stop stop-color="#F89952"/>
<stop offset="1" stop-color="#FFDF4A"/>
</linearGradient>
<linearGradient id="paint61_linear" x1="164.81" y1="164.529" x2="160.799" y2="164.528" gradientUnits="userSpaceOnUse">
<stop stop-color="#212427"/>
<stop offset="0.49" stop-color="#B5B8B8"/>
<stop offset="1" stop-color="#212427"/>
</linearGradient>
<linearGradient id="paint62_linear" x1="164.807" y1="184.812" x2="160.796" y2="184.812" gradientUnits="userSpaceOnUse">
<stop stop-color="#F89952"/>
<stop offset="0.5" stop-color="#FAEF5F"/>
<stop offset="1" stop-color="#F89952"/>
</linearGradient>
<linearGradient id="paint63_linear" x1="158.971" y1="200.816" x2="158.032" y2="198.141" gradientUnits="userSpaceOnUse">
<stop stop-color="#F89952"/>
<stop offset="1" stop-color="#FFDF4A"/>
</linearGradient>
<linearGradient id="paint64_linear" x1="157.486" y1="196.61" x2="157.454" y2="196.514" gradientUnits="userSpaceOnUse">
<stop stop-color="#5C1800"/>
<stop offset="1" stop-color="#FFDF4A"/>
</linearGradient>
<linearGradient id="paint65_linear" x1="158.665" y1="198.552" x2="158.969" y2="199.568" gradientUnits="userSpaceOnUse">
<stop stop-color="#FFD13A"/>
<stop offset="0.53" stop-color="#FAEF5F"/>
<stop offset="1" stop-color="#FFD13A"/>
</linearGradient>
<linearGradient id="paint66_linear" x1="156.412" y1="198.123" x2="161.088" y2="200.006" gradientUnits="userSpaceOnUse">
<stop stop-color="#3B3092"/>
<stop offset="0.51" stop-color="#A5DBDB"/>
<stop offset="1" stop-color="#3B3092"/>
</linearGradient>
<linearGradient id="paint67_linear" x1="161.948" y1="199.721" x2="161.947" y2="196.381" gradientUnits="userSpaceOnUse">
<stop stop-color="#FFF032"/>
<stop offset="1" stop-color="#FAEF5F"/>
</linearGradient>
<linearGradient id="paint68_linear" x1="161.411" y1="198.83" x2="162.52" y2="197.24" gradientUnits="userSpaceOnUse">
<stop stop-color="#FAEF5F"/>
<stop offset="1" stop-color="white"/>
</linearGradient>
<linearGradient id="paint69_linear" x1="161.948" y1="199.09" x2="161.947" y2="197.014" gradientUnits="userSpaceOnUse">
<stop stop-color="#3B3092"/>
<stop offset="1" stop-color="#2B3594"/>
</linearGradient>
<linearGradient id="paint70_linear" x1="161.411" y1="198.539" x2="162.531" y2="197.542" gradientUnits="userSpaceOnUse">
<stop stop-color="#A5DBDB"/>
<stop offset="1" stop-color="white"/>
</linearGradient>
<linearGradient id="paint71_linear" x1="161.948" y1="199" x2="161.947" y2="197.123" gradientUnits="userSpaceOnUse">
<stop stop-color="#FAEF5F"/>
<stop offset="1" stop-color="#FDFAD3"/>
</linearGradient>
<linearGradient id="paint72_linear" x1="154.973" y1="202.017" x2="154.972" y2="198.677" gradientUnits="userSpaceOnUse">
<stop stop-color="#FFF032"/>
<stop offset="1" stop-color="#FAEF5F"/>
</linearGradient>
<linearGradient id="paint73_linear" x1="154.437" y1="201.126" x2="155.546" y2="199.536" gradientUnits="userSpaceOnUse">
<stop stop-color="#FAEF5F"/>
<stop offset="1" stop-color="white"/>
</linearGradient>
<linearGradient id="paint74_linear" x1="154.973" y1="201.386" x2="154.972" y2="199.309" gradientUnits="userSpaceOnUse">
<stop stop-color="#3B3092"/>
<stop offset="1" stop-color="#2B3594"/>
</linearGradient>
<linearGradient id="paint75_linear" x1="154.437" y1="200.834" x2="155.557" y2="199.837" gradientUnits="userSpaceOnUse">
<stop stop-color="#A5DBDB"/>
<stop offset="1" stop-color="white"/>
</linearGradient>
<linearGradient id="paint76_linear" x1="154.973" y1="201.296" x2="154.972" y2="199.419" gradientUnits="userSpaceOnUse">
<stop stop-color="#FAEF5F"/>
<stop offset="1" stop-color="#FDFAD3"/>
</linearGradient>
<linearGradient id="paint77_linear" x1="153.172" y1="192.91" x2="155.736" y2="192.909" gradientUnits="userSpaceOnUse">
<stop stop-color="#23272A"/>
<stop offset="1" stop-color="#B5B8B8"/>
</linearGradient>
<linearGradient id="paint78_linear" x1="154.454" y1="195.555" x2="154.453" y2="190.162" gradientUnits="userSpaceOnUse">
<stop stop-color="#020035"/>
<stop offset="1" stop-color="#472F92"/>
</linearGradient>
<radialGradient id="paint79_radial" cx="0" cy="0" r="1" gradientUnits="userSpaceOnUse" gradientTransform="translate(154.475 193.025) rotate(-90.0061) scale(2.40419 0.894838)">
<stop stop-color="#2B3594"/>
<stop offset="1" stop-color="#3B3092"/>
</radialGradient>
<linearGradient id="paint80_linear" x1="154.105" y1="195.127" x2="154.865" y2="190.295" gradientUnits="userSpaceOnUse">
<stop stop-color="#3B3092"/>
<stop offset="1" stop-color="white"/>
</linearGradient>
<linearGradient id="paint81_linear" x1="157.319" y1="192.081" x2="159.883" y2="192.079" gradientUnits="userSpaceOnUse">
<stop stop-color="#23272A"/>
<stop offset="1" stop-color="#B5B8B8"/>
</linearGradient>
<linearGradient id="paint82_linear" x1="158.601" y1="194.725" x2="158.6" y2="189.332" gradientUnits="userSpaceOnUse">
<stop stop-color="#020035"/>
<stop offset="1" stop-color="#472F92"/>
</linearGradient>
<radialGradient id="paint83_radial" cx="0" cy="0" r="1" gradientUnits="userSpaceOnUse" gradientTransform="translate(158.622 192.195) rotate(-90.0061) scale(2.40419 0.894845)">
<stop stop-color="#2B3594"/>
<stop offset="1" stop-color="#3B3092"/>
</radialGradient>
<linearGradient id="paint84_linear" x1="158.252" y1="194.297" x2="159.012" y2="189.465" gradientUnits="userSpaceOnUse">
<stop stop-color="#3B3092"/>
<stop offset="1" stop-color="white"/>
</linearGradient>
<linearGradient id="paint85_linear" x1="164.802" y1="162.433" x2="160.796" y2="162.432" gradientUnits="userSpaceOnUse">
<stop/>
<stop offset="0.5" stop-color="#212427"/>
<stop offset="1"/>
</linearGradient>
<linearGradient id="paint86_linear" x1="164.801" y1="159.117" x2="160.796" y2="159.115" gradientUnits="userSpaceOnUse">
<stop/>
<stop offset="0.5" stop-color="#212427"/>
<stop offset="1"/>
</linearGradient>
<linearGradient id="paint87_linear" x1="162.802" y1="176.98" x2="162.801" y2="166.101" gradientUnits="userSpaceOnUse">
<stop/>
<stop offset="1" stop-color="#212427"/>
</linearGradient>
<clipPath id="clip0">
<rect width="270" height="370" fill="white"/>
</clipPath>
<clipPath id="clip1">
<rect x="66.6895" y="107.989" width="137.118" height="135.955" fill="white"/>
</clipPath>
</defs>
</svg>
