<svg width="270" height="370" viewBox="0 0 270 370" fill="none" xmlns="http://www.w3.org/2000/svg">
<g clip-path="url(#clip0)">
<g clip-path="url(#clip1)">
<path fill-rule="evenodd" clip-rule="evenodd" d="M102.907 214.87V222.194C100.318 222.194 98.3246 222.457 97.2309 223.384C96.1787 224.27 95.5834 226.139 95.5834 229.531H88.2595C88.2595 223.758 89.7824 220.131 92.5375 217.805C95.2373 215.534 98.7261 214.87 102.907 214.87Z" fill="url(#paint0_linear)"/>
<path fill-rule="evenodd" clip-rule="evenodd" d="M104.223 214.87V222.194C104.223 222.927 103.627 223.523 102.893 223.523C101.661 223.523 100.595 223.578 99.7368 223.744C98.9892 223.883 98.4216 224.09 98.0616 224.395C97.7432 224.672 97.4663 225.143 97.2725 225.876C97.0233 226.762 96.8987 227.953 96.8987 229.531C96.8987 230.265 96.3033 230.86 95.5696 230.86H88.2457C87.5119 230.86 86.9166 230.265 86.9166 229.531C86.9166 226.486 87.332 223.98 88.1073 221.903C88.9103 219.771 90.1148 218.096 91.6654 216.794C93.1883 215.521 94.905 214.704 96.8294 214.205C98.6985 213.721 100.72 213.541 102.893 213.541C103.627 213.555 104.223 214.15 104.223 214.87ZM102.907 214.87V222.194C100.318 222.194 98.3247 222.457 97.2309 223.384C96.1787 224.27 95.5834 226.139 95.5834 229.531H88.2596C88.2596 223.758 89.7825 220.131 92.5376 217.805C95.2373 215.534 98.7262 214.87 102.907 214.87Z" fill="black"/>
<path opacity="0.5" fill-rule="evenodd" clip-rule="evenodd" d="M102.907 214.87V216.697C98.7538 216.697 95.5695 217.749 93.3821 219.923C91.1808 222.097 90.087 225.281 90.087 229.517H88.2595C88.2595 223.744 89.7824 220.117 92.5375 217.791C95.2373 215.534 98.7261 214.87 102.907 214.87ZM102.907 220.366C99.7368 220.366 97.4247 221.072 95.9572 222.526C94.4896 223.98 93.7559 226.305 93.7559 229.531H95.5834C95.5834 226.153 96.1787 224.284 97.2309 223.384C98.3246 222.457 100.332 222.194 102.907 222.194V220.366Z" fill="#373737"/>
<path fill-rule="evenodd" clip-rule="evenodd" d="M79.9666 165.417L78.1252 161.748L76.2977 165.417V202.05H79.9666V165.417Z" fill="url(#paint1_linear)"/>
<path fill-rule="evenodd" clip-rule="evenodd" d="M79.9666 165.417L78.1391 161.748L76.3116 165.417V202.05H79.9804V165.417H79.9666ZM79.3159 161.152L81.088 164.71C81.2126 164.918 81.2818 165.154 81.2818 165.417V202.05C81.2818 202.783 80.6865 203.379 79.9527 203.379H76.2977C75.564 203.379 74.9686 202.783 74.9686 202.05V165.417C74.9686 165.223 75.0102 165.015 75.1071 164.821L76.9484 161.152C77.073 160.903 77.2669 160.696 77.5437 160.557C78.1944 160.239 78.9836 160.502 79.3159 161.152Z" fill="black"/>
<path fill-rule="evenodd" clip-rule="evenodd" d="M79.9666 176.409L78.1252 172.74L76.2977 176.409V177.323L78.1252 173.654L79.9527 177.323V176.409H79.9666ZM79.9666 169.072L78.1391 165.403L76.3116 169.072V169.985L78.1391 166.316L79.9666 169.985V169.072ZM79.9666 172.74V173.654L78.1391 169.985L76.3116 173.654V172.74L78.1391 169.072L79.9666 172.74Z" fill="url(#paint2_linear)"/>
<path fill-rule="evenodd" clip-rule="evenodd" d="M77.7653 162.481L78.1252 161.748L78.499 162.481V202.05H77.7653V162.481Z" fill="#C1C1C1"/>
<path fill-rule="evenodd" clip-rule="evenodd" d="M76.5193 166.843L77.1423 165.638V167.064L76.5193 168.269V166.843ZM76.5193 174.18L77.1423 172.976V174.388L76.5193 175.592V174.18ZM76.5193 170.511L77.1423 169.307V170.719L76.5193 171.924V170.511Z" fill="black"/>
<path fill-rule="evenodd" clip-rule="evenodd" d="M79.7035 166.843L79.0804 165.638V167.064L79.7035 168.269V166.843ZM79.7035 174.18L79.0804 172.976V174.388L79.7035 175.592V174.18ZM79.7035 170.511L79.0804 169.307V170.719L79.7035 171.924V170.511Z" fill="#373737"/>
<path fill-rule="evenodd" clip-rule="evenodd" d="M81.8771 214.427C87.3458 220.408 92.8145 226.389 98.2831 232.383C98.92 233.09 99.2384 233.906 99.2384 234.848C99.2384 237.354 99.2384 239.86 99.2384 242.352C99.2384 244.373 97.5909 246.02 95.5696 246.02C90.6824 246.02 85.7952 246.02 80.908 246.02C80.908 246.63 80.908 247.239 80.908 247.848C80.908 249.869 79.2605 251.517 77.2392 251.517C76.63 251.517 76.0208 251.517 75.4116 251.517C73.3903 251.517 71.7428 249.869 71.7428 247.848C71.7428 225.863 71.7428 203.877 71.7428 181.892C74.3594 189.977 77.3499 196.401 80.908 200.208C80.908 204.126 80.908 208.031 80.908 211.949C80.9218 212.904 81.2403 213.721 81.8771 214.427Z" fill="url(#paint3_linear)"/>
<path fill-rule="evenodd" clip-rule="evenodd" d="M82.8463 213.541L99.2523 231.497C99.6814 231.968 99.9999 232.48 100.221 233.048C100.443 233.616 100.554 234.225 100.554 234.848V242.352C100.554 243.722 99.986 244.968 99.0861 245.882C98.1862 246.782 96.9402 247.35 95.5557 247.35H82.2233V247.862C82.2233 249.232 81.6695 250.492 80.7557 251.392C80.728 251.42 80.7003 251.448 80.6726 251.461C79.7727 252.32 78.5683 252.846 77.2253 252.846H75.4255C74.0549 252.846 72.8089 252.292 71.8951 251.378C71.8674 251.351 71.8397 251.323 71.8259 251.295C70.9675 250.395 70.4414 249.191 70.4414 247.848V181.906C70.4414 181.172 71.0367 180.577 71.7705 180.577C72.3935 180.577 72.9196 181.006 73.0581 181.601C74.3456 185.547 75.7162 189.091 77.1838 192.095C78.6375 195.072 80.2019 197.522 81.891 199.336C82.1263 199.585 82.2509 199.918 82.2509 200.236V211.976C82.2509 212.295 82.3063 212.572 82.4032 212.835C82.4863 213.07 82.6386 213.305 82.8463 213.541ZM81.8771 214.427C87.3458 220.408 92.8145 226.389 98.2831 232.383C98.92 233.09 99.2384 233.906 99.2384 234.848C99.2384 237.354 99.2384 239.86 99.2384 242.352C99.2384 244.373 97.5909 246.021 95.5696 246.021C90.6824 246.021 85.7952 246.021 80.908 246.021C80.908 246.63 80.908 247.239 80.908 247.848C80.908 249.869 79.2605 251.517 77.2392 251.517C76.63 251.517 76.0208 251.517 75.4117 251.517C73.3903 251.517 71.7428 249.869 71.7428 247.848C71.7428 225.863 71.7428 203.877 71.7428 181.892C74.3595 189.977 77.3499 196.401 80.908 200.208C80.908 204.126 80.908 208.031 80.908 211.949C80.9219 212.904 81.2403 213.721 81.8771 214.427Z" fill="black"/>
<path opacity="0.5" fill-rule="evenodd" clip-rule="evenodd" d="M81.8772 214.427C85.2276 218.082 88.5642 221.751 91.9146 225.406C87.4289 221.792 87.1382 222.111 87.1243 230.598C85.5045 230.127 84.6046 229.961 84.6046 233.616C84.6046 238.295 86.2382 238.489 87.2489 240.33C87.5535 244.788 88.5503 246.021 91.9146 246.021C88.2457 246.021 84.5907 246.021 80.9219 246.021C80.9219 234.668 80.9219 223.315 80.9219 211.963C80.9219 212.904 81.2403 213.721 81.8772 214.427Z" fill="url(#paint4_linear)"/>
<path fill-rule="evenodd" clip-rule="evenodd" d="M80.9219 247.848C80.9219 249.869 79.2744 251.517 77.2531 251.517C76.6439 251.517 76.0347 251.517 75.4256 251.517C73.4042 251.517 71.7567 249.869 71.7567 247.848C71.7567 225.863 71.7567 203.877 71.7567 181.892C74.3734 189.977 77.3638 196.401 80.9219 200.208C80.9219 222.415 80.9219 244.553 80.9219 247.848Z" fill="url(#paint5_linear)"/>
<path opacity="0.5" fill-rule="evenodd" clip-rule="evenodd" d="M75.4256 251.517C73.4042 251.517 71.7567 249.869 71.7567 247.848C71.7567 225.863 71.7567 203.877 71.7567 181.892C72.9058 185.422 74.1242 188.648 75.4256 191.458C71.7567 200.222 72.8366 250.437 75.4256 251.517Z" fill="url(#paint6_linear)"/>
<path opacity="0.5" fill-rule="evenodd" clip-rule="evenodd" d="M80.9219 247.848C80.9219 249.869 79.2744 251.517 77.2531 251.517V195.072C78.3883 197.052 79.6482 198.865 80.9219 200.222C80.9219 222.415 80.9219 244.553 80.9219 247.848Z" fill="url(#paint7_linear)"/>
<path fill-rule="evenodd" clip-rule="evenodd" d="M80.8803 210.827C80.9634 210.8 81.0603 210.855 81.088 210.938C81.1157 211.021 81.0603 211.118 80.9772 211.146L80.8803 210.827ZM71.7151 211.146L71.7982 210.827L72.1028 210.91L72.4074 210.98L72.7119 211.049L73.0165 211.118L73.3211 211.173L73.6257 211.229L73.9164 211.27L74.2072 211.312L74.4979 211.353L74.7887 211.381L75.0794 211.409L75.3701 211.423L75.6609 211.436L75.9516 211.45H76.2424H76.5192H76.7961L77.073 211.436L77.3499 211.423L77.6268 211.409L77.9037 211.381L78.1806 211.353L78.4575 211.326L78.7344 211.284L79.0113 211.243L79.2882 211.201L79.5512 211.146L79.8143 211.09L80.0773 211.035L80.3404 210.98L80.6034 210.91L80.8665 210.841L80.9496 211.16L80.6865 211.229L80.4235 211.298L80.1466 211.367L79.8697 211.423L79.5928 211.478L79.3159 211.533L79.039 211.575L78.7621 211.616L78.4852 211.658L78.2083 211.686L77.9314 211.713L77.6545 211.741L77.3776 211.769L77.0869 211.783L76.7961 211.796H76.5054H76.2147H75.9239L75.6332 211.783L75.3424 211.769L75.0517 211.755L74.761 211.727L74.4564 211.7L74.1518 211.658L73.8472 211.616L73.5426 211.575L73.238 211.52L72.9335 211.464L72.6289 211.395L72.3243 211.326L72.0059 211.243L71.7151 211.146ZM71.7151 211.146C71.6321 211.118 71.5767 211.035 71.6044 210.938C71.6321 210.855 71.7151 210.8 71.812 210.827L71.7151 211.146Z" fill="#5B1E00"/>
<path fill-rule="evenodd" clip-rule="evenodd" d="M80.9219 228.521C77.6823 228.521 73.5981 225.863 71.7567 223.952V226.707C73.5842 228.632 77.6823 231.276 80.9219 231.276V228.521Z" fill="url(#paint8_linear)"/>
<path fill-rule="evenodd" clip-rule="evenodd" d="M80.9219 229.047C77.35 229.047 72.9058 225.655 71.7567 224.464V226.181C72.9058 227.386 77.5438 230.764 80.9219 230.764V229.047Z" fill="url(#paint9_linear)"/>
<path fill-rule="evenodd" clip-rule="evenodd" d="M80.9219 225.793V225.295L95.6527 236.924C96.2618 237.395 96.5802 238.074 96.5802 238.835V242.836C96.5802 244.871 94.2405 246.007 92.6345 244.747L80.9219 235.512V235.014L92.8699 244.456C94.2128 245.522 96.1926 244.567 96.1926 242.85V238.849C96.1926 238.198 95.9295 237.644 95.4173 237.243L80.9219 225.793Z" fill="#5B1E00"/>
<path fill-rule="evenodd" clip-rule="evenodd" d="M76.1593 247.003C75.4394 247.003 75.4394 245.91 76.1593 245.91C76.8377 245.924 77.5161 245.937 78.1807 245.924C79.7866 245.896 81.3096 245.66 81.2819 244.248C81.1711 238.018 84.0923 237.091 87.1797 237.035C88.1904 237.021 89.1872 237.104 90.1979 237.104C90.9178 237.104 90.9178 238.198 90.1979 238.198C89.201 238.198 88.2042 238.101 87.2074 238.129C84.6738 238.171 82.2925 238.96 82.3756 244.234C82.4171 246.588 80.3543 246.976 78.1945 247.017C77.5161 247.031 76.8377 247.003 76.1593 247.003Z" fill="#5B1E00"/>
<path fill-rule="evenodd" clip-rule="evenodd" d="M76.1593 246.823C75.6748 246.823 75.6748 246.09 76.1593 246.09C76.8377 246.104 77.5161 246.117 78.1807 246.104C79.8697 246.076 81.4895 245.813 81.4618 244.248C81.3511 238.184 84.1754 237.271 87.1797 237.229C88.1904 237.215 89.1872 237.298 90.184 237.298C90.6686 237.298 90.6686 238.032 90.184 238.032C89.1872 238.032 88.1904 237.949 87.1797 237.963C84.5492 238.004 82.0849 238.821 82.1679 244.248C82.2095 246.45 80.2435 246.81 78.1668 246.851C77.5161 246.851 76.8377 246.823 76.1593 246.823Z" fill="url(#paint10_linear)"/>
<path fill-rule="evenodd" clip-rule="evenodd" d="M76.1593 246.644C75.9239 246.644 75.9239 246.284 76.1593 246.284C76.8377 246.297 77.5161 246.311 78.1806 246.297C79.9666 246.27 81.6695 245.979 81.6418 244.262C81.5449 238.351 84.2723 237.478 87.1797 237.423C88.1904 237.409 89.1872 237.492 90.184 237.492C90.4194 237.492 90.4194 237.852 90.184 237.852C89.1872 237.852 88.1904 237.769 87.1797 237.783C84.4523 237.824 81.891 238.669 82.0018 244.248C82.0433 246.284 80.1604 246.63 78.1806 246.657C77.5161 246.657 76.8377 246.644 76.1593 246.644Z" fill="url(#paint11_linear)"/>
<path fill-rule="evenodd" clip-rule="evenodd" d="M81.2819 244.248C81.1711 238.018 84.0923 237.091 87.1797 237.035C88.1904 237.021 89.1872 237.104 90.1979 237.104C90.9178 237.104 90.9178 238.198 90.1979 238.198C89.201 238.198 88.2042 238.101 87.2074 238.129C84.6738 238.171 82.2925 238.96 82.3756 244.234C81.9603 242.13 81.6141 242.462 81.2819 244.248Z" fill="#C1C1C1"/>
<path fill-rule="evenodd" clip-rule="evenodd" d="M76.1594 242.905C74.2073 242.905 72.6151 244.498 72.6151 246.45C72.6151 248.402 74.2073 249.994 76.1594 249.994C78.1115 249.994 79.7036 248.402 79.7036 246.45C79.7036 244.498 78.1115 242.905 76.1594 242.905Z" fill="#5B1E00"/>
<path fill-rule="evenodd" clip-rule="evenodd" d="M76.1593 243.265C74.401 243.265 72.9612 244.691 72.9612 246.464C72.9612 248.222 74.3872 249.662 76.1593 249.662C77.9176 249.662 79.3574 248.236 79.3574 246.464C79.3436 244.691 77.9176 243.265 76.1593 243.265Z" fill="url(#paint12_linear)"/>
<path opacity="0.5" fill-rule="evenodd" clip-rule="evenodd" d="M76.1593 243.265C78.2776 245.55 74.2626 250.658 72.9612 246.464C72.9612 248.222 74.3872 249.662 76.1593 249.662C75.9378 245.328 78.416 244.207 79.3574 246.464C79.3436 244.691 77.9176 243.265 76.1593 243.265Z" fill="url(#paint13_linear)"/>
<path fill-rule="evenodd" clip-rule="evenodd" d="M76.1595 244.359C74.9965 244.359 74.0551 245.301 74.0551 246.464C74.0551 247.626 74.9965 248.568 76.1595 248.568C77.3224 248.568 78.2638 247.626 78.2638 246.464C78.25 245.301 77.3086 244.359 76.1595 244.359Z" fill="url(#paint14_linear)"/>
<path opacity="0.5" fill-rule="evenodd" clip-rule="evenodd" d="M76.1595 244.359C77.4747 246.422 75.6334 247.516 74.0551 246.464C74.0551 247.626 74.9965 248.568 76.1595 248.568C73.6951 248.097 77.1424 245.55 78.2638 246.464C78.25 245.301 77.3086 244.359 76.1595 244.359Z" fill="url(#paint15_linear)"/>
<path fill-rule="evenodd" clip-rule="evenodd" d="M76.1594 244.677C75.1764 244.677 74.3734 245.48 74.3734 246.463C74.3734 247.446 75.1764 248.249 76.1594 248.249C77.1424 248.249 77.9454 247.446 77.9454 246.463C77.9454 245.467 77.1424 244.677 76.1594 244.677Z" fill="url(#paint16_linear)"/>
<path fill-rule="evenodd" clip-rule="evenodd" d="M90.1978 234.114C88.2457 234.114 86.6536 235.706 86.6536 237.658C86.6536 239.61 88.2457 241.202 90.1978 241.202C92.1499 241.202 93.7421 239.61 93.7421 237.658C93.7421 235.706 92.1499 234.114 90.1978 234.114Z" fill="#5B1E00"/>
<path fill-rule="evenodd" clip-rule="evenodd" d="M90.1978 234.46C88.4395 234.46 86.9996 235.886 86.9996 237.658C86.9996 239.416 88.4256 240.856 90.1978 240.856C91.956 240.856 93.3959 239.43 93.3959 237.658C93.3821 235.9 91.956 234.46 90.1978 234.46Z" fill="url(#paint17_linear)"/>
<path opacity="0.5" fill-rule="evenodd" clip-rule="evenodd" d="M90.1978 234.46C92.316 236.744 88.301 241.853 86.9996 237.658C86.9996 239.416 88.4256 240.856 90.1978 240.856C89.9762 236.523 92.4545 235.402 93.3959 237.658C93.3821 235.9 91.956 234.46 90.1978 234.46Z" fill="url(#paint18_linear)"/>
<path fill-rule="evenodd" clip-rule="evenodd" d="M90.1979 235.554C89.0349 235.554 88.0935 236.495 88.0935 237.658C88.0935 238.821 89.0349 239.763 90.1979 239.763C91.3609 239.763 92.3023 238.821 92.3023 237.658C92.3023 236.495 91.347 235.554 90.1979 235.554Z" fill="url(#paint19_linear)"/>
<path opacity="0.5" fill-rule="evenodd" clip-rule="evenodd" d="M90.1979 235.554C91.5131 237.617 89.6718 238.71 88.0935 237.658C88.0935 238.821 89.0349 239.763 90.1979 239.763C87.7335 239.292 91.1809 236.744 92.3023 237.658C92.3023 236.495 91.347 235.554 90.1979 235.554Z" fill="url(#paint20_linear)"/>
<path fill-rule="evenodd" clip-rule="evenodd" d="M90.1978 235.872C89.2149 235.872 88.4119 236.675 88.4119 237.658C88.4119 238.641 89.2149 239.444 90.1978 239.444C91.1808 239.444 91.9838 238.641 91.9838 237.658C91.9838 236.675 91.1808 235.872 90.1978 235.872Z" fill="url(#paint21_linear)"/>
<path fill-rule="evenodd" clip-rule="evenodd" d="M80.9219 216.891V216.351L84.4661 220.131C84.8122 220.491 85.4214 220.255 85.4214 219.757L85.4353 218.303L85.7952 218.691V219.757C85.7952 220.574 84.7846 220.989 84.2169 220.38L80.9219 216.891Z" fill="#5B1E00"/>
<path fill-rule="evenodd" clip-rule="evenodd" d="M90.5993 223.966L90.9731 224.367V228.244C90.9731 229.074 89.9624 229.476 89.3948 228.867L80.9357 219.854V219.314L89.6717 228.618C90.0178 228.978 90.627 228.742 90.627 228.244L90.5993 223.966Z" fill="#5B1E00"/>
<path fill-rule="evenodd" clip-rule="evenodd" d="M76.2284 231.359C77.3222 231.359 78.319 231.802 79.0389 232.522L79.0528 232.536C79.7588 233.256 80.2019 234.239 80.2019 235.332C80.2019 236.426 79.7588 237.423 79.0389 238.143C78.319 238.863 77.3222 239.306 76.2284 239.306C75.1347 239.306 74.1379 238.863 73.418 238.143C72.698 237.423 72.255 236.426 72.255 235.332C72.255 234.239 72.698 233.242 73.418 232.522C74.124 231.816 75.1209 231.359 76.2284 231.359Z" fill="#5B1E00"/>
<path fill-rule="evenodd" clip-rule="evenodd" d="M76.2284 231.733C78.2221 231.733 79.8419 233.353 79.8419 235.346C79.8419 237.34 78.2221 238.96 76.2284 238.96C74.2348 238.96 72.615 237.34 72.615 235.346C72.6011 233.353 74.2209 231.733 76.2284 231.733Z" fill="url(#paint22_linear)"/>
<path fill-rule="evenodd" clip-rule="evenodd" d="M75.6054 232.217H76.8376C77.0452 232.217 77.1975 232.384 77.1975 232.577V233.99C77.1975 234.197 77.3637 234.349 77.5575 234.349H78.9696C79.1773 234.349 79.3296 234.516 79.3296 234.709V235.942C79.3296 236.149 79.1635 236.302 78.9696 236.302H77.5713C77.3637 236.302 77.2114 236.468 77.2114 236.662V238.074C77.2114 238.281 77.0452 238.434 76.8514 238.434H75.6192C75.4116 238.434 75.2593 238.268 75.2593 238.074V236.703C75.2593 236.495 75.0931 236.343 74.8993 236.343H73.4594C73.2518 236.343 73.0995 236.177 73.0995 235.983V234.751C73.0995 234.543 73.2656 234.391 73.4594 234.391H74.8716C75.0793 234.391 75.2316 234.225 75.2316 234.031V232.619C75.2316 232.384 75.3977 232.217 75.6054 232.217Z" fill="url(#paint23_radial)"/>
<path fill-rule="evenodd" clip-rule="evenodd" d="M75.7161 232.799H76.7268C76.8929 232.799 77.0314 232.937 77.0314 233.09V234.239C77.0314 234.405 77.1698 234.543 77.3359 234.543H78.4712C78.6373 234.543 78.7758 234.682 78.7758 234.834V235.845C78.7758 236.011 78.6373 236.149 78.4712 236.149H77.3221C77.156 236.149 77.0175 236.288 77.0175 236.44V237.589C77.0175 237.755 76.8791 237.894 76.7129 237.894H75.7023C75.5361 237.894 75.3977 237.755 75.3977 237.589V236.44C75.3977 236.274 75.2592 236.149 75.0931 236.149H73.944C73.7779 236.149 73.6394 236.011 73.6394 235.845V234.834C73.6394 234.668 73.7779 234.543 73.944 234.543H75.0931C75.2592 234.543 75.3977 234.405 75.3977 234.239V233.09C75.4254 232.937 75.55 232.799 75.7161 232.799Z" fill="url(#paint24_radial)"/>
<path opacity="0.5" fill-rule="evenodd" clip-rule="evenodd" d="M75.6054 232.217C75.7853 232.217 75.9653 232.217 76.1592 232.217C76.2284 235.346 80.2849 236.329 78.9973 236.329C78.5266 236.329 78.0559 236.329 77.5852 236.329C77.3775 236.329 77.2252 236.495 77.2252 236.689C77.2252 237.16 77.2252 237.631 77.2252 238.101C77.2252 238.309 77.0591 238.461 76.8652 238.461C76.6714 238.461 76.4637 238.461 76.2699 238.461C77.1283 235.596 75.8823 233.879 75.2593 232.564C75.2316 232.384 75.3977 232.217 75.6054 232.217Z" fill="url(#paint25_linear)"/>
<path opacity="0.5" fill-rule="evenodd" clip-rule="evenodd" d="M81.8771 214.427C82.9016 215.548 83.9123 216.656 84.9368 217.777C84.9368 238.863 89.5886 242.352 99.2384 242.352C99.2384 244.373 97.5909 246.02 95.5696 246.02C90.6824 246.02 85.7952 246.02 80.908 246.02C80.908 246.63 80.908 247.239 80.908 247.848C80.908 249.869 79.2605 251.517 77.2392 251.517C76.63 251.517 76.0208 251.517 75.4116 251.517C73.3903 251.517 71.7428 249.869 71.7428 247.848C71.7428 244.761 71.7428 241.659 71.7428 238.572C82.4448 238.572 78.6375 232.231 78.6375 197.342C79.3712 198.422 80.1189 199.378 80.8942 200.222C80.8942 204.14 80.8942 208.044 80.8942 211.962C80.9218 212.904 81.2403 213.721 81.8771 214.427Z" fill="url(#paint26_linear)"/>
<path fill-rule="evenodd" clip-rule="evenodd" d="M120.587 211.215H104.735C102.713 211.215 101.066 212.862 101.066 214.884V229.545C101.066 231.567 102.713 233.214 104.735 233.214H111.602C112.322 233.214 112.945 233.034 113.554 232.646L122.539 226.97C123.633 226.278 124.242 225.17 124.242 223.869V214.898C124.256 212.862 122.608 211.215 120.587 211.215Z" fill="url(#paint27_linear)"/>
<path fill-rule="evenodd" clip-rule="evenodd" d="M120.587 211.215H104.735C102.713 211.215 101.066 212.862 101.066 214.884V229.545C101.066 231.567 102.713 233.214 104.735 233.214H111.602C112.322 233.214 112.945 233.034 113.554 232.646L122.539 226.97C123.633 226.278 124.242 225.17 124.242 223.869V214.898C124.256 212.862 122.608 211.215 120.587 211.215ZM104.735 209.886H120.601C121.971 209.886 123.217 210.44 124.131 211.353C125.031 212.253 125.599 213.499 125.599 214.87V223.841C125.599 224.713 125.391 225.53 124.99 226.25C124.588 226.97 124.007 227.579 123.273 228.05L114.288 233.726C113.886 233.989 113.457 234.169 113.014 234.308C112.557 234.432 112.1 234.502 111.629 234.502H104.762C103.392 234.502 102.146 233.948 101.232 233.034C100.332 232.134 99.7645 230.888 99.7645 229.504V214.87C99.7645 213.499 100.332 212.239 101.232 211.339C102.104 210.453 103.35 209.886 104.735 209.886Z" fill="black"/>
<path fill-rule="evenodd" clip-rule="evenodd" d="M116.697 211.215C112.709 211.215 108.722 211.215 104.735 211.215C102.713 211.215 101.066 212.862 101.066 214.884C101.066 218.594 101.066 222.318 101.066 226.029H108.168C109.65 226.029 116.697 221.668 116.697 219.729V211.215Z" fill="url(#paint28_linear)"/>
<path opacity="0.5" fill-rule="evenodd" clip-rule="evenodd" d="M116.697 211.215C112.709 211.215 108.722 211.215 104.735 211.215C102.713 211.215 101.066 212.862 101.066 214.884C101.066 218.594 101.066 222.318 101.066 226.029L101.827 215.631C101.827 213.596 103.489 211.935 105.524 211.935L116.697 211.215Z" fill="url(#paint29_linear)"/>
<path fill-rule="evenodd" clip-rule="evenodd" d="M101.066 220.615V220.283C108.625 220.283 110.55 218.968 110.55 211.215H110.882C110.882 219.162 108.819 220.615 101.066 220.615Z" fill="#373737"/>
<path fill-rule="evenodd" clip-rule="evenodd" d="M101.066 226.195C100.969 226.195 100.9 226.126 100.9 226.029C100.9 225.932 100.969 225.863 101.066 225.863V226.195ZM108.168 226.195H101.066V225.863H108.168V226.195ZM116.53 219.729H116.863L116.835 219.992L116.766 220.255L116.655 220.519L116.517 220.782L116.337 221.045L116.129 221.308L115.894 221.571L115.631 221.834L115.354 222.097L115.049 222.36L114.731 222.623L114.398 222.886L114.052 223.149L113.692 223.398L113.318 223.647L112.945 223.897L112.571 224.132L112.197 224.367L111.823 224.589L111.449 224.797L111.089 224.99L110.73 225.184L110.383 225.364L110.051 225.53L109.733 225.669L109.442 225.793L109.165 225.904L108.916 226.001L108.694 226.084L108.501 226.139L108.334 226.181L108.182 226.195V225.863L108.279 225.849L108.417 225.821L108.597 225.766L108.805 225.696L109.04 225.6L109.304 225.489L109.594 225.364L109.899 225.226L110.217 225.073L110.55 224.907L110.896 224.727L111.256 224.533L111.629 224.326L112.003 224.104L112.377 223.883L112.751 223.647L113.125 223.412L113.485 223.163L113.845 222.914L114.191 222.664L114.523 222.401L114.841 222.138L115.132 221.875L115.409 221.612L115.658 221.349L115.88 221.1L116.074 220.851L116.24 220.602L116.364 220.366L116.461 220.145L116.517 219.937L116.53 219.729ZM116.863 211.215V219.729H116.53V211.215H116.863ZM116.53 211.215C116.53 211.118 116.6 211.049 116.697 211.049C116.794 211.049 116.863 211.118 116.863 211.215H116.53Z" fill="#5B1E00"/>
<path fill-rule="evenodd" clip-rule="evenodd" d="M106.604 214.053C107.864 214.053 108.888 215.077 108.888 216.337C108.888 217.597 107.864 218.622 106.604 218.622C105.344 218.622 104.319 217.597 104.319 216.337C104.319 215.077 105.344 214.053 106.604 214.053Z" fill="url(#paint30_linear)"/>
<path fill-rule="evenodd" clip-rule="evenodd" d="M106.604 214.427C107.67 214.427 108.528 215.285 108.528 216.351C108.528 217.417 107.67 218.276 106.604 218.276C105.538 218.276 104.679 217.417 104.679 216.351C104.679 215.285 105.552 214.427 106.604 214.427Z" fill="black"/>
<path opacity="0.5" fill-rule="evenodd" clip-rule="evenodd" d="M120.587 211.215H119.756V218.054C119.756 219.342 119.147 220.463 118.053 221.155L109.068 226.832C108.459 227.219 107.836 227.399 107.116 227.399H101.08V229.545C101.08 231.567 102.727 233.214 104.749 233.214H111.616C112.336 233.214 112.959 233.034 113.568 232.646L122.553 226.97C123.647 226.278 124.256 225.17 124.256 223.869V214.898C124.256 212.862 122.608 211.215 120.587 211.215Z" fill="url(#paint31_linear)"/>
<path fill-rule="evenodd" clip-rule="evenodd" d="M167.59 214.87V222.194C170.179 222.194 172.172 222.457 173.266 223.384C174.318 224.27 174.914 226.139 174.914 229.531H182.238C182.238 223.758 180.715 220.131 177.96 217.805C175.26 215.534 171.757 214.87 167.59 214.87Z" fill="url(#paint32_linear)"/>
<path fill-rule="evenodd" clip-rule="evenodd" d="M167.59 214.87V222.194C170.179 222.194 172.172 222.457 173.266 223.384C174.318 224.27 174.914 226.139 174.914 229.531H182.238C182.238 223.758 180.715 220.131 177.96 217.805C175.26 215.534 171.757 214.87 167.59 214.87ZM166.261 222.208V214.884C166.261 214.15 166.856 213.555 167.59 213.555C169.763 213.555 171.799 213.735 173.654 214.219C175.564 214.718 177.295 215.534 178.818 216.808C180.369 218.109 181.573 219.771 182.376 221.917C183.165 223.993 183.567 226.499 183.567 229.545C183.567 230.279 182.971 230.874 182.238 230.874H174.914C174.18 230.874 173.585 230.279 173.585 229.545C173.585 227.967 173.46 226.776 173.211 225.89C173.003 225.156 172.74 224.686 172.422 224.409C172.062 224.104 171.494 223.897 170.746 223.758C169.888 223.592 168.822 223.537 167.59 223.537C166.856 223.537 166.261 222.941 166.261 222.208Z" fill="black"/>
<path opacity="0.5" fill-rule="evenodd" clip-rule="evenodd" d="M167.59 214.87V216.697C171.743 216.697 174.928 217.749 177.115 219.923C179.302 222.097 180.41 225.281 180.41 229.517H182.238C182.238 223.744 180.715 220.117 177.96 217.791C175.26 215.534 171.757 214.87 167.59 214.87ZM167.59 220.366C170.76 220.366 173.072 221.072 174.54 222.526C176.007 223.98 176.741 226.305 176.741 229.531H174.914C174.914 226.153 174.332 224.284 173.266 223.384C172.172 222.457 170.165 222.194 167.59 222.194V220.366Z" fill="#373737"/>
<path fill-rule="evenodd" clip-rule="evenodd" d="M190.531 165.417L192.358 161.748L194.199 165.417V202.05H190.531V165.417Z" fill="url(#paint33_linear)"/>
<path fill-rule="evenodd" clip-rule="evenodd" d="M189.409 164.71L191.181 161.152C191.514 160.502 192.303 160.239 192.953 160.557C193.216 160.696 193.424 160.903 193.549 161.152L195.376 164.821C195.473 165.015 195.515 165.209 195.515 165.417V202.05C195.515 202.783 194.919 203.379 194.186 203.379H190.517C189.783 203.379 189.188 202.783 189.188 202.05V165.417C189.201 165.154 189.285 164.918 189.409 164.71ZM190.531 165.417L192.358 161.748L194.186 165.417V202.05H190.517V165.417H190.531Z" fill="black"/>
<path fill-rule="evenodd" clip-rule="evenodd" d="M190.531 176.409L192.358 172.74L194.186 176.409V177.323L192.358 173.654L190.531 177.323V176.409ZM190.531 169.072L192.358 165.403L194.186 169.072V169.985L192.358 166.316L190.531 169.985V169.072ZM190.531 172.74V173.654L192.358 169.985L194.186 173.654V172.74L192.358 169.072L190.531 172.74Z" fill="url(#paint34_linear)"/>
<path fill-rule="evenodd" clip-rule="evenodd" d="M192.732 162.481L192.358 161.748L191.998 162.481V202.05H192.732V162.481Z" fill="#C1C1C1"/>
<path fill-rule="evenodd" clip-rule="evenodd" d="M193.964 166.843L193.341 165.638V167.064L193.964 168.269V166.843ZM193.964 174.18L193.341 172.976V174.388L193.964 175.592V174.18ZM193.964 170.511L193.341 169.307V170.719L193.964 171.924V170.511Z" fill="black"/>
<path fill-rule="evenodd" clip-rule="evenodd" d="M190.78 166.843L191.403 165.638V167.064L190.78 168.269V166.843ZM190.78 174.18L191.403 172.976V174.388L190.78 175.592V174.18ZM190.78 170.511L191.403 169.307V170.719L190.78 171.924V170.511Z" fill="#373737"/>
<path fill-rule="evenodd" clip-rule="evenodd" d="M188.62 214.427C183.151 220.408 177.683 226.389 172.214 232.384C171.577 233.09 171.259 233.906 171.259 234.848C171.259 237.354 171.259 239.86 171.259 242.352C171.259 244.373 172.906 246.021 174.928 246.021C179.815 246.021 184.702 246.021 189.589 246.021C189.589 246.63 189.589 247.239 189.589 247.848C189.589 249.869 191.237 251.517 193.258 251.517C193.867 251.517 194.476 251.517 195.086 251.517C197.107 251.517 198.754 249.869 198.754 247.848C198.754 225.863 198.754 203.877 198.754 181.892C196.138 189.977 193.147 196.401 189.589 200.208C189.589 204.126 189.589 208.031 189.589 211.949C189.575 212.904 189.257 213.721 188.62 214.427Z" fill="url(#paint35_linear)"/>
<path fill-rule="evenodd" clip-rule="evenodd" d="M189.575 200.222C189.575 204.14 189.575 208.044 189.575 211.963C189.575 212.918 189.257 213.735 188.62 214.427C183.151 220.408 177.683 226.389 172.214 232.384C171.577 233.09 171.259 233.906 171.259 234.848C171.259 237.354 171.259 239.86 171.259 242.352C171.259 244.373 172.906 246.021 174.928 246.021C179.815 246.021 184.702 246.021 189.589 246.021C189.589 246.63 189.589 247.239 189.589 247.848C189.589 249.869 191.237 251.517 193.258 251.517C193.867 251.517 194.476 251.517 195.085 251.517C197.107 251.517 198.754 249.869 198.754 247.848C198.754 225.863 198.754 203.877 198.754 181.892C196.11 189.991 193.133 196.401 189.575 200.222ZM171.245 231.484L187.651 213.527C187.859 213.305 188.011 213.056 188.108 212.793C188.205 212.544 188.26 212.253 188.26 211.935V200.195C188.26 199.876 188.371 199.544 188.62 199.295C190.309 197.481 191.873 195.03 193.327 192.054C194.809 189.05 196.165 185.519 197.453 181.56C197.591 180.978 198.117 180.535 198.74 180.535C199.474 180.535 200.07 181.13 200.07 181.864V247.82C200.07 249.191 199.516 250.451 198.602 251.351C197.688 252.251 196.456 252.818 195.072 252.818H193.244C191.915 252.818 190.697 252.292 189.797 251.434C189.769 251.406 189.741 251.378 189.714 251.365C188.814 250.465 188.246 249.219 188.246 247.834V247.322H174.914C173.543 247.322 172.283 246.754 171.383 245.854C170.483 244.954 169.916 243.708 169.916 242.324V234.82C169.916 234.183 170.027 233.588 170.248 233.02C170.483 232.48 170.802 231.954 171.245 231.484Z" fill="black"/>
<path opacity="0.5" fill-rule="evenodd" clip-rule="evenodd" d="M188.62 214.427C185.27 218.082 181.933 221.751 178.583 225.406C183.068 221.792 183.359 222.111 183.373 230.598C184.993 230.127 185.893 229.961 185.893 233.616C185.893 238.295 184.259 238.489 183.248 240.33C182.944 244.788 181.947 246.021 178.583 246.021C182.251 246.021 185.906 246.021 189.575 246.021C189.575 234.668 189.575 223.315 189.575 211.963C189.575 212.904 189.257 213.721 188.62 214.427Z" fill="url(#paint36_linear)"/>
<path fill-rule="evenodd" clip-rule="evenodd" d="M189.575 247.848C189.575 249.869 191.223 251.517 193.244 251.517C193.853 251.517 194.463 251.517 195.072 251.517C197.093 251.517 198.741 249.869 198.741 247.848C198.741 225.863 198.741 203.877 198.741 181.892C196.124 189.977 193.133 196.401 189.575 200.208C189.575 222.415 189.575 244.553 189.575 247.848Z" fill="url(#paint37_linear)"/>
<path opacity="0.5" fill-rule="evenodd" clip-rule="evenodd" d="M195.072 251.517C197.093 251.517 198.741 249.869 198.741 247.848C198.741 225.863 198.741 203.877 198.741 181.892C197.591 185.422 196.373 188.648 195.072 191.458C198.741 200.222 197.661 250.437 195.072 251.517Z" fill="url(#paint38_linear)"/>
<path opacity="0.5" fill-rule="evenodd" clip-rule="evenodd" d="M189.575 247.848C189.575 249.869 191.223 251.517 193.244 251.517V195.072C192.109 197.052 190.849 198.865 189.575 200.222C189.575 222.415 189.575 244.553 189.575 247.848Z" fill="url(#paint39_linear)"/>
<path fill-rule="evenodd" clip-rule="evenodd" d="M189.534 211.146C189.451 211.118 189.395 211.035 189.423 210.938C189.451 210.855 189.534 210.8 189.631 210.827L189.534 211.146ZM198.685 210.827L198.768 211.146L198.45 211.229L198.131 211.312L197.827 211.381L197.522 211.45L197.218 211.506L196.913 211.561L196.608 211.603L196.304 211.644L195.999 211.686L195.695 211.713L195.404 211.741L195.113 211.755L194.822 211.769L194.532 211.783H194.241H193.95H193.659L193.369 211.769L193.078 211.755L192.801 211.727L192.524 211.7L192.247 211.672L191.97 211.644L191.694 211.603L191.417 211.561L191.14 211.52L190.863 211.464L190.586 211.409L190.309 211.353L190.032 211.284L189.769 211.215L189.506 211.146L189.589 210.827L189.852 210.896L190.115 210.966L190.378 211.021L190.641 211.076L190.904 211.132L191.167 211.187L191.444 211.229L191.721 211.27L191.998 211.312L192.275 211.34L192.552 211.367L192.829 211.395L193.106 211.409L193.383 211.423L193.659 211.436H193.936H194.213H194.504L194.795 211.423L195.085 211.409L195.376 211.395L195.667 211.367L195.958 211.34L196.248 211.298L196.539 211.256L196.83 211.215L197.134 211.16L197.439 211.104L197.744 211.035L198.048 210.966L198.353 210.896L198.685 210.827ZM198.685 210.827C198.768 210.8 198.865 210.855 198.893 210.938C198.92 211.021 198.865 211.118 198.782 211.146L198.685 210.827Z" fill="#5B1E00"/>
<path fill-rule="evenodd" clip-rule="evenodd" d="M189.575 228.521C192.815 228.521 196.899 225.863 198.741 223.952V226.707C196.913 228.632 192.815 231.276 189.575 231.276V228.521Z" fill="url(#paint40_linear)"/>
<path fill-rule="evenodd" clip-rule="evenodd" d="M189.575 229.047C193.147 229.047 197.591 225.655 198.741 224.464V226.181C197.591 227.386 192.953 230.764 189.575 230.764V229.047Z" fill="url(#paint41_linear)"/>
<path fill-rule="evenodd" clip-rule="evenodd" d="M189.575 225.793V225.295L174.844 236.924C174.235 237.395 173.917 238.074 173.917 238.835V242.836C173.917 244.871 176.257 246.007 177.863 244.747L189.575 235.512V235.014L177.627 244.442C176.284 245.508 174.305 244.553 174.305 242.836V238.835C174.305 238.184 174.568 237.631 175.08 237.229L189.575 225.793Z" fill="#5B1E00"/>
<path fill-rule="evenodd" clip-rule="evenodd" d="M194.338 247.003C195.058 247.003 195.058 245.91 194.338 245.91C193.659 245.924 192.981 245.937 192.317 245.924C190.711 245.896 189.188 245.66 189.215 244.248C189.326 238.018 186.405 237.091 183.317 237.035C182.307 237.021 181.31 237.104 180.299 237.104C179.579 237.104 179.579 238.198 180.299 238.198C181.296 238.198 182.293 238.101 183.29 238.129C185.823 238.171 188.205 238.96 188.122 244.234C188.08 246.588 190.143 246.976 192.303 247.017C192.967 247.031 193.659 247.003 194.338 247.003Z" fill="#5B1E00"/>
<path fill-rule="evenodd" clip-rule="evenodd" d="M194.338 246.823C194.822 246.823 194.822 246.09 194.338 246.09C193.659 246.104 192.981 246.117 192.316 246.104C190.627 246.076 189.008 245.813 189.035 244.248C189.146 238.184 186.322 237.271 183.317 237.229C182.307 237.215 181.31 237.298 180.313 237.298C179.829 237.298 179.829 238.032 180.313 238.032C181.31 238.032 182.307 237.949 183.317 237.963C185.948 238.004 188.412 238.821 188.329 244.248C188.288 246.45 190.254 246.81 192.33 246.851C192.981 246.851 193.659 246.823 194.338 246.823Z" fill="url(#paint42_linear)"/>
<path fill-rule="evenodd" clip-rule="evenodd" d="M194.338 246.644C194.573 246.644 194.573 246.284 194.338 246.284C193.659 246.297 192.981 246.311 192.316 246.297C190.531 246.27 188.828 245.979 188.855 244.262C188.952 238.351 186.225 237.478 183.317 237.423C182.307 237.409 181.31 237.492 180.313 237.492C180.078 237.492 180.078 237.852 180.313 237.852C181.31 237.852 182.307 237.769 183.317 237.783C186.045 237.824 188.606 238.669 188.509 244.248C188.468 246.284 190.351 246.63 192.33 246.657C192.981 246.657 193.659 246.644 194.338 246.644Z" fill="url(#paint43_linear)"/>
<path fill-rule="evenodd" clip-rule="evenodd" d="M189.215 244.248C189.326 238.018 186.405 237.091 183.317 237.035C182.307 237.021 181.31 237.104 180.299 237.104C179.579 237.104 179.579 238.198 180.299 238.198C181.296 238.198 182.293 238.101 183.29 238.129C185.823 238.171 188.205 238.96 188.122 244.234C188.523 242.13 188.883 242.462 189.215 244.248Z" fill="#C1C1C1"/>
<path fill-rule="evenodd" clip-rule="evenodd" d="M194.338 242.905C196.29 242.905 197.882 244.498 197.882 246.45C197.882 248.402 196.29 249.994 194.338 249.994C192.386 249.994 190.794 248.402 190.794 246.45C190.794 244.498 192.372 242.905 194.338 242.905Z" fill="#5B1E00"/>
<path fill-rule="evenodd" clip-rule="evenodd" d="M194.338 243.265C196.096 243.265 197.536 244.691 197.536 246.464C197.536 248.222 196.11 249.662 194.338 249.662C192.58 249.662 191.14 248.236 191.14 246.464C191.14 244.691 192.58 243.265 194.338 243.265Z" fill="url(#paint44_linear)"/>
<path opacity="0.5" fill-rule="evenodd" clip-rule="evenodd" d="M194.338 243.265C192.22 245.55 196.235 250.658 197.536 246.464C197.536 248.222 196.11 249.662 194.338 249.662C194.559 245.328 192.081 244.207 191.14 246.464C191.14 244.691 192.58 243.265 194.338 243.265Z" fill="url(#paint45_linear)"/>
<path fill-rule="evenodd" clip-rule="evenodd" d="M194.338 244.359C195.501 244.359 196.442 245.301 196.442 246.464C196.442 247.626 195.501 248.568 194.338 248.568C193.175 248.568 192.233 247.626 192.233 246.464C192.233 245.301 193.175 244.359 194.338 244.359Z" fill="url(#paint46_linear)"/>
<path opacity="0.5" fill-rule="evenodd" clip-rule="evenodd" d="M194.338 244.359C193.023 246.422 194.864 247.516 196.442 246.464C196.442 247.626 195.501 248.568 194.338 248.568C196.802 248.097 193.355 245.55 192.233 246.464C192.233 245.301 193.175 244.359 194.338 244.359Z" fill="url(#paint47_linear)"/>
<path fill-rule="evenodd" clip-rule="evenodd" d="M194.338 244.677C195.321 244.677 196.124 245.48 196.124 246.463C196.124 247.446 195.321 248.249 194.338 248.249C193.355 248.249 192.552 247.446 192.552 246.463C192.552 245.467 193.355 244.677 194.338 244.677Z" fill="url(#paint48_linear)"/>
<path fill-rule="evenodd" clip-rule="evenodd" d="M180.299 234.114C182.251 234.114 183.844 235.706 183.844 237.658C183.844 239.61 182.251 241.202 180.299 241.202C178.347 241.202 176.755 239.61 176.755 237.658C176.755 235.706 178.333 234.114 180.299 234.114Z" fill="#5B1E00"/>
<path fill-rule="evenodd" clip-rule="evenodd" d="M180.299 234.46C182.058 234.46 183.497 235.886 183.497 237.658C183.497 239.416 182.071 240.856 180.299 240.856C178.541 240.856 177.101 239.43 177.101 237.658C177.101 235.9 178.527 234.46 180.299 234.46Z" fill="url(#paint49_linear)"/>
<path opacity="0.5" fill-rule="evenodd" clip-rule="evenodd" d="M180.299 234.46C178.181 236.744 182.196 241.853 183.497 237.658C183.497 239.416 182.071 240.856 180.299 240.856C180.521 236.523 178.043 235.402 177.101 237.658C177.101 235.9 178.527 234.46 180.299 234.46Z" fill="url(#paint50_linear)"/>
<path fill-rule="evenodd" clip-rule="evenodd" d="M180.299 235.554C181.462 235.554 182.404 236.495 182.404 237.658C182.404 238.821 181.462 239.763 180.299 239.763C179.136 239.763 178.195 238.821 178.195 237.658C178.195 236.495 179.136 235.554 180.299 235.554Z" fill="url(#paint51_linear)"/>
<path opacity="0.5" fill-rule="evenodd" clip-rule="evenodd" d="M180.299 235.554C178.984 237.617 180.825 238.71 182.404 237.658C182.404 238.821 181.462 239.763 180.299 239.763C182.764 239.292 179.316 236.744 178.195 237.658C178.195 236.495 179.136 235.554 180.299 235.554Z" fill="url(#paint52_linear)"/>
<path fill-rule="evenodd" clip-rule="evenodd" d="M180.299 235.872C181.282 235.872 182.085 236.675 182.085 237.658C182.085 238.641 181.282 239.444 180.299 239.444C179.316 239.444 178.513 238.641 178.513 237.658C178.513 236.675 179.316 235.872 180.299 235.872Z" fill="url(#paint53_linear)"/>
<path fill-rule="evenodd" clip-rule="evenodd" d="M189.575 216.891V216.351L186.031 220.131C185.685 220.491 185.076 220.255 185.076 219.757L185.062 218.303L184.702 218.691V219.757C184.702 220.574 185.713 220.989 186.28 220.38L189.575 216.891Z" fill="#5B1E00"/>
<path fill-rule="evenodd" clip-rule="evenodd" d="M179.898 223.966L179.524 224.367V228.244C179.524 229.074 180.535 229.476 181.102 228.867L189.561 219.854V219.314L180.825 228.618C180.479 228.978 179.87 228.742 179.87 228.244L179.898 223.966Z" fill="#5B1E00"/>
<path fill-rule="evenodd" clip-rule="evenodd" d="M194.269 231.359C193.175 231.359 192.178 231.802 191.458 232.522L191.444 232.536C190.738 233.256 190.295 234.239 190.295 235.332C190.295 236.426 190.738 237.423 191.458 238.143C192.178 238.863 193.175 239.306 194.269 239.306C195.362 239.306 196.359 238.863 197.079 238.143C197.799 237.423 198.242 236.426 198.242 235.332C198.242 234.239 197.799 233.242 197.079 232.522C196.359 231.816 195.362 231.359 194.269 231.359Z" fill="#5B1E00"/>
<path fill-rule="evenodd" clip-rule="evenodd" d="M194.269 231.733C192.275 231.733 190.655 233.353 190.655 235.346C190.655 237.34 192.275 238.96 194.269 238.96C196.262 238.96 197.882 237.34 197.882 235.346C197.882 233.353 196.262 231.733 194.269 231.733Z" fill="url(#paint54_linear)"/>
<path fill-rule="evenodd" clip-rule="evenodd" d="M194.892 232.217H193.66C193.452 232.217 193.3 232.384 193.3 232.577V233.99C193.3 234.197 193.133 234.349 192.94 234.349H191.527C191.32 234.349 191.167 234.516 191.167 234.709V235.942C191.167 236.149 191.334 236.302 191.527 236.302H192.94C193.147 236.302 193.3 236.468 193.3 236.662V238.074C193.3 238.281 193.466 238.434 193.66 238.434H194.892C195.099 238.434 195.252 238.268 195.252 238.074V236.703C195.252 236.495 195.418 236.343 195.612 236.343H197.024C197.231 236.343 197.384 236.177 197.384 235.983V234.751C197.384 234.543 197.218 234.391 197.024 234.391H195.612C195.404 234.391 195.252 234.225 195.252 234.031V232.619C195.252 232.384 195.086 232.217 194.892 232.217Z" fill="url(#paint55_radial)"/>
<path fill-rule="evenodd" clip-rule="evenodd" d="M194.767 232.799H193.756C193.59 232.799 193.452 232.937 193.452 233.09V234.239C193.452 234.405 193.313 234.543 193.147 234.543H191.998C191.832 234.543 191.694 234.682 191.694 234.834V235.845C191.694 236.011 191.832 236.149 191.998 236.149H193.147C193.313 236.149 193.452 236.288 193.452 236.44V237.589C193.452 237.755 193.59 237.894 193.756 237.894H194.767C194.933 237.894 195.072 237.755 195.072 237.589V236.44C195.072 236.274 195.21 236.149 195.362 236.149H196.512C196.678 236.149 196.816 236.011 196.816 235.845V234.834C196.816 234.668 196.678 234.543 196.512 234.543H195.362C195.196 234.543 195.072 234.405 195.072 234.239V233.09C195.072 232.937 194.933 232.799 194.767 232.799Z" fill="url(#paint56_radial)"/>
<path opacity="0.5" fill-rule="evenodd" clip-rule="evenodd" d="M194.892 232.217C194.712 232.217 194.532 232.217 194.338 232.217C194.269 235.346 190.212 236.329 191.5 236.329C191.97 236.329 192.441 236.329 192.912 236.329C193.12 236.329 193.272 236.495 193.272 236.689C193.272 237.16 193.272 237.631 193.272 238.101C193.272 238.309 193.438 238.461 193.632 238.461C193.826 238.461 194.033 238.461 194.227 238.461C193.369 235.596 194.615 233.879 195.238 232.564C195.252 232.384 195.085 232.217 194.892 232.217Z" fill="url(#paint57_linear)"/>
<path opacity="0.5" fill-rule="evenodd" clip-rule="evenodd" d="M188.62 214.427C187.596 215.548 186.571 216.656 185.56 217.777C185.56 238.863 180.909 242.352 171.259 242.352C171.259 244.373 172.906 246.02 174.928 246.02C179.815 246.02 184.702 246.02 189.589 246.02C189.589 246.63 189.589 247.239 189.589 247.848C189.589 249.869 191.237 251.517 193.258 251.517C193.867 251.517 194.476 251.517 195.086 251.517C197.107 251.517 198.754 249.869 198.754 247.848C198.754 244.761 198.754 241.659 198.754 238.572C188.052 238.572 191.86 232.231 191.86 197.342C191.126 198.422 190.378 199.378 189.603 200.222C189.603 204.14 189.603 208.044 189.603 211.962C189.575 212.904 189.257 213.721 188.62 214.427Z" fill="url(#paint58_linear)"/>
<path fill-rule="evenodd" clip-rule="evenodd" d="M149.896 211.215H165.762C167.784 211.215 169.431 212.862 169.431 214.884V229.545C169.431 231.567 167.784 233.214 165.762 233.214H158.895C158.175 233.214 157.552 233.034 156.943 232.646L147.958 226.97C146.864 226.278 146.255 225.17 146.255 223.869V214.898C146.241 212.862 147.889 211.215 149.896 211.215Z" fill="url(#paint59_linear)"/>
<path fill-rule="evenodd" clip-rule="evenodd" d="M149.896 209.886H165.762C167.133 209.886 168.393 210.44 169.293 211.353C170.193 212.253 170.76 213.499 170.76 214.884V229.545C170.76 230.916 170.193 232.162 169.293 233.062C168.393 233.962 167.147 234.529 165.762 234.529H158.895C158.425 234.529 157.968 234.46 157.511 234.336C157.068 234.211 156.639 234.017 156.237 233.754L147.252 228.078C146.504 227.607 145.923 226.998 145.535 226.278C145.134 225.558 144.926 224.741 144.926 223.869V214.898C144.926 213.527 145.48 212.267 146.394 211.367C146.421 211.339 146.449 211.312 146.477 211.298C147.349 210.412 148.567 209.886 149.896 209.886ZM149.896 211.215H165.762C167.784 211.215 169.431 212.862 169.431 214.884V229.545C169.431 231.567 167.784 233.214 165.762 233.214H158.895C158.175 233.214 157.552 233.034 156.943 232.646L147.958 226.97C146.864 226.278 146.255 225.17 146.255 223.869V214.898C146.241 212.862 147.889 211.215 149.896 211.215Z" fill="black"/>
<path fill-rule="evenodd" clip-rule="evenodd" d="M153.801 211.215C157.788 211.215 161.775 211.215 165.762 211.215C167.784 211.215 169.431 212.862 169.431 214.884C169.431 218.594 169.431 222.318 169.431 226.029H162.329C160.847 226.029 153.801 221.668 153.801 219.729V211.215Z" fill="url(#paint60_linear)"/>
<path opacity="0.5" fill-rule="evenodd" clip-rule="evenodd" d="M153.801 211.215C157.788 211.215 161.775 211.215 165.762 211.215C167.784 211.215 169.431 212.862 169.431 214.884C169.431 218.594 169.431 222.318 169.431 226.029L168.67 215.631C168.67 213.596 167.008 211.935 164.973 211.935L153.801 211.215Z" fill="url(#paint61_linear)"/>
<path fill-rule="evenodd" clip-rule="evenodd" d="M169.417 220.615V220.283C161.858 220.283 159.934 218.968 159.934 211.215H159.601C159.615 219.162 161.678 220.615 169.417 220.615Z" fill="#373737"/>
<path fill-rule="evenodd" clip-rule="evenodd" d="M169.417 225.863C169.514 225.863 169.584 225.932 169.584 226.029C169.584 226.126 169.514 226.195 169.417 226.195V225.863ZM162.329 225.863H169.431V226.195H162.329V225.863ZM153.634 219.729H153.967L153.981 219.923L154.036 220.131L154.133 220.352L154.257 220.588L154.424 220.837L154.617 221.086L154.839 221.335L155.088 221.598L155.365 221.861L155.656 222.125L155.974 222.388L156.306 222.651L156.653 222.9L157.013 223.149L157.372 223.398L157.746 223.634L158.12 223.869L158.494 224.09L158.868 224.312L159.242 224.52L159.601 224.713L159.948 224.893L160.28 225.06L160.598 225.212L160.903 225.35L161.194 225.475L161.457 225.586L161.692 225.683L161.9 225.752L162.08 225.807L162.218 225.835L162.315 225.849V226.181L162.163 226.167L161.997 226.126L161.803 226.07L161.581 225.987L161.332 225.89L161.055 225.78L160.764 225.655L160.446 225.516L160.114 225.35L159.768 225.17L159.408 224.977L159.048 224.783L158.674 224.575L158.3 224.354L157.926 224.118L157.552 223.883L157.179 223.634L156.805 223.384L156.445 223.135L156.099 222.872L155.766 222.609L155.448 222.346L155.143 222.083L154.867 221.82L154.604 221.557L154.368 221.294L154.16 221.031L153.981 220.768L153.842 220.505L153.731 220.242L153.662 219.979L153.634 219.729ZM153.967 211.215V219.729H153.634V211.215H153.967ZM153.634 211.215C153.634 211.118 153.704 211.049 153.801 211.049C153.897 211.049 153.967 211.118 153.967 211.215H153.634Z" fill="#5B1E00"/>
<path fill-rule="evenodd" clip-rule="evenodd" d="M163.879 214.053C162.62 214.053 161.595 215.077 161.595 216.337C161.595 217.597 162.62 218.622 163.879 218.622C165.139 218.622 166.164 217.597 166.164 216.337C166.178 215.077 165.153 214.053 163.879 214.053Z" fill="url(#paint62_linear)"/>
<path fill-rule="evenodd" clip-rule="evenodd" d="M163.879 214.427C162.813 214.427 161.955 215.285 161.955 216.351C161.955 217.417 162.813 218.276 163.879 218.276C164.946 218.276 165.804 217.417 165.804 216.351C165.804 215.285 164.946 214.427 163.879 214.427Z" fill="black"/>
<path opacity="0.5" fill-rule="evenodd" clip-rule="evenodd" d="M149.896 211.215H150.727V218.054C150.727 219.342 151.336 220.463 152.43 221.155L161.415 226.832C162.024 227.219 162.647 227.399 163.367 227.399H169.403V229.545C169.403 231.567 167.756 233.214 165.735 233.214H158.868C158.148 233.214 157.525 233.034 156.916 232.646L147.93 226.97C146.837 226.278 146.227 225.17 146.227 223.869V214.898C146.241 212.862 147.889 211.215 149.896 211.215Z" fill="url(#paint63_linear)"/>
</g>
</g>
<defs>
<linearGradient id="paint0_linear" x1="102.858" y1="214.834" x2="88.202" y2="229.49" gradientUnits="userSpaceOnUse">
<stop stop-color="#212427"/>
<stop offset="0.52" stop-color="#B8B9B8"/>
<stop offset="1" stop-color="#23272A"/>
</linearGradient>
<linearGradient id="paint1_linear" x1="76.6924" y1="181.902" x2="79.9568" y2="181.9" gradientUnits="userSpaceOnUse">
<stop stop-color="#23272A"/>
<stop offset="1" stop-color="#B8B9B8"/>
</linearGradient>
<linearGradient id="paint2_linear" x1="76.5088" y1="171.368" x2="79.957" y2="171.366" gradientUnits="userSpaceOnUse">
<stop/>
<stop offset="1" stop-color="#23272A"/>
</linearGradient>
<linearGradient id="paint3_linear" x1="99.1502" y1="216.708" x2="80.9143" y2="216.708" gradientUnits="userSpaceOnUse">
<stop stop-color="#FFD13A"/>
<stop offset="1" stop-color="#FAEF5F"/>
</linearGradient>
<linearGradient id="paint4_linear" x1="80.9163" y1="228.99" x2="87.1135" y2="228.988" gradientUnits="userSpaceOnUse">
<stop stop-color="#5C1800"/>
<stop offset="1" stop-color="#FFF032"/>
</linearGradient>
<linearGradient id="paint5_linear" x1="80.9171" y1="216.71" x2="71.7575" y2="216.708" gradientUnits="userSpaceOnUse">
<stop stop-color="#FFD13A"/>
<stop offset="1" stop-color="#FAEF5F"/>
</linearGradient>
<linearGradient id="paint6_linear" x1="73.5876" y1="250.444" x2="73.5893" y2="183.739" gradientUnits="userSpaceOnUse">
<stop stop-color="#F9F185"/>
<stop offset="1" stop-color="white"/>
</linearGradient>
<linearGradient id="paint7_linear" x1="80.9136" y1="223.293" x2="77.2517" y2="223.291" gradientUnits="userSpaceOnUse">
<stop stop-color="#5C1800"/>
<stop offset="1" stop-color="#FFF032"/>
</linearGradient>
<linearGradient id="paint8_linear" x1="80.9165" y1="227.612" x2="71.757" y2="227.61" gradientUnits="userSpaceOnUse">
<stop stop-color="#5C1800"/>
<stop offset="1" stop-color="#FFF032"/>
</linearGradient>
<linearGradient id="paint9_linear" x1="80.8899" y1="227.613" x2="71.9229" y2="227.612" gradientUnits="userSpaceOnUse">
<stop/>
<stop offset="1" stop-color="#23272A"/>
</linearGradient>
<linearGradient id="paint10_linear" x1="89.7264" y1="237.523" x2="75.985" y2="246.243" gradientUnits="userSpaceOnUse">
<stop stop-color="#FFF032"/>
<stop offset="1" stop-color="#FAEF5F"/>
</linearGradient>
<linearGradient id="paint11_linear" x1="89.9014" y1="237.22" x2="76.0646" y2="246.362" gradientUnits="userSpaceOnUse">
<stop stop-color="#3B3092"/>
<stop offset="1" stop-color="#A5DBDB"/>
</linearGradient>
<linearGradient id="paint12_linear" x1="76.1563" y1="249.606" x2="76.1546" y2="243.263" gradientUnits="userSpaceOnUse">
<stop stop-color="#FFF032"/>
<stop offset="1" stop-color="#FAEF5F"/>
</linearGradient>
<linearGradient id="paint13_linear" x1="75.1383" y1="247.913" x2="77.2436" y2="244.894" gradientUnits="userSpaceOnUse">
<stop stop-color="#FAEF5F"/>
<stop offset="1" stop-color="white"/>
</linearGradient>
<linearGradient id="paint14_linear" x1="76.1564" y1="248.408" x2="76.1548" y2="244.465" gradientUnits="userSpaceOnUse">
<stop stop-color="#3B3092"/>
<stop offset="1" stop-color="#2B3594"/>
</linearGradient>
<linearGradient id="paint15_linear" x1="75.1378" y1="247.361" x2="77.2642" y2="245.468" gradientUnits="userSpaceOnUse">
<stop stop-color="#A5DBDB"/>
<stop offset="1" stop-color="white"/>
</linearGradient>
<linearGradient id="paint16_linear" x1="76.1564" y1="248.237" x2="76.1548" y2="244.673" gradientUnits="userSpaceOnUse">
<stop stop-color="#FAEF5F"/>
<stop offset="1" stop-color="#FDFAD3"/>
</linearGradient>
<linearGradient id="paint17_linear" x1="90.1959" y1="240.808" x2="90.1942" y2="234.466" gradientUnits="userSpaceOnUse">
<stop stop-color="#FFF032"/>
<stop offset="1" stop-color="#FAEF5F"/>
</linearGradient>
<linearGradient id="paint18_linear" x1="89.1781" y1="239.115" x2="91.2833" y2="236.096" gradientUnits="userSpaceOnUse">
<stop stop-color="#FAEF5F"/>
<stop offset="1" stop-color="white"/>
</linearGradient>
<linearGradient id="paint19_linear" x1="90.196" y1="239.61" x2="90.1944" y2="235.667" gradientUnits="userSpaceOnUse">
<stop stop-color="#3B3092"/>
<stop offset="1" stop-color="#2B3594"/>
</linearGradient>
<linearGradient id="paint20_linear" x1="89.1774" y1="238.563" x2="91.3039" y2="236.67" gradientUnits="userSpaceOnUse">
<stop stop-color="#A5DBDB"/>
<stop offset="1" stop-color="white"/>
</linearGradient>
<linearGradient id="paint21_linear" x1="90.196" y1="239.44" x2="90.1943" y2="235.875" gradientUnits="userSpaceOnUse">
<stop stop-color="#FAEF5F"/>
<stop offset="1" stop-color="#FDFAD3"/>
</linearGradient>
<linearGradient id="paint22_linear" x1="80.2049" y1="235.35" x2="72.6047" y2="235.348" gradientUnits="userSpaceOnUse">
<stop stop-color="#5C1800"/>
<stop offset="1" stop-color="#FAEF5F"/>
</linearGradient>
<radialGradient id="paint23_radial" cx="0" cy="0" r="1" gradientUnits="userSpaceOnUse" gradientTransform="translate(76.6309 235.284) rotate(-44.9676) scale(3.0739 3.07107)">
<stop stop-color="#472F92"/>
<stop offset="1" stop-color="#020035"/>
</radialGradient>
<radialGradient id="paint24_radial" cx="0" cy="0" r="1" gradientUnits="userSpaceOnUse" gradientTransform="translate(76.1462 235.48) rotate(-0.0292) scale(3.17581 2.49873)">
<stop stop-color="#2B3594"/>
<stop offset="1" stop-color="#3B3092"/>
</radialGradient>
<linearGradient id="paint25_linear" x1="77.2458" y1="236.007" x2="75.8681" y2="232.215" gradientUnits="userSpaceOnUse">
<stop stop-color="#3B3092"/>
<stop offset="1" stop-color="white"/>
</linearGradient>
<linearGradient id="paint26_linear" x1="91.006" y1="245.081" x2="74.3472" y2="221.848" gradientUnits="userSpaceOnUse">
<stop stop-color="#FFD13A"/>
<stop offset="1" stop-color="white"/>
</linearGradient>
<linearGradient id="paint27_linear" x1="116.835" y1="225.883" x2="102.713" y2="213.438" gradientUnits="userSpaceOnUse">
<stop stop-color="#FFD13A"/>
<stop offset="1" stop-color="#FAEF5F"/>
</linearGradient>
<linearGradient id="paint28_linear" x1="111.474" y1="220.951" x2="102.852" y2="213.201" gradientUnits="userSpaceOnUse">
<stop stop-color="#23272A"/>
<stop offset="1" stop-color="#B8B9B8"/>
</linearGradient>
<linearGradient id="paint29_linear" x1="107.596" y1="217.264" x2="102.983" y2="212.392" gradientUnits="userSpaceOnUse">
<stop stop-color="#B5B8B8"/>
<stop offset="1" stop-color="white"/>
</linearGradient>
<linearGradient id="paint30_linear" x1="105.548" y1="215.287" x2="107.748" y2="217.488" gradientUnits="userSpaceOnUse">
<stop stop-color="#212427"/>
<stop offset="1" stop-color="#B5B8B8"/>
</linearGradient>
<linearGradient id="paint31_linear" x1="117.331" y1="227.429" x2="110.536" y2="219.827" gradientUnits="userSpaceOnUse">
<stop stop-color="#FFD13A"/>
<stop offset="1" stop-color="white"/>
</linearGradient>
<linearGradient id="paint32_linear" x1="167.633" y1="214.834" x2="182.289" y2="229.49" gradientUnits="userSpaceOnUse">
<stop stop-color="#212427"/>
<stop offset="0.52" stop-color="#B8B9B8"/>
<stop offset="1" stop-color="#23272A"/>
</linearGradient>
<linearGradient id="paint33_linear" x1="193.799" y1="181.902" x2="190.534" y2="181.9" gradientUnits="userSpaceOnUse">
<stop stop-color="#23272A"/>
<stop offset="1" stop-color="#B8B9B8"/>
</linearGradient>
<linearGradient id="paint34_linear" x1="193.982" y1="171.368" x2="190.534" y2="171.366" gradientUnits="userSpaceOnUse">
<stop/>
<stop offset="1" stop-color="#23272A"/>
</linearGradient>
<linearGradient id="paint35_linear" x1="171.341" y1="216.708" x2="189.577" y2="216.708" gradientUnits="userSpaceOnUse">
<stop stop-color="#FFD13A"/>
<stop offset="1" stop-color="#FAEF5F"/>
</linearGradient>
<linearGradient id="paint36_linear" x1="189.575" y1="228.99" x2="183.377" y2="228.988" gradientUnits="userSpaceOnUse">
<stop stop-color="#5C1800"/>
<stop offset="1" stop-color="#FFF032"/>
</linearGradient>
<linearGradient id="paint37_linear" x1="189.574" y1="216.71" x2="198.734" y2="216.708" gradientUnits="userSpaceOnUse">
<stop stop-color="#FFD13A"/>
<stop offset="1" stop-color="#FAEF5F"/>
</linearGradient>
<linearGradient id="paint38_linear" x1="196.904" y1="250.444" x2="196.902" y2="183.739" gradientUnits="userSpaceOnUse">
<stop stop-color="#F9F185"/>
<stop offset="1" stop-color="white"/>
</linearGradient>
<linearGradient id="paint39_linear" x1="189.578" y1="223.293" x2="193.24" y2="223.291" gradientUnits="userSpaceOnUse">
<stop stop-color="#5C1800"/>
<stop offset="1" stop-color="#FFF032"/>
</linearGradient>
<linearGradient id="paint40_linear" x1="189.575" y1="227.612" x2="198.735" y2="227.61" gradientUnits="userSpaceOnUse">
<stop stop-color="#5C1800"/>
<stop offset="1" stop-color="#FFF032"/>
</linearGradient>
<linearGradient id="paint41_linear" x1="189.601" y1="227.613" x2="198.567" y2="227.612" gradientUnits="userSpaceOnUse">
<stop/>
<stop offset="1" stop-color="#23272A"/>
</linearGradient>
<linearGradient id="paint42_linear" x1="180.765" y1="237.523" x2="194.506" y2="246.243" gradientUnits="userSpaceOnUse">
<stop stop-color="#FFF032"/>
<stop offset="1" stop-color="#FAEF5F"/>
</linearGradient>
<linearGradient id="paint43_linear" x1="180.59" y1="237.22" x2="194.428" y2="246.363" gradientUnits="userSpaceOnUse">
<stop stop-color="#3B3092"/>
<stop offset="1" stop-color="#A5DBDB"/>
</linearGradient>
<linearGradient id="paint44_linear" x1="194.335" y1="249.606" x2="194.337" y2="243.263" gradientUnits="userSpaceOnUse">
<stop stop-color="#FFF032"/>
<stop offset="1" stop-color="#FAEF5F"/>
</linearGradient>
<linearGradient id="paint45_linear" x1="195.353" y1="247.914" x2="193.248" y2="244.895" gradientUnits="userSpaceOnUse">
<stop stop-color="#FAEF5F"/>
<stop offset="1" stop-color="white"/>
</linearGradient>
<linearGradient id="paint46_linear" x1="194.335" y1="248.408" x2="194.337" y2="244.465" gradientUnits="userSpaceOnUse">
<stop stop-color="#3B3092"/>
<stop offset="1" stop-color="#2B3594"/>
</linearGradient>
<linearGradient id="paint47_linear" x1="195.353" y1="247.361" x2="193.227" y2="245.468" gradientUnits="userSpaceOnUse">
<stop stop-color="#A5DBDB"/>
<stop offset="1" stop-color="white"/>
</linearGradient>
<linearGradient id="paint48_linear" x1="194.335" y1="248.237" x2="194.337" y2="244.673" gradientUnits="userSpaceOnUse">
<stop stop-color="#FAEF5F"/>
<stop offset="1" stop-color="#FDFAD3"/>
</linearGradient>
<linearGradient id="paint49_linear" x1="180.295" y1="240.808" x2="180.297" y2="234.466" gradientUnits="userSpaceOnUse">
<stop stop-color="#FFF032"/>
<stop offset="1" stop-color="#FAEF5F"/>
</linearGradient>
<linearGradient id="paint50_linear" x1="181.313" y1="239.115" x2="179.208" y2="236.096" gradientUnits="userSpaceOnUse">
<stop stop-color="#FAEF5F"/>
<stop offset="1" stop-color="white"/>
</linearGradient>
<linearGradient id="paint51_linear" x1="180.295" y1="239.61" x2="180.297" y2="235.667" gradientUnits="userSpaceOnUse">
<stop stop-color="#3B3092"/>
<stop offset="1" stop-color="#2B3594"/>
</linearGradient>
<linearGradient id="paint52_linear" x1="181.314" y1="238.563" x2="179.187" y2="236.67" gradientUnits="userSpaceOnUse">
<stop stop-color="#A5DBDB"/>
<stop offset="1" stop-color="white"/>
</linearGradient>
<linearGradient id="paint53_linear" x1="180.295" y1="239.44" x2="180.297" y2="235.875" gradientUnits="userSpaceOnUse">
<stop stop-color="#FAEF5F"/>
<stop offset="1" stop-color="#FDFAD3"/>
</linearGradient>
<linearGradient id="paint54_linear" x1="190.287" y1="235.35" x2="197.887" y2="235.348" gradientUnits="userSpaceOnUse">
<stop stop-color="#5C1800"/>
<stop offset="1" stop-color="#FAEF5F"/>
</linearGradient>
<radialGradient id="paint55_radial" cx="0" cy="0" r="1" gradientUnits="userSpaceOnUse" gradientTransform="translate(193.863 235.28) rotate(44.9676) scale(3.07394 3.07112)">
<stop stop-color="#472F92"/>
<stop offset="1" stop-color="#020035"/>
</radialGradient>
<radialGradient id="paint56_radial" cx="0" cy="0" r="1" gradientUnits="userSpaceOnUse" gradientTransform="translate(194.345 235.48) rotate(0.029209) scale(3.17564 2.49858)">
<stop stop-color="#2B3594"/>
<stop offset="1" stop-color="#3B3092"/>
</radialGradient>
<linearGradient id="paint57_linear" x1="193.245" y1="236.007" x2="194.623" y2="232.214" gradientUnits="userSpaceOnUse">
<stop stop-color="#3B3092"/>
<stop offset="1" stop-color="white"/>
</linearGradient>
<linearGradient id="paint58_linear" x1="179.485" y1="245.081" x2="196.144" y2="221.848" gradientUnits="userSpaceOnUse">
<stop stop-color="#FFD13A"/>
<stop offset="1" stop-color="white"/>
</linearGradient>
<linearGradient id="paint59_linear" x1="153.656" y1="225.883" x2="167.778" y2="213.438" gradientUnits="userSpaceOnUse">
<stop stop-color="#FFD13A"/>
<stop offset="1" stop-color="#FAEF5F"/>
</linearGradient>
<linearGradient id="paint60_linear" x1="159.017" y1="220.951" x2="167.64" y2="213.201" gradientUnits="userSpaceOnUse">
<stop stop-color="#23272A"/>
<stop offset="1" stop-color="#B8B9B8"/>
</linearGradient>
<linearGradient id="paint61_linear" x1="162.895" y1="217.264" x2="167.508" y2="212.392" gradientUnits="userSpaceOnUse">
<stop stop-color="#B5B8B8"/>
<stop offset="1" stop-color="white"/>
</linearGradient>
<linearGradient id="paint62_linear" x1="164.944" y1="215.287" x2="162.743" y2="217.488" gradientUnits="userSpaceOnUse">
<stop stop-color="#212427"/>
<stop offset="1" stop-color="#B5B8B8"/>
</linearGradient>
<linearGradient id="paint63_linear" x1="153.161" y1="227.429" x2="159.955" y2="219.827" gradientUnits="userSpaceOnUse">
<stop stop-color="#FFD13A"/>
<stop offset="1" stop-color="white"/>
</linearGradient>
<clipPath id="clip0">
<rect width="270" height="370" fill="white"/>
</clipPath>
<clipPath id="clip1">
<rect x="65.3188" y="89.3953" width="139.859" height="163.451" fill="white"/>
</clipPath>
</defs>
</svg>
