<svg width="270" height="370" viewBox="0 0 270 370" fill="none" xmlns="http://www.w3.org/2000/svg">
<g clip-path="url(#clip0)">
<g clip-path="url(#clip1)">
<path fill-rule="evenodd" clip-rule="evenodd" d="M93.0636 194.629V169.93L115.326 194.629H93.0636Z" fill="url(#paint0_linear)"/>
<path fill-rule="evenodd" clip-rule="evenodd" d="M91.7345 194.629V169.93C91.7345 169.196 92.3298 168.601 93.0636 168.601C93.4789 168.601 93.8527 168.795 94.1019 169.099L116.309 193.743C116.793 194.283 116.752 195.127 116.212 195.612C115.963 195.834 115.644 195.958 115.326 195.958H93.0636C92.3298 195.944 91.7345 195.363 91.7345 194.629ZM93.0636 194.629V169.93L115.326 194.629H93.0636Z" fill="black"/>
<path d="M99.1414 191.708C101.818 191.708 103.987 189.538 103.987 186.862C103.987 184.186 101.818 182.017 99.1414 182.017C96.4652 182.017 94.2958 184.186 94.2958 186.862C94.2958 189.538 96.4652 191.708 99.1414 191.708Z" fill="url(#paint1_linear)"/>
<path fill-rule="evenodd" clip-rule="evenodd" d="M99.1414 183.013C97.0093 183.013 95.2926 184.73 95.2926 186.862C95.2926 188.994 97.0093 190.711 99.1414 190.711C101.274 190.711 102.99 188.994 102.99 186.862C102.99 184.73 101.26 183.013 99.1414 183.013Z" fill="url(#paint2_linear)"/>
<path d="M91.0561 133.989H85.9059V171.356H91.0561V133.989Z" fill="url(#paint3_linear)"/>
<path fill-rule="evenodd" clip-rule="evenodd" d="M85.9059 132.66H91.0561C91.7899 132.66 92.3852 133.255 92.3852 133.989V171.356C92.3852 172.09 91.7899 172.685 91.0561 172.685H85.9059C85.1721 172.685 84.5768 172.09 84.5768 171.356V133.989C84.5768 133.255 85.1721 132.66 85.9059 132.66ZM85.9059 133.989H91.0561V171.356H85.9059V133.989Z" fill="black"/>
<path d="M89.8102 133.989H87.152V171.356H89.8102V133.989Z" fill="#C1C1C1"/>
<path fill-rule="evenodd" clip-rule="evenodd" d="M85.9059 147.28V146.948H87.1104L87.7057 146.186C87.7334 146.145 87.7888 146.117 87.8303 146.117H89.1179C89.1732 146.117 89.2286 146.145 89.2563 146.2L89.8378 146.948H91.0423V147.28H89.7686C89.7132 147.28 89.6716 147.252 89.644 147.211L89.0486 146.449H87.9272L87.3457 147.197C87.318 147.238 87.2627 147.28 87.2073 147.28H85.9059ZM85.9059 148.941V148.609H87.1104L87.7057 147.848C87.7334 147.806 87.7888 147.778 87.8303 147.778H89.1179C89.1732 147.778 89.2286 147.806 89.2563 147.861L89.8378 148.609H91.0423V148.941H89.7686C89.7132 148.941 89.6716 148.914 89.644 148.872L89.0486 148.111H87.9272L87.3457 148.858C87.318 148.9 87.2627 148.941 87.2073 148.941H85.9059ZM85.9059 148.111H87.1934C87.2488 148.111 87.3042 148.083 87.3319 148.028L87.9134 147.28H89.0348L89.6301 148.041C89.6578 148.083 89.7132 148.111 89.7547 148.111H91.0423V147.778H89.8378L89.2563 147.031C89.2286 146.989 89.1732 146.948 89.1179 146.948H87.8303C87.7749 146.948 87.7334 146.975 87.7057 147.017L87.1104 147.778H85.9059V148.111Z" fill="#353535"/>
<path fill-rule="evenodd" clip-rule="evenodd" d="M94.0189 181.255L105.358 193.674L128.437 194.532V203.503C128.437 204.791 127.828 205.912 126.734 206.605L117.749 212.281C117.14 212.669 116.53 212.849 115.824 212.849C106.285 212.849 96.7463 212.849 87.2212 212.849C85.3937 212.849 83.8984 211.353 83.8984 209.526V161.997L93.0636 167.05C93.0636 170.968 93.0636 174.873 93.0636 178.791C93.0636 179.746 93.3821 180.563 94.0189 181.255Z" fill="url(#paint4_linear)"/>
<path fill-rule="evenodd" clip-rule="evenodd" d="M94.988 180.369L105.953 192.372L128.478 193.217C129.198 193.244 129.752 193.826 129.752 194.532V203.503C129.752 204.376 129.544 205.192 129.143 205.912C128.741 206.632 128.16 207.242 127.426 207.712L118.441 213.389C118.039 213.638 117.624 213.832 117.181 213.956C116.752 214.081 116.295 214.15 115.81 214.15H87.2211C85.9474 214.15 84.7844 213.624 83.9399 212.793C83.0954 211.949 82.5831 210.8 82.5831 209.512V161.997C82.5831 161.263 83.1785 160.668 83.9122 160.668C84.1753 160.668 84.4106 160.737 84.6183 160.876L93.7004 165.887C94.1435 166.123 94.3927 166.58 94.3927 167.05V178.791C94.3927 179.109 94.4481 179.386 94.545 179.649C94.628 179.898 94.7803 180.147 94.988 180.369ZM94.0189 181.255L105.358 193.674L128.437 194.532V203.503C128.437 204.791 127.828 205.912 126.734 206.605L117.749 212.281C117.14 212.669 116.53 212.849 115.824 212.849C106.285 212.849 96.7463 212.849 87.2211 212.849C85.3936 212.849 83.8984 211.353 83.8984 209.526V161.997L93.0636 167.05C93.0636 170.968 93.0636 174.873 93.0636 178.791C93.0636 179.746 93.382 180.563 94.0189 181.255Z" fill="black"/>
<path opacity="0.5" fill-rule="evenodd" clip-rule="evenodd" d="M94.0189 181.255L102.52 190.559V212.849H93.0636V178.791C93.0636 179.746 93.382 180.563 94.0189 181.255Z" fill="url(#paint5_linear)"/>
<path opacity="0.5" fill-rule="evenodd" clip-rule="evenodd" d="M128.451 194.532C128.451 197.523 128.451 200.513 128.451 203.503C128.451 204.791 127.842 205.912 126.748 206.605C123.757 208.501 120.753 210.398 117.763 212.281C117.153 212.669 116.544 212.849 115.838 212.849C106.299 212.849 96.7601 212.849 87.235 212.849C85.4075 212.849 83.9122 211.353 83.9122 209.526C99.2245 209.54 123.12 204.777 128.451 194.532Z" fill="url(#paint6_linear)"/>
<path fill-rule="evenodd" clip-rule="evenodd" d="M93.0636 212.849H87.2212C85.3937 212.849 83.8984 211.353 83.8984 209.526V161.997L93.0636 167.05C93.0636 182.321 93.0636 197.592 93.0636 212.849Z" fill="url(#paint7_linear)"/>
<path fill-rule="evenodd" clip-rule="evenodd" d="M87.678 210.966L87.2212 212.862C85.3937 212.862 83.8984 211.367 83.8984 209.54L85.5736 208.861L87.678 210.966Z" fill="url(#paint8_linear)"/>
<path fill-rule="evenodd" clip-rule="evenodd" d="M91.3884 168.075L85.5736 164.863L83.8984 161.997L93.0636 167.05L91.3884 168.075Z" fill="#FFD137"/>
<path fill-rule="evenodd" clip-rule="evenodd" d="M91.3883 210.966H87.6779C86.5149 210.966 85.5735 210.024 85.5735 208.861V164.863L91.3744 168.061C91.3883 177.752 91.3883 201.274 91.3883 210.966Z" fill="#5B1E00"/>
<path fill-rule="evenodd" clip-rule="evenodd" d="M91.0561 210.633C91.0561 196.512 91.0561 182.39 91.0561 168.269L85.9059 165.43V208.861C85.9059 209.83 86.7089 210.633 87.678 210.633H91.0561Z" fill="#FFFF61"/>
<path fill-rule="evenodd" clip-rule="evenodd" d="M87.9827 174.305C87.9827 173.654 88.9795 173.654 88.9795 174.305V203.476C88.9795 204.126 87.9827 204.126 87.9827 203.476V174.305Z" fill="#5B1E00"/>
<path fill-rule="evenodd" clip-rule="evenodd" d="M88.1488 174.305C88.1488 173.862 88.8134 173.862 88.8134 174.305V203.476C88.8134 203.919 88.1488 203.919 88.1488 203.476V174.305Z" fill="url(#paint9_linear)"/>
<path fill-rule="evenodd" clip-rule="evenodd" d="M88.3149 174.305C88.3149 174.083 88.6472 174.083 88.6472 174.305V203.476C88.6472 203.697 88.3149 203.697 88.3149 203.476V174.305Z" fill="url(#paint10_linear)"/>
<path fill-rule="evenodd" clip-rule="evenodd" d="M88.481 172.644C89.1317 172.644 89.6578 173.17 89.6578 173.82C89.6578 174.471 89.1317 174.997 88.481 174.997C87.8303 174.997 87.3042 174.471 87.3042 173.82C87.3042 173.17 87.8303 172.644 88.481 172.644Z" fill="url(#paint11_linear)"/>
<path fill-rule="evenodd" clip-rule="evenodd" d="M88.481 172.99C88.9378 172.99 89.3116 173.363 89.3116 173.82C89.3116 174.277 88.9378 174.651 88.481 174.651C88.0241 174.651 87.6503 174.277 87.6503 173.82C87.6503 173.363 88.0241 172.99 88.481 172.99Z" fill="url(#paint12_linear)"/>
<path opacity="0.5" fill-rule="evenodd" clip-rule="evenodd" d="M88.481 201.759C89.7685 201.759 90.8207 202.811 90.8207 204.099C90.8207 205.386 89.7685 206.439 88.481 206.439C87.1934 206.439 86.1412 205.386 86.1412 204.099C86.1412 202.797 87.1796 201.759 88.481 201.759Z" fill="url(#paint13_linear)"/>
<path fill-rule="evenodd" clip-rule="evenodd" d="M88.481 201.15C89.7685 201.15 90.8207 202.202 90.8207 203.49C90.8207 204.777 89.7685 205.829 88.481 205.829C87.1934 205.829 86.1412 204.777 86.1412 203.49C86.1412 202.202 87.1796 201.15 88.481 201.15Z" fill="#5B1E00"/>
<path fill-rule="evenodd" clip-rule="evenodd" d="M88.481 201.454C89.6024 201.454 90.5162 202.368 90.5162 203.49C90.5162 204.611 89.6024 205.525 88.481 205.525C87.3596 205.525 86.4458 204.611 86.4458 203.49C86.432 202.354 87.3457 201.454 88.481 201.454Z" fill="url(#paint14_linear)"/>
<path opacity="0.5" fill-rule="evenodd" clip-rule="evenodd" d="M88.481 201.454C87.1242 202.908 89.6993 206.176 90.5162 203.49C90.5162 204.611 89.6024 205.525 88.481 205.525C88.6195 202.756 87.0412 202.05 86.4458 203.49C86.432 202.354 87.3457 201.454 88.481 201.454Z" fill="url(#paint15_linear)"/>
<path fill-rule="evenodd" clip-rule="evenodd" d="M88.481 202.147C89.2148 202.147 89.8239 202.742 89.8239 203.49C89.8239 204.223 89.2286 204.833 88.481 204.833C87.7472 204.833 87.1381 204.237 87.1381 203.49C87.1381 202.742 87.7334 202.147 88.481 202.147Z" fill="url(#paint16_linear)"/>
<path opacity="0.5" fill-rule="evenodd" clip-rule="evenodd" d="M88.481 202.147C87.6365 203.476 88.8133 204.168 89.8239 203.49C89.8239 204.223 89.2286 204.833 88.481 204.833C90.0593 204.528 87.858 202.908 87.1381 203.49C87.1381 202.742 87.7334 202.147 88.481 202.147Z" fill="url(#paint17_linear)"/>
<path fill-rule="evenodd" clip-rule="evenodd" d="M88.481 202.354C89.104 202.354 89.6163 202.867 89.6163 203.49C89.6163 204.113 89.104 204.625 88.481 204.625C87.858 204.625 87.3457 204.113 87.3457 203.49C87.3319 202.853 87.8441 202.354 88.481 202.354Z" fill="url(#paint18_linear)"/>
<path fill-rule="evenodd" clip-rule="evenodd" d="M128.451 203.337C128.548 203.337 128.617 203.407 128.617 203.503C128.617 203.6 128.548 203.67 128.451 203.67H93.0636C92.9667 203.67 92.8975 203.6 92.8975 203.503C92.8975 203.407 92.9667 203.337 93.0636 203.337H105.192V193.674C105.192 193.577 105.261 193.508 105.358 193.508C105.455 193.508 105.524 193.577 105.524 193.674V203.337H111.02L117.873 194.048C117.929 193.978 118.026 193.964 118.109 194.02C118.178 194.075 118.192 194.172 118.136 194.255L111.436 203.337H128.451Z" fill="#5B1E00"/>
<path fill-rule="evenodd" clip-rule="evenodd" d="M94.3234 196.401C94.3234 196.124 94.5449 195.903 94.8218 195.903C95.0987 195.903 95.3202 196.124 95.3202 196.401V201.787C95.3202 202.064 95.0987 202.285 94.8218 202.285C94.5449 202.285 94.3234 202.064 94.3234 201.787V196.401Z" fill="#5B1E00"/>
<path fill-rule="evenodd" clip-rule="evenodd" d="M94.4895 196.401C94.4895 196.221 94.6418 196.069 94.8218 196.069C95.0018 196.069 95.154 196.221 95.154 196.401V201.787C95.154 201.967 95.0018 202.119 94.8218 202.119C94.6418 202.119 94.4895 201.967 94.4895 201.787V196.401Z" fill="url(#paint19_radial)"/>
<path fill-rule="evenodd" clip-rule="evenodd" d="M94.6556 196.401C94.6556 196.304 94.7249 196.235 94.8218 196.235C94.9187 196.235 94.9879 196.304 94.9879 196.401V201.787C94.9879 201.884 94.9187 201.953 94.8218 201.953C94.7249 201.953 94.6556 201.884 94.6556 201.787V196.401Z" fill="url(#paint20_radial)"/>
<path opacity="0.5" fill-rule="evenodd" clip-rule="evenodd" d="M94.4895 196.401C94.6556 197.744 94.8218 199.101 95.154 198.229C95.154 199.295 95.154 200.361 95.154 201.427C94.9879 200.222 94.7249 199.295 94.4895 199.599C94.4895 198.547 94.4895 197.467 94.4895 196.401Z" fill="url(#paint21_linear)"/>
<path fill-rule="evenodd" clip-rule="evenodd" d="M97.6323 196.401C97.6323 196.124 97.8538 195.903 98.1307 195.903C98.4076 195.903 98.6291 196.124 98.6291 196.401V201.787C98.6291 202.064 98.4076 202.285 98.1307 202.285C97.8538 202.285 97.6323 202.064 97.6323 201.787V196.401Z" fill="#5B1E00"/>
<path fill-rule="evenodd" clip-rule="evenodd" d="M97.7985 196.401C97.7985 196.221 97.9508 196.069 98.1307 196.069C98.3107 196.069 98.463 196.221 98.463 196.401V201.787C98.463 201.967 98.3107 202.119 98.1307 202.119C97.9508 202.119 97.7985 201.967 97.7985 201.787V196.401Z" fill="url(#paint22_radial)"/>
<path fill-rule="evenodd" clip-rule="evenodd" d="M97.9646 196.401C97.9646 196.304 98.0338 196.235 98.1307 196.235C98.2276 196.235 98.2969 196.304 98.2969 196.401V201.787C98.2969 201.884 98.2276 201.953 98.1307 201.953C98.0338 201.953 97.9646 201.884 97.9646 201.787V196.401Z" fill="url(#paint23_radial)"/>
<path opacity="0.5" fill-rule="evenodd" clip-rule="evenodd" d="M97.7985 196.401C97.9646 197.744 98.1307 199.101 98.463 198.229C98.463 199.295 98.463 200.361 98.463 201.427C98.2969 200.222 98.0338 199.295 97.7985 199.599C97.7985 198.547 97.7985 197.467 97.7985 196.401Z" fill="url(#paint24_linear)"/>
<path fill-rule="evenodd" clip-rule="evenodd" d="M100.955 196.401C100.955 196.124 101.176 195.903 101.453 195.903C101.73 195.903 101.952 196.124 101.952 196.401V201.787C101.952 202.064 101.73 202.285 101.453 202.285C101.176 202.285 100.955 202.064 100.955 201.787V196.401Z" fill="#5B1E00"/>
<path fill-rule="evenodd" clip-rule="evenodd" d="M101.121 196.401C101.121 196.221 101.274 196.069 101.453 196.069C101.633 196.069 101.786 196.221 101.786 196.401V201.787C101.786 201.967 101.633 202.119 101.453 202.119C101.274 202.119 101.121 201.967 101.121 201.787V196.401Z" fill="url(#paint25_radial)"/>
<path fill-rule="evenodd" clip-rule="evenodd" d="M101.287 196.401C101.287 196.304 101.356 196.235 101.453 196.235C101.55 196.235 101.62 196.304 101.62 196.401V201.787C101.62 201.884 101.55 201.953 101.453 201.953C101.356 201.953 101.287 201.884 101.287 201.787V196.401Z" fill="url(#paint26_radial)"/>
<path opacity="0.5" fill-rule="evenodd" clip-rule="evenodd" d="M101.121 196.401C101.287 197.744 101.453 199.101 101.786 198.229C101.786 199.295 101.786 200.361 101.786 201.427C101.62 200.222 101.357 199.295 101.121 199.599C101.121 198.547 101.121 197.467 101.121 196.401Z" fill="url(#paint27_linear)"/>
<path opacity="0.5" fill-rule="evenodd" clip-rule="evenodd" d="M98.1999 190.005C99.4874 190.005 100.54 191.057 100.54 192.345C100.54 193.632 99.4874 194.684 98.1999 194.684C96.9123 194.684 95.8601 193.632 95.8601 192.345C95.8601 191.057 96.8985 190.005 98.1999 190.005Z" fill="url(#paint28_linear)"/>
<path fill-rule="evenodd" clip-rule="evenodd" d="M98.1999 189.41C99.4874 189.41 100.54 190.462 100.54 191.749C100.54 193.037 99.4874 194.089 98.1999 194.089C96.9123 194.089 95.8601 193.037 95.8601 191.749C95.8601 190.448 96.8985 189.41 98.1999 189.41Z" fill="#5B1E00"/>
<path fill-rule="evenodd" clip-rule="evenodd" d="M98.1999 189.7C99.3213 189.7 100.235 190.614 100.235 191.735C100.235 192.857 99.3213 193.771 98.1999 193.771C97.0785 193.771 96.1647 192.857 96.1647 191.735C96.1509 190.614 97.0646 189.7 98.1999 189.7Z" fill="url(#paint29_linear)"/>
<path opacity="0.5" fill-rule="evenodd" clip-rule="evenodd" d="M98.1999 189.7C96.8431 191.154 99.4182 194.421 100.235 191.735C100.235 192.857 99.3213 193.771 98.1999 193.771C98.3383 191.002 96.76 190.296 96.1647 191.735C96.1509 190.614 97.0646 189.7 98.1999 189.7Z" fill="url(#paint30_linear)"/>
<path fill-rule="evenodd" clip-rule="evenodd" d="M98.1999 190.406C98.9336 190.406 99.5428 191.002 99.5428 191.749C99.5428 192.483 98.9475 193.092 98.1999 193.092C97.4661 193.092 96.8569 192.497 96.8569 191.749C96.8569 191.002 97.4523 190.406 98.1999 190.406Z" fill="url(#paint31_linear)"/>
<path opacity="0.5" fill-rule="evenodd" clip-rule="evenodd" d="M98.1999 190.406C97.3553 191.735 98.5321 192.428 99.5428 191.749C99.5428 192.483 98.9475 193.092 98.1999 193.092C99.7782 192.788 97.5769 191.168 96.8569 191.749C96.8569 191.002 97.4523 190.406 98.1999 190.406Z" fill="url(#paint32_linear)"/>
<path fill-rule="evenodd" clip-rule="evenodd" d="M98.1999 190.6C98.8229 190.6 99.3351 191.112 99.3351 191.735C99.3351 192.358 98.8229 192.871 98.1999 192.871C97.5769 192.871 97.0646 192.358 97.0646 191.735C97.0508 191.112 97.563 190.6 98.1999 190.6Z" fill="url(#paint33_linear)"/>
<path fill-rule="evenodd" clip-rule="evenodd" d="M115.727 210.647H95.2096C95.0296 210.647 94.8773 210.495 94.8773 210.315V205.968C94.8773 205.788 95.0296 205.635 95.2096 205.635H122.373C122.484 205.635 122.581 205.691 122.65 205.788C122.747 205.94 122.705 206.148 122.553 206.245L115.935 210.578C115.88 210.62 115.811 210.647 115.727 210.647Z" fill="url(#paint34_linear)"/>
<path fill-rule="evenodd" clip-rule="evenodd" d="M95.5419 210.315H115.631C115.7 210.315 115.755 210.301 115.811 210.26L121.431 206.563C121.708 206.383 121.584 205.954 121.251 205.954H95.5419C95.3619 205.954 95.2096 206.106 95.2096 206.286V209.983C95.2096 210.163 95.3619 210.315 95.5419 210.315Z" fill="url(#paint35_linear)"/>
<path fill-rule="evenodd" clip-rule="evenodd" d="M101.924 206.632C102.201 206.632 102.423 206.854 102.423 207.131C102.423 207.408 102.201 207.629 101.924 207.629H96.5386C96.2617 207.629 96.0402 207.408 96.0402 207.131C96.0402 206.854 96.2617 206.632 96.5386 206.632H101.924Z" fill="#5B1E00"/>
<path fill-rule="evenodd" clip-rule="evenodd" d="M101.924 206.799C102.104 206.799 102.256 206.951 102.256 207.131C102.256 207.311 102.104 207.463 101.924 207.463H96.5386C96.3586 207.463 96.2063 207.311 96.2063 207.131C96.2063 206.951 96.3586 206.799 96.5386 206.799H101.924Z" fill="url(#paint36_radial)"/>
<path fill-rule="evenodd" clip-rule="evenodd" d="M101.924 206.965C102.021 206.965 102.09 207.034 102.09 207.131C102.09 207.228 102.021 207.297 101.924 207.297H96.5386C96.4417 207.297 96.3724 207.228 96.3724 207.131C96.3724 207.034 96.4417 206.965 96.5386 206.965H101.924Z" fill="url(#paint37_radial)"/>
<path opacity="0.5" fill-rule="evenodd" clip-rule="evenodd" d="M101.924 206.799C100.581 206.965 99.2245 207.131 100.097 207.463C99.0306 207.463 97.9646 207.463 96.8986 207.463C98.103 207.297 99.0306 207.034 98.7261 206.799C99.7921 206.799 100.858 206.799 101.924 206.799Z" fill="url(#paint38_linear)"/>
<path fill-rule="evenodd" clip-rule="evenodd" d="M101.924 208.294C102.201 208.294 102.423 208.515 102.423 208.792C102.423 209.069 102.201 209.291 101.924 209.291H96.5386C96.2617 209.291 96.0402 209.069 96.0402 208.792C96.0402 208.515 96.2617 208.294 96.5386 208.294H101.924Z" fill="#5B1E00"/>
<path fill-rule="evenodd" clip-rule="evenodd" d="M101.924 208.46C102.104 208.46 102.256 208.612 102.256 208.792C102.256 208.972 102.104 209.124 101.924 209.124H96.5386C96.3586 209.124 96.2063 208.972 96.2063 208.792C96.2063 208.612 96.3586 208.46 96.5386 208.46H101.924Z" fill="url(#paint39_radial)"/>
<path fill-rule="evenodd" clip-rule="evenodd" d="M101.924 208.626C102.021 208.626 102.09 208.695 102.09 208.792C102.09 208.889 102.021 208.958 101.924 208.958H96.5386C96.4417 208.958 96.3724 208.889 96.3724 208.792C96.3724 208.695 96.4417 208.626 96.5386 208.626H101.924Z" fill="url(#paint40_radial)"/>
<path opacity="0.5" fill-rule="evenodd" clip-rule="evenodd" d="M101.924 208.46C100.581 208.626 99.2245 208.792 100.097 209.124C99.0306 209.124 97.9646 209.124 96.8986 209.124C98.103 208.958 99.0306 208.695 98.7261 208.46C99.7921 208.46 100.858 208.46 101.924 208.46Z" fill="url(#paint41_linear)"/>
<path fill-rule="evenodd" clip-rule="evenodd" d="M177.433 194.629V169.93L155.171 194.629H177.433Z" fill="url(#paint42_linear)"/>
<path fill-rule="evenodd" clip-rule="evenodd" d="M177.433 194.629V169.93L155.171 194.629H177.433ZM178.762 169.93V194.629C178.762 195.363 178.167 195.958 177.433 195.958H155.171C154.853 195.958 154.534 195.847 154.285 195.612C153.745 195.127 153.704 194.283 154.188 193.743L176.395 169.099C176.644 168.795 177.004 168.601 177.433 168.601C178.167 168.601 178.762 169.196 178.762 169.93Z" fill="black"/>
<path d="M171.356 191.708C174.032 191.708 176.201 189.538 176.201 186.862C176.201 184.186 174.032 182.017 171.356 182.017C168.679 182.017 166.51 184.186 166.51 186.862C166.51 189.538 168.679 191.708 171.356 191.708Z" fill="url(#paint43_linear)"/>
<path fill-rule="evenodd" clip-rule="evenodd" d="M171.356 183.013C173.488 183.013 175.204 184.73 175.204 186.862C175.204 188.994 173.488 190.711 171.356 190.711C169.224 190.711 167.507 188.994 167.507 186.862C167.507 184.73 169.224 183.013 171.356 183.013Z" fill="url(#paint44_linear)"/>
<path d="M184.591 133.989H179.441V171.356H184.591V133.989Z" fill="url(#paint45_linear)"/>
<path fill-rule="evenodd" clip-rule="evenodd" d="M184.577 133.989H179.427V171.356H184.577V133.989ZM179.441 132.66H184.591C185.325 132.66 185.92 133.255 185.92 133.989V171.356C185.92 172.09 185.325 172.685 184.591 172.685H179.441C178.707 172.685 178.112 172.09 178.112 171.356V133.989C178.112 133.255 178.707 132.66 179.441 132.66Z" fill="black"/>
<path d="M183.345 133.989H180.687V171.356H183.345V133.989Z" fill="#C1C1C1"/>
<path fill-rule="evenodd" clip-rule="evenodd" d="M184.577 147.28V146.948H183.373L182.777 146.186C182.75 146.145 182.694 146.117 182.653 146.117H181.365C181.31 146.117 181.255 146.145 181.227 146.2L180.645 146.948H179.441V147.28H180.728C180.784 147.28 180.825 147.252 180.853 147.211L181.448 146.449H182.57L183.151 147.197C183.179 147.238 183.234 147.28 183.29 147.28H184.577ZM184.577 148.941V148.609H183.373L182.777 147.848C182.75 147.806 182.694 147.778 182.653 147.778H181.365C181.31 147.778 181.255 147.806 181.227 147.861L180.645 148.609H179.441V148.941H180.728C180.784 148.941 180.825 148.914 180.853 148.872L181.448 148.111H182.57L183.151 148.858C183.179 148.9 183.234 148.941 183.29 148.941H184.577ZM184.577 148.111H183.29C183.234 148.111 183.179 148.083 183.151 148.028L182.57 147.28H181.448L180.853 148.041C180.825 148.083 180.77 148.111 180.728 148.111H179.441V147.778H180.645L181.227 147.031C181.255 146.989 181.31 146.948 181.365 146.948H182.653C182.708 146.948 182.75 146.975 182.777 147.017L183.373 147.778H184.577V148.111Z" fill="#353535"/>
<path fill-rule="evenodd" clip-rule="evenodd" d="M176.464 181.255L165.125 193.674L142.046 194.532V203.503C142.046 204.791 142.655 205.912 143.749 206.605L152.734 212.281C153.344 212.669 153.953 212.849 154.659 212.849C164.198 212.849 173.737 212.849 183.262 212.849C185.089 212.849 186.585 211.353 186.585 209.526V161.997L177.42 167.05C177.42 170.968 177.42 174.873 177.42 178.791C177.433 179.746 177.115 180.563 176.464 181.255Z" fill="url(#paint46_linear)"/>
<path fill-rule="evenodd" clip-rule="evenodd" d="M176.464 181.255L165.125 193.674L142.046 194.532V203.503C142.046 204.791 142.655 205.912 143.749 206.605L152.734 212.281C153.344 212.669 153.953 212.849 154.659 212.849C164.198 212.849 173.737 212.849 183.262 212.849C185.089 212.849 186.585 211.353 186.585 209.526V161.997L177.42 167.05C177.42 170.968 177.42 174.873 177.42 178.791C177.433 179.746 177.115 180.563 176.464 181.255ZM164.53 192.372L175.495 180.369C175.703 180.147 175.855 179.898 175.952 179.635C176.049 179.386 176.104 179.095 176.104 178.777V167.036C176.104 166.566 176.353 166.123 176.797 165.874L185.879 160.862C186.086 160.737 186.322 160.654 186.585 160.654C187.318 160.654 187.914 161.249 187.914 161.983V209.512C187.914 210.786 187.388 211.949 186.557 212.793C185.713 213.638 184.563 214.15 183.276 214.15H154.659C154.174 214.15 153.717 214.081 153.288 213.956C152.859 213.832 152.444 213.638 152.028 213.389L143.043 207.712C142.295 207.242 141.728 206.632 141.326 205.912C140.925 205.193 140.717 204.376 140.717 203.503V194.532C140.717 193.826 141.285 193.231 141.991 193.217L164.53 192.372Z" fill="black"/>
<path opacity="0.5" fill-rule="evenodd" clip-rule="evenodd" d="M176.464 181.255L167.964 190.559V212.849H177.419V178.791C177.433 179.746 177.115 180.563 176.464 181.255Z" fill="url(#paint47_linear)"/>
<path opacity="0.5" fill-rule="evenodd" clip-rule="evenodd" d="M142.046 194.532C142.046 197.523 142.046 200.513 142.046 203.503C142.046 204.791 142.655 205.912 143.749 206.605C146.74 208.501 149.744 210.398 152.734 212.281C153.344 212.669 153.953 212.849 154.659 212.849C164.198 212.849 173.737 212.849 183.262 212.849C185.089 212.849 186.585 211.353 186.585 209.526C171.272 209.54 147.376 204.777 142.046 194.532Z" fill="url(#paint48_linear)"/>
<path fill-rule="evenodd" clip-rule="evenodd" d="M177.433 212.849H183.276C185.103 212.849 186.599 211.353 186.599 209.526V161.997L177.433 167.05C177.433 182.321 177.433 197.592 177.433 212.849Z" fill="url(#paint49_linear)"/>
<path fill-rule="evenodd" clip-rule="evenodd" d="M182.805 210.966L183.262 212.863C185.089 212.863 186.585 211.367 186.585 209.54L184.909 208.861L182.805 210.966Z" fill="url(#paint50_linear)"/>
<path fill-rule="evenodd" clip-rule="evenodd" d="M179.109 168.075L184.91 164.863L186.585 161.997L177.433 167.05L179.109 168.075Z" fill="#FFD137"/>
<path fill-rule="evenodd" clip-rule="evenodd" d="M179.109 210.966H182.805C183.968 210.966 184.91 210.024 184.91 208.861V164.863L179.109 168.061C179.109 177.752 179.109 201.275 179.109 210.966Z" fill="#5B1E00"/>
<path fill-rule="evenodd" clip-rule="evenodd" d="M179.441 210.633C179.441 196.512 179.441 182.39 179.441 168.269L184.591 165.43V208.861C184.591 209.83 183.788 210.633 182.819 210.633H179.441Z" fill="#FFFF61"/>
<path fill-rule="evenodd" clip-rule="evenodd" d="M182.5 174.305C182.5 173.654 181.504 173.654 181.504 174.305V203.476C181.504 204.126 182.5 204.126 182.5 203.476V174.305Z" fill="#5B1E00"/>
<path fill-rule="evenodd" clip-rule="evenodd" d="M182.334 174.305C182.334 173.862 181.67 173.862 181.67 174.305V203.476C181.67 203.919 182.334 203.919 182.334 203.476V174.305Z" fill="url(#paint51_linear)"/>
<path fill-rule="evenodd" clip-rule="evenodd" d="M182.168 174.305C182.168 174.083 181.836 174.083 181.836 174.305V203.476C181.836 203.697 182.168 203.697 182.168 203.476V174.305Z" fill="url(#paint52_linear)"/>
<path fill-rule="evenodd" clip-rule="evenodd" d="M182.016 172.644C181.365 172.644 180.839 173.17 180.839 173.82C180.839 174.471 181.365 174.997 182.016 174.997C182.667 174.997 183.193 174.471 183.193 173.82C183.193 173.17 182.667 172.644 182.016 172.644Z" fill="url(#paint53_linear)"/>
<path fill-rule="evenodd" clip-rule="evenodd" d="M182.016 172.99C181.559 172.99 181.185 173.364 181.185 173.82C181.185 174.277 181.559 174.651 182.016 174.651C182.473 174.651 182.847 174.277 182.847 173.82C182.847 173.364 182.473 172.99 182.016 172.99Z" fill="url(#paint54_linear)"/>
<path opacity="0.5" fill-rule="evenodd" clip-rule="evenodd" d="M182.016 201.759C180.728 201.759 179.676 202.811 179.676 204.099C179.676 205.386 180.728 206.439 182.016 206.439C183.303 206.439 184.356 205.386 184.356 204.099C184.356 202.798 183.303 201.759 182.016 201.759Z" fill="url(#paint55_linear)"/>
<path fill-rule="evenodd" clip-rule="evenodd" d="M182.016 201.15C180.728 201.15 179.676 202.202 179.676 203.49C179.676 204.777 180.728 205.829 182.016 205.829C183.303 205.829 184.356 204.777 184.356 203.49C184.356 202.202 183.303 201.15 182.016 201.15Z" fill="#5B1E00"/>
<path fill-rule="evenodd" clip-rule="evenodd" d="M182.016 201.454C180.894 201.454 179.981 202.368 179.981 203.49C179.981 204.611 180.894 205.525 182.016 205.525C183.137 205.525 184.051 204.611 184.051 203.49C184.051 202.354 183.137 201.454 182.016 201.454Z" fill="url(#paint56_linear)"/>
<path opacity="0.5" fill-rule="evenodd" clip-rule="evenodd" d="M182.016 201.454C183.373 202.908 180.798 206.176 179.981 203.49C179.981 204.611 180.894 205.525 182.016 205.525C181.877 202.756 183.456 202.05 184.051 203.49C184.051 202.354 183.137 201.454 182.016 201.454Z" fill="url(#paint57_linear)"/>
<path fill-rule="evenodd" clip-rule="evenodd" d="M182.016 202.147C181.282 202.147 180.673 202.742 180.673 203.49C180.673 204.223 181.268 204.833 182.016 204.833C182.75 204.833 183.359 204.237 183.359 203.49C183.359 202.742 182.75 202.147 182.016 202.147Z" fill="url(#paint58_linear)"/>
<path opacity="0.5" fill-rule="evenodd" clip-rule="evenodd" d="M182.016 202.147C182.86 203.476 181.684 204.168 180.673 203.49C180.673 204.223 181.268 204.833 182.016 204.833C180.438 204.528 182.639 202.908 183.359 203.49C183.359 202.742 182.75 202.147 182.016 202.147Z" fill="url(#paint59_linear)"/>
<path fill-rule="evenodd" clip-rule="evenodd" d="M182.016 202.354C181.393 202.354 180.881 202.867 180.881 203.49C180.881 204.113 181.393 204.625 182.016 204.625C182.639 204.625 183.151 204.113 183.151 203.49C183.151 202.853 182.639 202.354 182.016 202.354Z" fill="url(#paint60_linear)"/>
<path fill-rule="evenodd" clip-rule="evenodd" d="M142.046 203.337C141.949 203.337 141.88 203.407 141.88 203.503C141.88 203.6 141.949 203.67 142.046 203.67H177.433C177.53 203.67 177.599 203.6 177.599 203.503C177.599 203.407 177.53 203.337 177.433 203.337H165.305V193.674C165.305 193.577 165.236 193.508 165.139 193.508C165.042 193.508 164.973 193.577 164.973 193.674V203.337H159.477L152.624 194.048C152.568 193.978 152.471 193.964 152.388 194.02C152.319 194.075 152.305 194.172 152.361 194.255L159.075 203.351H142.046V203.337Z" fill="#5B1E00"/>
<path fill-rule="evenodd" clip-rule="evenodd" d="M176.173 196.401C176.173 196.124 175.952 195.903 175.675 195.903C175.398 195.903 175.177 196.124 175.177 196.401V201.787C175.177 202.064 175.398 202.285 175.675 202.285C175.952 202.285 176.173 202.064 176.173 201.787V196.401Z" fill="#5B1E00"/>
<path fill-rule="evenodd" clip-rule="evenodd" d="M176.007 196.401C176.007 196.221 175.855 196.069 175.675 196.069C175.495 196.069 175.343 196.221 175.343 196.401V201.787C175.343 201.967 175.495 202.119 175.675 202.119C175.855 202.119 176.007 201.967 176.007 201.787V196.401Z" fill="url(#paint61_radial)"/>
<path fill-rule="evenodd" clip-rule="evenodd" d="M175.841 196.401C175.841 196.304 175.772 196.235 175.675 196.235C175.578 196.235 175.509 196.304 175.509 196.401V201.787C175.509 201.884 175.578 201.953 175.675 201.953C175.772 201.953 175.841 201.884 175.841 201.787V196.401Z" fill="url(#paint62_radial)"/>
<path opacity="0.5" fill-rule="evenodd" clip-rule="evenodd" d="M176.007 196.401C175.841 197.744 175.675 199.101 175.343 198.229C175.343 199.295 175.343 200.361 175.343 201.427C175.509 200.222 175.772 199.295 176.007 199.599C176.007 198.547 176.007 197.467 176.007 196.401Z" fill="url(#paint63_linear)"/>
<path fill-rule="evenodd" clip-rule="evenodd" d="M172.851 196.401C172.851 196.124 172.629 195.903 172.352 195.903C172.075 195.903 171.854 196.124 171.854 196.401V201.787C171.854 202.064 172.075 202.285 172.352 202.285C172.629 202.285 172.851 202.064 172.851 201.787V196.401Z" fill="#5B1E00"/>
<path fill-rule="evenodd" clip-rule="evenodd" d="M172.684 196.401C172.684 196.221 172.532 196.069 172.352 196.069C172.172 196.069 172.02 196.221 172.02 196.401V201.787C172.02 201.967 172.172 202.119 172.352 202.119C172.532 202.119 172.684 201.967 172.684 201.787V196.401Z" fill="url(#paint64_radial)"/>
<path fill-rule="evenodd" clip-rule="evenodd" d="M172.518 196.401C172.518 196.304 172.449 196.235 172.352 196.235C172.255 196.235 172.186 196.304 172.186 196.401V201.787C172.186 201.884 172.255 201.953 172.352 201.953C172.449 201.953 172.518 201.884 172.518 201.787V196.401Z" fill="url(#paint65_radial)"/>
<path opacity="0.5" fill-rule="evenodd" clip-rule="evenodd" d="M172.684 196.401C172.518 197.744 172.352 199.101 172.02 198.229C172.02 199.295 172.02 200.361 172.02 201.427C172.186 200.222 172.449 199.295 172.684 199.599C172.684 198.547 172.684 197.467 172.684 196.401Z" fill="url(#paint66_linear)"/>
<path fill-rule="evenodd" clip-rule="evenodd" d="M169.542 196.401C169.542 196.124 169.32 195.903 169.043 195.903C168.767 195.903 168.545 196.124 168.545 196.401V201.787C168.545 202.064 168.767 202.285 169.043 202.285C169.32 202.285 169.542 202.064 169.542 201.787V196.401Z" fill="#5B1E00"/>
<path fill-rule="evenodd" clip-rule="evenodd" d="M169.376 196.401C169.376 196.221 169.223 196.069 169.043 196.069C168.863 196.069 168.711 196.221 168.711 196.401V201.787C168.711 201.967 168.863 202.119 169.043 202.119C169.223 202.119 169.376 201.967 169.376 201.787V196.401Z" fill="url(#paint67_radial)"/>
<path fill-rule="evenodd" clip-rule="evenodd" d="M169.21 196.401C169.21 196.304 169.14 196.235 169.043 196.235C168.947 196.235 168.877 196.304 168.877 196.401V201.787C168.877 201.884 168.947 201.953 169.043 201.953C169.14 201.953 169.21 201.884 169.21 201.787V196.401Z" fill="url(#paint68_radial)"/>
<path opacity="0.5" fill-rule="evenodd" clip-rule="evenodd" d="M169.376 196.401C169.21 197.744 169.043 199.101 168.711 198.229C168.711 199.295 168.711 200.361 168.711 201.427C168.877 200.222 169.14 199.295 169.376 199.599C169.376 198.547 169.376 197.467 169.376 196.401Z" fill="url(#paint69_linear)"/>
<path opacity="0.5" fill-rule="evenodd" clip-rule="evenodd" d="M172.297 190.005C171.009 190.005 169.957 191.057 169.957 192.345C169.957 193.632 171.009 194.684 172.297 194.684C173.585 194.684 174.637 193.632 174.637 192.345C174.637 191.057 173.585 190.005 172.297 190.005Z" fill="url(#paint70_linear)"/>
<path fill-rule="evenodd" clip-rule="evenodd" d="M172.297 189.41C171.009 189.41 169.957 190.462 169.957 191.749C169.957 193.037 171.009 194.089 172.297 194.089C173.585 194.089 174.637 193.037 174.637 191.749C174.637 190.448 173.585 189.41 172.297 189.41Z" fill="#5B1E00"/>
<path fill-rule="evenodd" clip-rule="evenodd" d="M172.297 189.7C171.176 189.7 170.262 190.614 170.262 191.736C170.262 192.857 171.176 193.771 172.297 193.771C173.419 193.771 174.332 192.857 174.332 191.736C174.332 190.614 173.419 189.7 172.297 189.7Z" fill="url(#paint71_linear)"/>
<path opacity="0.5" fill-rule="evenodd" clip-rule="evenodd" d="M172.297 189.7C173.654 191.154 171.079 194.421 170.262 191.736C170.262 192.857 171.176 193.771 172.297 193.771C172.159 191.002 173.737 190.296 174.332 191.736C174.332 190.614 173.419 189.7 172.297 189.7Z" fill="url(#paint72_linear)"/>
<path fill-rule="evenodd" clip-rule="evenodd" d="M172.297 190.406C171.563 190.406 170.954 191.002 170.954 191.749C170.954 192.483 171.549 193.092 172.297 193.092C173.031 193.092 173.64 192.497 173.64 191.749C173.64 191.002 173.031 190.406 172.297 190.406Z" fill="url(#paint73_linear)"/>
<path opacity="0.5" fill-rule="evenodd" clip-rule="evenodd" d="M172.297 190.406C173.142 191.735 171.965 192.428 170.954 191.749C170.954 192.483 171.549 193.092 172.297 193.092C170.719 192.788 172.92 191.168 173.64 191.749C173.64 191.002 173.031 190.406 172.297 190.406Z" fill="url(#paint74_linear)"/>
<path fill-rule="evenodd" clip-rule="evenodd" d="M172.297 190.6C171.674 190.6 171.162 191.112 171.162 191.736C171.162 192.359 171.674 192.871 172.297 192.871C172.92 192.871 173.432 192.359 173.432 191.736C173.432 191.112 172.92 190.6 172.297 190.6Z" fill="url(#paint75_linear)"/>
<path fill-rule="evenodd" clip-rule="evenodd" d="M154.756 210.647H175.273C175.453 210.647 175.606 210.495 175.606 210.315V205.968C175.606 205.788 175.453 205.636 175.273 205.636H148.124C148.013 205.636 147.916 205.691 147.847 205.788C147.75 205.94 147.792 206.148 147.944 206.245L154.562 210.592C154.617 210.62 154.686 210.647 154.756 210.647Z" fill="url(#paint76_linear)"/>
<path fill-rule="evenodd" clip-rule="evenodd" d="M174.955 210.315H154.853C154.783 210.315 154.728 210.301 154.673 210.26L149.052 206.563C148.775 206.383 148.899 205.954 149.232 205.954H174.955C175.135 205.954 175.287 206.106 175.287 206.286V209.983C175.274 210.163 175.135 210.315 174.955 210.315Z" fill="url(#paint77_linear)"/>
<path fill-rule="evenodd" clip-rule="evenodd" d="M168.573 206.632C168.296 206.632 168.074 206.854 168.074 207.131C168.074 207.408 168.296 207.629 168.573 207.629H173.958C174.235 207.629 174.457 207.408 174.457 207.131C174.457 206.854 174.235 206.632 173.958 206.632H168.573Z" fill="#5B1E00"/>
<path fill-rule="evenodd" clip-rule="evenodd" d="M168.573 206.798C168.393 206.798 168.241 206.951 168.241 207.131C168.241 207.311 168.393 207.463 168.573 207.463H173.958C174.138 207.463 174.291 207.311 174.291 207.131C174.291 206.951 174.138 206.798 173.958 206.798H168.573Z" fill="url(#paint78_radial)"/>
<path fill-rule="evenodd" clip-rule="evenodd" d="M168.573 206.965C168.476 206.965 168.407 207.034 168.407 207.131C168.407 207.228 168.476 207.297 168.573 207.297H173.958C174.055 207.297 174.124 207.228 174.124 207.131C174.124 207.034 174.055 206.965 173.958 206.965H168.573Z" fill="url(#paint79_radial)"/>
<path opacity="0.5" fill-rule="evenodd" clip-rule="evenodd" d="M168.573 206.798C169.916 206.965 171.272 207.131 170.4 207.463C171.466 207.463 172.532 207.463 173.598 207.463C172.394 207.297 171.466 207.034 171.771 206.798C170.705 206.798 169.639 206.798 168.573 206.798Z" fill="url(#paint80_linear)"/>
<path fill-rule="evenodd" clip-rule="evenodd" d="M168.573 208.294C168.296 208.294 168.074 208.515 168.074 208.792C168.074 209.069 168.296 209.291 168.573 209.291H173.958C174.235 209.291 174.457 209.069 174.457 208.792C174.457 208.515 174.235 208.294 173.958 208.294H168.573Z" fill="#5B1E00"/>
<path fill-rule="evenodd" clip-rule="evenodd" d="M168.573 208.46C168.393 208.46 168.241 208.612 168.241 208.792C168.241 208.972 168.393 209.124 168.573 209.124H173.958C174.138 209.124 174.291 208.972 174.291 208.792C174.291 208.612 174.138 208.46 173.958 208.46H168.573Z" fill="url(#paint81_radial)"/>
<path fill-rule="evenodd" clip-rule="evenodd" d="M168.573 208.626C168.476 208.626 168.407 208.695 168.407 208.792C168.407 208.889 168.476 208.958 168.573 208.958H173.958C174.055 208.958 174.124 208.889 174.124 208.792C174.124 208.695 174.055 208.626 173.958 208.626H168.573Z" fill="url(#paint82_radial)"/>
<path opacity="0.5" fill-rule="evenodd" clip-rule="evenodd" d="M168.573 208.46C169.916 208.626 171.272 208.792 170.4 209.124C171.466 209.124 172.532 209.124 173.598 209.124C172.394 208.958 171.466 208.695 171.771 208.46C170.705 208.46 169.639 208.46 168.573 208.46Z" fill="url(#paint83_linear)"/>
</g>
</g>
<defs>
<linearGradient id="paint0_linear" x1="92.8124" y1="182.276" x2="115.319" y2="182.275" gradientUnits="userSpaceOnUse">
<stop stop-color="#212427"/>
<stop offset="1" stop-color="#B8B9B8"/>
</linearGradient>
<linearGradient id="paint1_linear" x1="96.8243" y1="189.219" x2="101.532" y2="184.414" gradientUnits="userSpaceOnUse">
<stop stop-color="#23272A"/>
<stop offset="1" stop-color="#B5B8B8"/>
</linearGradient>
<linearGradient id="paint2_linear" x1="97.2201" y1="188.843" x2="101.026" y2="184.902" gradientUnits="userSpaceOnUse">
<stop/>
<stop offset="1" stop-color="#212427"/>
</linearGradient>
<linearGradient id="paint3_linear" x1="86.4655" y1="152.668" x2="91.0514" y2="152.665" gradientUnits="userSpaceOnUse">
<stop stop-color="#23272A"/>
<stop offset="1" stop-color="#B8B9B8"/>
</linearGradient>
<linearGradient id="paint4_linear" x1="128.015" y1="187.433" x2="84.0796" y2="187.427" gradientUnits="userSpaceOnUse">
<stop stop-color="#FFD13A"/>
<stop offset="1" stop-color="#FAEF5F"/>
</linearGradient>
<linearGradient id="paint5_linear" x1="92.5848" y1="195.822" x2="102.512" y2="195.821" gradientUnits="userSpaceOnUse">
<stop stop-color="#5C1800"/>
<stop offset="1" stop-color="#FFF032"/>
</linearGradient>
<linearGradient id="paint6_linear" x1="128.575" y1="203.695" x2="87.8341" y2="203.692" gradientUnits="userSpaceOnUse">
<stop stop-color="#5D3600"/>
<stop offset="1" stop-color="#FAEF5F"/>
</linearGradient>
<linearGradient id="paint7_linear" x1="92.9717" y1="187.427" x2="83.9368" y2="187.427" gradientUnits="userSpaceOnUse">
<stop stop-color="#BB7F3F"/>
<stop offset="1" stop-color="#FAEF5F"/>
</linearGradient>
<linearGradient id="paint8_linear" x1="86.87" y1="211.945" x2="84.7461" y2="209.91" gradientUnits="userSpaceOnUse">
<stop stop-color="#FAEF5F"/>
<stop offset="1" stop-color="white"/>
</linearGradient>
<linearGradient id="paint9_linear" x1="88.4798" y1="174.127" x2="88.4814" y2="203.471" gradientUnits="userSpaceOnUse">
<stop stop-color="#FFD13A"/>
<stop offset="0.53" stop-color="#FAEF5F"/>
<stop offset="1" stop-color="#FFD13A"/>
</linearGradient>
<linearGradient id="paint10_linear" x1="88.4799" y1="174.451" x2="88.4814" y2="203.472" gradientUnits="userSpaceOnUse">
<stop stop-color="#3B3092"/>
<stop offset="0.51" stop-color="#A5DBDB"/>
<stop offset="1" stop-color="#3B3092"/>
</linearGradient>
<linearGradient id="paint11_linear" x1="88.4798" y1="172.675" x2="88.4813" y2="175.001" gradientUnits="userSpaceOnUse">
<stop stop-color="#23272A"/>
<stop offset="1" stop-color="#B5B8B8"/>
</linearGradient>
<linearGradient id="paint12_linear" x1="88.4798" y1="173.048" x2="88.4813" y2="174.639" gradientUnits="userSpaceOnUse">
<stop stop-color="#B5B8B8"/>
<stop offset="1" stop-color="white"/>
</linearGradient>
<linearGradient id="paint13_linear" x1="88.4774" y1="204.528" x2="88.4783" y2="206.431" gradientUnits="userSpaceOnUse">
<stop stop-color="#5C1800"/>
<stop offset="1" stop-color="white"/>
</linearGradient>
<linearGradient id="paint14_linear" x1="88.4767" y1="205.501" x2="88.4778" y2="201.449" gradientUnits="userSpaceOnUse">
<stop stop-color="#FFF032"/>
<stop offset="1" stop-color="#FAEF5F"/>
</linearGradient>
<linearGradient id="paint15_linear" x1="89.1273" y1="204.42" x2="87.7819" y2="202.49" gradientUnits="userSpaceOnUse">
<stop stop-color="#FAEF5F"/>
<stop offset="1" stop-color="white"/>
</linearGradient>
<linearGradient id="paint16_linear" x1="88.4767" y1="204.735" x2="88.4778" y2="202.216" gradientUnits="userSpaceOnUse">
<stop stop-color="#3B3092"/>
<stop offset="1" stop-color="#2B3594"/>
</linearGradient>
<linearGradient id="paint17_linear" x1="89.1277" y1="204.066" x2="87.7688" y2="202.856" gradientUnits="userSpaceOnUse">
<stop stop-color="#A5DBDB"/>
<stop offset="1" stop-color="white"/>
</linearGradient>
<linearGradient id="paint18_linear" x1="88.4766" y1="204.626" x2="88.4777" y2="202.348" gradientUnits="userSpaceOnUse">
<stop stop-color="#FAEF5F"/>
<stop offset="1" stop-color="#FDFAD3"/>
</linearGradient>
<radialGradient id="paint19_radial" cx="0" cy="0" r="1" gradientUnits="userSpaceOnUse" gradientTransform="translate(94.8599 199.044) rotate(-90.0043) scale(2.97023 1.10284)">
<stop stop-color="#472F92"/>
<stop offset="1" stop-color="#020035"/>
</radialGradient>
<radialGradient id="paint20_radial" cx="0" cy="0" r="1" gradientUnits="userSpaceOnUse" gradientTransform="translate(94.8118 199.247) rotate(-90.0001) scale(2.80763 0.709214)">
<stop stop-color="#2B3594"/>
<stop offset="1" stop-color="#3B3092"/>
</radialGradient>
<linearGradient id="paint21_linear" x1="94.8605" y1="201.273" x2="94.7702" y2="196.406" gradientUnits="userSpaceOnUse">
<stop stop-color="#2B3594"/>
<stop offset="1" stop-color="white"/>
</linearGradient>
<radialGradient id="paint22_radial" cx="0" cy="0" r="1" gradientUnits="userSpaceOnUse" gradientTransform="translate(98.1768 199.044) rotate(-90.0043) scale(2.97023 1.10285)">
<stop stop-color="#472F92"/>
<stop offset="1" stop-color="#020035"/>
</radialGradient>
<radialGradient id="paint23_radial" cx="0" cy="0" r="1" gradientUnits="userSpaceOnUse" gradientTransform="translate(98.1286 199.247) rotate(-90.0001) scale(2.80765 0.709214)">
<stop stop-color="#2B3594"/>
<stop offset="1" stop-color="#3B3092"/>
</radialGradient>
<linearGradient id="paint24_linear" x1="98.1773" y1="201.273" x2="98.0871" y2="196.406" gradientUnits="userSpaceOnUse">
<stop stop-color="#2B3594"/>
<stop offset="1" stop-color="white"/>
</linearGradient>
<radialGradient id="paint25_radial" cx="0" cy="0" r="1" gradientUnits="userSpaceOnUse" gradientTransform="translate(101.494 199.044) rotate(-90.0043) scale(2.97023 1.10282)">
<stop stop-color="#472F92"/>
<stop offset="1" stop-color="#020035"/>
</radialGradient>
<radialGradient id="paint26_radial" cx="0" cy="0" r="1" gradientUnits="userSpaceOnUse" gradientTransform="translate(101.445 199.247) rotate(-90.0001) scale(2.80763 0.709222)">
<stop stop-color="#2B3594"/>
<stop offset="1" stop-color="#3B3092"/>
</radialGradient>
<linearGradient id="paint27_linear" x1="101.494" y1="201.273" x2="101.404" y2="196.406" gradientUnits="userSpaceOnUse">
<stop stop-color="#2B3594"/>
<stop offset="1" stop-color="white"/>
</linearGradient>
<linearGradient id="paint28_linear" x1="98.1959" y1="192.785" x2="98.1968" y2="194.688" gradientUnits="userSpaceOnUse">
<stop stop-color="#5C1800"/>
<stop offset="1" stop-color="white"/>
</linearGradient>
<linearGradient id="paint29_linear" x1="98.1952" y1="193.758" x2="98.1963" y2="189.706" gradientUnits="userSpaceOnUse">
<stop stop-color="#FFF032"/>
<stop offset="1" stop-color="#FAEF5F"/>
</linearGradient>
<linearGradient id="paint30_linear" x1="98.8458" y1="192.677" x2="97.5004" y2="190.748" gradientUnits="userSpaceOnUse">
<stop stop-color="#FAEF5F"/>
<stop offset="1" stop-color="white"/>
</linearGradient>
<linearGradient id="paint31_linear" x1="98.1952" y1="192.993" x2="98.1963" y2="190.473" gradientUnits="userSpaceOnUse">
<stop stop-color="#3B3092"/>
<stop offset="1" stop-color="#2B3594"/>
</linearGradient>
<linearGradient id="paint32_linear" x1="98.8462" y1="192.324" x2="97.4875" y2="191.114" gradientUnits="userSpaceOnUse">
<stop stop-color="#A5DBDB"/>
<stop offset="1" stop-color="white"/>
</linearGradient>
<linearGradient id="paint33_linear" x1="98.1952" y1="192.884" x2="98.1962" y2="190.606" gradientUnits="userSpaceOnUse">
<stop stop-color="#FAEF5F"/>
<stop offset="1" stop-color="#FDFAD3"/>
</linearGradient>
<linearGradient id="paint34_linear" x1="108.788" y1="205.845" x2="108.789" y2="210.644" gradientUnits="userSpaceOnUse">
<stop/>
<stop offset="1" stop-color="#212427"/>
</linearGradient>
<linearGradient id="paint35_linear" x1="108.399" y1="206.094" x2="108.401" y2="210.312" gradientUnits="userSpaceOnUse">
<stop stop-color="#212427"/>
<stop offset="1" stop-color="#B8B9B8"/>
</linearGradient>
<radialGradient id="paint36_radial" cx="0" cy="0" r="1" gradientUnits="userSpaceOnUse" gradientTransform="translate(99.2844 207.175) scale(2.97056 1.10292)">
<stop stop-color="#472F92"/>
<stop offset="1" stop-color="#020035"/>
</radialGradient>
<radialGradient id="paint37_radial" cx="0" cy="0" r="1" gradientUnits="userSpaceOnUse" gradientTransform="translate(99.081 207.127) scale(2.80718 0.709066)">
<stop stop-color="#2B3594"/>
<stop offset="1" stop-color="#3B3092"/>
</radialGradient>
<linearGradient id="paint38_linear" x1="97.0553" y1="207.176" x2="101.922" y2="207.085" gradientUnits="userSpaceOnUse">
<stop stop-color="#2B3594"/>
<stop offset="1" stop-color="white"/>
</linearGradient>
<radialGradient id="paint39_radial" cx="0" cy="0" r="1" gradientUnits="userSpaceOnUse" gradientTransform="translate(99.2844 208.834) scale(2.97056 1.10295)">
<stop stop-color="#472F92"/>
<stop offset="1" stop-color="#020035"/>
</radialGradient>
<radialGradient id="paint40_radial" cx="0" cy="0" r="1" gradientUnits="userSpaceOnUse" gradientTransform="translate(99.081 208.786) scale(2.80718 0.709115)">
<stop stop-color="#2B3594"/>
<stop offset="1" stop-color="#3B3092"/>
</radialGradient>
<linearGradient id="paint41_linear" x1="97.0553" y1="208.834" x2="101.922" y2="208.744" gradientUnits="userSpaceOnUse">
<stop stop-color="#2B3594"/>
<stop offset="1" stop-color="white"/>
</linearGradient>
<linearGradient id="paint42_linear" x1="177.677" y1="182.276" x2="155.17" y2="182.275" gradientUnits="userSpaceOnUse">
<stop stop-color="#212427"/>
<stop offset="1" stop-color="#B8B9B8"/>
</linearGradient>
<linearGradient id="paint43_linear" x1="173.666" y1="189.219" x2="168.958" y2="184.414" gradientUnits="userSpaceOnUse">
<stop stop-color="#23272A"/>
<stop offset="1" stop-color="#B5B8B8"/>
</linearGradient>
<linearGradient id="paint44_linear" x1="173.27" y1="188.843" x2="169.464" y2="184.902" gradientUnits="userSpaceOnUse">
<stop/>
<stop offset="1" stop-color="#212427"/>
</linearGradient>
<linearGradient id="paint45_linear" x1="184.024" y1="152.668" x2="179.439" y2="152.665" gradientUnits="userSpaceOnUse">
<stop stop-color="#23272A"/>
<stop offset="1" stop-color="#B8B9B8"/>
</linearGradient>
<linearGradient id="paint46_linear" x1="142.474" y1="187.433" x2="186.41" y2="187.427" gradientUnits="userSpaceOnUse">
<stop stop-color="#FFD13A"/>
<stop offset="1" stop-color="#FAEF5F"/>
</linearGradient>
<linearGradient id="paint47_linear" x1="177.905" y1="195.822" x2="167.978" y2="195.821" gradientUnits="userSpaceOnUse">
<stop stop-color="#5C1800"/>
<stop offset="1" stop-color="#FFF032"/>
</linearGradient>
<linearGradient id="paint48_linear" x1="141.915" y1="203.695" x2="182.656" y2="203.692" gradientUnits="userSpaceOnUse">
<stop stop-color="#5D3600"/>
<stop offset="1" stop-color="#FAEF5F"/>
</linearGradient>
<linearGradient id="paint49_linear" x1="177.518" y1="187.428" x2="186.553" y2="187.427" gradientUnits="userSpaceOnUse">
<stop stop-color="#BB7F3F"/>
<stop offset="1" stop-color="#FAEF5F"/>
</linearGradient>
<linearGradient id="paint50_linear" x1="183.62" y1="211.945" x2="185.744" y2="209.91" gradientUnits="userSpaceOnUse">
<stop stop-color="#FAEF5F"/>
<stop offset="1" stop-color="white"/>
</linearGradient>
<linearGradient id="paint51_linear" x1="182.01" y1="174.127" x2="182.009" y2="203.471" gradientUnits="userSpaceOnUse">
<stop stop-color="#FFD13A"/>
<stop offset="0.53" stop-color="#FAEF5F"/>
<stop offset="1" stop-color="#FFD13A"/>
</linearGradient>
<linearGradient id="paint52_linear" x1="182.01" y1="174.451" x2="182.009" y2="203.472" gradientUnits="userSpaceOnUse">
<stop stop-color="#3B3092"/>
<stop offset="0.51" stop-color="#A5DBDB"/>
<stop offset="1" stop-color="#3B3092"/>
</linearGradient>
<linearGradient id="paint53_linear" x1="182.01" y1="172.675" x2="182.009" y2="175.001" gradientUnits="userSpaceOnUse">
<stop stop-color="#23272A"/>
<stop offset="1" stop-color="#B5B8B8"/>
</linearGradient>
<linearGradient id="paint54_linear" x1="182.01" y1="173.048" x2="182.008" y2="174.639" gradientUnits="userSpaceOnUse">
<stop stop-color="#B5B8B8"/>
<stop offset="1" stop-color="white"/>
</linearGradient>
<linearGradient id="paint55_linear" x1="182.012" y1="204.528" x2="182.012" y2="206.431" gradientUnits="userSpaceOnUse">
<stop stop-color="#5C1800"/>
<stop offset="1" stop-color="white"/>
</linearGradient>
<linearGradient id="paint56_linear" x1="182.013" y1="205.501" x2="182.012" y2="201.449" gradientUnits="userSpaceOnUse">
<stop stop-color="#FFF032"/>
<stop offset="1" stop-color="#FAEF5F"/>
</linearGradient>
<linearGradient id="paint57_linear" x1="181.363" y1="204.42" x2="182.708" y2="202.49" gradientUnits="userSpaceOnUse">
<stop stop-color="#FAEF5F"/>
<stop offset="1" stop-color="white"/>
</linearGradient>
<linearGradient id="paint58_linear" x1="182.013" y1="204.735" x2="182.012" y2="202.216" gradientUnits="userSpaceOnUse">
<stop stop-color="#3B3092"/>
<stop offset="1" stop-color="#2B3594"/>
</linearGradient>
<linearGradient id="paint59_linear" x1="181.362" y1="204.066" x2="182.721" y2="202.856" gradientUnits="userSpaceOnUse">
<stop stop-color="#A5DBDB"/>
<stop offset="1" stop-color="white"/>
</linearGradient>
<linearGradient id="paint60_linear" x1="182.013" y1="204.626" x2="182.012" y2="202.348" gradientUnits="userSpaceOnUse">
<stop stop-color="#FAEF5F"/>
<stop offset="1" stop-color="#FDFAD3"/>
</linearGradient>
<radialGradient id="paint61_radial" cx="0" cy="0" r="1" gradientUnits="userSpaceOnUse" gradientTransform="translate(175.63 199.044) rotate(-89.9957) scale(2.97028 1.10288)">
<stop stop-color="#472F92"/>
<stop offset="1" stop-color="#020035"/>
</radialGradient>
<radialGradient id="paint62_radial" cx="0" cy="0" r="1" gradientUnits="userSpaceOnUse" gradientTransform="translate(175.678 199.247) rotate(-89.9999) scale(2.80775 0.70923)">
<stop stop-color="#2B3594"/>
<stop offset="1" stop-color="#3B3092"/>
</radialGradient>
<linearGradient id="paint63_linear" x1="175.629" y1="201.273" x2="175.72" y2="196.406" gradientUnits="userSpaceOnUse">
<stop stop-color="#2B3594"/>
<stop offset="1" stop-color="white"/>
</linearGradient>
<radialGradient id="paint64_radial" cx="0" cy="0" r="1" gradientUnits="userSpaceOnUse" gradientTransform="translate(172.313 199.044) rotate(-89.9957) scale(2.97027 1.10285)">
<stop stop-color="#472F92"/>
<stop offset="1" stop-color="#020035"/>
</radialGradient>
<radialGradient id="paint65_radial" cx="0" cy="0" r="1" gradientUnits="userSpaceOnUse" gradientTransform="translate(172.361 199.247) rotate(-89.9999) scale(2.80776 0.709249)">
<stop stop-color="#2B3594"/>
<stop offset="1" stop-color="#3B3092"/>
</radialGradient>
<linearGradient id="paint66_linear" x1="172.312" y1="201.273" x2="172.403" y2="196.406" gradientUnits="userSpaceOnUse">
<stop stop-color="#2B3594"/>
<stop offset="1" stop-color="white"/>
</linearGradient>
<radialGradient id="paint67_radial" cx="0" cy="0" r="1" gradientUnits="userSpaceOnUse" gradientTransform="translate(168.996 199.044) rotate(-89.9957) scale(2.97028 1.10287)">
<stop stop-color="#472F92"/>
<stop offset="1" stop-color="#020035"/>
</radialGradient>
<radialGradient id="paint68_radial" cx="0" cy="0" r="1" gradientUnits="userSpaceOnUse" gradientTransform="translate(169.045 199.247) rotate(-89.9999) scale(2.80775 0.70923)">
<stop stop-color="#2B3594"/>
<stop offset="1" stop-color="#3B3092"/>
</radialGradient>
<linearGradient id="paint69_linear" x1="168.996" y1="201.273" x2="169.086" y2="196.406" gradientUnits="userSpaceOnUse">
<stop stop-color="#2B3594"/>
<stop offset="1" stop-color="white"/>
</linearGradient>
<linearGradient id="paint70_linear" x1="172.294" y1="192.785" x2="172.293" y2="194.689" gradientUnits="userSpaceOnUse">
<stop stop-color="#5C1800"/>
<stop offset="1" stop-color="white"/>
</linearGradient>
<linearGradient id="paint71_linear" x1="172.295" y1="193.758" x2="172.294" y2="189.706" gradientUnits="userSpaceOnUse">
<stop stop-color="#FFF032"/>
<stop offset="1" stop-color="#FAEF5F"/>
</linearGradient>
<linearGradient id="paint72_linear" x1="171.644" y1="192.677" x2="172.99" y2="190.748" gradientUnits="userSpaceOnUse">
<stop stop-color="#FAEF5F"/>
<stop offset="1" stop-color="white"/>
</linearGradient>
<linearGradient id="paint73_linear" x1="172.295" y1="192.993" x2="172.294" y2="190.473" gradientUnits="userSpaceOnUse">
<stop stop-color="#3B3092"/>
<stop offset="1" stop-color="#2B3594"/>
</linearGradient>
<linearGradient id="paint74_linear" x1="171.644" y1="192.324" x2="173.002" y2="191.114" gradientUnits="userSpaceOnUse">
<stop stop-color="#A5DBDB"/>
<stop offset="1" stop-color="white"/>
</linearGradient>
<linearGradient id="paint75_linear" x1="172.295" y1="192.884" x2="172.294" y2="190.606" gradientUnits="userSpaceOnUse">
<stop stop-color="#FAEF5F"/>
<stop offset="1" stop-color="#FDFAD3"/>
</linearGradient>
<linearGradient id="paint76_linear" x1="161.702" y1="205.845" x2="161.7" y2="210.644" gradientUnits="userSpaceOnUse">
<stop/>
<stop offset="1" stop-color="#212427"/>
</linearGradient>
<linearGradient id="paint77_linear" x1="162.091" y1="206.094" x2="162.089" y2="210.312" gradientUnits="userSpaceOnUse">
<stop stop-color="#212427"/>
<stop offset="1" stop-color="#B8B9B8"/>
</linearGradient>
<radialGradient id="paint78_radial" cx="0" cy="0" r="1" gradientUnits="userSpaceOnUse" gradientTransform="translate(171.206 207.175) scale(2.97022 1.1028)">
<stop stop-color="#472F92"/>
<stop offset="1" stop-color="#020035"/>
</radialGradient>
<radialGradient id="paint79_radial" cx="0" cy="0" r="1" gradientUnits="userSpaceOnUse" gradientTransform="translate(171.409 207.127) scale(2.80764 0.709165)">
<stop stop-color="#2B3594"/>
<stop offset="1" stop-color="#3B3092"/>
</radialGradient>
<linearGradient id="paint80_linear" x1="173.435" y1="207.176" x2="168.567" y2="207.085" gradientUnits="userSpaceOnUse">
<stop stop-color="#2B3594"/>
<stop offset="1" stop-color="white"/>
</linearGradient>
<radialGradient id="paint81_radial" cx="0" cy="0" r="1" gradientUnits="userSpaceOnUse" gradientTransform="translate(171.206 208.834) scale(2.97022 1.10286)">
<stop stop-color="#472F92"/>
<stop offset="1" stop-color="#020035"/>
</radialGradient>
<radialGradient id="paint82_radial" cx="0" cy="0" r="1" gradientUnits="userSpaceOnUse" gradientTransform="translate(171.409 208.786) scale(2.80764 0.709214)">
<stop stop-color="#2B3594"/>
<stop offset="1" stop-color="#3B3092"/>
</radialGradient>
<linearGradient id="paint83_linear" x1="173.435" y1="208.834" x2="168.567" y2="208.744" gradientUnits="userSpaceOnUse">
<stop stop-color="#2B3594"/>
<stop offset="1" stop-color="white"/>
</linearGradient>
<clipPath id="clip0">
<rect width="270" height="370" fill="white"/>
</clipPath>
<clipPath id="clip1">
<rect x="66.7863" y="89.3953" width="136.91" height="173.682" fill="white"/>
</clipPath>
</defs>
</svg>
