<svg width="270" height="370" viewBox="0 0 270 370" fill="none" xmlns="http://www.w3.org/2000/svg">
<g clip-path="url(#clip0)">
<g clip-path="url(#clip1)">
<path fill-rule="evenodd" clip-rule="evenodd" d="M79.3988 132.563C80.9079 132.563 82.417 132.563 83.9399 132.563C83.9399 142.684 83.9399 152.804 83.9399 162.925C82.4308 162.925 80.9217 162.925 79.3988 162.925C79.3988 152.804 79.3988 142.684 79.3988 132.563Z" fill="url(#paint0_linear)"/>
<path fill-rule="evenodd" clip-rule="evenodd" d="M79.3988 131.234H83.9399C84.6736 131.234 85.269 131.829 85.269 132.563V162.925C85.269 163.658 84.6736 164.254 83.9399 164.254H79.3988C78.665 164.254 78.0697 163.658 78.0697 162.925V132.563C78.0697 131.829 78.665 131.234 79.3988 131.234ZM79.3988 132.563C80.9079 132.563 82.4169 132.563 83.9399 132.563C83.9399 142.684 83.9399 152.804 83.9399 162.925C82.4308 162.925 80.9217 162.925 79.3988 162.925C79.3988 152.804 79.3988 142.684 79.3988 132.563Z" fill="black"/>
<path opacity="0.5" fill-rule="evenodd" clip-rule="evenodd" d="M79.3988 132.563C80.9079 132.563 78.9835 132.563 80.4925 132.563C80.4925 142.684 79.7311 162.371 81.9878 162.925C80.4787 162.925 80.9079 162.925 79.3988 162.925C79.3988 152.804 79.3988 142.684 79.3988 132.563Z" fill="url(#paint1_linear)"/>
<path d="M87.8579 181.117C88.0644 181.117 88.2318 171.509 88.2318 159.657C88.2318 147.806 88.0644 138.198 87.8579 138.198C87.6515 138.198 87.4841 147.806 87.4841 159.657C87.4841 171.509 87.6515 181.117 87.8579 181.117Z" fill="url(#paint2_linear)"/>
<path fill-rule="evenodd" clip-rule="evenodd" d="M87.5948 143.141H88.1209C88.8547 143.141 89.45 143.736 89.45 144.47V174.831C89.45 175.565 88.8547 176.16 88.1209 176.16H87.5948C86.8611 176.16 86.2657 175.565 86.2657 174.831V144.47C86.2657 143.736 86.8611 143.141 87.5948 143.141ZM87.5948 144.47C87.7748 144.47 87.941 144.47 88.1209 144.47C88.1209 154.59 88.1209 164.711 88.1209 174.831C87.941 174.831 87.7748 174.831 87.5948 174.831C87.5948 164.711 87.5948 154.59 87.5948 144.47Z" fill="black"/>
<path fill-rule="evenodd" clip-rule="evenodd" d="M81.6693 135.18C82.0708 135.18 82.3892 135.651 82.3892 136.218C82.3892 136.8 82.0708 137.257 81.6693 137.257C81.2678 137.257 80.9493 136.786 80.9493 136.218C80.9493 135.651 81.2678 135.18 81.6693 135.18Z" fill="url(#paint3_radial)"/>
<path fill-rule="evenodd" clip-rule="evenodd" d="M83.4968 135.18C83.7322 135.18 83.926 135.651 83.926 136.218C83.926 136.8 83.7322 137.257 83.4968 137.257C83.2615 137.257 83.0676 136.786 83.0676 136.218C83.0676 135.651 83.2615 135.18 83.4968 135.18Z" fill="url(#paint4_radial)"/>
<path fill-rule="evenodd" clip-rule="evenodd" d="M79.828 135.18C80.0634 135.18 80.2572 135.651 80.2572 136.218C80.2572 136.8 80.0634 137.257 79.828 137.257C79.5926 137.257 79.3988 136.786 79.3988 136.218C79.3988 135.651 79.5926 135.18 79.828 135.18Z" fill="url(#paint5_radial)"/>
<path d="M83.9399 140.967H79.3988V141.341H83.9399V140.967Z" fill="url(#paint6_linear)"/>
<path d="M83.9399 141.964H79.3988V143.057H83.9399V141.964Z" fill="url(#paint7_linear)"/>
<path fill-rule="evenodd" clip-rule="evenodd" d="M116.904 186.738C115.686 186.738 114.467 186.738 113.235 186.738C107.185 186.738 102.243 191.68 102.243 197.73C102.243 201.399 102.243 205.054 102.243 208.723C107.13 208.723 112.017 208.723 116.904 208.723C116.904 201.399 116.904 194.062 116.904 186.738Z" fill="url(#paint8_linear)"/>
<path fill-rule="evenodd" clip-rule="evenodd" d="M116.904 186.738C115.686 186.738 114.467 186.738 113.235 186.738C107.185 186.738 102.242 191.68 102.242 197.73C102.242 201.399 102.242 205.054 102.242 208.723C107.13 208.723 112.017 208.723 116.904 208.723C116.904 201.399 116.904 194.062 116.904 186.738ZM113.249 185.409H116.918C117.652 185.409 118.247 186.004 118.247 186.738V208.723C118.247 209.457 117.652 210.052 116.918 210.052H102.256C101.523 210.052 100.927 209.457 100.927 208.723V197.73C100.927 194.338 102.312 191.251 104.541 189.022C106.77 186.793 109.843 185.409 113.249 185.409Z" fill="black"/>
<path fill-rule="evenodd" clip-rule="evenodd" d="M116.904 190.213V190.573C110.951 190.573 106.091 195.432 106.091 201.385V205.248C106.091 205.345 106.008 205.428 105.911 205.428C105.815 205.428 105.731 205.345 105.731 205.248V201.385C105.731 195.238 110.757 190.213 116.904 190.213Z" fill="#5B1E00"/>
<path opacity="0.5" fill-rule="evenodd" clip-rule="evenodd" d="M116.904 186.738C115.686 186.738 114.467 186.738 113.235 186.738C113.235 199.558 107.739 205.58 102.242 205.58C102.242 206.633 102.242 207.671 102.242 208.723C107.13 208.723 112.017 208.723 116.904 208.723C116.904 201.399 116.904 194.062 116.904 186.738Z" fill="url(#paint9_linear)"/>
<path fill-rule="evenodd" clip-rule="evenodd" d="M78.4296 151.932C82.0984 155.601 85.7534 159.256 89.4223 162.925C89.4223 175.274 89.4223 187.638 89.4223 199.987C90.0314 200.527 90.6406 201.067 91.2498 201.593C91.2498 204.514 91.2498 207.435 91.2498 210.357C99.8058 206.757 108.348 203.144 116.904 199.544C116.904 205.982 116.904 212.406 116.904 218.844C108.348 222.443 99.8058 226.057 91.2498 229.656C91.2498 234.474 91.2498 239.278 91.2498 244.096C90.6406 244.83 90.0314 245.564 89.4223 246.298C89.4223 250.866 89.4223 255.435 89.4223 260.018C89.4223 265.071 78.4296 265.071 78.4296 260.018C78.4296 223.994 78.4296 187.956 78.4296 151.932Z" fill="url(#paint10_linear)"/>
<path fill-rule="evenodd" clip-rule="evenodd" d="M79.371 150.991L90.3637 161.983C90.6268 162.246 90.7514 162.579 90.7514 162.925V199.392L92.1359 200.61C92.4266 200.873 92.5789 201.233 92.5789 201.607V208.377L116.392 198.339C117.07 198.063 117.846 198.367 118.122 199.046C118.192 199.212 118.219 199.392 118.219 199.558V218.857C118.219 219.453 117.832 219.951 117.292 220.117L92.5651 230.542V244.096C92.5651 244.456 92.4128 244.789 92.1774 245.038L90.7376 246.768V260.018C90.7376 262.537 88.8824 264.13 86.5149 264.78C85.6842 265.016 84.7982 265.126 83.9121 265.126C83.0399 265.126 82.14 265.016 81.3093 264.78C78.9419 264.116 77.0867 262.537 77.0867 260.018V151.932C77.0867 151.198 77.682 150.603 78.4158 150.603C78.8034 150.603 79.1357 150.755 79.371 150.991ZM78.4296 151.932C82.0985 155.601 85.7535 159.256 89.4223 162.925C89.4223 175.274 89.4223 187.638 89.4223 199.987C90.0315 200.527 90.6406 201.067 91.2498 201.593C91.2498 204.514 91.2498 207.435 91.2498 210.357C99.8058 206.757 108.348 203.144 116.904 199.544C116.904 205.982 116.904 212.406 116.904 218.844C108.348 222.443 99.8058 226.057 91.2498 229.656C91.2498 234.474 91.2498 239.278 91.2498 244.096C90.6406 244.83 90.0315 245.564 89.4223 246.298C89.4223 250.866 89.4223 255.435 89.4223 260.018C89.4223 265.071 78.4296 265.071 78.4296 260.018C78.4296 223.994 78.4296 187.956 78.4296 151.932Z" fill="black"/>
<path fill-rule="evenodd" clip-rule="evenodd" d="M78.4296 151.932C82.0984 155.601 85.7534 159.256 89.4223 162.925C89.4223 175.274 89.4223 191.306 89.4223 203.656L78.4296 189.008V151.932ZM89.4223 242.643C89.4223 247.211 89.4223 255.449 89.4223 260.018C89.4223 265.071 78.4296 265.071 78.4296 260.018V259.685L89.4223 242.643Z" fill="url(#paint11_linear)"/>
<path opacity="0.5" fill-rule="evenodd" clip-rule="evenodd" d="M80.6863 255.587C80.6863 258.786 79.7171 262.233 82.0984 263.617C80.0771 263.174 78.4296 261.97 78.4296 260.018C78.4296 259.907 78.4296 257.969 78.4296 257.858C79.6617 255.961 79.4541 257.484 80.6863 255.587Z" fill="url(#paint12_linear)"/>
<path opacity="0.5" fill-rule="evenodd" clip-rule="evenodd" d="M78.4296 151.932C79.6479 153.15 80.8662 154.369 82.0984 155.601C78.4296 155.601 79.3295 179.095 79.3295 191.86L78.4296 189.008C78.4296 176.645 78.4296 164.281 78.4296 151.932Z" fill="url(#paint13_linear)"/>
<path opacity="0.5" fill-rule="evenodd" clip-rule="evenodd" d="M85.7673 159.256C86.9857 160.474 88.204 161.693 89.4362 162.925C89.4362 175.274 89.4362 191.306 89.4362 203.656C88.7855 202.784 88.1348 201.925 87.4841 201.053C87.3318 197.564 88.6886 165.666 85.7673 159.256ZM85.7673 263.617C87.8302 261.098 87.2764 251.655 87.2764 246.561C88.4947 244.664 88.204 244.539 89.4223 242.643C89.4223 247.211 89.4223 255.449 89.4223 260.018C89.4223 261.97 87.7887 263.174 85.7673 263.617Z" fill="#373737"/>
<path fill-rule="evenodd" clip-rule="evenodd" d="M78.4296 188.994C82.7076 194.089 86.9856 198.339 91.2498 201.593C91.2498 215.756 91.2498 229.933 91.2498 244.096C86.7502 248.416 82.4584 253.524 78.4296 259.672C78.4296 236.122 78.4296 212.558 78.4296 188.994Z" fill="url(#paint14_linear)"/>
<path opacity="0.5" fill-rule="evenodd" clip-rule="evenodd" d="M78.4296 188.994C79.6479 190.448 80.8662 191.832 82.0984 193.148C78.4296 196.789 80.2709 252.68 82.0984 254.466C80.8524 256.113 79.6341 257.858 78.4296 259.672C78.4296 236.122 78.4296 212.558 78.4296 188.994Z" fill="url(#paint15_linear)"/>
<path opacity="0.5" fill-rule="evenodd" clip-rule="evenodd" d="M85.7673 196.872C87.5948 198.616 89.4362 200.195 91.2637 201.593C91.2637 215.756 91.2637 229.933 91.2637 244.096C89.3946 245.882 87.5671 247.82 85.7673 249.911C87.6225 246.242 88.5501 245.979 88.5224 224.105C88.4809 202.216 87.581 201.828 85.7673 196.872Z" fill="url(#paint16_linear)"/>
<path fill-rule="evenodd" clip-rule="evenodd" d="M91.2637 229.282V229.656C88.1348 229.144 85.2551 229.019 82.0985 229.019C79.8418 229.019 78.6235 252.888 78.6235 255.587C78.6235 255.684 78.5404 256.293 78.4435 256.293C78.3466 256.293 78.2635 255.684 78.2635 255.587C78.2635 252.68 79.3573 228.646 82.1124 228.646C85.269 228.659 88.1071 228.77 91.2637 229.282Z" fill="#5B1E00"/>
<path fill-rule="evenodd" clip-rule="evenodd" d="M91.2637 219.037V218.663C88.1348 219.176 85.2551 219.3 82.0985 219.3C79.8418 219.3 78.6235 195.432 78.6235 192.732C78.6235 192.635 78.5404 192.026 78.4435 192.026C78.3466 192.026 78.2635 192.635 78.2635 192.732C78.2635 195.64 79.3573 219.674 82.1124 219.674C85.269 219.66 88.1071 219.55 91.2637 219.037Z" fill="#5B1E00"/>
<path fill-rule="evenodd" clip-rule="evenodd" d="M83.9675 208.225C83.9675 207.92 84.2167 207.671 84.5213 207.671C84.8259 207.671 85.0751 207.92 85.0751 208.225V237.534C85.0751 237.839 84.8259 238.088 84.5213 238.088C84.2167 238.088 83.9675 237.839 83.9675 237.534V208.225Z" fill="#5B1E00"/>
<path fill-rule="evenodd" clip-rule="evenodd" d="M84.1476 208.225C84.1476 208.017 84.3137 207.865 84.5075 207.865C84.7152 207.865 84.8675 208.031 84.8675 208.225V237.534C84.8675 237.742 84.7014 237.894 84.5075 237.894C84.2999 237.894 84.1476 237.728 84.1476 237.534V208.225Z" fill="url(#paint17_linear)"/>
<path fill-rule="evenodd" clip-rule="evenodd" d="M84.3414 208.225C84.3414 208.128 84.4245 208.045 84.5214 208.045C84.6183 208.045 84.7014 208.128 84.7014 208.225V237.534C84.7014 237.631 84.6183 237.714 84.5214 237.714C84.4245 237.714 84.3414 237.631 84.3414 237.534V208.225Z" fill="url(#paint18_linear)"/>
<path opacity="0.5" fill-rule="evenodd" clip-rule="evenodd" d="M84.5213 234.364C82.3615 234.364 80.6171 236.108 80.6171 238.268C80.6171 240.428 82.3615 242.172 84.5213 242.172C86.681 242.172 88.4255 240.428 88.4255 238.268C88.4255 236.108 86.6672 234.364 84.5213 234.364Z" fill="url(#paint19_linear)"/>
<path fill-rule="evenodd" clip-rule="evenodd" d="M84.5213 233.644C82.3615 233.644 80.6171 235.388 80.6171 237.548C80.6171 239.708 82.3615 241.452 84.5213 241.452C86.681 241.452 88.4255 239.708 88.4255 237.548C88.4255 235.388 86.6672 233.644 84.5213 233.644Z" fill="#5B1E00"/>
<path fill-rule="evenodd" clip-rule="evenodd" d="M84.5214 234.004C82.5693 234.004 80.991 235.582 80.991 237.534C80.991 239.486 82.5693 241.064 84.5214 241.064C86.4735 241.064 88.0518 239.486 88.0518 237.534C88.0518 235.582 86.4735 234.004 84.5214 234.004Z" fill="url(#paint20_linear)"/>
<path fill-rule="evenodd" clip-rule="evenodd" d="M84.5212 234.779C82.9983 234.779 81.7661 236.011 81.7661 237.534C81.7661 239.057 82.9983 240.289 84.5212 240.289C86.0441 240.289 87.2763 239.057 87.2763 237.534C87.2763 236.011 86.0441 234.779 84.5212 234.779Z" fill="url(#paint21_linear)"/>
<path opacity="0.5" fill-rule="evenodd" clip-rule="evenodd" d="M84.5212 234.779C84.6874 236.26 83.206 238.295 81.7661 237.534C81.7661 239.057 82.9983 240.289 84.5212 240.289C84.092 238.475 85.9888 236.648 87.2763 237.534C87.2763 236.011 86.0441 234.779 84.5212 234.779Z" fill="url(#paint22_linear)"/>
<path fill-rule="evenodd" clip-rule="evenodd" d="M84.5213 234.987C83.1091 234.987 81.9739 236.136 81.9739 237.534C81.9739 238.932 83.123 240.081 84.5213 240.081C85.9335 240.081 87.0687 238.932 87.0687 237.534C87.0687 236.136 85.9335 234.987 84.5213 234.987Z" fill="url(#paint23_linear)"/>
<path fill-rule="evenodd" clip-rule="evenodd" d="M84.5213 235.817C83.5799 235.817 82.8046 236.592 82.8046 237.534C82.8046 238.489 83.5799 239.251 84.5213 239.251C85.4766 239.251 86.2381 238.475 86.2381 237.534C86.2381 236.592 85.4628 235.817 84.5213 235.817Z" fill="url(#paint24_linear)"/>
<path fill-rule="evenodd" clip-rule="evenodd" d="M84.5212 236.08C83.7182 236.08 83.0675 236.731 83.0675 237.534C83.0675 238.337 83.7182 238.988 84.5212 238.988C85.3242 238.988 85.9749 238.337 85.9749 237.534C85.9749 236.731 85.3242 236.08 84.5212 236.08Z" fill="url(#paint25_linear)"/>
<path fill-rule="evenodd" clip-rule="evenodd" d="M84.5212 204.68C86.4733 204.68 88.0654 206.272 88.0654 208.225C88.0654 210.177 86.4733 211.769 84.5212 211.769C82.5691 211.769 80.9769 210.177 80.9769 208.225C80.9769 206.272 82.5691 204.68 84.5212 204.68Z" fill="#5B1E00"/>
<path fill-rule="evenodd" clip-rule="evenodd" d="M84.5211 205.04C86.2794 205.04 87.7193 206.466 87.7193 208.238C87.7193 209.997 86.2932 211.437 84.5211 211.437C82.7628 211.437 81.323 210.011 81.323 208.238C81.323 206.466 82.7628 205.04 84.5211 205.04Z" fill="url(#paint26_linear)"/>
<path opacity="0.5" fill-rule="evenodd" clip-rule="evenodd" d="M84.5211 205.04C82.4029 207.325 86.4178 212.433 87.7193 208.238C87.7193 209.997 86.2932 211.437 84.5211 211.437C84.7426 207.103 82.2644 205.982 81.323 208.238C81.323 206.466 82.7628 205.04 84.5211 205.04Z" fill="url(#paint27_linear)"/>
<path fill-rule="evenodd" clip-rule="evenodd" d="M84.5213 206.134C85.6842 206.134 86.6257 207.075 86.6257 208.238C86.6257 209.401 85.6842 210.343 84.5213 210.343C83.3583 210.343 82.4169 209.401 82.4169 208.238C82.4169 207.075 83.3583 206.134 84.5213 206.134Z" fill="url(#paint28_linear)"/>
<path opacity="0.5" fill-rule="evenodd" clip-rule="evenodd" d="M84.5213 206.134C83.206 208.197 85.0474 209.291 86.6257 208.238C86.6257 209.401 85.6842 210.343 84.5213 210.343C86.9856 209.872 83.5383 207.325 82.4169 208.238C82.4169 207.075 83.3583 206.134 84.5213 206.134Z" fill="url(#paint29_linear)"/>
<path fill-rule="evenodd" clip-rule="evenodd" d="M84.5212 206.452C85.5042 206.452 86.3072 207.255 86.3072 208.238C86.3072 209.221 85.5042 210.024 84.5212 210.024C83.5382 210.024 82.7352 209.221 82.7352 208.238C82.7352 207.242 83.5382 206.452 84.5212 206.452Z" fill="url(#paint30_linear)"/>
<path fill-rule="evenodd" clip-rule="evenodd" d="M99.972 217.265L116.904 210.509V219.12L99.972 225.987V217.265Z" fill="url(#paint31_linear)"/>
<path fill-rule="evenodd" clip-rule="evenodd" d="M99.972 224.603L116.904 217.847V219.12L99.972 225.987V224.603Z" fill="url(#paint32_linear)"/>
<path fill-rule="evenodd" clip-rule="evenodd" d="M116.904 210.301V210.703L100.152 217.39V225.904L99.7782 226.057V217.251C99.7782 217.182 99.8197 217.113 99.889 217.085L116.904 210.301Z" fill="#FFFF61"/>
<path fill-rule="evenodd" clip-rule="evenodd" d="M116.904 212.669V214.676L102.589 220.546C102.118 220.74 101.592 220.519 101.398 220.048C101.204 219.577 101.426 219.051 101.896 218.857L116.904 212.669Z" fill="url(#paint33_linear)"/>
<path fill-rule="evenodd" clip-rule="evenodd" d="M116.904 213.084V214.289L102.45 220.214C102.173 220.325 101.855 220.2 101.73 219.91C101.619 219.633 101.744 219.314 102.035 219.19L116.904 213.084Z" fill="url(#paint34_linear)"/>
<path fill-rule="evenodd" clip-rule="evenodd" d="M102.962 224.783L101.869 225.226V222.983C101.869 222.679 102.118 222.429 102.422 222.429C102.727 222.429 102.976 222.679 102.976 222.983V224.783H102.962Z" fill="url(#paint35_linear)"/>
<path fill-rule="evenodd" clip-rule="evenodd" d="M102.588 224.921L102.229 225.074V222.983C102.229 222.886 102.312 222.803 102.408 222.803C102.505 222.803 102.588 222.886 102.588 222.983V224.921Z" fill="black"/>
<path fill-rule="evenodd" clip-rule="evenodd" d="M105.884 223.592L104.79 224.035V221.792C104.79 221.488 105.039 221.239 105.344 221.239C105.648 221.239 105.897 221.488 105.897 221.792V223.592H105.884Z" fill="url(#paint36_linear)"/>
<path fill-rule="evenodd" clip-rule="evenodd" d="M105.51 223.745L105.15 223.897V221.806C105.15 221.709 105.233 221.626 105.33 221.626C105.427 221.626 105.51 221.709 105.51 221.806V223.745Z" fill="black"/>
<path fill-rule="evenodd" clip-rule="evenodd" d="M108.791 222.402L107.697 222.845V220.602C107.697 220.297 107.947 220.048 108.251 220.048C108.556 220.048 108.805 220.297 108.805 220.602V222.402H108.791Z" fill="url(#paint37_linear)"/>
<path fill-rule="evenodd" clip-rule="evenodd" d="M108.431 222.554L108.071 222.706V220.616C108.071 220.519 108.154 220.436 108.251 220.436C108.348 220.436 108.431 220.519 108.431 220.616V222.554Z" fill="black"/>
<path fill-rule="evenodd" clip-rule="evenodd" d="M85.3381 158.84L89.4223 162.925V192.192L85.3381 187.721V158.84Z" fill="url(#paint38_linear)"/>
<path fill-rule="evenodd" clip-rule="evenodd" d="M89.4223 191.957V192.414L85.2135 187.831C85.1858 187.804 85.172 187.762 85.172 187.721V158.647L85.5043 158.993V187.651L89.4223 191.957Z" fill="#373737"/>
<path fill-rule="evenodd" clip-rule="evenodd" d="M89.4223 196.304V196.761L80.7832 187.084C80.7555 187.056 80.7417 187.014 80.7417 186.973V154.23L81.074 154.563V186.904L89.4223 196.304Z" fill="#373737"/>
<path fill-rule="evenodd" clip-rule="evenodd" d="M83.6214 254.148H84.1337C84.9782 254.148 85.6566 254.826 85.6566 255.67V261.25C85.6566 262.081 84.9782 262.773 84.1337 262.773H83.6214C82.7769 262.773 82.0985 262.094 82.0985 261.25V255.67C82.0985 254.826 82.7769 254.148 83.6214 254.148Z" fill="#353535"/>
<path fill-rule="evenodd" clip-rule="evenodd" d="M83.566 254.424H84.1752C84.8397 254.424 85.3935 254.909 85.3935 255.504V261.416C85.3935 262.011 84.8535 262.496 84.1752 262.496H83.566C82.9014 262.496 82.3477 262.011 82.3477 261.416V255.504C82.3477 254.909 82.9014 254.424 83.566 254.424Z" fill="url(#paint39_linear)"/>
<path fill-rule="evenodd" clip-rule="evenodd" d="M83.6352 254.84H84.1059C84.632 254.84 85.0612 255.214 85.0612 255.684V261.195C85.0612 261.651 84.632 262.039 84.1059 262.039H83.6352C83.1091 262.039 82.6799 261.665 82.6799 261.195V255.684C82.6799 255.227 83.1091 254.84 83.6352 254.84Z" fill="url(#paint40_radial)"/>
<path opacity="0.5" fill-rule="evenodd" clip-rule="evenodd" d="M83.566 254.424C83.7737 254.424 83.9675 254.424 84.1752 254.424C83.5383 255.214 84.2998 262.025 85.3935 261.416C85.3935 262.011 84.8535 262.496 84.1752 262.496C83.9675 262.496 83.7737 262.496 83.566 262.496C84.7013 257.193 82.6799 255.698 82.3477 255.504C82.3477 254.909 82.9014 254.424 83.566 254.424Z" fill="url(#paint41_linear)"/>
<path fill-rule="evenodd" clip-rule="evenodd" d="M116.904 203.877V204.279L100.36 211.353L100.027 215.05C100.027 215.119 99.9719 215.175 99.9165 215.202L91.2498 218.927V218.525L99.6673 214.912L99.9996 211.215C99.9996 211.146 100.041 211.077 100.11 211.049L116.904 203.877Z" fill="#5B1E00"/>
<path opacity="0.5" fill-rule="evenodd" clip-rule="evenodd" d="M107.324 191.182C105.067 191.182 103.239 193.009 103.239 195.266C103.239 197.523 105.067 199.35 107.324 199.35C109.58 199.35 111.408 197.523 111.408 195.266C111.422 193.009 109.58 191.182 107.324 191.182Z" fill="url(#paint42_linear)"/>
<path fill-rule="evenodd" clip-rule="evenodd" d="M107.324 190.406C105.067 190.406 103.239 192.234 103.239 194.491C103.239 196.747 105.067 198.575 107.324 198.575C109.58 198.575 111.408 196.747 111.408 194.491C111.422 192.248 109.58 190.406 107.324 190.406Z" fill="#5B1E00"/>
<path fill-rule="evenodd" clip-rule="evenodd" d="M107.324 190.711C105.233 190.711 103.544 192.4 103.544 194.491C103.544 196.581 105.233 198.27 107.324 198.27C109.414 198.27 111.103 196.581 111.103 194.491C111.117 192.414 109.414 190.711 107.324 190.711Z" fill="url(#paint43_linear)"/>
<path fill-rule="evenodd" clip-rule="evenodd" d="M107.323 191.611C105.731 191.611 104.43 192.912 104.43 194.505C104.43 196.097 105.731 197.398 107.323 197.398C108.916 197.398 110.217 196.11 110.217 194.505C110.217 192.912 108.929 191.611 107.323 191.611Z" fill="url(#paint44_linear)"/>
<path opacity="0.5" fill-rule="evenodd" clip-rule="evenodd" d="M107.323 191.611C107.503 193.162 105.939 195.294 104.43 194.505C104.43 196.097 105.731 197.398 107.323 197.398C106.88 195.487 108.86 193.577 110.217 194.505C110.217 192.912 108.929 191.611 107.323 191.611Z" fill="url(#paint45_linear)"/>
<path fill-rule="evenodd" clip-rule="evenodd" d="M107.324 191.833C105.842 191.833 104.652 193.037 104.652 194.505C104.652 195.986 105.856 197.177 107.324 197.177C108.805 197.177 109.996 195.972 109.996 194.505C110.01 193.023 108.805 191.833 107.324 191.833Z" fill="url(#paint46_linear)"/>
<path d="M107.323 196.304C108.318 196.304 109.123 195.499 109.123 194.505C109.123 193.511 108.318 192.705 107.323 192.705C106.329 192.705 105.524 193.511 105.524 194.505C105.524 195.499 106.329 196.304 107.323 196.304Z" fill="url(#paint47_linear)"/>
<path fill-rule="evenodd" clip-rule="evenodd" d="M107.324 192.982C106.479 192.982 105.801 193.66 105.801 194.504C105.801 195.349 106.479 196.027 107.324 196.027C108.168 196.027 108.847 195.349 108.847 194.504C108.86 193.66 108.168 192.982 107.324 192.982Z" fill="url(#paint48_linear)"/>
<path opacity="0.5" fill-rule="evenodd" clip-rule="evenodd" d="M85.5042 186.378C89.4223 186.433 88.1209 170.747 89.4223 162.925C89.4223 175.274 89.4223 187.637 89.4223 199.987C90.0315 200.527 90.6406 201.067 91.2498 201.593C91.2498 204.514 91.2498 214.469 91.2498 217.404C94.9187 223.371 114.066 211.437 116.904 199.558C116.904 205.996 116.904 212.42 116.904 218.857C108.348 222.457 99.8058 226.07 91.2498 229.67C91.2498 234.488 91.2498 239.292 91.2498 244.11C90.6406 244.844 90.0315 245.578 89.4223 246.311C89.4223 250.88 89.4223 255.449 89.4223 260.032C89.4223 265.085 77.945 265.071 78.4296 260.032C89.4223 257.636 90.4883 226.721 85.5042 186.378Z" fill="url(#paint49_linear)"/>
<path fill-rule="evenodd" clip-rule="evenodd" d="M191.07 132.563C189.561 132.563 188.052 132.563 186.529 132.563C186.529 142.684 186.529 152.804 186.529 162.925C188.038 162.925 189.547 162.925 191.07 162.925C191.07 152.804 191.07 142.684 191.07 132.563Z" fill="url(#paint50_linear)"/>
<path fill-rule="evenodd" clip-rule="evenodd" d="M191.07 132.563C189.561 132.563 188.052 132.563 186.529 132.563C186.529 142.684 186.529 152.804 186.529 162.925C188.038 162.925 189.547 162.925 191.07 162.925C191.07 152.804 191.07 142.684 191.07 132.563ZM186.529 131.234H191.07C191.804 131.234 192.399 131.829 192.399 132.563V162.925C192.399 163.658 191.804 164.254 191.07 164.254H186.529C185.795 164.254 185.2 163.658 185.2 162.925V132.563C185.2 131.829 185.795 131.234 186.529 131.234Z" fill="black"/>
<path opacity="0.5" fill-rule="evenodd" clip-rule="evenodd" d="M191.07 132.563C189.561 132.563 191.485 132.563 189.976 132.563C189.976 142.684 190.738 162.371 188.481 162.925C189.99 162.925 189.561 162.925 191.07 162.925C191.07 152.804 191.07 142.684 191.07 132.563Z" fill="url(#paint51_linear)"/>
<path fill-rule="evenodd" clip-rule="evenodd" d="M182.86 144.47C182.68 144.47 182.514 144.47 182.334 144.47C182.334 154.59 182.334 164.711 182.334 174.831C182.514 174.831 182.68 174.831 182.86 174.831C182.86 164.711 182.86 154.59 182.86 144.47Z" fill="url(#paint52_linear)"/>
<path fill-rule="evenodd" clip-rule="evenodd" d="M182.334 143.141H182.86C183.594 143.141 184.189 143.736 184.189 144.47V174.831C184.189 175.565 183.594 176.16 182.86 176.16H182.334C181.6 176.16 181.005 175.565 181.005 174.831V144.47C181.019 143.736 181.6 143.141 182.334 143.141ZM182.86 144.47C182.68 144.47 182.514 144.47 182.334 144.47C182.334 154.59 182.334 164.711 182.334 174.831C182.514 174.831 182.68 174.831 182.86 174.831C182.86 164.711 182.86 154.59 182.86 144.47Z" fill="black"/>
<path fill-rule="evenodd" clip-rule="evenodd" d="M188.8 135.18C188.398 135.18 188.08 135.651 188.08 136.218C188.08 136.8 188.398 137.257 188.8 137.257C189.201 137.257 189.52 136.786 189.52 136.218C189.506 135.651 189.187 135.18 188.8 135.18Z" fill="url(#paint53_radial)"/>
<path fill-rule="evenodd" clip-rule="evenodd" d="M186.958 135.18C186.723 135.18 186.529 135.651 186.529 136.218C186.529 136.8 186.723 137.257 186.958 137.257C187.194 137.257 187.388 136.786 187.388 136.218C187.401 135.651 187.208 135.18 186.958 135.18Z" fill="url(#paint54_radial)"/>
<path fill-rule="evenodd" clip-rule="evenodd" d="M190.627 135.18C190.392 135.18 190.198 135.651 190.198 136.218C190.198 136.8 190.392 137.257 190.627 137.257C190.863 137.257 191.056 136.786 191.056 136.218C191.07 135.651 190.863 135.18 190.627 135.18Z" fill="url(#paint55_radial)"/>
<path d="M191.07 140.967H186.529V141.341H191.07V140.967Z" fill="url(#paint56_linear)"/>
<path d="M191.07 141.964H186.529V143.057H191.07V141.964Z" fill="url(#paint57_linear)"/>
<path fill-rule="evenodd" clip-rule="evenodd" d="M153.551 186.738C154.769 186.738 155.988 186.738 157.22 186.738C163.27 186.738 168.213 191.68 168.213 197.73C168.213 201.399 168.213 205.054 168.213 208.723C163.326 208.723 158.438 208.723 153.551 208.723C153.551 201.399 153.551 194.062 153.551 186.738Z" fill="url(#paint58_linear)"/>
<path fill-rule="evenodd" clip-rule="evenodd" d="M153.551 185.409H157.22C160.612 185.409 163.699 186.793 165.928 189.022C168.157 191.251 169.542 194.338 169.542 197.73V208.723C169.542 209.457 168.946 210.052 168.213 210.052H153.551C152.817 210.052 152.222 209.457 152.222 208.723V186.738C152.222 186.004 152.817 185.409 153.551 185.409ZM153.551 186.738C154.769 186.738 155.988 186.738 157.22 186.738C163.27 186.738 168.213 191.68 168.213 197.73C168.213 201.399 168.213 205.054 168.213 208.723C163.325 208.723 158.438 208.723 153.551 208.723C153.551 201.399 153.551 194.062 153.551 186.738Z" fill="black"/>
<path fill-rule="evenodd" clip-rule="evenodd" d="M153.551 190.213V190.573C159.504 190.573 164.364 195.432 164.364 201.385V205.248C164.364 205.345 164.447 205.428 164.544 205.428C164.641 205.428 164.724 205.345 164.724 205.248V201.385C164.724 195.238 159.712 190.213 153.551 190.213Z" fill="#5B1E00"/>
<path opacity="0.5" fill-rule="evenodd" clip-rule="evenodd" d="M153.551 186.738C154.769 186.738 155.988 186.738 157.22 186.738C157.22 199.558 162.716 205.58 168.213 205.58C168.213 206.633 168.213 207.671 168.213 208.723C163.326 208.723 158.438 208.723 153.551 208.723C153.551 201.399 153.551 194.062 153.551 186.738Z" fill="url(#paint59_linear)"/>
<path fill-rule="evenodd" clip-rule="evenodd" d="M192.026 151.932C188.357 155.601 184.702 159.256 181.033 162.925C181.033 175.274 181.033 187.638 181.033 199.987C180.424 200.527 179.815 201.067 179.205 201.593C179.205 204.514 179.205 207.435 179.205 210.357C170.649 206.757 162.107 203.144 153.551 199.544C153.551 205.982 153.551 212.406 153.551 218.844C162.107 222.443 170.649 226.057 179.205 229.656C179.205 234.474 179.205 239.278 179.205 244.096C179.815 244.83 180.424 245.564 181.033 246.298C181.033 250.866 181.033 255.435 181.033 260.018C181.033 265.071 192.026 265.071 192.026 260.018C192.026 223.994 192.026 187.956 192.026 151.932Z" fill="url(#paint60_linear)"/>
<path fill-rule="evenodd" clip-rule="evenodd" d="M192.026 151.932C188.357 155.601 184.702 159.256 181.033 162.925C181.033 175.274 181.033 187.638 181.033 199.987C180.424 200.527 179.814 201.067 179.205 201.593C179.205 204.514 179.205 207.435 179.205 210.357C170.649 206.757 162.107 203.144 153.551 199.544C153.551 205.982 153.551 212.406 153.551 218.844C162.107 222.443 170.649 226.057 179.205 229.656C179.205 234.474 179.205 239.278 179.205 244.096C179.814 244.83 180.424 245.564 181.033 246.298C181.033 250.866 181.033 255.435 181.033 260.018C181.033 265.071 192.026 265.071 192.026 260.018C192.026 223.994 192.026 187.956 192.026 151.932ZM180.091 161.983L191.084 150.991C191.319 150.755 191.652 150.603 192.026 150.603C192.759 150.603 193.355 151.198 193.355 151.932V260.018C193.355 262.537 191.499 264.13 189.132 264.78C188.301 265.016 187.415 265.126 186.529 265.126C185.657 265.126 184.757 265.016 183.926 264.78C181.559 264.116 179.704 262.537 179.704 260.018V246.768L178.264 245.038C178.028 244.802 177.876 244.47 177.876 244.096V230.542L153.15 220.117C152.61 219.951 152.222 219.439 152.222 218.857V199.558C152.222 199.392 152.25 199.212 152.319 199.046C152.596 198.367 153.371 198.063 154.049 198.339L177.862 208.377V201.607C177.862 201.233 178.015 200.873 178.305 200.61L179.69 199.392V162.925C179.704 162.579 179.842 162.246 180.091 161.983Z" fill="black"/>
<path fill-rule="evenodd" clip-rule="evenodd" d="M192.026 151.932C188.357 155.601 184.702 159.256 181.033 162.925C181.033 175.274 181.033 191.306 181.033 203.656L192.026 189.008V151.932ZM181.033 242.643C181.033 247.211 181.033 255.449 181.033 260.018C181.033 265.071 192.026 265.071 192.026 260.018V259.685L181.033 242.643Z" fill="url(#paint61_linear)"/>
<path opacity="0.5" fill-rule="evenodd" clip-rule="evenodd" d="M189.783 255.587C189.783 258.786 190.752 262.233 188.37 263.617C190.392 263.174 192.039 261.97 192.039 260.018C192.039 259.907 192.039 257.969 192.039 257.858C190.807 255.961 191.001 257.484 189.783 255.587Z" fill="url(#paint62_linear)"/>
<path opacity="0.5" fill-rule="evenodd" clip-rule="evenodd" d="M192.025 151.932C190.807 153.15 189.589 154.369 188.357 155.601C192.025 155.601 191.126 179.095 191.126 191.86L192.025 189.008C192.025 176.645 192.025 164.281 192.025 151.932Z" fill="url(#paint63_linear)"/>
<path opacity="0.5" fill-rule="evenodd" clip-rule="evenodd" d="M184.702 159.256C183.483 160.474 182.265 161.693 181.033 162.925C181.033 175.274 181.033 191.306 181.033 203.656C181.684 202.784 182.334 201.925 182.985 201.053C183.123 197.564 181.78 165.666 184.702 159.256ZM184.702 263.617C182.639 261.098 183.193 251.655 183.193 246.561C181.974 244.664 182.265 244.539 181.047 242.643C181.047 247.211 181.047 255.449 181.047 260.018C181.033 261.97 182.68 263.174 184.702 263.617Z" fill="#373737"/>
<path fill-rule="evenodd" clip-rule="evenodd" d="M192.025 188.994C187.747 194.089 183.469 198.339 179.205 201.593C179.205 215.756 179.205 229.933 179.205 244.096C183.705 248.416 187.997 253.524 192.025 259.672C192.025 236.122 192.025 212.558 192.025 188.994Z" fill="url(#paint64_linear)"/>
<path opacity="0.5" fill-rule="evenodd" clip-rule="evenodd" d="M192.025 188.994C190.807 190.448 189.589 191.832 188.357 193.148C192.025 196.789 190.184 252.68 188.357 254.466C189.603 256.113 190.821 257.858 192.025 259.672C192.025 236.122 192.025 212.558 192.025 188.994Z" fill="url(#paint65_linear)"/>
<path opacity="0.5" fill-rule="evenodd" clip-rule="evenodd" d="M184.702 196.872C182.874 198.616 181.033 200.195 179.205 201.593C179.205 215.756 179.205 229.933 179.205 244.096C181.074 245.882 182.902 247.82 184.702 249.911C182.846 246.242 181.919 245.979 181.96 224.105C181.988 202.216 182.888 201.828 184.702 196.872Z" fill="url(#paint66_linear)"/>
<path fill-rule="evenodd" clip-rule="evenodd" d="M179.205 229.282V229.656C182.334 229.144 185.214 229.019 188.37 229.019C190.627 229.019 191.845 252.888 191.845 255.587C191.845 255.684 191.928 256.293 192.025 256.293C192.122 256.293 192.205 255.684 192.205 255.587C192.205 252.68 191.112 228.646 188.357 228.646C185.186 228.659 182.348 228.77 179.205 229.282Z" fill="#5B1E00"/>
<path fill-rule="evenodd" clip-rule="evenodd" d="M179.205 219.037V218.663C182.334 219.176 185.214 219.3 188.37 219.3C190.627 219.3 191.845 195.432 191.845 192.732C191.845 192.635 191.928 192.026 192.025 192.026C192.122 192.026 192.205 192.635 192.205 192.732C192.205 195.64 191.112 219.674 188.357 219.674C185.186 219.66 182.348 219.55 179.205 219.037Z" fill="#5B1E00"/>
<path fill-rule="evenodd" clip-rule="evenodd" d="M186.488 208.225C186.488 207.92 186.238 207.671 185.934 207.671C185.629 207.671 185.38 207.92 185.38 208.225V237.534C185.38 237.839 185.629 238.088 185.934 238.088C186.238 238.088 186.488 237.839 186.488 237.534V208.225Z" fill="#5B1E00"/>
<path fill-rule="evenodd" clip-rule="evenodd" d="M186.308 208.225C186.308 208.017 186.141 207.865 185.948 207.865C185.74 207.865 185.588 208.031 185.588 208.225V237.534C185.588 237.742 185.754 237.894 185.948 237.894C186.155 237.894 186.308 237.728 186.308 237.534V208.225Z" fill="url(#paint67_linear)"/>
<path fill-rule="evenodd" clip-rule="evenodd" d="M186.128 208.225C186.128 208.128 186.045 208.045 185.948 208.045C185.851 208.045 185.768 208.128 185.768 208.225V237.534C185.768 237.631 185.851 237.714 185.948 237.714C186.045 237.714 186.128 237.631 186.128 237.534V208.225Z" fill="url(#paint68_linear)"/>
<path opacity="0.5" fill-rule="evenodd" clip-rule="evenodd" d="M185.948 234.364C188.107 234.364 189.852 236.108 189.852 238.268C189.852 240.428 188.107 242.172 185.948 242.172C183.788 242.172 182.043 240.428 182.043 238.268C182.043 236.108 183.788 234.364 185.948 234.364Z" fill="url(#paint69_linear)"/>
<path fill-rule="evenodd" clip-rule="evenodd" d="M185.948 233.644C188.107 233.644 189.852 235.388 189.852 237.548C189.852 239.708 188.107 241.452 185.948 241.452C183.788 241.452 182.043 239.708 182.043 237.548C182.043 235.388 183.788 233.644 185.948 233.644Z" fill="#5B1E00"/>
<path fill-rule="evenodd" clip-rule="evenodd" d="M185.948 234.004C187.9 234.004 189.478 235.582 189.478 237.534C189.478 239.486 187.9 241.064 185.948 241.064C183.996 241.064 182.417 239.486 182.417 237.534C182.417 235.582 183.996 234.004 185.948 234.004Z" fill="url(#paint70_linear)"/>
<path fill-rule="evenodd" clip-rule="evenodd" d="M185.948 234.779C187.471 234.779 188.703 236.011 188.703 237.534C188.703 239.057 187.471 240.289 185.948 240.289C184.425 240.289 183.192 239.057 183.192 237.534C183.179 236.011 184.425 234.779 185.948 234.779Z" fill="url(#paint71_linear)"/>
<path opacity="0.5" fill-rule="evenodd" clip-rule="evenodd" d="M185.948 234.779C185.781 236.26 187.263 238.295 188.703 237.534C188.703 239.057 187.471 240.289 185.948 240.289C186.377 238.475 184.48 236.648 183.192 237.534C183.179 236.011 184.425 234.779 185.948 234.779Z" fill="url(#paint72_linear)"/>
<path fill-rule="evenodd" clip-rule="evenodd" d="M185.947 234.987C187.36 234.987 188.495 236.136 188.495 237.534C188.495 238.932 187.346 240.081 185.947 240.081C184.535 240.081 183.4 238.932 183.4 237.534C183.4 236.136 184.535 234.987 185.947 234.987Z" fill="url(#paint73_linear)"/>
<path fill-rule="evenodd" clip-rule="evenodd" d="M185.948 235.817C186.889 235.817 187.664 236.592 187.664 237.534C187.664 238.489 186.889 239.251 185.948 239.251C184.992 239.251 184.231 238.475 184.231 237.534C184.217 236.592 184.992 235.817 185.948 235.817Z" fill="url(#paint74_linear)"/>
<path fill-rule="evenodd" clip-rule="evenodd" d="M185.948 236.08C186.751 236.08 187.401 236.731 187.401 237.534C187.401 238.337 186.751 238.988 185.948 238.988C185.145 238.988 184.494 238.337 184.494 237.534C184.48 236.731 185.131 236.08 185.948 236.08Z" fill="url(#paint75_linear)"/>
<path fill-rule="evenodd" clip-rule="evenodd" d="M185.948 204.68C183.995 204.68 182.403 206.272 182.403 208.225C182.403 210.177 183.995 211.769 185.948 211.769C187.9 211.769 189.492 210.177 189.492 208.225C189.492 206.272 187.9 204.68 185.948 204.68Z" fill="#5B1E00"/>
<path fill-rule="evenodd" clip-rule="evenodd" d="M185.948 205.04C184.189 205.04 182.749 206.466 182.749 208.238C182.749 209.997 184.175 211.437 185.948 211.437C187.706 211.437 189.146 210.011 189.146 208.238C189.132 206.466 187.706 205.04 185.948 205.04Z" fill="url(#paint76_linear)"/>
<path opacity="0.5" fill-rule="evenodd" clip-rule="evenodd" d="M185.948 205.04C188.066 207.325 184.051 212.433 182.749 208.238C182.749 209.997 184.175 211.437 185.948 211.437C185.726 207.103 188.204 205.982 189.146 208.238C189.132 206.466 187.706 205.04 185.948 205.04Z" fill="url(#paint77_linear)"/>
<path fill-rule="evenodd" clip-rule="evenodd" d="M185.948 206.134C184.785 206.134 183.843 207.075 183.843 208.238C183.843 209.401 184.785 210.343 185.948 210.343C187.11 210.343 188.052 209.401 188.052 208.238C188.038 207.075 187.097 206.134 185.948 206.134Z" fill="url(#paint78_linear)"/>
<path opacity="0.5" fill-rule="evenodd" clip-rule="evenodd" d="M185.948 206.134C187.263 208.197 185.421 209.291 183.843 208.238C183.843 209.401 184.785 210.343 185.948 210.343C183.483 209.872 186.93 207.325 188.052 208.238C188.038 207.075 187.097 206.134 185.948 206.134Z" fill="url(#paint79_linear)"/>
<path fill-rule="evenodd" clip-rule="evenodd" d="M185.948 206.452C184.965 206.452 184.162 207.255 184.162 208.238C184.162 209.221 184.965 210.024 185.948 210.024C186.931 210.024 187.734 209.221 187.734 208.238C187.72 207.242 186.931 206.452 185.948 206.452Z" fill="url(#paint80_linear)"/>
<path fill-rule="evenodd" clip-rule="evenodd" d="M170.483 217.265L153.551 210.509V219.12L170.483 225.987V217.265Z" fill="url(#paint81_linear)"/>
<path fill-rule="evenodd" clip-rule="evenodd" d="M170.483 224.603L153.551 217.847V219.12L170.483 225.987V224.603Z" fill="url(#paint82_linear)"/>
<path fill-rule="evenodd" clip-rule="evenodd" d="M153.551 210.301V210.703L170.303 217.39V225.904L170.677 226.057V217.251C170.677 217.182 170.635 217.113 170.566 217.085L153.551 210.301Z" fill="#FFFF61"/>
<path fill-rule="evenodd" clip-rule="evenodd" d="M153.551 212.669V214.676L167.867 220.546C168.337 220.74 168.863 220.519 169.057 220.048C169.251 219.577 169.03 219.051 168.559 218.857L153.551 212.669Z" fill="url(#paint83_linear)"/>
<path fill-rule="evenodd" clip-rule="evenodd" d="M153.551 213.084V214.289L168.005 220.214C168.282 220.325 168.6 220.2 168.725 219.91C168.836 219.633 168.711 219.314 168.42 219.19L153.551 213.084Z" fill="url(#paint84_linear)"/>
<path fill-rule="evenodd" clip-rule="evenodd" d="M167.507 224.783L168.6 225.226V222.983C168.6 222.679 168.351 222.429 168.046 222.429C167.742 222.429 167.493 222.679 167.493 222.983V224.783H167.507Z" fill="url(#paint85_linear)"/>
<path fill-rule="evenodd" clip-rule="evenodd" d="M167.867 224.921L168.227 225.074V222.983C168.227 222.886 168.143 222.803 168.047 222.803C167.95 222.803 167.867 222.886 167.867 222.983V224.921Z" fill="black"/>
<path fill-rule="evenodd" clip-rule="evenodd" d="M164.585 223.592L165.679 224.035V221.792C165.679 221.488 165.43 221.239 165.125 221.239C164.821 221.239 164.571 221.488 164.571 221.792V223.592H164.585Z" fill="url(#paint86_linear)"/>
<path fill-rule="evenodd" clip-rule="evenodd" d="M164.945 223.745L165.305 223.897V221.806C165.305 221.709 165.222 221.626 165.125 221.626C165.028 221.626 164.945 221.709 164.945 221.806V223.745Z" fill="black"/>
<path fill-rule="evenodd" clip-rule="evenodd" d="M161.664 222.402L162.758 222.845V220.602C162.758 220.297 162.509 220.048 162.204 220.048C161.899 220.048 161.65 220.297 161.65 220.602V222.402H161.664Z" fill="url(#paint87_linear)"/>
<path fill-rule="evenodd" clip-rule="evenodd" d="M162.024 222.554L162.384 222.706V220.616C162.384 220.519 162.301 220.436 162.204 220.436C162.107 220.436 162.024 220.519 162.024 220.616V222.554Z" fill="black"/>
<path fill-rule="evenodd" clip-rule="evenodd" d="M185.117 158.84L181.033 162.925V192.192L185.117 187.721V158.84Z" fill="url(#paint88_linear)"/>
<path fill-rule="evenodd" clip-rule="evenodd" d="M181.033 191.957V192.414L185.242 187.831C185.269 187.804 185.283 187.762 185.283 187.721V158.647L184.951 158.993V187.651L181.033 191.957Z" fill="#373737"/>
<path fill-rule="evenodd" clip-rule="evenodd" d="M181.033 196.304V196.761L189.672 187.084C189.7 187.056 189.713 187.014 189.713 186.973V154.23L189.381 154.563V186.904L181.033 196.304Z" fill="#373737"/>
<path fill-rule="evenodd" clip-rule="evenodd" d="M186.848 254.148H186.335C185.505 254.148 184.812 254.826 184.812 255.67V261.25C184.812 262.081 185.491 262.773 186.335 262.773H186.848C187.692 262.773 188.37 262.094 188.37 261.25V255.67C188.357 254.826 187.678 254.148 186.848 254.148Z" fill="#353535"/>
<path fill-rule="evenodd" clip-rule="evenodd" d="M186.889 254.424H186.28C185.615 254.424 185.062 254.909 185.062 255.504V261.416C185.062 262.011 185.615 262.496 186.28 262.496H186.889C187.554 262.496 188.107 262.011 188.107 261.416V255.504C188.107 254.909 187.567 254.424 186.889 254.424Z" fill="url(#paint89_linear)"/>
<path fill-rule="evenodd" clip-rule="evenodd" d="M186.82 254.84H186.349C185.823 254.84 185.394 255.214 185.394 255.684V261.195C185.394 261.651 185.823 262.039 186.349 262.039H186.82C187.346 262.039 187.775 261.665 187.775 261.195V255.684C187.775 255.227 187.346 254.84 186.82 254.84Z" fill="url(#paint90_radial)"/>
<path opacity="0.5" fill-rule="evenodd" clip-rule="evenodd" d="M186.889 254.424C186.681 254.424 186.488 254.424 186.28 254.424C186.917 255.214 186.155 262.025 185.062 261.416C185.062 262.011 185.615 262.496 186.28 262.496C186.488 262.496 186.681 262.496 186.889 262.496C185.754 257.193 187.775 255.698 188.107 255.504C188.107 254.909 187.567 254.424 186.889 254.424Z" fill="url(#paint91_linear)"/>
<path fill-rule="evenodd" clip-rule="evenodd" d="M153.551 203.877V204.279L170.096 211.353L170.428 215.05C170.428 215.119 170.483 215.175 170.539 215.202L179.205 218.927V218.525L170.774 214.925L170.442 211.229C170.442 211.16 170.4 211.09 170.331 211.063L153.551 203.877Z" fill="#5B1E00"/>
<path opacity="0.5" fill-rule="evenodd" clip-rule="evenodd" d="M163.132 191.182C165.388 191.182 167.216 193.009 167.216 195.266C167.216 197.523 165.388 199.35 163.132 199.35C160.875 199.35 159.047 197.523 159.047 195.266C159.047 193.009 160.875 191.182 163.132 191.182Z" fill="url(#paint92_linear)"/>
<path fill-rule="evenodd" clip-rule="evenodd" d="M163.132 190.406C165.388 190.406 167.216 192.234 167.216 194.491C167.216 196.747 165.388 198.575 163.132 198.575C160.875 198.575 159.047 196.747 159.047 194.491C159.047 192.248 160.875 190.406 163.132 190.406Z" fill="#5B1E00"/>
<path fill-rule="evenodd" clip-rule="evenodd" d="M163.132 190.711C165.222 190.711 166.911 192.4 166.911 194.491C166.911 196.581 165.222 198.27 163.132 198.27C161.041 198.27 159.352 196.581 159.352 194.491C159.352 192.414 161.041 190.711 163.132 190.711Z" fill="url(#paint93_linear)"/>
<path fill-rule="evenodd" clip-rule="evenodd" d="M163.132 191.611C164.724 191.611 166.025 192.912 166.025 194.505C166.025 196.097 164.724 197.398 163.132 197.398C161.539 197.398 160.238 196.11 160.238 194.505C160.238 192.912 161.539 191.611 163.132 191.611Z" fill="url(#paint94_linear)"/>
<path opacity="0.5" fill-rule="evenodd" clip-rule="evenodd" d="M163.132 191.611C162.952 193.162 164.516 195.294 166.025 194.505C166.025 196.097 164.724 197.398 163.132 197.398C163.575 195.487 161.595 193.577 160.238 194.505C160.238 192.912 161.539 191.611 163.132 191.611Z" fill="url(#paint95_linear)"/>
<path fill-rule="evenodd" clip-rule="evenodd" d="M163.132 191.833C164.613 191.833 165.804 193.037 165.804 194.505C165.804 195.986 164.599 197.177 163.132 197.177C161.65 197.177 160.459 195.972 160.459 194.505C160.459 193.023 161.65 191.833 163.132 191.833Z" fill="url(#paint96_linear)"/>
<path d="M163.132 196.304C164.126 196.304 164.931 195.499 164.931 194.505C164.931 193.511 164.126 192.705 163.132 192.705C162.138 192.705 161.332 193.511 161.332 194.505C161.332 195.499 162.138 196.304 163.132 196.304Z" fill="url(#paint97_linear)"/>
<path fill-rule="evenodd" clip-rule="evenodd" d="M163.132 192.982C163.976 192.982 164.654 193.66 164.654 194.504C164.654 195.349 163.976 196.027 163.132 196.027C162.287 196.027 161.609 195.349 161.609 194.504C161.609 193.66 162.287 192.982 163.132 192.982Z" fill="url(#paint98_linear)"/>
<path opacity="0.5" fill-rule="evenodd" clip-rule="evenodd" d="M184.951 186.378C181.033 186.433 182.334 170.747 181.033 162.925C181.033 175.274 181.033 187.637 181.033 199.987C180.424 200.527 179.815 201.067 179.205 201.593C179.205 204.514 179.205 214.469 179.205 217.404C175.537 223.371 156.389 211.437 153.551 199.558C153.551 205.996 153.551 212.42 153.551 218.857C162.107 222.457 170.649 226.07 179.205 229.67C179.205 234.488 179.205 239.292 179.205 244.11C179.815 244.844 180.424 245.578 181.033 246.311C181.033 250.88 181.033 255.449 181.033 260.032C181.033 265.085 192.51 265.071 192.026 260.032C181.033 257.636 179.981 226.721 184.951 186.378Z" fill="url(#paint99_linear)"/>
</g>
</g>
<defs>
<linearGradient id="paint0_linear" x1="79.3621" y1="147.732" x2="83.9469" y2="147.732" gradientUnits="userSpaceOnUse">
<stop stop-color="#212427"/>
<stop offset="0.52" stop-color="#B8B9B8"/>
<stop offset="1" stop-color="#23272A"/>
</linearGradient>
<linearGradient id="paint1_linear" x1="79.3795" y1="147.745" x2="81.6447" y2="147.743" gradientUnits="userSpaceOnUse">
<stop stop-color="#23272A"/>
<stop offset="1" stop-color="white"/>
</linearGradient>
<linearGradient id="paint2_linear" x1="87.5922" y1="159.649" x2="88.1242" y2="159.649" gradientUnits="userSpaceOnUse">
<stop stop-color="#212427"/>
<stop offset="0.52" stop-color="#B8B9B8"/>
<stop offset="1" stop-color="#23272A"/>
</linearGradient>
<radialGradient id="paint3_radial" cx="0" cy="0" r="1" gradientUnits="userSpaceOnUse" gradientTransform="translate(81.6648 136.229) rotate(-90) scale(1.04427 0.716676)">
<stop/>
<stop offset="1" stop-color="#212427"/>
</radialGradient>
<radialGradient id="paint4_radial" cx="0" cy="0" r="1" gradientUnits="userSpaceOnUse" gradientTransform="translate(83.497 136.229) rotate(-90) scale(1.04435 0.434972)">
<stop/>
<stop offset="1" stop-color="#212427"/>
</radialGradient>
<radialGradient id="paint5_radial" cx="0" cy="0" r="1" gradientUnits="userSpaceOnUse" gradientTransform="translate(79.8327 136.229) rotate(-90) scale(1.04432 0.43496)">
<stop/>
<stop offset="1" stop-color="#212427"/>
</radialGradient>
<linearGradient id="paint6_linear" x1="79.3923" y1="141.151" x2="83.9326" y2="141.146" gradientUnits="userSpaceOnUse">
<stop/>
<stop offset="0.5" stop-color="#23272A"/>
<stop offset="1"/>
</linearGradient>
<linearGradient id="paint7_linear" x1="79.3923" y1="142.512" x2="83.9326" y2="142.51" gradientUnits="userSpaceOnUse">
<stop/>
<stop offset="0.5" stop-color="#23272A"/>
<stop offset="1"/>
</linearGradient>
<linearGradient id="paint8_linear" x1="116.209" y1="197.729" x2="102.252" y2="197.728" gradientUnits="userSpaceOnUse">
<stop stop-color="#F89952"/>
<stop offset="0.42" stop-color="#FFD13A"/>
<stop offset="1" stop-color="#FAEF5F"/>
</linearGradient>
<linearGradient id="paint9_linear" x1="116.907" y1="197.729" x2="102.254" y2="197.728" gradientUnits="userSpaceOnUse">
<stop stop-color="#FFD13A"/>
<stop offset="1" stop-color="white"/>
</linearGradient>
<linearGradient id="paint10_linear" x1="115.073" y1="207.87" x2="78.4373" y2="207.868" gradientUnits="userSpaceOnUse">
<stop stop-color="#F89952"/>
<stop offset="0.42" stop-color="#FFD13A"/>
<stop offset="1" stop-color="#FAEF5F"/>
</linearGradient>
<linearGradient id="paint11_linear" x1="89.4287" y1="207.868" x2="78.4373" y2="207.868" gradientUnits="userSpaceOnUse">
<stop stop-color="#23272A"/>
<stop offset="0.5" stop-color="#B8B9B8"/>
<stop offset="1" stop-color="#23272A"/>
</linearGradient>
<linearGradient id="paint12_linear" x1="80.2664" y1="255.246" x2="80.2682" y2="262.454" gradientUnits="userSpaceOnUse">
<stop stop-color="#212427"/>
<stop offset="1" stop-color="white"/>
</linearGradient>
<linearGradient id="paint13_linear" x1="80.288" y1="255.246" x2="80.2897" y2="262.452" gradientUnits="userSpaceOnUse">
<stop stop-color="#212427"/>
<stop offset="1" stop-color="white"/>
</linearGradient>
<linearGradient id="paint14_linear" x1="90.6491" y1="224.34" x2="78.4361" y2="224.34" gradientUnits="userSpaceOnUse">
<stop stop-color="#F89952"/>
<stop offset="0.49" stop-color="#FAEF5F"/>
<stop offset="1" stop-color="#F89952"/>
</linearGradient>
<linearGradient id="paint15_linear" x1="80.2671" y1="252.691" x2="80.2688" y2="192.468" gradientUnits="userSpaceOnUse">
<stop stop-color="#FAEF5F"/>
<stop offset="1" stop-color="white"/>
</linearGradient>
<linearGradient id="paint16_linear" x1="90.921" y1="223.398" x2="85.7643" y2="223.395" gradientUnits="userSpaceOnUse">
<stop stop-color="#5C1800"/>
<stop offset="1" stop-color="#FFD13A"/>
</linearGradient>
<linearGradient id="paint17_linear" x1="84.519" y1="208.04" x2="84.5207" y2="237.905" gradientUnits="userSpaceOnUse">
<stop stop-color="#FFD13A"/>
<stop offset="0.53" stop-color="#FAEF5F"/>
<stop offset="1" stop-color="#FFD13A"/>
</linearGradient>
<linearGradient id="paint18_linear" x1="84.519" y1="208.183" x2="84.5207" y2="237.538" gradientUnits="userSpaceOnUse">
<stop stop-color="#3B3092"/>
<stop offset="0.51" stop-color="#A5DBDB"/>
<stop offset="1" stop-color="#3B3092"/>
</linearGradient>
<linearGradient id="paint19_linear" x1="84.5198" y1="238.005" x2="84.5212" y2="242.165" gradientUnits="userSpaceOnUse">
<stop stop-color="#5C1800"/>
<stop offset="1" stop-color="white"/>
</linearGradient>
<linearGradient id="paint20_linear" x1="84.5206" y1="241.027" x2="84.519" y2="234.005" gradientUnits="userSpaceOnUse">
<stop stop-color="#F89952"/>
<stop offset="1" stop-color="#FAEF5F"/>
</linearGradient>
<linearGradient id="paint21_linear" x1="84.5206" y1="240.288" x2="84.5192" y2="234.781" gradientUnits="userSpaceOnUse">
<stop stop-color="#3B3092"/>
<stop offset="1" stop-color="#2B3594"/>
</linearGradient>
<linearGradient id="paint22_linear" x1="83.3109" y1="238.848" x2="85.8421" y2="236.106" gradientUnits="userSpaceOnUse">
<stop stop-color="#A5DBDB"/>
<stop offset="1" stop-color="white"/>
</linearGradient>
<linearGradient id="paint23_linear" x1="84.5211" y1="235.212" x2="84.5187" y2="240.089" gradientUnits="userSpaceOnUse">
<stop stop-color="#FFF032"/>
<stop offset="1" stop-color="#FAEF5F"/>
</linearGradient>
<linearGradient id="paint24_linear" x1="84.5202" y1="239.252" x2="84.5193" y2="235.821" gradientUnits="userSpaceOnUse">
<stop stop-color="#3B3092"/>
<stop offset="1" stop-color="#2B3594"/>
</linearGradient>
<linearGradient id="paint25_linear" x1="84.5203" y1="236.211" x2="84.5189" y2="238.994" gradientUnits="userSpaceOnUse">
<stop stop-color="#FFF032"/>
<stop offset="1" stop-color="#FAEF5F"/>
</linearGradient>
<linearGradient id="paint26_linear" x1="84.5187" y1="211.38" x2="84.5204" y2="205.038" gradientUnits="userSpaceOnUse">
<stop stop-color="#FFF032"/>
<stop offset="1" stop-color="#FAEF5F"/>
</linearGradient>
<linearGradient id="paint27_linear" x1="85.5366" y1="209.687" x2="83.4314" y2="206.669" gradientUnits="userSpaceOnUse">
<stop stop-color="#FAEF5F"/>
<stop offset="1" stop-color="white"/>
</linearGradient>
<linearGradient id="paint28_linear" x1="84.5189" y1="210.182" x2="84.5206" y2="206.239" gradientUnits="userSpaceOnUse">
<stop stop-color="#3B3092"/>
<stop offset="1" stop-color="#2B3594"/>
</linearGradient>
<linearGradient id="paint29_linear" x1="85.5373" y1="209.135" x2="83.4109" y2="207.242" gradientUnits="userSpaceOnUse">
<stop stop-color="#A5DBDB"/>
<stop offset="1" stop-color="white"/>
</linearGradient>
<linearGradient id="paint30_linear" x1="84.5188" y1="210.012" x2="84.5205" y2="206.447" gradientUnits="userSpaceOnUse">
<stop stop-color="#FAEF5F"/>
<stop offset="1" stop-color="#FDFAD3"/>
</linearGradient>
<linearGradient id="paint31_linear" x1="107.846" y1="216.64" x2="109.028" y2="219.839" gradientUnits="userSpaceOnUse">
<stop stop-color="#23272A"/>
<stop offset="1" stop-color="#B5B8B8"/>
</linearGradient>
<linearGradient id="paint32_linear" x1="116.854" y1="218.547" x2="99.9741" y2="225.293" gradientUnits="userSpaceOnUse">
<stop stop-color="#B5B8B8"/>
<stop offset="1" stop-color="white"/>
</linearGradient>
<linearGradient id="paint33_linear" x1="116.975" y1="213.89" x2="101.552" y2="219.711" gradientUnits="userSpaceOnUse">
<stop stop-color="#212427"/>
<stop offset="1" stop-color="#B5B8B8"/>
</linearGradient>
<linearGradient id="paint34_linear" x1="116.985" y1="213.781" x2="101.844" y2="219.732" gradientUnits="userSpaceOnUse">
<stop/>
<stop offset="1" stop-color="#212427"/>
</linearGradient>
<linearGradient id="paint35_linear" x1="102.405" y1="222.507" x2="102.407" y2="224.966" gradientUnits="userSpaceOnUse">
<stop stop-color="#212427"/>
<stop offset="1" stop-color="#B8B9B8"/>
</linearGradient>
<linearGradient id="paint36_linear" x1="105.326" y1="221.321" x2="105.328" y2="223.781" gradientUnits="userSpaceOnUse">
<stop stop-color="#212427"/>
<stop offset="1" stop-color="#B8B9B8"/>
</linearGradient>
<linearGradient id="paint37_linear" x1="108.247" y1="220.136" x2="108.249" y2="222.595" gradientUnits="userSpaceOnUse">
<stop stop-color="#212427"/>
<stop offset="1" stop-color="#B8B9B8"/>
</linearGradient>
<linearGradient id="paint38_linear" x1="89.2336" y1="175.513" x2="85.3439" y2="175.513" gradientUnits="userSpaceOnUse">
<stop stop-color="#F89952"/>
<stop offset="1" stop-color="#FAEF5F"/>
</linearGradient>
<linearGradient id="paint39_linear" x1="83.8726" y1="262.338" x2="83.8748" y2="254.423" gradientUnits="userSpaceOnUse">
<stop stop-color="#020035"/>
<stop offset="1" stop-color="#472F92"/>
</linearGradient>
<radialGradient id="paint40_radial" cx="0" cy="0" r="1" gradientUnits="userSpaceOnUse" gradientTransform="translate(83.8382 258.624) rotate(-89.9928) scale(3.52913 1.48576)">
<stop stop-color="#2B3594"/>
<stop offset="1" stop-color="#3B3092"/>
</radialGradient>
<linearGradient id="paint41_linear" x1="84.3285" y1="261.727" x2="83.3371" y2="254.597" gradientUnits="userSpaceOnUse">
<stop stop-color="#3B3092"/>
<stop offset="1" stop-color="white"/>
</linearGradient>
<linearGradient id="paint42_linear" x1="107.327" y1="194.991" x2="107.329" y2="199.352" gradientUnits="userSpaceOnUse">
<stop stop-color="#5C1800"/>
<stop offset="1" stop-color="white"/>
</linearGradient>
<linearGradient id="paint43_linear" x1="107.328" y1="198.236" x2="107.326" y2="190.719" gradientUnits="userSpaceOnUse">
<stop stop-color="#F89952"/>
<stop offset="1" stop-color="#FAEF5F"/>
</linearGradient>
<linearGradient id="paint44_linear" x1="107.328" y1="197.383" x2="107.327" y2="191.61" gradientUnits="userSpaceOnUse">
<stop stop-color="#3B3092"/>
<stop offset="1" stop-color="#2B3594"/>
</linearGradient>
<linearGradient id="paint45_linear" x1="106.06" y1="195.874" x2="108.713" y2="193" gradientUnits="userSpaceOnUse">
<stop stop-color="#A5DBDB"/>
<stop offset="1" stop-color="white"/>
</linearGradient>
<linearGradient id="paint46_linear" x1="107.329" y1="192.062" x2="107.326" y2="197.175" gradientUnits="userSpaceOnUse">
<stop stop-color="#FFF032"/>
<stop offset="1" stop-color="#FAEF5F"/>
</linearGradient>
<linearGradient id="paint47_linear" x1="107.328" y1="196.297" x2="107.327" y2="192.7" gradientUnits="userSpaceOnUse">
<stop stop-color="#3B3092"/>
<stop offset="1" stop-color="#2B3594"/>
</linearGradient>
<linearGradient id="paint48_linear" x1="107.328" y1="193.11" x2="107.326" y2="196.027" gradientUnits="userSpaceOnUse">
<stop stop-color="#FFF032"/>
<stop offset="1" stop-color="#FAEF5F"/>
</linearGradient>
<linearGradient id="paint49_linear" x1="115.072" y1="213.361" x2="78.4388" y2="213.359" gradientUnits="userSpaceOnUse">
<stop stop-color="#5C1800"/>
<stop offset="1" stop-color="#FAEF5F"/>
</linearGradient>
<linearGradient id="paint50_linear" x1="191.114" y1="147.744" x2="186.529" y2="147.744" gradientUnits="userSpaceOnUse">
<stop stop-color="#212427"/>
<stop offset="0.52" stop-color="#B8B9B8"/>
<stop offset="1" stop-color="#23272A"/>
</linearGradient>
<linearGradient id="paint51_linear" x1="191.082" y1="147.745" x2="188.817" y2="147.743" gradientUnits="userSpaceOnUse">
<stop stop-color="#23272A"/>
<stop offset="1" stop-color="white"/>
</linearGradient>
<linearGradient id="paint52_linear" x1="182.872" y1="159.651" x2="182.339" y2="159.651" gradientUnits="userSpaceOnUse">
<stop stop-color="#212427"/>
<stop offset="0.52" stop-color="#B8B9B8"/>
<stop offset="1" stop-color="#23272A"/>
</linearGradient>
<radialGradient id="paint53_radial" cx="0" cy="0" r="1" gradientUnits="userSpaceOnUse" gradientTransform="translate(188.796 136.229) rotate(-90) scale(1.04428 0.716696)">
<stop/>
<stop offset="1" stop-color="#212427"/>
</radialGradient>
<radialGradient id="paint54_radial" cx="0" cy="0" r="1" gradientUnits="userSpaceOnUse" gradientTransform="translate(186.964 136.229) rotate(-90) scale(1.04428 0.434942)">
<stop/>
<stop offset="1" stop-color="#212427"/>
</radialGradient>
<radialGradient id="paint55_radial" cx="0" cy="0" r="1" gradientUnits="userSpaceOnUse" gradientTransform="translate(190.628 136.229) rotate(-90) scale(1.04434 0.434964)">
<stop/>
<stop offset="1" stop-color="#212427"/>
</radialGradient>
<linearGradient id="paint56_linear" x1="191.069" y1="141.151" x2="186.529" y2="141.146" gradientUnits="userSpaceOnUse">
<stop/>
<stop offset="0.5" stop-color="#23272A"/>
<stop offset="1"/>
</linearGradient>
<linearGradient id="paint57_linear" x1="191.069" y1="142.512" x2="186.529" y2="142.51" gradientUnits="userSpaceOnUse">
<stop/>
<stop offset="0.5" stop-color="#23272A"/>
<stop offset="1"/>
</linearGradient>
<linearGradient id="paint58_linear" x1="154.252" y1="197.729" x2="168.21" y2="197.728" gradientUnits="userSpaceOnUse">
<stop stop-color="#F89952"/>
<stop offset="0.42" stop-color="#FFD13A"/>
<stop offset="1" stop-color="#FAEF5F"/>
</linearGradient>
<linearGradient id="paint59_linear" x1="153.554" y1="197.729" x2="168.207" y2="197.728" gradientUnits="userSpaceOnUse">
<stop stop-color="#FFD13A"/>
<stop offset="1" stop-color="white"/>
</linearGradient>
<linearGradient id="paint60_linear" x1="155.388" y1="207.87" x2="192.024" y2="207.868" gradientUnits="userSpaceOnUse">
<stop stop-color="#F89952"/>
<stop offset="0.42" stop-color="#FFD13A"/>
<stop offset="1" stop-color="#FAEF5F"/>
</linearGradient>
<linearGradient id="paint61_linear" x1="181.033" y1="207.868" x2="192.024" y2="207.868" gradientUnits="userSpaceOnUse">
<stop stop-color="#23272A"/>
<stop offset="0.5" stop-color="#B8B9B8"/>
<stop offset="1" stop-color="#23272A"/>
</linearGradient>
<linearGradient id="paint62_linear" x1="190.195" y1="255.246" x2="190.193" y2="262.454" gradientUnits="userSpaceOnUse">
<stop stop-color="#212427"/>
<stop offset="1" stop-color="white"/>
</linearGradient>
<linearGradient id="paint63_linear" x1="190.173" y1="255.246" x2="190.171" y2="262.452" gradientUnits="userSpaceOnUse">
<stop stop-color="#212427"/>
<stop offset="1" stop-color="white"/>
</linearGradient>
<linearGradient id="paint64_linear" x1="179.812" y1="224.34" x2="192.025" y2="224.34" gradientUnits="userSpaceOnUse">
<stop stop-color="#F89952"/>
<stop offset="0.49" stop-color="#FAEF5F"/>
<stop offset="1" stop-color="#F89952"/>
</linearGradient>
<linearGradient id="paint65_linear" x1="190.194" y1="252.691" x2="190.192" y2="192.468" gradientUnits="userSpaceOnUse">
<stop stop-color="#FAEF5F"/>
<stop offset="1" stop-color="white"/>
</linearGradient>
<linearGradient id="paint66_linear" x1="179.541" y1="223.398" x2="184.698" y2="223.395" gradientUnits="userSpaceOnUse">
<stop stop-color="#5C1800"/>
<stop offset="1" stop-color="#FFD13A"/>
</linearGradient>
<linearGradient id="paint67_linear" x1="185.942" y1="208.04" x2="185.94" y2="237.905" gradientUnits="userSpaceOnUse">
<stop stop-color="#FFD13A"/>
<stop offset="0.53" stop-color="#FAEF5F"/>
<stop offset="1" stop-color="#FFD13A"/>
</linearGradient>
<linearGradient id="paint68_linear" x1="185.942" y1="208.183" x2="185.94" y2="237.538" gradientUnits="userSpaceOnUse">
<stop stop-color="#3B3092"/>
<stop offset="0.51" stop-color="#A5DBDB"/>
<stop offset="1" stop-color="#3B3092"/>
</linearGradient>
<linearGradient id="paint69_linear" x1="185.941" y1="238.005" x2="185.94" y2="242.165" gradientUnits="userSpaceOnUse">
<stop stop-color="#5C1800"/>
<stop offset="1" stop-color="white"/>
</linearGradient>
<linearGradient id="paint70_linear" x1="185.94" y1="241.027" x2="185.942" y2="234.005" gradientUnits="userSpaceOnUse">
<stop stop-color="#F89952"/>
<stop offset="1" stop-color="#FAEF5F"/>
</linearGradient>
<linearGradient id="paint71_linear" x1="185.941" y1="240.288" x2="185.942" y2="234.781" gradientUnits="userSpaceOnUse">
<stop stop-color="#3B3092"/>
<stop offset="1" stop-color="#2B3594"/>
</linearGradient>
<linearGradient id="paint72_linear" x1="187.15" y1="238.848" x2="184.619" y2="236.107" gradientUnits="userSpaceOnUse">
<stop stop-color="#A5DBDB"/>
<stop offset="1" stop-color="white"/>
</linearGradient>
<linearGradient id="paint73_linear" x1="185.94" y1="235.212" x2="185.942" y2="240.089" gradientUnits="userSpaceOnUse">
<stop stop-color="#FFF032"/>
<stop offset="1" stop-color="#FAEF5F"/>
</linearGradient>
<linearGradient id="paint74_linear" x1="185.941" y1="239.252" x2="185.942" y2="235.821" gradientUnits="userSpaceOnUse">
<stop stop-color="#3B3092"/>
<stop offset="1" stop-color="#2B3594"/>
</linearGradient>
<linearGradient id="paint75_linear" x1="185.941" y1="236.211" x2="185.942" y2="238.994" gradientUnits="userSpaceOnUse">
<stop stop-color="#FFF032"/>
<stop offset="1" stop-color="#FAEF5F"/>
</linearGradient>
<linearGradient id="paint76_linear" x1="185.942" y1="211.38" x2="185.94" y2="205.038" gradientUnits="userSpaceOnUse">
<stop stop-color="#FFF032"/>
<stop offset="1" stop-color="#FAEF5F"/>
</linearGradient>
<linearGradient id="paint77_linear" x1="184.924" y1="209.687" x2="187.029" y2="206.669" gradientUnits="userSpaceOnUse">
<stop stop-color="#FAEF5F"/>
<stop offset="1" stop-color="white"/>
</linearGradient>
<linearGradient id="paint78_linear" x1="185.942" y1="210.182" x2="185.94" y2="206.239" gradientUnits="userSpaceOnUse">
<stop stop-color="#3B3092"/>
<stop offset="1" stop-color="#2B3594"/>
</linearGradient>
<linearGradient id="paint79_linear" x1="184.924" y1="209.135" x2="187.05" y2="207.242" gradientUnits="userSpaceOnUse">
<stop stop-color="#A5DBDB"/>
<stop offset="1" stop-color="white"/>
</linearGradient>
<linearGradient id="paint80_linear" x1="185.942" y1="210.012" x2="185.94" y2="206.447" gradientUnits="userSpaceOnUse">
<stop stop-color="#FAEF5F"/>
<stop offset="1" stop-color="#FDFAD3"/>
</linearGradient>
<linearGradient id="paint81_linear" x1="162.615" y1="216.64" x2="161.433" y2="219.839" gradientUnits="userSpaceOnUse">
<stop stop-color="#23272A"/>
<stop offset="1" stop-color="#B5B8B8"/>
</linearGradient>
<linearGradient id="paint82_linear" x1="153.607" y1="218.547" x2="170.487" y2="225.293" gradientUnits="userSpaceOnUse">
<stop stop-color="#B5B8B8"/>
<stop offset="1" stop-color="white"/>
</linearGradient>
<linearGradient id="paint83_linear" x1="153.486" y1="213.89" x2="168.909" y2="219.711" gradientUnits="userSpaceOnUse">
<stop stop-color="#212427"/>
<stop offset="1" stop-color="#B5B8B8"/>
</linearGradient>
<linearGradient id="paint84_linear" x1="153.476" y1="213.781" x2="168.618" y2="219.733" gradientUnits="userSpaceOnUse">
<stop/>
<stop offset="1" stop-color="#212427"/>
</linearGradient>
<linearGradient id="paint85_linear" x1="168.056" y1="222.507" x2="168.054" y2="224.966" gradientUnits="userSpaceOnUse">
<stop stop-color="#212427"/>
<stop offset="1" stop-color="#B8B9B8"/>
</linearGradient>
<linearGradient id="paint86_linear" x1="165.135" y1="221.321" x2="165.133" y2="223.781" gradientUnits="userSpaceOnUse">
<stop stop-color="#212427"/>
<stop offset="1" stop-color="#B8B9B8"/>
</linearGradient>
<linearGradient id="paint87_linear" x1="162.214" y1="220.136" x2="162.213" y2="222.595" gradientUnits="userSpaceOnUse">
<stop stop-color="#212427"/>
<stop offset="1" stop-color="#B8B9B8"/>
</linearGradient>
<linearGradient id="paint88_linear" x1="181.228" y1="175.513" x2="185.117" y2="175.513" gradientUnits="userSpaceOnUse">
<stop stop-color="#F89952"/>
<stop offset="1" stop-color="#FAEF5F"/>
</linearGradient>
<linearGradient id="paint89_linear" x1="186.588" y1="262.338" x2="186.586" y2="254.423" gradientUnits="userSpaceOnUse">
<stop stop-color="#020035"/>
<stop offset="1" stop-color="#472F92"/>
</linearGradient>
<radialGradient id="paint90_radial" cx="0" cy="0" r="1" gradientUnits="userSpaceOnUse" gradientTransform="translate(186.623 258.624) rotate(-90.0072) scale(3.52903 1.48573)">
<stop stop-color="#2B3594"/>
<stop offset="1" stop-color="#3B3092"/>
</radialGradient>
<linearGradient id="paint91_linear" x1="186.132" y1="261.727" x2="187.124" y2="254.597" gradientUnits="userSpaceOnUse">
<stop stop-color="#3B3092"/>
<stop offset="1" stop-color="white"/>
</linearGradient>
<linearGradient id="paint92_linear" x1="163.134" y1="194.991" x2="163.132" y2="199.352" gradientUnits="userSpaceOnUse">
<stop stop-color="#5C1800"/>
<stop offset="1" stop-color="white"/>
</linearGradient>
<linearGradient id="paint93_linear" x1="163.133" y1="198.236" x2="163.135" y2="190.719" gradientUnits="userSpaceOnUse">
<stop stop-color="#F89952"/>
<stop offset="1" stop-color="#FAEF5F"/>
</linearGradient>
<linearGradient id="paint94_linear" x1="163.133" y1="197.383" x2="163.135" y2="191.61" gradientUnits="userSpaceOnUse">
<stop stop-color="#3B3092"/>
<stop offset="1" stop-color="#2B3594"/>
</linearGradient>
<linearGradient id="paint95_linear" x1="164.401" y1="195.874" x2="161.748" y2="192.999" gradientUnits="userSpaceOnUse">
<stop stop-color="#A5DBDB"/>
<stop offset="1" stop-color="white"/>
</linearGradient>
<linearGradient id="paint96_linear" x1="163.132" y1="192.062" x2="163.135" y2="197.175" gradientUnits="userSpaceOnUse">
<stop stop-color="#FFF032"/>
<stop offset="1" stop-color="#FAEF5F"/>
</linearGradient>
<linearGradient id="paint97_linear" x1="163.133" y1="196.297" x2="163.134" y2="192.7" gradientUnits="userSpaceOnUse">
<stop stop-color="#3B3092"/>
<stop offset="1" stop-color="#2B3594"/>
</linearGradient>
<linearGradient id="paint98_linear" x1="163.133" y1="193.11" x2="163.134" y2="196.027" gradientUnits="userSpaceOnUse">
<stop stop-color="#FFF032"/>
<stop offset="1" stop-color="#FAEF5F"/>
</linearGradient>
<linearGradient id="paint99_linear" x1="155.389" y1="213.361" x2="192.022" y2="213.359" gradientUnits="userSpaceOnUse">
<stop stop-color="#5C1800"/>
<stop offset="1" stop-color="#FAEF5F"/>
</linearGradient>
<clipPath id="clip0">
<rect width="270" height="370" fill="white"/>
</clipPath>
<clipPath id="clip1">
<rect x="56.7212" y="78.4165" width="157.013" height="196.124" fill="white"/>
</clipPath>
</defs>
</svg>
