<svg width="270" height="370" viewBox="0 0 270 370" fill="none" xmlns="http://www.w3.org/2000/svg">
<g clip-path="url(#clip0)">
<g clip-path="url(#clip1)">
<path fill-rule="evenodd" clip-rule="evenodd" d="M116.918 197.675H111.809C111.048 197.675 110.383 198.118 110.107 198.838L97.3833 231.027C97.0372 231.913 96.0819 232.37 95.182 232.12L85.643 229.393C84.7015 229.13 83.7186 229.642 83.4001 230.57L82.5279 233.2C82.2787 233.934 82.5002 234.709 83.1094 235.194L99.0585 248.25C100.775 249.662 103.309 249.233 104.486 247.35L120.047 222.457C120.421 221.848 120.601 221.239 120.601 220.519V201.33C120.573 199.322 118.94 197.675 116.918 197.675Z" fill="url(#paint0_linear)"/>
<path fill-rule="evenodd" clip-rule="evenodd" d="M116.918 197.675H111.809C111.048 197.675 110.383 198.118 110.107 198.838L97.3832 231.027C97.0371 231.913 96.0818 232.37 95.1819 232.12L85.6429 229.393C84.7015 229.13 83.7185 229.642 83.4001 230.57L82.5279 233.2C82.2787 233.934 82.5002 234.709 83.1093 235.194L99.0585 248.25C100.775 249.662 103.309 249.233 104.486 247.35L120.047 222.457C120.421 221.848 120.601 221.239 120.601 220.519V201.33C120.573 199.322 118.939 197.675 116.918 197.675ZM111.809 196.346H116.918C118.247 196.346 119.466 196.872 120.365 197.73C120.393 197.758 120.421 197.786 120.449 197.799C121.348 198.699 121.916 199.945 121.916 201.33V220.505C121.916 220.989 121.861 221.432 121.722 221.875C121.598 222.318 121.404 222.734 121.155 223.135L105.593 248.042C105.469 248.236 105.344 248.416 105.219 248.568C104.43 249.537 103.336 250.132 102.174 250.326C101.011 250.52 99.7922 250.299 98.74 249.634C98.5462 249.509 98.3662 249.385 98.2139 249.26L82.251 236.219C81.7387 235.803 81.3926 235.249 81.2126 234.654C81.0465 234.059 81.0465 233.408 81.2542 232.785L82.1264 230.155C82.3894 229.352 82.9571 228.729 83.6493 228.355C84.3415 227.995 85.1722 227.884 85.989 228.105L95.5281 230.833C95.6527 230.874 95.7911 230.861 95.888 230.805C95.9988 230.75 96.0818 230.653 96.1372 230.528L108.861 198.339C109.096 197.73 109.511 197.232 110.023 196.886C110.55 196.54 111.159 196.346 111.809 196.346Z" fill="black"/>
<path fill-rule="evenodd" clip-rule="evenodd" d="M83.3863 230.556L82.5141 233.186C82.2649 233.92 82.4864 234.696 83.0956 235.18L99.0447 248.236C100.761 249.648 103.295 249.219 104.472 247.336L120.033 222.443C120.407 221.834 120.587 221.225 120.587 220.505V201.33C120.587 199.862 119.715 198.589 118.455 198.007C118.455 200.901 120.809 213.361 115.423 211.132C114.578 213.444 113.748 215.742 112.903 218.054C118.33 219.508 114.135 222.914 113.388 224.561C115.174 226.679 115.534 228.092 111.463 235C109.138 238.932 106.812 240.026 104.804 238.738C103.295 240.372 101.8 241.479 100.429 241.729C94.0191 242.878 85.7676 236.218 83.3863 230.556Z" fill="url(#paint1_linear)"/>
<path fill-rule="evenodd" clip-rule="evenodd" d="M99.1276 236.191L97.2724 231.248L97.48 230.791L99.3352 235.692C104.832 221.598 112.862 201.053 114.177 197.675C114.26 197.453 114.647 197.453 114.564 197.675L99.4875 236.26C98.9614 237.409 97.8815 237.838 96.7186 237.34L95.0711 236.523L99.3075 248.443C99.3075 248.443 98.8091 248.18 98.7538 248.014L94.5865 236.288L83.3169 230.736L83.4415 230.39C87.9133 232.591 92.399 234.806 96.8709 237.008C97.7985 237.409 98.6984 237.091 99.1276 236.191Z" fill="#5B1E00"/>
<path fill-rule="evenodd" clip-rule="evenodd" d="M107.642 242.255L107.407 242.629C106.424 240.469 104.845 238.807 102.907 237.478C102.824 237.423 102.796 237.312 102.852 237.229L111.588 223.246C111.643 223.163 111.74 223.135 111.837 223.177C114.011 224.367 115.45 225.96 116.378 228.258L116.143 228.632C115.271 226.486 113.831 224.727 111.809 223.578L103.253 237.257C105.192 238.627 106.673 240.095 107.642 242.255Z" fill="#5B1E00"/>
<path fill-rule="evenodd" clip-rule="evenodd" d="M108.362 218.193L111.976 220.076C112.336 220.256 112.474 220.712 112.28 221.059L111.74 222.083C111.56 222.443 111.103 222.582 110.757 222.388L107.144 220.505C106.784 220.325 106.645 219.868 106.839 219.522L107.379 218.497C107.559 218.137 108.002 217.999 108.362 218.193Z" fill="#5B1E00"/>
<path fill-rule="evenodd" clip-rule="evenodd" d="M108.196 218.511L111.809 220.394C111.989 220.491 112.059 220.712 111.962 220.892L111.422 221.917C111.325 222.097 111.103 222.166 110.923 222.069L107.31 220.186C107.13 220.089 107.061 219.868 107.158 219.688L107.698 218.663C107.795 218.497 108.016 218.414 108.196 218.511Z" fill="url(#paint2_linear)"/>
<path fill-rule="evenodd" clip-rule="evenodd" d="M107.172 221.1L110.273 222.72C110.577 222.886 110.702 223.26 110.536 223.564L110.079 224.437C109.913 224.741 109.539 224.866 109.234 224.7L106.133 223.08C105.829 222.914 105.704 222.54 105.87 222.235L106.327 221.363C106.479 221.058 106.867 220.934 107.172 221.1Z" fill="#5B1E00"/>
<path fill-rule="evenodd" clip-rule="evenodd" d="M107.019 221.377L110.121 222.997C110.273 223.08 110.328 223.274 110.259 223.426L109.802 224.312C109.719 224.464 109.525 224.52 109.373 224.45L106.272 222.831C106.119 222.747 106.064 222.568 106.133 222.401L106.59 221.529C106.687 221.363 106.867 221.294 107.019 221.377Z" fill="url(#paint3_linear)"/>
<path fill-rule="evenodd" clip-rule="evenodd" d="M105.981 224.007L108.57 225.35C108.819 225.489 108.93 225.807 108.791 226.056L108.404 226.79C108.265 227.039 107.947 227.15 107.698 227.012L105.109 225.669C104.859 225.53 104.749 225.212 104.887 224.963L105.275 224.229C105.399 223.98 105.718 223.869 105.981 224.007Z" fill="#5B1E00"/>
<path fill-rule="evenodd" clip-rule="evenodd" d="M105.856 224.243L108.445 225.586C108.57 225.655 108.625 225.807 108.556 225.932L108.168 226.666C108.099 226.79 107.947 226.846 107.822 226.776L105.233 225.433C105.109 225.364 105.053 225.212 105.122 225.087L105.51 224.354C105.565 224.229 105.732 224.174 105.856 224.243Z" fill="url(#paint4_linear)"/>
<path fill-rule="evenodd" clip-rule="evenodd" d="M106.078 228.438C105.829 229.116 104.804 228.742 105.039 228.064C105.759 226.056 105.565 225.475 105.399 224.949C105.178 224.257 104.97 223.647 105.884 221.709C107.656 217.916 109.317 217.847 110.702 217.777C111.366 217.75 111.948 217.722 112.377 216.947C112.723 216.324 113.678 216.85 113.332 217.487C112.599 218.788 111.74 218.83 110.757 218.871C109.664 218.926 108.362 218.982 106.881 222.18C106.161 223.731 106.299 224.146 106.452 224.617C106.659 225.309 106.922 226.084 106.078 228.438Z" fill="#5B1E00"/>
<path fill-rule="evenodd" clip-rule="evenodd" d="M105.898 228.382C105.732 228.839 105.053 228.59 105.205 228.133C105.939 226.07 105.745 225.447 105.565 224.907C105.344 224.243 105.164 223.675 106.036 221.792C107.753 218.11 109.359 218.027 110.702 217.957C111.422 217.93 112.045 217.888 112.529 217.044C112.765 216.628 113.402 216.988 113.166 217.404C112.488 218.608 111.671 218.65 110.743 218.691C109.608 218.746 108.237 218.816 106.701 222.097C105.953 223.717 106.092 224.16 106.258 224.672C106.479 225.337 106.728 226.07 105.898 228.382Z" fill="url(#paint5_linear)"/>
<path fill-rule="evenodd" clip-rule="evenodd" d="M105.732 228.313C105.649 228.535 105.302 228.424 105.385 228.189C106.147 226.07 105.925 225.42 105.745 224.838C105.538 224.215 105.372 223.675 106.216 221.862C107.891 218.276 109.428 218.193 110.73 218.137C111.505 218.096 112.169 218.068 112.709 217.127C112.834 216.919 113.138 217.099 113.028 217.307C112.391 218.428 111.629 218.456 110.757 218.497C109.567 218.553 108.141 218.622 106.562 222.014C105.773 223.703 105.939 224.174 106.119 224.727C106.299 225.364 106.535 226.07 105.732 228.313Z" fill="url(#paint6_linear)"/>
<path fill-rule="evenodd" clip-rule="evenodd" d="M114.703 210.91C114.703 211.215 114.454 211.464 114.149 211.464C113.845 211.464 113.595 211.215 113.595 210.91C113.595 208.155 114.426 205.802 115.561 204.03C117.029 201.745 119.064 200.43 120.546 200.43C120.85 200.43 121.099 200.679 121.099 200.984C121.099 201.288 120.85 201.538 120.546 201.538C119.396 201.538 117.749 202.673 116.475 204.639C115.465 206.231 114.703 208.377 114.703 210.91Z" fill="#5B1E00"/>
<path fill-rule="evenodd" clip-rule="evenodd" d="M114.523 210.91C114.523 211.118 114.357 211.27 114.163 211.27C113.955 211.27 113.803 211.104 113.803 210.91C113.803 208.183 114.62 205.871 115.741 204.127C117.181 201.898 119.147 200.61 120.573 200.61C120.781 200.61 120.933 200.776 120.933 200.97C120.933 201.178 120.767 201.33 120.573 201.33C119.369 201.33 117.652 202.493 116.351 204.514C115.298 206.162 114.523 208.335 114.523 210.91Z" fill="url(#paint7_linear)"/>
<path fill-rule="evenodd" clip-rule="evenodd" d="M114.163 210.91C116.198 210.91 117.846 212.558 117.846 214.593C117.846 216.628 116.198 218.276 114.163 218.276C112.128 218.276 110.48 216.628 110.48 214.593C110.48 212.558 112.128 210.91 114.163 210.91Z" fill="#5B1E00"/>
<path fill-rule="evenodd" clip-rule="evenodd" d="M114.163 211.27C115.991 211.27 117.472 212.752 117.472 214.579C117.472 216.407 115.991 217.888 114.163 217.888C112.336 217.888 110.854 216.407 110.854 214.579C110.854 212.752 112.336 211.27 114.163 211.27Z" fill="url(#paint8_linear)"/>
<path opacity="0.5" fill-rule="evenodd" clip-rule="evenodd" d="M114.163 211.27C111.962 213.638 116.129 218.954 117.472 214.579C117.472 216.407 115.991 217.888 114.163 217.888C114.385 213.389 111.823 212.239 110.854 214.579C110.84 212.765 112.336 211.27 114.163 211.27Z" fill="url(#paint9_linear)"/>
<path d="M114.163 216.767C115.364 216.767 116.337 215.794 116.337 214.593C116.337 213.393 115.364 212.419 114.163 212.419C112.963 212.419 111.99 213.393 111.99 214.593C111.99 215.794 112.963 216.767 114.163 216.767Z" fill="url(#paint10_linear)"/>
<path opacity="0.5" fill-rule="evenodd" clip-rule="evenodd" d="M114.163 212.406C112.792 214.552 114.717 215.687 116.337 214.579C116.337 215.784 115.354 216.753 114.163 216.753C116.724 216.254 113.152 213.624 111.989 214.579C111.976 213.389 112.959 212.406 114.163 212.406Z" fill="url(#paint11_linear)"/>
<path fill-rule="evenodd" clip-rule="evenodd" d="M114.163 212.738C115.188 212.738 116.018 213.569 116.018 214.593C116.018 215.618 115.188 216.448 114.163 216.448C113.139 216.448 112.308 215.618 112.308 214.593C112.308 213.569 113.139 212.738 114.163 212.738Z" fill="url(#paint12_linear)"/>
<path fill-rule="evenodd" clip-rule="evenodd" d="M104.112 227.067C106.147 227.067 107.794 228.715 107.794 230.75C107.794 232.785 106.147 234.433 104.112 234.433C102.077 234.433 100.429 232.785 100.429 230.75C100.429 228.715 102.077 227.067 104.112 227.067Z" fill="#5B1E00"/>
<path fill-rule="evenodd" clip-rule="evenodd" d="M104.112 227.427C105.939 227.427 107.421 228.909 107.421 230.736C107.421 232.564 105.939 234.045 104.112 234.045C102.284 234.045 100.803 232.564 100.803 230.736C100.789 228.909 102.284 227.427 104.112 227.427Z" fill="url(#paint13_linear)"/>
<path opacity="0.5" fill-rule="evenodd" clip-rule="evenodd" d="M104.112 227.427C101.911 229.795 106.078 235.111 107.421 230.736C107.421 232.564 105.939 234.045 104.112 234.045C104.333 229.545 101.772 228.396 100.803 230.736C100.789 228.909 102.284 227.427 104.112 227.427Z" fill="url(#paint14_linear)"/>
<path d="M104.112 232.91C105.312 232.91 106.285 231.936 106.285 230.736C106.285 229.536 105.312 228.562 104.112 228.562C102.911 228.562 101.938 229.536 101.938 230.736C101.938 231.936 102.911 232.91 104.112 232.91Z" fill="url(#paint15_linear)"/>
<path opacity="0.5" fill-rule="evenodd" clip-rule="evenodd" d="M104.112 228.562C102.741 230.708 104.666 231.844 106.285 230.736C106.285 231.94 105.302 232.91 104.112 232.91C106.659 232.411 103.101 229.781 101.938 230.736C101.924 229.532 102.907 228.562 104.112 228.562Z" fill="url(#paint16_linear)"/>
<path fill-rule="evenodd" clip-rule="evenodd" d="M104.112 228.895C105.136 228.895 105.967 229.725 105.967 230.75C105.967 231.774 105.136 232.605 104.112 232.605C103.087 232.605 102.256 231.774 102.256 230.75C102.256 229.725 103.087 228.895 104.112 228.895Z" fill="url(#paint17_linear)"/>
<path fill-rule="evenodd" clip-rule="evenodd" d="M120.158 197.758L122.428 197.772C123.439 197.772 124.256 198.603 124.256 199.599C124.256 208.266 124.99 205.414 120.476 212.696C120.269 213.029 119.798 212.835 119.798 212.503V198.118C119.784 197.91 119.95 197.744 120.158 197.758Z" fill="url(#paint18_linear)"/>
<path fill-rule="evenodd" clip-rule="evenodd" d="M120.282 196.429L122.428 196.443C123.301 196.443 124.076 196.803 124.643 197.37C125.211 197.938 125.571 198.727 125.571 199.599C125.571 201.164 125.585 201.981 125.599 202.659C125.626 204.833 125.64 205.899 125.336 206.992C125.031 208.058 124.491 208.889 123.425 210.523C122.941 211.27 122.331 212.212 121.598 213.375C121.348 213.776 121.002 214.012 120.628 214.122C120.31 214.205 119.992 214.205 119.687 214.109C119.41 214.025 119.147 213.859 118.939 213.638C118.663 213.333 118.483 212.946 118.483 212.489V198.118C118.483 198.035 118.496 197.952 118.51 197.869C118.566 197.481 118.746 197.149 119.009 196.913C119.313 196.609 119.742 196.443 120.185 196.443C120.199 196.429 120.241 196.429 120.282 196.429ZM120.158 197.758L122.428 197.772C123.439 197.772 124.256 198.602 124.256 199.599C124.256 208.266 124.99 205.414 120.476 212.696C120.269 213.029 119.798 212.835 119.798 212.503V198.118C119.784 197.91 119.95 197.744 120.158 197.758Z" fill="black"/>
<path fill-rule="evenodd" clip-rule="evenodd" d="M120.158 197.758C120.919 197.758 121.667 197.772 122.428 197.772C123.439 197.772 124.256 198.602 124.256 199.599C124.256 208.266 124.99 205.414 120.476 212.696C122.179 206.065 123.91 200.776 120.158 197.758Z" fill="url(#paint19_linear)"/>
<path opacity="0.5" fill-rule="evenodd" clip-rule="evenodd" d="M116.918 197.675C115.215 197.675 113.512 197.675 111.81 197.675C115.935 202.437 115.16 207.865 114.482 213.707C112.626 229.656 103.378 243.058 101.357 242.518C92.247 240.081 89.1181 236.454 83.3863 230.556C83.0956 231.428 82.8049 232.314 82.5141 233.186C82.2649 233.92 82.4864 234.696 83.0956 235.18C88.412 239.527 93.7283 243.888 99.0447 248.236C100.761 249.648 103.295 249.219 104.472 247.336C109.664 239.043 114.842 230.736 120.033 222.443C120.407 221.834 120.587 221.225 120.587 220.505C120.587 214.108 120.587 207.712 120.587 201.33C120.573 199.322 118.94 197.675 116.918 197.675Z" fill="url(#paint20_linear)"/>
<path fill-rule="evenodd" clip-rule="evenodd" d="M153.607 197.675H158.715C159.477 197.675 160.141 198.118 160.418 198.838L173.155 231.013C173.501 231.899 174.457 232.356 175.357 232.107L184.896 229.379C185.837 229.116 186.82 229.628 187.138 230.556L188.011 233.186C188.26 233.92 188.038 234.696 187.429 235.18L171.494 248.236C169.777 249.648 167.244 249.219 166.067 247.336L150.505 222.457C150.132 221.848 149.952 221.239 149.952 220.519V201.33C149.952 199.322 151.599 197.675 153.607 197.675Z" fill="url(#paint21_linear)"/>
<path fill-rule="evenodd" clip-rule="evenodd" d="M153.607 196.346H158.715C159.366 196.346 159.975 196.54 160.487 196.886C161 197.232 161.401 197.73 161.65 198.339L174.374 230.528C174.429 230.653 174.512 230.75 174.623 230.805C174.734 230.861 174.858 230.874 174.983 230.833L184.522 228.105C185.325 227.87 186.169 227.981 186.862 228.355C187.554 228.715 188.108 229.352 188.384 230.154L189.257 232.785C189.464 233.408 189.478 234.059 189.298 234.654C189.118 235.263 188.772 235.803 188.26 236.218L172.325 249.274C172.158 249.412 171.978 249.537 171.798 249.648C170.746 250.312 169.514 250.52 168.365 250.34C167.202 250.146 166.108 249.551 165.319 248.582C165.291 248.554 165.278 248.526 165.25 248.499C165.139 248.346 165.028 248.208 164.932 248.056L149.384 223.163C149.135 222.748 148.941 222.332 148.816 221.903C148.692 221.46 148.622 221.003 148.622 220.532V201.33C148.622 199.959 149.176 198.699 150.09 197.799C151.004 196.899 152.236 196.346 153.607 196.346ZM153.607 197.675H158.715C159.477 197.675 160.141 198.118 160.418 198.838L173.155 231.013C173.501 231.899 174.457 232.356 175.357 232.107L184.896 229.379C185.837 229.116 186.82 229.628 187.138 230.556L188.011 233.186C188.26 233.92 188.038 234.696 187.429 235.18L171.494 248.236C169.777 249.648 167.244 249.219 166.067 247.336L150.505 222.457C150.132 221.848 149.952 221.238 149.952 220.519V201.33C149.952 199.322 151.599 197.675 153.607 197.675Z" fill="black"/>
<path fill-rule="evenodd" clip-rule="evenodd" d="M187.138 230.556L188.011 233.186C188.26 233.92 188.038 234.696 187.429 235.18L171.494 248.236C169.777 249.648 167.244 249.219 166.067 247.336L150.505 222.457C150.132 221.848 149.952 221.239 149.952 220.519V201.33C149.952 199.862 150.824 198.589 152.084 198.007C152.084 200.901 149.73 213.361 155.116 211.132C155.96 213.444 156.791 215.742 157.635 218.054C152.208 219.508 156.403 222.914 157.151 224.561C155.365 226.679 155.005 228.092 159.075 235C161.401 238.932 163.727 240.026 165.735 238.738C167.244 240.372 168.739 241.479 170.109 241.729C176.506 242.878 184.757 236.218 187.138 230.556Z" fill="url(#paint22_linear)"/>
<path fill-rule="evenodd" clip-rule="evenodd" d="M171.411 236.191L173.266 231.248L173.058 230.791L171.203 235.692C165.707 221.598 157.677 201.053 156.362 197.675C156.279 197.453 155.891 197.453 155.974 197.675L171.023 236.26C171.549 237.409 172.629 237.838 173.792 237.34L175.44 236.523L171.203 248.443C171.203 248.443 171.702 248.18 171.757 248.014L175.924 236.288L187.194 230.736L187.069 230.39C182.597 232.591 178.112 234.806 173.64 237.008C172.726 237.409 171.826 237.091 171.411 236.191Z" fill="#5B1E00"/>
<path fill-rule="evenodd" clip-rule="evenodd" d="M162.883 242.255L163.118 242.629C164.087 240.469 165.679 238.807 167.617 237.478C167.7 237.423 167.728 237.312 167.673 237.229L158.937 223.246C158.881 223.163 158.784 223.135 158.688 223.177C156.514 224.367 155.074 225.96 154.146 228.258L154.382 228.632C155.254 226.486 156.694 224.727 158.715 223.578L167.271 237.257C165.333 238.627 163.865 240.095 162.883 242.255Z" fill="#5B1E00"/>
<path fill-rule="evenodd" clip-rule="evenodd" d="M162.163 218.193L158.549 220.076C158.189 220.256 158.051 220.712 158.245 221.059L158.784 222.083C158.964 222.443 159.421 222.582 159.767 222.388L163.381 220.505C163.741 220.325 163.879 219.868 163.685 219.522L163.146 218.497C162.966 218.137 162.523 217.999 162.163 218.193Z" fill="#5B1E00"/>
<path fill-rule="evenodd" clip-rule="evenodd" d="M162.329 218.511L158.715 220.394C158.535 220.491 158.466 220.712 158.563 220.892L159.103 221.917C159.2 222.097 159.421 222.166 159.601 222.069L163.215 220.186C163.395 220.089 163.464 219.868 163.367 219.688L162.827 218.663C162.73 218.497 162.509 218.414 162.329 218.511Z" fill="url(#paint23_linear)"/>
<path fill-rule="evenodd" clip-rule="evenodd" d="M163.353 221.1L160.252 222.72C159.947 222.886 159.823 223.26 159.989 223.564L160.446 224.437C160.598 224.741 160.986 224.866 161.29 224.7L164.392 223.08C164.696 222.914 164.821 222.54 164.655 222.235L164.198 221.363C164.045 221.058 163.672 220.934 163.353 221.1Z" fill="#5B1E00"/>
<path fill-rule="evenodd" clip-rule="evenodd" d="M163.506 221.377L160.404 222.997C160.252 223.08 160.197 223.274 160.266 223.426L160.723 224.312C160.806 224.464 161 224.52 161.152 224.45L164.253 222.831C164.405 222.747 164.461 222.568 164.392 222.401L163.935 221.529C163.852 221.363 163.658 221.294 163.506 221.377Z" fill="url(#paint24_linear)"/>
<path fill-rule="evenodd" clip-rule="evenodd" d="M164.558 224.007L161.969 225.35C161.72 225.489 161.609 225.807 161.747 226.056L162.135 226.79C162.273 227.039 162.592 227.15 162.841 227.012L165.43 225.669C165.679 225.53 165.79 225.212 165.651 224.963L165.264 224.229C165.125 223.98 164.807 223.869 164.558 224.007Z" fill="#5B1E00"/>
<path fill-rule="evenodd" clip-rule="evenodd" d="M164.668 224.243L162.08 225.586C161.955 225.655 161.9 225.807 161.969 225.932L162.356 226.666C162.426 226.79 162.578 226.846 162.703 226.776L165.291 225.433C165.416 225.364 165.471 225.212 165.402 225.087L165.015 224.354C164.959 224.229 164.807 224.174 164.668 224.243Z" fill="url(#paint25_linear)"/>
<path fill-rule="evenodd" clip-rule="evenodd" d="M164.461 228.438C164.696 229.116 165.734 228.742 165.499 228.064C164.779 226.056 164.973 225.475 165.139 224.949C165.361 224.257 165.568 223.647 164.655 221.709C162.882 217.916 161.221 217.847 159.837 217.777C159.172 217.75 158.591 217.722 158.161 216.947C157.815 216.324 156.86 216.85 157.206 217.487C157.94 218.788 158.798 218.83 159.781 218.871C160.875 218.926 162.176 218.982 163.658 222.18C164.378 223.731 164.239 224.146 164.087 224.617C163.865 225.309 163.616 226.084 164.461 228.438Z" fill="#5B1E00"/>
<path fill-rule="evenodd" clip-rule="evenodd" d="M164.627 228.382C164.793 228.839 165.471 228.59 165.319 228.133C164.585 226.07 164.779 225.447 164.959 224.907C165.181 224.243 165.361 223.675 164.488 221.792C162.772 218.11 161.166 218.027 159.823 217.957C159.103 217.93 158.48 217.888 157.995 217.044C157.76 216.628 157.123 216.988 157.358 217.404C158.037 218.608 158.854 218.65 159.781 218.691C160.916 218.746 162.287 218.816 163.824 222.097C164.571 223.717 164.433 224.16 164.267 224.672C164.045 225.337 163.81 226.07 164.627 228.382Z" fill="url(#paint26_linear)"/>
<path fill-rule="evenodd" clip-rule="evenodd" d="M164.793 228.313C164.876 228.535 165.222 228.424 165.139 228.189C164.378 226.07 164.599 225.42 164.779 224.838C164.987 224.215 165.153 223.675 164.308 221.862C162.633 218.276 161.096 218.193 159.795 218.137C159.02 218.096 158.355 218.068 157.815 217.127C157.691 216.919 157.386 217.099 157.497 217.307C158.134 218.428 158.895 218.456 159.767 218.497C160.958 218.553 162.384 218.622 163.962 222.014C164.751 223.703 164.585 224.174 164.405 224.727C164.239 225.364 164.004 226.07 164.793 228.313Z" fill="url(#paint27_linear)"/>
<path fill-rule="evenodd" clip-rule="evenodd" d="M155.822 210.91C155.822 211.215 156.071 211.464 156.375 211.464C156.68 211.464 156.929 211.215 156.929 210.91C156.929 208.155 156.099 205.802 154.963 204.03C153.496 201.745 151.461 200.43 149.979 200.43C149.675 200.43 149.425 200.679 149.425 200.984C149.425 201.288 149.675 201.538 149.979 201.538C151.128 201.538 152.776 202.673 154.05 204.639C155.06 206.231 155.822 208.377 155.822 210.91Z" fill="#5B1E00"/>
<path fill-rule="evenodd" clip-rule="evenodd" d="M156.002 210.91C156.002 211.118 156.168 211.27 156.362 211.27C156.569 211.27 156.722 211.104 156.722 210.91C156.722 208.183 155.905 205.871 154.783 204.127C153.357 201.898 151.391 200.61 149.965 200.61C149.758 200.61 149.605 200.776 149.605 200.97C149.605 201.178 149.772 201.33 149.965 201.33C151.17 201.33 152.887 202.493 154.188 204.514C155.24 206.162 156.002 208.335 156.002 210.91Z" fill="url(#paint28_linear)"/>
<path fill-rule="evenodd" clip-rule="evenodd" d="M156.375 210.91C154.34 210.91 152.693 212.558 152.693 214.593C152.693 216.628 154.34 218.276 156.375 218.276C158.411 218.276 160.058 216.628 160.058 214.593C160.044 212.558 158.397 210.91 156.375 210.91Z" fill="#5B1E00"/>
<path fill-rule="evenodd" clip-rule="evenodd" d="M156.375 211.27C154.548 211.27 153.067 212.752 153.067 214.579C153.067 216.407 154.548 217.888 156.375 217.888C158.203 217.888 159.684 216.407 159.684 214.579C159.684 212.752 158.203 211.27 156.375 211.27Z" fill="url(#paint29_linear)"/>
<path opacity="0.5" fill-rule="evenodd" clip-rule="evenodd" d="M156.375 211.27C158.577 213.638 154.409 218.954 153.067 214.579C153.067 216.407 154.548 217.888 156.375 217.888C156.154 213.389 158.715 212.239 159.684 214.579C159.684 212.765 158.203 211.27 156.375 211.27Z" fill="url(#paint30_linear)"/>
<path d="M156.375 216.767C157.576 216.767 158.549 215.794 158.549 214.593C158.549 213.393 157.576 212.419 156.375 212.419C155.175 212.419 154.202 213.393 154.202 214.593C154.202 215.794 155.175 216.767 156.375 216.767Z" fill="url(#paint31_linear)"/>
<path opacity="0.5" fill-rule="evenodd" clip-rule="evenodd" d="M156.375 212.406C157.746 214.552 155.822 215.687 154.202 214.579C154.202 215.784 155.185 216.753 156.375 216.753C153.814 216.254 157.386 213.624 158.549 214.579C158.549 213.389 157.566 212.406 156.375 212.406Z" fill="url(#paint32_linear)"/>
<path fill-rule="evenodd" clip-rule="evenodd" d="M156.375 212.738C155.351 212.738 154.52 213.569 154.52 214.593C154.52 215.618 155.351 216.448 156.375 216.448C157.4 216.448 158.231 215.618 158.231 214.593C158.231 213.569 157.386 212.738 156.375 212.738Z" fill="url(#paint33_linear)"/>
<path fill-rule="evenodd" clip-rule="evenodd" d="M166.427 227.067C164.392 227.067 162.744 228.715 162.744 230.75C162.744 232.785 164.392 234.433 166.427 234.433C168.462 234.433 170.109 232.785 170.109 230.75C170.096 228.715 168.448 227.067 166.427 227.067Z" fill="#5B1E00"/>
<path fill-rule="evenodd" clip-rule="evenodd" d="M166.427 227.427C164.599 227.427 163.118 228.909 163.118 230.736C163.118 232.564 164.599 234.045 166.427 234.045C168.254 234.045 169.736 232.564 169.736 230.736C169.736 228.909 168.254 227.427 166.427 227.427Z" fill="url(#paint34_linear)"/>
<path opacity="0.5" fill-rule="evenodd" clip-rule="evenodd" d="M166.427 227.427C168.628 229.795 164.461 235.111 163.118 230.736C163.118 232.564 164.599 234.045 166.427 234.045C166.205 229.545 168.766 228.396 169.736 230.736C169.736 228.909 168.254 227.427 166.427 227.427Z" fill="url(#paint35_linear)"/>
<path d="M166.427 232.91C167.627 232.91 168.6 231.936 168.6 230.736C168.6 229.536 167.627 228.562 166.427 228.562C165.226 228.562 164.253 229.536 164.253 230.736C164.253 231.936 165.226 232.91 166.427 232.91Z" fill="url(#paint36_linear)"/>
<path opacity="0.5" fill-rule="evenodd" clip-rule="evenodd" d="M166.427 228.562C167.797 230.708 165.873 231.844 164.253 230.736C164.253 231.94 165.236 232.91 166.427 232.91C163.865 232.411 167.437 229.781 168.6 230.736C168.6 229.532 167.631 228.562 166.427 228.562Z" fill="url(#paint37_linear)"/>
<path fill-rule="evenodd" clip-rule="evenodd" d="M166.427 228.895C165.402 228.895 164.572 229.725 164.572 230.75C164.572 231.774 165.402 232.605 166.427 232.605C167.451 232.605 168.282 231.774 168.282 230.75C168.268 229.725 167.437 228.895 166.427 228.895Z" fill="url(#paint38_linear)"/>
<path fill-rule="evenodd" clip-rule="evenodd" d="M150.381 197.758L148.11 197.772C147.1 197.772 146.283 198.603 146.283 199.599C146.283 208.266 145.549 205.414 150.062 212.696C150.27 213.029 150.741 212.835 150.741 212.503V198.118C150.741 197.91 150.575 197.744 150.381 197.758Z" fill="url(#paint39_linear)"/>
<path fill-rule="evenodd" clip-rule="evenodd" d="M150.381 197.758L148.11 197.772C147.1 197.772 146.283 198.602 146.283 199.599C146.283 208.266 145.549 205.414 150.062 212.696C150.27 213.029 150.741 212.835 150.741 212.503V198.118C150.741 197.91 150.575 197.744 150.381 197.758ZM148.096 196.443L150.242 196.429C150.284 196.429 150.325 196.429 150.367 196.429C150.81 196.429 151.225 196.609 151.544 196.9C151.807 197.149 151.987 197.481 152.042 197.855C152.056 197.938 152.07 198.021 152.07 198.104V212.489C152.07 212.946 151.89 213.347 151.613 213.638C151.405 213.859 151.142 214.012 150.865 214.109C150.561 214.205 150.242 214.205 149.924 214.122C149.55 214.012 149.204 213.776 148.955 213.375C148.235 212.212 147.626 211.27 147.127 210.523C146.061 208.889 145.521 208.045 145.217 206.992C144.898 205.899 144.912 204.833 144.954 202.659C144.968 201.981 144.981 201.15 144.981 199.599C144.981 198.741 145.328 197.952 145.909 197.37C146.449 196.803 147.238 196.457 148.096 196.443ZM152.042 197.869C152.056 197.952 152.056 198.035 152.056 198.118L152.042 197.869Z" fill="black"/>
<path fill-rule="evenodd" clip-rule="evenodd" d="M150.381 197.758C149.619 197.758 148.872 197.772 148.11 197.772C147.1 197.772 146.283 198.602 146.283 199.599C146.283 208.266 145.549 205.414 150.062 212.696C148.346 206.065 146.615 200.776 150.381 197.758Z" fill="url(#paint40_linear)"/>
<path opacity="0.5" fill-rule="evenodd" clip-rule="evenodd" d="M153.607 197.675C155.31 197.675 157.013 197.675 158.715 197.675C154.59 202.437 155.365 207.865 156.043 213.707C157.899 229.656 167.147 243.058 169.168 242.518C178.278 240.081 181.421 236.454 187.139 230.556C187.429 231.428 187.72 232.314 188.011 233.186C188.26 233.92 188.039 234.696 187.429 235.18C182.113 239.527 176.797 243.888 171.48 248.236C169.763 249.648 167.23 249.219 166.053 247.336C160.861 239.043 155.683 230.736 150.492 222.443C150.118 221.834 149.938 221.225 149.938 220.505C149.938 214.108 149.938 207.712 149.938 201.33C149.952 199.322 151.599 197.675 153.607 197.675Z" fill="url(#paint41_linear)"/>
</g>
</g>
<defs>
<linearGradient id="paint0_linear" x1="112.812" y1="223.374" x2="85.7726" y2="223.373" gradientUnits="userSpaceOnUse">
<stop stop-color="#FFD13A"/>
<stop offset="1" stop-color="#FAEF5F"/>
</linearGradient>
<linearGradient id="paint1_linear" x1="116.709" y1="199.887" x2="95.7297" y2="237.113" gradientUnits="userSpaceOnUse">
<stop stop-color="#FFD13A"/>
<stop offset="1" stop-color="#F9F185"/>
</linearGradient>
<linearGradient id="paint2_linear" x1="111.097" y1="221.094" x2="107.862" y2="219.404" gradientUnits="userSpaceOnUse">
<stop stop-color="#FFD13A"/>
<stop offset="1" stop-color="#F9F185"/>
</linearGradient>
<linearGradient id="paint3_linear" x1="109.512" y1="223.588" x2="106.739" y2="222.14" gradientUnits="userSpaceOnUse">
<stop stop-color="#FFD13A"/>
<stop offset="1" stop-color="#F9F185"/>
</linearGradient>
<linearGradient id="paint4_linear" x1="107.926" y1="226.083" x2="105.616" y2="224.876" gradientUnits="userSpaceOnUse">
<stop stop-color="#FFD13A"/>
<stop offset="1" stop-color="#F9F185"/>
</linearGradient>
<linearGradient id="paint5_linear" x1="111.68" y1="216.309" x2="104.251" y2="227.648" gradientUnits="userSpaceOnUse">
<stop stop-color="#FFD13A"/>
<stop offset="0.53" stop-color="#FAEF5F"/>
<stop offset="1" stop-color="#FFD13A"/>
</linearGradient>
<linearGradient id="paint6_linear" x1="111.518" y1="216.475" x2="104.759" y2="227.156" gradientUnits="userSpaceOnUse">
<stop stop-color="#3B3092"/>
<stop offset="0.51" stop-color="#A5DBDB"/>
<stop offset="1" stop-color="#3B3092"/>
</linearGradient>
<linearGradient id="paint7_linear" x1="119.947" y1="200.374" x2="113.158" y2="210.515" gradientUnits="userSpaceOnUse">
<stop stop-color="#FFD13A"/>
<stop offset="0.53" stop-color="#FAEF5F"/>
<stop offset="1" stop-color="#FFD13A"/>
</linearGradient>
<linearGradient id="paint8_linear" x1="114.159" y1="217.858" x2="114.16" y2="211.277" gradientUnits="userSpaceOnUse">
<stop stop-color="#FFF032"/>
<stop offset="1" stop-color="#FAEF5F"/>
</linearGradient>
<linearGradient id="paint9_linear" x1="115.215" y1="216.102" x2="113.03" y2="212.969" gradientUnits="userSpaceOnUse">
<stop stop-color="#FAEF5F"/>
<stop offset="1" stop-color="white"/>
</linearGradient>
<linearGradient id="paint10_linear" x1="114.159" y1="216.615" x2="114.161" y2="212.524" gradientUnits="userSpaceOnUse">
<stop stop-color="#3B3092"/>
<stop offset="1" stop-color="#2B3594"/>
</linearGradient>
<linearGradient id="paint11_linear" x1="115.215" y1="215.529" x2="113.009" y2="213.564" gradientUnits="userSpaceOnUse">
<stop stop-color="#A5DBDB"/>
<stop offset="1" stop-color="white"/>
</linearGradient>
<linearGradient id="paint12_linear" x1="114.159" y1="216.438" x2="114.16" y2="212.739" gradientUnits="userSpaceOnUse">
<stop stop-color="#FAEF5F"/>
<stop offset="1" stop-color="#FDFAD3"/>
</linearGradient>
<linearGradient id="paint13_linear" x1="104.106" y1="234.01" x2="104.108" y2="227.429" gradientUnits="userSpaceOnUse">
<stop stop-color="#FFF032"/>
<stop offset="1" stop-color="#FAEF5F"/>
</linearGradient>
<linearGradient id="paint14_linear" x1="105.162" y1="232.254" x2="102.977" y2="229.121" gradientUnits="userSpaceOnUse">
<stop stop-color="#FAEF5F"/>
<stop offset="1" stop-color="white"/>
</linearGradient>
<linearGradient id="paint15_linear" x1="104.106" y1="232.767" x2="104.108" y2="228.675" gradientUnits="userSpaceOnUse">
<stop stop-color="#3B3092"/>
<stop offset="1" stop-color="#2B3594"/>
</linearGradient>
<linearGradient id="paint16_linear" x1="105.163" y1="231.68" x2="102.956" y2="229.716" gradientUnits="userSpaceOnUse">
<stop stop-color="#A5DBDB"/>
<stop offset="1" stop-color="white"/>
</linearGradient>
<linearGradient id="paint17_linear" x1="104.106" y1="232.59" x2="104.107" y2="228.89" gradientUnits="userSpaceOnUse">
<stop stop-color="#FAEF5F"/>
<stop offset="1" stop-color="#FDFAD3"/>
</linearGradient>
<linearGradient id="paint18_linear" x1="124.282" y1="205.312" x2="120.106" y2="205.31" gradientUnits="userSpaceOnUse">
<stop stop-color="#F9F185"/>
<stop offset="1" stop-color="#FDFAD3"/>
</linearGradient>
<linearGradient id="paint19_linear" x1="124.284" y1="205.224" x2="119.783" y2="205.222" gradientUnits="userSpaceOnUse">
<stop stop-color="#FFD13A"/>
<stop offset="1" stop-color="#F9F185"/>
</linearGradient>
<linearGradient id="paint20_linear" x1="114.878" y1="220.417" x2="86.1958" y2="231.062" gradientUnits="userSpaceOnUse">
<stop stop-color="#FFD13A"/>
<stop offset="1" stop-color="white"/>
</linearGradient>
<linearGradient id="paint21_linear" x1="157.717" y1="223.374" x2="184.757" y2="223.373" gradientUnits="userSpaceOnUse">
<stop stop-color="#FFD13A"/>
<stop offset="1" stop-color="#FAEF5F"/>
</linearGradient>
<linearGradient id="paint22_linear" x1="153.82" y1="199.887" x2="174.799" y2="237.113" gradientUnits="userSpaceOnUse">
<stop stop-color="#FFD13A"/>
<stop offset="1" stop-color="#F9F185"/>
</linearGradient>
<linearGradient id="paint23_linear" x1="159.432" y1="221.094" x2="162.667" y2="219.404" gradientUnits="userSpaceOnUse">
<stop stop-color="#FFD13A"/>
<stop offset="1" stop-color="#F9F185"/>
</linearGradient>
<linearGradient id="paint24_linear" x1="161.018" y1="223.588" x2="163.79" y2="222.14" gradientUnits="userSpaceOnUse">
<stop stop-color="#FFD13A"/>
<stop offset="1" stop-color="#F9F185"/>
</linearGradient>
<linearGradient id="paint25_linear" x1="162.603" y1="226.083" x2="164.913" y2="224.876" gradientUnits="userSpaceOnUse">
<stop stop-color="#FFD13A"/>
<stop offset="1" stop-color="#F9F185"/>
</linearGradient>
<linearGradient id="paint26_linear" x1="158.849" y1="216.309" x2="166.278" y2="227.648" gradientUnits="userSpaceOnUse">
<stop stop-color="#FFD13A"/>
<stop offset="0.53" stop-color="#FAEF5F"/>
<stop offset="1" stop-color="#FFD13A"/>
</linearGradient>
<linearGradient id="paint27_linear" x1="159.011" y1="216.475" x2="165.77" y2="227.156" gradientUnits="userSpaceOnUse">
<stop stop-color="#3B3092"/>
<stop offset="0.51" stop-color="#A5DBDB"/>
<stop offset="1" stop-color="#3B3092"/>
</linearGradient>
<linearGradient id="paint28_linear" x1="150.582" y1="200.374" x2="157.371" y2="210.515" gradientUnits="userSpaceOnUse">
<stop stop-color="#FFD13A"/>
<stop offset="0.53" stop-color="#FAEF5F"/>
<stop offset="1" stop-color="#FFD13A"/>
</linearGradient>
<linearGradient id="paint29_linear" x1="156.37" y1="217.858" x2="156.369" y2="211.277" gradientUnits="userSpaceOnUse">
<stop stop-color="#FFF032"/>
<stop offset="1" stop-color="#FAEF5F"/>
</linearGradient>
<linearGradient id="paint30_linear" x1="155.314" y1="216.102" x2="157.499" y2="212.969" gradientUnits="userSpaceOnUse">
<stop stop-color="#FAEF5F"/>
<stop offset="1" stop-color="white"/>
</linearGradient>
<linearGradient id="paint31_linear" x1="156.37" y1="216.615" x2="156.369" y2="212.524" gradientUnits="userSpaceOnUse">
<stop stop-color="#3B3092"/>
<stop offset="1" stop-color="#2B3594"/>
</linearGradient>
<linearGradient id="paint32_linear" x1="155.314" y1="215.529" x2="157.52" y2="213.564" gradientUnits="userSpaceOnUse">
<stop stop-color="#A5DBDB"/>
<stop offset="1" stop-color="white"/>
</linearGradient>
<linearGradient id="paint33_linear" x1="156.371" y1="216.438" x2="156.369" y2="212.739" gradientUnits="userSpaceOnUse">
<stop stop-color="#FAEF5F"/>
<stop offset="1" stop-color="#FDFAD3"/>
</linearGradient>
<linearGradient id="paint34_linear" x1="166.423" y1="234.01" x2="166.422" y2="227.429" gradientUnits="userSpaceOnUse">
<stop stop-color="#FFF032"/>
<stop offset="1" stop-color="#FAEF5F"/>
</linearGradient>
<linearGradient id="paint35_linear" x1="165.367" y1="232.254" x2="167.552" y2="229.121" gradientUnits="userSpaceOnUse">
<stop stop-color="#FAEF5F"/>
<stop offset="1" stop-color="white"/>
</linearGradient>
<linearGradient id="paint36_linear" x1="166.423" y1="232.767" x2="166.421" y2="228.675" gradientUnits="userSpaceOnUse">
<stop stop-color="#3B3092"/>
<stop offset="1" stop-color="#2B3594"/>
</linearGradient>
<linearGradient id="paint37_linear" x1="165.366" y1="231.68" x2="167.573" y2="229.716" gradientUnits="userSpaceOnUse">
<stop stop-color="#A5DBDB"/>
<stop offset="1" stop-color="white"/>
</linearGradient>
<linearGradient id="paint38_linear" x1="166.423" y1="232.59" x2="166.421" y2="228.89" gradientUnits="userSpaceOnUse">
<stop stop-color="#FAEF5F"/>
<stop offset="1" stop-color="#FDFAD3"/>
</linearGradient>
<linearGradient id="paint39_linear" x1="146.248" y1="205.312" x2="150.424" y2="205.31" gradientUnits="userSpaceOnUse">
<stop stop-color="#F9F185"/>
<stop offset="1" stop-color="#FDFAD3"/>
</linearGradient>
<linearGradient id="paint40_linear" x1="146.245" y1="205.224" x2="150.746" y2="205.222" gradientUnits="userSpaceOnUse">
<stop stop-color="#FFD13A"/>
<stop offset="1" stop-color="#F9F185"/>
</linearGradient>
<linearGradient id="paint41_linear" x1="155.652" y1="220.417" x2="184.334" y2="231.062" gradientUnits="userSpaceOnUse">
<stop stop-color="#FFD13A"/>
<stop offset="1" stop-color="white"/>
</linearGradient>
<clipPath id="clip0">
<rect width="270" height="370" fill="white"/>
</clipPath>
<clipPath id="clip1">
<rect x="81.088" y="107.989" width="108.349" height="142.407" fill="white"/>
</clipPath>
</defs>
</svg>
