<svg width="270" height="370" viewBox="0 0 270 370" fill="none" xmlns="http://www.w3.org/2000/svg">
<g clip-path="url(#clip0)">
<g clip-path="url(#clip1)">
<path fill-rule="evenodd" clip-rule="evenodd" d="M114.094 199.419L122.304 198.007C122.927 197.896 123.508 198.298 123.647 198.907L125.253 206.051C125.363 206.549 125.156 207.048 124.726 207.311L118.206 211.34L114.094 199.419Z" fill="url(#paint0_linear)"/>
<path fill-rule="evenodd" clip-rule="evenodd" d="M113.872 198.118L122.082 196.706C122.733 196.595 123.383 196.747 123.896 197.093C124.408 197.439 124.796 197.979 124.948 198.616L126.554 205.76C126.678 206.286 126.623 206.812 126.429 207.283C126.415 207.311 126.402 207.352 126.388 207.38C126.18 207.809 125.862 208.169 125.432 208.432L118.912 212.461C118.289 212.849 117.472 212.655 117.098 212.032C117.043 211.935 117.001 211.838 116.959 211.741L112.848 199.835C112.612 199.142 112.972 198.395 113.664 198.159C113.734 198.146 113.803 198.132 113.872 198.118ZM114.094 199.419L122.304 198.007C122.927 197.896 123.508 198.298 123.646 198.907L125.252 206.051C125.363 206.549 125.156 207.048 124.726 207.311L118.206 211.34L114.094 199.419Z" fill="black"/>
<path opacity="0.5" fill-rule="evenodd" clip-rule="evenodd" d="M114.094 199.419C114.814 199.295 115.547 199.17 116.267 199.046C115.99 201.648 121.847 208.501 124.45 202.424C124.726 203.628 124.99 204.846 125.266 206.051C125.377 206.549 125.17 207.048 124.74 207.311C122.567 208.654 120.393 209.997 118.219 211.34C116.849 207.38 115.464 203.407 114.094 199.419Z" fill="url(#paint1_linear)"/>
<path fill-rule="evenodd" clip-rule="evenodd" d="M102.672 205.594L112.64 199.405C113.388 198.935 114.371 199.142 114.883 199.862L120.781 208.321C121.196 208.917 121.182 209.664 120.767 210.246L114.412 218.968L102.672 205.594Z" fill="url(#paint2_linear)"/>
<path fill-rule="evenodd" clip-rule="evenodd" d="M101.98 204.473L111.948 198.284C112.626 197.869 113.401 197.744 114.121 197.896C114.841 198.049 115.52 198.464 115.977 199.115L121.874 207.574C122.234 208.1 122.414 208.695 122.414 209.304C122.414 209.914 122.221 210.509 121.833 211.035L115.478 219.757C115.049 220.353 114.218 220.477 113.637 220.048C113.554 219.993 113.485 219.923 113.415 219.854L101.703 206.494C101.218 205.94 101.273 205.109 101.827 204.625C101.855 204.556 101.924 204.514 101.98 204.473ZM102.672 205.594L112.64 199.405C113.388 198.935 114.371 199.142 114.883 199.862L120.781 208.321C121.196 208.917 121.182 209.664 120.767 210.246L114.412 218.968L102.672 205.594Z" fill="black"/>
<path opacity="0.5" fill-rule="evenodd" clip-rule="evenodd" d="M102.672 205.594C103.558 205.04 104.43 204.5 105.316 203.947C106.341 207.491 117.61 213.319 117.776 204.016C118.773 205.442 119.77 206.882 120.767 208.308C121.182 208.903 121.168 209.651 120.753 210.232C118.635 213.139 116.516 216.047 114.398 218.954C110.494 214.51 106.576 210.052 102.672 205.594Z" fill="url(#paint3_linear)"/>
<path fill-rule="evenodd" clip-rule="evenodd" d="M99.5845 207.698L90.447 231.013L78.3882 223.911C77.7929 223.564 77.1837 223.412 76.4915 223.454L68.6277 223.952C67.977 223.994 67.7693 224.838 68.3231 225.184L96.0402 242.13C97.5908 243.072 99.626 242.601 100.581 241.064L114.398 218.954C114.772 218.345 114.952 217.736 114.952 217.016V208.917C114.952 207.089 113.457 205.594 111.629 205.594H102.672C101.287 205.594 100.097 206.411 99.5845 207.698Z" fill="url(#paint4_linear)"/>
<path fill-rule="evenodd" clip-rule="evenodd" d="M99.5844 207.698L90.4469 231.013L78.3882 223.911C77.7929 223.564 77.1837 223.412 76.4915 223.454L68.6277 223.952C67.977 223.994 67.7693 224.838 68.3231 225.184L96.0402 242.13C97.5908 243.072 99.626 242.601 100.581 241.064L114.398 218.954C114.772 218.345 114.952 217.736 114.952 217.016V208.917C114.952 207.089 113.457 205.594 111.629 205.594H102.672C101.287 205.594 100.097 206.411 99.5844 207.698ZM89.7824 229.089L98.3523 207.228C98.7122 206.328 99.2937 205.594 100.055 205.082C100.817 204.57 101.717 204.279 102.672 204.279H111.629C112.903 204.279 114.066 204.805 114.897 205.636C115.741 206.48 116.253 207.643 116.253 208.917V217.016C116.253 217.501 116.198 217.944 116.06 218.387C115.935 218.83 115.741 219.245 115.492 219.646L101.675 241.756C100.997 242.836 99.9444 243.542 98.7953 243.819C97.6462 244.082 96.4002 243.93 95.3203 243.266L67.6447 226.306C67.2432 226.057 66.9801 225.724 66.8279 225.35C66.814 225.323 66.8002 225.281 66.7863 225.24C66.6617 224.88 66.6617 224.492 66.7448 224.132C66.8279 223.772 67.0217 223.44 67.2986 223.177C67.617 222.872 68.0462 222.665 68.5446 222.623L76.4084 222.125C76.8791 222.097 77.336 222.125 77.7652 222.235C78.2082 222.346 78.6235 222.512 79.0389 222.748L89.7824 229.089Z" fill="black"/>
<path fill-rule="evenodd" clip-rule="evenodd" d="M68.6415 223.952C67.9908 223.994 67.7831 224.838 68.3369 225.184L96.0402 242.13C97.5908 243.072 99.626 242.601 100.581 241.064C91.8729 237.894 77.7928 229.241 68.6415 223.952Z" fill="#FFD137"/>
<path fill-rule="evenodd" clip-rule="evenodd" d="M106.687 214.607C106.396 218.248 99.9029 236.592 93.4789 234.862C87.2904 233.2 69.4999 225.904 68.6277 223.952C68.0185 223.731 67.7693 224.838 68.3231 225.184C77.5575 230.833 86.7919 236.496 96.0264 242.144C97.577 243.086 99.6122 242.615 100.567 241.078C105.178 233.713 109.774 226.347 114.384 218.968C114.758 218.359 114.938 217.75 114.938 217.03C114.938 213.223 114.938 212.738 114.938 208.931C113.637 212.932 111.865 216.185 106.687 214.607Z" fill="url(#paint5_linear)"/>
<path fill-rule="evenodd" clip-rule="evenodd" d="M95.611 229.13L101.26 232.176C102.035 232.591 102.99 232.342 103.447 231.594L107.877 224.506C108.113 224.132 108.223 223.744 108.223 223.288V218.22C108.223 217.071 107.296 216.144 106.147 216.144H100.54C99.6675 216.144 98.9198 216.656 98.6014 217.459L94.8357 227.053C94.5449 227.842 94.8633 228.729 95.611 229.13Z" fill="#5B1E00"/>
<path fill-rule="evenodd" clip-rule="evenodd" d="M95.7633 228.839L101.412 231.885C102.035 232.217 102.796 232.01 103.17 231.414L107.601 224.326C107.808 223.994 107.905 223.675 107.905 223.288V218.22C107.905 217.265 107.116 216.476 106.161 216.476H100.554C99.8198 216.476 99.1968 216.905 98.9338 217.584L95.168 227.178C94.9188 227.815 95.168 228.521 95.7633 228.839Z" fill="url(#paint6_linear)"/>
<path opacity="0.5" fill-rule="evenodd" clip-rule="evenodd" d="M95.7633 228.839L101.412 231.885C102.035 232.217 102.796 232.01 103.17 231.414L107.601 224.326C107.808 223.994 107.905 223.675 107.905 223.288V218.22C107.905 217.265 107.116 216.476 106.161 216.476C107.268 217.265 106.313 222.831 103.779 222.775C102.09 226.541 99.6121 230.127 95.7633 228.839Z" fill="url(#paint7_linear)"/>
<path fill-rule="evenodd" clip-rule="evenodd" d="M110.273 206.619C112.308 206.619 113.955 208.266 113.955 210.301C113.955 212.336 112.308 213.984 110.273 213.984C108.237 213.984 106.59 212.336 106.59 210.301C106.59 208.266 108.237 206.619 110.273 206.619Z" fill="#5B1E00"/>
<path fill-rule="evenodd" clip-rule="evenodd" d="M110.273 206.992C112.1 206.992 113.582 208.474 113.582 210.301C113.582 212.129 112.1 213.61 110.273 213.61C108.445 213.61 106.964 212.129 106.964 210.301C106.964 208.474 108.445 206.992 110.273 206.992Z" fill="url(#paint8_linear)"/>
<path opacity="0.5" fill-rule="evenodd" clip-rule="evenodd" d="M110.273 206.992C108.071 209.36 112.239 214.676 113.582 210.301C113.582 212.129 112.1 213.61 110.273 213.61C110.494 209.111 107.933 207.961 106.964 210.301C106.964 208.474 108.445 206.992 110.273 206.992Z" fill="url(#paint9_linear)"/>
<path fill-rule="evenodd" clip-rule="evenodd" d="M110.273 208.114C111.477 208.114 112.446 209.097 112.446 210.287C112.446 211.492 111.463 212.461 110.273 212.461C109.068 212.461 108.099 211.478 108.099 210.287C108.099 209.097 109.068 208.114 110.273 208.114Z" fill="url(#paint10_linear)"/>
<path opacity="0.5" fill-rule="evenodd" clip-rule="evenodd" d="M110.273 208.114C108.902 210.26 110.826 211.395 112.446 210.287C112.446 211.492 111.463 212.461 110.273 212.461C112.82 211.963 109.262 209.332 108.099 210.287C108.099 209.097 109.068 208.114 110.273 208.114Z" fill="url(#paint11_linear)"/>
<path fill-rule="evenodd" clip-rule="evenodd" d="M110.272 208.446C111.297 208.446 112.128 209.277 112.128 210.301C112.128 211.326 111.297 212.156 110.272 212.156C109.248 212.156 108.417 211.326 108.417 210.301C108.417 209.277 109.248 208.446 110.272 208.446Z" fill="url(#paint12_linear)"/>
<path fill-rule="evenodd" clip-rule="evenodd" d="M90.4469 231.013L90.5715 230.695L102.713 237.617L102.547 237.908L90.4469 231.013Z" fill="#5B1E00"/>
<path fill-rule="evenodd" clip-rule="evenodd" d="M79.0251 231.733L78.7482 231.567C79.4127 230.598 80.2296 229.739 81.1848 229.047C81.351 228.936 81.5586 228.922 81.7248 229.019L91.5545 234.806C91.8453 234.972 91.8868 235.388 91.6238 235.609C90.7654 236.329 90.0039 237.146 89.3117 238.018L89.0348 237.852C89.7547 236.966 90.5439 236.108 91.4161 235.36C91.4992 235.263 91.4992 235.18 91.3884 235.097L81.5586 229.31C81.5033 229.268 81.434 229.282 81.3787 229.324C80.4511 229.975 79.6758 230.791 79.0251 231.733Z" fill="#5B1E00"/>
<path fill-rule="evenodd" clip-rule="evenodd" d="M114.952 210.952V211.492L112.059 215.825C111.754 216.268 111.311 216.559 110.813 216.656C110.328 216.753 109.788 216.67 109.345 216.365L105.025 213.486C104.582 213.181 104.292 212.738 104.195 212.24C104.098 211.755 104.181 211.215 104.485 210.772L107.933 205.58H108.293L104.735 210.924C104.222 211.686 104.43 212.724 105.192 213.222L109.511 216.102C110.273 216.614 111.311 216.407 111.809 215.645L114.952 210.952Z" fill="#5B1E00"/>
<path fill-rule="evenodd" clip-rule="evenodd" d="M103.198 216.393C103.239 216.31 103.336 216.282 103.419 216.324C103.502 216.365 103.53 216.462 103.489 216.545L101.758 219.896C101.578 220.269 101.55 220.671 101.661 221.031C101.772 221.391 102.035 221.709 102.395 221.903L104.305 222.886C104.652 223.066 105.039 223.094 105.399 222.997C105.745 222.9 106.064 222.665 106.271 222.332L107.905 219.619C107.947 219.536 108.057 219.522 108.127 219.563C108.21 219.605 108.224 219.716 108.182 219.785L106.576 222.485C106.327 222.9 105.939 223.177 105.51 223.301C105.081 223.426 104.61 223.384 104.181 223.177L102.27 222.194C101.827 221.958 101.509 221.571 101.37 221.128C101.232 220.685 101.26 220.186 101.481 219.743C102.035 218.622 102.63 217.514 103.198 216.393Z" fill="#5B1E00"/>
<path fill-rule="evenodd" clip-rule="evenodd" d="M100.166 209.166C100.166 208.889 100.388 208.668 100.664 208.668C100.941 208.668 101.163 208.889 101.163 209.166V214.552C101.163 214.828 100.941 215.05 100.664 215.05C100.388 215.05 100.166 214.828 100.166 214.552V209.166Z" fill="#5B1E00"/>
<path fill-rule="evenodd" clip-rule="evenodd" d="M100.332 209.166C100.332 208.986 100.484 208.834 100.664 208.834C100.844 208.834 100.997 208.986 100.997 209.166V214.552C100.997 214.732 100.844 214.884 100.664 214.884C100.484 214.884 100.332 214.732 100.332 214.552V209.166Z" fill="url(#paint13_radial)"/>
<path fill-rule="evenodd" clip-rule="evenodd" d="M100.498 209.166C100.498 209.069 100.568 209 100.665 209C100.761 209 100.831 209.069 100.831 209.166V214.552C100.831 214.649 100.761 214.718 100.665 214.718C100.568 214.718 100.498 214.649 100.498 214.552V209.166Z" fill="url(#paint14_radial)"/>
<path opacity="0.5" fill-rule="evenodd" clip-rule="evenodd" d="M100.332 209.166C100.498 210.509 100.664 211.866 100.997 210.994C100.997 212.06 100.997 213.126 100.997 214.192C100.831 212.987 100.568 212.06 100.332 212.364C100.332 211.298 100.332 210.232 100.332 209.166Z" fill="url(#paint15_linear)"/>
<path fill-rule="evenodd" clip-rule="evenodd" d="M101.813 209.166C101.813 208.889 102.035 208.668 102.312 208.668C102.589 208.668 102.81 208.889 102.81 209.166V214.552C102.81 214.828 102.589 215.05 102.312 215.05C102.035 215.05 101.813 214.828 101.813 214.552V209.166Z" fill="#5B1E00"/>
<path fill-rule="evenodd" clip-rule="evenodd" d="M101.98 209.166C101.98 208.986 102.132 208.834 102.312 208.834C102.492 208.834 102.644 208.986 102.644 209.166V214.552C102.644 214.732 102.492 214.884 102.312 214.884C102.132 214.884 101.98 214.732 101.98 214.552V209.166Z" fill="url(#paint16_radial)"/>
<path fill-rule="evenodd" clip-rule="evenodd" d="M102.146 209.166C102.146 209.069 102.215 209 102.312 209C102.409 209 102.478 209.069 102.478 209.166V214.552C102.478 214.649 102.409 214.718 102.312 214.718C102.215 214.718 102.146 214.649 102.146 214.552V209.166Z" fill="url(#paint17_radial)"/>
<path opacity="0.5" fill-rule="evenodd" clip-rule="evenodd" d="M101.98 209.166C102.146 210.509 102.312 211.866 102.644 210.994C102.644 212.06 102.644 213.126 102.644 214.192C102.478 212.987 102.215 212.06 101.98 212.364C101.98 211.298 101.98 210.232 101.98 209.166Z" fill="url(#paint18_linear)"/>
<path opacity="0.5" fill-rule="evenodd" clip-rule="evenodd" d="M98.0477 239.001C96.7325 241.341 66.5371 225.738 76.4915 223.454L68.6277 223.952C67.977 223.994 67.7693 224.838 68.3231 225.184L96.0402 242.13C97.5908 243.072 99.626 242.601 100.581 241.064L114.398 218.954C114.772 218.345 114.952 217.736 114.952 217.016V208.917C114.952 207.089 113.457 205.594 111.629 205.594C110.051 214.939 107.379 222.554 98.0477 239.001Z" fill="url(#paint19_linear)"/>
<path fill-rule="evenodd" clip-rule="evenodd" d="M156.403 199.419L148.193 198.007C147.57 197.896 146.989 198.298 146.85 198.907L145.244 206.051C145.134 206.549 145.341 207.048 145.77 207.311L152.291 211.34L156.403 199.419Z" fill="url(#paint20_linear)"/>
<path fill-rule="evenodd" clip-rule="evenodd" d="M156.403 199.419L148.193 198.007C147.57 197.896 146.989 198.298 146.85 198.907L145.244 206.051C145.134 206.549 145.341 207.048 145.77 207.311L152.291 211.34L156.403 199.419ZM148.415 196.706L156.625 198.118C156.694 198.132 156.763 198.146 156.832 198.173C157.525 198.409 157.884 199.156 157.649 199.848L153.537 211.755C153.51 211.852 153.454 211.963 153.399 212.046C153.011 212.669 152.194 212.862 151.585 212.475L145.064 208.446C144.635 208.183 144.317 207.809 144.109 207.394C144.095 207.366 144.081 207.325 144.067 207.297C143.874 206.826 143.818 206.3 143.943 205.774L145.549 198.63C145.701 197.979 146.089 197.439 146.601 197.107C147.113 196.761 147.764 196.595 148.415 196.706Z" fill="black"/>
<path opacity="0.5" fill-rule="evenodd" clip-rule="evenodd" d="M156.403 199.419C155.683 199.295 154.949 199.17 154.229 199.045C154.506 201.648 148.65 208.501 146.047 202.424C145.77 203.628 145.507 204.846 145.23 206.051C145.12 206.549 145.327 207.048 145.756 207.311C147.93 208.654 150.104 209.997 152.277 211.34C153.648 207.38 155.032 203.406 156.403 199.419Z" fill="url(#paint21_linear)"/>
<path fill-rule="evenodd" clip-rule="evenodd" d="M167.825 205.594L157.857 199.405C157.109 198.935 156.126 199.142 155.614 199.862L149.716 208.321C149.301 208.917 149.315 209.664 149.73 210.246L156.085 218.968L167.825 205.594Z" fill="url(#paint22_linear)"/>
<path fill-rule="evenodd" clip-rule="evenodd" d="M167.825 205.594L157.857 199.405C157.109 198.935 156.126 199.142 155.614 199.862L149.716 208.321C149.301 208.917 149.315 209.664 149.73 210.246L156.085 218.968L167.825 205.594ZM158.563 198.284L168.531 204.473C168.586 204.514 168.642 204.556 168.697 204.597C169.251 205.082 169.306 205.912 168.822 206.466L157.095 219.826C157.026 219.896 156.957 219.965 156.874 220.02C156.279 220.449 155.462 220.325 155.033 219.729L148.678 211.007C148.304 210.495 148.11 209.886 148.096 209.277C148.096 208.667 148.262 208.072 148.636 207.546L154.534 199.087C154.991 198.436 155.656 198.021 156.389 197.869C157.109 197.744 157.885 197.855 158.563 198.284Z" fill="black"/>
<path opacity="0.5" fill-rule="evenodd" clip-rule="evenodd" d="M167.825 205.594C166.939 205.04 166.067 204.5 165.181 203.946C164.156 207.491 152.887 213.319 152.72 204.016C151.724 205.442 150.727 206.881 149.73 208.307C149.315 208.903 149.328 209.65 149.744 210.232C151.862 213.139 153.98 216.047 156.099 218.954C160.003 214.51 163.907 210.052 167.825 205.594Z" fill="url(#paint23_linear)"/>
<path fill-rule="evenodd" clip-rule="evenodd" d="M170.912 207.698L180.05 231.013L192.109 223.911C192.704 223.564 193.313 223.412 194.005 223.454L201.869 223.952C202.52 223.994 202.727 224.838 202.174 225.184L174.457 242.13C172.906 243.072 170.871 242.601 169.915 241.064L156.098 218.954C155.725 218.345 155.545 217.736 155.545 217.016V208.917C155.545 207.089 157.04 205.594 158.867 205.594H167.825C169.209 205.594 170.4 206.411 170.912 207.698Z" fill="url(#paint24_linear)"/>
<path fill-rule="evenodd" clip-rule="evenodd" d="M172.144 207.228L180.714 229.089L191.444 222.775C191.859 222.54 192.275 222.36 192.718 222.263C193.147 222.166 193.604 222.125 194.075 222.152L201.938 222.651C202.451 222.678 202.866 222.886 203.184 223.205C203.461 223.468 203.655 223.814 203.738 224.16C203.821 224.52 203.821 224.907 203.697 225.267C203.683 225.309 203.669 225.337 203.655 225.378C203.503 225.752 203.24 226.098 202.838 226.333L175.149 243.266C174.069 243.93 172.809 244.096 171.674 243.819C170.525 243.542 169.472 242.836 168.794 241.756L154.977 219.646C154.728 219.231 154.534 218.816 154.409 218.387C154.285 217.944 154.216 217.487 154.216 217.016V208.917C154.216 207.643 154.742 206.48 155.572 205.636C156.417 204.791 157.58 204.279 158.84 204.279H167.797C168.766 204.279 169.666 204.57 170.414 205.082C171.189 205.58 171.785 206.314 172.144 207.228ZM170.912 207.698L180.05 231.013L192.109 223.911C192.704 223.564 193.313 223.412 194.005 223.454L201.869 223.952C202.52 223.994 202.727 224.838 202.174 225.184L174.457 242.13C172.906 243.072 170.871 242.601 169.915 241.064L156.098 218.954C155.725 218.345 155.545 217.736 155.545 217.016V208.917C155.545 207.089 157.04 205.594 158.867 205.594H167.825C169.209 205.594 170.4 206.411 170.912 207.698Z" fill="black"/>
<path fill-rule="evenodd" clip-rule="evenodd" d="M201.855 223.952C202.506 223.994 202.714 224.838 202.16 225.184L174.457 242.13C172.906 243.072 170.871 242.601 169.916 241.064C178.624 237.894 192.704 229.241 201.855 223.952Z" fill="#FFD137"/>
<path fill-rule="evenodd" clip-rule="evenodd" d="M163.796 214.607C164.087 218.248 170.58 236.592 177.004 234.862C183.193 233.2 200.983 225.904 201.855 223.952C202.464 223.731 202.714 224.838 202.16 225.184C192.925 230.833 183.691 236.496 174.457 242.144C172.906 243.086 170.871 242.615 169.915 241.078C165.305 233.713 160.709 226.347 156.098 218.968C155.725 218.359 155.545 217.75 155.545 217.03C155.545 213.223 155.545 212.738 155.545 208.931C156.86 212.932 158.618 216.185 163.796 214.607Z" fill="url(#paint25_linear)"/>
<path fill-rule="evenodd" clip-rule="evenodd" d="M174.886 229.13L169.237 232.176C168.462 232.591 167.507 232.342 167.05 231.594L162.619 224.506C162.384 224.132 162.273 223.744 162.273 223.288V218.22C162.273 217.071 163.201 216.144 164.35 216.144H169.957C170.829 216.144 171.577 216.656 171.895 217.459L175.661 227.053C175.952 227.842 175.633 228.729 174.886 229.13Z" fill="#5B1E00"/>
<path fill-rule="evenodd" clip-rule="evenodd" d="M174.734 228.839L169.085 231.885C168.462 232.217 167.7 232.01 167.327 231.414L162.896 224.326C162.689 223.994 162.592 223.675 162.592 223.288V218.22C162.592 217.265 163.381 216.476 164.336 216.476H169.943C170.677 216.476 171.3 216.905 171.563 217.584L175.329 227.178C175.578 227.815 175.329 228.521 174.734 228.839Z" fill="url(#paint26_linear)"/>
<path opacity="0.5" fill-rule="evenodd" clip-rule="evenodd" d="M174.733 228.839L169.085 231.885C168.462 232.217 167.7 232.01 167.327 231.414L162.896 224.326C162.689 223.994 162.592 223.675 162.592 223.288V218.22C162.592 217.265 163.381 216.476 164.336 216.476C163.229 217.265 164.184 222.831 166.717 222.775C168.406 226.541 170.885 230.127 174.733 228.839Z" fill="url(#paint27_linear)"/>
<path fill-rule="evenodd" clip-rule="evenodd" d="M160.224 206.619C158.189 206.619 156.542 208.266 156.542 210.301C156.542 212.336 158.189 213.984 160.224 213.984C162.259 213.984 163.907 212.336 163.907 210.301C163.907 208.266 162.259 206.619 160.224 206.619Z" fill="#5B1E00"/>
<path fill-rule="evenodd" clip-rule="evenodd" d="M160.224 206.992C158.397 206.992 156.915 208.474 156.915 210.301C156.915 212.129 158.397 213.61 160.224 213.61C162.052 213.61 163.533 212.129 163.533 210.301C163.533 208.474 162.052 206.992 160.224 206.992Z" fill="url(#paint28_linear)"/>
<path opacity="0.5" fill-rule="evenodd" clip-rule="evenodd" d="M160.224 206.992C162.426 209.36 158.258 214.676 156.915 210.301C156.915 212.129 158.397 213.61 160.224 213.61C160.003 209.111 162.564 207.961 163.533 210.301C163.533 208.474 162.052 206.992 160.224 206.992Z" fill="url(#paint29_linear)"/>
<path fill-rule="evenodd" clip-rule="evenodd" d="M160.224 208.114C159.02 208.114 158.051 209.097 158.051 210.287C158.051 211.492 159.034 212.461 160.224 212.461C161.429 212.461 162.398 211.478 162.398 210.287C162.398 209.097 161.429 208.114 160.224 208.114Z" fill="url(#paint30_linear)"/>
<path opacity="0.5" fill-rule="evenodd" clip-rule="evenodd" d="M160.224 208.114C161.595 210.26 159.67 211.395 158.051 210.287C158.051 211.492 159.034 212.461 160.224 212.461C157.677 211.963 161.235 209.332 162.398 210.287C162.398 209.097 161.429 208.114 160.224 208.114Z" fill="url(#paint31_linear)"/>
<path fill-rule="evenodd" clip-rule="evenodd" d="M160.224 208.446C159.2 208.446 158.369 209.277 158.369 210.301C158.369 211.326 159.2 212.156 160.224 212.156C161.249 212.156 162.079 211.326 162.079 210.301C162.079 209.277 161.249 208.446 160.224 208.446Z" fill="url(#paint32_linear)"/>
<path fill-rule="evenodd" clip-rule="evenodd" d="M180.05 231.013L179.911 230.695L167.783 237.617L167.936 237.908L180.05 231.013Z" fill="#5B1E00"/>
<path fill-rule="evenodd" clip-rule="evenodd" d="M191.458 231.733L191.735 231.567C191.07 230.598 190.253 229.739 189.298 229.047C189.132 228.936 188.924 228.922 188.758 229.019L178.928 234.806C178.638 234.972 178.596 235.388 178.859 235.609C179.717 236.329 180.479 237.146 181.171 238.018L181.448 237.852C180.742 236.966 179.939 236.108 179.067 235.36C178.984 235.263 178.984 235.18 179.094 235.097L188.924 229.31C188.98 229.268 189.049 229.282 189.104 229.324C190.046 229.975 190.821 230.791 191.458 231.733Z" fill="#5B1E00"/>
<path fill-rule="evenodd" clip-rule="evenodd" d="M155.545 210.952V211.492L158.438 215.825C158.743 216.268 159.186 216.559 159.684 216.656C160.169 216.753 160.709 216.67 161.152 216.365L165.471 213.485C165.914 213.181 166.205 212.738 166.302 212.239C166.399 211.755 166.316 211.215 166.011 210.772L162.55 205.594H162.19L165.748 210.938C166.261 211.7 166.053 212.738 165.291 213.236L160.972 216.116C160.21 216.628 159.172 216.421 158.674 215.659L155.545 210.952Z" fill="#5B1E00"/>
<path fill-rule="evenodd" clip-rule="evenodd" d="M167.299 216.393C167.257 216.31 167.16 216.282 167.077 216.324C166.994 216.365 166.967 216.462 167.008 216.545L168.739 219.896C168.919 220.269 168.946 220.671 168.836 221.031C168.725 221.391 168.462 221.709 168.102 221.903L166.191 222.886C165.845 223.066 165.458 223.094 165.098 222.997C164.751 222.9 164.433 222.665 164.225 222.332L162.592 219.619C162.55 219.536 162.439 219.522 162.37 219.563C162.287 219.605 162.273 219.716 162.315 219.785L163.948 222.498C164.198 222.914 164.585 223.191 165.015 223.315C165.444 223.44 165.914 223.398 166.344 223.191L168.254 222.208C168.697 221.972 169.016 221.585 169.154 221.142C169.293 220.699 169.265 220.2 169.043 219.757C168.462 218.622 167.867 217.514 167.299 216.393Z" fill="#5B1E00"/>
<path fill-rule="evenodd" clip-rule="evenodd" d="M170.331 209.166C170.331 208.889 170.109 208.668 169.833 208.668C169.556 208.668 169.334 208.889 169.334 209.166V214.552C169.334 214.828 169.556 215.05 169.833 215.05C170.109 215.05 170.331 214.828 170.331 214.552V209.166Z" fill="#5B1E00"/>
<path fill-rule="evenodd" clip-rule="evenodd" d="M170.165 209.166C170.165 208.986 170.013 208.834 169.833 208.834C169.653 208.834 169.5 208.986 169.5 209.166V214.552C169.5 214.732 169.653 214.884 169.833 214.884C170.013 214.884 170.165 214.732 170.165 214.552V209.166Z" fill="url(#paint33_radial)"/>
<path fill-rule="evenodd" clip-rule="evenodd" d="M169.999 209.166C169.999 209.069 169.929 209 169.833 209C169.736 209 169.666 209.069 169.666 209.166V214.552C169.666 214.649 169.736 214.718 169.833 214.718C169.929 214.718 169.999 214.649 169.999 214.552V209.166Z" fill="url(#paint34_radial)"/>
<path opacity="0.5" fill-rule="evenodd" clip-rule="evenodd" d="M170.165 209.166C169.999 210.509 169.833 211.866 169.5 210.994C169.5 212.06 169.5 213.126 169.5 214.192C169.666 212.987 169.929 212.06 170.165 212.364C170.165 211.298 170.165 210.232 170.165 209.166Z" fill="url(#paint35_linear)"/>
<path fill-rule="evenodd" clip-rule="evenodd" d="M168.683 209.166C168.683 208.889 168.462 208.668 168.185 208.668C167.908 208.668 167.686 208.889 167.686 209.166V214.552C167.686 214.828 167.908 215.05 168.185 215.05C168.462 215.05 168.683 214.828 168.683 214.552V209.166Z" fill="#5B1E00"/>
<path fill-rule="evenodd" clip-rule="evenodd" d="M168.517 209.166C168.517 208.986 168.365 208.834 168.185 208.834C168.005 208.834 167.853 208.986 167.853 209.166V214.552C167.853 214.732 168.005 214.884 168.185 214.884C168.365 214.884 168.517 214.732 168.517 214.552V209.166Z" fill="url(#paint36_radial)"/>
<path fill-rule="evenodd" clip-rule="evenodd" d="M168.351 209.166C168.351 209.069 168.282 209 168.185 209C168.088 209 168.019 209.069 168.019 209.166V214.552C168.019 214.649 168.088 214.718 168.185 214.718C168.282 214.718 168.351 214.649 168.351 214.552V209.166Z" fill="url(#paint37_radial)"/>
<path opacity="0.5" fill-rule="evenodd" clip-rule="evenodd" d="M168.517 209.166C168.351 210.509 168.185 211.866 167.853 210.994C167.853 212.06 167.853 213.126 167.853 214.192C168.019 212.987 168.282 212.06 168.517 212.364C168.517 211.298 168.517 210.232 168.517 209.166Z" fill="url(#paint38_linear)"/>
<path opacity="0.5" fill-rule="evenodd" clip-rule="evenodd" d="M172.449 239.001C173.778 241.341 203.96 225.738 194.005 223.454L201.869 223.952C202.52 223.994 202.727 224.838 202.174 225.184L174.457 242.13C172.906 243.072 170.871 242.601 169.915 241.064L156.098 218.954C155.725 218.345 155.545 217.736 155.545 217.016V208.917C155.545 207.089 157.04 205.594 158.867 205.594C160.446 214.939 163.118 222.554 172.449 239.001Z" fill="url(#paint39_linear)"/>
</g>
</g>
<defs>
<linearGradient id="paint0_linear" x1="118.595" y1="198.951" x2="121.336" y2="206.173" gradientUnits="userSpaceOnUse">
<stop stop-color="#212427"/>
<stop offset="0.5" stop-color="#B8B9B8"/>
<stop offset="1" stop-color="#23272A"/>
</linearGradient>
<linearGradient id="paint1_linear" x1="121.119" y1="207.915" x2="118.735" y2="198.909" gradientUnits="userSpaceOnUse">
<stop stop-color="#B8B9B8"/>
<stop offset="1" stop-color="white"/>
</linearGradient>
<linearGradient id="paint2_linear" x1="109.412" y1="203.79" x2="115.762" y2="210.611" gradientUnits="userSpaceOnUse">
<stop stop-color="#212427"/>
<stop offset="0.5" stop-color="#B8B9B8"/>
<stop offset="1" stop-color="#23272A"/>
</linearGradient>
<linearGradient id="paint3_linear" x1="115.882" y1="212.321" x2="108.772" y2="202.88" gradientUnits="userSpaceOnUse">
<stop stop-color="#B8B9B8"/>
<stop offset="1" stop-color="white"/>
</linearGradient>
<linearGradient id="paint4_linear" x1="105.399" y1="224.111" x2="72.1491" y2="224.11" gradientUnits="userSpaceOnUse">
<stop stop-color="#FFD13A"/>
<stop offset="1" stop-color="#FAEF5F"/>
</linearGradient>
<linearGradient id="paint5_linear" x1="96.2996" y1="205.103" x2="87.6295" y2="233.758" gradientUnits="userSpaceOnUse">
<stop stop-color="#FFD13A"/>
<stop offset="1" stop-color="#F9F185"/>
</linearGradient>
<linearGradient id="paint6_linear" x1="104.608" y1="224.62" x2="99.6057" y2="221.748" gradientUnits="userSpaceOnUse">
<stop stop-color="#FFD13A"/>
<stop offset="1" stop-color="#FAEF5F"/>
</linearGradient>
<linearGradient id="paint7_linear" x1="105.026" y1="224.962" x2="101.63" y2="222.916" gradientUnits="userSpaceOnUse">
<stop stop-color="#FFD13A"/>
<stop offset="1" stop-color="#F9F185"/>
</linearGradient>
<linearGradient id="paint8_linear" x1="110.272" y1="213.57" x2="110.274" y2="206.989" gradientUnits="userSpaceOnUse">
<stop stop-color="#FFF032"/>
<stop offset="1" stop-color="#FAEF5F"/>
</linearGradient>
<linearGradient id="paint9_linear" x1="111.328" y1="211.813" x2="109.144" y2="208.681" gradientUnits="userSpaceOnUse">
<stop stop-color="#FAEF5F"/>
<stop offset="1" stop-color="white"/>
</linearGradient>
<linearGradient id="paint10_linear" x1="110.272" y1="212.326" x2="110.274" y2="208.235" gradientUnits="userSpaceOnUse">
<stop stop-color="#3B3092"/>
<stop offset="1" stop-color="#2B3594"/>
</linearGradient>
<linearGradient id="paint11_linear" x1="111.329" y1="211.24" x2="109.122" y2="209.275" gradientUnits="userSpaceOnUse">
<stop stop-color="#A5DBDB"/>
<stop offset="1" stop-color="white"/>
</linearGradient>
<linearGradient id="paint12_linear" x1="110.272" y1="212.149" x2="110.274" y2="208.45" gradientUnits="userSpaceOnUse">
<stop stop-color="#FAEF5F"/>
<stop offset="1" stop-color="#FDFAD3"/>
</linearGradient>
<radialGradient id="paint13_radial" cx="0" cy="0" r="1" gradientUnits="userSpaceOnUse" gradientTransform="translate(100.701 211.799) rotate(-90.0043) scale(2.97052 1.10296)">
<stop stop-color="#472F92"/>
<stop offset="1" stop-color="#020035"/>
</radialGradient>
<radialGradient id="paint14_radial" cx="0" cy="0" r="1" gradientUnits="userSpaceOnUse" gradientTransform="translate(100.653 212.003) rotate(-90.0001) scale(2.80726 0.709112)">
<stop stop-color="#2B3594"/>
<stop offset="1" stop-color="#3B3092"/>
</radialGradient>
<linearGradient id="paint15_linear" x1="100.701" y1="214.028" x2="100.611" y2="209.161" gradientUnits="userSpaceOnUse">
<stop stop-color="#2B3594"/>
<stop offset="1" stop-color="white"/>
</linearGradient>
<radialGradient id="paint16_radial" cx="0" cy="0" r="1" gradientUnits="userSpaceOnUse" gradientTransform="translate(102.359 211.799) rotate(-90.0043) scale(2.97052 1.10294)">
<stop stop-color="#472F92"/>
<stop offset="1" stop-color="#020035"/>
</radialGradient>
<radialGradient id="paint17_radial" cx="0" cy="0" r="1" gradientUnits="userSpaceOnUse" gradientTransform="translate(102.311 212.003) rotate(-90.0001) scale(2.80726 0.709104)">
<stop stop-color="#2B3594"/>
<stop offset="1" stop-color="#3B3092"/>
</radialGradient>
<linearGradient id="paint18_linear" x1="102.36" y1="214.028" x2="102.27" y2="209.161" gradientUnits="userSpaceOnUse">
<stop stop-color="#2B3594"/>
<stop offset="1" stop-color="white"/>
</linearGradient>
<linearGradient id="paint19_linear" x1="114.824" y1="222.797" x2="70.9893" y2="228.545" gradientUnits="userSpaceOnUse">
<stop stop-color="#5D3600"/>
<stop offset="1" stop-color="#FAEF5F"/>
</linearGradient>
<linearGradient id="paint20_linear" x1="151.9" y1="198.951" x2="149.159" y2="206.173" gradientUnits="userSpaceOnUse">
<stop stop-color="#212427"/>
<stop offset="0.5" stop-color="#B8B9B8"/>
<stop offset="1" stop-color="#23272A"/>
</linearGradient>
<linearGradient id="paint21_linear" x1="149.376" y1="207.915" x2="151.76" y2="198.909" gradientUnits="userSpaceOnUse">
<stop stop-color="#B8B9B8"/>
<stop offset="1" stop-color="white"/>
</linearGradient>
<linearGradient id="paint22_linear" x1="161.083" y1="203.79" x2="154.733" y2="210.611" gradientUnits="userSpaceOnUse">
<stop stop-color="#212427"/>
<stop offset="0.5" stop-color="#B8B9B8"/>
<stop offset="1" stop-color="#23272A"/>
</linearGradient>
<linearGradient id="paint23_linear" x1="154.613" y1="212.32" x2="161.723" y2="202.88" gradientUnits="userSpaceOnUse">
<stop stop-color="#B8B9B8"/>
<stop offset="1" stop-color="white"/>
</linearGradient>
<linearGradient id="paint24_linear" x1="165.096" y1="224.111" x2="198.346" y2="224.11" gradientUnits="userSpaceOnUse">
<stop stop-color="#FFD13A"/>
<stop offset="1" stop-color="#FAEF5F"/>
</linearGradient>
<linearGradient id="paint25_linear" x1="174.196" y1="205.103" x2="182.866" y2="233.758" gradientUnits="userSpaceOnUse">
<stop stop-color="#FFD13A"/>
<stop offset="1" stop-color="#F9F185"/>
</linearGradient>
<linearGradient id="paint26_linear" x1="165.887" y1="224.62" x2="170.89" y2="221.748" gradientUnits="userSpaceOnUse">
<stop stop-color="#FFD13A"/>
<stop offset="1" stop-color="#FAEF5F"/>
</linearGradient>
<linearGradient id="paint27_linear" x1="165.47" y1="224.962" x2="168.865" y2="222.916" gradientUnits="userSpaceOnUse">
<stop stop-color="#FFD13A"/>
<stop offset="1" stop-color="#F9F185"/>
</linearGradient>
<linearGradient id="paint28_linear" x1="160.223" y1="213.57" x2="160.221" y2="206.988" gradientUnits="userSpaceOnUse">
<stop stop-color="#FFF032"/>
<stop offset="1" stop-color="#FAEF5F"/>
</linearGradient>
<linearGradient id="paint29_linear" x1="159.167" y1="211.813" x2="161.352" y2="208.681" gradientUnits="userSpaceOnUse">
<stop stop-color="#FAEF5F"/>
<stop offset="1" stop-color="white"/>
</linearGradient>
<linearGradient id="paint30_linear" x1="160.223" y1="212.327" x2="160.221" y2="208.235" gradientUnits="userSpaceOnUse">
<stop stop-color="#3B3092"/>
<stop offset="1" stop-color="#2B3594"/>
</linearGradient>
<linearGradient id="paint31_linear" x1="159.166" y1="211.24" x2="161.373" y2="209.275" gradientUnits="userSpaceOnUse">
<stop stop-color="#A5DBDB"/>
<stop offset="1" stop-color="white"/>
</linearGradient>
<linearGradient id="paint32_linear" x1="160.223" y1="212.149" x2="160.221" y2="208.45" gradientUnits="userSpaceOnUse">
<stop stop-color="#FAEF5F"/>
<stop offset="1" stop-color="#FDFAD3"/>
</linearGradient>
<radialGradient id="paint33_radial" cx="0" cy="0" r="1" gradientUnits="userSpaceOnUse" gradientTransform="translate(169.795 211.799) rotate(-89.9957) scale(2.97034 1.10291)">
<stop stop-color="#472F92"/>
<stop offset="1" stop-color="#020035"/>
</radialGradient>
<radialGradient id="paint34_radial" cx="0" cy="0" r="1" gradientUnits="userSpaceOnUse" gradientTransform="translate(169.843 212.003) rotate(-89.9999) scale(2.80719 0.709102)">
<stop stop-color="#2B3594"/>
<stop offset="1" stop-color="#3B3092"/>
</radialGradient>
<linearGradient id="paint35_linear" x1="169.794" y1="214.028" x2="169.884" y2="209.161" gradientUnits="userSpaceOnUse">
<stop stop-color="#2B3594"/>
<stop offset="1" stop-color="white"/>
</linearGradient>
<radialGradient id="paint36_radial" cx="0" cy="0" r="1" gradientUnits="userSpaceOnUse" gradientTransform="translate(168.136 211.799) rotate(-89.9957) scale(2.97034 1.1029)">
<stop stop-color="#472F92"/>
<stop offset="1" stop-color="#020035"/>
</radialGradient>
<radialGradient id="paint37_radial" cx="0" cy="0" r="1" gradientUnits="userSpaceOnUse" gradientTransform="translate(168.184 212.003) rotate(-89.9999) scale(2.80719 0.709086)">
<stop stop-color="#2B3594"/>
<stop offset="1" stop-color="#3B3092"/>
</radialGradient>
<linearGradient id="paint38_linear" x1="168.135" y1="214.028" x2="168.225" y2="209.161" gradientUnits="userSpaceOnUse">
<stop stop-color="#2B3594"/>
<stop offset="1" stop-color="white"/>
</linearGradient>
<linearGradient id="paint39_linear" x1="155.671" y1="222.797" x2="199.506" y2="228.545" gradientUnits="userSpaceOnUse">
<stop stop-color="#5D3600"/>
<stop offset="1" stop-color="#FAEF5F"/>
</linearGradient>
<clipPath id="clip0">
<rect width="270" height="370" fill="white"/>
</clipPath>
<clipPath id="clip1">
<rect x="66.6895" y="107.989" width="137.118" height="135.955" fill="white"/>
</clipPath>
</defs>
</svg>
