<svg width="270" height="370" viewBox="0 0 270 370" fill="none" xmlns="http://www.w3.org/2000/svg">
<g clip-path="url(#clip0)">
<g clip-path="url(#clip1)">
<path fill-rule="evenodd" clip-rule="evenodd" d="M108.002 223.163H117.154L127.925 195.889H118.76L108.002 223.163Z" fill="url(#paint0_linear)"/>
<path fill-rule="evenodd" clip-rule="evenodd" d="M108.002 223.163H117.167L127.925 195.903H118.759L108.002 223.163ZM117.153 224.492H107.988C107.822 224.492 107.67 224.464 107.504 224.395C106.825 224.132 106.493 223.357 106.756 222.678L117.486 195.487C117.652 194.947 118.164 194.573 118.746 194.573H127.911C128.077 194.573 128.229 194.601 128.395 194.67C129.074 194.933 129.406 195.709 129.143 196.387L118.413 223.578C118.247 224.104 117.749 224.492 117.153 224.492Z" fill="black"/>
<path opacity="0.5" fill-rule="evenodd" clip-rule="evenodd" d="M113.152 223.163H117.153L127.925 195.889H124.214L113.152 223.163Z" fill="url(#paint1_linear)"/>
<path fill-rule="evenodd" clip-rule="evenodd" d="M122.096 195.889H122.484C118.898 204.971 115.312 214.067 111.726 223.149H111.339L119.064 203.572H115.728L115.866 203.199H119.203L122.096 195.889Z" fill="#353535"/>
<path fill-rule="evenodd" clip-rule="evenodd" d="M110.48 223.163H108.874L114.925 207.934C115.077 207.56 115.492 207.366 115.866 207.518C116.24 207.671 116.434 208.086 116.281 208.46L110.48 223.163Z" fill="url(#paint2_linear)"/>
<path fill-rule="evenodd" clip-rule="evenodd" d="M110.287 223.163H109.068L115.091 208.003C115.201 207.726 115.52 207.588 115.797 207.698C116.074 207.809 116.212 208.127 116.101 208.404L110.287 223.163Z" fill="url(#paint3_linear)"/>
<path fill-rule="evenodd" clip-rule="evenodd" d="M110.093 223.163H109.276L115.229 208.169C115.298 207.975 115.52 207.892 115.714 207.961C115.907 208.031 115.991 208.252 115.921 208.446L110.093 223.163Z" fill="black"/>
<path fill-rule="evenodd" clip-rule="evenodd" d="M120.019 218.829L104.43 223.827C103.973 223.98 103.627 224.256 103.392 224.686L95.2372 239.375C94.8496 240.081 94.0743 240.441 93.2713 240.289L68.96 235.429C66.5371 234.945 65.7341 239.098 67.9216 239.79L104.153 251.101C104.998 251.364 105.884 251.004 106.299 250.243L122.193 221.488C122.982 220.006 121.598 218.317 120.019 218.829Z" fill="url(#paint4_linear)"/>
<path fill-rule="evenodd" clip-rule="evenodd" d="M120.019 218.829L104.43 223.827C103.973 223.98 103.627 224.257 103.392 224.686L95.2372 239.375C94.8496 240.081 94.0743 240.441 93.2713 240.289L68.96 235.429C66.5371 234.945 65.7341 239.098 67.9216 239.79L104.153 251.101C104.998 251.364 105.884 251.005 106.299 250.243L122.193 221.488C122.982 220.006 121.598 218.317 120.019 218.829ZM104.029 222.554L119.618 217.556C120.462 217.293 121.279 217.39 121.971 217.722C122.013 217.736 122.054 217.763 122.096 217.777C122.456 217.971 122.761 218.234 123.024 218.553C123.273 218.857 123.48 219.217 123.605 219.605C123.854 220.38 123.813 221.252 123.356 222.083L107.462 250.838C107.102 251.503 106.535 251.988 105.87 252.251C105.219 252.514 104.472 252.555 103.752 252.334L67.5201 241.022C66.1633 240.593 65.4711 239.472 65.3327 238.226C65.2773 237.741 65.3188 237.243 65.4296 236.758C65.5542 236.26 65.7618 235.789 66.0387 235.388C66.7171 234.419 67.8109 233.823 69.2092 234.1L93.5205 238.96C93.6313 238.987 93.742 238.973 93.8389 238.932C93.9358 238.89 94.0051 238.807 94.0604 238.71L102.215 224.021C102.423 223.661 102.672 223.357 102.963 223.107C103.239 222.872 103.558 222.692 103.932 222.567L104.029 222.554Z" fill="black"/>
<path fill-rule="evenodd" clip-rule="evenodd" d="M120.019 218.829C120.172 220.241 112.543 238.032 105.953 244.124C105.828 246.505 102.603 245.896 104.084 243.376C103.323 243.833 102.603 244.11 101.91 244.193C95.791 244.871 70.7736 240.524 66.7725 236.897C66.4264 238.018 66.731 239.389 67.9216 239.749C79.9942 243.514 92.0806 247.294 104.153 251.06C104.998 251.323 105.884 250.963 106.299 250.201C111.602 240.621 116.89 231.026 122.193 221.446C122.982 220.006 121.598 218.317 120.019 218.829Z" fill="url(#paint5_linear)"/>
<path fill-rule="evenodd" clip-rule="evenodd" d="M66.7448 236.994C66.4403 238.087 66.7725 239.403 67.9216 239.763C79.9942 243.528 92.0807 247.308 104.153 251.074C104.998 251.337 105.884 250.977 106.299 250.215C106.576 249.703 106.867 249.191 107.144 248.679C100.609 249.246 70.9398 240.704 66.7448 236.994Z" fill="url(#paint6_linear)"/>
<path fill-rule="evenodd" clip-rule="evenodd" d="M94.545 240.178C94.462 240.15 94.4204 240.053 94.4481 239.97C94.4758 239.887 94.5727 239.846 94.6558 239.873L94.545 240.178ZM108.985 245.384L94.545 240.178L94.6558 239.859L109.096 245.065L108.985 245.384ZM109.11 245.079C109.193 245.107 109.234 245.204 109.207 245.287C109.179 245.37 109.082 245.411 108.999 245.384L109.11 245.079Z" fill="#5B1E00"/>
<path fill-rule="evenodd" clip-rule="evenodd" d="M99.4321 240.801L98.8229 242.518C98.6707 242.933 98.3245 243.113 97.9507 243.113C97.8261 243.113 97.6877 243.085 97.5631 243.044C97.4385 243.002 97.3139 242.933 97.217 242.85C96.9262 242.615 96.7739 242.255 96.9262 241.839L97.5492 240.123C97.7015 239.707 98.0476 239.527 98.4215 239.527C98.5461 239.527 98.6845 239.555 98.8091 239.596C98.9337 239.638 99.0583 239.707 99.1552 239.79C99.4321 240.012 99.5844 240.372 99.4321 240.801ZM99.1275 240.69L98.5045 242.407C98.2415 243.155 96.9678 242.684 97.2308 241.95L97.8538 240.233C98.1169 239.486 99.3906 239.943 99.1275 240.69Z" fill="#5B1E00"/>
<path fill-rule="evenodd" clip-rule="evenodd" d="M106.216 243.196L105.662 244.941C105.524 245.37 105.178 245.564 104.804 245.564C104.679 245.564 104.541 245.55 104.416 245.508C104.292 245.467 104.167 245.411 104.07 245.328C103.779 245.107 103.599 244.747 103.738 244.318L104.292 242.573C104.43 242.144 104.776 241.95 105.15 241.95C105.275 241.95 105.413 241.964 105.538 242.005L105.565 242.019C105.676 242.061 105.787 242.116 105.884 242.185C106.175 242.421 106.355 242.767 106.216 243.196ZM105.898 243.099L105.344 244.844C105.108 245.591 103.807 245.19 104.056 244.428L104.61 242.684C104.845 241.936 106.133 242.352 105.898 243.099Z" fill="#5B1E00"/>
<path fill-rule="evenodd" clip-rule="evenodd" d="M101.993 242.712L101.661 242.545L111.989 221.391L112.46 221.238L101.993 242.712Z" fill="#5B1E00"/>
<path fill-rule="evenodd" clip-rule="evenodd" d="M106.59 233.408C106.493 233.394 106.424 233.297 106.438 233.2C106.451 233.103 106.548 233.034 106.645 233.048C108.653 233.297 110.757 233.699 112.225 234.294C113.291 234.723 114.038 235.263 114.177 235.969L113.886 236.495C113.789 236.495 113.844 236.343 113.844 236.246C113.844 235.595 113.152 235.069 112.086 234.64C110.646 234.045 108.583 233.657 106.59 233.408Z" fill="#5B1E00"/>
<path fill-rule="evenodd" clip-rule="evenodd" d="M109.774 227.648C109.677 227.635 109.608 227.538 109.622 227.441C109.636 227.344 109.733 227.275 109.83 227.289C111.837 227.538 113.941 227.939 115.409 228.535C116.489 228.964 117.223 229.518 117.375 230.224L117.084 230.722C116.973 230.694 117.389 229.739 115.271 228.881C113.831 228.285 111.754 227.912 109.774 227.648Z" fill="#5B1E00"/>
<path opacity="0.5" fill-rule="evenodd" clip-rule="evenodd" d="M73.0164 239.763C72.7257 239.693 72.5457 239.403 72.6149 239.126C72.6841 238.849 72.9887 238.669 73.2795 238.738C73.944 238.89 74.567 239.167 75.1762 239.444C75.7438 239.693 76.2976 239.943 76.8791 240.081C78.0974 240.372 79.3988 240.413 80.7141 240.455C81.877 240.496 83.04 240.524 84.1891 240.732H84.2168C84.9644 240.87 85.6428 241.216 86.3073 241.549C86.8473 241.825 87.4011 242.102 87.9272 242.227L89.0209 242.518C93.2435 243.653 97.5216 244.802 100.152 239.07C100.789 237.686 101.827 236.578 102.921 235.429C104.582 233.671 106.382 231.76 106.867 228.535C106.908 228.244 107.185 228.05 107.49 228.092C107.794 228.133 108.002 228.396 107.96 228.687C107.434 232.231 105.51 234.266 103.738 236.149C102.699 237.243 101.73 238.281 101.163 239.513C98.1584 246.076 93.4097 244.802 88.7302 243.556L87.6641 243.279C86.9996 243.113 86.4043 242.808 85.8089 242.504C85.2136 242.199 84.6183 241.895 84.0368 241.784H84.023C82.9569 241.59 81.8355 241.562 80.7141 241.521C79.3434 241.479 77.9867 241.438 76.6576 241.119C75.993 240.967 75.37 240.69 74.7608 240.413C74.1517 240.15 73.5979 239.901 73.0164 239.763Z" fill="#5B1E00"/>
<path fill-rule="evenodd" clip-rule="evenodd" d="M73.0302 239.292C72.7395 239.223 72.5595 238.918 72.6287 238.627C72.6979 238.337 73.0025 238.157 73.2933 238.226C73.9578 238.392 74.5808 238.669 75.19 238.946C75.7576 239.209 76.3114 239.458 76.8929 239.596C78.1112 239.901 79.4126 239.943 80.7279 239.984C81.8908 240.026 83.0538 240.053 84.2029 240.275H84.2306C84.9782 240.427 85.6566 240.773 86.3211 241.119C86.8611 241.41 87.4149 241.701 87.941 241.825L89.0347 242.13C93.2573 243.307 97.5354 244.497 100.166 238.544C100.803 237.104 101.841 235.955 102.935 234.751C104.596 232.923 106.396 230.943 106.881 227.593C106.922 227.288 107.199 227.081 107.504 227.122C107.808 227.164 108.016 227.441 107.974 227.745C107.448 231.428 105.524 233.546 103.752 235.485C102.713 236.62 101.744 237.7 101.177 238.973C98.1722 245.785 93.4235 244.47 88.744 243.168L87.6779 242.878C87.0134 242.711 86.418 242.393 85.8227 242.075C85.2274 241.756 84.6321 241.438 84.0506 241.327H84.0368C82.9707 241.133 81.8493 241.092 80.7279 241.05C79.3572 241.009 78.0005 240.967 76.6714 240.635C76.0068 240.469 75.3838 240.192 74.7746 239.915C74.1655 239.693 73.6117 239.444 73.0302 239.292Z" fill="#5B1E00"/>
<path fill-rule="evenodd" clip-rule="evenodd" d="M73.0718 239.126C72.878 239.084 72.7534 238.877 72.8087 238.683C72.8503 238.489 73.058 238.364 73.2518 238.42C73.9025 238.586 74.5116 238.863 75.1208 239.14C75.6884 239.403 76.2699 239.666 76.8514 239.804C78.0836 240.109 79.3988 240.15 80.7141 240.192C81.877 240.233 83.0261 240.261 84.1614 240.483H84.1753C84.909 240.621 85.5597 240.967 86.2243 241.313C86.7781 241.604 87.3319 241.895 87.8856 242.033L88.9655 242.338C93.2712 243.542 97.6185 244.747 100.318 238.655C100.941 237.243 101.98 236.108 103.059 234.917C104.749 233.062 106.562 231.068 107.047 227.662C107.074 227.469 107.254 227.33 107.462 227.358C107.656 227.385 107.794 227.565 107.767 227.773C107.254 231.4 105.344 233.491 103.586 235.415C102.547 236.564 101.55 237.644 100.983 238.96C98.0338 245.633 93.382 244.331 88.7717 243.058L87.7057 242.767C87.0688 242.601 86.4735 242.296 85.8782 241.978C85.269 241.659 84.6598 241.327 84.0368 241.216H84.023C82.9431 241.009 81.8078 240.981 80.6864 240.939C79.3296 240.898 77.9728 240.856 76.6714 240.524C76.0207 240.358 75.4116 240.081 74.8024 239.804C74.2348 239.527 73.6671 239.264 73.0718 239.126Z" fill="url(#paint7_linear)"/>
<path fill-rule="evenodd" clip-rule="evenodd" d="M73.1133 238.946C73.0164 238.918 72.961 238.821 72.9749 238.724C73.0026 238.627 73.0995 238.572 73.1964 238.586C73.8333 238.738 74.4286 239.015 75.0239 239.292C75.6054 239.555 76.1869 239.818 76.796 239.97C78.0559 240.275 79.3711 240.33 80.7002 240.372C81.8493 240.413 82.9985 240.441 84.1199 240.649C84.826 240.787 85.4767 241.119 86.1274 241.465C86.695 241.77 87.2488 242.061 87.8303 242.199L88.9101 242.49C93.2851 243.708 97.7154 244.94 100.47 238.71C101.08 237.326 102.104 236.204 103.17 235.028C104.873 233.159 106.714 231.137 107.213 227.676C107.227 227.579 107.324 227.51 107.421 227.524C107.517 227.538 107.587 227.634 107.573 227.731C107.061 231.303 105.178 233.366 103.447 235.277C102.395 236.44 101.398 237.533 100.803 238.863C97.9231 245.383 93.3405 244.11 88.8132 242.85L87.7472 242.559C87.1242 242.407 86.5427 242.102 85.9612 241.784C85.3382 241.452 84.7152 241.119 84.0645 240.995C82.9569 240.787 81.8217 240.759 80.6864 240.718C79.3435 240.676 78.0005 240.635 76.6991 240.316C76.0623 240.164 75.4669 239.887 74.8716 239.61C74.304 239.361 73.7225 239.098 73.1133 238.946Z" fill="url(#paint8_linear)"/>
<path fill-rule="evenodd" clip-rule="evenodd" d="M107.407 222.789C110.12 222.789 112.322 224.99 112.322 227.704C112.322 230.417 110.12 232.619 107.407 232.619C104.693 232.619 102.492 230.417 102.492 227.704C102.492 224.99 104.693 222.789 107.407 222.789Z" fill="#5B1E00"/>
<path opacity="0.5" fill-rule="evenodd" clip-rule="evenodd" d="M108.32 223.703C111.034 223.703 113.235 225.904 113.235 228.618C113.235 231.331 111.034 233.533 108.32 233.533C105.607 233.533 103.406 231.331 103.406 228.618C103.419 225.904 105.607 223.703 108.32 223.703Z" fill="url(#paint9_linear)"/>
<path fill-rule="evenodd" clip-rule="evenodd" d="M107.407 223.163C109.913 223.163 111.948 225.198 111.948 227.704C111.948 230.21 109.913 232.245 107.407 232.245C104.901 232.245 102.866 230.21 102.866 227.704C102.866 225.198 104.901 223.163 107.407 223.163Z" fill="url(#paint10_linear)"/>
<path fill-rule="evenodd" clip-rule="evenodd" d="M107.407 224.229C109.317 224.229 110.882 225.78 110.882 227.704C110.882 229.615 109.331 231.179 107.407 231.179C105.496 231.179 103.932 229.628 103.932 227.704C103.932 225.78 105.496 224.229 107.407 224.229Z" fill="url(#paint11_linear)"/>
<path opacity="0.5" fill-rule="evenodd" clip-rule="evenodd" d="M107.407 224.229C107.185 226.084 109.068 228.645 110.882 227.704C110.882 229.615 109.331 231.179 107.407 231.179C107.947 228.895 105.552 226.596 103.932 227.704C103.932 225.78 105.496 224.229 107.407 224.229Z" fill="url(#paint12_linear)"/>
<path fill-rule="evenodd" clip-rule="evenodd" d="M107.407 224.492C109.179 224.492 110.619 225.932 110.619 227.704C110.619 229.476 109.179 230.916 107.407 230.916C105.635 230.916 104.195 229.476 104.195 227.704C104.195 225.932 105.635 224.492 107.407 224.492Z" fill="url(#paint13_linear)"/>
<path fill-rule="evenodd" clip-rule="evenodd" d="M107.407 225.544C108.597 225.544 109.567 226.513 109.567 227.704C109.567 228.895 108.597 229.864 107.407 229.864C106.216 229.864 105.247 228.895 105.247 227.704C105.247 226.513 106.216 225.544 107.407 225.544Z" fill="url(#paint14_linear)"/>
<path fill-rule="evenodd" clip-rule="evenodd" d="M107.407 225.863C108.417 225.863 109.234 226.679 109.234 227.69C109.234 228.701 108.417 229.518 107.407 229.518C106.396 229.518 105.579 228.701 105.579 227.69C105.579 226.693 106.396 225.863 107.407 225.863Z" fill="url(#paint15_linear)"/>
<path fill-rule="evenodd" clip-rule="evenodd" d="M89.8378 243.155C90.267 242.033 89.6855 240.773 88.5641 240.344C87.4427 239.915 86.1828 240.496 85.7536 241.618C85.3244 242.739 85.9059 243.999 87.0273 244.428C88.1488 244.844 89.4086 244.276 89.8378 243.155Z" fill="#5B1E00"/>
<path fill-rule="evenodd" clip-rule="evenodd" d="M89.5056 243.03C89.8655 242.089 89.381 241.022 88.4395 240.676C87.4981 240.316 86.432 240.801 86.0859 241.742C85.726 242.684 86.2105 243.75 87.152 244.096C88.0934 244.456 89.1595 243.971 89.5056 243.03Z" fill="url(#paint16_linear)"/>
<path opacity="0.5" fill-rule="evenodd" clip-rule="evenodd" d="M89.5055 243.03C87.8579 243.708 85.9197 240.51 88.4394 240.676C87.498 240.316 86.4319 240.801 86.0858 241.742C88.4533 242.504 88.5502 244.054 87.1519 244.096C88.0933 244.456 89.1593 243.971 89.5055 243.03Z" fill="url(#paint17_linear)"/>
<path fill-rule="evenodd" clip-rule="evenodd" d="M88.924 242.808C89.1594 242.185 88.8409 241.493 88.2179 241.258C87.5949 241.023 86.9027 241.341 86.6673 241.964C86.432 242.587 86.7504 243.279 87.3734 243.515C87.9964 243.75 88.6886 243.432 88.924 242.808Z" fill="url(#paint18_linear)"/>
<path opacity="0.5" fill-rule="evenodd" clip-rule="evenodd" d="M88.924 242.808C87.5534 243.099 87.3319 241.881 88.218 241.258C87.595 241.023 86.9027 241.341 86.6674 241.964C87.415 240.732 88.0795 243.099 87.3734 243.515C87.9965 243.75 88.6887 243.432 88.924 242.808Z" fill="url(#paint19_linear)"/>
<path fill-rule="evenodd" clip-rule="evenodd" d="M88.7579 242.753C88.9518 242.227 88.6887 241.632 88.1626 241.438C87.6365 241.244 87.0412 241.507 86.8474 242.033C86.6535 242.559 86.9166 243.155 87.4427 243.348C87.9688 243.542 88.5503 243.279 88.7579 242.753Z" fill="url(#paint20_linear)"/>
<path fill-rule="evenodd" clip-rule="evenodd" d="M82.3617 241.41C82.7909 240.289 82.2095 239.029 81.088 238.6C79.9666 238.17 78.7067 238.752 78.2776 239.873C77.8484 240.995 78.4298 242.255 79.5513 242.684C80.6865 243.099 81.9464 242.531 82.3617 241.41Z" fill="#5B1E00"/>
<path fill-rule="evenodd" clip-rule="evenodd" d="M82.0433 241.285C82.4033 240.344 81.9187 239.278 80.9772 238.932C80.0358 238.572 78.9698 239.056 78.6236 239.998C78.2637 240.939 78.7482 242.005 79.6897 242.352C80.6311 242.712 81.6833 242.227 82.0433 241.285Z" fill="url(#paint21_linear)"/>
<path opacity="0.5" fill-rule="evenodd" clip-rule="evenodd" d="M82.0433 241.285C80.3958 241.964 78.4575 238.766 80.9773 238.932C80.0358 238.572 78.9698 239.056 78.6237 239.998C80.9911 240.759 81.088 242.31 79.6897 242.352C80.6311 242.712 81.6833 242.227 82.0433 241.285Z" fill="url(#paint22_linear)"/>
<path fill-rule="evenodd" clip-rule="evenodd" d="M81.4619 241.064C81.6972 240.441 81.3788 239.749 80.7558 239.513C80.1328 239.278 79.4405 239.596 79.2052 240.219C78.9698 240.842 79.2882 241.535 79.9112 241.77C80.5343 242.005 81.2265 241.687 81.4619 241.064Z" fill="url(#paint23_linear)"/>
<path opacity="0.5" fill-rule="evenodd" clip-rule="evenodd" d="M81.4619 241.064C80.0913 241.355 79.8697 240.136 80.7558 239.513C80.1328 239.278 79.4406 239.596 79.2052 240.219C79.9528 238.987 80.6174 241.355 79.9113 241.77C80.5343 242.005 81.2265 241.687 81.4619 241.064Z" fill="url(#paint24_linear)"/>
<path fill-rule="evenodd" clip-rule="evenodd" d="M81.2818 240.995C81.4757 240.469 81.2126 239.873 80.6865 239.68C80.1604 239.486 79.5651 239.749 79.3713 240.275C79.1775 240.801 79.4405 241.396 79.9666 241.59C80.4927 241.798 81.088 241.535 81.2818 240.995Z" fill="url(#paint25_linear)"/>
<path fill-rule="evenodd" clip-rule="evenodd" d="M75.1901 239.527C75.6193 238.406 75.0378 237.146 73.9164 236.731C72.795 236.301 71.5351 236.883 71.1059 238.004C70.6767 239.126 71.2582 240.386 72.3796 240.815C73.5149 241.23 74.7748 240.663 75.1901 239.527Z" fill="#5B1E00"/>
<path fill-rule="evenodd" clip-rule="evenodd" d="M74.8717 239.417C75.2316 238.475 74.7471 237.409 73.8056 237.063C72.8642 236.703 71.7981 237.188 71.452 238.129C71.0921 239.07 71.5766 240.137 72.5181 240.483C73.4595 240.829 74.5117 240.358 74.8717 239.417Z" fill="url(#paint26_linear)"/>
<path opacity="0.5" fill-rule="evenodd" clip-rule="evenodd" d="M74.8717 239.417C73.2242 240.095 71.2859 236.897 73.8056 237.063C72.8642 236.703 71.7981 237.188 71.452 238.129C73.8195 238.89 73.9164 240.441 72.5181 240.483C73.4595 240.829 74.5117 240.358 74.8717 239.417Z" fill="url(#paint27_linear)"/>
<path fill-rule="evenodd" clip-rule="evenodd" d="M74.2901 239.195C74.5255 238.572 74.207 237.88 73.584 237.644C72.961 237.409 72.2688 237.727 72.0334 238.35C71.7981 238.973 72.1165 239.666 72.7395 239.901C73.3625 240.123 74.0547 239.818 74.2901 239.195Z" fill="url(#paint28_linear)"/>
<path opacity="0.5" fill-rule="evenodd" clip-rule="evenodd" d="M74.2903 239.195C72.9196 239.486 72.6981 238.267 73.5842 237.644C72.9612 237.409 72.2689 237.727 72.0336 238.35C72.7812 237.118 73.4457 239.486 72.7397 239.901C73.3627 240.123 74.0549 239.818 74.2903 239.195Z" fill="url(#paint29_linear)"/>
<path fill-rule="evenodd" clip-rule="evenodd" d="M74.1102 239.126C74.304 238.6 74.041 238.004 73.5149 237.81C72.9888 237.617 72.3935 237.88 72.1996 238.406C72.0058 238.932 72.2689 239.527 72.795 239.721C73.3211 239.915 73.9164 239.652 74.1102 239.126Z" fill="url(#paint30_linear)"/>
<path fill-rule="evenodd" clip-rule="evenodd" d="M162.495 223.163H153.33L142.572 195.889H151.738L162.495 223.163Z" fill="url(#paint31_linear)"/>
<path fill-rule="evenodd" clip-rule="evenodd" d="M162.495 224.492H153.33C152.734 224.492 152.236 224.104 152.07 223.578L141.34 196.387C141.077 195.709 141.409 194.933 142.088 194.67C142.24 194.615 142.406 194.573 142.572 194.573H151.738C152.333 194.573 152.831 194.961 152.997 195.487L163.727 222.678C163.99 223.357 163.658 224.132 162.979 224.395C162.813 224.45 162.647 224.492 162.495 224.492ZM162.495 223.163H153.33L142.572 195.889H151.738L162.495 223.163Z" fill="black"/>
<path opacity="0.5" fill-rule="evenodd" clip-rule="evenodd" d="M157.345 223.163H153.33L142.572 195.889H146.283L157.345 223.163Z" fill="url(#paint32_linear)"/>
<path fill-rule="evenodd" clip-rule="evenodd" d="M148.401 195.889H148.013C151.599 204.971 155.185 214.067 158.771 223.149H159.158L151.433 203.572H154.77L154.631 203.199H151.295L148.401 195.889Z" fill="#353535"/>
<path fill-rule="evenodd" clip-rule="evenodd" d="M160.003 223.163H161.609L155.559 207.934C155.406 207.56 154.991 207.366 154.617 207.518C154.243 207.671 154.05 208.086 154.202 208.46L160.003 223.163Z" fill="url(#paint33_linear)"/>
<path fill-rule="evenodd" clip-rule="evenodd" d="M160.21 223.163H161.429L155.406 208.003C155.296 207.726 154.977 207.588 154.7 207.698C154.423 207.809 154.285 208.127 154.396 208.404L160.21 223.163Z" fill="url(#paint34_linear)"/>
<path fill-rule="evenodd" clip-rule="evenodd" d="M160.404 223.163H161.221L155.268 208.169C155.199 207.975 154.977 207.892 154.783 207.961C154.59 208.031 154.507 208.252 154.576 208.446L160.404 223.163Z" fill="black"/>
<path fill-rule="evenodd" clip-rule="evenodd" d="M150.464 218.829L166.053 223.827C166.51 223.98 166.856 224.257 167.091 224.686L175.246 239.375C175.634 240.081 176.409 240.441 177.212 240.289L201.523 235.429C203.946 234.945 204.749 239.098 202.562 239.79L166.33 251.101C165.485 251.364 164.599 251.005 164.184 250.243L148.304 221.46C147.501 220.006 148.886 218.317 150.464 218.829Z" fill="url(#paint35_linear)"/>
<path fill-rule="evenodd" clip-rule="evenodd" d="M150.865 217.57L166.454 222.568L166.524 222.595C166.884 222.72 167.202 222.9 167.493 223.135C167.797 223.384 168.047 223.689 168.24 224.049L176.395 238.738C176.45 238.835 176.533 238.918 176.63 238.96C176.713 239.001 176.824 239.015 176.949 238.987L201.26 234.128C202.658 233.851 203.738 234.446 204.431 235.415C204.707 235.817 204.915 236.288 205.04 236.786C205.15 237.271 205.192 237.769 205.137 238.254C204.998 239.5 204.306 240.621 202.949 241.05L166.718 252.361C165.998 252.583 165.264 252.541 164.599 252.278C163.949 252.015 163.381 251.531 163.007 250.866L147.141 222.097C146.684 221.28 146.643 220.394 146.892 219.619C147.017 219.231 147.21 218.871 147.473 218.566C147.736 218.248 148.041 217.985 148.401 217.791C149.107 217.403 149.965 217.279 150.865 217.57ZM150.464 218.829L166.053 223.827C166.51 223.98 166.856 224.257 167.091 224.686L175.246 239.375C175.634 240.081 176.409 240.441 177.212 240.289L201.523 235.429C203.946 234.945 204.749 239.098 202.561 239.79L166.33 251.101C165.485 251.364 164.599 251.005 164.184 250.243L148.304 221.46C147.501 220.006 148.886 218.317 150.464 218.829Z" fill="black"/>
<path fill-rule="evenodd" clip-rule="evenodd" d="M150.464 218.829C150.311 220.242 157.926 238.032 164.53 244.124C164.655 246.505 167.88 245.896 166.399 243.376C167.16 243.833 167.88 244.11 168.573 244.193C174.692 244.871 199.723 240.524 203.711 236.897C204.057 238.018 203.738 239.389 202.561 239.749C190.489 243.515 178.402 247.294 166.33 251.06C165.485 251.323 164.599 250.963 164.184 250.202C158.881 240.621 153.593 231.027 148.29 221.446C147.501 220.006 148.885 218.317 150.464 218.829Z" fill="url(#paint36_linear)"/>
<path fill-rule="evenodd" clip-rule="evenodd" d="M203.738 236.994C204.043 238.087 203.711 239.403 202.562 239.763C190.489 243.528 178.403 247.308 166.33 251.074C165.485 251.337 164.599 250.977 164.184 250.215C163.907 249.703 163.616 249.191 163.339 248.679C169.888 249.246 199.557 240.704 203.738 236.994Z" fill="url(#paint37_linear)"/>
<path fill-rule="evenodd" clip-rule="evenodd" d="M175.827 239.873C175.91 239.846 176.007 239.887 176.035 239.97C176.063 240.053 176.021 240.15 175.938 240.178L175.827 239.873ZM161.387 245.079L175.827 239.873L175.938 240.192L161.498 245.397L161.387 245.079ZM161.498 245.384C161.415 245.411 161.318 245.37 161.29 245.287C161.263 245.204 161.304 245.107 161.387 245.079L161.498 245.384Z" fill="#5B1E00"/>
<path fill-rule="evenodd" clip-rule="evenodd" d="M171.369 240.69L171.992 242.407C172.255 243.155 173.529 242.684 173.266 241.95L172.643 240.233C172.38 239.486 171.092 239.943 171.369 240.69ZM171.674 242.518L171.051 240.801C170.899 240.372 171.065 240.012 171.342 239.79C171.439 239.707 171.563 239.638 171.688 239.596C171.812 239.555 171.951 239.527 172.075 239.527C172.449 239.527 172.795 239.707 172.948 240.123L173.571 241.839C173.723 242.255 173.557 242.628 173.28 242.85C173.183 242.933 173.058 243.002 172.934 243.044C172.809 243.085 172.671 243.113 172.546 243.113C172.172 243.113 171.826 242.933 171.674 242.518Z" fill="#5B1E00"/>
<path fill-rule="evenodd" clip-rule="evenodd" d="M164.585 243.099L165.139 244.844C165.375 245.591 166.676 245.19 166.427 244.428L165.873 242.684C165.638 241.936 164.35 242.352 164.585 243.099ZM164.835 244.941L164.281 243.196C164.142 242.767 164.322 242.407 164.613 242.185C164.71 242.116 164.821 242.061 164.932 242.019L164.959 242.005C165.084 241.964 165.208 241.95 165.347 241.95C165.721 241.964 166.067 242.158 166.205 242.573L166.759 244.318C166.897 244.747 166.717 245.107 166.427 245.328C166.33 245.411 166.205 245.467 166.081 245.508C165.956 245.55 165.818 245.564 165.693 245.564C165.319 245.564 164.959 245.37 164.835 244.941Z" fill="#5B1E00"/>
<path fill-rule="evenodd" clip-rule="evenodd" d="M168.504 242.712L168.836 242.545L158.508 221.391L158.023 221.238L168.504 242.712Z" fill="#5B1E00"/>
<path fill-rule="evenodd" clip-rule="evenodd" d="M163.893 233.408C163.99 233.394 164.059 233.297 164.045 233.2C164.032 233.103 163.935 233.034 163.838 233.048C161.83 233.297 159.726 233.699 158.258 234.294C157.192 234.723 156.445 235.263 156.306 235.969L156.597 236.495C156.694 236.495 156.639 236.343 156.639 236.246C156.639 235.595 157.331 235.069 158.397 234.64C159.837 234.045 161.913 233.657 163.893 233.408Z" fill="#5B1E00"/>
<path fill-rule="evenodd" clip-rule="evenodd" d="M160.723 227.648C160.82 227.635 160.889 227.538 160.875 227.441C160.861 227.344 160.764 227.275 160.667 227.289C158.66 227.538 156.555 227.939 155.088 228.535C154.022 228.964 153.274 229.518 153.122 230.224L153.413 230.722C153.523 230.694 153.108 229.739 155.226 228.881C156.666 228.285 158.729 227.912 160.723 227.648Z" fill="#5B1E00"/>
<path opacity="0.5" fill-rule="evenodd" clip-rule="evenodd" d="M197.48 239.762C197.771 239.693 197.951 239.403 197.882 239.126C197.813 238.849 197.508 238.669 197.217 238.738C196.553 238.89 195.93 239.167 195.321 239.444C194.753 239.693 194.199 239.942 193.618 240.081C192.399 240.372 191.098 240.413 189.783 240.455C188.62 240.496 187.457 240.524 186.308 240.732H186.28C185.532 240.87 184.854 241.216 184.189 241.548C183.649 241.825 183.096 242.102 182.57 242.227L181.476 242.518C177.253 243.653 172.975 244.802 170.345 239.07C169.708 237.686 168.669 236.578 167.576 235.429C165.914 233.671 164.115 231.76 163.63 228.534C163.588 228.244 163.312 228.05 163.007 228.091C162.702 228.133 162.495 228.396 162.536 228.687C163.062 232.231 164.987 234.266 166.759 236.149C167.797 237.243 168.766 238.281 169.334 239.513C172.338 246.076 177.087 244.802 181.767 243.556L182.833 243.279C183.497 243.113 184.093 242.808 184.688 242.504C185.283 242.199 185.878 241.895 186.46 241.784H186.474C187.54 241.59 188.661 241.562 189.783 241.521C191.153 241.479 192.51 241.438 193.839 241.119C194.504 240.967 195.127 240.69 195.736 240.413C196.331 240.15 196.899 239.901 197.48 239.762Z" fill="#5B1E00"/>
<path fill-rule="evenodd" clip-rule="evenodd" d="M197.467 239.292C197.757 239.223 197.937 238.918 197.868 238.627C197.799 238.337 197.494 238.157 197.204 238.226C196.539 238.392 195.916 238.669 195.307 238.946C194.739 239.209 194.185 239.458 193.604 239.596C192.386 239.901 191.084 239.943 189.769 239.984C188.606 240.026 187.443 240.053 186.294 240.275H186.266C185.519 240.427 184.84 240.773 184.176 241.119C183.636 241.41 183.082 241.701 182.556 241.825L181.462 242.13C177.239 243.307 172.961 244.497 170.331 238.544C169.694 237.104 168.656 235.955 167.562 234.751C165.901 232.923 164.101 230.943 163.616 227.593C163.575 227.288 163.298 227.081 162.993 227.122C162.689 227.164 162.481 227.441 162.522 227.745C163.049 231.428 164.973 233.546 166.745 235.485C167.783 236.62 168.753 237.7 169.32 238.973C172.325 245.785 177.073 244.47 181.753 243.168L182.819 242.878C183.483 242.711 184.079 242.393 184.674 242.075C185.269 241.756 185.865 241.438 186.446 241.327H186.46C187.526 241.133 188.647 241.092 189.769 241.05C191.14 241.009 192.496 240.967 193.825 240.635C194.49 240.469 195.113 240.192 195.722 239.915C196.317 239.693 196.885 239.444 197.467 239.292Z" fill="#5B1E00"/>
<path fill-rule="evenodd" clip-rule="evenodd" d="M197.425 239.126C197.619 239.084 197.743 238.877 197.688 238.683C197.646 238.489 197.439 238.364 197.245 238.42C196.594 238.586 195.985 238.863 195.376 239.14C194.808 239.403 194.227 239.666 193.645 239.804C192.413 240.109 191.098 240.15 189.783 240.192C188.62 240.233 187.471 240.261 186.335 240.483H186.321C185.588 240.621 184.937 240.967 184.272 241.313C183.719 241.604 183.165 241.895 182.611 242.033L181.531 242.338C177.226 243.542 172.878 244.747 170.179 238.655C169.556 237.243 168.531 236.108 167.437 234.917C165.748 233.062 163.935 231.068 163.45 227.662C163.422 227.469 163.242 227.33 163.035 227.358C162.841 227.385 162.702 227.565 162.73 227.773C163.242 231.4 165.153 233.491 166.911 235.415C167.95 236.564 168.946 237.644 169.514 238.96C172.463 245.633 177.115 244.331 181.725 243.058L182.791 242.767C183.428 242.601 184.023 242.296 184.605 241.978C185.214 241.659 185.823 241.327 186.446 241.216H186.46C187.54 241.009 188.675 240.981 189.797 240.939C191.153 240.898 192.51 240.856 193.811 240.524C194.462 240.358 195.071 240.081 195.681 239.804C196.248 239.527 196.83 239.264 197.425 239.126Z" fill="url(#paint38_linear)"/>
<path fill-rule="evenodd" clip-rule="evenodd" d="M197.37 238.946C197.466 238.918 197.522 238.821 197.508 238.724C197.48 238.627 197.383 238.572 197.286 238.586C196.65 238.738 196.054 239.015 195.459 239.292C194.878 239.555 194.296 239.818 193.687 239.97C192.427 240.275 191.112 240.33 189.783 240.372C188.634 240.413 187.484 240.441 186.363 240.649C185.657 240.787 185.006 241.119 184.356 241.465C183.788 241.77 183.234 242.061 182.653 242.199L181.573 242.49C177.198 243.708 172.768 244.94 170.012 238.71C169.403 237.326 168.379 236.204 167.313 235.028C165.61 233.159 163.768 231.137 163.27 227.676C163.256 227.579 163.159 227.51 163.062 227.524C162.965 227.538 162.896 227.634 162.91 227.731C163.422 231.303 165.305 233.366 167.036 235.277C168.088 236.44 169.085 237.533 169.68 238.863C172.56 245.383 177.142 244.11 181.684 242.85L182.75 242.559C183.373 242.407 183.954 242.102 184.536 241.784C185.159 241.452 185.782 241.119 186.432 240.995C187.54 240.787 188.675 240.759 189.81 240.718C191.153 240.676 192.496 240.635 193.798 240.316C194.434 240.164 195.03 239.887 195.625 239.61C196.193 239.361 196.76 239.098 197.37 238.946Z" fill="url(#paint39_linear)"/>
<path fill-rule="evenodd" clip-rule="evenodd" d="M163.09 222.789C160.377 222.789 158.175 224.99 158.175 227.704C158.175 230.417 160.377 232.619 163.09 232.619C165.804 232.619 168.005 230.417 168.005 227.704C167.991 224.99 165.79 222.789 163.09 222.789Z" fill="#5B1E00"/>
<path opacity="0.5" fill-rule="evenodd" clip-rule="evenodd" d="M162.163 223.703C159.449 223.703 157.248 225.904 157.248 228.618C157.248 231.331 159.449 233.533 162.163 233.533C164.876 233.533 167.078 231.331 167.078 228.618C167.078 225.904 164.876 223.703 162.163 223.703Z" fill="url(#paint40_linear)"/>
<path fill-rule="evenodd" clip-rule="evenodd" d="M163.09 223.163C160.584 223.163 158.549 225.198 158.549 227.704C158.549 230.21 160.584 232.245 163.09 232.245C165.596 232.245 167.631 230.21 167.631 227.704C167.631 225.198 165.596 223.163 163.09 223.163Z" fill="url(#paint41_linear)"/>
<path fill-rule="evenodd" clip-rule="evenodd" d="M163.09 224.229C161.18 224.229 159.615 225.779 159.615 227.704C159.615 229.614 161.166 231.179 163.09 231.179C165.001 231.179 166.565 229.628 166.565 227.704C166.551 225.779 165.001 224.229 163.09 224.229Z" fill="url(#paint42_linear)"/>
<path opacity="0.5" fill-rule="evenodd" clip-rule="evenodd" d="M163.09 224.229C163.298 226.084 161.429 228.645 159.615 227.704C159.615 229.614 161.166 231.179 163.09 231.179C162.55 228.895 164.945 226.596 166.565 227.704C166.551 225.779 165.001 224.229 163.09 224.229Z" fill="url(#paint43_linear)"/>
<path fill-rule="evenodd" clip-rule="evenodd" d="M163.09 224.492C161.318 224.492 159.878 225.932 159.878 227.704C159.878 229.476 161.318 230.916 163.09 230.916C164.862 230.916 166.302 229.476 166.302 227.704C166.302 225.932 164.862 224.492 163.09 224.492Z" fill="url(#paint44_linear)"/>
<path fill-rule="evenodd" clip-rule="evenodd" d="M163.09 225.544C161.9 225.544 160.93 226.513 160.93 227.704C160.93 228.895 161.9 229.864 163.09 229.864C164.281 229.864 165.25 228.895 165.25 227.704C165.25 226.513 164.281 225.544 163.09 225.544Z" fill="url(#paint45_linear)"/>
<path fill-rule="evenodd" clip-rule="evenodd" d="M163.09 225.863C162.08 225.863 161.263 226.679 161.263 227.69C161.263 228.701 162.08 229.518 163.09 229.518C164.101 229.518 164.918 228.701 164.918 227.69C164.918 226.693 164.101 225.863 163.09 225.863Z" fill="url(#paint46_linear)"/>
<path fill-rule="evenodd" clip-rule="evenodd" d="M180.659 243.155C180.23 242.033 180.811 240.773 181.933 240.344C183.054 239.915 184.314 240.496 184.743 241.618C185.173 242.739 184.591 243.999 183.47 244.428C182.334 244.844 181.074 244.276 180.659 243.155Z" fill="#5B1E00"/>
<path fill-rule="evenodd" clip-rule="evenodd" d="M180.978 243.03C180.618 242.089 181.102 241.023 182.044 240.676C182.985 240.317 184.051 240.801 184.397 241.743C184.757 242.684 184.273 243.75 183.331 244.096C182.39 244.456 181.337 243.972 180.978 243.03Z" fill="url(#paint47_linear)"/>
<path opacity="0.5" fill-rule="evenodd" clip-rule="evenodd" d="M180.978 243.03C182.625 243.708 184.563 240.51 182.044 240.676C182.985 240.317 184.051 240.801 184.397 241.743C182.03 242.504 181.933 244.055 183.331 244.096C182.39 244.456 181.338 243.972 180.978 243.03Z" fill="url(#paint48_linear)"/>
<path fill-rule="evenodd" clip-rule="evenodd" d="M181.573 242.809C181.338 242.186 181.656 241.493 182.279 241.258C182.902 241.023 183.594 241.341 183.83 241.964C184.065 242.587 183.747 243.279 183.124 243.515C182.501 243.75 181.794 243.432 181.573 242.809Z" fill="url(#paint49_linear)"/>
<path opacity="0.5" fill-rule="evenodd" clip-rule="evenodd" d="M181.573 242.809C182.944 243.099 183.165 241.881 182.279 241.258C182.902 241.023 183.594 241.341 183.83 241.964C183.082 240.732 182.417 243.099 183.124 243.515C182.5 243.75 181.794 243.432 181.573 242.809Z" fill="url(#paint50_linear)"/>
<path fill-rule="evenodd" clip-rule="evenodd" d="M181.739 242.753C181.545 242.227 181.808 241.632 182.334 241.438C182.86 241.244 183.456 241.507 183.65 242.033C183.843 242.559 183.58 243.155 183.054 243.348C182.528 243.542 181.933 243.279 181.739 242.753Z" fill="url(#paint51_linear)"/>
<path fill-rule="evenodd" clip-rule="evenodd" d="M188.121 241.41C187.692 240.289 188.274 239.029 189.395 238.6C190.517 238.171 191.776 238.752 192.206 239.873C192.635 240.995 192.053 242.255 190.932 242.684C189.797 243.099 188.551 242.532 188.121 241.41Z" fill="#5B1E00"/>
<path fill-rule="evenodd" clip-rule="evenodd" d="M188.454 241.286C188.094 240.344 188.578 239.278 189.52 238.932C190.461 238.572 191.527 239.057 191.873 239.998C192.233 240.939 191.749 242.006 190.807 242.352C189.866 242.712 188.8 242.227 188.454 241.286Z" fill="url(#paint52_linear)"/>
<path opacity="0.5" fill-rule="evenodd" clip-rule="evenodd" d="M188.454 241.286C190.101 241.964 192.039 238.766 189.52 238.932C190.461 238.572 191.527 239.057 191.873 239.998C189.506 240.76 189.409 242.31 190.807 242.352C189.866 242.712 188.8 242.227 188.454 241.286Z" fill="url(#paint53_linear)"/>
<path fill-rule="evenodd" clip-rule="evenodd" d="M189.035 241.064C188.8 240.441 189.118 239.749 189.741 239.513C190.364 239.278 191.057 239.596 191.292 240.219C191.527 240.842 191.209 241.535 190.586 241.77C189.963 242.005 189.271 241.687 189.035 241.064Z" fill="url(#paint54_linear)"/>
<path opacity="0.5" fill-rule="evenodd" clip-rule="evenodd" d="M189.035 241.064C190.406 241.355 190.627 240.136 189.741 239.513C190.364 239.278 191.057 239.596 191.292 240.219C190.544 238.987 189.866 241.355 190.586 241.77C189.963 242.005 189.271 241.687 189.035 241.064Z" fill="url(#paint55_linear)"/>
<path fill-rule="evenodd" clip-rule="evenodd" d="M189.201 240.995C189.008 240.469 189.271 239.873 189.797 239.68C190.323 239.486 190.918 239.749 191.112 240.275C191.306 240.801 191.043 241.396 190.517 241.59C189.991 241.798 189.409 241.535 189.201 240.995Z" fill="url(#paint56_linear)"/>
<path fill-rule="evenodd" clip-rule="evenodd" d="M195.293 239.527C194.864 238.406 195.445 237.146 196.567 236.731C197.688 236.301 198.948 236.883 199.377 238.004C199.806 239.126 199.225 240.386 198.103 240.815C196.968 241.23 195.722 240.663 195.293 239.527Z" fill="#5B1E00"/>
<path fill-rule="evenodd" clip-rule="evenodd" d="M195.625 239.417C195.265 238.475 195.75 237.409 196.691 237.063C197.633 236.703 198.699 237.188 199.045 238.129C199.405 239.07 198.92 240.137 197.979 240.483C197.023 240.829 195.971 240.358 195.625 239.417Z" fill="url(#paint57_linear)"/>
<path opacity="0.5" fill-rule="evenodd" clip-rule="evenodd" d="M195.625 239.417C197.273 240.095 199.211 236.897 196.691 237.063C197.633 236.703 198.699 237.188 199.045 238.129C196.677 238.89 196.581 240.441 197.979 240.483C197.024 240.829 195.971 240.358 195.625 239.417Z" fill="url(#paint58_linear)"/>
<path fill-rule="evenodd" clip-rule="evenodd" d="M196.207 239.195C195.971 238.572 196.29 237.88 196.913 237.644C197.536 237.409 198.228 237.727 198.463 238.35C198.699 238.973 198.38 239.666 197.757 239.901C197.134 240.123 196.442 239.818 196.207 239.195Z" fill="url(#paint59_linear)"/>
<path opacity="0.5" fill-rule="evenodd" clip-rule="evenodd" d="M196.207 239.195C197.577 239.486 197.799 238.267 196.913 237.644C197.536 237.409 198.228 237.727 198.463 238.35C197.716 237.118 197.051 239.486 197.757 239.901C197.134 240.123 196.442 239.818 196.207 239.195Z" fill="url(#paint60_linear)"/>
<path fill-rule="evenodd" clip-rule="evenodd" d="M196.373 239.126C196.179 238.6 196.442 238.004 196.968 237.81C197.494 237.617 198.09 237.88 198.283 238.406C198.477 238.932 198.214 239.527 197.688 239.721C197.162 239.915 196.567 239.652 196.373 239.126Z" fill="url(#paint61_linear)"/>
</g>
</g>
<defs>
<linearGradient id="paint0_linear" x1="119.23" y1="210.004" x2="116.656" y2="209.04" gradientUnits="userSpaceOnUse">
<stop stop-color="#212427"/>
<stop offset="0.78" stop-color="#B8B9B8"/>
<stop offset="1" stop-color="white"/>
</linearGradient>
<linearGradient id="paint1_linear" x1="120.843" y1="209.646" x2="120.215" y2="209.406" gradientUnits="userSpaceOnUse">
<stop stop-color="#212427"/>
<stop offset="1" stop-color="white"/>
</linearGradient>
<linearGradient id="paint2_linear" x1="112.82" y1="215.522" x2="112.662" y2="215.459" gradientUnits="userSpaceOnUse">
<stop stop-color="#212427"/>
<stop offset="1" stop-color="#B5B8B8"/>
</linearGradient>
<linearGradient id="paint3_linear" x1="112.67" y1="215.52" x2="112.764" y2="215.557" gradientUnits="userSpaceOnUse">
<stop stop-color="#212427"/>
<stop offset="1" stop-color="#B5B8B8"/>
</linearGradient>
<linearGradient id="paint4_linear" x1="111.069" y1="234.944" x2="71.5564" y2="234.942" gradientUnits="userSpaceOnUse">
<stop stop-color="#FFD13A"/>
<stop offset="1" stop-color="#FAEF5F"/>
</linearGradient>
<linearGradient id="paint5_linear" x1="107.707" y1="234.085" x2="71.4446" y2="227.778" gradientUnits="userSpaceOnUse">
<stop stop-color="#FFD13A"/>
<stop offset="1" stop-color="white"/>
</linearGradient>
<linearGradient id="paint6_linear" x1="86.5536" y1="244.19" x2="86.4564" y2="244.526" gradientUnits="userSpaceOnUse">
<stop stop-color="#FFF032"/>
<stop offset="1" stop-color="white"/>
</linearGradient>
<linearGradient id="paint7_linear" x1="94.1347" y1="222.952" x2="87.8734" y2="240.246" gradientUnits="userSpaceOnUse">
<stop stop-color="#FFD13A"/>
<stop offset="0.53" stop-color="#FAEF5F"/>
<stop offset="1" stop-color="#FFD13A"/>
</linearGradient>
<linearGradient id="paint8_linear" x1="108.871" y1="233.362" x2="76.1332" y2="243.543" gradientUnits="userSpaceOnUse">
<stop stop-color="#3B3092"/>
<stop offset="0.51" stop-color="#A5DBDB"/>
<stop offset="1" stop-color="#3B3092"/>
</linearGradient>
<linearGradient id="paint9_linear" x1="108.772" y1="229.034" x2="110.867" y2="230.982" gradientUnits="userSpaceOnUse">
<stop stop-color="#5C1800"/>
<stop offset="1" stop-color="white"/>
</linearGradient>
<linearGradient id="paint10_linear" x1="107.406" y1="232.184" x2="107.408" y2="223.16" gradientUnits="userSpaceOnUse">
<stop stop-color="#F89952"/>
<stop offset="1" stop-color="#FAEF5F"/>
</linearGradient>
<linearGradient id="paint11_linear" x1="107.406" y1="231.161" x2="107.408" y2="224.231" gradientUnits="userSpaceOnUse">
<stop stop-color="#3B3092"/>
<stop offset="1" stop-color="#2B3594"/>
</linearGradient>
<linearGradient id="paint12_linear" x1="108.929" y1="229.349" x2="105.743" y2="225.898" gradientUnits="userSpaceOnUse">
<stop stop-color="#A5DBDB"/>
<stop offset="1" stop-color="white"/>
</linearGradient>
<linearGradient id="paint13_linear" x1="107.406" y1="224.773" x2="107.409" y2="230.911" gradientUnits="userSpaceOnUse">
<stop stop-color="#FFF032"/>
<stop offset="1" stop-color="#FAEF5F"/>
</linearGradient>
<linearGradient id="paint14_linear" x1="107.406" y1="229.856" x2="107.407" y2="225.539" gradientUnits="userSpaceOnUse">
<stop stop-color="#3B3092"/>
<stop offset="1" stop-color="#2B3594"/>
</linearGradient>
<linearGradient id="paint15_linear" x1="107.406" y1="226.03" x2="107.408" y2="229.532" gradientUnits="userSpaceOnUse">
<stop stop-color="#FFF032"/>
<stop offset="1" stop-color="#FAEF5F"/>
</linearGradient>
<linearGradient id="paint16_linear" x1="86.4833" y1="241.893" x2="89.127" y2="242.887" gradientUnits="userSpaceOnUse">
<stop stop-color="#FFF032"/>
<stop offset="1" stop-color="#FAEF5F"/>
</linearGradient>
<linearGradient id="paint17_linear" x1="87.2031" y1="241.523" x2="88.4319" y2="243.311" gradientUnits="userSpaceOnUse">
<stop stop-color="#FAEF5F"/>
<stop offset="1" stop-color="white"/>
</linearGradient>
<linearGradient id="paint18_linear" x1="86.9822" y1="242.081" x2="88.6265" y2="242.699" gradientUnits="userSpaceOnUse">
<stop stop-color="#3B3092"/>
<stop offset="1" stop-color="#2B3594"/>
</linearGradient>
<linearGradient id="paint19_linear" x1="87.4845" y1="241.576" x2="88.137" y2="243.271" gradientUnits="userSpaceOnUse">
<stop stop-color="#A5DBDB"/>
<stop offset="1" stop-color="white"/>
</linearGradient>
<linearGradient id="paint20_linear" x1="87.0536" y1="242.107" x2="88.5398" y2="242.666" gradientUnits="userSpaceOnUse">
<stop stop-color="#FAEF5F"/>
<stop offset="1" stop-color="#FDFAD3"/>
</linearGradient>
<linearGradient id="paint21_linear" x1="79.0161" y1="240.147" x2="81.6595" y2="241.141" gradientUnits="userSpaceOnUse">
<stop stop-color="#FFF032"/>
<stop offset="1" stop-color="#FAEF5F"/>
</linearGradient>
<linearGradient id="paint22_linear" x1="79.7361" y1="239.777" x2="80.965" y2="241.565" gradientUnits="userSpaceOnUse">
<stop stop-color="#FAEF5F"/>
<stop offset="1" stop-color="white"/>
</linearGradient>
<linearGradient id="paint23_linear" x1="79.5154" y1="240.334" x2="81.1594" y2="240.952" gradientUnits="userSpaceOnUse">
<stop stop-color="#3B3092"/>
<stop offset="1" stop-color="#2B3594"/>
</linearGradient>
<linearGradient id="paint24_linear" x1="80.0175" y1="239.83" x2="80.67" y2="241.524" gradientUnits="userSpaceOnUse">
<stop stop-color="#A5DBDB"/>
<stop offset="1" stop-color="white"/>
</linearGradient>
<linearGradient id="paint25_linear" x1="79.5865" y1="240.361" x2="81.0727" y2="240.92" gradientUnits="userSpaceOnUse">
<stop stop-color="#FAEF5F"/>
<stop offset="1" stop-color="#FDFAD3"/>
</linearGradient>
<linearGradient id="paint26_linear" x1="71.8459" y1="238.272" x2="74.4896" y2="239.266" gradientUnits="userSpaceOnUse">
<stop stop-color="#FFF032"/>
<stop offset="1" stop-color="#FAEF5F"/>
</linearGradient>
<linearGradient id="paint27_linear" x1="72.5658" y1="237.901" x2="73.7947" y2="239.69" gradientUnits="userSpaceOnUse">
<stop stop-color="#FAEF5F"/>
<stop offset="1" stop-color="white"/>
</linearGradient>
<linearGradient id="paint28_linear" x1="72.3445" y1="238.459" x2="73.9888" y2="239.077" gradientUnits="userSpaceOnUse">
<stop stop-color="#3B3092"/>
<stop offset="1" stop-color="#2B3594"/>
</linearGradient>
<linearGradient id="paint29_linear" x1="72.8473" y1="237.955" x2="73.4998" y2="239.649" gradientUnits="userSpaceOnUse">
<stop stop-color="#A5DBDB"/>
<stop offset="1" stop-color="white"/>
</linearGradient>
<linearGradient id="paint30_linear" x1="72.4162" y1="238.486" x2="73.9028" y2="239.045" gradientUnits="userSpaceOnUse">
<stop stop-color="#FAEF5F"/>
<stop offset="1" stop-color="#FDFAD3"/>
</linearGradient>
<linearGradient id="paint31_linear" x1="151.262" y1="210.004" x2="153.836" y2="209.04" gradientUnits="userSpaceOnUse">
<stop stop-color="#212427"/>
<stop offset="0.78" stop-color="#B8B9B8"/>
<stop offset="1" stop-color="white"/>
</linearGradient>
<linearGradient id="paint32_linear" x1="149.649" y1="209.646" x2="150.277" y2="209.406" gradientUnits="userSpaceOnUse">
<stop stop-color="#212427"/>
<stop offset="1" stop-color="white"/>
</linearGradient>
<linearGradient id="paint33_linear" x1="157.671" y1="215.522" x2="157.829" y2="215.459" gradientUnits="userSpaceOnUse">
<stop stop-color="#212427"/>
<stop offset="1" stop-color="#B5B8B8"/>
</linearGradient>
<linearGradient id="paint34_linear" x1="157.821" y1="215.52" x2="157.727" y2="215.557" gradientUnits="userSpaceOnUse">
<stop stop-color="#212427"/>
<stop offset="1" stop-color="#B5B8B8"/>
</linearGradient>
<linearGradient id="paint35_linear" x1="159.422" y1="234.944" x2="198.935" y2="234.942" gradientUnits="userSpaceOnUse">
<stop stop-color="#FFD13A"/>
<stop offset="1" stop-color="#FAEF5F"/>
</linearGradient>
<linearGradient id="paint36_linear" x1="162.785" y1="234.085" x2="199.047" y2="227.778" gradientUnits="userSpaceOnUse">
<stop stop-color="#FFD13A"/>
<stop offset="1" stop-color="white"/>
</linearGradient>
<linearGradient id="paint37_linear" x1="183.938" y1="244.19" x2="184.035" y2="244.526" gradientUnits="userSpaceOnUse">
<stop stop-color="#FFF032"/>
<stop offset="1" stop-color="white"/>
</linearGradient>
<linearGradient id="paint38_linear" x1="176.357" y1="222.952" x2="182.618" y2="240.246" gradientUnits="userSpaceOnUse">
<stop stop-color="#FFD13A"/>
<stop offset="0.53" stop-color="#FAEF5F"/>
<stop offset="1" stop-color="#FFD13A"/>
</linearGradient>
<linearGradient id="paint39_linear" x1="161.62" y1="233.362" x2="194.358" y2="243.543" gradientUnits="userSpaceOnUse">
<stop stop-color="#3B3092"/>
<stop offset="0.51" stop-color="#A5DBDB"/>
<stop offset="1" stop-color="#3B3092"/>
</linearGradient>
<linearGradient id="paint40_linear" x1="161.72" y1="229.034" x2="159.625" y2="230.982" gradientUnits="userSpaceOnUse">
<stop stop-color="#5C1800"/>
<stop offset="1" stop-color="white"/>
</linearGradient>
<linearGradient id="paint41_linear" x1="163.086" y1="232.184" x2="163.083" y2="223.16" gradientUnits="userSpaceOnUse">
<stop stop-color="#F89952"/>
<stop offset="1" stop-color="#FAEF5F"/>
</linearGradient>
<linearGradient id="paint42_linear" x1="163.085" y1="231.161" x2="163.084" y2="224.231" gradientUnits="userSpaceOnUse">
<stop stop-color="#3B3092"/>
<stop offset="1" stop-color="#2B3594"/>
</linearGradient>
<linearGradient id="paint43_linear" x1="161.563" y1="229.349" x2="164.748" y2="225.898" gradientUnits="userSpaceOnUse">
<stop stop-color="#A5DBDB"/>
<stop offset="1" stop-color="white"/>
</linearGradient>
<linearGradient id="paint44_linear" x1="163.086" y1="224.773" x2="163.083" y2="230.911" gradientUnits="userSpaceOnUse">
<stop stop-color="#FFF032"/>
<stop offset="1" stop-color="#FAEF5F"/>
</linearGradient>
<linearGradient id="paint45_linear" x1="163.085" y1="229.856" x2="163.084" y2="225.539" gradientUnits="userSpaceOnUse">
<stop stop-color="#3B3092"/>
<stop offset="1" stop-color="#2B3594"/>
</linearGradient>
<linearGradient id="paint46_linear" x1="163.085" y1="226.03" x2="163.084" y2="229.532" gradientUnits="userSpaceOnUse">
<stop stop-color="#FFF032"/>
<stop offset="1" stop-color="#FAEF5F"/>
</linearGradient>
<linearGradient id="paint47_linear" x1="184.008" y1="241.893" x2="181.364" y2="242.887" gradientUnits="userSpaceOnUse">
<stop stop-color="#FFF032"/>
<stop offset="1" stop-color="#FAEF5F"/>
</linearGradient>
<linearGradient id="paint48_linear" x1="183.288" y1="241.523" x2="182.059" y2="243.311" gradientUnits="userSpaceOnUse">
<stop stop-color="#FAEF5F"/>
<stop offset="1" stop-color="white"/>
</linearGradient>
<linearGradient id="paint49_linear" x1="183.509" y1="242.081" x2="181.865" y2="242.699" gradientUnits="userSpaceOnUse">
<stop stop-color="#3B3092"/>
<stop offset="1" stop-color="#2B3594"/>
</linearGradient>
<linearGradient id="paint50_linear" x1="183.007" y1="241.576" x2="182.354" y2="243.271" gradientUnits="userSpaceOnUse">
<stop stop-color="#A5DBDB"/>
<stop offset="1" stop-color="white"/>
</linearGradient>
<linearGradient id="paint51_linear" x1="183.438" y1="242.108" x2="181.951" y2="242.666" gradientUnits="userSpaceOnUse">
<stop stop-color="#FAEF5F"/>
<stop offset="1" stop-color="#FDFAD3"/>
</linearGradient>
<linearGradient id="paint52_linear" x1="191.475" y1="240.147" x2="188.832" y2="241.141" gradientUnits="userSpaceOnUse">
<stop stop-color="#FFF032"/>
<stop offset="1" stop-color="#FAEF5F"/>
</linearGradient>
<linearGradient id="paint53_linear" x1="190.755" y1="239.777" x2="189.527" y2="241.565" gradientUnits="userSpaceOnUse">
<stop stop-color="#FAEF5F"/>
<stop offset="1" stop-color="white"/>
</linearGradient>
<linearGradient id="paint54_linear" x1="190.976" y1="240.335" x2="189.332" y2="240.953" gradientUnits="userSpaceOnUse">
<stop stop-color="#3B3092"/>
<stop offset="1" stop-color="#2B3594"/>
</linearGradient>
<linearGradient id="paint55_linear" x1="190.474" y1="239.83" x2="189.822" y2="241.524" gradientUnits="userSpaceOnUse">
<stop stop-color="#A5DBDB"/>
<stop offset="1" stop-color="white"/>
</linearGradient>
<linearGradient id="paint56_linear" x1="190.905" y1="240.361" x2="189.419" y2="240.92" gradientUnits="userSpaceOnUse">
<stop stop-color="#FAEF5F"/>
<stop offset="1" stop-color="#FDFAD3"/>
</linearGradient>
<linearGradient id="paint57_linear" x1="198.645" y1="238.272" x2="196.002" y2="239.266" gradientUnits="userSpaceOnUse">
<stop stop-color="#FFF032"/>
<stop offset="1" stop-color="#FAEF5F"/>
</linearGradient>
<linearGradient id="paint58_linear" x1="197.926" y1="237.902" x2="196.697" y2="239.69" gradientUnits="userSpaceOnUse">
<stop stop-color="#FAEF5F"/>
<stop offset="1" stop-color="white"/>
</linearGradient>
<linearGradient id="paint59_linear" x1="198.146" y1="238.46" x2="196.502" y2="239.078" gradientUnits="userSpaceOnUse">
<stop stop-color="#3B3092"/>
<stop offset="1" stop-color="#2B3594"/>
</linearGradient>
<linearGradient id="paint60_linear" x1="197.644" y1="237.954" x2="196.992" y2="239.649" gradientUnits="userSpaceOnUse">
<stop stop-color="#A5DBDB"/>
<stop offset="1" stop-color="white"/>
</linearGradient>
<linearGradient id="paint61_linear" x1="198.075" y1="238.486" x2="196.589" y2="239.045" gradientUnits="userSpaceOnUse">
<stop stop-color="#FAEF5F"/>
<stop offset="1" stop-color="#FDFAD3"/>
</linearGradient>
<clipPath id="clip0">
<rect width="270" height="370" fill="white"/>
</clipPath>
<clipPath id="clip1">
<rect x="65.3188" y="89.3953" width="139.859" height="163.451" fill="white"/>
</clipPath>
</defs>
</svg>
