<svg width="270" height="370" viewBox="0 0 270 370" fill="none" xmlns="http://www.w3.org/2000/svg">
<g clip-path="url(#clip0)">
<g clip-path="url(#clip1)">
<path fill-rule="evenodd" clip-rule="evenodd" d="M113.775 190.24V230.417C124.865 230.417 133.864 221.418 133.864 210.329C133.864 199.239 124.865 190.24 113.775 190.24Z" fill="url(#paint0_linear)"/>
<path fill-rule="evenodd" clip-rule="evenodd" d="M113.775 190.24V230.417C124.865 230.417 133.864 221.418 133.864 210.329C133.864 199.239 124.865 190.24 113.775 190.24ZM112.446 230.404V190.24C112.446 189.506 113.041 188.911 113.775 188.911C119.687 188.911 125.045 191.306 128.921 195.183C132.798 199.059 135.193 204.417 135.193 210.329C135.193 216.241 132.798 221.598 128.921 225.475C125.045 229.351 119.687 231.747 113.775 231.747C113.041 231.733 112.446 231.137 112.446 230.404Z" fill="black"/>
<path fill-rule="evenodd" clip-rule="evenodd" d="M113.775 196.733V223.897C121.279 223.897 127.357 217.819 127.357 210.315C127.357 202.811 121.279 196.733 113.775 196.733Z" fill="url(#paint1_linear)"/>
<path fill-rule="evenodd" clip-rule="evenodd" d="M115.298 202.354V218.608H132.064C133.213 216.074 133.85 213.278 133.85 210.315C133.85 207.477 133.269 204.791 132.202 202.34H115.298V202.354Z" fill="url(#paint2_linear)"/>
<path opacity="0.5" fill-rule="evenodd" clip-rule="evenodd" d="M113.775 190.24C113.775 190.739 124.034 194.407 124.034 210.329C124.034 226.264 113.775 229.905 113.775 230.417C124.865 230.417 133.864 221.418 133.864 210.329C133.864 199.225 124.865 190.24 113.775 190.24Z" fill="url(#paint3_linear)"/>
<path fill-rule="evenodd" clip-rule="evenodd" d="M70.026 230.404H112.059C114.163 230.404 115.866 228.687 115.866 226.596V193.715C115.866 190.42 111.989 188.676 109.525 190.863L68.7522 227.081C67.4508 228.244 68.2677 230.404 70.026 230.404Z" fill="url(#paint4_linear)"/>
<path fill-rule="evenodd" clip-rule="evenodd" d="M70.0259 230.404H112.058C114.163 230.404 115.866 228.687 115.866 226.596V193.715C115.866 190.42 111.989 188.676 109.525 190.863L68.7522 227.081C67.4508 228.244 68.2676 230.404 70.0259 230.404ZM112.058 231.733H70.0259C69.0706 231.733 68.2815 231.345 67.7139 230.75C67.6862 230.722 67.6585 230.694 67.6169 230.653C67.3539 230.348 67.1462 230.002 67.0078 229.642C66.8693 229.268 66.7863 228.881 66.7863 228.479C66.7863 227.621 67.1185 226.749 67.88 226.084L108.653 189.866C109.663 188.966 110.868 188.551 112.045 188.551C112.778 188.551 113.498 188.717 114.163 189.008C114.786 189.285 115.367 189.7 115.838 190.213C115.866 190.24 115.893 190.268 115.921 190.296C116.71 191.182 117.195 192.345 117.195 193.701V226.596C117.195 228.009 116.613 229.296 115.686 230.224C114.758 231.151 113.471 231.733 112.058 231.733Z" fill="black"/>
<path opacity="0.5" fill-rule="evenodd" clip-rule="evenodd" d="M70.026 230.404C84.0369 230.404 98.0477 230.404 112.059 230.404C114.163 230.404 115.866 228.687 115.866 226.596C115.866 215.631 115.866 204.68 115.866 193.715C115.866 190.42 111.989 188.676 109.525 190.863C109.525 205.829 110.3 220.629 106.479 224.45C103.683 227.247 87.6365 227.067 68.7661 227.067C67.4509 228.244 68.2677 230.404 70.026 230.404Z" fill="url(#paint5_linear)"/>
<path fill-rule="evenodd" clip-rule="evenodd" d="M75.8407 223.744H103.793C105.192 223.744 106.327 222.609 106.327 221.211V199.35C106.327 197.163 103.752 196 102.104 197.453L74.9962 221.529C74.124 222.305 74.6778 223.744 75.8407 223.744Z" fill="#5B1E00"/>
<path fill-rule="evenodd" clip-rule="evenodd" d="M75.8407 223.371H103.793C104.984 223.371 105.953 222.401 105.953 221.211V199.35C105.953 197.481 103.765 196.498 102.367 197.744L75.2592 221.82C74.65 222.36 75.0238 223.371 75.8407 223.371Z" fill="url(#paint6_linear)"/>
<path fill-rule="evenodd" clip-rule="evenodd" d="M75.8407 223.371H77.8482L96.3447 207.338H105.953V199.35C105.953 197.481 103.765 196.498 102.367 197.744L75.2592 221.82C74.65 222.36 75.0238 223.371 75.8407 223.371Z" fill="url(#paint7_linear)"/>
<path fill-rule="evenodd" clip-rule="evenodd" d="M111.657 199.475C111.685 199.156 111.975 198.935 112.28 198.976C112.598 199.004 112.82 199.295 112.778 199.599C112.515 201.967 112.917 202.437 113.332 202.922C113.886 203.573 114.454 204.251 114.315 206.951C114.301 207.269 114.024 207.505 113.72 207.491C113.401 207.477 113.166 207.2 113.18 206.896C113.304 204.639 112.875 204.127 112.474 203.656C111.892 202.977 111.352 202.327 111.657 199.475Z" fill="#5B1E00"/>
<path fill-rule="evenodd" clip-rule="evenodd" d="M111.851 199.502C111.878 199.295 112.058 199.142 112.266 199.17C112.474 199.198 112.626 199.378 112.598 199.585C112.335 202.036 112.751 202.534 113.194 203.06C113.72 203.684 114.274 204.334 114.135 206.965C114.121 207.172 113.941 207.339 113.734 207.325C113.526 207.311 113.36 207.131 113.374 206.923C113.498 204.583 113.041 204.057 112.612 203.545C112.072 202.894 111.546 202.271 111.851 199.502Z" fill="url(#paint8_linear)"/>
<path fill-rule="evenodd" clip-rule="evenodd" d="M112.045 199.516C112.058 199.419 112.155 199.336 112.252 199.35C112.363 199.364 112.432 199.461 112.418 199.558C112.142 202.091 112.585 202.617 113.055 203.171C113.554 203.767 114.08 204.39 113.941 206.937C113.941 207.048 113.844 207.117 113.748 207.117C113.637 207.117 113.568 207.02 113.568 206.923C113.692 204.514 113.221 203.947 112.765 203.42C112.238 202.797 111.74 202.216 112.045 199.516Z" fill="url(#paint9_linear)"/>
<path fill-rule="evenodd" clip-rule="evenodd" d="M110.716 206.992C110.743 207.311 111.034 207.532 111.339 207.491C111.657 207.463 111.879 207.172 111.837 206.868C111.574 204.5 111.975 204.03 112.391 203.545C112.945 202.894 113.512 202.216 113.374 199.516C113.36 199.198 113.083 198.962 112.778 198.976C112.46 198.99 112.225 199.267 112.239 199.572C112.363 201.828 111.934 202.327 111.532 202.811C110.951 203.49 110.397 204.14 110.716 206.992Z" fill="#5B1E00"/>
<path fill-rule="evenodd" clip-rule="evenodd" d="M110.896 206.979C110.923 207.186 111.103 207.339 111.311 207.311C111.519 207.283 111.671 207.103 111.643 206.896C111.38 204.445 111.795 203.947 112.238 203.42C112.765 202.797 113.318 202.147 113.18 199.516C113.166 199.309 112.986 199.142 112.778 199.156C112.571 199.17 112.405 199.35 112.418 199.558C112.543 201.898 112.086 202.424 111.657 202.936C111.117 203.587 110.591 204.196 110.896 206.979Z" fill="url(#paint10_linear)"/>
<path fill-rule="evenodd" clip-rule="evenodd" d="M111.089 206.951C111.103 207.048 111.2 207.131 111.297 207.117C111.408 207.103 111.477 207.006 111.463 206.909C111.186 204.376 111.629 203.85 112.1 203.296C112.598 202.701 113.125 202.078 112.986 199.53C112.986 199.419 112.889 199.35 112.792 199.35C112.682 199.35 112.612 199.447 112.612 199.544C112.737 201.953 112.266 202.521 111.809 203.047C111.297 203.67 110.799 204.265 111.089 206.951Z" fill="url(#paint11_linear)"/>
<path fill-rule="evenodd" clip-rule="evenodd" d="M110.439 199.475C110.411 199.156 110.12 198.935 109.816 198.976C109.497 199.004 109.276 199.295 109.317 199.599C109.58 201.967 109.179 202.437 108.763 202.922C108.21 203.573 107.642 204.251 107.78 206.951C107.794 207.269 108.071 207.505 108.376 207.491C108.694 207.477 108.93 207.2 108.916 206.896C108.791 204.639 109.22 204.127 109.622 203.656C110.203 202.977 110.743 202.327 110.439 199.475Z" fill="#5B1E00"/>
<path fill-rule="evenodd" clip-rule="evenodd" d="M110.245 199.502C110.217 199.295 110.037 199.142 109.83 199.17C109.622 199.198 109.47 199.378 109.497 199.585C109.76 202.036 109.345 202.534 108.902 203.06C108.376 203.684 107.822 204.334 107.961 206.965C107.974 207.172 108.154 207.339 108.362 207.325C108.57 207.311 108.736 207.131 108.722 206.923C108.597 204.583 109.054 204.057 109.483 203.545C110.023 202.894 110.549 202.271 110.245 199.502Z" fill="url(#paint12_linear)"/>
<path fill-rule="evenodd" clip-rule="evenodd" d="M110.051 199.516C110.037 199.419 109.94 199.336 109.843 199.35C109.746 199.364 109.663 199.461 109.677 199.558C109.954 202.091 109.511 202.617 109.04 203.171C108.542 203.767 108.016 204.39 108.154 206.937C108.154 207.048 108.251 207.117 108.348 207.117C108.459 207.117 108.528 207.02 108.528 206.923C108.404 204.514 108.874 203.947 109.331 203.42C109.857 202.797 110.356 202.216 110.051 199.516Z" fill="url(#paint13_linear)"/>
<path fill-rule="evenodd" clip-rule="evenodd" d="M111.394 206.992C111.366 207.311 111.076 207.532 110.771 207.491C110.453 207.463 110.231 207.172 110.273 206.868C110.536 204.5 110.134 204.03 109.719 203.545C109.165 202.894 108.597 202.216 108.736 199.516C108.75 199.198 109.027 198.962 109.331 198.976C109.65 198.99 109.885 199.267 109.871 199.572C109.746 201.828 110.176 202.327 110.577 202.811C111.159 203.49 111.699 204.14 111.394 206.992Z" fill="#5B1E00"/>
<path fill-rule="evenodd" clip-rule="evenodd" d="M111.2 206.979C111.173 207.186 110.993 207.339 110.785 207.311C110.577 207.283 110.425 207.103 110.453 206.896C110.716 204.445 110.3 203.947 109.857 203.42C109.331 202.797 108.777 202.147 108.916 199.516C108.93 199.309 109.11 199.142 109.317 199.156C109.525 199.17 109.691 199.35 109.677 199.558C109.553 201.898 110.01 202.424 110.439 202.936C110.979 203.587 111.505 204.196 111.2 206.979Z" fill="url(#paint14_linear)"/>
<path fill-rule="evenodd" clip-rule="evenodd" d="M111.006 206.951C110.993 207.048 110.896 207.131 110.799 207.117C110.702 207.103 110.619 207.006 110.633 206.909C110.909 204.376 110.466 203.85 109.996 203.296C109.497 202.701 108.971 202.078 109.11 199.53C109.11 199.419 109.207 199.35 109.303 199.35C109.414 199.35 109.483 199.447 109.483 199.544C109.359 201.953 109.83 202.521 110.286 203.047C110.813 203.67 111.311 204.265 111.006 206.951Z" fill="url(#paint15_linear)"/>
<path fill-rule="evenodd" clip-rule="evenodd" d="M111.145 210.91C111.172 210.592 111.463 210.37 111.768 210.412C112.086 210.44 112.308 210.73 112.266 211.035C112.003 213.402 112.405 213.873 112.82 214.358C113.374 215.008 113.941 215.687 113.803 218.387C113.789 218.705 113.512 218.94 113.208 218.926C112.889 218.913 112.654 218.636 112.668 218.331C112.792 216.074 112.363 215.576 111.962 215.092C111.38 214.413 110.826 213.762 111.145 210.91Z" fill="#5B1E00"/>
<path fill-rule="evenodd" clip-rule="evenodd" d="M111.325 210.924C111.352 210.717 111.532 210.564 111.74 210.592C111.948 210.62 112.1 210.8 112.072 211.007C111.809 213.458 112.225 213.956 112.668 214.482C113.194 215.105 113.748 215.756 113.609 218.387C113.595 218.594 113.415 218.76 113.208 218.747C113 218.733 112.834 218.553 112.848 218.345C112.972 216.005 112.515 215.479 112.086 214.967C111.546 214.316 111.02 213.707 111.325 210.924Z" fill="url(#paint16_linear)"/>
<path fill-rule="evenodd" clip-rule="evenodd" d="M111.519 210.952C111.532 210.855 111.629 210.772 111.726 210.786C111.823 210.8 111.906 210.897 111.892 210.993C111.616 213.527 112.059 214.053 112.529 214.607C113.028 215.202 113.554 215.825 113.415 218.373C113.415 218.483 113.318 218.553 113.222 218.553C113.111 218.553 113.042 218.456 113.042 218.359C113.166 215.95 112.695 215.382 112.239 214.856C111.726 214.233 111.228 213.638 111.519 210.952Z" fill="url(#paint17_linear)"/>
<path fill-rule="evenodd" clip-rule="evenodd" d="M111.145 218.428C111.172 218.746 111.463 218.968 111.768 218.926C112.086 218.899 112.308 218.608 112.266 218.303C112.003 215.936 112.405 215.465 112.82 214.981C113.374 214.33 113.941 213.652 113.803 210.952C113.789 210.633 113.512 210.398 113.208 210.412C112.889 210.426 112.654 210.703 112.668 211.007C112.792 213.264 112.363 213.762 111.962 214.247C111.38 214.925 110.826 215.576 111.145 218.428Z" fill="#5B1E00"/>
<path fill-rule="evenodd" clip-rule="evenodd" d="M111.325 218.4C111.352 218.608 111.532 218.76 111.74 218.733C111.948 218.705 112.1 218.525 112.072 218.317C111.809 215.867 112.225 215.368 112.668 214.842C113.194 214.219 113.748 213.569 113.609 210.938C113.595 210.73 113.415 210.564 113.208 210.578C113 210.592 112.834 210.772 112.848 210.98C112.972 213.319 112.515 213.845 112.086 214.358C111.546 215.008 111.02 215.631 111.325 218.4Z" fill="url(#paint18_linear)"/>
<path fill-rule="evenodd" clip-rule="evenodd" d="M111.519 218.386C111.532 218.483 111.629 218.566 111.726 218.553C111.823 218.539 111.906 218.442 111.892 218.345C111.616 215.811 112.059 215.285 112.529 214.731C113.028 214.136 113.554 213.513 113.415 210.966C113.415 210.855 113.318 210.786 113.222 210.786C113.111 210.786 113.042 210.883 113.042 210.98C113.166 213.389 112.695 213.956 112.239 214.482C111.726 215.105 111.228 215.687 111.519 218.386Z" fill="url(#paint19_linear)"/>
<path fill-rule="evenodd" clip-rule="evenodd" d="M110.951 210.91C110.923 210.592 110.633 210.37 110.328 210.412C110.01 210.44 109.788 210.73 109.83 211.035C110.093 213.402 109.691 213.873 109.276 214.358C108.722 215.008 108.154 215.687 108.293 218.387C108.307 218.705 108.584 218.94 108.888 218.926C109.207 218.913 109.442 218.636 109.428 218.331C109.303 216.074 109.733 215.576 110.134 215.092C110.716 214.413 111.269 213.762 110.951 210.91Z" fill="#5B1E00"/>
<path fill-rule="evenodd" clip-rule="evenodd" d="M110.771 210.924C110.743 210.717 110.563 210.564 110.356 210.592C110.148 210.62 109.996 210.8 110.023 211.007C110.286 213.458 109.871 213.956 109.428 214.482C108.902 215.105 108.348 215.756 108.487 218.387C108.5 218.594 108.68 218.76 108.888 218.747C109.096 218.733 109.262 218.553 109.248 218.345C109.123 216.005 109.58 215.479 110.01 214.967C110.55 214.316 111.076 213.707 110.771 210.924Z" fill="url(#paint20_linear)"/>
<path fill-rule="evenodd" clip-rule="evenodd" d="M110.577 210.952C110.563 210.855 110.466 210.772 110.37 210.786C110.259 210.8 110.19 210.897 110.203 210.993C110.48 213.527 110.037 214.053 109.567 214.607C109.068 215.202 108.542 215.825 108.68 218.373C108.68 218.483 108.777 218.553 108.874 218.553C108.985 218.553 109.054 218.456 109.054 218.359C108.93 215.95 109.4 215.382 109.857 214.856C110.383 214.233 110.882 213.638 110.577 210.952Z" fill="url(#paint21_linear)"/>
<path fill-rule="evenodd" clip-rule="evenodd" d="M110.951 218.428C110.923 218.746 110.633 218.968 110.328 218.926C110.01 218.899 109.788 218.608 109.83 218.303C110.093 215.936 109.691 215.465 109.276 214.981C108.722 214.33 108.154 213.652 108.293 210.952C108.307 210.633 108.584 210.398 108.888 210.412C109.207 210.426 109.442 210.703 109.428 211.007C109.303 213.264 109.733 213.762 110.134 214.247C110.716 214.925 111.269 215.576 110.951 218.428Z" fill="#5B1E00"/>
<path fill-rule="evenodd" clip-rule="evenodd" d="M110.771 218.4C110.743 218.608 110.563 218.76 110.356 218.733C110.148 218.705 109.996 218.525 110.023 218.317C110.286 215.867 109.871 215.368 109.428 214.842C108.902 214.219 108.348 213.569 108.487 210.938C108.5 210.73 108.68 210.564 108.888 210.578C109.096 210.592 109.262 210.772 109.248 210.98C109.123 213.319 109.58 213.845 110.01 214.358C110.55 215.008 111.076 215.631 110.771 218.4Z" fill="url(#paint22_linear)"/>
<path fill-rule="evenodd" clip-rule="evenodd" d="M110.577 218.386C110.563 218.483 110.466 218.566 110.37 218.553C110.259 218.539 110.19 218.442 110.203 218.345C110.48 215.811 110.037 215.285 109.567 214.731C109.068 214.136 108.542 213.513 108.68 210.966C108.68 210.855 108.777 210.786 108.874 210.786C108.985 210.786 109.054 210.883 109.054 210.98C108.93 213.389 109.4 213.956 109.857 214.482C110.383 215.105 110.882 215.687 110.577 218.386Z" fill="url(#paint23_linear)"/>
<path opacity="0.5" fill-rule="evenodd" clip-rule="evenodd" d="M109.802 193.508C112.308 192.829 114.897 194.324 115.561 196.83C116.24 199.336 114.744 201.925 112.238 202.59C109.733 203.268 107.144 201.773 106.479 199.267C105.801 196.761 107.296 194.186 109.802 193.508Z" fill="url(#paint24_linear)"/>
<path fill-rule="evenodd" clip-rule="evenodd" d="M109.802 192.718C112.308 192.04 114.897 193.535 115.561 196.041C116.24 198.547 114.744 201.136 112.238 201.801C109.733 202.479 107.144 200.984 106.479 198.478C105.801 195.972 107.296 193.383 109.802 192.718Z" fill="#5B1E00"/>
<path fill-rule="evenodd" clip-rule="evenodd" d="M109.885 193.051C112.211 192.428 114.592 193.812 115.215 196.124C115.838 198.45 114.454 200.831 112.142 201.454C109.816 202.077 107.434 200.693 106.811 198.381C106.188 196.069 107.573 193.674 109.885 193.051Z" fill="url(#paint25_linear)"/>
<path fill-rule="evenodd" clip-rule="evenodd" d="M110.162 194.047C111.934 193.577 113.762 194.629 114.232 196.401C114.703 198.173 113.651 200.001 111.879 200.471C110.107 200.942 108.279 199.89 107.808 198.118C107.324 196.346 108.39 194.518 110.162 194.047Z" fill="url(#paint26_linear)"/>
<path opacity="0.5" fill-rule="evenodd" clip-rule="evenodd" d="M110.162 194.047C110.425 195.82 112.792 197.73 114.232 196.401C114.703 198.173 113.651 200.001 111.879 200.471C111.809 198.215 109.027 196.678 107.808 198.118C107.324 196.346 108.39 194.518 110.162 194.047Z" fill="url(#paint27_linear)"/>
<path fill-rule="evenodd" clip-rule="evenodd" d="M110.217 194.283C111.865 193.84 113.554 194.823 113.983 196.456C114.426 198.104 113.443 199.793 111.809 200.222C110.162 200.665 108.473 199.682 108.044 198.049C107.601 196.415 108.584 194.726 110.217 194.283Z" fill="url(#paint28_linear)"/>
<path fill-rule="evenodd" clip-rule="evenodd" d="M110.48 195.252C111.588 194.961 112.723 195.612 113.014 196.72C113.305 197.827 112.654 198.962 111.546 199.253C110.439 199.544 109.303 198.893 109.013 197.786C108.722 196.692 109.373 195.557 110.48 195.252Z" fill="url(#paint29_linear)"/>
<path fill-rule="evenodd" clip-rule="evenodd" d="M110.563 195.571C111.505 195.321 112.46 195.875 112.709 196.817C112.958 197.758 112.405 198.713 111.463 198.962C110.522 199.212 109.566 198.658 109.317 197.716C109.068 196.775 109.622 195.82 110.563 195.571Z" fill="url(#paint30_linear)"/>
<path opacity="0.5" fill-rule="evenodd" clip-rule="evenodd" d="M109.968 204.874C112.128 204.293 114.329 205.58 114.911 207.726C115.492 209.886 114.204 212.087 112.059 212.669C109.899 213.25 107.697 211.962 107.116 209.817C106.548 207.671 107.822 205.455 109.968 204.874Z" fill="url(#paint31_linear)"/>
<path fill-rule="evenodd" clip-rule="evenodd" d="M109.968 204.196C112.128 203.614 114.329 204.902 114.911 207.048C115.492 209.207 114.204 211.409 112.059 211.99C109.899 212.572 107.697 211.284 107.116 209.138C106.548 206.992 107.822 204.777 109.968 204.196Z" fill="#5B1E00"/>
<path fill-rule="evenodd" clip-rule="evenodd" d="M110.079 204.611C112.003 204.099 113.983 205.234 114.495 207.158C115.007 209.083 113.872 211.063 111.948 211.575C110.023 212.087 108.043 210.952 107.531 209.027C107.019 207.103 108.154 205.123 110.079 204.611Z" fill="url(#paint32_linear)"/>
<path fill-rule="evenodd" clip-rule="evenodd" d="M110.3 205.428C111.768 205.04 113.291 205.912 113.678 207.38C114.066 208.847 113.194 210.37 111.726 210.758C110.259 211.146 108.736 210.273 108.348 208.806C107.96 207.338 108.833 205.829 110.3 205.428Z" fill="url(#paint33_linear)"/>
<path opacity="0.5" fill-rule="evenodd" clip-rule="evenodd" d="M110.3 205.428C110.522 206.895 112.488 208.474 113.678 207.38C114.066 208.848 113.194 210.37 111.726 210.758C111.671 208.889 109.359 207.615 108.348 208.806C107.96 207.338 108.833 205.829 110.3 205.428Z" fill="url(#paint34_linear)"/>
<path fill-rule="evenodd" clip-rule="evenodd" d="M110.356 205.636C111.713 205.276 113.111 206.079 113.485 207.435C113.845 208.792 113.042 210.19 111.685 210.564C110.328 210.924 108.93 210.121 108.556 208.764C108.182 207.394 108.999 205.995 110.356 205.636Z" fill="url(#paint35_linear)"/>
<path fill-rule="evenodd" clip-rule="evenodd" d="M110.577 206.438C111.491 206.189 112.432 206.743 112.682 207.657C112.931 208.571 112.377 209.512 111.463 209.761C110.549 210.01 109.608 209.457 109.359 208.543C109.11 207.629 109.663 206.688 110.577 206.438Z" fill="url(#paint36_linear)"/>
<path fill-rule="evenodd" clip-rule="evenodd" d="M110.646 206.688C111.422 206.48 112.225 206.937 112.432 207.712C112.64 208.487 112.183 209.29 111.408 209.498C110.632 209.706 109.829 209.249 109.622 208.474C109.4 207.698 109.857 206.895 110.646 206.688Z" fill="url(#paint37_linear)"/>
<path opacity="0.5" fill-rule="evenodd" clip-rule="evenodd" d="M111.02 216.338C112.848 216.338 114.329 217.819 114.329 219.646C114.329 221.474 112.848 222.955 111.02 222.955C109.193 222.955 107.711 221.474 107.711 219.646C107.711 217.819 109.193 216.338 111.02 216.338Z" fill="url(#paint38_linear)"/>
<path fill-rule="evenodd" clip-rule="evenodd" d="M111.02 215.479C112.848 215.479 114.329 216.961 114.329 218.788C114.329 220.616 112.848 222.097 111.02 222.097C109.193 222.097 107.711 220.616 107.711 218.788C107.711 216.961 109.193 215.479 111.02 215.479Z" fill="#5B1E00"/>
<path fill-rule="evenodd" clip-rule="evenodd" d="M111.02 215.908C112.612 215.908 113.9 217.196 113.9 218.788C113.9 220.38 112.612 221.668 111.02 221.668C109.428 221.668 108.14 220.38 108.14 218.788C108.127 217.196 109.428 215.908 111.02 215.908Z" fill="url(#paint39_linear)"/>
<path opacity="0.5" fill-rule="evenodd" clip-rule="evenodd" d="M111.02 215.908C109.11 217.971 112.737 222.595 113.9 218.788C113.9 220.38 112.612 221.668 111.02 221.668C111.214 217.75 108.985 216.739 108.14 218.788C108.127 217.196 109.428 215.908 111.02 215.908Z" fill="url(#paint40_linear)"/>
<path fill-rule="evenodd" clip-rule="evenodd" d="M111.02 216.891C112.072 216.891 112.917 217.736 112.917 218.788C112.917 219.84 112.072 220.685 111.02 220.685C109.968 220.685 109.124 219.826 109.124 218.788C109.124 217.736 109.968 216.891 111.02 216.891Z" fill="url(#paint41_linear)"/>
<path opacity="0.5" fill-rule="evenodd" clip-rule="evenodd" d="M111.02 216.891C109.83 218.76 111.491 219.743 112.917 218.788C112.917 219.84 112.072 220.685 111.02 220.685C113.249 220.256 110.134 217.957 109.124 218.788C109.124 217.736 109.968 216.891 111.02 216.891Z" fill="url(#paint42_linear)"/>
<path fill-rule="evenodd" clip-rule="evenodd" d="M111.02 217.182C111.906 217.182 112.626 217.902 112.626 218.788C112.626 219.674 111.906 220.394 111.02 220.394C110.134 220.394 109.414 219.674 109.414 218.788C109.4 217.902 110.134 217.182 111.02 217.182Z" fill="url(#paint43_linear)"/>
<path fill-rule="evenodd" clip-rule="evenodd" d="M81.171 223.371H79.4127L96.5802 208.778C97.1478 208.294 97.8816 209.166 97.3139 209.65L81.171 223.371Z" fill="#5B1E00"/>
<path fill-rule="evenodd" clip-rule="evenodd" d="M80.8803 223.371H79.7035L96.7048 208.931C97.0925 208.612 97.577 209.194 97.2032 209.512L80.8803 223.371Z" fill="url(#paint44_linear)"/>
<path fill-rule="evenodd" clip-rule="evenodd" d="M84.7982 223.371H83.0399L100.207 208.778C100.775 208.294 101.509 209.166 100.941 209.65L84.7982 223.371Z" fill="#5B1E00"/>
<path fill-rule="evenodd" clip-rule="evenodd" d="M84.5075 223.371H83.3307L100.332 208.931C100.72 208.612 101.204 209.194 100.817 209.512L84.5075 223.371Z" fill="url(#paint45_linear)"/>
<path fill-rule="evenodd" clip-rule="evenodd" d="M88.4255 223.371H86.6672L103.835 208.778C104.402 208.294 105.136 209.166 104.568 209.65L88.4255 223.371Z" fill="#5B1E00"/>
<path fill-rule="evenodd" clip-rule="evenodd" d="M88.1348 223.371H86.958L103.959 208.931C104.347 208.612 104.832 209.194 104.444 209.512L88.1348 223.371Z" fill="url(#paint46_linear)"/>
<path fill-rule="evenodd" clip-rule="evenodd" d="M77.9727 223.509C77.8897 223.578 77.7789 223.564 77.7097 223.495C77.6405 223.412 77.6543 223.301 77.7235 223.232L96.2201 207.186C96.2616 207.158 96.3032 207.145 96.3447 207.145H105.953C106.064 207.145 106.147 207.228 106.147 207.338C106.147 207.449 106.064 207.532 105.953 207.532H96.4139L77.9727 223.509Z" fill="#5B1E00"/>
<path fill-rule="evenodd" clip-rule="evenodd" d="M68.503 227.538C68.3923 227.538 68.3092 227.455 68.3092 227.344C68.3092 227.233 68.3923 227.15 68.503 227.15H89.0624L92.4405 223.606C92.5098 223.537 92.6344 223.523 92.7036 223.606C92.7728 223.675 92.7867 223.8 92.7036 223.869L89.2839 227.469C89.2424 227.51 89.2009 227.538 89.1317 227.538H68.503Z" fill="#5B1E00"/>
<path fill-rule="evenodd" clip-rule="evenodd" d="M105.953 199.876V201.787H101.8C101.273 201.787 100.844 201.357 100.844 200.831C100.844 200.305 101.273 199.876 101.8 199.876H105.953Z" fill="url(#paint47_linear)"/>
<path fill-rule="evenodd" clip-rule="evenodd" d="M105.953 200.25V201.399H101.799C101.481 201.399 101.232 201.136 101.232 200.831C101.232 200.513 101.495 200.264 101.799 200.264H105.953V200.25Z" fill="url(#paint48_linear)"/>
<path fill-rule="evenodd" clip-rule="evenodd" d="M105.953 202.728V204.639H101.8C101.273 204.639 100.844 204.21 100.844 203.683C100.844 203.157 101.273 202.728 101.8 202.728H105.953Z" fill="url(#paint49_linear)"/>
<path fill-rule="evenodd" clip-rule="evenodd" d="M105.953 203.116V204.265H101.799C101.481 204.265 101.232 204.002 101.232 203.697C101.232 203.379 101.495 203.13 101.799 203.13H105.953V203.116Z" fill="url(#paint50_linear)"/>
<path fill-rule="evenodd" clip-rule="evenodd" d="M156.721 190.24V230.417C145.632 230.417 136.633 221.418 136.633 210.329C136.633 199.239 145.618 190.24 156.721 190.24Z" fill="url(#paint51_linear)"/>
<path fill-rule="evenodd" clip-rule="evenodd" d="M158.037 190.24V230.417C158.037 231.151 157.441 231.747 156.708 231.747C150.796 231.747 145.438 229.351 141.561 225.475C137.685 221.598 135.29 216.241 135.29 210.329C135.29 204.417 137.685 199.059 141.561 195.183C145.438 191.306 150.796 188.911 156.708 188.911C157.441 188.911 158.037 189.506 158.037 190.24ZM156.721 190.24V230.417C145.632 230.417 136.633 221.418 136.633 210.329C136.633 199.239 145.618 190.24 156.721 190.24Z" fill="black"/>
<path fill-rule="evenodd" clip-rule="evenodd" d="M156.721 196.733V223.897C149.218 223.897 143.14 217.819 143.14 210.315C143.14 202.811 149.218 196.733 156.721 196.733Z" fill="url(#paint52_linear)"/>
<path fill-rule="evenodd" clip-rule="evenodd" d="M155.185 202.354V218.608H138.419C137.27 216.074 136.633 213.278 136.633 210.315C136.633 207.477 137.214 204.791 138.28 202.34H155.185V202.354Z" fill="url(#paint53_linear)"/>
<path opacity="0.5" fill-rule="evenodd" clip-rule="evenodd" d="M156.721 190.24C156.721 190.739 146.463 194.407 146.463 210.329C146.463 226.264 156.721 229.905 156.721 230.417C145.632 230.417 136.633 221.418 136.633 210.329C136.633 199.225 145.618 190.24 156.721 190.24Z" fill="url(#paint54_linear)"/>
<path fill-rule="evenodd" clip-rule="evenodd" d="M200.471 230.404H158.438C156.334 230.404 154.631 228.687 154.631 226.596V193.715C154.631 190.42 158.507 188.676 160.972 190.863L201.744 227.081C203.046 228.244 202.215 230.404 200.471 230.404Z" fill="url(#paint55_linear)"/>
<path fill-rule="evenodd" clip-rule="evenodd" d="M200.471 231.733H158.438C157.026 231.733 155.738 231.151 154.811 230.224C153.883 229.296 153.302 228.009 153.302 226.596V193.715C153.302 192.358 153.8 191.195 154.575 190.309C154.603 190.282 154.631 190.254 154.659 190.226C155.129 189.714 155.711 189.313 156.334 189.022C156.998 188.717 157.718 188.565 158.452 188.565C159.629 188.565 160.819 188.966 161.844 189.88L202.617 226.098C203.364 226.763 203.71 227.635 203.71 228.493C203.71 228.895 203.641 229.282 203.489 229.656C203.35 230.03 203.143 230.376 202.88 230.667C202.852 230.694 202.824 230.736 202.783 230.764C202.215 231.345 201.412 231.733 200.471 231.733ZM200.471 230.404H158.438C156.334 230.404 154.631 228.687 154.631 226.596V193.715C154.631 190.42 158.507 188.676 160.972 190.863L201.744 227.081C203.046 228.244 202.215 230.404 200.471 230.404Z" fill="black"/>
<path opacity="0.5" fill-rule="evenodd" clip-rule="evenodd" d="M200.471 230.404C186.46 230.404 172.449 230.404 158.438 230.404C156.334 230.404 154.631 228.687 154.631 226.596C154.631 215.631 154.631 204.68 154.631 193.715C154.631 190.42 158.507 188.676 160.972 190.863C160.972 205.829 160.196 220.629 164.018 224.45C166.814 227.247 182.86 227.067 201.731 227.067C203.046 228.244 202.215 230.404 200.471 230.404Z" fill="url(#paint56_linear)"/>
<path fill-rule="evenodd" clip-rule="evenodd" d="M194.642 223.744H166.69C165.291 223.744 164.156 222.609 164.156 221.211V199.35C164.156 197.163 166.731 196 168.379 197.453L195.487 221.529C196.359 222.305 195.819 223.744 194.642 223.744Z" fill="#5B1E00"/>
<path fill-rule="evenodd" clip-rule="evenodd" d="M194.642 223.371H166.69C165.499 223.371 164.53 222.401 164.53 221.211V199.35C164.53 197.481 166.717 196.498 168.116 197.744L195.224 221.82C195.847 222.36 195.459 223.371 194.642 223.371Z" fill="url(#paint57_linear)"/>
<path fill-rule="evenodd" clip-rule="evenodd" d="M194.642 223.371H192.635L174.152 207.325H164.544V199.336C164.544 197.467 166.731 196.484 168.129 197.73L195.237 221.806C195.847 222.36 195.459 223.371 194.642 223.371Z" fill="url(#paint58_linear)"/>
<path fill-rule="evenodd" clip-rule="evenodd" d="M158.826 199.475C158.798 199.156 158.507 198.935 158.203 198.976C157.884 199.004 157.663 199.295 157.704 199.599C157.968 201.967 157.566 202.437 157.151 202.922C156.597 203.573 156.029 204.251 156.168 206.951C156.182 207.269 156.458 207.505 156.763 207.491C157.081 207.477 157.317 207.2 157.303 206.895C157.178 204.639 157.608 204.126 158.009 203.656C158.591 202.977 159.144 202.327 158.826 199.475Z" fill="#5B1E00"/>
<path fill-rule="evenodd" clip-rule="evenodd" d="M158.632 199.502C158.604 199.295 158.424 199.142 158.217 199.17C158.009 199.198 157.857 199.378 157.884 199.585C158.148 202.036 157.732 202.534 157.289 203.06C156.763 203.683 156.209 204.334 156.348 206.965C156.362 207.172 156.542 207.338 156.749 207.325C156.957 207.311 157.123 207.131 157.109 206.923C156.985 204.583 157.441 204.057 157.871 203.545C158.424 202.894 158.937 202.271 158.632 199.502Z" fill="url(#paint59_linear)"/>
<path fill-rule="evenodd" clip-rule="evenodd" d="M158.452 199.516C158.438 199.419 158.341 199.336 158.244 199.35C158.134 199.364 158.064 199.461 158.078 199.558C158.355 202.091 157.912 202.617 157.441 203.171C156.943 203.766 156.417 204.389 156.555 206.937C156.555 207.048 156.652 207.117 156.749 207.117C156.86 207.117 156.929 207.02 156.929 206.923C156.805 204.514 157.275 203.946 157.732 203.42C158.244 202.797 158.743 202.216 158.452 199.516Z" fill="url(#paint60_linear)"/>
<path fill-rule="evenodd" clip-rule="evenodd" d="M159.781 206.992C159.754 207.311 159.463 207.532 159.158 207.491C158.84 207.463 158.618 207.172 158.66 206.868C158.923 204.5 158.521 204.029 158.106 203.545C157.552 202.894 156.985 202.216 157.123 199.516C157.137 199.198 157.414 198.962 157.718 198.976C158.037 198.99 158.272 199.267 158.258 199.571C158.134 201.828 158.563 202.327 158.964 202.811C159.546 203.49 160.1 204.14 159.781 206.992Z" fill="#5B1E00"/>
<path fill-rule="evenodd" clip-rule="evenodd" d="M159.587 206.978C159.56 207.186 159.38 207.338 159.172 207.311C158.964 207.283 158.812 207.103 158.84 206.895C159.103 204.445 158.688 203.946 158.244 203.42C157.718 202.797 157.165 202.147 157.303 199.516C157.317 199.308 157.497 199.142 157.705 199.156C157.912 199.17 158.078 199.35 158.065 199.558C157.94 201.897 158.397 202.424 158.826 202.936C159.366 203.587 159.892 204.196 159.587 206.978Z" fill="url(#paint61_linear)"/>
<path fill-rule="evenodd" clip-rule="evenodd" d="M159.407 206.951C159.394 207.048 159.297 207.131 159.2 207.117C159.089 207.103 159.02 207.006 159.034 206.909C159.31 204.376 158.867 203.85 158.397 203.296C157.898 202.7 157.372 202.077 157.511 199.53C157.511 199.419 157.608 199.35 157.704 199.35C157.815 199.35 157.884 199.447 157.884 199.544C157.76 201.953 158.231 202.52 158.687 203.047C159.2 203.67 159.698 204.265 159.407 206.951Z" fill="url(#paint62_linear)"/>
<path fill-rule="evenodd" clip-rule="evenodd" d="M160.058 199.475C160.086 199.156 160.377 198.935 160.681 198.976C161 199.004 161.221 199.295 161.18 199.599C160.916 201.967 161.318 202.437 161.733 202.922C162.287 203.573 162.855 204.251 162.716 206.951C162.702 207.269 162.426 207.505 162.121 207.491C161.803 207.477 161.567 207.2 161.581 206.895C161.706 204.639 161.276 204.126 160.875 203.656C160.293 202.977 159.74 202.327 160.058 199.475Z" fill="#5B1E00"/>
<path fill-rule="evenodd" clip-rule="evenodd" d="M160.238 199.502C160.266 199.295 160.446 199.142 160.653 199.17C160.861 199.198 161.013 199.378 160.986 199.585C160.723 202.036 161.138 202.534 161.581 203.06C162.107 203.683 162.661 204.334 162.522 206.965C162.509 207.172 162.329 207.338 162.121 207.325C161.913 207.311 161.747 207.131 161.761 206.923C161.886 204.583 161.429 204.057 161 203.545C160.46 202.894 159.933 202.271 160.238 199.502Z" fill="url(#paint63_linear)"/>
<path fill-rule="evenodd" clip-rule="evenodd" d="M160.432 199.516C160.446 199.419 160.543 199.336 160.64 199.35C160.737 199.364 160.82 199.461 160.806 199.558C160.529 202.091 160.972 202.617 161.443 203.171C161.941 203.766 162.467 204.389 162.329 206.937C162.329 207.048 162.232 207.117 162.135 207.117C162.024 207.117 161.955 207.02 161.955 206.923C162.079 204.514 161.609 203.946 161.152 203.42C160.64 202.797 160.141 202.216 160.432 199.516Z" fill="url(#paint64_linear)"/>
<path fill-rule="evenodd" clip-rule="evenodd" d="M159.103 206.992C159.13 207.311 159.421 207.532 159.726 207.491C160.044 207.463 160.266 207.172 160.224 206.868C159.961 204.5 160.363 204.029 160.778 203.545C161.332 202.894 161.899 202.216 161.761 199.516C161.747 199.198 161.47 198.962 161.166 198.976C160.847 198.99 160.612 199.267 160.626 199.571C160.75 201.828 160.321 202.327 159.92 202.811C159.338 203.49 158.784 204.14 159.103 206.992Z" fill="#5B1E00"/>
<path fill-rule="evenodd" clip-rule="evenodd" d="M159.296 206.978C159.324 207.186 159.504 207.338 159.712 207.311C159.919 207.283 160.072 207.103 160.044 206.895C159.781 204.445 160.196 203.946 160.639 203.42C161.166 202.797 161.719 202.147 161.581 199.516C161.567 199.308 161.387 199.142 161.179 199.156C160.972 199.17 160.806 199.35 160.819 199.558C160.944 201.897 160.487 202.424 160.058 202.936C159.504 203.587 158.992 204.196 159.296 206.978Z" fill="url(#paint65_linear)"/>
<path fill-rule="evenodd" clip-rule="evenodd" d="M159.476 206.951C159.49 207.048 159.587 207.131 159.684 207.117C159.781 207.103 159.864 207.006 159.85 206.909C159.573 204.376 160.016 203.85 160.487 203.296C160.986 202.7 161.512 202.077 161.373 199.53C161.373 199.419 161.276 199.35 161.179 199.35C161.069 199.35 160.999 199.447 160.999 199.544C161.124 201.953 160.653 202.52 160.196 203.047C159.684 203.67 159.186 204.265 159.476 206.951Z" fill="url(#paint66_linear)"/>
<path fill-rule="evenodd" clip-rule="evenodd" d="M159.352 210.91C159.324 210.592 159.034 210.37 158.729 210.412C158.411 210.44 158.189 210.73 158.231 211.035C158.494 213.402 158.092 213.873 157.677 214.358C157.123 215.008 156.555 215.687 156.694 218.387C156.708 218.705 156.985 218.94 157.289 218.926C157.608 218.913 157.843 218.636 157.829 218.331C157.704 216.074 158.134 215.576 158.535 215.092C159.117 214.413 159.657 213.762 159.352 210.91Z" fill="#5B1E00"/>
<path fill-rule="evenodd" clip-rule="evenodd" d="M159.158 210.924C159.13 210.717 158.95 210.564 158.743 210.592C158.535 210.62 158.383 210.8 158.41 211.007C158.674 213.458 158.258 213.956 157.815 214.482C157.289 215.105 156.735 215.756 156.874 218.387C156.888 218.594 157.068 218.76 157.275 218.747C157.483 218.733 157.649 218.553 157.635 218.345C157.511 216.005 157.967 215.479 158.397 214.967C158.937 214.316 159.463 213.707 159.158 210.924Z" fill="url(#paint67_linear)"/>
<path fill-rule="evenodd" clip-rule="evenodd" d="M158.964 210.952C158.95 210.855 158.854 210.772 158.757 210.786C158.66 210.8 158.577 210.897 158.59 210.993C158.867 213.527 158.424 214.053 157.954 214.607C157.455 215.202 156.929 215.825 157.068 218.373C157.068 218.483 157.164 218.553 157.261 218.553C157.372 218.553 157.441 218.456 157.441 218.359C157.317 215.95 157.787 215.382 158.244 214.856C158.77 214.233 159.269 213.638 158.964 210.952Z" fill="url(#paint68_linear)"/>
<path fill-rule="evenodd" clip-rule="evenodd" d="M159.352 218.428C159.324 218.746 159.034 218.968 158.729 218.926C158.411 218.899 158.189 218.608 158.231 218.303C158.494 215.936 158.092 215.465 157.677 214.981C157.123 214.33 156.555 213.652 156.694 210.952C156.708 210.633 156.985 210.398 157.289 210.412C157.608 210.426 157.843 210.703 157.829 211.007C157.704 213.264 158.134 213.762 158.535 214.247C159.117 214.925 159.657 215.576 159.352 218.428Z" fill="#5B1E00"/>
<path fill-rule="evenodd" clip-rule="evenodd" d="M159.158 218.4C159.13 218.608 158.95 218.76 158.743 218.732C158.535 218.705 158.383 218.525 158.41 218.317C158.674 215.867 158.258 215.368 157.815 214.842C157.289 214.219 156.735 213.568 156.874 210.938C156.888 210.73 157.068 210.564 157.275 210.578C157.483 210.592 157.649 210.772 157.635 210.979C157.511 213.319 157.967 213.845 158.397 214.358C158.937 215.008 159.463 215.631 159.158 218.4Z" fill="url(#paint69_linear)"/>
<path fill-rule="evenodd" clip-rule="evenodd" d="M158.964 218.386C158.95 218.483 158.854 218.566 158.757 218.552C158.66 218.539 158.577 218.442 158.59 218.345C158.867 215.811 158.424 215.285 157.954 214.731C157.455 214.136 156.929 213.513 157.068 210.966C157.068 210.855 157.164 210.786 157.261 210.786C157.372 210.786 157.441 210.883 157.441 210.979C157.317 213.388 157.787 213.956 158.244 214.482C158.77 215.105 159.269 215.687 158.964 218.386Z" fill="url(#paint70_linear)"/>
<path fill-rule="evenodd" clip-rule="evenodd" d="M159.532 210.91C159.56 210.592 159.85 210.37 160.155 210.412C160.473 210.44 160.695 210.73 160.653 211.035C160.39 213.402 160.792 213.873 161.207 214.358C161.761 215.008 162.328 215.687 162.19 218.387C162.176 218.705 161.899 218.94 161.595 218.926C161.276 218.913 161.041 218.636 161.055 218.331C161.179 216.074 160.75 215.576 160.349 215.092C159.767 214.413 159.213 213.762 159.532 210.91Z" fill="#5B1E00"/>
<path fill-rule="evenodd" clip-rule="evenodd" d="M159.726 210.924C159.753 210.717 159.933 210.564 160.141 210.592C160.349 210.62 160.501 210.8 160.473 211.007C160.21 213.458 160.626 213.956 161.069 214.482C161.595 215.105 162.148 215.756 162.01 218.387C161.996 218.594 161.816 218.76 161.609 218.747C161.401 218.733 161.235 218.553 161.249 218.345C161.373 216.005 160.916 215.479 160.487 214.967C159.933 214.316 159.421 213.707 159.726 210.924Z" fill="url(#paint71_linear)"/>
<path fill-rule="evenodd" clip-rule="evenodd" d="M159.906 210.952C159.92 210.855 160.016 210.772 160.113 210.786C160.224 210.8 160.293 210.897 160.28 210.993C160.003 213.527 160.446 214.053 160.916 214.607C161.415 215.202 161.941 215.825 161.802 218.373C161.802 218.483 161.706 218.553 161.609 218.553C161.498 218.553 161.429 218.456 161.429 218.359C161.553 215.95 161.082 215.382 160.626 214.856C160.113 214.233 159.615 213.638 159.906 210.952Z" fill="url(#paint72_linear)"/>
<path fill-rule="evenodd" clip-rule="evenodd" d="M159.532 218.428C159.56 218.746 159.85 218.968 160.155 218.926C160.473 218.899 160.695 218.608 160.653 218.303C160.39 215.936 160.792 215.465 161.207 214.981C161.761 214.33 162.328 213.652 162.19 210.952C162.176 210.633 161.899 210.398 161.595 210.412C161.276 210.426 161.041 210.703 161.055 211.007C161.179 213.264 160.75 213.762 160.349 214.247C159.767 214.925 159.213 215.576 159.532 218.428Z" fill="#5B1E00"/>
<path fill-rule="evenodd" clip-rule="evenodd" d="M159.726 218.4C159.753 218.608 159.933 218.76 160.141 218.732C160.349 218.705 160.501 218.525 160.473 218.317C160.21 215.867 160.626 215.368 161.069 214.842C161.595 214.219 162.148 213.568 162.01 210.938C161.996 210.73 161.816 210.564 161.609 210.578C161.401 210.592 161.235 210.772 161.249 210.979C161.373 213.319 160.916 213.845 160.487 214.358C159.933 215.008 159.421 215.631 159.726 218.4Z" fill="url(#paint73_linear)"/>
<path fill-rule="evenodd" clip-rule="evenodd" d="M159.906 218.386C159.92 218.483 160.016 218.566 160.113 218.552C160.224 218.539 160.293 218.442 160.28 218.345C160.003 215.811 160.446 215.285 160.916 214.731C161.415 214.136 161.941 213.513 161.802 210.966C161.802 210.855 161.706 210.786 161.609 210.786C161.498 210.786 161.429 210.883 161.429 210.979C161.553 213.388 161.082 213.956 160.626 214.482C160.113 215.105 159.615 215.687 159.906 218.386Z" fill="url(#paint74_linear)"/>
<path opacity="0.5" fill-rule="evenodd" clip-rule="evenodd" d="M160.695 193.508C158.189 192.829 155.6 194.324 154.935 196.83C154.257 199.336 155.752 201.925 158.258 202.59C160.764 203.268 163.353 201.773 164.018 199.267C164.682 196.761 163.201 194.186 160.695 193.508Z" fill="url(#paint75_linear)"/>
<path fill-rule="evenodd" clip-rule="evenodd" d="M160.695 192.718C158.189 192.04 155.6 193.535 154.935 196.041C154.257 198.547 155.752 201.136 158.258 201.8C160.764 202.479 163.353 200.984 164.018 198.478C164.682 195.972 163.201 193.383 160.695 192.718Z" fill="#5B1E00"/>
<path fill-rule="evenodd" clip-rule="evenodd" d="M160.598 193.051C158.272 192.428 155.891 193.812 155.268 196.124C154.645 198.45 156.029 200.831 158.341 201.454C160.667 202.077 163.048 200.693 163.671 198.381C164.294 196.069 162.924 193.674 160.598 193.051Z" fill="url(#paint76_linear)"/>
<path fill-rule="evenodd" clip-rule="evenodd" d="M160.335 194.047C158.563 193.577 156.735 194.629 156.265 196.401C155.794 198.173 156.846 200.001 158.618 200.471C160.39 200.942 162.218 199.89 162.688 198.118C163.159 196.346 162.107 194.518 160.335 194.047Z" fill="url(#paint77_linear)"/>
<path opacity="0.5" fill-rule="evenodd" clip-rule="evenodd" d="M160.335 194.047C160.072 195.819 157.704 197.73 156.265 196.401C155.794 198.173 156.846 200.001 158.618 200.471C158.687 198.215 161.47 196.678 162.688 198.118C163.159 196.346 162.107 194.518 160.335 194.047Z" fill="url(#paint78_linear)"/>
<path fill-rule="evenodd" clip-rule="evenodd" d="M160.266 194.283C158.618 193.84 156.929 194.823 156.5 196.456C156.057 198.104 157.04 199.793 158.674 200.222C160.321 200.665 162.01 199.682 162.439 198.049C162.882 196.415 161.913 194.726 160.266 194.283Z" fill="url(#paint79_linear)"/>
<path fill-rule="evenodd" clip-rule="evenodd" d="M160.003 195.252C158.895 194.961 157.76 195.612 157.469 196.72C157.178 197.827 157.829 198.962 158.937 199.253C160.044 199.544 161.18 198.893 161.47 197.786C161.775 196.692 161.11 195.557 160.003 195.252Z" fill="url(#paint80_linear)"/>
<path fill-rule="evenodd" clip-rule="evenodd" d="M159.933 195.57C158.992 195.321 158.037 195.875 157.787 196.816C157.538 197.758 158.092 198.713 159.033 198.962C159.975 199.212 160.93 198.658 161.179 197.716C161.415 196.775 160.861 195.82 159.933 195.57Z" fill="url(#paint81_linear)"/>
<path opacity="0.5" fill-rule="evenodd" clip-rule="evenodd" d="M160.515 204.874C158.355 204.293 156.154 205.58 155.572 207.726C154.991 209.886 156.278 212.087 158.424 212.669C160.584 213.25 162.785 211.963 163.367 209.817C163.948 207.671 162.675 205.455 160.515 204.874Z" fill="url(#paint82_linear)"/>
<path fill-rule="evenodd" clip-rule="evenodd" d="M160.515 204.196C158.355 203.614 156.154 204.902 155.572 207.048C154.991 209.207 156.278 211.409 158.424 211.99C160.584 212.572 162.785 211.284 163.367 209.138C163.948 206.992 162.675 204.777 160.515 204.196Z" fill="#5B1E00"/>
<path fill-rule="evenodd" clip-rule="evenodd" d="M160.404 204.611C158.48 204.099 156.5 205.234 155.988 207.158C155.476 209.083 156.611 211.063 158.535 211.575C160.46 212.087 162.439 210.952 162.952 209.028C163.478 207.103 162.329 205.123 160.404 204.611Z" fill="url(#paint83_linear)"/>
<path fill-rule="evenodd" clip-rule="evenodd" d="M160.183 205.428C158.715 205.04 157.192 205.912 156.805 207.38C156.417 208.847 157.289 210.37 158.757 210.758C160.224 211.146 161.747 210.273 162.135 208.806C162.536 207.338 161.65 205.829 160.183 205.428Z" fill="url(#paint84_linear)"/>
<path opacity="0.5" fill-rule="evenodd" clip-rule="evenodd" d="M160.183 205.428C159.961 206.895 157.995 208.474 156.805 207.38C156.417 208.848 157.289 210.37 158.757 210.758C158.812 208.889 161.124 207.615 162.135 208.806C162.536 207.338 161.65 205.829 160.183 205.428Z" fill="url(#paint85_linear)"/>
<path fill-rule="evenodd" clip-rule="evenodd" d="M160.127 205.636C158.77 205.276 157.372 206.079 156.998 207.435C156.638 208.792 157.441 210.19 158.798 210.564C160.155 210.924 161.553 210.121 161.927 208.764C162.301 207.394 161.498 205.995 160.127 205.636Z" fill="url(#paint86_linear)"/>
<path fill-rule="evenodd" clip-rule="evenodd" d="M159.92 206.439C159.006 206.189 158.064 206.743 157.815 207.657C157.566 208.571 158.12 209.512 159.033 209.761C159.947 210.01 160.889 209.457 161.138 208.543C161.373 207.629 160.833 206.688 159.92 206.439Z" fill="url(#paint87_linear)"/>
<path fill-rule="evenodd" clip-rule="evenodd" d="M159.85 206.688C159.075 206.48 158.272 206.937 158.064 207.712C157.857 208.487 158.314 209.29 159.089 209.498C159.864 209.706 160.667 209.249 160.875 208.474C161.083 207.698 160.626 206.895 159.85 206.688Z" fill="url(#paint88_linear)"/>
<path opacity="0.5" fill-rule="evenodd" clip-rule="evenodd" d="M159.477 216.337C157.649 216.337 156.168 217.819 156.168 219.646C156.168 221.474 157.649 222.955 159.477 222.955C161.304 222.955 162.786 221.474 162.786 219.646C162.786 217.819 161.304 216.337 159.477 216.337Z" fill="url(#paint89_linear)"/>
<path fill-rule="evenodd" clip-rule="evenodd" d="M159.477 215.479C157.649 215.479 156.168 216.96 156.168 218.788C156.168 220.615 157.649 222.097 159.477 222.097C161.304 222.097 162.786 220.615 162.786 218.788C162.786 216.96 161.304 215.479 159.477 215.479Z" fill="#5B1E00"/>
<path fill-rule="evenodd" clip-rule="evenodd" d="M159.477 215.908C157.884 215.908 156.597 217.196 156.597 218.788C156.597 220.38 157.884 221.668 159.477 221.668C161.069 221.668 162.356 220.38 162.356 218.788C162.356 217.196 161.069 215.908 159.477 215.908Z" fill="url(#paint90_linear)"/>
<path opacity="0.5" fill-rule="evenodd" clip-rule="evenodd" d="M159.477 215.908C161.387 217.971 157.76 222.595 156.597 218.788C156.597 220.38 157.884 221.668 159.477 221.668C159.283 217.75 161.512 216.739 162.356 218.788C162.356 217.196 161.069 215.908 159.477 215.908Z" fill="url(#paint91_linear)"/>
<path fill-rule="evenodd" clip-rule="evenodd" d="M159.477 216.891C158.424 216.891 157.58 217.736 157.58 218.788C157.58 219.84 158.424 220.685 159.477 220.685C160.529 220.685 161.373 219.826 161.373 218.788C161.373 217.736 160.515 216.891 159.477 216.891Z" fill="url(#paint92_linear)"/>
<path opacity="0.5" fill-rule="evenodd" clip-rule="evenodd" d="M159.477 216.891C160.667 218.76 159.006 219.743 157.58 218.788C157.58 219.84 158.424 220.685 159.477 220.685C157.248 220.255 160.363 217.957 161.373 218.788C161.373 217.736 160.515 216.891 159.477 216.891Z" fill="url(#paint93_linear)"/>
<path fill-rule="evenodd" clip-rule="evenodd" d="M159.477 217.182C158.591 217.182 157.871 217.902 157.871 218.788C157.871 219.674 158.591 220.394 159.477 220.394C160.363 220.394 161.083 219.674 161.083 218.788C161.083 217.902 160.363 217.182 159.477 217.182Z" fill="url(#paint94_linear)"/>
<path fill-rule="evenodd" clip-rule="evenodd" d="M189.326 223.371H191.084L173.917 208.778C173.349 208.294 172.615 209.166 173.183 209.65L189.326 223.371Z" fill="#5B1E00"/>
<path fill-rule="evenodd" clip-rule="evenodd" d="M189.616 223.371H190.793L173.792 208.931C173.404 208.612 172.92 209.194 173.294 209.512L189.616 223.371Z" fill="url(#paint95_linear)"/>
<path fill-rule="evenodd" clip-rule="evenodd" d="M185.685 223.371H187.443L170.275 208.778C169.708 208.294 168.974 209.166 169.542 209.65L185.685 223.371Z" fill="#5B1E00"/>
<path fill-rule="evenodd" clip-rule="evenodd" d="M185.989 223.371H187.166L170.151 208.931C169.763 208.612 169.279 209.194 169.666 209.512L185.989 223.371Z" fill="url(#paint96_linear)"/>
<path fill-rule="evenodd" clip-rule="evenodd" d="M182.057 223.371H183.815L166.648 208.778C166.08 208.294 165.347 209.166 165.914 209.65L182.057 223.371Z" fill="#5B1E00"/>
<path fill-rule="evenodd" clip-rule="evenodd" d="M182.348 223.371H183.525L166.523 208.931C166.136 208.612 165.651 209.194 166.039 209.512L182.348 223.371Z" fill="url(#paint97_linear)"/>
<path fill-rule="evenodd" clip-rule="evenodd" d="M192.524 223.509C192.607 223.578 192.718 223.564 192.787 223.495C192.856 223.412 192.842 223.301 192.773 223.232L174.277 207.186C174.235 207.158 174.193 207.145 174.152 207.145H164.544C164.433 207.145 164.35 207.228 164.35 207.338C164.35 207.449 164.433 207.532 164.544 207.532H174.083L192.524 223.509Z" fill="#5B1E00"/>
<path fill-rule="evenodd" clip-rule="evenodd" d="M201.994 227.538C202.104 227.538 202.187 227.455 202.187 227.344C202.187 227.233 202.104 227.15 201.994 227.15H181.434L178.056 223.606C177.987 223.537 177.862 223.523 177.793 223.606C177.724 223.675 177.71 223.8 177.793 223.869L181.213 227.469C181.254 227.51 181.296 227.538 181.365 227.538H201.994Z" fill="#5B1E00"/>
<path fill-rule="evenodd" clip-rule="evenodd" d="M164.544 199.876V201.787H168.697C169.223 201.787 169.652 201.357 169.652 200.831C169.652 200.305 169.223 199.876 168.697 199.876H164.544Z" fill="url(#paint98_linear)"/>
<path fill-rule="evenodd" clip-rule="evenodd" d="M164.544 200.25V201.399H168.697C169.016 201.399 169.265 201.136 169.265 200.831C169.265 200.513 169.002 200.264 168.697 200.264H164.544V200.25Z" fill="url(#paint99_linear)"/>
<path fill-rule="evenodd" clip-rule="evenodd" d="M164.544 202.728V204.639H168.697C169.223 204.639 169.652 204.209 169.652 203.683C169.652 203.157 169.223 202.728 168.697 202.728H164.544Z" fill="url(#paint100_linear)"/>
<path fill-rule="evenodd" clip-rule="evenodd" d="M164.544 203.116V204.265H168.697C169.016 204.265 169.265 204.002 169.265 203.697C169.265 203.379 169.002 203.13 168.697 203.13H164.544V203.116Z" fill="url(#paint101_linear)"/>
</g>
</g>
<defs>
<linearGradient id="paint0_linear" x1="113.968" y1="210.322" x2="133.778" y2="210.32" gradientUnits="userSpaceOnUse">
<stop stop-color="#FFD13A"/>
<stop offset="1" stop-color="#FAEF5F"/>
</linearGradient>
<linearGradient id="paint1_linear" x1="113.969" y1="210.322" x2="126.737" y2="210.32" gradientUnits="userSpaceOnUse">
<stop stop-color="#FFF032"/>
<stop offset="1" stop-color="#F9F185"/>
</linearGradient>
<linearGradient id="paint2_linear" x1="124.582" y1="218.722" x2="124.581" y2="202.338" gradientUnits="userSpaceOnUse">
<stop stop-color="#212427"/>
<stop offset="0.51" stop-color="#B5B8B8"/>
<stop offset="1" stop-color="#212427"/>
</linearGradient>
<linearGradient id="paint3_linear" x1="133.824" y1="210.323" x2="114.144" y2="210.322" gradientUnits="userSpaceOnUse">
<stop stop-color="#5D3600"/>
<stop offset="1" stop-color="#FAEF5F"/>
</linearGradient>
<linearGradient id="paint4_linear" x1="106.15" y1="210.152" x2="72.3205" y2="210.151" gradientUnits="userSpaceOnUse">
<stop stop-color="#FFD13A"/>
<stop offset="1" stop-color="#FAEF5F"/>
</linearGradient>
<linearGradient id="paint5_linear" x1="116.002" y1="210.152" x2="72.3255" y2="210.15" gradientUnits="userSpaceOnUse">
<stop stop-color="#5D3600"/>
<stop offset="1" stop-color="#FAEF5F"/>
</linearGradient>
<linearGradient id="paint6_linear" x1="104.572" y1="210.277" x2="80.094" y2="210.275" gradientUnits="userSpaceOnUse">
<stop stop-color="#FFD13A"/>
<stop offset="1" stop-color="#FFF032"/>
</linearGradient>
<linearGradient id="paint7_linear" x1="106.114" y1="200.816" x2="77.9121" y2="225.538" gradientUnits="userSpaceOnUse">
<stop stop-color="#212427"/>
<stop offset="0.5" stop-color="#B8B9B8"/>
<stop offset="1" stop-color="#212427"/>
</linearGradient>
<linearGradient id="paint8_linear" x1="113.819" y1="203.04" x2="112.333" y2="203.393" gradientUnits="userSpaceOnUse">
<stop stop-color="#FFD13A"/>
<stop offset="0.53" stop-color="#FAEF5F"/>
<stop offset="1" stop-color="#FFD13A"/>
</linearGradient>
<linearGradient id="paint9_linear" x1="115.978" y1="205.573" x2="110.24" y2="201.079" gradientUnits="userSpaceOnUse">
<stop stop-color="#3B3092"/>
<stop offset="0.51" stop-color="#A5DBDB"/>
<stop offset="1" stop-color="#3B3092"/>
</linearGradient>
<linearGradient id="paint10_linear" x1="112.866" y1="203.431" x2="111.38" y2="203.079" gradientUnits="userSpaceOnUse">
<stop stop-color="#FFD13A"/>
<stop offset="0.53" stop-color="#FAEF5F"/>
<stop offset="1" stop-color="#FFD13A"/>
</linearGradient>
<linearGradient id="paint11_linear" x1="115.025" y1="200.898" x2="109.287" y2="205.392" gradientUnits="userSpaceOnUse">
<stop stop-color="#3B3092"/>
<stop offset="0.51" stop-color="#A5DBDB"/>
<stop offset="1" stop-color="#3B3092"/>
</linearGradient>
<linearGradient id="paint12_linear" x1="108.28" y1="203.04" x2="109.765" y2="203.393" gradientUnits="userSpaceOnUse">
<stop stop-color="#FFD13A"/>
<stop offset="0.53" stop-color="#FAEF5F"/>
<stop offset="1" stop-color="#FFD13A"/>
</linearGradient>
<linearGradient id="paint13_linear" x1="106.121" y1="205.573" x2="111.859" y2="201.079" gradientUnits="userSpaceOnUse">
<stop stop-color="#3B3092"/>
<stop offset="0.51" stop-color="#A5DBDB"/>
<stop offset="1" stop-color="#3B3092"/>
</linearGradient>
<linearGradient id="paint14_linear" x1="109.233" y1="203.431" x2="110.718" y2="203.079" gradientUnits="userSpaceOnUse">
<stop stop-color="#FFD13A"/>
<stop offset="0.53" stop-color="#FAEF5F"/>
<stop offset="1" stop-color="#FFD13A"/>
</linearGradient>
<linearGradient id="paint15_linear" x1="107.074" y1="200.898" x2="112.811" y2="205.392" gradientUnits="userSpaceOnUse">
<stop stop-color="#3B3092"/>
<stop offset="0.51" stop-color="#A5DBDB"/>
<stop offset="1" stop-color="#3B3092"/>
</linearGradient>
<linearGradient id="paint16_linear" x1="113.296" y1="214.472" x2="111.811" y2="214.824" gradientUnits="userSpaceOnUse">
<stop stop-color="#FFD13A"/>
<stop offset="0.53" stop-color="#FAEF5F"/>
<stop offset="1" stop-color="#FFD13A"/>
</linearGradient>
<linearGradient id="paint17_linear" x1="115.455" y1="217.005" x2="109.717" y2="212.511" gradientUnits="userSpaceOnUse">
<stop stop-color="#3B3092"/>
<stop offset="0.51" stop-color="#A5DBDB"/>
<stop offset="1" stop-color="#3B3092"/>
</linearGradient>
<linearGradient id="paint18_linear" x1="113.296" y1="214.862" x2="111.811" y2="214.51" gradientUnits="userSpaceOnUse">
<stop stop-color="#FFD13A"/>
<stop offset="0.53" stop-color="#FAEF5F"/>
<stop offset="1" stop-color="#FFD13A"/>
</linearGradient>
<linearGradient id="paint19_linear" x1="115.455" y1="212.33" x2="109.717" y2="216.824" gradientUnits="userSpaceOnUse">
<stop stop-color="#3B3092"/>
<stop offset="0.51" stop-color="#A5DBDB"/>
<stop offset="1" stop-color="#3B3092"/>
</linearGradient>
<linearGradient id="paint20_linear" x1="108.803" y1="214.472" x2="110.288" y2="214.824" gradientUnits="userSpaceOnUse">
<stop stop-color="#FFD13A"/>
<stop offset="0.53" stop-color="#FAEF5F"/>
<stop offset="1" stop-color="#FFD13A"/>
</linearGradient>
<linearGradient id="paint21_linear" x1="106.643" y1="217.005" x2="112.381" y2="212.511" gradientUnits="userSpaceOnUse">
<stop stop-color="#3B3092"/>
<stop offset="0.51" stop-color="#A5DBDB"/>
<stop offset="1" stop-color="#3B3092"/>
</linearGradient>
<linearGradient id="paint22_linear" x1="108.803" y1="214.862" x2="110.288" y2="214.51" gradientUnits="userSpaceOnUse">
<stop stop-color="#FFD13A"/>
<stop offset="0.53" stop-color="#FAEF5F"/>
<stop offset="1" stop-color="#FFD13A"/>
</linearGradient>
<linearGradient id="paint23_linear" x1="106.643" y1="212.33" x2="112.381" y2="216.824" gradientUnits="userSpaceOnUse">
<stop stop-color="#3B3092"/>
<stop offset="0.51" stop-color="#A5DBDB"/>
<stop offset="1" stop-color="#3B3092"/>
</linearGradient>
<linearGradient id="paint24_linear" x1="111.018" y1="199.131" x2="111.018" y2="202.762" gradientUnits="userSpaceOnUse">
<stop stop-color="#5C1800"/>
<stop offset="1" stop-color="white"/>
</linearGradient>
<linearGradient id="paint25_linear" x1="111.925" y1="200.65" x2="110.099" y2="193.827" gradientUnits="userSpaceOnUse">
<stop stop-color="#F89952"/>
<stop offset="1" stop-color="#FAEF5F"/>
</linearGradient>
<linearGradient id="paint26_linear" x1="111.718" y1="199.877" x2="110.316" y2="194.637" gradientUnits="userSpaceOnUse">
<stop stop-color="#3B3092"/>
<stop offset="1" stop-color="#2B3594"/>
</linearGradient>
<linearGradient id="paint27_linear" x1="112.905" y1="198.453" x2="108.955" y2="195.957" gradientUnits="userSpaceOnUse">
<stop stop-color="#A5DBDB"/>
<stop offset="1" stop-color="white"/>
</linearGradient>
<linearGradient id="paint28_linear" x1="110.424" y1="195.047" x2="111.669" y2="199.686" gradientUnits="userSpaceOnUse">
<stop stop-color="#FFF032"/>
<stop offset="1" stop-color="#FAEF5F"/>
</linearGradient>
<linearGradient id="paint29_linear" x1="111.454" y1="198.89" x2="110.58" y2="195.626" gradientUnits="userSpaceOnUse">
<stop stop-color="#3B3092"/>
<stop offset="1" stop-color="#2B3594"/>
</linearGradient>
<linearGradient id="paint30_linear" x1="110.679" y1="195.998" x2="111.389" y2="198.645" gradientUnits="userSpaceOnUse">
<stop stop-color="#FFF032"/>
<stop offset="1" stop-color="#FAEF5F"/>
</linearGradient>
<linearGradient id="paint31_linear" x1="111.018" y1="209.701" x2="111.018" y2="212.815" gradientUnits="userSpaceOnUse">
<stop stop-color="#5C1800"/>
<stop offset="1" stop-color="white"/>
</linearGradient>
<linearGradient id="paint32_linear" x1="111.77" y1="210.907" x2="110.256" y2="205.249" gradientUnits="userSpaceOnUse">
<stop stop-color="#F89952"/>
<stop offset="1" stop-color="#FAEF5F"/>
</linearGradient>
<linearGradient id="paint33_linear" x1="111.599" y1="210.265" x2="110.435" y2="205.92" gradientUnits="userSpaceOnUse">
<stop stop-color="#3B3092"/>
<stop offset="1" stop-color="#2B3594"/>
</linearGradient>
<linearGradient id="paint34_linear" x1="112.582" y1="209.084" x2="109.307" y2="207.015" gradientUnits="userSpaceOnUse">
<stop stop-color="#A5DBDB"/>
<stop offset="1" stop-color="white"/>
</linearGradient>
<linearGradient id="paint35_linear" x1="110.525" y1="206.26" x2="111.558" y2="210.108" gradientUnits="userSpaceOnUse">
<stop stop-color="#FFF032"/>
<stop offset="1" stop-color="#FAEF5F"/>
</linearGradient>
<linearGradient id="paint36_linear" x1="111.38" y1="209.447" x2="110.655" y2="206.74" gradientUnits="userSpaceOnUse">
<stop stop-color="#3B3092"/>
<stop offset="1" stop-color="#2B3594"/>
</linearGradient>
<linearGradient id="paint37_linear" x1="110.737" y1="207.049" x2="111.326" y2="209.244" gradientUnits="userSpaceOnUse">
<stop stop-color="#FFF032"/>
<stop offset="1" stop-color="#FAEF5F"/>
</linearGradient>
<linearGradient id="paint38_linear" x1="111.018" y1="220.259" x2="111.019" y2="222.951" gradientUnits="userSpaceOnUse">
<stop stop-color="#5C1800"/>
<stop offset="1" stop-color="white"/>
</linearGradient>
<linearGradient id="paint39_linear" x1="111.017" y1="221.636" x2="111.019" y2="215.905" gradientUnits="userSpaceOnUse">
<stop stop-color="#FFF032"/>
<stop offset="1" stop-color="#FAEF5F"/>
</linearGradient>
<linearGradient id="paint40_linear" x1="111.937" y1="220.106" x2="110.034" y2="217.378" gradientUnits="userSpaceOnUse">
<stop stop-color="#FAEF5F"/>
<stop offset="1" stop-color="white"/>
</linearGradient>
<linearGradient id="paint41_linear" x1="111.017" y1="220.553" x2="111.019" y2="216.99" gradientUnits="userSpaceOnUse">
<stop stop-color="#3B3092"/>
<stop offset="1" stop-color="#2B3594"/>
</linearGradient>
<linearGradient id="paint42_linear" x1="111.937" y1="219.607" x2="110.016" y2="217.896" gradientUnits="userSpaceOnUse">
<stop stop-color="#A5DBDB"/>
<stop offset="1" stop-color="white"/>
</linearGradient>
<linearGradient id="paint43_linear" x1="111.017" y1="220.399" x2="111.018" y2="217.178" gradientUnits="userSpaceOnUse">
<stop stop-color="#FAEF5F"/>
<stop offset="1" stop-color="#FDFAD3"/>
</linearGradient>
<linearGradient id="paint44_linear" x1="80.4968" y1="223.187" x2="97.103" y2="209.083" gradientUnits="userSpaceOnUse">
<stop stop-color="#FFF032"/>
<stop offset="1" stop-color="#F89952"/>
</linearGradient>
<linearGradient id="paint45_linear" x1="84.1296" y1="223.187" x2="100.736" y2="209.083" gradientUnits="userSpaceOnUse">
<stop stop-color="#FFF032"/>
<stop offset="1" stop-color="#F89952"/>
</linearGradient>
<linearGradient id="paint46_linear" x1="87.7628" y1="223.187" x2="104.369" y2="209.083" gradientUnits="userSpaceOnUse">
<stop stop-color="#FFF032"/>
<stop offset="1" stop-color="#F89952"/>
</linearGradient>
<linearGradient id="paint47_linear" x1="105.941" y1="200.826" x2="100.851" y2="200.824" gradientUnits="userSpaceOnUse">
<stop/>
<stop offset="1" stop-color="#212427"/>
</linearGradient>
<linearGradient id="paint48_linear" x1="105.95" y1="200.826" x2="101.22" y2="200.824" gradientUnits="userSpaceOnUse">
<stop stop-color="#212427"/>
<stop offset="1" stop-color="#B5B8B8"/>
</linearGradient>
<linearGradient id="paint49_linear" x1="105.941" y1="203.684" x2="100.851" y2="203.682" gradientUnits="userSpaceOnUse">
<stop/>
<stop offset="1" stop-color="#212427"/>
</linearGradient>
<linearGradient id="paint50_linear" x1="105.95" y1="203.685" x2="101.22" y2="203.683" gradientUnits="userSpaceOnUse">
<stop stop-color="#212427"/>
<stop offset="1" stop-color="#B5B8B8"/>
</linearGradient>
<linearGradient id="paint51_linear" x1="156.522" y1="210.322" x2="136.712" y2="210.32" gradientUnits="userSpaceOnUse">
<stop stop-color="#FFD13A"/>
<stop offset="1" stop-color="#FAEF5F"/>
</linearGradient>
<linearGradient id="paint52_linear" x1="156.521" y1="210.322" x2="143.753" y2="210.32" gradientUnits="userSpaceOnUse">
<stop stop-color="#FFF032"/>
<stop offset="1" stop-color="#F9F185"/>
</linearGradient>
<linearGradient id="paint53_linear" x1="145.907" y1="218.722" x2="145.908" y2="202.338" gradientUnits="userSpaceOnUse">
<stop stop-color="#212427"/>
<stop offset="0.51" stop-color="#B5B8B8"/>
<stop offset="1" stop-color="#212427"/>
</linearGradient>
<linearGradient id="paint54_linear" x1="136.665" y1="210.323" x2="156.345" y2="210.322" gradientUnits="userSpaceOnUse">
<stop stop-color="#5D3600"/>
<stop offset="1" stop-color="#FAEF5F"/>
</linearGradient>
<linearGradient id="paint55_linear" x1="164.34" y1="210.152" x2="198.169" y2="210.151" gradientUnits="userSpaceOnUse">
<stop stop-color="#FFD13A"/>
<stop offset="1" stop-color="#FAEF5F"/>
</linearGradient>
<linearGradient id="paint56_linear" x1="154.488" y1="210.152" x2="198.164" y2="210.15" gradientUnits="userSpaceOnUse">
<stop stop-color="#5D3600"/>
<stop offset="1" stop-color="#FAEF5F"/>
</linearGradient>
<linearGradient id="paint57_linear" x1="165.918" y1="210.277" x2="190.396" y2="210.275" gradientUnits="userSpaceOnUse">
<stop stop-color="#FFD13A"/>
<stop offset="1" stop-color="#FFF032"/>
</linearGradient>
<linearGradient id="paint58_linear" x1="164.376" y1="200.816" x2="192.577" y2="225.538" gradientUnits="userSpaceOnUse">
<stop stop-color="#212427"/>
<stop offset="0.5" stop-color="#B8B9B8"/>
<stop offset="1" stop-color="#212427"/>
</linearGradient>
<linearGradient id="paint59_linear" x1="156.671" y1="203.04" x2="158.157" y2="203.392" gradientUnits="userSpaceOnUse">
<stop stop-color="#FFD13A"/>
<stop offset="0.53" stop-color="#FAEF5F"/>
<stop offset="1" stop-color="#FFD13A"/>
</linearGradient>
<linearGradient id="paint60_linear" x1="154.512" y1="205.573" x2="160.25" y2="201.079" gradientUnits="userSpaceOnUse">
<stop stop-color="#3B3092"/>
<stop offset="0.51" stop-color="#A5DBDB"/>
<stop offset="1" stop-color="#3B3092"/>
</linearGradient>
<linearGradient id="paint61_linear" x1="157.624" y1="203.431" x2="159.109" y2="203.079" gradientUnits="userSpaceOnUse">
<stop stop-color="#FFD13A"/>
<stop offset="0.53" stop-color="#FAEF5F"/>
<stop offset="1" stop-color="#FFD13A"/>
</linearGradient>
<linearGradient id="paint62_linear" x1="155.465" y1="200.898" x2="161.203" y2="205.392" gradientUnits="userSpaceOnUse">
<stop stop-color="#3B3092"/>
<stop offset="0.51" stop-color="#A5DBDB"/>
<stop offset="1" stop-color="#3B3092"/>
</linearGradient>
<linearGradient id="paint63_linear" x1="162.21" y1="203.04" x2="160.724" y2="203.392" gradientUnits="userSpaceOnUse">
<stop stop-color="#FFD13A"/>
<stop offset="0.53" stop-color="#FAEF5F"/>
<stop offset="1" stop-color="#FFD13A"/>
</linearGradient>
<linearGradient id="paint64_linear" x1="164.369" y1="205.573" x2="158.631" y2="201.079" gradientUnits="userSpaceOnUse">
<stop stop-color="#3B3092"/>
<stop offset="0.51" stop-color="#A5DBDB"/>
<stop offset="1" stop-color="#3B3092"/>
</linearGradient>
<linearGradient id="paint65_linear" x1="161.257" y1="203.431" x2="159.771" y2="203.079" gradientUnits="userSpaceOnUse">
<stop stop-color="#FFD13A"/>
<stop offset="0.53" stop-color="#FAEF5F"/>
<stop offset="1" stop-color="#FFD13A"/>
</linearGradient>
<linearGradient id="paint66_linear" x1="163.416" y1="200.898" x2="157.679" y2="205.392" gradientUnits="userSpaceOnUse">
<stop stop-color="#3B3092"/>
<stop offset="0.51" stop-color="#A5DBDB"/>
<stop offset="1" stop-color="#3B3092"/>
</linearGradient>
<linearGradient id="paint67_linear" x1="157.194" y1="214.472" x2="158.679" y2="214.824" gradientUnits="userSpaceOnUse">
<stop stop-color="#FFD13A"/>
<stop offset="0.53" stop-color="#FAEF5F"/>
<stop offset="1" stop-color="#FFD13A"/>
</linearGradient>
<linearGradient id="paint68_linear" x1="155.034" y1="217.005" x2="160.772" y2="212.511" gradientUnits="userSpaceOnUse">
<stop stop-color="#3B3092"/>
<stop offset="0.51" stop-color="#A5DBDB"/>
<stop offset="1" stop-color="#3B3092"/>
</linearGradient>
<linearGradient id="paint69_linear" x1="157.193" y1="214.862" x2="158.679" y2="214.51" gradientUnits="userSpaceOnUse">
<stop stop-color="#FFD13A"/>
<stop offset="0.53" stop-color="#FAEF5F"/>
<stop offset="1" stop-color="#FFD13A"/>
</linearGradient>
<linearGradient id="paint70_linear" x1="155.034" y1="212.33" x2="160.772" y2="216.824" gradientUnits="userSpaceOnUse">
<stop stop-color="#3B3092"/>
<stop offset="0.51" stop-color="#A5DBDB"/>
<stop offset="1" stop-color="#3B3092"/>
</linearGradient>
<linearGradient id="paint71_linear" x1="161.687" y1="214.472" x2="160.202" y2="214.824" gradientUnits="userSpaceOnUse">
<stop stop-color="#FFD13A"/>
<stop offset="0.53" stop-color="#FAEF5F"/>
<stop offset="1" stop-color="#FFD13A"/>
</linearGradient>
<linearGradient id="paint72_linear" x1="163.847" y1="217.005" x2="158.109" y2="212.511" gradientUnits="userSpaceOnUse">
<stop stop-color="#3B3092"/>
<stop offset="0.51" stop-color="#A5DBDB"/>
<stop offset="1" stop-color="#3B3092"/>
</linearGradient>
<linearGradient id="paint73_linear" x1="161.687" y1="214.862" x2="160.202" y2="214.51" gradientUnits="userSpaceOnUse">
<stop stop-color="#FFD13A"/>
<stop offset="0.53" stop-color="#FAEF5F"/>
<stop offset="1" stop-color="#FFD13A"/>
</linearGradient>
<linearGradient id="paint74_linear" x1="163.846" y1="212.33" x2="158.108" y2="216.824" gradientUnits="userSpaceOnUse">
<stop stop-color="#3B3092"/>
<stop offset="0.51" stop-color="#A5DBDB"/>
<stop offset="1" stop-color="#3B3092"/>
</linearGradient>
<linearGradient id="paint75_linear" x1="159.472" y1="199.131" x2="159.472" y2="202.762" gradientUnits="userSpaceOnUse">
<stop stop-color="#5C1800"/>
<stop offset="1" stop-color="white"/>
</linearGradient>
<linearGradient id="paint76_linear" x1="158.564" y1="200.65" x2="160.391" y2="193.827" gradientUnits="userSpaceOnUse">
<stop stop-color="#F89952"/>
<stop offset="1" stop-color="#FAEF5F"/>
</linearGradient>
<linearGradient id="paint77_linear" x1="158.771" y1="199.877" x2="160.174" y2="194.637" gradientUnits="userSpaceOnUse">
<stop stop-color="#3B3092"/>
<stop offset="1" stop-color="#2B3594"/>
</linearGradient>
<linearGradient id="paint78_linear" x1="157.585" y1="198.453" x2="161.534" y2="195.957" gradientUnits="userSpaceOnUse">
<stop stop-color="#A5DBDB"/>
<stop offset="1" stop-color="white"/>
</linearGradient>
<linearGradient id="paint79_linear" x1="160.066" y1="195.047" x2="158.82" y2="199.686" gradientUnits="userSpaceOnUse">
<stop stop-color="#FFF032"/>
<stop offset="1" stop-color="#FAEF5F"/>
</linearGradient>
<linearGradient id="paint80_linear" x1="159.036" y1="198.89" x2="159.909" y2="195.626" gradientUnits="userSpaceOnUse">
<stop stop-color="#3B3092"/>
<stop offset="1" stop-color="#2B3594"/>
</linearGradient>
<linearGradient id="paint81_linear" x1="159.811" y1="195.998" x2="159.1" y2="198.645" gradientUnits="userSpaceOnUse">
<stop stop-color="#FFF032"/>
<stop offset="1" stop-color="#FAEF5F"/>
</linearGradient>
<linearGradient id="paint82_linear" x1="159.472" y1="209.701" x2="159.472" y2="212.815" gradientUnits="userSpaceOnUse">
<stop stop-color="#5C1800"/>
<stop offset="1" stop-color="white"/>
</linearGradient>
<linearGradient id="paint83_linear" x1="158.719" y1="210.907" x2="160.234" y2="205.249" gradientUnits="userSpaceOnUse">
<stop stop-color="#F89952"/>
<stop offset="1" stop-color="#FAEF5F"/>
</linearGradient>
<linearGradient id="paint84_linear" x1="158.891" y1="210.265" x2="160.054" y2="205.92" gradientUnits="userSpaceOnUse">
<stop stop-color="#3B3092"/>
<stop offset="1" stop-color="#2B3594"/>
</linearGradient>
<linearGradient id="paint85_linear" x1="157.908" y1="209.084" x2="161.183" y2="207.015" gradientUnits="userSpaceOnUse">
<stop stop-color="#A5DBDB"/>
<stop offset="1" stop-color="white"/>
</linearGradient>
<linearGradient id="paint86_linear" x1="159.965" y1="206.26" x2="158.932" y2="210.108" gradientUnits="userSpaceOnUse">
<stop stop-color="#FFF032"/>
<stop offset="1" stop-color="#FAEF5F"/>
</linearGradient>
<linearGradient id="paint87_linear" x1="159.11" y1="209.447" x2="159.835" y2="206.74" gradientUnits="userSpaceOnUse">
<stop stop-color="#3B3092"/>
<stop offset="1" stop-color="#2B3594"/>
</linearGradient>
<linearGradient id="paint88_linear" x1="159.753" y1="207.049" x2="159.164" y2="209.244" gradientUnits="userSpaceOnUse">
<stop stop-color="#FFF032"/>
<stop offset="1" stop-color="#FAEF5F"/>
</linearGradient>
<linearGradient id="paint89_linear" x1="159.472" y1="220.259" x2="159.471" y2="222.951" gradientUnits="userSpaceOnUse">
<stop stop-color="#5C1800"/>
<stop offset="1" stop-color="white"/>
</linearGradient>
<linearGradient id="paint90_linear" x1="159.473" y1="221.636" x2="159.471" y2="215.905" gradientUnits="userSpaceOnUse">
<stop stop-color="#FFF032"/>
<stop offset="1" stop-color="#FAEF5F"/>
</linearGradient>
<linearGradient id="paint91_linear" x1="158.553" y1="220.106" x2="160.456" y2="217.378" gradientUnits="userSpaceOnUse">
<stop stop-color="#FAEF5F"/>
<stop offset="1" stop-color="white"/>
</linearGradient>
<linearGradient id="paint92_linear" x1="159.473" y1="220.553" x2="159.471" y2="216.99" gradientUnits="userSpaceOnUse">
<stop stop-color="#3B3092"/>
<stop offset="1" stop-color="#2B3594"/>
</linearGradient>
<linearGradient id="paint93_linear" x1="158.552" y1="219.607" x2="160.474" y2="217.896" gradientUnits="userSpaceOnUse">
<stop stop-color="#A5DBDB"/>
<stop offset="1" stop-color="white"/>
</linearGradient>
<linearGradient id="paint94_linear" x1="159.473" y1="220.399" x2="159.471" y2="217.178" gradientUnits="userSpaceOnUse">
<stop stop-color="#FAEF5F"/>
<stop offset="1" stop-color="#FDFAD3"/>
</linearGradient>
<linearGradient id="paint95_linear" x1="189.993" y1="223.187" x2="173.387" y2="209.083" gradientUnits="userSpaceOnUse">
<stop stop-color="#FFF032"/>
<stop offset="1" stop-color="#F89952"/>
</linearGradient>
<linearGradient id="paint96_linear" x1="186.36" y1="223.187" x2="169.754" y2="209.083" gradientUnits="userSpaceOnUse">
<stop stop-color="#FFF032"/>
<stop offset="1" stop-color="#F89952"/>
</linearGradient>
<linearGradient id="paint97_linear" x1="182.727" y1="223.187" x2="166.12" y2="209.083" gradientUnits="userSpaceOnUse">
<stop stop-color="#FFF032"/>
<stop offset="1" stop-color="#F89952"/>
</linearGradient>
<linearGradient id="paint98_linear" x1="164.548" y1="200.826" x2="169.639" y2="200.824" gradientUnits="userSpaceOnUse">
<stop/>
<stop offset="1" stop-color="#212427"/>
</linearGradient>
<linearGradient id="paint99_linear" x1="164.539" y1="200.826" x2="169.27" y2="200.824" gradientUnits="userSpaceOnUse">
<stop stop-color="#212427"/>
<stop offset="1" stop-color="#B5B8B8"/>
</linearGradient>
<linearGradient id="paint100_linear" x1="164.548" y1="203.684" x2="169.639" y2="203.682" gradientUnits="userSpaceOnUse">
<stop/>
<stop offset="1" stop-color="#212427"/>
</linearGradient>
<linearGradient id="paint101_linear" x1="164.539" y1="203.684" x2="169.27" y2="203.683" gradientUnits="userSpaceOnUse">
<stop stop-color="#212427"/>
<stop offset="1" stop-color="#B5B8B8"/>
</linearGradient>
<clipPath id="clip0">
<rect width="270" height="370" fill="white"/>
</clipPath>
<clipPath id="clip1">
<rect x="66.7863" y="89.3953" width="136.91" height="173.682" fill="white"/>
</clipPath>
</defs>
</svg>
