<svg xmlns="http://www.w3.org/2000/svg" xmlns:xlink="http://www.w3.org/1999/xlink" width="1000" height="1000" fill="none" xmlns:v="https://vecta.io/nano"><style><![CDATA[.B{fill:#572d6a}.C{fill:#39214f}.D{fill:#8663aa}.E{fill:#d3398b}.F{fill:#9857a2}.G{stroke-miterlimit:10}.H{fill:#fff}.I{fill:#6e2467}.J{fill:#643e81}.K{fill:#804696}.L{fill:#bbbbbc}.M{fill:#873582}.N{fill:#491135}.O{fill:#311a49}]]></style><g clip-path="url(#A)"><path d="M500.82 385.733l24.1 28.38-88.687 58.327 64.587-86.707z" class="B"/><g class="J"><path d="M623.987 296.993l6.853 36.593-105.94 6.654 99.087-43.247zm-162.18-46.52l32.42 17.207-88.687 58.327 56.267-75.534z"/></g><g class="B"><path d="M395.32 244.087l41.786 12.3-107.313 80.16 65.527-92.46zM266.3 482.807l70.013 3.413-63.233 53.927-6.78-57.34zm358.666-141.62l61.487 33.653-106.627 54.146 45.14-87.799z"/></g><path d="M829.574 298.827l59.546 50.8L742.587 365.1l86.987-66.273z" class="I"/><g class="C"><path d="M532.586 491.973l17.34 16.493-69.673 23.734 52.333-40.227zM341 330.593l84.927-23.866 18.946-51.707L341 330.593z"/></g><path d="M338.934 406.953l63.72-30.006 10.386 36.56-74.106-6.554z" class="J"/><path d="M365.38 374.78l90.58-42.453-46.68 71.62-43.9-29.167z" fill="#872269"/><path d="M721.32 281.493l39.434-34.706 65.173 38.706-104.607-4z" fill="#7d4f9a"/><path d="M715.033 361.527L811.8 302.7l-10.654 51.154-86.113 7.673z" class="B"/><path d="M679.653 330.833l92.507-54.56 24.547 44.44-117.054 10.12z" class="I"/><path d="M744.026 319.753l79.827-41.833 8.413 30.747-88.24 11.086z" class="B"/><g class="E"><path d="M249.18 472.673l-13.92 89.6 37.16-84.586-22.087-6.954m505.521-223.446l-59.147-.32 34.527 26.373 24.62-26.053z"/></g><path d="M492.901 239.253l-51.727 17.86 39.806 2.72 11.921-20.58z" class="I"/><path d="M383.813 262.947c1.294 0 45.107-9.674 45.107-9.674l-37.013 34.934-8.094-25.26z" class="C"/><g class="B"><path d="M497.733 446.64l26.28 27.113-59.326 6.14 33.046-33.253zm-29.12 35.627L400.6 499.7l27.913-38.766 40.1 21.333z"/></g><path d="M496.326 264.546l62.774 34.127-9.26-50.547-53.514 16.42z" class="D"/><path d="M191.1 676.713l24.353 56.76 31.82-41.846-56.173-14.914z" class="F"/><path d="M572.32 445.253c-1.434 3.794-8.987 51.867-8.987 51.867l-70.993 7.333 79.98-59.2z" class="D"/><path d="M491.373 502.167l25.254 18.08-48.594 16.34 23.34-34.42z" class="E"/><path d="M606.02 420.487l12.286 20.08-109.433 48.2 97.147-68.28z" class="F"/><path d="M570.034 498.8l-4.473-57.66 65.64-11.667-61.167 69.327z" class="M"/><path d="M479.594 292.187c3.073-4.187 13.473-26.38 13.473-26.38l38.487 16.76-51.96 9.62z" class="E"/><path d="M666.939 417.133l37.601-7.073-24.827 41.853-12.774-34.78z" class="C"/><path d="M716.4 397.553l-2.334 51.434 23.207-1.554-20.873-49.88z" class="I"/><path d="M697.667 396.273l.32 50.834L723.727 416l-26.06-19.727z" class="C"/><g class="B"><path d="M733.101 391.3l-18.54 23.14 20.326 19.266-1.786-42.406zm-53.448 57.62l17.86-17.06 10.367 32.813-28.227-15.753z"/><path d="M701.473 448.613l35.473-2.28-45.993 24.754 10.52-22.474z"/></g><path d="M678.033 477.26l3.407-21.6 13.987 9.993-17.394 11.607z" class="E"/><g class="C"><path d="M284.826 518.774l47.88 30.12 78.06-62.174-125.94 32.054zm2.841 43.133l13.467 36.373 26.46-48.227-39.927 11.854zm-.613 27.613l-35.694 75.973 49.867-66.2-14.173-9.773zm205.573-163.833l31.693 5.486-18.513 30.14-13.18-35.626z"/></g><path d="M625.2 258.107l18.434-27.447 78.966 32.607-97.4-5.16z" class="D"/><path d="M360.787 497.086l78.427-21.386 7.006-55.174-85.433 76.56z" class="B"/><path d="M417.826 404.506l18.734 16.754 5.879-70.887-24.613 54.133z" class="M"/><path d="M280.753 629.507l54.513 24.3-38.206 57.066-16.307-81.366z" class="C"/><path d="M329.767 416.067l35.586-8.047 50.507 46.72-86.093-38.673z" class="K"/><g class="D"><path d="M212.387 657.493l21.053 14.533-27.813 26.241 6.76-40.774z"/><path d="M185.373 680.394l24.727 19.393-65.447 50.68 40.72-70.073z"/></g><g class="I"><path d="M556.986 369.094l57.44-40.914 80.04 10.54-137.48 30.374zm-200.34 7.613l18.054-55.58 109.36-4.34-127.414 59.92zM276.72 495.64l18.046-55.58 109.36-4.34-127.406 59.92z"/></g><path d="M379.633 409l74.86 2.867-49.26 44.486-25.6-47.353z" class="C"/><g class="N"><path d="M638.54 343.16l68.653-20.067 3.72 56.527-72.373-36.46z"/><path d="M568.054 296.667l81.653 12.959-6.393 38.367-75.26-51.326z"/></g><path d="M515.974 348.506l18.166 15.714 67.76-21.94-85.926 6.226z" fill="#872269"/><path d="M721.654 332.687l12.267 52.639-124.667 48.02 112.4-100.659z" class="C"/><path d="M869.674 318.58l24.42 21.673-19.74 13.48-4.68-35.153z" class="N"/><path d="M704.633 364.107l12.273 26.16 88.953-27.373-101.226 1.213z" fill="#61174c"/><path d="M229.493 640.533l30.534 10.64-30.534 76.967v-87.607z" class="B"/><path d="M242.066 708.953l35.174-70.973 13.106 89.2-48.28-18.227z" class="C"/><path d="M455.214 338.087l-29.2 50.94L567.54 363.66l-112.326-25.573z" class="B"/><path d="M620 346.027l-74.066 10.98 27 68.753L620 346.027z" class="C"/><path d="M554.113 362.167l-118.8 28.939 14.787 53.76 104.013-82.699z" class="J"/><g class="C"><path d="M699.026 342.407l65.054-36.267 7.673 43.747-72.727-7.48zm-78.006-23.66l65.046-36.267 7.68 43.747-72.726-7.48z"/></g><g class="F"><path d="M290.28 442.88l15.467-49.607 49.033-1.673-64.5 51.28zm185.433-154.107l15.473-49.606 49.027-1.667-64.5 51.273zm-157.3 86.327l18.453-49.714 46.047-1.566-64.5 51.28z"/></g><path d="M589.787 401.807l-69.62 78.693 55.013-35.68 14.607-43.013z" fill="#7d4f9a"/><path d="M389.013 284.42l-56.88-26.153 19.806 57.26 37.074-31.107z" class="F"/><path d="M247.026 469.007l46.347 9.34 3.733-80.967-50.08 71.627z" class="D"/><path d="M561.167 248.76l50.113-4.087-57.853 59.227 7.74-55.14z" class="K"/><g class="F"><path d="M593.44 258.793l-19.187 33.894L700.4 266.553l-106.96-7.76z"/><path d="M655.14 304.834l28.78-47.96 83.413 41.113-112.193 6.847z"/></g><path d="M252.953 567.767l39.714 19.753-51.78 69.447 12.066-89.2z" class="B"/><path d="M838.18 310.907l-34.847 12.953 72.473 2.553-37.626-15.506z" class="D"/><path d="M585.413 291.533l64.38-24.733 26.587 35.253-90.967-10.52z" class="K"/><path d="M228.087 643.64l-4.54 27.373-37.113 20.134 41.653-47.507z" class="E"/><path d="M747.06 246.327l-79.974-17.36-14.98 11.606 94.954 5.754z" class="D"/><path d="M407.647 456.034l-53.44-26.834L278.7 547.947l128.947-91.913z" class="B"/><path d="M249.193 520.22l56.96-11.98-35.5 87.78-21.46-75.8z" class="J"/><path d="M335.207 359.393l24.967 33.594 22.126-36.52-47.093 2.926z" class="F"/><path d="M598.174 397.287l21.573 35.413 42.54-25.78-64.113-9.633z" class="B"/><path d="M467.526 358.087L448.84 293.86l175.866 7.413-157.18 56.814z" class="M"/><path d="M347.147 344.693l-15.56-8.526-66.927 96.553 82.487-88.027z" class="E"/><path d="M587.994 396.606l-63.074-11.439-7.066 95.679 70.14-84.24z" class="C"/><path d="M754.826 282.587v34.06l55.207-4.187-55.207-29.873z" class="K"/><path d="M370.167 237.48l-62.233 4.207 38.52 74.653 23.713-78.86z" class="E"/><path d="M593.594 223.333l14.566 34.347 39.527-25.32-54.093-9.027z" class="F"/><path d="M618.594 260.813l-15.553-33.753-91.98 10.633 107.533 23.12z" class="D"/><path d="M242.68 540.52l21.994-5.687-38.2 142.607 16.206-136.92z" class="F"/><path d="M137.627 782.913l23.446 4.053-45.306 36.4 21.86-40.453z" class="E"/><path d="M142.474 760.433l33.833-32.3 68.16 20.307-101.993 11.993z" class="J"/><path d="M217.48 713.066l69.554 14.887-62.86 18.553-6.694-33.44z" class="B"/><g class="N"><path d="M141.253 763.52l94.633-15.773-106.36 46.04 11.727-30.267zm191.133-103.16l-33.246 61.86 61.54-22.38-28.294-39.48z"/></g><path d="M260.26 305.713c.763 1.278 1.131 2.754 1.055 4.24a7.52 7.52 0 0 1-1.478 4.111c-.888 1.195-2.111 2.099-3.513 2.598s-2.92.572-4.364.209-2.746-1.147-3.744-2.25a7.52 7.52 0 0 1-1.864-3.952c-.217-1.472.007-2.976.645-4.321s1.659-2.471 2.937-3.235c.848-.508 1.789-.843 2.767-.987a7.54 7.54 0 0 1 2.935.147c.959.242 1.861.67 2.654 1.26s1.463 1.331 1.97 2.18z" class="O"/><path d="M687.7 172a7.53 7.53 0 0 1 1.059 4.241c-.075 1.487-.589 2.919-1.477 4.114s-2.112 2.1-3.514 2.6-2.922.572-4.366.208-2.748-1.148-3.746-2.253a7.53 7.53 0 0 1-1.862-3.955 7.54 7.54 0 0 1 .65-4.323 7.53 7.53 0 0 1 8.637-4.066A7.53 7.53 0 0 1 687.7 172z" fill="#292a29"/><g class="O"><path d="M114.213 646.213a7.52 7.52 0 0 1 1.058 4.241c-.074 1.488-.588 2.919-1.476 4.114a7.53 7.53 0 0 1-3.515 2.6c-1.403.5-2.922.572-4.366.208s-2.747-1.148-3.745-2.253a7.53 7.53 0 0 1-1.862-3.955 7.52 7.52 0 0 1 .65-4.322c.639-1.345 1.664-2.47 2.943-3.233 1.712-1.021 3.76-1.321 5.694-.833a7.53 7.53 0 0 1 4.619 3.433zM274.08 814.12c.764 1.278 1.132 2.754 1.057 4.24a7.52 7.52 0 0 1-1.478 4.113c-.888 1.195-2.111 2.099-3.513 2.599a7.52 7.52 0 0 1-4.365.208 7.53 7.53 0 0 1-5.608-6.205 7.52 7.52 0 0 1 .647-4.321 7.53 7.53 0 0 1 2.94-3.234 7.51 7.51 0 0 1 5.699-.839 7.52 7.52 0 0 1 2.653 1.259 7.51 7.51 0 0 1 1.968 2.18z"/></g><path d="M615.14 599.227a13.93 13.93 0 0 1 1.946 7.846c-.141 2.75-1.094 5.397-2.738 7.606s-3.907 3.881-6.501 4.806-5.404 1.059-8.075.387a13.93 13.93 0 0 1-10.384-11.47A13.93 13.93 0 0 1 596 594.413c1.572-.942 3.315-1.564 5.128-1.832a13.94 13.94 0 0 1 10.36 2.605 13.95 13.95 0 0 1 3.652 4.041z" fill="#292a29"/><path d="M421.813 578.487a7.52 7.52 0 0 1 1.057 4.24 7.53 7.53 0 0 1-1.477 4.113c-.889 1.194-2.111 2.099-3.514 2.598a7.52 7.52 0 0 1-8.11-2.043c-.998-1.104-1.647-2.48-1.863-3.953s.009-2.977.648-4.322a7.52 7.52 0 0 1 2.939-3.233c1.714-1.024 3.763-1.325 5.699-.837s3.597 1.724 4.621 3.437z" class="O"/><path d="M319.439 238.973l63.4 1.28-23.446 75.307-39.954-76.587z" class="I"/><path d="M467.413 320.967l-71.566 5.053 84.733-42.347-13.167 37.294z" class="D"/><g stroke="#fff" class="G"><g stroke-width="1.4"><path d="M567.227 426.48L465.834 534.706l34.04-5.92 56.693-23.013 80.58-75.847 14.913-6.426 160.707-64.8 71.62-5.54 11.72-8.74-9.593-19.82-46.04-14.067-16.62-32.613-54.994-29.414-84.406-17.906-96.554-7.034-92.073 14.067-56.913 19.827-64.58-22.38-73.54 5.113 28.14 36.447 8.953 50.513-55.633 64.587-35.807 72.253L233.014 569.5l-1.914 71.613-66.5 58.193-51.16 129.167 58.834-47.96L298.88 724.88l67.78-17.26-37.086-65.867-43.487-12.787 50.52-88.24 26.213-26.22 79.86-25.733 77.28-11.833m143.413-58.006l27.9 32.7m-11.293-12.901l-3.834 41.407 62.501-30.373-5.434-58.347m152.454-39.967l-21.32-18.753-62.66-14.493-122.667-13.76-104.12-15.66-136.413 7.673-110.833 70.767-43.907 52.86-28.133 56.693-16.627 110.413-6.667 52.7 32.56 51.207 21.207-62.133"/><path d="M769.82 249.146l-55.1 21.314-40.746 33.227m-13.427 19.033l-228.7 15.14-84.833 59.673-40.074 42.207-33.247 43.053-41.533 157.58m441.767-336.42l-11.753 16.387"/></g><g stroke-width=".7"><path d="M337.887 327.153l101.026-69.693m128.314 169.02l22.913.107 53.713-19.18m170.407-49.24l-99.333 16.686-71.073 32.554-7.994 23.973m228.487-98.68l-65.753-2.346h-78.967M555.213 506.32l-35.253-29.38"/><path d="M465.833 534.707l171.313-104.78M824.813 278.88l-35.493 11.613 11.193 28.034 39.96-7.994-51.153-20.04-74.6-20.033-98.047-13.213-78.007-10.234-65.226 9.807-52.007 20.46-85.68 52.86"/><path d="M812.767 358.7l-14.173-28.347 1.28-13.106M589.82 223.566l-52.86 23.447-21.74 44.76-5.9 40.913 9.207 58.114 48.7 35.68-12.013 79.84m-57.9-268.687l-26.427 20.04-32.4 38.787-6.393 41.353 86.433 52.987-75.847 97.973-69.413-2.186-59.253-53.714 12.36-65.22 11.086-38.793m26.853 185.433l-37.94-8.946-52.434-22.594 7.674-59.253 1.28-33.253m53.713 150.479l-42.633 4.26-30.587-22.753-7.773-45.453-9.167-12.787m431.187 15.774l13.64-28.134 47.373-1.866-25.207-50.994M162.68 702.5l9.593 78.014 60.32-139.181M366.66 707.62l-101.674-15.987"/><path d="M329.573 641.753l-64.587 49.88M162.68 702.5l102.306-10.867"/><path d="M255.34 743.806l-91.92-42.046m403.807-275.28l-193.96 60.107m-8.954 27.707l8.954-27.707M232.16 640.373l62.24-95.013-8.526 85.313m50.733-89.946l-10.233-35.38-12.36-72.473L518.527 390.8 660.8 322.68m128.52-32.187l-50.773 21.08m-94.693 95.833l7.193-27.453M438.486 296.46l98.474-49.447m-98.047 10.447l-18.533 20.473m50.566-20.307L326.439 367.613m412.107-56.04l-18.859 18.74m-68.574 49.601l10.494-56.887m29.586 128.233l41.94-60.213m-358.586-155.54l-36.66 91.647"/><path d="M360.061 270.947l77.94-12.48m-77.941 12.48l-59.26-29.9m585.713 83.713l-22.166 8.1M590.18 426.547l46.62 3.893m101.747-118.867l-77.394 10.587-84.053-33.113-40.14-42.034m125.214 75.727l57.453 7.614-4.7 44.5m-388.554-7.201l20.887 29.84m-82.547 294.2l-9.68 52.847M294.4 545.36l31.974-40.013 46.893-18.76 145.26-95.787 197.58-16.007m95.1-16.106l53.14-25.987m-75.027-42.206l-21.16-40.907m-229.493-2.574l229.493 2.574"/></g></g><g class="H"><path d="M657.76 322.84c.033.737.283 1.449.719 2.044a3.73 3.73 0 0 0 3.896 1.42 3.74 3.74 0 0 0 1.866-1.103 3.73 3.73 0 0 0 .938-1.953c.113-.729.008-1.475-.303-2.145a3.73 3.73 0 0 0-3.542-2.156c-.491.02-.972.137-1.417.344s-.845.5-1.177.861a3.73 3.73 0 0 0-.758 1.247 3.74 3.74 0 0 0-.222 1.441zm177.82-13.64a3.73 3.73 0 0 0 .72 2.038c.436.593 1.038 1.044 1.73 1.295a3.73 3.73 0 0 0 2.158.117 3.72 3.72 0 0 0 1.86-1.1c.498-.542.824-1.22.937-1.947a3.73 3.73 0 0 0-.301-2.14c-.31-.668-.811-1.229-1.439-1.613a3.72 3.72 0 0 0-2.092-.543 3.73 3.73 0 0 0-1.418.342 3.75 3.75 0 0 0-1.178.861c-.332.362-.589.786-.757 1.248a3.74 3.74 0 0 0-.22 1.442zm-70.98-60.107a3.74 3.74 0 0 0 .719 2.044c.436.596 1.039 1.048 1.733 1.301a3.73 3.73 0 0 0 2.163.119c.717-.175 1.366-.559 1.866-1.102s.825-1.224.938-1.953a3.73 3.73 0 0 0-3.845-4.302c-.491.021-.972.138-1.417.345a3.72 3.72 0 0 0-1.177.861c-.331.362-.59.785-.758 1.246a3.74 3.74 0 0 0-.222 1.441zM492.84 237.9a3.74 3.74 0 0 0 2.447 3.349c.693.254 1.447.296 2.164.122a3.74 3.74 0 0 0 1.867-1.101c.5-.543.827-1.223.941-1.953a3.74 3.74 0 0 0-.303-2.146c-.311-.67-.814-1.232-1.444-1.616s-1.361-.573-2.099-.542a3.75 3.75 0 0 0-2.588 1.207c-.669.728-1.023 1.691-.985 2.68zm89.947-13.64a3.73 3.73 0 0 0 .716 2.046c.435.596 1.038 1.05 1.731 1.304s1.447.296 2.164.121 1.368-.557 1.867-1.101.827-1.223.941-1.953a3.74 3.74 0 0 0-.303-2.146c-.311-.669-.813-1.232-1.444-1.616s-1.361-.573-2.099-.542c-.988.045-1.918.479-2.587 1.207a3.75 3.75 0 0 0-.986 2.68zM370.92 235.333c.032.737.282 1.449.718 2.044a3.73 3.73 0 0 0 1.732 1.3 3.74 3.74 0 0 0 2.163.121c.717-.175 1.366-.558 1.865-1.101a3.73 3.73 0 0 0 .941-1.951c.114-.729.009-1.475-.301-2.145a3.73 3.73 0 0 0-3.538-2.161 3.74 3.74 0 0 0-2.596 1.205c-.671.73-1.025 1.697-.984 2.688z"/></g><g class="L"><path d="M252.234 743.833a3.72 3.72 0 0 0 .72 2.038c.436.593 1.038 1.044 1.73 1.295a3.72 3.72 0 0 0 2.158.118 3.73 3.73 0 0 0 2.797-3.048c.113-.727.008-1.472-.302-2.14a3.73 3.73 0 0 0-1.438-1.613 3.72 3.72 0 0 0-2.092-.543 3.74 3.74 0 0 0-2.592 1.208c-.67.729-1.023 1.695-.981 2.685zm183.699-447.099c.032.737.282 1.448.719 2.043a3.74 3.74 0 0 0 1.733 1.301 3.73 3.73 0 0 0 2.163.119c.717-.175 1.366-.559 1.865-1.102s.826-1.224.939-1.953.007-1.476-.304-2.145a3.73 3.73 0 0 0-1.444-1.616c-.63-.383-1.36-.572-2.098-.541a3.74 3.74 0 0 0-3.573 3.894z"/></g><g class="H"><use xlink:href="#B"/><path d="M298.773 240.46c.031.738.28 1.45.715 2.046a3.73 3.73 0 0 0 1.732 1.303 3.74 3.74 0 0 0 4.031-.979c.5-.543.827-1.223.941-1.953a3.74 3.74 0 0 0-.303-2.146 3.73 3.73 0 0 0-1.444-1.616c-.631-.384-1.361-.573-2.099-.542-.989.042-1.921.475-2.591 1.203a3.73 3.73 0 0 0-.982 2.684zm35.168 86.647c.032.737.282 1.448.718 2.044a3.74 3.74 0 0 0 1.733 1.3c.694.253 1.447.294 2.164.119s1.366-.559 1.865-1.102.826-1.224.939-1.953.007-1.476-.304-2.145a3.73 3.73 0 0 0-1.444-1.615 3.74 3.74 0 0 0-2.098-.542c-.989.045-1.921.48-2.59 1.21a3.74 3.74 0 0 0-.983 2.684zm-55.628 65.22c.032.737.283 1.448.719 2.044a3.72 3.72 0 0 0 1.733 1.3 3.73 3.73 0 0 0 4.028-.983c.499-.544.826-1.223.939-1.953s.008-1.476-.304-2.145a3.73 3.73 0 0 0-1.444-1.615 3.74 3.74 0 0 0-2.098-.542c-.49.021-.971.138-1.417.345a3.73 3.73 0 0 0-1.177.861 3.75 3.75 0 0 0-.757 1.246c-.168.462-.243.951-.222 1.442zM159.7 701.813a3.72 3.72 0 0 0 .72 2.038c.436.593 1.038 1.044 1.73 1.295a3.72 3.72 0 0 0 2.158.118 3.73 3.73 0 0 0 1.86-1.1c.498-.543.824-1.22.937-1.948a3.73 3.73 0 0 0-.301-2.14c-.309-.668-.811-1.229-1.439-1.613a3.72 3.72 0 0 0-2.092-.543 3.76 3.76 0 0 0-1.417.344c-.445.207-.845.5-1.177.862s-.589.785-.757 1.246-.244.951-.222 1.441zm68.734-61.386c.032.737.282 1.449.719 2.044a3.74 3.74 0 0 0 1.734 1.301c.694.253 1.447.293 2.164.117s1.367-.56 1.865-1.104a3.73 3.73 0 0 0 .631-4.1c-.312-.669-.816-1.231-1.447-1.614s-1.362-.57-2.1-.538c-.989.044-1.922.478-2.592 1.208a3.74 3.74 0 0 0-.981 2.686"/><use xlink:href="#C"/></g><g class="L"><path d="M361.76 707.247a3.73 3.73 0 0 0 .728 2.038c.438.592 1.043 1.041 1.736 1.291s1.446.288 2.162.111a3.73 3.73 0 0 0 1.859-1.106c.497-.544.822-1.224.934-1.953s.005-1.474-.307-2.142a3.74 3.74 0 0 0-4.957-1.81c-.446.207-.846.499-1.178.861a3.74 3.74 0 0 0-.757 1.247c-.168.462-.243.952-.22 1.443m-1.28-193.087a3.73 3.73 0 0 0 .719 2.044c.436.595 1.039 1.048 1.733 1.3a3.73 3.73 0 0 0 4.028-.983c.499-.544.826-1.223.939-1.953s.007-1.476-.304-2.145a3.73 3.73 0 0 0-1.444-1.615 3.74 3.74 0 0 0-2.098-.542c-.99.044-1.922.478-2.592 1.208a3.74 3.74 0 0 0-.981 2.686z"/></g><path d="M463.107 534.6c.032.737.283 1.448.719 2.044s1.039 1.048 1.733 1.3a3.73 3.73 0 0 0 4.028-.983c.499-.544.826-1.223.939-1.953s.007-1.476-.304-2.145a3.73 3.73 0 0 0-3.542-2.157 3.74 3.74 0 0 0-1.417.345 3.73 3.73 0 0 0-1.177.861c-.332.362-.589.785-.757 1.246s-.243.951-.222 1.442z" class="H"/><g class="L"><path d="M553.106 505.827c.033.738.283 1.45.72 2.045a3.74 3.74 0 0 0 1.736 1.3c.694.252 1.447.293 2.165.117a3.74 3.74 0 0 0 1.864-1.107c.499-.545.824-1.226.936-1.956a3.73 3.73 0 0 0-1.759-3.758c-.632-.382-1.364-.568-2.102-.534a3.74 3.74 0 0 0-2.592 1.207c-.669.73-1.022 1.696-.981 2.686m9.127-78.547c.031.738.28 1.45.715 2.046s1.038 1.05 1.732 1.304 1.446.296 2.164.121a3.73 3.73 0 0 0 1.867-1.101c.5-.543.827-1.223.941-1.953a3.74 3.74 0 0 0-1.747-3.762c-.631-.384-1.361-.573-2.099-.542a3.75 3.75 0 0 0-3.573 3.887zm71.114 3.52a3.72 3.72 0 0 0 .72 2.038c.436.593 1.038 1.044 1.73 1.295a3.72 3.72 0 0 0 2.158.117c.715-.174 1.362-.557 1.86-1.1s.824-1.22.937-1.947.008-1.472-.302-2.14a3.73 3.73 0 0 0-1.438-1.613 3.72 3.72 0 0 0-3.509-.199c-.445.207-.845.5-1.177.861a3.74 3.74 0 0 0-.757 1.247c-.168.461-.244.951-.222 1.441zm174.259-71.76a3.73 3.73 0 0 0 4.609 3.45c.715-.175 1.362-.557 1.86-1.1s.824-1.22.937-1.947.008-1.473-.302-2.14a3.73 3.73 0 0 0-3.53-2.156c-.491.02-.972.137-1.417.344s-.845.5-1.177.861a3.73 3.73 0 0 0-.758 1.247 3.74 3.74 0 0 0-.222 1.441z"/></g><path d="M892.314 344.973c.032.738.282 1.449.719 2.044s1.039 1.048 1.733 1.301a3.74 3.74 0 0 0 2.163.119 3.73 3.73 0 0 0 2.804-3.055c.113-.73.007-1.476-.304-2.146a3.73 3.73 0 0 0-3.542-2.156 3.74 3.74 0 0 0-3.573 3.893z" class="H"/><g class="L"><path d="M880.166 352.667c.033.737.283 1.448.719 2.044a3.74 3.74 0 0 0 1.733 1.3 3.73 3.73 0 0 0 2.163.119c.717-.175 1.367-.558 1.866-1.102a3.73 3.73 0 0 0 .938-1.953c.113-.729.008-1.476-.303-2.145a3.73 3.73 0 0 0-1.444-1.615c-.631-.384-1.361-.573-2.098-.542-.99.044-1.922.478-2.592 1.208s-1.023 1.696-.982 2.686zM861.62 333.14a3.73 3.73 0 0 0 .716 2.046c.435.596 1.038 1.05 1.731 1.303a3.74 3.74 0 0 0 2.164.122c.717-.174 1.368-.557 1.867-1.101s.827-1.223.941-1.953a3.73 3.73 0 0 0-1.747-3.762c-.631-.384-1.361-.573-2.099-.542-.988.045-1.918.479-2.587 1.207a3.75 3.75 0 0 0-.986 2.68zm-65.433-14.173c.032.737.283 1.449.719 2.044s1.039 1.048 1.733 1.3a3.73 3.73 0 0 0 4.028-.983c.5-.544.826-1.223.939-1.953a3.73 3.73 0 0 0-.303-2.145 3.74 3.74 0 0 0-1.445-1.615 3.73 3.73 0 0 0-2.097-.541c-.491.02-.972.137-1.418.344s-.845.5-1.177.861a3.72 3.72 0 0 0-.757 1.247 3.74 3.74 0 0 0-.222 1.441z"/></g><path d="M711.46 271.333c.031.738.28 1.45.715 2.046s1.039 1.05 1.732 1.304 1.447.296 2.164.121 1.368-.557 1.867-1.101.827-1.223.941-1.952a3.74 3.74 0 0 0-.303-2.147c-.311-.669-.813-1.232-1.444-1.616s-1.361-.572-2.099-.541c-.988.045-1.918.479-2.587 1.207s-1.024 1.691-.986 2.679z" class="H"/><path d="M672.667 479.333a3.72 3.72 0 0 0 .72 2.038c.436.593 1.038 1.044 1.73 1.295a3.72 3.72 0 0 0 2.158.118 3.73 3.73 0 0 0 1.86-1.1c.498-.543.824-1.22.937-1.948s.008-1.472-.302-2.14-.81-1.229-1.438-1.613a3.73 3.73 0 0 0-2.092-.543 3.74 3.74 0 0 0-1.417.345c-.445.206-.845.499-1.177.861s-.589.785-.757 1.246-.244.951-.222 1.441z" fill="#89898a"/><g class="H"><path d="M790.667 291.68a1.83 1.83 0 0 1-1.821.898c-.358-.047-.695-.2-.966-.438a1.82 1.82 0 0 1-.56-.901c-.094-.349-.081-.718.035-1.06a1.83 1.83 0 0 1 .619-.862c.287-.22.633-.35.993-.373a1.83 1.83 0 0 1 1.879 1.352c.125.467.061.964-.179 1.384zm-73.514 84.087a1.83 1.83 0 0 1-.774.725c-.324.16-.688.22-1.047.173a1.83 1.83 0 0 1-.966-.438 1.82 1.82 0 0 1-.56-.901c-.093-.349-.081-.718.036-1.06s.331-.643.618-.862.633-.35.993-.373a1.83 1.83 0 0 1 1.57.711c.146.191.253.408.315.639a1.82 1.82 0 0 1 .046.712c-.032.237-.11.466-.231.674zm-196.946 15.986a1.83 1.83 0 0 1-.776.723c-.324.159-.688.218-1.046.17a1.83 1.83 0 0 1-.869-3.26 1.82 1.82 0 0 1 .992-.373c.36-.024.719.06 1.032.24a1.82 1.82 0 0 1 .537.471c.146.191.253.409.315.641a1.82 1.82 0 0 1 .046.712c-.032.239-.11.468-.231.676zm18.54-143.553a1.83 1.83 0 0 1-1.821.898 1.82 1.82 0 0 1-1.526-1.339 1.83 1.83 0 0 1 .654-1.922c.287-.22.633-.35.993-.373a1.82 1.82 0 0 1 1.033.243c.208.119.39.278.537.469a1.82 1.82 0 0 1 .315.639 1.83 1.83 0 0 1 .046.711c-.032.237-.111.467-.231.674zm-65.413 10.873c-.182.313-.451.564-.776.723s-.688.218-1.046.17a1.82 1.82 0 0 1-.964-.439 1.83 1.83 0 0 1 .095-2.821 1.83 1.83 0 0 1 .992-.373c.36-.024.719.06 1.032.24.419.244.725.644.85 1.113a1.83 1.83 0 0 1-.183 1.387zm-145.12 109.98a1.83 1.83 0 0 1-.776.723c-.324.159-.688.218-1.046.17a1.82 1.82 0 0 1-.964-.439c-.271-.238-.466-.552-.559-.901a1.83 1.83 0 0 1 .036-1.059 1.82 1.82 0 0 1 .618-.861c.286-.22.632-.349.992-.373s.719.06 1.032.24a1.85 1.85 0 0 1 .537.471c.146.191.253.409.315.641s.078.475.046.713-.111.468-.231.675zm46.519 118.453a1.82 1.82 0 0 1-.774.726c-.324.16-.688.22-1.047.173a1.83 1.83 0 0 1-1.526-1.339c-.093-.35-.081-.719.036-1.061a1.83 1.83 0 0 1 1.612-1.234c.36-.023.72.061 1.032.242a1.83 1.83 0 0 1 .537.469 1.82 1.82 0 0 1 .315.639c.062.232.078.474.046.711a1.82 1.82 0 0 1-.231.674zm-126.82-22.173a1.83 1.83 0 0 1-1.821.898 1.82 1.82 0 0 1-1.526-1.339 1.83 1.83 0 0 1 .035-1.06c.117-.342.332-.642.619-.862s.633-.349.993-.372a1.82 1.82 0 0 1 1.033.242 1.83 1.83 0 0 1 .537.469 1.82 1.82 0 0 1 .315.639c.062.232.077.473.046.711a1.83 1.83 0 0 1-.231.674zm67.78-31.753a1.82 1.82 0 0 1-.772.719 1.83 1.83 0 0 1-1.042.17c-.357-.048-.691-.2-.961-.437a1.82 1.82 0 0 1-.556-.897c-.093-.347-.081-.715.034-1.055a1.82 1.82 0 0 1 1.602-1.231 1.81 1.81 0 0 1 1.028.238 1.83 1.83 0 0 1 .847 1.109c.125.467.06.964-.18 1.384zm-19.819 112.54a1.82 1.82 0 0 1-.773.719c-.323.158-.685.217-1.042.17s-.69-.2-.96-.437a1.82 1.82 0 0 1-.557-.897c-.093-.347-.081-.714.035-1.055a1.82 1.82 0 0 1 2.63-.993 1.83 1.83 0 0 1 .846 1.109c.125.467.061.964-.179 1.384zm35.38 96.547a1.82 1.82 0 0 1-.773.719c-.323.158-.685.217-1.042.17a1.82 1.82 0 0 1-1.517-1.334c-.093-.348-.081-.715.035-1.055s.329-.639.614-.858a1.82 1.82 0 0 1 2.016-.136c.417.244.721.643.846 1.11s.061.964-.179 1.384zm-64.794 49.46c-.182.312-.451.563-.776.722s-.688.218-1.046.171-.693-.201-.964-.44a1.83 1.83 0 0 1-.523-1.96c.116-.341.331-.641.618-.861a1.83 1.83 0 0 1 .992-.373 1.82 1.82 0 0 1 1.569.712c.146.19.253.408.315.64s.078.475.046.713a1.83 1.83 0 0 1-.231.676z"/></g><path d="M661.153 322.153l77.394-10.58" stroke="#fff" stroke-width="1.4" class="G"/></g><defs><clipPath id="A"><path d="M0 0h1000v1000H0z" class="H"/></clipPath><path id="B" d="M434 257.727c.033.737.283 1.448.719 2.044a3.74 3.74 0 0 0 1.733 1.3 3.73 3.73 0 0 0 2.163.119c.717-.175 1.367-.558 1.866-1.102a3.73 3.73 0 0 0 .938-1.953c.113-.729.008-1.476-.303-2.145a3.73 3.73 0 0 0-1.444-1.615c-.631-.384-1.361-.573-2.098-.542-.99.044-1.922.478-2.592 1.208s-1.023 1.696-.982 2.686z"/><path id="C" d="M110.14 828.1c.032.738.282 1.449.719 2.044s1.039 1.048 1.733 1.301a3.74 3.74 0 0 0 2.163.119 3.73 3.73 0 0 0 2.804-3.055c.113-.73.007-1.476-.304-2.146a3.73 3.73 0 0 0-3.542-2.156 3.74 3.74 0 0 0-3.573 3.893z"/></defs></svg>