<svg fill="none" height="1000" viewBox="0 0 1000 1000" width="1000" xmlns="http://www.w3.org/2000/svg"><path clip-rule="evenodd" d="m247.851 964.205c-.613 1.261-2.131 1.784-3.39 1.176-1.259-.614-1.784-2.132-1.171-3.391.609-1.261 2.129-1.786 3.388-1.178 1.261.616 1.784 2.134 1.173 3.393zm28.719-15.491c-.613 1.261-2.131 1.784-3.39 1.176-1.259-.614-1.784-2.132-1.171-3.39.609-1.262 2.129-1.787 3.388-1.178 1.261.615 1.784 2.133 1.173 3.392zm28.872-17.109c-.614 1.261-2.131 1.784-3.39 1.175-1.259-.613-1.784-2.131-1.171-3.39.609-1.261 2.129-1.786 3.388-1.178 1.261.616 1.784 2.134 1.173 3.393zm29.789-16.804c-.613 1.261-2.131 1.784-3.39 1.176-1.258-.614-1.784-2.132-1.17-3.39.608-1.261 2.128-1.787 3.387-1.178 1.261.616 1.784 2.133 1.173 3.392zm28.414-18.637c-.614 1.262-2.131 1.785-3.39 1.176-1.259-.613-1.784-2.131-1.171-3.39.609-1.261 2.129-1.787 3.388-1.178 1.261.616 1.784 2.134 1.173 3.392zm-303.2145-15.714c-.6135 1.261-2.1313 1.784-3.3901 1.176-1.2587-.614-1.7842-2.131-1.1707-3.39.6086-1.261 2.1288-1.787 3.3876-1.178 1.2612.616 1.7842 2.134 1.1732 3.392zm331.6275-3.992c-.613 1.261-2.131 1.784-3.39 1.176-1.258-.614-1.784-2.131-1.17-3.39.608-1.261 2.128-1.787 3.387-1.178 1.261.616 1.784 2.133 1.173 3.392zm-318.7682-18.533c-.6135 1.261-2.1313 1.784-3.3901 1.176-1.2587-.614-1.7842-2.131-1.1708-3.39.6086-1.261 2.1289-1.787 3.3877-1.178 1.2612.616 1.7842 2.134 1.1732 3.392zm348.2722-1.027c-.719 1.478-2.498 2.092-3.979 1.378-1.476-.719-2.092-2.498-1.374-3.977.716-1.481 2.501-2.097 3.974-1.381 1.482.721 2.095 2.503 1.379 3.98zm27.7-20.776c-.719 1.479-2.498 2.092-3.979 1.379-1.477-.719-2.093-2.498-1.374-3.977.716-1.481 2.5-2.097 3.974-1.381 1.481.721 2.095 2.503 1.379 3.979zm-361.7547-2.35c-.7186 1.479-2.498 2.092-3.9791 1.379-1.4763-.719-2.0923-2.498-1.3737-3.977.7162-1.481 2.5004-2.097 3.9743-1.381 1.4811.721 2.0946 2.503 1.3785 3.979zm388.2327-18.222c-.719 1.478-2.498 2.092-3.98 1.378-1.476-.718-2.092-2.498-1.373-3.976.716-1.482 2.5-2.098 3.974-1.381 1.481.721 2.095 2.502 1.379 3.979zm211.987-779.9671.086-1.2172c33.788 2.3538 67.576 4.7075 101.367 7.0612l-.085 1.2197v-.0025l.635-1.0412c30.208 18.3557 60.415 36.7115 90.625 55.0672l-.635 1.0412 1.004-.6917 55.737 80.7704c1.464-.641 3.19-.66 4.737.09 2.811 1.371 3.984 4.761 2.62 7.567-.917 1.887-2.74 3.034-4.69 3.173l-5.524 82.664c.33.091.657.213.975.367 2.811 1.371 3.984 4.761 2.62 7.567-1.369 2.816-4.754 3.982-7.567 2.62-.086-.041-.171-.085-.254-.132l-32.319 48.874c1.681 1.662 2.207 4.27 1.119 6.506-1.369 2.816-4.754 3.982-7.567 2.62-.726-.352-1.345-.84-1.836-1.417l-24.527 5.45c.149 1.073-.007 2.198-.516 3.241-1.368 2.816-4.754 3.982-7.567 2.62-2.029-.985-3.204-3.023-3.182-5.14l-37.636-3.336c-.029.066-.058.13-.09.193-1.369 2.816-4.754 3.982-7.567 2.62-2.21-1.073-3.405-3.395-3.151-5.707l-8.892-5.013-.019.042c-1.142 2.348-3.969 3.321-6.316 2.187-2.183-1.058-3.177-3.578-2.388-5.815l-9.469-2.732c-1.236 2.109-3.905 2.938-6.139 1.857-2.347-1.139-3.322-3.964-2.183-6.31.024-.052.051-.106.078-.154l-1.684-1.545c-1.334.826-3.05.973-4.565.242-.871-.425-1.553-1.08-2.01-1.858-.618.66-1.41 1.117-2.265 1.337l-8.951 21.871c1.687 1.349 2.28 3.732 1.3 5.753-.97 1.997-3.158 2.999-5.233 2.559l-39.177 71.382c1.439 1.384 1.896 3.588.982 5.478-1.048 2.156-3.519 3.153-5.734 2.422l-35.294 53.76c1.748 1.339 2.374 3.764 1.379 5.817-1.141 2.348-3.969 3.321-6.316 2.187-.423-.205-.801-.464-1.129-.767l-39.747 34.604c.956 1.362 1.161 3.185.386 4.781-1.141 2.349-3.969 3.322-6.316 2.188-.112-.054-.222-.113-.33-.176l-29.42 37.606c1.083 1.378 1.351 3.304.538 4.983-.946 1.948-3.051 2.948-5.079 2.589l-26.102 59.54c.878 1.344 1.046 3.101.298 4.646-.696 1.432-2.016 2.351-3.473 2.596l-2.055 4.693c.66-.174 1.383-.123 2.046.2 1.481.721 2.094 2.503 1.378 3.979-.719 1.479-2.498 2.092-3.979 1.379-.587-.286-1.039-.741-1.322-1.276l-30.296 69.101c2.024 1.267 2.806 3.879 1.745 6.069-.936 1.922-2.999 2.923-5.005 2.601l-11.297 33.117c2.309 1.159 3.267 3.964 2.138 6.291-.557 1.147-1.518 1.966-2.627 2.372l2.288 34c.168.059.334.129.498.208 2.347 1.144 3.324 3.972 2.188 6.316-1.142 2.349-3.97 3.322-6.316 2.188-2.273-1.104-3.258-3.789-2.283-6.089l-12.758-12.93c-1.308.741-2.946.847-4.398.144-2.346-1.139-3.321-3.964-2.182-6.311.608-1.261 1.706-2.126 2.952-2.483l-.498-31.881c-.56-.047-1.122-.196-1.66-.456-2.346-1.139-3.321-3.964-2.182-6.311.943-1.948 3.047-2.953 5.074-2.594l9.456-26.717c-1.611-1.361-2.161-3.688-1.197-5.67.378-.782.943-1.413 1.615-1.863l-2.505-4.084c-1.274.64-2.821.704-4.199.037-2.347-1.139-3.322-3.965-2.183-6.311 1.063-2.197 3.603-3.195 5.842-2.39l2.61-5.519c-1.124-1.381-1.413-3.342-.587-5.048.69-1.42 1.992-2.339 3.434-2.593l10.55-40.563c-1.985-1.274-2.745-3.857-1.689-6.033 1.024-2.114 3.409-3.116 5.585-2.473l17.964-21.988c-1.105-1.378-1.386-3.326-.562-5.023.836-1.725 2.584-2.71 4.38-2.664l1.655-14.589c-1.699-1.344-2.298-3.735-1.31-5.766.953-1.967 3.091-2.974 5.137-2.581l24.09-29.851c-1.188-1.383-1.513-3.397-.665-5.145.465-.955 1.208-1.686 2.085-2.138l-.816-4.251c-.599-.036-1.198-.188-1.772-.464-2.347-1.139-3.322-3.964-2.183-6.311 1.139-2.351 3.967-3.329 6.311-2.192.301.146.579.32.833.518l8.428-5.881c.068-.227.156-.45.264-.67.254-.525.594-.982.995-1.363l-.846-2.862c-.736.022-1.484-.13-2.19-.47-.665-.322-1.22-.782-1.647-1.327l-42.282 43.23c.545 1.229.567 2.681-.066 3.984-.35.721-.858 1.31-1.464 1.753l.44.911c.425.074.848.206 1.256.404 2.346 1.143 3.324 3.971 2.188 6.315-1.142 2.349-3.97 3.322-6.316 2.188-.721-.35-1.313-.858-1.753-1.462l-12.675 7.831c.107.565.115 1.151.012 1.728 1.01-.52 2.244-.574 3.344-.041 1.857.904 2.63 3.141 1.73 4.996-.904 1.857-3.138 2.627-4.996 1.73-.044-.019-.085-.041-.127-.066l-17.527 12.25c.267.734.352 1.533.232 2.322l2.466 1.081c1.022-.545 2.281-.611 3.398-.069 1.857.905 2.63 3.141 1.73 4.996-.904 1.858-3.138 2.628-4.996 1.731-.249-.123-.479-.267-.686-.431l-17.779 11.84c.105.496.134 1.009.076 1.525l2.268 1.142c1.095-1.093 2.803-1.43 4.267-.717 1.858.905 2.63 3.141 1.731 4.996-.905 1.858-3.139 2.628-4.996 1.731-.325-.159-.619-.359-.873-.592l-22.176 11.852c.025.157.042.313.052.472l2.942.728c.939-1.765 3.114-2.478 4.923-1.601 1.858.905 2.63 3.141 1.73 4.996-.862 1.772-2.933 2.554-4.731 1.846l-17.061 15.943c.685 1.29.768 2.877.083 4.287-1.009 2.075-3.331 3.075-5.477 2.498l-12.751 22.032c1.381 1.388 1.806 3.546.904 5.401-1.141 2.349-3.969 3.322-6.316 2.188-.794-.386-1.43-.966-1.882-1.655l-14.484 4.805c.482 1.195.474 2.579-.129 3.828-1.142 2.349-3.97 3.321-6.316 2.187-2.347-1.139-3.322-3.964-2.183-6.31 1.112-2.298 3.838-3.285 6.15-2.269l16.728-23.227c-.673-1.283-.746-2.857-.066-4.26.816-1.681 2.495-2.659 4.243-2.664l26.135-50.115c-1.391-1.384-1.818-3.547-.914-5.412 1.107-2.285 3.811-3.272 6.115-2.28l28.145-31.718c-.499-1.205-.501-2.61.115-3.879.895-1.848 2.835-2.847 4.764-2.637l4.565-6.939c-.313-.267-.584-.572-.811-.902l-33.952 8.369c-.061.511-.205 1.019-.443 1.508-1.141 2.349-3.969 3.321-6.315 2.187-1.371-.664-2.276-1.906-2.559-3.292l-41.825-4.61c-.056.188-.13.374-.217.558-.905 1.857-3.139 2.627-4.996 1.73-1.856-.902-2.628-3.136-1.726-4.993.11-.228.24-.438.386-.631l-11.79-14.462c-.844.23-1.77.169-2.618-.242-1.855-.902-2.628-3.136-1.726-4.994.9-1.86 3.139-2.632 4.991-1.732 1.44.701 2.227 2.202 2.09 3.705l12.512 5.062c.171-.149.352-.281.545-.396-.027-.012-.052-.025-.076-.037-1.449-.706-2.053-2.449-1.347-3.898.702-1.452 2.449-2.056 3.894-1.354 1.452.706 2.055 2.454 1.351 3.9-.198.409-.479.751-.813 1.015.183.056.366.127.545.212.799.389 1.395 1.025 1.747 1.77l40.527 1.41c.024-.488.147-.98.372-1.447.899-1.86 3.138-2.632 4.99-1.733.23.113.44.242.636.392l4.456-6.891c-1.105-1.092-1.447-2.81-.729-4.287.9-1.86 3.139-2.632 4.991-1.733 1.22.592 1.97 1.76 2.09 3.017l6.959 2.028c.928-1.393 2.512-2.16 4.125-2.092l.206-1.344c-1.78-.934-2.506-3.119-1.621-4.942.9-1.86 3.139-2.633 4.991-1.733.758.371 1.337.963 1.694 1.662l3.569-.504c.078-.337.195-.667.352-.992.95-1.965 3.084-2.97 5.127-2.584l5.302-7.159c-.472-.989-.506-2.18.012-3.245.899-1.86 3.138-2.633 4.991-1.733 1.217.594 1.968 1.757 2.087 3.011l2.814 1.364c1.376-1.081 3.302-1.349 4.978-.538l.064.034 10.771-7.017c-.42-1.159-.391-2.481.191-3.679.934-1.928 3.006-2.932 5.013-2.605l20.343-47.874c-.122-.046-.245-.1-.364-.156-2.347-1.139-3.322-3.965-2.183-6.311.711-1.469 2.08-2.4 3.578-2.618l-1.239-12.619c-.051-.022-.103-.047-.156-.071-2.347-1.139-3.322-3.965-2.183-6.311.856-1.765 2.659-2.755 4.497-2.659l9.679-16.481c-.872-1.342-1.041-3.097-.291-4.642.291-.596.687-1.105 1.159-1.513l-1.401-2.708c-.77.039-1.559-.107-2.3-.467-2.346-1.139-3.321-3.964-2.182-6.311 1.021-2.109 3.402-3.113 5.572-2.475l7.89-15.457c-1.54-1.369-2.048-3.645-1.104-5.59.615-1.271 1.725-2.141 2.986-2.493l-.041-4.551c-.316-.079-.628-.191-.931-.338-2.347-1.139-3.322-3.964-2.183-6.311.623-1.285 1.75-2.16 3.028-2.502l-.058-6.47c-.208-.066-.416-.147-.619-.247-2.346-1.139-3.321-3.964-2.182-6.311 1.107-2.283 3.805-3.27 6.108-2.285l3.996-6.951c-2-1.271-2.767-3.867-1.709-6.047.228-.469.521-.883.865-1.237-.163-.051-.327-.117-.486-.195-1.855-.902-2.627-3.136-1.725-4.994.899-1.86 3.138-2.632 4.991-1.733.122.061.241.127.354.201l9.691-11.515c-.061-.081-.122-.164-.178-.249l-3.058 1.398c.071.67-.039 1.366-.354 2.016-.905 1.858-3.139 2.628-4.996 1.731-1.855-.902-2.628-3.136-1.726-4.994.606-1.253 1.823-2.014 3.121-2.099l.137-3.009c-.486-.064-.973-.208-1.442-.433-2.346-1.139-3.322-3.964-2.183-6.31 1.139-2.352 3.967-3.329 6.311-2.193.482.235.902.538 1.261.895l15.479-11.527c-.021-.115-.041-.232-.056-.347l-5.404.406c-1 1.598-3.065 2.217-4.8 1.378-1.855-.902-2.628-3.136-1.726-4.993.9-1.86 3.139-2.633 4.991-1.733.215.102.413.225.597.362l14.596-14.805c-.843-1.337-.995-3.065-.254-4.59 1.139-2.351 3.967-3.329 6.311-2.192.489.237.919.55 1.283.916l34.101-21.521-6.704.883c-.042.11-.091.217-.142.325-1.141 2.349-3.969 3.321-6.316 2.187-2.329-1.129-3.307-3.92-2.209-6.254l-2.422-2.814c-1.113.352-2.354.294-3.486-.251-2.346-1.139-3.321-3.965-2.182-6.311l.002-.008-3.41-3.959c-1.207.503-2.617.506-3.886-.108-.44-.212-.831-.486-1.171-.804-1.495.709-3.289.755-4.898-.022-2.811-1.364-3.981-4.749-2.613-7.56.624-1.285 1.665-2.226 2.882-2.742l-37.332-43.318c-1.645 1.833-4.361 2.434-6.687 1.31-2.811-1.364-3.982-4.749-2.613-7.56.809-1.672 2.327-2.762 4.016-3.089l-4.207-24.337c-.953.066-1.936-.11-2.857-.555-2.811-1.364-3.982-4.749-2.613-7.56 1.364-2.818 4.752-3.986 7.56-2.627.061.029.122.061.181.093l33.487-53.5935 1.037.6477-.599-1.0656 83.784-47.1579zm-584.944 771.9141c-.718 1.479-2.498 2.093-3.9788 1.379-1.4762-.719-2.0922-2.498-1.3736-3.977.7162-1.481 2.5004-2.097 3.9744-1.381 1.481.721 2.094 2.503 1.378 3.979zm394.671-35.401-11.08 16.733c1.577 1.369 2.107 3.671 1.156 5.634-.056.112-.115.222-.176.328l12.531 12.702c.575-.429 1.237-.722 1.936-.858l-.772-11.472c-.75.298-1.618.292-2.403-.086-1.476-.718-2.092-2.498-1.373-3.976.625-1.292 2.06-1.925 3.395-1.592l-1.108-16.477c-.425-.073-.848-.207-1.253-.403-.308-.15-.594-.329-.853-.533zm-154.809 32.27c-.509 1.046-1.768 1.479-2.811.973-1.044-.509-1.479-1.765-.971-2.809.506-1.046 1.768-1.481 2.809-.975 1.043.508 1.481 1.767.973 2.811zm30.268-14.269c-.613 1.261-2.131 1.784-3.39 1.176-1.259-.614-1.784-2.132-1.171-3.39.609-1.262 2.129-1.787 3.388-1.178 1.261.615 1.784 2.133 1.173 3.392zm113.07-36.465c-.494.854-1.22 1.502-2.06 1.9l.506 32.282c.308.078.615.188.914.333l.012.007 11.226-16.953c-1.017-1.369-1.254-3.243-.457-4.883.398-.824 1.004-1.479 1.723-1.933zm-367.924 25.349c-.718 1.479-2.498 2.092-3.979 1.379-1.476-.719-2.092-2.498-1.373-3.977.716-1.481 2.5-2.097 3.974-1.381 1.481.721 2.095 2.503 1.378 3.979zm431.949 1.011c-.269.552-.934.782-1.488.513-.553-.266-.783-.933-.514-1.486.269-.555.934-.784 1.489-.515.55.268.782.933.513 1.488zm-274.272-4.783c-.508 1.046-1.767 1.479-2.811.973-1.043-.509-1.478-1.765-.97-2.809.506-1.046 1.767-1.481 2.808-.975 1.044.508 1.482 1.767.973 2.811zm127.118-1.916c-.613 1.262-2.131 1.785-3.39 1.176-1.258-.613-1.784-2.131-1.171-3.39.609-1.261 2.129-1.787 3.388-1.178 1.261.616 1.784 2.134 1.173 3.392zm126.2-1.867c-.718 1.478-2.498 2.092-3.979 1.378-1.476-.719-2.092-2.498-1.373-3.977.716-1.481 2.5-2.097 3.974-1.381 1.481.721 2.094 2.503 1.378 3.98zm47.278-5.914c-.269.552-.934.782-1.489.513-.552-.266-.782-.933-.513-1.486.269-.555.934-.784 1.489-.515.55.268.782.933.513 1.488zm-66.034-37.054-24.77 19.796c.949 1.146 1.318 2.698.944 4.173l12.592 11.411c.328-.094.663-.153 1.005-.176l11.473-33.635c-.531-.434-.951-.972-1.244-1.569zm-79.964 27.292c-.613 1.261-2.131 1.784-3.39 1.175-1.259-.613-1.784-2.131-1.171-3.39.609-1.261 2.129-1.787 3.388-1.178 1.261.616 1.784 2.134 1.173 3.393zm-137.336-2.726c-.508 1.046-1.767 1.479-2.811.973-1.043-.509-1.478-1.765-.97-2.809.506-1.046 1.767-1.481 2.808-.975 1.044.508 1.481 1.767.973 2.811zm-159.968-2.151c-.719 1.479-2.498 2.092-3.979 1.379-1.476-.719-2.092-2.498-1.374-3.977.716-1.481 2.501-2.097 3.974-1.381 1.482.721 2.095 2.503 1.379 3.979zm467.208-1.706c-.269.552-.933.782-1.488.513-.553-.266-.782-.934-.513-1.486.268-.555.933-.785 1.488-.516.55.269.782.934.513 1.489zm-46.261-1.324c-.718 1.479-2.497 2.092-3.979 1.379-1.476-.719-2.092-2.498-1.373-3.977.716-1.481 2.5-2.097 3.974-1.381 1.481.721 2.095 2.503 1.378 3.979zm-54.6-29.3c-.99 1.819-3.018 2.742-4.979 2.395l-9.212 26.025 24.703-19.743c-.175-.955-.058-1.972.399-2.912.161-.336.359-.645.586-.923zm-42.463 18.264c-.613 1.261-2.131 1.784-3.39 1.176-1.258-.614-1.784-2.131-1.17-3.39.608-1.261 2.129-1.787 3.387-1.178 1.262.616 1.785 2.134 1.173 3.392zm165.016-3.298c-.269.552-.933.782-1.488.513-.553-.267-.782-.934-.513-1.486.268-.555.933-.785 1.488-.516.55.269.782.934.513 1.489zm-313.35-2.33c-.508 1.046-1.767 1.479-2.811.973-1.043-.509-1.478-1.765-.97-2.809.506-1.046 1.767-1.481 2.808-.975 1.044.509 1.482 1.767.973 2.811zm269.426-5.605c-.718 1.478-2.498 2.092-3.979 1.378-1.476-.718-2.092-2.498-1.374-3.977.717-1.481 2.501-2.098 3.975-1.381 1.481.721 2.094 2.503 1.378 3.98zm-428.682-3.725c-.719 1.478-2.498 2.092-3.979 1.378-1.476-.718-2.092-2.499-1.374-3.977.716-1.482 2.501-2.098 3.975-1.381 1.481.721 2.094 2.502 1.378 3.98zm365.363-.204 33.877-77.273-19.652 26.622c.174.047.343.113.511.193 1.481.721 2.095 2.503 1.379 3.98-.719 1.478-2.498 2.092-3.979 1.378-.516-.252-.924-.631-1.21-1.08l-27.419 37.144c1.418 1.146 2.053 3.021 1.623 4.793l12.045 5.073c.826-.568 1.818-.861 2.825-.83zm-31.3-4.06c-.718 1.479-2.498 2.092-3.979 1.379-1.476-.719-2.092-2.498-1.373-3.977.716-1.481 2.5-2.097 3.974-1.381 1.481.721 2.094 2.503 1.378 3.979zm158.95.878c-.269.552-.934.782-1.489.513-.552-.267-.782-.934-.513-1.486.269-.555.934-.785 1.488-.516.55.269.783.934.514 1.489zm-114.933-47.486 19.412-26.294-46.916 44.046c.765 1.315.883 2.975.169 4.444-1.073 2.209-3.64 3.202-5.893 2.368l-2.596 5.497c1.151 1.383 1.457 3.368.623 5.091-.083.169-.173.33-.271.484l3.041 4.955c.723-.042 1.469.085 2.175.4l28.005-37.938c-.027-.489.066-.99.296-1.462.398-.826 1.132-1.383 1.955-1.591zm-203.621 39.547c-.614 1.261-2.131 1.784-3.39 1.176-1.259-.614-1.784-2.132-1.171-3.391.609-1.261 2.129-1.786 3.388-1.178 1.261.616 1.784 2.134 1.173 3.393zm96.124-23.024-15.237 21.156 13.006-4.313c-.047-.78.102-1.584.467-2.337.682-1.405 1.967-2.322 3.392-2.586l-.608-11.451c-.203-.066-.404-.147-.602-.242-.144-.068-.283-.147-.418-.227zm-237.391 19.008c-.508 1.046-1.767 1.479-2.811.973-1.043-.509-1.478-1.765-.97-2.809.506-1.046 1.767-1.481 2.808-.975 1.044.509 1.482 1.767.973 2.811zm419.925-2.415c-.905 1.858-3.139 2.628-4.996 1.731-1.856-.902-2.628-3.136-1.726-4.994.899-1.86 3.138-2.632 4.991-1.733 1.858.905 2.63 3.141 1.731 4.996zm57.464-1.442c-.268.553-.933.782-1.488.513-.552-.266-.782-.933-.513-1.486.268-.554.933-.784 1.488-.515.55.269.782.933.513 1.488zm-204.327-50.259c-1.161 2.3-3.958 3.243-6.282 2.119-.076-.037-.151-.078-.227-.118l-23.609 25.491c1.597 1.364 2.139 3.683 1.181 5.656-.853 1.757-2.647 2.744-4.48 2.656l.594 11.156c.291.024.579.073.867.151l12.749-22.029c-1.383-1.384-1.806-3.542-.904-5.399 1.139-2.352 3.967-3.329 6.311-2.193.151.073.298.154.437.242l16.863-15.76c-.215-.376-.367-.787-.443-1.212zm51.735 44.743c-.718 1.478-2.498 2.092-3.979 1.378-1.476-.718-2.092-2.498-1.373-3.977.716-1.481 2.5-2.097 3.974-1.38 1.481.721 2.094 2.502 1.378 3.979zm-339.202-5.008c-.904 1.857-3.138 2.627-4.996 1.73-1.855-.902-2.627-3.136-1.725-4.993.899-1.86 3.138-2.633 4.991-1.733 1.857.904 2.63 3.14 1.73 4.996zm168.809-1.919c-.613 1.261-2.131 1.784-3.39 1.176-1.258-.614-1.784-2.132-1.171-3.39.609-1.262 2.129-1.787 3.388-1.179 1.261.616 1.784 2.134 1.173 3.393zm-144.031-2.855c-.613 1.261-2.131 1.784-3.39 1.176-1.258-.614-1.784-2.132-1.17-3.39.608-1.261 2.129-1.787 3.387-1.178 1.261.615 1.784 2.133 1.173 3.392zm483.072-.169c-.415.858-1.449 1.213-2.307.8-.858-.418-1.215-1.45-.797-2.308.413-.86 1.45-1.217 2.305-.801.855.418 1.215 1.452.799 2.309zm-130.145-46.879-33.125.46c.263 1.041.175 2.178-.328 3.219-.853 1.755-2.647 2.742-4.478 2.654l-10.414 40.043c.139.051.276.11.41.176.484.235.909.543 1.269.899l47.859-44.931c-.645-.704-1.058-1.586-1.193-2.52zm78.449 38.931c-.905 1.858-3.139 2.628-4.996 1.731-1.855-.902-2.628-3.136-1.726-4.994.899-1.86 3.138-2.632 4.991-1.733 1.858.904 2.63 3.141 1.731 4.996zm-173.622-49.382-25.112 48.155 22.548-24.346c-1.43-1.381-1.88-3.576-.966-5.463.721-1.486 2.117-2.425 3.64-2.625v-15.694l-.064-.017zm-101.348 40.131c-.613 1.261-2.131 1.784-3.39 1.175-1.259-.613-1.784-2.131-1.171-3.39.609-1.261 2.129-1.786 3.388-1.178 1.261.616 1.784 2.134 1.173 3.393zm340.95.396c-.416.858-1.449 1.212-2.307.799-.858-.418-1.215-1.449-.797-2.307.413-.861 1.449-1.218 2.305-.802.855.418 1.214 1.452.799 2.31zm-484.829-2.581c-.614 1.261-2.131 1.784-3.39 1.175-1.259-.613-1.784-2.131-1.171-3.39.609-1.261 2.129-1.786 3.388-1.178 1.261.616 1.784 2.134 1.173 3.393zm-18.769-7.042c-.905 1.858-3.139 2.628-4.996 1.731-1.855-.902-2.628-3.136-1.726-4.994.9-1.86 3.138-2.632 4.991-1.733 1.858.905 2.63 3.141 1.731 4.996zm458.476-4.407c-.904 1.858-3.138 2.628-4.996 1.731-1.855-.902-2.627-3.136-1.725-4.994.899-1.86 3.138-2.632 4.991-1.733 1.857.905 2.629 3.141 1.73 4.996zm57.343-2.009c-.416.858-1.45 1.212-2.308.799-.857-.418-1.214-1.449-.796-2.307.413-.86 1.449-1.217 2.305-.802.855.418 1.214 1.452.799 2.31zm-342.072-3.81c-.613 1.261-2.131 1.784-3.39 1.175-1.259-.613-1.784-2.131-1.171-3.39.609-1.261 2.129-1.786 3.388-1.178 1.261.616 1.784 2.134 1.173 3.393zm-143.237-4.219c-.613 1.261-2.131 1.784-3.39 1.176-1.259-.614-1.784-2.132-1.171-3.39.609-1.262 2.129-1.787 3.388-1.178 1.261.615 1.784 2.133 1.173 3.392zm265.68-34.211-26.714 11.162c.591 1.252.633 2.748-.018 4.085-.799 1.645-2.424 2.615-4.13 2.659v15.564c.491.064.98.208 1.449.436.645.315 1.188.755 1.609 1.28l21.995-11.756c-.062-.352-.071-.716-.025-1.081l-2.097-1.053c-1.325 1.794-3.781 2.442-5.859 1.437-2.346-1.139-3.321-3.964-2.182-6.311 1.139-2.351 3.967-3.329 6.311-2.192.554.271 1.036.638 1.427 1.07l17.593-11.714c-.173-.726-.132-1.506.161-2.244l-1.74-.763c-1.349 1.692-3.732 2.281-5.756 1.303-.882-.428-1.569-1.095-2.024-1.882zm51.587 3.693c-1.298 1.283-3.268 1.731-5.032 1.049l-17.843 21.836c.252.266.467.557.648.868l33.602-.465c.061-.513.206-1.024.445-1.515.296-.614.709-1.134 1.198-1.547zm177.743 21.819c-.416.858-1.45 1.213-2.308.799-.857-.418-1.214-1.449-.796-2.307.413-.86 1.449-1.217 2.304-.802.856.418 1.215 1.452.8 2.31zm-134.476-61.798-42.871 33.71c1.075 1.378 1.342 3.299.53 4.974-.044.09-.09.178-.136.264l13.257 20.597c1.236-.587 2.715-.633 4.045-.003l25.815-58.887c-.237-.201-.45-.418-.64-.655zm88.325 56.399c-.904 1.858-3.138 2.628-4.996 1.731-1.855-.902-2.627-3.136-1.726-4.994.9-1.86 3.139-2.632 4.991-1.733 1.858.904 2.63 3.141 1.731 4.996zm-295.64-.523c-.613 1.261-2.131 1.784-3.39 1.176-1.259-.614-1.784-2.132-1.171-3.39.609-1.262 2.129-1.787 3.388-1.179 1.261.616 1.784 2.134 1.173 3.393zm202.544-1.014c-.719 1.478-2.498 2.092-3.979 1.378-1.477-.718-2.093-2.498-1.374-3.976.716-1.482 2.5-2.098 3.974-1.381 1.481.721 2.095 2.502 1.379 3.979zm-368.96-.878c-.905 1.858-3.138 2.628-4.996 1.731-1.855-.902-2.628-3.136-1.726-4.994.9-1.86 3.139-2.632 4.991-1.733 1.858.905 2.63 3.141 1.731 4.996zm26.946-4.262c-.614 1.261-2.132 1.784-3.39 1.175-1.259-.613-1.785-2.131-1.171-3.39.608-1.261 2.129-1.787 3.387-1.178 1.262.616 1.785 2.134 1.174 3.393zm252.489-34.348-27.299 30.762 26.272-10.979c-.288-1.064-.21-2.232.311-3.3.659-1.364 1.889-2.266 3.26-2.561l-1.068-13.177c-.24-.073-.477-.164-.706-.276-.277-.135-.536-.291-.77-.469zm238.052 29.088c-.476.985-1.662 1.393-2.649.916-.985-.479-1.396-1.664-.914-2.647.476-.987 1.664-1.398 2.647-.921.982.479 1.395 1.667.916 2.652zm-340.998-7.103c-.707 1.449-2.449 2.051-3.899 1.352-1.449-.707-2.053-2.449-1.347-3.899.702-1.452 2.449-2.055 3.894-1.354 1.452.706 2.056 2.454 1.352 3.901zm212.748-3.83c-.905 1.858-3.139 2.627-4.996 1.73-1.855-.901-2.628-3.135-1.726-4.993.9-1.86 3.139-2.632 4.991-1.733 1.858.904 2.63 3.141 1.731 4.996zm92.184 0c-.904 1.858-3.138 2.627-4.996 1.73-1.855-.901-2.627-3.135-1.725-4.993.899-1.86 3.138-2.632 4.991-1.733 1.857.904 2.629 3.141 1.73 4.996zm-108.48-34.976-36.828 12.988c.608 1.259.657 2.772.002 4.123-.909 1.873-2.887 2.87-4.839 2.626l-1.626 14.327c.115.071.225.149.33.228l43.113-33.899c-.056-.129-.108-.261-.152-.393zm-57.531-3.825-28.892 14.804c.608 1.259.657 2.772.002 4.123-.836 1.721-2.576 2.704-4.367 2.66l1.043 12.88c.619.03 1.242.181 1.833.47.36.173.685.388.978.635l17.256-12.059c-.232-.538-.337-1.127-.298-1.719-1.352.905-3.134 1.086-4.7.328-2.347-1.139-3.322-3.965-2.183-6.311 1.139-2.351 3.967-3.329 6.311-2.192.591.288 1.097.684 1.503 1.151l12.864-7.949c-.081-.838.058-1.708.454-2.522.531-1.095 1.43-1.894 2.476-2.317l-.149-.311c-.85.091-1.738-.046-2.564-.444-.623-.303-1.149-.726-1.567-1.227zm210.478 34.304c-.477.985-1.662 1.393-2.65.916-.985-.479-1.395-1.664-.914-2.647.477-.987 1.665-1.398 2.647-.921.983.479 1.396 1.667.917 2.652zm-484.058-2.628c-.706 1.45-2.449 2.051-3.898 1.352-1.45-.707-2.053-2.449-1.347-3.899.701-1.452 2.449-2.055 3.894-1.354 1.451.707 2.055 2.454 1.351 3.901zm-22.685-3.38c-.904 1.857-3.138 2.627-4.996 1.73-1.855-.902-2.627-3.136-1.725-4.993.899-1.86 3.138-2.632 4.991-1.733 1.857.904 2.629 3.141 1.73 4.996zm166.917-3.552c-.706 1.45-2.449 2.051-3.898 1.352-1.449-.706-2.053-2.449-1.347-3.898.702-1.452 2.449-2.056 3.894-1.354 1.452.706 2.055 2.453 1.351 3.9zm347.515-6.733c-.476.985-1.662 1.393-2.649.916-.985-.479-1.396-1.664-.914-2.647.476-.987 1.664-1.398 2.647-.921.982.479 1.395 1.667.916 2.652zm-35.543-2.229c-.904 1.857-3.138 2.627-4.996 1.73-1.855-.902-2.627-3.136-1.725-4.993.899-1.86 3.138-2.633 4.991-1.733 1.857.904 2.629 3.141 1.73 4.996zm-87.953 0c-.905 1.857-3.139 2.627-4.996 1.73-1.855-.902-2.628-3.136-1.726-4.993.9-1.86 3.138-2.633 4.991-1.733 1.858.904 2.63 3.141 1.731 4.996zm-47.393-30.337c-1.141.62-2.525.765-3.815.315l-23.873 29.582c.15.132.289.271.418.42l37.284-13.15c-.052-.789.095-1.6.464-2.363.269-.552.631-1.029 1.056-1.42zm-41.707-25.909-26.595 39.528c.87 1.341 1.036 3.094.288 4.634-.946 1.953-3.058 2.952-5.091 2.586l-4.478 6.802c.274.205.521.437.738.691l28.915-14.816c-.575-1.239-.606-2.72.036-4.045.846-1.743 2.616-2.73 4.432-2.664l1.84-32.691zm-264.028 51.015c-.706 1.45-2.449 2.051-3.898 1.352-1.449-.707-2.053-2.449-1.347-3.899.702-1.452 2.449-2.055 3.894-1.354 1.452.707 2.055 2.454 1.351 3.901zm188.547-12.966-.45-.017-40.798 8.769 39.16 4.317c.066-.193.145-.386.235-.575.838-1.728 2.588-2.713 4.387-2.664l.247-8.386c-.494-.024-.987-.144-1.459-.371-.535-.259-.98-.631-1.322-1.073zm30.52-7.448c-1.361 1.611-3.691 2.159-5.675 1.201-.069-.035-.14-.071-.205-.108l-17.486 18.93 33.062-8.149c-.066-.811.078-1.65.46-2.437.171-.347.376-.664.611-.95zm-15.071-5.333c-.777 1.203-2.163 1.836-3.544 1.687l-5.269 8.149c.134.75.041 1.549-.318 2.287-.479.988-1.337 1.667-2.31 1.953l-.256 8.731c.237.073.474.164.706.276.726.354 1.322.87 1.762 1.484l17.425-18.867c-1.012-.968-1.54-2.344-1.447-3.732zm-67.046 22.831c-.706 1.45-2.449 2.051-3.898 1.352-1.449-.706-2.053-2.449-1.347-3.899.702-1.451 2.449-2.055 3.894-1.354 1.452.707 2.055 2.454 1.351 3.901zm10.554-11.48c-.063.262-.154.521-.276.772-.726 1.491-2.307 2.281-3.862 2.073l-1.315 4.854c.166.051.333.117.494.196.77.376 1.354.98 1.709 1.691l38.84-8.347zm-7.315-1.52-11.444-4.63 11.241 13.788c.276-.071.562-.11.848-.117l1.362-5.035c-1.516-.758-2.296-2.41-2.007-4.006zm342.086 6.367c-.476.985-1.662 1.393-2.649.916-.985-.479-1.396-1.664-.914-2.647.476-.987 1.664-1.398 2.647-.921.982.479 1.395 1.667.916 2.652zm-501.344-4.075c-.905 1.858-3.139 2.628-4.996 1.731-1.855-.902-2.628-3.136-1.726-4.994.9-1.86 3.138-2.632 4.991-1.733 1.858.905 2.63 3.141 1.731 4.996zm342.788-52.747-6.724 3.629c.245 1.024.149 2.136-.344 3.156-.411.843-1.039 1.508-1.785 1.965l.704 2.373c1.012-.232 2.11-.134 3.117.352 2.346 1.144 3.324 3.972 2.187 6.316-1.141 2.349-3.969 3.321-6.316 2.187-1.173-.567-2.001-1.557-2.397-2.696l-7 4.886c.488 1.2.486 2.594-.123 3.847-.474.981-1.244 1.721-2.148 2.168l.812 4.214c.618.03 1.241.181 1.835.467 2.346 1.144 3.324 3.972 2.188 6.316-.255.528-.597.985-.998 1.364l11.549 13.399c.616-.323 1.303-.506 2.002-.536l5.612-52.244c-.335-.078-.668-.193-.99-.349-.443-.215-.839-.492-1.181-.814zm45.374-11.569-37.403 8.037c.014.723-.135 1.464-.474 2.158-.795 1.638-2.41 2.606-4.109 2.659l-5.609 52.232c.242.054.483.13.721.225l29.65-37.902c-.726-1.302-.826-2.928-.127-4.372.985-2.034 3.233-3.038 5.338-2.54l13.345-18.666c-.596-.501-1.049-1.132-1.332-1.831zm-127.327 32.613c-1.019 1.535-3.035 2.117-4.739 1.298l-4.813 6.496c1.562 1.369 2.085 3.662 1.137 5.617-1.142 2.349-3.969 3.322-6.316 2.188-1.227-.594-2.08-1.653-2.451-2.862l-3.31.466c-.061.311-.161.619-.305.915-.543 1.112-1.557 1.833-2.684 2.043l-.264 1.73c1.965 1.271 2.728 3.828 1.709 5.989l11.011 8.676c1.319-.933 3.079-1.161 4.648-.464l9.819-25.696c-1.638-1.263-2.278-3.487-1.504-5.457zm216.28 28.152c-.904 1.858-3.138 2.627-4.996 1.73-1.855-.901-2.627-3.135-1.725-4.993.899-1.86 3.138-2.632 4.991-1.733 1.857.904 2.63 3.141 1.73 4.996zm-211.765-21.135-8.225 21.519 23.058-34.272-9.019 5.873c.841 1.337.995 3.062.257 4.583-1.102 2.268-3.779 3.253-6.071 2.297zm124 19.153c-.905 1.857-3.139 2.627-4.996 1.73-1.855-.902-2.628-3.136-1.726-4.993.9-1.86 3.139-2.633 4.991-1.733 1.858.904 2.63 3.141 1.731 4.996zm-105.921 1.434 39.933-52.383-34.509 12.734c.515 1.212.525 2.635-.096 3.911-.833 1.718-2.571 2.698-4.36 2.659l-1.843 32.71c.225.069.45.157.667.264.071.035.14.069.208.105zm80.694-104.754-32.118 44.863c1.192 1.385 1.517 3.399.672 5.144-1.117 2.298-3.847 3.278-6.162 2.259l-38.031 49.89 38.63-39.495c-.506-1.21-.511-2.623.107-3.894 1.139-2.351 3.967-3.329 6.311-2.192.061.029.122.061.181.093l8.337-11.568c-1.466-1.376-1.936-3.601-1.012-5.507 1.139-2.351 3.967-3.329 6.311-2.193.181.088.352.186.518.294l4.793-4.304c-.271-1.049-.185-2.198.325-3.246.726-1.499 2.137-2.44 3.669-2.63l.09-2.251c-.532-.054-1.065-.201-1.576-.448-2.346-1.139-3.322-3.964-2.183-6.31 1.139-2.352 3.967-3.329 6.311-2.193.909.445 1.616 1.142 2.07 1.965l8.619-6.43c-.511-1.213-.516-2.628.102-3.901.32-.663.775-1.215 1.313-1.643l-.77-1.632c-1.203.493-2.601.491-3.86-.118-1.776-.863-2.769-2.693-2.647-4.553zm-328.582 98.238c-.706 1.45-2.449 2.051-3.898 1.352-1.449-.706-2.053-2.449-1.347-3.898.702-1.452 2.449-2.056 3.894-1.355 1.452.707 2.055 2.454 1.351 3.901zm470.54-2.468c-.477.985-1.662 1.393-2.65.916-.985-.479-1.395-1.664-.914-2.647.477-.987 1.665-1.398 2.647-.921.983.479 1.396 1.667.917 2.652zm-334.426-9.787c-.707 1.45-2.449 2.051-3.899 1.352-1.449-.706-2.053-2.449-1.347-3.899.702-1.451 2.45-2.055 3.894-1.354 1.452.707 2.056 2.454 1.352 3.901zm320.934-4.294c-.904 1.857-3.138 2.627-4.996 1.73-1.855-.902-2.627-3.136-1.725-4.993.899-1.86 3.138-2.633 4.991-1.733 1.857.904 2.63 3.141 1.73 4.996zm-85.575-.22c-.905 1.857-3.139 2.627-4.996 1.73-1.855-.902-2.628-3.136-1.726-4.993.9-1.86 3.139-2.632 4.991-1.733 1.858.904 2.63 3.141 1.731 4.996zm-386.442-2.699c-.904 1.858-3.138 2.628-4.996 1.731-1.855-.902-2.628-3.136-1.726-4.993.9-1.86 3.139-2.633 4.991-1.733 1.858.904 2.63 3.14 1.731 4.995zm490.04.959c-.476.985-1.662 1.393-2.649.916-.985-.479-1.396-1.664-.914-2.647.476-.987 1.664-1.398 2.647-.921.982.479 1.395 1.667.916 2.652zm-458.114-4.605c-.706 1.449-2.449 2.05-3.899 1.351-1.449-.706-2.053-2.449-1.346-3.898.701-1.452 2.449-2.056 3.893-1.354 1.452.706 2.056 2.454 1.352 3.901zm126.892-4.722c-.904 1.857-3.138 2.627-4.995 1.73-1.856-.902-2.628-3.136-1.726-4.993.9-1.86 3.138-2.633 4.991-1.733 1.858.904 2.63 3.141 1.73 4.996zm146.072-26.133-13.468-32.63-18.688 37.99-5.807 13.667c.271.22.513.47.723.739l36.318-13.402c-.936-1.354-1.132-3.16-.362-4.749.313-.648.758-1.193 1.284-1.615zm189.122 18.282c-.476.985-1.662 1.393-2.649.917-.985-.48-1.396-1.665-.914-2.648.476-.987 1.664-1.398 2.647-.921.982.479 1.395 1.667.916 2.652zm-10.016-2.972c-.904 1.857-3.138 2.627-4.996 1.73-1.855-.902-2.627-3.136-1.726-4.993.9-1.86 3.139-2.632 4.992-1.733 1.857.904 2.629 3.141 1.73 4.996zm-82.139-35.443 31.564-48.077-55.314 61.173-2.065 3.138c.765 1.315.882 2.972.171 4.441-.939 1.931-3.016 2.933-5.03 2.598l-9.647 13.497 35.242-30.687c-.34-1.102-.278-2.331.267-3.451.901-1.865 2.867-2.864 4.812-2.632zm1.74 33.199c-.904 1.858-3.138 2.628-4.995 1.731-1.856-.902-2.628-3.136-1.726-4.994.899-1.86 3.138-2.632 4.991-1.733 1.858.905 2.63 3.141 1.73 4.996zm-81.127-11.522-8.337 11.571c.069.064.137.132.201.2l6.602-3.566c-.326-1.09-.257-2.302.278-3.409.572-1.178 1.567-2.009 2.711-2.405l-.127-1.914c-.389-.078-.775-.205-1.149-.386-.059-.03-.12-.059-.179-.091zm-156.177 8.486c-.905 1.858-3.139 2.628-4.996 1.731-1.855-.902-2.628-3.136-1.726-4.994.9-1.86 3.139-2.632 4.991-1.732 1.858.904 2.63 3.14 1.731 4.995zm-116.494-2.7c-.707 1.449-2.449 2.05-3.899 1.351-1.449-.706-2.053-2.449-1.347-3.898.702-1.452 2.45-2.056 3.894-1.354 1.452.706 2.056 2.454 1.352 3.901zm312.69-62.684-9.789 9.77c.423 1.161.396 2.483-.186 3.681-.134.278-.296.537-.474.777l1.031 2.187c.91-.136 1.868-.009 2.755.423 2.346 1.144 3.324 3.972 2.188 6.316-1.142 2.349-3.97 3.322-6.316 2.188-.281-.137-.545-.299-.785-.482l-9.539 7.12c-.039.584-.191 1.173-.462 1.733-.499 1.024-1.318 1.789-2.278 2.229l-.118 2.999c.069.029.14.061.208.095 2.347 1.144 3.324 3.972 2.188 6.316-1.142 2.349-3.97 3.322-6.316 2.188-.481-.235-.907-.541-1.266-.897l-4.405 3.957c.646 1.273.709 2.823.04 4.201-.575 1.183-1.577 2.017-2.728 2.408l.125 1.904c.396.078.787.205 1.163.388 1.256.611 2.119 1.704 2.476 2.948l37.276-8.01c-.115-.882.02-1.806.437-2.666.775-1.599 2.33-2.562 3.982-2.657l-7.147-48.182c-.405-.076-.809-.205-1.197-.393-.313-.152-.602-.333-.863-.541zm-341.918 59.303c-.904 1.858-3.138 2.628-4.996 1.731-1.855-.902-2.627-3.136-1.725-4.994.899-1.86 3.138-2.632 4.991-1.733 1.857.905 2.63 3.141 1.73 4.996zm477.682-1.818c-.614 1.264-2.134 1.784-3.398 1.176-1.261-.614-1.786-2.132-1.17-3.395.611-1.264 2.131-1.79 3.392-1.178 1.261.613 1.787 2.136 1.176 3.397zm-142.84-70.549-63.167 34.576 13.699 33.196c1.071-.471 2.308-.547 3.469-.139l47.197-65.924c-.528-.479-.934-1.066-1.198-1.709zm140.178 62.708c-.904 1.858-3.138 2.627-4.996 1.73-1.855-.901-2.627-3.135-1.725-4.993.899-1.86 3.138-2.632 4.991-1.733 1.857.904 2.63 3.141 1.73 4.996zm-321.8-.875c-.904 1.858-3.138 2.627-4.995 1.73-1.856-.901-2.628-3.135-1.726-4.993.899-1.86 3.138-2.632 4.991-1.733 1.858.904 2.63 3.141 1.73 4.996zm242.604-66.176-46.344 12.793c.191.973.081 2.009-.384 2.967-.76 1.562-2.263 2.515-3.874 2.645l7.152 48.211c.367.078.728.2 1.08.371.081.042.162.084.24.128l43.262-65.692c-.474-.404-.853-.888-1.132-1.423zm2.833 63.678c-.904 1.858-3.138 2.627-4.996 1.73-1.855-.901-2.627-3.135-1.726-4.993.9-1.86 3.139-2.632 4.991-1.733 1.858.904 2.63 3.141 1.731 4.996zm81.863-5.018c-.614 1.264-2.134 1.784-3.398 1.176-1.261-.614-1.787-2.132-1.171-3.395.611-1.264 2.132-1.789 3.393-1.178 1.261.613 1.787 2.136 1.176 3.397zm-59.022-67.931 35.396-64.492-52.835 69.136c.801 1.327.936 3.019.21 4.512-.946 1.948-3.051 2.948-5.079 2.589l-37.237 56.543 54.82-60.628c-1.178-1.386-1.496-3.387-.65-5.128.99-2.045 3.258-3.052 5.375-2.532zm-372.817 65.409c-.905 1.857-3.138 2.627-4.996 1.73-1.855-.902-2.628-3.136-1.726-4.993.9-1.86 3.139-2.633 4.991-1.733 1.858.904 2.63 3.141 1.731 4.996zm219.513-13.372c-.371.176-.765.303-1.168.376l-6.23 14.663zm-108.719 9.561c-.904 1.858-3.138 2.628-4.996 1.731-1.855-.902-2.627-3.136-1.725-4.994.899-1.86 3.138-2.632 4.991-1.733 1.857.905 2.63 3.141 1.73 4.996zm-140.33-5.152c-.904 1.858-3.137 2.627-4.994 1.73-1.855-.901-2.628-3.135-1.726-4.993.9-1.86 3.139-2.632 4.99-1.733 1.858.904 2.63 3.141 1.73 4.996zm459.383-5.394c-.365-.69-.406-1.54-.037-2.298.611-1.263 2.131-1.789 3.392-1.178 1.088.53 1.628 1.733 1.367 2.862 1.593 1.002 2.209 3.065 1.371 4.796-.905 1.857-3.138 2.627-4.996 1.73-1.855-.902-2.628-3.136-1.726-4.993.167-.345.379-.653.629-.919zm-66.426-1.653c-.904 1.858-3.138 2.628-4.996 1.731-1.855-.902-2.627-3.136-1.725-4.994.899-1.86 3.138-2.632 4.991-1.732 1.857.904 2.63 3.14 1.73 4.995zm-246.666-4.16c-.904 1.858-3.138 2.628-4.995 1.731-1.856-.902-2.628-3.136-1.726-4.994.899-1.86 3.138-2.632 4.991-1.732 1.858.904 2.63 3.14 1.73 4.995zm202.559-212.723-33.339 21.042c.281 1.058.201 2.217-.313 3.277-1.141 2.349-3.969 3.322-6.315 2.188-.044-.022-.086-.042-.127-.066l-15.008 15.22c.037.139.064.281.083.425l5.236-.393c.024-.054.049-.108.073-.162 1.139-2.351 3.967-3.329 6.311-2.192 2.346 1.144 3.324 3.972 2.188 6.316-1.142 2.348-3.97 3.321-6.316 2.187-.57-.279-1.061-.655-1.459-1.102l-15.35 11.431c.286 1.063.208 2.229-.31 3.295-.521 1.073-1.393 1.857-2.41 2.288l-.186 4.033c.183.131.355.278.509.437l3.299-1.508c-.051-.789.095-1.603.467-2.366 1.139-2.351 3.967-3.329 6.311-2.192 2.346 1.143 3.324 3.971 2.187 6.315-1.099 2.264-3.761 3.249-6.051 2.305l-10.087 11.984c.305.902.273 1.919-.174 2.84-.098.2-.21.389-.337.562.432.074.86.208 1.273.408 2.347 1.144 3.324 3.972 2.188 6.316-.841 1.728-2.594 2.711-4.395 2.659l-4.453 7.751c1.009 1.369 1.246 3.241.452 4.874-.66 1.359-1.882 2.258-3.251 2.554l.059 6.35c.281.075.562.178.836.31 2.346 1.144 3.324 3.972 2.187 6.316-.608 1.256-1.701 2.116-2.94 2.476l.041 4.575c.299.078.594.186.88.325 2.347 1.144 3.324 3.972 2.188 6.316-.966 1.987-3.141 2.989-5.209 2.564l-7.98 15.633c1.32 1.388 1.716 3.502.831 5.326-.386.797-.97 1.437-1.662 1.889l1.247 2.405c.968-.186 1.999-.073 2.952.389 2.347 1.144 3.324 3.972 2.188 6.316-1.142 2.348-3.97 3.321-6.316 2.187l-.029-.015-9.168 15.614c1.935 1.293 2.669 3.847 1.627 5.995-.725 1.494-2.133 2.432-3.666 2.623l1.234 12.568c.081.034.164.073.245.112 1.361.663 2.263 1.895 2.556 3.268l21.688-42.497 6.012-54.49.604.066-.557-.244 29.936-68.259.56.245-.475-.384zm-33.329 178.028-41.243-5.416-21.076 41.302 62.177-34.033c-.076-.611-.032-1.239.142-1.853zm-266.229 30.958c-.904 1.858-3.138 2.628-4.996 1.731-1.855-.902-2.627-3.136-1.725-4.994.899-1.86 3.138-2.632 4.991-1.733 1.857.905 2.63 3.141 1.73 4.996zm418.137-6.384c-.614 1.264-2.134 1.784-3.398 1.176-1.261-.614-1.786-2.132-1.17-3.395.611-1.264 2.131-1.789 3.392-1.178 1.261.613 1.787 2.136 1.176 3.397zm7.388-.677c-.904 1.858-3.138 2.628-4.995 1.731-1.856-.902-2.628-3.136-1.726-4.994.899-1.86 3.138-2.632 4.991-1.733 1.858.905 2.63 3.141 1.73 4.996zm-155.718-17.999-12.355 17.259c1.203-.499 2.605-.499 3.867.112.344.169.66.371.943.606l9.747-9.725c-.461-1.183-.447-2.552.152-3.786.21-.433.477-.822.789-1.156l-1.246-3.302c-.618.122-1.264.124-1.897-.008zm-165.336 14.411c-.904 1.858-3.138 2.628-4.996 1.731-1.855-.902-2.627-3.136-1.725-4.994.899-1.86 3.138-2.632 4.991-1.733 1.857.905 2.63 3.141 1.73 4.996zm255.905-3.366c-1.141 2.349-3.969 3.322-6.316 2.188-2.346-1.139-3.321-3.964-2.182-6.311 1.139-2.351 3.967-3.329 6.311-2.192 2.346 1.144 3.324 3.971 2.187 6.315zm-389.095-.371c-.904 1.857-3.138 2.627-4.996 1.73-1.855-.902-2.627-3.135-1.725-4.993.899-1.86 3.138-2.632 4.991-1.733 1.857.904 2.63 3.141 1.73 4.996zm333.192-86.573-12.172 12.688c.802 1.325.936 3.016.21 4.51-.518 1.065-1.383 1.847-2.393 2.28l.807 5.626c.418.076.831.208 1.232.401 2.346 1.144 3.324 3.972 2.187 6.316-1.107 2.278-3.798 3.261-6.098 2.288l-4.852 5.729c.853 1.234 1.098 2.838.558 4.311l2.173 1.526c1.273-.646 2.82-.709 4.199-.04 2.346 1.144 3.324 3.972 2.187 6.316-1.141 2.349-3.969 3.322-6.316 2.188-.493-.24-.926-.555-1.29-.924l-10.19 15.457c.887 1.347 1.063 3.114.311 4.666-.282.579-.668 1.075-1.122 1.476l1.163 3.082c1.09-.325 2.3-.259 3.405.276.99.484 1.738 1.269 2.182 2.188l46.318-12.786c-.223-1.004-.123-2.087.361-3.084.665-1.371 1.904-2.276 3.285-2.564l-22.542-60.823c-.861.097-1.758-.039-2.594-.443-.371-.181-.708-.403-1.009-.66zm116.883 78.92c-.614 1.264-2.134 1.784-3.398 1.176-1.261-.614-1.786-2.131-1.17-3.395.611-1.264 2.131-1.789 3.392-1.178 1.261.613 1.787 2.136 1.176 3.397zm-400.581-1.681c-.904 1.857-3.138 2.627-4.995 1.73-1.855-.902-2.628-3.136-1.726-4.993.9-1.86 3.138-2.633 4.991-1.733 1.858.904 2.63 3.14 1.73 4.996zm89.196-1.12c-.905 1.858-3.139 2.628-4.996 1.731-1.855-.902-2.628-3.136-1.726-4.994.9-1.86 3.139-2.632 4.991-1.733 1.858.905 2.63 3.141 1.731 4.996zm322.88-2.024c-1.142 2.349-3.97 3.322-6.316 2.188-2.347-1.139-3.322-3.964-2.183-6.311 1.139-2.351 3.967-3.329 6.311-2.192 2.347 1.144 3.324 3.971 2.188 6.315zm-147.186-55.011-59.457 44.428 40.524 5.324c1.247-2.076 3.892-2.887 6.106-1.814l.029.015 10.747-16.303c-.173-.953-.056-1.968.399-2.906.078-.164.166-.318.259-.467l-1.723-1.21c-1.386 1.156-3.373 1.464-5.101.628-2.347-1.139-3.322-3.964-2.183-6.311 1.132-2.336 3.933-3.316 6.267-2.211l4.786-5.654c-1.029-1.371-1.274-3.255-.472-4.905.56-1.154 1.525-1.978 2.64-2.381l-.787-5.492c-.509-.061-1.017-.205-1.504-.44-.185-.09-.361-.191-.53-.301zm88.303 45.401c-1.141 2.349-3.969 3.322-6.316 2.187-2.346-1.139-3.321-3.964-2.182-6.31 1.139-2.352 3.967-3.329 6.311-2.193 2.346 1.144 3.324 3.972 2.187 6.316zm-90.246-48.043-52.52-6.44-5.803 52.589 59.32-44.325c-.467-.531-.806-1.156-.997-1.824zm137.36 44.164c-.777 1.601-2.703 2.263-4.304 1.491-1.599-.777-2.266-2.703-1.486-4.302.774-1.603 2.703-2.268 4.299-1.493 1.599.78 2.266 2.706 1.491 4.304zm-45.555-78.385-63.284 13.676c.095.853-.042 1.745-.445 2.576-.54 1.114-1.461 1.918-2.53 2.334l22.621 61.026c.506.032 1.015.147 1.506.352l43.164-78.702c-.42-.362-.768-.79-1.032-1.262zm-258.082 77.762c-.904 1.857-3.138 2.627-4.996 1.73-1.855-.902-2.627-3.136-1.726-4.993.9-1.86 3.139-2.633 4.991-1.733 1.858.904 2.63 3.141 1.731 4.996zm-123.555-1.33c-.905 1.858-3.139 2.628-4.996 1.731-1.855-.902-2.628-3.136-1.726-4.994.9-1.86 3.138-2.632 4.991-1.733 1.858.905 2.63 3.141 1.731 4.996zm420.26-160.76-31.517 78.35c1.662 1.357 2.239 3.718 1.266 5.727-.956 1.965-3.09 2.967-5.138 2.576l-40.969 74.706 54.366-71.145c-1.494-1.374-1.978-3.615-1.044-5.536.892-1.84 2.818-2.84 4.739-2.642l5.551-24.791c-.12-.893.01-1.829.433-2.701.088-.176.183-.347.288-.509l12.094-54.008-.022-.008zm23.425 156.038c-1.141 2.349-3.969 3.322-6.316 2.188-2.346-1.139-3.321-3.965-2.182-6.311 1.139-2.352 3.967-3.329 6.311-2.193 2.346 1.144 3.324 3.972 2.187 6.316zm-395.821-.293c-.905 1.857-3.138 2.627-4.996 1.73-1.855-.902-2.628-3.136-1.726-4.993.9-1.86 3.139-2.633 4.991-1.733 1.858.904 2.63 3.141 1.731 4.996zm84.04-6.844c-.904 1.858-3.138 2.628-4.996 1.731-1.855-.902-2.627-3.136-1.725-4.994.899-1.86 3.138-2.632 4.991-1.733 1.857.904 2.63 3.141 1.73 4.996zm294.144-1.467c-.777 1.601-2.703 2.264-4.304 1.491-1.599-.777-2.266-2.703-1.486-4.301.775-1.604 2.703-2.269 4.299-1.494 1.599.78 2.266 2.706 1.491 4.304zm-33.006-1.478c-1.141 2.349-3.969 3.321-6.316 2.187-2.346-1.139-3.321-3.964-2.182-6.311 1.139-2.351 3.966-3.329 6.31-2.192 2.347 1.144 3.324 3.972 2.188 6.316zm52.547-8.577c-1.141 2.349-3.969 3.322-6.315 2.188-2.347-1.139-3.322-3.965-2.183-6.311 1.139-2.351 3.967-3.329 6.311-2.193 2.346 1.144 3.324 3.972 2.187 6.316zm-424.611-2.894c-.904 1.858-3.138 2.628-4.996 1.731-1.855-.902-2.627-3.136-1.726-4.994.9-1.86 3.139-2.632 4.991-1.733 1.858.905 2.63 3.141 1.731 4.996zm118.401 0c-.905 1.858-3.139 2.628-4.996 1.731-1.856-.902-2.628-3.136-1.726-4.994.9-1.86 3.138-2.632 4.991-1.733 1.858.905 2.63 3.141 1.731 4.996zm-68.452-.987c-.904 1.857-3.138 2.627-4.996 1.73-1.855-.902-2.627-3.136-1.725-4.993.899-1.86 3.138-2.633 4.991-1.733 1.857.904 2.63 3.141 1.73 4.996zm353.899-2.278c-.777 1.601-2.703 2.263-4.304 1.491-1.599-.777-2.266-2.703-1.486-4.302.775-1.603 2.703-2.268 4.299-1.493 1.599.779 2.266 2.705 1.491 4.304zm-19.104-6.04c-1.141 2.349-3.969 3.322-6.315 2.188-2.347-1.139-3.322-3.965-2.183-6.311 1.139-2.351 3.967-3.329 6.311-2.192 2.346 1.143 3.324 3.971 2.187 6.315zm-257.882-5.057c-.904 1.858-3.138 2.628-4.996 1.731-1.855-.902-2.627-3.136-1.725-4.994.899-1.86 3.138-2.632 4.991-1.733 1.857.905 2.63 3.141 1.73 4.996zm297.749-1.381c-1.141 2.349-3.969 3.322-6.315 2.188-2.347-1.139-3.322-3.965-2.183-6.311 1.139-2.351 3.967-3.329 6.311-2.192 2.346 1.144 3.324 3.971 2.187 6.315zm-20.541-3.167c-.777 1.601-2.703 2.263-4.304 1.491-1.598-.778-2.266-2.704-1.486-4.302.775-1.603 2.703-2.268 4.299-1.493 1.599.779 2.266 2.705 1.491 4.304zm-107.228-49.285c-1.342 1.721-3.747 2.327-5.788 1.342-.273-.134-.53-.291-.765-.467l-72.665 43.871 51.047 6.259c-.008-.711.144-1.432.474-2.114 1.139-2.351 3.967-3.329 6.311-2.192.073.034.146.073.215.112l12.536-13.066c-.384-1.137-.34-2.415.225-3.579.276-.569.652-1.06 1.095-1.456l-1.068-3.539c-.714.012-1.442-.14-2.129-.472-2.347-1.139-3.322-3.965-2.183-6.311 1.139-2.351 3.967-3.329 6.311-2.192.044.019.086.041.127.063l11.124-13.15c-.401-.755-.594-1.615-.546-2.483zm-224.363 43.993c-.904 1.858-3.138 2.628-4.995 1.731-1.856-.902-2.628-3.136-1.726-4.994.899-1.86 3.138-2.632 4.991-1.733 1.858.905 2.63 3.141 1.73 4.996zm-48.443-.679c-1.141 2.348-3.969 3.321-6.316 2.187-2.346-1.139-3.321-3.964-2.182-6.311 1.139-2.351 3.966-3.329 6.31-2.192 2.347 1.144 3.325 3.972 2.188 6.316zm264.406-46.862-42.4-18.764-28.914 65.931 72.259-43.626c-.772-.997-1.121-2.275-.945-3.541zm110.662 43.907c-1.369 2.815-4.754 3.981-7.567 2.62-2.811-1.364-3.982-4.749-2.613-7.56 1.364-2.818 4.751-3.987 7.56-2.628 2.811 1.372 3.984 4.762 2.62 7.568zm-263.687.689c-.904 1.857-3.138 2.627-4.996 1.73-1.855-.902-2.628-3.136-1.726-4.993.9-1.86 3.139-2.632 4.991-1.733 1.858.904 2.63 3.141 1.731 4.996zm288.05-4.331c-1.141 2.349-3.969 3.321-6.315 2.187-2.347-1.139-3.322-3.964-2.183-6.311 1.139-2.351 3.967-3.328 6.311-2.192 2.346 1.144 3.324 3.972 2.187 6.316zm-18.409-3.879c-.777 1.601-2.703 2.263-4.304 1.491-1.599-.777-2.266-2.703-1.486-4.302.774-1.603 2.703-2.268 4.299-1.493 1.598.779 2.266 2.705 1.491 4.304zm-94.555-30.975c-.076.369-.201.736-.372 1.09-1.141 2.349-3.969 3.322-6.316 2.188-.146-.071-.288-.15-.425-.233l-11.006 13.008c.846 1.34 1.002 3.07.262 4.595-.418.863-1.066 1.54-1.834 1.997l.932 3.087c.982-.2 2.031-.09 2.999.379 1.119.545 1.928 1.474 2.344 2.552l63.116-13.639c-.123-.481-.169-.985-.135-1.488zm-166.334 24.943c-.904 1.857-3.138 2.627-4.995 1.73-1.856-.902-2.628-3.136-1.726-4.993.899-1.86 3.138-2.633 4.991-1.733 1.858.904 2.63 3.141 1.73 4.996zm266.303-5.409c-1.369 2.815-4.754 3.981-7.567 2.62-2.811-1.364-3.982-4.749-2.613-7.56 1.364-2.818 4.751-3.986 7.56-2.627 2.81 1.371 3.984 4.761 2.62 7.567zm-312.945-.291c-.904 1.857-3.138 2.627-4.996 1.73-1.855-.902-2.627-3.135-1.725-4.993.899-1.86 3.138-2.632 4.991-1.733 1.857.904 2.63 3.141 1.73 4.996zm-51.493-2.437c-1.142 2.349-3.97 3.322-6.316 2.188-2.347-1.139-3.322-3.965-2.183-6.311 1.139-2.352 3.967-3.329 6.311-2.193 2.346 1.144 3.324 3.972 2.188 6.316zm446.904-5.372 17.158-26.473-60.784 24.879c.134.462.208.944.22 1.43l37.723 3.344.005-.018c1.068-2.204 3.378-3.399 5.678-3.162zm33.967-9.924 4.964-30.466-36.812 41.047c.853.467 1.542 1.125 2.039 1.892l24.221-5.384c-.327-1.257-.225-2.635.389-3.896.995-2.054 3.063-3.229 5.199-3.193zm-373.286 10.019c-.905 1.858-3.139 2.628-4.996 1.731-1.855-.902-2.628-3.136-1.726-4.994.9-1.86 3.138-2.632 4.991-1.733 1.858.905 2.63 3.141 1.731 4.996zm157.869-40.752c-1.139.985-2.709 1.384-4.207 1.022l-10.827 20.081c1.031 1.029 1.532 2.486 1.356 3.928l4.14.599c1.289-1.941 3.845-2.674 5.994-1.633 1.593.778 2.556 2.332 2.652 3.984l49.716 13.578c.062-.181.135-.36.22-.536.096-.198.203-.386.323-.564zm89.579-57.289-9.398 5.502c-.076.394-.203.785-.389 1.164-1.048 2.158-3.522 3.155-5.736 2.422l-72.864 42.653c.572 1.242.604 2.718-.036 4.04-.103.211-.218.409-.345.594l49.36 40.451c1.051-.926 2.479-1.346 3.877-1.119l31.708-78.834c-1.088-1.377-1.359-3.31-.543-4.994.804-1.662 2.452-2.637 4.175-2.666l1.97-8.039c-.142-.052-.281-.113-.42-.179-.523-.254-.981-.594-1.359-.995zm110.007 72.209-15.665 24.172 33.505-37.364-14.956 10.315c.23.562.23 1.215-.056 1.801-.514 1.059-1.755 1.518-2.828 1.076zm-62.224 23.011 58.228-23.833-29.717 3.901c-.012.296-.083.594-.22.875-.532 1.098-1.852 1.552-2.95 1.022-.757-.367-1.207-1.11-1.239-1.897l-23.879-3.131c-.076.269-.176.536-.304.795-1.141 2.349-3.969 3.321-6.315 2.187-1.051-.511-1.829-1.361-2.261-2.356l-6.683 1.107c-.073.25-.168.499-.285.741-.653 1.344-1.858 2.236-3.207 2.542l-.157.85c.252.074.501.169.746.286 2.346 1.144 3.324 3.972 2.187 6.316-.784 1.616-2.368 2.581-4.045 2.657.57.699.924 1.547 1.029 2.434l9.278 5.233c1.503-2.454 4.652-3.407 7.289-2.131 1.109.54 1.962 1.393 2.505 2.402zm-61.52-17.568-3.859 17.236 6.311-15.423c-.213-.068-.423-.151-.631-.251-.757-.367-1.373-.912-1.821-1.562zm173.444-39.261-25.806 16.542c.098.462.049.961-.174 1.42-.334.692-.982 1.127-1.691 1.222l-4.986 30.601c.193.047.386.106.577.174l32.539-49.206c-.171-.24-.325-.491-.459-.753zm-437.749 46.427c-1.142 2.349-3.969 3.322-6.316 2.188-2.346-1.139-3.321-3.965-2.182-6.311 1.138-2.352 3.966-3.329 6.31-2.193 2.347 1.144 3.324 3.972 2.188 6.316zm41.539.078c-.905 1.858-3.139 2.628-4.996 1.731-1.855-.902-2.628-3.136-1.726-4.994.9-1.86 3.138-2.632 4.991-1.733 1.858.905 2.63 3.141 1.731 4.996zm258.204-2.6c-.019.044-.041.085-.061.129-1.141 2.349-3.969 3.322-6.316 2.188-.708-.345-1.292-.843-1.73-1.437l-1.784.743 9.244 2.669c.784-.633 1.752-1 2.754-1.046-.699-.861-1.073-1.946-1.053-3.056zm-354.126-1.384c-1.141 2.349-3.969 3.322-6.316 2.188-2.346-1.139-3.321-3.965-2.182-6.311 1.139-2.351 3.967-3.329 6.311-2.192 2.346 1.143 3.324 3.971 2.187 6.315zm341.522-68.488-4.49 1.413c.017.726-.135 1.466-.474 2.165-.88 1.812-2.762 2.804-4.654 2.643l-11.698 52.232c1.313-.761 2.967-.875 4.431-.167.873.426 1.557 1.086 2.012 1.863 1.378-1.472 3.603-1.943 5.507-1.019 2.346 1.143 3.324 3.971 2.187 6.315-.024.054-.051.108-.08.159l1.681 1.54c1.332-.831 3.051-.98 4.566-.247 1.112.543 1.916 1.462 2.334 2.527l2.278-.945c-.1-.863.037-1.763.445-2.601 1.139-2.351 3.967-3.329 6.311-2.192 1.525.743 2.473 2.199 2.635 3.771l1.346.244c.66-1.1 1.711-1.845 2.884-2.143l.167-.909c-.218-.069-.433-.152-.643-.255-2.347-1.139-3.322-3.964-2.183-6.311 1.139-2.351 3.967-3.328 6.311-2.192 1.303.636 2.183 1.789 2.515 3.089l6.274-1.038c.059-.521.206-1.039.445-1.538.293-.603.699-1.117 1.178-1.527l-2.671-6.885c-1.002.224-2.088.122-3.085-.36-2.346-1.139-3.321-3.964-2.182-6.311 1.06-2.19 3.588-3.187 5.822-2.397l2.07-4.041c-.922-.809-1.481-1.94-1.589-3.135l-5.101-.088c.142.916.017 1.882-.418 2.776-1.141 2.349-3.969 3.322-6.316 2.188-2.346-1.139-3.321-3.965-2.182-6.311.958-1.975 3.109-2.982 5.162-2.576l1.537-4.19c-.252-.256-.472-.537-.657-.84l-7.897 1.669c-.015.657-.169 1.325-.475 1.955-1.141 2.349-3.969 3.322-6.315 2.188-2.347-1.139-3.322-3.965-2.183-6.311 1.139-2.351 3.967-3.329 6.311-2.192.235.112.454.244.662.388l3.618-5.389c-.741-.445-1.323-1.068-1.714-1.789l-9.359-.215c-.031.611-.183 1.226-.466 1.811-1.142 2.349-3.97 3.321-6.316 2.187-2.346-1.139-3.322-3.964-2.183-6.311 1.073-2.214 3.647-3.211 5.901-2.368l1.412-5.795c-.137-.049-.271-.108-.405-.174-1.056-.511-1.834-1.364-2.266-2.361zm-106.354 42.448-55.82 6.988 40.779 18.048c.032-.076.066-.152.103-.228 1.004-2.075 3.321-3.079 5.462-2.507l10.801-20.028c-.655-.623-1.109-1.417-1.325-2.273zm202.903-42.245-30.148 60.872c.205.169.374.372.501.597l32.676-4.29c.034-.203.097-.406.19-.601.22-.455.577-.8.998-1.01l-3.579-55.346c-.19-.034-.381-.095-.564-.183zm-59.039 34.644c-1.097.982-2.612 1.408-4.076 1.114l-2.237 4.363c1.173 1.386 1.489 3.385.648 5.121-.267.55-.626 1.024-1.049 1.412l2.699 6.964c.958-.181 1.979-.066 2.923.391 1.701.828 2.681 2.539 2.662 4.311l24.004 3.149.034-.059.054-.086zm-270.528 23.838c-1.141 2.349-3.969 3.321-6.316 2.187-2.346-1.139-3.321-3.964-2.182-6.311 1.139-2.351 3.967-3.329 6.311-2.192 2.346 1.144 3.324 3.972 2.187 6.316zm290.972-34.123-19.06 5.46c.313 1.083.242 2.278-.289 3.37-.087.184-.188.357-.295.524l25.81 26.834.017-.01-4.644-35.171c-.215-.032-.43-.098-.635-.196-.386-.188-.692-.474-.904-.811zm37.664-25.312-33.705 23.432c.178.528.156 1.127-.105 1.669-.24.492-.638.856-1.102 1.059l4.629 35.061 30.303-61.182zm2.958.98c-.057.027-.113.054-.171.076l3.57 55.243c.252.024.501.093.741.208.115.056.22.119.32.19l17.576-12.123c-.237-.564-.239-1.227.049-1.823.098-.201.22-.377.362-.533zm-358.956 51.76c-1.142 2.349-3.97 3.322-6.316 2.188-2.346-1.139-3.322-3.965-2.183-6.311 1.139-2.351 3.967-3.329 6.311-2.193 2.347 1.144 3.324 3.972 2.188 6.316zm-58.66-2.593c-1.142 2.349-3.97 3.322-6.316 2.187-2.347-1.139-3.322-3.964-2.183-6.31 1.139-2.352 3.967-3.329 6.311-2.193 2.346 1.144 3.324 3.972 2.188 6.316zm195.709-50.086-39.674 48.998 56.51-7.076c.009-.672.163-1.354.476-1.999.377-.777.936-1.403 1.606-1.855l-15.946-37.186c-.76.037-1.539-.112-2.273-.467-.249-.119-.481-.259-.699-.415zm-95.99 45.858c-1.141 2.348-3.969 3.321-6.315 2.187-2.347-1.139-3.322-3.964-2.183-6.311 1.139-2.351 3.967-3.329 6.311-2.192 2.346 1.144 3.324 3.972 2.187 6.316zm374.027-27.361 5.465-81.808-36.203 105.197c.093.068.181.146.259.227l25.943-16.625c-.323-1.254-.218-2.623.393-3.877.829-1.713 2.405-2.815 4.143-3.114zm-55.209-18.443 22.362 41.086-4.246-67.178-18.712 23.208c.838.62 1.141 1.769.672 2.74-.025.048-.049.097-.076.144zm58.746-65.763-37.922 36.787c.037.386-.029.79-.212 1.166-.274.565-.755.958-1.308 1.136l4.26 67.384 36.335-105.579c-.43-.251-.816-.554-1.153-.894zm-197.497 36.208-7.308 3.888c.122.893-.007 1.831-.43 2.701-1.097 2.259-3.754 3.246-6.044 2.308l-44.856 59.434 71.981-42.137c-1.821-1.32-2.486-3.793-1.471-5.886.339-.701.831-1.28 1.412-1.718l-2.761-6.02-.985.509c.124.892-.008 1.83-.431 2.703-1.141 2.349-3.969 3.321-6.315 2.187-2.347-1.139-3.322-3.964-2.183-6.311.628-1.295 1.767-2.172 3.055-2.51l-1.249-7.831c-.374-.076-.745-.2-1.102-.374-.504-.244-.944-.564-1.313-.943zm-16.178 6.714-60.439 18.451c.093.851-.044 1.738-.445 2.564-.589 1.207-1.623 2.053-2.808 2.434l15.804 36.858c1.043-.361 2.212-.361 3.299.074l45.039-59.677c-.171-.223-.32-.457-.45-.704zm-150.446 55.967c-1.141 2.348-3.969 3.321-6.315 2.187-2.347-1.139-3.322-3.964-2.183-6.311 1.139-2.351 3.967-3.329 6.311-2.192 2.346 1.144 3.324 3.972 2.187 6.316zm-27.14 0c-1.141 2.348-3.969 3.321-6.316 2.187-2.346-1.139-3.321-3.964-2.182-6.311 1.139-2.351 3.967-3.329 6.311-2.192 2.346 1.144 3.324 3.972 2.187 6.316zm-63.617-2.105c-1.141 2.349-3.969 3.322-6.315 2.188-2.347-1.139-3.322-3.965-2.183-6.311 1.139-2.351 3.967-3.329 6.311-2.193 2.346 1.144 3.324 3.972 2.187 6.316zm338.638-35.228-19.529 14.934c.181.961.068 1.99-.391 2.936-.809 1.664-2.464 2.637-4.194 2.661l-4.163 6.199 7.252-1.53c-.022-.736.13-1.484.472-2.19 1.139-2.352 3.967-3.329 6.311-2.193 2.346 1.144 3.324 3.972 2.187 6.316-1.007 2.073-3.326 3.075-5.47 2.503l-1.479 4.03c.132.118.257.24.377.369l6.711.118.02-.042c.87-1.796 2.728-2.791 4.6-2.654l7.521-31.31c-.079-.044-.154-.093-.225-.147zm3.387-1.017c-.024.071-.053.14-.088.208-.366.755-1.104 1.205-1.886 1.242l-7.511 31.273c.173.059.344.13.513.213.855.415 1.53 1.056 1.985 1.816l19.213-5.507c0-.325.071-.653.223-.963.53-1.097 1.852-1.552 2.947-1.024.159.076.303.169.433.276l34.191-23.769c.015-.101.04-.201.071-.301zm-236.033 24.093c-1.142 2.349-3.97 3.321-6.316 2.187-2.346-1.139-3.322-3.964-2.183-6.311 1.139-2.351 3.967-3.329 6.311-2.192 2.347 1.144 3.324 3.972 2.188 6.316zm-82.014-3.092c-1.142 2.349-3.97 3.321-6.316 2.187-2.347-1.139-3.322-3.964-2.183-6.311 1.139-2.351 3.967-3.328 6.311-2.192 2.346 1.144 3.324 3.972 2.188 6.316zm66.156-3.427c-1.141 2.349-3.969 3.322-6.316 2.188-2.346-1.139-3.321-3.965-2.182-6.311 1.139-2.352 3.967-3.329 6.31-2.193 2.347 1.144 3.325 3.972 2.188 6.316zm205.372-26.091c-.076.256-.172.51-.294.76-.687 1.417-1.992 2.334-3.434 2.588l-2.06 8.41c.74.414 1.329 1 1.742 1.682l4.815-1.513c.062-.508.206-1.014.443-1.498 1.139-2.351 3.967-3.329 6.311-2.193 2.346 1.144 3.324 3.972 2.187 6.314-.691 1.425-2.002 2.341-3.451 2.593l-1.743 7.159c.147.198.281.408.394.626l9.332.215c.027-.628.178-1.261.471-1.863 1.139-2.351 3.967-3.329 6.311-2.192.978.479 1.719 1.249 2.168 2.156l19.199-14.68c-.075-.191-.122-.391-.141-.596zm-174.023 18.807c-1.142 2.349-3.969 3.322-6.316 2.188-2.346-1.139-3.321-3.964-2.182-6.311 1.139-2.351 3.966-3.329 6.31-2.192 2.347 1.144 3.324 3.971 2.188 6.315zm-74.286-2.168c-1.141 2.349-3.969 3.322-6.315 2.188-2.347-1.139-3.322-3.964-2.183-6.311 1.139-2.351 3.967-3.329 6.311-2.192 2.346 1.144 3.324 3.972 2.187 6.315zm70.632-8.021c-1.142 2.349-3.969 3.321-6.316 2.187-2.346-1.139-3.321-3.964-2.182-6.311 1.139-2.351 3.966-3.329 6.31-2.192 2.347 1.144 3.324 3.972 2.188 6.316zm295.143-22.352-42.433-9.613-28.68 29.997c.118.203.201.421.25.648l50.863 3.517c.391-.271.863-.408 1.342-.389l19.111-23.701c-.176-.132-.328-.288-.453-.459zm-215.202-30.557-4.815 6.721c.915 1.354 1.1 3.141.34 4.713-1.141 2.348-3.969 3.321-6.316 2.187-.931-.452-1.644-1.168-2.097-2.014l-3.649.254c-1.259 2.034-3.879 2.821-6.078 1.76-2.347-1.139-3.322-3.964-2.183-6.311.059-.12.12-.234.186-.344l-1.303-2.943c-.843.117-1.726.007-2.554-.357l-2.645 4.028c1.96 1.286 2.708 3.857 1.66 6.018-1.142 2.348-3.97 3.321-6.316 2.187-1.388-.675-2.298-1.941-2.571-3.348l-8.046.603c-.076.401-.206.797-.392 1.183-.584 1.198-1.605 2.039-2.779 2.422l.181 3.698c.572.044 1.144.194 1.692.46 2.346 1.144 3.324 3.972 2.187 6.316-1.041 2.146-3.492 3.143-5.697 2.434l-1.151 2.581c1.329 1.388 1.728 3.51.843 5.336-.139.288-.306.555-.491.801l3.094 3.591c1.349-.9 3.124-1.08 4.685-.323 2.347 1.144 3.325 3.972 2.188 6.316-.2.413-.455.785-.75 1.11l1.94 2.253c1.357-.931 3.158-1.127 4.74-.359 1.434.699 2.356 2.029 2.598 3.49l7.115-.938c.063-.487.207-.976.435-1.442 1.139-2.352 3.967-3.329 6.311-2.193 1.121.548 1.93 1.479 2.346 2.562l60.307-18.41c-.227-1.009-.127-2.097.36-3.099.645-1.33 1.83-2.222 3.163-2.537l-.636-3.982-10.556-.608c-.076.41-.206.816-.396 1.21-1.142 2.348-3.97 3.321-6.316 2.187-2.346-1.139-3.322-3.964-2.183-6.311.514-1.06 1.372-1.843 2.371-2.275l-2.163-8.77c-.423-.076-.841-.208-1.247-.403-.112-.054-.219-.113-.327-.176l-3.705 4.654c.796 1.324.928 3.013.205 4.504-1.141 2.349-3.969 3.322-6.316 2.188-2.346-1.139-3.321-3.965-2.182-6.311.459-.946 1.187-1.67 2.05-2.122l-1.772-5.719-.054-.025c-.07-.034-.141-.07-.212-.11l-2.222 2.762c.565 1.237.594 2.706-.046 4.023-1.142 2.349-3.97 3.322-6.316 2.188-2.347-1.139-3.322-3.964-2.183-6.311.394-.811.988-1.459 1.694-1.911l-2.693-6.951c-.443.017-.89-.027-1.333-.137zm-127.148 49.582c-1.141 2.349-3.969 3.322-6.316 2.188-2.346-1.139-3.321-3.965-2.182-6.311 1.139-2.351 3.967-3.329 6.311-2.193 2.346 1.144 3.324 3.972 2.187 6.316zm68.396 0c-1.142 2.349-3.97 3.322-6.316 2.188-2.347-1.139-3.322-3.965-2.183-6.311 1.139-2.351 3.967-3.329 6.311-2.193 2.346 1.144 3.324 3.972 2.188 6.316zm192.869-50.113-37.09 40.757c.594.828.909 1.833.889 2.855l42.299 7.977c.24-.479.631-.831 1.088-1.029l-6.541-50.357c-.215-.034-.427-.098-.633-.198zm-53.693 50.829 4.208-2.466-4.287 1.999c.032.154.059.308.079.467zm62.783-.203 28.753-30.073.391-63.827-35.396 40.109c.396.626.469 1.435.124 2.149-.239.496-.64.857-1.107 1.06l6.543 50.355c.213.032.425.098.631.196zm-61.058-12.299c-.078.311-.188.616-.335.917-.638 1.312-1.804 2.197-3.119 2.52l-.975 5.326.074.034c.554.271 1.033.635 1.424 1.066l9.264-4.314c-.056-.751.066-1.521.386-2.251zm-8.53 1.455-2.398 1.236 2.743 5.979c.43-.174.884-.284 1.349-.328l.909-4.959c-.244-.073-.486-.166-.724-.278-.791-.387-1.427-.964-1.879-1.65zm-176.53 3.057c-1.142 2.349-3.97 3.322-6.316 2.188-2.347-1.139-3.322-3.965-2.183-6.311 1.139-2.351 3.967-3.329 6.311-2.192 2.347 1.143 3.324 3.971 2.188 6.315zm23.781-4.724c-1.141 2.349-3.969 3.321-6.315 2.187-2.347-1.139-3.322-3.964-2.183-6.311 1.139-2.351 3.967-3.329 6.311-2.192 2.346 1.144 3.324 3.972 2.187 6.316zm172.011.689 3.789-66.462-30.266 50.093c1.185 1.244 1.628 3.073 1.068 4.752l8.017 5.751c1.258-.618 2.781-.67 4.138-.01 1.635.795 2.605 2.408 2.659 4.106l7.215 3.54c.838-1.054 2.078-1.682 3.38-1.77zm-131.877-1.501c-1.369 2.816-4.754 3.982-7.567 2.62-2.811-1.363-3.982-4.749-2.613-7.559 1.364-2.819 4.751-3.987 7.56-2.628 2.81 1.371 3.984 4.761 2.62 7.567zm175.037-41.279 35.995-40.786-.179-.11-71.465 14.574c.039.394-.024.802-.21 1.181-.425.88-1.356 1.347-2.273 1.224l-3.808 66.773c.391.076.78.203 1.154.386.342.166.652.367.933.596l37.027-40.683c-.384-.621-.447-1.418-.105-2.124.528-1.09 1.838-1.547 2.931-1.031zm-71.202 34.02c-.117.051-.239.098-.361.137l1.276 7.995c.264.076.523.173.777.298.677.328 1.237.797 1.667 1.352l.914-.472zm2.093-1.74c-.286.435-.638.809-1.034 1.117l4.302 9.373 2.649-1.364c-.042-.772.108-1.566.467-2.309.276-.57.65-1.056 1.092-1.455zm-120.977-19.136-10.41-20.687 5.546 40.823c.985.488 1.77 1.226 2.307 2.099.702-.127 1.435-.1 2.146.105l1.186-2.657c-1.24-1.385-1.589-3.434-.726-5.211.484-.997 1.271-1.747 2.195-2.194l-.198-4.019c-.372-.075-.738-.2-1.095-.371-2.347-1.139-3.322-3.965-2.183-6.311.303-.628.728-1.159 1.232-1.577zm112.31 16.501-9.865-.569.626 3.92c.222.068.442.156.659.262.675.327 1.237.796 1.667 1.354l7.062-3.76c-.101-.391-.152-.799-.149-1.207zm156.783 3.072-41.48-71.396-.386 62.969 41.6 9.425c.007-.308.081-.619.222-.915zm-283.797-88.787-32.835 37.733c1.723 1.408 2.471 3.721 1.882 5.874l38.955 45.2c.181.022.362.051.543.09l-5.668-41.729c-.22-.032-.435-.095-.646-.198-1.097-.533-1.552-1.853-1.019-2.95.267-.55.733-.941 1.271-1.124l-2.058-42.749c-.144-.034-.286-.083-.425-.147zm325.644 45.117-53.723-77.851 14.052 120.373c.247.026.494.092.728.207.291.142.535.34.728.572l37.665-36.535c-1.004-1.599-1.185-3.664-.298-5.487.23-.475.516-.902.848-1.279zm-40.879 42.737-14.276-122.3213-28.064 49.6093 42.265 72.751.034-.02zm-235.273-4.295c-1.369 2.816-4.754 3.982-7.567 2.62-2.811-1.363-3.982-4.749-2.613-7.559 1.364-2.819 4.751-3.987 7.56-2.628 2.81 1.371 3.984 4.761 2.62 7.567zm84.7-1.85 30.352-50.235-63.981 32.434c.525 1.217.537 2.65-.086 3.935-.552 1.142-1.505 1.956-2.608 2.364l2.132 8.637c.51.059 1.021.206 1.51.443.782.381 1.413.951 1.865 1.628l7.567-2.867c-.244-1.024-.149-2.137.347-3.158 1.139-2.351 3.967-3.329 6.311-2.193 2.346 1.144 3.324 3.972 2.188 6.316-.653 1.344-1.86 2.239-3.214 2.544l.376 2.354 10.231.589c.076-.273.179-.547.308-.814 1.139-2.351 3.967-3.329 6.311-2.192.134.066.266.137.391.215zm-22.071-1.493-7.826 2.964 10.158.587-.372-2.322c-.205-.068-.408-.149-.608-.244-.521-.255-.975-.589-1.352-.985zm-38.297-38.457c-.174.115-.365.203-.563.264l-1.757 9.525c.156.056.308.12.459.193 2.347 1.144 3.325 3.972 2.188 6.316-.398.823-1.007 1.479-1.728 1.931l2.681 6.926c.765-.036 1.552.113 2.288.47.227.11.44.234.64.376l2.049-2.547c-.797-1.322-.927-3.008-.203-4.499 1.139-2.352 3.967-3.329 6.311-2.193 2.346 1.144 3.324 3.972 2.187 6.316-.711 1.466-2.08 2.395-3.581 2.613l1.484 4.778c.628.025 1.266.176 1.867.469.074.035.145.071.213.11l3.752-4.71c-.733-1.302-.834-2.93-.132-4.377.112-.227.237-.442.379-.645zm-38.389-2.048-14.679 29.518c.662.555 1.146 1.274 1.422 2.065l8.411-.63c.061-.169.129-.335.207-.499.844-1.74 2.611-2.728 4.422-2.664l3.15-4.8c-.987-1.364-1.212-3.217-.425-4.84.518-1.068 1.383-1.852 2.395-2.285l-3.786-15.675c-.371.035-.755-.024-1.117-.19zm35.893 1.994-25.075 15.804c.782 1.32.907 2.994.189 4.476-.328.677-.797 1.239-1.355 1.669l.932 2.102c1.28-.667 2.847-.741 4.243-.061 1.679.816 2.657 2.495 2.662 4.245l2.38-.168c.022-.636.176-1.276.472-1.885 1.136-2.351 3.962-3.329 6.306-2.197l4.519-6.313c-1.418-1.381-1.86-3.566-.948-5.444.88-1.816 2.764-2.81 4.658-2.649l1.704-9.249c-.122-.034-.245-.08-.364-.137-.115-.056-.223-.119-.323-.193zm-35.46-6.154 5.448-39.789-36.352 47.901c.477.643.589 1.52.217 2.285-.124.257-.29.477-.486.658l11.048 21.953c1.219-.562 2.669-.601 3.976.008l14.766-29.69c-.389-.623-.457-1.427-.113-2.138.303-.626.865-1.044 1.496-1.188zm129.382-6.998-14.11-67.6692-26.162 49.9562c.674.646.889 1.677.462 2.559-.453.927-1.464 1.396-2.43 1.198l-24.605 46.987c.613.32 1.129.757 1.532 1.271l64.802-32.85c-.004-.337.066-.679.223-1.005.08-.163.176-.312.288-.447zm-43.733-15.061-46.713 26.128c.053.396 0 .812-.176 1.2l18.558 21.345c1.11-.936 2.613-1.319 4.058-1.002l24.683-47.131c-.166-.159-.303-.342-.41-.54zm-78.624-17.862c-.11.037-.223.064-.338.083l-5.462 39.909c.075.027.151.058.227.093 1.095.535 1.552 1.857 1.022 2.952-.154.32-.377.584-.641.787l3.816 15.792c.904-.134 1.855-.005 2.737.423.472.23.887.525 1.242.875l25.074-15.804c-.224-.56-.222-1.208.062-1.792.136-.283.325-.523.549-.713zm-2.824-2.686-33.397-20.133-4.719 23.23c1.053.552 1.483 1.845.963 2.921-.267.552-.734.941-1.271 1.124l2.058 42.751c.097.022.193.051.288.088l36.455-48.038c-.418-.542-.57-1.263-.377-1.943zm83.828 17.327 25.95-49.5534-61.442 36.5184c.13.491.091 1.029-.146 1.523-.391.801-1.203 1.261-2.039 1.241l-12.057 38.337c.052.052.1.105.147.159l46.945-26.258c.025-.259.093-.518.215-.767.448-.926 1.462-1.396 2.427-1.2zm-38.63-14.44-9.327-47.5542-.137-.0195-31.85 43.9507c.484.643.599 1.523.225 2.293-.076.159-.171.306-.278.435l28.411 42.79c.249-.037.503-.029.757.025l11.986-38.117c-.911-.599-1.256-1.797-.765-2.804.216-.449.565-.789.978-.999zm-119.664 40.998 38.537-62.727-41.326 29.626c.917 1.576 1.058 3.563.203 5.323-.53 1.09-1.364 1.933-2.349 2.479l4.339 25.109c.2.051.4.114.596.19zm35.152-41.03 4.204-20.697-36.225 58.968 30.344-34.871c-.405-.628-.481-1.445-.132-2.166.355-.728 1.056-1.173 1.809-1.234zm167.922 32.796 70.417-14.36-86.815-53.8742 14.071 67.4812c.501-.142 1.056-.108 1.559.134.308.152.568.367.768.619zm72.162-14.717.449-.09-30.41-51.8385-57.206-2.1606zm1.398-.887 27.516-48.6413-.31-.1907-57.116-2.1557zm-278.985-11.079 42.218-30.269-10.219-20.9465zm124.533-5.727 61.82-36.7457-72.382-10.967 9.242 47.1217c.261.022.523.092.772.212.205.1.389.23.548.379zm-44.807-4.712 30.936-42.6927-66.24 23.2077 33.036 19.915c.601-.548 1.479-.731 2.268-.43zm-46.948-41.9643 10.396 21.3063 66.909-64.815zm81.496-45.8698-68.859 66.7061 67.112-23.5127 2.395-43.5576zm134.068 57.113 55.703 2.1044-84.639-51.4303zm-59.173-2.234 57.724 2.1802-29.687-50.609-.289-.176zm-74.491-11.1748 73.137 11.0819 27.819-48.7294zm-.902-.9679 98.984-36.9118-96.584-6.7288z" fill="#8b98a9" fill-rule="evenodd"/></svg>