<svg xmlns="http://www.w3.org/2000/svg" width="1000" height="1000" fill="none" xmlns:v="https://vecta.io/nano"><style><![CDATA[.B{fill:#3a214f}.C{fill:#9957a2}.D{fill:#8763aa}.E{fill:#643e82}.F{fill:#512e69}.G{fill:#804697}.H{fill:#4a1035}.I{fill:#d3388b}.J{fill:#fff}.K{fill:#bbbbbc}.L{fill:#873583}.M{stroke-width:1.37}]]></style><g clip-path="url(#A)"><path d="M619.386 475.94l-10.746 58.773 30.893-18.3-20.147-40.473z" class="B"/><path d="M625.801 514.173l13.733 6.5-21.973 73.567 8.24-80.067z" class="H"/><g class="B"><path d="M609.773 583.84l16.027-6.387-5.733-58.22-10.294 64.607zm-236.246-92.213L323.86 510.82l38.027 9.853 11.64-29.046z"/></g><path d="M341.513 508.087l-39.413 11.04 15.886 14.673 23.527-25.713z" class="D"/><path d="M320.606 519.233l1.967 25.107 33.673-18.707-35.64-6.4z" class="B"/><path d="M304.52 532.2l19.34-4.82-6.414 25.287L304.52 532.2z" class="G"/><path d="M261.74 371.42l25.707 27.3 25.08-3.487-50.787-23.813z" class="B"/><path d="M289.86 391.44l109.507-9.38 5.273-31.387-114.78 40.767z" class="H"/><path d="M291.66 364.2l8.04 39.18 88.394-6.58-96.434-32.6z" class="B"/><path d="M257.5 354.027l4.24 29.86 64.073-17.807-68.313-12.053z" class="E"/><path d="M312.527 350.673l-20.867 27.06 91.287-5.12-70.42-21.94z" class="B"/><path d="M332.64 360.507l58.5 3.693-4.247-60.98-54.253 57.287z" class="F"/><path d="M358.467 355.72L257.5 354.027l12.153-53.114 88.814 54.807z" class="G"/><path d="M318.32 340.733l81.714-30.7-31.867-25.753-49.847 56.453z" class="E"/><path d="M256.2 318.347l38.054 7.1 5.353-33.587-43.407 26.487z" class="D"/><path d="M399.367 237.133L405.7 280.9l-41.913 29.853 35.58-73.62z" class="G"/><path d="M298.34 299.813l46.313 38.234 33.314-68.32-79.627 30.086z" class="D"/><path d="M264.993 303.627l49.727-37.574 3.6 54.86-53.327-17.286z" class="I"/><path d="M306.4 281.927l90.987 1.153-48.487-38.913-42.5 37.76z" class="C"/><path d="M350.913 251.313L407.04 237.7l-28.06 49.72-28.067-36.107z" class="I"/><path d="M400.22 289.007l-9.08 49.06 21.98 19.526-12.9-68.586z" class="D"/><path d="M455.674 466.6l-43.62 41.793 34.006 16.014 9.614-57.807z" class="B"/><path d="M430.1 537.6l-1.667-31.787-65.287 50.134L430.1 537.6z" class="H"/><path d="M433.86 540.433l-142.127 81.4.954-57.533 141.173-23.867z" class="B"/><path d="M357.16 572.387l-11.333 25.706-29.2-10.64 40.533-15.066z" class="F"/><path d="M303.387 620.14l-9.134-59.52-84.173 49.447 93.307 10.073z" class="H"/><path d="M332.86 579.367l-11.2 19.986h-57.84l69.04-19.986z" class="F"/><path d="M257.2 602.233l-40.827-20.513-30.347 19.373 71.174 1.14z" class="B"/><path d="M206.867 593.06l-50.487-22.707 7.733-31.606 42.754 54.313z" class="E"/><g class="G"><path d="M168.653 558.607l-26.006 1.646-6.38-46.653 32.386 45.007zM420.227 355.72L444.3 448.9l-37.26-6.38 13.187-86.8z"/></g><path d="M425.88 428.307l6.1 70.48-38.1-24 32-46.48z" class="D"/><g class="E"><path d="M143.667 477.273l22.3-7.773-6.713 82.633-15.587-74.86zm271.066-5.58l-44.44 50.894 34.347 17.846 10.093-68.74z"/></g><path d="M396.62 413.493l23.607 6.214-20.007 76.126-3.6-82.34z" class="I"/><path d="M156.38 514.88l32.86 60.513 26.327-13.973-59.187-46.54z" class="H"/><path d="M193.48 562l-1.607 31.88 69.867-28.38-68.26-3.5z" fill="#6e2467"/><path d="M384.746 520.673l6.387 21.627-89.033 9.833 82.646-31.46z" class="G"/><path d="M388.093 486.8l12.127 18.187-67.58 36.56 55.453-54.747z" class="C"/><path d="M357.16 537.527l16.367 30.366-64.02 11.7 47.653-42.066z" class="L"/><g class="E"><path d="M332.64 537.527l8.874 25.186-41.814 7.64 32.94-32.826z"/><path d="M332.641 577.753l-68.054-17.5-51.22 30.294 119.274-12.794z"/></g><path d="M269.653 566.533l38.527-18.106 15.68 12.846-54.207 5.26z" class="C"/><g class="D"><path d="M140.507 489.94l15.873.873-12.713 46.114-3.16-46.987zm57.213-28.953l-41.34-3.267-7.934 26.747 49.274-23.48z"/></g><path d="M418.706 237.133l-35.76 53.774 38.64-7.827-2.88-45.947z" class="G"/><path d="M404.64 279.393l-9.267 16.48 23.333 21.894-14.066-38.374z" class="C"/><path d="M425.674 319.287l-19.974 49.02 49.974 24.96-30-73.98z" class="L"/><g class="D"><path d="M405.061 362.233l25.04 10.38-30.734 63.514 5.694-73.894zm-5.694-44.466l31.16-25.907 7.54 65.733-38.7-39.826z"/></g><path d="M411.167 262.56l71.74 39.573-55.167 36.287-16.573-75.86z" class="C"/><path d="M418.707 328.313l34.073-19.66v98.967l-34.073-79.307z" class="D"/><path d="M460.514 305.46l24.473 3.193-29.813 108.56 5.34-111.753z" class="E"/><path d="M444.3 350.673l18.166 3.354-4.24 35.253-13.926-38.607z" class="C"/><path d="M479.746 340.56l37.6 68.707-57.326 23.64 19.726-92.347z" class="B"/><g class="D"><path d="M462.467 441.38l20.44 9.593-9.694 53.96-10.746-63.553z"/><path d="M460.02 481.873l24.966 4.714-11.773 34.086-13.193-38.8z"/><path d="M468.506 497.107l-4.246 72.266 22.813-9.173-18.567-63.093z"/></g><path d="M442.813 395.233l-17.4 77.96 30.9 27.714-13.5-105.674z" class="B"/><path d="M435.42 399.867l37.793 2.866-10.746 94.374-27.047-97.24z" class="C"/><g class="H"><path d="M496.226 406.127l13.78 83.373-36.793 8.447 23.013-91.82z"/><path d="M492.439 483.493l20.194 72.454-2.627-104.954-17.567 32.5z"/></g><path d="M502.54 494.127l-34.033 29.313 29.093 43.093 4.94-72.406z" class="E"/><path d="M490.493 539.153l19.513-2.013-27.1 97.347 7.587-95.334z" class="B"/><g class="F"><path d="M512.634 555.947l-21.027 59.44-25.787-40.574 46.814-18.866zm-23.948 68.1l-58.586 77.64 34.16-112.327 24.426 34.687z"/></g><path d="M440.867 679.087l-52.193 34.686 15.966 10.474 36.227-45.16z" class="B"/><path d="M373.526 718.013h24.114l-18.007 22.127-6.107-22.127z" class="F"/><path d="M379.634 727.627L332.86 738.62v18.813l46.774-29.806z" class="E"/><path d="M461.587 572.387l16.02 9.333-32.046 59.993 16.026-69.326z" class="C"/><path d="M444.3 637.467l15.094 6.68-31.654 39.18 16.56-45.86z" class="D"/><path d="M435.42 648.58l17.36 14.327-68.353 45.113 50.993-59.44z" class="C"/><g class="D"><path d="M379.633 710.267l5.947 15.873-38.087 14 32.14-29.873zM338.42 740.14l-7.933 12.853h-60.834l68.767-12.853z"/></g><path d="M317.986 749.533l-9.806 7.9-27.46-2.333 37.266-5.567z" class="L"/><g class="C"><path d="M282.26 748.694v8.74l-31.746-19.121 31.746 10.381z"/><path d="M262.113 744.267l-28.08-23.66-4.12 5.533 32.2 18.127z"/></g><path d="M233.267 725.207L222.28 706.8l18.06 17.713-7.073.694z" class="I"/><path d="M472.507 622.14l19.933 5.127-39.66 48.893 19.727-54.02z" class="B"/><path d="M186.026 630.373l56.86 37.127 7.627-14.693-64.487-22.434z" class="C"/><path d="M240.34 654.607l26.046-12.894-10.186 26.474-15.86-13.58z" class="E"/><path d="M280.72 620.14h22.666l-14.426 36.753-8.24-36.753z" class="H"/><path d="M289.94 629.193l-32.74 22.574 9.187 11.413 23.553-33.987z" class="I"/><path d="M431.98 223.22l26.454-12.047 10.073 42.427-36.527-30.38z" class="D"/><path d="M458.227 231.7l15.72-4.24 11.573 23.853-27.293-19.613z" class="C"/><path d="M440.867 268.453l30.027-33.926 8.853 23.186-38.88 10.74z" class="E"/><path d="M412.934 257.367l27.893 29.133 23.433-30.173-51.326 1.04z" class="D"/><path d="M430.1 230.287l25.073-2.614 13.913 18.927-38.986-16.313z" class="B"/><path d="M462.467 251.493l-13.547 18.234-16.026-18.887 29.573.653z" class="H"/><path d="M456.314 237.133l-7.394 22.22-23.246-21.653 30.64-.567z" class="F"/><path d="M444.3 222.847l-8.88 28.046-28.38-13.193 37.26-14.853z" class="E"/><path d="M443.194 241.06l-7.26 23.153-17.227-20.846 24.487-2.307z" class="B"/><path d="M454.313 216.213l25.434-5.04 26.553 29.36-51.987-24.32z" class="E"/><path d="M470.894 219.32l12.013 37.007 19.633-13.967-31.646-23.04z" class="F"/><path d="M454.313 277.107l37.294-32.94.84 106.506-38.134-73.566z" class="D"/><g class="C"><path d="M482.26 304.313l39.2 6.44-33.734 67.38-5.466-73.82z"/><path d="M496.687 354.027l5.853 44.693 25.507-23.053-31.36-21.64z"/></g><g class="D"><path d="M523.861 386.093l7.54-64.133-29.34 12.487 21.8 51.646zm-15.114 20.034l49.207 48.84 7.48-72.907-56.687 24.067z"/></g><g class="E"><path d="M521.46 370.527l69.26 29.34-51.067-87.227-18.193 57.887zM481.253 264.02l30.42-27.147-10.747 72.834-19.673-45.687z"/></g><g class="F"><path d="M502.54 253.6l11.713 87.62 57.06-47.733L502.54 253.6z"/><path d="M514.253 246.6l4.24 42.407 13.893-36.374-18.133-6.033z"/></g><path d="M546.406 284.513l49.02 46.367-31.133 34.053-17.887-80.42z" class="B"/><path d="M514.253 344.8l13.16 48.467 83.913-21.16-97.073-27.307z" fill="#6e2467"/><path d="M575.153 386.733l25.64-8.6 14.367 81.887-40.007-73.287z" class="B"/><path d="M546.653 406.127l41.834-6.947 21.286 80.067-63.12-73.12z" class="G"/><path d="M573.807 471.693l42.366-3.186-7.533 139.046-34.833-135.86z" class="L"/><path d="M575.16 418.513l-11.507 63.36 44.987 17.754-33.48-81.114z" class="D"/><path d="M553.613 432.907l7.58 104.62 48.58-7.2-56.16-97.42z" class="C"/><path d="M573.807 512.167l-12.614 80.893 47.447-38.453-34.833-42.44z" class="E"/><path d="M573.807 572.387l31.226-3.014-14.313 77.367-16.913-74.353z" class="H"/><path d="M590.72 590.547l25.453-1.187-6.4 30.78-19.053-29.593z" class="B"/><path d="M589.633 611.793l19.006-12.44 30.387 76.807-49.393-64.367z" class="F"/><path d="M609.773 621.833l-30.747 7.36 71.014 81.074-40.267-88.434z" class="E"/><path d="M699.573 738.2L625.8 651.767l13.106 55.033 60.667 31.4z" class="B"/><path d="M669.933 734.287L630.42 708.02l32.007 2.247 7.506 24.02z" class="C"/><path d="M623.447 701.687l15.46-12.374-59.507-54.826 44.047 67.2z" class="I"/><path d="M568.494 572.367l-3.06 43.02 29.726 26.326-26.666-69.346z" class="C"/><path d="M513.76 419.653l35.493 35.314-26.013 12.486-9.48-47.8z" class="H"/><path d="M528.047 469.5l21.427-28.12 9.94 34.56-31.367-6.44z" class="B"/><path d="M549.253 468.507l11.94 26.993-30.78-23.807 18.84-3.186z" class="G"/><path d="M568.494 627.267l16.426 18.253-61.68 62.5 45.254-80.753z" class="B"/><path d="M514.253 678.3l17.7 20.893-13.46 4.587-4.24-25.48z" class="I"/><path d="M583.754 334.68l11.44 77.88 50.7-26.993-62.14-50.887z" class="F"/><path d="M614.64 394.753l28.626-5.473 26.667 52.1-55.293-46.627z" class="E"/><g class="B"><path d="M628.546 402.307l-25.1 14.906 35.58 15.694-10.48-30.6z"/><path d="M614.047 449.66l3.74-34.333 87.633 68.666-91.373-34.333z"/></g><path d="M642.287 428.307l17.447-24.927 95.073 107.393-112.52-82.466z" class="F"/><path d="M662.687 484.28l4.673-40.033 45.586 48.513-50.259-8.48z" class="E"/><path d="M732.48 469.5l-24.426 1.847 12.213 32.12L732.48 469.5z" class="G"/><path d="M732.48 483.44l5.44 62.88 22.121-47.533-27.561-15.347z" class="F"/><path d="M742.16 519.127l27.407-4.954 15.973 113.094-43.38-108.14z" class="B"/><path d="M701.18 503.467l19.086-16.667 21.894 23.84-40.98-7.173z" class="C"/><path d="M708.054 499.627L746.4 583.84l18.92-19.593-57.266-64.62z" class="D"/><path d="M751.406 569.373L785.54 581.5l-23.114 34.533-11.02-46.66z" class="C"/><path d="M763.847 607.047l18.98 1.013 29.32 68.64-48.3-69.653z" class="G"/><path d="M765.32 624.047l32.754 23.967-3.694 45.2-29.06-69.167z" class="D"/><path d="M798.073 665.013l10.714 43.007 20.933-8.06-31.647-34.947z" class="C"/><path d="M897.607 684.1l-4.34 26.167-56.4-8.58 60.74-17.587z" class="F"/><path d="M817.946 697.187l11.14 20.826 55.7-20.553-66.84-.273z" class="G"/><path d="M889.52 640.64v55.007l14.993-2.747-14.993-52.26z" class="F"/><path d="M676.507 722.707l-8.474 14.08 40.407-2.5-31.933-11.58z" class="I"/><path d="M713.36 715.76l-12.133 21.027 13.166-3.047-1.033-17.98z" class="C"/><path d="M553.613 520.94l28.08 27.98-24.74 36.9-3.34-64.88z" class="I"/><g stroke-miterlimit="10"><path d="M402.106 350.673L409.3 340.56" stroke="#0f0" stroke-width="1.1"/><g stroke="#fff"><g stroke-width=".69"><path d="M540.22 483.993l12.866-4.246M540.18 280.9l10.986-9.533m25.647 106.426l25.64 17.44M540.18 280.9l62.273 114.333M402.107 249.027L376.146 237.7M409.3 340.56l31.56 30.747 17.573 100.386m-.206.247l-50.88 68.493-81.533 46.874-68.614 10.46-71.173-16.267-44.853-59.1 19.32-58.413 53.867 2.573m187.745-115.887l-67.886 27.06-53.487-8.753-31.207-7.02"/><path d="M347.994 408.08l-15.354-30.347-8.78-44.606 10.36-45.707 20.32-34.353 23.427-15.767m28.153 118.953l-4.014-5.58-10.966-32.906v-38.394l10.966-30.346 20.84-21.567"/><path d="M391.14 317.767l-27.353 10.586-39.927 4.774h-44.607L245.5 330.32m156.606-81.293h-15.5l-32.773 4.566-42.58 16.414-32 13.073"/><path d="M245.5 330.32l88.72-42.9m29.567 40.933l38.32 22.32m-69.467 27.054L245.5 330.32m19.493 56.06l69.227-8.653m0 0h67.886M333.554 286.5l68.553-37.473"/><path d="M279.253 283.08l54.3 3.42m.001 0l57.586 31.267m8.893 68.613l-65.813-8.653m-173.727 86.26l7.247 5.513m29.98 87.753l-5.847 1.827-5.847 22.42m66.54-20.08l-5.853 7.953 10.487 28.394m57.52-52.214l-2.194 11.7 13.287 30.054m43.02-78.32l6.58 13.413 31.933 18.033"/><path d="M393.333 461.46l19.1 6.393 46 3.84M409.301 340.56l3.133 127.293-37.02 54.547-62.887 34.853-65.813 12.12-54.84-10.293-30.713-39.12-19.987 2.44m309.559-195.127l22.48 105.634 9.694 117.46-21.92 76.9-47 61.793-55.514 46.127-44.726 15.846h-40.46l-39.254-31.6M464.26 555.06l18.646-4.693 33.82 11.053"/><path d="M448.54 627.413l12.447-.146 25.026 14.446M409.3 679.087l4.686 9.973 21.434 10.48m-76.946 26.6v9.047l11.82 7.253m-55.574 3.373l-.973 5.221.607 9.14M274.5 747.813l-1.213 3.221.12 6.399M440.86 371.307l9.874-44.034 32.173 18.647 28.767 82.387m-60.941-101.034l-54.113-47.88m0 0l12.68 61.167"/><path d="M396.62 279.393l5.487-30.366m-10.967 68.74l18.16 22.793"/><path d="M391.14 317.767l5.48-38.374m61.814 192.3l14.78-38.793m-.001 0l38.46-4.593m-28.767-82.387l4.167-45.007"/><path d="M487.073 300.913L506.3 280.9m0 0h33.88m-43.953-46.373L540.18 280.9m-94.619-3.793l41.513 23.806"/><path d="M530.413 419.653l46.4-41.86M506.3 280.9l70.513 96.893m-89.74-76.88l43.34 118.74m-45.426-175.486l-31.8-32.994"/><path d="M453.187 211.173l-4.267 16.5m-3.359 38.38v11.054m15.873-28.08l23.553-4.86m-82.881 4.86l18.121 4.573m139.186 325.993l46.7 95.38 79.207 63.647 13.093-4.88"/><path d="M606.113 674.973l33.42-5.033m-80.12-90.347h50.36M555.746 486.8l61.813-15.107m-40.746-93.9l40.747 93.9"/><path d="M617.56 471.693l-58.147 107.9m0 0l80.12 90.347m0 0l45.787 68.68M450.734 327.273l-5.173-50.166 28.386-18.007 11.04-14.933 11.24-9.64m-47.307-6.854l12.513 21.354m.001 0l-15.873 17.026m-.001 0L420.227 253.6m0 0l20.6-7"/><path d="M440.826 246.6l19.687 2.427m-19.687-2.427l8.093-18.927"/><path d="M440.826 246.6l4.734 19.453m3.36-38.38l-25.974-.213m.001 0l-2.72 26.14m91.447 176.86l31.486 21.84m59.293-57.067L625.8 371.42m260.246 259.633l14.92 68.487-85.46 4.74-38.26-54.207-17.293-74.72-27.473-58.94-43.347-37.166-80.493-50.94"/><path d="M893.267 692.9l7.7 6.64m-123.72-49.467l16.587-4.12m-33.881-70.6l19.227-5.98m-46.7-52.96l26.554-11.266m-69.901-25.9l27.32-24.28M473.946 259.1l32.354 21.8M314.72 510.78l22.173 19.793"/></g><g class="M"><path d="M551.167 271.367L625.8 371.42M422.947 227.46l-46.8 10.24-32.907 11.327-40.4 15.906-26.62 20.474-18.72 20.053-12 24.86 4.027 31.64 15.466 24.42 28.767 12.193 54.233 9.507 52.04-21.7m-184.94 80.513L167.74 469.5l-6.58 50.46 36.56 37.293 54.847 4.167 62.153-15.867 54.113-36.566 24.5-47.527 6.7-75.08 9.267-45.82"/><path d="M458.433 471.693l-4.773 40.587-14.627 5.487-11.333 27.42-21.94 13.16-17.18 21.206H369.2l-28.52 25.96-19.38-2.56-17.913 17.187-22.667-4.753-28.52 2.56-16.087-10.24-22.306 4.753-17.547-14.693-17.913-1.76-9.874-14.62-16.086-4.394-2.2-18.646-11.7-12.427v-14.26l-8.407-16.093 5.853-13.527-.366-19.013L148 471.693l6.58-17.546 13.16 2.56 19.38-2.56 28.88 13.16m242.433 4.386l5.827 83.367-15.72 72.353-39.24 51.674-50.827 47.053-43.753 19.673-40.22 2-40.467-28.38-19.38-27.213 17.367 33.18 41.387 32.033 40.946 2.74 55.94-17.733 64.534-42.227 51.186-58.5 30.714-80.293-4.2-99.96-.854-33.153m-15.446-193.78l26.86 8.84m28.08 28l-28.08-28m-26.86-8.84l-19.96-23.354m0 0h-23.08m-.001 0l-30.24 16.287m88.728 200.847l18.74-8.654m167.999 313.6l10.26-3.333 4.573-26.1 3.207 25.187-13.28 13.433-11.447-2.447-21.973 2.447-12.36-18.933-18.773-3.2-20.147-24.727-16.94-6.267L591 658.033l-15.107-16.32-5.033-28.086-9.62-8.294-1.827-25.74m0 0l-3.667-92.793-25.333-67.147"/><path d="M698.867 733.74l-59.333-63.8-29.76-90.347 7.786-107.9-15.813-76.94m-89.114 69.234l43.46 31.513"/><path d="M512.633 463.987l19.32-19.46m0 0l8.267 39.466m71.106-42.613l17.587 27.127 21.393-4.247 18.074 27.12 27.926 4.12 4.867 23.64 23.98 3.373 1.66 29.174 18.94 9.733-3.2 24.733 16.48 19.18-.847 19.434 10.007 12.7 1.373 15.346 15.974 19.647 10.12 23.76 19.846 10.807 13.58 10.986 25.64-10.073 19.687 7.82 26.553-13.313 7.787-6.227-5.954-17.133-1.833-19.98-15.26-30.82 7.933 64.593-70.199 2.767-29.607-49.694-14.653-76.58-20.147-64.226-42.58-50.18-42.28-40.567-48.373-42.98m-9.626 91.44l27.093 52.1-8.48 42.293-17.226 45.974m-2.921-91.06l20.146 45.086m-51.766 92.16l-59.78 62.107 26.914-48.773 20.706-49.12"/><path d="M634.786 557.253l-23.46.794M544.793 672.46l8.92 7.4m4.247-33.907l17.193 11.633m-17.193-11.633l21.067-2.513m-21.067 2.513l-4.247 33.907M380.266 486.8l-65.546 23.98m0 0l-18.86 39.587m-15.14 65.02l-3.92 26.326m0 0l-32.694 10.054m.001 0l-61.48-24.5"/><path d="M182.627 627.267l61.48 33.753m-.667-.367l42.294-12.086"/><path d="M285.227 648.567l7.46-30.674m-110.06 9.374l12.107 14.446 12.36 2.434 9.613 13.433 17.327 3.44 12.68 8.233 21.96-10.76 20.286-1.6 3.727-16.713 9.413-11.633-5.24-9.774m224.013 96.034l-14.22-56.247m0 0l21.394 43.127"/></g></g><path d="M823.44 695.647l-7.94 8.633" stroke="#0f0" class="M"/></g><g class="J"><path d="M151.78 473.427a4.24 4.24 0 0 1-1.614 1.857 4.23 4.23 0 0 1-2.373.648 4.24 4.24 0 0 1-2.334-.778c-.684-.485-1.209-1.161-1.509-1.944a4.25 4.25 0 0 1-.175-2.454 4.24 4.24 0 0 1 3.417-3.241c.826-.142 1.675-.036 2.441.305a4.25 4.25 0 0 1 2.234 2.359c.403 1.051.371 2.22-.087 3.248zm-11.64 11.746c-.342.765-.904 1.412-1.614 1.858a4.24 4.24 0 0 1-2.373.648c-.838-.023-1.65-.294-2.334-.779a4.24 4.24 0 0 1-1.684-4.397c.186-.818.609-1.562 1.217-2.139a4.25 4.25 0 0 1 2.2-1.102c.826-.142 1.676-.036 2.441.305 1.027.46 1.829 1.309 2.232 2.36a4.25 4.25 0 0 1-.085 3.246zm-7.174 31.44a4.24 4.24 0 0 1-1.613 1.858 4.25 4.25 0 0 1-2.374.648c-.838-.023-1.65-.294-2.334-.779a4.24 4.24 0 0 1-1.683-4.397 4.23 4.23 0 0 1 1.217-2.139c.608-.576 1.373-.96 2.199-1.102a4.24 4.24 0 0 1 2.442.305c1.028.459 1.831 1.307 2.234 2.359a4.24 4.24 0 0 1-.088 3.247zm9.307 31.44c-.343.765-.904 1.412-1.614 1.858a4.24 4.24 0 0 1-4.707-.13c-.684-.485-1.209-1.161-1.509-1.944a4.25 4.25 0 0 1-.175-2.454c.186-.818.609-1.562 1.217-2.139a4.24 4.24 0 0 1 2.2-1.102c.826-.142 1.675-.036 2.441.305a4.21 4.21 0 0 1 1.353.956 4.25 4.25 0 0 1 .884 1.402c.199.521.294 1.076.278 1.633a4.23 4.23 0 0 1-.368 1.615zM156 577.96c-.342.766-.904 1.413-1.614 1.859s-1.536.673-2.374.65a4.24 4.24 0 0 1-2.335-.779c-.684-.485-1.21-1.163-1.509-1.946a4.24 4.24 0 0 1-.173-2.456c.186-.817.611-1.561 1.22-2.138a4.23 4.23 0 0 1 2.203-1.099 4.24 4.24 0 0 1 2.442.309c.509.227.968.551 1.351.956s.682.88.881 1.4.293 1.074.277 1.631-.141 1.105-.369 1.613zm26.26 20.147c-.342.766-.903 1.413-1.612 1.86a4.24 4.24 0 0 1-2.374.651c-.838-.022-1.651-.293-2.335-.777a4.25 4.25 0 0 1-1.511-1.944c-.301-.783-.361-1.637-.176-2.455a4.24 4.24 0 0 1 1.218-2.139 4.23 4.23 0 0 1 4.643-.796c.509.226.968.551 1.351.955s.683.88.883 1.4.294 1.074.279 1.631a4.24 4.24 0 0 1-.366 1.614zm35.56 15.413a4.23 4.23 0 0 1-1.612 1.86 4.24 4.24 0 0 1-6.219-2.069c-.3-.783-.361-1.638-.176-2.455a4.24 4.24 0 0 1 5.861-2.936 4.25 4.25 0 0 1 2.231 2.356c.402 1.05.372 2.217-.085 3.244zm-20.487 29.92a4.24 4.24 0 0 1-1.612 1.86c-.709.447-1.535.674-2.374.651a4.23 4.23 0 0 1-4.021-5.176 4.24 4.24 0 0 1 1.217-2.139c.609-.577 1.375-.96 2.201-1.102a4.24 4.24 0 0 1 2.442.306 4.26 4.26 0 0 1 2.229 2.357c.402 1.05.373 2.215-.082 3.243zm22.914 14.3a4.23 4.23 0 0 1-1.612 1.86c-.709.447-1.535.674-2.374.651a4.23 4.23 0 0 1-3.845-2.72 4.24 4.24 0 0 1 1.041-4.595c.609-.577 1.375-.96 2.201-1.102a4.24 4.24 0 0 1 3.793 1.261c.384.405.684.88.883 1.4s.294 1.075.279 1.631a4.24 4.24 0 0 1-.366 1.614zm30.34 13.24c-.342.766-.903 1.413-1.612 1.86s-1.535.674-2.374.651a4.23 4.23 0 0 1-4.021-5.176 4.24 4.24 0 0 1 7.211-1.98 4.25 4.25 0 0 1 .883 1.4c.199.52.294 1.075.279 1.631a4.24 4.24 0 0 1-.366 1.614zm41.733-13.24a4.23 4.23 0 0 1-1.612 1.86c-.709.447-1.535.674-2.373.651a4.23 4.23 0 0 1-2.336-.777 4.24 4.24 0 0 1-1.51-1.943c-.3-.783-.361-1.638-.176-2.456s.609-1.562 1.218-2.139a4.24 4.24 0 0 1 4.643-.796 4.26 4.26 0 0 1 1.351.955c.383.405.683.88.882 1.4s.294 1.075.279 1.631a4.22 4.22 0 0 1-.366 1.614zm12.6-27.46c-.343.765-.905 1.411-1.615 1.856s-1.536.671-2.374.647-1.65-.296-2.334-.781-1.208-1.162-1.507-1.945-.359-1.638-.172-2.455a4.25 4.25 0 0 1 1.219-2.137 4.24 4.24 0 0 1 2.202-1.1c.826-.141 1.676-.034 2.441.308.509.227.968.553 1.351.958a4.23 4.23 0 0 1 1.159 3.034c-.016.558-.142 1.106-.37 1.615zm-49.093-10.654a4.25 4.25 0 0 1-1.616 1.857c-.71.446-1.536.671-2.374.647s-1.65-.296-2.334-.781a4.23 4.23 0 0 1-1.506-1.946 4.24 4.24 0 0 1 5.69-5.383 4.24 4.24 0 0 1 1.351.957c.383.405.682.882.881 1.402s.293 1.076.277 1.633a4.24 4.24 0 0 1-.369 1.614z"/></g><g class="K"><path d="M307.814 621.866c-.342.766-.903 1.414-1.612 1.861s-1.536.673-2.374.651a4.24 4.24 0 0 1-2.336-.777c-.684-.485-1.21-1.161-1.51-1.944s-.361-1.637-.176-2.455a4.24 4.24 0 0 1 3.419-3.242 4.25 4.25 0 0 1 2.442.306c.509.226.969.551 1.353.955a4.24 4.24 0 0 1 .883 1.4 4.25 4.25 0 0 1 .279 1.632c-.016.557-.141 1.105-.368 1.613zm36.472-14.799a4.24 4.24 0 0 1-1.615 1.856c-.71.446-1.536.671-2.374.647s-1.65-.296-2.334-.781-1.208-1.162-1.507-1.945-.359-1.638-.172-2.455.611-1.561 1.22-2.137 1.375-.959 2.201-1.1 1.676-.034 2.441.308a4.24 4.24 0 0 1 2.14 5.607z"/></g><path d="M565.067 607.067a4.24 4.24 0 0 1-1.614 1.857 4.23 4.23 0 0 1-2.373.648 4.24 4.24 0 0 1-2.334-.778c-.684-.485-1.209-1.161-1.509-1.944a4.25 4.25 0 0 1-.175-2.454c.186-.817.609-1.562 1.217-2.138a4.24 4.24 0 0 1 2.2-1.103c.826-.142 1.675-.036 2.441.305 1.027.46 1.829 1.309 2.232 2.36a4.26 4.26 0 0 1-.085 3.247z" class="J"/><path d="M638.534 558.513c-.343.765-.904 1.412-1.614 1.858a4.24 4.24 0 0 1-4.707-.13c-.684-.485-1.209-1.161-1.509-1.944s-.361-1.637-.175-2.454a4.24 4.24 0 0 1 1.217-2.139c.608-.576 1.374-.96 2.2-1.102s1.675-.036 2.441.305c1.028.459 1.831 1.307 2.234 2.359a4.25 4.25 0 0 1-.087 3.247z" class="K"/><path d="M579.027 643.44a4.23 4.23 0 0 1-1.613 1.859 4.24 4.24 0 0 1-4.71-.129 4.25 4.25 0 0 1-1.509-1.946c-.299-.783-.359-1.638-.173-2.456s.611-1.561 1.22-2.138a4.24 4.24 0 0 1 4.645-.79c1.025.46 1.826 1.308 2.227 2.358s.37 2.215-.087 3.242z" class="J"/><g class="K"><path d="M563.28 647.68a4.24 4.24 0 0 1-3.988 2.509 4.23 4.23 0 0 1-2.335-.78c-.684-.485-1.209-1.162-1.509-1.945a4.24 4.24 0 0 1 1.047-4.594 4.24 4.24 0 0 1 4.645-.79c.509.227.968.551 1.351.956s.682.88.881 1.4.293 1.074.277 1.631-.141 1.105-.369 1.613zm15.747 11.654a4.24 4.24 0 0 1-6.321 1.727c-.684-.485-1.209-1.161-1.509-1.944a4.25 4.25 0 0 1-.175-2.454 4.23 4.23 0 0 1 1.217-2.138 4.24 4.24 0 0 1 2.2-1.103c.826-.142 1.675-.036 2.441.305a4.24 4.24 0 0 1 2.234 2.359c.403 1.051.371 2.219-.087 3.248zm-30.36 14.853c-.342.765-.904 1.412-1.614 1.859a4.23 4.23 0 0 1-2.374.649c-.839-.023-1.651-.294-2.335-.779a4.24 4.24 0 0 1-1.682-4.401c.186-.818.611-1.562 1.22-2.138s1.376-.959 2.203-1.1a4.23 4.23 0 0 1 2.442.31c.509.226.968.551 1.351.955a4.23 4.23 0 0 1 .881 1.401c.199.52.293 1.074.277 1.631a4.24 4.24 0 0 1-.369 1.613zm8.92 7.4c-.342.766-.903 1.413-1.612 1.86s-1.535.674-2.374.651a4.24 4.24 0 0 1-3.845-2.721c-.3-.783-.362-1.637-.176-2.455a4.24 4.24 0 0 1 3.418-3.241 4.23 4.23 0 0 1 2.442.306c1.026.459 1.829 1.306 2.231 2.356a4.25 4.25 0 0 1-.084 3.244zm-23.387 23.92c-.341.765-.902 1.413-1.612 1.86a4.24 4.24 0 0 1-4.709-.126c-.685-.484-1.21-1.161-1.51-1.944s-.362-1.637-.176-2.455a4.24 4.24 0 0 1 3.418-3.241 4.23 4.23 0 0 1 2.442.306c.509.226.968.551 1.351.955a4.24 4.24 0 0 1 .883 1.4c.199.52.294 1.074.279 1.631a4.24 4.24 0 0 1-.366 1.614z"/></g><path d="M604.666 690.373c-.343.765-.905 1.411-1.615 1.857a4.25 4.25 0 0 1-2.374.647c-.838-.024-1.65-.296-2.334-.781a4.25 4.25 0 0 1-1.507-1.946c-.299-.783-.359-1.637-.172-2.455s.611-1.561 1.22-2.137a4.23 4.23 0 0 1 2.201-1.099c.826-.141 1.676-.034 2.441.308.509.227.968.552 1.352.957s.682.882.881 1.402.293 1.076.277 1.633a4.24 4.24 0 0 1-.37 1.614z" class="J"/><g class="K"><path d="M632.78 468.833a4.24 4.24 0 0 1-1.613 1.86c-.71.446-1.537.672-2.375.649a4.24 4.24 0 0 1-2.335-.779c-.684-.485-1.209-1.162-1.509-1.946s-.359-1.638-.173-2.455.611-1.562 1.22-2.139a4.24 4.24 0 0 1 4.645-.79c.509.227.968.552 1.351.956s.682.88.881 1.4.293 1.075.277 1.631a4.24 4.24 0 0 1-.369 1.613zm41.027 24.5c-.342.765-.904 1.412-1.614 1.858a4.24 4.24 0 0 1-4.707-.13c-.684-.485-1.209-1.161-1.508-1.944a4.24 4.24 0 0 1 1.041-4.592c.609-.577 1.374-.961 2.2-1.103s1.676-.036 2.441.305a4.24 4.24 0 0 1 2.147 5.606zm31.246 27.6c-.342.765-.904 1.412-1.614 1.858a4.24 4.24 0 0 1-2.373.648c-.838-.023-1.65-.294-2.334-.779a4.23 4.23 0 0 1-1.508-1.943 4.24 4.24 0 0 1-.176-2.454c.186-.818.609-1.562 1.217-2.139a4.25 4.25 0 0 1 2.2-1.102 4.24 4.24 0 0 1 2.442.305c1.027.459 1.831 1.307 2.233 2.359a4.24 4.24 0 0 1-.087 3.247z"/></g><g class="J"><path d="M730.46 552.98c-.343.765-.905 1.411-1.615 1.856s-1.536.671-2.374.647-1.65-.295-2.334-.781a4.24 4.24 0 0 1-1.507-1.945c-.299-.783-.359-1.638-.172-2.455s.611-1.561 1.22-2.137a4.24 4.24 0 0 1 2.201-1.1c.827-.141 1.676-.033 2.441.308a4.25 4.25 0 0 1 2.23 2.361c.401 1.051.369 2.219-.09 3.246zM746 587.547c-.342.765-.904 1.412-1.614 1.859s-1.536.673-2.374.65a4.24 4.24 0 0 1-3.844-2.725 4.24 4.24 0 0 1-.173-2.456c.186-.818.611-1.562 1.22-2.138s1.376-.959 2.203-1.1a4.24 4.24 0 0 1 2.442.31c1.025.46 1.826 1.308 2.227 2.358s.37 2.215-.087 3.242zm16.06 38.233c-.342.765-.904 1.411-1.614 1.857a4.24 4.24 0 0 1-2.373.649c-.838-.023-1.65-.294-2.334-.779a4.24 4.24 0 0 1-1.509-1.944 4.25 4.25 0 0 1-.175-2.454c.186-.817.609-1.561 1.217-2.138a4.24 4.24 0 0 1 2.2-1.102c.826-.142 1.676-.036 2.441.304 1.028.459 1.832 1.308 2.234 2.359a4.25 4.25 0 0 1-.087 3.248zm11.373 28.76c-.343.765-.905 1.411-1.615 1.856a4.24 4.24 0 0 1-2.375.647 4.23 4.23 0 0 1-2.333-.781c-.684-.485-1.208-1.162-1.507-1.945s-.359-1.638-.173-2.455.611-1.561 1.22-2.137 1.375-.959 2.201-1.1a4.25 4.25 0 0 1 4.672 2.669c.401 1.051.369 2.219-.09 3.246zm24.268 40.407c-.343.765-.906 1.411-1.616 1.856s-1.536.671-2.374.647-1.65-.296-2.334-.781a4.23 4.23 0 0 1-1.506-1.945 4.25 4.25 0 0 1-.173-2.455c.186-.817.611-1.561 1.22-2.137s1.375-.959 2.201-1.1a4.24 4.24 0 0 1 2.442.308c.509.227.968.553 1.351.958a4.24 4.24 0 0 1 .881 1.402 4.23 4.23 0 0 1 .277 1.632c-.016.558-.141 1.106-.369 1.615zm35.892 24.8a4.24 4.24 0 0 1-1.613 1.857c-.71.446-1.536.672-2.374.649a4.25 4.25 0 0 1-2.334-.779c-.684-.485-1.209-1.161-1.508-1.944a4.24 4.24 0 0 1 1.042-4.592c.608-.577 1.373-.961 2.199-1.103a4.24 4.24 0 0 1 2.442.305c.509.227.969.552 1.353.956a4.25 4.25 0 0 1 .883 1.402c.199.521.294 1.076.279 1.633a4.25 4.25 0 0 1-.369 1.616zm44.181-2.254a4.24 4.24 0 0 1-1.616 1.857c-.71.445-1.536.671-2.374.647a4.24 4.24 0 0 1-4.013-5.181c.187-.818.611-1.561 1.22-2.138a4.24 4.24 0 0 1 4.643-.791 4.23 4.23 0 0 1 1.351.957c.383.405.682.882.881 1.402s.293 1.076.277 1.633a4.24 4.24 0 0 1-.369 1.614zm34.846-19.546c-.343.765-.905 1.411-1.615 1.856s-1.536.671-2.374.647-1.65-.296-2.334-.781-1.208-1.162-1.507-1.945-.359-1.638-.172-2.455.611-1.561 1.22-2.137 1.375-.959 2.201-1.1 1.676-.034 2.441.308c1.027.46 1.829 1.31 2.23 2.361a4.24 4.24 0 0 1-.09 3.246zm-7.78-37.094c-.342.766-.903 1.413-1.612 1.86s-1.536.674-2.374.652-1.651-.293-2.335-.777a4.25 4.25 0 0 1-1.511-1.944c-.3-.783-.361-1.637-.176-2.455a4.24 4.24 0 0 1 3.419-3.242 4.25 4.25 0 0 1 2.442.306c.51.226.969.551 1.353.955s.684.879.883 1.4.294 1.074.279 1.631a4.22 4.22 0 0 1-.368 1.614zm-261.94 60.88c-.343.765-.904 1.412-1.614 1.858a4.24 4.24 0 0 1-2.373.648c-.838-.023-1.65-.294-2.334-.779a4.24 4.24 0 0 1-1.509-1.943 4.25 4.25 0 0 1-.175-2.454c.186-.818.609-1.562 1.217-2.139a4.24 4.24 0 0 1 2.2-1.102c.826-.142 1.675-.036 2.441.305 1.027.46 1.829 1.309 2.232 2.36a4.25 4.25 0 0 1-.085 3.246zm30.907 22.434c-.342.766-.903 1.413-1.612 1.86a4.24 4.24 0 0 1-6.22-2.07c-.3-.783-.361-1.637-.176-2.455a4.24 4.24 0 0 1 1.218-2.139 4.23 4.23 0 0 1 4.643-.796c.509.226.968.551 1.351.955s.683.88.882 1.4.295 1.074.28 1.631a4.24 4.24 0 0 1-.366 1.614zm33.88 0c-.342.766-.903 1.413-1.612 1.86a4.24 4.24 0 0 1-6.22-2.07c-.3-.783-.361-1.637-.176-2.455a4.24 4.24 0 0 1 1.218-2.139 4.23 4.23 0 0 1 4.643-.796c.509.226.968.551 1.351.955s.683.88.882 1.4.295 1.074.28 1.631a4.26 4.26 0 0 1-.366 1.614z"/></g><g class="K"><path d="M392.54 581.333c-.343.765-.905 1.411-1.615 1.857s-1.536.671-2.374.647-1.65-.296-2.334-.781a4.24 4.24 0 0 1-1.507-1.946 4.23 4.23 0 0 1-.172-2.454 4.24 4.24 0 0 1 3.421-3.237c.826-.141 1.676-.034 2.441.308.509.227.969.552 1.352.957s.682.882.881 1.402.293 1.076.277 1.633-.141 1.106-.37 1.614zm39.074-34.926a4.24 4.24 0 0 1-3.987 2.506 4.25 4.25 0 0 1-2.334-.779c-.684-.485-1.209-1.161-1.509-1.944a4.25 4.25 0 0 1-.175-2.454 4.24 4.24 0 0 1 3.417-3.241c.826-.142 1.675-.036 2.441.305a4.25 4.25 0 0 1 2.234 2.359c.403 1.051.371 2.22-.087 3.248z"/></g><g class="J"><path d="M468.133 556.34a4.24 4.24 0 0 1-1.617 1.856c-.71.445-1.537.669-2.375.645a4.24 4.24 0 0 1-3.838-2.731c-.299-.783-.358-1.638-.17-2.455a4.24 4.24 0 0 1 1.222-2.136 4.25 4.25 0 0 1 5.996.172 4.24 4.24 0 0 1 .881 1.402c.199.521.293 1.076.277 1.633a4.24 4.24 0 0 1-.369 1.614M452.413 629a4.24 4.24 0 0 1-1.613 1.857c-.71.446-1.536.672-2.374.649a4.23 4.23 0 0 1-2.333-.779 4.24 4.24 0 0 1-1.509-1.944 4.23 4.23 0 0 1-.175-2.454 4.24 4.24 0 0 1 1.217-2.138c.608-.577 1.373-.96 2.199-1.102s1.676-.036 2.442.304a4.25 4.25 0 0 1 2.234 2.359c.402 1.052.371 2.22-.088 3.248zm-39.246 51.813a4.24 4.24 0 0 1-1.614 1.86c-.71.446-1.536.672-2.374.649a4.24 4.24 0 0 1-2.335-.779 4.23 4.23 0 0 1-1.509-1.946c-.299-.783-.36-1.638-.173-2.455s.611-1.562 1.22-2.139a4.23 4.23 0 0 1 2.203-1.099 4.24 4.24 0 0 1 2.442.309c.509.227.968.552 1.351.956s.682.88.881 1.4.293 1.075.277 1.631a4.24 4.24 0 0 1-.369 1.613zm-50.827 47.054a4.25 4.25 0 0 1-1.612 1.86c-.71.447-1.536.673-2.374.651s-1.651-.293-2.335-.777a4.25 4.25 0 0 1-1.511-1.944c-.301-.783-.361-1.637-.176-2.455a4.24 4.24 0 0 1 3.419-3.242 4.25 4.25 0 0 1 2.442.306c.509.226.969.551 1.353.955s.684.88.883 1.4a4.23 4.23 0 0 1 .279 1.632c-.015.557-.14 1.105-.368 1.614zm-44.72 19.68a4.24 4.24 0 0 1-1.614 1.857c-.71.446-1.536.672-2.373.648a4.24 4.24 0 0 1-2.334-.778c-.684-.485-1.209-1.161-1.509-1.944s-.361-1.637-.175-2.454.609-1.562 1.217-2.138 1.373-.961 2.2-1.103 1.675-.036 2.441.305a4.25 4.25 0 0 1 2.147 5.607zm-39.853 2c-.342.765-.904 1.411-1.614 1.857a4.23 4.23 0 0 1-2.373.648 4.24 4.24 0 0 1-2.334-.778c-.684-.485-1.209-1.161-1.508-1.944a4.24 4.24 0 0 1-.176-2.454c.186-.817.609-1.562 1.217-2.138a4.25 4.25 0 0 1 2.2-1.103c.826-.142 1.676-.036 2.441.305a4.24 4.24 0 0 1 1.354.956 4.25 4.25 0 0 1 .883 1.402c.199.521.294 1.076.279 1.633a4.25 4.25 0 0 1-.369 1.616z"/></g><g class="K"><path d="M457.86 513.9a4.24 4.24 0 0 1-3.987 2.506 4.25 4.25 0 0 1-2.334-.779c-.684-.485-1.209-1.161-1.509-1.944a4.25 4.25 0 0 1-.175-2.454c.186-.817.609-1.561 1.217-2.138a4.24 4.24 0 0 1 2.2-1.102c.826-.142 1.675-.036 2.441.304 1.028.459 1.832 1.308 2.234 2.359a4.25 4.25 0 0 1-.087 3.248zm77.967-66.567a4.23 4.23 0 0 1-1.612 1.86c-.709.448-1.535.674-2.373.652a4.25 4.25 0 0 1-2.336-.777 4.24 4.24 0 0 1-1.51-1.944c-.3-.783-.362-1.637-.176-2.455a4.24 4.24 0 0 1 1.217-2.139c.609-.577 1.375-.961 2.201-1.103a4.24 4.24 0 0 1 2.442.306c.509.227.968.552 1.351.956a4.24 4.24 0 0 1 .883 1.4c.199.52.294 1.074.279 1.631a4.23 4.23 0 0 1-.366 1.613zM518.12 466c-.343.765-.905 1.411-1.615 1.856s-1.536.671-2.374.647-1.65-.295-2.334-.781a4.24 4.24 0 0 1-1.507-1.945c-.299-.783-.359-1.638-.172-2.455s.611-1.561 1.22-2.137 1.375-.959 2.201-1.1 1.676-.033 2.441.308c.509.228.969.553 1.352.958a4.24 4.24 0 0 1 .881 1.402c.199.521.293 1.076.277 1.633s-.141 1.105-.37 1.614zm25.973 19.22c-.343.765-.905 1.411-1.615 1.856s-1.536.671-2.374.647-1.65-.295-2.334-.781a4.24 4.24 0 0 1-1.507-1.945c-.299-.783-.359-1.638-.172-2.455s.61-1.561 1.219-2.137a4.24 4.24 0 0 1 2.202-1.1c.826-.141 1.676-.033 2.441.308a4.25 4.25 0 0 1 2.23 2.361c.401 1.051.369 2.219-.09 3.246z"/></g><g class="J"><path d="M352.766 409.333a4.24 4.24 0 0 1-1.613 1.86c-.71.446-1.536.672-2.375.649a4.24 4.24 0 0 1-2.335-.779c-.684-.485-1.209-1.162-1.508-1.946s-.36-1.638-.174-2.455a4.24 4.24 0 0 1 1.221-2.139 4.23 4.23 0 0 1 2.202-1.099 4.24 4.24 0 0 1 2.442.309c.509.227.968.552 1.351.956a4.22 4.22 0 0 1 .881 1.4c.199.52.293 1.075.278 1.631a4.22 4.22 0 0 1-.37 1.613zM252.04 363.56c-.342.766-.904 1.413-1.614 1.859s-1.536.673-2.374.65a4.24 4.24 0 0 1-3.844-2.725 4.24 4.24 0 0 1-.173-2.456c.186-.818.611-1.562 1.22-2.138s1.376-.959 2.203-1.1a4.24 4.24 0 0 1 2.442.31c.509.226.968.551 1.351.955a4.25 4.25 0 0 1 .881 1.401c.199.52.293 1.074.277 1.631s-.141 1.105-.369 1.613zm9.334-56.367a4.25 4.25 0 0 1-1.614 1.858c-.71.446-1.536.671-2.374.648a4.23 4.23 0 0 1-2.333-.779c-.684-.484-1.209-1.16-1.509-1.943s-.361-1.637-.175-2.454a4.24 4.24 0 0 1 1.217-2.139c.608-.576 1.373-.96 2.199-1.102a4.24 4.24 0 0 1 2.442.305c1.028.459 1.831 1.307 2.234 2.359a4.25 4.25 0 0 1-.087 3.247zm46.346-41.253a4.24 4.24 0 0 1-1.614 1.859c-.71.447-1.536.673-2.374.65a4.24 4.24 0 0 1-4.018-5.181c.187-.817.611-1.561 1.221-2.138s1.376-.959 2.202-1.099a4.25 4.25 0 0 1 2.443.309c.508.227.967.551 1.35.956s.683.88.882 1.4a4.24 4.24 0 0 1 .277 1.631c-.016.557-.141 1.105-.369 1.613zm119.1-36.747c-.343.765-.904 1.412-1.614 1.858a4.24 4.24 0 0 1-2.373.648c-.838-.023-1.65-.294-2.334-.779a4.24 4.24 0 0 1-1.509-1.943 4.25 4.25 0 0 1-.175-2.454 4.24 4.24 0 0 1 1.217-2.139c.608-.576 1.374-.96 2.2-1.102s1.675-.036 2.441.305a4.24 4.24 0 0 1 2.234 2.359c.403 1.051.371 2.219-.087 3.247zm-14.073 113.094c-.342.765-.904 1.412-1.614 1.859s-1.536.673-2.374.65a4.24 4.24 0 0 1-3.844-2.725 4.24 4.24 0 0 1-.173-2.456c.186-.818.611-1.562 1.22-2.138s1.376-.959 2.203-1.1a4.24 4.24 0 0 1 2.442.31c1.026.459 1.828 1.306 2.229 2.357a4.24 4.24 0 0 1-.089 3.243zm31.953-93.96c-.341.765-.902 1.413-1.612 1.86s-1.535.674-2.373.651a4.24 4.24 0 0 1-2.336-.777c-.685-.484-1.21-1.161-1.51-1.944s-.362-1.637-.176-2.455a4.24 4.24 0 0 1 3.418-3.241c.827-.142 1.677-.036 2.443.306.509.226.969.55 1.352.954a4.24 4.24 0 0 1 .884 1.4 4.23 4.23 0 0 1 .278 1.632c-.015.557-.14 1.105-.368 1.614zm55.86-12.074c-.342.766-.903 1.414-1.612 1.861s-1.536.673-2.374.651a4.25 4.25 0 0 1-2.336-.777c-.684-.485-1.21-1.161-1.51-1.944s-.361-1.637-.176-2.455a4.24 4.24 0 0 1 3.419-3.242 4.25 4.25 0 0 1 2.442.306c.509.227.968.552 1.351.956s.683.88.882 1.4.295 1.074.28 1.631a4.25 4.25 0 0 1-.366 1.613zm54.48 37.08a4.24 4.24 0 0 1-3.988 2.509c-.839-.023-1.651-.294-2.335-.779a4.23 4.23 0 0 1-1.509-1.946c-.299-.783-.36-1.638-.173-2.455s.611-1.562 1.22-2.139a4.23 4.23 0 0 1 2.203-1.099 4.24 4.24 0 0 1 2.442.309c.509.227.968.552 1.351.956s.682.88.881 1.4.293 1.075.277 1.631a4.24 4.24 0 0 1-.369 1.613zm73.5 99.82c-.343.765-.905 1.411-1.615 1.857a4.25 4.25 0 0 1-2.374.647c-.838-.024-1.65-.296-2.334-.781a4.25 4.25 0 0 1-1.507-1.946c-.299-.783-.359-1.637-.172-2.455a4.24 4.24 0 0 1 1.22-2.137c.609-.576 1.375-.959 2.201-1.099s1.676-.034 2.441.308c.509.227.968.552 1.352.957s.682.882.881 1.402.293 1.076.277 1.633a4.24 4.24 0 0 1-.37 1.614zM462.1 473.427c-.342.765-.904 1.411-1.614 1.857a4.23 4.23 0 0 1-2.373.648 4.24 4.24 0 0 1-2.334-.778c-.684-.485-1.209-1.161-1.508-1.944a4.24 4.24 0 0 1-.176-2.454c.186-.817.609-1.561 1.217-2.138a4.24 4.24 0 0 1 2.2-1.103c.826-.142 1.676-.036 2.441.305.51.227.97.552 1.354.956a4.25 4.25 0 0 1 .883 1.402c.199.521.294 1.076.279 1.633a4.25 4.25 0 0 1-.369 1.616zm-67.094-8.834a4.24 4.24 0 0 1-1.613 1.857c-.71.446-1.536.672-2.374.649s-1.65-.294-2.334-.779a4.24 4.24 0 0 1-1.683-4.397 4.24 4.24 0 0 1 1.217-2.139c.608-.577 1.373-.96 2.199-1.102a4.24 4.24 0 0 1 2.442.305 4.25 4.25 0 0 1 2.234 2.359c.402 1.051.371 2.219-.088 3.247z"/></g><path d="M653.38 343.147c-.38 1.481-1.191 2.817-2.331 3.837s-2.556 1.68-4.07 1.896a7.74 7.74 0 0 1-7.746-3.72 7.73 7.73 0 0 1 .473-8.58c.918-1.223 2.179-2.146 3.622-2.653s3.004-.574 4.485-.194a7.74 7.74 0 0 1 4.731 3.556c1.043 1.764 1.344 3.871.836 5.858z" fill="#311a49"/><path d="M216.32 383.693a7.74 7.74 0 0 1-2.327 3.847c-1.14 1.024-2.557 1.686-4.073 1.904s-3.062-.019-4.444-.68-2.535-1.718-3.316-3.036a7.73 7.73 0 0 1-1.069-4.366 7.74 7.74 0 0 1 1.537-4.225 7.75 7.75 0 0 1 3.627-2.657c1.445-.507 3.008-.575 4.491-.193 1.985.512 3.685 1.789 4.73 3.552a7.75 7.75 0 0 1 .844 5.854z" fill="#292a29"/><g fill="#311a49"><path d="M102.234 450a7.74 7.74 0 0 1-6.404 5.728c-1.514.214-3.058-.025-4.436-.688s-2.529-1.718-3.307-3.035a7.73 7.73 0 0 1-1.064-4.361c.084-1.527.62-2.994 1.538-4.217a7.73 7.73 0 0 1 3.621-2.653 7.74 7.74 0 0 1 4.485-.194c1.987.512 3.69 1.791 4.733 3.558a7.74 7.74 0 0 1 .834 5.862zm381.52 296.187c-.381 1.479-1.192 2.812-2.331 3.831a7.73 7.73 0 0 1-4.066 1.891 7.72 7.72 0 0 1-4.432-.686c-1.377-.661-2.527-1.716-3.304-3.031a7.72 7.72 0 0 1 .47-8.57 7.73 7.73 0 0 1 3.616-2.652c1.441-.507 3-.575 4.48-.197 1.987.511 3.689 1.789 4.733 3.554s1.344 3.873.834 5.86z"/></g><path d="M795.713 778.06a14.31 14.31 0 0 1-4.316 7.105 14.32 14.32 0 0 1-15.751 2.242 14.31 14.31 0 0 1-6.127-5.618 14.32 14.32 0 0 1-1.974-8.075c.155-2.828 1.145-5.546 2.845-7.811a14.32 14.32 0 0 1 6.705-4.915c2.672-.939 5.562-1.065 8.305-.361 3.679.945 6.832 3.312 8.766 6.581s2.49 7.173 1.547 10.852z" fill="#292a29"/></g><defs><clipPath id="A"><path d="M0 0h1000v1000H0z" class="J"/></clipPath></defs></svg>