<svg xmlns="http://www.w3.org/2000/svg" width="1000" height="1000" fill="none" xmlns:v="https://vecta.io/nano"><style><![CDATA[.B{stroke-miterlimit:10}.C{fill:#8663aa}.D{fill:#643e81}.E{fill:#572d6a}.F{fill:#9857a2}.G{fill:#39214f}.H{fill:#fff}.I{fill:#d3398b}.J{fill:#873582}.K{fill:#804696}.L{fill:#685d70}.M{fill:#674783}.N{fill:#311a49}]]></style><g clip-path="url(#A)"><path d="M737.333 385.607L772.76 399.1l-50.5 95.533 15.073-109.026z" class="D"/><path d="M369.96 577.053l56.393 43.727-115.893 37.267 59.5-80.994z" class="E"/><path d="M781.2 712.687l6.947 29.373-82.327.227 75.38-29.6z" class="G"/><path d="M478.953 647.56l51.8-21.7-15.16 52.087-36.64-30.387z" class="C"/><path d="M462.326 673.513l89.593 6.227 46.427-46.18-136.02 39.953z" class="D"/><path d="M166.087 708.493l64.867-30.546 10.58 37.226-75.447-6.68z" class="E"/><g class="D"><path d="M94.62 721.66l68.68-35.653 37.16 35.906-105.84-.253zm98.5-27.58l70.987-16.1 31.306 49.653L193.12 694.08z"/></g><path d="M373.633 576.113l95.933-25.953 9.507 81.14-105.44-55.187z" fill="#7d4f9a"/><path d="M270.333 723.6L333.3 650l20.066 69.987-83.033 3.613z" class="D"/><g class="I"><path d="M175.813 665.953l-82.753 40.9 92.186-18.613-7.146-22.46m232.933-88.727L356.84 584.6l34.22 22.393 19.973-29.94z"/></g><g class="G"><path d="M336.106 706.407c1.334 0 45.927-9.847 45.927-9.847l-2.987 27.04-42.94-17.193zm205.101-14.18l35.086 15.693-53.753 28.233 18.667-43.926zm65.359-79.2l69.494-16.74-28.987 39.046-40.507-22.306z"/></g><g class="C"><path d="M520.74 652.053l63.907 34.747-9.427-51.467-54.48 16.72zm101.547 8.194l24.787 57.786 32.393-42.606-57.18-15.18zm174.653 54.926c-4 1.007-48.553 22.667-48.553 22.667l-47.407-55.053 95.96 32.386z"/></g><path d="M770 709.087l25.714 18.4-49.467 16.633L770 709.087z" class="I"/><path d="M753.067 721.913v23.96L631.273 726.6l121.794-4.687z" class="F"/><path d="M579.24 695.933l56.06-17.986 26.987 62.28-83.047-44.294z" class="J"/><path d="M456.833 671.513c3.167-4.3 13.72-26.846 13.72-26.846l39.18 17.06-52.9 9.786z" class="I"/><path d="M445.007 767.033l38.273-7.2-25.273 42.6-13-35.4z" fill="#61174c"/><path d="M452.04 775.7l-1.526 24.373 23.626-1.58-22.1-22.793z" class="J"/><path d="M464.973 768.067l-2.647 38.14 20.954-22.427-18.307-15.713z" class="D"/><path d="M483.28 762.927l-4.327 29.88 27.787 6.413-23.46-36.293z" class="E"/><path d="M468.526 808.04l23.874-20.16 10.553 33.407-34.427-13.247z" class="F"/><path d="M492.854 800.053l19.54 3.094-7.54 13.96-12-17.054z" class="E"/><path d="M506.74 825.633l3.474-21.986 8.62 9.966-12.094 12.02z" class="C"/><g class="G"><path d="M625.68 585.313l57.333 5.42 42.433-92.306-99.766 86.886zm97.947-118.326l13.707 37.026 24.34-48.446-38.047 11.42z"/><path d="M778.986 389.647l-36.34 77.34 50.767-67.394-14.427-9.946z"/></g><path d="M700.98 498.427l32.26 5.586-18.846 30.687-13.414-36.273z" class="D"/><path d="M565.113 628.993l41.454-6 11.053 83.414-52.507-77.414z" class="C"/><path d="M740.507 385.607l49.306 4.033 7.127-56.167-56.433 52.134z" class="D"/><path d="M757.62 414.38l19.073 17.053 5.987-72.166-25.06 55.113z" class="J"/><path d="M774.62 297.58l26.9 8.067-.547 55.093-26.353-63.16z" class="G"/><path d="M639.333 704.753l36.233-8.193 51.414 47.56-87.647-39.367z" class="K"/><path d="M668.32 662.573l24.64 12.76-24.64 29.42v-42.18z" class="C"/><path d="M621.193 633.56l26.926 21.88-73.986 40.4 47.06-62.28z" class="F"/><path d="M174.587 729.913L237.6 719.3l-9.233 33.367-53.78-22.754z" class="G"/><path d="M105.406 733.32l62.967-22.56 28.793 38.313-91.76-15.753z" fill="#6e2467"/><path d="M302.993 723.6l76.207 2.92-50.147 45.287-26.06-48.207z" class="G"/><path d="M227.42 729.913l69.887-20.426 3.793 57.546-73.68-37.12z" fill="#491135"/><path d="M250.413 715.833l18.493 15.994 68.98-22.34-87.473 6.346z" fill="#872269"/><path d="M524.007 683.933l3.86 54.894-133.047 28.206 129.187-83.1z" class="G"/><path d="M337.887 749.073L350.38 775.7l90.56-27.867-103.053 1.24z" fill="#61174c"/><g class="E"><path d="M430.66 671.673l36.127 10.307-16.273 62.053-19.854-72.36zm-71.587 36.18l-7.74 26.127 38.08 21.82-30.34-47.947z"/></g><g class="G"><path d="M440.94 664.7l-75.4 11.173 27.487 70L440.94 664.7z"/><path d="M370.367 738.26l66.227-36.92 7.813 44.533-74.04-7.613z"/></g><path d="M661.526 681.98l52.867 1.953 14.727 47.72-67.594-49.673z" class="F"/><path d="M533.6 625.86l105.733 16.147-60.88-27.38L533.6 625.86z" fill="#b73691"/><path d="M518.12 639.22l43.273 46.787 3.72-61.56-46.993 14.773z" class="F"/><path d="M157.413 667.42l36.467 35.387 50.386-65.347-86.853 29.96z" class="C"/><path d="M227.42 637.72l51.02-4.16-58.9 60.293 7.88-56.133z" class="K"/><g class="F"><path d="M237.6 667.42l15.993 26.66 58.253-13.5-74.246-13.16zm200.846-70.353l18.647 49.78-105.76 8.88 87.113-58.66z"/></g><path d="M391.06 675.427l-72.86 5.146 86.267-43.113-13.407 37.967z" class="C"/><path d="M434.42 605.747l40.427 20.113-52.72 70.7 12.293-90.813z" class="D"/><g class="C"><path d="M262.96 628.32l-12.02 39.1 73.227 8.453-61.207-47.553zm9.974 0l60.366-32.033 32.24 42.74-92.606-10.707z"/></g><path d="M370.367 715.173l20.694-19.24 42.433 6.874-63.127 12.366z" class="I"/><path d="M382.027 698.9l-8.394-19.907-24.206 12.14 32.6 7.767z" class="C"/><path d="M467.6 579.76l22.786 56.453 137.574-39.94L467.6 579.76z" class="D"/><path d="M683.16 441.04l57.987-12.2-36.14 89.373-21.847-77.173z" class="C"/><path d="M493.42 562.873l25.413 34.194 22.527-37.174-47.94 2.98z" class="F"/><path d="M466.453 693.453L488.42 729.5l43.3-26.247-65.267-9.8z" class="E"/><path d="M631.273 452.387l56.48 38.046L545.387 599.26l85.886-146.873z" class="F"/><path d="M611.127 477.36l-43.233 35.347 26.493 74.586 16.74-109.933z" class="C"/><path d="M692.173 516.567l-64.213-11.654-7.193 97.407 71.406-85.753z" class="E"/><path d="M652.84 451.693v34.674l56.2-4.26-56.2-30.414z" class="K"/><path d="M582.34 518.213l-60.02 11.307 19.3 76.2 40.72-87.507z" class="I"/><path d="M452.467 550.16l26.606 26.893 92.854-40.113-119.46 13.22z" class="C"/><path d="M778.647 287.747l22.873-3.394-54.006 140.254 31.133-136.86z" class="F"/><path d="M911.44 180.253l-1.7 25.6-33.247 13.267 34.947-38.867z" class="I"/><path d="M762.42 186.427l38.553 27.953-7.56 77.4-30.993-105.353z" class="D"/><path d="M790.727 231.913l72.346-2.953-57.273 34.227-15.073-31.274z" class="E"/><path d="M893.973 217.28l-6.733 24.113-77.66 11.374 84.393-35.487z" fill="#491135"/><path d="M814.247 239.1l-24.434 56.707 56.674-32.62-32.24-24.087z" class="E"/><g stroke="#fff" class="B"><g stroke-width="1.42"><path d="M470.554 637.267L492.4 678.993"/><path d="M807.254 714.42l-23.133 36.02-132.241-9.467-106.493-58.993-52.987-2.987-43.726-3.566 21.88-38.16 101.373-27.514L635.3 631.3l22.314 21.88 66.933 33.933 81.8 27.394-25.146 30.72-130.174-10.534-50.033-32.493-56.374-33.507-74.066-31.426M440.939 764.42l9.18 39.227 60.094 26.326 10.526-16.046-31.733-46.894.687-11.4"/><path d="M588.514 705.867l-33.5 21.006-65.321 28.76-48.753 8.787-51.88 8.893-18.586 8.18-188.9-31.586-61.547-5.874L84.2 727.467l10-29.127 103.82-50.78 60.814-21.7 73.353-33.567 58.713-26.48 55.98-18.306 114.514-34.8 71.966-68.787 71.793-12.547 47.267-72.106 26.767-83.64 11.36-68.174 15.253 85.714-4.827 96.473-78.713 155.733-76.04 96.634"/><path d="M805.553 291.78l83.994-45.387 25.606-47.6-74.326 30.4-17.887-3.213-32.22-22.807-33.1-23.86 21.027 97.987 26.906 14.48z"/><path d="M884 211.133l29.767-37.08 1.386 24.74M84.2 727.467l27.754-12.454 140.586-5.926 138.24-15.007 57.894-18.653"/></g><g stroke-width=".71"><path d="M544.62 668.693l.767 13.287m105.639 52.713l.854 6.28m138.84-537.8l-24.953 14.107m57.173 8.7l-17.386 65.8m35.272-62.587l48.72 17.2M752.42 359.267l-30.16 186.106m30.16-186.106l48.553 30.373m-95.813 41.733l18.467 105.567"/><path d="M633.36 443.92l90.267 93.02m-162.233-24.233L635.3 631.3"/><path d="M561.394 512.707l143.766-81.334m0 0l95.813-41.733m0 0L778.646 277.3"/><path d="M805.553 291.78l-53.133 67.487m-302.3 444.38l38.887-36.614m1.38 54.254l17.4-26.5m2.427 35.186l-2.427-35.186m0 0l-57.667 8.86"/><path d="M489.007 767.033l1.38 54.254m-1.381-54.254l-48.067-2.613m103.681-95.727l27.307-58.94"/><path d="M544.62 668.693L635.3 631.3"/><path d="M646.22 642.007l-101.6 26.686m106.406 66l73.52-47.58M657.62 653.18l-70.674 40.673m146.747 47.534l25.114-42.8"/><path d="M781.2 745.227l-22.393-46.64m-.001 0L652.84 733.98m0 0l4.78-80.8M635.3 631.3l-48.354 62.553"/><path d="M586.946 693.853l137.6-6.74m.001 0l9.147 54.274m-263.14-104.12L390.78 694.08M94.2 698.34l17.754 16.673"/><path d="M571.927 609.753l-10.533-97.046M390.78 694.08l10.094-13.5 160.52-167.873M111.953 715.013L275.82 682.78m0 0l120.574-30.727"/><path d="M396.394 652.053l74.16-14.786M275.82 682.78l98.814 8.353 16.146 2.947m-114.96-11.3l-23.28 26.307m196.133-33.66l-16.42 67.086"/><path d="M432.253 742.513l8.687 21.907M635.3 631.3l88.326-94.36M84.2 727.467l168.34-18.38m-140.587 5.926l138.153-54.766m0 0l225.987-56.854m.001 0l95.833 6.36"/><path d="M198.02 647.56l52.086 12.687m0 0l8.727-34.387"/><path d="M390.9 565.813l85.194 37.58m-85.194-37.58l-140.794 94.434"/><path d="M258.833 625.86l217.26-22.467m-225.987 56.854l25.714 22.533m200.274-79.387l91.22-36.16m-.001 0l30.061 2.3m-.001 0l107.787-138.16M181.573 749.9l207.487 23.413m.001 0L575.22 698.5m-455.194 45.533l256.647-1.973"/><path d="M376.674 742.06l55.58.453m-.001 0l113.133-60.533"/><path d="M84.2 727.467l348.054 15.046m-.001 0l60.147-63.52"/><path d="M493.42 678.593l-53.107 30m.001 0l-77.68 10.707L84.2 727.467m487.727-117.714l25.446-40.22m0 0l126.253-32.593m-136.68 156.913l1.567 12.014m145.18 35.52l.454 5.48m47.053-1.64l2.92 5.213m-229.106-23.567L575.22 698.5"/><path d="M440.314 708.593L390.78 694.08m-.001 0l-11.58 12.327-16.566 12.893M252.54 709.087L362.627 719.3M252.54 709.087l143.853-57.034"/><path d="M374.633 691.133l4.566 15.274m17.195-54.354l4.48 28.527M379.2 706.407l69.474-30.98"/><path d="M400.873 680.58l47.8-5.153m-47.8 5.153l-88.066 5.327"/><path d="M374.633 691.133l21.76-39.08m-276.367 91.98l316.82 10.074"/></g></g><g class="H"><path d="M811.5 715.14c-.04.787-.312 1.545-.781 2.179a4 4 0 0 1-1.856 1.381c-.742.268-1.546.31-2.311.123a3.99 3.99 0 0 1-1.992-1.179 4 4 0 0 1-1.006-2.084c-.122-.779-.013-1.576.316-2.292s.862-1.319 1.533-1.734a4 4 0 0 1 2.237-.594c1.068.047 2.074.515 2.798 1.302a4.04 4.04 0 0 1 1.062 2.898zm-84.52-27.227a4 4 0 0 1-.778 2.181c-.468.634-1.114 1.116-1.855 1.385a4 4 0 0 1-5.313-3.136c-.124-.779-.014-1.577.315-2.294s.862-1.32 1.533-1.734 1.45-.622 2.238-.595c1.065.05 2.068.519 2.791 1.304a4.05 4.05 0 0 1 1.069 2.889zm61.166 62.7c-.04.788-.311 1.545-.78 2.179a4.01 4.01 0 0 1-1.857 1.382c-.741.267-1.545.31-2.311.122a4.01 4.01 0 0 1-2.998-3.262 4 4 0 0 1 .317-2.293c.329-.716.862-1.319 1.533-1.733s1.448-.621 2.236-.595a4.01 4.01 0 0 1 2.811 1.291c.359.391.637.85.817 1.349a4 4 0 0 1 .232 1.56zm-133.012-11.44a4 4 0 0 1-.778 2.181c-.468.634-1.114 1.116-1.855 1.385a4 4 0 0 1-2.312.124c-.766-.187-1.459-.596-1.993-1.176a4 4 0 0 1-1.008-2.084c-.123-.779-.014-1.577.315-2.294a4 4 0 0 1 1.534-1.734 3.99 3.99 0 0 1 2.237-.595c1.067.045 2.074.512 2.797 1.298a4.04 4.04 0 0 1 1.063 2.895zm-105.721-57.02c-.04.788-.312 1.545-.781 2.179a4 4 0 0 1-1.856 1.381c-.742.268-1.546.311-2.311.123a4 4 0 0 1-1.992-1.178c-.534-.581-.884-1.306-1.006-2.084a4 4 0 0 1 .316-2.293c.329-.716.863-1.319 1.533-1.733a4.01 4.01 0 0 1 2.237-.595c.531.018 1.052.142 1.535.363a3.98 3.98 0 0 1 1.275.928c.359.391.637.85.817 1.349a4 4 0 0 1 .233 1.56zm43.147 23.927a4 4 0 0 1-.778 2.181c-.468.634-1.114 1.116-1.855 1.384a4 4 0 0 1-2.312.125 3.99 3.99 0 0 1-2.686-5.554 4 4 0 0 1 1.533-1.735c.671-.414 1.45-.621 2.238-.594.53.018 1.051.141 1.533.362s.915.536 1.274.926a3.99 3.99 0 0 1 .818 1.347 4.01 4.01 0 0 1 .235 1.558zm-98.426-26.007a4 4 0 0 1-.778 2.181c-.468.634-1.114 1.116-1.855 1.385a4 4 0 0 1-2.312.124c-.766-.187-1.459-.596-1.993-1.176a4 4 0 0 1-1.008-2.084c-.123-.779-.014-1.577.315-2.294s.863-1.32 1.534-1.734a3.99 3.99 0 0 1 2.237-.595c.53.018 1.051.141 1.533.362a4 4 0 0 1 1.275.927 4.01 4.01 0 0 1 .818 1.346c.18.499.26 1.029.234 1.558zm-41.674-4.2c-.039.788-.309 1.547-.777 2.181s-1.114 1.116-1.856 1.385-1.545.312-2.311.124a4 4 0 0 1-3.002-3.26 4.01 4.01 0 0 1 .315-2.294 4 4 0 0 1 1.534-1.734 3.99 3.99 0 0 1 2.237-.595c.53.018 1.051.141 1.533.362a4 4 0 0 1 1.275.927 4.01 4.01 0 0 1 .818 1.346c.18.499.26 1.029.234 1.558zm22.38-38.606a4 4 0 0 1-.782 2.179c-.469.633-1.115 1.114-1.857 1.381a3.99 3.99 0 0 1-2.312.121c-.766-.188-1.459-.599-1.992-1.18a4 4 0 0 1 .851-6.11c.672-.414 1.45-.619 2.238-.591a3.99 3.99 0 0 1 2.806 1.293 4 4 0 0 1 .816 1.348c.18.499.258 1.029.232 1.559zm101.114-27.347a4 4 0 0 1-.781 2.179c-.47.634-1.116 1.114-1.858 1.382a4 4 0 0 1-2.312.121c-.766-.188-1.458-.599-1.991-1.18s-.883-1.307-1.005-2.086a4 4 0 0 1 1.855-4.025c.672-.413 1.451-.619 2.239-.591a4.03 4.03 0 0 1 3.853 4.2zM494.047 756a4 4 0 0 1-.778 2.181 3.99 3.99 0 0 1-1.855 1.384 4 4 0 0 1-2.312.125 3.99 3.99 0 0 1-1.993-1.177 4 4 0 0 1-.693-4.377c.329-.717.863-1.32 1.534-1.735a3.99 3.99 0 0 1 2.237-.594c1.067.046 2.072.514 2.795 1.3a4.04 4.04 0 0 1 1.065 2.893zm-377.741-40.667c-.033.797-.302 1.566-.773 2.21a4.03 4.03 0 0 1-1.87 1.408c-.749.274-1.562.32-2.337.132a4.03 4.03 0 0 1-3.034-3.296c-.124-.788-.011-1.595.324-2.318a4.03 4.03 0 0 1 1.558-1.748 4.04 4.04 0 0 1 2.266-.588 4.01 4.01 0 0 1 1.537.361c.483.222.917.537 1.277.928a3.99 3.99 0 0 1 1.052 2.911zM88.56 727.8a4 4 0 0 1-.781 2.179c-.47.634-1.115 1.114-1.857 1.381s-1.545.31-2.311.122a3.99 3.99 0 0 1-1.992-1.178 4 4 0 0 1-.69-4.376 4.01 4.01 0 0 1 1.533-1.734 4 4 0 0 1 2.237-.594 4.04 4.04 0 0 1 3.86 4.2zm306.52-161.88a3.99 3.99 0 0 1-.778 2.181c-.469.635-1.115 1.116-1.856 1.385a4 4 0 0 1-2.313.123c-.766-.187-1.46-.598-1.993-1.178a4.01 4.01 0 0 1-1.007-2.086c-.123-.779-.011-1.578.319-2.294a4 4 0 0 1 1.536-1.733c.672-.414 1.451-.619 2.239-.591a3.98 3.98 0 0 1 1.531.364c.481.221.914.536 1.272.927a4.01 4.01 0 0 1 .816 1.345 3.99 3.99 0 0 1 .234 1.557zm169.367-52.66a4 4 0 0 1-2.637 3.56c-.742.268-1.546.31-2.311.123a4 4 0 0 1-1.992-1.178 4.01 4.01 0 0 1-1.006-2.085c-.123-.778-.013-1.576.316-2.292a4.01 4.01 0 0 1 1.533-1.734 4 4 0 0 1 2.237-.594 4.03 4.03 0 0 1 1.529.372 4.02 4.02 0 0 1 2.089 2.273c.182.497.264 1.026.242 1.555zm144.586-81.66c-.04.787-.312 1.545-.781 2.179a4 4 0 0 1-1.856 1.381c-.742.268-1.546.31-2.311.122s-1.459-.597-1.992-1.178a4 4 0 0 1-1.006-2.084c-.123-.778-.013-1.576.316-2.292a4.01 4.01 0 0 1 1.533-1.734 4 4 0 0 1 2.237-.594c1.068.047 2.074.515 2.798 1.302a4.04 4.04 0 0 1 1.062 2.898zm47.414-72.16c-.034.797-.303 1.566-.774 2.21s-1.122 1.134-1.871 1.408-1.563.319-2.338.131a4.04 4.04 0 0 1-2.017-1.19 4.03 4.03 0 0 1-1.015-2.11c-.123-.788-.009-1.595.327-2.318a4.03 4.03 0 0 1 1.561-1.746c.681-.415 1.47-.619 2.267-.585 1.068.047 2.074.515 2.798 1.302a4.04 4.04 0 0 1 1.062 2.898zm26.22-81.967c-.04.787-.312 1.545-.781 2.179a4 4 0 0 1-1.856 1.381c-.742.268-1.546.311-2.311.123a4 4 0 0 1-1.992-1.178c-.534-.581-.884-1.306-1.006-2.084a4 4 0 0 1 .316-2.293c.329-.716.862-1.319 1.533-1.733a4 4 0 0 1 2.237-.595c.529.023 1.049.149 1.529.372s.912.539 1.271.929a4.03 4.03 0 0 1 .818 1.344 4.04 4.04 0 0 1 .242 1.555zm26.913 14.474c-.038.787-.309 1.546-.777 2.18a4 4 0 0 1-1.856 1.385c-.741.268-1.545.312-2.311.125a4 4 0 0 1-3.002-3.261c-.123-.779-.013-1.577.316-2.294a4 4 0 0 1 3.77-2.329c1.068.045 2.074.512 2.798 1.298a4.03 4.03 0 0 1 1.062 2.896zM805 389.813a4 4 0 0 1-.781 2.179c-.469.633-1.115 1.114-1.856 1.382s-1.546.31-2.311.122a4 4 0 0 1-1.992-1.178c-.534-.581-.884-1.306-1.006-2.084a4 4 0 0 1 .316-2.293c.329-.716.862-1.319 1.533-1.733a4.01 4.01 0 0 1 2.237-.595 4.02 4.02 0 0 1 1.535.363c.482.222.916.537 1.275.928s.637.85.817 1.349a4 4 0 0 1 .233 1.56zm-75.527 151.88a4 4 0 0 1-2.641 3.555c-.742.267-1.546.309-2.311.12a4 4 0 0 1-1.99-1.179c-.532-.581-.882-1.306-1.004-2.084s-.012-1.576.317-2.292a4 4 0 0 1 3.769-2.326c1.07.046 2.077.516 2.8 1.304a4.04 4.04 0 0 1 1.06 2.902zM762.42 180.42a4 4 0 0 1-2.633 3.565c-.741.269-1.545.312-2.311.125s-1.46-.596-1.994-1.177a4 4 0 0 1-1.008-2.084 4.01 4.01 0 0 1 .315-2.293c.329-.717.863-1.32 1.534-1.735a4 4 0 0 1 2.237-.594c1.068.045 2.074.512 2.798 1.298a4.03 4.03 0 0 1 1.062 2.895zm32.333 22.913a4 4 0 0 1-.783 2.177 4.01 4.01 0 0 1-1.858 1.379 4 4 0 0 1-2.31.119c-.765-.188-1.458-.599-1.99-1.179a4 4 0 0 1-1.005-2.084c-.122-.779-.012-1.576.318-2.292a4 4 0 0 1 1.533-1.732c.671-.414 1.448-.621 2.235-.594a4.04 4.04 0 0 1 2.801 1.304c.723.789 1.104 1.833 1.059 2.902zM917.8 174.227a4 4 0 0 1-.781 2.178c-.469.634-1.115 1.114-1.857 1.382s-1.545.31-2.311.122a4 4 0 0 1-1.991-1.178c-.534-.58-.884-1.305-1.007-2.084s-.012-1.576.317-2.292a4 4 0 0 1 3.77-2.328c1.068.046 2.074.515 2.797 1.302a4.04 4.04 0 0 1 1.063 2.898zm1.693 25.54c-.038.788-.309 1.546-.778 2.181a3.99 3.99 0 0 1-1.856 1.384 4 4 0 0 1-4.306-1.055c-.534-.581-.884-1.306-1.006-2.085s-.012-1.578.318-2.294a3.99 3.99 0 0 1 1.536-1.733 4 4 0 0 1 3.77-.227c.482.221.914.536 1.272.926a4.01 4.01 0 0 1 .817 1.346 4 4 0 0 1 .233 1.557zM394.806 694.253a4 4 0 0 1-2.638 3.561c-.742.267-1.547.309-2.312.121a4 4 0 0 1-2.677-5.559 4 4 0 0 1 3.774-2.323c.53.019 1.051.143 1.533.365a4 4 0 0 1 2.089 2.277 4.01 4.01 0 0 1 .231 1.558zm244.527-62.786a4.03 4.03 0 0 1-2.641 3.623c-.749.274-1.563.321-2.338.133a4.04 4.04 0 0 1-2.019-1.188 4.03 4.03 0 0 1-1.017-2.11c-.123-.788-.01-1.596.326-2.32a4.04 4.04 0 0 1 3.829-2.332c1.067.047 2.072.515 2.795 1.3a4.04 4.04 0 0 1 1.065 2.894zm-382.427 77.986a2.98 2.98 0 0 1-.611 1.625 2.99 2.99 0 0 1-1.412 1.01 2.98 2.98 0 0 1-1.736.054c-.571-.154-1.083-.474-1.472-.92s-.636-.997-.711-1.584.025-1.183.289-1.712a2.99 2.99 0 0 1 1.194-1.261 2.98 2.98 0 0 1 1.693-.385c.787.055 1.521.42 2.039 1.014a2.98 2.98 0 0 1 .727 2.159zM188.5 711.68a2.99 2.99 0 0 1-.615 1.623c-.361.468-.853.819-1.413 1.007a2.99 2.99 0 0 1-1.735.051c-.571-.155-1.082-.475-1.47-.922a2.99 2.99 0 0 1-.71-1.583c-.075-.587.027-1.182.291-1.711s.679-.968 1.193-1.261 1.102-.426 1.692-.384a2.98 2.98 0 0 1 1.122.305c.351.175.663.416.92.712a2.99 2.99 0 0 1 .578 1.009c.124.371.174.764.147 1.154zM324.166 702a2.98 2.98 0 0 1-.611 1.624 2.99 2.99 0 0 1-1.411 1.011 2.98 2.98 0 0 1-1.734.055 2.99 2.99 0 0 1-2.186-2.501c-.076-.586.024-1.182.287-1.711a2.99 2.99 0 0 1 1.19-1.263c.513-.294 1.102-.429 1.692-.388a2.99 2.99 0 0 1 2.773 3.173zm-70.779-40.773a2.98 2.98 0 0 1-2.022 2.623c-.559.188-1.161.207-1.73.053a2.99 2.99 0 0 1-1.468-.919 2.98 2.98 0 0 1-.709-1.578c-.075-.585.025-1.179.287-1.707a2.98 2.98 0 0 1 4.915-.631c.518.595.78 1.371.727 2.159zM479.066 603.6c-.039.59-.253 1.154-.614 1.622a2.99 2.99 0 0 1-1.412 1.008 2.98 2.98 0 0 1-1.734.052 2.99 2.99 0 0 1-1.894-4.212 2.98 2.98 0 0 1 1.19-1.262c.513-.294 1.101-.429 1.691-.388a2.99 2.99 0 0 1 2.773 3.18zm121.281-33.86a2.99 2.99 0 0 1-.618 1.621c-.362.467-.854.816-1.414 1.004a2.99 2.99 0 0 1-1.734.048 2.98 2.98 0 0 1-1.469-.923c-.387-.446-.633-.997-.708-1.583a2.99 2.99 0 0 1 .292-1.71c.264-.529.679-.967 1.193-1.26a2.99 2.99 0 0 1 1.691-.384c.789.057 1.524.424 2.043 1.021s.779 1.377.724 2.166zm225.566-343.553c-.04.589-.254 1.154-.614 1.622a2.98 2.98 0 0 1-4.617.14c-.388-.445-.636-.996-.711-1.582s.025-1.181.288-1.711a2.98 2.98 0 0 1 1.19-1.262 2.99 2.99 0 0 1 1.691-.387c.391.025.773.128 1.125.301a2.98 2.98 0 0 1 .923.711 2.97 2.97 0 0 1 .579 1.012 2.98 2.98 0 0 1 .146 1.156zM649.2 642.207a2.99 2.99 0 0 1-.611 1.624c-.36.469-.852.821-1.412 1.011a2.99 2.99 0 0 1-3.633-4.158 2.99 2.99 0 0 1 5.656 1.523z"/></g><path d="M298.386 560.1a2.98 2.98 0 0 1-.614 1.623c-.361.468-.853.819-1.414 1.007a2.99 2.99 0 0 1-1.734.051c-.571-.155-1.083-.476-1.471-.922a2.98 2.98 0 0 1-.709-1.583c-.075-.587.026-1.182.291-1.711a2.99 2.99 0 0 1 1.192-1.261c.514-.292 1.103-.426 1.693-.384.391.026.772.129 1.123.304s.664.416.921.711a2.98 2.98 0 0 1 .577 1.01 2.96 2.96 0 0 1 .145 1.155z" fill="#98909f"/><path d="M303.42 582.56a2.98 2.98 0 0 1-.617 1.62 2.99 2.99 0 0 1-1.413 1.005c-.56.187-1.163.205-1.733.05a2.99 2.99 0 0 1-2.179-2.503 2.99 2.99 0 0 1 .289-1.71 2.98 2.98 0 0 1 1.19-1.261 2.99 2.99 0 0 1 1.69-.388 2.97 2.97 0 0 1 1.127.303 2.96 2.96 0 0 1 .924.713c.258.296.454.64.578 1.013s.173.766.144 1.158z" class="H"/><g class="L"><path d="M324.167 429.853c-.04.59-.254 1.155-.614 1.623a2.99 2.99 0 0 1-5.328-1.442c-.076-.586.024-1.182.288-1.711s.677-.968 1.19-1.262a2.98 2.98 0 0 1 1.69-.388c.789.057 1.523.423 2.043 1.019a2.99 2.99 0 0 1 .731 2.161zm119.747 27a2.99 2.99 0 0 1-.615 1.623c-.361.468-.853.819-1.413 1.007a2.99 2.99 0 0 1-1.735.052c-.571-.155-1.082-.476-1.47-.922a2.99 2.99 0 0 1-.71-1.584c-.074-.586.027-1.182.291-1.711s.679-.967 1.193-1.26 1.102-.427 1.692-.385c.391.027.772.131 1.122.306a2.97 2.97 0 0 1 .92.711 3 3 0 0 1 .578 1.01 2.99 2.99 0 0 1 .147 1.153z"/></g><g class="H"><path d="M269.42 613.233c-.038.59-.251 1.156-.611 1.625a2.99 2.99 0 0 1-1.411 1.01c-.56.19-1.164.209-1.735.055a2.98 2.98 0 0 1-1.472-.918 2.99 2.99 0 0 1-.713-1.582c-.076-.587.024-1.183.287-1.712a2.99 2.99 0 0 1 1.19-1.263c.513-.294 1.102-.429 1.692-.388.788.055 1.522.419 2.042 1.014a2.99 2.99 0 0 1 .731 2.159zm0-100.326c-.039.59-.252 1.156-.613 1.626a2.99 2.99 0 0 1-1.415 1.009 2.98 2.98 0 0 1-1.737.051c-.571-.155-1.083-.477-1.471-.924a2.99 2.99 0 0 1-.412-3.3 2.98 2.98 0 0 1 1.199-1.258c.515-.291 1.105-.423 1.696-.378a3 3 0 0 1 2.04 1.016c.519.594.783 1.37.733 2.158"/></g><path d="M385 464.207c-.04.588-.253 1.152-.614 1.619a2.97 2.97 0 0 1-1.41 1.004c-.559.188-1.161.206-1.731.051a2.98 2.98 0 0 1-1.467-.92c-.387-.445-.633-.995-.707-1.58a2.97 2.97 0 0 1 .29-1.707 2.98 2.98 0 0 1 1.19-1.257c.513-.293 1.101-.426 1.689-.384.39.027.77.131 1.12.305a2.98 2.98 0 0 1 .917.71c.257.295.453.637.576 1.008s.174.761.147 1.151z" class="M"/><g class="H"><path d="M377.433 417.567a2.98 2.98 0 0 1-.614 1.623 2.99 2.99 0 0 1-3.148 1.058c-.571-.155-1.083-.476-1.471-.922a2.98 2.98 0 0 1-.709-1.584c-.075-.586.026-1.182.29-1.711a2.99 2.99 0 0 1 1.193-1.26 2.98 2.98 0 0 1 1.693-.384 2.97 2.97 0 0 1 1.122.305 2.98 2.98 0 0 1 1.497 1.721 2.95 2.95 0 0 1 .147 1.154zm-24.099 81.1a2.99 2.99 0 0 1-.615 1.623c-.361.468-.853.818-1.413 1.007a2.99 2.99 0 0 1-1.735.051c-.571-.155-1.082-.476-1.47-.922a2.99 2.99 0 0 1-.71-1.584c-.075-.586.027-1.182.291-1.711s.679-.967 1.193-1.26 1.102-.427 1.692-.384c.391.027.772.13 1.122.305a2.96 2.96 0 0 1 .92.712 2.99 2.99 0 0 1 .725 2.163zm-96.767 110.266c-.041.589-.256 1.151-.617 1.617a2.98 2.98 0 0 1-1.411 1.002c-.559.187-1.161.204-1.73.048a2.98 2.98 0 0 1-1.465-.921c-.386-.445-.632-.995-.706-1.58s.027-1.179.291-1.706a2.98 2.98 0 0 1 1.19-1.257 2.99 2.99 0 0 1 1.688-.383c.391.026.773.128 1.124.302a2.96 2.96 0 0 1 .92.712c.257.296.452.64.575 1.011a2.96 2.96 0 0 1 .141 1.155zm19.726-12.446a2.98 2.98 0 0 1-.611 1.624 2.99 2.99 0 0 1-1.411 1.011 3 3 0 0 1-1.735.055c-.57-.154-1.083-.474-1.472-.919a2.99 2.99 0 0 1 .764-4.557c.513-.294 1.102-.429 1.692-.388a2.99 2.99 0 0 1 1.124.301c.351.174.664.415.922.71s.454.638.579 1.009a2.97 2.97 0 0 1 .148 1.154z"/></g><path d="M331.594 553.333a2.99 2.99 0 0 1-.615 1.623c-.361.468-.853.819-1.414 1.007a2.98 2.98 0 0 1-1.734.052c-.571-.155-1.083-.476-1.471-.922a2.98 2.98 0 0 1-.709-1.584c-.075-.587.026-1.182.291-1.711s.679-.967 1.192-1.26a2.99 2.99 0 0 1 1.693-.385 2.97 2.97 0 0 1 1.122.306 2.98 2.98 0 0 1 1.497 1.721 2.97 2.97 0 0 1 .148 1.153z" class="L"/><path d="M262.613 574.28c-.04.59-.253 1.154-.614 1.622a2.99 2.99 0 0 1-3.146 1.06 2.98 2.98 0 0 1-2.182-2.502 2.99 2.99 0 0 1 .288-1.71 2.98 2.98 0 0 1 1.19-1.262c.513-.294 1.101-.429 1.691-.388a2.99 2.99 0 0 1 2.773 3.18z" fill="#98909f"/><path d="M310.447 508.093a3 3 0 0 1-.611 1.625c-.36.469-.852.821-1.412 1.01a2.99 2.99 0 0 1-3.207-.863 2.99 2.99 0 0 1-.713-1.582c-.076-.587.024-1.182.287-1.712a2.98 2.98 0 0 1 1.191-1.263c.513-.294 1.101-.429 1.691-.388a2.97 2.97 0 0 1 1.123.303c.351.174.664.415.921.709a2.97 2.97 0 0 1 .58 1.008 2.99 2.99 0 0 1 .15 1.153z" class="M"/><path d="M545.48 301.78a4.03 4.03 0 0 1-.77 2.212c-.47.645-1.121 1.136-1.87 1.411a4.03 4.03 0 0 1-2.339.133c-.775-.187-1.478-.601-2.018-1.188a4.03 4.03 0 0 1-.691-4.429c.336-.724.879-1.332 1.56-1.747a4.03 4.03 0 0 1 2.268-.585 4.04 4.04 0 0 1 2.796 1.3c.723.785 1.106 1.826 1.064 2.893z" class="L"/><path d="M408.2 360.913c-.04.788-.311 1.546-.781 2.179s-1.115 1.114-1.856 1.382-1.546.31-2.311.122a4 4 0 0 1-1.992-1.178 4.01 4.01 0 0 1-1.006-2.084 4 4 0 0 1 .316-2.293c.329-.716.863-1.319 1.533-1.733a4.01 4.01 0 0 1 2.237-.595c.531.018 1.052.142 1.535.363s.916.537 1.275.928.637.85.818 1.349.259 1.03.232 1.56z" fill="#cac6cc"/><path d="M308.5 455.9c-.04.787-.312 1.545-.781 2.179a4 4 0 0 1-1.856 1.381c-.742.268-1.546.31-2.311.123s-1.459-.598-1.992-1.179-.884-1.305-1.006-2.084-.013-1.576.316-2.292a4.01 4.01 0 0 1 1.533-1.734 4 4 0 0 1 3.772-.231c.482.222.916.537 1.275.928s.637.85.817 1.349.26 1.03.233 1.56z" class="H"/><path d="M415.054 490.6c-.039.788-.31 1.547-.778 2.181s-1.115 1.116-1.857 1.385a4 4 0 0 1-2.312.123 4.01 4.01 0 0 1-1.994-1.178c-.533-.581-.884-1.307-1.006-2.086s-.012-1.578.318-2.294a4 4 0 0 1 1.536-1.733c.672-.414 1.451-.619 2.239-.591.53.018 1.05.142 1.532.364s.913.536 1.272.927a4 4 0 0 1 .816 1.345 4.01 4.01 0 0 1 .234 1.557z" fill="#cac6cc"/><g class="M"><path d="M276.96 555.953a4 4 0 0 1-.783 2.177 4.01 4.01 0 0 1-1.858 1.379 4 4 0 0 1-2.31.119c-.765-.188-1.458-.599-1.99-1.179a4 4 0 0 1-1.005-2.084c-.122-.779-.012-1.576.318-2.292a4 4 0 0 1 1.533-1.732c.671-.414 1.448-.621 2.235-.594a4.04 4.04 0 0 1 3.86 4.206zm212.693-160.226c-.038.788-.309 1.546-.778 2.181a3.99 3.99 0 0 1-1.856 1.384 4 4 0 0 1-4.306-1.055c-.534-.581-.884-1.306-1.006-2.086a3.99 3.99 0 0 1 1.854-4.026 4 4 0 0 1 2.239-.592 4.01 4.01 0 0 1 2.804 1.291 4.02 4.02 0 0 1 .816 1.346 4 4 0 0 1 .233 1.557z"/></g><g class="H"><path d="M639.294 446.513a4.37 4.37 0 0 1-1.664 1.917c-.732.461-1.584.694-2.449.67s-1.702-.303-2.408-.803a4.37 4.37 0 0 1-1.556-2.005c-.309-.807-.372-1.688-.181-2.531a4.38 4.38 0 0 1 1.256-2.206 4.37 4.37 0 0 1 2.27-1.137 4.38 4.38 0 0 1 4.732 6.095zM265.02 627.64a4.38 4.38 0 0 1-4.112 2.587c-.864-.024-1.702-.303-2.408-.803s-1.247-1.197-1.557-2.005a4.37 4.37 0 0 1 3.345-5.874c.852-.147 1.729-.037 2.519.315a4.38 4.38 0 0 1 2.213 5.78zM98.26 700.533a4.37 4.37 0 0 1-1.664 1.917c-.732.461-1.584.694-2.448.67s-1.702-.303-2.408-.803-1.247-1.197-1.557-2.005a4.37 4.37 0 0 1 3.345-5.874 4.38 4.38 0 0 1 2.519.315c1.059.474 1.887 1.349 2.302 2.432a4.38 4.38 0 0 1-.089 3.348z"/></g><path d="M519.853 461.027a7.65 7.65 0 0 1-1.307 4.246c-.846 1.256-2.044 2.232-3.445 2.807s-2.939.721-4.423.422-2.845-1.031-3.913-2.104a7.66 7.66 0 0 1-2.087-3.922 7.67 7.67 0 0 1 .441-4.422c.581-1.397 1.563-2.592 2.822-3.432s2.739-1.289 4.252-1.289c1.009-.001 2.008.198 2.94.585a7.66 7.66 0 0 1 2.49 1.669c.712.715 1.276 1.563 1.658 2.497s.577 1.934.572 2.943z" class="N"/><path d="M899.453 452.387a7.66 7.66 0 0 1-4.729 7.077c-1.4.579-2.94.731-4.426.435a7.66 7.66 0 0 1-3.922-2.096c-1.071-1.071-1.8-2.436-2.096-3.922s-.144-3.026.436-4.426 1.561-2.596 2.821-3.437a7.66 7.66 0 0 1 4.256-1.291c1.006-.001 2.002.196 2.932.581a7.66 7.66 0 0 1 2.486 1.66c.712.712 1.276 1.557 1.661 2.486s.582 1.926.581 2.933z" fill="#292a29"/><g class="N"><path d="M173.747 571.093c0 1.515-.45 2.996-1.291 4.256a7.66 7.66 0 0 1-3.438 2.821c-1.4.58-2.94.732-4.426.436a7.66 7.66 0 0 1-3.922-2.096c-1.071-1.071-1.8-2.436-2.096-3.922s-.144-3.026.436-4.426a7.66 7.66 0 0 1 2.821-3.438c1.26-.841 2.741-1.291 4.256-1.291 2.031.002 3.978.81 5.414 2.246s2.244 3.383 2.246 5.414zM738.226 612c0 1.515-.449 2.997-1.291 4.256a7.67 7.67 0 0 1-3.439 2.822 7.66 7.66 0 0 1-8.349-1.664 7.65 7.65 0 0 1-2.094-3.924c-.295-1.486-.143-3.026.438-4.426a7.66 7.66 0 0 1 2.824-3.436c1.26-.841 2.743-1.289 4.258-1.288a7.65 7.65 0 0 1 2.93.583c.929.385 1.773.95 2.484 1.661a7.66 7.66 0 0 1 1.659 2.485c.384.93.581 1.925.58 2.931z"/></g><path d="M620.753 803.647c0 2.805-.832 5.548-2.391 7.881s-3.774 4.152-6.366 5.225a14.19 14.19 0 0 1-15.461-3.075 14.19 14.19 0 0 1-3.883-7.264c-.547-2.752-.266-5.604.808-8.196s2.892-4.808 5.225-6.367 5.076-2.391 7.882-2.391a14.19 14.19 0 0 1 10.031 4.155c2.661 2.661 4.155 6.269 4.155 10.032z" fill="#292a29"/><path d="M555.447 775.7c0 1.515-.449 2.995-1.291 4.255a7.66 7.66 0 0 1-7.861 3.258 7.66 7.66 0 0 1-3.922-2.094c-1.072-1.071-1.802-2.435-2.098-3.921a7.66 7.66 0 0 1 .433-4.425c.579-1.4 1.56-2.596 2.818-3.439s2.74-1.293 4.254-1.294a7.67 7.67 0 0 1 5.419 2.243c1.438 1.436 2.246 3.385 2.248 5.417z" class="N"/></g><defs><clipPath id="A"><path d="M0 0h1000v1000H0z" class="H"/></clipPath></defs></svg>