<svg xmlns="http://www.w3.org/2000/svg" xmlns:xlink="http://www.w3.org/1999/xlink" xmlns:lucid="lucid" width="1431.68" height="1170.87"><g transform="translate(-210.13209611421019 -87.70663533350847)" lucid:page-tab-id="0_0"><path d="M530.5 745.82c0-3.32 2.7-6 6-6h679.77c3.3 0 6 2.68 6 6v306.04c0 3.3-2.7 6-6 6H536.5c-3.3 0-6-2.7-6-6z" stroke="#fff" stroke-width="3" fill="#fff"/><path d="M876.4 635.02v84.8" stroke="#fff" stroke-width="2" fill="none"/><path d="M877.4 635.05h-2v-1.03h2z" fill="#fff"/><path d="M876.4 735.08l-4.65-14.27h9.28z" stroke="#fff" stroke-width="2" fill="#fff"/><path d="M585.68 804.82c0-3.32 2.7-6 6-6h589.45c3.32 0 6 2.68 6 6v64.14c0 3.32-2.68 6-6 6H591.68c-3.3 0-6-2.68-6-6z" stroke="#fff" stroke-width="3" fill="#fff"/><use xlink:href="#a" transform="matrix(1,0,0,1,597.6800210404837,810.8162262850065) translate(128.85493827160494 32.80555555555556)"/><use xlink:href="#b" transform="matrix(1,0,0,1,597.6800210404837,810.8162262850065) translate(246.9351851851852 32.80555555555556)"/><use xlink:href="#c" transform="matrix(1,0,0,1,597.6800210404837,810.8162262850065) translate(326.99074074074076 32.80555555555556)"/><use xlink:href="#d" transform="matrix(1,0,0,1,597.6800210404837,810.8162262850065) translate(350.07716049382714 32.80555555555556)"/><path d="M585.68 916.88c0-3.32 2.7-6 6-6h589.45c3.32 0 6 2.68 6 6v64.14c0 3.32-2.68 6-6 6H591.68c-3.3 0-6-2.68-6-6z" stroke="#fff" stroke-width="3" fill="#fff"/><use xlink:href="#e" transform="matrix(1,0,0,1,597.6800210404837,922.8774823041184) translate(153.2993827160494 32.80555555555556)"/><use xlink:href="#f" transform="matrix(1,0,0,1,597.6800210404837,922.8774823041184) translate(192.6820987654321 32.80555555555556)"/><use xlink:href="#g" transform="matrix(1,0,0,1,597.6800210404837,922.8774823041184) translate(257.7993827160494 32.80555555555556)"/><use xlink:href="#h" transform="matrix(1,0,0,1,597.6800210404837,922.8774823041184) translate(366.37345679012344 32.80555555555556)"/><path d="M530.5 1152.85c0-3.32 2.7-6 6-6h679.77c3.3 0 6 2.68 6 6v79.73c0 3.3-2.7 6-6 6H536.5c-3.3 0-6-2.7-6-6z" stroke="#fff" stroke-width="3" fill="#fff"/><use xlink:href="#i" transform="matrix(1,0,0,1,542.5117744570268,1158.8476123223631) translate(179.49074074074076 38.68055555555556)"/><use xlink:href="#j" transform="matrix(1,0,0,1,542.5117744570268,1158.8476123223631) translate(329.891975308642 38.68055555555556)"/><path d="M530.5 113.7c0-3.3 2.7-6 6-6h679.77c3.3 0 6 2.7 6 6v512.82c0 3.32-2.7 6-6 6H536.5c-3.3 0-6-2.68-6-6z" stroke="#fff" stroke-width="3" fill="#fff"/><path d="M585.68 529.16c0-3.3 2.7-6 6-6h589.45c3.32 0 6 2.7 6 6v64.15c0 3.32-2.68 6-6 6H591.68c-3.3 0-6-2.68-6-6z" stroke="#fff" stroke-width="3" fill="#fff"/><use xlink:href="#k" transform="matrix(1,0,0,1,597.6800210404837,535.1637264269573) translate(144.57407407407408 32.80555555555556)"/><use xlink:href="#l" transform="matrix(1,0,0,1,597.6800210404837,535.1637264269573) translate(223.3395061728395 32.80555555555556)"/><use xlink:href="#m" transform="matrix(1,0,0,1,597.6800210404837,535.1637264269573) translate(339.9938271604938 32.80555555555556)"/><path d="M585.68 420.85c0-3.3 2.7-6 6-6h589.45c3.32 0 6 2.7 6 6V485c0 3.3-2.68 6-6 6H591.68c-3.3 0-6-2.7-6-6z" stroke="#fff" stroke-width="3" fill="#fff"/><use xlink:href="#k" transform="matrix(1,0,0,1,597.6800210404837,426.8491389616958) translate(179.7469135802469 32.80555555555556)"/><use xlink:href="#n" transform="matrix(1,0,0,1,597.6800210404837,426.8491389616958) translate(258.51234567901236 32.80555555555556)"/><use xlink:href="#o" transform="matrix(1,0,0,1,597.6800210404837,426.8491389616958) translate(329.0617283950617 32.80555555555556)"/><path d="M258.3 343.48c0-3.3 2.7-6 6-6h173.07c3.3 0 6 2.7 6 6V640c0 3.32-2.7 6-6 6H264.3c-3.3 0-6-2.68-6-6z" fill="none"/><path d="M443.37 646c-5.52 0-10-4.47-10-10V501.75c0-5.52-4.48-10-10-10 5.52 0 10-4.47 10-10V347.48c0-5.52 4.48-10 10-10" stroke="#fff" stroke-width="3" fill="none"/><use xlink:href="#p" transform="matrix(1,0,0,1,263.3021899542423,342.47923293265853) translate(1.202469135802474 139.54444444444442)"/><use xlink:href="#q" transform="matrix(1,0,0,1,263.3021899542423,342.47923293265853) translate(19.281481481481485 169.4111111111111)"/><path d="M258.3 747.67c0-3.3 2.7-6 6-6h193.3c3.3 0 6 2.7 6 6v304.2c0 3.3-2.7 6-6 6H264.3c-3.3 0-6-2.7-6-6z" fill="none"/><path d="M463.6 1057.86c-5.53 0-10-4.48-10-10v-138.1c0-5.52-4.48-10-10-10 5.52 0 10-4.47 10-10v-138.1c0-5.5 4.47-10 10-10" stroke="#fff" stroke-width="3" fill="none"/><use xlink:href="#r" transform="matrix(1,0,0,1,263.3021899542423,746.6731761299893) translate(3.69135802469134 143.72222222222223)"/><use xlink:href="#s" transform="matrix(1,0,0,1,263.3021899542423,746.6731761299893) translate(32.17592592592593 173.05555555555554)"/><path d="M230.13 245.9c0-3.3 2.7-6 6-6h120.1c3.3 0 6 2.7 6 6v27.36c0 3.3-2.7 6-6 6h-120.1c-3.3 0-6-2.7-6-6z" fill="none"/><use xlink:href="#t" transform="matrix(1,0,0,1,235.13209611421019,244.91332967279902) translate(0.45679012345679837 19.88888888888889)"/><use xlink:href="#u" transform="matrix(1,0,0,1,235.13209611421019,244.91332967279902) translate(58.78395061728395 19.88888888888889)"/><path d="M363.23 256.72h110.15c.32 0 .57-.26.57-.57 0-.32.26-.57.57-.57h92.66" stroke="#fff" stroke-width="2" fill="none"/><path d="M363.25 257.72h-1.02v-2h1.02z" fill="#fff"/><path d="M582.44 255.58l-14.26 4.64v-9.28z" stroke="#fff" stroke-width="2" fill="#fff"/><path d="M349.52 209.24c0-3.32 2.68-6 6-6h137.6c3.32 0 6 2.68 6 6v27.34c0 3.3-2.68 6-6 6h-137.6c-3.32 0-6-2.7-6-6z" fill="none"/><g><use xlink:href="#v" transform="matrix(1,0,0,1,354.51600451279046,208.23666300613235) translate(0.19753086419754595 19.88888888888889)"/><use xlink:href="#w" transform="matrix(1,0,0,1,354.51600451279046,208.23666300613235) translate(20.567901234567916 19.88888888888889)"/><use xlink:href="#x" transform="matrix(1,0,0,1,354.51600451279046,208.23666300613235) translate(51.734567901234584 19.88888888888889)"/></g><path d="M585.68 182.02c0-3.3 2.7-6 6-6h589.45c3.32 0 6 2.7 6 6v108c0 3.3-2.68 6-6 6H591.68c-3.3 0-6-2.7-6-6z" stroke="#fff" stroke-width="3" fill="#fff"/><g><use xlink:href="#y" transform="matrix(1,0,0,1,597.6800210404837,188.02105327962553) translate(25.388888888889028 35.1111111111111)"/><use xlink:href="#z" transform="matrix(1,0,0,1,597.6800210404837,188.02105327962553) translate(129.62962962962973 35.1111111111111)"/><use xlink:href="#A" transform="matrix(1,0,0,1,597.6800210404837,188.02105327962553) translate(188.8518518518519 35.1111111111111)"/><use xlink:href="#B" transform="matrix(1,0,0,1,597.6800210404837,188.02105327962553) translate(281.9382716049383 35.1111111111111)"/><use xlink:href="#C" transform="matrix(1,0,0,1,597.6800210404837,188.02105327962553) translate(378.074074074074 35.1111111111111)"/><use xlink:href="#D" transform="matrix(1,0,0,1,597.6800210404837,188.02105327962553) translate(411.69753086419746 35.1111111111111)"/><use xlink:href="#E" transform="matrix(1,0,0,1,597.6800210404837,188.02105327962553) translate(485.28395061728384 35.1111111111111)"/><use xlink:href="#F" transform="matrix(1,0,0,1,597.6800210404837,188.02105327962553) translate(210.47839506172843 69.77777777777776)"/></g><path d="M876.4 1060.36v66.5" stroke="#fff" stroke-width="2" fill="none"/><path d="M877.4 1060.38h-2v-1.02h2z" fill="#fff"/><path d="M876.4 1142.1l-4.65-14.25h9.28z" stroke="#fff" stroke-width="2" fill="#fff"/><path d="M1484.85 245.9c0-3.3 2.7-6 6-6h118.6c3.32 0 6 2.7 6 6v27.36c0 3.3-2.68 6-6 6h-118.6c-3.3 0-6-2.7-6-6z" fill="none"/><g><use xlink:href="#t" transform="matrix(1,0,0,1,1489.8528638038915,244.91332967279905) translate(0.2037037037037095 19.88888888888889)"/><use xlink:href="#G" transform="matrix(1,0,0,1,1489.8528638038915,244.91332967279905) translate(58.53086419753086 19.88888888888889)"/></g><path d="M1327.1 282.6c0-3.32 2.68-6 6-6h282.72c3.3 0 6 2.68 6 6v27.33c0 3.32-2.7 6-6 6H1333.1c-3.32 0-6-2.68-6-6z" fill="none"/><g><use xlink:href="#H" transform="matrix(1,0,0,1,1332.095528130635,281.5899963394657) translate(0.14506172839506348 19.88888888888889)"/><use xlink:href="#I" transform="matrix(1,0,0,1,1332.095528130635,281.5899963394657) translate(61.18827160493828 19.88888888888889)"/><use xlink:href="#J" transform="matrix(1,0,0,1,1332.095528130635,281.5899963394657) translate(116.7993827160494 19.88888888888889)"/><use xlink:href="#K" transform="matrix(1,0,0,1,1332.095528130635,281.5899963394657) translate(145.25 19.88888888888889)"/><use xlink:href="#L" transform="matrix(1,0,0,1,1332.095528130635,281.5899963394657) translate(165.62037037037038 19.88888888888889)"/><use xlink:href="#x" transform="matrix(1,0,0,1,1332.095528130635,281.5899963394657) translate(196.78703703703704 19.88888888888889)"/></g><path d="M1193.3 258.25h144.6c.38 0 .68.3.68.67 0 .37.3.66.66.66h127.1M1193.33 258.25h-1.03" stroke="#fff" stroke-width="2" fill="none"/><path d="M1481.62 259.58l-14.27 4.64v-9.27z" stroke="#fff" stroke-width="2" fill="#fff"/><defs><path fill="#fff" d="M30-248c118-7 216 8 213 122C240-48 200 0 122 0H30v-248zM63-27c89 8 146-16 146-99s-60-101-146-95v194" id="M"/><path fill="#fff" d="M141-36C126-15 110 5 73 4 37 3 15-17 15-53c-1-64 63-63 125-63 3-35-9-54-41-54-24 1-41 7-42 31l-33-3c5-37 33-52 76-52 45 0 72 20 72 64v82c-1 20 7 32 28 27v20c-31 9-61-2-59-35zM48-53c0 20 12 33 32 33 41-3 63-29 60-74-43 2-92-5-92 41" id="N"/><path fill="#fff" d="M59-47c-2 24 18 29 38 22v24C64 9 27 4 27-40v-127H5v-23h24l9-43h21v43h35v23H59v120" id="O"/><path fill="#fff" d="M100-194c62-1 85 37 85 99 1 63-27 99-86 99S16-35 15-95c0-66 28-99 85-99zM99-20c44 1 53-31 53-75 0-43-8-75-51-75s-53 32-53 75 10 74 51 75" id="P"/><path fill="#fff" d="M143 0L79-87 56-68V0H24v-261h32v163l83-92h37l-77 82L181 0h-38" id="Q"/><path fill="#fff" d="M100-194c63 0 86 42 84 106H49c0 40 14 67 53 68 26 1 43-12 49-29l28 8c-11 28-37 45-77 45C44 4 14-33 15-96c1-61 26-98 85-98zm52 81c6-60-76-77-97-28-3 7-6 17-6 28h103" id="R"/><path fill="#fff" d="M117-194c89-4 53 116 60 194h-32v-121c0-31-8-49-39-48C34-167 62-67 57 0H25l-1-190h30c1 10-1 24 2 32 11-22 29-35 61-36" id="S"/><g id="a"><use transform="matrix(0.06790123456790123,0,0,0.06790123456790123,0,0)" xlink:href="#M"/><use transform="matrix(0.06790123456790123,0,0,0.06790123456790123,17.586419753086417,0)" xlink:href="#N"/><use transform="matrix(0.06790123456790123,0,0,0.06790123456790123,31.166666666666664,0)" xlink:href="#O"/><use transform="matrix(0.06790123456790123,0,0,0.06790123456790123,37.95679012345679,0)" xlink:href="#N"/><use transform="matrix(0.06790123456790123,0,0,0.06790123456790123,51.53703703703703,0)" xlink:href="#O"/><use transform="matrix(0.06790123456790123,0,0,0.06790123456790123,58.32716049382715,0)" xlink:href="#P"/><use transform="matrix(0.06790123456790123,0,0,0.06790123456790123,71.90740740740739,0)" xlink:href="#Q"/><use transform="matrix(0.06790123456790123,0,0,0.06790123456790123,84.12962962962962,0)" xlink:href="#R"/><use transform="matrix(0.06790123456790123,0,0,0.06790123456790123,97.70987654320987,0)" xlink:href="#S"/></g><path fill="#fff" d="M101-234c-31-9-42 10-38 44h38v23H63V0H32v-167H5v-23h27c-7-52 17-82 69-68v24" id="T"/><path fill="#fff" d="M96-169c-40 0-48 33-48 73s9 75 48 75c24 0 41-14 43-38l32 2c-6 37-31 61-74 61-59 0-76-41-82-99-10-93 101-131 147-64 4 7 5 14 7 22l-32 3c-4-21-16-35-41-35" id="U"/><path fill="#fff" d="M114-163C36-179 61-72 57 0H25l-1-190h30c1 12-1 29 2 39 6-27 23-49 58-41v29" id="V"/><path fill="#fff" d="M179-190L93 31C79 59 56 82 12 73V49c39 6 53-20 64-50L1-190h34L92-34l54-156h33" id="W"/><g id="b"><use transform="matrix(0.06790123456790123,0,0,0.06790123456790123,0,0)" xlink:href="#T"/><use transform="matrix(0.06790123456790123,0,0,0.06790123456790123,6.790123456790123,0)" xlink:href="#N"/><use transform="matrix(0.06790123456790123,0,0,0.06790123456790123,20.37037037037037,0)" xlink:href="#U"/><use transform="matrix(0.06790123456790123,0,0,0.06790123456790123,32.592592592592595,0)" xlink:href="#O"/><use transform="matrix(0.06790123456790123,0,0,0.06790123456790123,39.38271604938272,0)" xlink:href="#P"/><use transform="matrix(0.06790123456790123,0,0,0.06790123456790123,52.96296296296297,0)" xlink:href="#V"/><use transform="matrix(0.06790123456790123,0,0,0.06790123456790123,61.043209876543216,0)" xlink:href="#W"/></g><path fill="#fff" d="M234-2c-28 10-62 0-77-18C117 19 8 12 13-65c3-43 29-61 60-76-25-40-17-114 47-108 35 3 59 15 59 50 0 44-40 53-71 69 14 26 32 50 51 72 14-21 24-43 30-72l26 8c-9 33-21 57-38 82 13 13 33 22 57 15v23zM97-151c25-10 52-18 56-48-1-18-13-29-33-29-42 0-39 50-23 77zM42-66c-3 51 71 58 98 28-20-24-41-51-56-80-23 10-40 24-42 52" id="X"/><use transform="matrix(0.06790123456790123,0,0,0.06790123456790123,0,0)" xlink:href="#X" id="c"/><path fill="#fff" d="M135-143c-3-34-86-38-87 0 15 53 115 12 119 90S17 21 10-45l28-5c4 36 97 45 98 0-10-56-113-15-118-90-4-57 82-63 122-42 12 7 21 19 24 35" id="Y"/><g id="d"><use transform="matrix(0.06790123456790123,0,0,0.06790123456790123,0,0)" xlink:href="#U"/><use transform="matrix(0.06790123456790123,0,0,0.06790123456790123,12.222222222222221,0)" xlink:href="#P"/><use transform="matrix(0.06790123456790123,0,0,0.06790123456790123,25.80246913580247,0)" xlink:href="#S"/><use transform="matrix(0.06790123456790123,0,0,0.06790123456790123,39.382716049382715,0)" xlink:href="#O"/><use transform="matrix(0.06790123456790123,0,0,0.06790123456790123,46.172839506172835,0)" xlink:href="#V"/><use transform="matrix(0.06790123456790123,0,0,0.06790123456790123,54.25308641975308,0)" xlink:href="#N"/><use transform="matrix(0.06790123456790123,0,0,0.06790123456790123,67.83333333333333,0)" xlink:href="#U"/><use transform="matrix(0.06790123456790123,0,0,0.06790123456790123,80.05555555555553,0)" xlink:href="#O"/><use transform="matrix(0.06790123456790123,0,0,0.06790123456790123,86.84567901234567,0)" xlink:href="#Y"/></g><path fill="#fff" d="M140-251c81 0 123 46 123 126C263-46 219 4 140 4 59 4 17-45 17-125s42-126 123-126zm0 227c63 0 89-41 89-101s-29-99-89-99c-61 0-89 39-89 99S79-25 140-24" id="Z"/><g id="e"><use transform="matrix(0.06790123456790123,0,0,0.06790123456790123,0,0)" xlink:href="#Z"/><use transform="matrix(0.06790123456790123,0,0,0.06790123456790123,19.012345679012345,0)" xlink:href="#S"/></g><path fill="#fff" d="M106-169C34-169 62-67 57 0H25v-261h32l-1 103c12-21 28-36 61-36 89 0 53 116 60 194h-32v-121c2-32-8-49-39-48" id="aa"/><path fill="#fff" d="M24-231v-30h32v30H24zM24 0v-190h32V0H24" id="ab"/><g id="f"><use transform="matrix(0.06790123456790123,0,0,0.06790123456790123,0,0)" xlink:href="#U"/><use transform="matrix(0.06790123456790123,0,0,0.06790123456790123,12.222222222222221,0)" xlink:href="#aa"/><use transform="matrix(0.06790123456790123,0,0,0.06790123456790123,25.80246913580247,0)" xlink:href="#N"/><use transform="matrix(0.06790123456790123,0,0,0.06790123456790123,39.382716049382715,0)" xlink:href="#ab"/><use transform="matrix(0.06790123456790123,0,0,0.06790123456790123,44.74691358024691,0)" xlink:href="#S"/></g><path fill="#fff" d="M240 0l2-218c-23 76-54 145-80 218h-23L58-218 59 0H30v-248h44l77 211c21-75 51-140 76-211h43V0h-30" id="ac"/><path fill="#fff" d="M85-194c31 0 48 13 60 33l-1-100h32l1 261h-30c-2-10 0-23-3-31C134-8 116 4 85 4 32 4 16-35 15-94c0-66 23-100 70-100zm9 24c-40 0-46 34-46 75 0 40 6 74 45 74 42 0 51-32 51-76 0-42-9-74-50-73" id="ad"/><g id="g"><use transform="matrix(0.06790123456790123,0,0,0.06790123456790123,0,0)" xlink:href="#ac"/><use transform="matrix(0.06790123456790123,0,0,0.06790123456790123,20.30246913580247,0)" xlink:href="#R"/><use transform="matrix(0.06790123456790123,0,0,0.06790123456790123,33.882716049382715,0)" xlink:href="#O"/><use transform="matrix(0.06790123456790123,0,0,0.06790123456790123,40.672839506172835,0)" xlink:href="#N"/><use transform="matrix(0.06790123456790123,0,0,0.06790123456790123,54.25308641975308,0)" xlink:href="#ad"/><use transform="matrix(0.06790123456790123,0,0,0.06790123456790123,67.83333333333333,0)" xlink:href="#N"/><use transform="matrix(0.06790123456790123,0,0,0.06790123456790123,81.41358024691358,0)" xlink:href="#O"/><use transform="matrix(0.06790123456790123,0,0,0.06790123456790123,88.2037037037037,0)" xlink:href="#N"/></g><path fill="#fff" d="M185-189c-5-48-123-54-124 2 14 75 158 14 163 119 3 78-121 87-175 55-17-10-28-26-33-46l33-7c5 56 141 63 141-1 0-78-155-14-162-118-5-82 145-84 179-34 5 7 8 16 11 25" id="ae"/><g id="h"><use transform="matrix(0.06790123456790123,0,0,0.06790123456790123,0,0)" xlink:href="#ae"/><use transform="matrix(0.06790123456790123,0,0,0.06790123456790123,16.296296296296294,0)" xlink:href="#O"/><use transform="matrix(0.06790123456790123,0,0,0.06790123456790123,23.086419753086417,0)" xlink:href="#P"/><use transform="matrix(0.06790123456790123,0,0,0.06790123456790123,36.666666666666664,0)" xlink:href="#V"/><use transform="matrix(0.06790123456790123,0,0,0.06790123456790123,44.74691358024691,0)" xlink:href="#R"/></g><path fill="#fff" d="M30 0v-248h187v28H63v79h144v27H63v87h162V0H30" id="af"/><path fill="#fff" d="M127-220V0H93v-220H8v-28h204v28h-85" id="ag"/><path fill="#fff" d="M197 0v-115H63V0H30v-248h33v105h134v-105h34V0h-34" id="ah"/><path fill="#fff" d="M233-177c-1 41-23 64-60 70L243 0h-38l-65-103H63V0H30v-248c88 3 205-21 203 71zM63-129c60-2 137 13 137-47 0-61-80-42-137-45v92" id="ai"/><path fill="#fff" d="M232-93c-1 65-40 97-104 97C67 4 28-28 28-90v-158h33c8 89-33 224 67 224 102 0 64-133 71-224h33v155" id="aj"/><g id="i"><use transform="matrix(0.06790123456790123,0,0,0.06790123456790123,0,0)" xlink:href="#af"/><use transform="matrix(0.06790123456790123,0,0,0.06790123456790123,16.296296296296294,0)" xlink:href="#ag"/><use transform="matrix(0.06790123456790123,0,0,0.06790123456790123,31.166666666666664,0)" xlink:href="#ah"/><use transform="matrix(0.06790123456790123,0,0,0.06790123456790123,48.75308641975308,0)" xlink:href="#af"/><use transform="matrix(0.06790123456790123,0,0,0.06790123456790123,65.04938271604938,0)" xlink:href="#ai"/><use transform="matrix(0.06790123456790123,0,0,0.06790123456790123,82.6358024691358,0)" xlink:href="#af"/><use transform="matrix(0.06790123456790123,0,0,0.06790123456790123,98.93209876543209,0)" xlink:href="#aj"/><use transform="matrix(0.06790123456790123,0,0,0.06790123456790123,116.51851851851852,0)" xlink:href="#ac"/></g><path fill="#fff" d="M160-131c35 5 61 23 61 61C221 17 115-2 30 0v-248c76 3 177-17 177 60 0 33-19 50-47 57zm-97-11c50-1 110 9 110-42 0-47-63-36-110-37v79zm0 115c55-2 124 14 124-45 0-56-70-42-124-44v89" id="ak"/><path fill="#fff" d="M30 0v-248h33v221h125V0H30" id="al"/><path fill="#fff" d="M212-179c-10-28-35-45-73-45-59 0-87 40-87 99 0 60 29 101 89 101 43 0 62-24 78-52l27 14C228-24 195 4 139 4 59 4 22-46 18-125c-6-104 99-153 187-111 19 9 31 26 39 46" id="am"/><path fill="#fff" d="M194 0L95-120 63-95V0H30v-248h33v124l119-124h40L117-140 236 0h-42" id="an"/><path fill="#fff" d="M205 0l-28-72H64L36 0H1l101-248h38L239 0h-34zm-38-99l-47-123c-12 45-31 82-46 123h93" id="ao"/><path fill="#fff" d="M33 0v-248h34V0H33" id="ap"/><path fill="#fff" d="M190 0L58-211 59 0H30v-248h39L202-35l-2-213h31V0h-41" id="aq"/><g id="j"><use transform="matrix(0.06790123456790123,0,0,0.06790123456790123,0,0)" xlink:href="#ak"/><use transform="matrix(0.06790123456790123,0,0,0.06790123456790123,16.296296296296294,0)" xlink:href="#al"/><use transform="matrix(0.06790123456790123,0,0,0.06790123456790123,29.87654320987654,0)" xlink:href="#Z"/><use transform="matrix(0.06790123456790123,0,0,0.06790123456790123,48.888888888888886,0)" xlink:href="#am"/><use transform="matrix(0.06790123456790123,0,0,0.06790123456790123,66.4753086419753,0)" xlink:href="#an"/><use transform="matrix(0.06790123456790123,0,0,0.06790123456790123,82.7716049382716,0)" xlink:href="#am"/><use transform="matrix(0.06790123456790123,0,0,0.06790123456790123,100.358024691358,0)" xlink:href="#ah"/><use transform="matrix(0.06790123456790123,0,0,0.06790123456790123,117.94444444444443,0)" xlink:href="#ao"/><use transform="matrix(0.06790123456790123,0,0,0.06790123456790123,134.24074074074073,0)" xlink:href="#ap"/><use transform="matrix(0.06790123456790123,0,0,0.06790123456790123,141.03086419753086,0)" xlink:href="#aq"/></g><g id="k"><use transform="matrix(0.06790123456790123,0,0,0.06790123456790123,0,0)" xlink:href="#Z"/><use transform="matrix(0.06790123456790123,0,0,0.06790123456790123,19.012345679012345,0)" xlink:href="#U"/><use transform="matrix(0.06790123456790123,0,0,0.06790123456790123,31.234567901234566,0)" xlink:href="#R"/><use transform="matrix(0.06790123456790123,0,0,0.06790123456790123,44.81481481481481,0)" xlink:href="#N"/><use transform="matrix(0.06790123456790123,0,0,0.06790123456790123,58.395061728395056,0)" xlink:href="#S"/></g><path fill="#fff" d="M153-248C145-148 188 4 80 4 36 3 13-21 6-62l32-5c4 25 16 42 43 43 27 0 39-20 39-49v-147H72v-28h81" id="ar"/><path fill="#fff" d="M108 0H70L1-190h34L89-25l56-165h34" id="as"/><path fill="#fff" d="M115-194c55 1 70 41 70 98S169 2 115 4C84 4 66-9 55-30l1 105H24l-1-265h31l2 30c10-21 28-34 59-34zm-8 174c40 0 45-34 45-75s-6-73-45-74c-42 0-51 32-51 76 0 43 10 73 51 73" id="at"/><g id="l"><use transform="matrix(0.06790123456790123,0,0,0.06790123456790123,0,0)" xlink:href="#ar"/><use transform="matrix(0.06790123456790123,0,0,0.06790123456790123,12.222222222222221,0)" xlink:href="#N"/><use transform="matrix(0.06790123456790123,0,0,0.06790123456790123,25.80246913580247,0)" xlink:href="#as"/><use transform="matrix(0.06790123456790123,0,0,0.06790123456790123,38.02469135802469,0)" xlink:href="#N"/><use transform="matrix(0.06790123456790123,0,0,0.06790123456790123,51.60493827160494,0)" xlink:href="#Y"/><use transform="matrix(0.06790123456790123,0,0,0.06790123456790123,63.82716049382716,0)" xlink:href="#U"/><use transform="matrix(0.06790123456790123,0,0,0.06790123456790123,76.04938271604938,0)" xlink:href="#V"/><use transform="matrix(0.06790123456790123,0,0,0.06790123456790123,84.12962962962962,0)" xlink:href="#ab"/><use transform="matrix(0.06790123456790123,0,0,0.06790123456790123,89.49382716049382,0)" xlink:href="#at"/><use transform="matrix(0.06790123456790123,0,0,0.06790123456790123,103.07407407407409,0)" xlink:href="#O"/></g><path fill="#fff" d="M115-194c53 0 69 39 70 98 0 66-23 100-70 100C84 3 66-7 56-30L54 0H23l1-261h32v101c10-23 28-34 59-34zm-8 174c40 0 45-34 45-75 0-40-5-75-45-74-42 0-51 32-51 76 0 43 10 73 51 73" id="au"/><g id="m"><use transform="matrix(0.06790123456790123,0,0,0.06790123456790123,0,0)" xlink:href="#al"/><use transform="matrix(0.06790123456790123,0,0,0.06790123456790123,13.580246913580247,0)" xlink:href="#ab"/><use transform="matrix(0.06790123456790123,0,0,0.06790123456790123,18.944444444444443,0)" xlink:href="#au"/><use transform="matrix(0.06790123456790123,0,0,0.06790123456790123,32.52469135802469,0)" xlink:href="#V"/><use transform="matrix(0.06790123456790123,0,0,0.06790123456790123,40.60493827160494,0)" xlink:href="#N"/><use transform="matrix(0.06790123456790123,0,0,0.06790123456790123,54.18518518518518,0)" xlink:href="#V"/><use transform="matrix(0.06790123456790123,0,0,0.06790123456790123,62.26543209876543,0)" xlink:href="#ab"/><use transform="matrix(0.06790123456790123,0,0,0.06790123456790123,67.62962962962963,0)" xlink:href="#R"/><use transform="matrix(0.06790123456790123,0,0,0.06790123456790123,81.20987654320987,0)" xlink:href="#Y"/></g><g id="n"><use transform="matrix(0.06790123456790123,0,0,0.06790123456790123,0,0)" xlink:href="#ai"/><use transform="matrix(0.06790123456790123,0,0,0.06790123456790123,17.586419753086417,0)" xlink:href="#R"/><use transform="matrix(0.06790123456790123,0,0,0.06790123456790123,31.166666666666664,0)" xlink:href="#N"/><use transform="matrix(0.06790123456790123,0,0,0.06790123456790123,44.74691358024691,0)" xlink:href="#U"/><use transform="matrix(0.06790123456790123,0,0,0.06790123456790123,56.96913580246913,0)" xlink:href="#O"/></g><g id="o"><use transform="matrix(0.06790123456790123,0,0,0.06790123456790123,0,0)" xlink:href="#ah"/><use transform="matrix(0.06790123456790123,0,0,0.06790123456790123,17.586419753086417,0)" xlink:href="#P"/><use transform="matrix(0.06790123456790123,0,0,0.06790123456790123,31.166666666666664,0)" xlink:href="#P"/><use transform="matrix(0.06790123456790123,0,0,0.06790123456790123,44.74691358024691,0)" xlink:href="#Q"/><use transform="matrix(0.06790123456790123,0,0,0.06790123456790123,56.96913580246913,0)" xlink:href="#Y"/></g><path fill="#fff" d="M230 0l2-204L168 0h-37L68-204 70 0H24v-248h70l56 185 57-185h69V0h-46" id="av"/><path fill="#fff" d="M133-34C117-15 103 5 69 4 32 3 11-16 11-54c-1-60 55-63 116-61 1-26-3-47-28-47-18 1-26 9-28 27l-52-2c7-38 36-58 82-57s74 22 75 68l1 82c-1 14 12 18 25 15v27c-30 8-71 5-69-32zm-48 3c29 0 43-24 42-57-32 0-66-3-65 30 0 17 8 27 23 27" id="aw"/><path fill="#fff" d="M135-150c-39-12-60 13-60 57V0H25l-1-190h47c2 13-1 29 3 40 6-28 27-53 61-41v41" id="ax"/><path fill="#fff" d="M147 0L96-86 75-71V0H25v-261h50v150l67-79h53l-66 74L201 0h-54" id="ay"/><path fill="#fff" d="M185-48c-13 30-37 53-82 52C43 2 14-33 14-96s30-98 90-98c62 0 83 45 84 108H66c0 31 8 55 39 56 18 0 30-7 34-22zm-45-69c5-46-57-63-70-21-2 6-4 13-4 21h74" id="az"/><path fill="#fff" d="M115-3C79 11 28 4 28-45v-112H4v-33h27l15-45h31v45h36v33H77v99c-1 23 16 31 38 25v30" id="aA"/><path fill="#fff" d="M135-194c53 0 70 44 70 98 0 56-19 98-73 100-31 1-45-17-59-34 3 33 2 69 2 105H25l-1-265h48c2 10 0 23 3 31 11-24 29-35 60-35zM114-30c33 0 39-31 40-66 0-38-9-64-40-64-56 0-55 130 0 130" id="aB"/><path fill="#fff" d="M25 0v-261h50V0H25" id="aC"/><path fill="#fff" d="M190-63c-7 42-38 67-86 67-59 0-84-38-90-98-12-110 154-137 174-36l-49 2c-2-19-15-32-35-32-30 0-35 28-38 64-6 74 65 87 74 30" id="aD"/><g id="p"><use transform="matrix(0.0691358024691358,0,0,0.0691358024691358,0,0)" xlink:href="#av"/><use transform="matrix(0.0691358024691358,0,0,0.0691358024691358,20.671604938271603,0)" xlink:href="#aw"/><use transform="matrix(0.0691358024691358,0,0,0.0691358024691358,34.498765432098764,0)" xlink:href="#ax"/><use transform="matrix(0.0691358024691358,0,0,0.0691358024691358,44.17777777777777,0)" xlink:href="#ay"/><use transform="matrix(0.0691358024691358,0,0,0.0691358024691358,58.004938271604935,0)" xlink:href="#az"/><use transform="matrix(0.0691358024691358,0,0,0.0691358024691358,71.8320987654321,0)" xlink:href="#aA"/><use transform="matrix(0.0691358024691358,0,0,0.0691358024691358,80.05925925925925,0)" xlink:href="#aB"/><use transform="matrix(0.0691358024691358,0,0,0.0691358024691358,95.19999999999999,0)" xlink:href="#aC"/><use transform="matrix(0.0691358024691358,0,0,0.0691358024691358,102.11358024691357,0)" xlink:href="#aw"/><use transform="matrix(0.0691358024691358,0,0,0.0691358024691358,115.94074074074074,0)" xlink:href="#aD"/><use transform="matrix(0.0691358024691358,0,0,0.0691358024691358,129.7679012345679,0)" xlink:href="#az"/></g><path fill="#fff" d="M76-208v77h127v40H76V0H24v-248h183v40H76" id="aE"/><path fill="#fff" d="M110-194c64 0 96 36 96 99 0 64-35 99-97 99-61 0-95-36-95-99 0-62 34-99 96-99zm-1 164c35 0 45-28 45-65 0-40-10-65-43-65-34 0-45 26-45 65 0 36 10 65 43 65" id="aF"/><path fill="#fff" d="M135-194c87-1 58 113 63 194h-50c-7-57 23-157-34-157-59 0-34 97-39 157H25l-1-190h47c2 12-1 28 3 38 12-26 28-41 61-42" id="aG"/><path fill="#fff" d="M88-194c31-1 46 15 58 34l-1-101h50l1 261h-48c-2-10 0-23-3-31C134-8 116 4 84 4 32 4 16-41 15-95c0-56 19-97 73-99zm17 164c33 0 40-30 41-66 1-37-9-64-41-64s-38 30-39 65c0 43 13 65 39 65" id="aH"/><g id="q"><use transform="matrix(0.0691358024691358,0,0,0.0691358024691358,0,0)" xlink:href="#aE"/><use transform="matrix(0.0691358024691358,0,0,0.0691358024691358,15.140740740740739,0)" xlink:href="#ax"/><use transform="matrix(0.0691358024691358,0,0,0.0691358024691358,24.81975308641975,0)" xlink:href="#aF"/><use transform="matrix(0.0691358024691358,0,0,0.0691358024691358,39.96049382716049,0)" xlink:href="#aG"/><use transform="matrix(0.0691358024691358,0,0,0.0691358024691358,55.10123456790123,0)" xlink:href="#aA"/><use transform="matrix(0.0691358024691358,0,0,0.0691358024691358,63.328395061728386,0)" xlink:href="#az"/><use transform="matrix(0.0691358024691358,0,0,0.0691358024691358,77.15555555555555,0)" xlink:href="#aG"/><use transform="matrix(0.0691358024691358,0,0,0.0691358024691358,92.29629629629629,0)" xlink:href="#aH"/></g><path fill="#fff" d="M24-248c120-7 223 5 221 122C244-46 201 0 124 0H24v-248zM76-40c74 7 117-18 117-86 0-67-45-88-117-82v168" id="aI"/><path fill="#fff" d="M25-224v-37h50v37H25zM25 0v-190h50V0H25" id="aJ"/><path fill="#fff" d="M12 0v-35l95-120H19v-35h142v35L67-36h103V0H12" id="aK"/><g id="r"><use transform="matrix(0.06790123456790123,0,0,0.06790123456790123,0,0)" xlink:href="#aI"/><use transform="matrix(0.06790123456790123,0,0,0.06790123456790123,17.586419753086417,0)" xlink:href="#az"/><use transform="matrix(0.06790123456790123,0,0,0.06790123456790123,31.166666666666664,0)" xlink:href="#aD"/><use transform="matrix(0.06790123456790123,0,0,0.06790123456790123,44.74691358024691,0)" xlink:href="#az"/><use transform="matrix(0.06790123456790123,0,0,0.06790123456790123,58.32716049382716,0)" xlink:href="#aG"/><use transform="matrix(0.06790123456790123,0,0,0.06790123456790123,73.19753086419753,0)" xlink:href="#aA"/><use transform="matrix(0.06790123456790123,0,0,0.06790123456790123,81.27777777777777,0)" xlink:href="#ax"/><use transform="matrix(0.06790123456790123,0,0,0.06790123456790123,90.78395061728395,0)" xlink:href="#aw"/><use transform="matrix(0.06790123456790123,0,0,0.06790123456790123,104.3641975308642,0)" xlink:href="#aC"/><use transform="matrix(0.06790123456790123,0,0,0.06790123456790123,111.15432098765433,0)" xlink:href="#aJ"/><use transform="matrix(0.06790123456790123,0,0,0.06790123456790123,117.94444444444446,0)" xlink:href="#aK"/><use transform="matrix(0.06790123456790123,0,0,0.06790123456790123,130.16666666666669,0)" xlink:href="#az"/><use transform="matrix(0.06790123456790123,0,0,0.06790123456790123,143.74691358024694,0)" xlink:href="#aH"/></g><path fill="#fff" d="M182-130c37 4 62 22 62 59C244 23 116-4 24 0v-248c84 5 203-23 205 63 0 31-19 50-47 55zM76-148c40-3 101 13 101-30 0-44-60-28-101-31v61zm0 110c48-3 116 14 116-37 0-48-69-32-116-35v72" id="aL"/><g id="s"><use transform="matrix(0.06790123456790123,0,0,0.06790123456790123,0,0)" xlink:href="#aL"/><use transform="matrix(0.06790123456790123,0,0,0.06790123456790123,17.586419753086417,0)" xlink:href="#aw"/><use transform="matrix(0.06790123456790123,0,0,0.06790123456790123,31.166666666666664,0)" xlink:href="#aD"/><use transform="matrix(0.06790123456790123,0,0,0.06790123456790123,44.74691358024691,0)" xlink:href="#ay"/><use transform="matrix(0.06790123456790123,0,0,0.06790123456790123,58.32716049382716,0)" xlink:href="#az"/><use transform="matrix(0.06790123456790123,0,0,0.06790123456790123,71.9074074074074,0)" xlink:href="#aG"/><use transform="matrix(0.06790123456790123,0,0,0.06790123456790123,86.77777777777777,0)" xlink:href="#aH"/></g><g id="t"><use transform="matrix(0.06790123456790123,0,0,0.06790123456790123,0,0)" xlink:href="#M"/><use transform="matrix(0.06790123456790123,0,0,0.06790123456790123,17.586419753086417,0)" xlink:href="#N"/><use transform="matrix(0.06790123456790123,0,0,0.06790123456790123,31.166666666666664,0)" xlink:href="#O"/><use transform="matrix(0.06790123456790123,0,0,0.06790123456790123,37.95679012345679,0)" xlink:href="#N"/></g><path fill="#fff" d="M84 4C-5 8 30-112 23-190h32v120c0 31 7 50 39 49 72-2 45-101 50-169h31l1 190h-30c-1-10 1-25-2-33-11 22-28 36-60 37" id="aM"/><g id="u"><use transform="matrix(0.06790123456790123,0,0,0.06790123456790123,0,0)" xlink:href="#ak"/><use transform="matrix(0.06790123456790123,0,0,0.06790123456790123,16.296296296296294,0)" xlink:href="#aM"/><use transform="matrix(0.06790123456790123,0,0,0.06790123456790123,29.87654320987654,0)" xlink:href="#W"/><use transform="matrix(0.06790123456790123,0,0,0.06790123456790123,42.09876543209876,0)" xlink:href="#R"/><use transform="matrix(0.06790123456790123,0,0,0.06790123456790123,55.67901234567901,0)" xlink:href="#V"/></g><path fill="#fff" d="M111-147c44 9 85 22 84 75-1 49-35 65-84 68v31H91V-4C40-5 12-27 5-72l45-8c4 24 15 38 41 40-2-22 4-51-2-69-39-10-76-22-76-72 0-47 35-60 78-63v-23h20v23c47 1 70 23 78 62l-46 7c-4-18-12-32-32-34v62zm-20-63c-33-4-45 46-13 54 4 1 8 2 13 4v-58zm20 170c39 5 53-51 15-60-7-2-7-2-15-4v64" id="aN"/><use transform="matrix(0.06790123456790123,0,0,0.06790123456790123,0,0)" xlink:href="#aN" id="v"/><g id="w"><use transform="matrix(0.06790123456790123,0,0,0.06790123456790123,0,0)" xlink:href="#aF"/><use transform="matrix(0.06790123456790123,0,0,0.06790123456790123,14.87037037037037,0)" xlink:href="#ax"/></g><path fill="#fff" d="M140-251c80 0 125 45 125 126S219 4 139 4C58 4 15-44 15-125s44-126 125-126zm-1 214c52 0 73-35 73-88 0-50-21-86-72-86-52 0-73 35-73 86s22 88 72 88" id="aO"/><path fill="#fff" d="M67-125c0 53 21 87 73 88 37 1 54-22 65-47l45 17C233-25 199 4 140 4 58 4 20-42 15-125 8-235 124-281 211-232c18 10 29 29 36 50l-46 12c-8-25-30-41-62-41-52 0-71 34-72 86" id="aP"/><path fill="#fff" d="M24 0v-248h195v40H76v63h132v40H76v65h150V0H24" id="aQ"/><path fill="#fff" d="M199 0l-22-63H83L61 0H9l90-248h61L250 0h-51zm-33-102l-36-108c-10 38-24 72-36 108h72" id="aR"/><path fill="#fff" d="M175 0L67-191c6 58 2 128 3 191H24v-248h59L193-55c-6-58-2-129-3-193h46V0h-61" id="aS"/><g id="x"><use transform="matrix(0.06790123456790123,0,0,0.06790123456790123,0,0)" xlink:href="#aO"/><use transform="matrix(0.06790123456790123,0,0,0.06790123456790123,19.012345679012345,0)" xlink:href="#aP"/><use transform="matrix(0.06790123456790123,0,0,0.06790123456790123,36.59876543209876,0)" xlink:href="#aQ"/><use transform="matrix(0.06790123456790123,0,0,0.06790123456790123,52.89506172839505,0)" xlink:href="#aR"/><use transform="matrix(0.06790123456790123,0,0,0.06790123456790123,70.48148148148147,0)" xlink:href="#aS"/></g><g id="y"><use transform="matrix(0.08024691358024688,0,0,0.08024691358024688,0,0)" xlink:href="#ap"/><use transform="matrix(0.08024691358024688,0,0,0.08024691358024688,8.024691358024688,0)" xlink:href="#S"/><use transform="matrix(0.08024691358024688,0,0,0.08024691358024688,24.07407407407406,0)" xlink:href="#O"/><use transform="matrix(0.08024691358024688,0,0,0.08024691358024688,32.09876543209875,0)" xlink:href="#R"/><use transform="matrix(0.08024691358024688,0,0,0.08024691358024688,48.14814814814812,0)" xlink:href="#V"/><use transform="matrix(0.08024691358024688,0,0,0.08024691358024688,57.69753086419751,0)" xlink:href="#N"/><use transform="matrix(0.08024691358024688,0,0,0.08024691358024688,73.74691358024688,0)" xlink:href="#U"/><use transform="matrix(0.08024691358024688,0,0,0.08024691358024688,88.19135802469133,0)" xlink:href="#O"/></g><path fill="#fff" d="M206 0h-36l-40-164L89 0H53L-1-190h32L70-26l43-164h34l41 164 42-164h31" id="aT"/><g id="z"><use transform="matrix(0.08024691358024688,0,0,0.08024691358024688,0,0)" xlink:href="#aT"/><use transform="matrix(0.08024691358024688,0,0,0.08024691358024688,20.783950617283942,0)" xlink:href="#ab"/><use transform="matrix(0.08024691358024688,0,0,0.08024691358024688,27.123456790123445,0)" xlink:href="#O"/><use transform="matrix(0.08024691358024688,0,0,0.08024691358024688,35.14814814814813,0)" xlink:href="#aa"/></g><g id="A"><use transform="matrix(0.08024691358024688,0,0,0.08024691358024688,0,0)" xlink:href="#Z"/><use transform="matrix(0.08024691358024688,0,0,0.08024691358024688,22.469135802469125,0)" xlink:href="#U"/><use transform="matrix(0.08024691358024688,0,0,0.08024691358024688,36.91358024691357,0)" xlink:href="#R"/><use transform="matrix(0.08024691358024688,0,0,0.08024691358024688,52.96296296296295,0)" xlink:href="#N"/><use transform="matrix(0.08024691358024688,0,0,0.08024691358024688,69.01234567901233,0)" xlink:href="#S"/></g><g id="B"><use transform="matrix(0.08024691358024688,0,0,0.08024691358024688,0,0)" xlink:href="#ac"/><use transform="matrix(0.08024691358024688,0,0,0.08024691358024688,23.99382716049382,0)" xlink:href="#N"/><use transform="matrix(0.08024691358024688,0,0,0.08024691358024688,40.043209876543195,0)" xlink:href="#V"/><use transform="matrix(0.08024691358024688,0,0,0.08024691358024688,49.592592592592574,0)" xlink:href="#Q"/><use transform="matrix(0.08024691358024688,0,0,0.08024691358024688,64.03703703703701,0)" xlink:href="#R"/><use transform="matrix(0.08024691358024688,0,0,0.08024691358024688,80.08641975308639,0)" xlink:href="#O"/></g><g id="C"><use transform="matrix(0.08024691358024688,0,0,0.08024691358024688,0,0)" xlink:href="#P"/><use transform="matrix(0.08024691358024688,0,0,0.08024691358024688,16.049382716049376,0)" xlink:href="#V"/></g><g id="D"><use transform="matrix(0.08024691358024688,0,0,0.08024691358024688,0,0)" xlink:href="#ag"/><use transform="matrix(0.08024691358024688,0,0,0.08024691358024688,17.574074074074066,0)" xlink:href="#aa"/><use transform="matrix(0.08024691358024688,0,0,0.08024691358024688,33.62345679012344,0)" xlink:href="#ab"/><use transform="matrix(0.08024691358024688,0,0,0.08024691358024688,39.96296296296295,0)" xlink:href="#V"/><use transform="matrix(0.08024691358024688,0,0,0.08024691358024688,49.51234567901233,0)" xlink:href="#ad"/></g><path fill="#fff" d="M30-248c87 1 191-15 191 75 0 78-77 80-158 76V0H30v-248zm33 125c57 0 124 11 124-50 0-59-68-47-124-48v98" id="aU"/><g id="E"><use transform="matrix(0.08024691358024688,0,0,0.08024691358024688,0,0)" xlink:href="#aU"/><use transform="matrix(0.08024691358024688,0,0,0.08024691358024688,19.259259259259252,0)" xlink:href="#N"/><use transform="matrix(0.08024691358024688,0,0,0.08024691358024688,35.30864197530863,0)" xlink:href="#V"/><use transform="matrix(0.08024691358024688,0,0,0.08024691358024688,44.858024691358004,0)" xlink:href="#O"/><use transform="matrix(0.08024691358024688,0,0,0.08024691358024688,52.8827160493827,0)" xlink:href="#W"/></g><path fill="#fff" d="M24 0v-261h32V0H24" id="aV"/><g id="F"><use transform="matrix(0.08024691358024688,0,0,0.08024691358024688,0,0)" xlink:href="#ac"/><use transform="matrix(0.08024691358024688,0,0,0.08024691358024688,23.99382716049382,0)" xlink:href="#N"/><use transform="matrix(0.08024691358024688,0,0,0.08024691358024688,40.043209876543195,0)" xlink:href="#V"/><use transform="matrix(0.08024691358024688,0,0,0.08024691358024688,49.592592592592574,0)" xlink:href="#Q"/><use transform="matrix(0.08024691358024688,0,0,0.08024691358024688,64.03703703703701,0)" xlink:href="#R"/><use transform="matrix(0.08024691358024688,0,0,0.08024691358024688,80.08641975308639,0)" xlink:href="#O"/><use transform="matrix(0.08024691358024688,0,0,0.08024691358024688,88.11111111111107,0)" xlink:href="#at"/><use transform="matrix(0.08024691358024688,0,0,0.08024691358024688,104.16049382716045,0)" xlink:href="#aV"/><use transform="matrix(0.08024691358024688,0,0,0.08024691358024688,110.49999999999996,0)" xlink:href="#N"/><use transform="matrix(0.08024691358024688,0,0,0.08024691358024688,126.54938271604934,0)" xlink:href="#U"/><use transform="matrix(0.08024691358024688,0,0,0.08024691358024688,140.99382716049377,0)" xlink:href="#R"/></g><g id="G"><use transform="matrix(0.06790123456790123,0,0,0.06790123456790123,0,0)" xlink:href="#ae"/><use transform="matrix(0.06790123456790123,0,0,0.06790123456790123,16.296296296296294,0)" xlink:href="#R"/><use transform="matrix(0.06790123456790123,0,0,0.06790123456790123,29.87654320987654,0)" xlink:href="#aV"/><use transform="matrix(0.06790123456790123,0,0,0.06790123456790123,35.24074074074074,0)" xlink:href="#aV"/><use transform="matrix(0.06790123456790123,0,0,0.06790123456790123,40.60493827160494,0)" xlink:href="#R"/><use transform="matrix(0.06790123456790123,0,0,0.06790123456790123,54.18518518518518,0)" xlink:href="#V"/></g><g id="H"><use transform="matrix(0.06790123456790123,0,0,0.06790123456790123,0,0)" xlink:href="#aQ"/><use transform="matrix(0.06790123456790123,0,0,0.06790123456790123,16.296296296296294,0)" xlink:href="#aw"/><use transform="matrix(0.06790123456790123,0,0,0.06790123456790123,29.87654320987654,0)" xlink:href="#ax"/><use transform="matrix(0.06790123456790123,0,0,0.06790123456790123,39.382716049382715,0)" xlink:href="#aG"/></g><path fill="#fff" d="M121-226c-27-7-43 5-38 36h38v33H83V0H34v-157H6v-33h28c-9-59 32-81 87-68v32" id="aW"/><path fill="#fff" d="M137-138c1-29-70-34-71-4 15 46 118 7 119 86 1 83-164 76-172 9l43-7c4 19 20 25 44 25 33 8 57-30 24-41C81-84 22-81 20-136c-2-80 154-74 161-7" id="aX"/><g id="I"><use transform="matrix(0.06790123456790123,0,0,0.06790123456790123,0,0)" xlink:href="#aW"/><use transform="matrix(0.06790123456790123,0,0,0.06790123456790123,8.080246913580247,0)" xlink:href="#az"/><use transform="matrix(0.06790123456790123,0,0,0.06790123456790123,21.660493827160494,0)" xlink:href="#az"/><use transform="matrix(0.06790123456790123,0,0,0.06790123456790123,35.24074074074074,0)" xlink:href="#aX"/></g><g id="J"><use transform="matrix(0.06790123456790123,0,0,0.06790123456790123,0,0)" xlink:href="#aJ"/><use transform="matrix(0.06790123456790123,0,0,0.06790123456790123,6.790123456790123,0)" xlink:href="#aG"/></g><use transform="matrix(0.06790123456790123,0,0,0.06790123456790123,0,0)" xlink:href="#aN" id="K"/><g id="L"><use transform="matrix(0.06790123456790123,0,0,0.06790123456790123,0,0)" xlink:href="#aF"/><use transform="matrix(0.06790123456790123,0,0,0.06790123456790123,14.87037037037037,0)" xlink:href="#ax"/></g></defs></g></svg>