<svg height="484" viewBox="0 0 555 484" width="555" xmlns="http://www.w3.org/2000/svg"><g fill="none"><g transform="translate(40 13)"><circle cx="459.5" cy="209.5" fill="#e2e2e2" fill-rule="evenodd" r="5.5"/><circle cx="459.5" cy="209.5" r="7" stroke="#e2e2e2" stroke-width="3"/><circle cx="44.5" cy="125.5" fill="#e2e2e2" fill-rule="evenodd" r="5.5"/><circle cx="44.5" cy="125.5" r="7" stroke="#e2e2e2" stroke-width="3"/><circle cx="44.5" cy="209.5" fill="#e2e2e2" fill-rule="evenodd" r="5.5"/><circle cx="44.5" cy="209.5" r="7" stroke="#e2e2e2" stroke-width="3"/><circle cx="44.5" cy="292.5" fill="#e2e2e2" fill-rule="evenodd" r="5.5"/><circle cx="44.5" cy="292.5" r="7" stroke="#e2e2e2" stroke-width="3"/><circle cx="5.5" cy="209.5" fill="#e2e2e2" fill-rule="evenodd" r="5.5"/><circle cx="5.5" cy="209.5" r="7" stroke="#e2e2e2" stroke-width="3"/><circle cx="5.5" cy="252.5" fill="#e2e2e2" fill-rule="evenodd" r="5.5"/><circle cx="5.5" cy="252.5" r="7" stroke="#e2e2e2" stroke-width="3"/><circle cx="44.5" cy="167.5" fill="#e2e2e2" fill-rule="evenodd" r="5.5"/><circle cx="44.5" cy="167.5" r="7" stroke="#e2e2e2" stroke-width="3"/><circle cx="44.5" cy="252.5" fill="#e2e2e2" fill-rule="evenodd" r="5.5"/><circle cx="44.5" cy="252.5" r="7" stroke="#e2e2e2" stroke-width="3"/><circle cx="44.5" cy="334.5" fill="#e2e2e2" fill-rule="evenodd" r="5.5"/><circle cx="44.5" cy="334.5" r="7" stroke="#e2e2e2" stroke-width="3"/><circle cx="459.5" cy="252.5" fill="#e2e2e2" fill-rule="evenodd" r="5.5"/><circle cx="459.5" cy="252.5" r="7" stroke="#e2e2e2" stroke-width="3"/><circle cx="209.5" cy="5.5" fill="#e2e2e2" fill-rule="evenodd" r="5.5"/><circle cx="209.5" cy="5.5" r="7" stroke="#e2e2e2" stroke-width="3"/><circle cx="86.5" cy="125.5" fill="#e2e2e2" fill-rule="evenodd" r="5.5"/><circle cx="86.5" cy="125.5" r="7" stroke="#e2e2e2" stroke-width="3"/><circle cx="86.5" cy="209.5" fill="#e2e2e2" fill-rule="evenodd" r="5.5"/><circle cx="86.5" cy="209.5" r="7" stroke="#e2e2e2" stroke-width="3"/><circle cx="86.5" cy="292.5" fill="#e2e2e2" fill-rule="evenodd" r="5.5"/><circle cx="86.5" cy="292.5" r="7" stroke="#e2e2e2" stroke-width="3"/><circle cx="86.5" cy="376.5" fill="#e2e2e2" fill-rule="evenodd" r="5.5"/><circle cx="86.5" cy="376.5" r="7" stroke="#e2e2e2" stroke-width="3"/><circle cx="86.5" cy="86.5" fill="#e2e2e2" fill-rule="evenodd" r="5.5"/><circle cx="86.5" cy="86.5" r="7" stroke="#e2e2e2" stroke-width="3"/><circle cx="86.5" cy="167.5" fill="#e2e2e2" fill-rule="evenodd" r="5.5"/><circle cx="86.5" cy="167.5" r="7" stroke="#e2e2e2" stroke-width="3"/><circle cx="86.5" cy="252.5" fill="#e2e2e2" fill-rule="evenodd" r="5.5"/><circle cx="86.5" cy="252.5" r="7" stroke="#e2e2e2" stroke-width="3"/><circle cx="86.5" cy="334.5" fill="#e2e2e2" fill-rule="evenodd" r="5.5"/><circle cx="86.5" cy="334.5" r="7" stroke="#e2e2e2" stroke-width="3"/><circle cx="125.5" cy="44.5" fill="#e2e2e2" fill-rule="evenodd" r="5.5"/><circle cx="125.5" cy="44.5" r="7" stroke="#e2e2e2" stroke-width="3"/><circle cx="125.5" cy="125.5" fill="#e2e2e2" fill-rule="evenodd" r="5.5"/><circle cx="125.5" cy="125.5" r="7" stroke="#e2e2e2" stroke-width="3"/><circle cx="125.5" cy="209.5" fill="#e2e2e2" fill-rule="evenodd" r="5.5"/><circle cx="125.5" cy="209.5" r="7" stroke="#e2e2e2" stroke-width="3"/><circle cx="125.5" cy="292.5" fill="#e2e2e2" fill-rule="evenodd" r="5.5"/><circle cx="125.5" cy="292.5" r="7" stroke="#e2e2e2" stroke-width="3"/><circle cx="125.5" cy="376.5" fill="#e2e2e2" fill-rule="evenodd" r="5.5"/><circle cx="125.5" cy="376.5" r="7" stroke="#e2e2e2" stroke-width="3"/><circle cx="125.5" cy="86.5" fill="#e2e2e2" fill-rule="evenodd" r="5.5"/><circle cx="125.5" cy="86.5" r="7" stroke="#e2e2e2" stroke-width="3"/><circle cx="126" cy="168" fill="#f6388a" r="11"/><circle cx="125.5" cy="252.5" fill="#e2e2e2" fill-rule="evenodd" r="5.5"/><circle cx="125.5" cy="252.5" r="7" stroke="#e2e2e2" stroke-width="3"/><circle cx="125.5" cy="334.5" fill="#e2e2e2" fill-rule="evenodd" r="5.5"/><circle cx="125.5" cy="334.5" r="7" stroke="#e2e2e2" stroke-width="3"/><circle cx="125.5" cy="417.5" fill="#e2e2e2" fill-rule="evenodd" r="5.5"/><circle cx="125.5" cy="417.5" r="7" stroke="#e2e2e2" stroke-width="3"/><circle cx="167.5" cy="44.5" fill="#e2e2e2" fill-rule="evenodd" r="5.5"/><circle cx="167.5" cy="44.5" r="7" stroke="#e2e2e2" stroke-width="3"/><circle cx="167.5" cy="125.5" fill="#e2e2e2" fill-rule="evenodd" r="5.5"/><circle cx="167.5" cy="125.5" r="7" stroke="#e2e2e2" stroke-width="3"/><circle cx="167.5" cy="209.5" fill="#e2e2e2" fill-rule="evenodd" r="5.5"/><circle cx="167.5" cy="209.5" r="7" stroke="#e2e2e2" stroke-width="3"/><circle cx="167.5" cy="292.5" fill="#e2e2e2" fill-rule="evenodd" r="5.5"/><circle cx="167.5" cy="292.5" r="7" stroke="#e2e2e2" stroke-width="3"/><circle cx="167.5" cy="376.5" fill="#e2e2e2" fill-rule="evenodd" r="5.5"/><circle cx="167.5" cy="376.5" r="7" stroke="#e2e2e2" stroke-width="3"/><circle cx="167.5" cy="86.5" fill="#e2e2e2" fill-rule="evenodd" r="5.5"/><circle cx="167.5" cy="86.5" r="7" stroke="#e2e2e2" stroke-width="3"/><circle cx="167.5" cy="167.5" fill="#e2e2e2" fill-rule="evenodd" r="5.5"/><circle cx="167.5" cy="167.5" r="7" stroke="#e2e2e2" stroke-width="3"/><circle cx="167.5" cy="252.5" fill="#e2e2e2" fill-rule="evenodd" r="5.5"/><circle cx="167.5" cy="252.5" r="7" stroke="#e2e2e2" stroke-width="3"/><circle cx="167.5" cy="334.5" fill="#e2e2e2" fill-rule="evenodd" r="5.5"/><circle cx="167.5" cy="334.5" r="7" stroke="#e2e2e2" stroke-width="3"/><circle cx="167.5" cy="417.5" fill="#e2e2e2" fill-rule="evenodd" r="5.5"/><circle cx="167.5" cy="417.5" r="7" stroke="#e2e2e2" stroke-width="3"/><circle cx="209.5" cy="44.5" fill="#e2e2e2" fill-rule="evenodd" r="5.5"/><circle cx="209.5" cy="44.5" r="7" stroke="#e2e2e2" stroke-width="3"/><circle cx="209.5" cy="125.5" fill="#e2e2e2" fill-rule="evenodd" r="5.5"/><circle cx="209.5" cy="125.5" r="7" stroke="#e2e2e2" stroke-width="3"/><circle cx="209.5" cy="209.5" fill="#e2e2e2" fill-rule="evenodd" r="5.5"/><circle cx="209.5" cy="209.5" r="7" stroke="#e2e2e2" stroke-width="3"/><circle cx="209.5" cy="292.5" fill="#e2e2e2" fill-rule="evenodd" r="5.5"/><circle cx="209.5" cy="292.5" r="7" stroke="#e2e2e2" stroke-width="3"/><circle cx="209.5" cy="376.5" fill="#e2e2e2" fill-rule="evenodd" r="5.5"/><circle cx="209.5" cy="376.5" r="7" stroke="#e2e2e2" stroke-width="3"/><circle cx="209.5" cy="86.5" fill="#e2e2e2" fill-rule="evenodd" r="5.5"/><circle cx="209.5" cy="86.5" r="7" stroke="#e2e2e2" stroke-width="3"/><circle cx="209.5" cy="167.5" fill="#e2e2e2" fill-rule="evenodd" r="5.5"/><circle cx="209.5" cy="167.5" r="7" stroke="#e2e2e2" stroke-width="3"/><circle cx="209.5" cy="252.5" fill="#e2e2e2" fill-rule="evenodd" r="5.5"/><circle cx="209.5" cy="252.5" r="7" stroke="#e2e2e2" stroke-width="3"/><circle cx="209.5" cy="334.5" fill="#e2e2e2" fill-rule="evenodd" r="5.5"/><circle cx="209.5" cy="334.5" r="7" stroke="#e2e2e2" stroke-width="3"/><circle cx="209.5" cy="417.5" fill="#e2e2e2" fill-rule="evenodd" r="5.5"/><circle cx="209.5" cy="417.5" r="7" stroke="#e2e2e2" stroke-width="3"/><circle cx="252.5" cy="44.5" fill="#e2e2e2" fill-rule="evenodd" r="5.5"/><circle cx="252.5" cy="44.5" r="7" stroke="#e2e2e2" stroke-width="3"/><circle cx="252.5" cy="125.5" fill="#e2e2e2" fill-rule="evenodd" r="5.5"/><circle cx="252.5" cy="125.5" r="7" stroke="#e2e2e2" stroke-width="3"/><circle cx="252.5" cy="209.5" fill="#e2e2e2" fill-rule="evenodd" r="5.5"/><circle cx="252.5" cy="209.5" r="7" stroke="#e2e2e2" stroke-width="3"/><circle cx="252.5" cy="292.5" fill="#e2e2e2" fill-rule="evenodd" r="5.5"/><circle cx="252.5" cy="292.5" r="7" stroke="#e2e2e2" stroke-width="3"/><circle cx="252.5" cy="376.5" fill="#e2e2e2" fill-rule="evenodd" r="5.5"/><circle cx="252.5" cy="376.5" r="7" stroke="#e2e2e2" stroke-width="3"/><circle cx="252.5" cy="86.5" fill="#e2e2e2" fill-rule="evenodd" r="5.5"/><circle cx="252.5" cy="86.5" r="7" stroke="#e2e2e2" stroke-width="3"/><circle cx="252.5" cy="167.5" fill="#e2e2e2" fill-rule="evenodd" r="5.5"/><circle cx="252.5" cy="167.5" r="7" stroke="#e2e2e2" stroke-width="3"/><circle cx="252.5" cy="252.5" fill="#e2e2e2" fill-rule="evenodd" r="5.5"/><circle cx="252.5" cy="252.5" r="7" stroke="#e2e2e2" stroke-width="3"/><circle cx="252.5" cy="334.5" fill="#e2e2e2" fill-rule="evenodd" r="5.5"/><circle cx="252.5" cy="334.5" r="7" stroke="#e2e2e2" stroke-width="3"/><circle cx="252.5" cy="417.5" fill="#e2e2e2" fill-rule="evenodd" r="5.5"/><circle cx="252.5" cy="417.5" r="7" stroke="#e2e2e2" stroke-width="3"/><circle cx="292.5" cy="44.5" fill="#e2e2e2" fill-rule="evenodd" r="5.5"/><circle cx="292.5" cy="44.5" r="7" stroke="#e2e2e2" stroke-width="3"/><circle cx="292.5" cy="125.5" fill="#e2e2e2" fill-rule="evenodd" r="5.5"/><circle cx="292.5" cy="125.5" r="7" stroke="#e2e2e2" stroke-width="3"/><circle cx="292.5" cy="209.5" fill="#e2e2e2" fill-rule="evenodd" r="5.5"/><circle cx="292.5" cy="209.5" r="7" stroke="#e2e2e2" stroke-width="3"/><circle cx="292.5" cy="292.5" fill="#e2e2e2" fill-rule="evenodd" r="5.5"/><circle cx="292.5" cy="292.5" r="7" stroke="#e2e2e2" stroke-width="3"/><circle cx="292.5" cy="376.5" fill="#e2e2e2" fill-rule="evenodd" r="5.5"/><circle cx="292.5" cy="376.5" r="7" stroke="#e2e2e2" stroke-width="3"/><circle cx="292.5" cy="86.5" fill="#e2e2e2" fill-rule="evenodd" r="5.5"/><circle cx="292.5" cy="86.5" r="7" stroke="#e2e2e2" stroke-width="3"/><circle cx="292.5" cy="167.5" fill="#e2e2e2" fill-rule="evenodd" r="5.5"/><circle cx="292.5" cy="167.5" r="7" stroke="#e2e2e2" stroke-width="3"/><circle cx="292.5" cy="252.5" fill="#e2e2e2" fill-rule="evenodd" r="5.5"/><circle cx="292.5" cy="252.5" r="7" stroke="#e2e2e2" stroke-width="3"/><circle cx="292.5" cy="334.5" fill="#e2e2e2" fill-rule="evenodd" r="5.5"/><circle cx="292.5" cy="334.5" r="7" stroke="#e2e2e2" stroke-width="3"/><circle cx="292.5" cy="417.5" fill="#e2e2e2" fill-rule="evenodd" r="5.5"/><circle cx="292.5" cy="417.5" r="7" stroke="#e2e2e2" stroke-width="3"/><circle cx="334.5" cy="44.5" fill="#e2e2e2" fill-rule="evenodd" r="5.5"/><circle cx="334.5" cy="44.5" r="7" stroke="#e2e2e2" stroke-width="3"/><circle cx="334.5" cy="125.5" fill="#e2e2e2" fill-rule="evenodd" r="5.5"/><circle cx="334.5" cy="125.5" r="7" stroke="#e2e2e2" stroke-width="3"/><circle cx="334.5" cy="209.5" fill="#e2e2e2" fill-rule="evenodd" r="5.5"/><circle cx="334.5" cy="209.5" r="7" stroke="#e2e2e2" stroke-width="3"/><circle cx="334.5" cy="292.5" fill="#e2e2e2" fill-rule="evenodd" r="5.5"/><circle cx="334.5" cy="292.5" r="7" stroke="#e2e2e2" stroke-width="3"/><circle cx="334.5" cy="376.5" fill="#e2e2e2" fill-rule="evenodd" r="5.5"/><circle cx="334.5" cy="376.5" r="7" stroke="#e2e2e2" stroke-width="3"/><circle cx="334.5" cy="86.5" fill="#e2e2e2" fill-rule="evenodd" r="5.5"/><circle cx="334.5" cy="86.5" r="7" stroke="#e2e2e2" stroke-width="3"/><circle cx="334.5" cy="167.5" fill="#e2e2e2" fill-rule="evenodd" r="5.5"/><circle cx="334.5" cy="167.5" r="7" stroke="#e2e2e2" stroke-width="3"/><circle cx="334.5" cy="252.5" fill="#e2e2e2" fill-rule="evenodd" r="5.5"/><circle cx="334.5" cy="252.5" r="7" stroke="#e2e2e2" stroke-width="3"/><circle cx="334.5" cy="334.5" fill="#e2e2e2" fill-rule="evenodd" r="5.5"/><circle cx="334.5" cy="334.5" r="7" stroke="#e2e2e2" stroke-width="3"/><circle cx="334.5" cy="417.5" fill="#e2e2e2" fill-rule="evenodd" r="5.5"/><circle cx="334.5" cy="417.5" r="7" stroke="#e2e2e2" stroke-width="3"/><circle cx="252.5" cy="5.5" fill="#e2e2e2" fill-rule="evenodd" r="5.5"/><circle cx="252.5" cy="5.5" r="7" stroke="#e2e2e2" stroke-width="3"/><circle cx="376.5" cy="125.5" fill="#e2e2e2" fill-rule="evenodd" r="5.5"/><circle cx="376.5" cy="125.5" r="7" stroke="#e2e2e2" stroke-width="3"/><circle cx="376.5" cy="209.5" fill="#e2e2e2" fill-rule="evenodd" r="5.5"/><circle cx="376.5" cy="209.5" r="7" stroke="#e2e2e2" stroke-width="3"/><circle cx="376.5" cy="292.5" fill="#e2e2e2" fill-rule="evenodd" r="5.5"/><circle cx="376.5" cy="292.5" r="7" stroke="#e2e2e2" stroke-width="3"/><circle cx="376.5" cy="376.5" fill="#e2e2e2" fill-rule="evenodd" r="5.5"/><circle cx="376.5" cy="376.5" r="7" stroke="#e2e2e2" stroke-width="3"/><circle cx="376.5" cy="86.5" fill="#e2e2e2" fill-rule="evenodd" r="5.5"/><circle cx="376.5" cy="86.5" r="7" stroke="#e2e2e2" stroke-width="3"/><circle cx="376.5" cy="167.5" fill="#e2e2e2" fill-rule="evenodd" r="5.5"/><circle cx="376.5" cy="167.5" r="7" stroke="#e2e2e2" stroke-width="3"/><circle cx="376.5" cy="252.5" fill="#e2e2e2" fill-rule="evenodd" r="5.5"/><circle cx="376.5" cy="252.5" r="7" stroke="#e2e2e2" stroke-width="3"/><circle cx="376.5" cy="334.5" fill="#e2e2e2" fill-rule="evenodd" r="5.5"/><circle cx="376.5" cy="334.5" r="7" stroke="#e2e2e2" stroke-width="3"/><circle cx="252.5" cy="459.5" fill="#e2e2e2" fill-rule="evenodd" r="5.5"/><circle cx="252.5" cy="459.5" r="7" stroke="#e2e2e2" stroke-width="3"/><circle cx="459.5" cy="167.5" fill="#e2e2e2" fill-rule="evenodd" r="5.5"/><circle cx="459.5" cy="167.5" r="7" stroke="#e2e2e2" stroke-width="3"/><circle cx="417.5" cy="125.5" fill="#e2e2e2" fill-rule="evenodd" r="5.5"/><circle cx="417.5" cy="125.5" r="7" stroke="#e2e2e2" stroke-width="3"/><circle cx="417.5" cy="209.5" fill="#e2e2e2" fill-rule="evenodd" r="5.5"/><circle cx="417.5" cy="209.5" r="7" stroke="#e2e2e2" stroke-width="3"/><circle cx="417.5" cy="292.5" fill="#e2e2e2" fill-rule="evenodd" r="5.5"/><circle cx="417.5" cy="292.5" r="7" stroke="#e2e2e2" stroke-width="3"/><circle cx="5.5" cy="167.5" fill="#e2e2e2" fill-rule="evenodd" r="5.5"/><circle cx="5.5" cy="167.5" r="7" stroke="#e2e2e2" stroke-width="3"/><circle cx="417.5" cy="167.5" fill="#e2e2e2" fill-rule="evenodd" r="5.5"/><circle cx="417.5" cy="167.5" r="7" stroke="#e2e2e2" stroke-width="3"/><circle cx="417.5" cy="252.5" fill="#e2e2e2" fill-rule="evenodd" r="5.5"/><circle cx="417.5" cy="252.5" r="7" stroke="#e2e2e2" stroke-width="3"/><circle cx="417.5" cy="334.5" fill="#e2e2e2" fill-rule="evenodd" r="5.5"/><circle cx="417.5" cy="334.5" r="7" stroke="#e2e2e2" stroke-width="3"/><circle cx="209.5" cy="459.5" fill="#e2e2e2" fill-rule="evenodd" r="5.5"/><circle cx="209.5" cy="459.5" r="7" stroke="#e2e2e2" stroke-width="3"/></g><circle cx="166" cy="181" fill="#fff" fill-opacity=".104" r="18" stroke="#131212" stroke-width="2"/><circle cx="166" cy="181" fill="#e2e2e2" r="12"/><circle cx="166" cy="181" fill="#ff4092" r="12"/></g></svg>