<svg height="320" viewBox="0 0 414 320" width="414" xmlns="http://www.w3.org/2000/svg"><g fill="none" fill-rule="evenodd"><g fill-rule="nonzero"><circle cx="387" cy="35" fill="#fff" fill-opacity=".104" r="18" stroke="#131212" stroke-width="2"/><circle cx="387" cy="35" fill="#e2e2e2" r="12"/><circle cx="327" cy="35" fill="#fff" fill-opacity=".104" r="18" stroke="#131212" stroke-width="2"/><circle cx="327" cy="35" fill="#e2e2e2" r="12"/><circle cx="267" cy="35" fill="#fff" fill-opacity=".104" r="18" stroke="#131212" stroke-width="2"/><circle cx="267" cy="35" fill="#e2e2e2" r="12"/><circle cx="387" cy="95" fill="#fff" fill-opacity=".104" r="18" stroke="#131212" stroke-width="2"/><circle cx="387" cy="95" fill="#e2e2e2" r="12"/><circle cx="327" cy="95" fill="#fff" fill-opacity=".104" r="18" stroke="#131212" stroke-width="2"/><circle cx="327" cy="95" fill="#e2e2e2" r="12"/><circle cx="267" cy="95" fill="#fff" fill-opacity=".104" r="18" stroke="#131212" stroke-width="2"/><circle cx="267" cy="95" fill="#e2e2e2" r="12"/><circle cx="387" cy="155" fill="#fff" fill-opacity=".104" r="18" stroke="#131212" stroke-width="2"/><circle cx="387" cy="155" fill="#e2e2e2" r="12"/><circle cx="327" cy="155" fill="#fff" fill-opacity=".104" r="18" stroke="#131212" stroke-width="2"/><circle cx="327" cy="155" fill="#e2e2e2" r="12"/><circle cx="267" cy="155" fill="#fff" fill-opacity=".104" r="18" stroke="#131212" stroke-width="2"/><circle cx="267" cy="155" fill="#e2e2e2" r="12"/><circle cx="387" cy="215" fill="#fff" fill-opacity=".104" r="18" stroke="#131212" stroke-width="2"/><circle cx="387" cy="215" fill="#e2e2e2" r="12"/><circle cx="387" cy="274" fill="#fff" fill-opacity=".104" r="18" stroke="#131212" stroke-width="2"/><circle cx="387" cy="274" fill="#e2e2e2" r="12"/><circle cx="327" cy="215" fill="#fff" fill-opacity=".104" r="18" stroke="#131212" stroke-width="2"/><circle cx="327" cy="215" fill="#e2e2e2" r="12"/><circle cx="327" cy="274" fill="#fff" fill-opacity=".104" r="18" stroke="#131212" stroke-width="2"/><circle cx="327" cy="274" fill="#e2e2e2" r="12"/><circle cx="267" cy="215" fill="#fff" fill-opacity=".104" r="18" stroke="#131212" stroke-width="2"/><circle cx="267" cy="215" fill="#e2e2e2" r="12"/><circle cx="267" cy="274" fill="#fff" fill-opacity=".104" r="18" stroke="#131212" stroke-width="2"/><circle cx="267" cy="274" fill="#e2e2e2" r="12"/><circle cx="207" cy="35" fill="#fff" fill-opacity=".104" r="18" stroke="#131212" stroke-width="2"/><circle cx="207" cy="35" fill="#e2e2e2" r="12"/><circle cx="147" cy="35" fill="#fff" fill-opacity=".104" r="18" stroke="#131212" stroke-width="2"/><circle cx="147" cy="35" fill="#e2e2e2" r="12"/><circle cx="87" cy="35" fill="#fff" fill-opacity=".104" r="18" stroke="#131212" stroke-width="2"/><circle cx="87" cy="35" fill="#e2e2e2" r="12"/><circle cx="27" cy="35" fill="#fff" fill-opacity=".104" r="18" stroke="#131212" stroke-width="2"/><circle cx="27" cy="35" fill="#e2e2e2" r="12"/><circle cx="207" cy="95" fill="#fff" fill-opacity=".104" r="18" stroke="#131212" stroke-width="2"/><circle cx="207" cy="95" fill="#e2e2e2" r="12"/><circle cx="147" cy="95" fill="#7b1173" r="12"/><circle cx="87" cy="95" fill="#fff" fill-opacity=".104" r="18" stroke="#131212" stroke-width="2"/><circle cx="87" cy="95" fill="#e2e2e2" r="12"/><circle cx="27" cy="95" fill="#fff" fill-opacity=".104" r="18" stroke="#131212" stroke-width="2"/><circle cx="27" cy="95" fill="#e2e2e2" r="12"/><circle cx="207" cy="155" fill="#fff" fill-opacity=".104" r="18" stroke="#131212" stroke-width="2"/><circle cx="207" cy="155" fill="#e2e2e2" r="12"/><circle cx="147" cy="155" fill="#ff4092" r="12"/><circle cx="87" cy="155" fill="#fff" fill-opacity=".104" r="18" stroke="#131212" stroke-width="2"/><circle cx="87" cy="155" fill="#e2e2e2" r="12"/><circle cx="27" cy="155" fill="#fff" fill-opacity=".104" r="18" stroke="#131212" stroke-width="2"/><circle cx="27" cy="155" fill="#e2e2e2" r="12"/><circle cx="207" cy="215" fill="#fff" fill-opacity=".104" r="18" stroke="#131212" stroke-width="2"/><circle cx="207" cy="215" fill="#e2e2e2" r="12"/><circle cx="207" cy="274" fill="#fff" fill-opacity=".104" r="18" stroke="#131212" stroke-width="2"/><circle cx="207" cy="274" fill="#e2e2e2" r="12"/><circle cx="147" cy="215" fill="#fff" fill-opacity=".104" r="18" stroke="#131212" stroke-width="2"/><circle cx="147" cy="215" fill="#e2e2e2" r="12"/><circle cx="147" cy="274" fill="#fff" fill-opacity=".104" r="18" stroke="#131212" stroke-width="2"/><circle cx="147" cy="274" fill="#e2e2e2" r="12"/><circle cx="87" cy="215" fill="#fff" fill-opacity=".104" r="18" stroke="#131212" stroke-width="2"/><circle cx="87" cy="215" fill="#e2e2e2" r="12"/><circle cx="87" cy="274" fill="#fff" fill-opacity=".104" r="18" stroke="#131212" stroke-width="2"/><circle cx="87" cy="274" fill="#e2e2e2" r="12"/><circle cx="27" cy="215" fill="#fff" fill-opacity=".104" r="18" stroke="#131212" stroke-width="2"/><circle cx="27" cy="215" fill="#e2e2e2" r="12"/><circle cx="27" cy="274" fill="#fff" fill-opacity=".104" r="18" stroke="#131212" stroke-width="2"/><circle cx="27" cy="274" fill="#e2e2e2" r="12"/></g><path d="m147 107.496377v35.007194" stroke="#141414" stroke-linecap="square"/></g></svg>