<svg height="125" viewBox="0 0 957 125" width="957" xmlns="http://www.w3.org/2000/svg"><g fill="none" fill-rule="evenodd" transform="translate(1 1)"><g stroke="#e2e2e2"><g transform="translate(0 81)"><g fill="#fff" fill-opacity=".104" stroke-width="2"><circle cx="10.369" cy="31.872" r="9.687"/><circle cx="40.5" cy="31.872" r="9.687"/><circle cx="70.631" cy="31.872" r="9.687"/><circle cx="100.762" cy="31.872" r="9.687"/><circle cx="130.893" cy="31.872" r="9.687"/><circle cx="161.024" cy="31.872" r="9.687"/><circle cx="191.155" cy="31.872" r="9.687"/><circle cx="221.286" cy="31.872" r="9.687"/><circle cx="251.417" cy="31.872" r="9.687"/><circle cx="281.548" cy="31.872" r="9.687"/><circle cx="311.679" cy="31.872" r="9.687"/><circle cx="341.811" cy="31.872" r="9.687"/><circle cx="371.942" cy="31.872" r="9.687"/><circle cx="402.073" cy="31.872" r="9.687"/><circle cx="432.204" cy="31.872" r="9.687"/><circle cx="462.335" cy="31.872" r="9.687"/><circle cx="492.466" cy="31.872" r="9.687"/><circle cx="522.597" cy="31.872" r="9.687"/><circle cx="552.728" cy="31.872" r="9.687"/><circle cx="673.252" cy="31.872" r="9.687"/><circle cx="703.383" cy="31.872" r="9.687"/><circle cx="733.514" cy="31.872" r="9.687"/><circle cx="763.645" cy="31.872" r="9.687"/><circle cx="793.777" cy="31.872" r="9.687"/><circle cx="823.908" cy="31.872" r="9.687"/><circle cx="854.039" cy="31.872" r="9.687"/><circle cx="884.17" cy="31.872" r="9.687"/><circle cx="914.301" cy="31.872" r="9.687"/></g><path d="m914.5 22.5v-21.02271555" stroke-linecap="square"/><circle cx="944.432" cy="31.872" fill="#fff" fill-opacity=".104" r="9.687" stroke-width="2"/><circle cx="582.859" cy="31.872" fill="#fff" fill-opacity=".104" r="9.687" stroke-width="2"/><circle cx="612.99" cy="31.872" fill="#fff" fill-opacity=".104" r="9.687" stroke-width="2"/><circle cx="643.121" cy="31.872" fill="#fff" fill-opacity=".104" r="9.687" stroke-width="2"/><path d="m70.515625 21.9958926v-21.02271557m30 21.02271557v-21.02271557m31 21.02271557v-21.02271557" stroke-linecap="square"/><path d="m10.016 22.698v-21.983h934.024v21.983"/><path d="m40.515625 21.9958926v-21.02271557" stroke-linecap="square"/></g><circle cx="477.5" cy="18.5" fill="#fff" fill-opacity=".104" r="18.5" stroke-width="2"/><circle cx="535.5" cy="18.5" fill="#fff" fill-opacity=".104" r="18.5" stroke-width="2"/><circle cx="420.5" cy="18.5" fill="#fff" fill-opacity=".104" r="18.5" stroke-width="2"/><path d="m160.5 102.5v-21.0227155m31 21.0227155v-21.0227155m30 21.0227155v-21.0227155m30 21.0227155v-21.0227155m31 21.0227155v-21.0227155m29 21.0227155v-21.0227155m30 21.0227155v-21.0227155m30 21.0227155v-21.0227155m30 21.0227155v-21.0227155m31 21.0227155v-21.0227155m30 21.0227155v-21.0227155m15-1.9772845v-21.0227155m-57.5 0h116m-58.5-.9772845v-21.0227155m-57 21.0227155v-21.0227155m116 21.0227155v-21.0227155m-44 66.0227155v-21.0227155m30 21.0227155v-21.0227155m30 21.0227155v-21.0227155m30 21.0227155v-21.0227155m30 21.0227155v-21.0227155m31 21.0227155v-21.0227155m30 21.0227155v-21.0227155m30 21.0227155v-21.0227155m30 21.0227155v-21.0227155m30 21.0227155v-21.0227155m30 21.0227155v-21.0227155m31 21.0227155v-21.0227155m30 21.0227155v-21.0227155m30 21.0227155v-21.0227155" stroke-linecap="square"/></g><circle cx="535.713" cy="18.713" fill="#e000cf" r="12.713"/><circle cx="420.713" cy="18.713" fill="#7b1173" r="12.713"/><circle cx="477.213" cy="18.213" fill="#ff4092" r="12.213"/><g stroke="#131212" transform="translate(0 81)"><g fill="#fff" fill-opacity=".104" stroke-width="2"><circle cx="10.369" cy="31.872" r="9.687"/><circle cx="40.5" cy="31.872" r="9.687"/><circle cx="70.631" cy="31.872" r="9.687"/><circle cx="100.762" cy="31.872" r="9.687"/><circle cx="130.893" cy="31.872" r="9.687"/><circle cx="161.024" cy="31.872" r="9.687"/><circle cx="191.155" cy="31.872" r="9.687"/><circle cx="221.286" cy="31.872" r="9.687"/><circle cx="251.417" cy="31.872" r="9.687"/><circle cx="281.548" cy="31.872" r="9.687"/><circle cx="311.679" cy="31.872" r="9.687"/><circle cx="341.811" cy="31.872" r="9.687"/><circle cx="371.942" cy="31.872" r="9.687"/><circle cx="402.073" cy="31.872" r="9.687"/><circle cx="432.204" cy="31.872" r="9.687"/><circle cx="462.335" cy="31.872" r="9.687"/><circle cx="492.466" cy="31.872" r="9.687"/><circle cx="522.597" cy="31.872" r="9.687"/><circle cx="552.728" cy="31.872" r="9.687"/><circle cx="673.252" cy="31.872" r="9.687"/><circle cx="703.383" cy="31.872" r="9.687"/><circle cx="733.514" cy="31.872" r="9.687"/><circle cx="763.645" cy="31.872" r="9.687"/><circle cx="793.777" cy="31.872" r="9.687"/><circle cx="823.908" cy="31.872" r="9.687"/><circle cx="854.039" cy="31.872" r="9.687"/><circle cx="884.17" cy="31.872" r="9.687"/><circle cx="914.301" cy="31.872" r="9.687"/></g><path d="m914.5 22.5v-21.02271555" stroke-linecap="square"/><circle cx="944.432" cy="31.872" fill="#fff" fill-opacity=".104" r="9.687" stroke-width="2"/><circle cx="582.859" cy="31.872" fill="#fff" fill-opacity=".104" r="9.687" stroke-width="2"/><circle cx="612.99" cy="31.872" fill="#fff" fill-opacity=".104" r="9.687" stroke-width="2"/><circle cx="643.121" cy="31.872" fill="#fff" fill-opacity=".104" r="9.687" stroke-width="2"/><path d="m70.515625 21.9958926v-21.02271557m30 21.02271557v-21.02271557m31 21.02271557v-21.02271557" stroke-linecap="square"/><path d="m10.016 22.698v-21.983h934.024v21.983"/><path d="m40.515625 21.9958926v-21.02271557" stroke-linecap="square"/></g><circle cx="477.5" cy="18.5" fill="#fff" fill-opacity=".104" r="18.5" stroke="#131212" stroke-width="2"/><circle cx="535.5" cy="18.5" fill="#fff" fill-opacity=".104" r="18.5" stroke="#131212" stroke-width="2"/><circle cx="420.5" cy="18.5" fill="#fff" fill-opacity=".104" r="18.5" stroke="#131212" stroke-width="2"/><path d="m160.5 102.5v-21.0227155m31 21.0227155v-21.0227155m30 21.0227155v-21.0227155m30 21.0227155v-21.0227155m31 21.0227155v-21.0227155m29 21.0227155v-21.0227155m30 21.0227155v-21.0227155m30 21.0227155v-21.0227155m30 21.0227155v-21.0227155m31 21.0227155v-21.0227155m30 21.0227155v-21.0227155m15-1.9772845v-21.0227155m-57.5 0h116m-58.5-.9772845v-21.0227155m-57 21.0227155v-21.0227155m116 21.0227155v-21.0227155m-44 66.0227155v-21.0227155m30 21.0227155v-21.0227155m30 21.0227155v-21.0227155m30 21.0227155v-21.0227155m30 21.0227155v-21.0227155m31 21.0227155v-21.0227155m30 21.0227155v-21.0227155m30 21.0227155v-21.0227155m30 21.0227155v-21.0227155m30 21.0227155v-21.0227155m30 21.0227155v-21.0227155m31 21.0227155v-21.0227155m30 21.0227155v-21.0227155m30 21.0227155v-21.0227155" stroke="#131212" stroke-linecap="square"/></g></svg>